<svg id="Flat" height="512" viewBox="0 0 340 340" width="512" xmlns="http://www.w3.org/2000/svg"><path d="m256.9 141.412s18.935 45.1-28.777 68.017-63.82 5.152-63.82 5.152z" fill="#2d2547"/><path d="m181.554 274.491a36.245 36.245 0 0 1 11.126 4.427 41.959 41.959 0 0 1 13.968 13.339 30.7 30.7 0 0 0 19.671 13.6q.812.159 1.665.293c12.685 1.982 24.181 7.114 29.731 23.774h-14.722a16.816 16.816 0 0 0 -10.282 0h-20.011c-11.253-9.834-33.768-30.332-49.449-24.935z" fill="#ce6581"/><path d="m198.713 313c-2.6-3.695-7.238-6.873-11.3-9.156a11.905 11.905 0 0 1 -3.151-18.264 9.684 9.684 0 0 1 6.86-3.423s-5.375-4.257-6.595-4.257-5.545.233-7.811 2.427c.132-2.314.225-4.44.222-5.838h-19.513c-31.093 2.017-48.121 28.26-50.914 32.93-.346.579-.687 1.16-1.064 1.72-6.532 9.688-21.361 20.781-21.361 20.781h22.014a60.215 60.215 0 0 0 12.766-8.769c.1-.087.2-.173.3-.26.788-.7 1.556-1.395 2.278-2.086a51.708 51.708 0 0 1 42.076-13.785q1.506.184 2.972.405a52.33 52.33 0 0 1 30.608 16.528c1.123 1.216 2.261 2.313 3.342 3.277a18.417 18.417 0 0 0 12.259 4.692h5.543c-5.59-3.255-13.97-9.022-19.531-16.922z" fill="#824561"/><path d="m141.188 235.708 16.7 21.415a12.9 12.9 0 0 0 9.29 4.882c3.919.281 9.176 1.429 12.957 5.182a4.93 4.93 0 0 1 -3.734 8.347c-3.651-.107-7.833.613-11.078 3.545 0 0-4.452 3.473-6.791 11.4a5.232 5.232 0 0 1 -9.84.64c-1.477-3.53-2.092-8.408-.49-15.063.983-4.081.444-10.943-2.405-14.025l-27.278-22.107z" fill="#c97546"/><path d="m169.9 248.678 8.956 14.241a12.651 12.651 0 0 0 8.586 5.766c4.133.7 9.758 2.529 13.155 7.3a4.573 4.573 0 0 1 -3.771 7.218c-3.57-.052-5.588-1.685-9.319-1.181a11.992 11.992 0 0 0 -6.4 3 21.113 21.113 0 0 0 -5.279 7.79 5.232 5.232 0 0 1 -9.854-.356c-1.1-3.629-.931-5.194 1.279-11.514a12.756 12.756 0 0 0 -1.837-11.881l-5.289-7.032a38.536 38.536 0 0 1 9.773-13.351z" fill="#fcbd7b"/><path d="m204.836 62.694s20.888-17.1 31.024-31.58a4.756 4.756 0 0 1 8.489 1.4 17.072 17.072 0 0 1 .034 6.809c-.074.467.37.492.791.277 8.349-4.264 16.531 2.863 16.531 2.863s7.91 1.019 11.225 6.579c4.247 2.237 6.842 5.32 5.011 10.671 0 0 8.935 16.245-2.166 43.321 0 0-2.708 45.216-38.989 81.227 0 0-38.177 38.448-73.917 51.444l18.523-114s33.389-5.889 44.134-10.318c0 0-9.39.435-13.065-15.882 0 0-2.687-13.477-18.084-11.06z" fill="#f7e4fb"/><path d="m186.664 194.021c1.742-17.236-7.737-17.439-15.418-14.822l-6.926 46.72c5.437-2.719 20.326-11.929 22.344-31.898z" fill="#080017"/><path d="m164.399 239.928-17.825 4.091 13.552 18.016 9.775-13.357z" fill="#c97546"/><path d="m166.775 209.358c5.99.459 14.6 1.228 23.114-2.189 45.421-18.235 40.762-55.95 40.762-55.95l-59.726 30.149z" fill="#968ea5"/><path d="m170.784 207.526 1.249 13.295-2.566 20.614a8.589 8.589 0 0 1 -5.986 7.145l-6.892 2.13a8.588 8.588 0 0 1 -7.267-1.038l-21.157-13.964 11.688-17.988z" fill="#f7e4fb"/><path d="m128.165 235.708 13.121 8.66 19.227-26.8s-4.663-1.939-8.487-3.933l-12.173 4.082z" fill="#968ea5"/><path d="m131.517 230.55a14.431 14.431 0 0 1 2.691.282c5.232 1.057 25.29 1.033 37.811-9.905l1.818-14.6-33.984 11.4z" fill="#968ea5"/><path d="m150.531 218.053-8.343 13.158c-9.4 11.306-23.183 28.65-33.142 44.466a49.9 49.9 0 0 1 -14.306 15.008q-.4.268-.812.534l-11.64 5.4-10.827 18.481a6.424 6.424 0 0 1 -11.967-3.414 25.955 25.955 0 0 1 .586-4.548c1.73-8.176 8.282-26.76 13.966-42.183l11.78-24.075 44.969-26.957z" fill="#56547a"/><path d="m240.488 116.152c-6.016-5.859-14.962-4.765-14.962-4.765-6.9 2.389-23.109 4.771-34.158 6.207l21.092 5.3c13.294-6.574 22.286-5.984 26.94-4.773a1.166 1.166 0 0 0 1.088-1.969z" fill="#968ea5"/><path d="m130.795 213.921-47.63 26.884s-4.24 10.91-9.118 24.148l47.274-31.147s5.783-4.41 12.887-2.974a37.27 37.27 0 0 0 7.981.379c6.217-7.478 10.521-12.322 10.521-12.322z" fill="#2d2547"/><path d="m79.979 193.305-12.074 11.515c-7.725 9.86-18.256 24.249-25.32 37.691-.111.211-2.394 6.094 3.761 9.982a16.647 16.647 0 0 0 -2.331 4.919 6.99 6.99 0 0 0 10.206 8.107c14.373-8.457 42.089-24.707 63.943-37.167 6.509-4.486 13.76-4.859 21.354-3.329 5.238-.063 12.367-1.278 21.549-5.178a32.122 32.122 0 0 0 13.266-10.528s2.078-5.531 3.135-8.146l4.756-8.581s-58.706-17.69-102.245.715z" fill="#56547a"/><path d="m152.846 186.5c-21.435-3.009-50.83-4.107-74.941 6.088 0 0-4.215 4.85-10 12.231 3.242 2.054 9.282 4.2 18.017.511 0 0-2.924 21.132 22.257 15.629a16.486 16.486 0 0 0 4.518-1.751c6.374-3.567 26.627-14.467 40.011-16.71.002.002.092-7.753.138-15.998z" fill="#2d2547"/><path d="m143.6 197.936s8.665 13.216 30.73 11.377a33.35 33.35 0 0 0 4.088-7.3l3.809-9.422a205.41 205.41 0 0 0 -23.311-5.158l-14.116 7.123z" fill="#2d2547"/><path d="m119.4 147.005s-30.938 16.451-50.274 43.727a7.38 7.38 0 0 0 5.5 11.655c4.37.343 10.1-.451 17.158-3.953l-.775 9.566c.691 3.59 2.926 6.975 8.69 7.66a17.161 17.161 0 0 0 10.013-1.988 365.334 365.334 0 0 1 33.888-15.738s8.638-5.578 13.6-7.194l5.677-18.9s-22.732-27.757-43.477-24.835z" fill="#56547a"/><path d="m119.4 147.005s-4.34 2.309-10.785 6.629c.221 4.65 2.8 10.644 14.227 11.781 0 0-.2 11.69 16.3 15.865 0 0-.62 9.193 4.455 16.656 4.761-1.9 9.707-3.73 14.665-5.346l4.607-20.747s-22.724-27.76-43.469-24.838z" fill="#2d2547"/><path d="m226.26 128.012a34.548 34.548 0 0 0 -19.854-11.6c-14.2-2.894-45.026-5.034-79.118 18.617a64.36 64.36 0 0 0 -11.025 10.346 7.5 7.5 0 0 0 5.7 12.167 58.022 58.022 0 0 0 9.126-.6l.169 8.476c1.494 4.705 6 9.761 18.24 10.517l-1.653 5.958c-1.188 7.573.4 19.634 22.723 19.271a63.318 63.318 0 0 0 39.487-15.045c11.006-9.213 23.015-23.4 23.015-41.45-.002-.001.15-8.232-6.81-16.657z" fill="#56547a"/><path d="m226.442 74.094c-4.492-2.684-12.652-8.472-15.617-16.545 0 0-29.659-.733-29.432 32.314a1.807 1.807 0 0 0 2.966 1.385c5.138-4.341 16.881-12.635 31.4-12.415a35.8 35.8 0 0 0 10.281-1.366 1.861 1.861 0 0 0 .402-3.373z" fill="#3b3b59"/><path d="m260.112 61.93c2.488 2.862 2.587 7.24.386 11.344 9.51 13.293-6.191 18.282-6.191 18.282-.712 8.078-7.347 9.3-13.014 8.828a.761.761 0 0 0 -.289 1.488c6.164 1.77 14.307 2.277 18.25-5.272 0 0 17.921-7.207 6.623-23.765 0 0 3.452-10.466-4.762-12.428a.96.96 0 0 0 -1.003 1.523z" fill="#968ea5"/><g fill="#2d2547"><path d="m162.68 143.961c-14.864 8.712-31.593 12.98-31.593 12.98a15.917 15.917 0 0 0 .176 8.474 71.163 71.163 0 0 0 33.157-19.245 1.419 1.419 0 0 0 -1.74-2.209z"/><path d="m172.632 173.113a1.327 1.327 0 0 0 -1.244-2.324 94 94 0 0 1 -21.892 5.145 26.463 26.463 0 0 0 -1.681 6.148 51.429 51.429 0 0 0 24.817-8.969z"/><path d="m213.092 157.1a1.518 1.518 0 0 0 -2.064-.588c-1.762.98-3.512 2.111-5.357 2.98a45.25 45.25 0 0 1 -5.566 2.332 26.462 26.462 0 0 1 -5.475 1.276c-1.716.23-3.66.118-4.517-.836-3.239-3.608.8-8.264 2.06-9.473 2.587-2.489 4.339-4.093 4.339-4.093a1.825 1.825 0 0 0 -1.426-3.148 14.805 14.805 0 0 0 -6.948 2.557c-4.035 2.822-9.342 9.814-4.975 17.587a10.5 10.5 0 0 0 4.54 3.921 11.732 11.732 0 0 0 4.427.646 16.011 16.011 0 0 0 2.443-.291c.516 2.389.84 4.654 3.608 7.427a2.322 2.322 0 0 0 2.662.6 2.188 2.188 0 0 0 1.015-2.922s-1.906-4.393-1.206-7.266c.01-.027.019-.054.028-.081.587-.3 1.164-.617 1.725-.944a56.549 56.549 0 0 0 5.5-3.718c.866-.665 1.72-1.336 2.56-2.021l1.245-1.047a8.291 8.291 0 0 0 1.195-1.146l.089-.122a1.517 1.517 0 0 0 .098-1.63z"/><path d="m112.545 184.052a1.361 1.361 0 0 0 -1.512-2.248 57.99 57.99 0 0 0 -19.248 16.63 21.665 21.665 0 0 0 -.775 9.566 106.149 106.149 0 0 1 21.535-23.948z"/><path d="m72.187 227.343-22.877 16.3a4.853 4.853 0 0 1 -6.721-1.131c-.11.209-.225.42-.334.628 0 0-3.214 5.552 4.091 9.351l27.4-23.147a1.269 1.269 0 0 0 -1.559-2.001z"/><path d="m100.028 266.149a1.7 1.7 0 0 0 -3.194-1.112l-14.546 31.58a45.184 45.184 0 0 0 11.637-5.4z"/></g><path d="m230.174 60.318 12.806-2.744a1.148 1.148 0 0 1 1.375 1.3 7.333 7.333 0 0 1 -6.268 6.387 8.643 8.643 0 0 1 -8.557-3.086 1.144 1.144 0 0 1 .644-1.857z" fill="#3b3b59"/><path d="m135.325 224.811a32.531 32.531 0 0 0 4.193.207l6.723-7.226a2.007 2.007 0 0 0 -2.415-3.138c-10.763 4.75-20.818 9.441-25.662 13.7a28.006 28.006 0 0 1 17.161-3.543z" fill="#2d2547"/><path d="m207.54 304.959a.969.969 0 0 0 -1.428 1.287 21.19 21.19 0 0 0 9.741 7.835 29.908 29.908 0 0 1 16.859 15.841h10.281s-2.922-12.639-22.686-17.928a35.7 35.7 0 0 1 -12.767-7.035z" fill="#824561"/><path d="m261.705 42.466 22.115-18.778a12.177 12.177 0 0 0 3.381-5.317c1.255-4.2-.689-6.337-2.693-7.409a8.174 8.174 0 0 0 -5.383-.72c-17.777 3.4-30.03 22.442-33.951 29.361 0-.003 9.401-.546 16.531 2.863z" fill="#56547a"/><path d="m292.22 43.785c-7.969-.3-19.29 5.26-19.29 5.26a19.694 19.694 0 0 1 5.011 10.671l9-.419a13.518 13.518 0 0 0 6.12-1.728 10.708 10.708 0 0 0 4.97-5.222 6.381 6.381 0 0 0 -5.811-8.562z" fill="#56547a"/></svg>