<svg id="Flat" height="512" viewBox="0 0 340 340" width="512" xmlns="http://www.w3.org/2000/svg"><path d="m178.088 53.171v74.623h143.213v-76.211z" fill="#ff828a"/><path d="m20.585 57.934v48.41l98.757 5.89v-54.3l-38.423-10.162z" fill="#ff828a"/><path d="m105.184 54.189-8-2.115-13.791-3.647-2.474-.655-5.526.931-14.458 2.435-5.764.971-13.827 2.328-6.4 1.078-14.359 2.419v13.943c.907.09 1.85.14 2.836.14a35.558 35.558 0 0 0 4.62-.317 27.273 27.273 0 0 0 6.906 3.713v31.787l8 .477v-30.677c.426.019.857.031 1.3.031a31.28 31.28 0 0 0 10.924-2.051v33.427l8 .477v-28.673a21.389 21.389 0 0 0 8.146 1.6 23.256 23.256 0 0 0 4.076-.375v28.179l8 .477v-31.354a21.522 21.522 0 0 0 5.478-3.931 34.573 34.573 0 0 0 8.313 4.446v31.66l8 .477v-30.184a40.17 40.17 0 0 0 5.081.316 46.877 46.877 0 0 0 9.077-.944v-22.644z" fill="#824561"/><path d="m305.292 51.76-1.036.012-24.435.271-4.887.054-14.692.163-8 .088-11.833.132-8 .088-8.216.091-46.105.512v20.594c1.247-.093 2.532-.239 3.877-.455a41.909 41.909 0 0 0 10 2.911v51.573h8v-51.229a27.989 27.989 0 0 0 13.146-4.4c.19-.04.38-.081.57-.127v55.754h8v-53.966a39.459 39.459 0 0 0 10.726 4.1v49.87h8v-48.996a27.29 27.29 0 0 0 11.833-3.075v52.066h8v-50.826a33.811 33.811 0 0 0 9.419 4.886 28.193 28.193 0 0 0 5.273 1.193v44.75h8v-44.836a28.142 28.142 0 0 0 14.358-6.78v51.616h8v-51.77a19.964 19.964 0 0 0 5.572.778 27.152 27.152 0 0 0 10.438-2.289v-22.93z" fill="#824561"/><path d="m118.067 98.33h71.923a21.725 21.725 0 0 1 21.725 21.725v125.922h-91.676z" fill="#92d3ff"/><path d="m120.039 246.287h91.676v-33.476a43.725 43.725 0 0 0 -6.994-.546c-.893 0-1.755.025-2.576.068a26.732 26.732 0 0 0 -25.328-17.665c-.771 0-1.553.033-2.323.1-9.828.841-15.841 5.33-19.157 9.857h-.264c-13.832 0-21.088 6.566-24.74 12.075-1.3 1.956-2.181 2.712-2.835 4.458-2.925.6-5.515 2.716-7.743 3.88z" fill="#4a9cdd"/><path d="m14.926 89.435h95.58a18.41 18.41 0 0 1 18.409 18.41v111.255l-2.206 29.508-116.394-2.32v-152.242a4.612 4.612 0 0 1 4.611-4.611z" fill="#abc0e2"/><path d="m110.506 89.435h-.144c3.2 3.516 7.7 3.292 7.7 27.4v93.515a3.33 3.33 0 0 1 -4.839 2.992 21.983 21.983 0 0 0 -10.352-2.59h-13.571l-35.232-32.414h-43.753v67.949l118.6 3.575v-142.017a18.409 18.409 0 0 0 -18.409-18.41z" fill="#5e7189"/><path d="m325.7 89.435h-95.58a18.41 18.41 0 0 0 -18.409 18.41v104.966l3.417 36.948 115.183-3.472v-152.241a4.611 4.611 0 0 0 -4.611-4.611z" fill="#abc0e2"/><path d="m298.166 191.2a18.466 18.466 0 0 0 -12.939 5.291l-6.293 6.182h-20.534a37.657 37.657 0 0 0 -19.586 5.271 9.343 9.343 0 0 1 -10.058-.257 9.3 9.3 0 0 1 -4.056-7.687v-92.05c0-11.236 3.416-16.279 6.124-18.515h-.7a18.409 18.409 0 0 0 -18.409 18.41v142.017l118.6-3.575v-55.087z" fill="#5e7189"/><path d="m39.176 192.49s-6.678-14.875-1.113-34.877a34.82 34.82 0 0 0 1.375-11.436 28.681 28.681 0 0 0 -.481-3.868 1.684 1.684 0 0 1 2.623-1.7c4.259 3.026 10.6 8.567 12.571 15.8a46.1 46.1 0 0 1 9.189-22.462 26.389 26.389 0 0 0 5.83-14.984 1.687 1.687 0 0 1 3.157-.706c5.083 8.976 12.711 28.109 1.9 49.724 0 0 8.849-6.467 18.719-8.169 4.864-.838 7.745-2.587 9.415-4.144a1.682 1.682 0 0 1 2.81 1.1c.549 6.745-.723 19.945-17.671 25.162 0 0 2.322 3.253 15.975 5.113a1.688 1.688 0 0 1 1.414 2.084c-1.268 4.968-6.413 18.137-25.217 17.308z" fill="#5e7189"/><path d="m10.315 246.287h320v78.609h-320z" fill="#92d3ff"/><path d="m268.672 210.373s-29.5-12.275-14.942-46.864a1.691 1.691 0 0 1 3.2.2 30.866 30.866 0 0 0 13.448 18.625s-4.425-12.592 7.487-27.227a34.575 34.575 0 0 0 8.088-22.009 1.687 1.687 0 0 1 3.187-.759c4.579 8.728 10.561 24.455 4.381 39.1 0 0 7.322-10.115 19.655-12.614a1.691 1.691 0 0 1 2.007 1.816c-.341 3.786-1.651 11.622-6.687 15.9 0 0 6.6 1.721 14.527-2.738a1.681 1.681 0 0 1 2.5 1.318c.511 6 .151 20.657-13.964 28.647l-7.488 10.21z" fill="#5e7189"/><path d="m26.281 192.49s-6.678-14.875-1.113-34.877a34.846 34.846 0 0 0 1.375-11.436 28.681 28.681 0 0 0 -.481-3.868 1.684 1.684 0 0 1 2.623-1.7c4.259 3.026 10.6 8.567 12.571 15.8a46.1 46.1 0 0 1 9.189-22.462 26.4 26.4 0 0 0 5.83-14.984 1.687 1.687 0 0 1 3.157-.706c5.083 8.976 12.711 28.109 1.9 49.724 0 0 8.849-6.467 18.718-8.169 4.865-.838 7.745-2.587 9.416-4.144a1.682 1.682 0 0 1 2.81 1.1c.548 6.745-.723 19.945-17.671 25.162 0 0 2.322 3.253 15.974 5.113a1.688 1.688 0 0 1 1.421 2.093c-1.269 4.968-6.414 18.137-25.217 17.308z" fill="#afe87c"/><path d="m259.072 216.783s-29.5-12.275-14.943-46.864a1.692 1.692 0 0 1 3.2.2 30.866 30.866 0 0 0 13.448 18.625s-4.425-12.592 7.487-27.227a34.575 34.575 0 0 0 8.088-22.01 1.687 1.687 0 0 1 3.186-.759c4.58 8.729 10.562 24.456 4.381 39.1 0 0 7.322-10.115 19.656-12.613a1.69 1.69 0 0 1 2.006 1.815c-.34 3.787-1.65 11.622-6.687 15.9 0 0 6.6 1.722 14.528-2.738a1.682 1.682 0 0 1 2.5 1.319c.511 6 .151 20.657-13.965 28.646l-7.487 10.21z" fill="#afe87c"/><path d="m115.278 226.36a25.249 25.249 0 0 0 -18.8-8.4h-6.42a11.134 11.134 0 0 1 -7.449-2.858l-23.735-21.358a25.176 25.176 0 0 0 -16.845-6.464h-31.714v59.007h95.62z" fill="#abc0e2"/><path d="m237.551 246.287-5.583-18.6 1.088-2.358a21.741 21.741 0 0 1 19.744-12.635h28.43a11.134 11.134 0 0 0 8.054-3.446l4.5-4.713a17.694 17.694 0 0 1 12.8-5.478h23.731v47.23z" fill="#abc0e2"/><path d="m115.271 226.366a26.284 26.284 0 0 0 -12.3 19.921h12.97l4.738-12.3-3.225-4.819a25.32 25.32 0 0 0 -2.183-2.802z" fill="#5e7189"/><path d="m229.121 246.287h10.779a37.2 37.2 0 0 0 -7.936-18.6l-3.735 8.1z" fill="#5e7189"/><path d="m17.307 34.168s-6.607 1.732-7.522 10.949c0 0 .66 4.585 1.3 7.811 0 0-.184 13.777 19.644 9.3 0 0 9.835 11.989 27.086 1.83 0 0 5.78 10.919 17.57 7.931 7.946-2.014 9.51-6.357 10.127-9.517a1.51 1.51 0 0 1 2.44-.732c3.826 4.84 12.357 13.445 30.119 9.273 16.615-3.9 18-14.784 16.855-21.962-.57-3.567-3.908-8.971-3.908-8.971a12.5 12.5 0 0 0 -2.78-2.045 11.673 11.673 0 0 0 -3.211-1.173s.854-10.772-8.476-17.25a17.35 17.35 0 0 0 -9.337-2.994c-4.555-.151-11.5.6-16.485 5.6 0 0-15.273-11.353-31.082 1.494 0 0-8.307-11.066-21.972-5.234-.004-.002-19.832-5.225-20.368 15.69z" fill="#878e73"/><path d="m215.879 27.835s-7.159-13.435-25.095-11.157c0 0-12.153 1.062-15.7 10.566 0 0-15.513.369-17.125 19.158-.066.767-.1 1.539-.088 2.311 1.011 5 2.718 8.289 4.986 10.2 4.626 4.481 10.23 6.921 20.865 4.436 0 0 20.422 12.225 31.673-7.791z" fill="#878e73"/><path d="m205.757 18.974a35.253 35.253 0 0 0 -4.842 8.619 16.188 16.188 0 0 0 -7.773 5.919 22.236 22.236 0 0 0 -2.152 22.423c.268.586.562 1.173.887 1.758a17.1 17.1 0 0 1 -9.737-2.71 3.41 3.41 0 0 0 -2.565-.484c-13.379 2.767-19.341-2.542-21.846-6.45-.061 4.65 1.239 9.306 4.406 12.517 4.522 4.584 10.255 6.645 20.945 4.4 0 0 12.941 7.338 24.2 1.323l.031-.016c.237-.128.474-.263.711-.4.075-.044.15-.091.225-.136.166-.1.333-.2.5-.3l-.008-.006a23.833 23.833 0 0 0 7.455-8.058v-28.873a23.546 23.546 0 0 0 -10.437-9.526z" fill="#42493e"/><path d="m237.6 17.724s-23.2-10.308-31.219 15.39c0 0-8.075 1.089-10.767 12.233 0 0 0 15.938 16.51 16.8 2.246.117 5.04-1.611 7.66-2.918 0 0 4.087 7.34 16.625 9.443 7.575 1.27 13.425-.485 17.934-7.437.231-.355 2.79-3.084 3.013-3.465 0 0 4.87 10.823 16.6 14.735 10.638 3.548 19.322-.564 23.339-12.178.144-.416 1.7-2.942 1.83-3.38 0 0 3.915 17.553 20.538 9.544a17.97 17.97 0 0 0 9.8-12.269c.213-.82.381-1.647.512-2.475 2.883-18.3-12.935-33.379-28.738-27.863-.206.071-.412.145-.62.222 0 0-17.7-12.014-33.669 4.339-.002-.003-6.757-20.437-29.348-10.721z" fill="#878e73"/><g fill="#4a9cdd"><path d="m147.562 193.842a4 4 0 0 1 -4-4v-61.932a4 4 0 1 1 8 0v61.932a4 4 0 0 1 -4 4z"/><path d="m168.517 187.28a4 4 0 0 1 -4-4v-11.126a4 4 0 0 1 8 0v11.126a4 4 0 0 1 -4 4z"/><path d="m168.517 159.666a4 4 0 0 1 -4-4v-1.747a4 4 0 0 1 8 0v1.747a4 4 0 0 1 -4 4z"/><path d="m168.517 142.425a4 4 0 0 1 -4-4v-24.292a4 4 0 1 1 8 0v24.292a4 4 0 0 1 -4 4z"/><path d="m189.134 187.28a4 4 0 0 1 -4-4v-1.967a4 4 0 0 1 8 0v1.967a4 4 0 0 1 -4 4z"/><path d="m189.134 166.3a4 4 0 0 1 -4-4v-39.717a4 4 0 0 1 8 0v39.717a4 4 0 0 1 -4 4z"/><path d="m330.315 265.337h-29.342a4 4 0 1 0 0 8h29.342z"/><path d="m274.791 273.337h-3.415a4 4 0 0 1 0-8h3.415a4 4 0 0 1 0 8z"/><path d="m244.258 273.337h-150.18a4 4 0 1 1 0-8h150.18a4 4 0 1 1 0 8z"/><path d="m71.026 273.337h-1.844a4 4 0 0 1 0-8h1.844a4 4 0 1 1 0 8z"/><path d="m44.286 265.337h-33.971v8h33.971a4 4 0 0 0 0-8z"/><path d="m330.315 288.386h-151.3a4 4 0 0 0 0 8h151.3z"/><path d="m154.7 296.386h-1.787a4 4 0 1 1 0-8h1.787a4 4 0 0 1 0 8z"/><path d="m126.805 288.386h-116.49v8h116.49a4 4 0 0 0 0-8z"/></g><path d="m114.154 246.287s.758-15.915 19.705-16.673c0 0 1.515-19.705 26.146-16.673 0 0 2.139-9.089 15.171-10.2 10.474-.9 19.929 6.892 20.423 17.393q.027.563.027 1.146s33.725-8.715 34.1 25.01z" fill="#fff"/><path d="m135.571 49.239a16.347 16.347 0 0 0 -4.561-9.16c1.472 6.771 2.2 19.826-15.387 23.682-14.923 3.27-24.748-4.913-28.954-8.961a1.788 1.788 0 0 0 -3 .859c-.959 4.226-3.611 10.68-10.871 10.68-7.646 0-11.3-5.407-12.78-8.561a1.8 1.8 0 0 0 -2.7-.657c-11.057 8.5-21.264 2.158-24.786-.6a4.031 4.031 0 0 0 -3.088-.8c-15 2.264-18.8-5.26-19.653-10.6a27.951 27.951 0 0 0 .524 8.171s.293 14.342 20.121 9.86c0 0 9.978 11.951 27.229 1.793 0 0 5.729 11.354 17.519 8.366 7.947-2.014 10.291-6.442 10.908-9.6a1.183 1.183 0 0 1 2.091-.539c3.827 4.841 13.4 13.416 31.159 9.244 16.615-3.907 17.376-15.999 16.229-23.177z" fill="#42493e"/><path d="m211.976 64.228a36.459 36.459 0 0 0 7.2-2.746s4.7 6.984 17.236 9.086a19.685 19.685 0 0 0 19.833-8.984q.345-.533.68-1.1a24.912 24.912 0 0 0 15.27 13.782c10.638 3.548 22.21-2.221 26.228-13.835q.216-.626.411-1.282s4.206 15.352 20.829 7.343a17.969 17.969 0 0 0 9.8-12.27 11.658 11.658 0 0 1 -10.731 6.449 21.158 21.158 0 0 1 -18.718-10.215 2.3 2.3 0 0 0 -4.138.585c-4.7 15.727-15.514 16.4-15.514 16.4-12.176 0-18.428-9.194-21.254-15.37a1.711 1.711 0 0 0 -3.174.176c-1.644 4.82-5.517 10.977-14.583 10.977-10.285 0-15.741-5.55-18.132-8.986-.963-1.383-2.657-1.451-4.282-1-25.746 7.089-23.316-7.888-23.316-7.888-2.721 11.223 6.255 21.466 16.355 18.878z" fill="#42493e"/><circle cx="24.887" cy="111.868" fill="#5e7189" r="4.302"/><circle cx="39.18" cy="104.357" fill="#5e7189" r="4.302"/><circle cx="36.326" cy="125.003" fill="#5e7189" r="4.302"/><circle cx="100.807" cy="116.832" fill="#5e7189" r="4.302"/><circle cx="88.505" cy="127.123" fill="#5e7189" r="4.302"/><circle cx="302.632" cy="116.482" fill="#5e7189" r="4.302"/><circle cx="306.166" cy="100.837" fill="#5e7189" r="4.302"/><circle cx="318.376" cy="110.628" fill="#5e7189" r="4.302"/></svg>