<svg id="Flat" height="512" viewBox="0 0 340 340" width="512" xmlns="http://www.w3.org/2000/svg"><path d="m79.94 22.882a7.883 7.883 0 0 1 2.252 5.918c-.97 19.622-5.6 119.883-4.313 219.01 0 0 1.851 49.4 1.23 82.206h-27.332s1.379-62.57 1.775-142.786c0 0-1.681-97.579 3.315-142.9a31.735 31.735 0 0 1 12.179-21.83q.27-.206.549-.413a7.9 7.9 0 0 1 10.345.795z" fill="#ce6581"/><path d="m52.343 308.9 26.61-14.2c-.4-25.114-1.074-46.175-1.074-46.175q-.029-2.51-.052-5.018h-24.721c-.24 25.943-.521 48.333-.763 65.393z" fill="#824561"/><path d="m87.168 241.5 19.508 9.357a106.834 106.834 0 0 1 19.247 16.632h37.989l-6.126 35.178a20.317 20.317 0 0 1 -20.015 16.83 20.308 20.308 0 0 1 -8.6-1.91c-8.171-3.815-29.046-12.164-45.562-32.717a186.931 186.931 0 0 0 -7.1-17.381l4.157-22.6z" fill="#cc7973"/><path d="m147.935 270.608s-10.239 23.336-6.056 48.457a20.31 20.31 0 0 0 15.907-16.4l6.126-35.178h-14.534a29.315 29.315 0 0 1 -1.443 3.121z" fill="#9e4243"/><path d="m125.12 228.123s-.873 23.113.8 39.367h35.48l6.709-23.131-6.43-22.067z" fill="#f4e6e1"/><path d="m147.576 224.541-4.305.687a43.35 43.35 0 0 0 .746 12.273 32.247 32.247 0 0 0 8.736 14.543 57.826 57.826 0 0 1 -3.375 15.446h12.022l6.709-23.131-3.254-11.159-17.149-5.074s-.123-1.398-.13-3.585z" fill="#bca8a0"/><path d="m286.9 264.4 2.24 3.085s6.547 22.752 3.843 62.523h-38.532l-3.38-64.551z" fill="#cc7973"/><path d="m265.781 269.551a35.116 35.116 0 0 1 -1.767-4.471l-12.943.382 3.38 64.551h15.134c8.788-24.947-.076-51.2-2.623-57.82-.348-.903-.762-1.77-1.181-2.642z" fill="#9e4243"/><path d="m289.137 228.123v39.367h-36.94l-2.973-31.472 13.326-5.884 8.577-2.011z" fill="#f4e6e1"/><path d="m257.965 230.663-8.741 5.355 2.976 31.472h12.681a57.848 57.848 0 0 1 -3.374-15.446 32.247 32.247 0 0 0 8.733-14.544 44.6 44.6 0 0 0 .887-9.378h-4.576z" fill="#bca8a0"/><path d="m258.488 103.094s-1.214 12.139 13.89 23.036a11.108 11.108 0 0 1 4.792 8.7c.054 3.126-1.188 6.88-5.776 10.348 0 0 13.982.667 14.251 15.186s-20.7 17.747-20.7 17.747h-55.662v-75.017z" fill="#2f2f49"/><path d="m155.769 103.094s1.214 12.139-13.891 23.036a11.111 11.111 0 0 0 -4.792 8.7c-.054 3.126 1.189 6.88 5.776 10.348 0 0-13.981.667-14.25 15.186s20.7 17.747 20.7 17.747h55.658v-75.017z" fill="#2f2f49"/><path d="m263.938 33.885c-22.7-25.663-56.81-23.871-56.81-23.871s-34.112-1.792-56.81 23.871a57.713 57.713 0 0 0 -14.742 42.053c1.166 16.807 10.166 37.561 47.084 38.987h48.94c36.918-1.426 45.919-22.18 47.084-38.987a57.7 57.7 0 0 0 -14.746-42.053z" fill="#ffca8d"/><path d="m255.244 79.315a94.022 94.022 0 0 0 23.086-14.266 56.161 56.161 0 0 0 -1.948-9.03l-.945.86c-.044.039-.091.085-.133.126a82.566 82.566 0 0 1 -20.548 13.721 3.732 3.732 0 0 1 -5.141-2.142 43.1 43.1 0 0 0 -1.809-4.4 3.7 3.7 0 0 1 .753-4.291 115.258 115.258 0 0 0 18.493-22.167c-.987-1.316-2.018-2.6-3.114-3.842-.8-.905-1.618-1.767-2.444-2.6l-.376.76c-.376.679-5.386 9.531-16.577 20.579a3.686 3.686 0 0 1 -5.109.059 40.328 40.328 0 0 0 -6.414-4.918 3.67 3.67 0 0 1 -1.5-4.364q1.894-5.234 3.58-10.893a149.484 149.484 0 0 0 3.837-16.284 78.857 78.857 0 0 0 -7.65-2.737 142.005 142.005 0 0 1 -3.857 16.745q-1.48 4.991-3.134 9.621a3.723 3.723 0 0 1 -4.453 2.348c-1.788-.47-3.446-.806-4.906-1.048a3.7 3.7 0 0 1 -3.074-3.655v-27.417c-2.968-.156-4.729-.067-4.729-.067s-1.19-.062-3.271 0v27.827a3.712 3.712 0 0 1 -3 3.629 54.137 54.137 0 0 0 -5.309 1.346 3.724 3.724 0 0 1 -4.605-2.288q-1.783-4.943-3.378-10.3a142.277 142.277 0 0 1 -3.889-16.944 78.654 78.654 0 0 0 -7.68 2.65 149.783 149.783 0 0 0 3.888 16.57q1.887 6.36 4.049 12.182a3.743 3.743 0 0 1 -1.39 4.377 39.3 39.3 0 0 0 -5.612 4.756 3.689 3.689 0 0 1 -5.181.073c-12.142-11.663-17.519-21.181-17.888-21.849l-.615-1.243c-1 .987-1.979 2-2.936 3.086s-1.842 2.182-2.708 3.312c2.129 3.545 8.48 13.178 20.544 24.312a3.733 3.733 0 0 1 .869 4.229q-.78 1.812-1.429 3.8a3.722 3.722 0 0 1 -5.048 2.251 83.616 83.616 0 0 1 -22.861-14.781c-.045-.044-.09-.088-.137-.13l-1.506-1.37a56.366 56.366 0 0 0 -2.049 8.968 93.549 93.549 0 0 0 25.95 15.775 3.74 3.74 0 0 1 2.2 4.478q-.5 1.788-1.069 3.383a3.735 3.735 0 0 1 -3.921 2.464 69.558 69.558 0 0 1 -22.325-6.352 39.659 39.659 0 0 0 4 10.311 77.083 77.083 0 0 0 13.3 3.421 1.7 1.7 0 0 1 .884 2.928 20.232 20.232 0 0 1 -5.726 3.612c7.146 5.757 17.753 9.825 33.368 10.429h48.949c16.514-.638 27.43-5.149 34.569-11.438-2.95-1.593-8.874-4.432.893-6.819 2.086-.509 4.151-1.127 6.2-1.825a39.345 39.345 0 0 0 4.08-10.24 69.787 69.787 0 0 1 -18.9 5.638 3.72 3.72 0 0 1 -4.072-2.441q-.674-1.923-1.248-4.119a3.737 3.737 0 0 1 2.122-4.366z" fill="#e27447"/><path d="m124.942 248.48c.1 6.284.372 13.1.981 19.01h35.477l5.514-19.01z" fill="#f24c62"/><path d="m152.753 252.044a57.826 57.826 0 0 1 -3.375 15.446h12.022l5.514-19.01h-17.314a34.932 34.932 0 0 0 3.153 3.564z" fill="#c12f4a"/><path d="m258.247 248.67 2.505 17.87 4.126.95h24.259v-19.01h-24.486z" fill="#f24c62"/><path d="m264.651 248.48h-14.251l1.8 19.01h12.681a57.848 57.848 0 0 1 -3.374-15.446 34.8 34.8 0 0 0 3.144-3.564z" fill="#c12f4a"/><path d="m258.755 171c-11.127-1.8-19.907-7.983-27.4-17.074-.162-.192-.321-.387-.475-.586-13.748-4.628-28.564-6.7-44.228-6.742a18.165 18.165 0 0 1 -3.755 7.328c-6.491 9.75-15.936 15.3-27.936 16.6-.638.172-1.379.216-2.024.358a13.835 13.835 0 0 1 -2.055.121c-10.713 2.984-34.624 14.5-25.764 57.114h18.009a13.3 13.3 0 0 1 4.577 0s.806 13.713 12.1 19.36a11.486 11.486 0 0 1 -.557 8.975 70.478 70.478 0 0 1 -2.4 9.309c-4.033 12.368-11.024 30.889-4.571 64.246h109.7c6.453-33.357-.538-51.878-4.571-64.246a70.5 70.5 0 0 1 -2.4-9.309c-1.059-3.105-2.135-6.213-.557-8.975 11.293-5.647 12.1-19.36 12.1-19.36a9.291 9.291 0 0 1 4.576 0h18.01c8.86-42.613-15.052-54.13-25.765-57.114-1.517-.166-3.586.56-4.614-.005z" fill="#cc7973"/><path d="m207.128 223.149-24.671-.857s.106 24.975 6.855 39.179a5.188 5.188 0 0 0 4.7 2.934 5.221 5.221 0 0 0 5.221-5.22v-2.256a.842.842 0 0 1 .841-.841.842.842 0 0 1 .836.746l.845 7.423a5.221 5.221 0 0 0 5.164 4.454h.424a5.221 5.221 0 0 0 5.164-4.453l.846-7.424a.841.841 0 0 1 .835-.746.841.841 0 0 1 .841.841v2.256a5.219 5.219 0 0 0 5.219 5.22 5.188 5.188 0 0 0 4.7-2.935c6.749-14.2 6.855-39.178 6.855-39.178z" fill="#9e4243"/><path d="m195.049 235.387c-.076 1.725-.1 3.552-.1 5.333s.043 3.584.117 5.372a82.842 82.842 0 0 0 1.066 10.591v.028a2.158 2.158 0 0 1 -4.218.9 87.048 87.048 0 0 1 -1.993-11.1q-.33-2.781-.551-5.568c-.145-1.869-.261-3.7-.325-5.624a3 3 0 0 1 6-.2v.225z" fill="#f4e6e1"/><g fill="#9e4243"><path d="m95.362 265.08h2.7a8.615 8.615 0 0 0 8.616-8.616v-5.6a174.413 174.413 0 0 0 -22.812-13.364l-5.987 4.623-4.848 26.382a94.806 94.806 0 0 0 10.577 16.365c12.482-4.705 11.754-19.79 11.754-19.79z"/><path d="m261.328 170.5q-.969-.213-1.926-.47-1.986-.321-3.9-.792c-13.456 37.954-48.3 40.176-48.378 40.181s-34.8-2.216-48.309-39.981c-1.291.244-2.61.445-3.964.592q-.957.256-1.926.47c-.6.133-1.294.3-2.044.511.056 7.5 2.457 57.156 56.24 57.16h.007c53.783 0 56.184-49.657 56.24-57.16-.746-.211-1.435-.379-2.04-.511z"/><path d="m230.894 153.334a18.19 18.19 0 0 1 -3.607-8.268l-1.875-11.589h-36.567l-1.875 11.589c-.084.518-.2 1.027-.324 1.533 7.426 5.888 23.917 15.584 44.248 6.735z"/></g><path d="m225.207 234.054c-.085 2.04-.23 3.975-.405 5.953s-.4 3.93-.659 5.891a80.119 80.119 0 0 1 -2.376 11.71 1.892 1.892 0 0 1 -3.675-.88l.008-.038a76.088 76.088 0 0 0 1.172-11.22q.1-2.845.089-5.7c-.011-1.889-.055-3.825-.153-5.655v-.026a3 3 0 0 1 6-.325 2.769 2.769 0 0 1 -.001.29z" fill="#f4e6e1"/><path d="m182.391 95.834h-6.036a9.564 9.564 0 0 0 -9.564 9.564v7.852a9.475 9.475 0 0 0 8.626 9.517 24.691 24.691 0 0 0 6.974-.583z" fill="#9e4243"/><path d="m210.128 242.959-1.058 17.32a1.945 1.945 0 0 1 -3.883 0l-1.059-17.32a3.006 3.006 0 0 1 6-.367 3.456 3.456 0 0 1 0 .367z" fill="#f4e6e1"/><path d="m225.235 216.051h-36.213s-1.713 10.673-.119 19.967a12.639 12.639 0 0 0 9.22 10.121 39.395 39.395 0 0 0 18.01 0 12.64 12.64 0 0 0 9.221-10.121c1.594-9.294-.119-19.967-.119-19.967z" fill="#f24c62"/><path d="m225.235 216.051h-36.213a77.474 77.474 0 0 0 -.784 9.679 68.952 68.952 0 0 0 18.887 2.44h.007a68.945 68.945 0 0 0 18.886-2.44 77.372 77.372 0 0 0 -.783-9.679z" fill="#c12f4a"/><path d="m253.721 168.02a106.439 106.439 0 0 1 -9.73-4.964 20.924 20.924 0 0 1 -12.62-9.139c-1.46 6.457-6.827 22.4-24.243 22.4s-22.782-15.944-24.243-22.4a19.817 19.817 0 0 1 -12.62 9.139 106.439 106.439 0 0 1 -9.73 4.964 38.35 38.35 0 0 1 -5.68 2.008c.761 14.209 4.839 24.43 10.409 31.779l4.781 5.327c11.6 10.939 26.659 13 33.464 13.338a12.388 12.388 0 0 1 7.119.006c6.722-.324 21.805-2.326 33.455-13.223a18.026 18.026 0 0 1 4.841-5.357c5.6-7.356 9.713-17.6 10.478-31.87a38.321 38.321 0 0 1 -5.681-2.008z" fill="#f4e6e1"/><path d="m231.865 95.834h6.035a9.564 9.564 0 0 1 9.563 9.564v7.852a9.475 9.475 0 0 1 -8.625 9.517 24.7 24.7 0 0 1 -6.975-.583z" fill="#9e4243"/><path d="m207.128 145.179a27.581 27.581 0 0 1 -27.581-27.579v-31.659a27.518 27.518 0 0 1 1.776-9.759c17.36-7.026 35.06-4.865 53.064 5.526a27.74 27.74 0 0 1 .323 4.233v31.659a27.582 27.582 0 0 1 -27.582 27.579z" fill="#cc7973"/><path d="m191.182 113.269h31.893a28.149 28.149 0 0 1 -.92 6.155 4.374 4.374 0 0 0 -1.467 4.119c-2.109 4.522-6.08 8.826-13.56 8.826s-11.451-4.3-13.56-8.826a4.565 4.565 0 0 0 -1.466-4.119 28.075 28.075 0 0 1 -.92-6.155z" fill="#fff"/><path d="m234.386 81.708a27.588 27.588 0 0 0 -27.258-23.348 27.588 27.588 0 0 0 -25.8 17.824 21.564 21.564 0 0 0 15.3 10.092 8.262 8.262 0 0 0 9.358-7.011l.367-2.527s10.918 11.426 28.033 4.97z" fill="#2f2f49"/><path d="m82.366 225.25h9.375a10.375 10.375 0 0 1 10.375 10.375v11.75a10.375 10.375 0 0 1 -10.375 10.375h-9.375a0 0 0 0 1 0 0v-32.5a0 0 0 0 1 0 0z" fill="#a85d5d"/><path d="m57.112 219.257h18.507a10.747 10.747 0 0 1 10.747 10.743v33a11 11 0 0 1 -11 11h-18a11 11 0 0 1 -11-11v-33a10.747 10.747 0 0 1 10.746-10.743z" fill="#cc7973"/><path d="m54.499 79.056-1.218 69.307 25.349-17.914 1.919-67.993z" fill="#824561"/><path d="m186.87 189.872a3.5 3.5 0 0 0 -3.97-5.772c-5 3.44-12.635 10.979-17.637 17.7a43.118 43.118 0 0 0 4.783 5.324c4.364-6.197 12.118-14.016 16.824-17.252z" fill="#2f2f49"/><path d="m148.824 212.619a.987.987 0 0 0 -1.842-.676 36.716 36.716 0 0 0 -3.853 16.18h4.577a55.452 55.452 0 0 1 1.118-15.504z" fill="#9e4243"/><path d="m159.243 256.458a38.057 38.057 0 0 1 12.585 2.851 1.6 1.6 0 0 0 1.786-2.586c-5.538-5.69-13.809-9.24-13.809-9.24s.525 2.938-.562 8.975z" fill="#9e4243"/><path d="m231.813 183.472a3.5 3.5 0 0 0 -3.967 5.768c4.565 3.139 12.052 11.545 16.234 18.012a43.166 43.166 0 0 0 4.841-5.357c-4.795-6.97-12.146-15.01-17.108-18.423z" fill="#2f2f49"/><path d="m210.628 220.477v-28.4a3.5 3.5 0 1 0 -7 0v28.4c2.193.106 3.5.035 3.5.035s1.308.071 3.5-.035z" fill="#2f2f49"/><path d="m207.128 315.653a4 4 0 0 1 -4-4v-4.146a4 4 0 0 1 8 0v4.146a4 4 0 0 1 -4 4z" fill="#00000a"/><path d="m207.128 315.653a4 4 0 0 0 4-4v-4.146a4 4 0 0 0 -8 0v4.146a4 4 0 0 0 4 4z" fill="#9e4243"/><path d="m242.429 259.309a38.044 38.044 0 0 1 12.584-2.851c-1.086-6.036-.562-8.974-.562-8.975s-8.271 3.551-13.809 9.24a1.6 1.6 0 0 0 1.787 2.586z" fill="#9e4243"/><path d="m138.726 248.48h7v19.01h-7z" fill="#c12f4a"/><path d="m268.853 248.48h7v19.01h-7z" fill="#c12f4a"/><path d="m234.285 156.683a17.817 17.817 0 0 1 -2.914-2.766c-1.46 6.457-6.827 22.4-24.243 22.4s-22.782-15.944-24.243-22.4a17.776 17.776 0 0 1 -2.914 2.766 98.978 98.978 0 0 1 -9.711 6.365c1.925 10.958 9.305 35.348 36.868 35.348s34.943-24.39 36.868-35.348a99.221 99.221 0 0 1 -9.711-6.365z" fill="#2f2f49"/><path d="m125.923 267.49a64.239 64.239 0 0 1 9.848 11.725 1.064 1.064 0 0 0 1.913-.867 45.255 45.255 0 0 0 -4.8-10.858z" fill="#9e4243"/><path d="m265.433 212.619a55.452 55.452 0 0 1 1.118 15.5h4.576a36.7 36.7 0 0 0 -3.853-16.18.987.987 0 0 0 -1.841.68z" fill="#9e4243"/><path d="m81.282 86.809-26.67 15.268a3.614 3.614 0 0 1 -5.41-3.136 6.02 6.02 0 0 1 3.029-5.225l26.669-15.268a3.614 3.614 0 0 1 5.41 3.136 6.02 6.02 0 0 1 -3.028 5.225z" fill="#f4e6e1"/><path d="m81.282 110.815-26.67 15.268a3.614 3.614 0 0 1 -5.41-3.137 6.023 6.023 0 0 1 3.029-5.225l26.669-15.268a3.615 3.615 0 0 1 5.41 3.137 6.02 6.02 0 0 1 -3.028 5.225z" fill="#f4e6e1"/><path d="m191.149 100.534a1.8 1.8 0 0 1 -1.463-2.848 8.747 8.747 0 0 1 13.393.178 1.689 1.689 0 0 1 -1.373 2.67h-.146a1.678 1.678 0 0 1 -1.26-.6 5.141 5.141 0 0 0 -3.982-1.532 5.557 5.557 0 0 0 -3.821 1.515 1.793 1.793 0 0 1 -1.348.621z" fill="#9e4243"/><path d="m212.676 100.534a1.794 1.794 0 0 1 -1.463-2.848 8.747 8.747 0 0 1 13.393.178 1.689 1.689 0 0 1 -1.373 2.67h-.146a1.676 1.676 0 0 1 -1.26-.6 5.144 5.144 0 0 0 -3.983-1.532 5.559 5.559 0 0 0 -3.821 1.515 1.793 1.793 0 0 1 -1.347.621z" fill="#9e4243"/><path d="m220.685 123.542a24.458 24.458 0 0 0 1.468-4.118h-30.053a24.547 24.547 0 0 0 1.468 4.118z" fill="#e2e2e2"/></svg>