<svg id="Flat" height="512" viewBox="0 0 340 340" width="512" xmlns="http://www.w3.org/2000/svg"><path d="m79.938 144.9v176.668h50.3v-78.352a46.716 46.716 0 0 1 9.163-27.8 100.235 100.235 0 0 1 10.638-12.126 45.569 45.569 0 0 0 13.6-30.327c.648-12.589.747-28.706-1.657-41.156l-17.362 2.454s13.019 45.937-18.062 62.025v-53.435z" fill="#ff8594"/><path d="m144.622 134.263a86.552 86.552 0 0 1 2.391 28.259 42.747 42.747 0 0 0 5.82-4.46 36.045 36.045 0 0 0 11.2 1.87c.062-9.566-.416-19.685-2.045-28.123z" fill="#c95273"/><path d="m79.938 184.839c5.645-2.267 13.5-7.9 17.383-15.813a98.293 98.293 0 0 0 29.239.665v-26.84l-46.622 2.049z" fill="#c95273"/><path d="m221.439 147.759v30.253a12.065 12.065 0 0 1 -4.486 9.554c-.654.51-3.048 1.053-5.082 1.487a3.5 3.5 0 0 0 -2.771 3.426v21.909a3.527 3.527 0 0 0 1.318 2.738l.024.02c5.5 4.47 12.765 11.057 12.765 18.146v86.276h45.263v-165.63z" fill="#ff8594"/><path d="m221.439 147.759v25.446a82.72 82.72 0 0 0 13.871 10.824c.488 11.9 4.887 37.423 33.16 43.006v-71.1z" fill="#c95273"/><path d="m285.156 25.29s-22.847-10.234-54.389 6.017c0 0-15.559 11.965-24.1 19.64l-29.524 75.89 11.216 20.922c7.364 6.692 17.89 10.785 38.149 5.917 0 0 22.824 28.3 60.419 1.915 0 0 24.815 7.221 38.509-12.941a38.537 38.537 0 0 0 6.332-23.85c-.48-8.57-3.115-19.922-12.7-26.8l1.946-8.7c1.212-9.75-.023-25.077-17.426-31.845l-1.561-10.453c-2.051-5.742-6.65-12.367-16.871-15.712z" fill="#d68e73"/><path d="m331.949 119.889c-12.148 3.494-13.766-3.666-13.766-3.666v.008a98.214 98.214 0 0 0 -5.093-14.1 4.807 4.807 0 0 0 -8.813.068c-3.166 7.275-9.719 16.52-23.251 22.4a117.744 117.744 0 0 0 -32.142 20.857 7.106 7.106 0 0 1 -8.639.735 19.3 19.3 0 0 1 -6.111-5.946 4.3 4.3 0 0 0 -3.966-2.024c-25.313 1.8-26.109-21.287-26.109-21.287s22.894-7.063 15.857-31.82c0 0 18.7-23.055 10.422-53.663a116.849 116.849 0 0 0 -24.371 17.349l-.009.008-17.971 46.084-12.863 32.985s1.178 13.1 11.146 22.046v.009c7.405 6.645 19.662 11 39.89 6.006 0 0 24.136 28.3 61.564 1.675.004 0 44.517 8.976 44.225-37.724z" fill="#91493e"/><path d="m45.962 45.167s-20.444-1.778-24 28.888c0 0-17.658 4.889-15.111 32 0 0-2.456 18.826 11.453 33.652 0 0 33.97 18.021 76.186 12.867l9.583 4.227c12.225 2.351 32.5 2.792 46.278-14.97 0 0 34.122 9.92 40.84-22.7 0 0 .168-9.219-.153-15.376l-19.194-53.03a100.421 100.421 0 0 0 -22.512-19.087 61.924 61.924 0 0 0 -36.932-9.8 44.861 44.861 0 0 0 -12.287 2.438 18.209 18.209 0 0 1 -9.523-2.752c-10.351-1.815-27.122-1.254-39.923 16.106-.386 2.77-2.284 5.213-4.705 7.537z" fill="#d68e73"/><g fill="#91493e"><path d="m146.214 129.641a6.43 6.43 0 0 0 -5.663 1.732c-6.628 6.508-29.007 22.408-79.776 7.713-28.3-8.191-43.319-12.012-51.284-13.74a41.894 41.894 0 0 0 8.814 14.361s34.024 20.251 76.24 15.1l8.055 3.419c12.224 2.351 34.023 3.369 47.8-14.393 0 0 35.412 8.939 42.129-23.682 0 0-1.173-10.238-1.494-16.395l-5.5-15.206c-1.688-.579-2.682-.9-2.682-.9s-2.391 48.22-36.639 41.991z"/><path d="m192.526 120.369a62.577 62.577 0 0 0 .988-15.871 58.14 58.14 0 0 0 -.9-9.791l-42.266 1.854s2.283 32.672 42.178 23.808z"/><path d="m106.576 113.2a21.576 21.576 0 0 1 -9.011-.038 2.64 2.64 0 0 1 -1.957-3.367c6.613-21.276 1-34.355-2.153-39.5a1.727 1.727 0 0 0 -3.007.111 53.619 53.619 0 0 1 -28.372 25.14c-11.012 4.221-18.279 12.048-22.82 18.908a41.838 41.838 0 0 0 -6.739 29.832 34.164 34.164 0 0 0 1.795 6.67c12.885 5.654 31.46 7.354 58.957 4a34.807 34.807 0 0 0 9.508 3.305c12.364-12.95 11.991-30.627 10.73-40.286a5.7 5.7 0 0 0 -6.931-4.775z"/></g><path d="m169.936 37.874a62.371 62.371 0 0 1 -15.652 22.7 30.181 30.181 0 0 0 -8.92 15.771q-.149.708-.278 1.447c-3.039 17.43 9.185 33.481 26.706 35.942 9.812 1.378 22.007-.571 34.631-11.625a9.823 9.823 0 0 0 -.511-15.268s21.832-18.371 16.438-61.652a1.822 1.822 0 0 0 -3.178-.975c-3.7 4.254-10.975 11.672-19.254 15.054a42.207 42.207 0 0 0 -11.416 6.7 32.182 32.182 0 0 0 -9.127 12.123s.271-12.463-5-20.664a2.51 2.51 0 0 0 -4.439.447z" fill="#ff436d"/><path d="m82.52 76.24c2.9 5.561 7.839 19.853-1.618 42.017a21.042 21.042 0 0 0 11.71 1.695 5.706 5.706 0 0 1 6.581 5.244c.814 13.552-1.545 42.868-35.662 50.317a41.158 41.158 0 0 1 -19.678-.478c-10.584-2.911-25.495-10.35-27.289-29.245a41.835 41.835 0 0 1 8.805-29.29c5.009-6.525 12.805-13.826 24.085-17.268a53.619 53.619 0 0 0 30.057-23.091 1.728 1.728 0 0 1 3.009.099z" fill="#ff436d"/><path d="m308.259 118.334a2.8 2.8 0 0 0 -4.724-.7c-3.625 4.361-11.562 12.149-26.569 19.652-17.827 8.914-28.841 23.18-31.693 39.717a31.5 31.5 0 0 0 9.457 28.582q.528.486 1.092.965c18.6 15.806 45 11.153 57.2-9.986a48.325 48.325 0 0 0 6.1-20.767 1.616 1.616 0 0 0 -2.5-1.487 8.625 8.625 0 0 1 -2.111 1.138c-7.078 2.114-15.4-4.5-12.456-12.834a15.129 15.129 0 0 1 3.759-5.815c7.503-7.358 7.706-26.126 2.445-38.465z" fill="#ff436d"/><path d="m57.2 121.778a30.26 30.26 0 0 1 1.329 10.865 3.27 3.27 0 0 0 3.293 3.612 25.007 25.007 0 0 0 9.017-1.628 2.34 2.34 0 0 1 3.243 1.985c.456 5.474-.327 15.751-11.43 20.47 0 0-17.471 5.047-24.072-7.765s7.377-22.13 7.377-22.13a42.772 42.772 0 0 0 7.235-6.274 2.34 2.34 0 0 1 4.008.865z" fill="#ffe8cc"/><path d="m188.853 73.64c.55 5.631.276 15.808-7.6 21.308a14.392 14.392 0 0 1 -12.635 2.108c-3.683-1.2-7.429-4.207-6.487-11.59 1.759-13.781 17.886-11.857 17.886-11.857a10.424 10.424 0 0 0 5.81-1.5 1.994 1.994 0 0 1 3.026 1.531z" fill="#ffe8cc"/><path d="m282.57 168.657c2 3.712 6.4 13.259 3.252 20.709a11.528 11.528 0 0 1 -13.638 6.5c-3.322-.926-6.458-3.555-6.366-10.208.16-11.539 9.988-16.45 14.084-18a2.159 2.159 0 0 1 2.668.999z" fill="#ffe8cc"/><path d="m19.763 327.082a9.358 9.358 0 0 1 -9.222-11.025c2.277-12.388 9.071-32.574 29.319-46.428 0 0 18.742-14.332 40.55-20.7a33.266 33.266 0 0 0 12.248-6.419 22.724 22.724 0 0 0 6.142-7.724 2.024 2.024 0 0 1 3.748.092c2.715 7.3 5.623 20.959-3.526 33.765a25.112 25.112 0 0 0 -4.788 17.742c.742 5.722 3.491 11.9 11 15.553 0 0 17.233 5.726 30.32-7.361a64.022 64.022 0 0 1 25.261-15.37 2.026 2.026 0 0 1 2.6 2.252c-1.3 8.545-2.225 31.6 25.608 31.93 0 0 18.912.409 24.229-24.537 4.4-20.638 21.868-26.672 30.065-28.384a2.019 2.019 0 0 1 2.219 2.885 39.831 39.831 0 0 0 -2.42 5.951c-7.285 23.142 18.341 42.942 38.572 29.549.212-.14.424-.284.637-.43a25.667 25.667 0 0 0 8.735-10.5c3.785-8.285 12.344-24.739 23.919-33.2a2.023 2.023 0 0 1 3.189 1.886 28.92 28.92 0 0 0 3.507 17.073c.528 1.007 1.137 1.972 1.761 2.924 2.307 3.514 10.531 18.022 7.4 42.235a9.4 9.4 0 0 1 -9.3 8.245z" fill="#ff436d"/><path d="m39.09 224.932s9.22 21.938-13.184 28a8.014 8.014 0 0 1 -9-3.34 7.741 7.741 0 0 1 -.515-6.749c2.685-8.08 12.516-16.155 22.699-17.911z" fill="#ffc364"/><path d="m180.714 218.481c2.6 6.144 7.91 22.193-1.539 33.947a8.737 8.737 0 0 1 -14.5-1.08c-1.971-3.5-2.949-8.524-.64-15.531 3.8-11.533 9.472-16.533 12.8-18.576a2.687 2.687 0 0 1 3.879 1.24z" fill="#ffc364"/><path d="m65.707 48.906a22.584 22.584 0 0 0 -15.037-11.05 59.964 59.964 0 0 0 -4.708 7.533s9.671 0 17.489 5.5a1.539 1.539 0 0 0 2.256-1.983z" fill="#91493e"/><path d="m88.856 40.256a1.539 1.539 0 0 0 2.944-.476 23.459 23.459 0 0 1 8.316-15.28 42.307 42.307 0 0 0 -9.523-2.751c-5.031 6.842-3.705 13.862-1.737 18.507z" fill="#91493e"/><path d="m189.03 22.536a4 4 0 0 1 -2.9-6.749l1.531-1.618a4 4 0 1 1 5.811 5.5l-1.531 1.618a3.987 3.987 0 0 1 -2.911 1.249z" fill="#ffc364"/><path d="m115.484 90.168a4 4 0 0 1 -2.233-7.322l1.876-1.258a4 4 0 1 1 4.457 6.642l-1.876 1.259a3.979 3.979 0 0 1 -2.224.679z" fill="#ffc364"/><path d="m303.585 51.459a26.911 26.911 0 0 0 -1.563-10.452 30.511 30.511 0 0 0 -16.669 4.928 4.374 4.374 0 0 1 -3.629.5 18.392 18.392 0 0 0 -15.044 2.165 1.391 1.391 0 0 0 .858 2.58c3.475-.394 8.079.2 13 3.924a4.533 4.533 0 0 0 5.517-.023c3.051-2.389 8.817-5.338 17.53-3.622z" fill="#91493e"/><path d="m274.2 92.506a4 4 0 0 1 -3.272-6.294l1.259-1.8a4 4 0 1 1 6.551 4.588l-1.258 1.8a4 4 0 0 1 -3.28 1.706z" fill="#ffc364"/><path d="m298.36 89.449a1.748 1.748 0 0 0 1.926 2.822c9.454-3.848 18.779-.271 18.779-.271a43.518 43.518 0 0 0 1.946-8.7c-11.964-1.741-18.864 2.213-22.651 6.149z" fill="#91493e"/><path d="m187.678 287.344a4 4 0 0 1 -3.669-5.589l1.352-3.122a4 4 0 1 1 7.341 3.177l-1.351 3.122a4 4 0 0 1 -3.673 2.412z" fill="#ffc364"/><path d="m40.965 209.23a4 4 0 0 1 -3.315-6.23l1.865-2.775a4 4 0 1 1 6.638 4.463l-1.865 2.775a4 4 0 0 1 -3.323 1.767z" fill="#ffc364"/><path d="m327.692 205.748a4 4 0 0 1 -3.291-6.268l1.7-2.474a4 4 0 1 1 6.59 4.535l-1.7 2.474a4 4 0 0 1 -3.299 1.733z" fill="#ffc364"/></svg>