<svg id="flat" height="512" viewBox="0 0 500 500" width="512" xmlns="http://www.w3.org/2000/svg"><path d="m283.74 19.9a51.222 51.222 0 0 0 -10.322-2.489c2.8-3.627 5.914-7.685 6.86-12.213-.169-.995-1.283-1.49-2.256-1.753-10.708-2.886-22.113 1.975-30.822 8.845-5.085-2.99-13.64-5.09-19.512-4.59-5.231.545-6.554 6.538-3.328 10.221a36.537 36.537 0 0 0 -18.4.958s-15.367 5.342-7.2 17.194c-12.831 49.046 89.581 39.307 91.657 5.531l1.318-11.589a19.16 19.16 0 0 0 -7.995-10.115z" fill="#8fad96"/><path d="m301.8 44.005c-3.5-3.69-6.932-6.9-6.932-6.9s1.77-1.244 3.7-2.669a4.333 4.333 0 0 0 -.081-7.04 61.924 61.924 0 0 0 -14.749-7.487 14.979 14.979 0 0 1 3.679 9.465c-.027 4.326-3.282 8.78-8.074 7.868-3.4-.646-6.581-3.513-9.656-4.959-2.12-1-4.93 1.151-3.458 3.458 1.5 2.355 8.492 14.465-.611 11.648-3.732-1.154-7.74-7.172-9.779-10.171-1.075-1.582-4.228-1.719-4.59.6-.3 1.931-1.675 12.679-5.507 11.352-1.276-.441-2.879-9.434-3.31-10.922a2.376 2.376 0 0 0 -4.285-.56c-3.173 4.151-10.994 18.711-17.018 11.84-.982-1.4-1.2-3.647-1.5-5.291-.322-1.8-2.9-2.343-4.072-1.075-1.924 2.08-10.883 11.868-11.485 4.017-.166-2.152 2.589-5.424 3.815-7.1 1.784-2.435 3.715-4.722 5.405-7.227 1.064-1.577-.36-3.588-2.084-3.632-2.524-.064-5.4.236-7.885-.2-3.1-.547-5.29-.785-3.216-4.2a19.668 19.668 0 0 1 5.859-5.927 38.037 38.037 0 0 0 -14.5 8.3 5.8 5.8 0 0 0 .314 8.79l2.3 1.834a21.016 21.016 0 0 0 -11.714 16.208 1.848 1.848 0 0 0 2.183 2.066l6.3-1.2c-6.759 50.371 95.056 16.582 100.138 14.327l5.163-10.869 10.054-3.8a19.4 19.4 0 0 0 -4.404-10.544z" fill="#617a68"/><path d="m301.8 44.005c3.458 11.463-8.808 14.363-16.241 7.842a2.237 2.237 0 0 0 -3.559 1.689c-.228 4.073-3.248 8.27-7.615 8.994-7.206.979-10.1-5.976-14.342-10.119a1.554 1.554 0 0 0 -2.685.663c-1.355 6.023-5.218 13.5-11.936 11.66-2.272-1.069-2.4-3.683-3.011-6.062a1.691 1.691 0 0 0 -2.71-.858c-6.168 5.883-14.738 14.629-21.19 3.119a1.906 1.906 0 0 0 -3.357.073c-4.521 8.916-10.428 9.429-13.691 8.738-6.377-1.567-9.034-9.167-10.621-14.848 0 0-6.442 10.9-.482 21.132 13.122 38.357 85.269 36.685 103.085 7.414 6.58-4.383 8.428-14.479 3.827-20.908 1.572-.477 5.074-1.606 8.188-2.618 8.264-3.924.901-11.016-3.66-15.911z" fill="#4f424c"/><path d="m331.284 121.623c-2.327-1-4.676-1.933-6.974-3.048a26.232 26.232 0 0 0 14.058-15.5c.969-2.919 1.126-6.834-2.4-7.907a5.652 5.652 0 0 0 -4.3.517c-7.492 4.025-15.806 8.685-24.373 7.436 2.85-2.237 6.328-6.128 6.222-9.918-8.865-8.921-23.568-11.435-35.574-8.456l5.428-7.934c.959-1.4 1.962-3.216.62-4.664-12.272-4.886-29.11-.286-40.01 6.674a35.355 35.355 0 0 0 -37.346 2.508c-7.2-5.747-27.323-8.809-33.842 2.665a5.077 5.077 0 0 0 1.726 6.338.539.539 0 0 1 -.122.986 26.442 26.442 0 0 0 -19.186 20.562 18.155 18.155 0 0 0 -6.5-.678s-17.379 5.728-8.951 25.745 161.982 18.174 161.982 18.174l31.606-22.388c.681-3.99.279-7.754-2.064-11.112z" fill="#8fad96"/><path d="m254.963 227.356c89.147-2.054 91.673-69.312 82.347-84.51.917-.275 3.3-.7 5.776-1.1a5.387 5.387 0 0 0 3.626-8.277c-4.338-6.645-9.821-9.435-15.429-11.843 3.433 12.172-21.434 3.129-25.538 1.229a64.384 64.384 0 0 1 -20.732-15.42c-1.871-2.079-5.756.1-4.794 2.791l3.057 8.559c.99 2.769 3.015 5.924-1.042 6.55-5.422.837-11.86-4.081-15.181-7.727-1.636-1.8-4.8-.383-4.76 1.971.046 2.834.213 6.418-1.279 8.946-2.518 4.269-7.18 3.186-10.555.6-5.437-4.17-7.184-12.006-11.138-17.421a2.822 2.822 0 0 0 -5.132 2.164c1.163 5.908 2.615 12.711-.4 18.313-1.179 2.191-3.212 4.568-5.745 5.161-3.679.86-8.455-1.858-7.534-6.2h-.013c1.095-3.166-4.124-4.527-4.9-1.353-.507 11.986-18.139 10.75-17.25-1.522.239-2.868-3.579-3.274-4.948-1.34-4.032 5.695-9.759 11.511-16.344 14.182-4.748 1.926-8.2-.253-8.872-5.192-.6-4.449 1.848-8.819 3.841-12.594a2.511 2.511 0 0 0 -3.406-3.406l-13.033 6.415c-2.771 1.364-8.723 5.538-11.836 3.841-5.109-2.785.388-12.557 4.967-18.954-12.918.756-28 16.111-17.228 24.844-3.353 4.161-5.073 10.814-5.184 16.156a22.654 22.654 0 0 0 -15.493 1.7c-.909.455-1.893 1.13-1.967 2.144 1.973 6.454 8.571 11.14 14.949 12.767a40.424 40.424 0 0 0 -.367 14.63 4.871 4.871 0 0 0 7.723 3.217 17.666 17.666 0 0 1 10.007-3.809c-2.716 9.512 2.668 13.506 2.668 13.506s14.81 32.026 111.139 30.982z" fill="#617a68"/><path d="m254.963 227.356c89.147-2.054 91.673-69.312 82.347-84.51 0 0-6.732 14.8-21.94-1.112-2.437-2.551-5.047-5.391-8.824-5.233-6.61.278-10.111 5.515-12.007 11.182-1.874 5.161-6.388 6.155-11.94 6.5-7-.123 1.663-15.81-7.276-14.685-7.539 1.647-14.384 9.334-18.585 18.208a2.657 2.657 0 0 1 -4.284.728c-3.185-3.192-7.516-7.435-10.688-9.019a2.538 2.538 0 0 0 -3.61 2.411c.34 12.71-2.1 27.625-11.014 23.276a19.675 19.675 0 0 1 -6.627-7.62c-1.54-2.461-4.2-3.923-6.823-2.684-6.22 2.937-16.164 6.963-19.491 4.483-2.326-1.734-4.194-5.633-5.512-9.234-1.151-3.146-5.955-4.352-7.442-1.35-4.226 8.537-9.8 11.609-13.758 12.68a3 3 0 0 1 -3.731-3.522c.746-3.391 2.3-13.934-3.9-10.789-4.614 3.729-10.547 5.976-16.906 4.353-1.642-.419-1.983-1.764-.72-2.9a12.032 12.032 0 0 0 1.675-3.1 3.609 3.609 0 0 0 -2.627-4.969c-6.565-1.259-10.4-4.071-9.8-14.39-3.353 4.161-5.073 10.814-5.184 16.156a22.654 22.654 0 0 0 -15.493 1.7c-.909.455-1.893 1.13-1.967 2.144 1.973 6.454 8.571 11.14 14.949 12.767a40.389 40.389 0 0 0 -.369 14.617 4.879 4.879 0 0 0 7.736 3.221 17.661 17.661 0 0 1 10-3.8c-2.716 9.512 2.668 13.506 2.668 13.506s14.814 32.029 111.143 30.985z" fill="#4f424c"/><path d="m260.87 371.8a178.517 178.517 0 0 1 55.962-97.912l-8.324-7.686s-37.213 27.4-50.886 68.131z" fill="#4f424c"/><path d="m262.684 432.793c-.9-32.777-.87-75.776-.42-105.218-7.431.9-15.258 9.532-16.4 22.489.525 10.572.927 20.884 1.147 30.378l-20.5-24.519c-4.624-.248-6.265 6.213-6.265 6.213a156.12 156.12 0 0 1 20.805 47.146c7.863 11.333 15.429 21.061 21.633 23.511z" fill="#e57e80"/><path d="m244.663 481.125 22.317 8.551c-2.354-14.307-3.7-36.25-4.415-60.761-6.953-6.622-14.886-12.67-21.527-19.631 6.712 27.87 4.656 47.431 3.625 71.841z" fill="#bc5b65"/><path d="m241.815 289.306c1.527 18.482 3.017 40.113 4.042 60.758a98.761 98.761 0 0 1 16.431-24.033c.478-30.326 1.2-52.184 1.2-52.184l-22.425 6.93c.273 2.843.517 5.687.752 8.529z" fill="#bc5b65"/><path d="m222.136 360.525a5.611 5.611 0 0 1 7.693 1.009c6.959 8.654 12.525 19.141 15.285 24.759a1 1 0 0 0 1.892-.443v-5.408c-13.212-26.831-42.262-52.195-42.262-52.195l-6.571 5.595a211.759 211.759 0 0 1 22.114 28.366 12.892 12.892 0 0 1 1.849-1.683z" fill="#4f424c"/><path d="m264.994 333.117c.167-28.695.353-57.594 5.9-85.747l-35.983-2.057c3.393 11.531 5.008 23.48 6.15 35.464 4.344 2.67 9.484 4.4 13.56 7.831 5.623 4.729 5.284 12.367 5.388 19.061.122 7.745.355 15.5.315 23.245-.166 31.455.512 62.914 1 94.365.316 18.839 4.854 47.529-16.695 56.323q-.418 7.9-.92 15.8h29.526c-8.853-53.844-8.559-109.719-8.241-164.285z" fill="#4f424c"/><path d="m135.994 216.436a16.6 16.6 0 0 1 4.04-.522l-5.16-10.92a3.07 3.07 0 0 1 1.455-4.082c4.144-1.988 12.533-5.185 21.5-3.832a45.931 45.931 0 0 1 -2.339-6.542 5.352 5.352 0 0 1 4.472-6.86c4.056-.517 9.885.176 16.458 5.383 1.267-5.192 3.476-8.515 5.786-10.642a5.9 5.9 0 0 1 9.767 3.038c.758 3.408 1.854 7.231 3.259 9.269a37.632 37.632 0 0 1 21.528-9.887c1.145-.123 2.59-.028 3.048 1.029.294 2.686-.778 5.479-1.016 8.183 6.426-2.127 12.273 2.371 12.273 2.371a27.021 27.021 0 0 1 6.722 4.916c14.381 71.007-89.418 33.153-102.495 26.03z" fill="#8fad96"/><path d="m225.012 254.945 24.689-31.6c-.778-7.226-8.167-21.785-8.587-22.321-.843-.338-11.311-3.688-11.311-3.688s-.033 31.667-21.957 24.019c-2.684-.937-4.2-3.69-6.916-1.914-3.54 2.312-3.243 10.247-13.712 8.69-2.527-.376-4.317-3.167-5.475-5.864a3.562 3.562 0 0 0 -5.548-1.358c-3.493 2.839-8.5 4.978-11.316-2.628-.891-2.414-3.37-4.058-5.13-2.125-12.389 13.607-21.325 5.844-23.752.29-3.442 1.036-10.657 3.466-7.266 7.879l9.142 9.252c1.259 7.184 20.674 14.258 34.557 21.366z" fill="#617a68"/><path d="m207.848 304.8c4.454-3.014 10.909-13.154 2.6-15.156-9.1-2.356-18.684 1.785-26.28 7.328-.312-3.687 1.371-10.9-4.58-10.037-7.7 2.761-12.876 11.764-14.591 19.435a24.153 24.153 0 0 0 -21.021 7.81 2.174 2.174 0 0 0 .367 3.251l6.284 4.367a32.427 32.427 0 0 0 -4.6 4.95s1.49 14.735 22.907 14.735 38.506-22.483 38.506-22.483z" fill="#8fad96"/><path d="m206.594 355.5 10.02-21.677-2.658-8.385s14.422-4.369 11.914-13.944c0 0-6.188-5.484-18.022-6.7.066-.05.124-.11.189-.161a34.371 34.371 0 0 1 -11.167 3.146 2.1 2.1 0 0 0 -1.467 3.542c1.4 1.488 6.284 5.74-.722 3.8-1.34-.371-2.722-1.712-3.8-2.5-1.823-1.341-3.852 1.193-2.916 2.915 1.781 3.277 4.814 8.15 3.129 11.984-2.913 6.629-6.681-1.125-8.681-4.116a2.18 2.18 0 0 0 -3.93.513c-1.06 3.305-3.987 13.292-8.336 6.693-1.834-2.783-1.347-7.309-1.518-10.535-.079-1.486-1.78-2.793-3.185-1.828a74.262 74.262 0 0 1 -8.584 5.14 59.043 59.043 0 0 1 -5.6 2.486c-.472.179-3.983 1.457-5.23.878a34.329 34.329 0 0 0 -5.308 10.344s-3.044 12.68 14.748 6.545c0 0 1.431 11.657 16.564 11.861s34.56-.001 34.56-.001z" fill="#617a68"/><path d="m249.9 225.627q-.078-1.166-.2-2.28a17.667 17.667 0 0 0 -10.217-.988l-6.362 3.238c-6.26 8.338-5.11 21.831-20.435 24.535a9.38 9.38 0 0 1 -10.271-5.287 2.523 2.523 0 0 0 -4.185-.51c-6.248 7.445-14.176 5.361-15.1 2.9a21.118 21.118 0 0 1 -.967-3.462 2.3 2.3 0 0 0 -3.745-1.333c-5.422 4.78-16.237 9.183-13.916-1.563a1.353 1.353 0 0 0 -1.942-1.427c-11.241 5.481-12-1.241-11.3-6.193a1.291 1.291 0 0 0 -2.161-1.131c-6.1 5.65-8.763 5.569-11.225 1.449-6 6.068-12 18.431-2.381 19.321 3.835-.129 8.8-.309 11.751-.464.267 3.609 2.195 8.694 3.852 12.494a4.767 4.767 0 0 0 6.993 2.077c3.3-2.172 7.786-4.826 11.215-5.767 1.515 3.825 2.365 8.1 4.251 11.7 3.961.973 16.1-8.409 16.054-8.145 1.087 6.107 5.806 12.794 12.246 8.1 3.889-3.242 9.251-8.008 11.613-11.472 4.282 6.182 12.71 11.107 18.314 3.562 1.706-2.489 4.582-6.407 5.756-9.187a35.884 35.884 0 0 0 12.362-30.167z" fill="#4f424c"/><path d="m362.057 167.89a44.2 44.2 0 0 0 -37.071-1.241c1.892-1.483 4.01-3.921 3.716-6.459-1.844-2.383-5.537-2.7-8.375-2.438-8.011 1.009-15.458 5.029-21.612 10.211-7.412-4.023-16.392-3.692-24.727-2.4-3.225.5-6.657 1.242-8.9 3.614s-2.413 6.9.446 8.469a103.58 103.58 0 0 0 -14.2 4.5s-17.416 9.672-11.743 26.918 39.935 43.336 39.935 43.336l72.841-13.388 4.765-52.729 6.127-11.489z" fill="#8fad96"/><path d="m361.1 182.128q2.043-1.755 4.191-3.388c4.548-3.969 1.7-9.055-3.24-10.839.266 2.577-.5 4.853-3.25 5.919-5.1 1.98-13.33.545-18.475-.4a2.871 2.871 0 0 0 -1.525 5.531c4.722 1.787 11.95 4.973 10.509 9.85-1.207 4.085-8.586 2.091-11.2.748-2.177-1.12-5.047 1.245-3.553 3.553 4.025 6.249 15.721 26.61 10.02 33.007-4.934 4.824-10.2-3.958-12.2-7.475-1.144-2.008-5-1.3-4.669 1.264.936 7.237 1.894 19.658-7.9 21.094-5.486.8-6.451-4.6-7.379-8.788-1.064-4.8-1.991-9.623-2.849-14.461-.44-2.486-3.883-2.011-4.575 0-1.562 4.958-8.985 19.372-15.2 17.421-3.013-.576-3.076-1.245-3.8-3.976a42.921 42.921 0 0 1 .089-18.67 2.215 2.215 0 0 0 -3.671-2.137c-2.5 2.418-13.52 12.72-15.731 5.971-1.755-5.355 3.079-13.026 6.01-17.1a2.068 2.068 0 0 0 -2.314-3.01 111.712 111.712 0 0 1 -11.7 3.619c-3.355.827-7.744 2.28-11.246 1.721-9.347-1.492-1.391-13.113 3.9-19.425-9.5 4.321-22.991 9.244-26.745 19.8a4.994 4.994 0 0 0 -.252 3.432c1.355 3.507 6.84 1.426 10.286 2.927-1.209 1.815-7.534 13.446-3.669 26.112l17.121-5.611-3.87 22.636 48.755 25.925 49.721-6.378 26.893-25.683 4.45-35.648 4.256-13.93-7.68-9.457a42.859 42.859 0 0 0 -9.508-4.154z" fill="#617a68"/><path d="m378.76 210.5 4.581-1.218a4.393 4.393 0 0 0 2.821-6.186 40.355 40.355 0 0 0 -15.562-16.811c8.882 15.318-.083 22.036-10.434 19.587a3.28 3.28 0 0 0 -3.659 4.759 129.885 129.885 0 0 1 7.682 16.688c3.419 9.508-.291 16.072-7.533 14.355-2.74-.649-5.085 2.825-2.857 4.908 2.5 2.339 2.325 7.007-.912 8.755-3.549 1.917-7.645-.658-9.36-3.781-.957-1.743-4.762-2.2-4.991 0-2.952 28.332-17.475 14.631-19.734 9.6-1.1-2.448-5.368-1.265-5.117 1.386.341 3.592-5.775 15.839-14.044 8.52-4.834-4.279-6.538-11.856-9.507-17.485-.9-1.706-3.923-1.9-4.764 0-2.96 6.675-8.155 13.974-14.981 5.9-4.133-4.888-5.217-11.842-6.284-17.942-1.531-3.912-6.315-.436-8.7.848-2.588 1.569-7.6 3.575-6.44-1.7a94.329 94.329 0 0 1 5.46-16.135c.92-2.183-2.124-3.953-3.651-2.807-7.5 5.631-13.523 7.3-15.858 7.014-5.917-.719-1.3-18.855-1.3-18.855a63.365 63.365 0 0 0 -9.28 25.056 4.381 4.381 0 0 0 .468 2.777c1.313 2.306 4.028 1.721 6.188 1.03l9.135-2.923c-7.319 8.475-8.974 26.294 6.262 20.708.919 5.487 2.583 11.146 6.55 15.046s10.806 5.33 15.14 1.841c3.316 10.468 16.259 13.839 25.855 10.3a4.917 4.917 0 0 1 5.926 1.141c3.22 2.695 6.814 5.4 11 5.662a10.846 10.846 0 0 0 10.917-8.25c5.668 7.667 14.1 2.092 17.173-4.638 5.411 11.794 16.638-2.085 18.444-9.391a1.167 1.167 0 0 1 1.688-.908c2.645.677 5.278 2.162 7.938 1.547 2.184-.5 5.934-4.049 6.344-14.565 14.311-2.763 8.581-15.565 8.581-15.565l2.652.1a6.3 6.3 0 0 0 6.5-7.136c-.862-6.238-3.685-15.124-12.337-21.232z" fill="#4f424c"/><path d="m177.257 366.133c4.161 1.071 10.552-2.653 10.643-6.948 3.5 5.761 11.759 6.855 16.075 5.43 7.655-2.528 9.585-10.191 9.7-13.729a42.036 42.036 0 0 0 7.847.039 6.764 6.764 0 0 0 6.26-8.217 22.438 22.438 0 0 0 -10.073-14.183c6.072.34 10.128-3.687 12.3-6.725 2.763-4.128-.938-7.441-4.143-10.3 1.095 10.192-11.577 8.959-17.794 6.076-2.536-1.06-4.238 2.663-2.548 4.377 3 3.216 5.787 7.582 5.745 12.1-.692 3.778-4.713 3.339-7.045 1.315a2.352 2.352 0 0 0 -3.676 2.837c1.087 2.169 4.269 10.609-.147 11.828-2.983.823-7.277-8.592-9.247-10.414a2.287 2.287 0 0 0 -3.781 1c-.861 3.134-1.69 6.506-3.881 9-1.768 2.017-4.189 4.191-6.969.248-.765-1.086-.78-3.581-1.14-4.838a2.235 2.235 0 0 0 -3.7-.978c-1.708 1.837-4.721 5.741-7.371 5.377-4.295-.589-3.186-7.717-2.355-10.754.4-1.458-1.1-3.379-2.705-2.7-4.091 1.363-17.881 8.237-18.519 1.123-.595 2.525-3.881 12.732 1.14 11.839 4.7-1.2 11.836-2.271 11.836-2.271s-3.04 6.019-1.628 11.439a7.027 7.027 0 0 0 11.621 3.148 24.044 24.044 0 0 1 3.483-2.825 20.073 20.073 0 0 0 10.072 7.706z" fill="#4f424c"/><g fill="#617a68"><path d="m177.844 107.134c2.73-4.791 6.6-7.839 10.485-11.583 1.625-1.564-.432-3.781-2.27-2.941-5.127 2.344-9 7.731-11.509 12.6-1.121 2.172 2.071 4.072 3.294 1.926z"/><path d="m187.617 109.437c2.84-3.082 6.419-5.362 9.409-8.239a2.021 2.021 0 0 0 -2.438-3.159 28.829 28.829 0 0 0 -9.858 9.171 1.846 1.846 0 0 0 2.887 2.227z"/><path d="m198.669 110.806a9 9 0 0 0 3.154-3.307 1.83 1.83 0 0 0 -2.233-2.233 6.935 6.935 0 0 0 -3.372 3.088 1.8 1.8 0 0 0 2.451 2.452z"/><path d="m316.911 189.385c4.472 4.532 6.939 10.039 10.639 15.071a2.033 2.033 0 0 0 3.7-1.558c-1.542-6.388-6.932-11.933-11.688-16.162-1.79-1.591-4.356.918-2.648 2.649z"/><path d="m312.526 199.109c2.227 2.9 3.439 6.225 5.374 9.268 1.183 1.861 3.647.576 3.359-1.417-.55-3.8-3.266-7.351-5.647-10.232-1.4-1.7-4.448.607-3.086 2.381z"/><path d="m307.023 208.007a8.229 8.229 0 0 0 1.453 1.616 1.648 1.648 0 0 0 2.394-1.84c-.577-1.382-1.949-3.628-3.672-2.363a1.75 1.75 0 0 0 -.175 2.587z"/><path d="m168.343 196.213c-2.544 4.882-3.537 11.736.207 16.314 1.416 1.732 3.756-.2 3.419-1.991-.413-2.2-1.295-4.153-1.4-6.43a16.458 16.458 0 0 1 .985-6.539c.687-1.868-2.3-3.109-3.211-1.354z"/><path d="m175.359 206.449a10.811 10.811 0 0 0 2.37 5.62c1.09 1.22 3.41-.061 2.821-1.642a29.252 29.252 0 0 1 -1.691-4.942 1.815 1.815 0 0 0 -3.5.964z"/><path d="m254.925 18.362c3.827 2.642 5.891 6.873 8.827 10.3 1.413 1.395 3.333-.074 3.072-1.789-.734-4.811-5.882-8.893-9.7-11.366-1.7-1.1-3.835 1.563-2.2 2.851z"/><path d="m252.736 27.01a25.041 25.041 0 0 0 1.828 2.387 1.723 1.723 0 0 0 2.86-1.665c-.686-1.474-1.974-4.349-4.029-3.237a1.859 1.859 0 0 0 -.659 2.515z"/></g></svg>