<svg id="flat" height="512" viewBox="0 0 500 500" width="512" xmlns="http://www.w3.org/2000/svg"><path d="m234.356 408.905c.333-20.07.655-40.606.991-61.32 1.5-25.068-10-37.228-25.024-45.89-10.7-11.558-21.408-22.116-33.668-33.329a1.323 1.323 0 0 1 1.6-2.095 299.368 299.368 0 0 1 46.658 34.961c2.763 4.969 6.191 8.92 11.032 10.708.586-33.908 1.245-67.852 2.085-100.587 6.249-1.6 10.875 1.2 13.124 10.456l2.708 165.191c-5.854 11.537-12.292 19.252-19.506 21.905z" fill="#ff9f9c"/><path d="m241.036 121.537c-1.232 28.089-2.2 58.4-3.009 89.816a94.562 94.562 0 0 1 13.123 10.456l-1.256-76.451c0-20.904-8.858-23.821-8.858-23.821z" fill="#e77c81"/><path d="m234.356 408.905c-.371 22.355-.756 44.138-1.187 64.936l22.293 10.619-1.6-97.46a201.347 201.347 0 0 1 -19.506 21.905z" fill="#e77c81"/><path d="m327.129 282.131c-34.351 16.591-57.718 35.9-68.468 45.8-3.227-176.263-8.361-245.944-11.07-271.531a1.44 1.44 0 0 0 -2.869.045c-1.447 19.724-2.655 41.643-3.684 65.093 7.38 12.405 6.576 29.379 6.845 43.265 1.36 70.522 2.934 141.039 3.94 211.567-.851 31.478 8.2 74.525-18.655 97.472-.146 7.014-.3 13.93-.454 20.706h28.052c-.38-47.963-.884-90.911-1.478-129.371a43.244 43.244 0 0 1 10.294-28.625c17.326-19.8 37.547-35.766 58.933-52.179a1.324 1.324 0 0 0 -1.386-2.242z" fill="#4f424c"/><path d="m224.9 301.237c-4.1 3.151-9.857 2.2-14.587.464a248.532 248.532 0 0 1 16.317 19.181c5.8 7.681 7.538 15.994 8.713 26.7 1.706-10.7.594-35.645.594-35.645-3.086-3.18-6.78-6.8-11.037-10.7z" fill="#e77c81"/><path d="m409.766 85.231a141.4 141.4 0 0 0 -13.648-6.541 19.346 19.346 0 0 0 7.6-3.11 6.062 6.062 0 0 0 -1.28-10.669c-9.574-3.646-25.1-9.474-33.87-12.326a26.382 26.382 0 0 0 4.141-3.114 4.531 4.531 0 0 0 -1.532-7.518c-6.058-2.409-11.548-6.486-17.24-9.831a85.906 85.906 0 0 0 -33.396-11.222 14.235 14.235 0 0 0 7.353-14.5c-7.943 1.064-15.984-.213-23.982-.728-19.188-1.234-39.354 2.789-57.268 10.328a18.013 18.013 0 0 1 -13.107.343c-18.649-6.426-39.918-9.037-58.967-3.88a2.22 2.22 0 0 0 .14 2.1 31.891 31.891 0 0 0 10.552 13.041c-27.865-7.209-39.158 8.079-62.2 15.37a5.51 5.51 0 0 0 -2.993 8.6c1.489 2.035 4.462 3.848 6.419 5.4-18.045 3.616-32.564 17.043-49.091 25.4a5.044 5.044 0 0 0 .344 9.19q1.656.653 3.366 1.138c-2.516 4.269-6.758 7.111-9.847 10.956-3.386 4.215-5.214 9.38-6.427 14.772a7.271 7.271 0 0 0 6.451 8.95 39.461 39.461 0 0 1 6.68 1.082s-33.49 75.238-7.008 125.848 91.293 111.223 180.7 111.223 166.5-118.285 166.5-118.285l8.2-133.429c-2.724-11.535-8.047-21.212-16.59-28.588z" fill="#bfcc7f"/><path d="m426.683 144.664c-11.259-3.252-22.637-6.207-34.322-7.412-9.276-.956-18.574-.1-27.863-.671-8.159-.5-28.64-16.548-28.64-16.548s.593 32.14 34.952 55.654a52.684 52.684 0 0 1 19.89 25.081 51.989 51.989 0 0 1 3.348 19.323 3.389 3.389 0 0 1 -5.506 2.579l-6.883-5.516c-1.919-1.538-6.1-1.3-5.8 1.531 1.626 15.112-.17 25.937-1.974 32.381a3.933 3.933 0 0 1 -6.947 1.276l-3.259-4.388c-1.572-2.116-5.974-1.9-5.854.73.738 16.19-25.556 53.337-48.819 65.053-.125-1.287-.191-2.583-.315-3.836-.287-2.907-3.9-5.1-6.217-2.575-5.3 5.6-8.487 9.409-14.073 15.764.075-2.133.362-4.871.369-5.532.027-2.944-3.876-4.693-5.946-2.463l-7.5 8.086c-26.411 15.783-63.7 4.708-90.354-20.981-3.987-3.843-8.376-7.324-14.095-6.168a11.29 11.29 0 0 0 -5.933 3.1 4.335 4.335 0 0 1 -6.21.066c-6.6-7.081-6.564-18.158-14.106-24.525a14.716 14.716 0 0 0 -14.672-2.6 6.677 6.677 0 0 1 -7.58-1.82 61.129 61.129 0 0 1 -14.5-40.632c.539-9.927-7.6-15.752-16.783-12.051a4.335 4.335 0 0 1 -5.925-4.049c.028-9.388 1.6-18.709 6.543-26.851 21.316-33.937 50.2 9.809 68.51-62.215.753-3.063-3.826-4.328-4.724-1.3-.472 1.592-8.354 7.151-9.954 8.723-7.085 6.961-17.817 4.6-26.536 2.75-10.416-2.21-20.45-3.979-31.161-3.023-7.519.672-38.8 24.258-38.8 24.258a105.555 105.555 0 0 1 -11.849 12.808c-3.189 2.854-1.465 8.323 2.735 8.692a28.807 28.807 0 0 0 9.17-.463c-13.6 27.208-18.178 40.123-9.694 69.653a60.65 60.65 0 0 1 -.6 24.014 4.931 4.931 0 0 0 7.062 5.586 42.036 42.036 0 0 0 7.987-5.637l17.708 46.734 18.126 3.525 16.481 30.713 99.83 32.728h124.867l89.624-87.609 24.168-102.207z" fill="#919951"/><path d="m464.367 213.673c-4.771-12.358-17.791-20.542-20.618-33.613a25.973 25.973 0 0 1 8.433.064 6.033 6.033 0 0 0 6.569-7.882c-4.512-13.811-13.358-24.537-27.25-31.177 6.709.271 14.007.752 17.337-.877a6.034 6.034 0 0 0 -.165-10.885c-4.872-2.286-11.1-6.019-15.473-11.541-9.148-14.858-4.764-22.037-23.436-32.526 10.836 16.9 9.664 27.8 5.208 34.659-9.119 9.63-21.522 4.6-27.177-3.2-1.183-1.632-3.71-.112-4.373 1.779-1.414 4.028-2.7 15.349-7.091 15.683-20.445 1.555-29.012-14.241-36.545-18.049a2.9 2.9 0 0 0 -3.928 3.928c5.243 11.464 22.89 35.382 37.14 32.533 4.569-.8 8.333-3.663 12.707-5.02a22.494 22.494 0 0 1 15.954 1.1c8.2 3.594 10.7 9.986 19.588 12.047a67.666 67.666 0 0 1 -17.194.616c-3.061-.271-4.228 3.779-2.379 5.745 9.757 10.372 26.4 18.935 27.9 42.251a3.071 3.071 0 0 1 -4.846 2.705 30.936 30.936 0 0 0 -7.7-3.822 3.92 3.92 0 0 0 -4.776 5.43c4.294 8.88 10.019 26.955 8.821 41.888a5.17 5.17 0 0 1 -7.925 4 62.84 62.84 0 0 0 -8.454-4.588c-3.549-1.6-8.637.358-8.551 4.249 2.587 41.161-20.1 80.06-30.407 70.312l-8.38-8.737a5.941 5.941 0 0 0 -7.932 3.9c-2.446 8.579-10.4 27.784-23.38 40.678a5.709 5.709 0 0 1 -8.983-1.266c-3.755-6.629-7.845-14.881-13.521-14.141-13.016 1-18.195 17.655-28.014 13.653-5.34-2.269-9.124-6.114-15.314-5.991-5.641.112-10.771 2.938-15.721 5.329-14.572 8.079-27.6.9-40.08-7.392-5.124-2.5-6.118 5.042-7.108 8.341a3.939 3.939 0 0 1 -5.85 2.593 146.148 146.148 0 0 1 -31.386-25.3 3.454 3.454 0 0 0 -5.726 1.512l-1.521 5.85a5.144 5.144 0 0 1 -7.634 3.118 61.311 61.311 0 0 1 -24.486-28.481c-1.311-3.07-5.42-1.593-6.358.831-.471 1.216-1.78 3.639-3.118 6.1a4.957 4.957 0 0 1 -8.315.6c-11.261-14.94-16.942-32.057-19.669-49.3-.65-4.112-6.939-2.938-7.042.953-.087 3.269-2.07 15.428-7.458 11.127a25.977 25.977 0 0 1 -9.551-17.743c-.534-4.807-5.333-5.2-5.333-5.2.826 18.5 1.372 47.407 16.248 59.553 2.25 1.069 5.318.68 6.653-1.478 1.306-2.113.975-5.6 3.262-6.43 10.908 12.188 8.757 27.233 15.943 40.825a10.665 10.665 0 0 0 16.192 3.168c2.438-2 4.665-4 5.291-5.955 5.028 10.028 10.681 19.8 18.14 27.448a45.337 45.337 0 0 0 16.936 11.3 6.321 6.321 0 0 0 8.334-6.626c-.162-1.629-.247-3.269-.253-4.91 14.666-2.206 44.378 41.61 53.536 11.19a96.871 96.871 0 0 1 17.188 9.252 7.053 7.053 0 0 0 9.985-1.779l3.607-5.419 3.3 11.427a5.37 5.37 0 0 0 8.467 2.737c7.216-5.624 14.626-9.974 23.938-12.3 0 0 .117 1.4.131 3.347a5.209 5.209 0 0 0 7.825 4.484 248.865 248.865 0 0 1 24.174-12.287 50.581 50.581 0 0 0 4.323 6.376 7.755 7.755 0 0 0 11.4.783 115.207 115.207 0 0 0 17.324-20.936c4.477 4 8.594 7.139 14.643 3.822a73.453 73.453 0 0 0 28.307-30.064c3.368-6.683 6.037-14.3 12.255-18.469 1.835 6.183 10.311 7 12.339.533 7.012-24.724 38.644-46.447 29.265-74.237a36.244 36.244 0 0 1 4.054 2.281c4.65 3.023 10.967.211 11.415-5.318 1.323-14.441-9.654-26.967-9.684-41.1a37.2 37.2 0 0 1 7.69 1.207 6.941 6.941 0 0 0 8.283-9.268z" fill="#4f424c"/><path d="m163.028 121.3a2.693 2.693 0 0 0 -4.066-3.3c-26.72 20.253-35.873 13.481-39 6.878a6.467 6.467 0 0 0 -8.385-3.107 88.459 88.459 0 0 1 -33.61 6.682c-11.759 2.923-19.055 15.079-28.932 27.4 19.482-9.634 40.2-12.321 51.522-13.05a20.878 20.878 0 0 1 13.686 4.052c23.974 17.595 41.277-9.755 48.785-25.555z" fill="#4f424c"/><g fill="#919951"><path d="m119.734 235.574c-2.933 6.913 3.991 20.672 9.77 24.887 2.01 1.54 3.823-1.31 3.062-3.062-1.777-4.094-4.286-7.819-5.905-12.007-1.145-2.487-2.624-14.2-6.927-9.818z"/><path d="m135.808 246.144c.463 4.88 4.145 11.647 8.594 13.941 1.778.762 3.84-.49 3.341-2.568-.582-2.417-2.272-4.592-3.567-6.676-1.321-2.128-2.328-4.653-4.027-6.5a2.569 2.569 0 0 0 -4.341 1.8z"/><path d="m152.538 250.374c-.679 1.8 1.042 3.532 2.166 4.725 1.818 2.342 6.147 4.513 6.809.177-.072-1.928-1.791-3.544-3.137-4.793-1.576-1.805-4.708-2.984-5.838-.109z"/><path d="m319.809 119.5c-2.478 5.016.549 12.422 2.189 17.434 1.953 5.97 4.424 12.233 8.61 17 1.708 1.944 4.925-.119 4.25-2.474-1.682-5.872-4.591-11.373-6.468-17.2-1.522-4.723-1.663-11.584-5.176-15.2a2.185 2.185 0 0 0 -3.4.439z"/><path d="m302.854 120.817c-2.371 3.474 1.523 13.505 3.974 16.574 1.912 2.3 5-.258 4.564-2.657-.469-2.567-1.806-5.088-2.53-7.621-.637-2.224-.8-5.191-2.677-6.725a2.164 2.164 0 0 0 -3.331.429z"/><path d="m288.188 124.055c.008 1.964 1.213 4.432 3.208 5a2.561 2.561 0 0 0 2.6-3.963c-.234-.493-.067.056.01.072-.308-.784-.518-1.661-.91-2.44-1.219-2.311-4.953-1.264-4.913 1.33z"/><path d="m147.189 68c-9.3 5.445-15.879 20.035-15.706 30.538a2.614 2.614 0 0 0 5.11.692c1.584-5.25 2.729-10.374 5.258-15.316 2.373-4.637 5.924-8.279 8.577-12.675a2.385 2.385 0 0 0 -3.239-3.239z"/><path d="m151.257 84.3c-2.8 3.058-5.769 8.065-4.006 12.344a2.083 2.083 0 0 0 3.977 0c1.131-3.133 1.082-6.317 3.343-9.029 1.9-2.282-1.247-5.569-3.314-3.315z"/><path d="m164.824 92.5c-.3.857-.355 4.008 1.308 4.886 2.73 1.457 4.207-2.347 3.583-4.53 0 .032-.1-.943-.063-.356a2.414 2.414 0 0 0 -4.828 0z"/></g></svg>