<svg id="flat" height="512" viewBox="0 0 500 500" width="512" xmlns="http://www.w3.org/2000/svg"><path d="m256.188 487.021-24.077-2.131a241.135 241.135 0 0 0 .705-32.521s12.29-5.476 22.552 7.7.82 26.952.82 26.952z" fill="#e57e80"/><path d="m255.368 460.072c-.082-.106-.166-.2-.248-.3-3.187 11.217-11.42 22.237-23.018 25.12-.65 3.817-.369 7.856 4.4 8.161l22.356.01s6.773-19.811-3.49-32.991z" fill="#bc5b65"/><path d="m264.566 493.063a4.706 4.706 0 0 0 4.651-5.4 391.419 391.419 0 0 1 -4.225-66.891l-35.059 3.86a244.944 244.944 0 0 1 2.882 27.736c19.294 8.284 26.934 19.415 26.038 40.691z" fill="#4f424c"/><path d="m314.685 82.155-6.328 9.978 28.895 68.983 16.324 207.755h-186.494c-26.076-46.727-63.072-142.612-10.891-200.848l5.6-44.353c-2.948-13.21 1.286-22.6 1.286-22.6 2.979-2.875 7.051-5.917 7.479-10.288a11.667 11.667 0 0 0 -1.36-3.86c-4.296-12.436 9.453-20.146 18.204-25.922-2.8-.464-4.169-4.557-3.749-7.381 2.437-9.484 17.031-17.5 25.915-20.077-2.526-.1-3.963-3.32-3.217-5.747 2.4-6.6 20.837-15.175 27.534-18.085 11.643-5.924 24.008-1.6 33.695 5.957 3.254 2.512 6.267 5.53 10.13 6.921a17.878 17.878 0 0 0 5.617.959c5.67.449 6.364 7.172 1.9 10.048 5.1 8.531 16.427 8.416 19.738 12.784 4.373 5.77 2.35 9.248-2.695 12.054.004-.003 2.613 17.057 12.417 23.722z" fill="#ffdf88"/><path d="m400.225 370.562c-3.166-50.837-25.882-94.341-25.882-94.341l-1.385-46.634-33.484-72.6c-5.289 1.332-35.214 11.5-38.992 15.39 30.16-3.2 51.6 66.4 25.736 80.294-3.542 1.9-8.435-.221-12.09-1.452-3.329-1.122-5.615 3.389-3.322 5.736a42.261 42.261 0 0 1 10.274 16.9c4.729 15.224 3.328 25.612-15.132 17.058a60.068 60.068 0 0 1 -17.717-11.34c-2.028-1.846-6.179-.741-5.9 2.457 1.481 17.163-9.638 33.1-25.116 39.781-17.016 7.346-37.063 2.389-51.709-7.974-12.942-9.158-22.641-25.783-40.507-24.3-9.7 1.669-18.008 2.726-18.754-9.936-.31-8.8 5.857-15.985 9.743-23.356 3.133-5.945 6.813-15.888-3.059-17.1-1.98-.243-4.257.216-6.04-.883-7.729-6.084-.892-16.3 4.054-21.811a3.67 3.67 0 0 0 -2.541-6.166c-3.234-.291-6.214-3.614-5.454-6.679 8.713-35.113 32.469-30.232 37.258-22.119 4.255 7.208 15.038-3.483 20.82-7.047q13.094-8.07 26.176-16.156a2.828 2.828 0 0 0 -2.158-5.147c-8.267 1.907-35.63 13.213-38.563 13.475-6.543.584-7.555-7.344-7.4-13.37-.171-5.776-5.06-6.851-9.925-5.725a4.786 4.786 0 0 1 -5.405-4.507c-.451-7.821 6.149-14.673 10.16-20.832a3.776 3.776 0 0 0 -.577-4.494c-4.891-4.8-11.579-8.707-10.256-16.615a62.965 62.965 0 0 0 -8 7.652c-4.206 5.273-5.266 14.506.636 17.742-4.6 3.621-9.494 7.686-10.821 13.405s3.358 12.935 9.045 11.583c-3.618 2.83-10.31 3.3-14.775 6.563a5.725 5.725 0 0 0 -.843 8.439l3.608 4s-.955 5.985-12.982 7.384c-4.513.525-2.548 14.681-1.35 15.746a122.942 122.942 0 0 0 -13.439 15.017c-2 2.691-3.96 6.13-2.028 9.247 2.25 3.452 6.887 3.325 10.52 2.957-5.5 8.844-23.644 36.993-1.82 36.219-6.868 3.023-11.342 11.194-12.586 18.625a13.086 13.086 0 0 1 -.988 4 11.578 11.578 0 0 1 -3.417 3.405 40.126 40.126 0 0 0 -11.224 13.8c-4.484 8.128 2.965 11.773 10.242 10.548 0 0-16.793 119.868 54.962 119.868h153.446s92.127-5.869 88.961-56.707z" fill="#e59e64"/><path d="m173.211 322.763a13.333 13.333 0 0 0 -13.552.141c-5.241 3.218-12.911 5.62-22.57-.312-13.3-9.834-15.949-23.363-34.233-15.193-2.638 12.734-10.8 25.35-16.2 32.621a7.691 7.691 0 0 0 1.962 11.047c3.143 2.023 6.595 4.042 8.608 4.585-.768 17.006-18.162 33.608-15.245 50.035 1.739 8.84 9.516 8.3 15.752 4.306.219 6.959.491 14.147 3.46 20.438a20.332 20.332 0 0 0 8.1 8.911 5.352 5.352 0 0 0 7.981-3.967l2.589-8.343s2.211 2.816 3.113 4.015c8.4 11.174 23.819 16.688 33.062 16.309a6.577 6.577 0 0 0 7.234-6.875 4.732 4.732 0 0 1 5.528-4.381c8.59 1.508 28.9 22.725 57.857-1.711 6.1 6.889 9.734 13.852 18.909 14.08a10.05 10.05 0 0 0 5.7-1.322c3.766-2.416 3.974-8.793.372-11.45 7.33 5.556 15.842 11.422 24.88 9.8 5.975-.65 5.89-6.988 4.146-11.825 37.025 24.968 62.575-2.271 62.575-2.271l1.126 5.867a6.975 6.975 0 0 0 9.337 7.068 49.8 49.8 0 0 0 22.366-16.392 44.115 44.115 0 0 1 -.035 6.7 5.556 5.556 0 0 0 7.886 5.56c5.078-2.4 10.426-7.3 10.8-17.34a41.382 41.382 0 0 1 7.977 1.81 7.791 7.791 0 0 0 10.221-5.914c3.195-18.38-10.349-38.857-10.349-38.857l6.35-1.708a9.244 9.244 0 0 0 5.839-13.051c-2.492-5.008-5.422-10.481-7.429-12.908a20.247 20.247 0 0 0 10.972-16.136 6.276 6.276 0 0 0 -1.413-4.919c-2.049-2.333-10.875.816-17.976-4.733a15.548 15.548 0 0 0 7.869-4.918 5.438 5.438 0 0 0 -2.227-8.776c-4.378-1.486-7.894-3.7-9.643-7.422 1.58-18.374-4.045-20.439-9.3-26.323a46.548 46.548 0 0 0 -3.35-26.355l6.828-.116c18.711-4.9-9.915-37.526-16.48-45.286l3.521-.583a6.958 6.958 0 0 0 2.646-12.669c-4.681-3.1-8.721-6.105-12.215-8.962a33.536 33.536 0 0 0 6.04-9.2c1.608-3.529-.881-8.294-4.716-7.826-9.5 1.159-19.009-4.419-19.009-4.419 13.106-3.4 6.992-12.211-5.31-19.937 0 0 7.689-5.676 5.779-11.52-1.408-4.306-17.925-7.355-17.925-7.355s9.12-3.424 8.682-8.588c-1.164-13.708-16.563-10.566-22.469-19.619 8.821.492 10.828-10.082 8.09-15.375-4.29-8.293-16.447-9.592-23.45-22.773-.9 4.785.188 9.308 4.511 16.939 4.46 7.874-.791 14.944-9.052 18.534-2.438 1.059-2.423 5.488 0 6.284 8.626 2.835 15.351 8.186 20.064 19.869.283 2.807-1.731 4.374-3.973 5.248a3.334 3.334 0 0 0 -1.3 5.367c7.347 7.991 19.261 23.941-8.286 18.794-8.53-1.594-7.193 4.964-8.551 11.8-1.007 5.069-18.413 1.887-25.322-1.059-2.291-.976-4.181 2.106-2.453 3.906 7.808 8.135 18.763 11.146 29.341 12.813a12.587 12.587 0 0 0 9.96-2.612c4.252-3.492 11.059-6.331 19.792-1.938 13.485 6.784 64.893 71.019 25.65 70.99-2.986 0-4.576 2.057-4.007 5.239.607 3.392 6.628 8.661 7.937 10.485a1.968 1.968 0 0 1 -1.06 3.051c-2.614.723-9.6-1.459-11.754.591-4.685 5.835 9.217 14.122 13.744 16.015 6.233 3 8.775 11.212 3.017 13.614-2.183.912-5.865 4.542-4.419 7.146 15.266 27.481-14.535 42.905-30.687 23.284-2.9-3.521-7.62-4.044-12.191-2.622-3.631 1.129-6.263 4.282-9.251 6.486a87.871 87.871 0 0 1 -29.017 13.613c-2.625.724-2.925 5.106 0 5.648 9.911 1.838 19.259-1.652 28.969-3.09 5.086-.753 11.034-1 15.333 2.289 3.317 2.541 5.506 6.3 9.292 8.283 9.593 5.026 18.277-6.069 26.388-9.3 31.153-12.423 45.271 52.29 9.564 49.849a4.452 4.452 0 0 0 -4.7 5.461 21.329 21.329 0 0 1 .4 9.066 4.821 4.821 0 0 1 -7.584 3.135l-12.894-9.427c-2-1.464-4.4.205-5.134 2.1-4.07 10.474-16.876 14.372-27.14 12.755-13.379-2.109-24.287-11.88-34.124-20.5-2.19-1.92-6.009-.724-5.962 2.482.068 4.648 1.055 9.019 1.785 13.582.547 3.42.111 6.173-3.828 6.536-8.666.8-16.475-8.409-20.383-14.956-1.466-2.455-5.745-2.208-6.38.838-1.65 7.723-1.365 15.855-12.042 12.551-9.609-2.734-14.427-12.043-18.6-20.409-1.532-3.07-6.715-1.659-6.5 1.77.358 5.742-.811 12.54-4.5 17.078-3.608 4.431-9.4 5.35-14.788 4.563-8.285-1.209-11.882-10.9-16.162-17.034-1.741-2.493-6.969-2.034-6.491 1.767 1.512 12.013-12.409 15.169-21.467 11.009-24.578-11.289-18.861-51.426.214-71.275 7.325-7.622 30.682-11.143 44.765-8.7a2.474 2.474 0 0 0 2.263-4.1 50.073 50.073 0 0 0 -12.048-9.471z" fill="#4f424c"/><g fill="#e59e64"><path d="m193.379 78.244c-5.459 4.928-9.543 14.415-10.047 21.719-.217 3.148 4.018 3.134 5.026.684 1.5-3.639 2.406-7.484 4-11.106 1.384-3.147 3.219-6.086 4.454-9.289.8-2.067-2.047-3.259-3.433-2.008z"/><path d="m200.154 88.864c-1.966 3.828-3.807 8.713-3.474 13.079.132 1.723 2.778 2.939 3.635.99 1.7-3.865 2.477-8.43 3.446-12.541.5-2.107-2.543-3.6-3.607-1.528z"/><path d="m210.233 97.932a4.4 4.4 0 0 0 -1.965 4.476l-.034-.348c.079 2.984 3.363 4.263 4.874 1.327q-.553.644.214-.316c.275-.337.327-1.066.553-1.416q-.339.773.148-.369.177-1.281.046-.39c.587-2.138-1.906-4.216-3.836-2.964z"/><path d="m176.043 240.5c-6.321 7.893-10.177 21.961-9.4 32.009a2.339 2.339 0 0 0 4.575.622c1.51-5.059 2.14-10.388 3.5-15.5 1.355-5.086 3.661-10.029 4.679-15.167.351-1.768-1.983-3.677-3.356-1.963z"/><path d="m183.142 259.349c-1.833 4.645-3.857 9.812-3.731 14.857.3 2.254 3.258 3.6 4.6 1.251 2.039-4.634 2.514-9.974 3.454-14.932.235-2.288-3.34-3.191-4.32-1.176z"/><path d="m194.028 270.7c-1.388 1.42-1.467 5.1.114 6.8a2.21 2.21 0 0 0 3.442-.445c.7-1.477.564-2.7.7-4.227a3.409 3.409 0 0 0 -.254-1.395c-.17-.314-.185-.383-.042-.207a2.192 2.192 0 0 0 -3.963-.521z"/></g></svg>