<svg id="flat" height="512" viewBox="0 0 500 500" width="512" xmlns="http://www.w3.org/2000/svg"><path d="m138.484 116.846c-27.2-4.122-35.951 20.7-37.832 42.094a359.818 359.818 0 0 0 -2.345 52.844c.071 21.212 5.021 43.172 21 58.049l12.267 5.983 12.2-35.089 10.558-96.555c-3.239-13.166-8.075-23.161-15.848-27.326z" fill="#a8ba93"/><path d="m119.324 269.818c10.306 10.328 23.3 18.038 36.4 24.469l19.61-15.241c-39.293-32.134-16.629-101.606-24.474-142.43-7.984-2.729-16.425.139-22.05 6.332-5.943 6.081-7.451 35.654-8.318 45.484-1.4 15.888-1.314 32.181 3.785 47.293 5.523 13.63 8.515 23.983-4.953 34.093z" fill="#7a8765"/><path d="m155.7 294.274c15.728 7.788 32.1 14.425 46.576 24.308l.537-37.178c-33.707-3.315-47.065-41.641-45.255-71.455-.106-24.432 7.07-49.995-.859-73.764-3.22-8.91-8.31-17.932-18.214-19.333 8.33 9.167 8.984 22.211 8.443 34.04-1.277 31.69-8.386 64.592 2.618 94.338 3.475 9.394 8.709 18.241 10.429 28.108 1.257 7.235.368 15.238-4.275 20.936z" fill="#4f424c"/><path d="m397.72 163.965c-9.41-20.754-34.431-20.728-45.5 6.569-9.927 23.386-9.473 49.693-9.947 75.1a100.84 100.84 0 0 1 -4.635 29.325l11.887 12.753c25.196-34.519 43.286-74.273 48.195-123.747z" fill="#a8ba93"/><path d="m371.106 182.492c-3.663 5.21-4.08 11.95-4.528 18.3a390.2 390.2 0 0 1 -9.227 61.153c-1.685 10.771-9.109 15.685-19.72 13a77.84 77.84 0 0 1 -21.617 33.865l13.557 9.765c35.159-9.805 58.223-54.325 58.223-54.325l8.678-87.684c-8.785-3.428-19.972-1.748-25.366 5.926z" fill="#7a8765"/><path d="m276.517 365.732c85.483-47.07 131.313-57.803 125.726-176.512-.2-8.613-.862-17.47-4.531-25.251-9.231 10.726-10.255 25.652-11.3 39.143-2.349 30.187-7.17 62.768-28.6 85.859-10.309 10.888-26.065 22.086-41.8 19.844-15.695 14.429-33.774 19.751-40.115 22.267z" fill="#4f424c"/><path d="m183.86 495.041c-32.333-50.84 29.7-82.941 46.238-27.15l-12.206 27.34z" fill="#4f424c"/><path d="m294.475 164c14.78-32.165 58-57.342 68.884-73.75a88.541 88.541 0 0 0 12.927-65.327c-.99-5.012-7.792-22.27-26.186-18.3-10.341 2.23-13.539 16.27-15.347 26.693s-1.419 21.137-3.276 31.552c-4.581 25.7-22.6 47.382-43.97 62.366z" fill="#4f424c"/><path d="m201.527 399.83c-6.431-112.654-23.411-234.68 18.808-341.5 6.8-16.181 18.4-33.884 36.128-33.96a51.1 51.1 0 0 1 22.215 17.918l-14.59 362.912z" fill="#a8ba93"/><path d="m288.418 71.043c-.825-12.4-4.831-21.782-9.742-28.757-2.669 8.582-3.726 18.22-4.517 27.076-8.729 97.74-10.178 171.336-16.086 256.95-5.763 83.508-33.257 55.288-33.257 55.288-9.557-11.121-24.841-10.7-23.281 18.233 2.123 20.733 4.953 41.364 8.872 61.847l44.192 3.8 17.908-61.425c10.226-102.048 20.071-211.3 15.911-333.012z" fill="#7a8765"/><path d="m299.954 205.559c2.532-43.549 16.524-176.337-43.491-181.174 15.9 11.146 30.26 36.221 30.26 87.526.284 83.862-20.788 439.661-55.266 298.076a1.6 1.6 0 0 0 -3.141.091 160.731 160.731 0 0 1 -17.9 51.6c2.149 11.231 4.616 22.42 7.478 33.556l50.306-.034c17.572-93.079 24.606-195.826 31.754-289.641z" fill="#4f424c"/><path d="m314.788 387.7c-8.577-2.816-17.315.8-23.749 7.4-15.2 14.254-23.362 35.109-25.278 55.746l10.137 14.64c21.641-24.024 36.502-49.535 38.89-77.786z" fill="#a8ba93"/><path d="m319.021 389.321a22.7 22.7 0 0 0 -4.235-1.622c-10.521 15.686-20.1 32.133-25.2 50.256-1.4 4.992-2.858 10.64-7.347 13.238-5.057 2.632-11.373 1.753-16.478-.354a151.543 151.543 0 0 0 .547 28.161s1.456 8.915 28.492 8.915 35.4-60.032 35.4-60.032 2.045-27.255-11.179-38.562z" fill="#7a8765"/><g fill="#4f424c"><path d="m241.474 36.857c-39.715 106.1-29.131 280.968-13.881 393.746 1.706 10.4 3.105 21.363 6.844 31.255 1.061 2.805 6.077 2.744 5.709-.773-.939-8.957-3.282-17.724-4.88-26.585-4.974-27.445-7.475-55.257-9.633-83.042-5.951-100.684-14.554-217.465 20.742-313.249 1.239-3.035-3.671-4.336-4.9-1.352z"/><path d="m371.791 154.288c-3.225 6-4.238 12.542-5.066 19.23q-1.538 12.415-2.571 24.9c-2.9 40.058-7.27 85.86-40.185 113.375-5.827 5.016-12.669 8.748-18.355 13.9-1.8 1.626.082 4.8 2.371 4.074 13.2-4.2 25.262-16.539 33.538-27.212 20.648-26.464 24.864-61.02 26.988-93.5.66-9.012 1.11-18.056 1.937-27.054.779-8.485 1.181-17.769 5.147-25.487 1.292-2.512-2.457-4.733-3.8-2.224z"/><path d="m122.974 131.685c-3.422 8.545-3.323 19.414-3.91 28.5-.648 10.022-1.128 20.053-1.842 30.07-3.744 34.914 8.33 72.544 38.794 92.263a86.961 86.961 0 0 0 20.958 10.41c2.787.938 4.787-3.609 2.032-4.819-38.81-15.419-58.914-51.56-55.854-92.6.889-15.644 1.681-31.3 2.639-46.942.352-5.367 1.309-11.05.751-16.4a1.826 1.826 0 0 0 -3.568-.483z"/><path d="m267.749 35.247c9.333 23.435 2.387 49.071 1.152 73.378q-2.565 29.558-5.135 59.116c-.577 6.752-1.912 13.936-1.168 20.691.307 2.8 4.253 3.708 5.133.694 1.89-6.476 1.839-13.705 2.429-20.4q.868-9.852 1.715-19.705c2.132-27.384 5.247-54.714 6.91-82.125.509-11.607-.352-23.43-6.559-33.536-1.384-2.253-5.6-.766-4.477 1.887z"/><path d="m267.233 205.971a3.173 3.173 0 1 0 -6.29 0 3.173 3.173 0 0 0 6.29 0z"/><path d="m259.774 225.958c-2.9 30.29-2.46 60.98-4.754 91.348-1.212 30.842-4.636 61.658-5.067 92.514.03 2.548 4.211 3.336 4.628.627 2.253-14.634 2.776-29.624 3.754-44.385q3.077-46.251 5.237-92.556c.74-15.417 2.562-31.384 1.7-46.8-.164-2.947-5.053-4.044-5.5-.745z"/><path d="m319.018 389.326c12.66 22.969 2.289 49.9-9.581 71.119-3.075 5.712-6.367 11.488-11.3 15.695-8.657 7.456-22 8.8-31.822 2.854.523 5.3 1.2 10.95 1.892 16.2l41.043.123c16.502-24.584 44.222-86.67 9.768-105.991z"/><path d="m284.521 488.322c2.155-8.458 1.993-17.59 3.2-26.227 2.953-23.62 10.886-46.544 24.617-66.1 1.5-2.185-1.913-4.824-3.681-2.84-16.564 18.75-23.758 43.743-27.045 68.11-1.146 8.791-2.618 18.236-1.322 27.054.324 2.208 3.726 1.964 4.226 0z"/><path d="m316.188 85.509c1.345 2.955 4.625 9.6 8.6 8.483a2.391 2.391 0 0 0 1.652-2.17c.276-2.08-2.009-3.449-3.371-4.6-1.324-1.118-2.553-2.317-3.8-3.505-1.227-1.168-3.784-.019-3.075 1.79z"/><path d="m326.521 42.109c2.6 2.483 6.628 3.1 10.072 3.674 3.579.158 4.325-5.4.838-6.193-3.323-.228-6.712-1.3-10.02-.85a2.042 2.042 0 0 0 -.89 3.369z"/><path d="m371.532 4.961c-1.754.862-3.024 2.778-4.2 4.287-1.339 1.712-2.874 3.158-3.688 5.206-.9 2.955 2.918 5.082 5.093 2.964 1.508-1.223 2.386-3.225 3.477-4.808 1.034-1.5 2.41-3.231 2.7-5.055a2.331 2.331 0 0 0 -3.374-2.594z"/><path d="m374.328 82.977c-.71-1.6-2.55-2.726-3.946-3.7a18.385 18.385 0 0 0 -4.754-2.666c-2.924-.932-5.778 3.4-3.159 5.425 3.015 1.83 6.166 4.085 9.67 4.762 2.113.164 2.895-2.23 2.189-3.816z"/><path d="m325.488 134.745c.107-2.262-1.246-4.584-2.2-6.56-1.087-2.248-1.777-4.6-4.632-4.81a2.414 2.414 0 0 0 -2.085 1.195c-1.507 2.326.311 4.659 1.493 6.669 1.1 1.866 2.428 4.219 4.43 5.226a2.017 2.017 0 0 0 3-1.72z"/><path d="m167.031 159.413c-2.061-.405-4 .789-5.893 1.5-2.221.838-4.607.932-6 3.068a3.037 3.037 0 0 0 1.077 4.1c3.011 2.134 11.873-2.481 12.363-5.951a2.259 2.259 0 0 0 -1.547-2.725z"/><path d="m167.492 236.206c-1.817-1.049-3.97-.136-5.858.283-2.161.48-4.377.61-6.117 2.059-1.971 1.64-.569 4.386 1.36 5.151 2.059.817 4.92-.305 6.853-1.166 1.773-.789 4.367-1.876 4.689-4.051a2.107 2.107 0 0 0 -.927-2.276z"/><path d="m171.532 311.014c1.531-3.115 3.656-7.27 3.309-10.837a2.317 2.317 0 0 0 -3.9-1.616c-2.614 2.426-3.832 6.864-4.744 10.2-.848 3.1 3.841 5.291 5.336 2.249z"/><path d="m307.189 342.7c-.9 2 .376 3.632 1.5 5.261a38.151 38.151 0 0 0 3.777 4.876c2.3 2.381 6.628-.765 4.684-3.613a39.849 39.849 0 0 0 -4.577-5.33c-1.221-1.5-3.911-3.418-5.388-1.194z"/><path d="m374.922 311.373c-1.456-2.535-4.738-3.761-7.217-5.1-2.155-1.164-5.728-3.256-7.482-.327-1.785 2.979 2.129 4.937 4.222 5.9 2.514 1.16 5.655 3.282 8.5 2.964a2.317 2.317 0 0 0 1.973-3.439z"/><path d="m405.23 245.16a21.236 21.236 0 0 0 -5.847-1.17c-1.952-.2-4.109-.635-5.987.065-2.155.8-3.1 4.082-.694 5.312 1.963 1 4.114.917 6.28.95a22.033 22.033 0 0 0 6.248-.569c2.445-.686 2.057-3.753 0-4.588z"/><path d="m406.417 164.668c-2.522-1.119-4.841 1.123-6.7 2.662-1.774 1.472-4.622 3.584-4.477 6.114.073 1.264 1.117 2.712 2.555 2.555 2.579-.281 3.89-2.534 5.608-4.252 1.816-1.583 6.06-4.774 3.011-7.079z"/><path d="m338.851 418.956a24.053 24.053 0 0 0 -4.168 1.413c-1.713.633-3.238 1.062-4.357 2.6-1.373 1.888.555 3.9 2.368 4.127 1.7.216 3.45-1.054 4.793-1.986a14.616 14.616 0 0 0 3.614-3.227c1.144-1.564-.74-3.178-2.25-2.927z"/><path d="m327.53 477.457c-1.026-1.783-3.233-2.316-5.051-3.016-1.9-.733-4.01-2.092-6.079-1.885a2.845 2.845 0 0 0 -1.981 4.781c1.363 1.723 4.084 2.254 6.12 2.814 2.44.965 8.479 1.5 6.991-2.694z"/><path d="m187.2 433.87c.347 4.029 1.07 8.65 3.832 11.768a2.163 2.163 0 0 0 3.585-.946c.752-4.11-1.041-8.433-2.853-12.058a2.47 2.47 0 0 0 -4.564 1.236z"/><path d="m168.2 456.971c.883 2.6 3.791 3.576 6.034 4.832 2.315 1.3 5.055 3.482 7.834 3.141 1.265-.156 2.654-1.287 2.1-2.76-1.069-2.852-3.886-4.109-6.493-5.374-2.278-1.105-5.592-3.243-8.151-2.174a1.936 1.936 0 0 0 -1.326 2.335z"/><path d="m176.588 484.532-.5-.551-1.278 4.841c4.451-.608 11.087-2.318 13.755-6.175 1.014-1.465-.364-3.227-1.9-3.315-2.37-.137-4.391.932-6.563 1.747-2.244.842-4.564 1.4-6.83 2.158-5.034 1.692.169 8.25 2.818 4.84.917-1 1.609-2.382.5-3.545z"/><path d="m272.825 24.638c-1.816 1.926-4.324 3.84-5.159 6.412-.655 2.238 2.027 4.4 4.028 3.1 2.3-1.86 2.99-5.174 3.972-7.856a1.715 1.715 0 0 0 -2.841-1.653z"/><path d="m305.8 85.3c-2.329-.648-4.88.706-6.98 1.651a27.467 27.467 0 0 0 -6.963 4.007c-2.2 1.945.116 5.964 2.907 4.994 2.272-.89 16.561-8 11.036-10.652z"/><path d="m306.021 204.056c-2.556-2.308-11.767-3.45-14.066-.529-.832 1.039-1.221 2.8 0 3.8 2.1 1.707 4.266 1.146 6.8 1.065 2.661 0 10.188.076 7.263-4.331z"/><path d="m298.123 291.574c-3.232-1.086-7.39-1.744-10.685-.55a3.269 3.269 0 0 0 .865 6.39c1.842.11 3.687-.194 5.541-.071 1.75.116 3.389.5 4.97-.48a2.932 2.932 0 0 0 -.691-5.289z"/><path d="m291.622 380.116c-1.038-3.9-9.171-2.279-12.149-1.765a3.319 3.319 0 0 0 -2.3 4.05c1.22 4.355 9.263 1.922 12.384 1.151a2.915 2.915 0 0 0 2.064-3.436z"/></g><path d="m332.578 287.264c-.99-1.113-1.994-2.174-3.056-3.217-1.827-1.8-4.955.511-3.589 2.769.769 1.271 1.568 2.49 2.421 3.707.911 1.3 1.874 3.081 3.585 3.334a2.432 2.432 0 0 0 3.012-2.294c.157-1.763-1.293-3.083-2.373-4.299z" fill="#7a8765"/><path d="m263.453 460.726c-7.141-1.293-7.157 4.641-.454 5.192 2.175.358 4.438.673 5.855-1.381a2.257 2.257 0 0 0 -.347-2.684c-1.252-1.508-3.324-1.095-5.054-1.127z" fill="#7a8765"/><path d="m210.634 417.558c-1.665-1.142-3.5-.623-5.388-.432-1.966.2-3.953.313-5.927.379a2.013 2.013 0 0 0 -.532 3.936c3.571.713 9.406 2.409 12.291-.44a2.233 2.233 0 0 0 -.444-3.443z" fill="#7a8765"/><path d="m361.874 156.747a31.732 31.732 0 0 0 -3.457-4.83c-1.6-1.806-3.973.492-3.11 2.4 1.881 3.226 2.648 7.26 5.446 9.818 1.447 1.081 3.078-.436 3.228-1.852.21-1.99-1.126-3.897-2.107-5.536z" fill="#a8ba93"/><path d="m344.4 212.346c-1.573-.229-3.121-.594-4.7-.749-2.594-.254-2.939 3.241-1.21 4.464 2.409 1.7 7.168 3.494 9.9 1.8a2.568 2.568 0 0 0 .514-3.994c-1.347-1.204-2.784-1.267-4.504-1.521z" fill="#a8ba93"/><path d="m306.232 380.951c-.238-2-3.387-2.9-3.867-.524-.426 2.108-.591 4.249-.83 6.383-.253 2.263-.72 4.106.187 6.253.716 1.695 3.428 1.489 4.209 0 1-1.9.68-3.755.605-5.834-.075-2.096-.056-4.194-.304-6.278z" fill="#a8ba93"/><path d="m275.3 417.542c-1.77-1.091-3.355-2.747-5.479-2.957a1.869 1.869 0 0 0 -1.786 2.344c.5 2.105 2.841 3.527 4.47 4.773 1.743 1.333 3.8 3.01 6.1 2.965a2.222 2.222 0 0 0 1.9-3.315c-1.198-1.832-3.391-2.692-5.205-3.81z" fill="#a8ba93"/><path d="m202.682 337.307c-1.751-1.177-4.108-1.334-6.15-1.717-1.864-.35-4.107-1.081-5.931-.42a1.892 1.892 0 0 0 -.823 3.114c1.253 1.462 3.532 1.933 5.31 2.541 1.966.671 4.119 1.71 6.222 1.548a2.743 2.743 0 0 0 1.372-5.066z" fill="#a8ba93"/><path d="m199.13 248.947c1.85-.993 1.153-3.468-.537-4.112-1.531-.584-3.176-.236-4.775-.277-1.578-.04-3.15-.284-4.722-.231a1.691 1.691 0 0 0 -.846 3.123c3.118 1.795 7.45 2.964 10.88 1.497z" fill="#a8ba93"/><path d="m200.009 134.161c-1.575-.435-3.126-1.089-4.71-1.45-1.951-.444-3.87 2.136-2.109 3.624a19.064 19.064 0 0 0 4.75 2.734c7.413 4.031 11.014-3.369 2.069-4.908z" fill="#a8ba93"/><path d="m226.873 49.926c-1.513-1.208-3.015-2.844-4.827-3.537a2.027 2.027 0 0 0 -2.48 2.48c.7 1.879 2.507 3.44 3.965 4.785 1.593 1.468 3.166 3.114 5.423 3.275a2.179 2.179 0 0 0 2.091-2.745c-.786-2.015-2.545-2.958-4.172-4.258z" fill="#a8ba93"/><path d="m130.264 110.15c-.84-1.533-2.827-.935-3.384.442-.724 1.788-.218 4.045.037 5.909.274 1.995.437 4.019 1.808 5.577a2.122 2.122 0 0 0 3.526-.931c.365-1.925-.37-3.67-.755-5.552-.371-1.812-.334-3.806-1.232-5.445z" fill="#a8ba93"/><path d="m103.383 172.944c1.551-1.383.5-3.543-1.107-4.192-1.58-.637-3.533-.17-5.2-.443-1.485-.243-4.028-.864-4.5 1.282-.917 4.409 8.37 6.071 10.807 3.353z" fill="#a8ba93"/><path d="m109.849 246.179c-1.943-.582-3.894.6-5.637 1.376-1.69.753-3.611 1.188-4.931 2.549a2.216 2.216 0 0 0 .967 3.662c2.99.885 10.316-1.479 11.23-4.718a2.368 2.368 0 0 0 -1.629-2.869z" fill="#a8ba93"/><path d="m214.437 357.377c2.538.929 6.792 2.039 8.995 0a2.324 2.324 0 0 0 -.465-3.607c-1.291-.863-2.619-.479-4.067-.4-1.32.071-2.634.154-3.952.233a1.932 1.932 0 0 0 -.511 3.775z" fill="#4f424c"/><path d="m210.945 293.888a6.6 6.6 0 0 0 6.646-.689 2.64 2.64 0 0 0 -.529-4.105 6.65 6.65 0 0 0 -6.62.891 2.524 2.524 0 0 0 .5 3.9z" fill="#4f424c"/><path d="m207.963 220.837a12.436 12.436 0 0 0 4.691 1.477c2.363.782 7.18-.6 4.87-3.665-1.314-1.17-2.805-1.177-4.491-1.185a25.779 25.779 0 0 0 -4.633.031c-1.666.3-1.627 2.548-.437 3.342z" fill="#4f424c"/><path d="m213.64 113.906c1.551 2.225 6.817 4.58 9.334 3.006a2.307 2.307 0 0 0 .463-3.589c-1.243-1.1-2.58-1.076-4.124-1.345-1.326-.232-2.728-.951-4.054-.894a1.9 1.9 0 0 0 -1.619 2.822z" fill="#4f424c"/><path d="m277.247 146.6c-1.542-.8-3.259-.663-4.951-.641a16.149 16.149 0 0 0 -5.1.454c-4.873 2.99 1.52 5.981 4.8 5.56 1.937-.065 4.4-.388 5.686-2a2.176 2.176 0 0 0 -.434-3.368z" fill="#4f424c"/><path d="m271.446 255.132a26.3 26.3 0 0 0 -5.512-.866c-1.93-.26-3.584-.673-5.417.13-1.535.672-1.386 2.743-.488 3.791 1.376 1.607 3.916 1.775 5.905 1.923a12.119 12.119 0 0 0 6.052-.844c1.932-.893 1.1-3.533-.54-4.134z" fill="#4f424c"/><path d="m267.2 333.39c-3.207-1.156-7.3-2.805-10.526-1.058a2.532 2.532 0 0 0 0 4.311c2.975 1.5 6.861.171 10.095.046a1.822 1.822 0 0 0 .431-3.3z" fill="#4f424c"/><path d="m130.683 180.528a12.853 12.853 0 0 0 -8.757-.96c-2.666.713-3 5.246 0 5.741 2.4.783 12.729-.923 8.757-4.781z" fill="#4f424c"/><path d="m134.3 238.515c-1.336.78-2.757 1.449-4.132 2.168-1.452.76-3.278 1.386-3.989 2.986a2.6 2.6 0 0 0 1.527 3.753c3.582.91 7.17-3.007 9.307-5.391 1.653-1.845-.439-4.844-2.713-3.516z" fill="#4f424c"/><path d="m376.231 191.68a67.9 67.9 0 0 0 -8.091-.14 2.416 2.416 0 0 0 0 4.828c2.826.294 5.842-.4 8.593-.982 2.126-.449 1.579-3.67-.5-3.706z" fill="#4f424c"/><path d="m369.748 251.264c-1.658-1.956-5.676-2.571-8.079-2.975a2.752 2.752 0 0 0 -3.287 1.866 2.7 2.7 0 0 0 1.866 3.287c2.2.708 12.047 2.694 9.5-2.178z" fill="#4f424c"/><path d="m311.011 409.878a19.428 19.428 0 0 0 -4.034-2.359c-1.564-.767-3.527-1.836-5.176-.718a2.248 2.248 0 0 0 -1.12 1.953c.558 3.935 6.316 4.583 9.528 4.16a1.826 1.826 0 0 0 .8-3.036z" fill="#4f424c"/><path d="m297.041 446.11c-2.73-1.876-10.476-5.681-9.933.585 1.184 3.373 5.823 1.8 8.515 2.778 1.989.471 3.278-2.3 1.418-3.363z" fill="#4f424c"/></svg>