<svg id="flat" height="512" viewBox="0 0 500 500" width="512" xmlns="http://www.w3.org/2000/svg"><path d="m148.046 437.685s-23.953-.525-41.855-1.177a2.31 2.31 0 0 1 -.945-4.376c18.655-9.126 36.577-24.478 40.634-45.677 0 0 6.677 36.78 2.166 51.23z" fill="#4f424c"/><path d="m351.794 305.514c1.335-11.657.894-31.264.591-40.307a6.052 6.052 0 0 0 -4.577-5.676c-7.485-1.873-22.046-7.616-23.472-24.089-2.263-26.126-3.823-52.311-4.913-78.513a3.086 3.086 0 0 0 -5.937-1.051q-5.486 13.211-11.773 26.066a9.911 9.911 0 0 1 -12.691 4.858c-22.667-9.55-23.276-49.125-23.7-52.136-2.048-14.372-15.8-23.551-27.59-32.02a13.228 13.228 0 0 1 -6.64-11.958q-1.779-21.338-3.559-42.676c-.272-3.265-.571-6.626-2.066-9.542-2.789-5.139-18.271-19.23-22.192-23.743a4.489 4.489 0 0 0 -7.676 2.7c-5.615 55.521-14.346 126.16-61.915 145.755l148.479 276.963 36.636-.3z" fill="#4f424c"/><path d="m161.374 408.338 11.643-219.909 34.321-12.4 3.037 6.254-6.334 63.649c-.08 3.625-5.679 52.882 18.784 33.538l20.367-64.033 16.874.439c-.777 6.873-1.555 13.777-1.918 20.683-9.7 40.8 23.047 60.419 25.316 78.906a72.082 72.082 0 0 0 13.455 38.738l2.783 35.67a2.17 2.17 0 0 0 4.28.569 139.791 139.791 0 0 1 12.217-33.76s-2.263 51.169 26 81.785z" fill="#e2bfb5"/><path d="m299.485 391.5 1.317.344a2.066 2.066 0 0 1 -1.1-1.964c.459-14.954 1.948-29.972-3.456-43.723-2.9-7.37-7.714-14.132-8.747-21.983-.654-4.978.269-10.129-.947-15-5.889-17.258-21.268-17.037-27.034-46.992l-5.545 11.973s1.731 11.48 17.456 25.334c0 0 9.279 8.358 8.736 24.853 0 0-2.405 7.623 6.552 17.351 9.448 10.261 9.16 24.238 7.708 42.7a6.8 6.8 0 0 0 5.06 7.107z" fill="#a3868c"/><path d="m248.289 219.27 11.049 3.223q.354-3.31.728-6.614a153.318 153.318 0 0 1 -17.409-5.074l-29.679 61.811c-4.438-1.906-7.108-5.635-8.452-10.729l-1.526 4.983-1.067 24.709s21.945 3.342 30.579-27.649l12.147-42.655a2.922 2.922 0 0 1 3.63-2.005z" fill="#a3868c"/><path d="m210.375 182.286c-.067-3.452 2.143-7.646-1.353-10.206-7.608-3.677-19.12 5.853-19.7 6.78a9.746 9.746 0 0 1 -2.855-2.369l-1.667 18.034c13-11.915 20.909-13.573 25.575-12.239z" fill="#a3868c"/><path d="m403.518 456.441c5.72 1.279 9.065-6.3 4.217-9.594-22.262-12.251-38.079-33.159-45.118-57.738-4.509-5.851-4.988-13.016-4.563-20.476-.825-5.406-1.395-10.857-1.776-16.33-2.22-3.727-2.038-7.748-.558-11.927-.411-17.954.261-35.686 1.515-53.695.485-6.887-9.224-8.949-11.548-2.448a288.507 288.507 0 0 0 -8.585 28.593c-1.469 6-2.76 12.1-5.259 17.755-2.393 5.413-5.824 10.268-9.108 15.2a25.23 25.23 0 0 1 -2.623 7.052 319.005 319.005 0 0 0 3.224 44.617c.919 6.394 1.46 14.231-3.826 17.943-14.259 6.98-30.885-4.989-37.318-18.123-5.707-11.494-5.229-37.653-5.229-37.653s-9.343 57.125-41.3 56.049c-15.936-.536-44.531-5.642-40.024-53.668.906-9.656 3.75-22.574-.45-31.316-1.815 4.59-9.121 4.224-12.278.43s-3.319-9.174-3.305-14.109q.2-70.368 6.862-140.518c-1.809-2.08-3.88-5.762-4.281-11.967a4.471 4.471 0 0 0 -4.164-4.176c-8.144-.576-15.99-.986-24.314-2.8l-12.7 15.43s4.47 200.7 8.424 243.772 39.551 40.136 39.551 40.136a27.8 27.8 0 0 1 9.718-.421c10.058 1.285 83.3 33.063 106.5 29.953a6.351 6.351 0 0 0 3.248-11.1c-3.624-3.142-11.282-9.052-14.835-15.812a5.332 5.332 0 0 1 6.449-7.49c8.152 2.842 17.181 3.688 25.774 3.619 8.744-.069 17.439-1.126 26.15-1.941a16.515 16.515 0 0 1 9.438-.731q6.808-.378 13.633-.148c4.472-1.021 8.775-1.076 12.712.957a154.494 154.494 0 0 1 15.747 2.675z" fill="#a3868c"/><g fill="#4f424c"><path d="m356.286 352.3q-.414-5.949-.561-11.926l-13.725.789s1.222 8.721 14.286 11.137z"/><path d="m176.735 280.8c-6.536 37.356 4.572 161.287-29.58 176.325-3.144 1.442-.906 6.85 2.373 5.632 32.766-12.288 28.33-97.692 30.556-128.226.627-17.873 1.518-35.848 1.011-53.731-.081-2.852-4.095-2.753-4.36 0z"/><path d="m182.272 262.958a3.341 3.341 0 0 0 -1.5-2.022l-.7-.294a2.768 2.768 0 0 0 -1.9.147 1.457 1.457 0 0 0 -.645.375 2.911 2.911 0 0 0 -.893 1.153 2.553 2.553 0 0 0 -.729 1.6 1.5 1.5 0 0 0 0 .8c.823 4.567 7.495 2.522 6.367-1.759z"/><path d="m198.7 456.47a279.786 279.786 0 0 1 -2.21-46.243c1.486-49.7 7.415-99.1 12.886-148.49-2.883-.194-5.647-4.434-5.831-7.959-5.17 64.481-19.1 138.305-11.857 202.647a28.349 28.349 0 0 1 7.012.045z"/><path d="m166.319 282.444s-5.808 7.48-18.882 9.943l-.758-12.5z"/><path d="m162.388 315.468s-5.9 22.27 10.761 27.433c17.426 5.4 30.513-5.941 34.556-24.091 0 0-29.144 13.132-45.317-3.342z"/><path d="m161.567 451.762c-16.867-97.006-2.567-196.372-7.858-294.218a151.157 151.157 0 0 1 -16.83-4.5 6.738 6.738 0 0 0 -8.855 7.283c4.758 35.182 7.683 95.22 10.287 151.636-5.191 42.089 21.512 120.022-20.05 158.859a4.3 4.3 0 0 0 3 7.43c15.645-.228 31.326-1.828 44.868-9.3 3.527-1.946 6.893-4.28 10.333-6.415-6.643-.516-12.351-2.992-14.895-10.775z"/><path d="m160.812 376.364s-1.553 9.635-15.268 6.305c0 0 6.882-6.305 15.268-6.305z"/></g><path d="m165.322 275.189c4.632 1.088 3.692 7.133-.947 8.061-19.753 3.95-56.95 5.945-61.108-9.928-3.031-11.575.734-18.224 6.7-22.051 12.892 12.117 30.116 24.064 55.355 23.918z" fill="#f4999c"/><path d="m204.478 325.272c-14.181 15.132-43.619 13.711-43.661-6.6z" fill="#f4999c"/><path d="m343.066 342.586c-2.026-1.613-1.648-4.7.111-6.547.343-.361 31.657-3.337 32.559-3.076 4.036 1.044 4.928 5.1 1.421 7.548-7.429 5.6-26.032 7.401-34.091 2.075z" fill="#f4999c"/><path d="m236.6 208.5-20.485 48.031c-4.84 9.942-11.249 2.493-12.557-1.01-.482 7.312-1.5 15.191.884 22.26 3.054 6.191 9.6 4.307 13.463.87 4.3-3.828 6.808-9.283 8.5-14.785s16.251-53.058 16.251-53.058l-5.819-2.213c-.079-.035-.16-.065-.237-.095z" fill="#4f424c"/><path d="m327.614 449.626c-36.557-20.64-44.849-47.631-48.124-95.164-.084-2.14-3.507-2.922-3.958-.536-6.063 32.064 4.7 88.876 18.084 105.575-1.061-5.215 3.188-8.627 6.449-7.49 13.123 4.511 27.411 4.008 41.041 2.729a99.489 99.489 0 0 1 -13.492-5.114z" fill="#4f424c"/><path d="m339.271 427.148c-14.447-24.279-18.767-53.334-16.534-81.36a115.949 115.949 0 0 0 -6.536 10.9c-1.905 35.461 9.7 72.492 35.788 97.007 3.143-.294 6.289-.549 9.439-.723a102.948 102.948 0 0 1 -22.157-25.824z" fill="#4f424c"/><path d="m375.059 452.831q6.372.214 12.712.945c-15.428-10.413-29.053-24.628-35.152-42.52-2.165-6.03-3.466-12.387-5.977-18.28-.925-2.172-4.6-1.063-4.433 1.2 1.791 23.765 15.174 43.769 32.85 58.655z" fill="#4f424c"/><path d="m190.808 385.141c-2.331 70.476-29.764 67.362-34.506 26.929-2.491 8.585-8.184 30.978-8.184 30.978s20.016 22.7 28.34 19.49c.394-.408 10.892-6.219 15.233-6.079 0 0 2.066-31.471 2.223-47.061z" fill="#4f424c"/><path d="m189.322 178.86-7.2 69.347a2.2 2.2 0 0 1 -4.4-.126c-.344-25.606 2.381-58.84 5.595-82.788z" fill="#4f424c"/><path d="m141.264 353.432c.693 8.039 3.641 14.5 13.261 16.3a52.19 52.19 0 0 0 4.587 2.752 3.387 3.387 0 0 1 -1.455 6.387c-10.507.337-21-.107-31.163-2.651-8.586-1.517-18.923-8.854-14.259-18.562l3.3-4.926c9.465-1.745 18.065-1.562 25.729.7z" fill="#f4999c"/><path d="m154.529 369.724c-5.5-3.708-10.734-8.927-13.265-16.292-7.669-2.262-16.267-2.445-25.725-.7a20.353 20.353 0 0 0 -3.3 4.928c3.737 13.155 28.768 15.711 42.29 12.064z" fill="#c6656a"/><path d="m141.27 353.43a30.382 30.382 0 0 1 -1.559-11.178c-6.553.355-18.917 3.691-24.166 10.483a122.385 122.385 0 0 0 25.725.695z" fill="#4f424c"/><path d="m94.252 319.63c-4.925 4.561-5.269 12.172-2.885 15.718 5.086 6.96 15.89 9.748 24.036 11.265 10.411 1.554 20.9.078 31.407-1.195a4.172 4.172 0 0 0 2.247-7.276 27.806 27.806 0 0 1 -2.057-2.222c-17.39-9.32-34.954-15.103-52.748-16.29z" fill="#f4999c"/><path d="m361.763 386.166c-1.1-3.98-2.019-8-2.777-12.045l-24-4.624s-2.9 16.084 27.647 19.608c-.3-.978-.598-1.956-.87-2.939z" fill="#4f424c"/><path d="m339.319 364.185c-4.648 1.24-6.061 7.069-1.759 9.859 11.142 7.187 37.782 9.1 48.69 5.042 8.727-3.5 8.631-11.792-.044-15.562-19.875 1.154-29.416 3.521-46.887.661z" fill="#f4999c"/><path d="m268.932 467.39c1.354 2.339 5.615.754 4.519-1.9-27.814-59.786-23.03-149.494-13.926-203.322a104.6 104.6 0 0 1 -1.374-25.6c-15.665 66.502-22.641 169.578 10.781 230.822z" fill="#4f424c"/><path d="m233.477 468.322c-16.654-57.167-10.177-117.2-7.737-175.725.009-2.173-3.544-2.8-3.914-.53-2.691 16.537-3.542 33.557-4.4 50.274-1.843 41.2-1.846 83.181 8.9 123.4z" fill="#4f424c"/><path d="m244.094 461.14c-3.586-12.367-4.721-25.255-7.133-37.821-.547-2.313-3.81-1.642-3.96.536-.94 15.788 3.982 32.064 8.042 47.154q3.4 1.2 6.883 2.387c-1.415-4.023-2.736-8.087-3.832-12.256z" fill="#4f424c"/><path d="m165.322 275.2c-31.322-7.363-30.293-29.19-30.293-29.19-4.742.068-16.93.069-25.048 5.275-2.357 8.481-.932 14.834 2.845 19.4a1.126 1.126 0 0 0 1.869-.243 12.3 12.3 0 0 1 3.077-3.938c1.5-1.243 4.094.372 2.871 2.216a39.881 39.881 0 0 0 -2.706 4.509 1.71 1.71 0 1 0 3.1 1.44 8.155 8.155 0 0 1 1.756-2.65c1.311-1.272 4.039-.008 3.291 1.916-.148 1.016-2.611 3.681-.647 4.38a70.19 70.19 0 0 0 39.885-3.115z" fill="#c6656a"/><path d="m143.751 331.848c-3.76-5.96-5.253-12.839-5.44-19.883 0 0-17.7-1.628-31.258.822a24.115 24.115 0 0 0 -12.787 6.857c.19 1.443 1.46 8.223 3.807 5.866a8.787 8.787 0 0 1 2.178-2.364c1.616-1.154 3.354 1.032 2.549 2.549-.373.7-1.5 2.252-2.257 3.328a1.388 1.388 0 0 0 .277 1.889c1.623 1.206 2.331-1.154 3.277-2.012a1.778 1.778 0 0 1 2.779 2.145c-.483.979-1.016 1.843-1.451 2.788a53.578 53.578 0 0 0 20.552 5.044c2-.129 1.139-2.948 1.468-4.285a1.7 1.7 0 0 1 3.4 0c.359 1.336-.477 4.16 1.521 4.28a49.063 49.063 0 0 0 14.634-2.953c-1.416-1.647-2.934-3.573-3.249-4.071z" fill="#c6656a"/><path d="m205.289 316.919c-23.92 3.859-33.93-3.051-38.647-7.908-5.054-3.609-5.788 6.625-5.8 9.663 3.541 6.633 11.508 10.2 20.3 11.012 1.146.092 1.049-1.48 1.326-2.162.577-2.067 3.454-2.034 3.4 1.344a.926.926 0 0 0 .94.965 40.993 40.993 0 0 0 17.671-4.561 26.617 26.617 0 0 0 3.391-4.527 2.545 2.545 0 0 0 -2.581-3.826z" fill="#c6656a"/><path d="m356.94 340.376c12.2 0 16.973-4.472 18.793-7.4-7.058-1.008-14.779-2.549-21.858-2.347-1.189.289-7.728 3.014-10.693 5.415 1.181 2.156 4.634 4.332 13.758 4.332z" fill="#c6656a"/><path d="m386.2 363.543a47.493 47.493 0 0 0 -27.113-3.4 83.348 83.348 0 0 1 -19.761 4.059c3.735 6.26 21.077 9.183 32.74 9.136a.871.871 0 0 0 .815-1.157 11.2 11.2 0 0 0 -.69-1.572 1.818 1.818 0 0 1 3.136-1.834c1.083 1.323 1.172 4.386 3.453 4.1a1.869 1.869 0 0 0 1.567-2.056c-.231-2.5 1.751-2.59 3.162-1.182 2.173 2.163 3.691-3.669 2.691-6.094z" fill="#c6656a"/></svg>