<svg id="flat" height="512" viewBox="0 0 500 500" width="512" xmlns="http://www.w3.org/2000/svg"><path d="m315.508 32.1c-.792-6.258-6.629-10.716-12.836-11.841-30.611-5.548-63.759 3.805-86.633 24.98-6.379 5.905-13.944 14.212-11.123 22.433 11.49 33.493 55.148 30.37 65.3 27.559 16.999-5.931 48.955-20.331 45.292-63.131z" fill="#b6c3dd"/><path d="m295.122 19.19a103.678 103.678 0 0 0 -64.189 14.758s-18.992 14.21-8.289 30.264 54.307 0 54.307 0l26.559-35.874c-1.928-4.468-4.483-7.911-8.388-9.148z" fill="#b6c3dd"/><path d="m306.631 59.154c19.56-23.512 0-37.7 0-37.7-3.635-1.528-7.64-1.758-11.51-2.249 2.507 2.359 2.215 6.131.77 9.036-3.478 7.894-10.61 13.747-18.48 17.28-11.845 5.847-68.835 16.448-46.473-11.559a96.114 96.114 0 0 0 -14.9 11.277c-9.193 8.419-15.66 17.071-8.608 28.293 9.692 7.834 21.812 11.23 34.606 13.395.001-.005 45.036-4.262 64.595-27.773z" fill="#7b8aa5"/><path d="m315.508 32.1c-.619-4.894-4.327-8.678-8.88-10.637 9.3 27.393-14.076 49.071-38.987 55.15-19.57 4.88-41.181 4.286-60.108-2.9 14.38 27.047 53.187 24.151 62.686 21.521 17.006-5.945 48.945-20.317 45.289-63.134z" fill="#4f424c"/><path d="m118.936 335.742-8.836 54.752s-25.66 66.752-62.4 69.5-39.23-27.054-39.23-27.054c-.328-21.278 8.074-41.5 16.312-60.742l51.4-70.292c6.967-3.694 15.142-2.176 22 1.145 11.347 7.813 19.559 17.81 20.754 32.691z" fill="#b6c3dd"/><path d="m83.712 333.3c2.419-5.858-1.031-19.474-7.333-31.481a28.071 28.071 0 0 0 -2.862 1.556l-44.364 59.745c-.937 1.857-3.488 7.2-4.379 9.08 31.155 9.124 44.011-17.476 46.639-22.463a43.264 43.264 0 0 1 8.433-11.022 16.289 16.289 0 0 0 3.866-5.415z" fill="#4f424c"/><path d="m35.556 422.306c18.733 9.634 35.721-17 43.98-29.92 10.751-16.826 18.924-37.037 18.594-57.308-.13-7.946-2.986-16.978-11.854-18.612-9.448-1.737-17.961 6.419-23.86 12.666a94.319 94.319 0 0 0 -24.841 51.892c-.56 4.219-1.8 10.053 1.2 13.684 2.719 3.287 6.883 2.865 10.08.5 4.726-3.493 8.458-9.028 12-13.657a87.166 87.166 0 0 0 10.445-16.728 2.475 2.475 0 0 0 -4.27-2.5c-6.307 8.425-12.044 17.289-19.248 25.011-1.044 1.134-3.05 3.94-4.028 2.026-1.331-2.6.69-8.637 1.218-11.352a88.773 88.773 0 0 1 19.163-40.408c4.489-5.287 10.483-12.44 17.522-14.111 10.067-2.39 9.836 10.647 9.376 17.091-1.117 15.646-6.865 30.667-14.775 44.093a155.388 155.388 0 0 1 -14.928 21.027c-6.144 7.313-13.442 14.256-23.769 11.848-2.76-.643-4.732 3.353-2.005 4.755z" fill="#4f424c"/><path d="m150.652 481.315-5.762-134.325a98.383 98.383 0 0 0 -46.713-43.935c22.693 30.218 9.511 70.5-6.358 101.051-6.179 12.567-12.932 25.231-23.3 34.648-18.725 17.425-46.4 17.256-60.036-5.812 1.378 30.375 24.759 47.865 51.579 48.374z" fill="#4f424c"/><path d="m163.349 224.186c20.836-43.547 51.806-96.47 92.714-123.718 18.939-11.7 42.988-17.391 64.394-10.681 0 0 57.5 24.787 50.236 112.5l54.607 92.847-8.237 159.771-253.29 13.977c-14.658-9.892-26.7-22.047-33.287-38.931z" fill="#b6c3dd"/><path d="m338.261 102.25c36.147 63.947-24.159 268-85 262.2-35.52-6.693-32.48-81.292-29.559-91.152 0 0-14.821 21.738-30.287 31.338l-7.694 13.781a175.738 175.738 0 0 0 -4.6 66.569 123.8 123.8 0 0 1 -40.835-16.386l-9.8 61.356c6.585 16.884 18.629 29.039 33.287 38.931l253.288-13.977 8.239-159.776-54.605-92.849c4.537-54.825-16.226-85.066-32.434-100.035z" fill="#7b8aa5"/><path d="m187.941 376.037c93.827-33.494 186.745-312.662 82.422-229.795-37.721 33.518-67.076 76.228-88.147 121.919-4.66 10.4-12.694 23.689-7.846 35.249 1.972 4.7 5.986 8.213 11.174 8.678 6.625.595 12.479-3.8 17.211-7.912 25.222-22.5 38.5-56.359 47.116-88.267 1.021-4.189-5.288-5.943-6.464-1.783-6.734 23.81-15.753 47.307-30.019 67.7-4.427 6.327-22.419 30.054-29.356 19.955-13.848-26.36 59.076-121.211 81.288-139.381 12.572-12.036 30.072-22.118 34.8-21.354 34.478.873-51.2 260.324-160.206 229.9l-1.209 7.569a70.451 70.451 0 0 0 49.236-2.478z" fill="#4f424c"/><path d="m210.622 333.08c-3.708-9.593-.729-23.169-1.592-33.376-.72-8.529-.423-17.41-4-25.282a50.746 50.746 0 0 0 -33.406-28.028s-43.168 174.706-45.269 192.72c20.879 6.917 32.642 3.176 43-2.679 12.017-6.791 12.852-23.718 24.7-26.484 16.001-3.732 37.888-21.711 16.567-76.871z" fill="#4f424c"/><path d="m198.511 273.292c-6.984-25.808-28.986-26.376-35.146-49.1-24.086 53.077-29.716 111.716-37.948 168.789 0 0-2.813 22.366 21.135 22.366s40.935-21.3 40.935-21.3l14.62-11.746-1-40.216-3.586-31.134a114.536 114.536 0 0 0 .99-37.659z" fill="#cbe0b7"/><path d="m491.477 463.057c-2.122-22.13-16.156-43.573-23.9-65.385-17.1-48.26-3.917-106.969-37.728-149.12-23.939-27.011-41.782-32.4-48.892-71.653-7.743-35.071-23.115-75.1-60.5-87.112 0 0 42.256 25.034 35.178 113.28a32.757 32.757 0 0 0 4.993 19.36c3.249 5.293 8.533 8.931 13.214 13.012 68.666 66.9 8.758 187.814-73.36 213.35-32.013 12.188-112.21 16.881-142.182.328-19.1-10.983-28.188-31.652-33.2-53.841-3.542 26.266-10.8 57.735 9.3 79.18a22.314 22.314 0 0 0 16.252 6.859l325.531-1.415a15.41 15.41 0 0 0 15.294-16.843z" fill="#4f424c"/><path d="m65.639 348.821c2.849-4.291 4.865-9.3 8.844-12.574 4.818-3.033 6.214-6.333 4.934-12.025a7.969 7.969 0 0 1 -1.582-6.877q-1.815-7.082-4.312-13.964c-18.086 13.249-33.868 39.94-44.37 59.739 3.635 2.01 8.212 1.892 12.279 1.247l8.221-2.387a36.268 36.268 0 0 0 15.986-13.159z" fill="#cbe0b7"/><path d="m355.635 203.067c-1.525 158.9-52.056 213.509-131.845 265.815h17.956c84.345-60.642 117.288-124.837 120.889-259.312z" fill="#4f424c"/><g fill="#97a583"><path d="m187.941 376.037a115.609 115.609 0 0 0 22.681-13.273 80.67 80.67 0 0 0 -1.729-9c-20.663 18.909-54.635 26.565-79.762 12.658l-1.038 7.417c17.942 10.134 41.086 10.346 59.848 2.198z"/><path d="m185.544 312.088c6.32.568 11.935-3.4 16.547-7.342.039-3 .012-6.02-.116-9.045-6.546 6.67-14.016 11.8-17.943 6.078-6.54-12.513 4.253-29.937 9.051-40.711a43.384 43.384 0 0 0 -4.569-6.174c-5.52 13.347-20.174 34.461-14.145 48.516 1.973 4.702 5.987 8.213 11.175 8.678z"/><path d="m49.648 361.967c4.964-12.788 17.1-31.645 29.766-37.745-.45-2.311-1.013-4.593-1.592-6.874-17.139 8.092-30.5 29.583-36.392 47.008a35.677 35.677 0 0 0 8.218-2.389z"/><path d="m207.985 350.33c-1.92-6.829-4.39-13.537-5.46-20.549-2.112-18.613 1.977-38.407-4.018-56.488 1.431 13.839-4.3 28.368-6.224 42.037-2.623 18.641 5.473 35.875 5.149 54.346-.242 13.834-9.263 18.606-13.836 20.033-7.335 2.291-13.472 6.9-20.117 10.59-12.49 7.652-29.941 5.531-38.062-7.317-2.245 13.067-3.595 25.164-4.468 36.745 14.421 5.935 38.926 4.323 49.256-7.359 4.627-5.233 7.613-12 13.24-16.138 4.129-3.037 9.281-4.343 13.643-7.033 16.124-10.231 16.058-32.378 10.897-48.867z"/><path d="m147.654 311.949a110.45 110.45 0 0 0 -2.731 15.208c-.169 2.25 3.288 2.62 3.868.523 1.353-4.9 1.876-10.2 2.523-15.236.267-2.083-3.214-2.527-3.66-.495z"/><path d="m154.86 321.371c-1.229 2.173-1.409 4.893-1.455 7.33-.045 2.362 3.754 2.989 4.212.57.419-2.211 1.182-4.575 1.152-6.841a2.114 2.114 0 0 0 -3.909-1.059z"/><path d="m164.618 332.989c2.805-.744 2.3-5.236-.667-5.178-2.454-.089-3.474 3.358-1.52 4.729a1.254 1.254 0 0 0 .554.323 2.385 2.385 0 0 0 1.633.126z"/><path d="m162.388 269.6a131.024 131.024 0 0 0 4.557-16.177 2.006 2.006 0 0 0 -3.865-1.066 130.9 130.9 0 0 0 -4.33 16.24 1.888 1.888 0 0 0 3.638 1.003z"/><path d="m168.737 264.772c-.906 3.769-2.078 7.655-2.366 11.53-.163 2.186 2.824 2.194 3.521.477 1.4-3.443 2.019-7.29 2.845-10.9.593-2.6-3.375-3.71-4-1.107z"/><path d="m175.268 345.6a77.725 77.725 0 0 0 -2.835 11.334c-.482 2.288 2.869 3.25 3.526.972a81.015 81.015 0 0 0 2.877-11.823c.283-2.171-2.906-2.256-3.568-.483z"/><path d="m166.126 351.537a31.274 31.274 0 0 0 -2.336 9.91c-.164 2.065 3.166 2.506 3.614.49.667-3 1.418-5.992 2.021-9.009.375-1.861-2.447-3.39-3.299-1.391z"/><path d="m140.608 363.277c-.643 3.623-1.484 7.9-1.066 11.577a1.9 1.9 0 0 0 3.706.5c1.094-3.531 1.1-7.892 1.135-11.568.022-2.103-3.383-2.686-3.775-.509z"/></g><path d="m282.369 298.939a2.707 2.707 0 0 0 -2.144-.115 3.559 3.559 0 0 0 -2.044 1.113c.068-.093.009-.028-.017.009-4.279 2.651 1.221 8.08 4.645 5.047l-.392.318a3.592 3.592 0 0 0 -.048-6.372z" fill="#7b8aa5"/><path d="m274.77 321.379a3.482 3.482 0 0 0 -1.09-1.658l-.066-.086-.649-.5a3 3 0 0 0 -2.042-.381 3.159 3.159 0 0 0 -2.09 1.206 3.549 3.549 0 0 0 -.575 3.1c.756 3.5 6.154 3.306 6.562-.251a3.117 3.117 0 0 0 -.05-1.43zm-.028.153c0-.016 0-.033-.009-.048l.012.026z" fill="#7b8aa5"/><path d="m292.749 315.92a3.273 3.273 0 0 0 -1.744-1.745 3.4 3.4 0 0 0 -4.342 1.55l-.058.076-.318.754a3 3 0 0 0 .159 2.054 3.125 3.125 0 0 0 1.667 1.668 3.42 3.42 0 0 0 3.569-.438 3.615 3.615 0 0 0 .9-.982l.333-.788a3.168 3.168 0 0 0 -.166-2.149z" fill="#7b8aa5"/><path d="m28.967 402.793c-3.189-1.841-5.941 3.038-2.856 4.911 3.138 1.781 6.013-3.06 2.856-4.911z" fill="#7b8aa5"/><path d="m22.386 416.63a1.953 1.953 0 0 0 -.518-1.241 2.92 2.92 0 0 0 -2.823-1.181 2.95 2.95 0 0 0 0 5.847 2.987 2.987 0 0 0 3.341-3.425z" fill="#7b8aa5"/><path d="m246.084 40.715a43.27 43.27 0 0 0 25.96-3.892c6.589-2.748 16.46-11.187 8.4-18.025a103.562 103.562 0 0 0 -13.417 1.488 36.364 36.364 0 0 1 5.417.935c2.266.585 5.741.987 3.773 5.067-2.9 3.25-7.445 4.923-11.479 6.347a78.341 78.341 0 0 1 -17.982 3.131c-2.625.203-3.665 4.451-.672 4.949z" fill="#7b8aa5"/><path d="m247.4 130.554c.084-2.527-3.229-4.362-5.117-2.454-2.71 1.371-1.515 5.992 1.5 6a1.538 1.538 0 0 0 .808 0 2.856 2.856 0 0 0 1.788-.857c-.247.227.4-.462.514-.673a3.853 3.853 0 0 0 .507-2.016z" fill="#7b8aa5"/><path d="m235.505 140.041c-.335.153-.657.336-.977.52a3.942 3.942 0 0 0 -.63.275c-.424-.049-2.5 1.646-1.122.624l-.673.52a3.545 3.545 0 0 0 .237 5.284c2.061 1.688 4.723.066 6.024-1.792 3.147-2.39.971-7.14-2.859-5.431z" fill="#7b8aa5"/><path d="m245.46 390.241c-12.871-.518-46.192 31.254-27.836 46.842 9.685 8.41 38-18.623 37.42-35.047-.194-5.53-4.077-11.258-9.584-11.795z" fill="#b6c3dd"/><path d="m275.167 404.074a3.682 3.682 0 0 0 -1.879-1.553 1.67 1.67 0 0 0 -.849-.23 1.7 1.7 0 0 0 -.9 0 3.017 3.017 0 0 0 -2.2 1.263 1.682 1.682 0 0 0 -.43.738 3.221 3.221 0 0 0 -.168 2.2l.339.8.526.681c2.072 2.516 6.588.637 5.957-2.642a2.524 2.524 0 0 0 -.396-1.257z" fill="#b6c3dd"/><path d="m278.245 384.863c-.712-1.866-2.848-1.825-4.456-1.255a4.489 4.489 0 0 0 -2.42 1.238l.012.012c-1.871 1.749-.5 5.332 2.148 5.2 2.292-.243 5.781-2.558 4.716-5.195z" fill="#b6c3dd"/><path d="m376.531 333.729c-.8-4.062-4.679-6.251-7.762-2.574-7 8.644-20.044 38.845-29.242 58.1a5.523 5.523 0 0 0 8.417 6.708c11.316-7.873 33.662-39.752 28.587-62.234z" fill="#b6c3dd"/></svg>