<svg id="flat" height="512" viewBox="0 0 500 500" width="512" xmlns="http://www.w3.org/2000/svg"><path d="m329.119 290.761c-4.042-37.87-12.842-33.894-12.842-33.894-.33 8.24-.873 16.3-1.587 23.767q1.414 7.026-1.27 11.272a202.784 202.784 0 0 1 -8.289 36.635c-1.3 9.32-3.428 17.064-7.952 20.255a119.066 119.066 0 0 1 -22.962 33.521s-16.307-15.033-25.962-20.6l-24.933-11.884 11.255 21.007c26.5 23.952 23.432 50.362 12.317 77.859 0 0 38.224 28.482 56.363-54.138 5.312-24.191 29.043-73.97 25.862-103.8z" fill="#e57e80"/><path d="m324.058 167.525c7.942-5.942 15.647-12.525 21.672-20.444l7.139-.972 1.014 8.872-21.8 27.787s-6.483 3.032-10.283-3.556 2.258-11.687 2.258-11.687z" fill="#e57e80"/><path d="m187.467 336.559q1.389 1.509 2.834 2.957c3.224 1.717 5.6 3.8 6.85 6.385 11.672 10.199 24.849 18.786 35.949 29.678 2.727.763 4.77 3.636 6.6 7.176 5.735 6.912 10.429 14.662 12.951 22.947 11.094-11.778-7.17-29.451-18.228-38.713a44.007 44.007 0 0 1 -13.748-20.6c-9.313-5.107-27.111-21.33-33.711-34.025-11.492-6.474-11.13 8.756-11.13 8.756a98.677 98.677 0 0 0 11.633 15.439z" fill="#bc5b65"/><path d="m325.446 178.647c-4.038-2.071-3.262-6.8-1.389-11.123q-1.395 1.017-2.816 1.994l-14.713-15.638a13.617 13.617 0 0 0 -4.324 12.508c10.7 16.914 12.738 31.518 13.951 53.317 5.888 2.454 8 6.074 8 6.074l6.864 2.146c-2.815-24.638 6.667-51.133 8.475-53.967-5.605 3.786-9.632 6.954-14.048 4.689z" fill="#bc5b65"/><path d="m283.757 416.361c-7.209 15.8-16.542 36.043-36.862 32.342-3.318 10.606-13.565 28.977 13.322 37.081 21.437 5.407 32.512-35.751 32.512-35.751l4.426-51.443z" fill="#bc5b65"/><path d="m364.474 126.5c-1.1-14.12-3.126-33.831-6.421-45.434l-12.613.987c4.5 23.427 8.082 54.249.285 65.024 3.064 1.475 6.681 4.024 4.358 7.78a90.855 90.855 0 0 1 -11.38 13.924c-19.092 19.462-14.488 51.649-14.488 51.649l8.71-1.072c.316-31.232 3.073-40.094 23.459-63.809a44.058 44.058 0 0 0 8.09-29.049z" fill="#4f424c"/><path d="m265.382 97.623-9.16 8.575a302.713 302.713 0 0 1 45.978 60.191 27.414 27.414 0 0 1 1.772-5.91 3.064 3.064 0 0 1 5.259-.625c4.707 6.235 8.777 12.774 8.777 12.774l3.232-3.11c-13.728-23.718-39.409-55.243-55.858-71.895z" fill="#4f424c"/><path d="m249.986 359.9c-9.655-5.564-20-9.92-29.371-15.943-29.482-18.389-41.813-49.384-47.89-82.229l-14.967-.554c2.988 20.776 6.942 41.921 18.081 59.935 2.323-4.878 8.115-8.09 11.87-2.735 14.407 23.522 31.8 32.587 52.236 41.821 15.12 6.833 24.659 18.451 28.4 23.687a2.664 2.664 0 0 0 4.1.291l1.774-1.859c-5.354-9.772-14.578-16.847-24.233-22.414z" fill="#4f424c"/><path d="m331.624 326.129c1.729-10.955 1.064-22.125.695-33.209-.867-26.065-.067-52.153.75-78.22a67.484 67.484 0 0 0 -17.2.265 394.419 394.419 0 0 1 .405 41.9c13.421 5.048 11.489 49.63 8.443 65.241-6.725 34.464-34.565 68.9-36.706 112.638-.51 10.417 2.241 45.672-30.024 41.838-8.259-.981-12.971-6.35-15.555-12.85-2.132 11.657.722 25.418-12.9 30.957a1.1 1.1 0 0 0 .475 2.1l86.716.161a1.1 1.1 0 0 0 .572-2.048c-9.953-5.894-18.619-17.761-18.619-36.258 0-21.317-.02-43.007 6.346-63.351 7.398-23.637 22.738-44.693 26.602-69.164z" fill="#4f424c"/><path d="m364.607 118.769c-36.015 2.631-46.127-24.477-59.424-57.369s10.294-53.244 13.235-54.633c6.971-3.293 16.241-4.851 32.4-2.083 22.582 3.867 34.385-3.376 44.984-1.233 22.769 4.6 33.828 13.682 41.025 22.746.003.003 59.88 82.933-72.22 92.572z" fill="#8fad96"/><path d="m448.346 42.972c-3.825-5.1-6.723-10.681-11.518-16.774 8.451 18.084 13.2 40.432-5.722 53.665-3.476 2.431-13.094 4.519-15.833.915-5.686-7.482 3.909-9.635 7.873-16.941a1.875 1.875 0 0 0 -2.271-2.679 47.064 47.064 0 0 1 -35.576-1.31c-6.431-1.149.528 10.48 2.413 11.852a7.891 7.891 0 0 1 -2.142 12.268c-9.657 5.122-24.546 9.9-35.284-1.05-14.92-15.213-.33-28.251 5.3-32.39a2.8 2.8 0 0 0 .632-3.877c-2.434-3.407-8.57-8.543-22.006-3.65-5.532 2.015-13.174-.126-16.707-4.836-6.524-9.125-4.4-22.125.913-31.395-7.543 3.787-30.916 17.886-17.5 54.8 13.3 32.891 27.592 60.56 63.692 59.7s77.437-16.54 77.437-16.54c26.592-22.86 6.299-61.758 6.299-61.758z" fill="#617a68"/><path d="m458.715 90.709c3.8-16.339-.763-33.965-10.385-47.726 6.625 21.043 2.309 62.266-27.227 59.463a16.194 16.194 0 0 1 -9.242-5.683 10.99 10.99 0 0 0 -14.347-2.143 116.058 116.058 0 0 1 -18.609 9.4c-10.825 4.294-30.5 3.14-40.344-3.091-11.48-7.272-10.357-21.636-16.669-33-4.723-8.5-14.844-14.1-19.874-22.424-5.489-9.084.118-22.653 8.46-33.84-6.2 4.554-11.994 9.831-22.853 12.743-14.081 3.775-30.474 15.046-28.231 42.378 1.035 15.014 12.015 26.774 23.219 36.814 12.937 11.588 29.853 13.427 40.474 13.227a20.693 20.693 0 0 1 15.778 6.97c5.981 6.661 16.79 14.82 32.835 12.728 11.051-1.44 20.087-9.447 29.008-16.126 21.817 17.833 53.375-5.629 58.007-29.69z" fill="#4f424c"/><path d="m232.861 155.5c-6.926-16.158-25.369-20.03-29.329-18.846-15.617-11.633-38.772-11.387-54.146.575-1.441 1.122-2.979 2.394-4.794 2.389a8.685 8.685 0 0 1 -3.592-1.192 33.42 33.42 0 0 0 -19.156-2.591s-21.959 5.006-29.125 26.511l8.551 113.846s76.606 15.835 104.271-11.83 33.025-94.094 27.32-108.862z" fill="#8fad96"/><path d="m232.259 187.167c5.768-13.723 4.568-24.045.6-31.664a76.222 76.222 0 0 1 -18.4 31.991c-4.125 4.266-8.088 7.749-8.032 14.18.058 6.682 5.818 12.424-.236 18.374-6.114 6.008-13.059 1.064-20.183 2.484-11.379 2.266-15.4 15.873-23.06 22.984-2.49 2.312-9.041 12.227-19.362 9.1-6.385-1.937-3.5-8.828-10.126-11.307-5.89-2.2-11.425 3.169-17.067 4.416-9.126 2.017-13.14-5.851-11.9-13.745a22 22 0 0 1 9.662-15c3.139-1.921 6.8-2.175 10.5-2.117 9.577.149 16.349-1.647 21.115-4.078 4.009-2.044 2.093-8.159-2.354-7.471-19.051 3.822-49.644-11.533-28.55-33.254a3.141 3.141 0 0 0 -3.032-5.208c-5.119 1.317-10.246-3.79-9.687-8.555 1.858-15.863 15.007-19.383 19.708-22.445-15.583 2.162-27.871 12.928-38.318 24.132-8.3 8.155-3.514 14.67 6.928 16.443a24.713 24.713 0 0 0 -6.748 19.694 99.514 99.514 0 0 0 -23.641 18.867s-21.781 24.441 6.76 38.68c0 0-11.267 14.522-4.228 31.583s61.839 13.1 61.839 13.1l63.549-17.458c42.409 2.41 84.949-29.632 84.949-29.632 8.492-42.849-40.686-64.094-40.686-64.094z" fill="#617a68"/><path d="m298.363 239.46c-6.519-21.789-33.41-52.067-56.843-52.94 13.48-22.611-12.619-49.894-32.684-49.894 23.019 20.342 19.675 40.755 13.93 53.2a10.173 10.173 0 0 0 5.871 13.783c12.054 4.308 26.94 15.856 25.661 40.225-.312 5.933-6.547 10.375-12.766 9.888-6.426-.5-12.183-4.093-18.7-4.579a3.383 3.383 0 0 0 -3.356 3.357c-.385 24.767-32.784 28.077-38.208 3.917-.6-3.2-4.7-2.951-6.264-.818-8.264 11.283-19.1 21.276-31.53 27.812-6.375 3.353-15.491 4.985-17.852-3.669-3.032-14.781-15.163-7.867-24.352-3.554-6.349 2.739-13.034 5.814-20.061 6.055-10.969.373-13.3-4.358-9.27-14.24a72.89 72.89 0 0 1 10.661-20.361c2.229-3.05-1.958-6.166-4.764-4.763-19.968 8.93-27.611-13.117-17.756-27.886-9.163 10.5-22.317 27.464-19.817 42.081 1.438 7.024 8.552 13.193 15.3 11.111-5.279 6.99-10.724 14.35-12.229 23.032s2.359 19.017 10.626 21.654c10.906 3.477 21.406-7.52 32.834-7.637-2.879 4.793.239 11.556 5.229 13.96 10.838 4.913 21.294-4.118 30.987-8.016 3.3 7.367 13.283 8.878 20.86 6.415 13.852-4.5 22.939-17.639 31-29.958 13.085 18.093 41.132 19.111 55.447 1.97 2.148-2.816 4.443-3.982 7.455-1.639 19.064 13.231 31.742 3.257 28.36-18.968 6.787 7.325 19.644 6 26.508-1.247s8.26-18.562 5.723-28.291z" fill="#4f424c"/><path d="m184.943 78.64c1.262-6.836 5.678-12.834 10.244-18.091 15.418-17.385 39.709-25.625 62.675-23.525 11.8.9 19.166 6.165 23.6 11.26l.886 13.3s19.2 8.763 17.192 20.1-20.763 35.11-20.763 35.11-27.176 17.4-54.138 10.537-44.154-24.544-39.696-48.691z" fill="#8fad96"/><path d="m308.5 79.289c-3.6-10.292-7.622-17.8-21.02-20.743a30.439 30.439 0 0 0 -6.02-10.259c.6 17.772-14.516 23.594-28.807 28.5-3.239 1.113-1.156 6.346 2.4 5.7a57.916 57.916 0 0 0 17.2-5.722c20.787-8.525 12.953 25.888-.276 20.11a7.939 7.939 0 0 0 -9.743 3.356c-7.706 12.221-24.095 17.322-30.45 1.094a8.2 8.2 0 0 0 -12.622-3.685c-13.4 11.749-35.4 1.086-34.211-19-2 8.424-4.486 16.765-9.816 23.774a57.942 57.942 0 0 0 -3.69 5.89s-7.817 40.6 26.978 36.01c0 0 18.374-9.2 55.977-10.613 69.755-2.618 54.1-54.412 54.1-54.412z" fill="#617a68"/><path d="m317.486 188.5c4.6.679 9.064-2.708 12.558-5.647 18.185-14.425 53.459-17.639 66.623 4.651a10.714 10.714 0 0 1 7.011 11.536c-.912 9-29.354 16.333-29.354 16.333s-50.246 7.625-57.669-7.036-9.704-14.768.831-19.837z" fill="#8fad96"/><path d="m405.169 191.383a20.128 20.128 0 0 0 -8.5-3.879c3.669 2.88 4.368 16.736-9.688 16.693a1.81 1.81 0 0 1 -1.534-2.779 28.144 28.144 0 0 0 2.946-6.289c.736-2.223-2.1-3.4-3.626-2.11-5.948 5.019-9.841 12.051-21.019 12.747-8.158.508-9.863-12.7-20.161-9.9-4.385 1.195-22.08 15.6-28.186 1.2-1.359-3.2 2.087-8.573 2.087-8.573a36.329 36.329 0 0 0 -15.9 2.095s-18.544 8.672-18.113 30.522l34.682 5.905 57.281-1.239s15.058 2.42 28.05-11.5 1.681-22.893 1.681-22.893z" fill="#617a68"/><g fill="#4f424c"><path d="m394.76 226.485c15.726-3.766 24.908-24.171 10.4-35.088 7.355 12.784-6.987 24.607-14.447 26.238-6.425 1.405-11.253-4.317-17.323-1.659-2.824 1.236-8.293 8.365-13.769 6.219-4.241-1.663-1.771-5.949-5.108-8.754-5.454-4.586-11.607-.081-17.293 3.543-8.083 5.75-21.355 15.578-21.35-2.02a3.4 3.4 0 0 0 -5.077-2.913c-3.44 2.172-10.015 8.38-17.2 6.109-5.757-1.82-6.456-17.107 8-27.563-12.042 4.328-21.125 14.231-27.209 25.252-2.653 4.776-4.833 10.64-2.441 15.552 7.462 12.5 26.135 4.191 35.957-1.148-.655 5.68 5.663 10.171 11.374 9.882s10.693-3.776 15.336-7.115c3.549-2.917 6.158-2.268 9.373.691 13.155 10.179 25.73-1.59 38.822-5.238 3.931-.938 8.036-.998 11.955-1.988z"/><path d="m269.89 487.319c-1.416-41.742 18.555-73.055 37.842-108.008a2.112 2.112 0 0 0 -3.644-2.13c-20.884 32.313-41.722 70.431-37.949 110.137.31 2.314 3.719 2.5 3.751 0z"/><path d="m254.427 391.542a90.072 90.072 0 0 1 -1.773 14.158 44.044 44.044 0 0 1 1.944 15.436c6.456-18.339 7.588-38.177 2.066-57.048-2.409-1.641-4.875-3.18-7.405-4.591a80.3 80.3 0 0 1 5.168 32.045z"/><path d="m314.686 280.634c-.377 3.948-.8 7.721-1.271 11.271 9.115 22.1 9.649 48.147 5.048 71.654 3.2-6.814 6.3-13.647 8.78-20.662.785-21.069-1.825-43.189-12.557-62.263z"/><path d="m225.421 358.785a33.931 33.931 0 0 1 7.676 16.8c2.3 2.272 4.518 4.667 6.6 7.174 1.124-26.682-23.619-44.66-49.388-43.245 2.2 2.213 4.494 4.333 6.847 6.387 10.623 1.099 20.775 4.134 28.265 12.884z"/><path d="m265.6 423.572a2.314 2.314 0 0 0 -3.348.973c-9.068 19.7-16.957 43.478-13.141 64.345.34 1.857 3.316 1.41 3.269-.443-.712-21.912 4.444-42.169 14.082-61.963a2.312 2.312 0 0 0 -.862-2.912z"/><path d="m297.159 348.787c-4.794 18.937-14.266 36.19-23.4 53.309a2.272 2.272 0 1 0 4 2.145c2.039-3.813 4.082-7.623 6.081-11.451 10.5-20.025 19.983-41.374 21.272-64.254a170.145 170.145 0 0 1 -7.953 20.251z"/><path d="m272.936 413.687c-.015 3.363-5.128 3.362-5.142 0 .015-3.362 5.127-3.362 5.142 0z"/><path d="m308.5 79.292c-.523 8.991 2.279 31.424-18.693 40.387-8.769 3.748-16.34-2.877-20.989-2.877-10.57 0-10.542 8.983-20.681 11.973-10.026 2.958-15.926-.055-19.365-4.7a11.077 11.077 0 0 0 -16.663-1.3c-19.082 18.978-36.134 16.021-40.75-14.289-20.108 35.275 18.175 72.649 48.017 32.194 2.077 5.494 5.493 11.617 11.273 12.663a16.674 16.674 0 0 0 13.445-3.15 21.851 21.851 0 0 1 17.184-4.213c10.7 2.483 20.627-2.457 29.776-7.618 33.528-18.842 22.496-49.045 17.446-59.07z"/></g><path d="m369.515 58.533c4.331-.015 4.321-6.6 0-6.629-4.332.015-4.322 6.601 0 6.629z" fill="#617a68"/><path d="m160.806 210.121c2.554-2 4.927-4.824 5.686-8.033a2.521 2.521 0 0 0 -4.584-1.933c-1.33 2.347-2.394 4.912-3.844 7.224-.869 1.62 1.019 4.006 2.742 2.742z" fill="#617a68"/><path d="m175.238 206.921c2.034-1.543 3.862-4.38 3.176-7.063-.433-1.694-3.135-2.228-3.941-.515-.655 1.684-.834 3.523-1.64 5.173a1.77 1.77 0 0 0 2.405 2.405z" fill="#617a68"/><path d="m421.671 28.519c.762 1.671 1.937 3.062 2.506 4.843s.305 3.739.941 5.454c.756 2.036 3.646 2.75 4.841.633 2.573-4.56-1.235-12.346-5.972-13.943-1.86-.627-3 1.522-2.316 3.013z" fill="#617a68"/><path d="m409.6 31.02c.83 2.1 2 4.28 4.212 5.154l-1.293-.754c3.89 3.855 6.715-.964 4.259-4.646-1-2.094-3.206-4.781-5.749-3.266a3.163 3.163 0 0 0 -1.429 3.512z" fill="#617a68"/><path d="m400.483 35.671c4.051-.015 4.042-6.175 0-6.2-4.052.013-4.042 6.174 0 6.2z" fill="#617a68"/><path d="m241.121 73.681c-1.6.791-2.036 2.051-2.516 3.676-.392 1.326-1.055 2.79-.913 4.19a2.317 2.317 0 0 0 3.9 1.616c1.477-1.678 2.139-4.02 2.908-6.087.345-2.03-1.127-4.514-3.38-3.395z" fill="#617a68"/><path d="m229.4 76.1a12.683 12.683 0 0 0 -3.008 6.671 2.269 2.269 0 0 0 3.386 1.943 9.72 9.72 0 0 0 3.464-7.023c.169-1.85-2.654-3.1-3.842-1.591z" fill="#617a68"/></svg>