<svg id="icons" height="512" viewBox="0 0 500 500" width="512" xmlns="http://www.w3.org/2000/svg"><path d="m488.2 129.04a35.958 35.958 0 0 0 -23.5-19.312c4.476-16.952 5.041-30.947 1.732-42.69-9.332-37.21-70.632-54.348-98.653-27.793-32.943-3.792-47.359 18.98-58.051 52.157-4.423 12.607-8.318 23.7-19.564 36.4-9.474-12.425-32.754-7.494-38.26 13.483-11.751.763-21.447 10.957-23.194 24.27a34.4 34.4 0 0 0 -24.68 25.256c-11.909.536-21.408 10.835-22.916 24.3-12.112.611-21.2 10.99-22.664 24.65-16.86-.621-23.36 20.384-21.673 36.38-13.032 11.478-27.363 21.683-44.826 25.751-23.824 6.13-65.924 25.095-80.206 83.245-16.776 62.935 31.18 87.131 70.971 85.534 49.309 13.329 86.175-19.707 96.684-75.319 3.125-15.222 11.682-29.275 21.829-41.137 6.588 2.259 14.192 4.712 22.111 5.749 5.494.019 18.589-4.552 18.574-17.314 12.594-.956 21.211-11.613 20.821-25.91 8.31-3.362 18.708-11.374 19.01-25.674 11.235-2.4 22.088-11.908 21.874-25.723 9.329-2.457 21.123-9.538 22.367-24.728 9.187-2.137 21.056-8.87 21.209-24.4a16.383 16.383 0 0 0 -2.533-8.816 90.59 90.59 0 0 1 14.779-15.292l-.655 53.615a65.839 65.839 0 0 1 -4.831 24.426c-17.058 37.763 5.327 73.992 43.978 73.788 35.6-.258 56.255-26.036 50.557-68.316a68.709 68.709 0 0 1 5.275-35.832 16.59 16.59 0 0 0 16.065-8.309 98.522 98.522 0 0 0 9.465-23.095 16.459 16.459 0 0 0 -4.926-16.36l14.4-33.376a35.792 35.792 0 0 0 -.569-29.608zm-103.6-87.713c14.835-7.048 30.642-3.828 41.29.116 28.538 10.566 37.315 30.816 28.189 65.426-4.872-1.272-9.816-2.517-14.733-3.718 4.954-17.662 1.44-32.754-9.9-41.852a29.491 29.491 0 0 0 -24.746-6.057c-15.679 3.373-29.732 19.247-41.767 47.182-14.33 33.259-39.112 53.694-54.9 64.01a137.237 137.237 0 0 1 -6.9-12.228c59.341-44.95 44.575-92.835 83.467-112.879zm32.734 25.485c14.8 5.837 14.737 23.137 11.306 33.779-3.067-.719-6.084-1.416-9.027-2.086 4.675-12.705 1.502-23.842-2.284-31.693zm-8.572 29.265c-10.786-2.785-21.294-4.5-31.292 1.189 10.353-20.533 20.08-28.149 27.229-30.616 5.857 9.88 8.581 18.926 4.058 29.427zm-48.693 44.523-.165 13.5c-20.569 8.48-33.252 19.529-40.541 27.858-1.693-2.033-3.4-4.187-5.089-6.46a167.383 167.383 0 0 0 31.955-27.31c5.045-2.671 9.507-5.357 13.84-7.588zm-39.962-45.558c6.57-18.739 14.877-43.745 37.533-45q-9.105 12.013-15.217 29.858c-10.6 31.047-31.7 52.373-45.906 63.926q-.924-2.357-1.765-4.8c15.525-15.964 20.305-29.588 25.355-43.984zm-231.084 264.344c-15.782 5.766-25.958 13.188-32.511 20.607 9.477-24.091 30.274-34.576 46.415-39.126a98.728 98.728 0 0 0 37.285-19.827l9.01-7.632c1.286 2.1 2.577 4.016 4.086 6.077a117.07 117.07 0 0 0 -15.5 18.443c-12.698 8.014-26.856 13.453-48.785 21.458zm38.778-3.554a120.565 120.565 0 0 0 -7.592 22.621c-6.913 30.279-22.873 46-47.439 46.732-1.566-.189-10.848-1.605-16.4-8.775-4.253-20.283 11.762-38.263 36.43-46.691 14.241-5.205 25.34-9.367 35-13.887zm-49.701 103.768c-.335.022-33.017.241-49.272-20.182-9.677-12.158-11.829-29.538-6.4-51.658 12.917-52.59 50.82-69.7 72.265-75.215 16.888-4.2 31.44-12.674 44.146-23.861a86.949 86.949 0 0 0 5.12 14.764l-10.855 9.2a87.823 87.823 0 0 1 -33.16 17.633c-15.9 4.481-44.188 16.873-55.07 49.517-5.868 17.817-5.363 31.786 2.05 42.347 9.4 12.939 24.522 14 25.772 14.047 29.578-.713 50.261-20.348 58.239-55.29a107.2 107.2 0 0 1 29.425-52.921 95.246 95.246 0 0 0 12.6 11.237 119.077 119.077 0 0 0 -29.387 56.91c-14.973 67.98-62.256 63.695-65.473 63.472zm109.077-105.348a96.738 96.738 0 0 0 -18.514 38.71c-9.628 39.485-22.334 61.222-54.676 68.7 48.351-28.65 29.424-77.708 68.276-116.284q3.958 2.325 8.417 4.446zm49.944-22.515a104.208 104.208 0 0 1 -12.875-6.5c-6.3-3.546-11.732 5.739-5.554 9.5a123.886 123.886 0 0 0 12.173 6.291c.953 5.133-3.851 7.561-7.482 7.9-52.839-10.745-79.561-48.053-74.991-86.1 2.036-7.448 4.038-11.994 9.822-12.042.349 9.769 8.989 42.236 35.832 65.775a5.477 5.477 0 0 0 3.718 1.449c4.808.164 7.454-6.357 3.72-9.552-33.688-31.031-42.012-76.721-21.107-82.164 1.322 28.858 21.7 70.348 71.338 90.618.223 11.26-6.378 15.753-14.594 14.825zm19.979-24.659c-48.3-16.372-69.235-68.423-65.528-85.949.64-10.48 3.591-17.6 12.1-19.216 6.193 34.181 22.428 67.771 67.065 88.355.003 11.284-9.874 15.584-13.637 16.81zm41.561-51.922c-32.3-14.181-47.5-42.811-54.578-64.492a5.5 5.5 0 1 0 -10.457 3.411c7.657 23.47 24.084 54.4 58.978 70.431.645 10.5-8.855 15.523-15.828 16.356-35.659-13.018-60.309-52.288-62.662-84.272 2.644-18.7 19.428-20.853 20.115-20.932a5.5 5.5 0 0 0 4.921-5c.9-9.9 4.442-16.667 12.626-18.237 5.88 32.9 31.036 74.394 63.235 87.1-.996 11.903-12.254 14.929-16.352 15.635zm22.7-24.875c-46.8-19.6-58.122-75.844-59.446-83.434 1.794-9.441 6.548-14.271 14.532-14.726a5.811 5.811 0 0 1 5.9 4.232c11.762 40.273 40.041 66.132 51.653 75.38a5.626 5.626 0 0 1 2.195 4.376c-.11 11.212-11.016 13.659-14.839 14.172zm15.366-30.591c-2.891-2.5-6.3-5.663-9.962-9.469 33.64-39.553 75.618-24.339 97.207-55.512l12.8 3.1c-4.695 8.336-17.612 24.076-49.88 29.771-18.9 3.339-36.159 14.409-50.17 32.11zm57.723-56.254.037-2.963a10.316 10.316 0 0 1 12.674-9.841l5.046 1.224c-4.563 5.283-9.447 8.664-17.762 11.58zm29.1 82.808-3.766 9.3c-13.874 32.049 3.336 56.049-7.966 68.466-4.88 5.739-25.072 2.742-28.348-5.445-3.137-6.009-2-16.072 3.216-28.335a82.784 82.784 0 0 0 6.581-31.5l.762-61.349c35.663-7.846 49.2-27.557 53.723-36.891a8.978 8.978 0 0 1 5.716 11.9l-10.416 25.714a16.417 16.417 0 0 0 -13.3 6.943 81.3 81.3 0 0 0 -11.484 23.778 16.46 16.46 0 0 0 5.277 17.419zm14.024 50.694c2.289 18.982.518 43.459-20.915 52.27-37.3 14.776-70.537-15.409-52.531-54.864a76.822 76.822 0 0 0 5.662-28.487l.746-61.114a62.193 62.193 0 0 1 12.462-4.992l-.731 58.84a71.816 71.816 0 0 1 -5.7 27.334c-4.615 10.858-8.855 26.217-2.843 37.73 6.833 14.263 34.025 19.628 45.723 8.281 6.843-6.581 9.1-18.115 6.527-33.354a71.74 71.74 0 0 1 4.009-38.911l3.359-8.291 10.077 4.649a79.69 79.69 0 0 0 -5.85 40.909zm31.087-71.351a87.518 87.518 0 0 1 -8.418 20.506 5.569 5.569 0 0 1 -7.164 2.28l-21.25-9.8a5.546 5.546 0 0 1 -3-6.646 70.191 70.191 0 0 1 9.901-20.527 5.517 5.517 0 0 1 6.911-1.738l20.01 9.607a5.5 5.5 0 0 1 3.005 6.318zm10.009-51.295-13.945 32.33-11.1-5.328 10.035-24.772a19.884 19.884 0 0 0 -.9-16.895c-3.55-6.771-9.792-9.649-17.008-10.955-.006 0-22.789-5.528-22.8-5.528l-13.2-3.2c-12.8-3.463-26.451 7.136-26.265 20.394l-.078 6.279c-4.308 1.027-8.553 2.2-12.449 3.457l.3-24.316c-.171-13.27 13.266-23.991 26.167-20.885 17.626 3.775 43.225 9.557 65.073 15.659 14.161 3.605 22.271 20.459 16.165 33.76z"/></svg>