<svg id="icons" height="512" viewBox="0 0 500 500" width="512" xmlns="http://www.w3.org/2000/svg"><path d="m39.68 485.321c23.593 6.984 49.679-5.056 60.107-28.178l12-26.488c50.113-77.287 136.446-173.462 201.851-246.287 2.435 14.754 11.837 21.384 23.313 29.416a202.458 202.458 0 0 1 11.149 28.288 29.663 29.663 0 0 0 14.631 17.628l16.707 8.715a5.549 5.549 0 0 0 6.812-1.408c9.016-11.1 34.055-19.311 42.945-21.54a5.5 5.5 0 0 0 3.965-3.864c3.032-10.961 25.995-23.037 39.215-28.939a5.492 5.492 0 0 0 2.169-4.714c-1.744-23.13 13.111-48.073 13.261-48.3a5.562 5.562 0 0 0 -1.54-7.356l-43.655-30.649-10.177-9.838c3.476-16.331-5.378-32.392-23.43-32.253l13.07-16.437c7.232-8.648 4.264-22.911-5.822-27.952-10.557-5.5-19.223-12.5-30.89-4.247l-5.912 4.47a33.6 33.6 0 0 0 -3.63-8.252c-6.672-11.26-24.076-10.648-30.236.713-29.136-30.868-66.819-7.242-85.529 6.69-7.495 7.661-12.254 18.725-15.166 33.371a45.768 45.768 0 0 0 10.846 39.225c-5.013 14.818 9.526 28.87 24.233 24.52 1.312 1.638 2.825 3.121 4.187 4.709-62.6 70.161-120.431 132.114-172.418 187.05-39.376 41.555-66.31 69.284-69 72.054-37.79 31.081-30.958 63.414-30.648 64.778a41.152 41.152 0 0 0 27.592 25.075zm274.984-329.047c-6.781-9.095-14.158-18.109-22.04-26.942 7.741-1.372 16.69-2.871 26.333-4.325-1.841 10.658-3.284 21.113-4.293 31.267zm9.5 21.225a404.954 404.954 0 0 1 6.253-54.147c6.26-.864 12.707-1.685 19.22-2.422-6.395 32.137-10.727 63.949-12.65 79.241-7.887-4.871-13.387-13.188-12.825-22.671zm99.535 58.06c-6.692 1.9-23.685 7.263-36.246 15.866 1.273-8.633 5.919-20.075 20.741-26.06.366-.13 4.362-2.14 9.079 1.349 7.531 4.7 14.122-6.947 2.5-11.236 3.2-6.188 7.33-12.626 18.671-15.068a21.2 21.2 0 0 0 8.209-3.583 26.439 26.439 0 0 0 8.875 11.745c-11.05 5.739-26.606 15.485-31.828 26.987zm39.811-34.959c-8.386-4.885-8.265-14.943-8.112-17.294 2.278-9.893 8.246-16.354 17.807-19.287-4.011 8.789-8.972 22.328-9.695 36.581zm-28.236-70.743a5.5 5.5 0 0 0 .663.547l33.249 23.346c-17.049 5.564-22.724 18.963-24.607 27.5a10.8 10.8 0 0 1 -8.3 8.379 35.529 35.529 0 0 0 -25.476 19.356 12.826 12.826 0 0 1 -6.734 6.185c-20.628 8.33-27.085 25.869-27.961 39.108-7.24-3.78-15.056-6.673-17.476-15.371a213.465 213.465 0 0 0 -11.672-29.675c.971-8.335 5.912-49.1 14.131-89.494 22.762-2.172 45.43-3.038 62.805-.874zm-54.374-81.775 11.1-8.39a7.594 7.594 0 0 1 8.114-.647l10.981 5.834a7.613 7.613 0 0 1 2.373 11.392l-16.728 21.029-19.256-18.613c1.316-3.578 3.031-6.839 3.416-10.605zm-7.389 22.065 9.829 9.5q-6.492.264-12.9.738c1.015-3.603 2.041-7.003 3.071-10.238zm-18.875-35.789a6.643 6.643 0 0 1 5.679-4.391c7.317-.895 9.244 10.055 9.716 14.439a11.205 11.205 0 0 1 -.846 5.356 262.36 262.36 0 0 0 -10.436 31.643c-6.675.671-13.213 1.476-19.542 2.373 5.521-21.035 11.365-38.316 15.429-49.42zm-98.947 35.635c2.286-11.856 6.284-21.223 11.573-27.128a127.469 127.469 0 0 1 31.621-17.239c17.024-5.844 30.811.636 42.422 13.388-4.115 11.888-9.194 27.912-13.927 46.579a557.442 557.442 0 0 0 -63.41 14.254 34.827 34.827 0 0 1 -8.279-29.854zm20.19 51.243c-5.87 1.364-11.786-4.79-9.742-10.552 12.924-3.787 81.343-22.777 144.372-20.066 9.272.6 12.551 8.8 11.407 16.95-44.272-4.43-116.284 7.954-146.037 13.668zm-225.937 282.545c1.051-.96 5.591-5.725 15.678-16.159-4.605 8.3-8.511 15.573-11.627 21.649-15.143 28.745 3.936 51.877 10.956 43.229a5.471 5.471 0 0 0 -.515-7.737c-.452-.414-10.953-10.383-.653-30.469 14.061-28.057 33.462-59.928 55.955-83.325 16.191-17.087 31.158-32.99 48.09-51.1 21.534-10.78 51.313-21.91 65.951-42.048l54.864-67.906a5.5 5.5 0 0 0 -8.557-6.915l-54.863 67.9c-9.4 12.037-22.729 20.516-36.575 26.61 32.589-35.095 67.993-73.767 102.781-112.777 7.178 8.49 13.854 17.111 19.957 25.775-25.566 28-54.709 60.543-83.842 94.364-63.072 68.949-115.39 70.628-153.083 155.408-2.948 6.528 6.7 11.218 9.951 4.683.243-.517 24.7-51.986 52.489-71.5 10.9-7.654 25.854-18.155 41.475-30.079-29.116 36.677-56.132 68.706-76.6 102.727l-12 26.488c-11.154 27.349-54.361 33.401-67.045 4.761-.639-3.869-3.303-28.611 27.213-53.579z"/></svg>