<?xml version="1.0"?>
<svg xmlns="http://www.w3.org/2000/svg" id="icon" viewBox="0 0 512 512" width="512" height="512"><title>backpacking</title><path d="M370.164,451.6h9.252a31.736,31.736,0,0,0,31.7-31.7V358.87a19.631,19.631,0,0,0,13.3-18.551v-8.13a53.914,53.914,0,0,0-53.854-53.852h-.34V244.122a32.723,32.723,0,0,0,18.309-29.346V132.144a32.723,32.723,0,0,0-32.686-32.685H337V47.075a17.622,17.622,0,0,0-17.6-17.6H301.373A17.61,17.61,0,0,0,283.8,46.483H247.092a5.573,5.573,0,1,0,0,11.145h36.679V99.459H228.229V47.075a17.622,17.622,0,0,0-17.6-17.6H192.608a17.61,17.61,0,0,0-17.573,17.01H117.566A39.28,39.28,0,0,0,78.331,85.718v15.3a39.45,39.45,0,0,0,22.327,35.414,5.572,5.572,0,1,0,4.808-10.054,28.255,28.255,0,0,1-15.991-25.36v-15.3a28.123,28.123,0,0,1,28.091-28.09h57.439V99.459H156.154a32.723,32.723,0,0,0-32.686,32.685v82.632a32.723,32.723,0,0,0,18.309,29.346v34.215h-.34a53.914,53.914,0,0,0-53.854,53.852v8.13a19.631,19.631,0,0,0,13.3,18.551V419.9a31.736,31.736,0,0,0,31.7,31.7h9.252a32.868,32.868,0,0,0,32.77,30.926H337.394A32.868,32.868,0,0,0,370.164,451.6Zm.4-162.119a42.756,42.756,0,0,1,42.709,42.707v8.13a8.479,8.479,0,0,1-8.469,8.468H388.334a5.573,5.573,0,1,0,0,11.145h11.637V419.9a20.578,20.578,0,0,1-20.555,20.555h-9.193V289.482Zm-77.477,31.962a6.964,6.964,0,0,1-6.955-6.956V291.222a6.962,6.962,0,0,1,6.955-6.955h34.593a6.963,6.963,0,0,1,6.956,6.955v23.266a6.965,6.965,0,0,1-6.956,6.956Zm-108.765,0a6.965,6.965,0,0,1-6.956-6.956V291.222a6.963,6.963,0,0,1,6.956-6.955h34.593a6.962,6.962,0,0,1,6.955,6.955v23.266a6.964,6.964,0,0,1-6.955,6.956ZM134.613,214.776V132.144a21.565,21.565,0,0,1,21.541-21.54h18.851v18.315a5.573,5.573,0,0,0,11.145,0V47.075a6.464,6.464,0,0,1,6.458-6.457h18.019a6.464,6.464,0,0,1,6.457,6.457V273.122H186.15V186.076a5.573,5.573,0,1,0-11.145,0v50.242H156.154A21.566,21.566,0,0,1,134.613,214.776ZM112.029,419.9V359.932H126.9a5.573,5.573,0,1,0,0-11.145H107.2a8.479,8.479,0,0,1-8.469-8.468v-8.13a42.756,42.756,0,0,1,42.709-42.707h.34V440.456h-9.193A20.578,20.578,0,0,1,112.029,419.9Zm247.049,29.8a21.708,21.708,0,0,1-21.684,21.683H174.606A21.708,21.708,0,0,1,152.922,449.7V424.386a29.58,29.58,0,0,1,29.546-29.545h19.149a5.573,5.573,0,0,0,0-11.145H182.468a40.575,40.575,0,0,0-29.546,12.757V247.3c1.064.105,2.142.161,3.232.161h18.851v28.271a18.088,18.088,0,0,0-8.785,15.489v23.266a18.091,18.091,0,0,0,8.785,15.49v13.951a26.613,26.613,0,0,0,52.806,4.712,5.544,5.544,0,0,0,.418-2.121v-2.591a5.573,5.573,0,1,0-11.145,0,15.467,15.467,0,0,1-30.934,0v-11.34h32.764a18.12,18.12,0,0,0,18.1-18.1V291.222a18.09,18.09,0,0,0-8.784-15.49V110.6h55.542v19.408a5.573,5.573,0,1,0,11.145,0V47.075a6.464,6.464,0,0,1,6.457-6.457h18.019a6.464,6.464,0,0,1,6.458,6.457V273.122H294.916v-84.26a5.573,5.573,0,1,0-11.145,0v47.456H246.447a5.572,5.572,0,1,0,0,11.144h37.324v28.27a18.09,18.09,0,0,0-8.784,15.49v23.266a18.092,18.092,0,0,0,8.784,15.491v13.95a26.613,26.613,0,0,0,52.968,3.7A5.571,5.571,0,0,0,337,345.95v-2.021a5.573,5.573,0,1,0-11.145,0,15.467,15.467,0,0,1-30.934,0v-11.34h32.763a18.122,18.122,0,0,0,18.1-18.1V291.222A18.088,18.088,0,0,0,337,275.733V110.6h18.851a21.565,21.565,0,0,1,21.541,21.54v82.632a21.566,21.566,0,0,1-21.541,21.542,5.572,5.572,0,1,0,0,11.144c1.09,0,2.168-.056,3.232-.161V396.453A40.575,40.575,0,0,0,329.532,383.7H231.441a5.573,5.573,0,0,0,0,11.145h98.091a29.58,29.58,0,0,1,29.546,29.545Z"/><path d="M433.669,85.718a39.28,39.28,0,0,0-39.235-39.235H354.625a5.573,5.573,0,0,0,0,11.145h39.809a28.123,28.123,0,0,1,28.091,28.09v15.3a28.257,28.257,0,0,1-15.988,25.359,5.572,5.572,0,1,0,4.81,10.053,39.456,39.456,0,0,0,22.322-35.412Z"/><path d="M180.577,167.684a5.573,5.573,0,0,0,5.573-5.573v-6.349a5.573,5.573,0,1,0-11.145,0v6.349A5.573,5.573,0,0,0,180.577,167.684Z"/><path d="M289.344,165.514a5.573,5.573,0,0,0,5.572-5.573v-4.3a5.573,5.573,0,1,0-11.145,0v4.3A5.573,5.573,0,0,0,289.344,165.514Z"/></svg>
