<?xml version="1.0"?>
<svg xmlns="http://www.w3.org/2000/svg" id="icon" viewBox="0 0 512 512" width="512" height="512"><title>bicycle</title><path d="M58.166,382.553a5.573,5.573,0,0,0,3.955-9.5,79.506,79.506,0,0,1,56.423-135.52,80.285,80.285,0,0,1,14.012,1.23,5.573,5.573,0,0,0,1.951-10.974A90.73,90.73,0,0,0,27.894,317.04a90.09,90.09,0,0,0,26.317,63.867A5.557,5.557,0,0,0,58.166,382.553Z"/><path d="M393.456,249.873a67.867,67.867,0,0,0-10.5.821l-54.462-98.212a5.572,5.572,0,1,0-9.746,5.405l83.9,151.291a5.166,5.166,0,0,1-8.9,5.249L338.4,214.615a5.574,5.574,0,0,0-9.374-.585L252.732,318.488a5.738,5.738,0,0,0-.5.823,5.287,5.287,0,0,1-.91,1.3l-.037.04a5.391,5.391,0,0,1-.6.522,5.163,5.163,0,0,1-1.1.632c-.046.017-.1.035-.129.048a4.81,4.81,0,0,1-.531.17,5.2,5.2,0,0,1-.543.111c-.176.026-.356.043-.54.052l-.132.007h-.02l-131.943.011c-.215-.011-.291-.009-.612-.032l-.762-.127-.165-.045-.718-.258-.138-.068c-.095-.046-.19-.091-.246-.123l-.186-.115c-.1-.059-.193-.117-.226-.14l-.093-.065c-.047-.038-.091-.074-.119-.1-.085-.064-.168-.127-.251-.2l-.521-.522-.8-1.255c-.037-.079-.071-.159-.1-.223l-.085-.234c-.034-.1-.063-.195-.087-.282l-.044-.17c-.023-.1-.043-.192-.062-.3l-.077-.743c0-.032,0-.1-.008-.176,0-.021,0-.041,0-.056,0-.111.01-.222.015-.278,0-.013.017-.251.019-.264l.035-.219.023-.139.069-.317c0-.009.039-.138.04-.146l.573-1.287c.051-.084.1-.168.153-.241s.094-.134.138-.2l83.849-114.8a5.573,5.573,0,0,0,.718-5.241l-5.307-14.177a5.572,5.572,0,1,0-10.437,3.907l4.254,11.363L102.368,307.516c-.061.085-.118.171-.174.259-.162.235-.318.479-.484.748-.1.167-.2.333-.3.506-.145.255-.278.517-.409.782l-.074.15c-.086.174-.169.347-.247.523-.11.249-.208.5-.3.758l5.216,1.962-5.267-1.827c-.081.215-.16.429-.215.6-.083.249-.153.5-.246.849-.069.251-.135.5-.179.716-.052.234-.094.473-.157.845-.043.259-.083.516-.107.729s-.044.417-.059.628c0,0-.009.138-.009.143-.019.261-.034.522-.041.773-.006.122-.011.282-.011.379,0,.185.008.365.018.479.008.281.021.562.043.84s.056.566.091.831c.032.237.067.473.108.7.053.305.117.607.193.934.049.206.1.411.163.627.086.3.177.6.28.9.066.187.134.372.211.575.113.293.234.581.34.812s.217.465.323.672c.13.26.268.515.383.713.131.231.27.458.418.693.14.219.284.434.437.648s.313.429.5.663c.157.2.319.393.5.6s.347.392.523.576c.2.2.395.4.619.613.173.161.345.32.521.471.22.189.445.371.685.555.124.1.246.2.339.267.108.081.22.158.336.232.249.171.51.339.842.543.14.086.28.171.43.257.289.163.586.313.942.487.168.083.336.165.516.244.269.118.543.223.947.375.181.068.362.135.57.2.253.083.51.153.865.249.234.063.468.125.671.168.23.05.462.092.784.146.274.046.546.09.854.126.2.023.407.039.7.06.255.018.5.032.777.04.13.007.286.013.391.013h80.748a79.82,79.82,0,0,1-77.81,63.2H60.179a5.573,5.573,0,0,0,0,11.145h58.365a91,91,0,0,0,89.177-74.341h39.885c.2,0,.405-.01.586-.024l.132,0,.129-.008c.536-.028,1.058-.08,1.521-.15l.161-.024a15.891,15.891,0,0,0,1.605-.334l.2-.052c.53-.147,1.048-.317,1.434-.469.075-.026.214-.078.286-.107a16.37,16.37,0,0,0,3.721-2.1l.228-.173a15.79,15.79,0,0,0,1.664-1.485c.075-.074.124-.126.193-.2a16.283,16.283,0,0,0,2.521-3.508l70.891-97.066,8.449,15.235a90.647,90.647,0,0,0-8.517,141.536,5.572,5.572,0,1,0,7.458-8.281,79.511,79.511,0,0,1,6.5-123.451l37.283,67.231a16.309,16.309,0,0,0,28.295-16.226l-23.548-42.463c1.549-.127,3.1-.209,4.662-.209a56.352,56.352,0,0,1,52.356,36.043,5.573,5.573,0,0,0,10.413-3.976A67.562,67.562,0,0,0,393.456,249.873Z"/><path d="M347.547,275.6a5.574,5.574,0,0,0-7.8,1.1A67.169,67.169,0,1,0,460.624,317.04a5.572,5.572,0,0,0-5.572-5.572H440.613a5.573,5.573,0,0,0,0,11.145H449.2a56.121,56.121,0,0,1-50.173,50.172v-15.81a5.573,5.573,0,0,0-11.145,0v15.81a56.119,56.119,0,0,1-50.171-50.172h12.239a5.573,5.573,0,0,0,0-11.145H337.715A55.429,55.429,0,0,1,348.651,283.4,5.574,5.574,0,0,0,347.547,275.6Z"/><path d="M393.456,226.39c-2.242,0-4.509.083-6.737.247a5.573,5.573,0,0,0,.819,11.115c1.956-.144,3.948-.217,5.918-.217a79.506,79.506,0,0,1,0,159.011H300.223a5.573,5.573,0,0,0,0,11.145h93.233a90.651,90.651,0,0,0,0-181.3Z"/><path d="M34.522,396.546a5.573,5.573,0,0,0,0,11.145H38.67a5.573,5.573,0,1,0,0-11.145Z"/><path d="M272.093,407.691a5.573,5.573,0,0,0,0-11.145h-2.444a5.573,5.573,0,0,0,0,11.145Z"/><path d="M271.349,266.042a5.575,5.575,0,0,0-7.788,1.211l-1.572,2.153a5.572,5.572,0,1,0,9,6.575l1.572-2.152A5.572,5.572,0,0,0,271.349,266.042Z"/><path d="M200.631,214.345a5.572,5.572,0,0,0-5.259,2.234l-63.129,86.438a5.573,5.573,0,0,0,4.5,8.86h95.483a5.573,5.573,0,0,0,5.219-7.526l-32.354-86.439A5.57,5.57,0,0,0,200.631,214.345Zm-52.917,86.387L161.8,281.448a55.908,55.908,0,0,1,6.905,10.609,5.573,5.573,0,1,0,9.972-4.977,67.056,67.056,0,0,0-10.129-14.871l7.409-10.144a79.083,79.083,0,0,1,15.283,22.722,5.572,5.572,0,1,0,10.184-4.526,90.171,90.171,0,0,0-18.8-27.324L198.277,231.5l25.913,69.233Z"/><path d="M275.8,259.945a5.573,5.573,0,0,0,7.787-1.213l34.165-46.779a5.573,5.573,0,0,0-4.5-8.859H218.4a5.573,5.573,0,0,0-5.219,7.526l32.139,85.863a5.572,5.572,0,0,0,10.437-3.907l-29.321-78.337H302.28l-27.695,37.919A5.572,5.572,0,0,0,275.8,259.945Z"/><path d="M126.3,123.173a17.2,17.2,0,0,0,6.495,12.19c6.494,5.1,7.659,10.078,7.687,10.186a5.3,5.3,0,0,0,.166.671c3.911,12.479,13.329,20.408,27.24,22.931a37.847,37.847,0,0,0,6.744.6,43.54,43.54,0,0,0,20.533-5.337c.2-.109.408-.205.61-.312l9.376,25.047a5.572,5.572,0,0,0,5.219,3.619H316.818a5.573,5.573,0,0,0,4.873-8.275l-20.675-37.282c-.039-.077-.081-.157-.117-.22-.061-.108-.114-.221-.168-.334l-.068-.135c-.048-.106-.085-.217-.112-.291l-.141-.451c-.007-.029-.039-.146-.047-.175l-.105-.633c0-.012-.009-.152-.01-.164-.006-.1-.015-.2-.017-.219,0-.046,0-.094,0-.141l.02-.448c.008-.095.025-.189.03-.236l.04-.259c.016-.1.041-.192.066-.294,0,0,.041-.165.041-.17.03-.1.066-.208.1-.3l.056-.158c.039-.1.083-.2.152-.346l.057-.123c.046-.09.1-.178.146-.264l.092-.155c.059-.091.121-.18.164-.24l.833-.916c.081-.069.165-.133.226-.179.007-.007.166-.126.173-.132.1-.069.2-.131.31-.2l.12-.075h0c.113-.065.232-.121.323-.164l.136-.067c.113-.05.23-.091.464-.18.109-.035.221-.06.319-.085l1.236-.169.187-.006h31.939c.222.751.48,1.543.82,2.405a5.557,5.557,0,0,0,10.714-2.465c6.216-.417,21.961-3.065,27.044-18.874a7.176,7.176,0,0,1,12.623-1.916,6.988,6.988,0,0,1,1.008,6.334c-4.939,15.131-17.869,23.435-38.431,24.68a5.7,5.7,0,0,0-.625.074,5.291,5.291,0,0,1-.907.09h-5.16a5.573,5.573,0,0,0,0,11.145h5.16a15.943,15.943,0,0,0,2.5-.2c31.648-2.015,43.6-18.68,48.058-32.329a18.3,18.3,0,0,0-17.437-23.915,18.2,18.2,0,0,0-17.4,12.627c-3.078,9.573-13.406,11.027-17.812,11.2H305.388c-.09,0-.217,0-.33.009-.254.006-.522.023-.866.046-.222.014-.443.03-.648.054-.231.026-.462.062-.694.1l.912,5.5-1.075-5.47c-.254.04-.506.084-.769.14-.171.037-.341.081-.59.148-.328.084-.653.172-.991.281-.14.045-.278.095-.425.151-.377.135-.75.278-1.124.444l-.327.154c-.355.167-.7.343-1.012.515-.064.033-.126.067-.179.1-.135.077-.266.158-.4.244-.3.185-.6.376-.889.581-.129.091-.254.186-.465.346-.258.2-.509.4-.754.606-.185.158-.362.32-.525.475-.218.2-.428.409-.6.589s-.354.379-.514.562c-.189.215-.371.433-.524.627s-.3.393-.466.621-.316.452-.5.744c-.108.171-.212.343-.314.52-.165.279-.322.564-.477.87-.085.17-.167.343-.223.465-.151.321-.292.647-.446,1.043l-.147.4c-.122.343-.234.69-.322,1.01-.045.155-.086.313-.135.517-.086.343-.162.689-.212.976-.036.186-.064.372-.108.682s-.08.6-.1.895c-.021.243-.032.486-.043.782-.012.193-.021.387-.021.583,0,.117,0,.232.009.348.007.259.023.527.046.864.013.21.029.42.052.623.027.248.067.5.109.743l5.5-.923-5.468,1.094c.04.246.082.491.125.685.047.221.1.442.165.66.082.318.166.633.254.905.055.171.116.341.2.566.123.338.25.672.385.978.066.154.138.306.225.479.132.277.27.552.433.851.037.07.075.143.106.2l16.138,29.1H214.23L205.986,159.6a109.863,109.863,0,0,1,26.249-5.89,17.626,17.626,0,0,0,7.846-2.71c.027-.017.055-.034.082-.053a17.56,17.56,0,0,0,8.017-15.01,17.169,17.169,0,0,0-8.157-14.5c-21.852-13.491-53.17-11.223-56.721-10.912-15.833-.03-27.16-2.857-33.885-5.23a17.363,17.363,0,0,0-18.463,4.577h0A17.558,17.558,0,0,0,126.3,123.173Zm12.806-5.7h0a6.215,6.215,0,0,1,6.6-1.67c7.582,2.675,20.3,5.864,37.842,5.864.18,0,.358-.008.536-.025.3-.032,30.537-2.791,50.08,9.275a6.005,6.005,0,0,1,2.869,5.15,6.474,6.474,0,0,1-2.9,5.506l-.057.036a6.338,6.338,0,0,1-2.893,1c-6.947.658-24.881,3.143-41.309,11.989a30.546,30.546,0,0,1-20,3.584c-9.759-1.769-15.82-6.7-18.523-15.073-.473-2.027-2.749-9.508-11.677-16.514a5.959,5.959,0,0,1-2.265-4.283A6.4,6.4,0,0,1,139.1,117.47Z"/><path d="M118.544,356.337a5.573,5.573,0,0,0-5.572,5.573v10.863a56.123,56.123,0,0,1-29.823-12.305A5.572,5.572,0,0,0,76.1,369.1a67.183,67.183,0,0,0,100.129-17.638,5.573,5.573,0,0,0-9.567-5.719,56.375,56.375,0,0,1-42.547,27.006V361.91A5.573,5.573,0,0,0,118.544,356.337Z"/><path d="M118.544,269.782a5.573,5.573,0,0,0,5.573-5.573v-8.764a5.573,5.573,0,0,0-5.573-5.572,67.2,67.2,0,0,0-60.757,95.839,5.573,5.573,0,0,0,10.076-4.763,55.312,55.312,0,0,1-5.058-18.336H74.663a5.573,5.573,0,0,0,0-11.145H62.8A56.121,56.121,0,0,1,112.972,261.3v2.913A5.573,5.573,0,0,0,118.544,269.782Z"/></svg>
