<?xml version="1.0"?>
<svg xmlns="http://www.w3.org/2000/svg" id="icon" viewBox="0 0 512 512" width="512" height="512"><title>binoculars</title><path d="M445.872,374.309,392.207,108.6A56.768,56.768,0,0,0,373.994,77.2a5.5,5.5,0,0,0-.074-1.065l-1.726-10.056a41.3,41.3,0,0,0-82,6.989V85.687a5.508,5.508,0,0,0,.092.905,56.579,56.579,0,0,0-10.766,31.782H232.48a56.828,56.828,0,0,0-81.826-49.617l.137-.8a30.155,30.155,0,0,1,54.26-12.416,5.572,5.572,0,0,0,9.064-6.484,41.3,41.3,0,0,0-74.309,17.015L138.08,76.133a5.492,5.492,0,0,0-.074,1.064A56.778,56.778,0,0,0,119.793,108.6L108.626,163.9l-42.5,210.414,0,.013A84.557,84.557,0,1,0,232.5,395.677V317.743a34.584,34.584,0,0,0,47,0v77.935a84.555,84.555,0,1,0,166.372-21.355ZM331.493,42.914a30.082,30.082,0,0,1,29.716,25.048l.137.8a56.633,56.633,0,0,0-60.007,6.337V73.066A30.187,30.187,0,0,1,331.493,42.914ZM147.943,469.086a73.41,73.41,0,1,1,73.411-73.409A73.492,73.492,0,0,1,147.943,469.086Zm142.7-177.221c0-.049-.013-.1-.014-.144a34.37,34.37,0,0,0-10.376-24.15,5.572,5.572,0,0,0-7.8,7.956,23.319,23.319,0,0,1,7.037,16.561c0,.12,0,.241.011.363a23.5,23.5,0,0,1-47-.014c.006-.122.011-.261.011-.351v0a23.4,23.4,0,0,1,6.355-15.856,5.573,5.573,0,1,0-8.124-7.63,34.492,34.492,0,0,0-9.347,22.882c-.009.13-.039.255-.039.388V353.8A84.433,84.433,0,0,0,84.44,339.94L119.55,166.1l11.167-55.292a45.771,45.771,0,0,1,90.637,9.061v37.5a5.573,5.573,0,0,0,11.145,0V129.519h47v51.517a5.573,5.573,0,0,0,11.145,0V119.871a45.771,45.771,0,0,1,90.637-9.061l46.278,229.131A84.433,84.433,0,0,0,290.646,353.8Zm73.409,177.221a73.41,73.41,0,1,1,73.411-73.409A73.492,73.492,0,0,1,364.055,469.086Z"/><path d="M226.926,193.88a5.572,5.572,0,0,0-5.572,5.572v13.311a5.573,5.573,0,1,0,11.145,0V199.452A5.573,5.573,0,0,0,226.926,193.88Z"/><path d="M147.943,346.92a48.535,48.535,0,0,0-17.893,3.389,5.572,5.572,0,0,0,4.09,10.366,37.621,37.621,0,1,1-23.809,35,5.573,5.573,0,0,0-11.145,0,48.758,48.758,0,1,0,48.757-48.757Z"/><path d="M107.656,379.125a5.572,5.572,0,0,0,7.6-2.075,37.726,37.726,0,0,1,2.617-3.975,5.572,5.572,0,1,0-8.9-6.7,49,49,0,0,0-3.392,5.148A5.575,5.575,0,0,0,107.656,379.125Z"/><path d="M364.055,346.92a48.53,48.53,0,0,0-17.892,3.389,5.572,5.572,0,1,0,4.089,10.366,37.621,37.621,0,1,1-23.808,35,5.573,5.573,0,0,0-11.145,0,48.757,48.757,0,1,0,48.756-48.757Z"/><path d="M323.768,379.125a5.573,5.573,0,0,0,7.6-2.075,37.717,37.717,0,0,1,2.616-3.975,5.572,5.572,0,1,0-8.9-6.7,49,49,0,0,0-3.392,5.148A5.575,5.575,0,0,0,323.768,379.125Z"/></svg>
