<svg id="icons" height="512" viewBox="0 0 500 500" width="512" xmlns="http://www.w3.org/2000/svg"><path d="m414.973 166.5c-.13-8.09-4.144-17.381-14.562-19.94a25.437 25.437 0 0 0 -20.252-16.527c-.993-9.6-9.842-18.049-19.816-17.511-26.882-27.201-126.828-112.83-264.383-96.562a5.514 5.514 0 0 0 -2.974 5.391c.542 2.34 2.289 8.779 12.632 16.723 2.853 3.65 351.424 422.6 353.822 426.125l7.56 8.873a5.535 5.535 0 0 0 9.547-2.337c12.072-56.237 4.039-158.919-46.842-236.961 15.078-18.548 2.905-28.215-7.852-44.141 4.981-7.698 1.647-19.664-6.88-23.133zm-5.349 19.627c-16.269 5.285-28.814 16.342-34.844 22.464-5.787 4.983-10.183-2.506-9.809-7.235 4.2-4.607 20.12-20.44 44.375-25.185 5.489 1.375 4.786 8.622.278 9.955zm-34.274-45.455c7.065.026 10.943 3.3 13.03 6.392-18.066 4.333-32.057 18.222-32.718 18.887a5.5 5.5 0 0 0 7.8 7.759c.154-.154 15.422-15.238 32.553-16.8 5.382.38 7.741 4.555 7.921 9.175-24.846 5.874-41.079 21.323-46.59 27.291-6.287-.89-6.737-6.184-6.018-9.33a5.535 5.535 0 0 0 -5.537-6.921c-6.181.164-10.738-1.077-12.147-5.91 4.33-5.761 20.425-25.425 41.706-30.543zm-7.024-12.322a13.589 13.589 0 0 1 .825 2.628c-21.33 6.592-37.045 24.31-43.085 32.031a8.623 8.623 0 0 1 -1.343-12.52 129.047 129.047 0 0 1 31.7-25.854c4.082-2.465 10.091-.757 11.903 3.715zm-51.843 14.85c-.055.061-.1.127-.158.189-4.339-3.494-8.546-6.706-12.545-9.563-4.485-3-3.99-17.6-.342-21.488 8.416 6.1 16.607 12.585 24.431 19.44a136.453 136.453 0 0 0 -11.386 11.422zm-207.02-117.711c122.591-7.765 208.959 62.032 239.17 90.97a137 137 0 0 0 -12.173 8.251c-43.972-40.26-134.732-88.524-190.679-87.793-16.221.671-26.382-2.9-32.644-7.005zm17.648 21.243a82.589 82.589 0 0 0 14.812 1.268c33.362-1.908 93.362 18.511 152.518 58.02-3.922 5.376-5.177 12.94-4.937 18.906.321 8 3.193 14.5 7.88 17.852 4.526 3.234 9.35 6.962 14.342 11.058-1.07 8.132 3.745 16.829 11.244 20.024 1.5 7.2 8.892 13.333 17.168 14.024a17.344 17.344 0 0 0 13.962 16.047c.631 10.132 10.217 20.149 21.557 16.589 34.838 45.795 74.791 119.261 74.358 214.9zm340.658 410.055c-3.869-4.114-7.134-10.45-6.829-15 2.049-82.637-25.824-161.412-76.237-227.53a91.508 91.508 0 0 1 8.83-7.386c68.106 72.671 83.991 176.195 74.236 249.916zm-43.84-245.029a9.932 9.932 0 0 1 -.151 11.461l-1.016 1.4-19.853-23.678a64.066 64.066 0 0 1 10.333-4.43c3.633 5.101 7.22 10.218 10.687 15.247z"/><path d="m27.416 137.008c-4.453-3.552-10.914 1.679-8.3 6.783l19.892 40.377c.286 1.147 180.115 209.465 180.79 210.541-1.893 9.459-5.38 39.387 18.07 67.614 2.179 3.1 7.413 1.572 10.5 1.461-1.483 3.689-4.59 8.239-.423 11.491 16.1 12.585 43.32 16.945 60.657-2.263 39.398-41.465-27.602-95.472-63.683-98.825-64.819-80.217-159.843-192.634-217.503-237.179zm230.741 331.872 3.918-9.217a5.5 5.5 0 0 0 -5.538-7.631l-11.981 1.042a70.808 70.808 0 0 1 -15.066-47.1c1 1.069 57.376 66.906 58.42 67.856-12.038 4.042-24.01-1.522-29.753-4.95zm38.593-52.341c13.864 17.381 14.571 28.889 11.259 37.378-9.267-11.984-27.743-35.706-51.438-65.255 11.591 4.069 27.644 12.161 40.179 27.877zm4.194 47.835a3.288 3.288 0 0 1 -1.351 2.085 3.109 3.109 0 0 1 -4.075-.562l-246.946-287.216-8.042-16.323c87.894 80.182 231.887 260.494 260.414 302.016z"/><path d="m100.562 189.892c21.7 27.211 51.868 34.053 60.431 35.493 24.655 31.569 231.574 281.2 225.8 230.4l-19.893-40.385c-.265-1.14-180.132-209.47-180.792-210.541 1.894-9.46 5.38-39.387-18.069-67.613-2.217-3.108-7.385-1.569-10.5-1.461 1.485-3.7 4.591-8.233.424-11.491-11.1-8.589-37.5-19.564-58.221.015-11.5 12.361-26.813 29.439.82 65.583zm47.191-59.2-3.918 9.217a5.5 5.5 0 0 0 5.538 7.631l11.983-1.042a70.805 70.805 0 0 1 15.064 47.1c-.986-1.072-57.389-66.893-58.409-67.859 12.036-4.039 24 1.526 29.742 4.953zm-37.359 2.983 246.946 287.215 8.041 16.324c-87.881-80.174-231.887-260.493-260.413-302.014a3.14 3.14 0 0 1 5.426-1.525zm38.948 77.236c-11.592-4.07-27.645-12.162-40.181-27.878-13.861-17.381-14.571-28.889-11.261-37.378 9.269 11.985 27.746 35.706 51.442 65.256z"/></svg>