<?xml version="1.0"?>
<svg xmlns="http://www.w3.org/2000/svg" id="icon" viewBox="0 0 512 512" width="512" height="512"><title>cabin</title><path d="M90.883,436.752a5.573,5.573,0,0,0,0-11.145H89.064a5.573,5.573,0,0,0,0,11.145Z"/><path d="M217.76,141.9l-3.062,2.6a5.573,5.573,0,0,0,7.216,8.5l3.062-2.6a5.573,5.573,0,1,0-7.216-8.494Z"/><path d="M476.857,216.264l-70.564-59.93V112.018a4.113,4.113,0,0,1,4.108-4.108h21.651a4.113,4.113,0,0,1,4.109,4.108v57.888a5.573,5.573,0,0,0,11.145,0V112.018a15.271,15.271,0,0,0-15.254-15.253H410.4a15.27,15.27,0,0,0-15.253,15.253v34.851l-78.713-66.85a19.9,19.9,0,0,0-25.857,0l-53.615,45.56a5.572,5.572,0,1,0,7.217,8.492L297.8,88.515a8.791,8.791,0,0,1,11.425,0L469.642,224.757a9.418,9.418,0,1,1-12.2,14.353l-39.209-33.319A5.392,5.392,0,0,1,416.6,204.4L339.06,138.51a5.593,5.593,0,0,0-.971-.825l-24.274-20.628a15.787,15.787,0,0,0-20.521,0L149.665,239.11a9.418,9.418,0,0,1-12.2-14.353l65.915-56.013a5.572,5.572,0,1,0-7.217-8.492l-65.914,56.013a20.562,20.562,0,0,0,11.65,36.164q.854.069,1.7.069a20.419,20.419,0,0,0,13.281-4.9l7.153-6.078v24.952a20.535,20.535,0,0,0,0,40.558v11.98a5.573,5.573,0,0,0,11.145,0v-11.7h71.249V330.91H167.294a20.549,20.549,0,0,0-3.259,40.841v24.16a20.5,20.5,0,0,0-15,29.7h-14.8V307.3c.969-.008,1.937-.025,2.9-.076a5.572,5.572,0,0,0-.6-11.129q-1.417.076-2.853.075a52.784,52.784,0,0,1-52.725-52.725c0-.548.02-1.091.04-1.633l.01-.266A5.574,5.574,0,0,0,77,236a52.724,52.724,0,0,1,26.076-102.11,5.574,5.574,0,0,0,6.165-2.93,52.717,52.717,0,0,1,92.514-3.014,5.571,5.571,0,0,0,7.76,1.89,52.448,52.448,0,0,1,15.154-6.459,5.573,5.573,0,0,0-2.7-10.814,63.423,63.423,0,0,0-13.6,5.119,64.2,64.2,0,0,0-52.043-26.863,63.547,63.547,0,0,0-55.007,31.419A63.866,63.866,0,0,0,69.842,245.377a63.968,63.968,0,0,0,53.249,61.045v39.235a35.942,35.942,0,0,0-10.915-7.116,24.65,24.65,0,0,1-15.151-21.075l-.584-8.121a5.573,5.573,0,0,0-11.117.8l.585,8.121a35.737,35.737,0,0,0,21.969,30.557,24.706,24.706,0,0,1,15.213,22.85v53.934H110.269a5.573,5.573,0,1,0,0,11.145H474.642a5.573,5.573,0,0,0,0-11.145H459.05a20.53,20.53,0,0,0-18.259-29.98H361.656V372.035h71.249V383.1a5.573,5.573,0,1,0,11.145,0V371.751a20.534,20.534,0,0,0,0-40.557v-24.16a20.535,20.535,0,0,0,0-40.558V242.353l6.177,5.249a20.414,20.414,0,0,0,13.282,4.9q.846,0,1.7-.069a20.562,20.562,0,0,0,11.65-36.165ZM300.511,125.549a4.682,4.682,0,0,1,6.087,0L319.79,136.76H295.766a5.572,5.572,0,0,0,0,11.144h37.139l63.04,53.571h-128.8a5.573,5.573,0,0,0,0,11.145H409.06l.32.272a5.374,5.374,0,0,1,1.638,1.391l20.209,17.173H175.882l22.166-18.836h37.54a5.573,5.573,0,1,0,0-11.145H211.163l27.761-23.59h99.651a5.573,5.573,0,1,0,0-11.145H252.039ZM167.294,296.173a9.418,9.418,0,1,1,0-18.836h2.313a5.573,5.573,0,0,0,5.573-5.572,3.269,3.269,0,0,1,0-1.317V242.6H432.905v23.592H191.526a5.572,5.572,0,0,0,0,11.144h54.9v18.836Zm-9.418,55.3a9.429,9.429,0,0,1,9.418-9.418h79.135V360.89H167.294A9.428,9.428,0,0,1,157.876,351.473Zm0,64.717a9.429,9.429,0,0,1,9.418-9.418h63.047a5.573,5.573,0,0,0,0-11.145H175.18V372.035h71.249v53.572H167.294A9.428,9.428,0,0,1,157.876,416.19Zm99.7-138.853H278v97.445a5.573,5.573,0,0,0,11.145,0V277.337h22.122v25.921a5.572,5.572,0,1,0,11.144,0V277.337h28.1v148.27h-28.1v-98.15a5.572,5.572,0,1,0-11.144,0v98.15H289.143V399.741a5.573,5.573,0,1,0-11.145,0v25.866H257.574ZM440.791,406.772a9.418,9.418,0,1,1,0,18.835H361.656V406.772Zm9.418-120.016a9.428,9.428,0,0,1-9.418,9.417H375.812a5.573,5.573,0,0,0,0,11.145h57.093v27.451a5.554,5.554,0,0,0,.148,1.232c-.014.162-.049.317-.049.481a5.573,5.573,0,0,0,5.573,5.573h2.214a9.418,9.418,0,1,1,0,18.835H361.656V342.055h52.97a5.573,5.573,0,1,0,0-11.145h-52.97V277.337h79.135A9.43,9.43,0,0,1,450.209,286.756Z"/><path d="M333.435,356.5a6.281,6.281,0,0,0,.5.962,6.808,6.808,0,0,0,.7.849,5.6,5.6,0,0,0,.85.683,5.585,5.585,0,0,0,2.006.835,5.474,5.474,0,0,0,5.712-2.367,5.311,5.311,0,0,0,.515-.962,5.6,5.6,0,0,0,.321-1.045,5.7,5.7,0,0,0,.111-1.087,5.613,5.613,0,0,0-1.63-3.942,5.894,5.894,0,0,0-.849-.7,6.537,6.537,0,0,0-.962-.515,5.261,5.261,0,0,0-1.045-.306,5.2,5.2,0,0,0-2.173,0,5.271,5.271,0,0,0-1.044.306,6.537,6.537,0,0,0-.962.515,5.27,5.27,0,0,0-.85.7,6.043,6.043,0,0,0-.7.85,5.24,5.24,0,0,0-.5.962,5.452,5.452,0,0,0-.32,1.03,5.882,5.882,0,0,0-.112,1.1,5.7,5.7,0,0,0,.112,1.087A5.6,5.6,0,0,0,333.435,356.5Z"/></svg>
