<svg id="icons" height="512" viewBox="0 0 500 500" width="512" xmlns="http://www.w3.org/2000/svg"><path d="m424.376 21.6c-21.637-1.315-28.66 13.561-28.948 14.195-4.393 11.817-11.21 20.294-19.563 23.889-7.133 3.112-15.347 2.81-24.41-.9-16.11-7.14-34.338-7.119-49.332 3.185-17.892 12.066-26.484 4.6-29.307 2.146-18.9-16.422-36.794-17.652-48.475-15.8-22.1 3.414-25.331 16.233-38.515 14.809-.819-.24-3.311-.967-5.393-6.221-9.5-23.976 14.986-36.762 16.018-37.287 5.144-2.449 3.211-10.523-2.464-10.418-51.113 0-77.6 24.694-88.835 39.414-7.751 8.942-9.516 25.749-12.11 36.841a32.654 32.654 0 0 1 -7.908 15.326 43.818 43.818 0 0 0 -9.885 17.695c-5.656 20.066-14.278 68.573 27.728 85.564 24.463 9.938 36.214 26.39 42.29 38.906 1.2 25.573-1.443 96.507-2.487 122.993h-10.428a16 16 0 0 0 -15.985 15.985v92.878a16 16 0 0 0 15.985 15.986h79.127a48.833 48.833 0 0 0 28.828-9.345 37.9 37.9 0 0 1 22.375-7.254h100.688a5.5 5.5 0 0 0 5.5-5.5v-66.971a5.5 5.5 0 0 0 -5.5-5.5h-122.8a56.87 56.87 0 0 1 -14.316-17.189c-9.2-16.63-25.568-12.648-41.312-13.082v-57.478a34.73 34.73 0 0 1 4.584-17.231l14.174-24.766c1.736-.1-1.164-30.724-.928-32.144a5.539 5.539 0 0 0 -8.629-4.207l-11.262 7.821-.338-26.308a16.563 16.563 0 0 1 2.615-9.112 27.412 27.412 0 0 0 -4-33.181l-17.294-17.62a5.538 5.538 0 0 0 -8.6.952l-6.744 10.866a25.948 25.948 0 0 0 -3.907 13.963l.437 44.388c-8.085-10.3-20.125-20.826-37.957-28.039-14.37-5.813-22.8-17.094-25.042-33.53-1.9-17.042 1.187-41.491 11.168-52.084a43.661 43.661 0 0 0 10.581-20.492c2.215-8.807 3.824-25.373 10.092-32.448 8.7-11.4 27.765-29.508 63.09-34.036-7.98 9.225-13.473 22.807-6.779 39.7 2.7 6.8 6.914 11.086 12.536 12.728 7.315 2.136 16.333-.612 26.864-8.217.259-.193 26.189-18.949 56 6.949 8.115 7.05 22.105 12.542 42.673-1.33 12.015-8.283 26.2-7.807 39.015-2.124 22.391 9.346 42.952 1.121 54.169-19.886-2.489 18.211-14.666 41.434-41.226 35.718-21.446-3.988-53.846 7.239-64.378 36.033-2.674 9.2 3.479 20.418 17.854 21.678a32.788 32.788 0 0 0 -6.89 11.32c-7.516 24.978-41.781-.371-59.9 15.935-7.5 6.152-11.341 16.365-11.755 31.224-.394 14.209-2.861 29.74-18.168 37.2-6.422 3.3-1.788 12.925 4.818 9.888 36.026-18.632 15.458-54.088 32.082-69.807 4.214-3.457 10.719-4.467 19.336-3 24.9 4.238 38.474-1.3 44.026-17.958 2.567-7.7 12.072-14.246 15.509-16.113a5.5 5.5 0 0 0 -3.483-10.273c-17 2.428-23.483-.239-22.918-6.811 7.769-21.322 33.327-31.749 51.83-28.505 30.506 5.968 49.864-15.423 54.277-45.777 2.418-16.921 10.648-17.249 11.266-17.249a5.5 5.5 0 0 0 .642-10.981zm-266.562 458.194h-25.462a4.991 4.991 0 0 1 -4.985-4.986v-12.476h30.447c11.508.301 11.515 17.161 0 17.462zm-30.447-28.462v-17.463h41.863a8.732 8.732 0 0 1 0 17.463zm76.877-74.387a13.919 13.919 0 0 1 12.314 7.286 68.276 68.276 0 0 0 14.242 18.135l10.405 4.85h116.665v55.984h-95.188a47.883 47.883 0 0 0 -28.517 9.117 37.91 37.91 0 0 1 -22.686 7.482h-36a19.752 19.752 0 0 0 -.448-18.336c14.264-4.122 18.765-23.341 7.6-33.3a26.583 26.583 0 0 0 11.111-11.374 34.75 34.75 0 0 0 17.449 10.87 5.334 5.334 0 0 0 6.613-5.854l-.049-.379a5.411 5.411 0 0 0 -4.013-4.484c-12.2-3.318-16.9-15.321-17.112-15.884-1.974-5.59-10.548-4.2-10.658 1.725.116 10.418-7.094 16.972-15.9 18.259v-31.974a11.987 11.987 0 0 1 11.828-12.123zm-47.584-94.045c.879-2.534-3.5-115.371 1.214-113.562l3.052-4.916 12.388 12.622a16.4 16.4 0 0 1 2.391 19.852 27.5 27.5 0 0 0 -4.159 14.877l.47 36.66a5.538 5.538 0 0 0 8.637 4.447l11.693-8.119 1 17.658-13.371 23.351a45.751 45.751 0 0 0 -6.038 22.7v57.478h-20.151c.003-.248 2.883-82.822 2.874-83.048zm5.816 94.045a23.2 23.2 0 0 0 -3.4 12.123v33.8h-31.71v-17.461h16.207a5.5 5.5 0 0 0 0-11h-16.206v-12.477a4.99 4.99 0 0 1 4.985-4.985zm25.23-235.111a16.07 16.07 0 0 1 -9.531-3.125l-7.105-5.24a15.94 15.94 0 0 1 -6.445-14.249 52.586 52.586 0 0 1 3.909-14.9 15.865 15.865 0 0 1 11.922-9.588 21.292 21.292 0 0 1 18.824 6.678 23.9 23.9 0 0 1 5.72 21.69c-.629 2.785-1.359 5.428-2.169 7.856a15.762 15.762 0 0 1 -10.3 10.135 15.987 15.987 0 0 1 -4.825.743zm-4.014-36.361a9.436 9.436 0 0 0 -1.5.12 4.8 4.8 0 0 0 -3.521 2.985 41.5 41.5 0 0 0 -3.1 11.694 4.89 4.89 0 0 0 2.026 4.344l7.1 5.241a4.985 4.985 0 0 0 4.506.746 4.87 4.87 0 0 0 3.189-3.129c.695-2.083 1.326-4.37 1.874-6.8a12.747 12.747 0 0 0 -3.012-11.736 10.4 10.4 0 0 0 -7.562-3.465zm48.94 47.727a18.457 18.457 0 0 1 -14.418-6.923 13.281 13.281 0 0 1 -.065-16.581l11.764-14.943a5.5 5.5 0 0 1 7.018-1.392c9.083 5.109 13.069 13.407 14.814 19.469a14.5 14.5 0 0 1 -8.027 17.178l-3.6 1.6a18.4 18.4 0 0 1 -7.486 1.592zm2.656-27.492-8.5 10.792a2.327 2.327 0 0 0 .011 2.9 7.454 7.454 0 0 0 8.843 2.155l3.6-1.6a3.45 3.45 0 0 0 1.924-4.084 22.109 22.109 0 0 0 -5.878-10.159zm-18.943 50.57a5.5 5.5 0 0 1 -2.545-10.378l5.008-2.6a5.5 5.5 0 1 1 5.074 9.76l-5.008 2.6a5.464 5.464 0 0 1 -2.529.622z"/></svg>