<?xml version="1.0"?>
<svg xmlns="http://www.w3.org/2000/svg" id="icon" viewBox="0 0 512 512" width="512" height="512"><title>climbing</title><path d="M160.886,141.718a5.573,5.573,0,0,0-3.9,6.85l33.9,123.441c.006.019.015.035.02.054s0,.027.008.04l18.4,62.667a5.572,5.572,0,1,0,10.693-3.14l-18.375-62.591-33.9-123.423A5.577,5.577,0,0,0,160.886,141.718Z"/><path d="M158.282,111.2a5.573,5.573,0,1,0-10.747,2.952l1.375,5.005a5.573,5.573,0,0,0,10.748-2.952Z"/><path d="M297.09,338.238a48.9,48.9,0,0,0-21.338-26.654l-41.617-24.893a5.573,5.573,0,1,0-5.722,9.564l41.618,24.893a37.759,37.759,0,0,1,16.475,20.58l43.269,131.234H256.482l-8.254-34.912a28.356,28.356,0,0,1-.167-12.208l5.531-26.625a32.132,32.132,0,0,0-15.559-34.526l-11.944-6.826a5.572,5.572,0,0,0-5.529,9.676l11.944,6.825a21.024,21.024,0,0,1,10.178,22.584l-5.532,26.624a39.554,39.554,0,0,0,.232,17.039l7.649,32.349H145.5l-4.136-15.391a5.573,5.573,0,1,0-10.764,2.892l3.358,12.5H64.136V39.037h62.77l13.165,47.936a5.573,5.573,0,0,0,10.748-2.952l-14.29-52.033a5.576,5.576,0,0,0-5.374-4.1H58.563a5.573,5.573,0,0,0-5.572,5.573V478.534a5.573,5.573,0,0,0,5.572,5.573H337.48a5.574,5.574,0,0,0,5.292-7.318Z"/><path d="M139.764,278.138a5.586,5.586,0,0,0,0,3.279l12.712,41.312a5.573,5.573,0,1,0,10.653-3.279l-12.208-39.672,5.968-19.4a34.433,34.433,0,0,0-13.355-38.571l-.187-.131a39.04,39.04,0,0,1-15.427-21.805,5.573,5.573,0,0,0-10.753,2.933A50.217,50.217,0,0,0,137,230.839l.186.131a23.33,23.33,0,0,1,9.053,26.134Z"/><path d="M113.042,177.385a5.575,5.575,0,0,0,5.379-7.039l-2.337-8.572a5.573,5.573,0,1,0-10.753,2.93l2.337,8.572A5.576,5.576,0,0,0,113.042,177.385Z"/><path d="M100.917,350.013l19.366,72.052a5.573,5.573,0,1,0,10.764-2.892L111.681,347.12a5.573,5.573,0,0,0-10.764,2.893Z"/><path d="M336.917,152.512c-.576-3.038-1.2-10.446,4.655-16.191a25.553,25.553,0,0,0,5.255-28.605l-9.191-20.5a5.574,5.574,0,0,0-7.369-2.8c-.433.194-43.75,19.725-76.126,40.272a5.573,5.573,0,0,0-2.012,7.17l.689,1.4-15.275,7.679a28.593,28.593,0,0,0-15.5,29.368c2.684,19.851,6.514,57.519,2,86.752a5.572,5.572,0,0,0,10.21,3.838,171.562,171.562,0,0,0,10.827-20.929l.2.1a5.572,5.572,0,1,0,4.87-10.023l-.832-.405q.968-2.547,1.914-5.248l1.476.514a5.572,5.572,0,1,0,3.665-10.524l-1.767-.616q.585-2.04,1.138-4.138l.95.264a5.636,5.636,0,0,0,1.494.2,5.573,5.573,0,0,0,1.488-10.943l-1.436-.4c.362-1.844.69-3.718.994-5.609l1.627.288a5.509,5.509,0,0,0,.977.087,5.573,5.573,0,0,0,.964-11.06l-1.276-.226a17.472,17.472,0,0,1,1.31-2.453,5.572,5.572,0,1,0-9.319-6.111,29.021,29.021,0,0,0-4.462,12.013v.01c-.012.094-.031.188-.043.282a175.275,175.275,0,0,1-11.777,43.827c.3-23.257-2.214-46.65-4.153-60.986a17.445,17.445,0,0,1,9.465-17.916l15.2-7.643,10.713,21.724a24.6,24.6,0,0,0,25.559,13.509l8.144-1.15a5.573,5.573,0,0,0-1.56-11.036l-8.143,1.15a13.462,13.462,0,0,1-14-7.4l-14.1-28.6c24.483-15.042,53.82-29.125,65.414-34.536l6.888,15.367a14.362,14.362,0,0,1-2.89,16.09c-12.379,12.147-7.361,28.239-7.141,28.918a5.584,5.584,0,0,0,1.671,2.511c108.427,93.155,119.737,192.148,119.565,230.385a6.043,6.043,0,0,1-8.99,5.258l-36.15-20.161a6.94,6.94,0,0,1-2.14-10.264l7.273-9.544a18.277,18.277,0,0,0,3.68-11.824c-1.238-29.575-9.324-58.285-24.052-85.624l6.244-3.913a5.573,5.573,0,0,0-5.918-9.444l-5.869,3.678c-2.057-3.408-4.193-6.8-6.461-10.161a273.753,273.753,0,0,0-54.914-59.236,5.573,5.573,0,0,0-6.971,8.7C338.561,207.658,397,262.979,400.4,344.111a7.12,7.12,0,0,1-1.412,4.6l-7.272,9.543a18.082,18.082,0,0,0,5.577,26.751l36.15,20.161a17.187,17.187,0,0,0,25.563-14.942C459.184,350.6,447.615,248.36,336.917,152.512Z"/><path d="M295.767,134.065a5.572,5.572,0,0,0-4.343-10.263,18.316,18.316,0,1,0,24.586,11.285,5.572,5.572,0,1,0-10.614,3.4,7.18,7.18,0,1,1-9.629-4.42Z"/></svg>
