<svg id="icons" height="512" viewBox="0 0 500 500" width="512" xmlns="http://www.w3.org/2000/svg"><path d="m42.25 322.832c12.2 17.769 30.4 25.3 51.429 31.278 6.951 1.764 9.85-8.6 2.855-10.623-18.494-5.378-34.461-11.342-45.21-26.873-10.578-15.439-17.607-34.448-21.642-47.676a5.5 5.5 0 1 0 -10.521 3.209c4.259 13.965 11.722 34.094 23.089 50.685z"/><path d="m55.7 398.205a35.815 35.815 0 0 1 12.941-11.633c14.035-7.32 34.257-14.142 50.17-18.939-19.867 15.572-35.344 38.162-39.3 63.5-3.691 21.348-9.411 36.731-16.111 43.31a5.5 5.5 0 1 0 7.706 7.85c27.933-32.049 6.19-69.12 55.91-107.142-2.554 7.494-3.8 16.642-3.8 27.573-.14 14.67 6.838 26.259 18.951 32.472v21.804c-.541 13.806 16.947 23.93 27.89 14.844 10.943 9.084 28.427-1.037 27.889-14.844v-21.8c12.112-6.221 19.09-17.8 18.951-32.476 0-11.806-1.442-21.544-4.429-29.349 52.957 39.469 29.41 75.4 58.154 108.918 5.227 4.96 12.791-2.678 7.706-7.85-27.4-36.688-.725-68.015-65.283-114.363 32.02-2.752 52.931-10.99 65.375-17.97 24.435-12.733 37.461-48.84 44.144-69.964a5.5 5.5 0 0 0 -10.521-3.208c-4.033 13.226-11.062 32.234-21.642 47.676-13.977 19.442-37.08 26.672-69.977 31.635 19.974-11.441 46.318-28.593 48.883-54.761l8.637-67.369a5.5 5.5 0 1 0 -10.91-1.4l-8.634 67.37c-1.932 18.338-17.728 30.1-31.965 39.658 14.48-43.474-17.258-104.373-52.1-122.126v-186.462a5.5 5.5 0 1 0 -11 0v186.462c-35.335 19.118-63.478 73.04-53.486 118.406-12.422-8.876-24.884-19.888-26.52-35.937l-9-70.2a5.5 5.5 0 1 0 -10.911 1.4l9 70.2c2.88 29.7 35.936 47.238 57.182 59.561-16.307 4.494-46.377 13.509-66.047 23.769a46.851 46.851 0 0 0 -16.949 15.2c-7.447 10.941-21.989 31.27-35.714 44.488a5.5 5.5 0 0 0 7.631 7.923c14.439-13.91 29.49-34.931 37.179-46.226zm108.857 61.995a4.1 4.1 0 0 1 -4.1 4.095 7.3 7.3 0 0 1 -7.29-7.295v-17.689a64.921 64.921 0 0 0 11.39 1.767zm11 0v-19.124a65.005 65.005 0 0 0 11.389-1.768v17.692c.508 6.372-10.368 11.07-11.389 3.2zm23.252-38.943c-13.078 12.141-44.386 12.164-57.5 0-4.77-4.538-7.088-10.6-7.088-18.532 0-35.892 13.714-43.1 35.841-43.1s35.84 7.211 35.84 43.1c-.002 7.932-2.323 13.993-7.093 18.531zm-80.223-108.218c0-39.233 20.985-78.187 50.245-93.892 29.26 15.705 50.245 54.659 50.245 93.892.195 17.451-11.088 30.629-31.132 37.791l-.265-.072c22.761-27.276 9.223-75.853-4.138-97.767-3.765-6.151-13.033-.717-9.476 5.582.338.577 33 57.23.837 90.193a82.17 82.17 0 0 0 -8.976-.037c-29.58-18.012-18.589-57.9-18.089-59.653a5.5 5.5 0 0 0 -10.567-3.056 86.671 86.671 0 0 0 -2.538 27.664c1.071 14.715 6.208 26.934 15 36.058-2.723-1.106-8.942-3.746-16.623-7.692-9.648-7.375-14.523-17.083-14.523-29.011z"/><path d="m323.2 444.427c5.257 4.909 12.772-2.8 7.631-7.923-13.732-13.224-28.269-33.549-35.713-44.488-11.889-17.237-31.65-21.833-54.447-30.312-6.867-2.16-10.317 8.025-3.471 10.438 15.045 5 27.118 9.859 35.883 14.43a35.833 35.833 0 0 1 12.941 11.633c7.688 11.295 22.735 32.309 37.176 46.222z"/><path d="m253.658 16.18c-7.229.123-7.229 10.877 0 11h22.566c33.121 25.866 55.994 66.581 50.813 131.488l-35.214 32.138a5.5 5.5 0 0 0 7.416 8.125l34.827-31.786c53.084 12.355 102.705 43.174 145.728 113.713v105.747a5.5 5.5 0 0 0 11 0v-364.925a5.534 5.534 0 0 0 -5.172-5.484c-.386-.283-231.575.169-231.964-.016zm59.91 34.882a135.525 135.525 0 0 0 -20.068-23.882h51.348c7.375 6.861 40.442 40.16 36.473 81.949l-42.544 38.829c1.723-45.634-12.384-77.575-25.209-96.896zm166.226 103.713c-16.928-25.924-41.977-38.01-61.884-43.63a5.5 5.5 0 1 0 -2.988 10.586c22.075 6.233 51.152 21.238 64.872 57.275v81.133c-30.722-45.986-66.211-71.4-91.748-84.9a197.283 197.283 0 0 0 -44-17.2l93.208-85.067c7.232.509 32.117 3.82 42.545 25.07zm0-75.4c-10.011-9.907-22.669-14.2-31.952-16.067l31.952-29.161zm-87.194 19.456c-1.161-32.431-20.178-58.351-32.274-71.651h53.123a44.028 44.028 0 0 1 14 19.245 5.5 5.5 0 1 0 10.326-3.793 54.526 54.526 0 0 0 -8.807-15.452h42.139z"/><path d="m145.122 394.918c-7.507.128-7.506 11.3 0 11.423 7.508-.128 7.507-11.296 0-11.423z"/><path d="m159.4 408.982c-7.508.128-7.507 11.3 0 11.423 7.507-.128 7.505-11.296 0-11.423z"/><path d="m188.119 400.629c.128 7.508 11.3 7.507 11.424 0-.128-7.508-11.297-7.507-11.424 0z"/><path d="m182.408 408.982c-7.508.128-7.507 11.3 0 11.423 7.508-.128 7.507-11.296 0-11.423z"/></svg>