<?xml version="1.0"?>
<svg xmlns="http://www.w3.org/2000/svg" id="icon" viewBox="0 0 512 512" width="512" height="512"><title>dive</title><path d="M326.973,453.936a47.879,47.879,0,0,0-15.485-2.35c-15.671,0-23.818,5.865-31,11.04-6.662,4.8-12.415,8.94-24.492,8.94s-17.832-4.143-24.494-8.94c-7.186-5.175-15.332-11.04-31-11.04s-23.817,5.865-31,11.04c-6.662,4.8-12.416,8.94-24.492,8.94s-17.829-4.143-24.49-8.94c-7.187-5.175-15.334-11.04-31-11.04a5.573,5.573,0,1,0,0,11.145c12.077,0,17.83,4.143,24.492,8.94,7.186,5.175,15.331,11.04,31,11.04s23.817-5.865,31-11.04c6.662-4.8,12.416-8.94,24.492-8.94s17.831,4.143,24.493,8.94c7.186,5.175,15.332,11.04,31,11.04s23.817-5.865,31-11.04c6.663-4.8,12.416-8.94,24.493-8.94a36.95,36.95,0,0,1,11.928,1.767,5.572,5.572,0,1,0,3.557-10.562Z"/><path d="M422.5,451.586c-15.674,0-23.82,5.865-31.008,11.04-6.663,4.8-12.418,8.94-24.5,8.94a37.381,37.381,0,0,1-11.373-1.586,5.572,5.572,0,1,0-3.355,10.628,48.319,48.319,0,0,0,14.728,2.1c15.674,0,23.82-5.865,31.008-11.04,6.663-4.8,12.418-8.94,24.5-8.94a5.573,5.573,0,0,0,0-11.145Z"/><path d="M422.5,345.847c-15.672,0-23.82,5.865-31.008,11.039-6.663,4.8-12.416,8.939-24.5,8.939A34.3,34.3,0,0,1,351.1,362.4a5.573,5.573,0,0,0-4.985,9.97,45.038,45.038,0,0,0,20.879,4.6c15.672,0,23.82-5.865,31.008-11.039,6.663-4.8,12.416-8.939,24.5-8.939a5.573,5.573,0,0,0,0-11.145Z"/><path d="M120.507,356.887c-7.185-5.175-15.332-11.04-31-11.04a5.573,5.573,0,1,0,0,11.145c12.077,0,17.83,4.142,24.492,8.939,7.186,5.174,15.331,11.039,31,11.039a44.852,44.852,0,0,0,22.737-5.583,5.573,5.573,0,0,0-5.431-9.733c-3.48,1.943-8.593,4.171-17.306,4.171C132.923,365.825,127.17,361.683,120.507,356.887Z"/><path d="M239.285,296.283a5.573,5.573,0,1,0-11.145,0V300.4a14.5,14.5,0,0,1-5.742,11.519l-9.691,7.306a84.584,84.584,0,0,0-33.482,61.752,5.572,5.572,0,0,0,5.175,5.943c.131.009.26.014.389.014a5.572,5.572,0,0,0,5.554-5.189,73.445,73.445,0,0,1,29.074-53.62l9.691-7.307A25.705,25.705,0,0,0,239.285,300.4Z"/><path d="M155.433,96.7A17.117,17.117,0,0,0,171.3,108.353c1.953.051,3.729.182,5.32.356a51.67,51.67,0,0,0-4.565,6.649,20.161,20.161,0,0,0,17.393,30.327h2.586c0,.019,0,.038,0,.057v3.8a26.059,26.059,0,0,0-13.007,22.523v17.249a26.06,26.06,0,0,0,26.03,26.031h18.6a19.407,19.407,0,0,0,15.433-7.5c3.6-4.631,9.461-10.151,16.912-10.151s13.309,5.52,16.912,10.152a19.409,19.409,0,0,0,15.433,7.5h18.6a26.06,26.06,0,0,0,26.03-26.031V172.066a26.059,26.059,0,0,0-26.03-26.03H220.8a5.573,5.573,0,0,0,0,11.145h86.146a14.9,14.9,0,0,1,14.885,14.885v17.249A14.9,14.9,0,0,1,306.945,204.2h-18.6a8.444,8.444,0,0,1-6.636-3.2c-7.25-9.319-16.38-14.452-25.709-14.452s-18.459,5.133-25.709,14.45a8.44,8.44,0,0,1-6.636,3.2h-18.6a14.9,14.9,0,0,1-14.885-14.886V172.066a14.908,14.908,0,0,1,9.98-14.061,5.491,5.491,0,0,0,3.027-7.95v-4.313a19.275,19.275,0,0,1,19.252-19.253h67.142a5.573,5.573,0,0,0,0-11.145H222.429a30.44,30.44,0,0,0-28.249,19.2h-4.732a8.884,8.884,0,0,1-7.785-4.5,8.978,8.978,0,0,1,.03-9.088,33.565,33.565,0,0,1,9.584-10.889,5.571,5.571,0,0,0-1.088-9.734c-.707-.287-7.242-2.818-18.591-3.123a6,6,0,0,1-5.621-4.127,5.654,5.654,0,0,1,1.8-6.355c9.468-7.764,21.57-11.7,35.968-11.7a5.572,5.572,0,0,0,5.38-7.02,32.68,32.68,0,0,0-5-9.842,2.817,2.817,0,0,1-.312-2.88,2.594,2.594,0,0,1,2.215-1.545c19.849-1.731,57.228-1.376,84.588,20.514a5.572,5.572,0,0,0,6.963-8.7c-30.394-24.316-71.011-24.8-92.521-22.914a13.668,13.668,0,0,0-11.38,8.012,13.856,13.856,0,0,0,1.165,13.69c-13.231,1.4-24.684,6.018-34.138,13.771A16.792,16.792,0,0,0,155.433,96.7Z"/><path d="M303.634,262.969H308.8a42.2,42.2,0,0,0,42.149-42.148V47.035A17.766,17.766,0,0,0,333.2,29.289h-6.516A17.767,17.767,0,0,0,308.94,47.035v86.081a5.573,5.573,0,0,0,11.145,0V47.035a6.609,6.609,0,0,1,6.6-6.6H333.2a6.61,6.61,0,0,1,6.6,6.6V220.821a31.038,31.038,0,0,1-31,31h-40.7a9.858,9.858,0,0,1,0-19.716h40.1a5.573,5.573,0,0,0,0-11.145h-40.1a21,21,0,0,0,0,42.006h18.752a51.151,51.151,0,0,1-29.292,9.2h-3.108a51.008,51.008,0,0,1-50.628-43.132,5.573,5.573,0,1,0-11.006,1.755,62.1,62.1,0,0,0,61.634,52.522h3.108a62.52,62.52,0,0,0,15.161-1.884V300.4a25.709,25.709,0,0,0,10.177,20.419l9.691,7.306a73.587,73.587,0,0,1,28.968,52.263,5.571,5.571,0,0,0,5.544,5.087c.163,0,.328-.007.492-.022a5.571,5.571,0,0,0,5.066-6.036,84.751,84.751,0,0,0-33.36-60.192l-9.691-7.305a14.5,14.5,0,0,1-5.743-11.52V277.507A62.375,62.375,0,0,0,303.634,262.969Z"/><path d="M422.5,398.716c-15.674,0-23.82,5.865-31.008,11.04-6.663,4.8-12.418,8.94-24.5,8.94s-17.833-4.143-24.5-8.94c-7.187-5.175-15.333-11.04-31.007-11.04s-23.818,5.866-31,11.041c-1.758,1.266-3.418,2.461-5.17,3.566a5.573,5.573,0,1,0,5.951,9.425c2.038-1.287,3.915-2.639,5.731-3.948,6.663-4.8,12.416-8.939,24.493-8.939s17.833,4.142,24.5,8.939c7.188,5.175,15.334,11.041,31.008,11.041S390.812,423.975,398,418.8c6.663-4.8,12.418-8.939,24.5-8.939a5.573,5.573,0,0,0,0-11.145Z"/><path d="M237.117,426.181a41.43,41.43,0,0,0,7.946,2.563,5.573,5.573,0,0,0,2.354-10.9,30.251,30.251,0,0,1-5.833-1.88,5.573,5.573,0,0,0-4.467,10.212Z"/><path d="M89.5,409.861c12.077,0,17.83,4.142,24.492,8.939,7.186,5.175,15.331,11.041,31,11.041s23.817-5.866,31-11.041c6.662-4.8,12.416-8.939,24.492-8.939a34.9,34.9,0,0,1,14.265,2.665A5.573,5.573,0,1,0,219.18,402.3a46.256,46.256,0,0,0-18.686-3.579c-15.671,0-23.817,5.865-31,11.04-6.662,4.8-12.416,8.94-24.492,8.94s-17.829-4.143-24.49-8.94c-7.187-5.175-15.334-11.04-31-11.04a5.573,5.573,0,1,0,0,11.145Z"/></svg>
