<svg id="icons" height="512" viewBox="0 0 500 500" width="512" xmlns="http://www.w3.org/2000/svg"><path d="m14.706 492.036 470.618-2.484c6.951-.127 7.437-10.786-.03-11 .007 0-211.157 1.115-211.163 1.114 27.138-11.91 60.867-11.174 90.02-10.785a5.5 5.5 0 0 0 0-11c-54.468-.909-69.647.381-120.262 21.946l-229.211 1.21a5.5 5.5 0 0 0 .029 11z"/><path d="m35.638 330.093c18.571 12.754 44.647 8.237 53.27 6.246 31.938 25.038 74.086 27 86.49 27 4.7.227 7.8-.406 8.712-4.9a5.5 5.5 0 0 0 -3.91-5.939c-21.89-5.883-39.551-19.851-37.858-44.2 2.181-31.648-15.1-46.964-44.689-43.623-1.832-32.486-43.9-47.5-65.63-22.7-20.05 19.879-22.752 70.987 3.615 88.116zm4.541-80.73c17.5-18.921 48.172-5.5 46.488 20.2-.976 3.979 2.605 8.053 6.709 6.952 5.816-1.612 32.793-4.911 36.625 14.847a52.8 52.8 0 0 1 1.371 16.135 49.264 49.264 0 0 0 18.3 42.439c-17.048-2.944-38.637-9.469-55.936-23.836a5.513 5.513 0 0 0 -5.036-1.05c-15.2 4.291-58.454 8.9-60.874-32.054-1.55-18.19 2.608-32.87 12.353-43.633z"/><path d="m417.294 241.485c-18.117-3.8-39.274 2.373-44.037 24.813a62.889 62.889 0 0 0 4.3 41.881c11.735 23.621-7.249 47.8-24.619 60.489-4.688 3.107-1.76 10.81 3.822 9.979 1.614-.2 39.874-5.387 69.5-38.047a94.973 94.973 0 0 1 19-15.991c17-10.938 45.531-36.572 45.531-85.362 0-23.9-5.855-39.553-17.4-46.528-31.365-15.274-58.84 17.422-56.097 48.766zm50.457-39.324c7.879 4.8 12.043 17.623 12.043 37.086 0 43.566-25.363 66.386-40.483 76.111a105.971 105.971 0 0 0 -21.2 17.851 112.175 112.175 0 0 1 -41.951 28.591c14.368-16.081 21.252-38.028 11.347-58.3-6.932-13.977-8.512-40.517 6.5-49.149 7.027-4.116 18.69-3 25.125-1.2 1.653 5.419 6.048 15.753 16.329 20.2a5.5 5.5 0 1 0 4.37-10.094c-8.385-3.63-10.667-15.114-10.734-15.462-5.96-37.002 21.557-54.565 38.654-45.634z"/><path d="m292.8 360.765a5.5 5.5 0 0 0 .823 10.938c34.163-4.686 61.292-23.675 64.388-45 2.1-13.909-6.091-26.437-22.472-34.373-6.573-3.029-11.244 6.629-4.8 9.9 38.191 19.757 4.513 52.405-37.939 58.535z"/><path d="m15.276 429.912a5.5 5.5 0 0 0 -1.141 10.941c.973.1 14.793 1.5 35.086 1.5 26.889-.528 65.778-.174 91.258-17.526 22.989-14.448 33.91-15.758 61.116-15.462 2.51 11.938 12.835 21.187 24.774 21.187h41.9a25.394 25.394 0 0 0 25.22-22.714c42.874-1.716 147.813-.243 191.81.665a5.5 5.5 0 0 0 .08-11c-58.214-1.419-162.692-2.072-220.094-.2v-46.57c29.8-2.492 56.359-10.747 56.359-25.663 0-8.491-8.294-15.256-24.652-20.108-6.971-1.935-10.021 8.371-3.127 10.546 13.7 4.062 16.779 8.373 16.779 9.562 1.133 4.5-25.943 16.281-66.981 15.456v-16.569c9.476.7 8.7-12.449-.652-11l-5.245-61.771v-2.1h10.951l5.568 60.241v16.622a5.5 5.5 0 0 0 11 0v-16.866c0-.169-.008-.338-.023-.507l-1.945-21.037a136.591 136.591 0 0 1 18.22 3.209 5.5 5.5 0 1 0 2.729-10.656 148.908 148.908 0 0 0 -21.982-3.724l-2.524-27.268h49.064c14.422.364 24.435-16.111 17.671-28.723a19.851 19.851 0 0 0 16.781-14.167h46.66c14.423.364 24.436-16.11 17.672-28.723 13.3-1.121 21.816-16.838 15.409-28.644 22.724-3.41 22.708-35.851 0-39.252 6.805-12.617-3.2-29.135-17.648-28.77h-42.977c6.36-10.274 5.022-22.984 4.935-23.737a5.5 5.5 0 0 0 -5.464-4.872h-60.5a55.323 55.323 0 0 0 -34.119 11.836c-5.584 4.565 1.044 13.024 6.813 8.637a44.274 44.274 0 0 1 27.306-9.473h55.082c-.349 5.472-2.225 14.005-10.049 17.6h-29.196a5.549 5.549 0 0 0 -5.359 6.738 39.4 39.4 0 0 1 -.941 18.45c-2.081 6.89 8.131 10.223 10.478 3.345a48.9 48.9 0 0 0 2.052-17.534c15.707 0 65.448.009 81.938.006a8.8 8.8 0 0 1 .058 17.594c-.029.011-58.656-.014-58.7 0 .735-7.819-10.635-8.739-11-.9v18.889a19.67 19.67 0 0 0 -11.475-3.694h-42.972c6.361-10.274 5.022-22.984 4.935-23.737a5.5 5.5 0 0 0 -5.464-4.869h-22.675v-81.636a5.5 5.5 0 1 0 -11 0v81.636h-9.312v-81.636a5.5 5.5 0 1 0 -11 0v81.636h-6.512c-.85 0-1.7.029-2.541.068h-139.01a5.5 5.5 0 0 0 0 11h108.445c-5.474 3.813-11.866 11.84-16.351 16.865a44.091 44.091 0 0 1 -33.154 15.025h-58.94c-7.193.154-7.3 10.812 0 11h58.94a55.1 55.1 0 0 0 41.426-18.773c10.8-13.211 20.714-23.1 38.756-24.116 7.5-.051 49.161-.092 57.51-.069-.349 5.476-2.226 14.015-10.061 17.609h-28.36c-7.222.144-7.243 10.86 0 11h87.346a8.8 8.8 0 1 1 0 17.6h-64.475c-7.229.134-7.232 10.87 0 11h79.5a8.8 8.8 0 1 1 0 17.6h-79.5a5.5 5.5 0 1 0 0 11h64.475a8.8 8.8 0 1 1 0 17.6h-64.475c-7.242.171-7.259 10.822 0 11h49.042a8.8 8.8 0 0 1 0 17.6h-196.18a5.5 5.5 0 0 0 0 11h114.119c-.3.892 1.959 25.058 2.044 26.63-77.2 3.842-73.657 45.873 3.853 48.067v16.394c-4.5-.249-8.907-.625-13.174-1.139a5.5 5.5 0 0 0 -1.316 10.921c4.693.565 9.542.966 14.49 1.227v46.639l-88.923 1.477-128.876-3.642a5.5 5.5 0 0 0 -.31 11l128.935 3.647c-13.634 8.344-27.627 16.178-43.527 17.851a409.751 409.751 0 0 1 -84.683 1.731zm250.006-21.6 17.062-.283c-1.678 8.08-8.953 12.31-17.062 11.528zm-21.622-56.78c.586 0 1.164.025 1.752.025 2.946 0 5.91-.054 8.87-.162v68.16h-10.622zm103.072-231.125h58.522c.131 0 15.009.012 15.143.006 11.6.3 11.605 17.293 0 17.6-9.779 0-62.753-.007-73.665-.006zm0 33.365v-4.772c.117.006 58.531-.011 58.637.006a8.8 8.8 0 0 1 0 17.6h-15.316c-.141.032-31.609-.036-31.751-.006a19.876 19.876 0 0 0 -11.57-12.828zm11.568 23.828c.131.01 31.517-.014 31.634.006 11.6.3 11.6 17.293 0 17.6h-46.661a19.621 19.621 0 0 0 -1.369-3.477 19.856 19.856 0 0 0 16.396-14.129zm-174.733 122.064c0-2.615 13.949-11.16 46.17-12.977l2.214 26.07c-14.551-.528-43.292-4.457-48.384-13.093zm49.093 109.188v10.7h-6.291c-5.821 0-11.239-4.508-13.387-10.376z"/><path d="m136.205 454.492c-31.085-2.579-69.778-2.582-121.77-.012a5.5 5.5 0 0 0 .543 10.987c51.805-2.571 89.811-2.525 120.779.007 6.886-.069 7.398-10.319.448-10.982z"/><path d="m173.159 447.6a5.492 5.492 0 0 0 5.816 5.164c.808-.047 81.946-4.779 179.293-3.744a207.43 207.43 0 0 1 42.481 4.861c22.763 5.25 48.517 11.156 71.912 10.638h11.129c7.18-.159 7.316-10.8 0-11h-11.129c-22.476.522-47.639-5.35-69.538-10.38a218.56 218.56 0 0 0 -44.738-5.118c-97.748-1.042-179.25 3.715-180.062 3.763a5.5 5.5 0 0 0 -5.164 5.816z"/><path d="m365.173 428.044c33.809 1.781 58.248 3.6 86.417 2.5a5.5 5.5 0 1 0 -.526-10.987c-30.854 1.545-84.367-2.8-123.536-4.54a5.5 5.5 0 0 0 -.521 10.987c13.049.624 25.818 1.343 38.166 2.04z"/></svg>