<?xml version="1.0"?>
<svg xmlns="http://www.w3.org/2000/svg" id="icon" viewBox="0 0 512 512" width="512" height="512"><title>fishing</title><path d="M58.617,485.1q.414,0,.83-.012l5.435-.155a28.05,28.05,0,0,0,27.274-28.868c-.327-10.361-.461-20.763-.4-30.916a5.573,5.573,0,0,0-5.537-5.607h-.036a5.573,5.573,0,0,0-5.572,5.538c-.064,10.292.072,20.836.4,31.337a16.68,16.68,0,0,1-4.57,12.042A16.871,16.871,0,0,1,64.564,473.8l-5.434.155a16.939,16.939,0,0,1-17.414-17.5C44,387.156,64.01,152.226,225.546,38.566a2.764,2.764,0,0,1,3.777.6,2.707,2.707,0,0,1-.459,3.754c-25.47,20.37-110.772,100.1-139.075,270.761a5.573,5.573,0,0,0,11,1.823c27.654-166.755,110.353-244.135,135.04-263.88a13.883,13.883,0,0,0-16.691-22.171c-70.756,49.786-123,126.758-155.278,228.779-25.987,82.133-32,159.216-33.279,197.855A28.088,28.088,0,0,0,58.617,485.1Z"/><path d="M435.612,387.836a5.571,5.571,0,0,0,6.015,5.091A48.168,48.168,0,0,1,462,395.677,84.831,84.831,0,0,0,416.1,454.821q-.169.829-.32,1.626c-12.618-18.69-7.358-36.269-7.1-37.1a5.573,5.573,0,0,0-6.217-7.216c-15.68,2.614-29.8-.268-38.883-3.144C351,405,340.759,396.843,334.755,386.024c-4.758-8.575-6.68-18.533-5.712-29.6a24.461,24.461,0,0,1,17.392-21.2,50.276,50.276,0,0,1,27.185-.576c11.971,3.129,22.411,11.023,29.4,22.227,5.041,8.085,11.337,21.048,12.7,36.885a5.572,5.572,0,1,0,11.1-.953c-1.55-18.045-8.657-32.707-14.345-41.83-8.5-13.63-21.3-23.258-36.035-27.112a61.271,61.271,0,0,0-33.134.663,35.683,35.683,0,0,0-25.365,30.921c-1.164,13.316,1.214,25.419,7.07,35.973,7.391,13.321,19.895,23.327,35.21,28.177a97.789,97.789,0,0,0,36.317,4.443c-1.113,10.942.182,31.12,19.359,49.734a5.576,5.576,0,0,0,9.454-3.915,77.956,77.956,0,0,1,1.669-12.813,73.511,73.511,0,0,1,48.327-54.823c1.236-.417,1.972-.629,2.033-.647a5.572,5.572,0,0,0,1.4-10.115c-12.228-7.488-25.043-10.732-38.074-9.652A5.573,5.573,0,0,0,435.612,387.836Z"/><path d="M431.863,108.774q-.252,2.085-.589,4.14c-4.49,27.471-20.5,52.779-43.913,69.433a175.636,175.636,0,0,1-68.751,29.859c-38.358,7.413-55.334,33.436-58.431,55.317-3.5,24.7,8.707,48.042,31.088,59.47a5.572,5.572,0,0,0,5.068-9.926,46.062,46.062,0,0,1-25.122-47.982c2.559-18.076,16.909-39.636,49.512-45.936A186.733,186.733,0,0,0,393.82,191.43c25.826-18.368,43.486-46.331,48.453-76.72.253-1.551.474-3.1.654-4.6a5.572,5.572,0,1,0-11.064-1.334Z"/><path d="M428.818,77.483A5.573,5.573,0,0,0,439.2,73.432c-.675-1.73-1.437-3.436-2.265-5.071a5.573,5.573,0,1,0-9.942,5.037C427.66,74.712,428.273,76.087,428.818,77.483Z"/><path d="M221.369,86.991a5.572,5.572,0,0,0,7.876.248c41.622-39.075,91.109-53.982,147.09-44.317,10.869,1.878,20.3,4.834,28.032,8.787a5.572,5.572,0,0,0,5.073-9.923c-8.732-4.464-19.231-7.776-31.208-9.846-59.615-10.3-112.308,5.575-156.615,47.174A5.572,5.572,0,0,0,221.369,86.991Z"/><path d="M150.888,208.63a5.574,5.574,0,0,0,5.28-3.793c11.236-33.321,29.492-66.553,52.883-96.39l.612.5a5.573,5.573,0,0,0,7.049-8.634l-5.725-4.674a5.568,5.568,0,0,0-9.074,3.858C176.964,130.849,157.5,166,145.607,201.276a5.574,5.574,0,0,0,5.281,7.354Z"/><path d="M147.924,231.612l.583-2.065a5.572,5.572,0,1,0-10.719-3.048l-.6,2.106a5.573,5.573,0,1,0,10.732,3.007Z"/><path d="M137.492,249.291a5.575,5.575,0,0,0-6.706,4.139,726.958,726.958,0,0,0-15.133,88.895,36.047,36.047,0,1,0-2.507,64.794,5.573,5.573,0,1,0-4.489-10.2,24.922,24.922,0,1,1,14-16.2L101.278,369.2a5.572,5.572,0,1,0-5.287,9.811l34.577,18.632a5.573,5.573,0,1,0,5.286-9.812l-3.222-1.736a35.941,35.941,0,0,0-6.612-35.406A711.1,711.1,0,0,1,141.632,256,5.573,5.573,0,0,0,137.492,249.291Z"/><path d="M343.384,351.228a5.572,5.572,0,0,0,.713,7.848l1.674,1.4a5.573,5.573,0,1,0,7.136-8.561l-1.675-1.4A5.57,5.57,0,0,0,343.384,351.228Z"/></svg>
