<?xml version="1.0"?>
<svg xmlns="http://www.w3.org/2000/svg" id="icon" viewBox="0 0 512 512" width="512" height="512"><title>forest</title><path d="M455.552,154.11c-2.2-11.963-14.075-55.679-70.244-58.8-.435-.026-43.039-2.353-62.723,35.382l-.15.016a79.444,79.444,0,0,0-20.419,4.991,5.573,5.573,0,0,0,4.064,10.378,68.282,68.282,0,0,1,17.554-4.289c1.738-.188,2.748-.228,2.749-.228a5.573,5.573,0,0,0,4.856-3.223c15.685-33.782,51.822-31.991,53.4-31.9,55.055,3.059,60.084,49.692,60.27,51.66a5.571,5.571,0,0,0,2.9,4.411c30.062,16.234,25.78,64.236,25.739,64.657-2.311,21.179-13.35,36.067-32.812,44.253a5.572,5.572,0,1,0,4.321,10.273c16.139-6.787,36.1-21.548,39.576-53.372C484.852,226.1,489.494,174.9,455.552,154.11Z"/><path d="M120.332,347.15a73.68,73.68,0,0,1,15,9.558,66.838,66.838,0,0,0,5.733,4.22v83.8H126.885a5.573,5.573,0,0,0,0,11.145h75.739a5.573,5.573,0,0,0,0-11.145H190.651V346.188c8.74-12.318,19.854-22.376,27.772-28.73a52.04,52.04,0,0,0,19.471-40.818v-5.289h3.738a5.573,5.573,0,0,0,0-11.145H211.215a5.572,5.572,0,0,0-5.572,5.572v10.188a14.222,14.222,0,0,1-8.882,13.26c-1.865.756-3.922,1.516-6.11,2.26V265.778a5.572,5.572,0,0,0-5.572-5.572H130.262a5.573,5.573,0,0,0,0,11.145h10.8v75.71a84.515,84.515,0,0,0-15.938-9.971,5.572,5.572,0,1,0-4.794,10.06Zm61.4-43.627a5.576,5.576,0,0,0,4.894.9,146.687,146.687,0,0,0,14.323-4.869,25.32,25.32,0,0,0,15.842-23.589v-4.615h9.961v5.289a40.945,40.945,0,0,1-15.3,32.126c-8.8,7.065-21.32,18.441-30.965,32.521a5.569,5.569,0,0,0-.976,3.15V444.729h-27.3V271.351h27.3V299.07A5.57,5.57,0,0,0,181.729,303.523Z"/><path d="M142.3,68.994c27.952-3.988,94.306-6.569,106.628,55.449a5.575,5.575,0,0,0,5.46,4.488,5.659,5.659,0,0,0,1.091-.108,5.573,5.573,0,0,0,4.38-6.552c-6.1-30.7-25.042-51.754-54.775-60.875-24.427-7.493-50.807-5.37-64.358-3.436A5.573,5.573,0,0,0,142.3,68.994Z"/><path d="M109.759,78.061a5.571,5.571,0,0,0,2.131-.425q1.209-.5,2.446-.99a5.572,5.572,0,1,0-4.087-10.368q-1.326.523-2.624,1.061a5.573,5.573,0,0,0,2.134,10.722Z"/><path d="M44.242,271.648a67.671,67.671,0,0,0,16.973,14.3A32.027,32.027,0,0,0,55.6,314.446c5.487,20.84,22.172,26.116,31.985,26.116.813,0,1.58-.036,2.289-.1a5.572,5.572,0,1,0-1.044-11.1c-.706.07-17.407,1.41-22.452-17.756-3.739-14.2,6.965-22.433,7.392-22.754a5.581,5.581,0,0,0-1.39-9.743c-1.721-.63-42.041-16.1-32.86-74.641a5.63,5.63,0,0,0,0-1.719c-.1-.676-9.8-68.057,43.263-108.579a5.572,5.572,0,1,0-6.764-8.857C20.382,127.8,27.2,194.666,28.386,203.576,23.165,238.309,34.1,259.752,44.242,271.648Z"/><path d="M108.746,271.351h2.027a5.573,5.573,0,0,0,0-11.145h-2.027a5.573,5.573,0,1,0,0,11.145Z"/><path d="M100.01,455.874h4.557a5.573,5.573,0,0,0,0-11.145H100.01a5.573,5.573,0,1,0,0,11.145Z"/><path d="M256.846,142.954a70.707,70.707,0,0,0-19.562,1.54,5.572,5.572,0,1,0,2.481,10.865,59.54,59.54,0,0,1,16.485-1.276c.077,0,.154.007.231.008a53.989,53.989,0,0,1,21.863,6.222c15.389,8.07,25.064,22.3,28.756,42.3,3.247,17.593.29,35.129-8.328,49.379C293.4,260.875,287.045,266.7,279.88,269.3a5.574,5.574,0,0,0-3.431,6.845,81.866,81.866,0,0,1,2.725,25.913c-1.184,16.988-8.96,27.784-23.113,32.088a36.419,36.419,0,0,1-15.1,1.082c-7.371-.9-21.652-1.275-34.512,6.43a5.572,5.572,0,1,0,5.727,9.56c10-5.991,21.474-5.66,27.425-4.928a47.492,47.492,0,0,0,19.706-1.481c33.2-10.1,33.956-45.908,29.079-67.106,7.638-4,14.326-10.684,19.927-19.947,10.031-16.587,13.494-36.89,9.751-57.169C308.013,146.169,260.522,143.1,256.846,142.954Z"/><path d="M364.247,299.946q-.12-.006-.24-.006a100.011,100.011,0,0,1-48.332-12.017,5.572,5.572,0,0,0-5.324,9.791A111.014,111.014,0,0,0,363.9,311.085c.23.008.671.02,1.3.02a78.775,78.775,0,0,0,11.25-.891V444.729H355.459V327.614a5.573,5.573,0,0,0-11.145,0V444.729H292.987V389.438a28.35,28.35,0,0,1,9.817-21.463l4.632-4a39.488,39.488,0,0,0,13.674-29.894v-2.45a5.573,5.573,0,0,0-11.145,0v2.45a28.35,28.35,0,0,1-9.817,21.462l-4.632,4c-.885.766-1.722,1.575-2.529,2.407V351.214a5.573,5.573,0,1,0-11.145,0v47.7c-.406-.35-.819-.7-1.245-1.028l-17.271-13.447a20.852,20.852,0,0,1-8.092-16.558v-.888a5.573,5.573,0,1,0-11.145,0v.888a31.928,31.928,0,0,0,12.39,25.352L273.75,406.68a20.851,20.851,0,0,1,8.092,16.558v21.491h-20.21a5.573,5.573,0,1,0,0,11.145h156a5.573,5.573,0,0,0,0-11.145H387.6V371.151a26.57,26.57,0,0,1,10.564-21.144l10.228-7.678a28.872,28.872,0,0,0,11.48-22.975v-7.763a5.573,5.573,0,0,0-11.145,0v7.763a17.67,17.67,0,0,1-7.026,14.062L391.468,341.1a37.01,37.01,0,0,0-3.873,3.37V307.8c11.121-3.2,24.069-9.471,34.082-21.726a43.339,43.339,0,0,0,8.8-35.874,5.573,5.573,0,0,0-10.81,2.713,32.082,32.082,0,0,1-6.623,26.11C395.175,300.9,364.539,299.955,364.247,299.946Z"/><path d="M443.379,455.874a5.573,5.573,0,1,0,0-11.145h-3.467a5.573,5.573,0,0,0,0,11.145Z"/></svg>
