<svg id="icons" height="512" viewBox="0 0 500 500" width="512" xmlns="http://www.w3.org/2000/svg"><path d="m477.645 212.4a5.532 5.532 0 0 0 5.153-7.421 137.59 137.59 0 0 0 -13.167-26.322c-21.936-34.123-46.8-71.5-47.11-71.943-1.367-2-33-47.444-65.707-74.27a35.438 35.438 0 0 0 -46.231 1.45c-19 17.471-46.241 47.783-68.175 93-.789 1.433-9.413 17.137-20.7 38.819l-.555-.851c-8.05-18.584-42.516-94.5-90.378-59.941a281 281 0 0 0 -69.54 79.425c-16.259 21.478-29.835 44.636-38.376 60.311a103.968 103.968 0 0 0 -5.63 12.139c-2.467 6.719 7.464 10.727 10.258 3.974 10.28-22.829 23.355-43.348 42.479-69.745a88.154 88.154 0 0 1 41.111-21 16.292 16.292 0 0 1 12.5 2.622l11.647 8.077a27.356 27.356 0 0 0 32.11-.631l15.125-11.4a16.339 16.339 0 0 1 15.651-2.252l14.5 5.457 3.282 5.034c-8.12 15.81-17.059 33.707-25.233 51.146-22.825 12.974-45.169 36.928-38.891 76.006 6.935 41.085 57.606 60.385 94.6 74.478 16.772 6.388 29.248 18.615 34.232 33.546 7.2 19.974-2.769 39.531-16.734 54.085a5.5 5.5 0 0 0 8.082 7.462 117.522 117.522 0 0 0 13.02-16.988c9.319-14.779 11.473-31.841 6.065-48.041-6.031-18.072-20.884-32.776-40.749-40.343-43.1-16.417-82.236-33.82-87.675-66.03-5.29-31.335 12.432-50.1 24.418-58.948-4.444 24.329-4.681 41.134 10.061 55.5 42.624 40.284 179.175 42.666 219.012 123.095 14.41 25.768 14.15 47.383 14.14 47.879a5.5 5.5 0 0 0 11 .321c.029-.986.538-24.465-15.186-52.944-43.708-85.946-169.168-83.989-221.281-126.216-12.338-12.027-11.038-25.971-4.678-57.048 21.271-45.516 48.088-94.647 51.621-101.09 2.179-2.061 11.982-10.732 29.064-17.386a25.969 25.969 0 0 1 23.389 2.335 36.909 36.909 0 0 0 40.347-.329 25.943 25.943 0 0 1 27.227-.784c16.065 9.128 31.769 9.428 44.858 1.035 7.431 11.2 26.548 40.122 43.78 66.935a126.543 126.543 0 0 1 12.112 24.214 5.5 5.5 0 0 0 5.152 3.578zm-275.659-56.245a27.264 27.264 0 0 0 -26.143 3.761l-15.125 11.4c-18.277 12.377-26.908-13.415-46.5-12.6-10.125.467-21.006 4.936-28.734 8.577a273.305 273.305 0 0 1 52.055-53.7 29.459 29.459 0 0 1 38.475 1.818c13.927 13.491 24 30.819 29.693 42.149zm175.187-49.085a36.9 36.9 0 0 0 -38.71 1.16 25.906 25.906 0 0 1 -28.356.26c-15.661-10.218-32.411-5.415-47.156 3.09a294.192 294.192 0 0 1 55.078-69.589 24.389 24.389 0 0 1 31.812-1.04c25.76 21.111 51.771 55.6 60.523 67.659-9.615 6.035-20.755 5.526-33.191-1.54z"/><path d="m89.272 469.932v-58.579h53.188a5.5 5.5 0 0 0 4.627-8.474l-35.169-54.711h17.646a5.5 5.5 0 0 0 4.627-8.474l-45.791-71.242a5.54 5.54 0 0 0 -9.254 0l-45.794 71.242a5.5 5.5 0 0 0 4.627 8.474h17.645l-35.169 54.711a5.539 5.539 0 0 0 4.627 8.474h35.546c7.22-.122 7.237-10.875 0-11h-25.473l35.169-54.711a5.5 5.5 0 0 0 -4.627-8.474h-17.645l35.72-55.57 35.718 55.57h-17.645a5.5 5.5 0 0 0 -4.627 8.474l35.169 54.711h-43.115v-79.747a5.5 5.5 0 0 0 -11 0v49.672l-3.015-3.618c-4.72-5.468-12.986 1.4-8.451 7.043 6.692 7.287 11.6 15.266 11.465 25.479v70.75c.129 7.225 10.877 7.232 11.001 0z"/><path d="m407.776 223.369a5.5 5.5 0 0 0 -5.5 5.5v129.266c.114 7.2 10.875 7.251 11 0v-53.273h53.189a5.5 5.5 0 0 0 4.627-8.474l-35.169-54.711h17.646a5.5 5.5 0 0 0 4.631-8.477l-45.8-71.238a5.539 5.539 0 0 0 -9.254 0l-45.789 71.238a5.5 5.5 0 0 0 4.627 8.475h17.645l-35.169 54.713a5.539 5.539 0 0 0 4.627 8.474h33.454c7.22-.122 7.237-10.875 0-11h-23.381l35.169-54.711a5.5 5.5 0 0 0 -4.627-8.474h-17.645l35.72-55.569 35.723 55.569h-17.65a5.5 5.5 0 0 0 -4.627 8.474l35.169 54.711h-43.092c.212-10.2 5.311-18.525 12.169-25.735 4.616-5.564-3.545-12.57-8.346-7.165l-3.851 4.487v-36.58a5.5 5.5 0 0 0 -5.496-5.5z"/></svg>