<svg id="icons" height="512" viewBox="0 0 500 500" width="512" xmlns="http://www.w3.org/2000/svg"><path d="m481.847 450.424c5.7 4.414 12.451-3.965 6.872-8.59-23.559-18.427-53.184-50.043-65.97-65.4 11.9-33.822-5.679-63.893-23.669-71.8-5.733-33.576-37.394-55.058-69.851-36.438-34.758-28.977-83.265-69.894-122.775-104.61 2.925-22.784-4.333-57.257-25.465-71.819-18.074-13.788-43.351-16.8-62.7-6.061-33.728-31.75-44.653-71.806-44.81-72.394a5.5 5.5 0 1 0 -10.641 2.788c.317 1.213 5.541 20.614 20.005 43.557-7.792 6.8-11.356 15.864-12.965 23.169-15.544-17.284-30.643-40.526-36.246-69.176-1.5-7.069-12.064-5.012-10.8 2.111a139.354 139.354 0 0 0 9.539 29.967c-8.937-5.911-14.566-9.182-14.925-9.39-6.313-3.511-11.707 5.791-5.509 9.521.027-.091 14.088 8.346 32.092 21.32 13.96 21.594 31.366 37.706 44.391 47.934a80.265 80.265 0 0 0 -4.687 9.1 299.708 299.708 0 0 0 -38.142-27.24 51.009 51.009 0 0 0 .275-15.983 5.5 5.5 0 1 0 -10.9 1.446 42.868 42.868 0 0 1 .283 8.692c-5.907-3.149-12.077-6.115-18.448-8.749a5.5 5.5 0 0 0 -4.2 10.166c29.343 12.127 54.451 31.718 67.571 43.072-3.617 20.609 3.967 44.249 11.592 53.951 5.879 36.447 30.618 63.758 61.461 41.9 41.542 33.728 96.281 79.5 137.275 117.387-6.4 52.53 33.192 77.757 79.025 71.924l66.03 68.336a5.5 5.5 0 1 0 7.91-7.642l-34.834-36.05a38.49 38.49 0 0 0 17.69-6.825c26.666 26.941 53.876 49.615 55.455 50.928a5.485 5.485 0 0 0 3.511 1.268c4.938.182 7.511-6.649 3.517-9.731-.283-.236-15.511-12.926-34.238-30.44 4.92-1.211 10.552-3.905 16.387-9.294 3.566 3.1 7.207 6.145 10.894 9.095zm-93.183-141.674c1.67 7.34 2.424 18.632.394 31.489-7.363 6.605-15.858 5.39-20.15 4.135.807-10.82.49-24.035-3.43-34.931a31.564 31.564 0 0 0 10.522-1.928c6.761-2.562 3.12-12.684-3.724-10.35-6.413 2.308-10.847 1-12.636.228a63.248 63.248 0 0 0 -12.885-14.64l-8.314-6.9c29.319-13.053 47.423 12.278 50.223 32.897zm-3.239 46.059c-3.738 11-11.863 21.727-23.8 22.249a125.076 125.076 0 0 0 5.875-21.658 33.543 33.543 0 0 0 17.925-.591zm-95.684-105.347c19.059 16.046 36.559 30.638 50.539 42.238 11.43 9.6 17.4 23.4 17.819 37.854-8.151-7.686-17.388-16.21-27.375-25.294a27.455 27.455 0 0 1 -.533-11.182c.361-8.716-11.6-8.128-11.14.614-9.518-8.579-19.545-17.531-29.841-26.66a26.812 26.812 0 0 1 .531-17.57zm68.126 95.049a107.312 107.312 0 0 1 -1.51 10.674c-5.06-4.318-10.845-9.244-17.209-14.656.693-3.738 1.589-7.466 2.655-11.159 5.807 5.395 11.197 10.467 16.064 15.141zm-25.029-23.42c-1.249 3.735-2.324 7.523-3.225 11.334-6.156-5.229-12.713-10.8-19.576-16.616 1.431-3.868 3-7.609 4.72-11.179 6.05 5.47 12.217 11.07 18.081 16.461zm-107.166-126.191c18.481 15.96 37.419 32.079 55.3 47.175a37.763 37.763 0 0 0 -3.854 14.268c-16.551-14.6-33.523-29.439-49.943-43.71a27.027 27.027 0 0 1 -1.503-17.733zm-36.422-75.252c5.553 12.165 6.685 25.423 6.643 34.437l-13.309-12.045a50.545 50.545 0 0 0 6.666-22.392zm7.709 50.238c6.451 5.673 13.067 11.452 19.783 17.28a35.736 35.736 0 0 0 -2.931 13.865c-20.3-17.586-39.264-33.9-54.94-47.343a15.949 15.949 0 0 1 3.544-14.713c10.543 9.641 22.238 20.084 34.544 30.911zm-52.766-79.756c9.491-.1 21.026 3.706 29.132 9.646 2.037 3.168 9.494 16.784.829 34.634-11.154-10.47-19.616-18.971-36.192-15.577-.8-12.219-7.341-19.526-14.341-23.506a44.016 44.016 0 0 1 20.572-5.197zm13.937 77.415a84.717 84.717 0 0 1 -9.144 11.964l-13.936-11.782c-.128-.109-.272-.185-.407-.28a175.019 175.019 0 0 1 -1.689-21.459c7.125 6.086 15.646 13.38 25.176 21.557zm-24.416-35.371c6.275-3.65 14.228-4.284 20.457-.47a26.436 26.436 0 0 0 -6.256 12.6c-5.328-4.556-10.092-8.625-14.201-12.13zm-54.1-39.29c.221-4.64 1.592-16.242 9.457-23.99a172.017 172.017 0 0 0 19.719 22.942 81.119 81.119 0 0 0 -14.139 14.179c-4.593-3.628-9.731-8.015-15.042-13.131zm11.5 43.987c1.655-8.687 9.343-23.475 21.665-34.1 4.748 1.177 15.085 5.486 14.2 20.541-17.052 9.012-29.081 25.735-33.4 45.032-2.829-9.076-4.535-20.639-2.471-31.473zm35.933 90.806c-8.905-2.309-16.562-12.56-22.144-29.643-3.784-10.649-5.59-36.232 17.035-57.926-.13 13.021.931 29.424 5.234 45.718a27.4 27.4 0 0 1 -10.832-1.149c-6.812-2.373-10.535 7.686-3.816 10.317a37.722 37.722 0 0 0 12.126 1.966 34.416 34.416 0 0 0 5.832-.494 95.452 95.452 0 0 0 14.8 27.089c-4.273 2.721-11.21 5.945-18.241 4.122zm41.283 1.907q-5.81-4.743-11.247-9.153c-9.326-10.162-15.15-22.623-18.806-35.576 11.473 9.7 21.907 18.521 34.741 29.373a28.678 28.678 0 0 0 -4.694 15.356zm-10.936-42.971a95.909 95.909 0 0 0 9.166-11.833q7.864 6.761 16.4 14.119a129.868 129.868 0 0 1 -8.467 12.172zm62.5 85.734c-13.476-11.368-26.686-22.342-39.044-32.5-1.031-3.042-3.224-11.38.674-18.422 13.834 11.7 28.7 24.276 43.819 37.065a24.162 24.162 0 0 0 -5.452 13.857zm61.453 53.312c-15.686-14.086-32.286-28.517-48.768-42.559-1.226-2.92-3.943-11.165 1.172-17.5 17.569 14.868 35.263 29.849 51.841 43.9a31.72 31.72 0 0 0 -4.248 16.159zm-98.455-117.482a139.7 139.7 0 0 0 8.488-12.007c36.264 31.321 78.829 68.43 114.899 100.83-1.845 3.606-3.566 7.367-5.134 11.274-37.43-31.74-81.978-69.424-118.253-100.097zm111.913 129.7c-.374-2.462-5.076-10.236-.621-21.085 24.061 20.4 45.157 38.321 59.2 50.321-1.068 3.472-2.191 6.538-3.24 9.129-28.092-5.314-49.163-32.42-49.524-32.891-1.799-1.951-3.877-3.622-5.815-5.478zm31.124 65.872c-16.452-7.987-24.7-22.413-24.949-43.6a112.439 112.439 0 0 0 25.595 19.179 37.862 37.862 0 0 0 -.646 24.417zm21.642 6.242c-2.4-.347-4.691-.773-6.9-1.263-7.329-10.038-5.828-19.592-4.01-24.853 48.724 18.513 66.372-24.761 64.454-64.661 21.573 17.672 18.274 60.631-6.831 79.127a11.685 11.685 0 0 1 -9.415-5.7c-3.465-6.3-12.945-1.353-9.749 5.095a23.474 23.474 0 0 0 7.27 7.844 62.781 62.781 0 0 1 -34.819 4.407zm48.3 22.24-14.071-14.569a66.61 66.61 0 0 0 17.138-9.034c6 7.284 12.673 14.7 19.566 21.931-11.955 7.295-20.804 2.773-22.629 1.668zm47.415 7.656a489.232 489.232 0 0 1 -36.043-38.472 67.3 67.3 0 0 0 10.5-13.92 577.69 577.69 0 0 0 44.928 46.461c-9.338 8.111-17.033 6.659-19.381 5.927z"/></svg>