<?xml version="1.0"?>
<svg xmlns="http://www.w3.org/2000/svg" id="icon" viewBox="0 0 512 512" width="512" height="512"><title>grill</title><path d="M411.2,275.383a5.573,5.573,0,0,0,5.573-5.573v-7.334a5.573,5.573,0,1,0-11.145,0v7.334A5.573,5.573,0,0,0,411.2,275.383Z"/><path d="M405.627,463.408h-9.058a5.573,5.573,0,0,0,0,11.145h54.308a5.573,5.573,0,1,0,0-11.145h-5.991V168.83a5.573,5.573,0,0,0-11.145,0V463.408H416.772V297.156a5.573,5.573,0,0,0-11.145,0Z"/><path d="M47.523,147.012h2.67a5.573,5.573,0,0,0,0-11.145h-2.67a8.485,8.485,0,0,1,0-16.97H67.115V463.408H57.757a5.573,5.573,0,1,0,0,11.145h76.678a5.573,5.573,0,1,0,0-11.145H106.374V421.3a5.573,5.573,0,0,0-11.145,0v42.109H78.26V80.093a8.485,8.485,0,0,1,16.969,0V357.884a5.573,5.573,0,0,0,11.145,0V147.012h33.27a38.961,38.961,0,0,0,37.37,28.124,64.228,64.228,0,0,1,35.247,10.5,5.572,5.572,0,1,0,6.1-9.326,75.337,75.337,0,0,0-41.347-12.324,27.786,27.786,0,0,1-27.755-27.754v-17.71a27.786,27.786,0,0,1,27.755-27.754A75.989,75.989,0,0,0,222.37,75.636l17.551-13.184a69.576,69.576,0,0,1,41.53-13.86h18.122a68.87,68.87,0,0,0-13.2,16.272c-10.059,16.787-15.6,38.99-15.6,62.518s5.54,45.731,15.6,62.518a68.856,68.856,0,0,0,13.2,16.273H281.451a69.11,69.11,0,0,1-20.089-2.983,5.573,5.573,0,0,0-3.238,10.665,80.276,80.276,0,0,0,23.327,3.463H326.9c22.748,0,43.068-21.545,51.765-54.886a5.572,5.572,0,1,0-10.783-2.814c-7.378,28.281-23.465,46.555-40.982,46.555-24.383,0-44.981-36.082-44.981-78.791s20.6-78.79,44.981-78.79c17.266,0,33.257,17.915,40.738,45.641a5.573,5.573,0,0,0,10.762-2.9c-8.834-32.732-29.049-53.882-51.5-53.882H281.451a80.786,80.786,0,0,0-48.223,16.094L215.677,66.725a64.778,64.778,0,0,1-38.663,12.9,38.944,38.944,0,0,0-38.9,38.9v17.34h-31.74V118.9h18.172a5.573,5.573,0,1,0,0-11.145H106.374V80.093a19.63,19.63,0,0,0-39.259,0v27.659H47.523a19.63,19.63,0,0,0,0,39.26Z"/><path d="M100.8,382.019a5.573,5.573,0,0,0-5.573,5.572v4.356a5.573,5.573,0,1,0,11.145,0v-4.356A5.572,5.572,0,0,0,100.8,382.019Z"/><path d="M175.513,235.253a5.235,5.235,0,0,0,.7.851,5.566,5.566,0,1,0,2.855-9.4,5.4,5.4,0,0,0-1.045.32,4.949,4.949,0,0,0-.96.515,4.486,4.486,0,0,0-.85.7,5.546,5.546,0,0,0-1.63,3.929,4.964,4.964,0,0,0,.111,1.1,5.577,5.577,0,0,0,.306,1.03A5.852,5.852,0,0,0,175.513,235.253Z"/><path d="M348.886,290.518a6,6,0,0,0,.7.85,5.084,5.084,0,0,0,.85.7,5.813,5.813,0,0,0,.961.515,6.551,6.551,0,0,0,1.044.321,6.139,6.139,0,0,0,2.174,0,7,7,0,0,0,1.045-.321,6.483,6.483,0,0,0,.961-.515,5.825,5.825,0,0,0,.85-.7,5.15,5.15,0,0,0,.683-.85,4.924,4.924,0,0,0,.514-.961,5.249,5.249,0,0,0,.321-1.045,5.6,5.6,0,0,0,.112-1.086,5.721,5.721,0,0,0-.112-1.087,5.525,5.525,0,0,0-.321-1.045,5.36,5.36,0,0,0-.514-.961,5.807,5.807,0,0,0-.683-.85,5.659,5.659,0,0,0-.85-.682,5.591,5.591,0,0,0-2.006-.836,5.679,5.679,0,0,0-2.174,0,5.3,5.3,0,0,0-1.044.32,4.879,4.879,0,0,0-.961.516,4.955,4.955,0,0,0-.85.682,6.915,6.915,0,0,0-.7.85,6.453,6.453,0,0,0-.5.961,5.592,5.592,0,0,0-.319,1.045,5.721,5.721,0,0,0-.112,1.087,5.6,5.6,0,0,0,.112,1.086,5.311,5.311,0,0,0,.319,1.045A5.834,5.834,0,0,0,348.886,290.518Z"/><path d="M232.119,193.422a5.572,5.572,0,0,0,1.109,7.8c1.182.887,2.4,1.751,3.622,2.566a5.573,5.573,0,0,0,6.19-9.268c-1.052-.7-2.1-1.446-3.119-2.21A5.573,5.573,0,0,0,232.119,193.422Z"/><path d="M219.4,110.849a5.674,5.674,0,0,0-2.173,0,5.611,5.611,0,0,0-2.006.836,5.035,5.035,0,0,0-.85.7,6.615,6.615,0,0,0-.7.836,6.266,6.266,0,0,0-.5.961,6.078,6.078,0,0,0-.321,1.045,5.808,5.808,0,0,0-.111,1.086,5.958,5.958,0,0,0,.111,1.1,5.562,5.562,0,0,0,.321,1.031,5.236,5.236,0,0,0,.5.962,5.983,5.983,0,0,0,.7.849,5.09,5.09,0,0,0,.85.7,6.306,6.306,0,0,0,.962.515,5.332,5.332,0,0,0,1.044.321,5.373,5.373,0,0,0,2.173,0,5.405,5.405,0,0,0,1.045-.321,6.4,6.4,0,0,0,.962-.515,5.043,5.043,0,0,0,.849-.7,5.909,5.909,0,0,0,.7-.849,5.179,5.179,0,0,0,.5-.962,5.484,5.484,0,0,0,.32-1.031,5.791,5.791,0,0,0,.111-1.1,5.6,5.6,0,0,0-1.629-3.928,4.989,4.989,0,0,0-.849-.7,5.605,5.605,0,0,0-2.007-.836Z"/><path d="M241,107.909a5.192,5.192,0,0,0,.683.85,6.825,6.825,0,0,0,.85.7,6.343,6.343,0,0,0,.961.515,6.444,6.444,0,0,0,1.044.306,5.336,5.336,0,0,0,2.175,0,6.444,6.444,0,0,0,1.044-.306,6.3,6.3,0,0,0,.961-.515,6.825,6.825,0,0,0,.85-.7,6.061,6.061,0,0,0,.7-.85,6.5,6.5,0,0,0,.5-.961,5.4,5.4,0,0,0,.319-1.045,5.614,5.614,0,0,0,.112-1.087,5.653,5.653,0,0,0-.431-2.131,6.513,6.513,0,0,0-.5-.962,6.905,6.905,0,0,0-.7-.849,5.678,5.678,0,0,0-.85-.683,5.269,5.269,0,0,0-.961-.515,5.327,5.327,0,0,0-1.044-.321,5.724,5.724,0,0,0-2.175,0,5.644,5.644,0,0,0-2,.836,5.455,5.455,0,0,0-2.48,4.625,5.614,5.614,0,0,0,.112,1.087,5.4,5.4,0,0,0,.319,1.045A5.041,5.041,0,0,0,241,107.909Z"/><path d="M225.623,87.862a5.439,5.439,0,0,0-1.045.306,5.848,5.848,0,0,0-.96.516,6,6,0,0,0-.851.7,5.6,5.6,0,0,0-1.629,3.942,4.815,4.815,0,0,0,.111,1.086,5.549,5.549,0,0,0,.306,1.045,6.449,6.449,0,0,0,.516.962,6.983,6.983,0,0,0,.7.85,5.091,5.091,0,0,0,.851.682,4.953,4.953,0,0,0,.96.516,5.334,5.334,0,0,0,1.045.32,5.57,5.57,0,1,0,0-10.922Z"/><path d="M341.387,107.752a19.63,19.63,0,1,0,0,39.26h5.324c-3.571,14.971-11.022,25.378-18.636,25.378-9.869,0-20.864-18.484-20.864-45.008s11-45.008,20.864-45.008c5.184,0,10.473,4.863,14.512,13.342a5.573,5.573,0,1,0,10.062-4.793c-5.963-12.516-14.92-19.694-24.574-19.694-17.948,0-32.009,24.665-32.009,56.153s14.061,56.153,32.009,56.153c13.7,0,25.535-14.539,30.062-36.523h47.49V236.15a5.573,5.573,0,1,0,11.145,0V147.012h47.706a19.63,19.63,0,0,0,0-39.26H444.886V80.093a19.63,19.63,0,0,0-39.259,0v27.659Zm131.575,19.63a8.493,8.493,0,0,1-8.484,8.485H341.387a8.485,8.485,0,0,1,0-16.97H464.478A8.494,8.494,0,0,1,472.962,127.382Zm-56.19-47.289a8.485,8.485,0,0,1,16.969,0v27.659H416.772Z"/><path d="M262.647,474.553l.161,0c.087,0,.27-.009.5-.019h62.736a5.573,5.573,0,1,0,0-11.145H311.058c12.866-5.582,25.9-13.937,35.72-26.478,15.288-19.524,19.639-45.141,12.931-76.139a16.029,16.029,0,0,0-22.94-10.96,122.423,122.423,0,0,0-32.756-69.873,5.573,5.573,0,0,0-8.09,7.667c31.843,33.592,30.369,74,30.351,74.391a5.572,5.572,0,0,0,10.059,3.573,43.719,43.719,0,0,1,4.155-4.853,4.9,4.9,0,0,1,8.329,2.413c5.968,27.583,2.341,50.08-10.78,66.867-23.331,29.845-69.818,33.118-75.054,33.392h-1.692c-36.914-.233-64-9.881-80.479-28.719-21.275-24.318-20.3-58.919-17.826-77.38a5.573,5.573,0,0,0-11.047-1.48c-2.725,20.333-3.687,58.569,20.486,86.2a84.533,84.533,0,0,0,29.512,21.38H189.628a5.573,5.573,0,1,0,0,11.145H261.4C261.822,474.534,262.226,474.553,262.647,474.553Z"/><path d="M170.871,298.05a108.1,108.1,0,0,0-12.677,28.417,5.573,5.573,0,1,0,10.7,3.115,96.937,96.937,0,0,1,11.343-25.493,7.631,7.631,0,0,1,6.917-3.585,8.055,8.055,0,0,1,6.827,4.326c10.685,20.127,26.106,25.138,26.756,25.341a5.573,5.573,0,0,0,7.223-5.678c-1.449-22.454,2.783-42.423,6.588-55.22a15.51,15.51,0,0,1,8.473-9.723,15.666,15.666,0,0,1,13.025.067,142.2,142.2,0,0,1,19.307,10.746,5.572,5.572,0,1,0,6.184-9.271A153.262,153.262,0,0,0,260.717,249.5a26.706,26.706,0,0,0-36.849,16.6,175.5,175.5,0,0,0-7.341,49.047,47.581,47.581,0,0,1-12.7-15.539,19.1,19.1,0,0,0-16.2-10.235A18.84,18.84,0,0,0,170.871,298.05Z"/><path d="M234.322,379.911a5.574,5.574,0,0,0-7.453,2.56,53.289,53.289,0,0,0-5.355,27.111c1.319,20.646,15.493,34.183,38.888,37.139a33.068,33.068,0,0,0,4.166.264A31.369,31.369,0,0,0,288,436.728a38.608,38.608,0,0,0,8.52-16.311,47.959,47.959,0,0,0-3.438-32.487,93.42,93.42,0,0,0-19.806-26.837,21.178,21.178,0,0,0-27.79-1.272,5.572,5.572,0,1,0,6.979,8.687,10.008,10.008,0,0,1,13.122.651,82.228,82.228,0,0,1,17.426,23.549,36.8,36.8,0,0,1,2.718,24.911,27.6,27.6,0,0,1-6.027,11.669,20.52,20.52,0,0,1-17.9,6.377c-12.626-1.6-27.934-7.54-29.162-26.793a42.271,42.271,0,0,1,4.244-21.508A5.572,5.572,0,0,0,234.322,379.911Z"/><path d="M161.959,463.408a5.573,5.573,0,1,0,0,11.145h.409a5.573,5.573,0,1,0,0-11.145Z"/></svg>
