<svg id="icons" height="512" viewBox="0 0 500 500" width="512" xmlns="http://www.w3.org/2000/svg"><path d="m442.716 226.4c-1.04-.8-13.6-10.244-38.083-19.454v-111.018a5.49 5.49 0 0 0 -.264-1.68 47.528 47.528 0 0 0 -30.768-39.5c-39.964-15.24-88.31-22.645-143.647-21.962-55.354-.686-103.683 6.722-143.646 21.962a47.521 47.521 0 0 0 -31.028 43.889c.444 2.269-.825 265.007.439 267 1.13 2.671 29.7 65.3 208.5 65.6 62.541.109 115.262 11.99 156.7 35.314a5.5 5.5 0 0 0 8.185-4.419l2.992-43.89a25.933 25.933 0 0 0 -11.773-23.394c-5.61-3.667-7.977-8.159-7.45-14.136.282-3.186 1.137-12.881 17.609-13.1a5.5 5.5 0 0 0 5.415-5.126l2.416-35.443a5.5 5.5 0 0 0 -1.822-4.475l-23.721-21.2a136.178 136.178 0 0 1 19.912 5.472 5.5 5.5 0 0 0 7.336-4.806l4.833-70.9a5.5 5.5 0 0 0 -2.135-4.734zm-352.488-161.375c73.79-28.931 205.665-28.919 279.453 0 13.546 5.166 22.437 16.633 23.784 30.675 1.34 13.975-5.153 26.847-17.369 34.431-65.755 40.823-145.231 39.725-146.027 39.705-.884.107-41.937.35-89.08-13.833-17.989-5.551-33.616-17.622-39.389-35.287-5.93-17.36 1.794-24.016 8.12-27.512 29.445-16.27 117.444-31.058 212.819-11.125a18.774 18.774 0 0 1 7.83 33.008c-18.95 15.1-60.438 31.036-150.467 21.2-9-.843-24.154-5.9-26.548-13.832 2.626-24.877 75.046-28.638 121.467-22.535a5.16 5.16 0 0 1 4.548 4.8 5.222 5.222 0 0 1 -3.574 5.655c-15.884 5.648-35.521 6.88-58.368 3.655a5.5 5.5 0 0 0 -1.536 10.893c24.622 3.473 46.017 2.064 63.589-4.184 15.973-5.524 13.74-29.355-3.059-31.695-41.9-5.464-136.836-5.591-133.868 35.516 2.34 13.146 22.425 21.437 36.152 22.666 75.265 8.219 128.6.305 158.516-23.531a29.774 29.774 0 0 0 -12.434-52.378c-98.1-20.5-189.506-4.8-220.39 12.265-15.757 8.262-19.665 25.5-12.148 43.547-12.291-10.1-21.392-20.337-25.911-29.568.64-14.721 9.686-27.119 23.89-32.536zm303.4 64.289v73.793c-26.2-8.442-63.027-15.573-110.825-13.989-27.757.92-56.855-2.664-85.314-10.308 41.823 3.8 105.919 5.73 184.4-39.331a49.022 49.022 0 0 0 11.744-10.165zm35.888 164.9a127.3 127.3 0 0 0 -33.105-5.714c-4.98-.286-7.62 6.406-3.81 9.6l34.546 30.881-1.908 27.976c-25.442 1.927-31.888 34.261-10.943 47.1a14.922 14.922 0 0 1 6.816 13.439l-2.411 35.375c-41.844-21.555-93.757-32.527-154.471-32.632-102.129-1.784-167.058-17.309-197.95-58.066v-245.1c32.106 38.426 116.386 83.2 207.739 83.2 81.546-6.347 152.971 25.847 159.641 33.227z"/><path d="m303.264 279.687c-.624-.223-14.537-5.144-35.772-8.562l.918-30.074a5.53 5.53 0 0 0 -5.331-5.665c-18.338-.556-57.82-5.612-58.216-5.662a5.534 5.534 0 0 0 -6.2 5.266l-.943 27.463a302.638 302.638 0 0 1 -29.42-7.893 5.5 5.5 0 0 0 -7.271 5.207v57.472a5.5 5.5 0 0 0 3.73 5.207 305.74 305.74 0 0 0 30.622 8.225l-.831 24.2a5.5 5.5 0 0 0 3.1 5.14c18.4 8.9 59.25 12.257 60.98 12.4a5.5 5.5 0 0 0 5.937-5.314l.843-27.691a213.859 213.859 0 0 1 34.151 8.114 5.5 5.5 0 0 0 7.352-5.179v-57.475a5.5 5.5 0 0 0 -3.649-5.179zm-7.351 55.172a250.2 250.2 0 0 0 -35.078-7.246 5.536 5.536 0 0 0 -6.235 5.287l-.854 28c-10.853-1.139-34.461-4.1-48.079-9.388l.86-25.078a5.5 5.5 0 0 0 -4.4-5.579c-13.489-2.734-24.6-5.936-30.1-7.628v-45.984c6.625 1.955 17.275 4.839 29.909 7.315a5.535 5.535 0 0 0 6.554-5.209l.961-27.968c10.56 1.29 32.681 3.864 47.8 4.747-.819 49.045-8.2 27.836 38.663 42.74z"/></svg>