<?xml version="1.0"?>
<svg xmlns="http://www.w3.org/2000/svg" id="icon" viewBox="0 0 512 512" width="512" height="512"><title>knife</title><path d="M375.8,328.832l8.539-8.987a5.572,5.572,0,0,0-8.079-7.676l-8.283,8.717L329.7,281.047l4.365-4.168a5.572,5.572,0,1,0-7.7-8.06l-8.483,8.1a5.571,5.571,0,0,0-.183,7.878,5.66,5.66,0,0,0,.79.671l41.765,43.472-32.778,33.912-10.715-11.011c-.613-.63-1.257-1.222-1.913-1.8L221.076,248.708a5.573,5.573,0,0,0-8.181,7.569L292.033,341.8a33.071,33.071,0,0,0-3.747.3,32.011,32.011,0,0,0-20.8,11.736L107.342,183.052A242.544,242.544,0,0,1,53.887,93.519,258.325,258.325,0,0,1,43.98,52.354c16.983,19.03,50.759,48.412,98,49.38l82.659,86.043a5.573,5.573,0,0,0,8.038-7.722L148.4,92.325a5.575,5.575,0,0,0-4.019-1.711c-63.831,0-103.066-59.567-103.453-60.164a5.572,5.572,0,0,0-10.243,3.416A263.6,263.6,0,0,0,43.3,96.993a253.787,253.787,0,0,0,55.915,93.683l165.1,176.064a5.572,5.572,0,0,0,9.078-1.378c.235-.484.476-.957.723-1.415a20.906,20.906,0,0,1,15.711-10.812,21.923,21.923,0,0,1,18.952,6.478L319.763,370.9,308.9,382.343a5.572,5.572,0,0,0,8.08,7.676L331.5,374.733v0l36.586-37.852,97.255,96.173a16.418,16.418,0,0,1,.485,22.84l-11.179,11.914a16.193,16.193,0,0,1-11.678,5.155,15.99,15.99,0,0,1-11.8-4.81l-81.981-83.215a5.573,5.573,0,0,0-7.94,7.823l82,83.23a27.233,27.233,0,0,0,19.484,8.118c.133,0,.267,0,.4,0a27.252,27.252,0,0,0,19.649-8.671l11.179-11.914a27.621,27.621,0,0,0-.8-38.411Z"/><path d="M100.321,107.452a5.572,5.572,0,1,0-10.05,4.816,179.463,179.463,0,0,0,28.3,42.075l47.754,51.6a5.573,5.573,0,0,0,8.181-7.57l-47.693-51.535A168.173,168.173,0,0,1,100.321,107.452Z"/><path d="M191.66,225.125a5.573,5.573,0,0,0-.305,7.875l2.7,2.921a5.572,5.572,0,0,0,8.179-7.57l-2.7-2.921A5.574,5.574,0,0,0,191.66,225.125Z"/><path d="M256.492,187.575a5.574,5.574,0,0,0-7.879-.181l-8.483,8.1c-.03.029-.051.064-.08.094s-.069.048-.1.078a5.573,5.573,0,0,0-.158,7.879l6.082,6.331a5.572,5.572,0,1,0,8.037-7.719l-2.211-2.3,4.611-4.4A5.573,5.573,0,0,0,256.492,187.575Z"/><path d="M275.93,207.931a5.569,5.569,0,0,0-7.878-.181l-8.483,8.1c-.021.019-.034.043-.054.062s-.045.032-.066.053a5.572,5.572,0,0,0-.159,7.879l6.481,6.747a5.573,5.573,0,0,0,8.038-7.722l-2.609-2.716,4.549-4.345A5.571,5.571,0,0,0,275.93,207.931Z"/><path d="M295.368,228.287a5.57,5.57,0,0,0-7.878-.181l-8.483,8.1c-.009.008-.015.019-.024.027s-.023.017-.034.027a5.574,5.574,0,0,0-.159,7.88l6.167,6.42A5.573,5.573,0,0,0,293,242.84l-2.3-2.389,4.487-4.285A5.572,5.572,0,0,0,295.368,228.287Z"/><path d="M314.808,248.644a5.572,5.572,0,0,0-7.878-.181l-8.477,8.094,0,0c-.017.017-.028.037-.045.054a5.568,5.568,0,0,0-.139,7.827c.046.048.1.081.148.126l6.329,6.588a5.573,5.573,0,0,0,8.038-7.722l-2.579-2.684,4.426-4.227A5.572,5.572,0,0,0,314.808,248.644Z"/></svg>
