<svg id="icons" height="512" viewBox="0 0 500 500" width="512" xmlns="http://www.w3.org/2000/svg"><path d="m229 41.149-8.77 2.332c-13.5 3.449-14.117 23.184-.6 27.08 9.4 2.971 22.539-1.724 25.782-9.242 5.9-10.659-4.873-23.462-16.412-20.17zm6.7 15.024c-1.331 4.029-15.043 6.8-14.969 1.025a3.1 3.1 0 0 1 2.334-3.086l8.77-2.332a3.215 3.215 0 0 1 3.865 4.393z"/><path d="m452.183 378.791c-6.74-5.142-14.718-7.35-22.059-8.109 16.484-18 11.21-58.445-11.756-67.971 68.571-83.429 44.186-218.411-88.168-264.338-38.7-14.25-72.03-17.073-76.7-17.41-4.848-1.164-39.536-8.718-58.576 8.268a51.751 51.751 0 0 1 -11.924 8.184l-13.456 6.511c-.08.039-.16.08-.238.123-.866.472-21.209 11.875-19.644 37.68a33.206 33.206 0 0 0 11.948 23.524c-22.331 16.433-43.171 11.354-53.652-4.73-3.777-6.138-13.028-.683-9.468 5.6a43.746 43.746 0 0 0 7.9 9.3c-9.815.886-12.748-6.937-17.946-.017a5.5 5.5 0 0 0 2.171 7.469 33.076 33.076 0 0 0 14.622 3.6 24.512 24.512 0 0 0 12.743-3.437c17.171 7.174 32.869 2.81 49.851-8.723 4.583-3.643 10.041-1.244 15.31-1.258h93.294a103.878 103.878 0 0 1 40.871 8.326 54.537 54.537 0 0 1 23.749 19.576c36.5 54.064 8.509 127.382-61.5 157.434h-106.755c-26.126-13.923-58.865-41.362-66.72-93.059a19.779 19.779 0 0 0 -6.545-11.965c-10.562-9.66-28.91-3.893-31.935 10.128-5.417 22.352-9.907 64.229 18.228 99.638-25.83 13.5-25.394 51.773-6.717 69.994-44.74 6.478-67.078 65.894-20.712 91.106a83.864 83.864 0 0 0 36.259 11.294c25.009 1.946 88.249 6.179 164.367 6.179 49.246 0 103.888-1.773 157.042-7.082a65.408 65.408 0 0 0 25.793-9.674c11.8-7.631 25.787-22.676 25.376-51.017-.229-15.872-5.294-27.698-15.053-35.144zm-175.743-276.73h-90.382c-12.795.911-24.636-7.707-25.413-21a29.671 29.671 0 0 1 13.849-27.31c9.193-4.453 20.016-8.934 27.753-16.313 15.679-13.987 48.707-5.777 49.034-5.694a5.408 5.408 0 0 0 1.028.162 293.651 293.651 0 0 1 74.091 16.794 242.782 242.782 0 0 1 32.421 14.644c1.562 8.621-4.051 11.144-10.579 10.579a5.506 5.506 0 0 0 -6.115 4.775c-.463 7.121 7.392 6.813 12.839 5.783 1.838 7.684-4.174 11.264-8.227 11.912a5.5 5.5 0 0 0 1.649 10.876 23.66 23.66 0 0 0 12.313-6.173c7.642 2.052 16.048 1.456 21.67-6.212 4.114-5.943-4.623-12.216-8.937-6.412-1.885 2.628-4.924 2.908-7.494 2.536a26.092 26.092 0 0 0 -.9-11.676 16.884 16.884 0 0 0 4.7-9.593c96.668 58.391 87.835 174.37 37.49 229.27-4.713-1.19-33.782-.387-39.119-.607 20.926-24.254 29.3-60.136 22.972-94.667-8.468-56.901-56.207-102.379-114.643-101.674zm85.349 56.449c13.93 19.915 21.267 48.594 20.293 73.035-10.91 1.923-17.018-3.813-18.788-5.836a97.644 97.644 0 0 0 -1.505-67.199zm-9.05 90.208a129.571 129.571 0 0 0 6.247-12.059c4.131 3.646 13.726 7.392 22.148 6.145a95.321 95.321 0 0 1 -10.6 32.749c-14.957 4.63-25.875-3.377-30.786-8.186a142.637 142.637 0 0 0 12.991-18.649zm-20.357 26.888c6.36 6.152 17.318 12.645 30.095 12.308-2.9 4.051-6.285 6.953-9.021 10.483h-50.017a139.477 139.477 0 0 0 28.943-22.791zm-254.091-69.513c2.167-9.109 15.63-8.384 16.915.9a133.489 133.489 0 0 0 56.594 91.407c-1.952.057-50.428-.105-52.585.051-.812.111-1.685.274-2.6.481-26.25-30.648-24.515-67.311-18.324-92.839zm-1.57 130.1c1.7-22.053 20.812-26.289 23.673-26.8 0-.013 299.86.011 299.887 0 1.059-.042 26.344-.27 28.292 28.918 1.709 16.636-6.928 30.609-20.371 33.687h-197.06a20.882 20.882 0 0 0 .542-3.613c6.6-1.753 15.66-6.872 16.018-17.645.117-7.235-10.654-7.583-11-.365-.138 4.17-4.035 6.161-6.786 7.055a35.86 35.86 0 0 0 -5.457-9.14c1.707-7.188-1.082-13.758-8.009-20.425a5.5 5.5 0 0 0 -7.57 7.981c2.546 2.416 5.485 5.983 5.019 9.257-.5 3.508-4.66 6.371-6.227 7.18-5.139 2.494-3.127 10.533 2.494 10.4 3.134-.372 3.812-1.187 7.915-4.383 2.83 4.718 3.514 9.174 1.523 13.693h-105.048c-4.294-2.881-19.462-14.649-17.835-35.793zm338.2 127.493c-17.978 1.8-36.129 3.181-54.185 4.23a25.156 25.156 0 0 0 3.631-12.019c6.611-1.978 15.648-7.452 15.648-18.373-.124-7.228-10.876-7.229-11 0 0 4.318-3.988 6.49-6.772 7.485a36.28 36.28 0 0 0 -5.884-9.165c1.5-7.338-1.536-13.888-8.776-20.409a5.5 5.5 0 0 0 -7.3 8.227c2.678 2.378 5.8 5.919 5.427 9.29-.391 3.61-4.542 6.674-6.113 7.553-4.971 2.611-2.869 10.452 2.655 10.321a5.477 5.477 0 0 0 2.62-.668 27.344 27.344 0 0 0 5.461-4.092c7.031 10.152.333 18.525-4.69 22.653-111.381 5.364-216.178-1.516-250.129-4.158a72.817 72.817 0 0 1 -31.486-9.778c-16.652-9.908-23.156-22.683-19.328-37.983 7.974-31.9 38.982-33.845 46.408-33.845 88.41 1.711 274.416 3.9 319.511-.225 17.177-3.867 45.964-1.966 45.623 31.367.637 44.245-39.672 49.403-41.321 49.593z"/><path d="m121.45 410.768a30.231 30.231 0 0 0 -7.784-12.777c-5.334-4.873-12.726 2.933-7.556 7.993 1.4 1.328 5.344 6.08 5.043 10.36-.06.845-.24 3.419-4.447 6.4-5.833 4.287.416 13.056 6.364 8.973a21.725 21.725 0 0 0 7.615-8.871c1.855 1.285 3.626 3.023 4.2 5.135 1.021 3.747-2.015 8.306-4.741 11.472a5.5 5.5 0 0 0 8.336 7.178c6.522-7.575 8.877-14.849 7-21.62-2.329-8.378-10.323-12.666-14.03-14.243z"/></svg>