<svg id="icons" height="512" viewBox="0 0 500 500" width="512" xmlns="http://www.w3.org/2000/svg"><path d="m488.675 403.962a78.939 78.939 0 0 0 -37.791-13.86v-56.542a5.5 5.5 0 0 0 -6.758-5.354c-28.052 6.59-45.412 21.006-56.119 35.543a364.029 364.029 0 0 0 -41.487-31.637c-.444-.416-32.61-22.032-55.479-32.717a211.875 211.875 0 0 0 -9.417-120.384 441.5 441.5 0 0 1 69.494 44.033 5.5 5.5 0 0 0 8.644-2.789 88.186 88.186 0 0 0 2.014-34.432c-2.439-23.122-20.95-47.665-56.089-54.288 3.968-1.337 7.918-2.642 11.82-3.877a5.5 5.5 0 0 0 3.829-4.887l1.2-18.423 11.964 14.752a5.494 5.494 0 0 0 5.727 1.839c46.715-12.817 73.24-13.661 73.5-13.668a5.5 5.5 0 0 0 4.955-7.576 102.241 102.241 0 0 0 -25.158-34.12c-47.766-45.167-141.642-17.8-155.648 47.884-35.961-83.619-128.126-36.959-154.03-16.305a5.5 5.5 0 0 0 2.561 9.835c33.446 4.555 69 13.69 102.285 25.245-54.943 16.794-78.411 68.345-72.325 109.191a5.536 5.536 0 0 0 8.758 3.462c11.737-8.949 23.084-17.4 33.727-25.108a5.494 5.494 0 0 0 2.231-3.779l1.192-9.712c3.055 2.414 6.5 6.371 10.629 3.447 6.532-4.6 12.954-9.037 19.086-13.17a5.5 5.5 0 0 0 2.425-4.468l.15-8.871c3.009 2.761 6.232 7.393 10.815 4.482 8.676-5.627 17.063-10.827 25.026-15.524 12.262 52.837-4.244 103.48-12.9 124.767-49.614 19.878-114.95 61.073-149.479 92.951-38.369-2.602-58.466 17.298-58.221 19.165a5.5 5.5 0 0 0 -.862 2.954v39.167a5.5 5.5 0 0 0 5.5 5.5h471.112a5.5 5.5 0 0 0 5.5-5.5v-42.7a5.5 5.5 0 0 0 -2.381-4.526zm-261.175-242.833c-7.774 4.53-15.968 9.553-24.447 14.987l-9.973-9.531a5.5 5.5 0 0 0 -9.3 3.884l-.315 18.577c-4.389 2.977-8.91 6.094-13.5 9.306l-8.488-6.849a5.538 5.538 0 0 0 -8.913 3.61l-2.106 17.167c-7.644 5.558-15.631 11.478-23.85 17.677-.04-17.566 4.921-55.061 44.564-77.943 27.823-16.064 46.991-13.467 59.1-7.052a20.763 20.763 0 0 0 -2.772 16.167zm-15.587-32.185c-16.568-6.337-32.816-11.713-48.542-16.363l5.23-9.973c3.247-6.46-6.276-11.455-9.742-5.109l-6.3 12.018c-17.2-4.7-33.967-8.441-50.454-11.238 18.432-11.126 55.464-29.388 86.626-19.27 20.837 6.763 36.082 25.44 45.314 55.51a53.876 53.876 0 0 0 -22.134-5.575zm227.971 211.784v49.044c-11.843.226-22.282 1.692-31.035 4.4a52.023 52.023 0 0 1 -24.653 1.65c5.093-17.486 18.804-43.901 55.688-55.094zm-125.035-195.167c38.532 13.165 38.347 47.656 36.027 63.49a451.751 451.751 0 0 0 -42.084-27.741l7.338-9.8a5.5 5.5 0 0 0 -8.8-6.594l-8.184 10.93c-9.039-4.973-17.2-9.063-24.157-12.338-4.355-8.786-7.243-14.518-11.373-20.284 11.397-3.862 28.291-5.502 51.233 2.337zm-5.189-88.088c40.094-11.473 77.431 7.035 95.256 39.419-11.145 1.1-32.945 4.146-64.129 12.5l-18.551-22.88a5.5 5.5 0 0 0 -9.761 3.106l-1.871 28.7c-9.846 3.4-20.392 6.405-30.2 10.765a70.4 70.4 0 0 0 -28.269 7.007 20.637 20.637 0 0 0 -7.055-.372c1.946-22.69 12.688-65.195 64.58-78.245zm-64.908 89.506a9.674 9.674 0 0 1 11.039 4.161 194.993 194.993 0 0 1 19.084 41.749 52.453 52.453 0 0 0 -29.424 7.511 177.055 177.055 0 0 0 -7.131-41.271 9.742 9.742 0 0 1 6.432-12.15zm-6.972 123.727c2.677-1.1 12.433-4.3 28.9-1.1a5.5 5.5 0 0 0 2.1-10.8c-12.431-2.419-21.845-1.678-28.081-.379a228.871 228.871 0 0 0 5.06-44.788 41.52 41.52 0 0 1 32.442-9.4 200.423 200.423 0 0 1 2.418 91.214 98.1 98.1 0 0 0 -49.859-2.325c2.272-6.228 4.745-13.798 7.02-22.422zm-19.5 37.718c45.294-19.147 82.985 7.417 115.916 28.677-20.769 15.124-42.042 12.852-56.749 7.913a53.507 53.507 0 0 0 -36.672.937c-14.388 5.695-34.357 10.24-47.773-.445-8.674-6.91-15.525-11.37-20.936-14.1a351.93 351.93 0 0 1 46.219-22.982zm-58.2 30.262c1.373.1 8.368 1.323 26.069 15.423 8.138 6.483 17.679 8.851 27.279 8.851 11.081 0 22.237-3.156 31.4-6.78a42.488 42.488 0 0 1 29.122-.739c14.792 4.969 43.056 9.737 69.926-11.92a367.956 367.956 0 0 1 38.1 29.57 95.364 95.364 0 0 0 -8.372 19.8c-17.182-5.223-40.273-3.587-55.572 2a52.323 52.323 0 0 1 -36.905.086c-20.4-8.227-44.214-5.625-62.664-.417a52.192 52.192 0 0 1 -32.452-.546 79.538 79.538 0 0 0 -25.919-4.285c-37.478-.52-39.568 17.516-78.151 2.638 19.819-16.867 47.764-38.167 78.144-53.681zm319.971 107h-460.107v-31.704c6.242-8.72 41.242-19.552 66.137-8.717a64.035 64.035 0 0 0 44.564-.045c14.14-5.132 36.126-6.492 51.792-.807a63.125 63.125 0 0 0 39.252.662c9.413-2.887 20.615-4.349 33.3-4.349a63.669 63.669 0 0 1 22.259 4.539 64.035 64.035 0 0 0 44.564-.045c14.1-5.124 36.085-6.489 51.725-.83a61.907 61.907 0 0 0 38.564.288c19.788-5.948 49.151-6.335 67.959 6.771z"/></svg>