<?xml version="1.0"?>
<svg xmlns="http://www.w3.org/2000/svg" id="icon" viewBox="0 0 512 512" width="512" height="512"><title>public park</title><path d="M213.889,121.631a5.571,5.571,0,0,0-7.624,2,99.337,99.337,0,0,0-12.046,67.412c.137.78.281,1.562.434,2.357a96.676,96.676,0,0,0,3.745,13.834,5.572,5.572,0,1,0,10.511-3.7A85.763,85.763,0,0,1,205.6,191.3q-.21-1.1-.405-2.2a88.182,88.182,0,0,1,10.695-59.844A5.574,5.574,0,0,0,213.889,121.631Z"/><path d="M225.112,100.321c-1.091,1-2.185,2.04-3.248,3.1a5.572,5.572,0,1,0,7.875,7.885c.947-.944,1.918-1.872,2.888-2.758a5.572,5.572,0,1,0-7.515-8.23Z"/><path d="M246.881,97.136a5.555,5.555,0,0,0,2.67-.686,86.7,86.7,0,0,1,32.5-10.173c2.255-.244,3.567-.3,3.573-.3a5.571,5.571,0,0,0,4.855-3.222c20.2-43.515,66.679-41.177,68.7-41.049,40.606,2.256,59.9,23.26,68.932,40.484a5.572,5.572,0,0,0,9.869-5.178c-10.374-19.777-32.359-43.888-78.128-46.43-.551-.037-53.814-2.942-78.033,44.513-.3.028-.625.062-.963.1A97.775,97.775,0,0,0,244.2,86.674a5.574,5.574,0,0,0,2.682,10.462Z"/><path d="M420.7,470.316a5.573,5.573,0,0,0,0,11.145h4.106a5.573,5.573,0,0,0,0-11.145Z"/><path d="M82.767,235.565a5.573,5.573,0,1,0,0,11.145h9.224a5.573,5.573,0,0,0,0-11.145Z"/><path d="M153.7,475.888a5.573,5.573,0,0,0-5.573-5.572h-5.709a5.573,5.573,0,1,0,0,11.145h5.709A5.573,5.573,0,0,0,153.7,475.888Z"/><path d="M68.177,481.461h49.029a5.573,5.573,0,0,0,0-11.145H95.175v-48.2a5.572,5.572,0,1,0-11.144,0v48.2H73.75V405.4H227.807v64.919H210.933a5.573,5.573,0,0,0,0,11.145H268.5a5.573,5.573,0,1,0,0-11.145h-8.124V420.722a5.573,5.573,0,1,0-11.145,0v49.594H238.952V405.4h36.725a19.464,19.464,0,0,0,19.443-19.442v-16.43a5.573,5.573,0,0,0-5.573-5.573h-50.6V349.171h10.281v2.243a5.573,5.573,0,1,0,11.145,0v-2.243h29.169a5.573,5.573,0,0,0,5.573-5.573V321.177a20.589,20.589,0,0,0-20.565-20.567h-35.6V284.126h10.281v3.947a5.573,5.573,0,0,0,11.145,0v-3.947h29.169a5.573,5.573,0,0,0,5.573-5.573V259.881A24.344,24.344,0,0,0,270.8,235.565H122.666a5.573,5.573,0,0,0,0,11.145H270.8a13.186,13.186,0,0,1,13.171,13.171v13.1H39.006v-13.1A13.187,13.187,0,0,1,52.178,246.71h1.834a5.573,5.573,0,1,0,0-11.145H52.178a24.344,24.344,0,0,0-24.317,24.316v18.672a5.573,5.573,0,0,0,5.573,5.573H62.605V300.61H48.427a20.589,20.589,0,0,0-20.566,20.567V343.6a5.573,5.573,0,0,0,5.573,5.573H62.605v14.781H33.434a5.573,5.573,0,0,0-5.573,5.573v16.43A19.464,19.464,0,0,0,47.3,405.4a5.572,5.572,0,0,0,0-11.144,8.307,8.307,0,0,1-8.3-8.3V375.1H283.975v10.858a8.307,8.307,0,0,1-8.3,8.3H68.177a10.166,10.166,0,0,0-5.572,8.358v67.7h-6.2a5.573,5.573,0,0,0,0,11.145ZM73.75,284.126H84.031v3.947a5.572,5.572,0,0,0,11.144,0v-3.947H227.807V300.61H73.75ZM39.006,321.177a9.433,9.433,0,0,1,9.421-9.422H274.555a9.432,9.432,0,0,1,9.42,9.422v16.849H39.006ZM73.75,349.171H84.031v2.243a5.572,5.572,0,1,0,11.144,0v-2.243H227.807v14.781H73.75Z"/><path d="M483.693,196.654c.29-2.844,6.561-69.9-39.033-93.931-20.332-10.717-36.393,3.98-37.068,4.609a5.573,5.573,0,0,0,7.619,8.136c.106-.1,10.86-9.945,24.252-2.887,38.919,20.517,33.2,82.326,33.147,82.9-6.7,61.413-69.738,64-72.409,64.082a5.573,5.573,0,0,0-3.791,1.631c-26.1,26.1-63.069,27.3-63.31,27.31a137.348,137.348,0,0,1-19.321-1.347,5.572,5.572,0,1,0-1.573,11.033,148.875,148.875,0,0,0,20.986,1.457h.029a111.57,111.57,0,0,0,30.057-5.815v176.48h-26.92V319.3a5.573,5.573,0,1,0-11.145,0V470.316H312.792a5.573,5.573,0,0,0,0,11.145h81.687a5.573,5.573,0,0,0,0-11.145H374.423V395.061A32.5,32.5,0,0,1,387.346,369.2l12.115-9.1a33.161,33.161,0,0,0,13.185-26.39V316.057a5.573,5.573,0,0,0-11.145,0v17.652a21.964,21.964,0,0,1-8.733,17.478l-12.113,9.095a43,43,0,0,0-6.232,5.746V289.485a101.027,101.027,0,0,0,28.335-18.909,106.542,106.542,0,0,0,36.149-9.752C457.094,252.121,479.626,233.932,483.693,196.654Z"/></svg>
