<?xml version="1.0"?>
<svg xmlns="http://www.w3.org/2000/svg" id="icon" viewBox="0 0 512 512" width="512" height="512"><title>tree swing</title><path d="M321.489,468.225a5.573,5.573,0,0,0,5.573,5.572H429.307a5.573,5.573,0,1,0,0-11.145h-24.23c-.957-10.193-4.612-18.37-10.921-24.343-7.695-7.282-17.35-9.266-22.927-9.78A46.323,46.323,0,0,0,347.07,400.78c-12.043-5.86-26.136-6.637-39.685-2.185q-1.547.51-3,1.054a5.572,5.572,0,1,0,3.9,10.44c.837-.311,1.7-.616,2.583-.907,10.782-3.541,21.908-2.965,31.328,1.619,10.026,4.88,16.557,13.123,19.408,24.5a5.612,5.612,0,0,0,5.687,4.211c.1-.02,11.532-.439,19.276,6.959,4.034,3.853,6.484,9.281,7.314,16.181H327.062A5.573,5.573,0,0,0,321.489,468.225Z"/><path d="M432.15,251.083a5.575,5.575,0,0,0-6.234,4.82c-3.637,28.416-52.614,27.3-53.095,27.292a5.62,5.62,0,0,0-5.432,3.728c-7.582,21.643-36.748,22.02-37.03,22.021-19.84,0-36.737-5.821-50.218-17.3a5.574,5.574,0,1,0-7.227,8.487A81.014,81.014,0,0,0,300.76,315.64V317.9a36.14,36.14,0,0,1-12.908,27.6V325.767a5.573,5.573,0,1,0-11.145,0V356.68a5.572,5.572,0,0,0,8.9,4.467l7.351-5.483a47.309,47.309,0,0,0,18.927-37.224,101.752,101.752,0,0,0,18.47,1.649c1.452,0,34.219-.307,46.038-25.761,13.439-.32,56.343-3.947,60.574-37.01A5.573,5.573,0,0,0,432.15,251.083Z"/><path d="M181.541,266.959a5.573,5.573,0,0,0-5.572,5.573v11.221a48.426,48.426,0,0,0,19.478,38.721l3.787,2.812a37.237,37.237,0,0,1,14.977,29.774v81.567c0,7.364-2.469,13.906-6.776,17.948-5.813,5.458-17.068,7.7-20.906,8.106a5.572,5.572,0,0,0,.564,11.116H302.558a5.573,5.573,0,1,0,0-11.145H287.852V397.879l23.631-23.9a58.04,58.04,0,0,0,16.509-35.651,5.572,5.572,0,1,0-11.1-.976,46.87,46.87,0,0,1-13.334,28.791l-25.241,25.526a5.577,5.577,0,0,0-1.609,3.919v67.062H215.115c6.6-6.229,10.241-15.468,10.241-26.025v-143.3a5.573,5.573,0,1,0-11.145,0v30.931a47.851,47.851,0,0,0-8.332-7.918l-3.788-2.812a37.229,37.229,0,0,1-14.977-29.772V272.532A5.573,5.573,0,0,0,181.541,266.959Z"/><path d="M162.3,70.215c-1.442,1.36-2.855,2.775-4.2,4.2a5.572,5.572,0,0,0,8.116,7.638c1.194-1.268,2.448-2.524,3.731-3.735a5.572,5.572,0,0,0-7.649-8.1Z"/><path d="M348.617,132.276a5.573,5.573,0,1,0,10.737,2.993,35.462,35.462,0,0,0,1.1-7.716,65.547,65.547,0,0,0-7.738-34.243C334.746,59.833,293.86,38.2,248.555,38.2a133.781,133.781,0,0,0-61.018,14.32,5.572,5.572,0,1,0,5.1,9.91,122.6,122.6,0,0,1,55.919-13.085c41.254,0,78.286,19.325,94.341,49.232A54.424,54.424,0,0,1,349.323,127,24.66,24.66,0,0,1,348.617,132.276Z"/><path d="M433.118,163.738c-6.228-20.525-21.768-37.906-43.151-48.074a5.572,5.572,0,1,0-4.786,10.064c19.624,9.333,33.523,25.508,38.129,44.379a5.573,5.573,0,0,0,4.788,4.216c24.069,2.721,42.219,13.6,42.219,25.306,0,12.286-22.238,25.975-54.148,25.975-1.777,0-3.635-.049-5.525-.144a5.577,5.577,0,0,0-4.231,1.635c-14.6,14.666-35.744,23.076-58.029,23.076a85.544,85.544,0,0,1-33.905-6.852,5.573,5.573,0,0,0-6.2,1.248c-13.757,14.231-34.368,22.392-56.548,22.392-25.286,0-48.258-10.511-61.447-28.116a5.574,5.574,0,0,0-7.061-1.587c-15.775,8.329-36.568,12.915-58.552,12.915-44.982,0-82.985-19.857-82.985-43.362,0-16.095,18.091-31.3,46.091-38.739a5.576,5.576,0,0,0,3.932-3.871,48.419,48.419,0,0,1,46.428-35.109q1.28,0,2.544.067a5.6,5.6,0,0,0,5.834-5.078,65.221,65.221,0,0,1,5-19.838,5.572,5.572,0,1,0-10.252-4.367,76.718,76.718,0,0,0-5.224,18.108A59.649,59.649,0,0,0,81.93,158.126c-31.789,9.222-51.392,27.7-51.392,48.683,0,30.564,41.347,54.507,94.13,54.507,21.918,0,42.881-4.291,59.617-12.143,15.584,18.2,40.422,28.931,67.443,28.931,23.786,0,46.1-8.386,61.853-23.125a96.928,96.928,0,0,0,34.8,6.337c24.344,0,47.572-8.946,64.149-24.626,1.235.04,2.451.059,3.636.059,36.613,0,65.293-16.305,65.293-37.12C481.462,182.422,461.773,167.963,433.118,163.738Z"/><path d="M73.093,266.959a5.573,5.573,0,0,0-5.572,5.573V397.923H58.643A5.573,5.573,0,0,0,53.07,403.5v6.027A21.751,21.751,0,0,0,74.8,431.247h51.745a21.75,21.75,0,0,0,21.725-21.725V403.5a5.572,5.572,0,0,0-5.572-5.572h-9.348V281.82a5.573,5.573,0,1,0-11.145,0v116.1H78.666V272.532A5.573,5.573,0,0,0,73.093,266.959Zm64.029,142.563a10.592,10.592,0,0,1-10.58,10.58H74.8a10.593,10.593,0,0,1-10.582-10.58v-.454h72.907Z"/><path d="M454.97,462.652h-.117a5.523,5.523,0,0,0-5.514,5.573,5.6,5.6,0,1,0,5.631-5.573Z"/></svg>
