<svg id="icons" height="512" viewBox="0 0 500 500" width="512" xmlns="http://www.w3.org/2000/svg"><path d="m38.052 232.175c2.722 17.94 8.491 33.97 16.706 47.424-2.669 17.728-10.313 21.839-24.743 36.082a25.874 25.874 0 0 0 -2.274 35.99c9.742 11.43 17.734 22.131 23.111 30.944a23.546 23.546 0 0 0 21.563 11.254c7.335-.791 20.234.693 32.449 4.322a5.5 5.5 0 0 0 5.136-3.537 32.028 32.028 0 0 0 1.2-16.163c-4.134-17.888-18.919-17.352-33.6-20.177-9.65-7.631-12.945-21.92-1.792-30.871a60.1 60.1 0 0 1 20.2-10.041 133 133 0 0 0 40.592 12.305c.538 12.875 1.488 50.154-4.285 70.895-4.266 9.087-13.012 24.135-19.43 28.081-6.015 1.657-15.973 8.071-15.973 22.468a5.5 5.5 0 0 0 5.5 5.5h27.539a29.409 29.409 0 0 0 22.949-10.963 129.23 129.23 0 0 0 20.433-34.969 5.5 5.5 0 0 0 .307-1.238l9.43-74.263c7.323-.658 21.846-3.5 41.97-14.766 13.887 12.695 33.686 38.008 29.952 60.793-2.589 10.018-6.9 24.087-12.727 34.221-4.186 7.377-11.015 9.565-18.931 10.721a20.083 20.083 0 0 0 -15.542 18l-.523 6.528a5.535 5.535 0 0 0 5.482 5.94h18.236a39.133 39.133 0 0 0 27.468-11.177l20.079-19.583c2.167-1.72 13.278-39.017 29.352-57.89a5.538 5.538 0 0 0 -1.836-8.533c-.167-.079-14.454-7.2-16.526-33.129a101.6 101.6 0 0 0 18.072 15.951 5.5 5.5 0 0 0 7.474-1.112l2.49-3.169 17.826 14.585c.8 6.431 2.572 27.709-5.659 47.494-5.166 7.337-19.6 25.636-29.621 29.488-4.541 1.97-11.561 8.451-11.649 21.575a5.5 5.5 0 0 0 5.5 5.5h21.007a31.623 31.623 0 0 0 20.673-7.709 144.774 144.774 0 0 0 32.486-41.427c1.5-2.854.76-31.713 19.407-64.28a5.548 5.548 0 0 0 -2.789-7.88c-1.334-.517-32.609-13.013-27.949-43.307 1.758-11.422 2.788-21.264 3.374-29.388 7.26 10.26 20.418 21.537 43.445 22.673 23.635 1.168 45.194-7.021 53.3-11.513a5.538 5.538 0 0 0 .564-9.261l-2.95-2.141a47.317 47.317 0 0 0 17.346-17.4c11.115-19.059 11.138-46.346.068-81.105-1.608-5.34-9.63-4.89-10.636.6-3.982 20.289-21.657 54.643-51.4 52.964-13.666-.162-25.864-6.449-36.263-18.686-1.929-3.1-12.557-18.4-37.589-24.057a81.488 81.488 0 0 1 -16.851-5.7c-11.989-5.672-30.845-12.2-52.654-11.115-22.457 1.124-64.167 3.2-91.315-14.544-4.052-18.92-11.578-31.582-15.066-36.7 8.362-28.407.728-61.808-3.7-62.777a5.5 5.5 0 0 0 -4.352-.21c-21.376 8.028-33.113 25.446-37.426 33.148a114.806 114.806 0 0 0 -43.968 3.749c-14.2-18.679-35.84-27.628-36.807-28.021a5.5 5.5 0 0 0 -7.162 3.017c-13.45 32.95-3.85 61.051-.72 68.635-15.514 58.999 4.311 96.341 12.022 107.955zm31.031 86.56c-17.969 14.343-12.556 38.244 3.006 49.244.633 1.145 18.093 3.555 19.5 3.99 6.673 1.03 9.863 7.73 9.073 13.745a93.9 93.9 0 0 0 -28.9-2.825 12.559 12.559 0 0 1 -11.517-6c-5.755-9.433-13.874-20.317-24.13-32.351a14.912 14.912 0 0 1 1.332-20.743c13.43-13.136 20.927-18.311 25.824-32.272a97.474 97.474 0 0 0 20.439 18.637 68.485 68.485 0 0 0 -14.627 8.575zm226.726 46.886c-12.947 18-23.59 46.854-25.881 53.3l-19.156 18.679a28.193 28.193 0 0 1 -19.788 8.052h-12.277a9.176 9.176 0 0 1 6.869-8.694l5.258-1.025a31 31 0 0 0 20.966-14.983c6.443-11.2 11.083-26.277 13.842-36.952 5.113-26.481-14.83-53.9-30.826-69.428 10.411-7.195 22.553-11.349 39.541-13.637a63.668 63.668 0 0 0 4.342 9.988c-3.018 31.62 9.613 48.592 17.11 54.7zm-260.897-300.377c7.27 3.842 20.602 12.131 29.088 24.856a5.511 5.511 0 0 0 6.483 2.108c.216-.079 21.842-7.884 46.445-3.954.615.105 6.864.633 14.094 6.391a5.477 5.477 0 0 0 3.476 1.241c4.951.185 7.524-6.7 3.482-9.76a41.808 41.808 0 0 0 -11.917-6.826c4.035-6.323 11.93-16.42 24.238-22.779 2.161 10.042 5.2 30.877-1.428 49.228a5.524 5.524 0 0 0 .88 5.3c.193.243 19.263 24.7 17 65.091-.291 7.2 10.455 7.847 10.982.614a128.743 128.743 0 0 0 -.37-19.507c29.492 14.668 68.087 12.742 89.785 11.658 20.5-1.021 38.457 5.873 47.341 10.076a92.535 92.535 0 0 0 19.128 6.482c23.277 5.476 30.117 18.605 31.32 20.081 32.5 39.165 83.76 25.7 101.27-20.569 7.732 31.827.528 64.022-23.932 70.785-4.557.8-5.937 7.243-2.1 9.834l3.161 2.3c-45.344 16.719-77.748.491-82.729-32.531a88.336 88.336 0 0 0 -3.353-17.018 5.5 5.5 0 0 0 -10.441 3.46c4.274 17.149 4.686 24.5-.9 68.57-4.222 27.444 14.864 45.061 29.185 52.642a160.018 160.018 0 0 0 -17.265 60.39 133.255 133.255 0 0 1 -29.4 37.214 20.618 20.618 0 0 1 -13.478 5.03h-14.747a10.14 10.14 0 0 1 4.146-5.928c15.151-6.068 32.76-30.988 34.729-33.827 11.8-27.025 8.464-58.249 4.922-60.459l-23.827-19.494a5.534 5.534 0 0 0 -7.808.859l-2.662 3.388c-22.8-18.2-25.66-35.345-25.95-36.627a133.117 133.117 0 0 1 -4.241-40.965 5.5 5.5 0 1 0 -10.975-.734 141.738 141.738 0 0 0 3.143 38.338c-16.744 2.336-30.445 6.958-40.772 13.781-16.984 11.222-30.386 16.286-39.363 18.568 23.2-31.233 23.961-64.462 23.984-66.024a5.5 5.5 0 0 0 -11-.163c-.053 4.973-2.154 38.7-31.637 72.131-.335.883-9.9 78.072-10.093 78.954a118.565 118.565 0 0 1 -18.458 31.316 18.457 18.457 0 0 1 -14.4 6.886h-21.083c2.81-6.107 6.071-5.714 8.649-6.949 12.424-6.915 23.715-31.043 25.265-34.667 7.463-29.359 5.722-77.7 3.653-82.253a5.587 5.587 0 0 0 -2.411-1.989 48.675 48.675 0 0 1 -27.752-30.181 5.5 5.5 0 0 0 -10.669 2.688 57.676 57.676 0 0 0 12.346 22c-45.332-13.991-62.333-48.733-68.195-78.89l6.089-8.11c22.239 28.677 64.337 39 67.245 39.349 7.706-.807 20.264-22.119 23.335-26.965l3.969 3.534a5.536 5.536 0 0 0 8.543-1.582 180.209 180.209 0 0 0 13.784-34.749c1.8-6.991-8.566-9.866-10.606-2.919a164.449 164.449 0 0 1 -9.8 26.233l-3.682-3.278a5.536 5.536 0 0 0 -8.534 1.564c-.1.183-9.017 17.172-18.5 26.554-10.27-2.983-46.2-14.957-60.758-40a5.536 5.536 0 0 0 -9.155-.535l-6.361 8.481c-9.686-11.432-25.571-74.237-.15-113.956 3.731-6.177-5.373-11.906-9.321-5.845-.095.153-1.309 2.1-3.065 5.44a82.809 82.809 0 0 1 2.128-43.382z"/><path d="m88.276 142.276a80.935 80.935 0 0 1 9.736 2.191 5.5 5.5 0 0 0 1.582.233c6.205.014 7.606-8.949 1.579-10.769a90.9 90.9 0 0 0 -11.262-2.531c-7.164-.958-8.762 9.678-1.635 10.876z"/><path d="m127.822 140.644a5.475 5.475 0 0 0 2.838-.793 83.189 83.189 0 0 1 7.454-3.964 5.5 5.5 0 0 0 2.728-7.281c-3.92-6.264-8.269-2.262-15.868 1.829-4.762 2.752-2.559 10.34 2.848 10.209z"/><path d="m88.667 198.215c8.091 7.34 17.51 8.5 28.022 8.039a31.824 31.824 0 0 0 30.923-24.113c1.592-8.451 4.944-17.873-.13-25-5.38-7.6-14.252-5.336-22.118-5.245a13.858 13.858 0 0 0 -10.733 21.904c4.73 6.245 11.467 12.785 19.707 11.73a20.844 20.844 0 0 1 -17.649 9.72c-7.54.215-14.849.222-20.7-5.254-15-13.356-25.488-30.874-25.663-31.168a5.5 5.5 0 0 0 -9.468 5.6c.455.781 11.442 19.212 27.809 33.787zm42.447-23.9c-2.452-1.435-9.453-6.514-7.76-9.857a2.716 2.716 0 0 1 2.422-1.565l10.448-.391a2.772 2.772 0 0 1 2.391 1.153c1.889 2.8-2.31 8-4.1 10.126a2.813 2.813 0 0 1 -3.401.53z"/></svg>