<svg id="icons" height="512" viewBox="0 0 500 500" width="512" xmlns="http://www.w3.org/2000/svg"><path d="m479.568 21.707a5.532 5.532 0 0 0 -5.378-4.887c-37.247 7.172-113.939 47.758-156.817 93.923a352.354 352.354 0 0 0 -23.7 26.648c-27.916 34.816-39.556 48.933-43.328 53.462a45.488 45.488 0 0 0 -22.845 8.587c-5.8 1.094-26.007 5.98-35.116 22-7.8.913-32.264 14.21-31.116 29.227.058 2.589.158 5.762.324 9.362-21.184 15.033-53.364 40.333-70.908 67.249-21.114 31.7-38.458 23.443-69.662 81.456-1.264 3.585-.933 14.714 5.086 32.682 7.51 20.5 22.953 35.832 43.584 41.555a5.507 5.507 0 0 0 6.252-2.489c.517-.874 51.388-86.441 105.611-132.007 5.178 4.69 12.6 5.543 19.273 3.843a15.91 15.91 0 0 0 12.584-11.349 88.663 88.663 0 0 0 35.129 15.662 5.536 5.536 0 0 0 6.556-5.107l.759-14.418a24.16 24.16 0 0 0 -14.2-23.247 19.373 19.373 0 0 0 14.674-18.149c6.182-10.74 23.931-30.41 73.782-43.741a5.474 5.474 0 0 0 3.219-2.372c1.268-2.4 12.114-26.892 60.079-35.817a5.515 5.515 0 0 0 4.417-4.209c.3-1.3 7.542-31.161 41.723-38.567a5.517 5.517 0 0 0 4.332-5.546c-.039-1.406-.593-34.658 31.675-53.1a5.5 5.5 0 0 0 2.77-4.693c-.04-.697 1.373-85.322 1.241-85.958zm-278.2 206.253c4.231-8.481 13.347-13.146 20.283-15.561-7.312 27.833-6.13 61.989-3.935 85.305a88.706 88.706 0 0 1 -16.042-18.379 213.705 213.705 0 0 1 -.306-51.365zm-133.584 137.506c31.708-22.576 33.21-40.139 57.009-61.264 1.214 15.774-2.914 48.09-50.708 69.387a191.536 191.536 0 0 0 -28.033 15.479c11.239-15.234 20.856-22.919 21.732-23.602zm.965 105.634a51.147 51.147 0 0 1 -26.708-21.864c34.486-2.954 54.666-36.381 55.62-38 12.237-21.506 24.728-37.736 34.27-44.529 3.989-2.968 11.306-7.515 6.6-12.955-4.943-4.813-8.94 1.321-12.981 3.994-33.974 23.615-36.207 77.073-88.79 80.7a83.56 83.56 0 0 1 -5.3-25.314c13.211-9.741 25.927-20 47.1-29.506 49-22.994 61.2-54.61 56.023-88.432 3.693-3.249 7.4-6.363 11.034-9.313 1.605 8.073 3.327 21.245 1.3 34.75a5.5 5.5 0 0 0 10.879 1.634c2.817-18.762-.695-36.422-2.577-43.924 2.468-1.882 4.872-3.677 7.172-5.357 1.55 20.035 5.085 46.256 13.109 66.2-50.107 41.628-96.029 114.345-106.751 131.916zm133.583-131.944c-1.153 2.346-4.389 2.471-6.615 2.881a8.344 8.344 0 0 1 -9.157-4.875c-11.757-27.266-13.914-69.748-14.3-86.749.123-7.3 12.893-14.873 17.433-16.63-3.555 41.7 6.5 80.946 13.1 101.333a4.829 4.829 0 0 1 -.461 4.04zm42.539-2.632-.411 7.8c-15.286-4.387-25.4-12.586-33.256-19.253-1.993-6.729-4.12-14.845-5.984-23.957 10.618 10.649 22.879 18.216 32.585 23.136a12.986 12.986 0 0 1 7.066 12.274zm.453-42.04a8.243 8.243 0 0 1 -5.742 8.484l-9.911 3.16c-2.263-19.112-6.18-66.053 4.8-98.147a33.293 33.293 0 0 1 12.056-5.395c-4.434 33.554-2.715 71.463-1.203 91.898zm10.076-15.691c-.134-2.813-.257-5.835-.361-9.012 14.05-23.332 43.551-36.786 60.791-42.767l5.7 15.933c-35.86 10.438-55.48 24.439-66.13 35.846zm-.667-26.882c-.014-17.015.808-36.119 3.5-53.328 3.137-3.746 14.294-17.221 44.033-54.311q7.488-9.339 15.259-17.732c1.941 13.1 13.553 18.341.324 30.958a5.5 5.5 0 1 0 7.574 7.977c13.317-12.646 10.132-24.213 7.048-29.983a42.413 42.413 0 0 1 -5.146-19.155c45.772-44.258 83.521-65.148 129.4-82.773-8.2 11.419-16.913 28.642-16.533 49.956-5.5 6.328-23.388 28.806-27.693 57.7a52.271 52.271 0 0 0 -38.239 34.045c-9.45.326-30.668 5.067-50 37.593-9.771 2.569-46.66 13.614-69.532 39.053zm75.462-17.4-3.865-10.8c3.52-1.02 4.508-.7 6.285-3.346 14.947-26.157 30.342-32.439 38.545-33.8a23.866 23.866 0 0 0 7.1 19.336c-26.247 7.182-40.727 19.769-48.07 28.614zm137.177-130.078c-28.621 17.86-33.541 45.907-34.347 56.847a64.847 64.847 0 0 0 -43.818 39.313 13.689 13.689 0 0 1 -5.765-18.059c8.105-28.207 33.429-31.038 34.467-31.1a5.5 5.5 0 0 0 5-4.933c2.5-24.981 17.5-45.858 23.92-53.766a14.638 14.638 0 0 1 2.98 3.306 5.5 5.5 0 0 0 7.6 1.653c7.1-4.877-2.654-13.2-6.237-15.4-.01-20.053 9.58-36.165 17.218-45.816z"/></svg>