<?xml version="1.0"?>
<svg xmlns="http://www.w3.org/2000/svg" id="icon" viewBox="0 0 512 512" width="512" height="512"><title>animal training</title><path d="M469.555,359.723H371.289a5.573,5.573,0,1,0,0,11.145h92.693v69.3H349.7v-64.7a29.247,29.247,0,0,0-29.214-29.214H298.55a5.573,5.573,0,0,0,0,11.145h21.935a18.089,18.089,0,0,1,18.07,18.069v94.05c-12.991-1.3-46.077-6.459-77.57-26.594a5.585,5.585,0,0,0-7.692,1.687,54.263,54.263,0,0,1-10.323,11.035c-15.316,12.553-36.714,13.569-52.032,2.467a42.4,42.4,0,0,1-10.12-10.441,23.651,23.651,0,0,0,.98-12.435,16.078,16.078,0,0,0-8.209-11.033c-9.195-4.827-18.394,1.867-22.38,6.582a5.573,5.573,0,0,0,8.514,7.194c.049-.06,5.235-5.725,8.687-3.907a5.046,5.046,0,0,1,2.48,3.447,13.468,13.468,0,0,1-1.213,8.111c-1.551,2.2-10.916,14.467-23.232,9.261-.1-.041-.254-.1-.352-.136-.377-.135-9.213-3.425-10.768-14.768a37.365,37.365,0,0,1,9.282-27.083,5.573,5.573,0,1,0-8.391-7.335,49.2,49.2,0,0,0-12.105,30.823c-3.167.5-7.761.614-11.5-1.782-4.274-2.736-6.81-8.414-7.551-16.861a29.77,29.77,0,0,1,12.331-22.254,5.573,5.573,0,0,0-6.46-9.083,41.078,41.078,0,0,0-16.9,29.365L69.8,444.122A12.2,12.2,0,0,1,52.966,445.8c-4.485-3.516-6.818-10.635-3.144-15.631,16.412-22.3,27.087-35.334,50.731-58.3,9.053-8.793,21.368-14.474,31.372-14.474h61.353a5.573,5.573,0,0,0,0-11.145H131.925c-15.475,0-30.363,9.1-39.138,17.624-24.062,23.372-35.471,37.3-51.941,59.691-6.921,9.406-4.567,23.315,5.245,31.006a23.321,23.321,0,0,0,32.183-3.208L96.3,430.278c2.154,6.146,5.63,10.761,10.4,13.78,6.536,4.137,13.894,4.118,18.941,3.367a28.837,28.837,0,0,0,16.6,17.787c13.423,5.6,24.985-.822,31.982-7.737a53.171,53.171,0,0,0,10.175,9.662c19.414,14.067,46.4,12.888,65.635-2.872a70,70,0,0,0,9.332-9.243C300.808,479.8,342.2,481.038,344,481.08c.042,0,.086,0,.128,0a5.573,5.573,0,0,0,5.572-5.573v-24.2H469.555a5.573,5.573,0,0,0,5.572-5.573V365.3A5.572,5.572,0,0,0,469.555,359.723Z"/><path d="M150.516,128.873a5.687,5.687,0,0,0,.757.052,5.572,5.572,0,0,0,4.065-1.762l9.208-9.821a5.572,5.572,0,0,0-8.13-7.622l-3.3,3.523c-3.311-10.91-1.158-20.592,2.7-28.367.3.571.62,1.142.966,1.715,3.454,5.714,7.979,12.356,12.413,18.221a18.936,18.936,0,0,1,3.6,14.629,42.61,42.61,0,0,1-4.514,13.194,39.66,39.66,0,0,1-2.178,3.432,105.469,105.469,0,0,0-13.487,28.31,5.572,5.572,0,1,0,10.652,3.276,95.241,95.241,0,0,1,11.987-25.226,50.235,50.235,0,0,0,2.792-4.421,53.727,53.727,0,0,0,5.724-16.635,30.109,30.109,0,0,0-5.688-23.28c-4.213-5.572-8.5-11.866-11.766-17.265-6.615-10.943.159-21.825.43-22.251a36.18,36.18,0,0,1,27.866-16.421,35.376,35.376,0,0,1,29.242,12.055c13.607,15.469,12.215,34.522,11.706,38.747a33.067,33.067,0,0,0-3.685,1.821,5.573,5.573,0,1,0,5.589,9.643,22.378,22.378,0,0,1,23.83.921c26.773,18.491,49.793,62.731,50.021,63.176.069.133.144.267.224.394,7.746,12.427,13.123,24.393,15.983,35.566a5.573,5.573,0,0,0,10.8-2.765c-3.128-12.221-8.917-25.177-17.2-38.508-1.989-3.821-25.088-47.417-53.488-67.032a33.421,33.421,0,0,0-20.667-5.825c.438-9.026-.706-27.545-14.739-43.5a46.417,46.417,0,0,0-38.388-15.812,47.242,47.242,0,0,0-36.4,21.412,35.785,35.785,0,0,0-5.16,17.172c-.04.05-.09.087-.129.139-13.4,17.7-15.468,37.649-5.817,56.168A5.575,5.575,0,0,0,150.516,128.873Z"/><path d="M250.879,231.519c1.791.855,16.921,7.965,30.054,10.591a5.5,5.5,0,0,0,1.1.11,5.573,5.573,0,0,0,1.087-11.038c-12.282-2.457-27.409-9.706-27.56-9.779-.072-.034-.147-.049-.22-.08s-.144-.081-.223-.111c-27.758-10.529-34.292-35.219-34.552-36.246a5.363,5.363,0,0,0-.191-.617A75.214,75.214,0,0,1,218.759,135,5.572,5.572,0,1,0,208.1,131.73a86.072,86.072,0,0,0,1.726,56.241C210.807,191.594,219.254,219.374,250.879,231.519Z"/><path d="M217.716,121.755a5.569,5.569,0,0,0,7.539-2.294q.861-1.615,1.746-3.131a5.573,5.573,0,1,0-9.638-5.6q-.979,1.684-1.941,3.482A5.572,5.572,0,0,0,217.716,121.755Z"/><path d="M345.638,291.214l-13.5-13.451a5.572,5.572,0,0,0-7.867,7.894l13.778,13.731c.106.106.229.183.342.279s.208.2.33.292a54.545,54.545,0,0,1,7.465,6.93,10.485,10.485,0,0,0,7.839,3.558,10.752,10.752,0,0,0,4.291-.906,10.383,10.383,0,0,0,6.281-10.6c-1.762-19.676-7.506-49.017-24.865-77.06l-.011-.015a5.681,5.681,0,0,0-.539-.7,5.59,5.59,0,0,0-.833-.783c-.036-.027-.065-.062-.1-.089a5.58,5.58,0,0,0-.659-.385c-.1-.05-.181-.114-.277-.158a5.363,5.363,0,0,0-.575-.2c-.151-.05-.295-.116-.451-.153a5.723,5.723,0,0,0-.613-.087c-.153-.019-.3-.056-.457-.062a5.524,5.524,0,0,0-1.1.067h-.01c-32.274,5.232-56.22-22.147-56.594-22.581a5.571,5.571,0,0,0-8.49,7.217c1.029,1.213,23.5,27.193,56.63,27.193a63.962,63.962,0,0,0,6.419-.338c14.309,24.443,19.5,49.69,21.265,67.391A65.614,65.614,0,0,0,345.638,291.214Z"/><path d="M316.782,297.829a5.573,5.573,0,0,0,1.491-10.942c-12.97-3.61-19.432-9.843-22.649-14.958,4.123,1.005,8.984,2.093,13.634,2.894a5.572,5.572,0,1,0,1.894-10.981c-9.656-1.665-20.725-4.76-22.458-5.252a45.949,45.949,0,0,1-17.971-12.625,5.572,5.572,0,1,0-8.312,7.423A57.538,57.538,0,0,0,281.94,267.86c1.735,7.176,8.343,22.805,33.345,29.763A5.58,5.58,0,0,0,316.782,297.829Z"/><path d="M194.094,68.078a5.573,5.573,0,1,0-8.508-7.2l-4.578,5.411a5.573,5.573,0,0,0,8.508,7.2Z"/><path d="M172.884,187.537a5.575,5.575,0,0,0-5.338,5.8,78.831,78.831,0,0,0,1.537,11.83,5.572,5.572,0,1,0,10.9-2.337,68.4,68.4,0,0,1-1.3-9.957A5.576,5.576,0,0,0,172.884,187.537Z"/><path d="M206.712,205.128a67.922,67.922,0,0,1-2.585-9.7,5.572,5.572,0,0,0-10.98,1.909,78.581,78.581,0,0,0,3.065,11.531,5.573,5.573,0,1,0,10.5-3.739Z"/><path d="M191.17,236.06a5.572,5.572,0,0,0,9.64-5.592A68.16,68.16,0,0,1,196.5,221.4a5.573,5.573,0,0,0-10.447,3.884A78.826,78.826,0,0,0,191.17,236.06Z"/><path d="M254.176,406.078c.158.012.314.019.469.019a5.572,5.572,0,0,0,5.547-5.11c.525-6.3,4.912-16.826,7.671-22.75a71.057,71.057,0,0,1,19.731,2.6,5.572,5.572,0,0,0,2.885-10.764,84.167,84.167,0,0,0-20.652-2.99V339.815a16.647,16.647,0,0,0,11.033-14.678l1.1-18.664a82.787,82.787,0,0,1,1.89-13.356,5.572,5.572,0,0,0-10.87-2.457,93.964,93.964,0,0,0-2.146,15.157l-1.1,18.665a5.489,5.489,0,0,1-10.943.213l-.242-2.469A46.644,46.644,0,0,0,246.47,295.29l-2.914-3.157L231.494,278.08a5.573,5.573,0,0,0-8.456,7.26l12.126,14.127c.021.025.048.041.069.065s.039.058.064.084l2.983,3.233a35.447,35.447,0,0,1,9.178,20.464l.242,2.471a16.563,16.563,0,0,0,10.982,14.046v28.163c-7.03,1.146-19.855,4.135-29.861,11.529a5.573,5.573,0,1,0,6.626,8.962c5.971-4.413,13.484-6.934,19.4-8.347-2.523,6.1-5.258,13.879-5.762,19.925A5.574,5.574,0,0,0,254.176,406.078Z"/><path d="M217.4,351.015a5.573,5.573,0,0,0,5.572-5.573V332.577a15.061,15.061,0,0,0,9.386-11.727l.888-5.629a5.573,5.573,0,1,0-11.009-1.736l-.888,5.628a3.994,3.994,0,0,1-7.9-.02,97.363,97.363,0,0,0-12.278-35.371l-30.346-51.129A76.3,76.3,0,0,1,159.4,191.707a5.574,5.574,0,0,0-5.51-5.635h-.063a5.575,5.575,0,0,0-5.572,5.51,87.256,87.256,0,0,0,13.02,46.743l30.36,51.149c.026.044.059.1.086.14a87.345,87.345,0,0,1,10.7,31.046,15.169,15.169,0,0,0,9.406,11.891v12.891A5.573,5.573,0,0,0,217.4,351.015Z"/></svg>
