<?xml version="1.0"?>
<svg xmlns="http://www.w3.org/2000/svg" id="icon" viewBox="0 0 512 512" width="512" height="512"><title>axe and log</title><path d="M439.939,67.382a98.166,98.166,0,0,0-7.728-36.305,5.572,5.572,0,0,0-9.587-.868c-21.6,30.342-140.931,90.013-185.524,107.079-7.51,2.875-20.331,8.115-26.722,10.759a5.572,5.572,0,1,0,4.26,10.3c6.34-2.621,19.045-7.816,26.446-10.649C284.5,131.08,391.27,77.864,425.117,44.242a91.191,91.191,0,0,1,3.68,23.382c.174,8.062-4.573,17.867-11.92,19.61-1.972.468-3.84.862-5.665,1.249-12.478,2.64-23.254,4.922-49.19,24.261-46.384,34.59-93.979,49.25-94.353,49.364-1.359.384-32.336,9.257-52.512,26.025a80.784,80.784,0,0,1-13.993-17.527l-16.5-27.83a5.574,5.574,0,0,0-7.573-1.988l-25.341,14.591a23.976,23.976,0,0,0-9.49,31.419l31.394,63.1a5.572,5.572,0,1,0,9.977-4.966l-31.394-63.1a12.815,12.815,0,0,1,5.074-16.793l20.574-11.847,13.7,23.1a90.148,90.148,0,0,0,51.182,40.475c-8.019,9.846-19.112,19.343-39.322,23.181a5.573,5.573,0,0,0,1.034,11.048,5.661,5.661,0,0,0,1.046-.1c28.039-5.326,41.427-20.782,48.937-30.975a184.582,184.582,0,0,0,20.958,3.755,201.505,201.505,0,0,1-18.31,23.257,5.573,5.573,0,0,0,8.231,7.515c15.934-17.453,24.158-32.194,24.5-32.813a5.571,5.571,0,0,0-4.539-8.258,173.719,173.719,0,0,1-38.574-7.042,77.984,77.984,0,0,1-22.742-11c18.408-14.373,46.423-22.413,46.815-22.524,2.013-.609,49.867-15.316,97.89-51.127,23.975-17.877,33.181-19.826,44.836-22.293,1.911-.4,3.866-.819,5.93-1.309C432.624,94.952,440.213,80.017,439.939,67.382Z"/><path d="M385.842,484.081a5.573,5.573,0,0,0,0-11.145H366.385c-22.5-8.283-39.668-24.982-51.015-49.679a125.74,125.74,0,0,1-11.254-52.9V272.308a5.573,5.573,0,0,0-5.573-5.572H172.454a5.573,5.573,0,0,0,0,11.145h23.585v16.124a5.573,5.573,0,1,0,11.145,0V277.881h40.9v45.627a5.573,5.573,0,0,0,11.145,0V277.881h33.744v92.472a136.822,136.822,0,0,0,12.271,57.557c8.845,19.252,21.393,34.5,36.894,45.026H259.227v-76.31a5.573,5.573,0,0,0-11.145,0v76.31h-40.9V359.047a5.573,5.573,0,0,0-11.145,0V472.936H157.565V401.622a5.573,5.573,0,1,0-11.145,0v71.314H94.2a55.11,55.11,0,0,0,8.189-13.346,68.866,68.866,0,0,0,5.75-28.079V391.632a5.573,5.573,0,1,0-11.145,0v39.879a57.8,57.8,0,0,1-4.8,23.565c-4.144,9.357-9.743,15.5-16.643,18.258a5.573,5.573,0,0,0,2.069,10.747h175.5c.176.016.346.053.526.053s.351-.037.526-.053H385.842Z"/><path d="M412.279,472.99a5.573,5.573,0,0,0,.123,11.144c.043,0,.085,0,.128,0l4.728-.106a5.572,5.572,0,0,0-.25-11.142Z"/><path d="M142.325,266.736h-2.871a5.573,5.573,0,0,0,0,11.145h2.871a5.573,5.573,0,0,0,0-11.145Z"/><path d="M102.569,361.937a5.572,5.572,0,0,0,5.572-5.572V277.881h4.076a5.573,5.573,0,0,0,0-11.145h-9.648A5.573,5.573,0,0,0,97,272.308v84.057A5.573,5.573,0,0,0,102.569,361.937Z"/><path d="M151.992,364.62a5.573,5.573,0,0,0,5.573-5.573V308.086a5.573,5.573,0,1,0-11.145,0v50.961A5.573,5.573,0,0,0,151.992,364.62Z"/><path d="M253.654,361.937a5.573,5.573,0,0,0,5.573-5.572v-4.023a5.573,5.573,0,1,0-11.145,0v4.023A5.572,5.572,0,0,0,253.654,361.937Z"/></svg>
