<svg id="icons" height="512" viewBox="0 0 500 500" width="512" xmlns="http://www.w3.org/2000/svg"><path d="m279.652 490.794a129.041 129.041 0 0 0 128.9-128.9v-139.148c.071-5.663-7.979-7.635-10.436-2.425-.384.78-38.863 78.455-82.558 111.908-4.925 3.776-.626 11.66 5.223 9.536a167.486 167.486 0 0 1 26.509-6.486 17.6 17.6 0 0 1 14.307 3.929c7.353 6.058 6.266 14.222 6.255 22.69-3.681 116.528-172.706 116.551-176.393 0v-122.751l4.217-3.064c12.557-9.15 12.03-29.991 3.842-40.844a5.79 5.79 0 0 0 1.625-1.4 29.608 29.608 0 0 0 5.312-12.317c1.049-5.981.437-14.417-7.44-22.361 3.563-5.966 4.516-13.785 3.379-20.479-1.229-8.719-10.994-14.548-19.257-11.827-.027-23.4.615-68.923 5.216-111.554a5.5 5.5 0 1 0 -10.936-1.181c-5.12 47.442-5.4 98.32-5.255 119.122l-12.862 8.274c-1.14-52.128-6.882-126.454-6.943-127.236a5.5 5.5 0 0 0 -10.967.853c.051.658 4.146 53.668 6.095 101.339a101.5 101.5 0 0 0 -15.853-13.092 19.557 19.557 0 0 0 -26.125 4.986l-12.96 17.28a5.5 5.5 0 0 0 3.22 8.672c15.2 3.339 29.568 14.483 38.842 23.123-11.754 8.388-7.672 26.436 4.455 32.435-7.294 9.786-6.884 22.246.65 31.788-6.523 7.147-11.9 18.792-4.467 32.244a18.566 18.566 0 0 0 15.5 9.608v98.384a129.042 129.042 0 0 0 128.905 128.894zm0-29.7a99.308 99.308 0 0 0 99.2-99.2v-9.21c-.275-20.9-19.932-33.011-39.308-27.173 24.853-25.249 46.032-59.492 58.008-80.768v117.157a117.9 117.9 0 0 1 -235.793 0v-101.236c.372-.233.741-.473 1.1-.732l17.6-12.791v114.759a99.309 99.309 0 0 0 99.193 99.2zm-86.675-274.734-45.066 28.667a59.033 59.033 0 0 1 -2.87-7.319c-2.191-8.134 7.437-16.789 9.076-18.189 1.065-.744 38.124-21.863 37.567-22.088 7.396 8.074 3.172 16.15 1.293 18.929zm-86.877-60.448 8.209-10.947a8.624 8.624 0 0 1 11.506-2.25c5.458 3.4 14.764 11.538 22.273 20.678.154 5.235.27 10.3.338 15.126l-4.311 2.777c-8.635-8.322-22.415-19.696-38.015-25.384zm32.42 45.317a6.257 6.257 0 0 1 2.564-4.9l5.3-3.411c.244-.166 38.454-24.745 38.669-24.911a4.161 4.161 0 0 1 4.064-.475c3.372 1.175 2.872 7.006 2.429 10.3a16.905 16.905 0 0 1 -8.335 12.057l-35.018 20.348c-4.709 2.222-9.874-4.737-9.671-9.008zm6.422 77.475c-7.321-12.908 5.5-22.263 7.06-23.244l38.2-24.3c5.9 7.655 5.7 21.035-.994 26.021l-32.819 23.848c-3.573 2.724-9.315 1.693-11.445-2.329z"/></svg>