<svg id="icons" height="512" viewBox="0 0 500 500" width="512" xmlns="http://www.w3.org/2000/svg"><path d="m386.993 45.412a54.484 54.484 0 0 1 11.41 1.217 5.5 5.5 0 0 0 4.778-9.515 81.155 81.155 0 0 0 -134.614 61.086c-.856 71.607 89.665 108.653 139.1 56.857 3.954-3.917-.158-10.772-5.469-9.13-32.721 10.194-68.567-15.242-67.961-49.169-.005-28.314 23.663-51.346 52.756-51.346zm-63.761 51.342c0 33.635 27.387 61.135 61.5 62.3-45.24 27.151-106.143-7.9-105.164-60.863-1.128-50.402 55.349-85.891 100.258-63.391-31.797 3.5-56.594 29.947-56.594 61.954z"/><path d="m115.438 353.844a5.5 5.5 0 0 0 5.5 5.5h37.675a5.5 5.5 0 0 0 4.627-8.474l-35.169-54.712h17.647a5.5 5.5 0 0 0 4.627-8.474l-45.793-71.241a5.539 5.539 0 0 0 -9.254 0l-45.793 71.241a5.5 5.5 0 0 0 4.627 8.474h17.646l-35.169 54.712a5.5 5.5 0 0 0 4.627 8.474h53.189v74.316c.164 7.2 10.808 7.3 11 0v-159.142a5.5 5.5 0 0 0 -11 0v53.829c-.827-.731-4.431-3.187-5.367-3.9-5.955-4.1-12.208 4.643-6.4 8.948 5.691 3.669 10.524 7.911 11.527 14.945h-42.875l35.169-54.712a5.5 5.5 0 0 0 -4.627-8.474h-17.647l35.72-55.569 35.72 55.569h-17.645a5.5 5.5 0 0 0 -4.627 8.474l35.169 54.712h-27.6a5.5 5.5 0 0 0 -5.504 5.504z"/><path d="m400.074 439.16a5.5 5.5 0 0 0 5.5-5.5v-74.316h53.19a5.5 5.5 0 0 0 4.627-8.474l-35.169-54.712h17.645a5.5 5.5 0 0 0 4.627-8.474l-45.794-71.241a5.539 5.539 0 0 0 -9.254 0l-45.793 71.241a5.5 5.5 0 0 0 4.627 8.474h17.647l-35.168 54.712a5.539 5.539 0 0 0 4.627 8.474h38.151c7.219-.122 7.238-10.876 0-11h-28.078l35.169-54.712a5.5 5.5 0 0 0 -4.628-8.474h-17.646l35.72-55.569 35.72 55.569h-17.646a5.5 5.5 0 0 0 -4.627 8.474l35.169 54.712h-43.116v-73.826a5.5 5.5 0 0 0 -11 0v53.829c-.836-.837-4.424-3.111-5.368-3.9-5.95-4.1-12.21 4.639-6.4 8.95 6.753 4.291 11.74 9.339 11.764 17.838v82.425a5.5 5.5 0 0 0 5.504 5.5z"/><path d="m255.5 477.559v-82.6h85.886a5.5 5.5 0 0 0 4.2-9.05l-55.6-65.8h31.316a5.5 5.5 0 0 0 4.2-9.049l-44.819-53.048h25.237a5.5 5.5 0 0 0 4.2-9.05l-55.92-66.19a5.535 5.535 0 0 0 -8.4 0l-55.925 66.191a5.5 5.5 0 0 0 4.2 9.05h25.237l-44.819 53.048a5.5 5.5 0 0 0 4.2 9.049h31.315l-55.6 65.8c-3.034 3.369-.343 9.2 4.2 9.05h68.209c7.209-.119 7.246-10.874 0-11h-56.357l55.6-65.8a5.5 5.5 0 0 0 -4.2-9.05h-31.319l44.819-53.047a5.5 5.5 0 0 0 -4.2-9.05h-25.238l44.078-52.17 44.077 52.17h-25.237a5.5 5.5 0 0 0 -4.2 9.05l44.819 53.047h-31.316a5.5 5.5 0 0 0 -4.2 9.05l55.6 65.8h-74.043v-59.432c-.039-14.776 7.141-24.228 17.161-34.14 4.848-5.352-3-12.716-8.031-7.515-2.033 2.289-7.375 7.656-9.13 10.028v-25.671a5.5 5.5 0 0 0 -11 0v76.435c-.65-.592-6.838-5.323-7.668-5.971-5.8-4.316-12.371 4.189-6.72 8.708l6.539 5.047a20.306 20.306 0 0 1 7.849 15.971v110.14c.122 7.223 10.876 7.234 11-.001z"/></svg>