<svg id="icons" height="512" viewBox="0 0 500 500" width="512" xmlns="http://www.w3.org/2000/svg"><path d="m457.745 371.78c-31.791-13.959-32.032-48.861-51.769-70.385 4.657-2.924 9.213-8.118 11.281-16.8a5.5 5.5 0 0 0 -2.754-6.122l-3.856-2.066c5.293-6.217 12.028-17.654 12.028-35.61.156-4.787-6.222-7.373-9.446-3.831-.1.1-10.08 10.235-27.073 18.517-11.231-4.473-60.667-22.584-125.415-22.855a11.559 11.559 0 0 1 -6.886-2.283c-5.837-4.2-12.31 4.42-6.552 8.836a22.494 22.494 0 0 0 13.393 4.447c69.95.293 122.921 22.693 123.445 22.918a5.494 5.494 0 0 0 4.48-.058 126.743 126.743 0 0 0 21.464-12.6c-3.454 13.3-11.37 18.94-11.767 19.215a5.538 5.538 0 0 0 .454 9.424l6.465 3.464c-3.247 7.208-9.016 7.667-9.681 7.695-5.287-.194-7.571 6.906-3.243 9.925 23.788 18.8 22.092 61.088 60.819 78.157a17.417 17.417 0 0 1 9.485 11.426c9.5 35.792 14.372 72.491 16.027 86.6h-9.29c-3.926-32.585-20.477-69.341-29-82.548a32.727 32.727 0 0 0 -24.021-14.862c-57.728-6.488-69.084-31.911-69.354-32.493-4.091-9.251-8.417-20.059-9.491-30.074a5.5 5.5 0 0 0 -10.937 1.172c.95 8.868 3.955 17.9 7.31 26.164-4.382.256-47.829 3.39-50.955 3.32l-1.277-10.433a5.5 5.5 0 0 0 -10.919 1.336l1.879 15.346c1.266 25.693 18.27 96.574 19.636 123.072h-10.825c-5.186-47.622-24.862-101.163-36.493-129.64l-7.778-17.02a5.5 5.5 0 0 0 -10 4.573l2.871 6.286a91.726 91.726 0 0 1 -22.705-10.965c-6.052-3.952-12.087 4.951-6.168 9.108a97.1 97.1 0 0 0 13.751 7.7c-9.479 56.02-14.169 112.879-15.447 129.953h-9.662c-.184-78.979 2.407-132.075-.911-162.7-22.15-29.354-23.236-73.057-23.885-99.169-.868-22.259 4.587-37.858 9.8-45.616 18.841 5.655 27.416-21.035 8.576-27.2a62.807 62.807 0 0 1 -11.993-4.782 15.456 15.456 0 0 1 2.485-7.434 21.953 21.953 0 0 1 11.338 5.157c9.595 9.148 21.16 5.821 32.78 5.236a27.459 27.459 0 0 1 21.864 8.312 98.926 98.926 0 0 1 17.477 25.928 33.331 33.331 0 0 1 2.748 11c-10.858.277-18.683 12.4-14.621 22.366a33.381 33.381 0 0 1 -11.555-7.222c-4.113-4.3-9.027-8-15.011-9.392a70.765 70.765 0 0 1 -7.924-2.516c-6.755-2.482-10.679 7.541-3.954 10.265 5.3 2.37 12.223 2.617 16.51 6.934l2.772 2.654c9.5 9.3 30.507 17.924 41.922 7.98a16.641 16.641 0 0 0 5.2-14.368c-.714-5.1-2.134-16.085-2.831-21.118a38.6 38.6 0 0 0 -3.289-11.236 115.265 115.265 0 0 0 -13.329-21.75c16-8.593 34.517-25.92 43.833-60.874 40.088 7.392 93.622-6.794 100.859-65.286a5.531 5.531 0 0 0 -4.858-6.281l-4.806-.51a18.66 18.66 0 0 0 -19.579 12.772c-3 9.188-10.253 20.648-27.612 26.835 1.451-7.044 1.632-16.024-1.407-26.825a5.492 5.492 0 0 0 -5.621-4c-10.907-.536-20.7 7.989-20.267 19.155 1.077 8.416-6.143 16.49-14.74 15.544-5.03-1.022-31.184-.226-39.549-26.614a19.707 19.707 0 0 0 -16.9-14.593l-3.674-.39a5.5 5.5 0 0 0 -5.962 4.337c-3.374 16.754 3.069 44.463 29.587 56.819a7.446 7.446 0 0 1 3.878 8.572c-3.6 13.448-14.084 36.8-43.827 42.572-4.113-.516-16.753.835-21.075 1.062a12.881 12.881 0 0 1 -9.6-3.46c-3.583-3.3-10.063-7.428-20.586-8.385a5.5 5.5 0 0 0 -4.214 1.423 25.755 25.755 0 0 0 -6.354 10.714c-13.75-11.577-18.685-27.5-20.441-37.814a8.122 8.122 0 0 1 5.08-8.915c28.788-10.246 38.29-38.614 36.361-56.327a5.484 5.484 0 0 0 -5.534-4.872l-3.886.049a20.45 20.45 0 0 0 -18.861 13.445c-8.976 24.806-39.208 24.234-40.471 24.2-9.788 1.283-18.978-5.285-18.264-15.672 2.23-10.85-4.618-21.969-15.822-23.629-3.61-.751-7.322-1.116-9.029 2.991-4.314 11.215-4.933 20.768-4.018 28.332-18.034-8.214-24.644-21.147-26.923-31.217a19.319 19.319 0 0 0 -18.979-15.069l-5.084.065a5.533 5.533 0 0 0 -5.421 5.8c1.8 62.031 56.946 81.889 99.223 77.952 5.612 35.589 24.515 63.982 54.613 75.817-5.6 9.5-10.888 26.42-10.036 49.351.671 27.015 1.787 71.954 25 104.042.273 28.441.576 85.978-.271 163a5.531 5.531 0 0 0 5.5 5.56h20.341a5.5 5.5 0 0 0 5.488-5.142c.044-.672 4.406-66.348 15.289-131.617 3.406 1.169 6.917 2.216 10.551 3.11 9.961 24.748 30.946 81.4 35.056 128.627a5.5 5.5 0 0 0 5.48 5.022h21.81a5.533 5.533 0 0 0 5.487-5.881 465.937 465.937 0 0 0 -9.3-62.664 582.783 582.783 0 0 1 -10.228-60.8c1.43.12 51.51-3.421 54.66-3.605 2.311 3.627 6.941 9.451 15.379 15.412 11.815 18.077 39.1 64.2 38.841 112.009a5.5 5.5 0 0 0 5.5 5.533h21.433a5.5 5.5 0 0 0 5.5-5.5c0-2.01-.174-47.336-14.29-92.453 7.871.379 15.636 3.385 19.913 10.367 8.176 12.676 25.285 51.113 27.783 82.522a5.5 5.5 0 0 0 5.483 5.064h20.4a5.5 5.5 0 0 0 4.071-1.8c3.786-3.284-3.695-49.458-15.6-98.623a28.377 28.377 0 0 0 -15.503-18.595zm-195.26-165.1a5.553 5.553 0 0 1 -2.5 5.388c-2.665-2.328-5.89-5.42-4.142-9.2a5.812 5.812 0 0 1 5.669-3.428zm15.263-114.06a18.477 18.477 0 0 0 -9.621-21.273c-22.335-11.068-24.561-30.393-24.231-39.59a8.684 8.684 0 0 1 5.649 6.037c10.084 33.463 42.668 33.742 49.25 34.81a24.3 24.3 0 0 0 18.512-6.2 24.761 24.761 0 0 0 8.184-17.824c-.438-4.331.746-8.839 5.357-10.195 2.265 11.51.011 19.847-2.466 25.009a5.5 5.5 0 0 0 6.048 7.77c31.108-6.293 41.805-25.768 45.413-36.816a7.543 7.543 0 0 1 6.882-5.286c-9.981 55.086-68.535 55.014-91.753 49.438a5.535 5.535 0 0 0 -6.646 4.12c-6.708 29.26-21.184 49.929-41.949 60a38.481 38.481 0 0 0 -5.514-4.305c23.942-10.697 33.306-32.329 36.885-45.697zm-158.238-6.3a5.539 5.539 0 0 0 -6.23-4.719c-25.333 3.64-86.772-2.336-91.648-61.36a8.212 8.212 0 0 1 7.295 6.47c2.686 11.858 11.944 33.194 43.773 42.789a5.5 5.5 0 0 0 6.745-7.175c-2.123-5.737-3.69-14.858-.058-26.914 5.02 1.8 6.031 6.868 5.086 11.6a25.77 25.77 0 0 0 6.757 19.254 25.3 25.3 0 0 0 18.575 8.207c6.919-.476 40.961 2.426 54.721-31.46a9.419 9.419 0 0 1 7.081-6.032c-.469 9.6-4.51 30.136-29.452 39.726a19.153 19.153 0 0 0 -11.975 21.025c2.913 17.111 13.3 47.392 50.132 57.944a3.486 3.486 0 0 1 2.617 2.978 3.165 3.165 0 0 1 -3.905 3.353c-19.024-4.206-52.051-19.641-59.514-75.692zm294.845 393.473h-10.377c-1.305-37.653-17.8-73.7-30.653-96.33a141.33 141.33 0 0 0 25.66 7.406c12.289 36.25 14.843 74.877 15.37 88.924z"/><path d="m221.265 171.983c6.7 2.621 10.824-7.329 4.15-10.188l-4.423-1.8c-6.741-2.614-10.8 7.346-4.15 10.187z"/></svg>