<?xml version="1.0"?>
<svg xmlns="http://www.w3.org/2000/svg" id="icon" viewBox="0 0 512 512" width="512" height="512"><title>compass</title><path d="M206.31,152.446a5.558,5.558,0,0,0,2.026-.383q1.342-.525,2.7-1.018a5.573,5.573,0,0,0-3.821-10.47q-1.474.538-2.931,1.107a5.573,5.573,0,0,0,2.029,10.764Z"/><path d="M382.188,326.928a5.568,5.568,0,0,0-7.408,2.687,131.625,131.625,0,0,1-22.27,33.19l-7.036-7.036a5.572,5.572,0,0,0-7.881,7.88l7.044,7.044q-4.44,4.083-9.246,7.755a5.572,5.572,0,0,0,6.757,8.862,142.373,142.373,0,0,0,14.214-12.439c.059-.054.127-.092.184-.15s.1-.129.156-.191a142.948,142.948,0,0,0,28.174-40.194A5.573,5.573,0,0,0,382.188,326.928Z"/><path d="M386.918,268.6h-9.955a5.573,5.573,0,1,0,0,11.145h9.956c-.053,1.272-.112,2.543-.2,3.8a5.574,5.574,0,0,0,5.166,5.952c.134.009.267.013.4.013a5.574,5.574,0,0,0,5.554-5.179c.237-3.364.357-6.784.357-10.163a141.759,141.759,0,0,0-22.082-76.139,5.573,5.573,0,0,0-9.408,5.975A130.52,130.52,0,0,1,386.918,268.6Z"/><path d="M84.394,274.175c0,94.624,76.982,171.607,171.606,171.607S427.607,368.8,427.607,274.175,350.624,102.569,256,102.569,84.394,179.551,84.394,274.175ZM256,113.714c88.479,0,160.462,71.982,160.462,160.461S344.479,434.638,256,434.638,95.539,362.654,95.539,274.175,167.522,113.714,256,113.714Z"/><path d="M151.569,105.349a5.545,5.545,0,0,0,2.862-.8c2.487-1.493,5.048-2.954,7.614-4.343a5.573,5.573,0,1,0-5.306-9.8c-2.71,1.468-5.416,3.011-8.043,4.588a5.573,5.573,0,0,0,2.873,10.352Z"/><path d="M256,483c115.145,0,208.821-93.677,208.821-208.823S371.145,65.355,256,65.355a210.617,210.617,0,0,0-30.5,2.217,31.838,31.838,0,0,1,59.1-11.507,5.572,5.572,0,1,0,9.645-5.584,42.984,42.984,0,0,0-80.133,19.083,207.108,207.108,0,0,0-28.956,8.114,5.572,5.572,0,0,0,3.781,10.484A197.107,197.107,0,0,1,256,76.5c109,0,197.676,88.676,197.676,197.675S365,471.853,256,471.853,58.323,383.175,58.323,274.175A197.674,197.674,0,0,1,126.53,124.8a5.572,5.572,0,0,0-7.3-8.418,208.808,208.808,0,0,0-72.048,157.8C47.179,389.321,140.855,483,256,483Z"/><path d="M256,389.565a5.574,5.574,0,0,0-5.573,5.573V405.1a131.294,131.294,0,0,1-82.957-34.514l6.937-6.938a5.572,5.572,0,0,0-7.881-7.88l-6.952,6.953a129.972,129.972,0,0,1-31.789-61.308,5.572,5.572,0,0,0-10.9,2.305,142.487,142.487,0,0,0,38.344,70.72c.08.093.142.195.23.282s.163.128.241.2c3.244,3.234,6.632,6.336,10.192,9.256A142.451,142.451,0,0,0,256,416.369a5.572,5.572,0,0,0,5.572-5.572V395.138A5.573,5.573,0,0,0,256,389.565Z"/><path d="M119.38,279.749h15.657a5.573,5.573,0,1,0,0-11.145h-9.955a130.033,130.033,0,0,1,34.355-83.111l7.089,7.09a5.572,5.572,0,0,0,7.881-7.88l-7.078-7.079a133.281,133.281,0,0,1,20.007-15.09,5.573,5.573,0,0,0-5.849-9.488,141.4,141.4,0,0,0-67.68,121.13A5.573,5.573,0,0,0,119.38,279.749Z"/><path d="M251.412,170.814a5.573,5.573,0,0,0,9.175,0l17.766-25.766a129.618,129.618,0,0,1,66.288,32.606l-7.048,7.049a5.572,5.572,0,0,0,7.881,7.88l11.072-11.073a5.566,5.566,0,0,0,0-7.88,140.916,140.916,0,0,0-80.061-40.182c-.176-.026-.347-.015-.521-.024-.069,0-.137-.009-.206-.009a5.538,5.538,0,0,0-5.021,3.046L256,157.834,240.821,135.82a5.572,5.572,0,0,0-9.175,6.326Z"/><path d="M186.963,209.625,226.779,280a53.7,53.7,0,0,0,20.292,20.293l70.371,39.815a5.573,5.573,0,0,0,7.595-7.594l-39.815-70.373a53.718,53.718,0,0,0-20.292-20.293h0l-70.372-39.815a5.573,5.573,0,0,0-7.594,7.594Zm72.478,41.922a42.569,42.569,0,0,1,16.081,16.08l29.92,52.884L252.559,290.59a42.559,42.559,0,0,1-16.08-16.08l-29.921-52.884Z"/></svg>
