<svg id="icons" height="512" viewBox="0 0 500 500" width="512" xmlns="http://www.w3.org/2000/svg"><path d="m443.016 231.356h24.891a5.5 5.5 0 0 0 4.615-8.492l-37.051-57.155h19.96a5.5 5.5 0 0 0 4.616-8.492l-45.363-69.974a5.538 5.538 0 0 0 -9.23 0l-45.363 69.974a5.5 5.5 0 0 0 4.616 8.492h19.96l-37.051 57.155a5.5 5.5 0 0 0 4.615 8.492h24.89l-30 46.282c-3.642-9.428-6.668-18.167-9.176-26.1-12.375-39.145-14.788-66.411-15.234-73.722l16.42-19.916c4.5-5.654-3.793-12.5-8.487-7l-8.809 10.682-.516-9.446c-.519-7.223-11.254-6.621-10.984.6l.928 16.984c-81.62-11.743-128.135-30.381-168.049-63.457l-6.35-31.653a5.5 5.5 0 1 0 -10.785 2.164l6.506 32.432c-10.185 111.549-80.832 261.201-121.362 320.644a5.542 5.542 0 0 0 4.577 8.555h137.3a5.5 5.5 0 0 0 0-11h-43.8c17.247-28.906 27.353-80.7 32.99-121.989 5.05 40.577 15.524 92.76 37.235 130.245a5.466 5.466 0 0 0 6.03 2.58c.762.5 246.363-.02 247.385.164 4.482.145 7.235-5.6 4.249-8.99-42.322-51.547-68.692-100.291-85.037-139.31l39.711-61.258a5.5 5.5 0 0 0 -4.615-8.491h-24.89l37.042-57.156a5.5 5.5 0 0 0 -4.615-8.492h-19.96l35.242-54.364 35.242 54.364h-19.96a5.5 5.5 0 0 0 -4.615 8.492l37.051 57.155h-24.885a5.5 5.5 0 0 0 -4.615 8.491l45.794 70.64h-39.8a5.5 5.5 0 0 0 0 11h49.921a5.538 5.538 0 0 0 4.61-8.486zm-260.2 186.958c-17.446-36.443-26.016-84.022-30.216-120.389 17.66 45.278 42.195 71.455 51.813 80.523a145.1 145.1 0 0 0 -21.6 39.866zm8.629 9.091c4.855-16.331 12.992-31.507 24.756-46.2a5.506 5.506 0 0 0 -.821-7.7c-.511-.417-51.287-42.75-66.861-131.17a5.5 5.5 0 0 0 -10.907.623c-.086 1.421-8.8 140.326-41.478 184.452h-70.3c44.86-73.06 94.146-177.228 113.471-287.868 21.88 92.374 71.772 222.548 144.2 287.863zm229.992 0h-121.266c-85.96-72.856-132.3-212.826-153.327-303.857 45.5 30.466 80.564 44.94 165.037 57.338 9.377 78.271 37.978 152.993 109.553 246.519z"/><path d="m149.261 92.3a5.508 5.508 0 0 0 7.144-3.076l8.019-20.154a5.5 5.5 0 1 0 -10.224-4.07l-8.02 20.153a5.5 5.5 0 0 0 3.081 7.147z"/><path d="m410.069 368.617a5.5 5.5 0 0 0 5.5-5.5v-133.617c-.2-10.776 4.8-20.514 11.629-28.56 4.272-5.8-4.285-12.351-8.762-6.652l-2.867 3.777v-17.911c-.122-7.223-10.877-7.233-11 0v76.463c-.574-.561-4.541-3.9-5.225-4.492-5.582-4.591-12.558 3.592-7.132 8.375 7.167 5.511 12.375 11.542 12.357 21.066v17.92h-26.195a5.5 5.5 0 0 0 0 11h26.195v52.63a5.5 5.5 0 0 0 5.5 5.501z"/></svg>