<?xml version="1.0"?>
<svg xmlns="http://www.w3.org/2000/svg" id="icon" viewBox="0 0 512 512" width="512" height="512"><title>Lantern</title><path d="M148.279,480.242H363.721a5.573,5.573,0,0,0,5.431-6.823l-1.9-8.266h0a30.809,30.809,0,0,0-25.955-23.733,120,120,0,0,0-8.814-35.122,39.529,39.529,0,0,0-14-17.215,40.837,40.837,0,0,0,20.111-21.306c3.385,1.84,5.3,2.813,5.424,2.877a5.573,5.573,0,1,0,5.015-9.953c-.826-.416-79.048-40.254-146.993-108.673l1.5-7.075a28.257,28.257,0,0,1,27.517-22.306h49.9a28.257,28.257,0,0,1,27.517,22.306l1.5,7.072c-12.687,12.78-26.513,25.373-41.28,37.57a5.572,5.572,0,1,0,7.1,8.593c13.074-10.8,25.42-21.91,36.929-33.19l14.018,66.264a5.572,5.572,0,1,0,10.9-2.308L322.1,255.563c2.484-2.562,4.938-5.128,7.329-7.7a5.573,5.573,0,1,0-8.166-7.586c-.646.7-1.317,1.389-1.97,2.083A39.448,39.448,0,0,0,280.951,211.5H232.258V200.264a10.252,10.252,0,0,1,10.24-10.24h27a10.253,10.253,0,0,1,10.242,10.24,5.572,5.572,0,0,0,11.144,0A21.41,21.41,0,0,0,269.5,178.879h-27a21.41,21.41,0,0,0-21.385,21.385V212.8a39.489,39.489,0,0,0-28.413,29.57c-.656-.7-1.314-1.392-1.967-2.1a5.573,5.573,0,1,0-8.166,7.586,571.456,571.456,0,0,0,64.366,58.909,673.275,673.275,0,0,1-65.38,43.627,29.94,29.94,0,0,1,.576-4.267l13.338-63.055a5.572,5.572,0,1,0-10.9-2.307l-13.338,63.055a40.954,40.954,0,0,0-.653,12.811c-4.774,2.632-7.5,4.016-7.6,4.068a5.573,5.573,0,1,0,5.016,9.953c.087-.044,2.009-1.02,5.41-2.865a40.967,40.967,0,0,0,20.042,21.295A39.442,39.442,0,0,0,179.521,406.3a119.994,119.994,0,0,0-8.814,35.123,30.814,30.814,0,0,0-25.955,23.731l-1.9,8.266a5.573,5.573,0,0,0,5.431,6.823Zm39.837-109.258a29.763,29.763,0,0,1-4.9-8.68,681.919,681.919,0,0,0,72.829-48.466,688.967,688.967,0,0,0,72.738,48.451,29.717,29.717,0,0,1-27.977,19.7h-18.5a23.5,23.5,0,0,0,1.315-4.349,19.689,19.689,0,0,0-2.948-15.118c-7.525-10.93-20.875-20.54-21.441-20.944a5.573,5.573,0,0,0-6.484,9.065c.123.087,12.342,8.9,18.745,18.2a8.417,8.417,0,0,1,1.194,6.638,12.713,12.713,0,0,1-3.529,6.51h-7.594v-4.911a5.573,5.573,0,1,0-11.145,0v4.911H242.83a12.713,12.713,0,0,1-3.529-6.51,8.418,8.418,0,0,1,1.2-6.638,53.127,53.127,0,0,1,4.881-5.977,5.573,5.573,0,1,0-8.155-7.6,64.052,64.052,0,0,0-5.907,7.256,19.69,19.69,0,0,0-2.948,15.117,23.43,23.43,0,0,0,1.316,4.349h-18.49A29.578,29.578,0,0,1,188.116,370.984Zm1.685,39.621a28.413,28.413,0,0,1,21.39-17.037,5.491,5.491,0,0,0,1.341-.438h85.786a5.589,5.589,0,0,0,.914.2A28.588,28.588,0,0,1,322.2,410.6a108.921,108.921,0,0,1,7.846,30.5H181.955A108.906,108.906,0,0,1,189.8,410.605Zm-34.187,57.048a19.759,19.759,0,0,1,19.345-15.4H337.042a19.756,19.756,0,0,1,19.344,15.4h0l.334,1.444H155.28Z"/><path d="M227.085,31.758a18.986,18.986,0,1,0,0,37.972h57.831a18.984,18.984,0,0,0,16.476-9.59A54.1,54.1,0,0,1,335.088,110v5.188a120.756,120.756,0,0,1-5.747,37.255c-5.119,15.806-12.068,28.8-20.654,38.628a5.572,5.572,0,1,0,8.392,7.333c9.585-10.968,17.277-25.276,22.865-42.528a131.872,131.872,0,0,0,6.289-40.688V110A65.3,65.3,0,0,0,303.82,49.138a19,19,0,0,0-18.9-17.38Zm65.671,18.987a7.848,7.848,0,0,1-7.84,7.84H227.085a7.841,7.841,0,1,1,0-15.682h57.831A7.851,7.851,0,0,1,292.756,50.745Z"/><path d="M196.561,68.461a5.573,5.573,0,0,0-7.075-8.612A64.684,64.684,0,0,0,165.768,110v5.188a131.846,131.846,0,0,0,6.29,40.689c5.584,17.249,13.276,31.557,22.863,42.527a5.572,5.572,0,0,0,8.392-7.333c-8.587-9.827-15.535-22.823-20.652-38.628a120.689,120.689,0,0,1-5.748-37.255V110A53.577,53.577,0,0,1,196.561,68.461Z"/></svg>
