<?xml version="1.0"?>
<svg xmlns="http://www.w3.org/2000/svg" id="icon" viewBox="0 0 512 512" width="512" height="512"><title>map</title><path d="M358.99,472.13a42.523,42.523,0,0,0,42.475-42.475V315.485a5.573,5.573,0,0,0-11.145,0v114.17a31.365,31.365,0,0,1-31.33,31.33H313V312.448a58.156,58.156,0,0,0-58.089-58.091H200.535a16.761,16.761,0,0,1-16.743-16.742V153.384a5.573,5.573,0,1,0-11.145,0v84.231A27.919,27.919,0,0,0,200.535,265.5h54.377a47,47,0,0,1,46.944,46.946V460.985H70.387a31.365,31.365,0,0,1-31.33-31.33V158.132a31.366,31.366,0,0,1,31.33-31.33H85.814a5.573,5.573,0,1,0,0-11.145H70.387a42.523,42.523,0,0,0-42.475,42.475V429.655A42.523,42.523,0,0,0,70.387,472.13Z"/><path d="M272.311,126.8a5.573,5.573,0,0,0,0-11.145H123.758c-.065,0-.125.016-.189.019s-.124-.019-.188-.019a5.573,5.573,0,0,0-5.573,5.572V262.252A58.155,58.155,0,0,0,175.9,320.341h54.378a16.762,16.762,0,0,1,16.743,16.743v99.085a5.573,5.573,0,1,0,11.145,0V337.084A27.92,27.92,0,0,0,230.275,309.2H175.9a47,47,0,0,1-46.944-46.944V126.8Z"/><path d="M323.234,88.26a5.569,5.569,0,0,0,7.7-1.683c.789-1.23,1.616-2.446,2.461-3.612a5.573,5.573,0,0,0-9.031-6.533c-.966,1.336-1.911,2.725-2.812,4.129A5.573,5.573,0,0,0,323.234,88.26Z"/><path d="M395.891,39.87h-.351a87.46,87.46,0,0,0-52.853,17.841,5.572,5.572,0,0,0,6.726,8.886,76.413,76.413,0,0,1,46.17-15.582h.306a75.585,75.585,0,0,1,54.917,23.533,79.888,79.888,0,0,1,22.064,58.583c-2.394,55.189-42.78,108.265-66.64,134.99a13.668,13.668,0,0,1-10.32,4.626,13.954,13.954,0,0,1-10.391-4.664C360.6,240.166,318.806,184.858,318.806,128.1a77.257,77.257,0,0,1,2.581-19.856,5.572,5.572,0,0,0-10.77-2.866,88.386,88.386,0,0,0-2.956,22.722c0,60.456,43.57,118.3,69.543,147.4a25.013,25.013,0,0,0,37.34.041C439.393,247.71,481.46,192.26,484,133.613a91.084,91.084,0,0,0-25.163-66.789A86.627,86.627,0,0,0,395.891,39.87Z"/><path d="M395.892,164.622a37.779,37.779,0,0,1-37.736-37.737,5.573,5.573,0,1,0-11.145,0,48.879,48.879,0,1,0,13.158-33.368,5.573,5.573,0,1,0,8.144,7.61,37.374,37.374,0,0,1,27.579-11.98,37.738,37.738,0,1,1,0,75.475Z"/><path d="M194.443,441.742a5.573,5.573,0,0,0,5.573-5.573V387.776a28.194,28.194,0,0,0-28.162-28.16H66.326a5.573,5.573,0,1,0,0,11.145H171.854a17.036,17.036,0,0,1,17.017,17.015v48.393A5.573,5.573,0,0,0,194.443,441.742Z"/></svg>
