<svg id="icons" height="512" viewBox="0 0 500 500" width="512" xmlns="http://www.w3.org/2000/svg"><path d="m366.187 421.757a5.521 5.521 0 0 0 -4.181 4.1c-.148.616-3.773 15.1-16.287 14.313-3.524-.221-4.648-1.1-4.756-1.317-.473-.941.708-4.359 2.249-6.524 21.594-33.9 22.606-77.092-11.081-96.773-4.568-2.595-10 2.824-7.452 7.4 6.4 12.337 3.146 33.512-9.77 40.638-3.628 2-6.567 2.454-8.737 1.339a6.043 6.043 0 0 1 -2.745-6.89c6.688-26.969-9.394-50.858-19.95-60.722-7.831-7.317-13.489-12.6 6.411-40.795 21.89-31.109 9.7-56.922 1.786-53.8-9.1 1.888 2.755 25.653-27.892 37.867-36.029 14.58-52.212 35.17-49.625 58.175 3.964 25.413 1.656 45.087-5.742 48.957-2.3 1.206-7.921 3.769-10.338 1.563a3.177 3.177 0 0 1 -.616-3.349c7.238-20.308-4.292-33.007-11.4-36.883-3.7-2.2-8.761 1.137-8.1 5.427.083.832 1.726 20.608-24.741 37.932-19.51 11.521-24.476 39.6-18.244 62.981a56.762 56.762 0 0 1 -9.624-16.125 5.5 5.5 0 0 0 -10.4.149c-13.711 42.162-.913 71.933 29.832 73.531 7.227-.137 7.236-10.869 0-11-22.159-1.186-27.283-23.183-22.924-45.687 4.648 6.989 11.716 14.628 21.393 17.209a5.5 5.5 0 0 0 6.481-7.46c-.193-.455-18.96-45.755 9.515-64.394 18.315-11.987 25.443-25.5 28.152-35.195 1.576 3.726 2.167 8.914-.3 15.824-4.207 14.285 9.2 24.705 26.414 15.225 16.84-8.809 14.442-41.623 11.514-60.4a22.9 22.9 0 0 1 1.1-11.511c3.706-9.929 13.936-24.011 41.623-34.708 8.722-3.37 15.691-8.3 20.8-14.643a63.707 63.707 0 0 1 -7.64 13.974c-19.25 27.272-20.449 40.679-4.935 55.176 8.8 8.226 22.244 28.02 16.784 50.037a16.909 16.909 0 0 0 8.4 19.327c3.868 1.983 10.316 3.332 19.068-1.5 13.03-7.189 19.085-22.8 18.621-37.395 15.441 17.451 8.083 51.238-4.77 70.38-1.23 1.774-6.535 10.123-3.023 17.42 2.191 4.55 6.9 7.081 13.982 7.524 11.009.695 18.361-5.21 22.782-11.76 6.543 12.889.393 42.455-22.4 42.554a5.5 5.5 0 0 0 0 11 33.155 33.155 0 0 0 26.436-12.983c17.02-22.614 7.336-46.672-.162-56.234a5.5 5.5 0 0 0 -5.508-1.974z"/><path d="m192.207 184.509c5.188-30.155-4.768-60.149-37.007-67.867-34.82-7.158-36.929-32.641-5.64-45.16 20.749-8.278 17.827-39.791 10.553-52.551a20.814 20.814 0 0 0 -22.647-11.517c-21.566 4.01-72.823 18.719-82.933 68.565-9.251 40.5 18.379 64.913 49.7 70.324 13.794 1.7 28.033 22.6 11.958 30.614-8.936 4.466-12.029.905-13.043-.264-4.613-5.547-12-7.46-19.186-7.088a21.3 21.3 0 0 0 -21.392 24.748c6.847 38.587 33.374 43.661 60.13 45.787 32.677.287 65.461-21.641 69.507-55.591zm-118.793 7.98c-1.18-6.119 4.167-12.182 10.368-11.926l3.7.06a9.875 9.875 0 0 1 7.352 3.24c2.916 3.359 11.315 10.368 26.27 2.892 14.23-6.93 16.767-22.46 8.335-35.665a35.088 35.088 0 0 0 -23.1-15.582c-26.17-4.659-48.846-23.271-41.026-57.342 8.778-43.283 54.789-56.335 74.163-59.938a9.826 9.826 0 0 1 10.69 5.4c3.63 7.686 6.948 19.265 2.136 30.774a13.035 13.035 0 0 1 -6.977 6.927c-21.062 8.783-31.384 22.783-28.319 38.412 2.6 13.26 14.949 22.809 35.712 27.617 26.6 6.435 32.671 31.157 28.6 55.561-2.126 14.562-9.182 26.176-20.971 34.52-15.384 10.888-35.272 13.205-48.161 10.676-22.486-4.415-34.655-11.14-38.772-35.626z"/><path d="m269.845 141.633c21.916-.75 31.541-29.313 15.8-44.334-12.2-10.975-37.436-5.477-40.9 16.968-2.336 18.59 11.181 27.713 25.1 27.366zm-11.505-15.061c-2.386-2.563-3.289-6.227-2.684-10.891 1.5-11.561 12.95-12.761 14.216-12.858 6.776-.7 12.608 4.865 12.413 12.632.115 17.674-18.048 17.722-23.945 11.117z"/><path d="m312.71 64.326c-33.1-29.949-99.725-9.884-106.5 44.925-4.9 37.781 15.433 55.284 27.987 62.354a5.5 5.5 0 0 0 5.4-9.584c-12.386-6.976-26.34-21.549-22.476-51.355 5.964-45.634 52.131-49.086 54.237-49.255a46.752 46.752 0 0 1 34.066 11.153c9.984 8.833 15.315 21.789 15.843 38.508 1.379 43.663-32.577 57.179-50.724 58.226a53.455 53.455 0 0 1 -9.978-.407 5.5 5.5 0 0 0 -1.43 10.907 64.263 64.263 0 0 0 12.041.482c34.776-3.328 61.689-25.812 61.086-69.555-.622-19.588-7.382-35.633-19.552-46.399z"/><path d="m437.166 113.655c-4.787-3.846-12.38-7.159-15.909-12.041-7.354-10.309-2.354-16.06-.693-17.969 2.837-3.3 7.189-8.3 7.979-9.095 8.437-8.53 9.116-19.923 1.772-29.121-3.815-6-13.962-15.183-26.609-9.036-13.024 6.332-38.475 25.878-41.573 54.531-1.735 16.051 7.221 31.1 25.9 43.5 4.133 2.834 4.087 9.415-1.456 11.175-7.925 1.658-16.459 1.316-21.429 8.793a17.627 17.627 0 0 0 -2.948 13.668c.989 9.266 11.673 25.15 27.842 25.849 14.091-2.28 43.956-11.709 56.278-51.968a27.138 27.138 0 0 0 -9.154-28.286zm-1.459 25.4c-8.522 31.358-33.661 40.974-44.074 43.654a6.587 6.587 0 0 1 -3.709-.149c-8.251-2.741-13.276-8.345-14.934-16.654a6.618 6.618 0 0 1 5.6-7.81c10.671-1.195 20.846-3.1 23.1-15.5a17.268 17.268 0 0 0 -7.571-17.333c-15.251-10.133-22.333-21.289-21.05-33.16 2.393-22.138 22.509-39.53 35.446-45.82 7.577-3.365 11.989 4.486 13.06 5.832 3.946 4.8 3.634 10.16-.855 14.7-1.343 1.358-7.31 8.278-8.476 9.632-7.838 9.015-7.817 20.517.058 31.555 8.414 12.035 27.507 12.778 23.405 31.053z"/><path d="m223.241 233.529c27.306-.869 27.3-40.459 0-41.323-27.305.868-27.299 40.458 0 41.323zm0-30.323c12.768.405 12.766 18.919 0 19.323-12.769-.406-12.765-18.919 0-19.323z"/><path d="m308.353 193.242c.74 23.272 34.482 23.266 35.218 0-.74-23.272-34.482-23.267-35.218 0zm17.609-6.61c8.715.229 8.714 12.992 0 13.219-8.715-.229-8.714-12.991 0-13.219z"/><path d="m307.927 423.6a5.536 5.536 0 0 0 -8.018-1.628l-5.027 3.731-1.6-19.869a5.5 5.5 0 0 0 -5.482-5.058h-18.916a5.533 5.533 0 0 0 -5.5 5.731l.652 15.571a65.8 65.8 0 0 0 -10.478-11.591l-18.378-16.8a5.509 5.509 0 0 0 -4.144-1.423c-5.972.359-31.577 37.509-23.12 96.043a5.5 5.5 0 0 0 5.433 4.634h81.452a5.5 5.5 0 0 0 5.5-5.7c-1.118-30.312 13.844-41.675 14.441-42.114a5.5 5.5 0 0 0 1.564-7.28zm-79.388 57.1a4.062 4.062 0 0 1 -2.936 1.238h-7.478c-4.791-38.233 8.058-65.215 14.378-75.8l9.924 9.071c-14.857 19.891-13.687 43.13-12.969 57.391-.114 2.931 1.114 5.852-.919 8.1zm11.6 1.238c.932-3.29.411-6.341.307-9.891-.34-6.763-.761-15.142.462-23.921 4.516 6.8 9.071 17.552 10.069 33.812zm21.861 0c-1.439-25.8-11.056-40.213-17.764-47.227a51.913 51.913 0 0 1 6.258-11.877c6.814 7.506 20.375 26.267 23.336 59.1zm27.269 0h-4.4a128.739 128.739 0 0 0 -9.013-38.6 5.6 5.6 0 0 0 .049-.973l-1.28-30.59h8.1l1.992 24.693a5.5 5.5 0 0 0 8.76 3.975l8.074-5.991 3.027 5.144c-5.439 5.728-14.778 18.923-15.311 42.346z"/><path d="m167.239 272.349c-13.19 11.629-8.3 37.193 9.264 39.4 18.221 2.237 28.509-21.678 18.978-35.751a18.186 18.186 0 0 0 -28.242-3.649zm18.977 9.581c4.513 6.417.549 19.61-8.3 18.912-4.663-.6-7.935-6.292-7.142-12.421.615-8.007 10.084-14.714 15.442-6.491z"/><path d="m382.018 382.7a5.5 5.5 0 0 0 -6.656 4.025l-1.568 6.365c-1.609 7.023 8.806 9.645 10.681 2.63l1.568-6.364a5.5 5.5 0 0 0 -4.025-6.656z"/></svg>