<?xml version="1.0"?>
<svg xmlns="http://www.w3.org/2000/svg" id="icon" viewBox="0 0 512 512" width="512" height="512"><title>tent</title><path d="M377.763,49.4c-22.716-6.968-47.23-4.994-59.82-3.2a5.572,5.572,0,1,0,1.574,11.033c25.793-3.679,87.005-6.069,98.357,51.061a5.575,5.575,0,0,0,5.46,4.488,5.51,5.51,0,0,0,1.092-.109,5.571,5.571,0,0,0,4.38-6.551C423.121,77.509,405.471,57.894,377.763,49.4Z"/><path d="M289.6,53.931q-1.231.486-2.435.985a5.572,5.572,0,1,0,4.266,10.3q1.121-.463,2.265-.917a5.572,5.572,0,0,0-4.1-10.364Z"/><path d="M264.551,80.483a5.572,5.572,0,1,0-6.764-8.857c-51.617,39.416-45.44,101.383-44.312,109.917-4.959,33.091,5.792,53.291,15.739,64.435a5.573,5.573,0,0,0,8.314-7.423c-12.256-13.73-16.6-32.61-12.915-56.115a5.636,5.636,0,0,0,0-1.72C224.518,180.1,215.574,117.882,264.551,80.483Z"/><path d="M425.639,124.961a65.921,65.921,0,0,0-18.25,1.436,5.572,5.572,0,1,0,2.481,10.865,54.853,54.853,0,0,1,15.163-1.173c.064,0,.148.006.213.007,1.569.033,38.528,1.271,46.533,44.635,2.992,16.205.269,32.355-7.665,45.474-4.929,8.15-10.749,13.49-17.3,15.872a5.579,5.579,0,0,0-3.433,6.837c.531,1.782,12.655,43.738-18.621,53.249a33.385,33.385,0,0,1-13.83.99,57.383,57.383,0,0,0-18.188.629,5.574,5.574,0,0,0,1.113,11.034,5.631,5.631,0,0,0,1.125-.115,46,46,0,0,1,14.591-.488,44.448,44.448,0,0,0,18.432-1.386c30.894-9.4,31.77-42.541,27.3-62.365,7.03-3.752,13.186-9.952,18.35-18.489,9.347-15.458,12.575-34.375,9.088-53.266C473.391,128.071,429.243,125.114,425.639,124.961Z"/><path d="M115.886,298.414q-1.34,1.51-2.65,3.057a5.572,5.572,0,1,0,8.5,7.2q1.227-1.449,2.48-2.861a5.572,5.572,0,0,0-8.335-7.4Z"/><path d="M33.465,467.507H421.484a5.573,5.573,0,1,0,0-11.145H410.822c-20.783-13.3-34.065-36.936-40.051-49.637a5.641,5.641,0,0,0,.1-1V233.974A5.573,5.573,0,0,0,365.3,228.4h-41.47a5.573,5.573,0,0,0,0,11.145h1.62v49.489a5.573,5.573,0,1,0,11.145,0V239.547h23.133V378.238c-17.083-43.016-44.463-91-85.585-110.447a62.483,62.483,0,0,0-26.531-5.948H182.945a61.952,61.952,0,0,0-27.7,5.948,111.359,111.359,0,0,0-23.038,14.79,5.572,5.572,0,1,0,7.085,8.6,100.193,100.193,0,0,1,20.717-13.317,50.88,50.88,0,0,1,21.573-4.9c.07,0,.136.02.207.02h.939a50.883,50.883,0,0,1,20.815,4.879c44.092,20.846,71.726,78.851,87.166,123.9.549,1.539,11.907,32.729,36.029,54.59H223.078V387.874a43.941,43.941,0,0,0-87.882,0v68.488H46.811c6.58-8.089,15.165-21.579,22.057-42.467.418-1.337.849-2.691,1.308-4.114,9.936-30.8,21.828-57.3,35.346-78.772a5.572,5.572,0,1,0-9.431-5.937c-14.012,22.253-26.3,49.6-36.54,81.344-.451,1.4-.892,2.784-1.293,4.07-11.479,34.788-27.836,46.775-27.97,46.871a5.572,5.572,0,0,0,3.177,10.15Zm267.76-69.413c-15-43.78-41.361-99.467-83.351-125.106h29.737a51.25,51.25,0,0,1,21.767,4.879c44.092,20.846,71.726,78.851,87.166,123.9.549,1.539,11.906,32.729,36.029,54.59H344.984C315.734,437.65,301.342,398.418,301.225,398.094Zm-154.884-10.22a32.8,32.8,0,0,1,65.592,0v68.488H146.341Z"/><path d="M445.925,467.507a5.573,5.573,0,0,0,0-11.145h-4a5.573,5.573,0,1,0,0,11.145Z"/><path d="M304.024,228.4a5.573,5.573,0,1,0,0,11.145h1.021a5.573,5.573,0,0,0,0-11.145Z"/></svg>
