<svg id="icons" height="512" viewBox="0 0 500 500" width="512" xmlns="http://www.w3.org/2000/svg"><path d="m481.5 37.1-71.428 68.107a141.835 141.835 0 0 0 -11.308-9.814l81.405-76.762a5.5 5.5 0 0 0 -7.547-8l-82.969 78.232c-21.77-15.853-61.252-25.206-78.1-24.691-.946-26.621-8.522-40.016-8.866-40.608a5.5 5.5 0 0 0 -9.909.824c-16.656 44.418-57.815 55.545-58.217 55.65-4.438.969-5.627 7.32-1.82 9.82 15.03 10.63 38.707 12.15 49.1 12.272 3.488 27.253 10.934 51.431 22.178 72.19l-24.873 25.527c-37.175-38.468-104.842-49.071-123.952-47.076a5.5 5.5 0 0 0 -5.268 5.536c.744 51.666 10.3 96.4 38.479 133.608l-24.865 24.474c-20.907-13.945-58.495-22.111-73.2-21.6-.946-26.622-8.523-40.016-8.866-40.609a5.5 5.5 0 0 0 -9.91.825c-16.654 44.418-57.812 55.545-58.214 55.65-4.437.97-5.627 7.32-1.819 9.82 15.029 10.631 38.705 12.15 49.094 12.273 3.131 24.472 9.46 46.461 18.856 65.728l-68.517 63.6a5.5 5.5 0 0 0 7.484 8.063l66.364-61.6c2.427 4.223 4.989 8.314 7.749 12.235l-63.341 60.465a5.5 5.5 0 1 0 7.6 7.956l62.432-59.6c33.324 44.482 102.119 63.229 136.906 61.116a5.5 5.5 0 0 0 5.268-5.536c-.269-56.093-13.92-110.119-49.484-146.29l20.994-22.1c23.766 20.566 66.617 32.344 88.074 31.908.946 26.621 8.522 40.015 8.866 40.608a5.5 5.5 0 0 0 9.909-.825c16.653-44.417 57.815-55.544 58.215-55.649 4.437-.968 5.628-7.321 1.82-9.82-15.03-10.63-38.707-12.15-49.095-12.273-4.274-33.4-14.49-62.189-30.37-85.709l23.318-22.234c33.657 42.024 101.111 59.381 133.7 57.3a5.5 5.5 0 0 0 5.268-5.536c-.507-54.367-12.327-104.556-44.953-141.411l71.4-68.086a5.5 5.5 0 0 0 -7.588-7.958zm-320.487 126.7c12.039.373 42.587 2.917 73.606 18.269-3.911 25.182-17.971 54.053-60.895 59.1-7.759-22.282-12.024-48.269-12.712-77.374zm65.37 63.24c10.963 3.9 16.468 13.533 16.386 28.7-7.322.47-22.474-.673-30.467-16.451a68.942 68.942 0 0 0 14.08-12.254zm3.953 252.652c-12.039-.372-42.586-2.916-73.605-18.268 3.911-25.183 17.971-54.055 60.9-59.1 7.752 22.276 12.02 48.254 12.704 77.363zm-65.364-63.245c-10.973-3.893-16.483-13.523-16.391-28.727 7.3-.516 22.431.566 30.466 16.481a68.911 68.911 0 0 0 -14.076 12.241zm48.6-24.666a89.9 89.9 0 0 0 -24.9 7.1c-11.559-22.4-35.163-23.913-46.61-21.355a5.5 5.5 0 0 0 -4.287 4.981c-1.887 26.815 9.865 38.21 20.407 43.051a89.46 89.46 0 0 0 -11.635 30.336c-43.587-25.684-69.011-69.129-75.574-129.294a5.512 5.512 0 0 0 -5.718-4.9c-.253.01-20.607.844-36.948-4.983a103.077 103.077 0 0 0 47.852-45.157 116.9 116.9 0 0 1 3.28 28.726 5.5 5.5 0 0 0 5.779 5.492c46.919-1.797 107.43 29.646 128.358 85.998zm-29.617-60.462c-3.647-3.2-7.335-6.1-11.023-8.739l22.54-22.185q4.461 4.954 9.089 9.233zm136.416-14.432a5.5 5.5 0 0 0 5.714 4.9c.251-.011 20.621-.821 36.944 4.986a103.07 103.07 0 0 0 -47.844 45.154 116.912 116.912 0 0 1 -3.28-28.727 5.506 5.506 0 0 0 -5.772-5.493c-46.855 1.776-107.407-29.567-128.365-85.994a89.912 89.912 0 0 0 24.894-7.1c11.527 20.74 29.934 24.13 46.613 21.354a5.5 5.5 0 0 0 4.288-4.982c1.9-26.981-10.137-38.3-20.411-43.045a89.46 89.46 0 0 0 11.648-30.351c43.588 25.682 69.012 69.128 75.575 129.293zm-26.54-100.843q-3.363-4.29-7.006-8.315l22.968-23.572c1.257 1.978 2.538 3.934 3.872 5.841q1.5 2.139 3.063 4.214zm157.721 33.025c-12.039-.372-42.587-2.916-73.606-18.268 3.911-25.182 17.972-54.054 60.895-59.1 7.759 22.277 12.027 48.26 12.711 77.368zm-65.362-63.248c-10.963-3.906-16.476-13.53-16.395-28.694 7.325-.474 22.475.673 30.469 16.451a68.921 68.921 0 0 0 -14.074 12.243zm48.6-24.663a89.881 89.881 0 0 0 -24.893 7.1c-11.553-22.392-35.132-23.917-46.615-21.354a5.5 5.5 0 0 0 -4.282 4.985c-1.906 27.076 10.278 38.352 20.412 43.044a89.468 89.468 0 0 0 -11.64 30.343c-43.593-25.683-69.017-69.128-75.58-129.293a5.5 5.5 0 0 0 -5.715-4.9c-.252.01-20.621.821-36.943-4.986a103.076 103.076 0 0 0 47.844-45.154 116.914 116.914 0 0 1 3.279 28.727 5.507 5.507 0 0 0 5.773 5.493c46.851-1.774 107.404 29.568 128.362 85.995z"/><path d="m189.454 452.962 5.741.049-.049 5.741a5.5 5.5 0 0 0 11 .092l.049-5.74c.072-.009 5.724.056 5.787.048 7.2-.117 7.245-10.821.046-11l-5.741-.048.049-5.741a5.5 5.5 0 0 0 -11-.093l-.049 5.741c-.069.014-5.726-.06-5.788-.049a5.5 5.5 0 0 0 -.045 11z"/><path d="m200.787 190.859-5.74-.049.048-5.741a5.5 5.5 0 0 0 -11-.092l-.048 5.74c-.073.009-5.725-.056-5.789-.048-7.2.117-7.244 10.821-.045 11l5.74.048-.048 5.741a5.5 5.5 0 1 0 11 .093l.048-5.741c.07-.014 5.727.06 5.789.049a5.5 5.5 0 0 0 .045-11z"/><path d="m408.91 220.373 5.74.049-.048 5.741a5.5 5.5 0 0 0 11 .092l.048-5.74c.072-.009 5.725.056 5.788.049 7.2-.118 7.245-10.821.046-11l-5.741-.049.049-5.741a5.5 5.5 0 0 0 -11-.093l-.049 5.741-5.743-.049a5.5 5.5 0 1 0 -.092 11z"/><path d="m125.08 372.785c-8.047 0-12.61 3.234-15.019 5.947-5.378 6.053-4.6 14.1-4.492 15a5.5 5.5 0 1 0 10.931-1.242c-.11-1.124 0-4.483 1.821-6.492 1.331-1.468 3.606-2.213 6.761-2.213 7.218-.117 7.231-10.879-.002-11z"/><path d="m155.941 341.442c-8.047 0-12.609 3.234-15.019 5.947-5.378 6.053-4.6 14.1-4.492 15a5.5 5.5 0 1 0 10.929-1.244c-.405-4.69 2.075-9.021 8.583-8.706a5.5 5.5 0 0 0 0-11z"/><path d="m109.782 366.267a5.494 5.494 0 0 0 5.465-6.122c-.111-1.125 0-4.484 1.821-6.493 1.331-1.468 3.605-2.212 6.761-2.212a5.5 5.5 0 1 0 0-11c-8.048 0-12.61 3.233-15.02 5.946-5.377 6.054-4.6 14.1-4.492 15a5.529 5.529 0 0 0 5.465 4.881z"/><path d="m343.053 138.931c-8.047 0-12.609 3.234-15.019 5.947-5.378 6.053-4.6 14.105-4.492 15a5.5 5.5 0 1 0 10.929-1.244c-.405-4.689 2.074-9.021 8.582-8.706 7.223-.114 7.233-10.876 0-10.997z"/><path d="m373.914 107.588c-8.047 0-12.609 3.234-15.019 5.947-5.378 6.053-4.6 14.105-4.492 15a5.5 5.5 0 1 0 10.929-1.244c-.11-1.125 0-4.484 1.822-6.493 1.33-1.468 3.605-2.213 6.76-2.213 7.223-.115 7.233-10.876 0-10.997z"/><path d="m327.754 132.414a5.494 5.494 0 0 0 5.465-6.123c-.11-1.124 0-4.484 1.822-6.493 1.331-1.468 3.605-2.212 6.76-2.212 7.223-.118 7.233-10.88 0-11-8.047 0-12.609 3.233-15.019 5.946-5.378 6.054-4.6 14.106-4.492 15a5.529 5.529 0 0 0 5.464 4.882z"/><path d="m269.913 265.356c-7.223.119-7.232 10.88 0 11 15.639.265 20.6-12.82 19.511-20.951-.959-7.16-11.645-5.958-10.929 1.245.405 4.692-2.073 9.021-8.582 8.706z"/><path d="m252.451 281.91a5.478 5.478 0 0 0 -4.817 6.084c.111 1.125 0 4.484-1.821 6.493-1.331 1.468-3.6 2.213-6.761 2.213a5.5 5.5 0 1 0 0 11c8.048 0 12.61-3.234 15.02-5.947 5.377-6.053 4.6-14.1 4.492-15a5.523 5.523 0 0 0 -6.113-4.843z"/><path d="m284.564 282.913a5.477 5.477 0 0 0 -4.817 6.087c.4 4.692-2.074 9.019-8.582 8.7a5.5 5.5 0 1 0 0 11c8.047 0 12.61-3.234 15.02-5.947 5.377-6.053 4.6-14.105 4.491-15a5.517 5.517 0 0 0 -6.112-4.84z"/></svg>