<?xml version="1.0"?>
<svg xmlns="http://www.w3.org/2000/svg" id="icon" viewBox="0 0 512 512" width="512" height="512"><title>windsurf</title><path d="M378.43,150.707a108.479,108.479,0,0,0-46.138-7.67,5.572,5.572,0,0,0,.641,11.126,97.228,97.228,0,0,1,41.363,6.895c25.978,10.374,72.413,37.412,91.527,101.931a184.754,184.754,0,0,1,7.26,56.04c-.5,26.062-4.117,76.093-22.805,118.363a59.919,59.919,0,0,1-54.834,35.569H354.967c3.039-2.092,6.029-4.236,8.905-6.481a5.573,5.573,0,0,0-6.858-8.786,177.524,177.524,0,0,1-23.166,15.267H228.091c-16.945-13.927-33.572-24.815-49.444-32.357a5.572,5.572,0,1,0-4.784,10.065,216.161,216.161,0,0,1,36.193,22.292H70.166c8.456-14.207,24.12-29.08,53.034-32.866a68.655,68.655,0,0,1,19.505.414,5.573,5.573,0,0,0,1.727-11.012,79.738,79.738,0,0,0-22.68-.452c-38.671,5.063-56.521,28.369-64.248,43.916H39.07a81.018,81.018,0,0,1,80.72-75.337h1.941a80.843,80.843,0,0,1,34.31,7.63c29.093,13.735,103.21,43.03,162.957,18.426,43.109-17.75,58.7-44.921,64.18-64.59a81.662,81.662,0,0,0,1.434-39.125c-.664-3.286-8.756-39.434-44.736-48.922a11.216,11.216,0,0,1-7.546-6.653,11.386,11.386,0,0,1,.692-10.19,19.747,19.747,0,0,1,10.632-8.591,14.412,14.412,0,0,0,9.443-12.538,13.973,13.973,0,0,0-7.246-13.386c-12.056-6.675-31.976-13.719-58.418-9.375a11.9,11.9,0,0,1-11.3-4.334,12.145,12.145,0,0,1-1.9-12.2,65.973,65.973,0,0,1,7.466-13.991,5.572,5.572,0,0,0-9.1-6.429,77.154,77.154,0,0,0-8.74,16.353,23.165,23.165,0,0,0,3.61,23.276,22.919,22.919,0,0,0,21.773,8.324c23.284-3.831,40.7,2.308,51.211,8.126a2.845,2.845,0,0,1,1.531,2.814,3.35,3.35,0,0,1-2.231,2.921,30.877,30.877,0,0,0-16.336,13.381,22.607,22.607,0,0,0,13.619,33.27c30.006,7.913,36.408,39.1,36.663,40.407.023.121.054.256.084.375.636,2.452,14.7,60.415-59.027,90.772-57.2,23.555-132.3-7.975-153.956-18.2a92.068,92.068,0,0,0-39.068-8.7H67.491a28.7,28.7,0,0,1-28.184-23.344H275.085a6.539,6.539,0,0,1,6.047,3.887,6.212,6.212,0,0,1-.858,6.774c-7.088,8.416-16.9,12.683-29.152,12.683h-38.35a5.573,5.573,0,0,0,0,11.145h38.35c15.475,0,28.5-5.757,37.676-16.649a17.329,17.329,0,0,0,2.439-18.653,17.662,17.662,0,0,0-16.152-10.332H33.308a5.573,5.573,0,0,0-5.573,5.573c0,.669.01,1.326.029,1.967.613,21.005,18.435,38.094,39.727,38.094h8.425a92.134,92.134,0,0,0-48.181,80.909,5.573,5.573,0,0,0,5.573,5.573H395.444A71.068,71.068,0,0,0,460.471,441.9c19.477-44.053,23.243-95.758,23.754-122.657a195.886,195.886,0,0,0-7.715-59.417C456.06,190.8,406.281,161.83,378.43,150.707Z"/><path d="M295.356,153c-1.086.6-2.166,1.23-3.21,1.88a5.572,5.572,0,1,0,5.889,9.461q1.308-.811,2.695-1.578A5.572,5.572,0,1,0,295.356,153Z"/><path d="M387.664,248.032c-.343.29-.674.588-.986.884a18.707,18.707,0,0,0-5.823,13.227,20.232,20.232,0,0,0,5.586,14.372c13.9,14.546,22.969,32.365,26.947,52.964,5.375,27.832-.166,57.079-15.6,82.355a173.232,173.232,0,0,1-21.3,28.066,5.573,5.573,0,1,0,8.137,7.616A184.369,184.369,0,0,0,407.3,417.643c16.887-27.651,22.937-59.713,17.034-90.278-4.39-22.734-14.427-42.433-29.833-58.552a9.014,9.014,0,0,1-2.5-6.4,7.653,7.653,0,0,1,2.358-5.42c.16-.154.327-.3.507-.454a26.27,26.27,0,0,0,9.637-21.281,75.215,75.215,0,0,0-8.2-30.637,9.147,9.147,0,0,1,2.206-11.209,5.573,5.573,0,0,0-7.279-8.44,20.372,20.372,0,0,0-4.865,24.692,64.169,64.169,0,0,1,7,26.123A15.21,15.21,0,0,1,387.664,248.032Z"/><path d="M233.12,278.49a5.572,5.572,0,0,0,4.509-8.846c-10.883-14.992-19.873-33.846-26.72-56.038l0-.011,0-.017a5.554,5.554,0,0,0-6.314-3.814c-31.635-1.619-69.776,16.82-71.408,17.617a5.573,5.573,0,0,0,4.9,10.012c.364-.178,35.127-17.012,63.452-16.586,5.787,17.793,12.944,33.547,21.384,46.952-22.373,1.617-76.752,9.481-121.322,47.334a441.935,441.935,0,0,1-1.626-103.184c5.713-53.217,25.222-124.176,84.9-167.318a615.329,615.329,0,0,0-.359,78.823,5.573,5.573,0,0,0,11.124-.689,579.564,579.564,0,0,1,1.307-88.646,5.573,5.573,0,0,0-8.5-5.332c-31.385,19.739-55.972,47.83-73.079,83.493-13.591,28.334-22.5,61.467-26.47,98.48-6.7,62.387,2.784,113.651,3.3,116.39l1.89,10.821a5.573,5.573,0,1,0,10.979-1.918l-1.376-7.878c53.189-49.108,126.986-49.645,129.336-49.645Z"/><path d="M191.3,139.445c-.172.018-.331.071-.5.1-22.972-1.251-48.433,7.022-49.528,7.384a5.572,5.572,0,1,0,3.488,10.585c.235-.079,22.065-7.19,42.133-6.952a406.964,406.964,0,0,0,7.595,44.841,5.574,5.574,0,0,0,5.424,4.316,5.644,5.644,0,0,0,1.262-.144,5.574,5.574,0,0,0,4.172-6.687,402.135,402.135,0,0,1-7.918-48.4l0-.022-.007-.061A5.577,5.577,0,0,0,191.3,139.445Z"/><path d="M186.08,386.479a5.573,5.573,0,0,0,0,11.145h3.767a5.573,5.573,0,1,0,0-11.145Z"/></svg>
