<svg id="icons" height="512" viewBox="0 0 500 500" width="512" xmlns="http://www.w3.org/2000/svg"><path d="m42.888 466.362a5.537 5.537 0 0 0 8.3-2.89c-.109-.4 26.283-79.942 70.348-137.285.029-1.482 44.508-77.293 91.961-104.46-.93.312 29.323-44.591 83.758-75.2.415-.472 42.083-47.22 101.633-63.173 4.832-.667 46.918-7.193 70.709-34.814 13.3 27.985 10.6 64.767-13.19 88.012-15.446 16.298-48.907 35.818-96.77 56.448-5.079 1.858-80.967 30.416-97.955 82.606a41 41 0 0 0 33.708 53.231c11.911 1.551 27.255-.823 47.656-3.953 48.805-6.922 73.315.086 76.253 21.628-10.03.174-23.629 4.362-27.589 19.759-6.117 25.786 12.786 35.264 28.695 28.915a18.027 18.027 0 0 0 8.411-8.395c3.176-5.349 1.893-20.888-7.523-17.5a5.5 5.5 0 0 0 -2.625 7.322 6.019 6.019 0 0 1 .228 5.422c-2.249 4.952-9.414 4.728-13.158 2.849-4.122-2.671-5.32-8.309-3.374-15.877 3.487-13.561 19.427-11.511 21.214-11.235a5.5 5.5 0 0 0 6.243-4.207c4.586-38.653-39.288-47.9-88.858-39.493-28.676 3.4-50.605 11.642-65.6-9.832a29.8 29.8 0 0 1 -3.222-25.232c15.537-47.73 90.642-75.451 91.4-75.725 49.9-21.431 84.194-41.557 100.854-59.17 34.6-34.216 25.791-85.012 10.789-108.82a5.559 5.559 0 0 0 -6.278-2.354c-.468.143-47.272 14.331-86.729 15.27a5.819 5.819 0 0 0 -3.041 1.006c-.3 1.069-69.567 47.293-106.728 63.028-.446.544-45.254 54.42-90.888 73.046a5.841 5.841 0 0 0 -2.525 2.082c.137 1.44-52.832 77.157-89.562 101.534-1.124 2.231-26.585 87.6-76.635 150.055a5.539 5.539 0 0 0 1.223 8.009zm411.361-418.045c-20.605 17.67-50.346 23.111-56.13 24.026a40.692 40.692 0 0 0 -5.145-13.65c22.744-1.653 45.918-6.567 61.275-10.376zm-174.276 72.035c34.642-13.894 86.423-48.927 101.395-59.279a31.212 31.212 0 0 1 6.051 14.215c-45.178 14.5-78.668 44.059-92.055 57.325a32.684 32.684 0 0 0 -4.485-6.283c-4.97-5.251-12.906 2.006-8.117 7.424a21.087 21.087 0 0 1 4.023 6.463c-41.259 24.2-65.93 52.768-76.546 66.943a44.377 44.377 0 0 0 -14.013-16.542c40.937-20.913 77.374-62.734 83.747-70.266zm-94.236 76.748c4.49 2.2 12.205 7.528 16.5 19.261-38.294 23.55-70.509 71.58-83.835 93.408a52.95 52.95 0 0 0 -14.394-18.512c34.081-25.299 71.769-79.394 81.729-94.157zm-88.393 102.949c4.863 4.15 11.462 11.513 13.554 22.069-37.442 49.67-60.683 110.712-67.844 131.106l-17.978-12.073c40.613-52.66 64.924-119.179 72.268-141.102z"/></svg>