<svg id="icons" height="512" viewBox="0 0 500 500" width="512" xmlns="http://www.w3.org/2000/svg"><path d="m175.217 394.647a5.535 5.535 0 0 0 4.637-8.452c-8.468-13.318-18.13-40.277 6.027-76.928 4.776 13.911 16.905 25.374 30.017 22.407 25-4.058 25.1-26.573 20.315-44.722-4.841-17.984 1.271-36.586 14.552-49.375-.636 13.54.5 34.315 11.239 47.924 6.628 8.4 16.277 13.223 27.8 13.439.262-.03 22.869-2.926 26.555-29.164 9.44 10.095 23.946 29 29.305 54.216a5.5 5.5 0 1 0 10.759-2.286c-8.986-42.3-40.508-67.74-41.846-68.8-3.559-3.022-9.432.109-8.9 4.749 2.071 25.672-13.487 29.733-16.7 30.294-33.513-1.225-27.372-56.007-26.013-61.864.953-4.566-4.627-8.271-8.454-5.538-18.358 12.157-25.825 27.514-28.855 38.255-7.423 22.908 7.688 42.184-.373 55.943-2.113 3.147-5.8 5.141-11.27 6.1-15.363 2.695-20.568-24.6-20.617-24.873-.664-4.56-7.039-6.131-9.749-2.4-24.97 30.08-32.041 70.541-13.067 98.533a5.492 5.492 0 0 0 4.638 2.542z"/><path d="m16.678 151.053a5.5 5.5 0 0 0 5.429 3.741c8.916-.35 19.193-.661 30.67-.93-13.24 45.598-33.955 148.173-43.195 263.736a22.382 22.382 0 0 0 14.569 22.051c-11.209 41.637 29.167 51.044 51.3 51.145h59.586a34.82 34.82 0 0 0 25.658-11.016c9.692 10.646 23.888 10.994 28.133 11.017h40.983a40.479 40.479 0 0 0 25.871-9.4c5.443 4.3 12.406 7.431 20.812 9.28a5.528 5.528 0 0 0 1.182.128h51.884a35.375 35.375 0 0 0 32.5-21.062c38.059 7.034 74.539-5.363 90.581-18.869 14.394-9.937 19.326-30.436 17.04-46.2h10.349a5.536 5.536 0 0 0 5.447-6.264c-7.931-56.652-24.154-172.353-32.079-228.576 6.373-3.42 10.707-9.562 12.94-18.309l10.584-.113a5.5 5.5 0 0 0 4.917-3.156l8.444-17.935a5.5 5.5 0 0 0 -4.606-7.83c-9.672-.65-22.447-1.235-37.98-1.743 3.972-34.2 7.059-57.461 7.091-57.7a5.536 5.536 0 0 0 -5.452-6.226h-21.15a5.5 5.5 0 0 0 -5.46 4.839l-5.434 44.839a43.2 43.2 0 0 0 -12.055 13.195c-23.841-.442-50.251-.717-76.76-.8-8.071-15.064-27.231-16.921-39.486-26.594-15.649-12.079-57.949-36.6-112.629-3.475a64.758 64.758 0 0 0 -27.31 32.649c-17.53.283-36.565.511-56.76.68 6-29.76 9.714-49.272 9.755-49.485a5.5 5.5 0 0 0 -2.189-5.491l-12.933-9.32a5.5 5.5 0 0 0 -8.517 3l-8.352 30.308-8.441-32.33a5.5 5.5 0 0 0 -6.595-3.962l-15.373 3.66a5.5 5.5 0 0 0 -4.14 6.327c1.9 10.552 5.349 26.494 10.236 47.37l-6.164 10.211c-15.381.044-24.848.032-24.864.033a5.537 5.537 0 0 0 -5.215 7.254zm10.922 278.129a11.392 11.392 0 0 1 -7.027-11.075c9.3-114.48 28.88-213.144 43.683-264.49l3.145-.06a86.61 86.61 0 0 1 5.786 7.048c-7.851 37.722-15.545 72.989-22.869 104.829a641.752 641.752 0 0 0 -15.791 150.482 89.138 89.138 0 0 0 -6.927 13.266zm77.137-64.492c-28.915 6.817-41.97 18.239-59.271 36.635a633.274 633.274 0 0 1 15.573-133.425c3.606-15.678 7.3-32.187 11.06-49.4 2.735 10.619 4.47 17.252 4.5 17.352 11.792 34.888 22.449 93.961 28.138 128.838zm-27.51-169.936q1.9-8.88 3.812-17.97c8.971 33.224 39.283 154.008 48.221 189.45a42.426 42.426 0 0 0 -13.524-2.437c-5.678-34.874-16.487-95.125-28.547-130.917-.433-1.107-4.708-19.125-9.962-38.126zm77.808 274.936c-4.872 6.118-11.885 10.214-20 10.1h-59.635c-.261.006-24.752.038-36.292-11.462a19.2 19.2 0 0 1 -5.746-14.373c1.827-44.56 61.576-91.076 95.135-76.105 14.849 7.425 29.657 27.255 35.667 47.568-8.244 11.933-13.39 31.208-9.129 44.272zm98.754-2.282a29.124 29.124 0 0 1 -23.982 12.385h-41.069c-.527.042-13.232.366-20.166-7.711-4.232-5.112-5.173-12.895-2.8-23.134 3.34-14.4 12.021-26.147 25.8-34.92a41.529 41.529 0 0 1 43.069-.952c17.488 10.109 32.899 35.324 19.148 54.332zm28.563-127.776a4.667 4.667 0 0 1 2.656-4.423 4.74 4.74 0 0 1 5.206.569c14.664 12.186 21.012 27.311 18.909 45-23.89-4.179-43.495 14.1-54.782 34.107a63.087 63.087 0 0 0 -14.1-11.279 51.521 51.521 0 0 0 -18.372-6.584c-3.422-11.1-2.515-22.247 2.726-33.148 2.448-4.336 7.141-3.74 9.531-.724 16.164 20.566 50.121 7.58 48.226-23.518zm69.263 126.5a24.375 24.375 0 0 1 -22.059 13.668h-51.274a40.219 40.219 0 0 1 -15.169-6.555c10.721-14.7 8.081-34.265-1.427-48.731 9.642-19.528 28.406-39.182 50.46-31.648 30.7 10.488 37.753 22.64 42.227 51.611a36.669 36.669 0 0 1 -2.758 21.659zm106.185-42.446c-3.919 22.7-44.133 42.555-92.558 35.431a50.968 50.968 0 0 0 0-16.319c-3.422-22.162-8.809-37.139-24.733-48.383 5.762-14.481 16.756-38.481 32.545-57.423a23.7 23.7 0 0 1 28.689-6.25 121.224 121.224 0 0 1 28.013 18.876c6.589 26.209 1.451 63.331-30.78 73.854-5.712 2.1-4.106 10.7 1.911 10.66 29.993-7.84 44.959-39.591 42.089-69.781 10.369 14.63 19.484 36.605 14.824 59.335zm-28.184-88.56c.808-26 2.7-55.271 5.044-84.26 5.119 37.425 9.191 73.806 11.927 100.206a109.706 109.706 0 0 0 -7.748-8.1c-2.959-2.799-6.149-5.465-9.225-7.846zm44.084 58.545h-5.737a94.15 94.15 0 0 0 -8.862-24.336c-2.673-36.048-10.238-103.15-20.357-164.537 1.172-12.233 2.365-24.027 3.525-35.074 7.81 55.435 23.64 168.255 31.431 223.947zm3.168-260.695-3.518 7.471-7.907.084a105.794 105.794 0 0 0 -6.91-8.394c6.797.263 12.923.543 18.336.839zm-43.813-65.155h10.013c-1.071 8.32-3.112 24.47-5.565 45.34-2.844-2.109-5.9-4.22-9.176-6.292zm-10.455 48.435a131.18 131.18 0 0 1 33.6 30.279c-1.075 5.693-3.044 9.729-5.963 12.212l-34.415-35.231a32.527 32.527 0 0 1 6.778-7.26zm.267 35.728 5.327-.056 4.429 4.535c-5.259 48.729-11.692 116.221-13.757 171.214-1.787-1.111-3.543-2.151-5.25-3.111.796-10.994 6.598-166.297 9.248-172.582zm-263.936-25.518a53.62 53.62 0 0 1 23.13-28.236c48.859-29.594 86.357-7.919 100.208 2.77a63.807 63.807 0 0 0 15.817 8.963 77.472 77.472 0 0 1 15.838 8.572c11.812 8.623 5.655 22.921-3.9 30.134a30.21 30.21 0 0 0 -14.987-1.567 33.812 33.812 0 0 0 .25-18.991c-4.175-13.683-16.192-14.94-30.877-10.772-6.892 2.181-3.843 12.483 3.129 10.546 6.569-1.948 11.906-2.173 14.645-.619a5.087 5.087 0 0 1 2.446 3.571c3.322 12.985-3.958 19.95-4.928 20.809l-6.728 4.531a5.5 5.5 0 0 0 6.145 9.124l6.461-4.352c9.465-3.745 17.1-4.178 22.076-1.236 2.959 1.913 4.112 5.763.852 8.633a12.607 12.607 0 0 1 -4.687 2.115c-20.586 1.68-33.721 9.056-42.427 13.944-7.818 5.43-17.98 6.406-24.523-1.019-9.5-10.942.148-33.185 8.466-42.421 4.717-5.47-3.334-12.636-8.222-7.306-8.7 9.633-15.693 26.06-15.152 39.967-32.763 7.362-75.413-11.292-63.032-47.16zm-12.765 6.051a43.89 43.89 0 0 0 -.433 9.194c-16.115.078-31.347.2-45.357.357a104.123 104.123 0 0 0 -6.876-8.928c18.638-.158 36.285-.366 52.666-.623zm-43.741 20.529c14.155-.156 29.521-.273 45.768-.347 11.438 28.375 47.143 37.856 76.34 31.639 7.787 16.662 27.92 19.662 42.248 9.662 8.329-4.742 20.392-11.3 38.637-12.643 11.129-1.637 20.968-13.213 13.421-25.715 6.842-6.106 13.268-16.047 12.592-25.742 26.36.1 52.526.384 76.057.834l6.111 6.256-.5 4.1-72.29.769a5.5 5.5 0 0 0 .117 11l70.839-.754c-2.441 4.883-8.216 157.622-8.926 167.2a34.7 34.7 0 0 0 -38.236 10.651c-16.158 19.384-27.478 43.507-33.668 58.786a113.056 113.056 0 0 0 -11.14-4.806c3.215-22.116-4.547-41.646-22.556-56.61a15.818 15.818 0 0 0 -25.879 12.8c.425 9.595-4.131 20.065-13.663 21.509-6.653 1.009-11.481-.638-14.744-5.034a16.647 16.647 0 0 0 -15.044-6.713c-18.357 1.466-21.343 33.275-17.585 46.674-14.111.693-28.158 8.812-37.952 18.836-6.372-16.686-17.485-32.1-29.869-41.61-9.6-38.045-41.853-166.613-51.451-202.175a28.691 28.691 0 0 0 11.373-18.567zm-15.513-81.64 3.669 2.642c-1.344 6.98-4.673 24.13-9.347 47.3q-2.074-1.633-4.088-3.019l-1.539-5.9zm4.963 77.7a18.342 18.342 0 0 1 -5.245 11.813c-4.864-8.23-15.771-23.073-36.276-35.045l3.952-6.546c6.869 1.872 23.094 8.358 37.569 29.782zm-39.543-82.283 11.549 44.236a56.639 56.639 0 0 0 -7.722-2.59c-3.959-16.956-6.933-30.522-8.859-40.447zm-11.018 66.615a100.5 100.5 0 0 1 14.428 9.356c-11.083.247-21.112.533-29.949.853l-3.424-10.172c4.572-.003 11.049-.013 18.945-.037z"/><path d="m180.211 263.161c12.707 2.3 24.922-9.3 24.025-22.095-.852-15.847-13.475-21.792-25.449-17.217-12.824 5.385-17.842 15.416-13.422 26.835 3.462 8.94 9.984 11.716 14.846 12.477zm2.834-29.169c9.653-4.01 13.81 9.387 6.663 15.938-4.52 4.068-12 3.254-14.085-3.217-.874-2.26-3.198-8.262 7.422-12.721z"/><path d="m308.667 221.434c2.035 6.97 12.388 4.109 10.617-2.875l-1.044-3.859a5.5 5.5 0 1 0 -10.617 2.874z"/><path d="m284.955 47.654-4.5 6.331c-4.085 5.935 4.649 12.211 8.963 6.377l4.5-6.331a16.106 16.106 0 0 0 -2.318-21.459 5.173 5.173 0 0 1 -1.073-6.824l5.171-8.079c3.791-6.138-5.259-11.962-9.266-5.929l-5.171 8.079c-4.326 6.761-3.2 15.1 2.792 20.756 2.193 2.067 2.538 4.779.902 7.079z"/><path d="m238.787 47.654-4.5 6.331c-4.085 5.935 4.649 12.211 8.963 6.377l4.5-6.331a16.1 16.1 0 0 0 -2.318-21.459 5.173 5.173 0 0 1 -1.072-6.824l5.17-8.079c3.791-6.14-5.26-11.962-9.266-5.929l-5.17 8.078c-4.327 6.761-3.2 15.1 2.792 20.757 2.192 2.067 2.537 4.779.901 7.079z"/><path d="m192.618 47.654-4.5 6.331c-4.085 5.935 4.649 12.211 8.963 6.377l4.5-6.331a16.106 16.106 0 0 0 -2.317-21.459 5.174 5.174 0 0 1 -1.073-6.824l5.171-8.079c3.791-6.138-5.26-11.962-9.266-5.929l-5.171 8.079c-4.326 6.761-3.2 15.1 2.792 20.756 2.192 2.067 2.538 4.779.901 7.079z"/><path d="m193.53 134.251c.128 7.508 11.3 7.507 11.423 0-.128-7.508-11.296-7.506-11.423 0z"/><path d="m176.211 137.158c7.508-.128 7.507-11.3 0-11.423-7.511.128-7.506 11.296 0 11.423z"/><path d="m190.605 120.744c7.508-.128 7.507-11.3 0-11.423-7.505.128-7.505 11.296 0 11.423z"/></svg>