<svg id="icons" height="512" viewBox="0 0 500 500" width="512" xmlns="http://www.w3.org/2000/svg"><path d="m171.927 198.564c-10.133 2.445 16.575 64.375 81.448 95.411a5.5 5.5 0 0 0 5.835-.684c1.537-1.242 37.95-31.116 64.288-90.081a5.5 5.5 0 0 0 -9.108-5.926c-.221.246-22.444 24.818-43.918 41.522a31.279 31.279 0 0 1 -34.661 2.513c-16.292-9.189-39.438-23.915-57.181-41.88a5.5 5.5 0 0 0 -6.703-.875zm58.481 52.336c27.927 14.5 46.3-1.25 65.982-19.857-17.367 28.223-35.008 45.524-41.5 51.42-33.178-16.742-52.638-39.9-63.368-57.114a327.756 327.756 0 0 0 38.886 25.551z"/><path d="m158.511 442.41a5.5 5.5 0 0 0 -1.7 7.591c32.9 51.344 139.255 54.248 171.718-.234a5.5 5.5 0 0 0 -9.555-5.447c-29.434 47.648-124.062 44-152.882-.225a5.5 5.5 0 0 0 -7.581-1.685z"/><path d="m150.99 186.022c-38.175 63.391-59.49 122.625-71.268 198.064-6.186 45.283 6.69 70.034 31.426 83.543 2.793 9.026 6.738 18.487 6.919 18.921 2.922 6.6 12.822 2.489 10.149-4.244-34.758-66.45 20.511-211.816 21.15-208.456 2.73-6.613-6.988-11.035-10.088-4.392a464.547 464.547 0 0 0 -21.6 65.556c-11.386 45.058-14.6 84.554-9.61 117.647-52.661-41.1 20.892-212.924 52.368-261 .919-1.549 22.476-38.391 22.476-78.777 0-51.144 16.053-76.128 50.52-78.626 19.272-1.394 33.559 1.844 43.677 9.9 5.685 4.436 12.452-4.026 6.855-8.6a51.993 51.993 0 0 0 -10.464-6.448c10-9.6 24.383-11.661 33.372-.347 11.731 13.858 8.392 25.667-4.621 34.049q-.761-2.191-1.611-4.266c-2.872-6.636-12.812-2.535-10.169 4.194a73.037 73.037 0 0 1 2.772 8.1 5.377 5.377 0 0 0 .838 3.232c.5 2.078.961 4.249 1.368 6.542 6.556 33.756 9.475 54.33 12.279 58.447.777.817 77.812 82.858 96.268 178.069 11.91 63.174 11.483 132.96-27.876 139.047 10.307-113.565-17.5-189.453-27.736-180.027a5.5 5.5 0 0 0 -2.324 7.42c.293.394 30.921 61.224 18.516 177.543-.053.361-.654 12.349-4.341 21.184-2.686 6.682 7.191 10.9 10.139 4.265 2.728-6.484 4.051-14.228 4.668-19.307 51.305-4.9 53.073-81.15 39.754-152.218-12.979-70.507-63.313-144.569-98.018-182.4-1.123-4.637-7.18-35.559-11.457-58.768 19.583-10.781 27.607-31.552 10.076-52.056-14.362-17.943-39.164-14.043-53.268 3.357-13.073-3.192-33.139-3.239-47.129 1.547-13.757-14.153-35.384-16-47.914-.2-16.2 19.066-9.489 38.27 8.478 48.8-2.442 10.7-3.652 23.143-3.652 37.57-.005 37.307-20.735 72.813-20.922 73.135zm24.617-152.553c7.482-9.419 19.309-8.956 28.436-1.773a55.8 55.8 0 0 0 -21.269 23.142 77.17 77.17 0 0 0 -4.031 9.421c-11.457-7.881-13.443-18.591-3.136-30.79z"/><path d="m227.708 86.205a5.5 5.5 0 0 0 -7.737.79l-13.75 16.874a15.629 15.629 0 0 0 -.66 20.829c10.578 13.578 29.263 10 35.466-5.695 4.357-8.967-3.114-20.244-13.041-19.93h-3.668c2.919-3.845 8.482-8.104 3.39-12.868zm.279 23.868a3.265 3.265 0 0 1 2.766 1.515c1.576 2.052-1.133 5.551-2.378 7.32a8.3 8.3 0 0 1 -11.916 1.232c-2.687-2.188-4.487-4.845-3.127-7.426a4.448 4.448 0 0 1 4.143-2.641z"/><path d="m217.538 68.311-9.855-2.491a5.5 5.5 0 1 0 -2.695 10.665c.833.159 10.631 2.846 11.207 2.66 6.348-.003 7.574-9.234 1.343-10.834z"/><path d="m246.593 78.269c.447.2 11.031-2.661 11.778-2.8 6.976-1.889 4.346-12.318-2.695-10.665l-10.427 2.635c-6.227 1.596-5.008 10.828 1.344 10.83z"/></svg>