<svg id="Flat" height="512" viewBox="0 0 340 340" width="512" xmlns="http://www.w3.org/2000/svg"><circle cx="170" cy="170" fill="#f2f2f2" r="160"/><path d="m297.752 144.962s2.621 23.931-19.457 30.415c0 0-11.971 3.641-19.484 0 0 0-12.368 3.959-19.886 3.243a74.8 74.8 0 0 0 -11.025 17.78s-2.239 1.663-4.323-1.14l8.848-40.105 16.011-11.555 28.333-47.793s12.3 22.288-3.693 47.577z" fill="#ccc"/><path d="m134.69 217.016 9.728 73.443c7.184 4.31 12.358 6.055 16.082 6.38a8.379 8.379 0 0 0 8.926-9.74c-1.844-11.35-3.3-25.658-4.083-34.15a16.872 16.872 0 0 1 3.891-12.448c22.62-26.77 36.307-58.415 36.307-58.415 35.885-96.5 0-133.087 0-133.087z" fill="#ccc"/><circle cx="170" cy="170" fill="#fff" r="99.25"/><path d="m258.931 125.9-10.495 17.7-16.009 11.554-8.848 40.105c2.084 2.8 4.323 1.14 4.323 1.14a78.318 78.318 0 0 1 7.089-12.625 12.325 12.325 0 0 1 9.02-5.233 77.937 77.937 0 0 0 12.75-2.56 6.254 6.254 0 0 1 3.67.048 23.626 23.626 0 0 0 8.573.912c.159-2.295.246-4.61.246-6.945a98.834 98.834 0 0 0 -10.319-44.096z" fill="#e6e6e6"/><path d="m134.69 217.016 6.35 47.937a99.114 99.114 0 0 0 25.975 4.249c-.7-6.15-1.275-11.949-1.672-16.253a16.872 16.872 0 0 1 3.891-12.448c22.62-26.77 36.307-58.415 36.307-58.415 16.636-44.734 17.844-76.585 14.357-97.893a98.594 98.594 0 0 0 -24.872-10.258z" fill="#e6e6e6"/><path d="m297.752 144.962a32.045 32.045 0 0 0 -6.807-3.725c-17.213-7.191-36.515 4.448-38.466 23q-.126 1.2-.214 2.456s6.469 4.405 16.8 4.535a27.27 27.27 0 0 0 23.006-12.22 34.158 34.158 0 0 0 5.681-14.046z" fill="#d8db5e"/><path d="m161.121 77.259s-11.221-11.618-25.752-10.42a18.063 18.063 0 0 0 -12.522 6.772c-2.3 2.865-4.629 6.771-5.018 11.177a30.725 30.725 0 0 0 -12.246-3.949 18.069 18.069 0 0 0 -19.761 17.561 15.918 15.918 0 0 0 1.622 7.361 15.665 15.665 0 0 0 -6.8.526c-10.326 2.94-15.592 14.434-11.574 24.391 3.411 8.453 10.23 19.226 23.218 21.6l36.839 4.3z" fill="#8fa345"/><path d="m135.046 131.348a28.858 28.858 0 0 0 -15.453-4.335c-10.585.339-18.738 9.972-16.5 20.324q.111.513.256 1.038a35.092 35.092 0 0 0 -14.59-1.94c-12.621 1.431-17.184 17.8-6.7 24.962q.393.269.815.525a37.026 37.026 0 0 0 -11.33 6.957 17.7 17.7 0 0 0 -.2 25.614 12.229 12.229 0 0 0 9 3.655s-.2.232-.538.666c-10.017 13.009-1.317 32.247 15.084 33.018.815.038 1.644.043 2.481.007 0 0 5.071 8.694 13.4 11.23l12.68-13.766z" fill="#c0d36e"/><path d="m189.5 45.626c-14.413 9.058-37.1 28.01-54.1 64.169a191.131 191.131 0 0 0 -16.77 60.724c-1.767 16.238-3.452 39.311-1.867 59.594a26.318 26.318 0 0 1 -4.35 16.546l-6.649 10.041a14.508 14.508 0 0 0 2.768 19.126 148.57 148.57 0 0 0 30.733 19.863 11.67 11.67 0 0 0 16.689-11.7c-.857-8.211-1.894-17.861-2.887-26.352a31.731 31.731 0 0 1 7.339-24.254c20.5-24.114 66.8-90.549 46.89-180.295a11.811 11.811 0 0 0 -17.796-7.462z" fill="#eaa072"/><path d="m233.554 158.191s1.136 0 3.053-.193a46.632 46.632 0 0 0 41.644-45.149 62.59 62.59 0 0 0 -1.482-17.038s-64.364 9.064-43.215 62.38z" fill="#d8db5e"/><path d="m183.708 98.8s5.517 17.509-5.858 30.3c-5.671 6.378-16.287 2.153-16.242-6.382a32.5 32.5 0 0 1 12.763-26.248 22.683 22.683 0 0 0 9.337 2.33z" fill="#c77445"/><path d="m156.389 75.738q-1.216 1.523-2.427 3.125c12.972 20.477 31.621 29.424 58.105 23.785q.063-2.163.081-4.353c-11.484 1.405-35.092-1.656-55.759-22.557z" fill="#c77445"/><path d="m191.62 70.75a3.439 3.439 0 0 1 -.78-.08 3.809 3.809 0 0 1 -.75-.22 4.638 4.638 0 0 1 -.691-.37 4.153 4.153 0 0 1 -.609-.5 4.008 4.008 0 0 1 0-5.66 4.085 4.085 0 0 1 .609-.49 4.047 4.047 0 0 1 1.441-.6 4 4 0 0 1 3.61 6.75 3.987 3.987 0 0 1 -2.83 1.17z" fill="#c77445"/><path d="m277.087 222.4c-5.314-26.425-31.021-24.992-31.021-24.992l-17.406 28.276a32.758 32.758 0 0 0 -8.659-1l-22.53 36.6c2.9 19.047 26.072 20.829 26.072 20.829a25.144 25.144 0 0 0 18.714-5.917 27.188 27.188 0 0 0 9.326-21.291 24.851 24.851 0 0 0 16.739-5.984 27.6 27.6 0 0 0 8.765-26.521z" fill="#ccc"/><circle cx="247.181" cy="223.583" fill="#ff6161" r="27.18"/><path d="m243.382 220.375a3.988 3.988 0 0 1 -2.482-.864l-2.931-2.323a4 4 0 0 1 4.969-6.271l2.931 2.323a4 4 0 0 1 -2.487 7.135z" fill="#d13f3f"/><path d="m220.028 224.68a27.177 27.177 0 0 0 31.128 25.791c-.046-.266-.081-.533-.134-.8-5.251-26.113-30.405-25.02-30.994-24.991z" fill="#d13f3f"/><path d="m255.723 237.171a3.99 3.99 0 0 1 -2.418-1.7l-2.051-3.128a4 4 0 0 1 6.69-4.387l2.056 3.13a4 4 0 0 1 -4.272 6.085z" fill="#d13f3f"/><path d="m255.967 222.073a4 4 0 0 1 -2.264-7.3l3.086-2.113a4 4 0 1 1 4.52 6.6l-3.086 2.114a3.983 3.983 0 0 1 -2.256.699z" fill="#d13f3f"/><circle cx="220.001" cy="251.861" fill="#ff6161" r="27.18"/><path d="m217.6 246.878a4 4 0 0 1 -4-4v-3.74a4 4 0 0 1 8 0v3.74a4 4 0 0 1 -4 4z" fill="#d13f3f"/><path d="m221.537 267.153a4 4 0 0 1 -4-4v-3.74a4 4 0 0 1 8 0v3.74a4 4 0 0 1 -4 4z" fill="#d13f3f"/><path d="m210.28 256.665h-3.74a4 4 0 1 1 0-8h3.74a4 4 0 0 1 0 8z" fill="#d13f3f"/><path d="m232.442 253.653h-3.742a4 4 0 0 1 0-8h3.74a4 4 0 0 1 0 8z" fill="#d13f3f"/><path d="m275.819 157.016c-9.5 3.737-25.875 8.935-39.431 6.847-.281-10.835 7.969-26.712 14.477-37.49a2.244 2.244 0 0 0 -3.487-2.768c-11.378 11.154-27.178 33.547-25.808 72.182a1.643 1.643 0 0 0 3.211.45c1.615-5.278 3.808-11.953 6.011-17.127a10.339 10.339 0 0 1 9.31-6.266c1.441-.031 3-.093 4.662-.2 8.893-.572 22.773-4.713 32.708-12.756a1.676 1.676 0 0 0 -1.653-2.872z" fill="#b7b742"/><g fill="#c77445"><path d="m137.845 294.986-1.45-25.3a1.354 1.354 0 0 0 -2.668-.239l-4.968 20.628c2.849 1.675 5.881 3.325 9.086 4.911z"/><path d="m115.372 281.213 10.088-16.666a1.224 1.224 0 0 0 -1.882-1.528l-14.341 13.387c1.819 1.507 3.863 3.124 6.135 4.807z"/><path d="m171.131 138.939c-24.86 21.778-36.008 38.588-39.384 44.264a.517.517 0 0 0 .758.674c5.245-4.012 20.647-17.036 39.392-44.256a.517.517 0 0 0 -.766-.682z"/><path d="m182.193 159.353c-24.86 21.778-36.008 38.588-39.384 44.264a.516.516 0 0 0 .757.674c5.245-4.012 20.648-17.036 39.393-44.256a.517.517 0 0 0 -.766-.682z"/><path d="m186.742 175.882c-21.778-24.86-38.588-36.008-44.263-39.384a.516.516 0 0 0 -.674.757c4.012 5.245 17.036 20.648 44.256 39.393a.517.517 0 0 0 .681-.766z"/><path d="m175.221 194.19c-21.779-24.859-38.589-36.007-44.264-39.383a.516.516 0 0 0 -.674.757c4.012 5.245 17.036 20.647 44.256 39.392a.517.517 0 0 0 .682-.766z"/></g></svg>