<svg id="Flat" height="512" viewBox="0 0 340 340" width="512" xmlns="http://www.w3.org/2000/svg"><path d="m287.378 195.938a3.712 3.712 0 0 1 3.712 3.712v3.712a0 0 0 0 1 0 0h-7.424a0 0 0 0 1 0 0v-3.712a3.712 3.712 0 0 1 3.712-3.712z" fill="#ccc" transform="matrix(.992 -.128 .128 .992 -23.178 38.401)"/><path d="m298.992 194.189a3.712 3.712 0 0 1 3.708 3.711v3.712a0 0 0 0 1 0 0h-7.42a0 0 0 0 1 0 0v-3.712a3.712 3.712 0 0 1 3.712-3.711z" fill="#ccc" transform="matrix(.992 -.128 .128 .992 -22.859 39.873)"/><path d="m283.666 232.69h7.424a0 0 0 0 1 0 0v3.71a3.712 3.712 0 0 1 -3.712 3.712 3.712 3.712 0 0 1 -3.712-3.712v-3.71a0 0 0 0 1 0 0z" fill="#ccc" transform="matrix(.992 .128 -.128 .992 32.601 -34.819)"/><path d="m295.28 234.438h7.42a0 0 0 0 1 0 0v3.712a3.712 3.712 0 0 1 -3.712 3.712 3.712 3.712 0 0 1 -3.712-3.712v-3.712a0 0 0 0 1 0 0z" fill="#ccc" transform="matrix(.992 .128 -.128 .992 32.92 -36.29)"/><path d="m56.32 255.164s-19.861 14.785-28.751 34.592a25.775 25.775 0 0 0 15.437 34.983c6.69 2.185 15.641 3.681 27.609 3.681h76.4a15.389 15.389 0 0 0 15.5-14.305c.018-.353.028-.713.028-1.079 0 0 27.718 2.153 38.175-15.454a25.148 25.148 0 0 0 3.106-16.242c-1.3-9.491-6.116-28.476-24.066-38.263z" fill="#88b5ea"/><path d="m25.208 178.876a173.606 173.606 0 0 1 32.861-32.957 24.45 24.45 0 0 1 16.8-4.889l33.831 2.57s16.7-3.286 32.008-5.018a24.729 24.729 0 0 1 22.5 9.524 89.958 89.958 0 0 1 18.511 52.294h-121.009z" fill="#f2f2f2"/><path d="m184.237 259.2 15.517 6.883c-3.428-8.317-9.441-17.254-20-23.011l-123.434 12.092a104.235 104.235 0 0 0 -9.693 8.522c3.19 3.167 11.147 9.744 24.4 12.479a56.817 56.817 0 0 0 30.542-2.369c5.7-2.033 12.66-4.95 17.511-8.427a9.882 9.882 0 0 1 9.034-1.392c10.799 3.798 36.354 10.237 56.123-4.777z" fill="#3e7bad"/><path d="m91.639 116.573v25.773a13.834 13.834 0 0 0 6.381 11.654l.106.068a13.835 13.835 0 0 0 18.134-2.86 13.837 13.837 0 0 0 3.156-8.8v-32.1z" fill="#f9beac"/><path d="m197.868 214.685a43.54 43.54 0 0 0 -63.082-35.7 19.874 19.874 0 0 1 -21.208-2.452 52.184 52.184 0 0 0 -24.108-10.523 20.145 20.145 0 0 0 -18.158 6.723l-19.159 21.736-12.93-7.961a52.421 52.421 0 0 0 74.8 72.252 19.241 19.241 0 0 1 20.71-2.125 43.543 43.543 0 0 0 63.135-41.95z" fill="#d16b47"/><path d="m159.22 207.428h124.231v21.195h-124.231z" fill="#d16b47"/><path d="m245.253 210.949-9.876 17.674h13.6c5.747-11.475-3.724-17.674-3.724-17.674z" fill="#b23918"/><g fill="#f2c370"><path d="m237.57 116.833 2.216 20.569s21.143-1.854 34.454-1.574v-20.065a76.77 76.77 0 0 0 -36.67 1.07z"/><path d="m318.882 30.753-1.628 20.225-25.338 1.627v-17.435s15.343-3.952 26.966-4.417z"/><ellipse cx="281.398" cy="72.597" rx="9.531" ry="7.671"/><ellipse cx="231.979" cy="156.625" rx="9.531" ry="7.671"/><ellipse cx="265.243" cy="156.722" rx="9.531" ry="7.671" transform="matrix(.998 -.058 .058 .998 -8.655 15.67)"/></g><circle cx="147.854" cy="218.026" fill="#313847" r="18.493"/><path d="m274.062 128.487.696 27.682-7.646.553v-28.235z" fill="#f2c370"/><path d="m240.49 155.213-2.92-38.38 8 16.2 1.48 21.49a9.356 9.356 0 0 1 -9.153 10 52.371 52.371 0 0 1 -5.914-.231l1.7-7.574z" fill="#f2c370"/><path d="m299.561 49.54-1.075 24.3a6.73 6.73 0 0 1 -6.723 6.432h-10.363l7.379-7.671 1.862-1.867 1.277-35.56z" fill="#f2c370"/><path d="m146.149 290.032-70.624-.361a2.623 2.623 0 0 1 -1.891-4.437 12.368 12.368 0 0 1 9.125-4.142h26.852a15.175 15.175 0 0 0 6.894-1.661 109.8 109.8 0 0 1 18.966-7.63 1.732 1.732 0 0 1 1.67 2.907c-.834.811-1.676 1.691-2.45 2.6a2.624 2.624 0 0 0 1.826 4.33c7.688.46 27.185 1.675 34.033 7.957z" fill="#3e7bad"/><path d="m162.541 313.036s-3.872-12.184-16.451-23.365a26.183 26.183 0 0 1 13.695-3.794 18.522 18.522 0 0 1 11.922 4.273c9.465 7.738 15.418 12.957 21.455 21.989a9.752 9.752 0 0 1 -.242 11.429c-.146.185-.3.364-.458.534a16.77 16.77 0 0 1 -20.592 3.371c-4.129-2.411-7.543-6.745-9.329-14.437z" fill="#3e7bad"/><path d="m76.303 216.79h210.831v2.471h-210.831z" fill="#e6e6e6"/><path d="m76.303 210.949h210.831v2.471h-210.831z" fill="#e6e6e6"/><path d="m94.464 220.459-56.664-31.937a52.114 52.114 0 0 0 -8.5 22.031l34.583 23.222a25.622 25.622 0 0 0 12.078 4.363c7.33.621 16.831-1.782 18.503-17.679z" fill="#b74b27"/><path d="m76.303 222.632h210.831v2.471h-210.831z" fill="#e6e6e6"/><path d="m247.867 213.419a13.086 13.086 0 0 0 -2.614-2.47l-1.38 2.47z" fill="#b3b3b3"/><path d="m237.345 225.1h12.989a14.7 14.7 0 0 0 .448-2.47h-12.057z" fill="#b3b3b3"/><path d="m240.609 219.261h10.025a12.193 12.193 0 0 0 -.733-2.471h-7.912z" fill="#b3b3b3"/><path d="m243.684 209.317a13.282 13.282 0 0 0 -18.912 1.45l-20.123 23.933-6.671-3.615-1.742-1.069a43.5 43.5 0 0 1 -12 19.526 84.751 84.751 0 0 0 13.228 9.584 19.823 19.823 0 0 0 24.95-3.838c8.266-9.328 16.959-20.126 22.973-27.777a13.277 13.277 0 0 0 -1.703-18.194z" fill="#f9beac"/><path d="m283.4 202.369a10.836 10.836 0 0 0 -9.334 9.144v13.025a10.836 10.836 0 0 0 9.334 9.144l23.437 3.017a5.248 5.248 0 0 0 5.918-5.206v-26.935a5.249 5.249 0 0 0 -5.918-5.206z" fill="#d16b47"/><path d="m54.445 191.868 5.671 2.247 10.004-20.029z" fill="#b74b27"/><path d="m30.573 172.125 57.091 35.786a14.5 14.5 0 0 1 3.925 20.958 14.5 14.5 0 0 1 -19.6 3.445l-42.932-28.257a17.584 17.584 0 0 1 -3.822-26c1.616-1.92 3.398-3.917 5.338-5.932z" fill="#f9beac"/><path d="m91.639 139.946 27.777-8.02v-21.612l-27.777 6.259z" fill="#e5897a"/><path d="m67.815 77.811h10.485a0 0 0 0 1 0 0v27.678a0 0 0 0 1 0 0h-10.485a13.839 13.839 0 0 1 -13.839-13.839 13.839 13.839 0 0 1 13.839-13.839z" fill="#e5897a"/><path d="m142.74 77.811h10.49a0 0 0 0 1 0 0v27.678a0 0 0 0 1 0 0h-10.49a13.839 13.839 0 0 1 -13.84-13.839 13.839 13.839 0 0 1 13.84-13.839z" fill="#e5897a" transform="matrix(-1 0 0 -1 282.131 183.3)"/><path d="m70.615 72.448 2.876 28.326a30.729 30.729 0 0 0 30.571 27.626 30.733 30.733 0 0 0 30.726-30.318c.184-13.358.11-27.551-.793-34.373l-34.933-26.009z" fill="#f9beac"/><path d="m93.917 92.721a3.994 3.994 0 0 1 -2.83-6.819 4.1 4.1 0 0 1 .61-.5 4.491 4.491 0 0 1 .69-.37 3.768 3.768 0 0 1 .75-.231 4.134 4.134 0 0 1 1.56 0 3.768 3.768 0 0 1 .75.231 4.491 4.491 0 0 1 .69.37 4.1 4.1 0 0 1 .61.5 3.994 3.994 0 0 1 0 5.649 3.512 3.512 0 0 1 -.61.5 4.585 4.585 0 0 1 -.69.371 3.973 3.973 0 0 1 -.75.23 4.113 4.113 0 0 1 -.78.069z" fill="#313847"/><path d="m113.287 92.721a3.994 3.994 0 0 1 -2.83-6.819 4.1 4.1 0 0 1 .61-.5 4.491 4.491 0 0 1 .69-.37 3.768 3.768 0 0 1 .75-.231 4.134 4.134 0 0 1 1.56 0 3.768 3.768 0 0 1 .75.231 4.071 4.071 0 0 1 .69.37 3.644 3.644 0 0 1 .61.5 3.995 3.995 0 0 1 -2.83 6.819z" fill="#313847"/><path d="m134.694 74.152c-.135-4.238-.358-7.869-.7-10.446l-34.932-26.006-27.738 33.881-.482 3.107.4 3.964a153.709 153.709 0 0 1 15.058-7.568c10.877-4.864 13.871-16.364 13.871-16.364 8.413 17.119 31.929 19.128 31.929 19.128z" fill="#e5897a"/><path d="m98.963 45.091s6.072 18.855 32.115 30.278a8.851 8.851 0 0 0 9.743-1.793c4.944-4.844 11.113-15.051 6.425-34.026a38.623 38.623 0 0 0 -19.727-25.339c-9.608-4.871-23.019-6.838-38.209 4.781 0 0-27.354-1.841-37.168 20.647a35.989 35.989 0 0 0 -1.361 24.77 38.268 38.268 0 0 0 8.65 15.273 8.782 8.782 0 0 0 13.049-.471 74.619 74.619 0 0 1 12.72-11.605s11.975-8.215 13.763-22.515z" fill="#313847"/><path d="m197.978 231.089-1.742-1.069a43.5 43.5 0 0 1 -12 19.526c1.939 1.732 3.935 3.318 5.926 4.774 6.208-8.6 14.486-19.616 14.486-19.616z" fill="#e5897a"/></svg>