<svg id="Flat" height="512" viewBox="0 0 340 340" width="512" xmlns="http://www.w3.org/2000/svg"><path d="m177.357 15.307h37.127l-37.127 28.375z" fill="#ff7a4e"/><path d="m171.511 15.307h5.846v56.804h-5.846z" fill="#ff7a4e"/><path d="m130.52 93.613h86.29v145.688h-86.29z" fill="#efab60"/><path d="m78.596 164.693h65.187v74.608h-65.187z" fill="#ffca8a"/><path d="m203.547 164.693h65.187v74.608h-65.187z" fill="#ffca8a"/><path d="m73.619 250.381h200.093v66.615h-200.093z" fill="#efab60"/><path d="m173.665 268.35a29.882 29.882 0 0 1 29.882 29.882v21.461a0 0 0 0 1 0 0h-59.764a0 0 0 0 1 0 0v-21.461a29.882 29.882 0 0 1 29.882-29.882z" fill="#a56234"/><path d="m167.61 315.839s37.221-.428 65.458-15.83c0 0 65.458-38.5 93.267 24.684h-112.377z" fill="#ffca8a"/><g fill="#ffe2c5"><path d="m263.547 229.33v4.912h-25.68v-4.912a6.537 6.537 0 0 0 -6.537-6.536h-12.607a6.537 6.537 0 0 0 -6.537 6.536v4.912h-25.68v-4.912a6.537 6.537 0 0 0 -6.537-6.536h-12.608a6.536 6.536 0 0 0 -6.536 6.536v4.912h-25.681v-4.912a6.536 6.536 0 0 0 -6.536-6.536h-12.608a6.536 6.536 0 0 0 -6.536 6.536v4.912h-25.681v-4.912a6.536 6.536 0 0 0 -6.537-6.536h-19.146v27.587h231.128v-27.587h-19.144a6.537 6.537 0 0 0 -6.537 6.536z"/><path d="m248.981 152.165v4.464h-25.681v-4.464a6.248 6.248 0 0 0 -6.249-6.248h-13.182a6.248 6.248 0 0 0 -6.249 6.248v12.522a6.817 6.817 0 0 0 6.817 6.817h63.408a6.817 6.817 0 0 0 6.817-6.817v-18.77h-19.432a6.248 6.248 0 0 0 -6.249 6.248z"/><path d="m124.03 156.629h-25.681v-4.464a6.248 6.248 0 0 0 -6.248-6.248h-19.433v18.77a6.817 6.817 0 0 0 6.817 6.817h63.408a6.817 6.817 0 0 0 6.817-6.817v-12.522a6.248 6.248 0 0 0 -6.248-6.248h-13.184a6.248 6.248 0 0 0 -6.248 6.248z"/><path d="m230.867 86.759v-19.733h-16.273a7.408 7.408 0 0 0 -7.408 7.408v4.3h-21.68v-4.3a7.408 7.408 0 0 0 -7.409-7.408h-8.864a7.408 7.408 0 0 0 -7.408 7.408v4.3h-21.681v-4.3a7.408 7.408 0 0 0 -7.408-7.408h-16.272v19.733a6.854 6.854 0 0 0 6.854 6.854h100.694a6.855 6.855 0 0 0 6.855-6.854z"/></g><path d="m111.189 188.592a9.172 9.172 0 0 1 9.172 9.172v10.97a0 0 0 0 1 0 0h-18.344a0 0 0 0 1 0 0v-10.97a9.172 9.172 0 0 1 9.172-9.172z" fill="#a56234"/><path d="m173.665 117.512a9.172 9.172 0 0 1 9.172 9.172v10.97a0 0 0 0 1 0 0h-18.344a0 0 0 0 1 0 0v-10.97a9.172 9.172 0 0 1 9.172-9.172z" fill="#a56234"/><path d="m236.141 188.592a9.172 9.172 0 0 1 9.172 9.172v10.97a0 0 0 0 1 0 0h-18.344a0 0 0 0 1 0 0v-10.97a9.172 9.172 0 0 1 9.172-9.172z" fill="#a56234"/><path d="m13.665 324.693s14.944-32.12 58.775-39.693a102.709 102.709 0 0 1 53.325 5.3c7.28 2.717 16.3 6.309 25.587 10.563 26.007 11.915 65.458 23.828 65.458 23.828z" fill="#ffe2c5"/><path d="m73.619 250.381h200.093v11.325h-200.093z" fill="#ec924e"/><path d="m130.52 93.613h86.29v11.325h-86.29z" fill="#ec924e"/><path d="m203.547 171.504h65.187v10.196h-65.187z" fill="#ec924e"/><path d="m78.596 171.504h65.187v10.196h-65.187z" fill="#ec924e"/><path d="m84.744 309.463a4.011 4.011 0 0 1 -5.221 2.177 4.006 4.006 0 0 1 -1.8-5.921 3.936 3.936 0 0 1 .494-.6 3.582 3.582 0 0 1 .609-.506 3.984 3.984 0 0 1 5.915 1.785 4.047 4.047 0 0 1 .234.745 4.194 4.194 0 0 1 .076.788 3.925 3.925 0 0 1 -.078.769 3.475 3.475 0 0 1 -.229.763z" fill="#ffca8a"/><path d="m95.874 297a4.011 4.011 0 1 1 0-3.062 3.977 3.977 0 0 1 0 3.062z" fill="#ffca8a"/><path d="m102.867 311.114a4.039 4.039 0 0 1 -2.158 2.171 4.111 4.111 0 0 1 -.755.231 4.542 4.542 0 0 1 -.779.079 4.69 4.69 0 0 1 -.777-.081 3.887 3.887 0 0 1 -1.443-.594 4.723 4.723 0 0 1 -.609-.489 4.589 4.589 0 0 1 -.5-.6 3.731 3.731 0 0 1 -.374-.7 4.038 4.038 0 0 1 .366-3.753 3.89 3.89 0 0 1 .5-.606 4.53 4.53 0 0 1 .6-.5 5 5 0 0 1 .694-.373 3.988 3.988 0 0 1 .751-.221 4.015 4.015 0 0 1 1.56-.007 4.094 4.094 0 0 1 .752.222 4.19 4.19 0 0 1 .691.371 4.021 4.021 0 0 1 1.1 1.1 4.077 4.077 0 0 1 .377.686 4.034 4.034 0 0 1 .222.75 4.041 4.041 0 0 1 .006 1.56 4.1 4.1 0 0 1 -.224.754z" fill="#ffca8a"/><path d="m262.871 312.142a3.9 3.9 0 0 1 -1.52-.309 3.779 3.779 0 0 1 -1.3-.87 3.661 3.661 0 0 1 -.5-.6 4.678 4.678 0 0 1 -.37-.69 4.076 4.076 0 0 1 -.23-.75 4.14 4.14 0 0 1 -.08-.781 4.045 4.045 0 0 1 .08-.779 3.832 3.832 0 0 1 .23-.75 3.782 3.782 0 0 1 .37-.69 3.613 3.613 0 0 1 .5-.61 4.081 4.081 0 0 1 .6-.5 4.241 4.241 0 0 1 .7-.37 3.925 3.925 0 0 1 .74-.221 3.81 3.81 0 0 1 1.57 0 3.925 3.925 0 0 1 .74.221 4.241 4.241 0 0 1 .7.37 4.081 4.081 0 0 1 .6.5 3.188 3.188 0 0 1 .5.61 3.782 3.782 0 0 1 .37.69 4.659 4.659 0 0 1 .23.75 4.039 4.039 0 0 1 .07.779 4.125 4.125 0 0 1 -.07.781 5.025 5.025 0 0 1 -.23.75 4.678 4.678 0 0 1 -.37.69 3.22 3.22 0 0 1 -.5.6 3.779 3.779 0 0 1 -1.3.87 3.9 3.9 0 0 1 -1.53.309z" fill="#efab60"/><path d="m277.871 312.142a4.019 4.019 0 0 1 -2.82-1.17 4.153 4.153 0 0 1 -.5-.609 4.678 4.678 0 0 1 -.37-.69 5.025 5.025 0 0 1 -.23-.75 4.125 4.125 0 0 1 -.07-.781 3.984 3.984 0 0 1 1.17-2.829 3.62 3.62 0 0 1 .6-.5 4.579 4.579 0 0 1 .69-.37 5.24 5.24 0 0 1 .75-.23 4.146 4.146 0 0 1 1.57 0 4.76 4.76 0 0 1 .74.23 3.782 3.782 0 0 1 .69.37 3.694 3.694 0 0 1 .61.5 3.613 3.613 0 0 1 .5.61 4.143 4.143 0 0 1 .37.69 3.832 3.832 0 0 1 .23.75 4.039 4.039 0 0 1 .07.779 4.125 4.125 0 0 1 -.07.781 4.076 4.076 0 0 1 -.23.75 4.678 4.678 0 0 1 -.37.69 4.153 4.153 0 0 1 -.5.609 4.025 4.025 0 0 1 -2.83 1.17z" fill="#efab60"/></svg>