<svg id="Flat" height="512" viewBox="0 0 340 340" width="512" xmlns="http://www.w3.org/2000/svg"><path d="m160.147 186.132-4.292 73.837h76.126l4.287 62.389s22.328-1.145 20.611-18.316c0 0-3.1-86.338-2.8-135.656a27.045 27.045 0 0 0 -21.494-26.644l-11.093-2.323a12.144 12.144 0 0 1 -9.644-11.389l-1.048-25.465-26.1 1.717-1.212 24.526a12.646 12.646 0 0 1 -9.224 11.562c-3.1.867-6.8 1.845-10.688 2.76a43.957 43.957 0 0 0 -21.205 11.894c-14.1 14.274-40.476 41.357-54.756 58.5a19.859 19.859 0 0 0 -4.481 14.741c1.8 17.571 6.089 59.618 8.451 83.57a10.063 10.063 0 0 0 11.506 8.962 10.069 10.069 0 0 0 8.581-10.087l-.1-8.051a12.686 12.686 0 0 1 3.873-9.29 12.687 12.687 0 0 0 3.826-10.237l-5.48-62.367z" fill="#f9beac"/><path d="m119.233 282.769-5.448-62.008 16.867-12.6a38.235 38.235 0 0 0 -11.419 74.607z" fill="#e5897a"/><path d="m169.271 246.4a38.118 38.118 0 0 0 -11.065-26.873l-2.351 40.446h10.919a38.052 38.052 0 0 0 2.497-13.573z" fill="#e5897a"/><path d="m156.284 252.585-.429 7.384h76.126l1.136 16.542h1.75v-23.926z" fill="#e5897a"/><path d="m155.855 259.969h76.126l4.91 71.46h-86.642z" fill="#88b5ea"/><path d="m154.557 276.511a38.416 38.416 0 0 0 12.217-16.542h-10.919z" fill="#3e7bad"/><circle cx="131.028" cy="246.396" fill="#ffd05c" r="32.243"/><path d="m167.2 96.243h-5.848a12.454 12.454 0 0 1 -12.452-12.454v-.023a12.127 12.127 0 0 1 3.943-9.092c2.727-2.424 7.2-4.461 14.359-3.539z" fill="#e5897a"/><path d="m219.025 96.243h4.789a12.454 12.454 0 0 0 12.454-12.454v-.023a12.127 12.127 0 0 0 -3.943-9.092c-2.727-2.424-7.2-4.461-14.359-3.539z" fill="#e5897a"/><path d="m211.482 119.144-.679-16.579-26.106 1.717-1.076 21.777z" fill="#e5897a"/><path d="m177.919 17.119s-23.993-.16-31.527 20.089a32.65 32.65 0 0 0 .033 22.584c2.925 7.959 9.664 17.908 25.182 20.661h50.577s13.76-5.352 18.165-25.269a33.754 33.754 0 0 0 -4.649-25.784 47.609 47.609 0 0 0 -20.947-17.763c-11.086-4.814-23.956-4.049-33.774 3a32.6 32.6 0 0 0 -3.06 2.482z" fill="#313847"/><path d="m177.836 34.353s.25 40.361 44.348 34.381v18.1a28.74 28.74 0 0 1 -28.74 28.74 28.783 28.783 0 0 1 -28.734-28.01c-.467-15.871 1.904-35.945 13.126-53.211z" fill="#f9beac"/><g fill="#e5897a"><rect height="6.063" rx="3.032" transform="matrix(.901 .434 -.434 .901 85.864 -65.155)" width="14.807" x="178.187" y="152.394"/><rect height="6.063" rx="3.032" transform="matrix(-.901 .434 -.434 -.901 470.681 203.366)" width="14.807" x="204.717" y="152.394"/><path d="m255.368 312.561a12.415 12.415 0 0 1 -4.845-.256 13.464 13.464 0 0 1 -9.849-11.28c-4.268-30.681-3.126-96.925-2.816-111.376a14.033 14.033 0 0 0 -.985-5.472l-1.029-2.6a1.648 1.648 0 0 0 -3.178.54c-1.525 38.926-.685 77.852-.685 77.852l4.287 62.389s14.248-.741 19.1-9.797z"/><path d="m222.184 76.726v-7.992c-44.1 5.98-44.348-34.381-44.348-34.381s-8.336 44.173 44.348 42.373z"/><path d="m189.848 205.649a11.471 11.471 0 0 0 8.721-11.2v-16.055a4 4 0 0 0 -8 0v16.053a3.532 3.532 0 0 1 -2.621 3.43 32.833 32.833 0 0 1 -15.517-.347 4 4 0 0 0 -2.381 7.638 40.243 40.243 0 0 0 11.065 1.493 36.928 36.928 0 0 0 8.733-1.012z"/><path d="m223.778 200.136a4 4 0 0 0 -4.895-2.834 23.858 23.858 0 0 1 -12.386.074 4 4 0 0 0 -2.572 7.575 28.378 28.378 0 0 0 8.53 1.19 32.913 32.913 0 0 0 8.488-1.109 4 4 0 0 0 2.835-4.896z"/><path d="m195.855 215.716a4 4 0 0 0 -4 4v7.57h-7.155a4 4 0 0 0 0 8h7.158v7.57a4 4 0 0 0 8 0v-23.14a4 4 0 0 0 -4.003-4z"/><path d="m212.567 227.286h-5.509a4 4 0 0 0 0 8h5.509a4 4 0 0 0 0-8z"/></g><path d="m199.855 331.429v-35.985h3.156a4 4 0 1 0 0-8h-15.363a4 4 0 1 0 0 8h4.207v35.985z" fill="#3e7bad"/><path d="m184.037 86.809a4.129 4.129 0 0 1 -.78-.08 4.053 4.053 0 0 1 -.75-.23 3.828 3.828 0 0 1 -.69-.37 4.153 4.153 0 0 1 -.611-.49 4.068 4.068 0 0 1 -1.169-2.83 4.129 4.129 0 0 1 .08-.78 3.766 3.766 0 0 1 .23-.75 3.828 3.828 0 0 1 .37-.69 3.685 3.685 0 0 1 .489-.61 5 5 0 0 1 .611-.5 4.524 4.524 0 0 1 .69-.36 3.832 3.832 0 0 1 .75-.23 3.728 3.728 0 0 1 1.56 0 3.832 3.832 0 0 1 .75.23 4.1 4.1 0 0 1 .69.36 4.393 4.393 0 0 1 .61.5 4.279 4.279 0 0 1 .5.61 4.485 4.485 0 0 1 .369.69 3.811 3.811 0 0 1 .221.75 3.445 3.445 0 0 1 .08.78 3.995 3.995 0 0 1 -4 4z" fill="#313847"/><path d="m204.117 86.809a4.121 4.121 0 0 1 -.78-.08 4.053 4.053 0 0 1 -.75-.23 3.87 3.87 0 0 1 -.691-.37 3.972 3.972 0 0 1 -1.7-4.1 3.9 3.9 0 0 1 .231-.75 3.707 3.707 0 0 1 .37-.69 3.542 3.542 0 0 1 .49-.61 4.909 4.909 0 0 1 .609-.5 4.581 4.581 0 0 1 .691-.36 3.988 3.988 0 0 1 4.359.86 4.148 4.148 0 0 1 .5.61 4.406 4.406 0 0 1 .37.69 3.811 3.811 0 0 1 .221.75 3.387 3.387 0 0 1 .08.78 4 4 0 0 1 -4 4z" fill="#313847"/><path d="m161.424 257.157a32.089 32.089 0 0 0 1.776-8.657 41.326 41.326 0 0 0 -15.612-6.525 20.025 20.025 0 0 1 1.564-4.884 11.924 11.924 0 0 1 9.639-7.09 32.342 32.342 0 0 0 -5.464-6.881c-9.066 3.193-12.785 11.612-13.786 18.135a39.977 39.977 0 0 0 -5.838.473c-1-3.741-2.055-10.269.41-16.254a18.811 18.811 0 0 1 8.486-9.17 32.084 32.084 0 0 0 -10.4-2.117 25.26 25.26 0 0 0 -5.48 8.24c-3.959 9.613-1.358 19.758-.017 23.77-.261.51-.535 1-.821 1.461-13.383-5.088-16.157-17.507-16.536-25.114a32.387 32.387 0 0 0 -6.805 8.769c2.109 8.521 7.118 17.38 17.309 22.439-6.412 3.929-14.42 3.345-19.573 2.337a32.08 32.08 0 0 0 4.24 8.644c.944.063 1.9.108 2.867.108 7.174 0 14.87-1.862 20.79-7.4a24.51 24.51 0 0 1 11.454 20.031 32.034 32.034 0 0 0 7.772-3.3 32.736 32.736 0 0 0 -14.257-23.1c.238-.418.483-.826.707-1.267a33.184 33.184 0 0 1 27.575 7.352z" fill="#5c6dc6"/><path d="m232.653 269.761h-45.732a2.71 2.71 0 1 0 0 5.419h46.105z" fill="#3e7bad"/><rect fill="#3e7bad" height="5.419" rx="2.71" transform="matrix(-1 0 0 -1 349.381 544.941)" width="6.347" x="171.517" y="269.761"/></svg>