<svg id="Flat" height="512" viewBox="0 0 340 340" width="512" xmlns="http://www.w3.org/2000/svg"><path d="m67.059 63.728c1.017 64.811.847 139.422-3.143 203.6 0 0 58.378 18.277 108.452-5.5l-8.295-25.245 19.115 16.95a45.563 45.563 0 0 0 8.657-10.348 22.089 22.089 0 0 0 1.576-19.644 283.493 283.493 0 0 0 -20.064-41 151.572 151.572 0 0 1 -20.845-63.127 318.115 318.115 0 0 1 -1.422-48.728v-9.011z" fill="#ff7a4e"/><path d="m169.958 176.567a149.394 149.394 0 0 1 -9.214-20.616l-43.895 16.641.74 33.385z" fill="#f14f2a"/><path d="m108.421 62.717-41.362 1.011q.2 12.792.242 25.565l.086-.007c.581 58.351 0 122.152-3.471 178.044a181.477 181.477 0 0 0 44.505 6.638v-188.168l42.3-3.594c.041-3.832.151-7.679.367-11.515v-9.016z" fill="#f14f2a"/><path d="m209.634 147.121c-2.55-16.943-8.671-46.769-28.06-73.686l-16-1.654s21.177 39.856 20.847 66.975c0 0-16.1 5.121-27.009 4.46 0 0-22.489-1.984-34.064 3.638a171.641 171.641 0 0 1 -2.977-33.906l-25.371-3.135v25.917a18.069 18.069 0 0 1 -18.07 18.07h-4.33a21.712 21.712 0 0 0 -21.712 21.263c-.269 13.019-.346 30.152.454 45.9q.239 4.69.084 9.378c-.481 15.36-1.981 61.286-3.318 81.214a19.118 19.118 0 0 0 1.724 9.522c2.057 4.306 6.35 9.105 15.311 9.983h82.017s11.553-36.14-5.152-64.965a104.9 104.9 0 0 1 -6.273-12.447 54.131 54.131 0 0 1 -4.01-24.027l.884-14.312s26.7-8.137 13.141-41.54c0 0 25-12.926 51.779-14.38a10.72 10.72 0 0 0 10.105-12.268zm-126.806 104.837-8.587 14.042s-6.267-40.324 1.82-67.819l8.694 7.48 1.722 29.9a30.761 30.761 0 0 1 -3.649 16.397z" fill="#ffccc0"/><path d="m73.223 211.962a93.288 93.288 0 0 1 2.838-13.778l.408-27.441s-20.628 15.763-3.246 41.219z" fill="#f29086"/><path d="m97 109.813v23.314l25.829-5.5c-.341-4.5-.548-9.5-.453-14.684z" fill="#f29086"/><path d="m127.69 63.728h-35.89c4.153 24.294-9.637 33.128-9.637 33.128a27.653 27.653 0 0 0 55.161 0s-13.787-8.834-9.634-33.128z" fill="#ffccc0"/><path d="m128.648 84.081c-1.637-5.028-2.436-11.707-.958-20.353h-35.89c1.831 10.706.175 18.406-2.248 23.674z" fill="#f29086"/><path d="m147.157 60.529v-9.7a41.892 41.892 0 0 0 -41.892-41.892 41.891 41.891 0 0 0 -41.891 41.891v9.053z" fill="#ffd5b6"/><path d="m188.494 84.071c-2.1-3.571-4.394-7.129-6.92-10.636l-16-1.654s3.629 6.831 7.858 16.758z" fill="#f29086"/><path d="m88.111 12.612a41.891 41.891 0 0 0 -24.737 38.216v9.053l12.729.1c-1.503-27.194 6.86-41.342 12.008-47.369z" fill="#e5a57a"/><path d="m63.374 50.828v9.053l83.783.648v-9.7a41.874 41.874 0 0 0 -1.724-11.893h-80.333a41.874 41.874 0 0 0 -1.726 11.892z" fill="#313847"/><path d="m112.422 64.894s26.53 10.859 57.247 13.056a51.967 51.967 0 0 0 29.1-6.3c.855-.479 1.708-.989 2.552-1.532a7.133 7.133 0 0 0 -1.671-12.835c-15.719-4.817-48.461-10.294-99.631 2.5l-2.6 1.893z" fill="#ffd5b6"/><circle cx="277.951" cy="64.894" fill="#ff7a4e" r="29.517"/><path d="m112.422 64.894s-36.722 9.821-64.386 9.821c0 0-20.509 1.248-34.5-6.02a6.7 6.7 0 0 1 -.371-11.611c12.322-7.775 41.912-17.55 99.257 7.81z" fill="#e5a57a"/><path d="m74.241 266s-.248-1.6-.582-4.372c-5.049 5.986-20.505 28.329-10.989 68.577a23.943 23.943 0 0 0 4.476.855c-8.486-38.582 7.095-65.06 7.095-65.06z" fill="#f29086"/><path d="m142.073 262.645s-.328.367-.9 1.019c.304-.333.606-.664.9-1.019z" fill="#88b5ea"/><path d="m86.067 228.458 48.2-7.609.342-5.537-24.239-1.626c-9.933 0-19.273-3.368-25.519-6.3z" fill="#f29086"/><path d="m114.81 195.807c-2.828-11.57 2.2-18.657 5.7-22.007a.693.693 0 0 0 -.753-1.142 17.037 17.037 0 0 0 -8.41 7.977 1.788 1.788 0 0 1 -3.211 0 17.037 17.037 0 0 0 -8.41-7.977.693.693 0 0 0 -.752 1.142c3.5 3.35 8.533 10.437 5.7 22.007-2.215 9.062-15.834 10.664-15.933 10.666 6.456 5.958 18.016 7.2 21 7.426 2.981-.226 14.54-1.468 21-7.426-.097-.002-13.716-1.604-15.931-10.666z" fill="#f29086"/><path d="m141.173 263.664c-.14.154-.281.305-.423.455l1.323-1.474v-.014q-.979-1.8-1.887-3.646a27.925 27.925 0 0 1 -3.771 5.78 33.327 33.327 0 0 1 -20.848 11.5 36.717 36.717 0 0 1 -4.09.4 39.085 39.085 0 0 1 -6.059-.666 33.765 33.765 0 0 1 -11.708-4.369 58.222 58.222 0 0 1 -15.089-12.791l-1.543 2.525.911.869a261.3 261.3 0 0 1 30.432 47.567c8.467-17.96 28.32-41.08 32.752-46.136z" fill="#fff"/><g fill="#ff7a4e"><path d="m277.954 20.837a3.987 3.987 0 0 1 -2.83-1.17 3.661 3.661 0 0 1 -.5-.611 3.782 3.782 0 0 1 -.37-.69 4.824 4.824 0 0 1 -.23-.739 4.442 4.442 0 0 1 0-1.571 5.371 5.371 0 0 1 .23-.75 4.678 4.678 0 0 1 .37-.69 4.074 4.074 0 0 1 .5-.6 3.992 3.992 0 0 1 6.15.6 3.9 3.9 0 0 1 .37.69 4.3 4.3 0 0 1 .23.75 3.9 3.9 0 0 1 0 1.571 3.924 3.924 0 0 1 -.23.739 3.256 3.256 0 0 1 -.37.69 3.607 3.607 0 0 1 -.49.611 4.021 4.021 0 0 1 -2.83 1.17z"/><path d="m277.954 116.947a3.995 3.995 0 1 1 2.83-1.17 4.029 4.029 0 0 1 -2.83 1.17z"/><path d="m326 68.9a4.213 4.213 0 0 1 -.78-.08 3.832 3.832 0 0 1 -.75-.23 3.892 3.892 0 0 1 -.69-.37 4.224 4.224 0 0 1 -.61-.49 4.857 4.857 0 0 1 -.5-.611 4.467 4.467 0 0 1 -.36-.689 4.053 4.053 0 0 1 -.23-.75 4.138 4.138 0 0 1 -.08-.78 4.049 4.049 0 0 1 .08-.781 3.875 3.875 0 0 1 .23-.75 4.091 4.091 0 0 1 .36-.689 4.279 4.279 0 0 1 .5-.61 4.161 4.161 0 0 1 .61-.5 4.579 4.579 0 0 1 .69-.37 3.742 3.742 0 0 1 .75-.22 3.7 3.7 0 0 1 1.56 0 3.742 3.742 0 0 1 .75.22 4.579 4.579 0 0 1 .69.37 4.161 4.161 0 0 1 .61.5 4.279 4.279 0 0 1 .5.61 4.091 4.091 0 0 1 .36.689 3.875 3.875 0 0 1 .23.75 4.049 4.049 0 0 1 .08.781 4.138 4.138 0 0 1 -.08.78 4.053 4.053 0 0 1 -.23.75 4.467 4.467 0 0 1 -.36.689 4.857 4.857 0 0 1 -.5.611 4.224 4.224 0 0 1 -.61.49 3.892 3.892 0 0 1 -.69.37 3.832 3.832 0 0 1 -.75.23 4.213 4.213 0 0 1 -.78.08z"/><path d="m229.894 68.9a3.995 3.995 0 1 1 2.83-1.17 4.023 4.023 0 0 1 -2.83 1.17z"/><path d="m311.924 34.917a4.023 4.023 0 0 1 -2.82-1.17 4.169 4.169 0 0 1 -.5-.611 4.521 4.521 0 0 1 -.37-.689 4.659 4.659 0 0 1 -.23-.75 4.386 4.386 0 0 1 0-1.561 4.722 4.722 0 0 1 .23-.75 4.618 4.618 0 0 1 .37-.689 3.694 3.694 0 0 1 .5-.61 4.035 4.035 0 0 1 3.61-1.09 3.956 3.956 0 0 1 .74.23 4.125 4.125 0 0 1 .7.36 4.734 4.734 0 0 1 .6.5 3.251 3.251 0 0 1 .5.61 3.854 3.854 0 0 1 .37.689 4.722 4.722 0 0 1 .23.75 4.125 4.125 0 0 1 .07.781 4.021 4.021 0 0 1 -1.17 2.83 4.076 4.076 0 0 1 -.6.49 3.655 3.655 0 0 1 -.7.37 3.956 3.956 0 0 1 -.74.23 4.233 4.233 0 0 1 -.79.08z"/><path d="m243.974 102.877a4 4 0 0 1 -2.83-6.83 4 4 0 0 1 6.83 2.83 3.995 3.995 0 0 1 -4 4z"/><path d="m311.924 102.877a4.023 4.023 0 0 1 -2.82-1.17 4.117 4.117 0 0 1 -.5-.611 4.485 4.485 0 0 1 -.37-.69 5.371 5.371 0 0 1 -.23-.75 4.1 4.1 0 0 1 -.07-.779 4.045 4.045 0 0 1 .066-.777 4.722 4.722 0 0 1 .23-.75 4.183 4.183 0 0 1 .37-.69 4.037 4.037 0 0 1 1.8-1.479 3.85 3.85 0 0 1 .74-.22 3.743 3.743 0 0 1 1.57 0 3.85 3.85 0 0 1 .74.22 4.166 4.166 0 0 1 .7.37 4.081 4.081 0 0 1 .6.5 3.277 3.277 0 0 1 .5.609 3.548 3.548 0 0 1 .37.69 4.722 4.722 0 0 1 .23.75 4.045 4.045 0 0 1 .07.781 4.1 4.1 0 0 1 -.07.779 5.371 5.371 0 0 1 -.23.75 3.762 3.762 0 0 1 -.37.69 3.573 3.573 0 0 1 -.5.611 4.141 4.141 0 0 1 -.6.49 3.655 3.655 0 0 1 -.7.37 3.956 3.956 0 0 1 -.74.23 4.233 4.233 0 0 1 -.786.076z"/><path d="m243.974 34.917a4.047 4.047 0 0 1 -2.83-1.17 4.169 4.169 0 0 1 -.5-.611 4.521 4.521 0 0 1 -.37-.689 3.809 3.809 0 0 1 -.22-.75 3.847 3.847 0 0 1 0-1.561 3.849 3.849 0 0 1 .22-.75 4.618 4.618 0 0 1 .37-.689 4.161 4.161 0 0 1 .5-.61 4.008 4.008 0 0 1 5.66 0 4.093 4.093 0 0 1 .49.61 4.018 4.018 0 0 1 .6 1.439 3.847 3.847 0 0 1 0 1.561 3.832 3.832 0 0 1 -.23.75 3.786 3.786 0 0 1 -.37.689 3.909 3.909 0 0 1 -3.32 1.781z"/></g><path d="m109.747 249.483a2.3 2.3 0 0 1 -2.3-2.3v-1.2a2.3 2.3 0 0 1 4.6 0v1.2a2.3 2.3 0 0 1 -2.3 2.3z" fill="#f29086"/><path d="m102.306 98.412a4 4 0 0 1 -.011-8h.011a4 4 0 1 1 0 8z" fill="#313847"/><path d="m116.851 98.412a4 4 0 0 1 -.01-8h.01a4 4 0 0 1 0 8z" fill="#313847"/><path d="m107.21 307.349c.8 1.577 1.211 2.455 1.211 2.455a125.9 125.9 0 0 1 9.168-15.742 69.152 69.152 0 0 0 -10.379 13.287z" fill="#e6e6e6"/><path d="m108.421 309.8-1.211-2.455a112.7 112.7 0 0 0 -10.74 23.71h4.89c1.764-9.808 7.061-21.255 7.061-21.255z" fill="#f29086"/><path d="m152.238 183.123c-1.145-5.511-6.565-13.434-11.047-16.838-.644-.49-11.063-9.69-12.543-20.744a1.39 1.39 0 0 0 -1.828-1.1l-.654.226a1.414 1.414 0 0 0 -.926 1.6l.112.583a51.693 51.693 0 0 0 7.02 15.929c7.443 11.064 7.572 25.668-.583 36.219a42.512 42.512 0 0 1 -11.075 9.951 21.633 21.633 0 0 1 -14.155 3.111 13.719 13.719 0 0 1 -6.771-2.76 40.705 40.705 0 0 1 -6.52-6.411c-9.29-11.393-10.807-27.115-4.942-40.594a63.129 63.129 0 0 0 3.94-12.908 1.688 1.688 0 0 0 -2.879-1.491l-.029.034a1.6 1.6 0 0 0 -.343.8c-.657 4.136-4.036 11.065-5.945 13.994a40.426 40.426 0 0 1 -5.661 6.683 28.853 28.853 0 0 0 -6.936 11.559 24.351 24.351 0 0 0 14.427 31.056 51.519 51.519 0 0 0 17.384 2.723 86.673 86.673 0 0 1 12.3.719 68.232 68.232 0 0 0 20.452-.152s23.002-4.285 17.202-32.189z" fill="#fff"/></svg>