<svg id="Flat" height="512" viewBox="0 0 340 340" width="512" xmlns="http://www.w3.org/2000/svg"><path d="m171.875 121.351a15.843 15.843 0 0 0 -9.234-24.761 5.135 5.135 0 0 1 -2.4-8.623 28.516 28.516 0 0 0 -7.919-45.616 10.032 10.032 0 0 1 -4.58-4.492 24.9 24.9 0 0 0 -37.559-8.385 24.909 24.909 0 0 0 -42.243 21.268 41.285 41.285 0 0 0 -6.532 3.791 18.021 18.021 0 0 0 -7.566 10.235c-1.686 6.334.56 11.555 3.721 15.444a7.918 7.918 0 0 1 -2.608 12.194c-9.674 4.67-21.367 13.887-21.579 31.2a27.733 27.733 0 0 0 .39 4.78 22.015 22.015 0 1 0 34.458 24.546l64.7 7.407a26.429 26.429 0 1 0 40.538-29.511 6.792 6.792 0 0 1 -1.587-9.477z" fill="#343c49"/><path d="m85.769 93.138s1.074 16.532-7.055 21.108-4.814 16.576-4.814 16.576-15.354 4.86-8.731 22.322 81.89-11.742 81.89-11.742 6.109-11.907-4.178-18.357a17.851 17.851 0 0 1 -6.651-7.064c-2.159-4.353-4.236-11.538-3.872-22.843z" fill="#232935"/><path d="m132.355 134.176 8.457 1.209c11.08 1.585 19.325 10.68 19.456 21.461l.778 60.724a137.567 137.567 0 0 0 2.289 23.272l10.431 56.331a26.009 26.009 0 0 1 -3.934 19.435c-2.865 4.2-7.2 7.806-13.66 7.8l-9.015-42.951s-7.3-80.247-6.844-110.808z" fill="#cc938b"/><path d="m147.157 281.46 9.015 42.951a14.961 14.961 0 0 0 7.8-2.1c-.079-36.03-14.1-59.405-19.009-66.655 1.218 15.085 2.194 25.804 2.194 25.804z" fill="#a56262"/><path d="m85.769 134.176a29.055 29.055 0 0 0 -19.057 9.905l-45.9 53.1a12.719 12.719 0 0 0 -.184 16.454c6.272 7.522 17.629 19.292 36.287 32.931a8.094 8.094 0 0 1 2.81 9.265c-2.715 7.643-5.293 21.336 7.062 28.83l11.266-27.39a11.268 11.268 0 0 0 -2.472-12.281c-6.822-6.79-18.89-19.122-28.581-30.79a10.38 10.38 0 0 1 1.415-14.629l25.364-20.907z" fill="#cc938b"/><path d="m78.737 251.179.012-.027c-.022-.133-.054-.264-.08-.4-.024-.117-.044-.235-.072-.351q-.129-.55-.313-1.086c-.029-.086-.063-.171-.094-.256-.13-.353-.276-.7-.441-1.04-.013-.027-.024-.054-.038-.081a11.051 11.051 0 0 0 -.642-1.115c-.012-.018-.02-.038-.032-.056a11.178 11.178 0 0 0 -1.451-1.788c-1.019-1.013-2.166-2.163-3.393-3.4 1.216 3.1 1.9 8.154-1.452 14.9-3.633 6.273-7.639 14.561-9.553 23.207a19.7 19.7 0 0 0 5.6 4.965l11.266-27.39a11.24 11.24 0 0 0 .683-6.082z" fill="#a56262"/><path d="m135.516 242.985c-1.783-7.713-4.84-22.7-4.84-34.787 0 0 39.3-10.662 1.679-74.022l-5.776-1.392a8.97 8.97 0 0 1 -6.87-8.721v-17.377h-21.295v17.377a8.97 8.97 0 0 1 -6.869 8.721l-5.776 1.392c-37.624 63.36 1.8 73.725 1.8 73.725 0 12.084-3.178 27.371-4.961 35.084a27.876 27.876 0 0 1 -3.793 8.817c-19.977 30.979-19.7 78.064-19.7 78.064h99.887s.281-47.085-19.695-78.064a27.855 27.855 0 0 1 -3.791-8.817z" fill="#cc938b"/><path d="m117.879 164.858a26.884 26.884 0 0 0 -6.827 9.4 1.209 1.209 0 0 1 -2.205 0 26.656 26.656 0 0 0 -6.9-9.541 1.8 1.8 0 0 0 -2.772 2.115c2.832 6.54 5.772 17.72-5.242 20.976l16.012 2.761 16.013-2.761c-10.941-3.234-8.114-14.286-5.3-20.843a1.8 1.8 0 0 0 -2.779-2.107z" fill="#a56262"/><path d="m119.709 121.456v-14.77h-21.295v17.377a8.951 8.951 0 0 1 -.792 3.685z" fill="#a56262"/><path d="m77.151 150.9s-14.346 17.339-11.587 34.538l8.215-6.771 5.187-19.244z" fill="#a56262"/><path d="m130.8 212.594-43.312-1.4a129.6 129.6 0 0 1 -1.314 13.162l45.24-4.524c-.276-2.427-.489-4.862-.614-7.238z" fill="#a56262"/><path d="m148.311 171.857-7.711 15.908c.251 6.849.642 14.458 1.111 22.3 15.049-12.196 6.6-38.208 6.6-38.208z" fill="#a56262"/><path d="m117.122 69.171c-12.079-2.323-14.362-12.085-14.41-18.951a23.3 23.3 0 0 0 -16.943 22.41v20.508a23.293 23.293 0 0 0 23.293 23.293 23.293 23.293 0 0 0 23.293-23.293v-3.625c-18.955-2.266-15.233-20.342-15.233-20.342z" fill="#cc938b"/><path d="m126.579 132.784a8.931 8.931 0 0 1 -3.789-1.962s17.349 38.436-2.785 52.837a18.905 18.905 0 0 1 -21.886 0c-20.134-14.4-2.785-52.837-2.785-52.837a8.937 8.937 0 0 1 -3.789 1.962l-5.776 1.392c-38.35 63.331 1.638 74.049 1.638 74.049 0 2.535-.1 5.171-.329 7.867a.226.226 0 0 0 .224.246h43.772c-.242-2.78-.4-5.529-.4-8.14 0 0 40.427-10.44 1.679-74.022z" fill="#ffd85a"/><g fill="#ff7a4e"><circle cx="270.241" cy="62.192" r="29.517"/><path d="m273.938 12.607a4.547 4.547 0 0 0 -.371-.691 4.09 4.09 0 0 0 -.5-.609 3.5 3.5 0 0 0 -.609-.49 3.443 3.443 0 0 0 -.69-.37 3.948 3.948 0 0 0 -.75-.231 3.762 3.762 0 0 0 -1.56 0 4.11 4.11 0 0 0 -.75.231 3.645 3.645 0 0 0 -.69.37 3.922 3.922 0 0 0 -.61.49 4.063 4.063 0 0 0 -1.171 2.829 4.119 4.119 0 0 0 .08.78 4.025 4.025 0 0 0 .6 1.441 3.277 3.277 0 0 0 .5.609 3.995 3.995 0 0 0 6.819-2.83 4.178 4.178 0 0 0 -.069-.779 4.762 4.762 0 0 0 -.229-.75z"/><path d="m273.938 108.716a4.177 4.177 0 0 0 -.371-.689 3.693 3.693 0 0 0 -.5-.611 3.747 3.747 0 0 0 -.609-.5 3.909 3.909 0 0 0 -.69-.37 4.7 4.7 0 0 0 -.75-.22 4.014 4.014 0 0 0 -3.61 1.09 3.688 3.688 0 0 0 -.49.611 3.544 3.544 0 0 0 -.371.689 3.9 3.9 0 0 0 -.23.75 4.136 4.136 0 0 0 -.08.78 3.986 3.986 0 0 0 4.781 3.92 3.943 3.943 0 0 0 .75-.229 4.206 4.206 0 0 0 1.3-.861 4.021 4.021 0 0 0 1.17-2.83 3.448 3.448 0 0 0 -.079-.78 3.878 3.878 0 0 0 -.221-.75z"/><path d="m321.987 60.656a3.794 3.794 0 0 0 -.369-.69 3.959 3.959 0 0 0 -.491-.6 4.057 4.057 0 0 0 -3.609-1.1 3.856 3.856 0 0 0 -.75.229 3.3 3.3 0 0 0 -.69.37 3.225 3.225 0 0 0 -.611.5 4.006 4.006 0 0 0 2.833 6.835 4.012 4.012 0 0 0 4-4 4.073 4.073 0 0 0 -.08-.791 4.215 4.215 0 0 0 -.233-.753z"/><path d="m221.408 58.267a3.856 3.856 0 0 0 -.75.229 3.935 3.935 0 0 0 -.691.37 3.316 3.316 0 0 0 -.61.5 3.979 3.979 0 0 0 -1.089 3.611 3.783 3.783 0 0 0 .23.739 3.519 3.519 0 0 0 .37.7 4 4 0 1 0 2.54-6.149z"/><path d="m303.438 24.3a3.811 3.811 0 0 0 -.75.221 4.395 4.395 0 0 0 -.69.369 4.172 4.172 0 0 0 -.61.5 4.026 4.026 0 0 0 -1.171 2.83 4.021 4.021 0 0 0 .31 1.53 3.9 3.9 0 0 0 .37.691 3.612 3.612 0 0 0 .491.6 3.475 3.475 0 0 0 .61.5 3.645 3.645 0 0 0 .69.37 3.832 3.832 0 0 0 .75.23 4.039 4.039 0 0 0 .779.08 3.972 3.972 0 0 0 .781-.08 3.875 3.875 0 0 0 .75-.23 3.771 3.771 0 0 0 .69-.37 3.138 3.138 0 0 0 .609-.5 4.114 4.114 0 0 0 .5-.6 4.6 4.6 0 0 0 .371-.691 4.1 4.1 0 0 0 .22-.75 3.489 3.489 0 0 0 .079-.78 3.992 3.992 0 0 0 -4.779-3.92z"/><path d="m239.958 94.636a4.575 4.575 0 0 0 -.371-.689 4.157 4.157 0 0 0 -.5-.611 3.957 3.957 0 0 0 -.6-.489 3.511 3.511 0 0 0 -.7-.37 3.919 3.919 0 0 0 -.741-.231 3.959 3.959 0 0 0 -2.319.231 3.7 3.7 0 0 0 -.69.37 4.007 4.007 0 0 0 -.6.489 3.652 3.652 0 0 0 -.5.611 3.889 3.889 0 0 0 -.371.689 4.13 4.13 0 0 0 -.23.75 4.2 4.2 0 0 0 -.069.78 4.052 4.052 0 0 0 1.77 3.33 4.4 4.4 0 0 0 .69.37 4.252 4.252 0 0 0 .75.22 3.38 3.38 0 0 0 .779.08 3.995 3.995 0 0 0 4-4 4.2 4.2 0 0 0 -.069-.78 5.108 5.108 0 0 0 -.229-.75z"/><path d="m307.918 94.636a4.575 4.575 0 0 0 -.371-.689 4.913 4.913 0 0 0 -.5-.611 4.066 4.066 0 0 0 -3.609-1.09 3.768 3.768 0 0 0 -.75.231 3.7 3.7 0 0 0 -.69.37 4.036 4.036 0 0 0 -.61.489 4.226 4.226 0 0 0 -.491.611 3.883 3.883 0 0 0 -.37.689 4.021 4.021 0 0 0 -.31 1.53 4 4 0 0 0 4 4 3.4 3.4 0 0 0 .781-.08 3.849 3.849 0 0 0 .75-.22 4.586 4.586 0 0 0 .69-.37 3.55 3.55 0 0 0 .609-.5 3.985 3.985 0 0 0 1.17-2.83 3.507 3.507 0 0 0 -.079-.78 4.1 4.1 0 0 0 -.22-.75z"/><path d="m238.478 24.886a3.719 3.719 0 0 0 -.69-.369 3.957 3.957 0 0 0 -.741-.221 4 4 0 0 0 -4.79 3.92 4.2 4.2 0 0 0 .08.78 4.13 4.13 0 0 0 .23.75 4.6 4.6 0 0 0 .371.691 3.564 3.564 0 0 0 .5.6 3.448 3.448 0 0 0 .6.5 3.645 3.645 0 0 0 .69.37 4.3 4.3 0 0 0 .75.23 3.886 3.886 0 0 0 1.569 0 3.989 3.989 0 0 0 .741-.23 4.129 4.129 0 0 0 1.8-1.469 4.6 4.6 0 0 0 .371-.691 4.053 4.053 0 0 0 .23-.75 4.2 4.2 0 0 0 .08-.78 4 4 0 0 0 -1.181-2.83 3.738 3.738 0 0 0 -.61-.501z"/></g><path d="m100.848 88.506a4.012 4.012 0 0 0 4-4 4.117 4.117 0 0 0 -.08-.779 3.859 3.859 0 0 0 -.23-.75 4.186 4.186 0 0 0 -.36-.691 4.541 4.541 0 0 0 -.5-.61 4.008 4.008 0 0 0 -5.66 0 3.727 3.727 0 0 0 -.491.61 3.471 3.471 0 0 0 -.369.691 3.791 3.791 0 0 0 -.23.75 3.959 3.959 0 0 0 -.08.779 4.012 4.012 0 0 0 4 4z" fill="#232935"/><path d="m109.062 240.875a2.339 2.339 0 0 0 2.028-2.557v-.639a2.083 2.083 0 1 0 -4.057 0v.639a2.34 2.34 0 0 0 2.029 2.557z" fill="#a56262"/><path d="m109.062 293.479-.3 5.305h-10.315s7.111 11.712 8.586 31.082h2.029c4.293-21.514 10.614-31.082 10.614-31.082z" fill="#a56262"/><path d="m138.8 250.932c-3.87 6.527-16.086 25.117-29.734 25.117s-25.866-18.59-29.738-25.117c0 0-5.387 8.277-6.993 12.893a169.421 169.421 0 0 1 26.112 34.959 12.122 12.122 0 0 0 10.553 6.177h.132a12.12 12.12 0 0 0 10.548-6.177 169.458 169.458 0 0 1 26.112-34.959 77.984 77.984 0 0 0 -6.992-12.893z" fill="#ffd85a"/><path d="m87.078 216.093a.226.226 0 0 0 .224.245h43.772c-.242-2.78-.4-5.529-.4-8.14l-43.269.027c.002 2.535-.097 5.175-.327 7.868z" fill="#f7aa43"/><path d="m143.934 259.706c-3.927 3.826-18.187 18.2-25.517 32.086-4.735 8.971-11.73 10.7-17.033 10.449a12.066 12.066 0 0 0 7.612 2.72h.132a12.12 12.12 0 0 0 10.548-6.177 169.458 169.458 0 0 1 26.112-34.959c-.518-1.351-1.166-2.754-1.854-4.119z" fill="#f7aa43"/><path d="m112.261 71.223s-3.624 22.286 20.012 23.787c.049-.619.082-1.241.082-1.872v-3.625c-18.956-2.266-15.233-20.342-15.233-20.342-12.079-2.323-14.362-12.085-14.41-18.951 0 0-5.628 16.398 9.549 21.003z" fill="#a56262"/></svg>