<svg id="FLAT" height="512" viewBox="0 0 500 500" width="512" xmlns="http://www.w3.org/2000/svg"><path d="m410.117 237.824c-.607-51.605-32.177-72.854-32.177-72.854 16.392 3.643 27.177-8.939 27.177-8.939-8.58-8.78-18-20.786-27.784-37.2-28.368-47.586-68.369-47.93-86.356-45.212a55.238 55.238 0 0 1 -16.529 0c-17.988-2.719-57.988-2.375-86.356 45.211-9.786 16.415-19.2 28.421-27.784 37.2 0 0 10.785 12.582 27.177 8.939 0 0-31.57 21.249-32.177 72.854l20.035-9.107s-15.178 51.6 9.713 100.174h195.312c24.892-48.569 9.714-100.174 9.714-100.174z" fill="#2b2b38"/><path d="m424.5 359.545a55.519 55.519 0 0 0 -12.624-21.175 339.633 339.633 0 0 0 -87.82-65.776l-41.344 1.3-41.343-1.3a339.661 339.661 0 0 0 -87.821 65.776 55.529 55.529 0 0 0 -12.623 21.175c-18.1 56.2-22.919 125.749-22.919 125.749h321.768s2.826-69.549-15.274-125.749z" fill="#ffcec7"/><path d="m228.412 171.435s-25.107.463-24.061 18.977 10.984 34.714 38.183 27.309z" fill="#e88b89"/><path d="m339.315 171.435s25.106.463 24.06 18.977-10.984 34.714-38.183 27.309z" fill="#e88b89"/><path d="m342.445 149.833c-3.138-51.782-58.582-52.3-58.582-52.3s-55.444.523-58.582 52.3 12.553 74.274 12.553 74.274h92.058s15.692-22.491 12.553-74.274z" fill="#ffcec7"/><g fill="#2b2b38"><path d="m235.205 212.125s-31.515 36.49-21.563 95.1l12.717-12.164s-2.212 28.2 30.408 54.735l6.082-16.586s8.846 14.928 28.2 28.75c0 0 19.351-10.5 28.75-40.361l7.74 11.058s48.834-50.986 6.859-109.207z"/><path d="m297.887 189.992c-6.52-.917-6.915 15.02-19.674 12.589-13.009-2.477-12.144-11.788-10.142-17.689a2.5 2.5 0 0 0 -3.273-3.154 71.587 71.587 0 0 0 -39.865 40.3 41.31 41.31 0 0 0 -1.5 10.381 9.291 9.291 0 0 0 15.129 7.372l7.6-6.126 19.078 16.335 19.515-15.376 15.233 15.376 17.143-17.3 6.927 4.883a8.339 8.339 0 0 0 13.1-7.628c-1.401-15.082-8.998-35.707-39.271-39.963z"/><path d="m269.389 148.825a74.612 74.612 0 0 0 -10.358-2.582 5.5 5.5 0 0 0 -1.74 10.861 64.7 64.7 0 0 1 8.675 2.175 5.5 5.5 0 1 0 3.423-10.454z"/><path d="m312.466 150.806a5.5 5.5 0 0 0 -6.3-4.563 74.643 74.643 0 0 0 -10.359 2.582 5.5 5.5 0 1 0 3.424 10.454 64.7 64.7 0 0 1 8.675-2.175 5.5 5.5 0 0 0 4.56-6.298z"/></g><path d="m185.922 485.294c.1-21.975 2.691-46.169 5.331-65.244 5.882 9.7 17.342 20.274 39.354 20.274h27.556a5.5 5.5 0 0 0 0-11h-27.556c-34.406 0-35.548-32.165-35.579-33.55 0-.015 0-.029-.006-.044 1.092-6.343 1.839-10.156 1.869-10.307a5.5 5.5 0 0 0 -10.79-2.138c-.477 2.4-11 56.083-11.186 102.009z" fill="#e88b89"/><path d="m226.39 419.554 6.129.634a5.561 5.561 0 0 0 .574.03 5.5 5.5 0 0 0 .559-10.971l-6.129-.634a5.5 5.5 0 0 0 -1.133 10.941z" fill="#e88b89"/><path d="m391.505 485.294c-.032-33.084-4.918-70.194-7.8-89.218v-.106a5.462 5.462 0 0 0 -.307-1.887c-.956-6.2-1.636-10.079-1.743-10.686a5.5 5.5 0 1 0 -10.832 1.915c.028.159.771 4.408 1.833 11.411-.4 5.529-3.954 32.6-35.529 32.6h-27.385a5.5 5.5 0 0 0 0 11h27.386c21.371 0 32.8-9.965 38.828-19.425 2.3 18.949 4.514 42.747 4.547 64.395z" fill="#e88b89"/><path d="m334.643 420.218a5.542 5.542 0 0 0 .573-.03l6.129-.634a5.5 5.5 0 0 0 -1.133-10.941l-6.129.634a5.5 5.5 0 0 0 .56 10.971z" fill="#e88b89"/><path d="m97.446 14.706 20.56 58s-13.347 37.763 4.624 59.224a14.364 14.364 0 0 1 2.51 13.629l-12.477 38.671-16.344-.893-18.559-59.224c5.463-44.213 10.977-88.077 19.686-109.407z" fill="#65777f"/><path d="m82.205 57.548c.2 16.55-7.269 22.957-7.269 22.957 8.694 24.633 1.851 39.37-5.738 46.785a125.141 125.141 0 0 1 19.223 55.61l7.9.432c-.2-37.34-14.461-58.826-14.461-58.826l11.362-53.313a32.466 32.466 0 0 0 -.619-3.749c-4.635-20.236 4.843-52.738 4.843-52.738-11.917 20.711-15.241 42.842-15.241 42.842z" fill="#cfdde2"/><path d="m81.858 124.509s13.612-32.609 11.358-53.315c-3.679 3.012-9.421 6.455-18.28 9.311a95.885 95.885 0 0 1 -5.736 46.785s4.76.59 12.658-2.781z" fill="#9eaeb7"/><path d="m88.421 219.555h24.243v191.512h-24.243z" fill="#d87155"/><path d="m88.421 258.116 24.242 11.484v-50.045h-24.242z" fill="#8e3329"/><path d="m118.006 394.688h24.912a15.488 15.488 0 0 1 15.487 15.488v32.909s-22.039 3.306-27-16.53z" fill="#e88b89"/><path d="m118.006 485.294h-33.983a23.958 23.958 0 0 1 -23.958-23.957v-42.691a23.958 23.958 0 0 1 23.958-23.958h33.983a17.683 17.683 0 0 1 17.683 17.683v9.5c-1.442 3.629-1.807 7.286 0 11v15.732a14.919 14.919 0 0 0 0 11v8a17.683 17.683 0 0 1 -17.683 17.691z" fill="#ffcec7"/><path d="m75.96 195.5v-5.907a9.709 9.709 0 0 1 9.708-9.709h22.89c4.318 18.865-12.328 25.606-32.598 15.616z" fill="#cdb859"/><path d="m122.792 195.782v-6.194a9.708 9.708 0 0 0 -9.708-9.709h-4.526v5.409a10.207 10.207 0 0 1 -10.208 10.212h-22.39v.287a9.708 9.708 0 0 0 9.708 9.708 45.175 45.175 0 0 0 27.416 0 9.707 9.707 0 0 0 9.708-9.713z" fill="#896d2c"/><path d="m75.96 221.313v-6.113a9.709 9.709 0 0 1 9.708-9.709h22.89c15.181 15.83-17.422 26.884-32.598 15.822z" fill="#cdb859"/><path d="m122.792 221.393v-6.193a9.708 9.708 0 0 0 -9.708-9.709h-4.526v5.616a10.207 10.207 0 0 1 -10.208 10.206h-22.39v.08a9.709 9.709 0 0 0 9.708 9.709h27.416a9.708 9.708 0 0 0 9.708-9.709z" fill="#896d2c"/><path d="m135.689 421.875h-44a5.5 5.5 0 0 0 0 11h44z" fill="#e88b89"/><path d="m135.689 448.607h-44a5.5 5.5 0 1 0 0 11h44z" fill="#e88b89"/></svg>