<svg id="FLAT" height="512" viewBox="0 0 500 500" width="512" xmlns="http://www.w3.org/2000/svg"><path d="m166.031 64.476a5.5 5.5 0 0 0 -6.7 3.946l-10.508 40.578-6.63-31.668a5.5 5.5 0 1 0 -10.765 2.254l12.693 60.631a5.5 5.5 0 0 0 10.766-2.254l-.984-4.7 16.074-62.091a5.5 5.5 0 0 0 -3.946-6.696z" fill="#896d2c"/><path d="m484.198 307.784-51.299-79.133h35.011l-42.556-65.646h30.08l-45.363-69.975-45.362 69.975h30.08l-42.556 65.646h35.011l-51.299 79.133z" fill="#5d7c46"/><path d="m138.155 111.8s49.216 52.4 178.959 66.956c0 0 2.532 118.966 115.82 256.946h-134.778s-166.179-118.081-160.001-323.902z" fill="#896d2c"/><path d="m138.155 111.8s41.926 226.841 160 323.9h-113.874c-26.047-6.291-54.648-5.994-85.455 0h-83.026s102.676-153.633 122.355-323.9z" fill="#cdb859"/><path d="m184.281 435.7s-38.152-140.315-41.181-189.62c0 0-12.134 140.883-44.276 189.621z" fill="#2b2b38"/><path d="m143.1 246.08s1.564 121.225 41.179 189.621c4.545-19.116 13.023-35.764 24.2-50.718a6.112 6.112 0 0 0 -.625-8.083c-12.634-12.113-51.312-54.52-64.754-130.82z" fill="#fff4c5"/><path d="m311.105 193.718a5.5 5.5 0 0 1 -5.433-6.343l4.789-30.884a5.5 5.5 0 1 1 10.869 1.686l-1.717 11.081 11.1-13.461a5.5 5.5 0 1 1 8.486 7l-23.849 28.92a5.5 5.5 0 0 1 -4.245 2.001z" fill="#896d2c"/><path d="m426.146 196.027a5.5 5.5 0 0 0 -7.707 1.054l-2.867 3.777v-17.908a5.5 5.5 0 1 0 -11 0v76.464c-.3-.271-.59-.545-.9-.807l-4.327-3.685a5.5 5.5 0 0 0 -7.133 8.375l4.328 3.686a22.79 22.79 0 0 1 8.03 17.38v81.55a5.5 5.5 0 0 0 11 0v-133.62a39.569 39.569 0 0 1 8.006-23.789l3.623-4.771a5.5 5.5 0 0 0 -1.053-7.706z" fill="#8e3329"/></svg>