<svg id="FLAT" height="512" viewBox="0 0 500 500" width="512" xmlns="http://www.w3.org/2000/svg"><path d="m407.5 395.955a21.433 21.433 0 0 1 -11.374-2.974c-3.919-2.539-12.548-10.337-8.046-27.847 3.96-15.4 17.56-19.585 27.589-19.759a20.5 20.5 0 0 0 -5.627-12.771c-7.423-7.842-25.7-15.746-70.626-8.857l-.416.064c-20.493 3.142-35.3 5.411-47.24 3.889a41 41 0 0 1 -33.708-53.23c16.987-52.187 92.866-80.745 97.953-82.606 42.895-18.494 79.135-39.664 96.977-56.652 42.2-40.174 3.9-83.489 2.245-85.313a5.5 5.5 0 0 1 8.135-7.4 89.19 89.19 0 0 1 17.474 31.961c5.188 17.607 5.881 43.822-20.27 68.718-18.753 17.854-56.269 39.854-100.353 58.85-.1.043-.2.084-.3.121-.756.275-75.861 28-91.4 75.726a30 30 0 0 0 24.64 38.914c10.407 1.329 24.575-.845 44.182-3.851l.416-.064c40.045-6.139 67.122-1.976 80.478 12.377a31.712 31.712 0 0 1 7.965 27.18 5.5 5.5 0 0 1 -6.244 4.207c-1.786-.276-17.726-2.326-21.213 11.236-1.947 7.567-.748 13.2 3.374 15.876 2.192 1.422 7.319 1.6 9.976.349a7.15 7.15 0 0 0 3.182-3.2 6.019 6.019 0 0 0 -.229-5.423 5.5 5.5 0 0 1 9.948-4.7 17.037 17.037 0 0 1 .2 14.872 18.031 18.031 0 0 1 -8.411 8.395 22.107 22.107 0 0 1 -9.277 1.912z" fill="#d87155"/><path d="m446.294 43.226c-17.5 4.092-42.181 8.81-64.776 9.348 0 0-65.913 46.527-105.655 62.036 0 0-45.558 55.251-93.055 74.638 0 0-49.435 75.606-89.177 100.808a569.625 569.625 0 0 1 -40.154 94.213l15 6.176c110.509-189.879 227.838-273.764 302.403-309.882a333.7 333.7 0 0 1 73.766-25.676z" fill="#cdb859"/><g fill="#896d2c"><path d="m461.289 39.454c-3.922 1.058-9.043 2.378-15 3.771-24.593 24.245-53.959 24.76-53.959 24.76-45.325 8.25-104.266 63.448-104.266 63.448-48 26.454-86.321 72.308-86.321 72.308-51.974 35.467-93.068 100.31-93.068 100.31a169.164 169.164 0 0 1 -55.205 80.218c-10.435 19.3-22.848 39.162-37.178 57l28.869 19.386s25.2-78.756 70.76-138.248c0 0 41.68-76.2 92.085-104.681 0 0 26.171-43.019 84.33-75.976 0 0 42.65-48.466 104.686-64.944 0 0 43.481-5.515 67.228-32.553a2.946 2.946 0 0 0 -2.961-4.799z"/><path d="m288.987 140.966a5.5 5.5 0 0 1 -5.48-5.112c-.61-8.633-6.079-13.781-10.559-16.579a5.5 5.5 0 1 1 5.829-9.329c9.394 5.869 14.971 14.794 15.7 25.131a5.5 5.5 0 0 1 -5.1 5.875c-.128.009-.259.014-.39.014z"/><path d="m113.654 318.9a5.5 5.5 0 0 1 -5.144-3.553c-5.133-13.539-17.386-20.393-17.509-20.46a5.5 5.5 0 0 1 5.243-9.671c.647.35 15.928 8.76 22.551 26.233a5.5 5.5 0 0 1 -5.141 7.451z"/><path d="m205.1 215.143a5.5 5.5 0 0 1 -4.988-3.177c-6.578-14.1-18.156-17.257-18.645-17.385a5.5 5.5 0 0 1 2.643-10.681c.692.169 17.079 4.351 25.97 23.414a5.5 5.5 0 0 1 -4.98 7.826z"/><path d="m391.842 77.278a5.5 5.5 0 0 1 -5.4-4.5c-1.733-9.393-8.633-16.141-8.7-16.206a5.5 5.5 0 0 1 7.558-7.992c.389.368 9.554 9.167 11.958 22.2a5.5 5.5 0 0 1 -4.411 6.406 5.564 5.564 0 0 1 -1.005.092z"/></g></svg>