<svg id="FLAT" height="512" viewBox="0 0 500 500" width="512" xmlns="http://www.w3.org/2000/svg"><path d="m186.5 74.621s-39.732-14.508-15.137-44.674c13.167-16.147 35.337-9.712 46.479 9.362z" fill="#2b2b38"/><path d="m295.065 72.721s42.228-15.421 16.087-47.481c-13.992-17.162-37.557-10.323-49.4 9.95z" fill="#5e606b"/><path d="m358.594 484.382h-229.115a9.3 9.3 0 0 1 -8.688-5.965c-1.581-4.127-3.63-9.775-5.091-14.885l-13.657-8.9c-10.677-10.228-22.92-30.974-16.867-69.74 10.175-65.159 28.573-126.376 70.545-196.074 0 0 21.707-36.63 21.707-75.972s8.818-80.72 55.622-84.112 62.4 20.35 67.832 50.874 10.853 55.622 10.853 55.622 78.685 82.83 97.678 180.81c15.912 82.085 3.258 131.584-22.8 143.091l-16.543 2.369a91.8 91.8 0 0 1 -2.456 15.9 9.307 9.307 0 0 1 -9.02 6.982z" fill="#5e606b"/><path d="m211.133 109.4a10.087 10.087 0 0 1 7.7-16.587h10.512a8.7 8.7 0 0 1 8.025 12.173 27.575 27.575 0 0 1 -3.28 5.519 13.766 13.766 0 0 1 -19.887 2.021 28.328 28.328 0 0 1 -3.07-3.126z" fill="#2b2b38"/><path d="m178.328 212.44c6.55 14.528 23.172 43.484 58.684 66.122a26.672 26.672 0 0 0 33.975-4.467 272.784 272.784 0 0 0 41.607-60.766 2.157 2.157 0 0 0 -3.465-2.488c-8.283 8.511-21 20.965-33.751 31.075a39.137 39.137 0 0 1 -43.686 3.332c-14.323-8.165-33.522-20.4-49.942-35.282a2.155 2.155 0 0 0 -3.422 2.474z" fill="#d9dbe8"/><g fill="#2b2b38"><path d="m292.769 56.958c-4.685-10.284-11.259-15.832-15.584-18.566a3.887 3.887 0 0 1 -.387-6.281c4.977-4.084 13.692-8.746 21.46-.3 11.49 12.49 5.7 21.74.793 26.391a3.921 3.921 0 0 1 -6.282-1.244z"/><path d="m149.384 273.8a5.5 5.5 0 0 0 -10.086-4.392c-.49 1.125-17.807 34.306-27.3 71.874-11.964 47.347-15.94 80.338-9.955 113.342 7.156 6.746 13.657 8.9 13.657 8.9-18.037-80.587 33.218-188.651 33.684-189.724z"/><path d="m244.157 484.515c-61.054 0-86.324-40.14-87.37-41.849a5.5 5.5 0 0 1 9.378-5.75c.986 1.587 23.412 36.6 77.992 36.6 54.743 0 74.567-35.947 74.761-36.31a5.5 5.5 0 1 1 9.7 5.181c-.918 1.719-23.192 42.128-84.461 42.128z"/><path d="m386.605 459.117c7.136-117.744-25.757-181.117-27.067-183.611a5.5 5.5 0 0 0 -9.74 5.112c.31.594 28.486 63.08 20.272 180.879a31.7 31.7 0 0 0 16.535-2.38z"/><path d="m216.215 79.1a5.519 5.519 0 0 1 -1.351-.169l-9.856-2.491a5.5 5.5 0 0 1 2.692-10.667l9.856 2.491a5.5 5.5 0 0 1 -1.341 10.836z"/><path d="m246.613 78.222a5.5 5.5 0 0 1 -1.344-10.834l10.431-2.635a5.5 5.5 0 1 1 2.695 10.665l-10.427 2.636a5.525 5.525 0 0 1 -1.355.168z"/></g></svg>