<svg id="flat" height="512" viewBox="0 0 500 500" width="512" xmlns="http://www.w3.org/2000/svg"><path d="m324.431 201.623c2.966-7.065 9.12-12.1 15.9-15.676 14.64-7.713 26.008 7.3 26.008 7.3s16.489.211 22.026 3.153 9.936 8.47 10.387 14.724c.3 5.561-2.377 13.435 3.4 16.965 1.991 1.1 4.421.926 6.621 1.508a10.1 10.1 0 0 1 7.256 10.192c-.183 2.43-1.21 5.113.149 7.136 1.06 1.578 3.135 2.022 4.98 2.479a26.258 26.258 0 0 1 13.173 7.29c8.639 9.11 6.023 24.992-5.094 30.841h-42.459z" fill="#4f424c"/><path d="m496.681 364.458c1.625-11.646-4.743-22.409-18.373-27.412 6.861-19.3 2.682-32.916-18.2-37.931 0 0-2.926-32.728-32.147-23.115-1.591-1.518-9.453-10.836-26.774-7.548-14.438 7.9 18.06 72.788 34.105 117.7z" fill="#8fad96"/><path d="m496.584 365.035c-4.62-10.418-12.74-14.515-20.423-15.826a2.842 2.842 0 0 0 -3.254 3.4 28.681 28.681 0 0 1 -2.164 17.113c-1.687 3.807-6.74 1.371-7.053-1.911-1.029-15.64-4.776-22.976-20.195-27.918-4.019-1.463-3.389-7.622 1.013-7.48a37.185 37.185 0 0 1 16.565 4.391 2.456 2.456 0 0 0 3.632-2.191c-.146-8.2-4.726-16.757-15.73-18.919a3.771 3.771 0 0 1 -2.857-4.837c2.3-5.537.724-15.981-6.877-21.3a2.473 2.473 0 0 0 -3.958 2.04 30.584 30.584 0 0 1 -1.519 9.877c-1.282 3.962-6.562 2.064-7.214-1.167-1.108-5.487-.233-22.277-22.987-25.668-3.075-.459-3.835-4.223-2.377-6.188a30.266 30.266 0 0 0 -18.718 12.863l29.812 119.508h75.936c11.684-10.062 4.149-24.6 4.149-24.6a31.494 31.494 0 0 0 4.219-11.187z" fill="#4f424c"/><path d="m87.738 264.549c12.032-21.886 24.268-44.052 41.4-61.93 7.779-8.119 16.555-15.341 23-24.63 9.893-14.258 13.743-32.61 25.177-45.575 18.715-20.255 55.27-26.871 81.521-32.534 13.328-3.06 20.118 1.4 27.293 12.655a422.683 422.683 0 0 1 30.664 53.512c7.278 19.065 14.592 38.553 20.553 42.491 8.412 13.625 25.287 19.454 33.578 32.861a244.249 244.249 0 0 1 26.14 60.829c-14.792 112.089-192.609-5.912-309.326-37.679z" fill="#b6c3dd"/><path d="m404.206 394.976 4.264-30.176c-2.361-20.578-5.479-41.416-11.417-62.571-3.461 5.8-8.859 9.936-15.469 9.378-11.947-1.5-18.655-14.949-26.778-22.823-7.285-14.407-16.612-27.663-26.722-40.35a83.783 83.783 0 0 1 -14.972-28.925c-2.827-9.27-4.948-20.095-11.006-27.9-1.674-2.156-5.123.2-4.422 2.575a292.964 292.964 0 0 1 8.942 29.734c3.514 13.9 11.311 25.525 20.085 36.641q-12.711-11.6-26.352-22.135c-5.67-4.376-11.758-8.736-18.836-9.833-20.121-1.97-37.182 15.467-52.907-7.825 1.568-8.741 2.072-17.869 3.461-25.542 3.312-21.035 17.477-37.918 24.91-57.374 1.053-2.971-3.064-4.064-4.669-1.969-6.313 8.246-11.012 18.326-15.942 27.461a107.1 107.1 0 0 0 -13.723 43.022c-6.946-34.475 3.767-71.494 24.685-99.3 0 0-56.393 14.261-77.666 97.116l87.255 137.92z" fill="#7b8aa5"/><path d="m262.205 123.937a3.03 3.03 0 0 0 4.5-3.081 2.459 2.459 0 0 0 -2-2.866c-3.329-.927-5.612 4.233-2.5 5.947z" fill="#7b8aa5"/><path d="m412.28 400.822c-1.293-11.924-2.425-23.928-3.813-36.021-25.69 23.041-36.158-17.759-36.158-17.759l-10.69 53.78z" fill="#4f424c"/><path d="m286.694 400.822c4.167-16.884 1.69-42.567-7.3-57.637-8.792-14.128-24.988-21.721-36.461-33.774-12.7-13.344-18.973-31.4-28.8-46.987-9.48-15.041-22.653-28.522-26.481-45.884-4.549-20.634 5.19-41.48 15.083-60.15 5.422-10.233 11.072-20.531 19.085-28.893 8.12-8.474 29.819-22.951 49.046-28.131-3.914-.814-8.056-.2-12.032.515a318.234 318.234 0 0 0 -44.916 11.49c-13.434 4.5-27.085 10.246-36.606 21.043-11.434 12.965-15.284 31.317-25.177 45.575-6.445 9.289-15.221 16.511-23 24.63-17.129 17.878-29.364 40.044-41.4 61.93l170.828 136.273z" fill="#4f424c"/><path d="m373.309 361.758c-4.409-25.169-19.709-46.758-34.857-67.158-3.515-4.736-7.072-9.491-11.4-13.467-6.352-5.833-14.164-9.8-20.645-15.486-5-4.385-9.134-9.727-14.217-14.012-15.022-13.077-29.894-5.763-36.576 11.325l6.2 124.241 111.492 13.623c1.515-13.054 2.258-26.184.003-39.066z" fill="#7b8aa5"/><path d="m258.563 400.822h47.911c8.16-23.772 10.739-53.5 4.788-78.213-3.116-10.4-9.294-19.578-15.385-28.571-9.384-15.14-22.085-27.993-40.3-31.093-.484 1.257-26.5 69.638-33.414 104.292z" fill="#4f424c"/><path d="m231.393 316.421c-5.046-7.023-10.381-13.86-14.433-21.488-2.879-5.421-5.077-11.179-7.865-16.647-5.91-11.591-14.318-21.606-23.272-31.118-2.73-.524-4.725-2.456-5.838-6.081-9.949-11.245-16.189-14.193-31.064-9.2-3.138 1.019-6.24 2.143-9.313 3.346-1.374.539-25.507 14.988-48.069 35.091 0 0-53.4 48.625 4.236 93.691s135.64 2.2 135.64 2.2z" fill="#b6c3dd"/><path d="m129.574 400.822c1.816-1.171 4.075-1.5 7.3 0h54.382c6.323-1.841 11.46-2.425 13.758 0h53.553c-.867-28.47-10-61.563-27.175-84.4-4.22 28.7-27.055 59.908-58.765 52.307-15.993-4.539-26.547-20.851-28.69-37.337s2.641-33.08 8.688-48.566c-11.134 10.788-32.887 32.1-49.3 27.816-16.945-5.25-17.8-26.265-11.782-40.321-14.362 12.8-28.088 27.885-34.9 43.134-16.314 58.873 9.221 90.702 72.931 87.367z" fill="#7b8aa5"/><g fill="#4f424c"><path d="m82.229 377.954c-30.224-61.013 27.323-128.054 57.383-142.712-24.667 9.628-67.136 28.758-67.136 28.758-6 2.583-12.094 5.221-17.13 9.385-14.959 12.371-16.771 34.18-24.611 51.938-9.572 21.365-25.688 33.428-27.561 58.937a14.866 14.866 0 0 0 14.79 16.564h95.908c-5.459-1.715-20.025.585-31.643-22.87z"/><path d="m271.835 249.356c22.888-5.445 25.512 25.716 34.247 39.32 10.266 15.156 26.882 26.889 28.979 46.344.4 2.751 4.45 1.858 4.611-.624 1.446-22.351-23.028-36.356-31.539-54.744-4.471-9.658-6.607-20.548-14.214-28.465-5.785-6.022-15.767-9.879-23.414-4.985a1.734 1.734 0 0 0 1.33 3.154z"/><path d="m336.583 353.4c-2.282 16.133-4.937 32.551-11.881 47.421h7.372c6.091-15.021 9.051-31.662 9.684-46.721.122-2.9-4.758-3.675-5.175-.7z"/><path d="m375.425 360.215c-3.1-18.893-11.741-35.856-22.616-51.279-5.3-7.528-10.87-14.97-16.738-22.065-6.05-7.316-13.511-10.984-21.05-16.4-12.469-8.963-20.473-29.586-38.907-26.979-19.416 2.745-25.542 29.848-29.1 45.448a1.751 1.751 0 0 0 3.373.93c2.917-8.564 5.585-17.405 9.4-25.623 9.075-20.013 24.775-20.612 37.762-3.557 4.631 5.619 9.036 11.331 15.083 15.517 6.94 4.805 13.567 8.409 19.023 15.085 5.305 6.491 10.3 13.314 15.144 20.155a170.484 170.484 0 0 1 10.462 16.553c9.058 23.809 2.735 50.5-7.8 72.824h25.966a122.58 122.58 0 0 0 -.002-40.609z"/><path d="m372.309 400.822c-1.033-17.106-3.114-34.192-3.35-51.331-.029-4.384-6.09-4.1-6.615 0-1.629 12.7-5.993 27.908-16.621 36.032a20.84 20.84 0 0 1 -22.761 1.887c-10.94-6.191-10.254-20.485-9.321-31.3.179-2.071-3.315-2.573-3.661-.495-.571 3.427-1.127 7.045-1.383 10.668l-6.197 19.817a3.12 3.12 0 0 0 -3.459 1.218 55.891 55.891 0 0 0 -7.157 13.508z"/><path d="m124.576 343.742c1.687-42 44.916-61.594 61.246-96.574-1.927-2.047-3.88-4.069-5.838-6.08-14.476 36.717-65.58 58.7-58.98 103.137.425 2.12 3.429 1.451 3.572-.483z"/><path d="m126.927 367.6c-.534-2.226-3.634-1.565-3.8.514-.859 10.99 2.111 22.375 6.443 32.706h7.3c-4.834-10.64-7.193-21.762-9.943-33.22z"/><path d="m191.657 400.594c-.133.08-.272.149-.405.228h13.758c21.023-18.3 6.256-58.751-10.262-75.6-2.319-2.331-6.583.734-4.663 3.6 10.1 15.054 19.44 32.233 17.862 51.138-.774 9.283-8.785 16.106-16.29 20.634z"/><path d="m211.334 194.632c19.915-72.7 48.377-92.921 48.377-92.921s-9.091.834-12.465 1.554c-14.179 13.751-20.739 31.606-28.189 49.268-5.255 13.005-10.479 26.839-12.516 40.778-.466 3.189 3.944 4.42 4.793 1.321z"/><path d="m323.353 180.4c-2.1-4.826-4.312-9.6-6.587-14.339 9.089 29.787 17.272 60.695 31.39 88.544 1.393 2.616 5.6.823 4.774-2.013-4.343-14.875-10.229-29.4-15.581-44.056-5.849-8.551-9.808-18.516-13.996-28.136z"/></g></svg>