<svg id="flat" height="512" viewBox="0 0 500 500" width="512" xmlns="http://www.w3.org/2000/svg"><path d="m69.594 289c.16 10.482-.111 22.2-.814 31.984h13.653l2.319-28.132c-4.943-4.689-9.961-7.075-15.158-3.852z" fill="#e57e80"/><path d="m82.433 320.983h5.084c-.378-10-.522-23.057-.434-33.291l-8.935-7.13-8.717 1.862c.038 1.081.135 5.451.163 6.575 10.337.96 13.485 12.972 13.278 19.063q-.22 6.461-.439 12.921z" fill="#bc5b65"/><path d="m69.424 282.424c5.9 1.7 11.735 3.7 17.662 5.268.085-9.855.382-16.887.9-26.507l-19.882 3.8c.645 6.738 1.081 10.677 1.32 17.439z" fill="#4f424c"/><path d="m96.439 208.6 22.368 48-37.7 5.449c-18.347 17.261-25.837-2.433-25.837-2.433l-9.6 2.433c-24.378 9.721-18.988-8.146-18.988-8.146 4.626-8.903 13.418-19.23 18.077-31.729-3.392 1.01-6.467.9-7.743-1.982-5.706-12.869 13.284-28.353 19.025-50.676l-7.116 3.571c-1.867.937-3.9 1.912-6.135.141-6.832-6.349 3.714-20.874 7.2-27.273 7.5-13.018 15.053-35.868 23.156-51.331 2.681-5.034 9.808-3.715 11.224 1.6z" fill="#7bb7b7"/><path d="m128.358 253.225a103.479 103.479 0 0 1 -17.371-30.809c6.056 1.56 12.177 1.084 13.757-6.112.977-4.446-4.231-8.034-6.733-11.837a139.536 139.536 0 0 1 -16.333-34.259c2.258 1.874 4.35 3.978 7.385 4.676 6.86 1.207 7.66-5.675 5.137-10.69-4.284-10.061-10.247-19.324-14.8-29.267-5.558-12.149-9.487-26.111-15.043-38.7.554 8.5-5.658 15.291-7.509 23.223-2.848 14.289 4.937 27.524-1.071 42.25-5.12-2.522-10.815.023-15.245 2.746-2.926 1.78-.365 6.021 2.658 4.547 20.68-10.841 8.957 19 15.473 31.483 1.741 2.9 6.081 7.029 9 9.8 4.849 4.606-5.522 10.955-9 9.653-2.829-1.059-4.492-4.291-6.675-6.171-5.7-5.728-14.8-1.283-18.46 4.543-1.135 1.734.737 3.868 2.6 3.386a26.377 26.377 0 0 0 5.961-2.466c2.519-1.345 3.807-1.911 6.061.195 3.218 3.008 5.906 9.583 10.114 7.473 31.934-16.011 41.629 40.507 3.7 28.881-4.654-1.427-9.52 6.72-14.3 7.663-6.8 1.343-5.744-8.227-12.675-8.253-9.222.291-25.766 15.269-28.3-1.275-2.965 5.71-4.222 10.842-1.566 15.59 4.4 7.874 26.173-5.105 26.173-5.105.667.425 4.1 10.037 12.141 10.207 11.409.242 14.407-5.683 16.96-7.962 4.092 8.379 19.712 16.5 24.974.046 8.076 3.574 28 10.538 31.483-1.661 1.272-4.455-5.335-8.009-8.496-11.795z" fill="#4d8489"/><path d="m254.2 211.432 17.019 36.523-28.689 4.145c-13.959 13.133-19.658-1.851-19.658-1.851l-7.3 1.851c-18.549 7.4-14.448-6.2-14.448-6.2 3.519-6.777 10.21-14.63 13.753-24.14-2.58.769-4.92.682-5.891-1.508-4.341-9.791 10.109-21.572 14.476-38.557-2.859.984-7.3 5.129-10.082 2.825-5.185-5.026 2.795-15.743 5.476-20.752 5.706-9.9 11.453-27.291 17.618-39.055 2.04-3.83 7.462-2.827 8.54 1.214z" fill="#4f424c"/><path d="m278.481 245.388a78.716 78.716 0 0 1 -13.217-23.441c4.608 1.187 9.265.825 10.467-4.65.743-3.383-3.219-6.113-5.123-9.006a106.2 106.2 0 0 1 -12.427-26.067c1.685 1.4 3.248 2.965 5.486 3.527 5.249 1.089 6.018-4.256 4.042-8.1-3.26-7.655-7.8-14.7-11.258-22.269-4.229-9.243-7.219-19.866-11.446-29.448.422 6.464-4.305 11.634-5.713 17.67-1.936 8.049 1.792 16.466.9 24.7a42.41 42.41 0 0 1 -1.715 7.452c-3.9-1.919-8.228.018-11.6 2.089-2.227 1.355-.278 4.582 2.022 3.46 15.736-8.25 6.815 14.456 11.773 23.954 1.325 2.208 4.627 5.348 6.847 7.457 3.689 3.5-4.2 8.335-6.849 7.344-2.153-.805-3.418-3.265-5.079-4.695-4.338-4.36-11.263-.976-14.046 3.456a1.773 1.773 0 0 0 1.981 2.577 20.092 20.092 0 0 0 4.536-1.876c1.916-1.023 2.9-1.455 4.611.148 2.448 2.288 4.114 5.741 7.7 5.686 26.067-.406 21.058 18.65 12.224 20.859-4.887 1.222-12.158-.985-17.812-3.273a19.906 19.906 0 0 0 -15.3.1c-4.329 1.851-10.694 3.766-20.049 5.45-5.881 18.8 16.888 7.745 20.416 5.392.507.323 3.117 7.637 9.237 7.766 8.681.184 10.962-4.324 12.9-6.058 3.057 6.365 15.068 12.528 19 .035 6.144 2.72 21.3 8.018 23.953-1.264.971-3.389-4.056-6.093-6.461-8.975z" fill="#4f424c"/><path d="m362.985 303.943a77.065 77.065 0 0 1 14.324-4.864 58.1 58.1 0 0 1 26.05 8.1c4.909 2.956 9.957 6.793 15.43 7.424a8.157 8.157 0 0 1 6.912 5.708s11.772 4.261 13.152 6.318.844 5.487-1.526 6.207c7.946 4.583 13.537 12.252 19.6 18.981.046 28.283-89.957 61.607-93.942-47.874z" fill="#bfcc7f"/><path d="m344.836 314.734c23.448 27.917 79.307 86.7 79.307 86.7 39.272 5.193 59.687.281 59.663-15.584-7.94-11.982-17.284-23.011-26.885-34.025-25.877 15.444-61.6 7.889-79.4-16.3-7.02-9.311-11.193-20.33-14.533-31.573a98.886 98.886 0 0 0 -18.152 10.782z" fill="#919951"/><path d="m496.288 408.533a148.036 148.036 0 0 0 -12.494-22.678c-13.283 8.806-30.8 8.075-45.05 1.809-53.4-23.357-61.435-88.579-61.435-88.579-21.373-3.172-43.491 16.826-48.844 21.746 23.448 27.917 100.057 86.869 100.057 86.869z" fill="#4f424c"/><path d="m379.055 286.255-5.771.912q.3 23.391-.539 46.778c12.768 3.7 9.423-44.629 9.6-42.787z" fill="#e57e80"/><path d="m387.2 284.968-8.148 1.287c.2 11.666 2.227 39.825-6.313 47.69q-.526 14.686-1.494 29.353l12.512 11.434z" fill="#bc5b65"/><path d="m383.76 374.732 9.006 8.23c-2.324-35.05-3.8-89.891-2.288-124.985h-18.008q.628 14.588.8 29.19c8.327 2.98 10.279 5.881 10.051 14.664 1.233 24.28 2.008 48.614.439 72.901z" fill="#4f424c"/><path d="m324.52 306.583c-18.034-12.017-56.659-32.881-56.659-32.881-1.832-.767-3.755-1.572-5-3.118a19.1 19.1 0 0 1 -2.027-3.953 15.918 15.918 0 0 0 -17.285-8.446c2.2-2.285-.376-6.341-3.486-6.951s-6.217.767-9.328 1.371c-8.721 1.694-17.3-2.685-25.736-5.462-30.049-10.316-59.316 1.987-82.35 21.7-20.334 17.688-34.021 23.737-50.434 58.049 0 0-4.984 41.5 14.879 66.987h228.02c18.886-41.379 42.033-59.749 9.406-87.296z" fill="#bfcc7f"/><path d="m410.812 163.751c-26.048-30.367-60.623-7.668-61.837 7.527-13.574 3.109-22.9 17.321-19.063 29.121 1.518 4.668-.058 9.728-3.767 13.327-16.955 15.367-14.327 42.255 9.657 48.335 2.493.5 5.2.695 7.219 2.09a16.944 16.944 0 0 1 3.295 3.647 22.033 22.033 0 0 0 14.623 7.7c5.332.578 10.726-.654 16.1-.52 6.992.175 13.745 2.656 20.74 2.488a26.4 26.4 0 0 0 19.156-8.8 35.373 35.373 0 0 1 4.026-4.6c2.551-2.125 6.039-3.016 9.209-4.3 21.363-8.5 26.532-35.352 7.671-49.321 17.888-19.054-1.72-47.987-27.029-46.694z" fill="#7bb7b7"/><g fill="#919951"><path d="m94.53 326.229c-1.069 1.914.192 3.921 1.05 5.717a20.756 20.756 0 0 0 3.5 5.53c1.564 1.606 3.781-.1 3.467-2.019a20.52 20.52 0 0 0 -2.287-5.839c-.825-1.574-1.747-3.942-3.7-4.218a1.882 1.882 0 0 0 -2.038.829z"/><path d="m104.7 321.227c1.048 4.856 1.426 9.8 2.385 14.662.452 2.29 3.905 1.67 3.959-.536.128-5.15-1.064-10.27-2.253-15.253-.636-2.664-4.664-1.532-4.091 1.127z"/><path d="m116.869 328.645a16.809 16.809 0 0 0 -1.674 9.306c.47 1.85 3.569 2.545 4.413.577a49.879 49.879 0 0 0 1.541-8.724 2.315 2.315 0 0 0 -4.28-1.159z"/><path d="m178.114 299.488a85.715 85.715 0 0 0 3.747 10.622c.863 1.889 3.872.9 3.822-1.035a21.622 21.622 0 0 0 -3.928-11.122c-1.235-1.739-4.335-.766-3.641 1.535z"/><path d="m188.2 291.4c.612 6.307.731 12.7 1.523 18.982.249 1.971 3.525 2.958 3.89.526 1-6.632.059-13.577-1.684-20.013-.542-2-3.941-1.682-3.729.5z"/><path d="m199.984 301.878c-1.509 1.8-1.732 4.227-2.268 6.466a48.376 48.376 0 0 0 -1.411 7.271c-.17 2.087 2.88 2.743 3.843 1.041a25.4 25.4 0 0 0 2.453-6.965c.478-2.131 1.313-4.891.517-6.985-.453-1.191-2.141-2.009-3.134-.828z"/><path d="m240.927 333.653a9.438 9.438 0 0 0 -.191 2.265c.954 4.277.778 8.883 2.621 12.9.88 1.743 3.352 1.115 3.9-.509.952-2.826.357-6.018-.261-8.866-.57-2.631-1.076-5.219-3.027-7.053-1.055-.992-3.144-.351-3.041 1.259z"/><path d="m251.467 326.828c.388 5-.5 10.056-.124 15.022a2.391 2.391 0 0 0 4.673.632c1.672-5.156.614-11.053-.475-16.206-.478-2.26-4.257-1.794-4.074.552z"/><path d="m262.752 337.3c-.942 2.322-.9 4.923-1.7 7.3a1.967 1.967 0 0 0 3.578 1.508c1.614-2.341 2.562-6.146 1.426-8.81a1.919 1.919 0 0 0 -3.3 0z"/><path d="m165.572 356.234c-.141 1.255.653 2.523 1.138 3.634a9.463 9.463 0 0 0 1.84 3.079c.993.947 3.18.7 3.408-.9.381-2.681-1.269-6.679-3.938-7.678-1.3-.486-2.321.738-2.448 1.864z"/><path d="m175.9 345.467c-.063 5.527-.352 11.471.946 16.887.468 1.95 3.642 2.051 4.046 0 1.122-5.692.177-11.813-.872-17.445-.442-2.375-4.094-1.747-4.12.558z"/><path d="m185.672 354.294c-.137 2.465.077 5.023.107 7.5a1.933 1.933 0 0 0 3.776.51 12.191 12.191 0 0 0 -.127-9.025 2.03 2.03 0 0 0 -3.756 1.017z"/><path d="m195.9 355.924c-1.473 1.944-1.012 4.806-.62 7.055a2.009 2.009 0 0 0 3.842 0c.678-2.287.816-9.59-3.222-7.055z"/><path d="m229.618 307.059a61.8 61.8 0 0 1 8.042-9.732 2.108 2.108 0 0 0 -2.542-3.3c-4.116 2.162-7.6 7.214-8.97 11.564-.685 2.181 2.283 3.113 3.47 1.463z"/><path d="m232.285 314.467c2.917-1.895 5.835-3.858 8.674-5.87 1.539-1.09.654-4.146-1.4-3.319a26.539 26.539 0 0 0 -9.419 6.41c-1.316 1.418.394 3.918 2.144 2.779z"/><path d="m127.356 281.782a38.321 38.321 0 0 0 7.366 14.179c1.518 1.791 3.753-.5 2.981-2.3a115.238 115.238 0 0 0 -6.962-13.305 1.861 1.861 0 0 0 -3.385 1.427z"/><path d="m140.935 282.093c.827 4.086.684 8.043.668 12.171a2.013 2.013 0 0 0 3.936.533 22.275 22.275 0 0 0 -1.349-13.6 1.689 1.689 0 0 0 -3.255.9z"/><path d="m266.508 284.9c-2.659 3.926-3.836 9.982-4.23 14.644-.162 1.925 2.971 2.847 3.756 1.018 1.787-4.726 3.683-9.586 4.427-14.591.165-2.256-2.87-2.67-3.953-1.071z"/><path d="m276.254 292.263a18.965 18.965 0 0 0 -4.807 7.953c-.728 2.2 2.788 3.744 3.791 1.6a64.65 64.65 0 0 1 4.071-7.194c1.2-1.892-1.494-3.879-3.055-2.357z"/><path d="m212.976 262.307c1.078 4.248 2.421 8.642 5.171 12.128 1.151 1.46 3.67-.121 3.094-1.8-1.322-3.863-3.406-7.43-4.762-11.293a1.818 1.818 0 0 0 -3.5.966z"/><path d="m225.32 263.637a40.8 40.8 0 0 0 -.106 6.748 1.876 1.876 0 0 0 3.75 0 40.693 40.693 0 0 0 -.1-6.748 1.771 1.771 0 0 0 -3.539 0z"/><path d="m234.973 266.668c-1.292 3.083-1.687 6.542-2.941 9.665a1.908 1.908 0 0 0 3.47 1.463c1.8-2.7 3.613-7.423 2.941-10.675a1.918 1.918 0 0 0 -3.47-.453z"/><path d="m152.455 283.467c-1 3.59-1.645 7.214-2.772 10.789-.662 2.1 2.418 3.339 3.512 1.481 1.949-3.31 3.393-7.908 2.9-11.778-.248-1.941-3.029-2.667-3.637-.492z"/><path d="m167.8 254.832c1.817 1.354 3.28 3.1 5 4.545 1.48 1.132 3.4-1.033 2.485-2.485-1.112-1.523-5.585-6.774-7.487-4.695a1.877 1.877 0 0 0 0 2.635z"/><path d="m176.764 249.331c.955 3.347 1.785 7.052 3.436 10.137 1.137 2.122 4.227.621 3.749-1.58-.738-3.39-2.561-6.758-3.993-9.9-.83-1.821-3.725-.523-3.192 1.346z"/><path d="m399.044 341.43c1.376 2.168 2.284 4.638 3.7 6.761a1.919 1.919 0 0 0 3.491-1.472c-.6-2.624-2.376-5.06-3.976-7.17-1.406-1.854-4.538-.2-3.218 1.881z"/><path d="m408.434 336.742c.471 3.276.428 6.635.975 9.888.413 2.454 3.849 1.592 4.052-.549.319-3.368-.565-7.1-1.388-10.342-.614-2.417-3.975-1.33-3.639 1z"/><path d="m417.583 342.936c-.455 2.94-1.211 5.976-1.123 8.959a1.861 1.861 0 0 0 3.637.493c1.122-2.792 1.086-6.033.893-8.991-.119-1.817-3.09-2.511-3.407-.461z"/><path d="m396.48 315.847a56.742 56.742 0 0 0 2.546 5.451c1.193 1.642 4.168.748 3.492-1.472a32.077 32.077 0 0 0 -3-5.753c-1.123-2.021-3.933-.246-3.036 1.774z"/><path d="m405.148 316.314a33.7 33.7 0 0 0 -.539 5.357c-.006 1.8 2.855 2.294 3.223.436a33.634 33.634 0 0 0 .561-5.354c.058-1.821-2.931-2.3-3.245-.439z"/><path d="m432.93 337.752c-.37 2.216-2.34 7.569.81 8.363 3.441.181 2.021-5.676 2.643-7.895.238-1.978-3-2.368-3.453-.468z"/><path d="m440.236 342.207c-.791 1.289-1.928 3.339-.2 4.371 1.8 1.036 2.948-1.007 3.515-2.431a1.923 1.923 0 0 0 -3.319-1.94z"/></g><path d="m437.84 210.44c14.881-15.74 4.006-40.091-17.2-45.58 11.441 12.348 10.818 31.28.637 44.087a3.949 3.949 0 0 0 1.392 3.536c8.633 7.086 11.522 29.395-4.682 32.821a2.987 2.987 0 0 1 -3.512-3.584 25.3 25.3 0 0 0 -.39-12.082 1.956 1.956 0 0 0 -3.727-.109c-3.436 9.465-9.949 15.793-20.02 18.49a1.955 1.955 0 0 0 -.3 3.662 22.349 22.349 0 0 0 6.579 1.931 2.977 2.977 0 0 1 1.028 5.6c-8.12 4.222-21.691 5.943-31.692-3.62-5.7-5.448-12.345-10.443-19.987-12.383-3.363-.854-6.913-.722-10.29-1.52-9.833-2.194-16.607-12.753-14.2-22.6-12.193 15.131-5.907 38.534 14.334 42.968 2.493.5 5.2.695 7.219 2.09a16.97 16.97 0 0 1 3.295 3.647 22.033 22.033 0 0 0 14.623 7.7c5.332.578 10.726-.654 16.1-.52 6.992.175 13.745 2.656 20.74 2.488a26.4 26.4 0 0 0 19.156-8.8c3.414-5.2 7.423-6.961 13.235-8.908 21.355-8.489 26.522-35.347 7.662-49.314z" fill="#4d8489"/><path d="m391.805 367.594c-21.042-22.077-43.258-43.243-67.285-61.011 18.4 65.054-34.18 70.358-73.3 66.084a136.576 136.576 0 0 0 -47.283 2.966c-28.225 6.9-61.455 11.726-81.778-1.911-7.664-6.243-11.452-26.637-19.992-21.661-16.15 9.412-35.831-.812-29.946-25.172-8.485 19.865-11.74 45.833 8.123 71.319l234.771 7.437 92.677-11.17z" fill="#919951"/><path d="m428.522 407.7c-11.59-12.99-24.237-27.007-36.717-40.1 11.744 38.915-195.153 34.907-274.425 26.468-13.034-1.388-26.97-3.433-36.594-12.332-25.88-26.492-2.66-64.9 14.771-89.587q-7.64 7.136-14.977 14.638c-6.438 2.033-16.937 4.664-15.811 13.311-13.359 1.71-23.247 15.354-20.716 28.582a529.026 529.026 0 0 0 -40.341 59.853z" fill="#4f424c"/></svg>