<svg id="flat" height="512" viewBox="0 0 500 500" width="512" xmlns="http://www.w3.org/2000/svg"><path d="m247.111 78.282c31.924-2.031 60.953 16.515 84.642 38.011 28.447 25.814 43.6 82.494 43.6 82.494-4.682 19.623 6.691 35.248 39.983 45.412 61.522 39.906 64.1 121.77 78.021 186.939h-58.923s-50.474-2.942-64.2-75.368-123.123-277.488-123.123-277.488z" fill="#b6c3dd"/><path d="m370.232 355.77c13.728 72.427 64.2 75.368 64.2 75.368h58.919c-8.542-42.113-13.159-86.021-29.4-126.025-1.637 26.542-17.752 68.184-64.723 39.4-10.906-6.9-19.174-17.175-27.232-27.257-5.21-6.518-10.532-13.245-12.974-21.224-6.972-25.568 13.235-64.217 47.19-57.037-18.115-10.411-24.185-17.9-30.876-40.211-46.18-.495-78.871-25.436-83.469-72.281l-12.084 2.411q-1.738 3.016-3.346 6.121c33.446 66.199 84.685 172.672 93.795 220.735z" fill="#7b8aa5"/><path d="m484.179 381.556c-3.052-15.917-8.713-61.14-25.051-88.545-1.042-1.749-4.194-.554-3.384 1.427 17.557 42.906 11.982 72.547 11.249 83.687-.65 9.87-5.095 19.822-16.453 16-55.24-18.588-14.04-54.565-66.94-128.884-10.462-14.7 2.3-28.914 22.838-22.288 9.639 3.11 16.711 11.063 24.732 17.168 1.8 1.373 3.635-1.458 2.3-2.982-8.87-10.139-32.477-25.289-60.552-25.809-71.863-10.19-32.151-168-125.807-153.048 0 0 109.393 205.062 123.121 277.488s64.2 75.368 64.2 75.368h58.919c-3.051-15.948-6.114-33.638-9.172-49.582z" fill="#4f424c"/><path d="m404.087 363.74c-13.061-146.564-71.6-100.165-87.749-185.492l-30.475-32.848s-38.249 24.32-20.036 65.083 62.389 97.393 62.389 97.393l22.1 98.795c30.671 3.282 52.723 8.497 53.771-42.931z" fill="#7aaef7"/><path d="m355.789 256.835a98.22 98.22 0 0 1 9.662 19.024c2.045 5.388 3.883 11.311 2.185 16.819-2.18 7.071-11.337 11.4-17.731 7.674-6.031-3.511-7.334-11.444-10.446-17.69-4.478-8.96-14.215-16.236-14.036-26.995.141-5.154 3.691-10.5 8.807-11.138 0 0 11.97-2.322 21.559 12.306z" fill="#c5e1ff"/><path d="m239.318 72.462a136.474 136.474 0 0 0 -58.765 6.33q-1.512 2.62-2.919 5.29l106.591 347.056h150.209c-18.256-17.264-28.225-42.615-30.347-67.4-4.72 9.739-10.974 23.775-22.9 24-11.377-.04-17.1-14.01-17.294-25.386s1.659-24.171-5.671-32.873c-8.906-10.176-18.981-9.512-25.566-26.969-9.61-30.3-39.585-66.189-54.933-84.587-10.416-12.485-3.969-38.884-3.969-38.884.89-4.953 1.217-10.888 4.745-14.722 3.326-2.748 8.516-.267 11.1 3.187s4 7.834 7.28 10.63c5.248 4.457 13.471 3.3 19.466.108-8.153-36.528-19.538-98.258-77.027-105.78z" fill="#6089d0"/><path d="m284.225 431.138h64.464c-20.787-12.411-21.912-33.786-20.981-55.879.376-25.355-1.742-51.508-13.1-74.183-15.048-30.055-45.122-51.637-55.5-83.605-10.153-31.262-4.589-68.025-15.409-99.063-18.752-53.792-70.982-48.615-70.982-48.615z" fill="#4f424c"/><path d="m279.64 277.2q-15.117-19.665-30.235-39.328c-2.857-3.715-5.757-7.508-7.352-11.916-1.638-4.529-1.8-9.437-1.983-14.249-.742-18.924-1.9-37.828-3.81-56.674 0 0-8.465-52.8-36.867-55.01s-78.071 23.021-81.275 97.925c0 0-102.542 96.664-53.274 188.526h228.222c-.712-40.964.234-83.924-13.426-109.274z" fill="#b6c3dd"/><path d="m279.64 277.2c12 56.62-40.771 57.075-52.187 51.932-6.108-2.751-11.095-7.454-15.823-12.2-19.93-20.007-19.322-49.707-60.06-59.618 11.427 18.924 31.362 65.54 9.006 81.923-9.314 6.474-21.934 3.721-33.123 5.579-12.377 2.055-24.348 10.016-36.523 6.988-18.263-4.919-22.48-27.273-18.359-43.573 4.564-20.116 17.5-47.83 34.172-60.4 8.225-5.837 31.2-1.61 40.478 2.35 0 0-30.56-115.226 27.033-136.1 46.557-16.873 57.483 31.12 62 40.947-2-18.772-5.6-37.689-15.3-54.08-37.904-51.158-135.682-21.855-136.168 101.823 0 0-68.98 47.728-60.42 139.366s56.392 83.077 56.392 83.077l212.308-10.714c11.758-58.237 18.088-102.011-13.426-137.3z" fill="#7b8aa5"/><path d="m183 311.368c.037.077.072.155.1.233v-2.601a3.031 3.031 0 0 0 -.264 2.228l.28-2.141a3.33 3.33 0 0 0 -.263 2.633v-1.662c-1.1 2.868 2.41 5.776 5.028 4.158 3.125-1.734 1.464-6.694-2.012-6.454l1.578.427a3.173 3.173 0 0 0 -2.67-.379h1.477a2.958 2.958 0 0 0 -2.229.265l1.987-.26a2.5 2.5 0 0 0 -3.012 3.553z" fill="#4f424c"/><path d="m306.386 353.848c-1.324-17.471-.938-37.79-15.139-60.373 28.341 77.214-51.264 98.3-63.425 88.3-10.675-8.779-20.379-35.39-27.826-40.553-1.447-1-3.061.4-3.192 1.832-.431 4.743 2.938 10.062 4.208 14.586 17 60.549-56.059 68.581-58.952 12.085-.279-5.443-8.032-6.582-10.484-1.715-5.675 11.263-11.907 22.108-20.771 30.986-15.531 15.556-43.28 22.287-58.986 6.907-10.994-10.767-12.086-27.842-12.1-43.231-.02-21.937.81-44.236 7.691-65.066s20.3-52.556 41.849-56.639c36.694-6.951 66.273 27.619 81.872 51.346a3.605 3.605 0 0 0 6.434-3.108c-7.672-24.145-22.192-48.51-48.272-61.805-11.373-5.8-15.87-21.941-15.471-34.7.6-19.216 3.212-49.461 8.9-65.087 17.964-49.317 85.14-46.355 98.231-26.657-13.481-28.656-41.587-33.296-73.088-31.366-45.915.729-56.251 31.211-59.132 40.447l-25.014 80.184c-3.707 11.885-7.617 24.14-15.775 33.544-6.756 7.788-16.108 13.212-21.881 21.753-5.648 8.353-7.23 18.72-8.56 28.715q-7.657 57.553-10.479 115.613a181.325 181.325 0 0 0 -.162 19.974 21.865 21.865 0 0 0 21.716 20.58l255.647.738a23.278 23.278 0 0 0 23.271-21.1c1.704-18.568.304-37.517-1.11-56.19z" fill="#4f424c"/><g fill="#7b8aa5"><path d="m190.31 149.422a3.549 3.549 0 0 0 4.532-2.916 1.766 1.766 0 0 0 0-.935 3.425 3.425 0 0 0 -2.588-2.944l.843.356c-4.655-2.556-7.849 4.821-2.787 6.439z"/><path d="m212.143 156.53c4.671-.016 4.66-7.119 0-7.148-4.67.018-4.659 7.118 0 7.148z"/><path d="m198.693 170.133c4.87-.018 4.859-7.423 0-7.454-4.869.021-4.858 7.421 0 7.454z"/><path d="m407.041 269.028c-.047 4.16 6.214 4.661 6.74.551a1.669 1.669 0 0 0 0-.876 3.171 3.171 0 0 0 -1.648-2.459l.675.521a2.676 2.676 0 0 0 -1.122-.726 3.159 3.159 0 0 0 -2.244-.15l.869-.117a3.291 3.291 0 0 0 -3.27 3.256z"/><path d="m415.489 279.513a3.409 3.409 0 0 0 -3.337.834l-.509.658a3.051 3.051 0 0 0 -.386 2.075 3.224 3.224 0 0 0 1.224 2.122 3.28 3.28 0 0 0 3.78.215l.653-.5.5-.654a3.025 3.025 0 0 0 .384-2.06 3.185 3.185 0 0 0 -1.216-2.107 2.428 2.428 0 0 0 -1.1-.578z"/><path d="m335.366 154.343c4.222 0 4.229-6.563 0-6.563s-4.23 6.563 0 6.563z"/><path d="m346.645 155.178-.1.185 1.7-1.3c-3.3.774-2.625 5.939.755 5.856 3.413.037 4.061-5.022.754-5.856l1.7 1.3a2.745 2.745 0 0 0 -4.8-.185z"/><path d="m422.026 274.325c-.079 4.584 6.855 4.746 6.911.148.016-4.4-6.857-4.633-6.911-.148z"/></g><path d="m226.462 84.041c36.393 22.009 37.075 70.251 42.646 107.94.858 6.76 1.657 13.752 3.909 20.221 9.975 25.826 32.778 43.9 46.858 67.274 29.015 42.109 2.094 105.739 39 140.365a2.452 2.452 0 0 0 3.465-3.465c-31.4-37.511-9.887-91.914-33.552-133.034-6.868-13.03-16.368-24.44-25.61-35.821-13.957-16.773-26.815-32.721-28.471-55.4-7.067-38.6-6.807-90.657-46.346-111.319-2.155-.961-4.056 2.053-1.894 3.239z" fill="#4f424c"/><path d="m392.84 427.56c-50.952-59.745.1-124.9-77.56-193.852-1.722-1.506-4.166.868-2.534 2.535 73.737 72.622 22.954 132.1 74.535 194.9h9.14c-1.227-1.155-2.421-2.343-3.581-3.583z" fill="#4f424c"/><path d="m197.347 76.732c75.9-16.975 78.279 53.22 88.081 107.794 2.271 11.357 4.985 23.575 12.474 32.749 1.492 1.826 4.518-.546 3.258-2.514-5.918-9.246-8.315-20.679-10.386-31.3-9.508-57.553-15.14-131.651-94.631-111.09-2.843.829-1.619 4.84 1.204 4.361z" fill="#4f424c"/><path d="m358.452 263.357c19.873 29.859 21.8 66.3 26.195 100.837 2.889 30.973 18.921 59.334 51.819 64.671 3.477.515 5.094-4.481 1.5-5.424-73.312-18.466-30.633-108.065-76.767-162.2-1.279-1.517-3.8.455-2.742 2.116z" fill="#4f424c"/><path d="m284.3 92.223c27.723 48.374.848 98.152 48.039 144.407a2.028 2.028 0 0 0 2.866-2.867c-45.966-44.647-16.512-99.486-48.235-143.6-1.218-1.541-3.609.432-2.67 2.06z" fill="#4f424c"/></svg>