<svg id="flat" height="512" viewBox="0 0 500 500" width="512" xmlns="http://www.w3.org/2000/svg"><path d="m237.985 324.489c7.144-22.709 24.16-35.7 38.234-54.9 13.235-18.058 19.28-33.3 19.28-33.3s14.117-6.456 21.387-8.624c-6.387 6.878-9.257 16.19-13.111 24.748-18.622 38.751-56.375 67.569-59.775 113.276z" fill="#4f424c"/><path d="m244.14 270.167c4.485 61.127-1.091 145.823-12.027 186.485l-13.846-9.226c-1.477-7.28 15.977-101.753 5.4-144.526-1.9-17.122-1.788-30.411 1.531-37.587 6.26-2.059 13.747-.064 18.942 4.854z" fill="#fc9d9a"/><path d="m243.152 432.259c.97-10.688 1.746-20.489 2.353-29.62-1.419-4.945-.849-10.656.969-16.849.65-13.566.9-25.735.859-37.436a120.283 120.283 0 0 1 -.611-27.971c-.137-3.6-.294-7.24-.467-10.929-8.641 11.38-8.979 26.028-8.947 39.891q-.284 34.888-3.755 69.652c-.794 10.919-3.674 24.54-15.284 28.429-1.514 50 26.682 50.692 31.1 26a89.006 89.006 0 0 1 -6.217-41.167z" fill="#ce7378"/><path d="m215.052 237.709 3 32.656c5.941-1.364 14.651-2.168 26.09-.2-.921-9.475 2.441-31.035 2.476-31.11-19.904-3.771-31.566-1.346-31.566-1.346z" fill="#4f424c"/><path d="m328.77 20.827c-9.619-3.374-19.855-4.646-30.1-4.872a59.587 59.587 0 0 1 -18.137-3.313c-22.879-11.63-115.309-17.79-167.126 41.337l-9.98 16.972s-18.67 77.411 34.607 103.821 124.728 37.578 157.554 24 97.447-78.642 97.447-78.642l-27.777-47.358s6.257-36.952-36.488-51.945z" fill="#ff8990"/><path d="m222.538 362.982c14.524-30.341 14.03-64.316 14.073-97.253a19.9 19.9 0 0 0 -4.5-1.22c.3 27.018 1.188 54.79-8.734 80.391-.077 6.036-.386 12.062-.839 18.082z" fill="#4f424c"/><path d="m247.341 348.354c-.091-7.163-.348-20.812-.62-27.971-4.921 30.968-15.421 61.117-28.721 89.559-.405 5-.715 9.993-.891 15 12.328-27.2 23.48-47.709 30.232-76.588z" fill="#4f424c"/><path d="m242.874 489.591c-19.1-24.063-6.26-60.889 2.63-86.952.384-5.785.7-11.3.957-16.605-13.464 31.528-32.226 78.957-7.143 108.608l8.482.119a54.793 54.793 0 0 1 -4.926-5.17z" fill="#4f424c"/><path d="m264.878 495c-4.67-2.258-10.863-10.228-15.5-21.572-7.224 14.892-24.877 12.335-26.132-.032 0 0-3.542-54.707 3.192-91.287 5.9-32.07.356-101.345-1.23-116.784a14.9 14.9 0 0 0 -7.157 5.039c1.993 24.819 5.477 49.608 5.347 74.535 1.251 5.069.837 11.178-.849 18.083-1.18 15.667-3.287 31.3-4.555 46.958a33.892 33.892 0 0 1 -.9 15c-1.124 23.17 4.306 49.4-8.583 69.271z" fill="#4f424c"/><path d="m407.4 95.4c-9.225-10.092-20.316-18.673-31.219-27.045 5.651-.045 9.213-6.968 7.88-12.46-4.614-15.685-40.1-31.045-55.291-35.062 9.262 4.491 33.226 23.23 29.82 34.7-3.4 11.806-22.238 6.624-30.2 4.518-13.094-3.461-25.921-2.638-37.747 4.392-3.158 1.877-1.928 7.217 1.919 7.087a47.2 47.2 0 0 1 23.22 4.887c6.107 3.115 11.1 8.367 17.8 10.268 7.544 2.141 15.472-.44 23.007 1.643 13.408 3.452 22 18.138 13.795 30.58-9.948 13.982-28.244 3.789-42.135 5.44-27.476 2.238-33.18 27.289-60.6 29.242a2.349 2.349 0 0 0 -1.229 4.3 43.947 43.947 0 0 0 9.035 4.489 4.191 4.191 0 0 1 1 7.38c-10.839 7.518-34.137 18.565-64.027 3.368a4.213 4.213 0 0 1 .344-7.669c2.455-.992 4.743-2.033 6.75-3.008a2.354 2.354 0 0 0 -.761-4.453 62.066 62.066 0 0 1 -13.415-2.973c-34.042-13.48-27.117-5.888-57.579.639-15.5 1.947-29.421-11.645-32.28-26.194-1.26-7.57 2.34-13.254 8.026-17.954 24.623-17.624 49.623 1.511 76.229-37.165 1.965-2.946-1.8-6.06-4.59-4.59-8.873 4.675-28.843 14.579-42.554 5.307-6.16-4.166-.74-11.656-7.243-11.272-6.418.379-41.411 18.822-31.938-9.81-4.345 4.925-8.458 10.092-12.619 15.146-3.256 3.953-6.349 10.322-2.34 13.508-5.818 3.851-30.83 32.7-9.861 56.536-24.711 74.017 131.57 103.32 157.666 94.6 0 0 71.852 4.644 115.292-22.65 86.431-54.313 45.845-115.725 45.845-115.725z" fill="#ce525c"/><path d="m294.349 169.6a6.28 6.28 0 0 0 .884.65 2.931 2.931 0 0 0 1.823.749c5.073.744 6.126-7.06 1.041-7.688a2.82 2.82 0 0 0 -1.765.156 3.606 3.606 0 0 0 -1.983 6.133z" fill="#4f424c"/><path d="m419.77 169.56c18.787-25.7 8.337-55.1-12.373-74.16 8.483 27.29 8.449 51.557-24.186 68.049-10.556 5.335-16.981 4.45-27.637-.6a3.439 3.439 0 0 0 -4.69 1.23c-8.105 15.614-21.462 5.831-34.445 4.919-4.211-.3-4.068 4.783-.945 6.979 14.8 10.411 23.83 15.616 38.887 10.935 20.412-6.345 19.061 16.572-4.8 19.107-19.5 2.072-35.258-3.509-45.761 4.264-19.41 14.365-38.2 17.341-54.545 8.727-28.023-15.148-44.423 9.229-72.371-12.86a83.342 83.342 0 0 0 -10.764-6.393c5.845-7.013 11.4-9.351 25.045-11.228 3.212-.442 1.6-5.221-.809-6.19-22.99-9.439-34.014 9.485-59.2 5.831s-39.1-4.917-34.162-44.06c1.638-17.187-24.864-5.861-5.911-54.291-8.416 9.666-20.093 25.937-18.535 39.24.9 5.445 5.3 10.645 10.822 10.74-8.82 11.345-14.8 25.815-12.452 39.992s14.935 27.07 29.285 26.323c2.208 17.34 16.865 32.333 34.15 34.934 4.156.625 8.424.607 12.472 1.737 6.59 1.839 11.963 6.518 18.055 9.633 10.184 5.207 15.972 6.6 27.335 4.461a87.832 87.832 0 0 0 27.405-7.944c7.289-4 12.023-3.38 19.159.449 21.038 9.46 45.943 3.695 66.629-6.514 7.631-3.766 15.159-8.173 23.553-9.573 8.311-1.385 16.839.294 25.236-.4a45.319 45.319 0 0 0 29.37-14.379c1.98-2.159 3.785-4.546 6.225-6.167a28.278 28.278 0 0 1 7.186-2.98c8.915-2.847 18.006-6.829 23.6-14.328s6.255-19.367-.828-25.483z" fill="#4f424c"/><g fill="#ce525c"><path d="m297.192 87.578c3.588 2.131 7.694 2.817 11.174 5.373 3.553 2.611 5.419 6.594 8.707 9.339 1.521 1.27 4.928.791 4.654-1.8-.961-9.079-14.827-19.097-23.827-17.49-2.172.388-2.5 3.513-.709 4.579z"/><path d="m300.5 98.127c-.762-1.686-2.941-2.56-4.459-3.483a18.361 18.361 0 0 0 -4.9-2.428c-3-.988-5.315 2.976-3.151 5.183 1.943 1.911 4.6 2.921 6.946 4.238a5.562 5.562 0 0 0 3.678.8c2.076-.237 2.579-2.779 1.886-4.31z"/><path d="m200.53 95.024c6.845-4.551 15-14.258 15.6-22.77.113-1.612-2.282-2.694-3.341-1.384-2.521 3.12-3.956 7-6.117 10.377-2.489 3.892-5.6 7.143-8.545 10.667-1.343 1.606.392 4.445 2.4 3.11z"/><path d="m222.457 89.791c5.01-3.531 8.29-11.818 7.915-17.836a2.014 2.014 0 0 0 -3.936-.532c-1.067 2.833-1.772 5.774-2.972 8.574-1.125 2.623-2.856 4.946-3.847 7.611a1.951 1.951 0 0 0 2.84 2.183z"/><path d="m240.85 75.452c3.767-.013 3.758-5.742 0-5.765-3.767.013-3.759 5.741 0 5.765z"/></g></svg>