<svg id="flat" height="512" viewBox="0 0 500 500" width="512" xmlns="http://www.w3.org/2000/svg"><path d="m212.868 409.026a174.178 174.178 0 0 0 40.224 43.112l-4.928 32.067c-7.216-31.232-33.37-52.869-57.5-71.861z" fill="#4f424c"/><path d="m266.859 435.06a302.075 302.075 0 0 0 1.8 44.935s-20.828 26.818-21.335-15.331c-.108-8.921-.035-26.66-.125-35.582 6.575-3.302 14.046-1.452 19.66 5.978z" fill="#e57e80"/><path d="m268.657 480c-.731-6.923-1.483-15.1-1.781-21.772-4.551 6.247-11.565 10.785-19.4 11.032 1.942 35.499 21.181 10.74 21.181 10.74z" fill="#bc5b65"/><path d="m237.858 401.053c9.381 6.8 7.154 17.417 7.555 27.856 6.971 3 13.864 5.805 21.464 6.152.152-6.554.43-7.627.868-14.168.5-7.4 1.406-15.35 6.354-20.874z" fill="#4f424c"/><path d="m393.612 66.932c-6.424-7.542-12.8-15.95-22.014-20.05-6.7-2.967-15.07-3.1-20.9 1.341-6.53-10.742-20.311-25.725-33.618-26.135-4.643.173-9.438 3.414-9.947 8.032-3.952-4.613-8.256-9.376-14.041-11.23s-13.374.525-15.019 6.373c-5.139-6.466-10.406-13.05-17.341-17.535-9.049-5.87-20.267.554-29.465 4.023-2.279.47-4.631.033-6.943-.227-14.666-1.65-29.595-.833-41.489 7.9s-21.318 20.363-30.278 32.09c-5.547-4.4-13.672-4.354-20.151-1.5-43.475 24.286-48.693 112.397-58.106 194.629 0 0-14.5 125.009 108.5 157.907l140.722-1.65s67.57-12.358 84.019-106.177c0 0 37.978-44.062 10.764-110.368-1.412-49.436-9.115-89.372-24.693-117.423z" fill="#7bb7b7"/><path d="m418.305 184.351s19.652-65.63-24.695-117.417c22.912 70.543-9.9 88.041-16.787 91.472s-14.586 4.867-21.7 7.791a56.275 56.275 0 0 0 -25.214 20.843 11.231 11.231 0 0 0 6.047 16.983c42.281 16.839 21.6 70.4-32.441 55.224-3.147-.883-3.673-7.1-1.207-9.248a39.25 39.25 0 0 0 13.249-24.2c-3.6-17.626-22.079 30.839-68.8 1.269-3.212-1.894-6.044 2.1-5.208 5.733 2.88 12.523 10.406 16.877 17.905 20.806 2.463 1.29 1.656 5.1-.679 6.608-53.074 34.328-107.074-22.338-53.5-82.36 4.778-5.352 10.906-8.475 15.019-14.192 1.441-2-.462-5.466-2.97-5.175-27.348 2.834-40.866.36-63.546-16.053a4.4 4.4 0 0 0 -6.892 3.778 100.951 100.951 0 0 0 2.616 19.6 9.122 9.122 0 0 1 -7.676 11.344c-34.287 4.439-54.209-49.01-29.714-108.536a153.479 153.479 0 0 0 -27.26 55.909c-7.349-6.192-18.367.095-22.061 7.87 0 0-25.66 57.3 11.5 112.245 0 0-14.5 125.008 108.5 157.906l140.731-1.651s67.57-12.358 84.019-106.177c0-.004 37.978-44.066 10.764-110.372z" fill="#4d8489"/><path d="m269.967 491.5c-.324-2.662-.812-6.793-1.309-11.508-14.377 10.25-19.072 1.827-17.094-12.926.609-12.24.61-27.135.232-39.421a14.63 14.63 0 0 0 -6.383 1.261c.091 8.922.182 23.321.272 32.242.275 10.961-.277 24.021-9.745 31.181a1.284 1.284 0 0 0 .764 2.317h30.478a2.8 2.8 0 0 0 2.785-3.146z" fill="#4f424c"/><path d="m445.255 211.37c3.787-5.94 7.716-12.372 7.447-19.411s-7.013-13.674-13.774-11.7c1.343-5.12 2.685-10.555 1.167-15.626s-7.074-9.323-12.024-7.448a167.365 167.365 0 0 0 -18.96-65.893c8.169 38.7 7.716 87.483-33.47 83.664-6.784-.629-23.265 5.257-27.82 16.785-1.2 3.028 1.9 5.971 4.506 4.142 5.616-4.35 14.053-5.12 19.489-.093a10.594 10.594 0 0 0 12.273 1.513c6.743-3.735 15.95-6.925 22.049-1.351 6.308 5.766 7.738 15.358 5.487 24a11.568 11.568 0 0 0 4.038 11.9 10.485 10.485 0 0 1 3.119 3.823c4.259 8.7-3.643 31.352-9.91 38.155-5.067 5.8-20.968 10.991-27.851 7.844-14.546-6.652-27.437-11.408-42.609-.152-4.378 3.248-1.543 10.488 3.762 9.642 15.158-2.42 26.41 3.255 31.768 8.938a6.806 6.806 0 0 0 8 1.369c5.692-2.561 11.052 2.8 10.291 9.222-3.959 33.44-16 78.018-171.237 77.538-18.833-.058-40.417 2.756-53.21-11.695a12.962 12.962 0 0 1 -3.176-5.494c-.762-3.278 1.655-9.737 7.928-12.3a6.609 6.609 0 0 0 -.48-12.358c-7.533-2.582-16.389-3.161-24.322-3.34-13.065-.3-26.752-1.282-37.863-8.481-12.662-8.2-19.925-24.466-18.392-39.888a14.042 14.042 0 0 0 -2.385-9.435c-9.667-13.653-1.983-33.487 14.991-35.364a15.073 15.073 0 0 0 8.792-4.22c2.763-2.658 6.423-5.25 8.947-3.517 9.86 6.767 13.128 3.136 17.2.705 3.585-2.141 2.185-7.9-1.943-7.889-3.2.006-5.677 1.048-7.847-.163-2.618-1.462-9.245-6.537-12.016-7.65-3.714-1.493-7.543-.166-11.052 2.1-2.929 1.888-7.33 2.135-9.38-.683-6.406-8.805-13.371-8.455-18.243-10.412-27.124-10.893-22.187-58.125-15.732-85.74-11.053 13.651-32.533 85.074-.831 119-6.939.364-11.9 7.6-12.254 14.537s2.651 13.557 5.594 19.851c-12.276 2.933-12.092 17.824-7.306 27.228a64.467 64.467 0 0 0 39.834 35.147c-2.231-.663-4.476 1.611-4.641 3.932.732 9.57 16.71 21.489 25.187 24.865-6.275-.945-13.719 1.862-9.382 8.626 23.749 39.4 107.97 36.356 148.821 33.135l52.715-3.419c25.179-.929 50.39-5.294 72.433-18.074 24.072-13 45.739-31.7 58.3-56.009 2.945-5.7 5.414-12.3 3.49-18.421s-10.219-10.276-15.065-6.067c6.477-6.662 13.75-15.821 9.463-25.42 9.257-6.4 22.791-19.333 20.681-31.747-.738-3.385-3.269-6.534-6.667-7.208q3.654-7.434 7.309-14.87c2.37-4.822 4.8-9.916 4.508-15.282s-4.375-10.93-9.747-10.841z" fill="#4f424c"/><path d="m315.366 296.778c4.841-.017 4.83-7.378 0-7.409-4.841.018-4.83 7.379 0 7.409z" fill="#4f424c"/><g fill="#4d8489"><path d="m232.828 178.115c5.4-3.693 11.61-10.543 12.114-17.376a2.514 2.514 0 0 0 -4.252-1.761c-1.961 2.233-3.262 5.066-5 7.489a49.026 49.026 0 0 1 -6.484 6.957c-2.419 2.287.779 6.634 3.619 4.691z"/><path d="m251.522 175.445c3.531-2.557 6.761-8.969 6.52-13.351-.213-1.688-2.565-3.432-3.954-1.637-2.325 3.588-3.792 7.716-6.38 11.174-1.48 2.389 1.448 5.216 3.814 3.814z"/><path d="m270.463 163.368c.832-.594 1.859-1.177 2.053-2.275l-1.245 1.619a2.831 2.831 0 0 0 1.45-2.1 2.628 2.628 0 0 0 -2.818-2.945l1.916.793a3.82 3.82 0 0 0 -5.544.725c-1.62 2.574 1.625 5.853 4.188 4.187z"/><path d="m364.239 68.017a57.7 57.7 0 0 0 4.891 5.291c1.638 1.788 2.982 4.043 4.805 5.624 1.592 1.382 4.593.1 3.812-2.219a23.937 23.937 0 0 0 -11.313-11.552 1.962 1.962 0 0 0 -2.2 2.856z"/><path d="m352.779 71.537a30.769 30.769 0 0 0 2.776 3.349 9.4 9.4 0 0 0 3.465 2.571 1.968 1.968 0 0 0 2.391-2.39c-.213-1.227-1.344-2.52-2.108-3.479-1.475-1.57-3.451-4.9-5.906-3.144a2.374 2.374 0 0 0 -.618 3.093z"/><path d="m341.641 75.135c2.681 0 2.685-4.166 0-4.166s-2.685 4.166 0 4.166z"/><path d="m133.437 146.692c2.888-.93 3.181-3.757 3.759-6.4a34.364 34.364 0 0 0 1.064-9.05c-.117-2.377-3.523-3.658-4.75-1.286a33.491 33.491 0 0 0 -2.829 8.54c-.546 2.528-1.642 5.615.537 7.606a2.3 2.3 0 0 0 2.219.586z"/><path d="m125.267 133.234a51.561 51.561 0 0 0 4.486-12.826 2.28 2.28 0 0 0 -3.415-1.959c-3.995 2.985-6.363 9.3-5.665 14.184.327 2.286 3.557 2.244 4.594.6z"/><path d="m122.009 111.309a2.8 2.8 0 0 0 -4.09 0l-.452.586a2.708 2.708 0 0 0 -.344 1.844 2.862 2.862 0 0 0 1.726 2.261 2.749 2.749 0 0 0 1.883.146l.691-.291.586-.453.452-.585a2.713 2.713 0 0 0 .343-1.844 1.451 1.451 0 0 0 -.2-.73 2.176 2.176 0 0 0 -.6-.931z"/><path d="m225.182 222.96c-2.059 3.745-1.636 10.122 1.273 13.334 1.427 1.576 4.661.416 4.43-1.835-.18-1.76-.875-3.384-1.162-5.136-.283-1.734-.081-3.471-.248-5.2-.2-2.122-3.1-3.328-4.293-1.163z"/><path d="m213.038 220.717c-.609 2.91.047 6.788 2.233 8.95 1.153 1.141 3.705.4 3.5-1.448a67.9 67.9 0 0 1 -1.134-6.88 2.374 2.374 0 0 0 -2.028-2.3 2.325 2.325 0 0 0 -2.567 1.675z"/></g></svg>