<svg id="Flat" height="512" viewBox="0 0 340 340" width="512" xmlns="http://www.w3.org/2000/svg" xmlns:xlink="http://www.w3.org/1999/xlink"><linearGradient id="linear-gradient" gradientUnits="userSpaceOnUse" x1="100.334" x2="103.52" y1="98.037" y2="259.269"><stop offset="0" stop-color="#4b717b"/><stop offset="1" stop-color="#3a586e"/></linearGradient><linearGradient id="linear-gradient-2" gradientUnits="userSpaceOnUse" x1="76.672" x2="71.115" y1="109.968" y2="280.229"><stop offset="0" stop-color="#759aa9"/><stop offset="1" stop-color="#4b717b"/></linearGradient><linearGradient id="linear-gradient-3" x1="72.41" x2="66.852" xlink:href="#linear-gradient-2" y1="109.829" y2="280.09"/><linearGradient id="linear-gradient-4" x1="73.133" x2="76.319" xlink:href="#linear-gradient" y1="98.575" y2="259.806"/><linearGradient id="linear-gradient-5" x1="109.258" x2="103.7" xlink:href="#linear-gradient-2" y1="111.031" y2="281.292"/><linearGradient id="linear-gradient-6" x1="53.16" x2="56.347" xlink:href="#linear-gradient" y1="98.969" y2="260.201"/><linearGradient id="linear-gradient-7" x1="104.452" x2="107.638" xlink:href="#linear-gradient" y1="97.956" y2="259.188"/><linearGradient id="linear-gradient-8" x1="189.126" x2="192.312" xlink:href="#linear-gradient" y1="96.282" y2="257.514"/><linearGradient id="linear-gradient-9" gradientUnits="userSpaceOnUse" x1="77.882" x2="77.101" y1="234.74" y2="285.946"><stop offset="0" stop-color="#edcfc9"/><stop offset="1" stop-color="#eca397"/></linearGradient><linearGradient id="linear-gradient-10" x1="277.017" x2="252.947" xlink:href="#linear-gradient-9" y1="97.864" y2="188.193"/><linearGradient id="linear-gradient-11" gradientUnits="userSpaceOnUse" x1="164.742" x2="165.328" y1="166.617" y2="292.703"><stop offset="0" stop-color="#ede5dc"/><stop offset="1" stop-color="#ddc1ba"/></linearGradient><linearGradient id="linear-gradient-12" x1="167.539" x2="169.563" xlink:href="#linear-gradient-9" y1="151.97" y2="205.385"/><linearGradient id="linear-gradient-13" gradientUnits="userSpaceOnUse" x1="193.319" x2="102.604" y1="55.232" y2="61.139"><stop offset="0" stop-color="#535365"/><stop offset="1" stop-color="#39394c"/></linearGradient><linearGradient id="linear-gradient-14" x1="170.027" x2="170.545" xlink:href="#linear-gradient-9" y1="66.39" y2="146.367"/><linearGradient id="linear-gradient-15" x1="119.607" x2="126.679" xlink:href="#linear-gradient-13" y1="155.146" y2="247.428"/><linearGradient id="linear-gradient-16" x1="201.106" x2="208.177" xlink:href="#linear-gradient-13" y1="148.901" y2="241.183"/><linearGradient id="linear-gradient-17" x1="161.331" x2="107.536" xlink:href="#linear-gradient-13" y1="319.477" y2="314.73"/><linearGradient id="linear-gradient-18" x1="191.809" x2="211.395" xlink:href="#linear-gradient-13" y1="317.988" y2="317.988"/><linearGradient id="linear-gradient-19" gradientUnits="userSpaceOnUse" x1="169.742" x2="198.538" y1="297.099" y2="353.109"><stop offset="0" stop-color="#edb352"/><stop offset=".532" stop-color="#e8913d"/><stop offset="1" stop-color="#e5782e"/></linearGradient><linearGradient id="linear-gradient-20" gradientUnits="userSpaceOnUse" x1="56.181" x2="118.801" y1="297.619" y2="297.619"><stop offset="0" stop-color="#c6766c"/><stop offset="1" stop-color="#8b4636"/></linearGradient><linearGradient id="linear-gradient-21" x1="186.326" x2="270.908" xlink:href="#linear-gradient-20" y1="75.729" y2="75.729"/><linearGradient id="linear-gradient-22" x1="52.436" x2="46.882" xlink:href="#linear-gradient-2" y1="109.153" y2="279.334"/><path d="m77.62 142.167-1.328 131.116 46.889 44.705 5.557-174.445z" fill="url(#linear-gradient)"/><path d="m63.594 149.657s-.283 38.235-2.549 61.661h24.355s1.955-23.624.182-45.867z" fill="url(#linear-gradient-2)"/><path d="m87.491 201.362h-22.891a13.664 13.664 0 0 0 -13.664 13.088c-.56 13.405-.307 34.051 5.245 46.919h25.257z" fill="url(#linear-gradient-3)"/><path d="m85.616 165.448a126.37 126.37 0 0 0 -3.045-20.437l-18.977 4.234s-.052 7-.289 16.844z" fill="url(#linear-gradient-4)"/><path d="m51.857 92.591s7.633-4.335 18.836-1.219a87.989 87.989 0 0 0 9.98 2.258 778.727 778.727 0 0 0 78.827 8.236c15.012.7 2.622 55.279 2.622 55.279l-12.83.935-26.111-.33s-8.476-2.035-18.651-3.42a95.134 95.134 0 0 0 -29.449.658 60.665 60.665 0 0 1 -19.625.55z" fill="url(#linear-gradient-5)"/><path d="m68.735 123.2c.994 17.383-4.951 31.86-13.279 32.336-5.212.3-10.122-4.959-13.31-13.2l-3.189-13.18q-.254-2.075-.379-4.235c-.994-17.383 4.951-31.86 13.279-32.336s15.884 13.235 16.878 30.615z" fill="url(#linear-gradient-6)"/><path d="m89.153 97.136c4.545 11.337 10.824 31.719 8.268 53.219a7.941 7.941 0 0 0 6.825 8.816l5.884.789a7.947 7.947 0 0 0 8.849-6.321c2.25-11.207 4.49-33.87-6.731-57.143a9.817 9.817 0 0 0 -7.3-5.422l-9.7-1.541a5.6 5.6 0 0 0 -6.095 7.603z" fill="url(#linear-gradient-7)"/><path d="m203.632 101.624a357.517 357.517 0 0 1 -39.179.449c3.261 8.807 9.958 33.791-.96 54.972l50.175-3.657c10.615-34.428-10.036-51.764-10.036-51.764z" fill="url(#linear-gradient-8)"/><path d="m105.105 243.862-38.415 39.938-14.219-17.226a10.208 10.208 0 0 1 -.108-12.863l19.773-24.786z" fill="url(#linear-gradient-9)"/><path d="m105.105 243.862-18.923-32.544-14.046 17.607 24.348 23.898z" fill="#d57370"/><path d="m244.162 142.167 9.326-1.329a346.46 346.46 0 0 0 -16.781-39.214l22.57-18.724s27.294 32.058 42.253 70.486l-54.063 32.394z" fill="url(#linear-gradient-10)"/><path d="m259.277 82.9-22.57 18.722c.917 1.794 1.807 3.589 2.667 5.371l34.94-3.961c-8.461-12.4-15.037-20.132-15.037-20.132z" fill="#d57370"/><path d="m154.833 152.287-35.49 6.125-43.051 48.466 28.813 36.984 13.695-11.262v73.375h87.632a18.565 18.565 0 0 0 6.665-5.435 12.264 12.264 0 0 0 .992-12.818l-1.448-2.893a21.973 21.973 0 0 1 -2.325-9.837v-65.192l43.171-19.7-9.326-47.925-63.717 9.076z" fill="url(#linear-gradient-11)"/><path d="m149.292 136.021v22.059s2.027 8.688 14.884 15.985l5.926 31.292 5.828-26.774a12.807 12.807 0 0 1 4.944-7.72c.1-.07.193-.14.287-.21a12.74 12.74 0 0 0 2.788-17.637z" fill="url(#linear-gradient-12)"/><path d="m149.292 116.441v19.58a63.662 63.662 0 0 0 34.331 16.516c-2.213-3.362-4.03-9.584-1.724-20.867z" fill="#d57370"/><path d="m206.433 61.509s16.669-2.15 17.139-26.829l-11.51 1.409s8.938-10.837 2.938-26.089c0 0-7.437 10.4-24.285 14.7a47.96 47.96 0 0 1 -16.7 1.079 65.929 65.929 0 0 0 -24.107 1.921c-18.392 5.239-30.643 23.05-27.779 41.958 1.28 8.45 5.607 17.578 16.177 25.153l15.5 6.812z" fill="url(#linear-gradient-13)"/><path d="m206.433 61.509-2.258 42.909a54.893 54.893 0 0 1 -3.166 16 41.885 41.885 0 0 1 -3.829 7.937 14.269 14.269 0 0 1 -14.563 6.325 84.727 84.727 0 0 1 -29.128-10.761 8.783 8.783 0 0 1 -4.2-7.475v-5.2s-11.737 1.853-14.517-9.884a24.108 24.108 0 0 1 -.885-9.432c.911-9.289 13.8-11.071 17.013-2.307a20.831 20.831 0 0 1 .86 3.091 14.949 14.949 0 0 0 2.059-1.384 19.067 19.067 0 0 0 7.207-15.058v-2.554a13.7 13.7 0 0 1 14.356-13.686z" fill="url(#linear-gradient-14)"/><path d="m116.875 155.326a7.246 7.246 0 0 0 -4.47 7.144c.728 13.414 2.564 52.075.94 74.616 0 0-.53 9.852 5.456 12.25 0 0 20.936-16.238 13.614-91.249a5.182 5.182 0 0 0 -5-4.692 26.408 26.408 0 0 0 -10.54 1.931z" fill="url(#linear-gradient-15)"/><path d="m182.71 150.921s26.841 41.256 27.607 89.751c0 0 11.585-5.2 13.9-21.4a38.384 38.384 0 0 0 .09-9.417c-1.145-10.981-6.151-44.361-25.7-62.277a8.131 8.131 0 0 0 -6.224-2.125 12.74 12.74 0 0 0 -9.673 5.468z" fill="url(#linear-gradient-16)"/><path d="m118.801 305.975h51.301v24.025h-51.301z" fill="url(#linear-gradient-17)"/><path d="m211.4 315.267v5.441c0 5.132-3.557 9.292-7.946 9.292h-11.64v-24.025h11.64c4.384 0 7.946 4.161 7.946 9.292z" fill="url(#linear-gradient-18)"/><path d="m167.809 305.975h25.345v24.025h-25.345z" fill="url(#linear-gradient-19)"/><path d="m84.541 265.239-28.36 27.655 38.124 20.689v3.792a12.625 12.625 0 0 0 12.625 12.625h11.87v-15.134a29.392 29.392 0 0 0 -5.287-16.81c-6.413-9.199-17.762-24.212-28.972-32.817z" fill="url(#linear-gradient-20)"/><circle cx="175.496" cy="92.49" fill="#d57370" r="3.813"/><circle cx="191.102" cy="92.49" fill="#d57370" r="3.813"/><circle cx="151.021" cy="184.89" fill="#bca39c" r="3.813"/><circle cx="153.854" cy="198.449" fill="#bca39c" r="3.813"/><path d="m186.609 60.565s-1.451 18.625 18.651 23.243l1.173-22.3-19.824-.944z" fill="#d57370"/><path d="m236.707 101.624a293.313 293.313 0 0 0 -21.044-24.663 19.679 19.679 0 0 0 -14.02-5.869h-2.059a13.257 13.257 0 0 1 -13.258-13.257 8 8 0 0 1 8-8h26.174a47.484 47.484 0 0 1 19.088 3.939c8.811 3.869 21.307 10.994 31.323 23.11z" fill="url(#linear-gradient-21)"/><path d="m60.39 131.641s5.387-20.376-5.283-25.65c-6.048-2.989-8.692 1.992-9.842 6.533a18.987 18.987 0 0 0 .857 12.217c.1.235.215.469.331.7.418.829 1.469.436 1.451-.539a35.418 35.418 0 0 1 .536-7.271c.766-3.823 4.8-4.834 6.79-1.752a4.99 4.99 0 0 1 .6 1.282 20.453 20.453 0 0 1 .834 6.445 38.647 38.647 0 0 1 -1.129 8.558c-1.485 5.673-7.489 7.112-10.667 2.611a21.505 21.505 0 0 1 -2.8-5.615 66.964 66.964 0 0 0 2.554 13.18 14.026 14.026 0 0 0 2.372 1.4c8.906 4.101 13.396-12.099 13.396-12.099z" fill="url(#linear-gradient-22)"/></svg>