<svg id="icons" height="512" viewBox="0 0 340 340" width="512" xmlns="http://www.w3.org/2000/svg"><path d="m16.431 211.357s-7.949-41.745 22.226-88.257a38.609 38.609 0 0 1 8.648-9.46s29.321-13.147 48.295 5.26l31.155 31.439c12.14 11.973 32.5 17.236 48.432 11.151l18.694-7.753c14.627-5.588 26.767-6.007 39.035 3.725l7.2 3.362 33.484 26.564v32.287z" fill="#99a843"/><path d="m330.576 211.357s1.54-15.623-9.722-20.681a32.639 32.639 0 0 0 .668-6.392c.212-17.223-19.156-27.5-33.452-17.887-4.35 2.924-8.892 7.5-12.893 14.608 0 0-15.256-7.451-28.029 12.773 0 0-10.644-1.065-21.643 9.934 0 0-7.805 7.645-18.094 7.645v8.321h123.165z" fill="#737722"/><path d="m10.576 211.357s-5.961-24 8.435-41.117c9.679-11.51 28.429-8.7 33.541 5.439a26.739 26.739 0 0 1 1.513 8.164s18.068-7.1 24.149 11c0 0 14.136-10.289 25.542 4.258 0 0 9.278 12.257 24.889 12.257v6.9z" fill="#737722"/><path d="m10.576 211.357h320v110.136h-320z" fill="#edf46c"/><circle cx="253.668" cy="53.486" fill="#f74f73" r="34.979"/><g fill="#abb737"><path d="m270.5 258.281 16-46.924h-8.452l-15.993 46.924h-87.944l15.989-46.924h-8.451l-15.994 46.924h-90.53l15.993-46.924h-8.452l-15.993 46.924h-56.1v8h30.175l-18.818 55.212h8.452l18.818-55.212h71.13l-18.819 55.212h8.452l18.819-55.212h78.553l-18.819 55.212h8.452l18.819-55.212h72.4l-18.819 55.212h8.452l18.818-55.212h33.939v-8z"/><path d="m27.437 249.984a3.5 3.5 0 0 1 -3.5-3.5 34.843 34.843 0 0 0 -1.673-10.268 3.5 3.5 0 0 1 6.6-2.347 41.522 41.522 0 0 1 2.078 12.615 3.5 3.5 0 0 1 -3.505 3.5z"/><path d="m38.5 249.984c-.071 0-.143 0-.215-.007a3.5 3.5 0 0 1 -3.282-3.705c.034-.566.95-13.964 10.425-21.963a3.5 3.5 0 1 1 4.515 5.348c-7.206 6.088-7.943 16.929-7.943 17.043a3.5 3.5 0 0 1 -3.5 3.284z"/><path d="m49.313 249.985a3.5 3.5 0 0 1 -3.349-4.523 14.06 14.06 0 0 1 6.236-7.662 3.5 3.5 0 0 1 3.734 5.922 7.264 7.264 0 0 0 -3.272 3.779 3.5 3.5 0 0 1 -3.349 2.484z"/><path d="m64.377 304.551h-.123a3.5 3.5 0 0 1 -3.377-3.619c.319-9.243-3.608-14.043-3.648-14.089a3.5 3.5 0 0 1 5.29-4.584c.236.272 5.771 6.8 5.354 18.915a3.5 3.5 0 0 1 -3.496 3.377z"/><path d="m76 304.552a3.5 3.5 0 0 1 -3.431-4.205c2.6-12.678.1-21.269.075-21.354a3.5 3.5 0 1 1 6.7-2.012c.125.418 3.033 10.387.076 24.774a3.5 3.5 0 0 1 -3.42 2.797z"/><path d="m86.5 304.535c-.081 0-.163 0-.245-.009a3.487 3.487 0 0 1 -3.251-3.687 20.445 20.445 0 0 1 2.422-7.74 3.5 3.5 0 0 1 6.184 3.281 14.082 14.082 0 0 0 -1.62 4.914 3.519 3.519 0 0 1 -3.49 3.241z"/><path d="m109.38 249.984a3.5 3.5 0 0 1 -3.5-3.4c-.323-11.319-4.595-15.993-4.639-16.039a3.476 3.476 0 0 1 .019-4.93 3.52 3.52 0 0 1 4.968.019c.638.638 6.246 6.641 6.649 20.751a3.5 3.5 0 0 1 -3.4 3.6z"/><path d="m120.824 249.985a3.585 3.585 0 0 1 -.58-.049 3.5 3.5 0 0 1 -2.876-4.028 24.923 24.923 0 0 0 -.134-8.55 3.5 3.5 0 0 1 6.888-1.25 31.882 31.882 0 0 1 .15 10.952 3.5 3.5 0 0 1 -3.448 2.925z"/><path d="m135.205 249.985a3.5 3.5 0 0 1 -3.429-4.223c1.76-8.356 8.593-13.35 8.883-13.558a3.5 3.5 0 0 1 4.1 5.674c-.1.072-4.947 3.706-6.131 9.328a3.5 3.5 0 0 1 -3.423 2.779z"/><path d="m147.26 304.551a3.5 3.5 0 0 1 -3.5-3.5 26.881 26.881 0 0 0 -8.17-19.3 3.5 3.5 0 0 1 4.576-5.3 34.015 34.015 0 0 1 10.594 24.593 3.5 3.5 0 0 1 -3.5 3.507z"/><path d="m160.953 304.551a3.752 3.752 0 0 1 -.409-.023 3.5 3.5 0 0 1 -3.072-3.881c.775-6.665-1.516-10.792-1.614-10.965a3.5 3.5 0 0 1 6.038-3.541c.147.248 3.59 6.183 2.529 15.315a3.5 3.5 0 0 1 -3.472 3.095z"/><path d="m171.021 304.551a3.547 3.547 0 0 1 -.4-.022 3.5 3.5 0 0 1 -3.085-3.87 21.984 21.984 0 0 1 6.049-12.263 3.5 3.5 0 0 1 4.838 5.059 14.909 14.909 0 0 0 -3.931 7.989 3.5 3.5 0 0 1 -3.471 3.107z"/><path d="m257.168 304.551a3.5 3.5 0 0 1 -3.5-3.5 34.015 34.015 0 0 1 10.594-24.593 3.5 3.5 0 0 1 4.573 5.3 26.888 26.888 0 0 0 -8.167 19.294 3.5 3.5 0 0 1 -3.5 3.499z"/><path d="m243.475 304.551a3.5 3.5 0 0 1 -3.475-3.095c-1.062-9.132 2.381-15.067 2.529-15.315a3.5 3.5 0 0 1 6.035 3.545c-.124.221-2.381 4.338-1.611 10.961a3.5 3.5 0 0 1 -3.072 3.881 3.766 3.766 0 0 1 -.406.023z"/><path d="m233.407 304.551a3.5 3.5 0 0 1 -3.472-3.091 14.963 14.963 0 0 0 -3.933-8 3.5 3.5 0 1 1 4.839-5.059 22 22 0 0 1 6.048 12.263 3.5 3.5 0 0 1 -3.085 3.87 3.561 3.561 0 0 1 -.397.017z"/><path d="m216.8 249.984a3.5 3.5 0 0 1 -3.5-3.5 26.636 26.636 0 0 0 -3.852-13.821 3.5 3.5 0 1 1 6.011-3.588 33.551 33.551 0 0 1 4.841 17.409 3.5 3.5 0 0 1 -3.5 3.5z"/><path d="m230.488 249.984a3.505 3.505 0 0 1 -3.481-3.9c.775-6.665-1.515-10.793-1.613-10.965a3.5 3.5 0 0 1 6.039-3.541c.147.248 3.589 6.184 2.527 15.314a3.5 3.5 0 0 1 -3.472 3.092z"/><path d="m240.557 249.984a3.315 3.315 0 0 1 -.4-.023 3.5 3.5 0 0 1 -3.086-3.87 22.522 22.522 0 0 1 2.756-8.018 3.5 3.5 0 0 1 6.07 3.486 15.819 15.819 0 0 0 -1.87 5.317 3.5 3.5 0 0 1 -3.47 3.108z"/><path d="m314.119 249.984c-.072 0-.144 0-.217-.007a3.5 3.5 0 0 1 -3.28-3.707c.626-10.25-2.385-16.139-2.415-16.2a3.5 3.5 0 0 1 6.167-3.311c.164.3 3.992 7.536 3.235 19.935a3.5 3.5 0 0 1 -3.49 3.29z"/><path d="m303.369 249.984a3.5 3.5 0 0 1 -3.5-3.5c0-3.585-3.055-6.329-3.085-6.355a3.5 3.5 0 1 1 4.519-5.345c.228.192 5.566 4.785 5.566 11.7a3.5 3.5 0 0 1 -3.5 3.5z"/><path d="m303.7 304.551c-.095 0-.189 0-.285-.011a3.5 3.5 0 0 1 -3.208-3.77 40.04 40.04 0 0 0 -2.757-17.206 3.5 3.5 0 0 1 6.4-2.837 46.563 46.563 0 0 1 3.336 20.605 3.5 3.5 0 0 1 -3.486 3.219z"/><path d="m314.4 304.552a3.5 3.5 0 0 1 -3.061-5.192c2.48-4.5 1.971-11.056 1.965-11.121a3.5 3.5 0 1 1 6.972-.627c.032.352.736 8.708-2.808 15.131a3.5 3.5 0 0 1 -3.068 1.809z"/></g><path d="m236.584 158.031a44.341 44.341 0 0 0 -43.385-6.684l-17.115 6.539a43.51 43.51 0 0 1 -46.084-9.667l-32.078-31.643a38.429 38.429 0 0 0 -50.612-2.926c9.153-2.3 27.109-3.348 42.891 16.38l26.977 31.463s18.639 29.166 65.1 10.362l22.372-9.255s17.536-7.048 35.459-1.772z" fill="#d9cc66"/></svg>