<svg id="icons" height="512" viewBox="0 0 340 340" width="512" xmlns="http://www.w3.org/2000/svg" xmlns:xlink="http://www.w3.org/1999/xlink"><linearGradient id="linear-gradient" gradientUnits="userSpaceOnUse" x1="198.093" x2="181.501" y1="39.378" y2="348.695"><stop offset="0" stop-color="#e6e6f5"/><stop offset="1" stop-color="#d3d3e2"/></linearGradient><linearGradient id="linear-gradient-2" gradientUnits="userSpaceOnUse" x1="68.964" x2="53.348" y1="53.797" y2="323.891"><stop offset="0" stop-color="#b0b0c6"/><stop offset="1" stop-color="#9a9ab2"/></linearGradient><linearGradient id="linear-gradient-3" gradientUnits="userSpaceOnUse" x1="178.801" x2="178.801" y1="93.731" y2="292.188"><stop offset="0" stop-color="#fff"/><stop offset="1" stop-color="#f4f4f4"/></linearGradient><linearGradient id="linear-gradient-4" gradientUnits="userSpaceOnUse" x1="131.668" x2="131.668" y1="141.262" y2="265.357"><stop offset="0" stop-color="#b7d6d3"/><stop offset="1" stop-color="#9abdb9"/></linearGradient><linearGradient id="linear-gradient-5" gradientUnits="userSpaceOnUse" x1="76.217" x2="76.217" y1="131.254" y2="257.432"><stop offset="0" stop-color="#789e97"/><stop offset="1" stop-color="#678a82"/></linearGradient><linearGradient id="linear-gradient-6" gradientUnits="userSpaceOnUse" x1="33.54" x2="52.756" y1="28.919" y2="263.849"><stop offset="0" stop-color="#5b5f63"/><stop offset="1" stop-color="#484b4f"/></linearGradient><linearGradient id="linear-gradient-7" x1="190.606" x2="190.606" xlink:href="#linear-gradient-4" y1="141.262" y2="265.357"/><linearGradient id="linear-gradient-8" gradientUnits="userSpaceOnUse" x1="176.053" x2="176.053" y1="96.537" y2="170.05"><stop offset="0" stop-color="#ff7599"/><stop offset="1" stop-color="#ff5d86"/></linearGradient><linearGradient id="linear-gradient-9" x1="230.309" x2="241.275" xlink:href="#linear-gradient-8" y1="122.508" y2="274.204"/><linearGradient id="linear-gradient-10" x1="253.072" x2="264.038" xlink:href="#linear-gradient-8" y1="120.862" y2="272.558"/><path d="m36.728 325.594a38.377 38.377 0 0 0 11.672 1.806h255.827a25.773 25.773 0 0 0 25.773-25.773v-229.8a25.773 25.773 0 0 0 -25.773-25.773h-202.127z" fill="url(#linear-gradient)"/><path d="m66.1 46.054-56.1 235.904v7.042a38.414 38.414 0 0 0 26.73 36.589c10.251-27.824 34.545-35.223 50.459-36.963a16.763 16.763 0 0 0 14.911-16.685v-225.887z" fill="url(#linear-gradient-2)"/><path d="m53.41 301.593h237.47a13.313 13.313 0 0 0 13.313-13.313v-203.106a13.314 13.314 0 0 0 -13.313-13.313h-188.78z" fill="url(#linear-gradient-3)"/><path d="m21.212 71.861v197.539a32.2 32.2 0 0 0 32.2 32.2h.246c10.888-8.705 23.783-11.9 33.533-12.967a16.763 16.763 0 0 0 14.909-16.692v-200.08z" fill="#dadfe5"/><path d="m102.1 266.618 3.046-1.362a24.56 24.56 0 0 1 8.915-2.156c4.963-.221 12.665.457 22.089 4.667a24.592 24.592 0 0 0 19.862.328c7.3-3.2 14.484-10.578 13.992-27.256-.7-23.627-23.449-26.291-36.662-25.834-12.455.43-19.035-14.864-9.815-23.247q.431-.391.9-.778c13.693-11.236 14.4-32.654-.352-48.806-5.724-6.269-13.618-9.308-21.977-9.745-10.486 48.371-12.881 93.936.002 134.189z" fill="url(#linear-gradient-4)"/><path d="m102.1 266.618v-134.176c-13.174-.69-27.5 5.07-36.309 14.837l-15.449 93.56a47.251 47.251 0 0 0 5.851 16.245 30.371 30.371 0 0 0 38.807 12.705z" fill="url(#linear-gradient-5)"/><path d="m15.94 37.632a28.96 28.96 0 0 0 -5.94 17.63v226.7s16.814-29.22 57.494-33.39a10.9 10.9 0 0 0 9.8-10.831v-214.241a10.887 10.887 0 0 0 -12.49-10.775c-13.829 2.065-35.883 7.981-48.864 24.907z" fill="url(#linear-gradient-6)"/><path d="m173.394 182.937a26.3 26.3 0 0 0 -3.263 6.146 17.675 17.675 0 0 0 4.063 18.516 59.758 59.758 0 0 0 6.442 5.612 17.915 17.915 0 0 0 12.629 3.6 49.542 49.542 0 0 0 7.74-1.426 9.188 9.188 0 0 0 6.773-8.89v-5.814a9.218 9.218 0 0 1 1.666-5.285l1.043-1.489a9.2 9.2 0 0 0 -1.5-12.239 27.8 27.8 0 0 0 -21.987-6.609 19.378 19.378 0 0 0 -13.606 7.878z" fill="url(#linear-gradient-7)"/><path d="m207.69 134.898-13.297-13.296 13.297-13.297-18.34-18.34-13.297 13.297-13.297-13.297-18.34 18.34 13.297 13.297-13.297 13.296 18.34 18.341 13.297-13.297 13.297 13.297z" fill="url(#linear-gradient-8)"/><path d="m258.816 250.555-19.454-18.676a76.8 76.8 0 0 1 -19.074 18.3l13.821 22.97a103.714 103.714 0 0 0 24.707-22.594z" fill="url(#linear-gradient-9)"/><path d="m263.821 129.824 11.089-9.554-45.934-9.482 3.339 46.179 10.99-9.469a76.494 76.494 0 0 1 4.841 68.953l23.1 13.942a103.265 103.265 0 0 0 -7.429-100.569z" fill="url(#linear-gradient-10)"/></svg>