<svg id="flat" height="512" viewBox="0 0 340 340" width="512" xmlns="http://www.w3.org/2000/svg"><path d="m256.488 8.3v234.745s.895 46.1-52.808 48.781a25.112 25.112 0 0 0 -25.112-25.111h-13.676a25.112 25.112 0 0 0 -25.112 25.112v14.762a25.112 25.112 0 0 0 25.112 25.111h38.788v-.045s95.77 4.923 95.77-88.162v-235.193z" fill="#67bfbf"/><rect fill="#4a4a60" height="25.857" rx="7.301" width="62.057" x="246.382" y="54.979"/><path d="m256.488 180.992v62.053a39.111 39.111 0 0 1 -.436 5.553h43.288c.066-1.672.11-3.366.11-5.105v-62.5z" fill="#428e8a"/><path d="m248.271 162.478h54.772a7.285 7.285 0 0 1 7.285 7.285v28.061a7.285 7.285 0 0 1 -7.285 7.285h-54.772a0 0 0 0 1 0 0v-42.631a0 0 0 0 1 0 0z" fill="#67bfbf"/><path d="m289.008 171.761c-5.164-25.631-29.962-54.155-129.139-54.155s-123.976 28.525-129.139 54.156a57.847 57.847 0 0 0 7.292 40.628c15.21 25.863 39.42 28.58 56.992 26.336a47.665 47.665 0 0 0 30.111-16.6q.327-.382.651-.757a45.118 45.118 0 0 1 68.186 0q.324.375.65.757a47.67 47.67 0 0 0 30.112 16.6c17.572 2.244 41.782-.473 56.992-26.337a57.853 57.853 0 0 0 7.292-40.628z" fill="#67bfbf"/><path d="m267.841 172.155c-1.946-7.512-9.477-16.233-24.256-23.3-13.111-.678-25.021-4.038-35.572-10.434a266.311 266.311 0 0 0 -48.144-2.972 60.432 60.432 0 0 0 -6.228-.07c-17.718 1.5-39.192 2.615-39.192 2.615-40.973 6.122-59.349 21.782-62.549 34.161-2.488 9.6-.472 19.7 4.922 28.175q.5.792 1.027 1.539c6.359 9.094 23.627 14.949 23.627 14.949a49.642 49.642 0 0 0 13.9.259c8.192-.94 14.689-5.752 20.993-10.785 3.813-3.045 7.4-5.758 10.753-8.171a56 56 0 0 1 37.2-10.39s24.833-2.186 32.726 13.645q3.055 2.3 6.335 4.916c6.3 5.033 12.8 9.845 20.993 10.785 11.943 1.371 28.191-.476 38.551-16.747 5.387-8.471 7.403-18.571 4.914-28.175z" fill="#fff"/><g fill="#c2e8ff"><path d="m57.846 201.869a35.053 35.053 0 0 0 23.627 14.945l72.168-81.429a262.34 262.34 0 0 0 -39.191 2.615z"/><path d="m208.012 138.428-43.7 49.305a55.958 55.958 0 0 1 28.308 10.388c1.426 1.027 2.905 2.121 4.416 3.259l46.544-52.517c-9.023-4.315-20.754-8.01-35.568-10.435z"/></g></svg>