<svg id="flat" height="512" viewBox="0 0 340 340" width="512" xmlns="http://www.w3.org/2000/svg"><path d="m159.276 216.66h14.449v79.851h-14.449z" fill="#dae5ed"/><path d="m173.726 296.511v11.408a7.1 7.1 0 0 0 7.1 7.1 7.1 7.1 0 0 0 7.1-7.1v-4.819a6.591 6.591 0 0 1 6.591-6.591 6.591 6.591 0 0 1 6.583 6.591v4.513a20.913 20.913 0 0 1 -20.913 20.913 20.914 20.914 0 0 1 -20.914-20.913v-11.1z" fill="#4a4a60"/><path d="m170 91.859h154.968a2.063 2.063 0 0 0 1.161-3.767 42.956 42.956 0 0 1 -13.816-15.526s-10.349-20.946-41.552-21.625a25.817 25.817 0 0 1 -23.306-15.65c-4.791-11.277-15.391-23.819-38.841-23.819-42.606 0-48.233 48.232-48.233 48.232z" fill="#707ac1"/><path d="m18.417 91.859h184.972s-8.441-3.216-14.47-15.676c0 0-3.839-21.261-29.488-23.793a19.925 19.925 0 0 1 -17.116-13.314c-3.76-11.217-13.418-25.193-38.2-25.193-41.4 0-43.409 35.772-43.409 35.772s-33.827-6.744-48.196 33.806a6.285 6.285 0 0 0 5.907 8.398z" fill="#9ba8dd"/><path d="m165.737 151.717c-33.413 2.85-61.2 19.57-81.206 36.388v24.174l81.969 1.67 81.812 1.253 5.929-20.659c-20.274-18.743-50.812-39.611-88.504-42.826z" fill="#ffb655"/><path d="m119.318 216.336a3 3 0 0 1 -2.792-4.1c5.8-14.772 16.635-35.854 35.374-52.4a3 3 0 1 1 3.971 4.5c-17.841 15.752-28.206 35.934-33.759 50.092a3 3 0 0 1 -2.794 1.908z" fill="#f48d40"/><path d="m212.315 216.336a3 3 0 0 1 -2.8-1.916c-5.462-14.076-15.772-34.19-33.872-50.077a3 3 0 0 1 3.959-4.509c19.012 16.688 29.8 37.715 35.506 52.416a3 3 0 0 1 -2.8 4.086z" fill="#f48d40"/><g fill="#adc9f2"><path d="m15.17 311.717a3.5 3.5 0 0 1 -3.5-3.5v-28.971a3.5 3.5 0 0 1 7 0v28.971a3.5 3.5 0 0 1 -3.5 3.5z"/><path d="m15.17 229.212a3.5 3.5 0 0 1 -3.5-3.5v-30.2a3.5 3.5 0 0 1 7 0v30.2a3.5 3.5 0 0 1 -3.5 3.5z"/><path d="m324.83 229.212a3.5 3.5 0 0 1 -3.5-3.5v-30.2a3.5 3.5 0 0 1 7 0v30.2a3.5 3.5 0 0 1 -3.5 3.5z"/><path d="m15.17 143.009a3.5 3.5 0 0 1 -3.5-3.5v-23.355a3.5 3.5 0 0 1 7 0v23.355a3.5 3.5 0 0 1 -3.5 3.5z"/><path d="m66.933 177.738a3.5 3.5 0 0 1 -3.5-3.5v-24.3a3.5 3.5 0 1 1 7 0v24.3a3.5 3.5 0 0 1 -3.5 3.5z"/><path d="m66.933 124.067a3.5 3.5 0 0 1 -3.5-3.5v-4.413a3.5 3.5 0 1 1 7 0v4.413a3.5 3.5 0 0 1 -3.5 3.5z"/><path d="m118.7 144.009a3.5 3.5 0 0 1 -3.5-3.5v-24.355a3.5 3.5 0 0 1 7 0v24.355a3.5 3.5 0 0 1 -3.5 3.5z"/><path d="m170 132.332a3.5 3.5 0 0 1 -3.5-3.5v-12.678a3.5 3.5 0 0 1 7 0v12.678a3.5 3.5 0 0 1 -3.5 3.5z"/><path d="m324.83 311.717a3.5 3.5 0 0 1 -3.5-3.5v-28.971a3.5 3.5 0 0 1 7 0v28.971a3.5 3.5 0 0 1 -3.5 3.5z"/><path d="m324.83 143.009a3.5 3.5 0 0 1 -3.5-3.5v-23.355a3.5 3.5 0 0 1 7 0v23.355a3.5 3.5 0 0 1 -3.5 3.5z"/><path d="m273.067 177.738a3.5 3.5 0 0 1 -3.5-3.5v-24.3a3.5 3.5 0 0 1 7 0v24.3a3.5 3.5 0 0 1 -3.5 3.5z"/><path d="m273.067 124.067a3.5 3.5 0 0 1 -3.5-3.5v-4.413a3.5 3.5 0 0 1 7 0v4.413a3.5 3.5 0 0 1 -3.5 3.5z"/><path d="m221.305 144.009a3.5 3.5 0 0 1 -3.5-3.5v-24.355a3.5 3.5 0 0 1 7 0v24.355a3.5 3.5 0 0 1 -3.5 3.5z"/></g><path d="m254.24 194.544c-14.959 22.7-47.246 7.043-47.246 7.043-51.736 17.184-82.5 0-82.5 0-27.712 8.123-36.974-5.473-39.964-13.48a202.381 202.381 0 0 0 -34.865 37.532c39.669-11.373 63.857 6.021 63.857 6.021 23.749-17.394 80.674-17.394 104.423 0 0 0 24.188-17.394 63.857-6.021.003 0-9.876-14.739-27.562-31.095z" fill="#f48d40"/></svg>