<svg id="Flat" height="512" viewBox="0 0 340 340" width="512" xmlns="http://www.w3.org/2000/svg"><path d="m136.662 41.184-29.2 41.333 71.718 149.589 69.479 9.727s18.225-80.184-3.573-166a17.281 17.281 0 0 0 -13.509-12.745l-29.856-5.669a197.534 197.534 0 0 0 -13.021-26.153 12.783 12.783 0 0 0 -14.462-5.6l-26.666 7.744a20.292 20.292 0 0 0 -10.91 7.774z" fill="#aab4db"/><path d="m245.086 75.829a17.311 17.311 0 0 0 -8.257-10.81c-25.34 11.641-43.279 30.281-55.867 49.381a6.07 6.07 0 0 1 -9.957.321c-19.9-26.918-47.184-43.57-53.1-46.989l-10.446 14.785 52.513 109.526 19.208 40.063 69.479 9.727s18.225-80.184-3.573-166.004z" fill="#6f7aa8"/><path d="m172.434 232.618s5.209-96.31 53.877-141.392c0 0-13.832 48.155-12.3 82.991 0 0 6.3-22.815 35.515-55.9 16.109-18.243 23.378-41.149 28.577-57.813 0 0 4.25 63.6-21.365 115.849 0 0 28.482-23.64 38.215-42.346 0 0 4.611 35.6-12.807 61.212 0 0 12.3-4.61 24.59-18.955 0 0-1.537 55.84-18.955 85.041z" fill="#c9ce78"/><path d="m48.936 73.556s77.5 30.653 74.03 171.773h-74.03l-22.857-52.863c-11.731-11.238-13.2-56.441-13.645-105.029z" fill="#aab4db"/><path d="m26.079 192.466 22.857 52.863h74.03a306.733 306.733 0 0 0 -4.221-61.329h-8.62c-30.23-36.595-71.6-46.493-71.6-46.493v22.656c-11.194-6.552-19.37-15.643-24.789-23.18 1.52 27.086 4.819 48.275 12.343 55.483z" fill="#6f7aa8"/><path d="m38.526 70.086h55.838a32.588 32.588 0 0 1 18.871 5.975c20.273 14.387 67.272 55.987 77.711 137.985a17.185 17.185 0 0 0 15.961 14.947c24.449 1.543 73.081 8.285 93.037 37.157l-83.536 48.7h-50.689c-48.228-4.624-62.556-36.567-64.152-78.771 0-.004 35.28-94.279-63.041-165.993z" fill="#89b9f2"/><path d="m12.434 87.437v-27.579a10.132 10.132 0 0 1 13.282-9.63l16.23 5.309a12.409 12.409 0 0 1 8.205 9.694l9.195 55.169z" fill="#aab4db"/><path d="m30.954 280.424s-22.373-22.595-18.52-69.37c0 0 8.61 10.358 20.105 16.649 0 0-22.991-32.5-24.973-76.506 0 0 11.467 16.137 23.9 25.048 23.323 16.717 27.633 22.917 33.976 32.431 0 0-.225-23.665-6.1-42.019 0 0 48.113 32.571 58.023 90.38z" fill="#c9ce78"/><path d="m101.678 304.126h-69.713a10.2 10.2 0 0 1 -10.13-9.048l-.28-2.473a19.089 19.089 0 0 1 5.116-15.3c5.348-5.629 13.609-13.652 22.281-19.521a19.159 19.159 0 0 1 10.744-3.3h22.954a82.069 82.069 0 0 0 12.965-1.031l12.45-1.992a16.063 16.063 0 0 1 15.925 7c5.1 7.69 11.068 19.221 8.922 28.722z" fill="#6f7aa8"/><path d="m95.236 314.846h70.483a74.16 74.16 0 0 0 -4.7-15.037 16.929 16.929 0 0 0 -11.158-9.448c-9.475-2.47-27.6-5.93-45.911-2.53.002 0-12.124 7.419-8.714 27.015z" fill="#aab4db"/><path d="m256.954 290.63 1.211-20a20.17 20.17 0 0 1 8.043-14.926l6.924-5.184a20.167 20.167 0 0 0 7.944-13.8l.843-7.214a20.168 20.168 0 0 1 10.026-15.17l19.237-10.993a13.077 13.077 0 0 1 16.115 2.5 19.46 19.46 0 0 1 5.137 13.175v54.052a18.092 18.092 0 0 1 -9.424 15.879l-16.269 8.878z" fill="#6f7aa8"/><path d="m216.408 314.846a95.847 95.847 0 0 1 14.283-19.992 17.631 17.631 0 0 1 10.309-5.432l15.55-2.284a17.505 17.505 0 0 0 8.766-3.958l5.388-4.563a17.5 17.5 0 0 1 13.68-3.982l13.093 1.791a13.949 13.949 0 0 1 11.813 11.306c.323 1.741.636 3.695.911 5.852a15.889 15.889 0 0 1 -10.462 16.989l-9.527 3.366a15.877 15.877 0 0 1 -5.289.907z" fill="#aab4db"/><g fill="#5f72ad"><path d="m130.179 242.93c-.095 0-.19 0-.286-.011a3.5 3.5 0 0 1 -3.207-3.771q.091-1.132.172-2.255a3.5 3.5 0 0 1 6.982.494q-.081 1.158-.176 2.325a3.5 3.5 0 0 1 -3.485 3.218z"/><path d="m130.942 223.32a3.5 3.5 0 0 1 -3.5-3.49 218.827 218.827 0 0 0 -4.719-44.754 3.5 3.5 0 0 1 6.847-1.456 225.752 225.752 0 0 1 4.872 46.189 3.5 3.5 0 0 1 -3.489 3.511z"/><path d="m121.589 160.166a3.5 3.5 0 0 1 -3.347-2.483q-.552-1.818-1.125-3.584a3.5 3.5 0 1 1 6.659-2.157q.591 1.825 1.163 3.7a3.5 3.5 0 0 1 -3.35 4.519z"/><path d="m113.245 137.51a3.5 3.5 0 0 1 -3.209-2.1c-9.9-22.661-20.422-35.115-20.527-35.238a3.5 3.5 0 0 1 5.323-4.545c.457.535 11.307 13.376 21.619 36.981a3.5 3.5 0 0 1 -3.206 4.9z"/><path d="m165.716 228.728a3.5 3.5 0 0 1 -3.491-3.287c-2.158-35.433-12.107-68.066-29.571-96.994a3.5 3.5 0 1 1 5.992-3.618c18.055 29.906 28.339 63.613 30.567 100.186a3.5 3.5 0 0 1 -3.281 3.707q-.109.006-.216.006z"/><path d="m122.48 110.94a3.5 3.5 0 0 1 -2.766-1.352 157.88 157.88 0 0 0 -19.322-20.978 3.5 3.5 0 0 1 4.644-5.239 165.263 165.263 0 0 1 20.206 21.921 3.5 3.5 0 0 1 -2.762 5.648z"/><path d="m162.683 265.812a64.643 64.643 0 0 1 -18.373-2.735 3.5 3.5 0 0 1 2.172-6.655c.337.109 25.9 8.15 39.034-6.2a3.5 3.5 0 1 1 5.164 4.727c-7.875 8.606-18.753 10.863-27.997 10.863z"/><path d="m176.289 285.793c-3.464 0-5.7-.226-5.914-.248a3.5 3.5 0 0 1 .732-6.962c1.735.18 41.868 3.963 46.017-26.468a3.5 3.5 0 0 1 6.936.945c-2.116 15.518-12.234 26.061-29.262 30.491a75.082 75.082 0 0 1 -18.509 2.242z"/></g><circle cx="159.266" cy="57.415" fill="#616a98" r="3.899"/><circle cx="176.333" cy="49.617" fill="#616a98" r="3.899"/><circle cx="176.333" cy="67.071" fill="#616a98" r="3.899"/><circle cx="31.991" cy="77.455" fill="#616a98" r="3.899"/><circle cx="38.526" cy="91.122" fill="#616a98" r="3.899"/><circle cx="303.843" cy="228.26" fill="#4e597f" r="3.899"/><circle cx="317.115" cy="221.094" fill="#4e597f" r="3.899"/><circle cx="316.046" cy="236.058" fill="#4e597f" r="3.899"/><circle cx="67.757" cy="271.337" fill="#4e597f" r="3.899"/><circle cx="52.522" cy="280.424" fill="#4e597f" r="3.899"/><circle cx="67.757" cy="286.953" fill="#4e597f" r="3.899"/><circle cx="280.184" cy="289.507" fill="#616a98" r="3.899"/><circle cx="292.99" cy="295.505" fill="#616a98" r="3.899"/></svg>