<svg id="icons" height="512" viewBox="0 0 340 340" width="512" xmlns="http://www.w3.org/2000/svg"><path d="m9.772 103.7a23.571 23.571 0 0 0 2.145 7.347 6.431 6.431 0 0 0 8.136 3.14c10.15-4.018 35.961-13.646 62.285-18.746l-5.416-20.941s-28.963 4.408-63.745 22.632a6.467 6.467 0 0 0 -3.405 6.568z" fill="#7b9ddb"/><path d="m28.966 196.684a21.139 21.139 0 0 0 1.923 6.587 5.765 5.765 0 0 0 7.294 2.815c9.1-3.6 32.242-12.235 55.844-16.808l-4.856-18.778s-25.971 3.955-57.152 20.294a5.8 5.8 0 0 0 -3.053 5.89z" fill="#f9648b"/><path d="m76.922 74.5a153.827 153.827 0 0 0 -16.18 3.729l1.058 5.371a6.008 6.008 0 0 1 -3.835 6.813c-7.667 2.794-23.229 8.622-37.711 15a16.164 16.164 0 0 1 -10.142.284 22.5 22.5 0 0 0 1.8 5.347 6.431 6.431 0 0 0 8.136 3.14c10.15-4.018 35.961-13.646 62.285-18.746z" fill="#4966ad"/><path d="m89.171 170.5a137.7 137.7 0 0 0 -14.358 3.3l.719 4.876a6.014 6.014 0 0 1 -3.959 6.555 303.9 303.9 0 0 0 -33.627 14.107 19.659 19.659 0 0 1 -8.348.5 19.4 19.4 0 0 0 1.291 3.427 5.765 5.765 0 0 0 7.294 2.815c9.1-3.6 32.242-12.235 55.844-16.808z" fill="#d8325d"/><path d="m79.97 72.937s128.155-28.258 242.347 13.336a12.1 12.1 0 0 1 7.5 14.666l-.027.094a8.643 8.643 0 0 1 -10.97 5.863c-27.862-8.972-120.814-32.924-232-11z" fill="#7380a6"/><path d="m318.838 106.9a8.634 8.634 0 0 0 10.957-5.867l.027-.094a12.042 12.042 0 0 0 -.341-7.6c-3.054 7.07-11.179 3.44-11.179 3.44-100.393-34.106-190.875-22.546-214.267-18.635a6.311 6.311 0 0 1 -7.193-4.824l-.753-3.287c-10.276 1.618-16.119 2.9-16.119 2.9l6.859 22.967c111.198-21.931 204.161 2.032 232.009 11z" fill="#434861"/><path d="m128.049 79.256-3.584.386a9.3 9.3 0 0 0 -8.305 9.247v105.824h19.523v-108.601a6.9 6.9 0 0 0 -7.634-6.856z" fill="#ed8d83"/><path d="m222.564 79.256 3.584.386a9.3 9.3 0 0 1 8.3 9.247v105.824h-19.519v-108.601a6.9 6.9 0 0 1 7.635-6.856z" fill="#ed8d83"/><path d="m116.16 147.969v46.744h19.523v-50.494a177.948 177.948 0 0 0 -19.523 3.75z" fill="#a8433b"/><path d="m234.452 148.153q-10.127-1.933-19.523-3.195v49.755h19.523z" fill="#a8433b"/><path d="m92.624 168.55s106.686-23.717 202.954 11.35c5.022 1.829 8.108 6.935 6.649 12.077-1.127 3.97-8.585 6.781-12.513 5.516-23.489-7.563-98.339-27.479-192.069-8.994z" fill="#7380a6"/><path d="m290.721 197.818a9.022 9.022 0 0 0 11.516-5.88 9.365 9.365 0 0 0 .288-3.57 9.455 9.455 0 0 1 -8.9 1.444c-77.958-28.618-157.208-19.123-179.374-15.6a6.313 6.313 0 0 1 -7.2-5.122l-.55-3.048c-8.851 1.39-13.881 2.508-13.881 2.508l5.025 19.95c95.115-18.761 170.788 2.025 193.076 9.318z" fill="#434861"/><path d="m202.009 231.977h-53.409c-12.62 0-15.324-15.324-15.324-15.324v51.682h84.053v-51.682s-2.7 15.324-15.32 15.324z" fill="#a8433b"/><path d="m264.675 280.507a13.9 13.9 0 0 0 -10.013-10.444q-.423-.111-.858-.231a25.245 25.245 0 0 1 -18.41-23.9l-1.1-59.8a8.322 8.322 0 0 0 -7.43-8.121l-5.213-.561a6.344 6.344 0 0 0 -7.023 6.308v56.487a19.981 19.981 0 0 1 -19.982 19.981h-38.68a19.981 19.981 0 0 1 -19.982-19.981v-56.491a6.345 6.345 0 0 0 -7.024-6.308l-5.213.561a8.322 8.322 0 0 0 -7.429 8.121l-1.1 59.8a25.244 25.244 0 0 1 -18.411 23.9q-.435.12-.857.231a13.9 13.9 0 0 0 -10.014 10.444l-1.936 8.718h182.61z" fill="#ed8d83"/><path d="m66.836 53.03 5.6-1.924a5.975 5.975 0 0 1 7.753 4.259l12.248 51.1a6.866 6.866 0 0 1 -4.635 8.155l-3.221 1a6.86 6.86 0 0 1 -8.65-4.693c-2.871-10.222-8.411-30.557-12.982-50.938a5.98 5.98 0 0 1 3.887-6.959z" fill="#ffb655"/><path d="m80.958 151.841 4.718-1.622a5.038 5.038 0 0 1 6.537 3.59l10.325 43.08a5.788 5.788 0 0 1 -3.907 6.875l-2.716.846a5.783 5.783 0 0 1 -7.292-3.956c-2.42-8.618-7.091-25.761-10.944-42.943a5.041 5.041 0 0 1 3.279-5.87z" fill="#ffb655"/><g fill="#e87b31"><path d="m84.578 115.624 3.221-1a6.866 6.866 0 0 0 4.635-8.155l-6.918-28.869v11.871a6.16 6.16 0 0 1 -5.009 6.052 6.16 6.16 0 0 1 -6.447-2.9l-5.5-9.26c2.9 11.417 5.628 21.362 7.372 27.572a6.86 6.86 0 0 0 8.646 4.689z"/><path d="m85.075 181.96-2.736-4.826c2.469 9.739 4.8 18.235 6.284 23.52a5.783 5.783 0 0 0 7.292 3.956l2.716-.846a5.788 5.788 0 0 0 3.907-6.875l-5.281-22.033-.937 5.189a6.05 6.05 0 0 1 -4.486 4.794l-.028.007a6.051 6.051 0 0 1 -6.731-2.886z"/></g></svg>