<svg id="icons" height="512" viewBox="0 0 340 340" width="512" xmlns="http://www.w3.org/2000/svg"><path d="m239.737 296.656c17.556-18.961 15.449-50.914 15.449-50.914-.351-24.579-24.579-26.334-24.579-26.334v-27.74a98.174 98.174 0 0 0 21.533-19.068 93.119 93.119 0 0 0 21.619-61.388c-.277-21.7-4.879-34.77-4.879-34.77l-21.77-12.936-83.966 85.815v49.643l-14.754-10.924-52.038 16.52v14.848s-24.228 1.755-24.579 26.334c0 0-2.107 31.953 15.449 50.914 0 0-16.152 1.662-16.152 15.8 0 0-.806 8.747 9.813 12.752a22.907 22.907 0 0 0 8.093 1.387h33.3a29.787 29.787 0 0 0 13.651-3.167 20.877 20.877 0 0 0 8.181-7.11h38.749a20.871 20.871 0 0 0 8.181 7.11 29.786 29.786 0 0 0 13.65 3.167h33.3a22.907 22.907 0 0 0 8.093-1.387c10.619-4 9.813-12.752 9.813-12.752-.005-14.138-16.157-15.8-16.157-15.8z" fill="#f0f2ff"/><path d="m209.921 260.674c-8.97-19.172-21.991-41.089-22.541-42.013l-.084-.141-.09-.138a64.521 64.521 0 0 0 -24.062-21.827v2.409l-7.8-5.777a45.665 45.665 0 0 0 -14.271-2.284c-.615 0-1.225.019-1.834.042l-23.655 7.51a45.535 45.535 0 0 0 -20.473 33.513 77.371 77.371 0 0 0 -.081 14.5 87.721 87.721 0 0 0 16.186 43.357l15.484 21.708.119.167.127.16a65 65 0 0 0 10.587 10.662 19.908 19.908 0 0 0 6.575-6.2h38.749a20.871 20.871 0 0 0 8.181 7.11 27.747 27.747 0 0 0 5.63 2.138 46.338 46.338 0 0 0 4.5-3.591c9.356-8.5 14.439-20.354 14.7-34.271a61.575 61.575 0 0 0 -5.947-27.034z" fill="#9eb4d8"/><path d="m96.352 219.408a31.415 31.415 0 0 0 -14.834 5.718c2.879 3.188 9.17 8.782 21.216 14 18.2 7.878 28.773-8.153 29.483-8.877s2.252-22.314 2.252-22.314l-7.173-13.2-30.944 9.825z" fill="#9eb4d8"/><path d="m224.562 144.239-57.618 2.643v76.734h6.725c64.27-7.522 50.893-79.377 50.893-79.377z" fill="#9eb4d8"/><path d="m208.341 162.718c23.416-8.735 19.864-36.667 19.864-36.667l-37.332-3.924-26.608 27.194v42.347c13.365 0 18.363-10.226 18.363-10.226a23.048 23.048 0 0 0 1.21-17.612h18.275a17.817 17.817 0 0 0 6.228-1.112z" fill="#9eb4d8"/><path d="m217.784 142.719-54.64 6.989-54.644-6.989s-10.842 73.249 54.641 73.249 54.643-73.249 54.643-73.249z" fill="#62934c"/><path d="m163.144 215.968a66.927 66.927 0 0 0 20.224-2.86c-.165-.225-16.362-20.812-38.5-20.816-6.956-9.416-34-18.5-34-18.5l-.723 1.339v.007q.173.734.362 1.47l.011.043c3.976 15.462 13.445 31.554 34.99 37.2v.008a69.351 69.351 0 0 0 17.636 2.109z" fill="#41682c"/><path d="m268.88 76.443-21.77-12.937-37.243 38.063c7.042 17.863 14.326 36.327 14.326 36.327 27.695-14.285 19.174-44.544 19.174-44.544a20.444 20.444 0 0 0 14.672-6.788c3.955 1.419 9.675 1.053 13.329-.084a76.82 76.82 0 0 0 -2.488-10.037z" fill="#9eb4d8"/><path d="m217.784 142.719-54.64 6.989-54.644-6.989a88.042 88.042 0 0 0 -.662 12.63 28.945 28.945 0 0 0 11.227 7.369 17.809 17.809 0 0 0 6.228 1.112h18.275a23.045 23.045 0 0 0 1.209 17.612s5 10.226 18.364 10.226 18.363-10.226 18.363-10.226a23.048 23.048 0 0 0 1.21-17.612h18.274a17.818 17.818 0 0 0 6.229-1.112 28.934 28.934 0 0 0 11.226-7.369 87.862 87.862 0 0 0 -.659-12.63z" fill="#41682c"/><path d="m158.6 203.182a56.784 56.784 0 0 1 21.9 19.572s13.264 22.278 22.167 41.31a53.21 53.21 0 0 1 5.187 23.491c-.17 9.074-2.752 20.022-12.081 28.5a38.909 38.909 0 0 1 -30.205 9.815c-9.453-1.007-21.6-5.407-32.364-18.982l-15.483-21.713a79.691 79.691 0 0 1 -14.721-39.39 69.223 69.223 0 0 1 .068-12.993c2.754-26.586 31.768-41.838 55.532-29.61z" fill="#ffc257"/><path d="m145.928 216.345a21.067 21.067 0 0 0 3.041-12.675 21.883 21.883 0 0 0 -.724-4.064c-21.124-4.071-42.815 10.377-45.178 33.186-.221 2.131-.321 4.245-.333 6.33a38.492 38.492 0 0 0 13.594 4.366c.2.016.656.049 1.32.049 3.131 0 9.01-.677 13.195-5.208a14.6 14.6 0 0 0 3.485-6.687c5.245-2.354 10.911-7.108 11.6-15.297z" fill="#ea8a42"/><path d="m147.335 217.657c-13.95-3.494-27.573 6.812-28.564 21.159a57.484 57.484 0 0 0 9.4 36.21l16.386 22.464a28.555 28.555 0 0 0 14.215 10.5 26.749 26.749 0 0 0 13.869.723c11.082-2.347 19.429-13.056 18.812-24.367-.306-5.616-1.958-12.47-5.933-20.7 0 0-8.836-18.639-20.349-33.965a32.208 32.208 0 0 0 -16.644-11.7q-.586-.171-1.192-.324z" fill="#ea8a42"/><path d="m118.771 238.816c-.1 1.5-.15 3.072-.14 4.7 3.271-.144 8.429-1.088 12.212-5.183a14.6 14.6 0 0 0 3.485-6.687c5.028-2.256 10.431-6.728 11.477-14.308-13.405-2.409-26.079 7.662-27.034 21.478z" fill="#ea8a42"/><path d="m107.832 128.173s-20.059 3.982-35.928 24.9a35.477 35.477 0 0 0 -7.057 18.035c-1.062 11.069.46 28.728 16.452 43.285 0 0 20.857 20.822 35.643 22.124 0 0 11.665.976 10.786-10.086 0 0 11.682-1.952 11.258-12.363 0 0 10.245-11.388-6.8-25.053l-22.521-16.09z" fill="#f0f2ff"/><path d="m227.662 57.508s6.163-11.508 25.456-11.508c14.631 0 20.016 13.1 21.764 19.43a13.818 13.818 0 0 1 -.531 9.151c-1.865 4.311-6.454 8.823-17.75 4.913a20.453 20.453 0 0 1 -15.5 6.575s-7.428-1.108-11.836-3.627c.005-.001-8.565-8.066-1.603-24.934z" fill="#f0f2ff"/><path d="m108.991 156.506-1.159-28.333a46.207 46.207 0 0 0 -8.8 3.063 43.151 43.151 0 0 0 4.177 16.889 8.343 8.343 0 0 1 .811 3.649v4.676a2.879 2.879 0 0 1 -3.869 2.7l-.915-.336a1.694 1.694 0 0 0 -1.736 2.836l12.161 11.273z" fill="#9eb4d8"/><path d="m237.391 78.062c-.395-.721-1.754-3.69-2.055-4.455-1.324-3.369.073-7.852.67-9.478.364-.991.718-1.981 1-3a26.387 26.387 0 0 0 .662-12.019c-7.328 3.408-10 8.393-10 8.4a37.356 37.356 0 0 0 -2.219 7.265 28.516 28.516 0 0 0 -.469 3.747 23.3 23.3 0 0 0 .275 5.237 17.833 17.833 0 0 0 3.042 7.518c.163.223.312.414.443.572a6.86 6.86 0 0 0 .536.594 25.293 25.293 0 0 0 11.837 3.619 53.61 53.61 0 0 0 -3.722-8z" fill="#9eb4d8"/><path d="m163.144 137.162-59.125-7.076s-.2 19.457 17.337 25.519a27.674 27.674 0 0 0 7.931 1.406l33.857 1.381 33.856-1.381a27.674 27.674 0 0 0 7.931-1.406c17.533-6.062 17.337-25.519 17.337-25.519z" fill="#f74f73"/><path d="m221.747 134.936.012-.064c.183-.992.3-1.87.376-2.6l.015-.151c.014-.148.028-.288.039-.422 0-.053.008-.1.012-.152.03-.39.047-.708.056-.948 0-.052 0-.1 0-.148s0-.091 0-.131 0-.087 0-.121v-.116l-59.125 7.076-59.125-7.076v.107.149.1c0 .069 0 .149.009.236v.122c.006.129.014.276.025.437 0 .057.009.121.013.182.009.116.018.236.029.366.008.086.016.174.025.266.011.124.025.254.04.387.01.1.021.2.033.305.024.2.052.414.082.634.019.134.041.274.062.415s.046.3.073.463.05.293.077.443.053.291.082.44.064.326.1.5c.03.144.064.292.1.44q.108.487.239 1c.035.138.068.274.106.414.055.2.115.41.175.618.04.136.08.273.122.411.067.22.136.44.209.663.04.121.082.242.124.364.272.8.589 1.616.955 2.445.046.1.09.207.138.312.118.259.241.517.369.778.05.1.1.2.153.3.1.194.19.388.294.583l.015.006a23.987 23.987 0 0 0 9.951 10.007c2.475-6.382 10.191-6.3 10.191-6.3h70.654s7.716-.077 10.19 6.3a24.015 24.015 0 0 0 10.045-10.186l.022-.009a31.367 31.367 0 0 0 3.038-8.845z" fill="#d3395e"/><path d="m236.188 105.643c-.438-6.627-2.064-16.245-6.512-29.366a18.112 18.112 0 0 1 -.436-10.323c2.375-9.21 5.577-29.769-6.678-47.2a12.62 12.62 0 0 0 -13.062-5.054c-6.144 1.362-13.923 4.507-22.31 10.905a19.6 19.6 0 0 1 -13.086 4.045 177.421 177.421 0 0 0 -21.925 0 19.6 19.6 0 0 1 -13.079-4.041c-8.388-6.4-16.166-9.543-22.311-10.9a12.618 12.618 0 0 0 -13.059 5.05c-12.256 17.431-9.054 37.99-6.679 47.2a18.1 18.1 0 0 1 -.436 10.323c-4.452 13.118-6.078 22.734-6.515 29.361a28.782 28.782 0 0 0 7.76 21.572 48.446 48.446 0 0 0 4.053 3.849 50.525 50.525 0 0 0 32.7 11.655h57.065a50.528 50.528 0 0 0 32.7-11.655 48.6 48.6 0 0 0 4.053-3.849 28.789 28.789 0 0 0 7.757-21.572z" fill="#f0f2ff"/><path d="m116.254 28.621a23.278 23.278 0 0 1 6.713 3.9 6.782 6.782 0 0 1 .476 9.933l-11.343 11.515a2.035 2.035 0 0 1 -3.482-1.269 39.185 39.185 0 0 1 5.555-23.379 1.733 1.733 0 0 1 2.081-.7z" fill="#f74f73"/><circle cx="142.534" cy="75.129" fill="#535f70" r="9.091"/><circle cx="183.753" cy="75.129" fill="#535f70" r="9.091"/><path d="m210.028 28.624a23.237 23.237 0 0 0 -6.708 3.894 6.783 6.783 0 0 0 -.476 9.933l11.346 11.518a2.036 2.036 0 0 0 3.483-1.269 39.186 39.186 0 0 0 -5.552-23.374 1.738 1.738 0 0 0 -2.093-.702z" fill="#f74f73"/><g fill="#9eb4d8"><path d="m139.971 107.8a2.991 2.991 0 0 1 -2.008-.772c-12.587-11.351-27.646-5.468-27.8-5.407a3 3 0 0 1 -2.245-5.565c.757-.305 18.718-7.317 34.059 6.516a3 3 0 0 1 -2.01 5.228z"/><path d="m113.916 116.74a3 3 0 0 1 -1.253-5.727c4.2-1.925 15.087-5.831 25.544-.519a3 3 0 0 1 -2.717 5.35c-8.127-4.128-16.922-.94-20.325.622a2.992 2.992 0 0 1 -1.249.274z"/><path d="m186.316 107.8a2.989 2.989 0 0 0 2.008-.772c12.587-11.351 27.647-5.468 27.8-5.407a3 3 0 0 0 2.244-5.565c-.757-.305-18.718-7.317-34.058 6.516a3 3 0 0 0 2.009 5.228z"/><path d="m212.458 116.74a3 3 0 0 0 1.253-5.727c-4.2-1.925-15.088-5.831-25.544-.519a3 3 0 1 0 2.717 5.35c8.127-4.128 16.922-.94 20.325.622a2.985 2.985 0 0 0 1.249.274z"/><path d="m181.33 118.13a3.8 3.8 0 0 0 -3.764 1.25 6.278 6.278 0 0 1 -4.838 1.758q-.155 0-.306 0a5.4 5.4 0 0 1 -5.278-5.412v-7.735a4.116 4.116 0 0 0 -3.607-4.153 4 4 0 0 0 -4.393 3.981v7.907a5.4 5.4 0 0 1 -5.279 5.412q-.151 0-.306 0a6.274 6.274 0 0 1 -4.837-1.758 3.8 3.8 0 0 0 -3.765-1.25 4.044 4.044 0 0 0 -2.12 6.669 13.986 13.986 0 0 0 10.722 4.339 16.286 16.286 0 0 0 9.585-2.669 16.28 16.28 0 0 0 9.584 2.669 13.987 13.987 0 0 0 10.723-4.339 4.044 4.044 0 0 0 -2.121-6.669z"/></g><path d="m122.206 264.844 43.581-35.219c-.143-.192-.284-.387-.428-.578a34.458 34.458 0 0 0 -5.1-5.431l-40.707 32.9a57.32 57.32 0 0 0 2.654 8.328z" fill="#ffc257"/><path d="m135.5 285.941 43.606-35.552c-1.259-2.228-2.659-4.626-4.174-7.108l-44.24 36.069z" fill="#ffc257"/><path d="m186.9 265.426-41.387 34.132a30.2 30.2 0 0 0 6.037 5.582l38.431-31.695a68.461 68.461 0 0 0 -3.081-8.019z" fill="#ffc257"/><path d="m109.825 300.685a99.115 99.115 0 0 1 -33.443-22.717 53.275 53.275 0 0 0 10.84 18.688s8.46 5.7 21.857 7.02a1.559 1.559 0 0 0 .746-2.991z" fill="#9eb4d8"/><path d="m249.119 281.739c-7.484 7.766-18.145 13.827-25.383 17.389a1.743 1.743 0 0 0 1.005 3.289c10.1-1.335 15-5.761 15-5.761a50.937 50.937 0 0 0 9.378-14.917z" fill="#9eb4d8"/><circle cx="163.144" cy="170.673" fill="#ffc257" r="14.754"/><path d="m168.959 171.475h-11.63a2.665 2.665 0 0 0 -2.665 2.665 2.665 2.665 0 0 0 2.665 2.665h3.15v8.37a14.218 14.218 0 0 0 5.33 0v-8.37h3.15a2.665 2.665 0 0 0 2.664-2.665 2.665 2.665 0 0 0 -2.664-2.665z" fill="#ea8a42"/><path d="m204.389 227.973a2.842 2.842 0 0 0 4.792 2.927c9.435-11.446 21.426-11.492 21.426-11.492v-10c-15.161 1.546-22.607 10.044-26.218 18.565z" fill="#9eb4d8"/><path d="m155.486 93.784a3.626 3.626 0 0 0 -3.524 4.495 13.014 13.014 0 0 0 4.915 7.471 10.537 10.537 0 0 0 12.534 0 13.018 13.018 0 0 0 4.915-7.471 3.627 3.627 0 0 0 -3.524-4.495z" fill="#f74f73"/><path d="m156.373 96.164h3.59a1.411 1.411 0 0 1 1.132 2.252l-2.5 3.362a1.4 1.4 0 0 1 -2.248.023 8.788 8.788 0 0 1 -1.589-3.736 1.634 1.634 0 0 1 1.615-1.901z" fill="#ffb0c8"/><circle cx="140.153" cy="73.505" fill="#fff" r="3.022"/><circle cx="181.163" cy="73.32" fill="#fff" r="3.022"/><path d="m256.6 82.994a3.5 3.5 0 0 1 -3.375-2.581l-3.085-11.331a3.5 3.5 0 1 1 6.754-1.839l3.084 11.331a3.5 3.5 0 0 1 -3.378 4.42z" fill="#f74f73"/><path d="m138.982 217.566a3.479 3.479 0 0 1 -1.655-.418 67.8 67.8 0 0 1 -11.514-8.2 3.5 3.5 0 0 1 4.684-5.2 61.6 61.6 0 0 0 10.147 7.241 3.5 3.5 0 0 1 -1.662 6.582z" fill="#f74f73"/><path d="m128.153 230.077a3.479 3.479 0 0 1 -1.655-.418 67.8 67.8 0 0 1 -11.514-8.2 3.5 3.5 0 0 1 4.683-5.2 61.646 61.646 0 0 0 10.147 7.241 3.5 3.5 0 0 1 -1.661 6.582z" fill="#f74f73"/><circle cx="156.585" cy="164.934" fill="#ffefd7" r="3.207"/><path d="m81.668 167.059 2.174 2.3a6.669 6.669 0 0 1 1.134 7.595 49.22 49.22 0 0 0 -5.142 17.331 2.369 2.369 0 0 1 -4.6.49 49.632 49.632 0 0 1 -1.478-25.4 4.639 4.639 0 0 1 7.912-2.316z" fill="#fff"/><path d="m106.62 73.139a62.745 62.745 0 0 0 -3.177 9.774 4.452 4.452 0 0 0 5.679 5.306 47.1 47.1 0 0 1 8.851-1.935 4.427 4.427 0 0 0 2.984-7.11 47.638 47.638 0 0 0 -7.522-7.719 4.419 4.419 0 0 0 -6.815 1.684z" fill="#fff"/></svg>