<svg id="icons" height="512" viewBox="0 0 340 340" width="512" xmlns="http://www.w3.org/2000/svg"><path d="m64.786 65.348h32.578v247.443h-32.578z" fill="#f74f73"/><path d="m99.926 312.791h-37.7a9.151 9.151 0 0 0 -9.151 9.151v8.058h56v-8.058a9.151 9.151 0 0 0 -9.149-9.151z" fill="#373d4c"/><path d="m242.637 65.348h32.578v247.443h-32.578z" fill="#f74f73" transform="matrix(-1 0 0 -1 517.851 378.139)"/><path d="m240.074 312.791h37.7a9.151 9.151 0 0 1 9.151 9.151v8.058h-56v-8.058a9.151 9.151 0 0 1 9.149-9.151z" fill="#373d4c"/><path d="m64.786 123.242h32.578v64.48h-32.578z" fill="#c12140"/><path d="m242.637 123.242h32.578v64.48h-32.578z" fill="#c12140"/><path d="m171.582 201.317a4 4 0 0 1 -4-4v-34.6a4 4 0 1 1 8 0v34.6a4 4 0 0 1 -4 4z" fill="#e2b088"/><path d="m216.759 201.611a4 4 0 0 1 -4-4v-34.6a4 4 0 0 1 8 0v34.6a4 4 0 0 1 -4 4z" fill="#e2b088"/><path d="m123.911 201.611a4 4 0 0 1 -4-4v-34.6a4 4 0 0 1 8 0v34.6a4 4 0 0 1 -4 4z" fill="#e2b088"/><path d="m172.869 190.872 6.55 6.006a1.811 1.811 0 0 1 .025 2.646l-3.177 3.025a1.81 1.81 0 0 0 0 2.621l6.069 5.8a1.81 1.81 0 0 1 .146 2.461l-4.779 5.8a1.811 1.811 0 0 0 .211 2.519l5.468 4.747a1.811 1.811 0 0 1 .138 2.6l-12.086 12.992a1.811 1.811 0 0 1 -2.595.057l-5.264-5.178a1.811 1.811 0 0 1 -.094-2.481l4.648-5.33a1.811 1.811 0 0 0 -.048-2.433l-5.317-5.632a1.811 1.811 0 0 1 -.01-2.475l4.36-4.7a1.81 1.81 0 0 0 -.076-2.54l-7.336-7.014a1.81 1.81 0 0 1 -.038-2.58l10.694-10.848a1.81 1.81 0 0 1 2.511-.063z" fill="#e4e6f4"/><path d="m218.046 191.166 6.55 6.007a1.811 1.811 0 0 1 .025 2.646l-3.177 3.024a1.81 1.81 0 0 0 0 2.621l6.069 5.8a1.81 1.81 0 0 1 .146 2.461l-4.779 5.8a1.811 1.811 0 0 0 .211 2.519l5.468 4.747a1.811 1.811 0 0 1 .138 2.6l-12.086 12.992a1.809 1.809 0 0 1 -2.595.057l-5.264-5.178a1.811 1.811 0 0 1 -.094-2.481l4.648-5.33a1.811 1.811 0 0 0 -.048-2.433l-5.317-5.632a1.811 1.811 0 0 1 -.01-2.475l4.36-4.7a1.81 1.81 0 0 0 -.076-2.54l-7.336-7.014a1.81 1.81 0 0 1 -.038-2.58l10.694-10.847a1.811 1.811 0 0 1 2.511-.064z" fill="#e4e6f4"/><path d="m125.2 191.166 6.55 6.007a1.811 1.811 0 0 1 .025 2.646l-3.178 3.024a1.812 1.812 0 0 0 0 2.621l6.07 5.8a1.812 1.812 0 0 1 .146 2.461l-4.779 5.8a1.811 1.811 0 0 0 .21 2.519l5.468 4.747a1.811 1.811 0 0 1 .139 2.6l-12.086 12.992a1.81 1.81 0 0 1 -2.6.057l-5.265-5.18a1.811 1.811 0 0 1 -.095-2.481l4.648-5.33a1.81 1.81 0 0 0 -.048-2.433l-5.316-5.632a1.811 1.811 0 0 1 -.01-2.475l4.359-4.7a1.81 1.81 0 0 0 -.076-2.54l-7.336-7.014a1.812 1.812 0 0 1 -.038-2.58l10.694-10.847a1.812 1.812 0 0 1 2.518-.062z" fill="#e4e6f4"/><path d="m10 10s5 8.861 6.1 16.182c.011.073.023.146.034.218a16.824 16.824 0 0 0 16.681 14.057h274.37a16.824 16.824 0 0 0 16.679-14.057c.011-.072.023-.145.034-.218 1.102-7.321 6.102-16.182 6.102-16.182z" fill="#373d4c"/><path d="m39.242 40.457s4.09 7.242 4.987 13.224c.009.06.019.12.028.179a13.749 13.749 0 0 0 13.631 11.488h224.224a13.749 13.749 0 0 0 13.631-11.488c.009-.059.019-.119.028-.179.9-5.982 4.987-13.224 4.987-13.224z" fill="#f74f73"/><path d="m151.718 65.348h36.565v43.697h-36.565z" fill="#373d4c"/><path d="m277.742 153.6h-215.484a9.408 9.408 0 0 0 0 18.816h215.484a9.408 9.408 0 0 0 0-18.816z" fill="#f4dcc6"/><g fill="#e2b088"><path d="m73.677 172.415h9.477c-4.411-5.278-5.927-13.9-6.442-18.816h-8.044c.412 4.442 1.601 12.177 5.009 18.816z"/><path d="m101.679 172.415h9.477c-4.411-5.278-5.926-13.906-6.442-18.816h-8.044c.413 4.442 1.602 12.177 5.009 18.816z"/><path d="m130.141 172.415h9.477c-4.411-5.278-5.927-13.906-6.442-18.816h-8.044c.412 4.442 1.601 12.177 5.009 18.816z"/><path d="m158.143 172.415h9.477c-4.412-5.278-5.927-13.906-6.443-18.816h-8.043c.412 4.442 1.601 12.177 5.009 18.816z"/><path d="m188.164 172.415h9.478c-4.412-5.278-5.927-13.906-6.443-18.816h-8.044c.413 4.442 1.602 12.177 5.009 18.816z"/><path d="m216.167 172.415h9.477c-4.412-5.278-5.927-13.9-6.443-18.816h-8.044c.412 4.442 1.602 12.177 5.01 18.816z"/><path d="m241.84 172.415h9.477c-4.411-5.278-5.927-13.906-6.442-18.816h-8.044c.412 4.442 1.601 12.177 5.009 18.816z"/><path d="m269.842 172.415h7.9a9.438 9.438 0 0 0 1.475-.127c-4.332-5.288-5.829-13.817-6.34-18.689h-8.044c.412 4.442 1.602 12.177 5.009 18.816z"/></g><path d="m242.637 65.348h32.578v14.721h-32.578z" fill="#c12140"/><path d="m64.786 65.348h32.578v14.721h-32.578z" fill="#c12140"/><path d="m170 109.045h-136.656l5.425 18.082a12.175 12.175 0 0 0 11.662 8.673h239.138a12.175 12.175 0 0 0 11.662-8.677l5.425-18.082z" fill="#f74f73"/></svg>