<svg id="icons" height="512" viewBox="0 0 340 340" width="512" xmlns="http://www.w3.org/2000/svg"><path d="m220.341 15.859h-105.871c-.658 32.211-18.543 41.724-24.534 44.011a1.821 1.821 0 0 0 -.889 2.657 18.558 18.558 0 0 0 7.025 6.314 26.662 26.662 0 0 0 12.773 3.114h117.121a26.658 26.658 0 0 0 12.772-3.114 18.568 18.568 0 0 0 7.026-6.314 1.822 1.822 0 0 0 -.89-2.657c-5.99-2.287-23.874-11.8-24.533-44.011z" fill="#4c5768"/><path d="m114.482 71.955h105.846v35.924h-105.846z" fill="#fff4eb"/><path d="m114.482 71.955h105.846v7.032h-105.846z" fill="#ceb29f"/><path d="m275.461 248.171v41.314h-151.686v-47.538z" fill="#fff4eb"/><path d="m123.775 289.485h21.373v-31.415h130.313v-9.899l-151.686-6.224z" fill="#ceb29f"/><path d="m167.405 137.753h-78.389v29.18h78.389 78.39v-29.18z" fill="#ceb29f"/><path d="m167.405 180.219h-92.474v53.962h92.474 92.475v-53.962z" fill="#fff4eb"/><rect fill="#47413f" height="12.514" rx=".952" width="19.691" x="131.098" y="197.807"/><path d="m251.916 107.879h-169.022a60.419 60.419 0 0 1 -12.649 26.482 2.069 2.069 0 0 0 1.587 3.392h191.146a2.069 2.069 0 0 0 1.587-3.392 60.419 60.419 0 0 1 -12.649-26.482z" fill="#4c5768"/><path d="m219.477 137.753a229.385 229.385 0 0 1 -32.351-29.874h-39.441a229.385 229.385 0 0 1 -32.351 29.874z" fill="#2f3a47"/><rect fill="#47413f" height="12.514" rx=".952" transform="matrix(-1 0 0 -1 387.734 408.128)" width="19.691" x="184.021" y="197.807"/><rect fill="#47413f" height="12.514" rx=".952" width="19.691" x="163.311" y="264.209"/><path d="m259.88 180.219h-184.949v53.962h56.234l8.529-8.943s-18.738-10.059-33.9-26.665a3.332 3.332 0 0 1 2.44-5.594h151.646z" fill="#ceb29f"/><rect fill="#47413f" height="12.514" rx=".952" transform="matrix(-1 0 0 -1 452.16 540.933)" width="19.691" x="216.234" y="264.209"/><path d="m56.233 169.134a22.748 22.748 0 0 0 11.268 13.5 18.75 18.75 0 0 0 8.766 2.13h182.277a18.753 18.753 0 0 0 8.766-2.13 22.746 22.746 0 0 0 11.278-13.534 1.545 1.545 0 0 0 -1.575-1.985c-21.118 1.469-42.006-8.354-59.794-21.1h-99.627c-17.792 12.746-38.676 22.569-59.792 21.1a1.552 1.552 0 0 0 -1.567 2.019z" fill="#4c5768"/><path d="m166.44 97.908c-4.842 6.372-27.41 34.912-56.6 53.336a1.211 1.211 0 0 0 .646 2.238h113.843a1.212 1.212 0 0 0 .647-2.238c-29.2-18.424-51.764-46.964-56.6-53.336a1.211 1.211 0 0 0 -1.936 0z" fill="#4c5768"/><path d="m165.991 116.105c-4.3 5.532-18.014 22.212-35.658 34.1a1.789 1.789 0 0 0 .994 3.277h72.157a1.789 1.789 0 0 0 .993-3.277c-17.644-11.888-31.356-28.568-35.657-34.1a1.789 1.789 0 0 0 -2.829 0z" fill="#fff4eb"/><rect fill="#47413f" height="10.722" rx=".952" width="16.871" x="158.97" y="133.157"/><path d="m123.775 225.238h144.586a16.352 16.352 0 0 1 11.562 4.79l16.577 16.572a2.07 2.07 0 0 1 -1.464 3.534h-171.261z" fill="#4c5768"/><path d="m157.183 234.628a182.67 182.67 0 0 1 -17.489-9.39h-15.919v24.9h26.186l7.879-13.423a1.471 1.471 0 0 0 -.657-2.087z" fill="#2f3a47"/><path d="m123.775 289.485h151.686v42.037h-151.686z" fill="#665e5b"/><path d="m94.848 210.321-39.134 27.367v34.902h39.134 39.134v-34.902z" fill="#fff4eb"/><path d="m114.47 15.859v-6.632a.748.748 0 0 1 1.423-.323l5.325 6.955z" fill="#4c5768"/><path d="m220.328 15.859v-6.632a.748.748 0 0 0 -1.423-.323l-5.325 6.955z" fill="#4c5768"/><path d="m55.714 237.688v15.9c11.052-6.117 27.312-16.157 39.134-27.071 13.292 11.96 29.712 21.841 39.134 26.662v-15.491l-39.134-27.367z" fill="#ceb29f"/><path d="m209.212 289.485h-7v17.519h-33.948v-17.519h-7v17.519h-37.489v7h37.489v17.519h7v-17.519h33.948v17.519h7v-17.519-7z" fill="#473f3b"/><path d="m250.161 307.004v-17.519h-7v17.519h-26.405v7h26.405v17.519h7v-17.519h25.3v-7z" fill="#473f3b"/><path d="m93.047 198.558c-15.376 17.976-50.156 35.623-50.156 35.623l5.022 8.091a5.269 5.269 0 0 0 6.927 1.875c17.07-8.924 33.977-22.852 38.707-26.866a2.006 2.006 0 0 1 2.6 0c4.73 4.014 21.637 17.942 38.707 26.866a5.269 5.269 0 0 0 6.927-1.875l5.022-8.091s-34.78-17.647-50.156-35.623a2.359 2.359 0 0 0 -3.6 0z" fill="#4c5768"/><path d="m123.775 289.485h21.373v42.037h-21.373z" fill="#473f3b"/><path d="m55.714 272.59h78.268v58.932h-78.268z" fill="#665e5b"/><path d="m84.65 272.59h-7v25.967h-21.936v7h21.936v25.966h7v-25.966-7z" fill="#473f3b"/><path d="m133.982 298.557h-22.229l-.172-25.967h-7l.172 25.967h-14.034v7h14.08l.172 25.966h7l-.172-25.966h22.183z" fill="#473f3b"/><g fill="#ceb29f"><path d="m150.095 75.721h-7v14.462h-28.613v7h28.613v10.696h7v-10.696-7z"/><path d="m191.716 90.183v-14.462h-7v14.462h-29.098v7h29.098v10.696h7v-10.696h28.612v-7z"/></g></svg>