<svg id="icons" height="512" viewBox="0 0 340 340" width="512" xmlns="http://www.w3.org/2000/svg"><path d="m10 235.307h250.237s52.873-1.326 55.731-31.387c0 0 2.3-24.939-39.536-30.06 0 0-3.36-.305-8.866-1.333 0 0-31.018 0-56.922-21.74-8.534-7.161-19.686-10.306-30.827-10.306l-4-1.393h-165.817z" fill="#f0f2ff"/><path d="m10 250.243h320v19.539h-320z" fill="#4c5768"/><path d="m210.787 149.268a52.878 52.878 0 0 0 -30.954-10.18h-4.016v19.676a13.761 13.761 0 0 0 13.761 13.761h77.988c-12.558-2.342-36.286-8.441-56.779-23.257z" fill="#4c5768"/><path d="m315.9 201.567c-15.6 10.969-45.024 9.715-45.024 9.715h-260.876v24.025h250.237s52.873-1.327 55.731-31.387a13.7 13.7 0 0 0 -.068-2.353z" fill="#608ed8"/><path d="m92.288 162.782h22v48.5h-22z" fill="#4c5768"/><path d="m50.833 162.782h22v22h-22z" fill="#4c5768"/><path d="m10 162.782h22v22h-22z" fill="#4c5768"/><path d="m133.742 162.782h22v22h-22z" fill="#4c5768"/><g fill="#c9dae2"><path d="m330 78.218h-136.333a4 4 0 0 1 0-8h136.333a4 4 0 0 1 0 8z"/><path d="m164.768 78.218h-1a4 4 0 0 1 0-8h1a4 4 0 0 1 0 8z"/><path d="m137.169 78.218h-22.283a4 4 0 0 1 0-8h22.283a4 4 0 0 1 0 8z"/><path d="m91.748 78.218h-81.748a4 4 0 0 1 0-8h81.748a4 4 0 0 1 0 8z"/><path d="m307.99 97.651h-75.664a4 4 0 0 1 0-8h75.664a4 4 0 0 1 0 8z"/><path d="m208.161 97.651h-6.289a4 4 0 0 1 0-8h6.289a4 4 0 0 1 0 8z"/><path d="m175.817 97.651h-142.827a4 4 0 0 1 0-8h142.827a4 4 0 0 1 0 8z"/><path d="m330 120.369h-22.529a4 4 0 0 1 0-8h22.529a4 4 0 0 1 0 8z"/><path d="m280.657 120.369h-140.026a4 4 0 0 1 0-8h140.026a4 4 0 0 1 0 8z"/><path d="m116.8 120.369h-2.318a4 4 0 0 1 0-8h2.318a4 4 0 0 1 0 8z"/><path d="m88.328 120.369h-78.328a4 4 0 0 1 0-8h78.328a4 4 0 0 1 0 8z"/></g></svg>