<svg id="icons" height="512" viewBox="0 0 340 340" width="512" xmlns="http://www.w3.org/2000/svg"><path d="m139.5 40.551h-7.757l1.963-29.9a1.92 1.92 0 0 1 3.832 0z" fill="#c12140"/><path d="m167.418 203.022h-63.593s-13.225 82.178-55.097 126.35h43.8s7.67-48.113 43.092-48.113 43.091 48.113 43.091 48.113h43.8c-41.87-44.172-55.093-126.35-55.093-126.35z" fill="#f74f73"/><path d="m150.692 82.835h-30.141c-.973 60.319-11.4 101.882-11.4 101.882h52.949s-10.435-41.563-11.408-101.882z" fill="#f74f73"/><path d="m110.27 179.775 25.352-16.347 25.351 16.347c-.51-2.381-1.164-5.594-1.894-9.55l-17.224-11.107 13.867-9.887q-.562-4.087-1.106-8.579l-12.916-8.919 11.142-8q-.369-4.136-.692-8.492l-10.744-7.141 9.811-8.429q-.2-4.386-.341-8.936l-15.254 13.107-15.255-13.111q-.137 4.549-.341 8.936l9.811 8.428-10.745 7.148q-.321 4.355-.692 8.492l11.142 8-12.915 8.918q-.54 4.485-1.1 8.581l13.867 9.886-17.225 11.107c-.735 3.954-1.389 7.166-1.899 9.548zm14.632-59.99 10.72-7.131 10.719 7.131-10.719 7.694zm-2.763 25.568 13.483-9.311 13.483 9.311-13.483 9.613z" fill="#c12140"/><path d="m120.205 95.435h30.834q-.238-6.15-.347-12.6h-30.141q-.104 6.449-.346 12.6z" fill="#c12140"/><path d="m144.782 41.814a6.473 6.473 0 0 0 -6.45-5.849h-5.421a6.471 6.471 0 0 0 -6.449 5.849c-.617 6.4-1.98 16.783-4.769 24.517h27.857c-2.789-7.731-4.15-18.116-4.768-24.517z" fill="#f74f73"/><rect fill="#e3e7fc" height="16.504" rx="2.083" width="43.204" x="114.019" y="66.331"/><path d="m145.788 54.089h-20.333a4 4 0 1 1 0-8h20.333a4 4 0 0 1 0 8z" fill="#e3e7fc"/><path d="m222.515 329.372c-1.41-1.487-2.782-3.023-4.127-4.593q-1.022-1.192-2.018-2.416-.53-.649-1.054-1.306a174.521 174.521 0 0 1 -16.939-26.01c-2.6-4.831-5.017-9.743-7.243-14.66l-8.579-6.5 4.41-3.214q-1.579-3.879-3.014-7.7l-8.057 5.872-13.794-10.445 16.579-10.588c-1.78-5.534-3.32-10.795-4.641-15.64l-10.1-6.989 7.125-4.665c-.746-3.137-1.37-5.945-1.875-8.335l-12.351 8.087-17.21-11.908v-5.336h-8v5.336l-17.211 11.908-12.35-8.087c-.506 2.391-1.13 5.2-1.876 8.335l7.126 4.665-10.1 6.989c-1.321 4.845-2.861 10.106-4.641 15.64l15.69 11.261-12.91 9.777-8.057-5.872q-1.434 3.819-3.014 7.7l4.411 3.214-8.58 6.5c-2.221 4.907-4.63 9.807-7.225 14.628a174.567 174.567 0 0 1 -16.958 26.044q-.52.652-1.047 1.3-1 1.227-2.027 2.427c-1.344 1.569-2.715 3.1-4.124 4.59h7.426l6.534-4.178h30.715c.469-1.948 1.157-4.475 2.1-7.318.11-.331.221-.666.338-1.006.105-.305.215-.615.326-.927.123-.346.25-.694.38-1.047.116-.314.237-.631.359-.951.139-.363.283-.73.43-1.1q.193-.484.395-.974.23-.553.472-1.114a67.238 67.238 0 0 1 7.642-13.5c.179-.24.358-.48.541-.718.318-.413.647-.82.979-1.224a40.4 40.4 0 0 1 11.114-9.614l-1.946-1.418-14.439-10.525 14.157-10.721 15.363 9.413v9.02a36.474 36.474 0 0 1 8 0v-9.02l15.56-9.264 13.96 10.572-14.435 10.519-1.946 1.418a40.4 40.4 0 0 1 11.112 9.612c.333.406.663.814.982 1.229.182.235.359.473.536.711a67.806 67.806 0 0 1 7.9 14.08q.459 1.087.87 2.148c.079.2.15.4.226.6.192.5.381 1 .558 1.491.092.255.176.5.264.754.149.424.3.847.435 1.259.087.259.168.511.251.765.127.392.252.78.369 1.158.676 2.175 1.195 4.119 1.573 5.684h30.72l6.534 4.178zm-115.421-42.072-8.844 5.655a12.044 12.044 0 0 1 -6.491 1.9h-3.117a12.051 12.051 0 0 1 -8.631-3.642l-.4-.413 15.832-11.99zm28.528-71.985 13.986 9.685-13.986 9.157-13.987-9.157zm-20.135 38.285-17.771-12.054 16.818-11.637 17.285 11.317zm20.135 11.936-12.613-7.6 12.613-9.552 12.233 9.265zm3.8-24.305 17.285-11.317 16.818 11.637-18.343 11.609zm36.378 37.58 15.963 12.089a12.045 12.045 0 0 1 -8.928 3.958h-3.35a12.044 12.044 0 0 1 -6.491-1.9l-8.844-5.658z" fill="#c12140"/><rect fill="#e3e7fc" height="21.116" rx="2.704" width="58.64" x="47.527" y="310.025"/><rect fill="#e3e7fc" height="21.116" rx="2.704" width="58.64" x="164.964" y="310.025"/><path d="m124.127 71.279h6.608v6.608h-6.608z" fill="#4c5768"/><path d="m140.508 71.279h6.608v6.608h-6.608z" fill="#4c5768"/><path d="m171.022 220.362c-2.521-10.62-3.6-17.34-3.6-17.34h-63.597s-1.083 6.72-3.6 17.34z" fill="#c12140"/><path d="m83.263 183.572 4.756 19.287a3.832 3.832 0 0 0 3.72 2.914h87.761a3.833 3.833 0 0 0 3.721-2.914l4.755-19.287a1.924 1.924 0 0 0 -1.869-2.386h-100.974a1.926 1.926 0 0 0 -1.87 2.386z" fill="#e3e7fc"/><path d="m93.352 316.38v3.127a5.687 5.687 0 0 1 -5.687 5.687h-40.138v3.244a2.7 2.7 0 0 0 2.7 2.7h53.232a2.7 2.7 0 0 0 2.7-2.7v-15.709a2.7 2.7 0 0 0 -2.7-2.7h-11.532a11.987 11.987 0 0 1 1.425 6.351z" fill="#afb9d3"/><path d="m212.2 316.38v3.52a5.3 5.3 0 0 1 -5.3 5.3h-41.936v3.244a2.7 2.7 0 0 0 2.7 2.7h53.236a2.7 2.7 0 0 0 2.7-2.7v-15.715a2.7 2.7 0 0 0 -2.7-2.7h-10.126a11.987 11.987 0 0 1 1.426 6.351z" fill="#afb9d3"/><path d="m85.706 193.48 2.313 9.379a3.832 3.832 0 0 0 3.72 2.914h87.761a3.833 3.833 0 0 0 3.721-2.914l2.312-9.379z" fill="#afb9d3"/><g fill="#4c5768"><path d="m131.721 189.48h8v8h-8z"/><path d="m108.259 189.48h8v8h-8z"/><path d="m155.182 189.48h8v8h-8z"/></g><circle cx="257.494" cy="54.089" fill="#f74f73" r="34.979"/></svg>