<svg id="icons" height="512" viewBox="0 0 340 340" width="512" xmlns="http://www.w3.org/2000/svg"><path d="m135.069 60.9s-11.7-1.3-14.651 9.5a15.7 15.7 0 0 0 -.4 5.842c.612 5.614 3.679 17.29 18.578 18.026z" fill="#577772"/><path d="m146.768 25.39a36.4 36.4 0 0 0 -2.892 7.274l51.681-.426a37.3 37.3 0 0 0 -2.62-6.779c-9.597-18.879-36.203-18.759-46.169-.069z" fill="#577772"/><path d="m280.09 279.283c-13.507-21.046-43.976-16.648-43.976-16.648h-132.227s-30.47-4.4-43.977 16.648c0 0-10.294 12.277-6.824 31.484a21.831 21.831 0 0 0 21.5 17.9h190.827a21.831 21.831 0 0 0 21.5-17.9c3.471-19.207-6.823-31.484-6.823-31.484z" fill="#9fbbba"/><path d="m236.114 262.635h-132.227a60.854 60.854 0 0 0 -24.652 2.309 27.326 27.326 0 0 0 22.579 11.441h136.371a27.327 27.327 0 0 0 22.58-11.441 60.85 60.85 0 0 0 -24.651-2.309z" fill="#577772"/><path d="m221.824 319.775a37.772 37.772 0 0 0 2.714-14.339v-21.121c0-8.61-2.853-16.068-8.07-21.68h-92.936c-5.217 5.612-8.07 13.07-8.07 21.68v21.121a37.794 37.794 0 0 0 2.714 14.339 31.123 31.123 0 0 0 5.383 8.888h92.882a31.123 31.123 0 0 0 5.383-8.888z" fill="#577772"/><path d="m202.262 262.439-63.213-.182c-4.2 1.774-14.376 14.121-14.376 14.121a26.562 26.562 0 0 0 -1.136 7.937v21.121a29.884 29.884 0 0 0 2.116 11.29c2.272 5.571 6.888 11.937 16.119 11.937h56.456c9.231 0 13.847-6.366 16.119-11.937a29.884 29.884 0 0 0 2.116-11.29v-21.121a26.562 26.562 0 0 0 -1.136-7.937s-8.867-12.164-13.065-13.939z" fill="#9fbbba"/><path d="m199.486 267.019a4.038 4.038 0 1 0 -7.858 1.863c.048.2 4.646 20.142-4.019 31.254-3.789 4.859-9.545 7.279-17.6 7.4-8.054-.116-13.815-2.53-17.608-7.382-8.616-11.022-4.109-30.947-4.033-31.274a4.038 4.038 0 0 0 -7.858-1.861c-.229.971-5.512 23.948 5.509 38.082 5.329 6.834 13.377 10.37 23.923 10.512h.108c10.546-.142 18.594-3.678 23.923-10.512 11.027-14.134 5.743-37.111 5.513-38.082z" fill="#577772"/><path d="m258.59 240.849a33.145 33.145 0 0 1 -.6-6.092v-51.648c-1.01-36.361-18.686-51.258-18.686-51.258-26.26-22.473-56.528-22.221-56.528-22.221h-25.554s-30.269-.252-56.529 22.221c0 0-17.676 14.9-18.685 51.258v51.648a33.146 33.146 0 0 1 -.6 6.092c-.936 5.005-1.567 16.53 10.218 23.4a28.335 28.335 0 0 0 14.289 3.7h128.168a28.335 28.335 0 0 0 14.289-3.7c11.785-6.87 11.154-18.395 10.218-23.4z" fill="#9fbbba"/><path d="m182.778 109.63h-25.556a81.269 81.269 0 0 0 -19 2.838 22.754 22.754 0 0 0 6.22 10.806l25.558 4.226 25.561-4.223a22.754 22.754 0 0 0 6.22-10.806 81.269 81.269 0 0 0 -19.003-2.841z" fill="#577772"/><path d="m215.82 239.174a27.153 27.153 0 0 0 -14.1-3.781h-.589a17.63 17.63 0 0 1 -7.121-1.456 65.178 65.178 0 0 0 -12.161-3.947 14.882 14.882 0 0 0 -3.149-.339 14.639 14.639 0 0 0 -8.7 2.866 14.654 14.654 0 0 0 -8.7-2.866 14.885 14.885 0 0 0 -3.15.339 65.178 65.178 0 0 0 -12.161 3.947 17.63 17.63 0 0 1 -7.121 1.456h-.589a27.153 27.153 0 0 0 -14.1 3.781c-13.616 8.253-12.3 24.06-11.559 28.776h114.759c.739-4.716 2.057-20.523-11.559-28.776z" fill="#577772"/><path d="m181.96 109.63h-23.92a64.734 64.734 0 0 0 -11.96 1.409v74.937c0 10.056 7.763 18.207 17.339 18.207h13.162c9.576 0 17.339-8.151 17.339-18.207v-74.937a64.734 64.734 0 0 0 -11.96-1.409z" fill="#9fbbba"/><path d="m204.931 60.9s11.7-1.3 14.651 9.5a15.7 15.7 0 0 1 .4 5.842c-.612 5.614-3.679 17.29-18.578 18.026z" fill="#577772"/><path d="m144.443 121.589c7.948 3.156 17.257 5.911 25.557 5.911 8.876 0 18.119-3.474 25.557-7.255v-9.178a72.456 72.456 0 0 0 -12.779-1.434h-25.556a72.456 72.456 0 0 0 -12.779 1.434z" fill="#577772"/><path d="m205.868 39.668a37.98 37.98 0 0 0 -11.686-12.329 43.663 43.663 0 0 0 -48.364 0 37.98 37.98 0 0 0 -11.686 12.329 34.251 34.251 0 0 0 -4.321 20.124c.551 6.8 2.5 16.362 8.679 23.347l31.51-36.839 31.511 36.841c6.175-6.985 8.127-16.549 8.678-23.347a34.243 34.243 0 0 0 -4.321-20.126z" fill="#577772"/><path d="m202.263 262.439h-64.525a22.4 22.4 0 0 0 -13.038 13.946h90.61a22.4 22.4 0 0 0 -13.047-13.946z" fill="#577772"/><path d="m197.755 51.285a14.422 14.422 0 0 0 -12.155-6.534h-31.2a14.423 14.423 0 0 0 -12.152 6.534c-6.676 10.373-7.176 23.872-7.176 23.872.238 17.36 7.022 27.28 12.068 32.275a44.908 44.908 0 0 0 4.421 3.6 20.858 20.858 0 0 0 12.4 4.08h12.094a20.857 20.857 0 0 0 12.4-4.079 45.045 45.045 0 0 0 4.421-3.6c5.046-5 11.83-14.915 12.068-32.275-.013-.001-.513-13.5-7.189-23.873z" fill="#9fbbba"/><g fill="#577772"><path d="m117.363 314.482a4.037 4.037 0 0 0 1.781-7.876c-26.932-6.086-24.3-32.817-24.169-33.969a4.038 4.038 0 0 0 -8.023-.922c-.04.349-3.676 35.065 30.411 42.767z"/><path d="m70.055 300.18c1.73 9.618 6.21 21.878 17.6 28.483h17.681c-12.636-4.394-23.877-16.431-31.036-29.935a2.271 2.271 0 0 0 -4.245 1.452z"/><path d="m270.8 300.18c-1.73 9.618-6.21 21.878-17.6 28.483h-17.684c12.642-4.394 23.879-16.431 31.039-29.935a2.271 2.271 0 0 1 4.245 1.452z"/><path d="m108.649 242.757a4.039 4.039 0 0 1 -3.433-6.155c.387-.63 9.658-15.4 24.16-14.842a14.12 14.12 0 0 1 8.262 3.168 4.037 4.037 0 0 1 -5.139 6.228 6.121 6.121 0 0 0 -3.306-1.323c-9.823-.369-17.032 10.889-17.1 11a4.032 4.032 0 0 1 -3.444 1.924z"/><path d="m126.589 229.947a4.015 4.015 0 0 1 -2.357-.762c-23.991-17.287-18.323-69.688-18.071-71.909a4.038 4.038 0 0 1 8.024.911c-.057.5-5.4 49.917 14.768 64.447a4.037 4.037 0 0 1 -2.364 7.313z"/><path d="m155.1 79.275a19.872 19.872 0 0 1 -6.661-1.109 3.532 3.532 0 1 1 2.376-6.653c1.876.669 5.81 1.458 11.079-.784a3.532 3.532 0 1 1 2.768 6.5 24.264 24.264 0 0 1 -9.562 2.046z"/><path d="m160.708 136.794c-8.848 0-13.912-3.528-16.265-5.809v9.923a32.826 32.826 0 0 0 16.265 3.961 4.038 4.038 0 0 0 0-8.075z"/><path d="m231.351 242.757a4.033 4.033 0 0 1 -3.436-1.913c-.1-.157-7-11.024-16.5-11.024-.169 0-.339 0-.51.011-.055 0-.11 0-.166 0a6.166 6.166 0 0 0 -3.24 1.322 4.037 4.037 0 0 1 -5.139-6.228 14.12 14.12 0 0 1 8.262-3.168c14.517-.559 23.772 14.211 24.16 14.842a4.039 4.039 0 0 1 -3.433 6.155z"/><path d="m213.411 229.947a4.037 4.037 0 0 1 -2.364-7.313c20.2-14.552 14.826-63.948 14.769-64.446a4.037 4.037 0 1 1 8.023-.912c.252 2.221 5.92 54.622-18.071 71.909a4.015 4.015 0 0 1 -2.357.762z"/><path d="m214.779 181.679v-48.029a4.038 4.038 0 0 0 -8.075 0v48.143c0 .082 0 .173.008.254.01.156.97 15.805-8.944 25.266-8.7 8.307-43.174 11.964-55.536 0-9.848-9.53-8.954-25.11-8.945-25.256q.009-.132.009-.264v-48.143a4.038 4.038 0 0 0 -8.075 0v48.029c-.1 1.939-.66 19.536 11.3 31.34 6.909 6.82 16.461 11.271 28.45 11.27h10.066c11.988 0 21.541-4.45 28.45-11.27 11.952-11.804 11.392-29.401 11.292-31.34z"/><path d="m170 89.388a10.271 10.271 0 0 1 -10.26-10.26v-8.268c-1.538-5.895-8.879-5.27-9.726-5.179a3.533 3.533 0 0 1 -.819-7.018c5.108-.612 15.352.914 17.532 11.043a3.578 3.578 0 0 1 .078.743v8.679a3.195 3.195 0 0 0 6.39 0v-8.679a3.513 3.513 0 0 1 .079-.743c2.179-10.127 12.416-11.648 17.531-11.043a3.533 3.533 0 0 1 -.821 7.018c-.859-.094-8.187-.711-9.724 5.179v8.268a10.271 10.271 0 0 1 -10.26 10.26z"/><path d="m184.905 79.275a24.26 24.26 0 0 1 -9.562-2.046 3.532 3.532 0 0 1 2.768-6.5c5.267 2.242 9.2 1.453 11.079.784a3.532 3.532 0 1 1 2.376 6.653 19.877 19.877 0 0 1 -6.661 1.109z"/><path d="m176.727 102.431h-13.454a3.533 3.533 0 1 1 0-7.065h13.454a3.533 3.533 0 1 1 0 7.065z"/><path d="m248.582 268.175a4.041 4.041 0 0 0 -3.556 4.461c.126 1.136 2.77 27.882-24.169 33.97a4.037 4.037 0 1 0 1.78 7.876c34.087-7.7 30.451-42.418 30.411-42.767a4.034 4.034 0 0 0 -4.466-3.54z"/><path d="m195.557 112.763a33.515 33.515 0 0 1 -23.634 10.624q-.942.033-1.923.034c-.534 0-1.061-.008-1.572-.023a33.324 33.324 0 0 1 -23.985-11.026v10.9a42.006 42.006 0 0 0 23.75 8.195c.593.017 1.194.027 1.807.027q1.132 0 2.217-.041a42.354 42.354 0 0 0 23.34-7.913z"/><path d="m195.557 129.613c-1.652 2.271-6.518 7.47-16.634 7.68a4.037 4.037 0 0 0 .082 8.073h.086a30.3 30.3 0 0 0 16.466-4.846z"/><path d="m144.443 180.326c.589.05 1.694.122 3.157.122 5.416 0 15.672-1.014 22.422-7.805 6.945 6.842 17.58 7.77 22.819 7.77 1.28 0 2.213-.055 2.716-.092v-8.088c-.126 0-.261.007-.386.019-.158.013-15.348 1.333-21.134-7.361v-12.891a4.037 4.037 0 0 0 -8.074 0v12.91c-5.759 8.882-20.922 7.371-21.071 7.351a3.962 3.962 0 0 0 -.449-.025z"/><path d="m170 61.682a3.562 3.562 0 0 1 -2.493-1.04 3.522 3.522 0 0 1 -.011-4.987 3.3 3.3 0 0 1 .545-.443 2.984 2.984 0 0 1 .607-.324 3.065 3.065 0 0 1 .665-.2 3.531 3.531 0 1 1 .687 7z"/><rect height="16.962" rx="3.335" transform="matrix(-.977 -.214 .214 -.977 232.916 213.754)" width="6.67" x="124.696" y="85.785"/><rect height="16.962" rx="3.335" transform="matrix(.977 -.214 .214 .977 -15.266 47.561)" width="6.67" x="208.633" y="85.785"/><path d="m189.648 188.3s-.308 11.715-19.648 11.715-19.639-11.715-19.639-11.715v-78.163c-1.718.21-3.7.5-5.918.927v76.245a18.525 18.525 0 0 0 18.526 18.525h14.062a18.525 18.525 0 0 0 18.526-18.525v-76.245c-2.212-.421-4.193-.716-5.909-.926z"/></g><path d="m167.081 254.552a8.4 8.4 0 0 0 -7.68 1.538 4.042 4.042 0 0 1 -6.116-.47 4.15 4.15 0 0 1 .63-5.457c3.153-2.965 8.136-3.914 9.4-4.114 2.287-.48 2.635-1.519 2.649-1.572v-.114a4.05 4.05 0 0 1 .111-.866c.669-7.329-6.642-7.589-6.642-7.589a58.732 58.732 0 0 0 -11.012 3.575 23.783 23.783 0 0 1 -9.553 1.966h-.589a21.106 21.106 0 0 0 -10.959 2.9c-12.225 7.41-8.546 23.6-8.546 23.6h38.012a13.211 13.211 0 0 0 12.075-7.859c.882-3.073.466-4.909-1.78-5.538z" fill="#9fbbba"/><path d="m212.681 244.353a21.106 21.106 0 0 0 -10.959-2.9h-.589a23.775 23.775 0 0 1 -9.552-1.966 58.77 58.77 0 0 0 -11.013-3.575s-7.3.259-6.645 7.566a3.962 3.962 0 0 1 .112.821c.049.325.39 1.281 2.65 1.754 1.257.2 6.2 1.139 9.359 4.075a4.223 4.223 0 0 1 .373 5.855 4.04 4.04 0 0 1 -5.818.111 7.075 7.075 0 0 0 -3.195-1.927 9.583 9.583 0 0 0 -2.518-.1c-1.765.461-4.32 1.558-3.737 6.047a13.209 13.209 0 0 0 12.066 7.841h38.012s3.679-16.192-8.546-23.602z" fill="#9fbbba"/><path d="m174.035 244.307v.056.108a.873.873 0 0 0 0-.164z" fill="#9fbbba"/><path d="m95.939 172.769a2.745 2.745 0 0 1 .644 1.989c-.363 4.72-1.573 23.257.825 34.343a16.48 16.48 0 0 1 -.913 10.285c-.248.549-.53 1.108-.852 1.669a2.75 2.75 0 0 1 -5.105-1.143c-.928-9.781-2.153-29.216.579-45.829a2.755 2.755 0 0 1 4.822-1.314z" fill="#c7e2df"/><path d="m243.768 176.352a50.562 50.562 0 0 1 -.3 8.327 11.608 11.608 0 0 0 4.463 10.476 2.324 2.324 0 0 0 3.752-1.773c.173-6.807.158-19.825-1.978-29.01a2.108 2.108 0 0 0 -4.09-.043l-1.048 4a26.363 26.363 0 0 0 -.799 8.023z" fill="#c7e2df"/><path d="m78.42 278.9v.723a9.22 9.22 0 0 1 -4.676 8.058 30.754 30.754 0 0 0 -11.614 10.925 2.251 2.251 0 0 1 -3.277.733l-.081-.06a2.221 2.221 0 0 1 -.856-2.316c.95-3.933 4.389-14.863 14.345-21.344a3.963 3.963 0 0 1 6.159 3.281z" fill="#c7e2df"/><path d="m131.241 296.307c.186 1.067.407 2.18.668 3.311a30.105 30.105 0 0 0 12.479 18.021 1.859 1.859 0 0 1 -.458 3.3l-.67.223a9.506 9.506 0 0 1 -12.053-6.117 51.416 51.416 0 0 1 -2-18.6 1.027 1.027 0 0 1 2.034-.138z" fill="#c7e2df"/><rect fill="#c7e2df" height="11.135" rx="2.481" width="4.962" x="153.917" y="150.558"/><path d="m152.164 48.578h14.573a1.162 1.162 0 0 1 .63 2.139l-1.053.678a20.216 20.216 0 0 1 -10.953 3.224h-7.3a1.163 1.163 0 0 1 -.971-1.8 10.448 10.448 0 0 1 4.638-4.16 1.223 1.223 0 0 1 .436-.081z" fill="#c7e2df"/><path d="m108.007 134.592a50.242 50.242 0 0 1 4.6-4.166 3.78 3.78 0 0 1 6.109 2.98v11.019a3.779 3.779 0 0 1 -3.779 3.779h-.309a3.781 3.781 0 0 1 -3.313-1.961l-3.938-7.176a3.784 3.784 0 0 1 .63-4.475z" fill="#c7e2df"/></svg>