<svg id="icons" height="512" viewBox="0 0 340 340" width="512" xmlns="http://www.w3.org/2000/svg"><path d="m44.319 84.277 11.381-7.253s60.249 86.328 84.071 111.152c0 0 11.907 12.061 15.474 22.574a43.05 43.05 0 0 1 .773 4.9l-14.288 11.712s-9.812-5.427-17.426-20.695c-2.147-4.305-4.506-9-7.013-13.108-10.278-16.833-38.385-58.524-72.972-109.282z" fill="#ffc49c"/><path d="m46.482 86.861c-7.648-12.011-8.665-13.744-21.26-33.982-3.6-5.779-9.875-13.732-13.264-19.636l-.922-1.607a6.445 6.445 0 0 1 2.264-8.728 6.445 6.445 0 0 1 8.814 2.132l.114.184c4.075 6.6 8.6 15.281 13.474 22.538 9.614 14.319 12.445 19 21.032 32.2z" fill="#ffc49c"/><path d="m123.61 206.5c7.614 15.267 17.287 21.542 17.287 21.542l15.334-12.429a17.488 17.488 0 0 0 -1-4.864l-5.512 3.415a10.981 10.981 0 0 1 -14.162-2.161 77.288 77.288 0 0 1 -9.806-15.727 205.957 205.957 0 0 0 -15.951-27.468l-51.83-74.775a5.559 5.559 0 0 1 1.03-7.453l2.165-1.788c-3.934-5.565-5.465-7.768-5.465-7.768l-11.835 7.543c34.586 50.758 62.563 92.445 72.84 109.28 2.506 4.106 4.757 8.353 6.905 12.653z" fill="#e28966"/><path d="m45.915 87.243 10.816-7.283c-1.115-1.715-2.13-3.281-3.079-4.747l-7.317 3.573-15.3-24.637a5.538 5.538 0 0 1 2.093-7.8l1.222-.654c-4.359-6.795-8.43-14.488-12.125-20.471l-.071-.115a6.446 6.446 0 0 0 -11.118 6.527l.922 1.607c3.389 5.9 9.155 14.338 12.752 20.117 12.595 20.24 13.558 21.872 21.205 33.883z" fill="#e28966"/><path d="m57.534 82.13-4.807 3.27-5.2 2.94c-3.23 2.2-6.822 1.75-9.021-1.481 0 0-1.616-7.327 1.614-9.526l3.532-2.872 5.922-4.031a7.076 7.076 0 0 1 9.826 1.87 7.075 7.075 0 0 1 -1.866 9.83z" fill="#e9ebfc"/><path d="m29.279 40.6-7.859 4.536c-1.586.916-2.964-.089-3.88-1.675l-10.027-17.061c-2.169-3.761 2.377-10.35 2.377-10.35a16.5 16.5 0 0 1 4.31-1.27 7.847 7.847 0 0 1 6.255 3.909l10.038 17.379a3.317 3.317 0 0 1 -1.214 4.532z" fill="#e9ebfc"/><path d="m256.465 21.372s-29.935 10.408-26.851 43.565l1.842 13.739c2.611 19.483 19.95 33.852 39.535 32.169q1.751-.151 3.605-.412s-.916-59.777-18.131-89.061z" fill="#363b42"/><path d="m236.549 38.689a168.113 168.113 0 0 0 26.451-1.933c-.911-2.29-1.877-4.522-2.9-6.675a164.272 164.272 0 0 1 -25.19 1.578 3.787 3.787 0 0 0 -2.829 1.193l-.058.064a3.5 3.5 0 0 0 2.853 5.767c.547.004 1.106.006 1.673.006z" fill="#e9ebfc"/><path d="m233.224 53.794a231.1 231.1 0 0 0 33.713-2.494c-.572-2.3-1.181-4.581-1.832-6.834a225.12 225.12 0 0 1 -34.2 2.269 3.512 3.512 0 0 0 -3.461 2.625l-.017.069a3.529 3.529 0 0 0 3.405 4.353q1.168.011 2.392.012z" fill="#e9ebfc"/><path d="m269.778 65.61c-.42-2.281-.873-4.583-1.361-6.89a255.478 255.478 0 0 1 -38.287 2.321 3.547 3.547 0 0 0 -3.6 3.856v.04l.011.073a3.553 3.553 0 0 0 3.475 3.052q1.633.02 3.436.021a255.584 255.584 0 0 0 36.326-2.473z" fill="#e9ebfc"/><path d="m272.092 81.409c-.305-2.25-.641-4.572-1.013-6.948a206.209 206.209 0 0 1 -39.438 2.039 3.465 3.465 0 0 0 -3.535 4.126l.018.1a3.461 3.461 0 0 0 3.252 2.807c2.854.118 6.023.195 9.442.195a204.5 204.5 0 0 0 31.274-2.319z" fill="#e9ebfc"/><path d="m272.974 89.834c-6.174 1.166-10.906 1.559-11.029 1.566-2.208.194-4.649.344-7.254.446-5.608.22-11.4.179-17.32-.115a3.57 3.57 0 0 0 -3.406 5.148c.059.115.121.23.185.345a3.565 3.565 0 0 0 3.034 1.817c3.277.062 7.417-.055 10.227-.055q3.852 0 7.614-.147c2.742-.107 5.321-.266 7.629-.469.445-.035 4.979-.41 11.045-1.52-.199-2.15-.442-4.504-.725-7.016z" fill="#e9ebfc"/><path d="m307.993 244.82s22.668 20.909 26.2 80.413h-7.212a14.559 14.559 0 0 1 -11.4-5.433c-3.67-4.607-8.595-12.682-12.915-26.182 0 0 2.783 11.558.477 28.48a3.634 3.634 0 0 1 -3.6 3.135h-44a3.62 3.62 0 0 1 -3.568-2.974 128.3 128.3 0 0 1 -1.684-27.353 54.818 54.818 0 0 1 -12.907 25.259 15.32 15.32 0 0 1 -11.477 5.068h-4.95s1.252-44.812 19.6-80.413z" fill="#535f70"/><path d="m264.8 244.82h-24.242a148.461 148.461 0 0 0 -8.626 20.652 71.884 71.884 0 0 0 32.868-20.652z" fill="#363b42"/><path d="m250.267 151.372s-26.99 23.816-31.124 40.108l-3.647 4.864 17.386 22.128 18.168-17.022z" fill="#acb9d4"/><path d="m219.908 195.365 22.092 25.535-51.657 32.782-14.971-16.931c12.025-10.412 24.776-24.717 36.3-40.972a5.238 5.238 0 0 1 8.236-.414z" fill="#363b42"/><path d="m164.369 222.052 47.066 55.515a8.119 8.119 0 0 1 -.884 10.574 8.119 8.119 0 0 1 -11.484-.118l-53.081-50.323z" fill="#acb9d4"/><path d="m134.055 242.268c2.512 2.724 6.111 3.385 8.986 1.047l28.567-23.232a7.016 7.016 0 0 0 .858-10.059 7.017 7.017 0 0 0 -9.7-.835l-19.579 15.87-8.666 7.686c-3.149 2.555-3.211 6.545-.466 9.523z" fill="#e9ebfc"/><path d="m251.988 139.247s-21.522 39.4-5.517 105.573h59.712s28.936-45.449 12.315-113.163z" fill="#535f70"/><path d="m288.783 135.048-36.8 4.2a60.706 60.706 0 0 0 -3 6.886 56.736 56.736 0 0 0 39.792 13.1z" fill="#363b42"/><path d="m318.5 131.657-34.57 3.943-6.353 49.32 39.555 35.083a159.253 159.253 0 0 0 5.595-71.468s-2.798-11.047-4.227-16.878z" fill="#e9ebfc"/><path d="m278.312 179.218-.735 5.7 22.173 19.666a69.03 69.03 0 0 0 8.826-31.233 9.933 9.933 0 0 0 -16.948-7.46z" fill="#acb9d4"/><path d="m280.9 159.141c11.466.913 25.561-1.394 41.827-10.6-.79-5.488-1.875-11.153-3.307-16.984l-35.49 4.043z" fill="#acb9d4"/><path d="m293.712 175.231s5.28 16.212 26.66 20.089a9.1 9.1 0 0 1 7.5 10.013c-1.141 9.362-4.888 23.449-16.857 30.4h-56.373z" fill="#535f70"/><path d="m293.712 175.231-39.07 60.5h22.018a43.744 43.744 0 0 0 22.592-30.25 67.436 67.436 0 0 0 6.7-15.7c-9.504-6.153-12.24-14.55-12.24-14.55z" fill="#363b42"/><path d="m246.16 232.46h69.373l-.91 5.927a7.839 7.839 0 0 1 -7.9 6.433h-58.023z" fill="#363b42"/><path d="m304 143.892 2.774 11.787a58.767 58.767 0 0 1 0 11.948s-4.288 21.11-12.727 33.989a51.193 51.193 0 0 0 -3.605 6.465c-3.012 6.47-11.751 21.317-29.929 25.483l-7.085.927-16.372-19.008s-3.96-22.885 17.98-47.355a55.062 55.062 0 0 0 5.883-7.88c4.829-7.848 18.22-24.078 43.081-16.356z" fill="#e9ebfc"/><path d="m290.438 208.081a51.193 51.193 0 0 1 3.605-6.465c8.443-12.884 11.771-24.558 12.717-33.99a45.488 45.488 0 0 1 -17.593 24.766 19.626 19.626 0 0 0 -6.656 8.486c-4.189 10.012-12.419 16.234-18.047 19.508a13.216 13.216 0 0 1 -11.086 1.046l-14.617-5.2-.392.782 15.055 17.48 7.085-.927c18.179-4.167 26.917-19.016 29.929-25.486z" fill="#acb9d4"/><path d="m238.574 213.284 18.357 18.18a5.548 5.548 0 0 1 -.236 8.1 95.987 95.987 0 0 1 -49.427 22.323l-12.444-14.317s19.672-18.225 35.644-34.264a5.739 5.739 0 0 1 8.106-.022z" fill="#535f70"/><path d="m150.731 235.928-6.459 5.252a6.828 6.828 0 0 0 .38 8.2l13.231 14.32a11.2 11.2 0 0 0 13.973.843l2.106-1.526a10.948 10.948 0 0 0 .889-14.785l-8.72-10.719a10.947 10.947 0 0 0 -15.4-1.585z" fill="#535f70"/><path d="m194.824 247.57s-11.973 1.311-22.891 17.405a6.238 6.238 0 0 0 .449 7.52l4.618 5.437.274.323a5.991 5.991 0 0 0 9.26-.371c8.691-10.543 19.026-10.333 20.38-14.809l.358-1.184z" fill="#535f70"/><g fill="#acb9d4"><path d="m255.8 37.719c2.4-.257 4.806-.572 7.2-.963-.911-2.29-1.877-4.522-2.9-6.675-2.284.346-4.589.619-6.88.838.68 1.663 1.58 3.981 2.58 6.8z"/><path d="m272.974 89.834c-6.174 1.166-10.906 1.559-11.029 1.566-2.208.194-4.649.344-7.254.446-.437.017-.883.022-1.323.036a38.268 38.268 0 0 1 -5.135 7.1c2.287-.009 4.555-.051 6.792-.139 2.742-.107 5.321-.266 7.629-.469.445-.035 4.979-.41 11.045-1.52-.199-2.154-.442-4.508-.725-7.02z"/><path d="m271.079 74.461c-4.122.648-8.2 1.12-12.161 1.462a57.651 57.651 0 0 1 -1.767 7.187c4.817-.362 9.831-.9 14.941-1.7-.305-2.251-.641-4.573-1.013-6.949z"/><path d="m259.94 66.816c3.23-.323 6.524-.719 9.838-1.206-.42-2.281-.873-4.583-1.361-6.89-2.826.411-5.644.751-8.423 1.036.073 2.209.07 4.583-.054 7.06z"/><path d="m306.773 155.725a41.156 41.156 0 0 0 -2.773-11.833c-20.337-6.317-33 3.4-39.576 11.433 10.186 4.03 24.569 6.326 42.349.4z"/><path d="m265.105 44.465q-3.456.5-6.771.866s.613 2.672 1.106 6.942c2.446-.281 4.936-.594 7.5-.974-.575-2.299-1.184-4.581-1.835-6.834z"/></g><path d="m259.227 16.813c.724-.194 1.53-.393 2.407-.585 24.882-5.464 47.522 15.129 44.989 40.478a111.89 111.89 0 0 1 -5.96 25.906c-.067.192-.138.378-.216.567a31.309 31.309 0 0 0 -1.95 8.259 10.51 10.51 0 0 0 4.938 9.976 71 71 0 0 1 24.08 26.075 6.439 6.439 0 0 1 -1.143 7.754c-8.616 8.253-33.807 26.74-72.475 8.054a6.447 6.447 0 0 1 -2.818-8.924c3.118-5.666 9.876-11.065 19.139-24.068 0 0 7.06-39.536-13.5-88.333a3.8 3.8 0 0 1 2.509-5.159z" fill="#535f70"/><path d="m284.8 101.147a40.3 40.3 0 0 0 -13.611-.7c-.344 5.663-.969 9.859-.969 9.859-.114.16-.223.3-.336.462a25.75 25.75 0 0 1 12.851-7.2s.75-.119 1.917-.221a1.112 1.112 0 0 0 .148-2.2z" fill="#363b42"/><path d="m207.268 261.891a95.978 95.978 0 0 0 49.426-22.323 5.547 5.547 0 0 0 .237-8.1l-3.462-3.428c-3.864 5.477-17.584 22-44.673 25.643a6.352 6.352 0 0 1 -2.974-.328l-3.3-1.182a2.6 2.6 0 0 0 -2.953.857z" fill="#363b42"/><path d="m207.268 261.891-7.7-8.865s3.974 8.454-4.082 12.985c0 0-6.57 3.227-10.2 8.811 0 0-3.037 4.744-8.292 3.11l.274.323a6.36 6.36 0 0 0 9.466.109c4.957-5.045 6.559-6.443 10.139-6.945l.181-.025a11.91 11.91 0 0 0 9.854-8.319z" fill="#363b42"/><path d="m25.777 42.621c-2.536-4.253-6.556-11.008-10.143-17.09-3.273-5.551-2.514-8.882-1.241-10.731a7.846 7.846 0 0 0 -7.538 11.74l10.035 17.382a3.316 3.316 0 0 0 4.53 1.214z" fill="#acb9d4"/><path d="m50.893 84.626a8.176 8.176 0 0 1 -2.7-2.775l-4.543-7.388-3.8 2.586a7.075 7.075 0 0 0 -1.868 9.83 7.074 7.074 0 0 0 9.83 1.868l4.915-3.347a7.038 7.038 0 0 1 -1.834-.774z" fill="#acb9d4"/><path d="m176.632 251.389a9.838 9.838 0 0 1 -7.674 5.125 12.518 12.518 0 0 1 -10.94-4.524l-10.988-13.053-2.758 2.243s-3.363 4.2 0 8.221l13.209 14.599s6.6 6.105 14.452.98l2.029-1.958a10.943 10.943 0 0 0 2.67-11.633z" fill="#363b42"/><path d="m172.216 209.766a11.11 11.11 0 0 1 -3.062 6.225c-2.22 2.45-9.529 8.277-14.75 12.34a7.2 7.2 0 0 1 -11.219-3.272l-9.029 7.318a7.016 7.016 0 0 0 -.74 10.207l.04.043a7.29 7.29 0 0 0 9.79.817l28.567-23.231a7.152 7.152 0 0 0 .653-10.189c-.08-.091-.166-.172-.25-.258z" fill="#acb9d4"/><path d="m252.01 282.329a1.327 1.327 0 0 0 -2.475-.848 54.981 54.981 0 0 0 -5.186 14.7c-2.039 9.613-12.633 22.19-22.985 22.41-.339 4.2-.407 6.644-.407 6.644h4.95a15.32 15.32 0 0 0 11.477-5.068 54.818 54.818 0 0 0 12.907-25.259s.798-6.773 1.719-12.579z" fill="#363b42"/><path d="m250.291 294.906c-.022.559-.036 1.1-.051 1.65.035-.593.06-1.156.051-1.65z" fill="#363b42"/><path d="m315.585 319.8a14.559 14.559 0 0 0 11.4 5.433h7.215c-.118-1.989-.261-3.928-.421-5.832-15.739-2.2-22.765-21.481-25.133-28.939a31.066 31.066 0 0 0 -6.672-10.9 1.327 1.327 0 0 0 -2.266 1.22c1.393 5.518 2.964 12.836 2.964 12.836 4.318 13.5 9.243 21.575 12.913 26.182z" fill="#363b42"/><path d="m303.147 322.1c.4-2.936.645-5.707.779-8.288a15.248 15.248 0 0 1 -7.526 3.188h-35.414a14.517 14.517 0 0 1 -10.206-3.581c.364 3.814.828 6.815 1.195 8.837a3.62 3.62 0 0 0 3.568 2.974h44.006a3.634 3.634 0 0 0 3.598-3.13z" fill="#363b42"/></svg>