<svg id="icon" height="512" viewBox="0 0 340 340" width="512" xmlns="http://www.w3.org/2000/svg"><path d="m240.655 126.74a35.933 35.933 0 0 1 4.821-20.892c.087-.147.175-.3.264-.442a12.6 12.6 0 0 1 7.847-5.7l5.576-1.339 5.673-7.57a16.57 16.57 0 0 1 12.007-5.152h15.515a16.438 16.438 0 0 1 13.061 6.375 61.223 61.223 0 0 1 6.464 10.385l-5.5 28.411-38.1 15.058c-15.296.169-24.883-5.802-27.628-19.134z" fill="#b1a7c6"/><path d="m314.154 133.249c4.376-11.547 1.82-22.413-2.275-30.843l-3.4 2.942a4.727 4.727 0 0 0 -1.673 3.6 14.673 14.673 0 0 1 -8.732 13.681 5.774 5.774 0 0 1 -1.479.461l-15.279 2.61a5.836 5.836 0 0 0 -4.552 3.906l-1.777 5.325a5.886 5.886 0 0 1 -4.364 3.874c-18.507 3.967-26.512-4.553-29.964-12.068a37.722 37.722 0 0 0 3.107 12.483l6.368 14.455c49.866 14.481 64.02-20.426 64.02-20.426z" fill="#736987"/><path d="m120.917 137.879 97.062 92.253h23.112v-12.939l-104.402-97.254z" fill="#7f4242"/><path d="m163.519 75.331 10.478 8.982-91.445 106.244v41.467h-16.464v-49.761z" fill="#7f4242"/><path d="m11.317 237.047q-.176-.447-.325-.91l-1.852-5.751a4.643 4.643 0 0 1 3-5.843l48.11-15.492c6.622.291 12.92-.27 17.4-5.6l90.763-29.225c17.211-3.025 33.1-6.709 42.455-13.67l22.763-7.33 5.222 16.217-205.141 69.281c-8.901 5.781-15.722 2.376-22.395-1.677z" fill="#d07a76"/><path d="m137.475 203.679a42.341 42.341 0 0 0 -56.169 18.971z" fill="#7f4242"/><path d="m241.562 177.857-3.225-10.014-2.909 1.058-6.935 2.522a5.851 5.851 0 0 1 -5.738-1l-11.888-9.873-42.455 13.67 13.988 12.726-104.783 33.504.032-17-17.4 5.6-2.349 17.559-22.378 6.6-12.832 3.921a15.554 15.554 0 0 1 -3.056.618 22.317 22.317 0 0 1 -8.3-.712 15.183 15.183 0 0 0 18.778 8.9z" fill="#7f4242"/><path d="m145.373 111.927 93.181 89.537-17.554 12.155-90.347-86.814c3.756-6.212 8.933-10.892 14.72-14.878z" fill="#d07a76"/><path d="m249.415 240.923 14.5-15.09-25.361-24.369a43.04 43.04 0 0 0 -17.554 12.155z" fill="#7f4242"/><path d="m119.9 116.472 10.753 10.333 14.72-14.878-10.973-10.545z" fill="#7f4242"/><path d="m59.564 164.441 88.067-102.73 15.888 13.62-87.972 102.62z" fill="#d07a76"/><path d="m59.564 164.441-10.216 11.916 15.889 13.621 10.31-12.027c-1.291-7.635-7.034-13.51-15.983-13.51z" fill="#7f4242"/><path d="m37.074 191.048h53.68a0 0 0 0 1 0 0v20.927a0 0 0 0 1 0 0h-53.68a10.464 10.464 0 0 1 -10.464-10.463 10.464 10.464 0 0 1 10.464-10.464z" fill="#d07a76" transform="matrix(0 1 -1 0 260.194 142.83)"/><path d="m331.085 249.859h-292.826a4.546 4.546 0 0 1 -4.547-4.546v-13.178a4.547 4.547 0 0 1 4.568-4.547l292.8 1.344z" fill="#7f4242"/><circle cx="119.05" cy="241.791" fill="#d07a76" r="36.498"/><circle cx="253.444" cy="241.791" fill="#d07a76" r="36.498"/><g fill="#7f4242"><path d="m85.813 256.867a36.5 36.5 0 0 0 3.153 5.585l45.055-53.947a36.246 36.246 0 0 0 -6.054-2.111z"/><path d="m108.568 276.754 43.014-51.505a36.607 36.607 0 0 0 -3.337-5.364l-45.545 54.535a36.3 36.3 0 0 0 5.868 2.334z"/><path d="m223.208 262.239 44.967-53.839a36.241 36.241 0 0 0 -6.091-2.067l-41.993 50.281a36.458 36.458 0 0 0 3.117 5.625z"/><path d="m242.7 276.678 43.155-51.673a36.438 36.438 0 0 0 -3.372-5.323l-45.621 54.618a36.267 36.267 0 0 0 5.838 2.378z"/><circle cx="124.639" cy="104.608" r="3.559"/><circle cx="58.682" cy="183.224" r="3.559"/><circle cx="107.983" cy="217.996" r="3.559"/><circle cx="138.186" cy="259.451" r="3.559"/><circle cx="106.258" cy="255.721" r="3.559"/><circle cx="241.091" cy="253.418" r="3.559"/><circle cx="274.939" cy="255.215" r="3.559"/><circle cx="241.562" cy="217.996" r="3.559"/></g><path d="m233.63 153.223a35.756 35.756 0 0 0 1.8 15.676l15.337 1.716c52.091 17.195 77.7-22.521 60.654-35.983a45.187 45.187 0 0 1 -23.731 16.176c-14.273 4.265-25.447 1.921-31.769-.4a19.856 19.856 0 0 0 -13.167-.244z" fill="#dce2f9"/><path d="m325.749 127.61-3.153-.594a8.288 8.288 0 0 0 -8.681 3.891 41.062 41.062 0 0 1 -2.491 3.726c2.336 8.26 2.586 18.862-6.561 27.16-12.805 11.616-34.272 7.093-44.961 3.79a23.181 23.181 0 0 0 -13.73-.022l-10.739 3.339a21.581 21.581 0 0 0 6.134 8.956l5.474-1.7a17.89 17.89 0 0 1 12.519.685 54.49 54.49 0 0 0 41.69 1.018c26.323-10.113 28.93-34.351 24.499-50.249z" fill="#7784b2"/><circle cx="281.134" cy="111.225" fill="#736987" r="3.559"/><circle cx="278.498" cy="100.12" fill="#736987" r="3.559"/><circle cx="290.68" cy="101.365" fill="#736987" r="3.559"/></svg>