<svg id="icon" height="512" viewBox="0 0 340 340" width="512" xmlns="http://www.w3.org/2000/svg"><path d="m311.112 47.174a15.41 15.41 0 0 0 0-6.616 32 32 0 0 1 17.052-7.495 1.849 1.849 0 0 0 1.091-3.147l-19.162-19.162a1.849 1.849 0 0 0 -3.147 1.091 32.01 32.01 0 0 1 -7.5 17.052 15.41 15.41 0 0 0 -6.616 0 32 32 0 0 1 -7.5-17.052 1.849 1.849 0 0 0 -3.147-1.091l-19.152 19.162a1.849 1.849 0 0 0 1.091 3.147 32.01 32.01 0 0 1 17.052 7.495 15.41 15.41 0 0 0 0 6.616 31.1 31.1 0 0 1 -21.135 7.65l25.145 25.146a31.1 31.1 0 0 1 7.651-21.135 15.41 15.41 0 0 0 6.616 0 32.01 32.01 0 0 1 7.5 17.052 1.849 1.849 0 0 0 3.147 1.091l19.162-19.162a1.849 1.849 0 0 0 -1.091-3.147 32 32 0 0 1 -17.057-7.495z" fill="#ffb655"/><circle cx="296.143" cy="43.866" fill="#f27b31" r="7.848"/><circle cx="232.536" cy="106.154" fill="#655baa" r="40.07"/><path d="m252.7 62.862h26.56a9.819 9.819 0 0 1 9.819 9.819v12.511a0 0 0 0 1 0 0h-46.193a0 0 0 0 1 0 0v-12.511a9.819 9.819 0 0 1 9.819-9.819z" fill="#ffb655" transform="matrix(.707 .707 -.707 .707 130.249 -166.396)"/><path d="m283.266 75.52-5.466-5.465-5.63 6.358a7.18 7.18 0 0 1 -7.653 2.052l-14.845-4.959 24.747 24.747 8.847-8.847a9.82 9.82 0 0 0 0-13.886z" fill="#f27b31"/><path d="m23.13 327.721a22.395 22.395 0 1 1 21.575-39.134c3.207 22.369-3.058 36.245-21.575 39.134z" fill="#ffb655"/><path d="m32.588 310.889s2.337 11.395-9.447 16.808a22.365 22.365 0 0 0 21.1-39.369l-8.531.9s-8.71 4.985-3.122 21.661z" fill="#f27b31"/><path d="m37.925 302.084a11.317 11.317 0 0 1 0-16l123.285-123.29 12.2 14.2z" fill="#ffb655"/><path d="m177.636 146.369-16.426 16.425.851 9.126a15.362 15.362 0 0 1 -4.517 12.374l-119.619 117.79a11.317 11.317 0 0 0 16.005 0l139.71-139.711z" fill="#f27b31"/><path d="m166.037 141.771h40.65a0 0 0 0 1 0 0v12.038a11.712 11.712 0 0 1 -11.712 11.712h-17.225a11.712 11.712 0 0 1 -11.712-11.712v-12.038a0 0 0 0 1 0 0z" fill="#f27b31" transform="matrix(.707 .707 -.707 .707 163.229 -86.776)"/><path d="m174.13 126.77h54.142a0 0 0 0 1 0 0v13.057a11.019 11.019 0 0 1 -11.019 11.019h-32.105a11.019 11.019 0 0 1 -11.019-11.019v-13.057a0 0 0 0 1 0 0z" fill="#f27b31" transform="matrix(.707 .707 -.707 .707 157.083 -101.615)"/><path d="m249.7 83.965 7.158-7.157-10.896-10.891a21.541 21.541 0 0 0 -10.962-5.933c-8.578-1.726-23.426-1.773-37.579 12.379s-14.105 29-12.379 37.579a21.541 21.541 0 0 0 5.933 10.958l10.891 10.891 7.157-7.158c-14.263-23.047 1.372-38.148 1.372-38.148s16.253-16.785 39.305-2.52z" fill="#ffb655"/><path d="m256.044 90.314 7.157-7.158 10.891 10.891a21.541 21.541 0 0 1 5.933 10.958c1.726 8.578 1.773 23.426-12.379 37.579s-29 14.1-37.579 12.379a21.541 21.541 0 0 1 -10.958-5.933l-10.891-10.891 7.158-7.157c23.047 14.263 38.148-1.372 38.148-1.372s16.783-16.249 2.52-39.296z" fill="#f27b31"/><rect fill="#ffb655" height="77.758" rx="6.828" transform="matrix(.707 .707 -.707 .707 144.103 -132.949)" width="22.634" x="221.218" y="68.594"/><g fill="#f27b31"><circle cx="232.536" cy="107.473" r="13.734"/><ellipse cx="197.425" cy="72.363" rx="13.734" ry="8.958" transform="matrix(.707 -.707 .707 .707 6.656 160.796)"/><ellipse cx="267.646" cy="142.584" rx="13.734" ry="8.958" transform="matrix(.707 -.707 .707 .707 -22.43 231.016)"/><path d="m82.922 260.54 20.543-18.967-5.492-3.879-7.44-4.223-12.775 12.776z"/></g><path d="m106.491 234.571q-.267-.256-.531-.522a45.944 45.944 0 0 1 -7.049-9.173 8.793 8.793 0 0 0 -13.78-1.662 8.568 8.568 0 0 0 -2.571 5.975c-.052 10.453 9.184 19.076 9.184 19.076s.142.153.412.418c21.707 4.239 14.335-14.112 14.335-14.112z" fill="#ffb655"/><path d="m115.133 241.1a46.262 46.262 0 0 1 -8.637-6.532h-.007s3.2 13.843-14.333 14.115c1.826 1.8 9.547 8.811 18.664 8.766a8.568 8.568 0 0 0 5.975-2.571 8.793 8.793 0 0 0 -1.662-13.778z" fill="#f27b31"/></svg>