<svg id="icon" height="512" viewBox="0 0 340 340" width="512" xmlns="http://www.w3.org/2000/svg"><path d="m106.17 98.7v193.282s22.512-9.513 62.7-9.513 64.959 9.513 64.959 9.513v-193.282z" fill="#3e3a6b"/><path d="m83.792 112.354s-11.145 76.327-16.292 159.274l-13.187 25.261 9.744 12.4s101.913-30.411 93.473-190.439z" fill="#655baa"/><path d="m256.208 112.354s11.145 76.327 16.291 159.274l13.188 25.261-9.744 12.4s-101.913-30.411-93.473-190.439z" fill="#655baa"/><path d="m83.792 112.354s-.969 6.639-2.467 18.12c14.811 6.816 53.143 22.369 76.626 12.968.149-7.843.031-16.021-.421-24.592z" fill="#3e3a6b"/><path d="m256.208 112.354-73.738 6.5c-.452 8.571-.57 16.749-.421 24.592 23.483 9.4 61.815-6.152 76.626-12.968-1.498-11.485-2.467-18.124-2.467-18.124z" fill="#3e3a6b"/><path d="m272.5 271.628a54.162 54.162 0 0 0 5.692 17.4 7.313 7.313 0 0 1 -7.951 10.668c-17.006-3.886-42.558-17.26-57.9-60.957-22.641-64.487-22.641-118.874-22.641-118.874l-19.7-29.871-19.7 29.871s0 54.387-22.639 118.87c-15.341 43.7-40.893 57.071-57.9 60.957a7.313 7.313 0 0 1 -7.95-10.669 54.165 54.165 0 0 0 5.691-17.4s-45.36 24.425-33.961 45.594c5.984 11.113 18.431 12.912 28.906 12.114a63.74 63.74 0 0 0 28.717-9.72c63.047-39.223 75.689-138.027 78.132-169.069a.574.574 0 0 1 1.145 0c2.5 31.042 15.329 129.854 78.4 169.075a63.745 63.745 0 0 0 28.709 9.714c10.475.8 22.924-1 28.908-12.113 11.401-21.165-33.958-45.59-33.958-45.59z" fill="#f5eef7"/><path d="m191.432 145.857c-1.729-16.2-1.73-25.992-1.73-25.992l-19.702-29.871-19.7 29.871s0 9.794-1.73 25.992c8.651-1.207 16.238-4.607 21.432-11.373 5.192 6.766 12.779 10.166 21.43 11.373z" fill="#b1a7c6"/><g fill="#655baa"><path d="m115.9 46.1s-27.194 19.2-32.108 53.594c0 0 21.622 19.329 64.047 16.216 0 0 14.251-16.277 8.19-44.421s-40.129-25.389-40.129-25.389z"/><rect height="18.685" rx="7.526" width="15.052" x="162.474" y="83.322"/><path d="m224.1 46.1s27.191 19.2 32.105 53.594c0 0-21.622 19.329-64.047 16.216 0 0-14.251-16.277-8.19-44.421s40.132-25.389 40.132-25.389z"/></g><path d="m269.871 95.752a11.342 11.342 0 0 0 -14.628-1.352 102.818 102.818 0 0 1 -49.261 17.632 16.12 16.12 0 0 1 -17.507-15.211 122.849 122.849 0 0 1 .136-16.676 24.375 24.375 0 0 1 15-20.572 67.113 67.113 0 0 1 10.184-3.3 47.323 47.323 0 0 0 5.595-1.673c14.479-5.375 16-25.517 2.54-33.1-9.696-5.456-25.939-11-51.93-11-25.854 0-42.063 5.486-51.776 10.919-13.551 7.58-12.14 27.806 2.422 33.2a47.4 47.4 0 0 0 5.557 1.658 67.113 67.113 0 0 1 10.184 3.3 24.373 24.373 0 0 1 15 20.572 122.849 122.849 0 0 1 .136 16.676 16.12 16.12 0 0 1 -17.507 15.211 102.818 102.818 0 0 1 -49.259-17.636 11.34 11.34 0 0 0 -14.627 1.352 11.026 11.026 0 0 0 1.543 16.772c15.988 11.723 41.8 19.727 63.19 19.727 22.579 0 30.71-13.756 33.594-22.435a1.632 1.632 0 0 1 3.11.032c4.677 14.5 17.369 24.343 33.57 22.4 21.235-2.542 47.2-8 63.19-19.727a11.027 11.027 0 0 0 1.544-16.769z" fill="#f5eef7"/><path d="m202.29 29.2c-15.646-4.532-32.29-4.456-32.29-4.456s-16.644-.076-32.29 4.451c-7.267 2.1-7.269 12.634-.137 15.157a69.922 69.922 0 0 0 8.474 2.373c12.963 2.813 19.736 12.489 22.469 17.565a1.681 1.681 0 0 0 2.968 0c2.733-5.076 9.506-14.752 22.469-17.565a69.922 69.922 0 0 0 8.474-2.373c7.132-2.523 7.13-13.052-.137-15.152z" fill="#3e3a6b"/><rect fill="#ffb655" height="18.685" rx="7.526" transform="matrix(-1 0 0 -1 340 185.329)" width="15.052" x="162.474" y="83.322"/><path d="m168.808 87.012a4.79 4.79 0 0 0 -3.48 4.715v.223a1.356 1.356 0 0 0 1.845 1.265l5.888-2.279a1.454 1.454 0 0 0 .648-2.22 4.656 4.656 0 0 0 -4.901-1.704z" fill="#fff"/></svg>