<svg id="icon" height="512" viewBox="0 0 340 340" width="512" xmlns="http://www.w3.org/2000/svg"><g fill="#af6e56"><path d="m160.045 174.463h19.91v82.651h-19.91z" transform="matrix(-1 0 0 -1 340 431.576)"/><path d="m154.245 161h31.51v14.5a5.176 5.176 0 0 1 -5.177 5.176h-21.156a5.176 5.176 0 0 1 -5.177-5.176z"/><path d="m154.245 266.544 31.51-.018v-11.205a5.176 5.176 0 0 0 -5.177-5.176h-21.156a5.176 5.176 0 0 0 -5.177 5.176z"/><path d="m103.826 123.064h132.348v41.82h-132.348z"/><path d="m115.268 265.263h109.465v49.39h-109.465z"/><path d="m68.833 111.626v49.522a8.477 8.477 0 0 0 4.007 7.2 8.482 8.482 0 0 1 4.007 7.2v79.859a8.479 8.479 0 0 1 -3.813 7.079l-.389.257a8.482 8.482 0 0 0 -3.812 7.079v50.258h28.906v-208.454z"/></g><path d="m116.255 256.889h-19.91v-53.7c4.457-4.451 12.116-6.822 19.91-9.107z" fill="#fedcc6"/><path d="m116.255 194.079v-19.616h-19.91v28.723z" fill="#af6e56"/><path d="m122.055 165.864-31.51-4.864v14.5a5.176 5.176 0 0 0 5.177 5.176h21.156a5.176 5.176 0 0 0 5.177-5.176z" fill="#fedcc6"/><path d="m122.055 266.544-31.51 3.271v-14.494a5.176 5.176 0 0 1 5.177-5.176h21.156a5.176 5.176 0 0 1 5.177 5.176z" fill="#af6e56"/><path d="m91.956 265.263h28.689a8.67 8.67 0 0 1 8.67 8.67v46.147a0 0 0 0 1 0 0h-46.029a0 0 0 0 1 0 0v-46.148a8.67 8.67 0 0 1 8.67-8.669z" fill="#fedcc6"/><path d="m271.167 111.626v49.522a8.477 8.477 0 0 1 -4.007 7.2 8.482 8.482 0 0 0 -4.007 7.2v79.859a8.479 8.479 0 0 0 3.813 7.079l.389.257a8.482 8.482 0 0 1 3.812 7.079v50.258h-28.906v-208.454z" fill="#af6e56"/><path d="m223.745 257.113h19.91v-63.624c-5.91-1.232-12.755 3.028-19.91 9.107z" fill="#fedcc6"/><path d="m243.655 193.489v-19.026h-19.91v28.133z" fill="#af6e56"/><path d="m217.945 165.864 31.51-4.86v14.496a5.176 5.176 0 0 1 -5.177 5.176h-21.156a5.176 5.176 0 0 1 -5.177-5.176z" fill="#fedcc6"/><path d="m217.945 266.544 31.51 3.271v-14.494a5.176 5.176 0 0 0 -5.177-5.176h-21.156a5.176 5.176 0 0 0 -5.177 5.176z" fill="#af6e56"/><path d="m84.308 125.361v30.112a10.391 10.391 0 0 0 10.392 10.391h27.357v-1.727a24.656 24.656 0 0 1 24.656-24.657h46.578a24.656 24.656 0 0 1 24.656 24.657v1.727h27.353a10.391 10.391 0 0 0 10.39-10.391v-30.112a846.357 846.357 0 0 0 -171.382 0z" fill="#fedcc6"/><path d="m210.686 265.263h46.028a0 0 0 0 1 0 0v46.147a8.67 8.67 0 0 1 -8.67 8.67h-28.689a8.67 8.67 0 0 1 -8.67-8.67v-46.147a0 0 0 0 1 .001 0z" fill="#fedcc6" transform="matrix(-1 0 0 -1 467.4 585.342)"/><path d="m58.474 324.493v11.93h223.052v-11.93a9.839 9.839 0 0 0 -9.84-9.84h-203.372a9.839 9.839 0 0 0 -9.84 9.84z" fill="#fedcc6"/><path d="m84.308 109.804h171.384v17.189h-171.384z" fill="#af6e56"/><path d="m183.973 16.25h-8.558v-10.98a1.693 1.693 0 0 0 -1.693-1.693h-7.444a1.693 1.693 0 0 0 -1.693 1.693v10.98h-8.558a1.692 1.692 0 0 0 -1.693 1.692v7.445a1.692 1.692 0 0 0 1.693 1.692h8.558v19.687h10.83v-19.687h8.558a1.692 1.692 0 0 0 1.693-1.692v-7.445a1.692 1.692 0 0 0 -1.693-1.692z" fill="#b4453f"/><path d="m100.874 116.923h173.172a7.48 7.48 0 0 0 7.48-7.481v-14.289h-188.744c-3.502 11.718-3.016 20.565 8.092 21.77z" fill="#fedcc6"/><path d="m96.345 109.8v-12.251l-3.563-2.4h-34.308v14.289a7.48 7.48 0 0 0 7.48 7.481h34.92c-5.043-1.166-4.529-7.119-4.529-7.119z" fill="#af6e56"/><path d="m286.683 83.306c-1.939-.621-4.195-1.427-6.714-2.47-5.574.16-9.253-2.623-12.443-6.165q-2.112-1.218-4.33-2.622a235.677 235.677 0 0 0 -21.287-12 30.87 30.87 0 0 1 -14.195-6.449c-15.1-6.2-32.657-11.321-50.923-12.371a30.258 30.258 0 0 1 -13.584 0c-18.222 1.048-35.742 6.145-50.814 12.327-2.641 2.916-7.629 4.681-13.419 6.052a235.671 235.671 0 0 0 -22.174 12.441q-2 1.267-3.913 2.381c-1.941 3.113-5.838 4.908-11.212 5.707a88.658 88.658 0 0 1 -8.362 3.169 11.186 11.186 0 0 0 -7.813 10.639v8.255h249v-8.255a11.186 11.186 0 0 0 -7.817-10.639z" fill="#f47a6e"/><path d="m227.33 82.647a29.842 29.842 0 0 1 19.355.109 26.559 26.559 0 0 0 17.117.09 46.215 46.215 0 0 1 16.168-2.012 106.258 106.258 0 0 1 -12.442-6.166 47.994 47.994 0 0 0 -6.306 1.588 18.247 18.247 0 0 1 -11.755-.022c-6.563-2.341-16.913-3.913-29.251 1.557a47.948 47.948 0 0 1 -13.236-10.321 51.322 51.322 0 0 0 15.045-4.458 33.83 33.83 0 0 1 10.068-3.075c.045-.006.1-.015.148-.023a34.924 34.924 0 0 1 9.666.134c-4.415-2.2-9.167-4.38-14.194-6.445a42.991 42.991 0 0 0 -9.1 3.175 44.654 44.654 0 0 1 -16.648 4.113 61.525 61.525 0 0 0 -19.506-17.4 26.286 26.286 0 0 0 -5.67-2.259c-2.255-.13-4.519-.2-6.791-.2s-4.538.073-6.793.2a26.271 26.271 0 0 0 -5.668 2.259 61.494 61.494 0 0 0 -19.491 17.378 44.51 44.51 0 0 1 -16.342-4.094 42.938 42.938 0 0 0 -9.312-3.22c-4.733 1.942-9.223 3.989-13.419 6.052a66.261 66.261 0 0 1 8.953.29 33.689 33.689 0 0 1 10.374 3.115 51.242 51.242 0 0 0 14.759 4.417 47.548 47.548 0 0 1 -12.785 10.1c-.3-.063-.583-.138-.888-.189-.092-.049-.174-.107-.272-.15-12.182-5.245-22.376-3.621-28.783-1.334a18.816 18.816 0 0 1 -11.837 0c-1.932-.588-3.8-1.056-5.6-1.43a107.986 107.986 0 0 1 -11.212 5.707 54.983 54.983 0 0 1 14.4 2.365 27.024 27.024 0 0 0 17.033-.117 29.949 29.949 0 0 1 19.812.039c-3.79 3.534-8.289 9.8-8.662 19.782h7.02c.568-11.4 8-16.172 9.649-17.09.7.283 1.417.6 2.189.945a37.512 37.512 0 0 0 17 4.02c5.189 0 11.678-.92 20.057-3.463a34.407 34.407 0 0 1 19.488.01c6.7 1.97 23.51 5.61 40.279-.987 2.5 1.653 8.283 6.546 8.79 16.565h7.014a27.765 27.765 0 0 0 -8.421-19.555zm-66.455-33a19.074 19.074 0 0 1 18.25 0 51.165 51.165 0 0 1 13.58 11.014 59.646 59.646 0 0 1 -10.684-2.093 41.741 41.741 0 0 0 -23.721 0 59.808 59.808 0 0 1 -11.036 2.132 51.2 51.2 0 0 1 13.611-11.051zm21.125 30.314a42.837 42.837 0 0 0 -24.242.009c-16.319 4.955-23.776 2.993-29.254.689a50.726 50.726 0 0 0 12.996-12.633 67.95 67.95 0 0 0 19.1-2.792 33.633 33.633 0 0 1 19.129 0 68 68 0 0 0 18.771 2.792 50.785 50.785 0 0 0 13.28 12.828c-13.148 3.346-25.731.297-29.78-.893z" fill="#b4453f"/></svg>