<svg id="icon" height="512" viewBox="0 0 340 340" width="512" xmlns="http://www.w3.org/2000/svg"><path d="m131.167 33.643h77.666v59.219h-77.666z" fill="#5dc7f4"/><path d="m213.189 51.34s-21.442 8.168-19.4 42.542l24.845 51.051 41.181-42.883s-15.315-29.95-46.626-50.71z" fill="#c8edfc"/><path d="m259.815 102.05s-32.684 16.8-41.181 42.883v53.343l57.857 16.424s6.126-65.343-16.676-112.65z" fill="#478bd8"/><path d="m126.811 51.34s21.442 8.168 19.4 42.542l-24.845 51.051-41.181-42.883s15.315-29.95 46.626-50.71z" fill="#c8edfc"/><path d="m80.185 102.05s32.684 16.8 41.181 42.883v53.343l-57.857 16.424s-6.126-65.343 16.676-112.65z" fill="#478bd8"/><path d="m215.979 110.525s11.964 18.463 9.686 51.514v92.929h-55.665c-2.954-46.773-2.748-95.016 0-144.443z" fill="#5dc7f4"/><path d="m124.021 110.525s-11.964 18.463-9.686 51.514v92.929h55.665v-144.443z" fill="#5dc7f4"/><path d="m158.542 83.934c-23.655 5.484-34.521 26.591-34.521 26.591a91.767 91.767 0 0 0 12.545 11.611c14.525 10.853 33.434 9.948 33.434 9.948s18.909.905 33.434-9.948a91.767 91.767 0 0 0 12.545-11.611s-10.866-21.107-34.521-26.591z" fill="#478bd8"/><path d="m68.654 214.371s9.8-34.239 45.681-52.332c0 0 25.014 9.787 44.21 35.288l-42.848 54.9z" fill="#c8edfc"/><path d="m114.335 235.637 44.21-38.31s11.455 13.212 11.455 38.31v77.574h-62.654z" fill="#5dc7f4"/><path d="m64.425 198.276 49.91 37.361v77.574h-53.506z" fill="#478bd8"/><path d="m271.346 214.371s-9.8-34.239-45.681-52.332c0 0-25.014 9.787-44.21 35.288l42.848 54.9z" fill="#c8edfc"/><path d="m225.665 235.637-44.21-38.31s-11.455 13.212-11.455 38.31v77.574h62.654z" fill="#478bd8"/><path d="m275.575 198.276-49.91 37.361v77.574h53.506z" fill="#5dc7f4"/><g fill="#3e3a6b"><path d="m47.44 255.743v49.064h27.214v-49.064a61.476 61.476 0 0 0 -27.214 0z"/><path d="m265.346 255.743v49.064h27.214v-49.064a61.476 61.476 0 0 0 -27.214 0z"/><path d="m47.666 302h244.668a10.838 10.838 0 0 1 10.838 10.838v17.162a0 0 0 0 1 0 0h-266.344a0 0 0 0 1 0 0v-17.16a10.838 10.838 0 0 1 10.838-10.84z"/><path d="m58.548 108.069c-11.548 31.668-11.108 58.251-11.108 58.251v13.4c8.276 4.269 17.432 3.816 27.214 0v-6.721a173.875 173.875 0 0 1 2.6-30.724 154.442 154.442 0 0 1 5.558-21.875c-7.312-6.419-15.37-10.634-24.264-12.331z"/><path d="m281.613 108.507c-9.274 1.261-17.541 4.953-24.277 12.335a154.9 154.9 0 0 1 5.414 21.428 173.875 173.875 0 0 1 2.6 30.724v6.721c10 4 19.1 4.085 27.214 0v-13.4s.436-26.333-10.951-57.808z"/><path d="m281.613 108.507c-7.79-21.545-21.126-45.489-43.93-65.054-8.283 4.808-14.713 11.379-17.663 21.26 14.484 12.23 28.692 30.133 37.316 56.129z"/><path d="m265.346 179.715h27.214v76.028h-27.214z"/><path d="m47.44 179.715h27.214v76.028h-27.214z"/><path d="m170.3 10.077a45.753 45.753 0 0 0 0 29.48c2.915.569 26.655 5.682 49.719 25.156l17.663-21.26c-16.797-14.411-38.729-26.444-67.382-33.376z"/><path d="m170.3 10.077c-.1-.025-.2-.053-.3-.077-28.463 6.839-50.3 18.71-67.081 32.947 1.725 10.259 8.645 16.561 17.666 21.263 24.433-20.356 49.415-24.71 49.415-24.71s.1.018.3.057z"/><path d="m58.548 108.069 24.264 12.331c8.758-26.116 23.163-44.015 37.773-56.187l-17.666-21.266c-23.014 19.525-36.491 43.503-44.371 65.122z"/></g><path d="m158.545 276.785h22.91v-131.738h21.979v-22.911h-21.979v-38.193a51.195 51.195 0 0 0 -22.91 0v38.193h-21.979v22.911h21.979z" fill="#fff"/></svg>