<svg id="icon" height="512" viewBox="0 0 340 340" width="512" xmlns="http://www.w3.org/2000/svg"><path d="m199.785 257.57-19.827-6.885 62.595-165.289 15.188 5.274z" fill="#7784b2"/><path d="m194.023 225.151c-6.38-2.041-11.566-5.47-12.019-14.4l41.954-120.818c4.668 4.11 6.821 13.864 8.268 25.2z" fill="#f0f1ff"/><path d="m225.656 85.042-1.698 4.891 8.268 25.201 22.108-14.653 1.699-4.891z" fill="#7784b2"/><path d="m267.992 11.976a31.007 31.007 0 0 0 -12.175-1.961 5.95 5.95 0 0 0 -5.793 5.349c-.412 4.083-.547 7.891-.576 10.447 11.209 7.969 27.611-.5 21.833-12.548-.981-.433-2.067-.863-3.289-1.287z" fill="#ffb655"/><path d="m253.707 87.02-20.914-7.262 16.7-50.087 22.151 7.692z" fill="#342a35"/><path d="m272.792 92.874a95.916 95.916 0 0 0 -27.534-15.267 98.339 98.339 0 0 0 -41.969-4.5 5.905 5.905 0 0 0 -5.239 5.362l-.79 9.178a2.833 2.833 0 0 0 3.417 3.02c19.494-4.314 39.064 2.832 39.064 2.832 12.759 4.507 23.281 2.962 33.051-.625z" fill="#ffb655"/><path d="m272.791 92.875a88.516 88.516 0 0 0 -24.082-9.1 5.873 5.873 0 0 0 -6.765 3.784l-2.1 5.969c1.444.492 20.195 7.1 32.326 21.97a2.83 2.83 0 0 0 4.543-.271l5.066-7.687a5.892 5.892 0 0 0 -.767-7.435 97.686 97.686 0 0 0 -8.221-7.23z" fill="#f27b31"/><path d="m280.094 25.805a5.95 5.95 0 0 0 -1.231-7.787 30.316 30.316 0 0 0 -7.583-4.752c-1.646 15.921-17.317 13.568-21.832 12.545-.023 2.412.045 3.86.045 3.86l22.151 7.692a107.216 107.216 0 0 0 8.45-11.558z" fill="#f27b31"/><path d="m194.023 225.151-12.019-14.402-12.595 36.272 15.188 5.274z" fill="#7784b2"/><path d="m280 330-10.558-24.655s5.866-20.671 31.006-39.108c0 0 2.794 20.392-7.263 38.828a31.1 31.1 0 0 0 22.347-8.38s.65 18.076-10.827 29.222a14.676 14.676 0 0 1 -10.232 4.093z" fill="#95a358"/><path d="m179.582 242.711 48 2.228a24.008 24.008 0 0 1 20.72 14l7.498 16.381a25.229 25.229 0 0 0 5.493 7.727l10.071 9.646a19.717 19.717 0 0 1 5.969 12.155l2.667 25.152h-40.957s-51.268-16.2-59.461-87.289z" fill="#83799b"/><path d="m121.443 330-27.219-39.456s9.392-33.813 13.709-63.042a12.557 12.557 0 0 1 12.438-10.689h31.851a25.285 25.285 0 0 1 20.4 10.349l21.249 29.022a22.172 22.172 0 0 0 9.438 7.4 30.736 30.736 0 0 1 18.228 21.339c2.828 12.02 8.136 29.408 17.5 45.076z" fill="#c2b8d3"/><path d="m38.248 324.3a38.044 38.044 0 0 1 -13.791-23.45s14.006 11.892 30.919 12.95c0 0-24.841-25.1-12.42-77.959 0 0-.793 47.04 31.712 62.632a60.053 60.053 0 0 1 13.213 8.721s-17.177-17.442-6.078-51a31.288 31.288 0 0 0 13.742 26.726c15.063 10.267 35.941 27.869 25.9 47.08h-66.776a26.315 26.315 0 0 1 -16.421-5.7z" fill="#bece82"/><g fill="#83799b"><circle cx="130.336" cy="242.711" r="3.559"/><circle cx="146.742" cy="254.273" r="3.559"/><circle cx="126.777" cy="263.685" r="3.559"/></g></svg>