<svg id="icon" height="512" viewBox="0 0 340 340" width="512" xmlns="http://www.w3.org/2000/svg"><path d="m87.221 243.217 26.11 5.641 32.919-71.066-31.731-18s-34.109 25.531-27.298 83.425z" fill="#342a35"/><path d="m252.779 243.217-26.11 5.641-32.919-71.066 31.731-18s34.109 25.531 27.298 83.425z" fill="#342a35"/><path d="m209.87 171.667h-79.74s5.143 45.814-30.62 73.63c0 0 3.973 22.908 19.4 33.894l51.09 39.503 18.494-14.3c27.826-20.3 46.917-44.191 32.359-81.915-13.909-24.747-10.983-50.812-10.983-50.812z" fill="#dce2f9"/><path d="m220.856 222.477c.956 15.917-.512 54.319-32.5 80.965l.139.952 32.6-25.2c15.428-10.986 19.4-33.894 19.4-33.894a75.613 75.613 0 0 1 -19.639-22.823z" fill="#7784b2"/><path d="m173.5 315.988v-107.31a3.5 3.5 0 0 0 -7 0v107.309l3.5 2.707z" fill="#7784b2"/><path d="m216.8 136.918h-93.6c-2.965 38.534 14.737 66.929 41.958 79.682a11.588 11.588 0 0 0 9.6.127c51.598-22.792 42.042-79.809 42.042-79.809z" fill="#7784b2"/><path d="m226.571 272.5c-34.083 13.086-56.571 39.926-56.571 39.926-16.4-24.716-47.9-37.512-56.571-39.924-4.656-1.3-9.284 1.3-9.284 5.187v6.419a7.473 7.473 0 0 0 5.5 7.188c28.209 7.848 45.326 27.34 50.952 34.679a7.3 7.3 0 0 0 5.8 2.856h7.218a7.3 7.3 0 0 0 5.8-2.856c5.626-7.339 22.743-26.831 50.952-34.679a7.474 7.474 0 0 0 5.5-7.188v-6.419c-.012-3.889-4.785-6.919-9.296-5.189z" fill="#7784b2"/><path d="m91.222 218.665v17.64l-40.922 2.689s-2.307-16.994 2.507-29.894c0 0 25.971-3.472 38.415 9.565z" fill="#7784b2"/><path d="m199.7 109.128h-59.4s-4.142 18.743-17.1 27.79c0 0 11.7 32.851 46.8 45.566 25.448-22.758 29.7-73.356 29.7-73.356z" fill="#dce2f9"/><path d="m170.187 160.173-.187 22.311c37.73-11.943 46.8-45.566 46.8-45.566-12.96-9.047-17.1-27.79-17.1-27.79h-46.65l-12.024 10.119s4.781 14.228 21.715 26.462a17.861 17.861 0 0 1 7.446 14.464z" fill="#7784b2"/><path d="m188.621 20.08c-11.747 5.879-18.621 29.891-18.621 29.891s-6.874-24.012-18.621-29.891c0 0-27.509 13.955-21.749 52.388 1.82 12.145 2.928 22.238 3.593 30.363a24.977 24.977 0 0 0 5.379 13.605 54.655 54.655 0 0 0 27.479 18.327 19.525 19.525 0 0 0 3.919.276c1.643 0 29.555-44.29 31.375-56.435 5.76-38.433-12.754-58.524-12.754-58.524z" fill="#dce2f9"/><path d="m206.788 102.7c.6-7.326 1.569-16.258 3.087-26.83l-79.628.836c1.458 10.273 2.39 18.964 2.976 26.124v.019c24.018-5.815 45.545-6.558 73.565-.149z" fill="#7784b2"/><path d="m168.115 44.406c-5.367 2.088-21.228 8.911-34.517 21.209h36.589s-.836-17.907-2.072-21.209z" fill="#7784b2"/><path d="m174.336 153.2c-1.355.479-2.746.917-4.147 1.3-18.1-5.045-32.422-18.531-38.958-25.6a37.915 37.915 0 0 1 -4.677 5.3c7.376 7.927 22.795 22.1 42.747 27.319a3.5 3.5 0 0 0 .886.114 3.533 3.533 0 0 0 .885-.113c1.89-.494 3.775-1.073 5.6-1.72a3.5 3.5 0 1 0 -2.336-6.6z" fill="#7784b2"/><path d="m188.621 20.08c-11.747 5.879-18.621 29.891-18.621 29.891v85.069a19.531 19.531 0 0 0 3.919-.276 54.653 54.653 0 0 0 27.481-18.328 24.977 24.977 0 0 0 5.379-13.605c.665-8.126 1.773-18.218 3.593-30.363 5.758-38.433-21.751-52.388-21.751-52.388z" fill="#7784b2"/><path d="m170 11.169c-10.313 1.359-18.621 8.911-18.621 8.911 5.633 7.417 8.524 19.326 9.9 27.278l14.932-2.4z" fill="#dce2f9"/><path d="m161.283 47.358c.84 4.841 1.122 8.217 1.122 8.217h15.195s1.963-23.563 11.026-35.5c0 0-8.307-7.552-18.621-8.911v24.796a11.563 11.563 0 0 1 -6.84 10.534q-.899.406-1.882.864z" fill="#7784b2"/><path d="m214.747 71.534a110.466 110.466 0 0 0 -44.747-20.922 110.466 110.466 0 0 0 -44.747 20.922 7.878 7.878 0 0 0 -3.006 6.512 34 34 0 0 0 2.721 12.689 6.162 6.162 0 0 0 6.717 3.487c14.315-2.646 38.315-2.473 38.315-2.473s24-.173 38.315 2.473a6.162 6.162 0 0 0 6.717-3.487 34 34 0 0 0 2.721-12.689 7.878 7.878 0 0 0 -3.006-6.512z" fill="#dce2f9"/><path d="m115.885 128.851 7.336-.775a6.475 6.475 0 0 1 7.087 5.509 129.981 129.981 0 0 0 7.147 27.938c-6.841 15.838-18.63 5.123-26.913-20.325q-.308-2.789-.447-5.681a6.445 6.445 0 0 1 5.79-6.666z" fill="#d07a76"/><path d="m131.526 176.511a10.625 10.625 0 0 0 6.3-14.075c-.125-.3-.241-.61-.362-.915a8.964 8.964 0 0 1 -1.456 1.381 7.027 7.027 0 0 1 -10.228-2.315 88.683 88.683 0 0 0 -15.234-19.387 110.385 110.385 0 0 0 7.641 29.325 10.618 10.618 0 0 0 13.339 5.988z" fill="#7f4242"/><path d="m91.086 198.145a49.072 49.072 0 0 0 -30.962-17.118 84.834 84.834 0 0 0 -11.224 25.311 6.354 6.354 0 0 0 5.757 7.926 116.786 116.786 0 0 1 29.24 6.017c6.986-4.862 8.459-12.748 7.189-22.136z" fill="#dce2f9"/><path d="m60.727 187.06s20.673 11.44 27.433 26.14l11.35-24.1-13.188-13.307z" fill="#7784b2"/><path d="m100.685 139.973a59.625 59.625 0 0 1 14.867 13.761c6.326 12.518-7.233 29.236-25.593 46.968-6.671-4.884-17-10.5-32.349-14.5a8.005 8.005 0 0 1 -6.005-7.736 8.026 8.026 0 0 1 1.057-3.973 106.109 106.109 0 0 1 32.826-34.403 13.879 13.879 0 0 1 15.197-.117z" fill="#dce2f9"/><path d="m74.881 257.066a30.1 30.1 0 0 0 -12.891 10.243 7.637 7.637 0 0 1 -6.767 3.218c-1.5-.1-3.246-.253-5.1-.5a10.3 10.3 0 0 1 -8.9-8.971 82.733 82.733 0 0 1 -.179-17 12.059 12.059 0 0 1 11.148-10.907 230.717 230.717 0 0 1 30.234-.139c8.366 9.898 3.896 18.79-7.545 24.056z" fill="#dce2f9"/><path d="m248.778 218.665v17.64l40.922 2.689s2.307-16.993-2.507-29.9c0 .006-25.971-3.466-38.415 9.571z" fill="#7784b2"/><path d="m278.667 214.947a115.274 115.274 0 0 0 -26.868 6.945 7.99 7.99 0 0 1 -10.584-5.128l-1.735-5.7s.841-1.626 2.489-4.124c9.038-7.312 27.05-15.728 36.7-16.83 3.89 8.666 4.038 16.961-.002 24.837z" fill="#dce2f9"/><path d="m224.115 128.851-7.336-.775a6.475 6.475 0 0 0 -7.087 5.509 131.418 131.418 0 0 1 -6.8 27.045c6 13.064 21.549 4.449 26.431-18.29.272-2.222.472-4.5.58-6.823a6.445 6.445 0 0 0 -5.788-6.666z" fill="#d07a76"/><path d="m287.735 196.1a79.605 79.605 0 0 0 -7.858-15.071c-18.142 1.66-37.082 25.962-37.082 25.962 20.322-11.591 38.973-11.344 44.94-10.891z" fill="#7784b2"/><path d="m221.813 170.523a110.965 110.965 0 0 0 7.5-28.184 88.018 88.018 0 0 0 -14.067 18.248 7.027 7.027 0 0 1 -10.228 2.315 9.327 9.327 0 0 1 -2.131-2.272c-.232.6-.468 1.207-.714 1.806a10.625 10.625 0 0 0 6.3 14.075 10.619 10.619 0 0 0 13.34-5.988z" fill="#7f4242"/><path d="m239.315 139.973a60.31 60.31 0 0 0 -20.607 22.754 13.814 13.814 0 0 0 .692 13.873 306.826 306.826 0 0 1 20.085 34.46s7.577-12.629 32.151-21.531c7.533-13.469-3.949-31.011-15.972-48.669q-.568-.387-1.147-.771a13.879 13.879 0 0 0 -15.202-.116z" fill="#dce2f9"/><path d="m238.963 240.83-.373 4.181a7.368 7.368 0 0 0 7.1 8.015c6.531.222 16 1.5 23.822 6.341 0 0 14.678 7.955 18.879-7.107s-8.6-19.543-8.6-19.543a213.911 213.911 0 0 0 -34.383 1.452 7.392 7.392 0 0 0 -6.445 6.661z" fill="#dce2f9"/><g fill="#342a35"><path d="m170.187 59.591a3.5 3.5 0 0 0 -3.5 3.5v16.809a3.5 3.5 0 0 0 7 0v-16.809a3.5 3.5 0 0 0 -3.5-3.5z"/><path d="m159 68.752a3.5 3.5 0 0 0 -6.961.729l1.128 10.787a3.5 3.5 0 0 0 3.478 3.136 3.267 3.267 0 0 0 .368-.02 3.5 3.5 0 0 0 3.117-3.845z"/><path d="m145.389 73.641a3.5 3.5 0 1 0 -6.781 1.738l1.751 6.833a3.5 3.5 0 0 0 3.388 2.632 3.545 3.545 0 0 0 .872-.11 3.5 3.5 0 0 0 2.521-4.26z"/><path d="m185.218 65.636a3.485 3.485 0 0 0 -3.845 3.116l-1.129 10.787a3.5 3.5 0 0 0 3.116 3.845 3.279 3.279 0 0 0 .368.02 3.5 3.5 0 0 0 3.477-3.136l1.13-10.787a3.5 3.5 0 0 0 -3.117-3.845z"/><path d="m199.245 71.119a3.5 3.5 0 0 0 -4.26 2.522l-1.751 6.833a3.5 3.5 0 0 0 2.521 4.26 3.545 3.545 0 0 0 .872.11 3.5 3.5 0 0 0 3.388-2.632l1.751-6.833a3.5 3.5 0 0 0 -2.521-4.26z"/></g><circle cx="243.864" cy="187.884" fill="#7784b2" r="3.374"/><circle cx="253.712" cy="210.678" fill="#7784b2" r="3.374"/><circle cx="86.168" cy="187.884" fill="#7784b2" r="3.374"/><circle cx="76.321" cy="210.678" fill="#7784b2" r="3.374"/><circle cx="219.777" cy="138.413" fill="#7f4242" r="3.374"/><circle cx="121.212" cy="138.413" fill="#7f4242" r="3.374"/><path d="m287.808 233.151c-2.33-.169-5.027-.325-8.013-.433a62.521 62.521 0 0 1 1.381 17.887s-.48 8.257-11.661 8.763h-.031a28.45 28.45 0 0 1 8.526 7.938 7.636 7.636 0 0 0 6.767 3.218c1.5-.1 3.246-.253 5.1-.5a10.3 10.3 0 0 0 8.9-8.971 82.8 82.8 0 0 0 .179-17 12.059 12.059 0 0 0 -11.148-10.902z" fill="#7784b2"/><path d="m287.734 196.1a36.4 36.4 0 0 0 -12.459-2.78l-1.129 3.207a73.382 73.382 0 0 1 4.522 18.425c2.543-.343 4.807-.563 6.679-.684a6.362 6.362 0 0 0 5.757-7.926 83.2 83.2 0 0 0 -3.37-10.242z" fill="#7784b2"/><path d="m287.338 174.5a106.012 106.012 0 0 0 -31.682-33.632 27.885 27.885 0 0 0 -3.037.9 6.539 6.539 0 0 0 -2.71 10.413 118.669 118.669 0 0 1 21.725 37.357c3.279-1.188 6.849-2.312 10.756-3.329a7.988 7.988 0 0 0 4.948-11.709z" fill="#7784b2"/><path d="m101.409 245.012-.372-4.182a7.392 7.392 0 0 0 -6.45-6.661c-4.162-.532-8.236-.905-12.161-1.157v12.088a13.123 13.123 0 0 1 -7.33 11.863l-.215.1v.015a53.942 53.942 0 0 1 19.422-4.056 7.366 7.366 0 0 0 7.106-8.01z" fill="#7784b2"/><path d="m115.544 153.74c.327 3.478-.6 8.983-6.483 16.1 0 0-19.71 21.762-25.17 50.443 1.435.5 2.874 1.029 4.31 1.606a7.989 7.989 0 0 0 10.584-5.129l1.735-5.7a306.826 306.826 0 0 1 20.085-34.46 13.814 13.814 0 0 0 .687-13.874 61.971 61.971 0 0 0 -5.748-8.986z" fill="#7784b2"/></svg>