<svg id="flat" height="512" viewBox="0 0 340 340" width="512" xmlns="http://www.w3.org/2000/svg"><path d="m291.688 113.258.848-2.984a23.006 23.006 0 0 0 5.6-14.736 2.877 2.877 0 0 1 4.821-2.084 25.152 25.152 0 0 1 6.151 8.827s1.6 8.546-.567 15.443z" fill="#d9e6f7"/><path d="m309.352 119.225c2.169-6.9 1.54-12.519-.243-16.943-2.026 4.108-6.552 8.313-16.579 7.988a18.114 18.114 0 0 1 -3.229 2.988z" fill="#a0b1f7"/><path d="m6.542 214.848s-2.87 59.278 65.885 42.878v-35.008l-39.427 7.569z" fill="#e2a083"/><path d="m62.359 182.494s.908 19.832-11.5 32.974a16.9 16.9 0 0 1 -28.184-5.5c-2.269-6.015-2.913-13.955.739-24.016a1.713 1.713 0 0 0 -2.724-1.9 40.606 40.606 0 0 0 -14.012 27.21c-1.641 16.191 10.19 30.911 26.414 32.189.43.034.868.061 1.311.08 21.307.946 35.5-13.877 35.5-13.877z" fill="#7a7a92"/><path d="m40.382 243.389c17.941-1.643 29.518-13.733 29.518-13.733-.12-2.2-.278-4.381-.495-6.528a4.874 4.874 0 0 0 -9.36-1.314c-6.769 16.525-19.536 21.526-19.663 21.575z" fill="#40486f"/><path d="m136.077 241.782s-1.242 6.51-6.208 18.154a31.624 31.624 0 0 0 -.2 15.4 33.12 33.12 0 0 0 2.708 7.364 38.665 38.665 0 0 1 2.623 6.958 8.141 8.141 0 0 1 -7.912 10.191h-23.54v-82.142z" fill="#40486f"/><path d="m242.776 220.022s-5.55 14.007-2.378 28.808c0 0 1.321 12.95 13.479 26.165 0 0 5.027 5.232 7.182 15.415a7.867 7.867 0 0 1 -7.733 9.439h-16.585a11.064 11.064 0 0 1 -10.936-9.347c-.131-.839-.252-1.729-.355-2.668a23.666 23.666 0 0 0 -5.185-12.348c-5.42-6.641-13.562-18.8-14.143-32.471 0 0 16.304-16.386 36.654-22.993z" fill="#40486f"/><path d="m192.962 133.793s-47.564-15.5-87.463-2.919a61.271 61.271 0 0 0 -39.194 37.272q-.139.383-.278.771a93.835 93.835 0 0 0 -2.458 53.889c.253 1.03.518 2.074.8 3.119a95.458 95.458 0 0 1 3.162 20.839c.079 2.109.151 4.38.2 6.722a44.149 44.149 0 0 0 5.039 19.484c.095.181.192.363.289.545a43.649 43.649 0 0 1 3.761 9.8c.625 2.445 1.347 5.4 2.014 8.468a10.257 10.257 0 0 0 10.027 8.063h17.221a7.764 7.764 0 0 0 7.629-9.247c-.752-3.819-1.823-8.484-3.294-13.331a35.636 35.636 0 0 1 -.011-21.175c1.967-6.171 3.6-15.356 2.364-27.535l15 11.494 56.7 1.993 57.805-44.959s17.135-42.641 16.645-43.851-65.958-19.442-65.958-19.442z" fill="#7a7a92"/><path d="m168.126 128.194c2.169 3.789 6.135 9.431 11.741 12.274 0 0-4.379 2.77-13.137 4.278a3.349 3.349 0 0 0 -2.377 4.878c3.8 7.108 13.7 20.332 34.066 18.074-.469 5.118-2.431 9.992-4.391 14.685a3.663 3.663 0 0 0 2.877 5.045c10.216 1.4 35.323 2.741 54.609-13.71l7.315-19.882s-69.829-23.507-90.703-25.642z" fill="#40486f"/><path d="m300.016 170.179s21.717 2.27 24.879-15.189a1.65 1.65 0 0 0 -1.7-1.965c-3.907.214-12.808.29-19.51-2.753 0 0-4.719 9.514-3.669 19.907z" fill="#40486f"/><path d="m112.77 204.23a43.415 43.415 0 0 1 -7.481-13.854 1.363 1.363 0 0 0 -2.647.509 43.482 43.482 0 0 0 3.284 13.759 103.968 103.968 0 0 1 6.844 23.917l17.051 7.574s-7.077-20.256-17.051-31.905z" fill="#40486f"/><path d="m122 218.4s4.266 7.99 21.211 5.052a40.551 40.551 0 0 0 20.789-10.803 3.41 3.41 0 0 1 5.656 3.191 41.045 41.045 0 0 1 -3.192 9.716c-4.37 8.765-13.421 13.134-13.421 13.134l-21.693-1.872-9.35-5.847z" fill="#40486f"/><path d="m303.685 150.272-3.669 19.907s-18.36 4.884-37.994 38.817c0 0-6.991 10.329-18.551 15.385a75.607 75.607 0 0 0 -19.684 12.6c-10.192 8.983-29.012 20.279-56.907 16.649 0 0-13.428-.91-24.378-1.16a32.563 32.563 0 0 1 -18.857-6.356 27.6 27.6 0 0 1 -10.875-17.552s40.057 7.713 76.4-3.8a36.619 36.619 0 0 0 16.43-10.672c3.885-4.41 9.939-10.021 17.43-12.807a28.09 28.09 0 0 0 13.082-10.067 76.722 76.722 0 0 0 6.653-11.384l11.976-19.409 20.52-15.623h24.755z" fill="#fce2cb"/><path d="m188.958 224.833c-36.288 11.411-76.188 3.728-76.188 3.728a27.6 27.6 0 0 0 10.875 17.552 32.563 32.563 0 0 0 18.857 6.356c10.95.25 24.378 1.16 24.378 1.16 22.311 2.9 38.81-3.743 49.739-11.115a15.252 15.252 0 0 1 -3.1-2.334 18.836 18.836 0 0 1 -5.576-13.361c-.107-8.355 1.763-12.651 4.349-19.2a56.7 56.7 0 0 0 -6.619 6.381 37.238 37.238 0 0 1 -16.715 10.833z" fill="#e2a083"/><path d="m298.965 144.8h-23.7l-24.924 10.7a92.029 92.029 0 0 1 -7.583 24.331 55.734 55.734 0 0 0 11.692-8.79l3.836 2.807a7.1 7.1 0 0 0 4.19 1.369h14.491a4.477 4.477 0 0 0 4.46-3.941c.809-7.094 4.225-21.282 18.593-21.282z" fill="#e2a083"/><path d="m313.413 138.287s6.393-3.611 18.084-1.174a1.637 1.637 0 0 0 1.978-1.616c-.065-3.908-1.9-12.344-15.933-15.484z" fill="#40486f"/><path d="m209.784 159.291c.669 0-2.178 9.5-3.566 14a2.177 2.177 0 0 0 1.865 2.811c3.907.385 11.867-.18 21.269-8.305z" fill="#7a7a92"/><path d="m193.347 141.49a28.271 28.271 0 0 1 -14.827 7.459 2.281 2.281 0 0 0 -1.422 3.727l.082.095a17.185 17.185 0 0 0 8.506 5.286c4.68 1.267 12.236 2.343 19.425-.835z" fill="#7a7a92"/><path d="m198.419 122.02a25.177 25.177 0 0 1 -18.668-10 1.936 1.936 0 0 0 -3.481.83c-.189 1.281-1.832 14.219 12.4 22.636z" fill="#7a7a92"/><path d="m235.648 44.372c8.88 6.91 28.031 27.016 22.169 68.886h-24.105s12.3-34.606-.369-67.174a1.49 1.49 0 0 1 2.305-1.712z" fill="#a0b1f7"/><path d="m243.543 102.4a13.986 13.986 0 0 0 -5.6 3.38 62.372 62.372 0 0 1 -18.364 12.62 14.818 14.818 0 0 0 -5.263 3.788l-1.195 1.365-9.13-1.451a54.6 54.6 0 0 0 -5.574-.077 9.815 9.815 0 0 0 -8.533 5.631 42.1 42.1 0 0 0 -1.665 4.027 9.678 9.678 0 0 0 -.184 5.853c2.308 8.049 12.213 30.527 51.142 32.631a11.624 11.624 0 0 0 10.567-5.54l3.463-5.689c1.6.837 3.36 2.864 5.133 5l1.806 1.76a9.31 9.31 0 0 0 6.5 2.641h4.407a3.365 3.365 0 0 0 3.282-2.711c1.165-5.625 6.343-17.846 29.355-15.353a29.928 29.928 0 0 1 9.728-11.985 9.859 9.859 0 0 0 4.129-8.058v-10.219s-11.647-5.113-30.098-8.613a10.35 10.35 0 0 1 -5.879-3.366 11 11 0 0 0 -8.321-4.034l-24.111-2.212a14.138 14.138 0 0 0 -5.595.612z" fill="#7a7a92"/><path d="m205.6 214.09a138.171 138.171 0 0 1 -17.41 34.967 28.734 28.734 0 0 0 -4.96 13.321c-.285 2.73-.56 6.087-.733 9.967a25.435 25.435 0 0 0 2.733 12.707 29.792 29.792 0 0 1 1.921 4.75 7.763 7.763 0 0 1 -7.417 10.047h-20.068a7.562 7.562 0 0 1 -7.461-8.788l.93-5.657a35.857 35.857 0 0 0 -.39-13.709c-1.366-6.064-2.955-15.6-1.985-24.2.523-4.631.972-8.147 1.338-10.78a17.994 17.994 0 0 1 5.576-10.688c4.485-4.18 11.072-11.756 13.367-21.8z" fill="#7a7a92"/><g fill="#40486f"><path d="m161.892 189.335c-2.426 6.1-7.942 14.255-14.413 18.523a1.664 1.664 0 0 0 1.062 3.047c3.951-.334 8.723-1.622 12.32-5.367a17.3 17.3 0 0 0 4.392-15.91 1.756 1.756 0 0 0 -3.361-.293z"/><path d="m138.826 211c-7.291-.026-21.319-1.383-28.92-10.7l4.515 13.7s12.695 5.8 25.009-.58a1.287 1.287 0 0 0 -.604-2.42z"/><path d="m223.235 144.7a1.449 1.449 0 0 0 .917-2.7c-11.031-6.235-11.031-18.454-11.031-18.454a44.435 44.435 0 0 0 -9.13-1.447c1.525 16.628 11.649 21.401 19.244 22.601z"/><path d="m273.268 135.983h-2.839a3.464 3.464 0 0 1 0-6.928h2.839a3.464 3.464 0 1 1 0 6.928z"/><path d="m40.375 220.751a16.768 16.768 0 0 1 -17.7-10.784c-2.27-6.018-2.914-13.963.744-24.032a1.709 1.709 0 0 0 -2.7-1.905 40.461 40.461 0 0 0 -13.534 23.74c12.65 18.036 33.19 12.981 33.19 12.981z"/><path d="m243.543 102.4a13.986 13.986 0 0 0 -5.6 3.38 63.917 63.917 0 0 1 -5.235 4.63c21.993 11.3 36.688-.907 36.688-.907l-.56-5.908-19.7-1.807a14.119 14.119 0 0 0 -5.593.612z"/></g><path d="m261.21 40.657c4.854 5.52 13.138 17.765 13.982 37.712-2.706 19.354-20.018 26.547-25.537 17.97a81.187 81.187 0 0 1 2.951-8.5c4.369-10.747 8.618-29.107 6.023-45.967a1.487 1.487 0 0 1 2.581-1.215z" fill="#d9e6f7"/><path d="m271.964 105.961a93.743 93.743 0 0 0 3.223-27.592c-3.41 9.809-10.556 19.636-25.524 17.972a50.662 50.662 0 0 0 -1.5 6.953 5.086 5.086 0 0 0 1.689 4.554c5.665 4.8 13.592 3.563 18 2.318a5.917 5.917 0 0 0 4.112-4.205z" fill="#a0b1f7"/><path d="m287.763 111.465-.314-.061a10.349 10.349 0 0 1 -4.931-2.426 20.748 20.748 0 0 1 -8.852 6.324 1.048 1.048 0 0 0 .389 2.026c4.414-.07 10.279-1.173 13.708-5.863z" fill="#40486f"/><path d="m261.146 150.232a1.371 1.371 0 0 0 -2.561-.774l-5.378 9.475 5.133 5a52.216 52.216 0 0 0 2.806-13.701z" fill="#40486f"/></svg>