<svg id="flat" height="512" viewBox="0 0 340 340" width="512" xmlns="http://www.w3.org/2000/svg"><path d="m237.07 178.955s15.15-18.1 43.727-10.782a3.608 3.608 0 0 1 2.7 3.41c.178 7.119-.852 26.145-16.511 30.332l-12.32-.815s-13.258-10.194-17.596-22.145z" fill="#f26f7c"/><path d="m262.322 173.327a35.124 35.124 0 0 0 4.273-6.875c-19.361.383-29.525 12.5-29.525 12.5a33.468 33.468 0 0 0 2.886 5.878c9.401-.867 16.927-4.73 22.366-11.503z" fill="#b43a49"/><path d="m212.952 146.57s9.553-21.907 49.715-12.416a3.608 3.608 0 0 1 2.781 3.267c.6 9.175.5 39.3-26.368 41.534z" fill="#f26f7c"/><path d="m212.952 146.57 6.38 7.908a28.759 28.759 0 0 0 15.24-13.678 37.966 37.966 0 0 0 3.243-8.679c-19.5 2.207-24.863 14.449-24.863 14.449z" fill="#b43a49"/><path d="m173.837 127.76s-3.205-36.111 51.763-39.76a3.6 3.6 0 0 1 3.711 2.592c3.152 11.008 12.742 51.665-15 59.313z" fill="#f26f7c"/><path d="m173.837 127.76 8.825 4.83 1.439-2.18c7.179-10.874 9.619-21.957 7.273-32.977-19.174 11.856-17.537 30.327-17.537 30.327z" fill="#b43a49"/><path d="m130.724 131.34s-19.824-35.316 18.167-69.615a3.612 3.612 0 0 1 4.212-.476c10.043 5.75 49.04 31.057 26.042 65.89z" fill="#f26f7c"/><path d="m65.253 164-5.346-9.163a22.23 22.23 0 0 1 .747-12.949c2.733-7.421 5.94-11.448 7.824-13.342a3.59 3.59 0 0 1 3.493-.951c5.6 1.532 21.834 7.392 22.6 23.948-.004-.005-8.86 16.876-29.318 12.457z" fill="#f26f7c"/><g fill="#b43a49"><path d="m82.318 132.039a50.679 50.679 0 0 0 5.8 19.269 17.851 17.851 0 0 0 3.183 4.514 26.372 26.372 0 0 0 3.271-4.284c-.457-9.826-6.36-15.877-12.254-19.499z"/><path d="m125.732 104.257a51.406 51.406 0 0 0 4.992 27.084l10.394-.9a37.288 37.288 0 0 0 -15.386-26.184z"/><path d="m74.09 147.6a92.536 92.536 0 0 0 3.474 16.659 26.9 26.9 0 0 0 8.586-3.946 103.926 103.926 0 0 0 -7.932-14.19 2.256 2.256 0 0 0 -4.128 1.477z"/><path d="m147.148 102.064a84.844 84.844 0 0 0 -2.351 28.3l10.4-.9a269.3 269.3 0 0 1 -3.614-26.989 2.254 2.254 0 0 0 -4.435-.411z"/><path d="m173.539 127.755a129.143 129.143 0 0 0 -4.852-21.589 2.258 2.258 0 0 0 -4.389.918 197.762 197.762 0 0 1 .561 21.424z"/><path d="m189.189 135.912 6.282 3.437c2.057-6.2 5.521-12.26 10.125-21.5a2.256 2.256 0 0 0 -3.446-2.755c-5.163 4.279-11.476 11.306-12.961 20.818z"/><path d="m210.942 146.57a66.848 66.848 0 0 0 7.858-20.97 2.255 2.255 0 0 0 -4.212-1.456 142.569 142.569 0 0 1 -11.548 18.1z"/><path d="m224.2 156.794 5.736 7.109a60.785 60.785 0 0 1 9-8.867 2.863 2.863 0 0 0 -2.84-4.912 66.2 66.2 0 0 0 -11.896 6.67z"/><path d="m233.489 168.817 5.6 6.94a37.237 37.237 0 0 0 14.133-17.263 2.254 2.254 0 0 0 -3.791-2.33 58.811 58.811 0 0 1 -15.942 12.653z"/><path d="m264.929 185.856a2.257 2.257 0 0 0 -2.927-3.2 61.65 61.65 0 0 1 -19.855 5.465 76.316 76.316 0 0 0 8.056 9.284 26 26 0 0 0 14.726-11.549z"/><path d="m163.254 89.273a1.913 1.913 0 0 0 -3.472.872 10.552 10.552 0 0 0 .131 3.319 8.933 8.933 0 0 0 1.233 3.075 1.916 1.916 0 0 0 3.522-.866 11.716 11.716 0 0 0 -.168-3.573 8.287 8.287 0 0 0 -1.246-2.827z"/><path d="m213.605 108.125c.438-1.359-1.167-3.059-2.439-2.6a6.02 6.02 0 0 0 -2.128 1.313 5.492 5.492 0 0 0 -1.378 2.152c-.5 1.383 1.165 3.166 2.461 2.647a6.679 6.679 0 0 0 2.28-1.434 5.2 5.2 0 0 0 1.204-2.078z"/><path d="m74.136 135.621c-.873-.885-2.831-.33-2.991.836a5.247 5.247 0 0 0 .157 2.171 4.793 4.793 0 0 0 1.108 1.929c.868.942 2.913.375 3.034-.835a5.838 5.838 0 0 0 -.19-2.338 4.539 4.539 0 0 0 -1.118-1.763z"/><path d="m273.023 178.469c.343-1.194-1.1-2.628-2.2-2.2a5.245 5.245 0 0 0 -1.815 1.2 4.776 4.776 0 0 0 -1.137 1.911c-.395 1.219 1.1 2.723 2.216 2.234a5.807 5.807 0 0 0 1.943-1.312 4.524 4.524 0 0 0 .993-1.833z"/></g><path d="m95.432 151.538c-.472.157-16.237-21.875-.34-49.4a3.613 3.613 0 0 1 3.548-1.792c8.087.948 34.468 6.061 36.783 32.477z" fill="#f26f7c"/><path d="m100.37 131.728a98.118 98.118 0 0 0 3.03 11.272l6.272-2c-1.729-3.212-3.475-7.012-5.014-10.591a2.257 2.257 0 0 0 -4.288 1.319z" fill="#b43a49"/><path d="m107.932 118.088a147.885 147.885 0 0 1 8.843 21.382l7.722-3.613a69.659 69.659 0 0 0 -12.909-20.333 2.259 2.259 0 0 0 -3.656 2.564z" fill="#b43a49"/><path d="m250.244 180.474-.012-.024-.013-.024c-1.134-2.139-28.251-52.464-70.958-60.988a78.234 78.234 0 0 0 -15.269-1.47c-28.391 0-52.258 14.189-53.675 15.047-6.665 3.953-12.359 7.667-17.383 10.945-8.577 5.595-15.351 10.014-20.595 11.322a24.512 24.512 0 0 1 -5.909.775 17.293 17.293 0 0 1 -6.519-1.225 25.854 25.854 0 0 0 4.429 9.537c20.459 4.424 191.384 38.064 191.384 38.064a29.107 29.107 0 0 0 11.26-.52c-10.225-9.032-16.658-21.281-16.74-21.439z" fill="#b43a49"/><path d="m42.948 75.494a148.688 148.688 0 0 0 -3.711-29.959 1.016 1.016 0 0 1 1.87-.73c3.443 5.973 8.393 16.208 9.217 26.835z" fill="#d9e6f7"/><path d="m65.069 58.13a91.747 91.747 0 0 0 -.24-13.476 1.013 1.013 0 0 1 1.932-.518 40.576 40.576 0 0 1 3.684 13.342z" fill="#d9e6f7"/><path d="m70.445 67.358a69.894 69.894 0 0 1 14.272 1.142 1.016 1.016 0 0 0 .755-1.854 27.434 27.434 0 0 0 -12.286-4.457z" fill="#a0b1f7"/><path d="m54.06 91.543a85.533 85.533 0 0 1 25.726 2.848 1.016 1.016 0 0 0 .862-1.816c-5.306-3.515-14.089-8.184-24.259-9.037z" fill="#a0b1f7"/><path d="m232.066 251.837s-2.951 5.737-3.862 16.1a19.524 19.524 0 0 0 1.709 9.96 57.407 57.407 0 0 1 2.763 7.118 8.831 8.831 0 0 1 -8.431 11.45h-23.362l-1.834-47.151z" fill="#40486f"/><path d="m162.247 241.651s-1.333 3.511-3.828 9.764a27.925 27.925 0 0 0 -1.641 14.9 113.614 113.614 0 0 0 4.4 17.408 9.667 9.667 0 0 1 -9.161 12.739h-17.24v-67.419z" fill="#40486f"/><path d="m13.207 146.57s0-73.836 74.261-98.483a1.45 1.45 0 0 1 1.307 2.55 113.793 113.793 0 0 0 -44.759 70.587 68.021 68.021 0 0 0 -.727 16.888c.245 4.173 1.942 10.982 3.171 12.822 3.444 5.159 11.823 13.974 27.316 10.11 9.558-2.384 20.827-11.808 39.6-22.937 0 0 31.846-19.408 64.724-12.845 40.434 8.07 66.874 57.945 66.874 57.945s11.43 22.054 29.044 30.643c2.541 1.59 5.148 2.8 7.971 2.766 0 0 10.862-1.81 18.493 10.03a2.761 2.761 0 0 0 1.866 1.249 68.856 68.856 0 0 0 11.034.777c4.539-.006 9.72 2.346 12.286 6.091l.033.049a9.005 9.005 0 0 1 .046 9.7c-1.921 3.147-5.537 7.153-11.5 7.153l-38.947 1.365-76.379-20.055s-148.081-30.724-148.721-31.615-30.435-2.039-36.993-54.79z" fill="#7a7a92"/><path d="m13.207 146.57s0 29.341 29.471 39.152c29.141 9.7 60.668-11.389 60.668-11.389s34.228-23.535 69.336-6.209c5.086 2.51 14.269 8.325 18.5 12.1 12.51 11.146 17.009 18.169 30.311 39.262 0 0 2.994 5.855 10.739 11.214 4.932 5.835 40.965 19.078 43.062 22.332a79.668 79.668 0 0 0 -27.124-.483c-13.14 1.909-62.08 3.459-92.251-10.466-15.517-7.162-21.385-10.53-34.275-14.382-7.372-2.2-18.723-3.83-26.394-4.424-8.958-.693-36.1-6.18-36.1-6.18-24.78-9.636-49.52-29.767-45.943-70.527z" fill="#fce2cb"/><path d="m106.654 179.09s-12.063 16.087-14.668 36.535l12.831 5.108z" fill="#e2a083"/><path d="m121.1 229.542c12.889 3.852 19.472 8.731 34.989 15.893 30.17 13.925 79.059 10.981 92.2 9.072a141.1 141.1 0 0 1 27.011-1.477 38.294 38.294 0 0 0 -6.994-8.023 25.59 25.59 0 0 0 -13.669-6.13c-22.322-2.793-31.3-16.254-32.875-18.926-28.006 10.229-46.57-.308-57.47-13.008q-.27-.268-.54-.534a48.339 48.339 0 0 0 -58.778-6.745c-13.892 8.346-31.8 17.159-45.813 17.427a128.922 128.922 0 0 0 35.539 8.009c7.672.6 19.031 2.239 26.4 4.442z" fill="#e2a083"/><path d="m104.86 170.95s-3.152 22.637-.551 42.277a38.017 38.017 0 0 0 1.191 5.6 52.827 52.827 0 0 1 1.9 18.761 29.972 29.972 0 0 1 -1.906 7.816c-1.378 3.665-3.373 12.471-.064 28.622 0 0 1.58 6.65 2.813 14.075a10 10 0 0 0 9.864 8.362h17.723a7.522 7.522 0 0 0 7.446-8.645 71.32 71.32 0 0 0 -2.085-9.476 35.719 35.719 0 0 1 -.8-16.959 123.757 123.757 0 0 1 7.132-24.108 32.741 32.741 0 0 0 2.348-8.567 257.349 257.349 0 0 0 1.707-42.208 18.455 18.455 0 0 1 6.3-14.862 20.224 20.224 0 0 1 12.562-4.564s-28.74-20.683-65.58 3.876z" fill="#7a7a92"/><path d="m207.508 194.772s4.692 16.161-13.032 28.151a88.836 88.836 0 0 0 -12.667 7.864 19.973 19.973 0 0 0 -7.944 17.669 70.857 70.857 0 0 0 3.021 15.109 27.71 27.71 0 0 1 1.234 7.977c.048 3.536.11 8.754.151 14.313a10.693 10.693 0 0 0 10.691 10.611h16.338a7.142 7.142 0 0 0 7.087-7.843 18.473 18.473 0 0 0 -2.285-7.82 15.443 15.443 0 0 1 -2.319-7.725 95.017 95.017 0 0 0 -1.833-17.3s24.762 1.289 27.629-26.34z" fill="#7a7a92"/><path d="m108.731 164a3.464 3.464 0 0 1 -1.723-6.471l1.893-1.083a3.464 3.464 0 0 1 3.44 6.014l-1.892 1.083a3.454 3.454 0 0 1 -1.718.457z" fill="#40486f"/><path d="m124.205 150.664a3.464 3.464 0 0 1 -1.618-6.529l1.893-1a3.464 3.464 0 1 1 3.231 6.129l-1.894 1a3.455 3.455 0 0 1 -1.612.4z" fill="#40486f"/><path d="m141.433 154.37a3.464 3.464 0 0 1 -.794-6.836l2.111-.5a3.464 3.464 0 1 1 1.593 6.743l-2.111.5a3.431 3.431 0 0 1 -.799.093z" fill="#40486f"/><path d="m151.472 139.849a3.464 3.464 0 0 1 -.4-6.905l2.111-.25a3.464 3.464 0 0 1 .812 6.881l-2.111.249a3.538 3.538 0 0 1 -.412.025z" fill="#40486f"/><path d="m167.22 151.205a3.4 3.4 0 0 1 -.425-.027l-2.341-.287a3.464 3.464 0 0 1 .843-6.877l2.341.287a3.465 3.465 0 0 1 -.418 6.9z" fill="#40486f"/><path d="m187.224 145.844a3.449 3.449 0 0 1 -1.49-.339l-2.107-1a3.464 3.464 0 0 1 2.985-6.253l2.106 1a3.465 3.465 0 0 1 -1.494 6.592z" fill="#40486f"/><path d="m192.514 160.435a3.447 3.447 0 0 1 -2.216-.8l-1.598-1.335a3.464 3.464 0 1 1 4.436-5.321l1.595 1.329a3.464 3.464 0 0 1 -2.22 6.125z" fill="#40486f"/><path d="m210.214 162.871a3.454 3.454 0 0 1 -2.44-1l-1.339-1.329a3.464 3.464 0 0 1 4.881-4.917l1.339 1.329a3.464 3.464 0 0 1 -2.441 5.922z" fill="#40486f"/><path d="m224.237 180.816a3.455 3.455 0 0 1 -2.71-1.3l-1.061-1.329a3.464 3.464 0 0 1 5.417-4.32l1.06 1.329a3.464 3.464 0 0 1 -2.706 5.624z" fill="#40486f"/><path d="m281.987 216.616a33.784 33.784 0 0 1 -7.97-2.767 13.5 13.5 0 0 0 -2.813 7.239 1.536 1.536 0 0 0 2.824.956 11.877 11.877 0 0 1 7.959-5.428z" fill="#40486f"/><path d="m287.051 234.4a3.475 3.475 0 0 1 -.981-.142l-1.427-.421a3.464 3.464 0 0 1 1.958-6.646l1.427.421a3.465 3.465 0 0 1 -.977 6.788z" fill="#40486f"/><path d="m43.288 138.111a68.016 68.016 0 0 1 .728-16.887 113.8 113.8 0 0 1 44.747-70.579 1.452 1.452 0 0 0 -1.312-2.552c-23.551 7.819-39.626 20.585-50.605 34.373-7.856 43.534 9.614 68.468 9.614 68.468-1.229-1.84-2.926-8.649-3.172-12.823z" fill="#40486f"/><path d="m205.945 255.779a18.725 18.725 0 0 0 -5.7-4.925 1.286 1.286 0 0 1 .749-2.383c4.76.324 11.488 2.08 15.074 8.89z" fill="#40486f"/></svg>