<svg id="flat" height="512" viewBox="0 0 340 340" width="512" xmlns="http://www.w3.org/2000/svg"><path d="m135.553 28.749a54.972 54.972 0 0 0 -24.576-17.772 11.658 11.658 0 0 0 -7.948 0 54.97 54.97 0 0 0 -24.57 17.764 61.182 61.182 0 0 0 -12.98 38.159v225.507h83.048v-225.507a61.184 61.184 0 0 0 -12.974-38.151z" fill="#f99170"/><path d="m107 61.077v-50.8a11.674 11.674 0 0 0 -3.974.7 54.97 54.97 0 0 0 -24.57 17.764 61.182 61.182 0 0 0 -12.977 38.159v225.507h83.048v-172.049c-6.087-21.726-19.59-33.088-29.553-38.733a23.611 23.611 0 0 1 -11.974-20.548z" fill="#e05a48"/><path d="m59.383 102.356a26.046 26.046 0 0 0 -11.489-8.4 6.018 6.018 0 0 0 -4.168.007 26.04 26.04 0 0 0 -11.465 8.388 29.048 29.048 0 0 0 -6.1 18.06v172h45.48l-6.162-172.053a28.966 28.966 0 0 0 -6.096-18.002z" fill="#3c3c4f"/><path d="m87.046 151.052a154.616 154.616 0 0 0 -22.388 25.248 33.1 33.1 0 0 0 -5.85 16.9l-1.753 29.373a32.979 32.979 0 0 1 -6.555 17.856 390.446 390.446 0 0 0 -33.554 52.871 38.432 38.432 0 0 0 -4.21 15.014l-1.474 21.386h63.938l10.336-9.761z" fill="#616c9b"/><path d="m154.622 102.356a26.046 26.046 0 0 1 11.489-8.4 6.021 6.021 0 0 1 4.169.007 26.046 26.046 0 0 1 11.465 8.388 29.047 29.047 0 0 1 6.1 18.06v172h-45.481l6.163-172.049a28.971 28.971 0 0 1 6.095-18.006z" fill="#3c3c4f"/><path d="m126.96 151.052a154.616 154.616 0 0 1 22.388 25.248 33.111 33.111 0 0 1 5.849 16.9l1.753 29.373a32.979 32.979 0 0 0 6.557 17.864 390.532 390.532 0 0 1 33.553 52.863 38.43 38.43 0 0 1 4.209 15.014l1.475 21.382h-63.936l-10.314-5.374z" fill="#616c9b"/><path d="m126.579 111.2c-3.879-6.2-9.369-12.1-17.087-15.565a6.076 6.076 0 0 0 -2.122-.519s-8.277 22.6-8.277 87.735 7.907 87.733 7.907 87.733a102.857 102.857 0 0 0 28.374-5.116v-121.429c.002-11.871-2.969-23.532-8.795-32.839z" fill="#f0f7ff"/><path d="m78.63 265.468h56.746v26.938h-56.746z" fill="#afc4d8"/><path d="m93.09 283.805h34.71a11.01 11.01 0 0 1 11.011 11.01v34.885h-36.888s-14.923 1.45-16.311-18.5 7.478-27.395 7.478-27.395z" fill="#f0f7ff"/><path d="m107.37 95.124a6.072 6.072 0 0 0 -2.856.511c-7.714 3.465-13.214 9.365-17.087 15.565-5.827 9.31-8.8 20.971-8.8 32.842v121.426a68.374 68.374 0 0 0 28.74 5.087z" fill="#afc4d8"/><path d="m113.225 140.106a8.919 8.919 0 0 0 -11.71 0 41.46 41.46 0 0 0 -5.967 6.484 11.5 11.5 0 0 0 -2.263 6.862v7.292h28.17v-7.292a11.5 11.5 0 0 0 -2.263-6.862 41.46 41.46 0 0 0 -5.967-6.484z" fill="#3c3c4f"/><path d="m93.09 315.093v-31.288h-6.882a11.01 11.01 0 0 0 -11.01 11.01v34.885h26.725c-9.066-3.763-8.833-14.607-8.833-14.607z" fill="#afc4d8"/><g fill="#3c3c4f"><path d="m290.77 176.925-77.841 57.206-.009.07 10.5 19.179c19.043-27.955 70.052-56.569 81.167-62.591a100.94 100.94 0 0 0 -13.817-13.864z"/><path d="m202.8 241.578v74.712h110.178a109.982 109.982 0 0 0 -8.394-125.5c-27.584 4.997-63.405 25.485-101.784 50.788z"/><path d="m242.805 216.138s-20.63 14.282-20.588 52.571c0 0 .291 24.558 16.941 37.215l-51.758.057-.061-56.31c16.749-13.585 35.528-24.361 55.466-33.533z"/></g><path d="m191.841 262.368c38.29-60.747 103.514-86.339 103.514-86.339l-2.044-7.614a94.3 94.3 0 0 0 -141 66.536z" fill="#edeff4"/><path d="m196.174 279.784-4.333-17.416a201.813 201.813 0 0 1 26.482-33.326l-4.415-6.118c-16.622 8-38.16 14.564-61.592 12.027a94.97 94.97 0 0 0 -1.141 14.69c0 23.046 10.075 49.482 28.129 60.534h80.93c-44.363-9.506-64.06-30.391-64.06-30.391z" fill="#edeff4"/><path d="m307.283 283.218a3.558 3.558 0 0 1 -.621-.056 3.5 3.5 0 0 1 -2.829-4.061 102.573 102.573 0 0 0 -2.627-47.135 3.5 3.5 0 0 1 6.709-2 109.586 109.586 0 0 1 2.809 50.366 3.5 3.5 0 0 1 -3.441 2.886z" fill="#fff"/><path d="m298.423 218.67a3.5 3.5 0 0 1 -3.151-1.972c-.924-1.9-1.92-3.8-2.962-5.643a3.5 3.5 0 1 1 6.092-3.446c1.114 1.968 2.179 4 3.167 6.031a3.5 3.5 0 0 1 -3.146 5.03z" fill="#fff"/><path d="m295.092 163.295c-12.549 6.892-70.444 40.243-117.111 93.244l18.05 5.829s48.649-52.99 105.329-80.217a5.656 5.656 0 0 0 3.159-5.767 23.908 23.908 0 0 0 -4.835-12.251 3.666 3.666 0 0 0 -4.592-.838z" fill="#83839b"/><circle cx="189.419" cy="265.468" fill="#83839b" r="21.417"/><circle cx="189.419" cy="265.468" fill="#3c3c4f" r="10.095"/><path d="m179.3 310.175h139.329a9.061 9.061 0 0 1 9.061 9.061v10.464a0 0 0 0 1 0 0h-157.447a0 0 0 0 1 0 0v-10.464a9.061 9.061 0 0 1 9.057-9.061z" fill="#83839b"/></svg>