<svg id="flat" height="512" viewBox="0 0 340 340" width="512" xmlns="http://www.w3.org/2000/svg"><path d="m266.5 190.721c-36.89 5.917-62.8 15.43-60.991 34.028l56.792-3.375c9.762-8.3 10.867-18.585 4.199-30.653z" fill="#c45d49"/><path d="m288.283 187.738c-7.669.9-15.053 1.9-22.043 3.026 2.106 8.362 3.537 21.335-3.938 30.61l14.915-.886a11.066 11.066 0 0 0 11.066-11.067z" fill="#8e3a29"/><path d="m260.761 322.821h-184.315c-32.553 0-58.943-4.391-58.943-36.945v-6.076a15.438 15.438 0 0 1 15.437-15.443h15.394l261.439 8.854c4.288 29.1-9.556 42.859-32.328 49.059-5.29.412-10.889.551-16.684.551z" fill="#ef9a54"/><path d="m277.445 322.264c24.425-1.905 42.259-9.631 42.259-36.388v-6.076a15.437 15.437 0 0 0 -15.437-15.438h-255.933l1.613 1.762s21.471 8.572 30.4 25.176a27.13 27.13 0 0 0 13.89 12.762 32.866 32.866 0 0 0 11.9 2.142c16.266 0 26.561-3.411 46.121-20.442s54.151 4.794 54.151 4.794 30.052 22.507 57.86-2.265a24.7 24.7 0 0 1 7.92-4.8 39.724 39.724 0 0 1 4.558-1.361 11.849 11.849 0 0 1 14.384 13.042c-1.031 8.35-4.346 18.947-13.686 27.092z" fill="#c46627"/><path d="m288.283 187.738h-115.033l-16.818 39.748c.21.048.425.094.64.141l37.294-2.216a70.279 70.279 0 0 0 13.28-6.339q3.111-1.9 6.238-4.247s32.335-24.72 74.4-9.452z" fill="#8e3a29"/><path d="m277.217 220.488-108.617-1.438c-22.96-37.328-128.945-21.129-128.945-21.129v55.785h248.628v-22a11.214 11.214 0 0 0 -11.066-11.218z" fill="#8e3a29"/><path d="m36.375 244.927 98.787 3.371a37.352 37.352 0 0 0 15.331-2.724l16.669-6.773a32.672 32.672 0 0 1 23.3-.492l19.619 7.019a44.222 44.222 0 0 0 18.649 2.425l38.412-3.271c7.341 7.344 11.586 15.437 7.336 25.584a30.963 30.963 0 0 0 -8.312 3.641l-16.65 10.431a23.5 23.5 0 0 1 -18.861 2.68 88.13 88.13 0 0 1 -28.306-13.949c-5.9-10.892-17.735-14.407-33.036-13.617-15.209 9.886-30.57 13.919-41.243 26.5a31.222 31.222 0 0 1 -32.135 4.8 61.7 61.7 0 0 1 -16.611-10.833c-14.564-12.919-31.992-14.281-43.331-15.362-5.437-.518-9.692-8.426-7.974-13.611a8.5 8.5 0 0 1 8.356-5.819z" fill="#99c47a"/><path d="m69.8 246.067s12.3 37.523 30.945 37.218 34.417-34.985 34.417-34.985l-27.282-7.031z" fill="#6f7c40"/><path d="m52.13 208.661 5.394 1.846a16.489 16.489 0 0 1 9.166 7.761l21.71 40.163c12.955 9.892 22.473 5.409 29.515-9.44 6.383-14.39 8.17-27.866 2.615-39.882l-58.581-11.9z" fill="#fcca4c"/><path d="m120.6 185.63-77.246 5.74s-8.038 4.082-2.478 11a15.7 15.7 0 0 0 7.21 4.906l4.045 1.385a72.088 72.088 0 0 1 40.4-1.976 66.977 66.977 0 0 1 17.888 6.93 20.263 20.263 0 0 1 8.969 23.971c-4.087 12.067-12.992 27.482-30.987 20.845l2.426 4.488a12.946 12.946 0 0 0 11.389 6.79 12.936 12.936 0 0 0 10.765-5.754c7.674-11.493 23.961-38 26.309-59.148z" fill="#ef8c20"/><path d="m39.655 111.833h254.8a0 0 0 0 1 0 0v21.53a10.879 10.879 0 0 1 -10.879 10.879h-233.043a10.879 10.879 0 0 1 -10.879-10.879v-21.53a0 0 0 0 1 .001 0z" fill="#8e3a29"/><path d="m39.655 167.226v-12.106a10.879 10.879 0 0 1 10.878-10.879h153.213l34.3 24.2c-52.918 18.431-123.646 11.464-198.391-1.215z" fill="#c45d49"/><path d="m232.609 167.557 61.844-7.6v-4.837a10.879 10.879 0 0 0 -10.879-10.879h-45.749z" fill="#8e3a29"/><path d="m294.453 176.65v-16.695l-1.585-.375a41.634 41.634 0 0 0 -9.343-1.114c-9.688-.053-32.211-.115-49.062.309-9.231.232-16.809.8-22.5 1.392a77.964 77.964 0 0 0 -19.647 4.671 127 127 0 0 1 -25.372 7.072 45.774 45.774 0 0 1 -23.01-2.392 203.95 203.95 0 0 0 -40.627-10.584 53.342 53.342 0 0 0 -24.867 2.266c-15.167 5.073-31.986 5.905-38.785 6.023v9.424l120.933 17.28z" fill="#8e3a29"/><path d="m202.352 143.07a72.8 72.8 0 0 1 13.115 14.359 17.72 17.72 0 0 0 23.577 4.871c5.189-3.164 10.681-9.161 15.582-19.974z" fill="#8e3a29"/><path d="m313.612 122.506a14.506 14.506 0 0 0 -5.832-20.106 52.467 52.467 0 0 0 -13.327-4.759l-30.406-1.828-13.972 24.727c4.984.523 10.137 1.183 15.452 2.021a292.252 292.252 0 0 1 31.5 6.754 14.616 14.616 0 0 0 16.585-6.809z" fill="#6f7c40"/><path d="m219.733 93.15-33.318-2-153.474 6.491s-7.692.368-11.055 9.08a6.988 6.988 0 0 0 6.562 9.447h14.221a29.409 29.409 0 0 1 17.8 6.058c5.442 4.14 14.7 8.88 28.589 8.88 14.81 0 27.193-6.041 34.718-10.863l11.682-8.41 52.223 15.436a70.345 70.345 0 0 0 13.834-7.872c6.255-.381 13.683-.6 22.027-.467z" fill="#99c47a"/><path d="m309.773 103.684a14.41 14.41 0 0 0 -1.993-1.284 52.467 52.467 0 0 0 -13.327-4.759l-45.573-2.741-23.332 12.17 1.829 11.254 2.178.762a302.2 302.2 0 0 1 35.971 3.477c6.109-8.117 19.28-19.746 44.247-18.879z" fill="#6f7c40"/><path d="m57.377 105.372a1.361 1.361 0 0 0 .919 2.537 105.238 105.238 0 0 0 26.128-10.268s-.278-.911-.778-2.145l-12.689.537c-3.611 3.64-9.019 6.934-13.58 9.339z" fill="#6f7c40"/><path d="m242.606 146.047c-7.658 7.855-13.7 6.831-19.065 2.138l-33.295-40.236 64.38-8.114 12.734 8.9s-26.531 39.783-24.754 37.312z" fill="#fcca4c"/><path d="m164.419 94.882s7.153 5.456 16.87 13.85c12.676 10.952 29.718 26.908 40.957 42.31a10.066 10.066 0 0 0 15.312 1.074 52.185 52.185 0 0 0 5.044-6.071 16.259 16.259 0 0 1 -4.851 2.443 11.338 11.338 0 0 1 -11.672-3.41 164.837 164.837 0 0 1 -16.233-21.557c-8.552-13.524 1.073-14.708 3.709-14.789h53.807a66.482 66.482 0 0 1 27.091-11.091v-9.108z" fill="#ef8c20"/><path d="m260.761 17.179h-184.315a58.951 58.951 0 0 0 -58.639 52.921c2.134 12.256 7.647 19.641 17.306 21.052l261.4-4.559c9.652-15.227 8.054-39.932-1.988-58.783a58.669 58.669 0 0 0 -33.764-10.631z" fill="#ef9a54"/><path d="m304.267 97.641a15.437 15.437 0 0 0 15.433-15.441v-6.078a58.859 58.859 0 0 0 -25.183-48.3 73.93 73.93 0 0 1 .111 20.806c-2.861 19.058-19.58 32.972-38.857 32.972h-77.533a33.313 33.313 0 0 1 -15.386-3.737c-16.147-8.41-36.352-11.963-48.052-13.405a16.783 16.783 0 0 0 -14.931 5.823 42.17 42.17 0 0 1 -14.355 11.61 22.467 22.467 0 0 1 -9.928 2.232h-31.48c-15.952 0-23.147-7.337-26.358-13.249-.153 1.73-.245 3.478-.245 5.248v6.078a15.438 15.438 0 0 0 15.437 15.441z" fill="#c46627"/><path d="m83.321 98.253a93.669 93.669 0 0 0 19.589-14.741 16.6 16.6 0 0 1 13.518-4.583c10.077 1.2 30 3.909 51.51 18.712z" fill="#99c47a"/><path d="m65.887 193.5c21.082-2.02 42.993-2.858 57.032 7.163a129.125 129.125 0 0 0 26.744 15.029 47.247 47.247 0 0 0 39.959-2.268 253.267 253.267 0 0 1 47.447-19.49 92.755 92.755 0 0 1 28.081-3.12c11.489-4.034 13.374-11.628 6.84-22.342-21.72-.191-41.643.722-55.106 1.576-5.981 7.063-14.019 11.545-24.9 12.469-17.975 8.378-29.528 3.906-47.537-2.623a313.977 313.977 0 0 0 -36.675-9.9 69.969 69.969 0 0 0 -29.872.206c-5.442 1.224-12.046 2.627-18.965 3.912-10.208 1.9-20.931 1.048-28.036.028a8.845 8.845 0 0 0 -9.935 6.958 8.844 8.844 0 0 0 6.249 10.291c7.069 2.022 19.404 3.954 38.674 2.111z" fill="#99c47a"/><path d="m199.707 187.832a40.674 40.674 0 0 0 17.177-17.788l-1.433.092a101.237 101.237 0 0 0 -27.186 5.688 152.991 152.991 0 0 1 -20.836 5.754 43.673 43.673 0 0 1 -22.978-1.688c7.273 3.253 23.886 9.258 38.348 10.985a28.619 28.619 0 0 0 16.908-3.043z" fill="#6f7c40"/><path d="m173.287 256.031-1.648.286s-24.876 4.758-43.566 29.44a84.588 84.588 0 0 1 56.227-19.116 31.7 31.7 0 0 1 18.057 6.228c-3.814-7.526-10.93-18.469-29.07-16.838z" fill="#6f7c40"/><g fill="#fce19d"><circle cx="67.455" cy="41.096" r="3.831"/><circle cx="94.495" cy="56.383" r="3.831"/><circle cx="116.768" cy="34.193" r="3.831"/><circle cx="139.287" cy="56.383" r="3.831"/><circle cx="164.419" cy="34.193" r="3.831"/><circle cx="186.415" cy="56.383" r="3.831"/><circle cx="208.688" cy="34.193" r="3.831"/><circle cx="231.208" cy="56.383" r="3.831"/><circle cx="259.677" cy="35.945" r="3.831"/><circle cx="272.342" cy="56.383" r="3.831"/></g><path d="m145.407 120.058a69.573 69.573 0 0 1 10.134 7.858 17.263 17.263 0 0 0 14.177 4.424 72.532 72.532 0 0 0 17.959-5.079 86.119 86.119 0 0 0 -27.089-19.3c-19.058-8.84-36.813 12.277-36.813 12.277a20.162 20.162 0 0 1 21.632-.18z" fill="#6f7c40"/><path d="m291.464 242.412-24.319 2.07c2.88 5.423 5.7 13.544 7.337 25.587a30.984 30.984 0 0 1 5.567-.985l13.715-1.143a12.774 12.774 0 0 0 11.077-8.411c.04-.116.078-.231.116-.347a12.943 12.943 0 0 0 -13.493-16.771z" fill="#6f7c40"/><path d="m317.727 181.542a92.573 92.573 0 0 0 -12.2-7.462 48.477 48.477 0 0 0 -20.826-5.37q-6.428-.191-12.714-.237c.885 4.3.789 12.179-6.84 22.339a103.942 103.942 0 0 1 40.81 10.369 11.436 11.436 0 0 0 11.882-.989c.1-.072.19-.144.283-.216a11.587 11.587 0 0 0 -.395-18.434z" fill="#6f7c40"/></svg>