<svg id="flat" height="512" viewBox="0 0 340 340" width="512" xmlns="http://www.w3.org/2000/svg"><path d="m105.333 52.7a3 3 0 0 1 -2.994-2.844l-.639-12.276a4.5 4.5 0 0 0 -4.169-4.053l-11.107-.573a3 3 0 1 1 .309-5.992l11.157.576a10.568 10.568 0 0 1 9.8 9.651l.643 12.353a3 3 0 0 1 -2.841 3.151c-.054.007-.107.007-.159.007z" fill="#3c3c4f"/><path d="m301.546 196.233a133.646 133.646 0 0 1 -4.017 32.613l-22.614 47.354a133.572 133.572 0 0 1 -140.093 49.171l-40.008-17.771a133.333 133.333 0 0 1 -58.956-94.821l193.832-134.902a133.338 133.338 0 0 1 71.856 118.356z" fill="#dddded"/><path d="m235.26 80.956a133.376 133.376 0 0 0 -200.418 115.277 134.565 134.565 0 0 0 1.025 16.541l194.983-72.067z" fill="#75758e"/><path d="m154.724 43.611h-38.732s-10.292 22.8 3.765 38.827 48.367-2.083 48.367-2.083l-5.972-30.625a7.568 7.568 0 0 0 -7.428-6.119z" fill="#a5c7ff"/><circle cx="85.698" cy="246.63" fill="#75758e" r="16.183"/><path d="m111.744 300.234a23.1 23.1 0 0 0 -16.925 7.355 132.664 132.664 0 0 0 40 17.786c.055-.651.09-1.308.09-1.973a23.168 23.168 0 0 0 -23.165-23.168z" fill="#a0a0bc"/><path d="m227.059 292.492a34.931 34.931 0 0 1 -56.559-37.639s18.24-27.369 46.928-6.869 9.631 44.508 9.631 44.508z" fill="#a0a0bc"/><path d="m238.2 266.915a34.925 34.925 0 0 0 -67.7-12.062 34.919 34.919 0 0 1 56.549 37.634 34.82 34.82 0 0 0 11.151-25.572z" fill="#75758e"/><path d="m161.958 220.585a33.589 33.589 0 0 1 -53.413-37.8s20.546-28.479 48.079-6.372 5.334 44.172 5.334 44.172z" fill="#a0a0bc"/><path d="m139.631 161.924c-18.523.585-31.012 11.957-32.319 24.444 5.935-5.289 16.086-10.964 24.66-10.964 18.546 0 32.482 13.9 32.482 32.449a33.478 33.478 0 0 1 -2.5 12.727 33.49 33.49 0 0 0 11.257-25.08c0-18.542-15.044-34.162-33.58-33.576z" fill="#75758e"/><path d="m269.077 258.586a29.376 29.376 0 0 0 5.836 17.617 132.828 132.828 0 0 0 22.544-47.092 29.5 29.5 0 0 0 -28.38 29.475z" fill="#a0a0bc"/><g fill="#75758e"><circle cx="257.608" cy="191.427" r="21.842"/><circle cx="207.8" cy="168.472" r="9.632"/><circle cx="258.727" cy="139.243" r="6.494"/></g><path d="m305.158 98.461h-72.158v-13.367a347.859 347.859 0 0 1 72.161 0z" fill="#f74f73"/><path d="m305.158 85.094h-72.158v-13.368a616.475 616.475 0 0 1 72.161 0z" fill="#fff"/><path d="m305.158 71.726h-72.158v-13.368a512.954 512.954 0 0 1 72.161 0z" fill="#f74f73"/><path d="m305.158 58.358h-38.723l-10.281-14.558a459 459 0 0 1 49 1.19z" fill="#fff"/><path d="m305.158 44.991h-72.161l4.444-13.368h67.717z" fill="#f74f73"/><path d="m232.997 58.358h33.438v-26.735h-28.994z" fill="#4260ad"/><path d="m223.683 31.623h13.758a0 0 0 0 1 0 0v102.494a6.591 6.591 0 0 1 -6.591 6.591h-.577a6.591 6.591 0 0 1 -6.591-6.591v-102.494a0 0 0 0 1 .001 0z" fill="#3c3c4f"/><path d="m245.62 45.222 1.34 2.713 2.994.435-2.167 2.112.512 2.982-2.679-1.408-2.678 1.408.512-2.982-2.167-2.112 2.994-.435z" fill="#fff"/><path d="m258.698 45.222 1.339 2.713 2.994.435-2.167 2.112.512 2.982-2.678-1.408-2.678 1.408.511-2.982-2.167-2.112 2.995-.435z" fill="#fff"/><path d="m252.08 35.706 1.339 2.714 2.995.435-2.167 2.112.511 2.982-2.678-1.408-2.678 1.408.512-2.982-2.167-2.112 2.994-.435z" fill="#fff"/><path d="m74.094 44.392a2.412 2.412 0 0 0 3.189 2.525c7.128-2.57 13.289-8.18 14.065-16.03.77-7.8-3.975-15.756-10.359-20.058a2.419 2.419 0 0 0 -3.754 1.771z" fill="#6d91de"/><path d="m115.992 43.611h-14.863a7.568 7.568 0 0 0 -7.429 6.119l-8 41.042h84.457l-2.031-10.417h-27.583a17.364 17.364 0 0 1 -16.514-12z" fill="#6d91de"/><circle cx="127.927" cy="67.191" fill="#fff" r="13.163"/><path d="m192.348 106.347a22.3 22.3 0 0 0 -21.286-15.575h-23.714c-4.408 5.059-5.1 10-1.464 14.806h16.849a22.694 22.694 0 0 1 18.915 10.155l10.62 16.021a2.221 2.221 0 0 0 4.067-1.332 94.019 94.019 0 0 0 -3.987-24.075z" fill="#505066"/><path d="m84.791 90.772a22.3 22.3 0 0 0 -21.286 15.575 94.019 94.019 0 0 0 -3.987 24.075 2.221 2.221 0 0 0 4.067 1.332l10.62-16.021a22.694 22.694 0 0 1 18.915-10.155h52.764c.671-4.534 1.181-9.455 1.464-14.806z" fill="#3c3c4f"/><path d="m131.544 134.886c6.563-20.8 6.731-44.114 6.731-44.114h-12.55c-4.017 13.839-.684 35.445 5.819 44.114z" fill="#505066"/><path d="m125.725 90.772h-8.146s.192 26.809 8.26 48.586a2.227 2.227 0 0 0 4.175 0c.545-1.471 1.051-2.966 1.527-4.472-3.634-16.471-5.754-44.046-5.754-44.046z" fill="#3c3c4f"/></svg>