<svg id="flat" height="512" viewBox="0 0 340 340" width="512" xmlns="http://www.w3.org/2000/svg"><path d="m285.8 91.98 41.4 219.759a7.973 7.973 0 0 1 -7.835 9.449h-75.286c5.049-61.837 27.191-142.437 41.721-229.208z" fill="#3c3c4f"/><path d="m22.66 321.188 31.754-229.208h231.386l-31.227 225.373a4.446 4.446 0 0 1 -4.4 3.835z" fill="#3c3c4f"/><path d="m10.388 291 35.654-161.176a3.64 3.64 0 0 1 3.376-2.847c74.263-3.587 148.889-3.3 226.819.136l-35.291 167.611a10.979 10.979 0 0 1 -10.721 8.608h-209.934a10.142 10.142 0 0 1 -9.903-12.332z" fill="#fff"/><path d="m276.237 127.113 9.558-35.133h-231.381z" fill="#3c3c4f"/><path d="m22.049 238.286-11.661 52.714a10.142 10.142 0 0 0 9.9 12.332h209.937a10.979 10.979 0 0 0 10.721-8.608l35.291-167.611q-22.422-.99-44.5-1.623c-7.237 30.462-42.453 115.902-209.688 112.796z" fill="#e7edf2"/><path d="m139.509 268.27h-53.73l6.4-28.949h36.788a3.5 3.5 0 0 0 0-7h-35.235l5.841-26.409h27.127a3.5 3.5 0 1 0 0-7h-25.578l5.424-24.523h32.963a3.5 3.5 0 1 0 0-7h-60.491a15.369 15.369 0 0 0 -15.1 12.125l-17.018 76.951a15.464 15.464 0 0 0 15.1 18.805h77.514a3.5 3.5 0 1 0 0-7zm-52.946-35.949h-27.158l5.842-26.409h27.158zm-15.811-51.295a8.414 8.414 0 0 1 8.266-6.637h20.36l-5.425 24.523h-27.153zm-15.352 84.079a8.424 8.424 0 0 1 -1.665-7.129l4.127-18.655h27.153l-6.4 28.949h-16.615a8.425 8.425 0 0 1 -6.6-3.165z" fill="#5b5b7c"/><path d="m212.075 215.412 8.339-45.412h-27.064l-39.771 45.412-4.888 26.617h31.433l-4.293 23.38h27.063l4.293-23.38h14.372l4.888-26.617zm-19.36-9.607-2.525 10.958a3.036 3.036 0 0 1 -2.958 2.354h-7.676a1.185 1.185 0 0 1 -.851-2.009l12-12.393a1.184 1.184 0 0 1 2.01 1.09z" fill="#f74f73"/><path d="m300.925 18.845s30.365-1.168 28.875 32.955a8.22 8.22 0 0 1 -8.228 7.821h-77.619s11.247-42.153 56.972-40.776z" fill="#e87b31"/><path d="m46.642 127.113s-40.869-17.567-22.85-72.23c0 0 9.814-32.107 45.538-36.038h231.6c-35.724 3.931-45.538 36.038-45.538 36.038-18.019 54.663 20.85 72.23 20.85 72.23z" fill="#ffb655"/></svg>