<svg id="flat" height="512" viewBox="0 0 340 340" width="512" xmlns="http://www.w3.org/2000/svg"><path d="m164.1 160.709h-154.1v52.354l124.46 106.545c75.108-.248 177.418-5.7 195.09 4.351l.45-.6v-80.591l-31.991-64.659z" fill="#ffe0cb"/><path d="m46.526 74.041h113.181a2.05 2.05 0 0 0 1.119-3.767l-.123-.082a22.424 22.424 0 0 1 -9.339-14.225c-1.05-5.091-5.109-14.138-20.706-13.931 0 0 1.221-26.238-25.036-26.238s-24.422 24.508-24.422 24.508-21.071-4.613-25.65 18.165c0 0-2.176 6.352-10.191 11.838a2.048 2.048 0 0 0 1.167 3.732z" fill="#f2caaf"/><path d="m10 257.082v67.118h28.718l99.968-2.827c-12.235-23.887-48.779-53.042-72.189-67.289z" fill="#dba691"/><path d="m72.909 171.676-26.731 20.562s91.845-5.192 99.385 43.327c0 0 7.208 61.458-106.845 88.637h141.858c17.48-3.856 34.088-3.922 49.777 0h99.647v-1.776c-.369-16.319-11.279-140.188-257.091-150.75z" fill="#3c3c4f"/><path d="m234.574 278.9h-31.129c-1.889 14.173-8.342 29.725-22.869 45.3h49.777a130.652 130.652 0 0 0 4.221-45.3z" fill="#fff"/><path d="m210.468 222.151h-21.729a89.434 89.434 0 0 1 14.277 34.931h27.461a87.123 87.123 0 0 0 -20.009-34.931z" fill="#fff"/><g fill="#93d891"><path d="m24.3 109.939a3 3 0 0 1 -3-3v-8.839a3 3 0 0 1 6 0v8.838a3 3 0 0 1 -3 3.001z"/><path d="m37.716 112.364a3 3 0 0 1 -2.373-4.832l5.143-6.667a3 3 0 0 1 4.751 3.664l-5.143 6.671a3 3 0 0 1 -2.378 1.164z"/><path d="m51.525 126.5h-8.194a3 3 0 0 1 0-6h8.194a3 3 0 1 1 0 6z"/><path d="m51.525 146.3h-9.054a3 3 0 0 1 0-6h9.054a3 3 0 1 1 0 6z"/></g><path d="m75.209 132.979a3 3 0 0 1 -3-3v-5.893a3 3 0 0 1 6 0v5.893a3 3 0 0 1 -3 3z" fill="#5da058"/><path d="m87.91 143.7a3 3 0 0 1 -1.685-5.484l5.219-3.535a3 3 0 0 1 3.365 4.969l-5.22 3.535a2.993 2.993 0 0 1 -1.679.515z" fill="#5da058"/><path d="m94.437 163.709h-5.553a3 3 0 0 1 0-6h5.553a3 3 0 1 1 0 6z" fill="#5da058"/><path d="m47.147 156.44v-35c0-10.071-7.831-18.649-17.9-19.007a18.575 18.575 0 0 0 -19.247 18.567v124.283l25.111 5.551z" fill="#93d891"/><path d="m24.3 202.415a3 3 0 0 0 -3 3v42.524a3 3 0 0 0 6 0v-42.524a3 3 0 0 0 -3-3z" fill="#5da058"/><path d="m30.314 157.24a3 3 0 0 0 0-6h-3.014v-19.162h3.01a3 3 0 0 0 0-6h-3.01v-7.239a3 3 0 0 0 -6 0v69.069a3 3 0 0 0 6 0v-5.154h3.01a3 3 0 0 0 0-6h-3.01v-19.514z" fill="#5da058"/><path d="m47.147 215.481a30.2 30.2 0 0 1 .415-4.959c-5.777 4.8-15.966 14.823-21.542 29.536a8 8 0 0 1 -7.462 5.225h-8.558v11.8h24.659l12.488-32.541z" fill="#5da058"/><path d="m34.659 257.082s-1.028-29.926 26.989-43.035c0 0-5.655 13.109-5.141 25.446 0 0 4.884-6.169 18.506-6.94a45.76 45.76 0 0 0 -8.513 21.533 3.33 3.33 0 0 1 -3.29 3z" fill="#ce604a"/><path d="m175.059 198.923h-14.559a36.791 36.791 0 0 1 15.962 9.7h19.028a97.615 97.615 0 0 0 -20.431-9.7z" fill="#fff"/><path d="m72.541 185.716a20.613 20.613 0 0 0 17.366-20.355v-23.393a13.253 13.253 0 0 0 -13.893-13.237 13.5 13.5 0 0 0 -12.614 13.612v6.275a7.822 7.822 0 0 1 -7.822 7.822h-8.431s-8.847 43.628-22.847 74.486c-.01 14.311 7.62 9.735 15.709 4.026l7.542-24.431a30.147 30.147 0 0 1 24.99-24.805z" fill="#5da058"/><path d="m164.1 160.709c41.794 5.308 86.728 20.905 133.449 42.363l-21.121 9.991c20.187 7.437 38.272 17.089 53.572 29.705v-82.059z" fill="#dba691"/><path d="m276.428 213.063s.334-16.528-18.507-19.043c0 0 15.173-4.851 24.677 3.054 0 0 1-17.786-11.672-23.176 0 0 20.509 1.8 22.843 18.684 0 0 3-13.6 13.5-15.515 0 0-4.668 11.2-3.834 19.108 0 0 5.11-7.365 13.64-4.671 0 0-8.972 5.57-8.972 21.559z" fill="#ce604a"/><path d="m228.888 29.546v25.989c3.405 5.264 3.37 10.132 0 14.616v7.711a31.456 31.456 0 0 1 -1.962 10.2c28.755 5.226 56.814 9.644 77.119 5.065 4.091-20.762 2.584-41.974-3.887-63.584z" fill="#e86554"/><path d="m300.158 29.772-6.158 52.52a5.074 5.074 0 0 1 -4.975 4.482c-24.631.326-49.988.982-62.027 1.317-2.552 7.108-8.546 15.744-22.633 17.815l53.952-1.4 71.683-1.854v-72.88z" fill="#b73e35"/><path d="m297.137 55.535h-68.249v14.616a122.188 122.188 0 0 1 44.963 1.808 51.057 51.057 0 0 0 21.315.425c2.783-5.747 3.688-11.378 1.971-16.849z" fill="#fcd6be"/><path d="m295.163 72.369c.255-.05.513-.086.767-.14a123.269 123.269 0 0 1 34.07-2.4v-14.3h-32.863z" fill="#e09f90"/><path d="m249.091 157.709c7.2-21.1 13.63-36.675 9.458-55.283h-74.19v27.89a33.07 33.07 0 0 1 -8.705 22.405z" fill="#e86554"/><path d="m258.549 102.426c-.823 6.563-2.091 16.773-3.376 27.443a17.756 17.756 0 0 1 -15.6 15.521l-63.916 7.331a32.048 32.048 0 0 1 -8.921 6.791 25.445 25.445 0 0 1 -2.633 1.2l165.897 3.488v-61.774z" fill="#b73e35"/></svg>