<svg id="flat" height="512" viewBox="0 0 340 340" width="512" xmlns="http://www.w3.org/2000/svg"><path d="m193.24 210.7c6.4-31.823 4.127-47.106 2.351-53.169a29.589 29.589 0 0 1 -1.157-8.66l-26.656-15.112-26.658 14.912a29.611 29.611 0 0 1 -1.155 8.86c-1.775 6.063-4.05 21.346 2.352 53.169l5.341 30.489a10.123 10.123 0 0 1 -2.008 7.832c-1.876 2.488-3.52 7.185-.979 15.554h46.215c2.54-8.369.9-13.066-.979-15.554a10.124 10.124 0 0 1 -2.009-7.832z" fill="#ffb655"/><path d="m176.491 121.519c-9.94-3.184-19.856-3.527-29.739 0-2.35 2.589-4.939 5.445-7.172 7.919.574 4.594 1.206 10.954 1.517 18.47.011.255 0 .509 0 .764 3.435.57 9.194.287 14.051-6 0 0 3.428 6.2 14.814 6.2h24.491c0-.321-.01-.642 0-.963.343-8.282 1.075-15.162 1.691-19.82z" fill="#e87b31"/><path d="m200.7 73.227-9.179-5.647a102.513 102.513 0 0 0 -34.894-7.749l-21.778 13.4a16.859 16.859 0 0 0 -7.72 14.169s-.187 22.687 4.688 40.313l21.751-10.313 54.86 6.75v-36.75a16.859 16.859 0 0 0 -7.728-14.173z" fill="#ffb655"/><path d="m161.947 127.709h13.214v136.866h-13.214z" fill="#e87b31"/><path d="m129.489 274.615v29.979l60.677 2.239-2.64-32.218z" fill="#696987"/><path d="m71.124 54.292 4.948-16.868 4.948 16.868a13.271 13.271 0 0 0 7.489 8.455l9.85 4.237-10.022 4.316a13.273 13.273 0 0 0 -7.4 8.161l-4.866 15.27-4.866-15.27a13.27 13.27 0 0 0 -7.4-8.161l-10.02-4.316 9.85-4.237a13.271 13.271 0 0 0 7.489-8.455z" fill="#aad5f2"/><path d="m166.462 98s14.621-2.091 15.812 8.972c1.148 10.656-8.812 12.027-8.812 12.027l-7.5-2.858z" fill="#e87b31"/><path d="m258.98 176.279 4.948-16.868 4.948 16.868a13.271 13.271 0 0 0 7.489 8.455l9.85 4.237-10.022 4.312a13.27 13.27 0 0 0 -7.4 8.161l-4.866 15.27-4.866-15.27a13.273 13.273 0 0 0 -7.4-8.161l-10.022-4.312 9.85-4.237a13.271 13.271 0 0 0 7.491-8.455z" fill="#aad5f2"/><path d="m187.526 274.615a19.263 19.263 0 0 1 -1.9 4.25v21.184l-56.142 4.545v8.772h78.136v-38.751z" fill="#3c3c4f"/><path d="m112.989 321.922v8.935h72.642c8.662-5.831 9.4-14.293.551-17.491h-64.637a8.556 8.556 0 0 0 -8.556 8.556z" fill="#696987"/><path d="m224.12 330.857v-8.935a8.556 8.556 0 0 0 -8.556-8.556h-29.382c1.384 1.883 4.552 7.772-.551 17.491z" fill="#3c3c4f"/><path d="m175.57 108.1 11.453.977 3.145-6.077a.955.955 0 0 1 1.8.561l-1.868 14.456-21.23-1.816z" fill="#e87b31"/><path d="m185.631 278.865h-54.808a7.145 7.145 0 0 1 -7.145-7.145 7.145 7.145 0 0 1 7.145-7.145h54.808s6.634 2.955 6.634 7.916-6.634 6.374-6.634 6.374z" fill="#696987"/><path d="m185.631 278.865h20.655a7.145 7.145 0 0 0 0-14.29h-20.655s5.533 4.873 0 14.29z" fill="#3c3c4f"/><path d="m164.872 116.242h27.5l16.052 7.1s.739 14.238-13.367 14.238h-24.044c-9.808 0-16.107-9.795-10.723-17.155a17.2 17.2 0 0 1 4.582-4.183z" fill="#ffb655"/><path d="m144 96.894 2.312 17.821 5.836-7.264-6.54-11.109a.868.868 0 0 0 -1.608.552z" fill="#e87b31"/><path d="m131.817 127.709a21.061 21.061 0 0 0 3.762 4.95 10.314 10.314 0 0 0 15.532-1.3 80.9 80.9 0 0 1 9.4-10.943 13.906 13.906 0 0 1 6.345-3.345l2.538-.595a9.375 9.375 0 0 0 7.232-9.127 9.374 9.374 0 0 0 -10.164-9.349l-3.39.284a15.561 15.561 0 0 0 -7.782 2.846 83.332 83.332 0 0 0 -23.473 26.579z" fill="#ffb655"/><path d="m178.927 59.83v-12.938h-22.296v12.938l34.894 7.75z" fill="#e87b31"/><path d="m185.635 22.908c-3.846-14.279-17.856-13.762-17.856-13.762s-14.01-.517-17.857 13.762a20.521 20.521 0 0 0 -.671 5.338v8.982a17.441 17.441 0 0 0 4.956 12.328 26.266 26.266 0 0 0 10 6.194 10.743 10.743 0 0 0 7.14 0 26.274 26.274 0 0 0 10-6.194 17.44 17.44 0 0 0 4.955-12.328v-8.982a20.521 20.521 0 0 0 -.667-5.338z" fill="#ffb655"/><g fill="#fff"><path d="m152.227 70.049-7.418 5.06a2.147 2.147 0 0 0 -.641 2.86l2.109 3.59a2.411 2.411 0 0 0 3.5.73l9.129-6.626a2.485 2.485 0 0 0 .326-3.739l-1.25-1.29a4.485 4.485 0 0 0 -5.755-.585z"/><path d="m140.51 80.907 2.318 3.774a2.411 2.411 0 0 1 -.557 3.152l-1.316 1.043a2.483 2.483 0 0 1 -3.62-.584l-1.135-1.734a4.572 4.572 0 0 1 1.3-6.317 2.147 2.147 0 0 1 3.01.666z"/></g></svg>