<svg id="flat" height="512" viewBox="0 0 340 340" width="512" xmlns="http://www.w3.org/2000/svg"><path d="m233.754 189.808a81.949 81.949 0 0 1 28.387 52.937l17.386 1.209s8.3-27.1-8.035-55.941-37.738 1.795-37.738 1.795z" fill="#ffcac0"/><path d="m242.837 136.377-20.089 45.577a66.449 66.449 0 0 1 11 7.855 49.461 49.461 0 0 0 12.485-6.957 13.383 13.383 0 0 1 20.175 4.359c6.716 13.051 14.212 33.206 13.114 56.743l10.578.736s7.3-61.52-47.263-108.313z" fill="#ef9292"/><path d="m262.141 242.745-4.068 8.671a8.524 8.524 0 0 0 4.068 11.325l-1.109 11.273a12.131 12.131 0 0 0 0 2.349s13.387 7.34 19.437-9.8-.831-27.2-.831-27.2a19.237 19.237 0 0 0 -17.497 3.382z" fill="#f4f4f4"/><path d="m90.222 290.854 114.8-.462 3.866 39.608h-127.547s3.122-13.9 8.881-39.146z" fill="#3c3c4f"/><path d="m95.132 119.6a72.411 72.411 0 0 0 -30.355 19.09 10.52 10.52 0 0 0 -.286 14.113l2.2 2.543 24.682 99.583-.557 17.38c16.38 14.981 76.98 16.317 113.138-3.711-.054-23.46 3.183-60.685 21.754-85.048a135.585 135.585 0 0 0 5.652-33.314c.606-17.838-6.664-28.63-6.664-28.63s-1.206-9.645-10.236-13.243l-34.725 11.318z" fill="#f45d77"/><path d="m175.933 215.117a58.281 58.281 0 0 0 -6.271-24.019 22.566 22.566 0 0 0 -17.54-11.893c-35.082-3.793-59.506 18.978-59.506 18.978l-11.231 16.457 9.987 40.293-.557 17.38c10.248 9.373 37.805 13.4 65.856 10.2 11.453-4.977 22.433-13.2 27.537-31.8 6.498-23.677-8.275-35.596-8.275-35.596z" fill="#c12140"/><path d="m115.908 117.738c1.146.827 58.185 41.585 98.481-9.4a17.36 17.36 0 0 0 -1.842-.608 19.793 19.793 0 0 0 -9.228-.13l-18.819 3.979z" fill="#c12140"/><path d="m167.535 110.485 13.843 21.2a45.746 45.746 0 0 1 -4.551 9.37c-5.331 8.374-13.4 21.133-26.236 30.329 0 0-29.015-8.924-55.459-51.782l16.28-3.38z" fill="#fff"/><path d="m181.358 131.68a47.451 47.451 0 0 0 2.583-12.36l.556-7.741-16.962-1.094-50.225 5.135-1.431 2.1s32.213 23.48 65.479 13.96z" fill="#bebfce"/><path d="m111.412 116.224s6.334 18.517 35.7 39.126a184.878 184.878 0 0 0 16.466-21.413z" fill="#ffcac0"/><path d="m167.071 127.953.054-.1a19.038 19.038 0 0 0 .482-16.03l-2.238-5.385-47.695 8.652-1.8 2.629s21.6 15.743 47.7 16.22c1.273-2 2.463-4.014 3.497-5.986z" fill="#ef9292"/><path d="m205.026 290.392a208.552 208.552 0 0 1 -1.072-21.79 213.734 213.734 0 0 1 -48.424 8.458c-15.017 3.621-28.154 8.274-33.44 17.237 22.126 1.465 52.915 1.733 82.936-3.905z" fill="#c12140"/><path d="m155.533 277.057a248.111 248.111 0 0 1 -64.715-4.739l-.593 18.541s12.677 2.171 31.868 3.442a147.934 147.934 0 0 0 33.44-17.244z" fill="#c12140"/><path d="m87.371 228s12.012-47.8 64.916-43.551a11.11 11.11 0 0 1 3.277.773s-2.236 25.917-18.166 41.114-39.321 13.628-39.321 13.628z" fill="#f16159"/><path d="m98.077 239.962 12.474 13.94c48.816-3.867 52.756-41.391 51.851-59.1a10.919 10.919 0 0 0 -6.841-9.571c-5.429 13.869-21.618 45.974-57.484 54.731z" fill="#be4144"/><path d="m133.6 201.6-6.589-5.439a3 3 0 1 0 -3.82 4.627l.251.207a60.385 60.385 0 0 0 -7.071 5.366l-1.557-1.285a3 3 0 1 0 -3.814 4.624l1.011.835a76.83 76.83 0 0 0 -6.378 7.542l-.9-.744a3 3 0 0 0 -3.819 4.627l6.586 5.44a3 3 0 1 0 3.82-4.627l-1.048-.865a71.519 71.519 0 0 1 6.386-7.535l.93.768a3 3 0 1 0 3.82-4.627l-.335-.276a51.665 51.665 0 0 1 7.261-5.21l1.452 1.2a3 3 0 1 0 3.814-4.628z" fill="#fff"/><path d="m108.13 56.551v31.813s33.894 12.474 45.567-1.022 7.128-30.791 7.128-30.791z" fill="#ffcac0"/><path d="m160.825 56.551h-14.411c3.229 7.078 7.691 21.161-4.29 27.25a19.218 19.218 0 0 1 -9.47 1.949c-4.418-.172-8.894-.441-13.155-.441-5.007 0-8.673 1.233-11.369 3.055v8.842c1.2 11.926 9.839 17.93 24.644 19.018 14.409.747 23.4-3.418 35.045-10.819z" fill="#ef9292"/><path d="m170.931 21.115c-7.922-6.336-17.327-9.317-25.9-10.484l-19.534.428c-12.858 2.7-27.475 11.182-31.726 32.284 0 0 23.361 10.607 50.463 3.21s26.697-25.438 26.697-25.438z" fill="#f4f4f4"/><path d="m145.026 10.633a70.027 70.027 0 0 0 -9.412-.633 49.7 49.7 0 0 0 -10.121 1.066c-5.9 5.579-13.365 15.841-14.814 32.762 0 0 3.375 2.317 10.274 1.72s9.519-3.528 9.519-3.528c1.292-10.757 4.997-23.354 14.554-31.387z" fill="#f45d77"/><path d="m121.715 74.919a3.007 3.007 0 0 1 -.775-.1l-2.833-.755a3 3 0 0 1 1.546-5.8l2.833.756a3 3 0 0 1 -.771 5.9z" fill="#e58585"/><path d="m135.98 74.919a3 3 0 0 1 -.771-5.9l2.832-.755a3 3 0 0 1 1.546 5.8l-2.832.755a3.007 3.007 0 0 1 -.775.1z" fill="#e58585"/><path d="m188.252 53.6c-2.421-15.638-9.072-25.875-17.329-32.478-9.291 12.5-25.2 18.328-40.451 20.9-5.91 2.41-12.615 2.729-19.792 1.808a162.167 162.167 0 0 1 -16.906-.487c-.335 1.662-.613 3.4-.814 5.217a9.269 9.269 0 0 0 9.24 10.229h39.751c4.846 0 9.047 2.718 11.846 6.672a62.866 62.866 0 0 1 11.215 43.172s29.788-12.733 23.24-55.033z" fill="#bebfce"/><path d="m130.476 42.02a139.344 139.344 0 0 1 -19.79 1.809 76.218 76.218 0 0 0 .257 14.96h19.112a92.215 92.215 0 0 1 .421-16.769z" fill="#c12140"/><path d="m163.588 77a3.415 3.415 0 0 0 -.2-.461 59.325 59.325 0 0 0 -7.514-12.725c-4.179-5.353-11-8.423-18.71-8.423h-3.552v-1.34a3.5 3.5 0 0 0 -7 0v1.34h-11.7v-1.34a3.5 3.5 0 0 0 -7 0v1.34h-6.35a3.5 3.5 0 0 0 0 7h35.6c5.46 0 10.391 2.142 13.191 5.73a51.988 51.988 0 0 1 6.044 9.918c-1.9 2.506-6.634 3.563-8.515 3.772h-34.613c-6.312 0-11.448 5.416-11.448 12.074v12.515c0 7.644 5.392 13.957 12.543 14.684a120.117 120.117 0 0 0 12.18.636c12.931 0 32.133-1.586 38.605-10.994 7.021-10.204.681-28.487-1.561-33.726zm-36.388 28.083c4.407-.06 9.049-.274 13.527-.742v9.321a91.2 91.2 0 0 1 -13.527 1.056zm0-7v-9.274h13.527v8.511c-4.401.487-9.071.701-13.527.758zm-13.933-9.269h6.933v9.24c-4.71-.1-8.758-.318-11.381-.494v-3.677c.002-2.798 1.997-5.074 4.45-5.074zm-4.446 17.586v-1.825c2.741.183 6.748.4 11.381.485v9.47q-2.49-.144-5.129-.409c-3.506-.354-6.252-3.746-6.252-7.721zm45.541 3.745a63.036 63.036 0 0 1 -6.633 2.08v-8.873a34.276 34.276 0 0 0 7.6-1.917 3.552 3.552 0 0 0 2.209-3.938 3.5 3.5 0 0 0 -4.761-2.581 23.623 23.623 0 0 1 -5.052 1.32v-7.43h.333c.1 0 .21 0 .315-.014a23.934 23.934 0 0 0 10.753-3.777 58.15 58.15 0 0 1 2.615 13.606 11.463 11.463 0 0 1 -7.379 11.527z" fill="#3c3c4f"/><g fill="#fff"><ellipse cx="115.086" cy="26.667" rx="7.595" ry="6.195" transform="matrix(.643 -.766 .766 .643 20.65 97.644)"/><path d="m218.827 160c-.966 7.923.552 15.458 6.88 23.556a54.457 54.457 0 0 1 5.156-5.75 44.916 44.916 0 0 0 11.1-18.427s-4.537-10.2-10.6-10.2-12.536 10.821-12.536 10.821z"/><path d="m79.2 164.146-12.508-8.8a63.221 63.221 0 0 0 -12.657 23.428l23.665 9.785c5.916-8.215 5.809-16.344 1.5-24.413z"/></g><path d="m92.9 194.842c7.484-15.1-6.6-25.7-6.6-25.7l-7.108-5a43.19 43.19 0 0 1 -3.215 28.571s-2.909 6.239-1.951 17.051c7.439-2.778 15.121-7.342 18.874-14.922z" fill="#bebfce"/><path d="m54.033 178.778 23.667 9.781a67.132 67.132 0 0 0 8.949 43.64c13.166 21.7 43.574 9.482 43.574 9.482s6.2 7.257 7.322 22.58c-5.9 9.15-19 12.494-37.731 11.3-12.247-2.346-25.413-8.706-36.1-23.092-24.554-33.069-9.681-73.691-9.681-73.691z" fill="#ffcac0"/><path d="m101.41 236.423c-18.481-17.265-8.51-41.581-8.51-41.581l-15.2-6.283s-6.509 17.785-.262 36.182c6.779 19.966 26.247 29.578 52.785 16.94-8.631 2.766-19.573 3.374-28.813-5.258z" fill="#ef9292"/><path d="m130.225 241.681a29.363 29.363 0 0 0 7.44-17.691 3.852 3.852 0 0 1 3.818-3.616h.083a8.422 8.422 0 0 1 8.4 9.3q-.07.653-.167 1.351a24.533 24.533 0 0 0 11.658-8.861 7.456 7.456 0 0 1 5.006-3.052s7.343 15.256-3.955 29.54-28.756 17.732-28.756 17.732c-2.536-5.142-5.107-13.492-3.527-24.703z" fill="#f4f4f4"/><path d="m224.7 121.61s3.031 9.538-1.947 23.5a70.516 70.516 0 0 0 -3.922 14.9c3.991-4.559 11.609-9.322 23.127-.635a45.615 45.615 0 0 0 .884-23z" fill="#bebfce"/><path d="m279.634 239.372s1.246 35.077-18.568 37.252a12.093 12.093 0 0 0 10.087 10.516 12.073 12.073 0 0 0 13.489-8.423 140.527 140.527 0 0 0 5.463-34.027 30.07 30.07 0 0 0 -10.471-5.318z" fill="#d8d8d8"/><path d="m137.641 272.411a67.8 67.8 0 0 0 -.1-8.149c-18.016 10.822-37.587 11.3-37.724 11.3 20.157 3.859 37.824-3.151 37.824-3.151z" fill="#ef9292"/><path d="m137.641 272.411c23.863-7.954 34.02-21.811 38.237-30.725a18.187 18.187 0 0 0 -2.677-19.779q-.276-.315-.555-.615a6.989 6.989 0 0 0 -6.181-2.168c-3.384 25.617-18.012 39.621-32.712 47.262a26.827 26.827 0 0 0 3.888 6.025z" fill="#d8d8d8"/></svg>