<svg id="flat" height="512" viewBox="0 0 340 340" width="512" xmlns="http://www.w3.org/2000/svg"><path d="m112.04 218.305a94.085 94.085 0 0 0 -8.243 15.8 22.183 22.183 0 0 0 1.9 20.345c4.7 7.3 13.258 17.12 28.186 25.216l-11.071 33.917s-17.485-5.125-14.169-25.323c0 0-35.875-12.059-35.875-49.743 0-21.1 11.9-44.24 19.529-56.9l20.986 11.717z" fill="#ffcac0"/><path d="m225.494 214.661a95.834 95.834 0 0 1 10.706 19.448 22.183 22.183 0 0 1 -1.9 20.345c-4.7 7.3-13.258 17.12-28.186 25.216l11.071 33.917s17.485-5.125 14.169-25.323c0 0 35.875-12.059 35.875-49.743 0-23.263-14.464-49-21.72-60.446l-21.992 10.974z" fill="#ffcac0"/><path d="m208.572 286.834h-77.144a84.08 84.08 0 0 0 -17.745 41.836h112.634a84.08 84.08 0 0 0 -17.745-41.836z" fill="#3c3c4f"/><path d="m137.219 241.162c.925 13.09.4 30.388-5.791 45.672 0 0 9.712 21.041 38.572 21.041s38.572-21.041 38.572-21.041c-4.468-11.027-5.985-23.1-6.136-33.891a132.346 132.346 0 0 0 -65.217-11.781z" fill="#bddeff"/><path d="m134.271 220.565a135.734 135.734 0 0 1 2.943 20.6l65.222 11.578a142.34 142.34 0 0 1 3.293-32.175z" fill="#7aaeed"/><path d="m92.3 181.622 14.155 12.611a8.154 8.154 0 0 1 2.648 7.2 27.037 27.037 0 0 0 2.938 16.878 102.177 102.177 0 0 1 22.227-24.7l-35.729-21.59s-2.639 3.639-6.239 9.601z" fill="#ef9292"/><path d="m241.458 172.013-35.729 21.587a100.556 100.556 0 0 1 19.762 21.06 33.124 33.124 0 0 0 1.9-13.873 8.135 8.135 0 0 1 2.256-6.255l15.864-16.46c-2.431-3.828-4.053-6.059-4.053-6.059z" fill="#ef9292"/><path d="m162.215 19.007s-22.338-9.333-36.529 10.107a36.51 36.51 0 0 0 -6.83 21.558v42.261a33.755 33.755 0 0 1 -5.674 18.689c-6.677 10.041-14.271 29.614 7.82 49.914h106.898s16.282-33.751-5.729-54.97a33.978 33.978 0 0 1 -10.155-24.513v-36.853a36.632 36.632 0 0 0 -10.253-25.738c-7.825-7.953-20.542-13.2-39.548-.455z" fill="#f9ac5f"/><path d="m227.339 112.747c-27.671 6.342-31.835-18.74-31.835-18.74h-54.904c-4.441 18.169-20.4 20.981-29.49 21.052-5.857 10.688-9.9 28.288 9.9 46.477h106.89s13.4-27.789-.561-48.789z" fill="#e58442"/><path d="m241.458 172.013s-19.519-35.43-57.261-35.43h-28.397c-37.742 0-57.261 35.43-57.261 35.43l24.561 23.313a24.613 24.613 0 0 0 -.146 17.628c5.511 14.172 17.646 15.484 17.646 15.484s18.624 3.468 29.405-7.873c10.781 11.341 29.405 7.873 29.405 7.873s12.135-1.312 17.646-15.484a24.613 24.613 0 0 0 -.146-17.628z" fill="#bddeff"/><path d="m157.574 129.475a5.817 5.817 0 0 1 -3.885 4.959l-9.547 3.314c-4.007 31.625 25.858 34.152 25.858 34.152q29.763-12.93 6.757-42.428z" fill="#ffcac0"/><path d="m195.858 137.748-9.547-3.314a5.823 5.823 0 0 1 -.634-.263l-.035-.006.041-.006a5.8 5.8 0 0 1 -3.281-5.22v-10.622h-24.802v10.622c0 .181-.025.357-.042.534a56.269 56.269 0 0 0 10.5 3.88h-.011s13.924 4.1 15.884 14.113-7.042 23.689-22.717 22.147a33.994 33.994 0 0 0 8.786 2.287s29.865-2.527 25.858-34.152z" fill="#ef9292"/><path d="m161.236 38.988c3.382 18.666 15.756 30.36 34.268 37.294v19.3a27.454 27.454 0 0 1 -27.455 27.454 27.454 27.454 0 0 1 -27.449-27.453v-20.714a39.72 39.72 0 0 1 4.394-18.382 44.8 44.8 0 0 1 16.242-17.499z" fill="#ffcac0"/><path d="m168.049 113.633a15.883 15.883 0 0 1 -15.883-15.884v-5.625h31.767v5.625a15.883 15.883 0 0 1 -15.884 15.884z" fill="#fff"/><path d="m159.9 82.621a2.981 2.981 0 0 1 -.673-.076l-3.59-.823a3 3 0 0 1 1.34-5.849l3.59.823a3 3 0 0 1 -.667 5.925z" fill="#e58585"/><path d="m174.959 82.621a3 3 0 0 1 -.667-5.925l3.59-.823a3 3 0 0 1 1.34 5.849l-3.59.823a2.994 2.994 0 0 1 -.673.076z" fill="#e58585"/><path d="m189.5 66.041c-24.649-7.716-28.26-27.053-28.26-27.053s-2.023 33.16 34.268 37.294v-2.053a8.58 8.58 0 0 0 -6.008-8.188z" fill="#ef9292"/></svg>