<svg id="flat" height="512" viewBox="0 0 340 340" width="512" xmlns="http://www.w3.org/2000/svg"><path d="m97.489 256.265c-7.411-9.693-18.37-16.838-31.178-22.657a122.718 122.718 0 0 0 -8.01 16.5 29.372 29.372 0 0 0 1.86 25.243 168.022 168.022 0 0 0 20.55 28.317 7.29 7.29 0 0 1 -.489 10.231l-3.98 3.648a7.037 7.037 0 0 0 -2.281 5.188 7.039 7.039 0 0 0 7.039 7.039h31.4l-1.368-27.94a25.014 25.014 0 0 0 -6.651-15.8c-3.478-3.742-6.333-7.241-8.9-9.969-9.481-10.079 2.008-19.8 2.008-19.8z" fill="#ffcac0"/><path d="m242.776 248.723a85.563 85.563 0 0 1 3.946 8.277 18.5 18.5 0 0 1 -2.935 18.821 70.738 70.738 0 0 1 -20.342 16.836 22.028 22.028 0 0 0 -10.306 12.412 42.181 42.181 0 0 0 -2.076 11.614 12.666 12.666 0 0 0 12.7 13.092h13.737a10.078 10.078 0 0 0 9.774-12.692 19.066 19.066 0 0 0 -2.8-5.9s23.991-10.9 36.133-34.1a28 28 0 0 0 3.081-14.178 102.307 102.307 0 0 0 -11.329-41.856 89.47 89.47 0 0 0 -29.583 27.674z" fill="#ffcac0"/><path d="m112.4 231.7-36.11-12.814a114.081 114.081 0 0 0 -9.978 14.723c3.819 7.7 12.553 19.353 31.181 22.661 4.577-4.169 9.924-8.395 14.905-12.1z" fill="#ef9292"/><path d="m265.074 208.887-30.843 26.386a113.811 113.811 0 0 1 8.545 13.45c15.955-6.271 25.253-19.7 29.578-27.673a108.555 108.555 0 0 0 -7.28-12.163z" fill="#ef9292"/><path d="m142.373 140.5s-5.288 3.9-13.167 9.175c-1.808 2.6-4.566 4-7.643 5-3.488 2.228-7.234 4.546-11.091 6.815a27.515 27.515 0 0 0 -8.634 8.026c-5.9 8.5-18.107 26.582-29.95 47.431a42.567 42.567 0 0 0 8.68 8.714l24.911 11.9v57.689s-.464 5.328 5.1 9.5h112.814v-74.133c16.033-.516 27.661-6.679 36.209-14.862q2.67-3.147 5.472-6.868l-24.962-37.019a51.777 51.777 0 0 0 -12.9-13.235 264.23 264.23 0 0 0 -25.763-16.22c-4.215-.467-7.445-1.917-9.26-4.778a155.143 155.143 0 0 0 -15.756-6.635z" fill="#696987"/><path d="m142.376 146.36v5.516a18.892 18.892 0 0 0 5.767 13.657 86.434 86.434 0 0 0 10.792 9.273s9.563-5.038 16.334-17.3a21.206 21.206 0 0 0 2.947-10.214l-.006-7.483z" fill="#ffcac0"/><path d="m178.214 139.81-.022-27.8-35.828 19.446.012 14.9c6.688 1.364 23.415 3.405 35.838-6.546z" fill="#ef9292"/><path d="m118.6 85.414v21.213a27.781 27.781 0 0 0 27.781 27.78h5.521a27.781 27.781 0 0 0 27.781-27.78s14.839.863 15.874-13.458c1.11-15.352-9.49-18.808-9.49-18.808l-13.111-14.323z" fill="#ffcac0"/><path d="m175.393 62.7-2.437-2.662c-14.149-11.56-43.31-7.809-54.353 9.663v15.713c9.017-.637 38.121-4.114 56.79-22.714z" fill="#ef9292"/><path d="m167.366 69.4c4.03 4.017 7.517 10.106 8.357 19.3a2.538 2.538 0 0 0 3.1 2.276c5.8-1.4 18.4-7.026 21.1-29.594 0 0-11.969-6.1-21.707-2.681s-10.85 10.699-10.85 10.699z" fill="#fcac4c"/><path d="m152.423 61.764a27.811 27.811 0 0 1 14.958 7.653q2.122-1.5 4.151-3.179a20.514 20.514 0 0 1 13.112-4.853h15.272a76.618 76.618 0 0 0 .527-9.156l-31.11-8.2z" fill="#e87f31"/><path d="m105.313 52.229-.867 2.032a13.136 13.136 0 0 0 8.862 17.89c7.8 1.973 19 2.166 33.687-3.952 31.722-13.217 34.365-24.169 34.365-24.169z" fill="#3c3c4f"/><path d="m105.313 52.229h95.13v-8.992a9.8 9.8 0 0 0 -7.711-9.575l-.726-.158a15.712 15.712 0 0 1 -8.867-5.453c-4.339-5.351-14.094-14.359-32.239-17.37a31.856 31.856 0 0 0 -25.907 6.877 30.154 30.154 0 0 0 -7.219 9.052 13.339 13.339 0 0 1 -10.017 6.924 6.261 6.261 0 0 0 -5.257 7.766z" fill="#696987"/><path d="m140.2 102.742h15.8a7.745 7.745 0 0 1 7.745 7.745v5.555a0 0 0 0 1 0 0h-31.291a0 0 0 0 1 0 0v-5.555a7.745 7.745 0 0 1 7.746-7.745z" fill="#fcac4c"/><path d="m143.761 21.883a12.483 12.483 0 0 1 -8.112 3.911v7.111c0 5.333 8.112 7.667 8.112 7.667s1.948-11.972 0-18.689z" fill="#fff"/><path d="m110.575 304.748h23.6c12.3 2.532 23.609 3.231 32.805 0h56.409v25.026h-56.405c-11.293-1.669-22.364-2.3-32.805 0h-23.6z" fill="#3c3c4f"/><path d="m194.688 203.16a21.572 21.572 0 0 1 -12.775 6.159v11.2c0 8.4 12.775 12.074 12.775 12.074s3.281-17.641 0-29.433z" fill="#fff"/><g fill="#3c3c4f"><path d="m128.056 185.968a17.532 17.532 0 0 1 11.99-1.217 1.657 1.657 0 0 0 1.5-2.845c-2.276-2.007-6.017-3.789-12-3.258a2.908 2.908 0 0 1 -3.163-2.6c-.9-10.072 1.053-19.917 2.829-26.366-2.341 1.567-4.913 3.256-7.642 5-2.571 12.068-2.2 21.183-1.258 27.132a5.482 5.482 0 0 0 7.744 4.154z"/><path d="m193.655 176.687a3.469 3.469 0 0 1 -4.689 2.52 20.888 20.888 0 0 0 -17.737.772 1.989 1.989 0 0 0 1.022 3.749c5.175-.253 12.066.4 17.4 4.489a6.569 6.569 0 0 0 10.1-3.147c3.1-8.7 5.854-23.12 1.7-42.652-2.985-1.635-6.082-3.242-9.26-4.777 4.536 18.122 2.844 32.323 1.464 39.046z"/><path d="m80.569 225.661a66.526 66.526 0 0 0 24.91 11.906v-17.02a1.505 1.505 0 0 0 -2.568-1.071c-3.94 3.939-12.111 10.024-22.342 6.185z"/><path d="m259.6 215.753c-18.158 14.914-28.535 9.158-33.2 4.214a1.754 1.754 0 0 0 -3.01 1.231v9.419l7.877 7.877s12.202-3.729 28.333-22.741z"/></g><path d="m139.6 91.871a3.063 3.063 0 0 1 -.78.035l-2.921-.247a3 3 0 1 1 .505-5.979l2.921.247a3 3 0 0 1 .275 5.944z" fill="#e58585"/><path d="m154.362 91.909a3 3 0 0 1 .157-5.947l2.915-.305a3 3 0 1 1 .625 5.967l-2.915.305a3 3 0 0 1 -.782-.02z" fill="#e58585"/><path d="m194.688 203.16v29.432s12.775-3.675 12.775-12.074v-11.2a19.359 19.359 0 0 1 -12.775-6.159z" fill="#fff"/><path d="m143.761 21.883v18.689s8.111-2.334 8.111-7.667v-7.111c-3.433-.694-6.304-1.853-8.111-3.911z" fill="#fff"/><path d="m134.179 304.748h32.805v25.026h-32.805z" fill="#fff"/><path d="m152.712 183.038h4.344a3.225 3.225 0 0 1 3.215 2.981l7.329 96.981-13.032 13.173-12.2-14.638 7.133-95.514a3.224 3.224 0 0 1 3.211-2.983z" fill="#3c3c4f"/></svg>