<svg id="flat" height="512" viewBox="0 0 340 340" width="512" xmlns="http://www.w3.org/2000/svg"><path d="m116.873 218.574a21.543 21.543 0 1 0 42.06 5.116z" fill="#ffb655"/><path d="m246.416 202.589a21.544 21.544 0 1 1 -39.777 14.6z" fill="#ffb655"/><path d="m64.405 195.3s39.249 45.3 119.332 36.019 107.938-62.343 107.938-62.343z" fill="#414151"/><path d="m191.107 151.229-81.315 9.419c-24.522 5.855-44.924 17.307-55.684 24.2a6.6 6.6 0 0 0 .321 11.278c47.461 27.262 126.961 14.93 126.961 14.93a305.7 305.7 0 0 0 44.837-7.691c9.319-23.232.873-41.519-35.12-52.136z" fill="#76a2e2"/><path d="m56.071 107.449a44.238 44.238 0 0 1 27.629-78.789 44.762 44.762 0 0 1 4.523.228s21.528 21.01 18.225 48.847-44.118 34.725-50.377 29.714z" fill="#ffb35c"/><path d="m265.515 63.175a25.95 25.95 0 0 1 3.385-30.421l7.293-5.567a25.955 25.955 0 0 1 32.241 7.079l3.6 6.171s-2.214 16.684-16.374 25.021-30.145-2.283-30.145-2.283z" fill="#c4ccfe"/><path d="m257.921 310.713a40.229 40.229 0 0 1 -4.927-10.484l9.619-39.845a40.484 40.484 0 0 1 39.276-11.028s30.525 33.218 12.625 56.223-56.593 5.134-56.593 5.134z" fill="#ffdca1"/><g fill="#f49e63"><path d="m262.62 260.391a40.422 40.422 0 0 0 -9.62 39.837 20.593 20.593 0 0 0 9.621-39.837z"/><path d="m301.888 249.358a18.454 18.454 0 0 0 26.83 22.942 40.5 40.5 0 0 0 -26.83-22.942z"/><circle cx="300.354" cy="298.299" r="14.159"/></g><path d="m200.8 47.313 4-13.634a.988.988 0 0 1 1.9 0l4 13.634a13.268 13.268 0 0 0 7.489 8.455l7.74 3.33a.989.989 0 0 1 0 1.816l-7.912 3.4a13.268 13.268 0 0 0 -7.4 8.16l-3.924 12.315a.989.989 0 0 1 -1.884 0l-3.924-12.315a13.27 13.27 0 0 0 -7.4-8.16l-7.911-3.4a.989.989 0 0 1 0-1.816l7.74-3.33a13.268 13.268 0 0 0 7.486-8.455z" fill="#bcdff7"/><path d="m47.145 277.909-6.473-11.846a1.2 1.2 0 0 1 1.624-1.624l11.846 6.473a13.269 13.269 0 0 0 11.275.683l7.378-2.939a1.2 1.2 0 0 1 1.554 1.554l-3.008 7.552a13.266 13.266 0 0 0 .538 11l5.633 10.9a1.2 1.2 0 0 1 -1.612 1.612l-10.9-5.628a13.27 13.27 0 0 0 -11-.538l-7.552 3.008a1.2 1.2 0 0 1 -1.554-1.554l2.939-7.378a13.269 13.269 0 0 0 -.688-11.275z" fill="#bcdff7"/><path d="m268.9 32.756c0 7.4 1.391 17.656 8.1 24.07a3.5 3.5 0 1 0 4.838-5.059c-6.731-6.436-6.179-19.369-5.641-24.573a26.027 26.027 0 0 0 -7.297 5.562z" fill="#8090cb"/><path d="m308.424 34.27c-6.677 6.331-17.113 5.141-17.3 5.117a3.5 3.5 0 0 0 -.907 6.941 26.84 26.84 0 0 0 3.27.175c4.366 0 12.243-.848 18.541-6.064a25.936 25.936 0 0 0 -3.604-6.169z" fill="#8090cb"/><circle cx="289.74" cy="61.627" fill="#8090cb" r="3.831"/><path d="m332.094 288.473a40.275 40.275 0 0 0 -3.506-16.49l-14.279-12.1c-.732 17.689-8.413 51.41-56.383 50.828a40.417 40.417 0 0 0 74.168-22.237z" fill="#f49e63"/><path d="m312.028 40.437-2.575-4.417c-1.465 12.385-8.088 22.2-18.783 26.889-8.787 3.855-18.777 2.141-25.148.262a25.94 25.94 0 0 0 46.506-22.734z" fill="#8090cb"/><path d="m88.544 28.93c5.677 6.665 11.282 28.831 8.467 50.494l-40.935 28.019a44.013 44.013 0 0 0 22.274 9.37l.024-.011a44.23 44.23 0 1 0 10.17-87.872z" fill="#fc9148"/><path d="m18.8 126.357c-3.9 0-6.979-1.082-8.935-3.53-5.094-6.381-.255-18.347 14.382-35.569a3.5 3.5 0 0 1 5.334 4.533c-13.442 15.818-15.881 24.614-14.243 26.668 3.562 4.459 31.577-4.292 72.437-36.919 17.147-13.692 31.969-28.127 41.738-40.646 10.838-13.89 11.474-20.35 10.295-21.826-1.214-1.521-7.883-2.3-24.434 5.623a3.5 3.5 0 1 1 -3.024-6.313c17.214-8.244 28.293-9.483 32.928-3.678 4.548 5.7 1.1 15.958-10.246 30.5-10.1 12.938-25.327 27.786-42.889 41.809-22.236 17.757-55.928 39.346-73.343 39.348z" fill="#ffe669"/><path d="m299.312 156.448c-12.051-4.251-34.531-10.737-59.742-10.832l-26.986 3.126-27.615 26.38s40.985 1.073 41.258 28.243c25.1-6.2 55.293-17.1 75.351-35.864a6.6 6.6 0 0 0 -2.266-11.053z" fill="#546fb5"/><path d="m170.135 113.882c-51.595 5.976-60.343 46.766-60.343 46.766 6.844 6.737 15.8 10.811 24.947 13.219 0 0 35.042 7.957 57.326-17.382s9.063-40.634 9.063-40.634a80.908 80.908 0 0 0 -30.993-1.969z" fill="#def2ff"/><path d="m160.483 134.789a3.5 3.5 0 0 1 -.812-6.9q.678-.162 1.374-.307a3.5 3.5 0 1 1 1.425 6.853q-.593.123-1.169.262a3.535 3.535 0 0 1 -.818.092z" fill="#fff"/><path d="m132.73 156.485a3.5 3.5 0 0 1 -3.2-4.908 44.735 44.735 0 0 1 15.863-17.6 3.5 3.5 0 1 1 3.806 5.875 38.352 38.352 0 0 0 -13.271 14.568 3.51 3.51 0 0 1 -3.198 2.065z" fill="#fff"/><path d="m239.57 145.616s-10.44-22.065-38.442-29.764c-.693 16.07-8.32 55.72-66.389 58.012 20.853 5.49 42.685 2.323 42.685 2.323s45.344-3.925 62.146-30.571z" fill="#b2c8ed"/></svg>