<svg id="flat" height="512" viewBox="0 0 340 340" width="512" xmlns="http://www.w3.org/2000/svg"><path d="m151.324 87.357h-107.2a17.372 17.372 0 0 0 -17.348 18.224c.939 19.368 3.272 49.886 8.98 69.789h123.937c5.707-19.9 8.04-50.421 8.98-69.789a17.373 17.373 0 0 0 -17.349-18.224z" fill="#3c3c4f"/><path d="m14.842 263.786v22.279a21.588 21.588 0 0 0 21.588 21.588h3.361l6.384-43.867z" fill="#3c3c4f"/><path d="m30.557 147.654a66.571 66.571 0 0 0 -7.85 14.81l-7.865 40.261c-4.093 43.606 0 61.061 0 61.061h5.011s14.534.586 22.342-12.247 14.647-44.2 14.647-44.2z" fill="#dce6f4"/><path d="m50.972 132.453s-10.676 1.639-20.412 15.2c.015.137 5.119 49.186 22.925 70.1.384.451.765.877 1.144 1.292l2.213-11.713z" fill="#8aa1c4"/><path d="m33.13 181.12a21.893 21.893 0 0 0 -10.42-18.655 114.465 114.465 0 0 0 -6.6 28.236c-.491 4.219-.9 8.211-1.262 12.025a21.912 21.912 0 0 0 18.282-21.606z" fill="#dce6f4"/><path d="m19.853 263.786h26.322l10.667-56.448-13.331-30.271-5.857-.786s13.318 82.826-17.801 87.505z" fill="#8aa1c4"/><path d="m326.977 134.212h-114.507v-17.861c35.623-1.116 74.124-.971 114.507 0z" fill="#f74f73"/><path d="m326.977 116.351h-114.507v-17.86q56.468-1.977 114.507 0z" fill="#fff"/><path d="m326.977 98.491h-114.507v-17.861c39.108-1.5 77.326-1.577 114.507 0z" fill="#f74f73"/><path d="m326.977 80.63h-61.447l-53.06-17.86c40-1.7 78.348-1.87 114.507 0z" fill="#fff"/><path d="m326.977 62.77h-114.507l7.051-17.861h107.456z" fill="#f74f73"/><path d="m212.47 98.491h65.682v-53.582h-58.631z" fill="#4260ad"/><path d="m205.418 44.909h14.103v262.744h-14.103z" fill="#e6e6e6"/><g fill="#fff"><path d="m239.876 53.783 1.675 3.394 3.746.545-2.711 2.642.64 3.73-3.35-1.761-3.35 1.761.639-3.73-2.71-2.642 3.746-.545z"/><path d="m230.786 65.015 1.634 3.309 3.651.531-2.642 2.575.624 3.637-3.267-1.717-3.266 1.717.624-3.637-2.642-2.575 3.651-.531z"/><path d="m268.329 65.015 1.633 3.309 3.651.531-2.642 2.575.624 3.637-3.266-1.717-3.267 1.717.624-3.637-2.642-2.575 3.651-.531z"/><path d="m249.235 65.015 1.633 3.309 3.651.531-2.642 2.575.624 3.637-3.266-1.717-3.266 1.717.623-3.637-2.642-2.575 3.652-.531z"/><path d="m239.876 78.225 1.633 3.309 3.652.53-2.643 2.576.624 3.637-3.266-1.717-3.266 1.717.623-3.637-2.642-2.576 3.652-.53z"/><path d="m257.759 53.783 1.675 3.394 3.746.545-2.711 2.642.64 3.73-3.35-1.761-3.35 1.761.64-3.73-2.711-2.642 3.746-.545z"/><path d="m257.759 78.225 1.633 3.309 3.652.53-2.643 2.576.624 3.637-3.266-1.717-3.266 1.717.624-3.637-2.643-2.576 3.652-.53z"/></g><path d="m205.418 220.735 14.103-7.09v-36.983l-8.218-4.095-5.885 4.405z" fill="#969baa"/><path d="m165.572 143.677c4.28 6.759 8.056 16.079 9.967 28.89 0 0 12.167-17.125 26.362-21.856l4.768 42.025-23.554 19.581a17.573 17.573 0 0 1 -22.512.268 66.787 66.787 0 0 1 -8.47-8.156z" fill="#dce6f4"/><path d="m165.57 143.678c-9.345-14.754-21.094-17.3-21.094-17.3l-1.383 63.089a49.057 49.057 0 0 0 9.042 14.962c12.255-25.58 13.432-60.658 13.435-60.751z" fill="#8aa1c4"/><path d="m56.615 67.468s-14.8 1.361-15.486 17.187 4.935 24.335 19.741 22.293z" fill="#8aa1c4"/><path d="m50.972 226.766s-8.753 16.876-11.181 80.887h43.914s2.226-22.6 8.095-33.937h11.848c5.869 11.333 8.095 33.937 8.095 33.937h43.915c-.706-18.607-1.947-33.231-3.351-44.616l-34.495-28.683z" fill="#dce6f4"/><path d="m105.537 226.766c8.408 14.869 22.714 30.41 46.769 36.271-1.014-8.216-2.112-14.75-3.158-19.871l-13.69-16.4z" fill="#8aa1c4"/><path d="m54.9 207.338s-7.036 2.805-7.061 16.309a13.154 13.154 0 0 0 5.631 10.861c3.237 2.223 8.256 4.2 15.87 4.2h56.775c7.614 0 12.633-1.975 15.87-4.2l-22.7-26.128z" fill="#3c3c4f"/><path d="m150.035 136.781c-1.711-13.69-10.246-15.021-10.246-15.021h-84.13s-8.534 1.331-10.245 15.021c0 0-5.948 42.445 7 70.347a23.854 23.854 0 0 0 21.686 13.691h28.35l30.667-3.052a23.528 23.528 0 0 0 9.914-10.639c12.952-27.902 7.004-70.347 7.004-70.347z" fill="#dce6f4"/><path d="m129.35 219.45-22.182-26.572-13.121 1.05a97.251 97.251 0 0 0 8.4 26.891h18.9a24.169 24.169 0 0 0 8.003-1.369z" fill="#8aa1c4"/><path d="m131.592 109.211h-67.736s-8.789 1.9-8.2 12.549c0 0 9.577 15.781 42.065 15.781s42.065-15.781 42.065-15.781c.595-10.647-8.194-12.549-8.194-12.549z" fill="#8aa1c4"/><path d="m138.833 67.468s14.805 1.361 15.486 17.187-4.935 24.335-19.74 22.293z" fill="#8aa1c4"/><path d="m80.076 35.627c-30.207 11.662-23.862 42.329-23.862 42.329l41.51 2.144 41.51-2.144s6.345-30.667-23.861-42.329a49.124 49.124 0 0 0 -35.297 0z" fill="#dce6f4"/><path d="m140.49 83.1a13.984 13.984 0 0 0 -6.905-11.4 71.392 71.392 0 0 0 -71.721 0 13.985 13.985 0 0 0 -6.906 11.4c-.694 14.079 4.738 23.534 4.738 23.534 12.716 18.545 38.028 17.236 38.028 17.236s25.312 1.309 38.029-17.236c0 .004 5.431-9.451 4.737-23.534z" fill="#3c3c4f"/><path d="m77.876 151.8h39.7a13.186 13.186 0 0 1 13.186 13.186v21.029a12.271 12.271 0 0 1 -12.271 12.271h-41.53a12.271 12.271 0 0 1 -12.271-12.269v-21.029a13.186 13.186 0 0 1 13.186-13.188z" fill="#8aa1c4"/><path d="m112.43 180.242a11.648 11.648 0 0 1 13.01 7.979 85.094 85.094 0 0 0 4.335 10.969c.611 2.334 1.416 4.358 2.832 5.4a75.872 75.872 0 0 0 8.212 11.679c.546 2.357 2.549 4.546 4.142 4.434a68.22 68.22 0 0 0 10.149 8.221c1.345 2.04 2.98 3.38 5.265 3.156q.9.489 1.838.958a11.808 11.808 0 0 1 5.587 15.052 11.8 11.8 0 0 1 -15.066 6.58 78.664 78.664 0 0 1 -8.617-3.891c-1.13-1.715-3.443-2.849-6.323-3.706a76.671 76.671 0 0 1 -15.917-13.773c-.437-2.231-2.226-4.081-4.583-5.77a81.932 81.932 0 0 1 -8.947-16.028c.089-1.838-1-4.064-2.42-6.4a101.219 101.219 0 0 1 -3.015-11.035 11.614 11.614 0 0 1 9.518-13.825z" fill="#dce6f4"/><path d="m79.066 110.1a3.489 3.489 0 0 1 -2.507-1.057 23.351 23.351 0 0 1 -5.98-15.373 3.5 3.5 0 0 1 7 0 16.383 16.383 0 0 0 3.993 10.488 3.5 3.5 0 0 1 -2.506 5.942z" fill="#fff"/><path d="m88.315 171.2h-9.249a3.5 3.5 0 0 1 0-7h9.249a3.5 3.5 0 0 1 0 7z" fill="#3c3c4f"/><path d="m88.315 185.305h-9.249a3.5 3.5 0 1 1 0-7h9.249a3.5 3.5 0 0 1 0 7z" fill="#3c3c4f"/><circle cx="73.664" cy="80.565" fill="#fff" r="3.831"/><circle cx="104.488" cy="167.697" fill="#3c3c4f" r="3.831"/><path d="m203.119 147.653h15.781a12.046 12.046 0 0 1 12.046 12.047v22.9a12.046 12.046 0 0 1 -12.046 12.048h-15.78a9.125 9.125 0 0 1 -9.125-9.125v-28.745a9.125 9.125 0 0 1 9.124-9.125z" fill="#3c3c4f"/><path d="m129.778 199.189a29.055 29.055 0 0 1 -23.842 5.91q1.122 3.335 2.42 6.4c1.026.095 2.12.155 3.28.155a34.753 34.753 0 0 0 20.973-7.057c-1.052-1.84-1.991-3.649-2.831-5.408z" fill="#8aa1c4"/><path d="m117.3 227.52q2.217 3.082 4.575 5.775a34.751 34.751 0 0 0 23.091-12.595q-2.212-2.172-4.142-4.432a29.027 29.027 0 0 1 -23.524 11.252z" fill="#8aa1c4"/><path d="m155.115 228.92a28.879 28.879 0 0 1 -17.321 18.151c2.161 1.405 4.28 2.629 6.325 3.7a34.611 34.611 0 0 0 16.258-18.694q-2.765-1.491-5.262-3.157z" fill="#8aa1c4"/></svg>