<svg id="icon" height="512" viewBox="0 0 340 340" width="512" xmlns="http://www.w3.org/2000/svg"><path d="m260.368 103.312h-89.888-89.888l-59.662 226.688h149.55 149.55z" fill="#fff7d7"/><path d="m236.01 103.312h-65.53-65.53l-48.486 226.688h114.016 114.016z" fill="#ffe795"/><path d="m138.85 305.319-2.5 20.828a4.376 4.376 0 0 1 -4.35 3.853h-1.3a4.376 4.376 0 0 1 -4.169-3.048l-10.406-32.71 24.249-2.994z" fill="#959aa3"/><path d="m172.108 291.248 10.454 35.61a4.376 4.376 0 0 0 4.2 3.142 4.375 4.375 0 0 0 4.21-3.187l8.681-30.774s-10.778-7.239-27.545-4.791z" fill="#959aa3"/><path d="m116.125 302.325s32.931 19.759 48.5-9.879l-22.753-6.586s-18.862 3.293-25.747 16.465z" fill="#959aa3"/><path d="m170 85.473-156.831-11.833s48.817 54.145 156.831 54.145 156.831-54.145 156.831-54.145z" fill="#2e6391"/><path d="m170 30.674s-100.406-1.035-156.831 42.966c0 0 52.244 37.271 156.831 37.271s156.831-37.271 156.831-37.271c-56.425-44.001-156.831-42.966-156.831-42.966z" fill="#639bd1"/><path d="m170 30.674a343.382 343.382 0 0 0 -36.215 2.15l-31.308 20.376s21.369 22.913 79.852 22.106l-41.642 10.048s29.742 27.38 70 8.232a8.337 8.337 0 0 0 2.27-13.375 62.471 62.471 0 0 0 -7.336-6.365c5.972-.647 12.236-1.515 18.824-2.649a64.566 64.566 0 0 1 33.888 3.221c10.11 3.837 22.156 9.552 30.871 17.289 25.081-9.124 37.625-18.067 37.625-18.067-56.423-44.001-156.829-42.966-156.829-42.966z" fill="#2e6391"/><path d="m170 10c-41.468 0-62.933 29.83-68.519 38.936a3.12 3.12 0 0 0 1 4.268c26.848 16.981 67.519 15.105 67.519 15.105s40.671 1.876 67.523-15.1a3.12 3.12 0 0 0 1-4.268c-5.59-9.111-27.055-38.941-68.523-38.941z" fill="#aad2fc"/><path d="m151.718 68.46a38.729 38.729 0 0 0 -11.844 13.484 2.627 2.627 0 0 0 .813 3.41c3.875 2.676 13.822 8.264 29.313 8.264s25.438-5.588 29.313-8.264a2.627 2.627 0 0 0 .813-3.41 38.729 38.729 0 0 0 -11.844-13.484 31.89 31.89 0 0 0 -36.564 0z" fill="#ffca58"/><path d="m87.877 301.634a4 4 0 0 1 -.776-7.82c8.288-2.455 9.54-15.446 9.551-15.577a4 4 0 0 1 4.3-3.672h.047a4 4 0 0 1 3.625 4.3c-.059.757-1.619 18.579-15.254 22.618a3.994 3.994 0 0 1 -1.493.151z" fill="#959aa3"/><path d="m264.312 43.85s4.678-5.653 14.972-6.34a25.964 25.964 0 0 1 23.225 10.99 18.534 18.534 0 0 1 3.527 11.787s-29.758 6.564-41.724-16.437z" fill="#ffca58"/><path d="m203.218 223.753c-.876-4.246-1.159-10.874 3.834-15.392l5.767 7.319a13.268 13.268 0 0 0 10.421 5.057h29.566l1.315 5.994a14.96 14.96 0 0 1 -5.614 15.16l-18.035 13.579a16.577 16.577 0 0 0 -6.582 12.356l-3.038 56.612a5.877 5.877 0 0 1 -5.869 5.562 5.87 5.87 0 0 1 -5.656-4.285c-2.3-8.187-8.168-25.445-17.276-27.722 0 0-25.906-5.872-53.518-4.025a19.444 19.444 0 0 0 -8.127 2.374c-6.186 3.423-16.653 11.607-19.228 28.6a5.88 5.88 0 0 1 -5.786 5.058 5.84 5.84 0 0 1 -5.823-5.392l-4.393-57.018a18.051 18.051 0 0 1 1.153-7.872 52.317 52.317 0 0 1 14.62-20.487 18.17 18.17 0 0 1 12.321-4.473l69.378 1.613a10.022 10.022 0 0 0 8.128-3.844l.5-.645a9.942 9.942 0 0 0 1.942-8.129z" fill="#fff"/><path d="m123.27 234.758a18.17 18.17 0 0 0 -12.321 4.473 52.317 52.317 0 0 0 -14.62 20.487 18.03 18.03 0 0 0 -1.193 5.989c10.479 4.529 28.042 3.436 28.042 3.436 7.595-.038 11.371-4.178 13.045-6.933a9.624 9.624 0 0 0 1.284-4.112 96.63 96.63 0 0 1 5.525-22.881z" fill="#636d7f"/><path d="m198.943 234.321a10.017 10.017 0 0 1 -6.3 2.05l-21.728-.5-.395 4.532a11.521 11.521 0 0 0 5.439 10.9c4.27 2.566 10.394 4.474 16.9.707 8.515-4.937 7.453-13.224 6.084-17.689z" fill="#636d7f"/><path d="m210.9 260.99a18.734 18.734 0 0 0 -9.406 21.434c1.718 6.909 6.831 14.566 20.751 16.137l1.65-30.735a16.553 16.553 0 0 1 3.5-9.288c-4.295-.506-10.648-.5-16.495 2.452z" fill="#636d7f"/><circle cx="159.762" cy="272.14" fill="#636d7f" r="8.874"/><path d="m218.82 232.761h-.629a2.814 2.814 0 1 1 0-5.627h.629a2.814 2.814 0 1 1 0 5.627z" fill="#373d4c"/><g fill="#fff"><path d="m168.64 153.93a3.995 3.995 0 0 1 -4-4 4.114 4.114 0 0 1 .07-.78 4.99 4.99 0 0 1 .23-.75 4.579 4.579 0 0 1 .37-.69 4.161 4.161 0 0 1 .5-.61 4.065 4.065 0 0 1 3.61-1.09 4.3 4.3 0 0 1 .75.23 3.828 3.828 0 0 1 .69.37 3.565 3.565 0 0 1 .6.49 3.605 3.605 0 0 1 .5.61 3.828 3.828 0 0 1 .37.69 4.053 4.053 0 0 1 .23.75 4.129 4.129 0 0 1 .08.78 4 4 0 0 1 -1.18 2.83 4.188 4.188 0 0 1 -.6.5 4.579 4.579 0 0 1 -.69.37 4.252 4.252 0 0 1 -.75.22 3.445 3.445 0 0 1 -.78.08z"/><path d="m168.637 181.168a4 4 0 0 1 -4-4v-3.127a4 4 0 0 1 8 0v3.127a4 4 0 0 1 -4 4z"/><path d="m168.637 212.361a4 4 0 0 1 -4-4v-9.191a4 4 0 0 1 8 0v9.191a4 4 0 0 1 -4 4z"/><path d="m119.876 40.689a52.963 52.963 0 0 1 37.848-20.884 4.593 4.593 0 0 1 4.967 4.58 7.72 7.72 0 0 1 -6.987 7.693c-8.059.767-21.51 3.422-31.727 12.37a2.834 2.834 0 0 1 -2.662.616 2.8 2.8 0 0 1 -1.439-4.375z"/></g><path d="m148.267 82.012c.6.257 1.286.529 2.033.789a4.177 4.177 0 0 0 5.129-2.187 33.583 33.583 0 0 1 6.766-9.506 1.585 1.585 0 0 0 -1.672-2.622 29.455 29.455 0 0 0 -13.182 9.958 2.348 2.348 0 0 0 .926 3.568z" fill="#fff0d2"/><path d="m269.124 45.821c.353.414.766.872 1.229 1.342a3.484 3.484 0 0 0 4.644.26 27.986 27.986 0 0 1 8.574-4.608 1.323 1.323 0 0 0 -.282-2.579 24.574 24.574 0 0 0 -13.539 2.575 1.958 1.958 0 0 0 -.626 3.01z" fill="#fff0d2"/><path d="m33.968 60.287c.185.055 36.045 10.666 53.6-19.572-18.035 4.359-36.752 10.614-53.6 19.572z" fill="#2e6391"/><path d="m75.688 43.85s-4.678-5.65-14.972-6.34a25.964 25.964 0 0 0 -23.225 10.99 18.534 18.534 0 0 0 -3.527 11.787s29.758 6.564 41.724-16.437z" fill="#ffca58"/><path d="m41.1 53.5c.5.215 1.073.442 1.7.658a3.485 3.485 0 0 0 4.279-1.824 28.008 28.008 0 0 1 5.644-7.93 1.323 1.323 0 0 0 -1.394-2.188 24.575 24.575 0 0 0 -11 8.308 1.958 1.958 0 0 0 .771 2.976z" fill="#fff0d2"/></svg>