<svg id="icon" height="512" viewBox="0 0 340 340" width="512" xmlns="http://www.w3.org/2000/svg"><path d="m195.334 167.1s15.835 42.724 41.073 69.415a3.188 3.188 0 0 0 3.82.6l53.548-28.733a9.747 9.747 0 0 1 13.507 4.527 53.518 53.518 0 0 1 2.9 8.187c1.829 6.912 6.043 13.825 8.758 17.8a3.448 3.448 0 0 1 -1.489 5.118 11.334 11.334 0 0 1 -12.224-2.17 146.514 146.514 0 0 0 -11.9-10.141l-50.074 39.452a17.055 17.055 0 0 1 -22.81-1.514c-13.054-13.5-34.488-39.189-49.859-66.365z" fill="#f7d1b7"/><path d="m161.868 86.77s-23.02 15.772-50.278 33.275a3.15 3.15 0 0 1 -3.623-.156l-20.633-15.944a11.634 11.634 0 0 1 -4.526-9.989 30.6 30.6 0 0 0 -.6-9.034 14.3 14.3 0 0 0 -13.25-10.806 17.79 17.79 0 0 0 -2.739.068 14.305 14.305 0 0 0 -12.565 16.222c.666 4.622 3.241 10.374 10.026 16.647l34.414 32.547a13.636 13.636 0 0 0 14.306 2.8l51.246-19.9z" fill="#f7d1b7"/><path d="m279.891 132.306c-.681-2.627-1.253-5.282-1.787-7.943-2.46-12.262-8.865-41.668-17.44-62.074a19.8 19.8 0 0 0 -22.141-11.822c-12.591 2.549-31.32 8.012-48.559 19.543a3.022 3.022 0 0 1 -4.7-2.511 13.025 13.025 0 0 1 3.1-7.815c5.114-5.321 11.726-15.485 8.337-30.494a20.727 20.727 0 0 0 -4.565-8.717c-9.476-11.321-26.7-11.383-37.043-.846a36.99 36.99 0 0 0 -5.7 7.559 7.645 7.645 0 0 1 -6.419 3.7h-.13a12.535 12.535 0 0 0 .63 25.055h.045a66.357 66.357 0 0 0 .983 7.712l.586 3.129a11.121 11.121 0 0 0 13.01 8.979l7.223-1.178 2.883 6.727s-17.251 9.751-13.876 33c0 0 3.135 25.818 8.838 49.459a6.8 6.8 0 0 1 -4.874 8.149 230.945 230.945 0 0 0 -72.022 33.945 18.415 18.415 0 0 0 -7.661 16.626 56.564 56.564 0 0 0 3.711 15.211l24.751 64.879a99.3 99.3 0 0 0 -15.857 8.515 11.923 11.923 0 0 0 -4.578 13.831 4.8 4.8 0 0 0 6.35 2.869 188.682 188.682 0 0 1 26.418-8.782 14.168 14.168 0 0 0 9.713-19.789q-.246-.517-.536-1.037a12.073 12.073 0 0 1 -.858-1.828c-2.213-6.222-14.319-41.18-17.652-70.658 0 0 34.5-9.822 64.621-14.148a29.2 29.2 0 0 0 24.859-30.913 141.251 141.251 0 0 0 -2.194-16.818 110.7 110.7 0 0 1 -2.021-20.7c.035-17.244 2.882-45.767 20.116-57.678 0 0 15-10.876 24.376-12.751 0 0 15.376 21.751 21.376 60.378a24.635 24.635 0 0 0 -7.837 7.905c-5.944 9.948 3.911 22.191 14.757 18.109a20.779 20.779 0 0 0 5.456-3.138c9.3-7.267 7.563-18.812 6.311-23.64z" fill="#ffecca"/><path d="m130.945 43.317a12.528 12.528 0 0 0 12.567 12.632c0-1.576-.018-2.91-.045-4.027a5.141 5.141 0 0 0 -4.641-4.993c-4.508-.429-6.758-2.079-7.881-3.612z" fill="#f7d1b7"/><path d="m156.94 38.674a3.638 3.638 0 0 1 2.043-6.674l5.414.064a3.638 3.638 0 0 1 -.087 7.275l-5.414-.065a3.627 3.627 0 0 1 -1.956-.6z" fill="#f7d1b7"/><path d="m162.28 167.1s15.834 42.724 41.073 69.415a3.186 3.186 0 0 0 3.819.6l53.549-28.733a9.748 9.748 0 0 1 13.507 4.527 53.522 53.522 0 0 1 2.9 8.187c1.83 6.912 6.044 13.825 8.759 17.8a3.448 3.448 0 0 1 -1.489 5.118 11.334 11.334 0 0 1 -12.224-2.17 146.54 146.54 0 0 0 -11.9-10.141l-50.074 39.453a17.053 17.053 0 0 1 -22.809-1.514c-13.055-13.5-34.488-39.189-49.86-66.365z" fill="#f79043"/><path d="m128.814 86.77s-23.02 15.772-50.278 33.275a3.15 3.15 0 0 1 -3.623-.156l-20.633-15.944a11.632 11.632 0 0 1 -4.527-9.989 30.566 30.566 0 0 0 -.6-9.034 14.3 14.3 0 0 0 -13.253-10.806 17.788 17.788 0 0 0 -2.739.068 14.305 14.305 0 0 0 -12.561 16.222c.665 4.622 3.241 10.374 10.025 16.647l34.415 32.547a13.634 13.634 0 0 0 14.3 2.8l51.247-19.9z" fill="#f79043"/><path d="m246.837 132.306c-.682-2.627-1.254-5.282-1.787-7.943-2.46-12.262-8.865-41.668-17.441-62.074a19.8 19.8 0 0 0 -22.14-11.822c-12.591 2.549-31.32 8.012-48.559 19.543a3.023 3.023 0 0 1 -4.7-2.511 13.026 13.026 0 0 1 3.1-7.815c5.114-5.321 11.725-15.485 8.336-30.494a20.717 20.717 0 0 0 -4.564-8.717c-9.477-11.321-26.7-11.383-37.044-.846a37.026 37.026 0 0 0 -5.7 7.559 7.644 7.644 0 0 1 -6.419 3.7h-.129a12.535 12.535 0 0 0 .63 25.055h.044a66.793 66.793 0 0 0 .983 7.712l.587 3.129a11.121 11.121 0 0 0 13.01 8.979l7.222-1.178 2.884 6.727s-17.251 9.751-13.876 33c0 0 3.135 25.818 8.837 49.459a6.8 6.8 0 0 1 -4.873 8.149 230.945 230.945 0 0 0 -72.017 33.937 18.418 18.418 0 0 0 -7.662 16.626 56.6 56.6 0 0 0 3.711 15.21l24.752 64.879a99.328 99.328 0 0 0 -15.858 8.515 11.923 11.923 0 0 0 -4.577 13.831 4.8 4.8 0 0 0 6.35 2.869 188.664 188.664 0 0 1 26.417-8.782 14.169 14.169 0 0 0 9.714-19.789q-.248-.517-.536-1.037a12.073 12.073 0 0 1 -.858-1.828c-2.214-6.222-14.319-41.18-17.652-70.658 0 0 34.5-9.822 64.621-14.148a29.2 29.2 0 0 0 24.857-30.905 141.045 141.045 0 0 0 -2.2-16.818 110.785 110.785 0 0 1 -2.02-20.7c.035-17.244 2.882-45.767 20.115-57.678 0 0 15-10.876 24.376-12.751 0 0 15.376 21.751 21.377 60.378a24.635 24.635 0 0 0 -7.837 7.905c-5.944 9.948 3.911 22.191 14.757 18.109a20.758 20.758 0 0 0 5.455-3.138c9.303-7.266 7.566-18.811 6.314-23.639z" fill="#ffca58"/><g fill="#f79043"><path d="m97.891 43.317a12.528 12.528 0 0 0 12.566 12.632c0-1.576-.017-2.91-.045-4.027a5.139 5.139 0 0 0 -4.64-4.993c-4.508-.429-6.759-2.079-7.881-3.612z"/><path d="m123.885 38.674a3.638 3.638 0 0 1 2.044-6.674l5.413.064a3.638 3.638 0 0 1 -.087 7.275l-5.413-.065a3.631 3.631 0 0 1 -1.957-.6z"/></g></svg>