<svg id="icon" height="512" viewBox="0 0 340 340" width="512" xmlns="http://www.w3.org/2000/svg"><path d="m95.075 106.407s2.442.061 6.465-3.237a8.757 8.757 0 0 1 8.828-1.766l.294 2.722s-6.547.442-6.547 8.46z" fill="#a6acb2"/><path d="m39.608 114.754 5.258 14.473h43.743v-11.947h-35.148z" fill="#a6acb2"/><path d="m86.693 111.268.945 10.83 1.99 14.612 22.818-1.328-2.961-23.174z" fill="#e6e6e6"/><path d="m106.526 131.043a5.6 5.6 0 0 0 -5.374-4.934l-4.389-.148a1.632 1.632 0 0 0 -1.682 1.763l.694 8.628 11.308-.658z" fill="#a6acb2"/><path d="m190.076 125.077-75.411 4.664 9.929 16.189 76.792 12.909z" fill="#ea8f8b"/><path d="m238.244 122.098-48.168 2.979v38.659z" fill="#a07d78"/><path d="m216.332 46.322-.591 15.078a11.189 11.189 0 0 1 -2.417 6.519l-6.585 8.3a.644.644 0 0 0 0 .808l3.716 4.552a17.744 17.744 0 0 1 3.886 9.232 12.912 12.912 0 0 0 8.277 10.637l15 5.656a10.415 10.415 0 0 1 3.477 2.145 17.177 17.177 0 0 1 5.344 10.714h33.6l-7.529-29.749v-47.014z" fill="#ffd0b0"/><path d="m246.449 119.96s-26.747 3.545-56.373 34.884l18.608 29.136 13.222 1.469v66.6h84.715a12.165 12.165 0 0 0 1.489-11.029 32.473 32.473 0 0 1 -1.747-8.948c-.542-12.813-1.749-45.127-1.735-78.445a36 36 0 0 0 -8.337-23.372 31.43 31.43 0 0 0 -16.237-10.292z" fill="#e2c2b9"/><path d="m221.906 192.048s-3.159 8.743-12.709 17.034a14.854 14.854 0 0 0 -5.015 12.309l1.569 21.528a9.842 9.842 0 0 0 9.817 9.127h6.338z" fill="#724e4c"/><path d="m221.906 252.046-24.372 73.854h42.029l22.267-35.356h7.464v35.356h37.906l-.283-36.1c2.748-12.4 2.341-25.009-.3-37.756z" fill="#8ba3c6"/><path d="m190.076 154.844a115.969 115.969 0 0 1 -17.551 13.338 8.07 8.07 0 0 1 -10.544-.672l-35.732-35.151a13.228 13.228 0 0 0 -10.706-5.4 3.565 3.565 0 0 0 -3.167 1.789l-.927 1.622a2.63 2.63 0 0 1 -2.285 1.326h-25.043a5.9 5.9 0 0 0 -5.781 7.052 5.894 5.894 0 0 0 3.218 4.154l6.956 3.358 1.7 5.407a8.822 8.822 0 0 0 8.418 6.178h10.119a13.338 13.338 0 0 1 9.5 3.976l33.953 34.46a14.194 14.194 0 0 0 15.126 3.319l41.354-15.618z" fill="#ffd0b0"/><path d="m228.837 69.955h-1.773a2.764 2.764 0 0 1 0-5.527h1.773a2.764 2.764 0 0 1 0 5.527z" fill="#ea8f8b"/><path d="m251.421 61.564 2.125-3.385-1.966-10.688-17.055-2.179-18.193 1.01-.274 7.01c1.609 2.044 4.934 4.724 11.32 4.724h14.865s7.912-.479 9.178 3.508z" fill="#ea8f8b"/><path d="m254.675 97.831a19.425 19.425 0 0 0 10.094 5.176 5.862 5.862 0 0 1 4.816 4.943l1.6 12.01h8.867l-7.529-29.749v-4.206z" fill="#ea8f8b"/><path d="m213.4 45.506c-2.816-7.485-4.451-19.792 7.785-30.977a1.006 1.006 0 0 1 1.554.27l3.578 6.56s3.228-3.55 12.246-5.82a44.758 44.758 0 0 1 34.46 4.916 39.37 39.37 0 0 1 5.257 3.859 11.978 11.978 0 0 0 8.792 3.033c3.134-.241 6.913-1.1 9.745-3.523a1 1 0 0 1 1.623.447c.978 3.137 2.636 10.5-1.111 16a7.8 7.8 0 0 0 3.224 11.387 9.6 9.6 0 0 0 3.142.806.992.992 0 0 1 .9 1.057c-.459 6.7-5.038 44.309-49.923 44.309v-5.886a10.083 10.083 0 0 1 5.5-8.88c.22-.116.441-.239.661-.37 8.694-5.167 3.554-18.758-6.408-17.014a21.078 21.078 0 0 0 -3 .772v-3.559a8.74 8.74 0 0 0 -8.986-8.744 140.894 140.894 0 0 1 -18.639-.539 12.582 12.582 0 0 1 -10.4-8.104z" fill="#373d4c"/><path d="m280.338 325.9v-30.859a5.643 5.643 0 0 1 2.578-4.737l6.607-4.275a1.042 1.042 0 0 0 -.566-1.917h-37.3a1.042 1.042 0 0 0 -.876 1.606l.722 1.122a5.641 5.641 0 0 1 -.106 6.263l-22.7 32.8h11.175l22.267-35.356h7.463v35.353z" fill="#405d7f"/><path d="m298.4 292.462v33.438h9.113l-.283-36.1c2.749-12.4 2.342-25.009-.3-37.756h-84.709l-1.871 5.669h70.132a11.155 11.155 0 0 1 10.987 9.044 37.185 37.185 0 0 1 -2.113 20.83 13.2 13.2 0 0 0 -.956 4.875z" fill="#405d7f"/><path d="m250.9 112.273a1.849 1.849 0 0 0 -.794-3.18l-19.906-4.793 7.425 2.8a10.415 10.415 0 0 1 3.477 2.145 17.356 17.356 0 0 1 4.684 7.559z" fill="#ea8f8b"/><path d="m221.906 185.449v-11.562a4.118 4.118 0 0 0 -5.809-3.754l-12.624 5.688-.577-.9 5.788 9.063z" fill="#b7958d"/><path d="m152.2 196.282a14.194 14.194 0 0 0 15.13 3.318l41.354-15.618-5.211-8.16-36.942 14.278a8.971 8.971 0 0 1 -9.11-1.587l-31.58-27.362a14.746 14.746 0 0 0 -10.268-3.59l-6.822.283a13.338 13.338 0 0 1 9.5 3.976z" fill="#ea8f8b"/><path d="m292.422 147.925v78.275a25.323 25.323 0 0 0 1.525 8.43c1.476 4.181 2.391 11.618-6.208 17.42h18.882a12.166 12.166 0 0 0 1.488-11.034 32.358 32.358 0 0 1 -1.746-8.937c-.542-12.818-1.75-45.174-1.735-78.521a35.891 35.891 0 0 0 -8.359-23.327 31.427 31.427 0 0 0 -16.215-10.267h-8.867s21.235 11.156 21.235 27.961z" fill="#a07d78"/><path d="m305.477 207.278c-.213-7.175-.417-15.265-.571-23.864a55.9 55.9 0 0 1 -4.884-19.678v-28.1a33.8 33.8 0 0 0 -3.731-5.38 32.3 32.3 0 0 0 -8.661-7.221v12.521a11.867 11.867 0 0 1 -11.866 11.867h-17.346a11.866 11.866 0 0 1 -11.866-11.867v-15.596h-.1s-5.876.779-15.17 4.833v43.955s.213 12.074-9.373 16.7v23.432c7.439-4.881 20.317-15.943 23.428-35.445a10.662 10.662 0 0 1 10.561-8.9l21.586-.007a10.722 10.722 0 0 1 10.552 8.816c1.9 10.466 6.575 27.328 17.441 33.934z" fill="#aa6a59"/><path d="m109.485 112.208-23.325-.962 1.478 10.852h23.111z" fill="#a6acb2"/><path d="m294.688 128.5q-.638-.654-1.326-1.286c-.143-.132-.293-.26-.439-.39-.08-.07-.165-.137-.246-.207-.286-.247-.574-.494-.873-.735-.19-.154-.379-.309-.575-.46-.433-.333-.885-.656-1.345-.973q-.357-.246-.726-.485c-.5-.321-1-.634-1.528-.933v11.157a23.846 23.846 0 0 1 4.792 13.737v41.466c2.8 7.231 6.952 14.176 13.055 17.887v-.066q-.079-2.638-.155-5.435v-.064c-.382-14.089-.7-30.952-.691-48.089a36.045 36.045 0 0 0 -8.074-23.047c-.089-.108-.173-.219-.263-.326-.407-.478-.839-.949-1.283-1.417-.111-.111-.211-.223-.323-.334z" fill="#724e4c"/><path d="m30.888 99.925 3.135 12.923a5.8 5.8 0 0 0 5.637 4.432h70.54l-.852-6.034-12.125-11.321z" fill="#e6e6e6"/><g fill="#a6acb2"><path d="m91.677 103.337h3.504l2.042 6.809h-3.505z"/><path d="m84.95 103.337h3.504l2.042 6.809h-3.504z"/><path d="m78.223 103.337h3.504l2.042 6.809h-3.504z"/><path d="m106.014 113.237h-58.1a2.786 2.786 0 0 1 -2.637-1.888l-.409-1.2h58.427a2.567 2.567 0 0 1 2.517 2.065z"/></g></svg>