<svg id="icon" height="512" viewBox="0 0 340 340" width="512" xmlns="http://www.w3.org/2000/svg"><path d="m156.913 80.222 29.163-4.667a203.616 203.616 0 0 1 39.986-6.4l29.163-4.667c11.943-3.138 25.451-5.141 39.987-6.4l29.163-4.667 1.957-.313-34.2-33.519-2.532.411-29.163 4.667a299.9 299.9 0 0 1 -39.987 6.4l-29.163 4.667a232.038 232.038 0 0 1 -39.986 6.4l-29.164 4.666c-11.6 3.47-25.166 5.417-39.986 6.4l-64.191 10.269a9.649 9.649 0 0 0 -8 11.052l4.2 26.267a2.253 2.253 0 0 0 2.58 1.868l100.187-16.034c10.816-3.514 24.743-5.322 39.986-6.4z" fill="#373d4c"/><path d="m18.683 145.928h302.964v178.247h-302.964z" fill="#ededed"/><path d="m18.683 170.665 302.964 24.738v-49.475h-302.964z" fill="#b2b4b7"/><g fill="#373d4c"><path d="m43.772 178.617h74.1v37.571a4 4 0 0 0 8 0v-37.571h88.6v37.571a4 4 0 0 0 8 0v-37.571h74.1a4 4 0 0 0 0-8h-252.8a4 4 0 1 0 0 8z"/><path d="m296.559 227.777h-252.787a4 4 0 1 0 0 8h252.787a4 4 0 0 0 0-8z"/><path d="m296.559 256.816h-252.787a4 4 0 1 0 0 8h122.393v11.284a4 4 0 0 0 8 0v-11.284h122.394a4 4 0 0 0 0-8z"/><path d="m296.559 285.854h-252.787a4 4 0 1 0 0 8h252.787a4 4 0 0 0 0-8z"/></g><path d="m82.151 53.196 39.986-6.4 34.776 33.426-39.986 6.4z" fill="#ffca58"/><path d="m151.3 42.129 39.986-6.4 34.776 33.426-39.986 6.4z" fill="#ffca58"/><path d="m220.449 31.062 39.987-6.4 34.776 33.426-39.987 6.4z" fill="#ffca58"/><path d="m289.6 20 25.285-4.047a9.649 9.649 0 0 1 11.052 8l4.16 25.992a2.529 2.529 0 0 1 -2.1 2.9l-3.623.58z" fill="#ffca58"/><path d="m323.966 107.426h-29.534a175.194 175.194 0 0 1 -40.5 0h-29.532a286.238 286.238 0 0 1 -40.5 0h-29.527c-14.865 1.127-28.936 1.6-40.495 0h-101.46a2.253 2.253 0 0 0 -2.253 2.253v26.6a9.649 9.649 0 0 0 9.649 9.649h65.008c15.829-1.472 29.867-1.813 40.495 0h29.534a190.4 190.4 0 0 1 40.5 0h29.529c15.627-1.236 29.827-1.644 40.5 0h29.53c7.324-3.83 16.048-11.913 20.971-18.566z" fill="#373d4c"/><path d="m27.965 82.66v36.777a11.215 11.215 0 0 0 11.215 11.215h33.148a9.1 9.1 0 0 0 6.738-15.2l-35.266-38.901a9.1 9.1 0 0 0 -15.835 6.109z" fill="#ededed"/><path d="m84.822 145.928h40.495l29.056-38.502h-40.495z" fill="#ffca58"/><path d="m154.851 145.928h40.495l29.057-38.502h-40.495z" fill="#ffca58"/><path d="m224.88 145.928h40.496l29.056-38.502h-40.495z" fill="#ffca58"/><path d="m294.91 145.928h25.607a9.649 9.649 0 0 0 9.648-9.649v-26.323a2.53 2.53 0 0 0 -2.53-2.53h-3.669z" fill="#ffca58"/><path d="m39.772 91.708a4.027 4.027 0 0 1 -2.83-1.17 4.169 4.169 0 0 1 -.5-.611 4.018 4.018 0 0 1 -.6-1.439 4.122 4.122 0 0 1 -.07-.78 3.992 3.992 0 0 1 4.78-3.92 5.312 5.312 0 0 1 .75.22 5.613 5.613 0 0 1 .689.37 4.9 4.9 0 0 1 .6.5 4 4 0 0 1 1.18 2.83 4.222 4.222 0 0 1 -.08.78 3.832 3.832 0 0 1 -.23.75 4.521 4.521 0 0 1 -.37.689 4.169 4.169 0 0 1 -.5.611 4.023 4.023 0 0 1 -2.819 1.17z" fill="#373d4c"/><path d="m39.772 123.973a4.029 4.029 0 1 1 2.82-1.18 3.994 3.994 0 0 1 -2.82 1.18z" fill="#373d4c"/><path d="m68.425 123.973a4 4 0 0 1 -2.83-6.831 4.226 4.226 0 0 1 .61-.5 4.767 4.767 0 0 1 .69-.37 4 4 0 1 1 1.53 7.7z" fill="#373d4c"/></svg>