<svg id="icon" height="512" viewBox="0 0 340 340" width="512" xmlns="http://www.w3.org/2000/svg"><path d="m186.022 275.464s-4.371 20.962-7.822 54.536h96.392s-1.15-33.371-7.821-57.987z" fill="#8ba3c6"/><path d="m232.116 330v-16.221h2.172a4 4 0 0 0 0-8h-12.418a4 4 0 0 0 0 8h2.246v16.221z" fill="#405d7f"/><path d="m266.771 272.013-80.749 3.451s-1.023 4.914-2.469 13.772c7.276 3.181 20.923 8.524 34.317 10.424l8.945-9.9 9.963 11.251s20.2-2.135 33.491-12.785c-.952-5.533-2.103-11.064-3.498-16.213z" fill="#405d7f"/><path d="m228.21 133.5s-20.47 3.685-34.719 6.083a18.979 18.979 0 0 0 -14.019 10.59c-4.432 9.38-10.978 24.87-14.379 40.785l26.118 1.741s-4.571 60.723-14.147 84.228a97.374 97.374 0 0 0 36.782 14.147l12.623-12.406 15.67 14.582a118.629 118.629 0 0 0 31.994-14.15s-6.634-28.947-5.82-60.288v-22.412a177.859 177.859 0 0 1 22.578-4.788s-1.261-15.389-3.208-27.634a19.1 19.1 0 0 0 -10.751-14.278c-12.745-6-36.271-16.2-48.722-16.2z" fill="#9dedbb"/><path d="m268.313 218.813v-7.726c-16.4-4.747-36.869-10.065-36.869-10.065s-2.373.875-5.922 2.178l-.195-15.582c.687-13.584 7.6-20.392 7.6-20.392l-1.239-6.088a25.855 25.855 0 0 0 -4.88 5.21 11.574 11.574 0 0 0 -7.3-3.946h-.024a26.662 26.662 0 0 0 -14.517 1.248 1.8 1.8 0 0 1 -2.389-2c1.254-7.346 2.838-13.833 4.02-18.221a.868.868 0 0 0 -1.593-.651 75.1 75.1 0 0 0 -8.595 27.36 2.172 2.172 0 0 0 3.522 1.934 26.284 26.284 0 0 1 3.714-2.393 15.142 15.142 0 0 1 9.456-1.711 10.975 10.975 0 0 1 9.159 7.465 44.139 44.139 0 0 0 -2.261 11.49l.643 18.067c-10.9 3.989-26.225 9.554-26.881 9.554a44 44 0 0 0 -4.83 1.57c-.939 8.23-2.17 17.756-3.7 27.079 3.854-1.519 9.818-3.962 17.048-7.234q5.223-2.363 10.215-5.186c2.13-1.2 4.8-2.7 7.58-4.244-.278 22.356.3 48.818.529 57.905l5.87-5.769-.694-55.3c1.48-.814 2.9-1.589 4.185-2.283 0 0 5.29 4.315 10.829 9 6.414 5.423 18.633 14.643 28.626 17.782a243.879 243.879 0 0 1 -1.107-29.051z" fill="#5da878"/><path d="m240.72 167.121c6.035.059 14.729 1.222 21.538 6.487a2.172 2.172 0 0 0 3.522-1.934 75.1 75.1 0 0 0 -8.595-27.36.868.868 0 0 0 -1.593.651c1.182 4.388 2.766 10.875 4.02 18.221a1.8 1.8 0 0 1 -2.389 2 26.494 26.494 0 0 0 -16.858-.678 1.335 1.335 0 0 0 .355 2.613z" fill="#5da878"/><path d="m218.333 107.3-1.765 33.031s2.79 12.8 16.36 26.894a67.963 67.963 0 0 0 10.484-45.4z" fill="#ffd0b0"/><path d="m165.093 190.955a186.013 186.013 0 0 0 -5.61 29.668 13.768 13.768 0 0 0 14.134 15.03c6.056-.244 14.507-2.415 26.215-8.425 0 0 28.824-16.1 39.258-18.634l-15.563-15.414-31.517 6.9 4.383-7.04z" fill="#ffd0b0"/><path d="m141.784 39.741-22.434-1.413a4.789 4.789 0 0 1 -3.617-2.024l-14.59-20.736a4.792 4.792 0 0 0 -7.836 0l-14.589 20.732a4.791 4.791 0 0 1 -3.618 2.028l-22.434 1.413a4.791 4.791 0 0 0 -3.485 7.716l16.264 20.983a4.79 4.79 0 0 1 .875 4.037l-6.32 26.706a4.79 4.79 0 0 0 6.911 5.332l28.065-14.926a4.791 4.791 0 0 1 4.5 0l28.061 14.926a4.791 4.791 0 0 0 6.912-5.332l-6.319-26.706a4.79 4.79 0 0 1 .876-4.037l16.263-20.983a4.791 4.791 0 0 0 -3.485-7.716z" fill="#ffca58"/><path d="m218.333 107.3-1.765 33.031s.16.724.579 2.006l26.646-7.506a64.518 64.518 0 0 0 -.381-13.006z" fill="#e8968e"/><path d="m208.63 94.266s1.028 6.262 9.7 8v5.034a18.576 18.576 0 0 0 10.453 16.726 126.136 126.136 0 0 0 18.778 7.351 17.134 17.134 0 0 0 21.907-14.193c2.077-16.02 3.828-40.7-.168-65.052l-59.211 11.09s-7.042 11.985-1.459 31.044z" fill="#ffd0b0"/><g fill="#e8968e"><path d="m222.606 83.4 10.394 2.132s-.269 12.542 12.407 12.542c0 0 5.638-.2 9.077-4.194a2.352 2.352 0 0 1 3.48-.062 14.523 14.523 0 0 0 13.284 4.556c.308-5.166.48-10.67.441-16.39l-49.081-.814z"/><path d="m238.207 208.831-25.207-13.346-18.69 4.093-.315.12a70.011 70.011 0 0 1 30.583 14.708 101.208 101.208 0 0 1 13.629-5.575z"/><path d="m165.093 190.955s-.211.741-.553 2.05l17.5 3.052-4.554 7.188a.914.914 0 0 0 1.063 1.356l13.463-4.519 4.383-7.04z"/><path d="m269.3 52.133-56.168 10.521c5.276 4.123 11.71 8.445 11.71 8.445a11.865 11.865 0 0 1 8.086-1.069c4.373.8 28.5.9 37.832-6.514-.36-3.781-.834-7.584-1.46-11.383z"/></g><path d="m231.232 67.668c15.2-1.419 46.309-7.243 51.939-31.119h-11.13s8.541-12.462 4.4-26.549c0 0-23.717 17.691-56.38 21.787a18.7 18.7 0 0 0 -16.4 17.568c-.007.13-.012.262-.016.394 0 0-15.342-.742-16.895 22.294 0 0-.659 20.074 21.883 22.223 0 0-.01-.041-.025-.12a9.8 9.8 0 0 1 12.3-11.228l1.7.478.11-6.487a9.425 9.425 0 0 1 8.514-9.241z" fill="#fb3"/><path d="m210.539 63.739c-2.352 5.8-8.441 15.072-23.1 13.7 1.5 6.11 6.248 15.407 21.19 16.831 0 0-.01-.044-.026-.127a9.8 9.8 0 0 1 12.3-11.222l1.7.479.11-6.487a9.425 9.425 0 0 1 8.516-9.241c15.2-1.419 46.309-7.243 51.939-31.119-16.188 19.507-52.557 22.357-66.086 22.728a7.249 7.249 0 0 0 -6.543 4.458z" fill="#f79043"/><path d="m192.01 200.082a42.663 42.663 0 0 1 6.087-9.13 23.408 23.408 0 0 1 24.47-6.806 86.038 86.038 0 0 1 19.455 9.157l26.291 17.273v-14.176s12.321-4.047 22.578-4.788c0 0 1.625 19.022.6 34.708a14.8 14.8 0 0 1 -20.355 12.673c-5.9-2.409-13.1-6.519-21.337-13.456a147.8 147.8 0 0 0 -22.15-15.6c-11.183-6.348-25.387-12.421-35.639-9.855z" fill="#ffd0b0"/><path d="m268.313 210.576 2.784 1.851a5.509 5.509 0 0 0 8.219-2.551c1.333-3.587 1.711-8.739-2.108-15z" fill="#e8968e"/><path d="m276.384 207.214a10.853 10.853 0 0 0 1.591-10.566 15.057 15.057 0 0 0 -1.835-3.549 15.221 15.221 0 0 0 -14.14-6.085 224.305 224.305 0 0 0 -24.169 3.842c9.621 5.892 19.82 12.736 30.482 19.72a9.236 9.236 0 0 0 8.071-3.362z" fill="#ffd0b0"/><path d="m276.674 80.143h-56.274a.705.705 0 0 0 -.658.959l.151.391a2.851 2.851 0 0 0 2.478 1.822l12.421.8a18.063 18.063 0 0 0 .194 2.014c1.661 10.279 13.48 12.775 18.72 4.137a16.68 16.68 0 0 0 2.094-6.093h2.111a16.658 16.658 0 0 0 2.093 6.093c5.241 8.638 17.059 6.142 18.721-4.137a19.737 19.737 0 0 0 .216-3.838 2.26 2.26 0 0 0 -2.267-2.148z" fill="#373d4c"/><path d="m271.008 82.512h4.155a1.5 1.5 0 0 1 1.5 1.547 12.361 12.361 0 0 1 -.723 3.935.657.657 0 0 1 -1.089.207l-4.313-4.59a.652.652 0 0 1 .47-1.099z" fill="#fff"/><path d="m247.261 82.512h4.155a1.5 1.5 0 0 1 1.5 1.547 12.361 12.361 0 0 1 -.723 3.935.657.657 0 0 1 -1.089.207l-4.313-4.59a.652.652 0 0 1 .47-1.099z" fill="#fff"/></svg>