<svg id="icon" height="512" viewBox="0 0 340 340" width="512" xmlns="http://www.w3.org/2000/svg"><g fill="#8be6f2"><path d="m108.821 66.449a4 4 0 0 1 -3.621-2.3c-.122-.259-.248-.516-.376-.772a4 4 0 1 1 7.156-3.577q.234.468.457.941a4 4 0 0 1 -3.616 5.706z"/><path d="m68.7 101.79a28.51 28.51 0 0 1 -7.591-1.036c-7.809-2.154-12.109-5.701-13.173-6.664-2.236-1.717-15.054-13.017-4.565-38.959 2.894-7.157 10.719-19.166 30.611-19.166a46.519 46.519 0 0 1 26.732 9.845 4 4 0 1 1 -5 6.241 38.989 38.989 0 0 0 -21.744-8.086c-11.578 0-19.382 4.766-23.182 14.165-8.828 21.834 1.87 29.512 1.979 29.587a4.009 4.009 0 0 1 .52.426c.008.007 3.333 3.072 9.952 4.9a19.041 19.041 0 0 0 17.532-3.6 8.239 8.239 0 0 0 1.2-1.209 11.023 11.023 0 0 0 2.175-4.334 2.519 2.519 0 0 1 .057-.3c1.893-8.274.127-13.281-5.11-14.48a2.83 2.83 0 0 0 -.791-.085c-2.961.122-4.9 1.315-5.94 3.648a3.166 3.166 0 0 0 -.236 2.143 1.432 1.432 0 0 0 .726 1 4 4 0 1 1 -.964 7.941 9.213 9.213 0 0 1 -7.436-6.678 11.146 11.146 0 0 1 .6-7.652c1.33-2.991 4.775-8.058 12.921-8.392a10.982 10.982 0 0 1 2.906.279c7.619 1.745 14.536 8.952 11.15 23.944a18.9 18.9 0 0 1 -3.681 7.8 16.015 16.015 0 0 1 -2.371 2.45 26.464 26.464 0 0 1 -17.277 6.272z"/><path d="m21.893 157.687a3.977 3.977 0 0 1 -.778-.077q-.676-.134-1.343-.277a4 4 0 1 1 1.682-7.821q.6.129 1.209.25a4 4 0 0 1 -.77 7.925z"/><path d="m47.887 159.838q-2.838 0-5.588-.078a4 4 0 1 1 .226-8c5 .143 10.264.083 15.646-.179a71.835 71.835 0 0 0 13.9-2.071l8.737-2.184c33.088-8.269 55.684-37.645 54.949-71.438-.009-.44-.022-.868-.036-1.284a57.718 57.718 0 0 0 -2.856-16.234c-13.321-39.949-53.642-37.386-54.048-37.352-.1.008-.2.012-.3.012-36.4 0-48.569 19.365-52.367 35.611a48.837 48.837 0 0 0 3.74 32.859c12.028 24.115 37.725 23.835 38 23.842h4.7a38.288 38.288 0 0 0 16.695-3.609 33.116 33.116 0 0 0 16.018-16.289 33.972 33.972 0 0 0 3.17-13.109 4 4 0 0 1 7.994.316 41.934 41.934 0 0 1 -3.916 16.179 40.919 40.919 0 0 1 -19.801 20.114 46.225 46.225 0 0 1 -20.15 4.395h-4.622c-1.176.014-30.978.338-45.247-28.27a56.855 56.855 0 0 1 -4.372-38.249c3.641-15.591 16.294-41.736 60.024-41.79a67.226 67.226 0 0 1 25.141 4.012c12.445 4.5 28.955 14.876 36.934 38.8a65.758 65.758 0 0 1 3.262 18.485q.024.678.039 1.392a79.87 79.87 0 0 1 -16.6 50.328 81.154 81.154 0 0 1 -44.412 29.044l-8.736 2.183a79.9 79.9 0 0 1 -15.457 2.3c-3.615.176-7.186.264-10.667.264z"/></g><path d="m73.88 88.415a3.294 3.294 0 0 1 3.291 3.175l1.516 42.2a14.973 14.973 0 0 0 1.527 6.069l2.542 5.172a14.972 14.972 0 0 1 1.537 6.607v41.359l-17.914 18.613 3.077-55.664a18.384 18.384 0 0 0 -2.878-10.936 18.377 18.377 0 0 1 -2.664-12.9l6.716-40.935a3.294 3.294 0 0 1 3.25-2.76z" fill="#f47a4e"/><path d="m75.673 168.377.489-13.3a23.148 23.148 0 0 0 -2.362-11.077l-2.854-5.795a23.138 23.138 0 0 1 -2.375-9.612l-.571-21.363-4.082 24.882a18.247 18.247 0 0 0 2.634 12.851 18.379 18.379 0 0 1 2.908 10.983l-1.312 23.654-1.769 32.01 17.914-18.616v-17.614l-4.293-1.15a5.838 5.838 0 0 1 -4.327-5.853z" fill="#c65030"/><path d="m66.379 223.486s5.991 5.265 16.757 3.522l8.655 7.5 12.031-18.135-15.878-24.134-21.565 3.385z" fill="#ea8f8b"/><path d="m84.293 290.361s-10.444-37.978 31.433-78.751c0 0 8.2 16.034-5.163 52.277 0 0-10.386 24.413-26.27 26.474z" fill="#3a3237"/><path d="m115.726 211.61-5.666-5.748a1.5 1.5 0 0 0 -2.354.292l-16.406 27.878a9.47 9.47 0 0 0 .835 10.8l15.606 19.051s10.576-20.754 7.985-52.273z" fill="#7689a5"/><path d="m204.644 143.423-13.236 36.131 3.9 147.476h65.164l-7.644-173.391-22.631-14.567z" fill="#7689a5"/><path d="m212.375 201.91-12.191-20.29a64.317 64.317 0 0 0 -8.037-4.083l-.739 2.017 3.9 147.476h18.122c5.57-61.662-1.055-125.12-1.055-125.12z" fill="#55677c"/><path d="m239.864 179.405 1.209 14.527s-1.694 11.37-2.909 31.413c-1.172 19.336-4.27 68.264 4.489 101.685h17.819l-6.772-153.723-3.764.227z" fill="#55677c"/><path d="m252.828 153.639-22.628-14.567-25.553 4.351-13.236 36.131.163 6.163a194.2 194.2 0 0 0 17.04 15.983s9.238 6.564 14 9.373l17.209-15.2c4.371-4.276 9.247-9.239 14.219-14.66z" fill="#fff"/><path d="m244.722 190.991c3-3.036 6.135-6.3 9.322-9.778l-.238-5.391c-.741-3.081-1.6-6.631-2.379-9.853.644-.067 1.282-.125 1.935-.209l-.534-12.121-6.831-4.4-17.213 15.8q3.263.643 6.78 1a4.894 4.894 0 0 1 4.294 3.683 64.2 64.2 0 0 1 1.533 13.433 8.944 8.944 0 0 1 -3.155 7l-.678.576-17.2 18.958c.815.519 1.586 1 2.26 1.395l17.209-15.2c.37-.362.755-.745 1.132-1.117l.323-.322q1.125-1.112 2.283-2.276c.251-.252.5-.5.751-.753.138-.139.271-.271.409-.411z" fill="#e6e6e6"/><path d="m214.65 141.719-10.006 1.7-13.236 36.131.163 6.163c5.225 5.479 10.6 11.3 17.043 15.986 0 0 1.678 1.191 3.965 2.772-.743-3.9-6.169-34.408 2.071-52.129z" fill="#e6e6e6"/><path d="m230.2 139.072-25.553 4.351-4.46 12.174a62.275 62.275 0 0 0 19.777 15.556h6.536a100.961 100.961 0 0 0 18.55-22.521z" fill="#ffd0b0"/><path d="m245.049 148.632-14.852-9.56-15.547 2.647-10.006 1.7-4.46 12.174a59.634 59.634 0 0 0 10.8 10.062q.2-1.4.456-2.768a2.7 2.7 0 0 1 3.7-1.972 72.405 72.405 0 0 0 17 4.7 110.524 110.524 0 0 0 12.909-16.983z" fill="#ea8f8b"/><path d="m222.666 211.675s7.292-6.15 17.159-15.8a133.569 133.569 0 0 0 -13.325-24.722h-6.538c-5.649 9.768-9.178 21.131-11.345 30.548a112.582 112.582 0 0 0 14.049 9.974z" fill="#cc5a5a"/><path d="m231.617 146.007s12.09 8.2 13.541 32.8a77.862 77.862 0 0 1 -.124 10.235c-.845 11.624-3.514 53.978-1.067 96.539 0 0 1.723 25.459 4.595 41.449h74.826a283.783 283.783 0 0 1 -16.987-62.9c-.253-1.772-.444-3.552-.614-5.334-1.125-11.765-7.006-64.191-24.514-90.042a37.274 37.274 0 0 0 -16.783-13.5l-28.852-11.824z" fill="#6b616b"/><path d="m244.9 190.926c6.762-5.727 20.68-18.176 41.111-14.029a74.225 74.225 0 0 0 -4.739-8.148 37.274 37.274 0 0 0 -16.783-13.5l-28.852-11.824-4.021 2.584s12.09 8.2 13.541 32.8a77.864 77.864 0 0 1 -.124 10.235c-.077 1.066-.033.319-.133 1.882z" fill="#3a3237"/><path d="m107.617 237.9a6.719 6.719 0 0 1 -10.284 1.632l-6.09-5.39a9.465 9.465 0 0 0 .887 10.7l15.606 19.051s9.355-18.36 8.315-46.761l-.545-1.195a74.261 74.261 0 0 1 -7.889 21.963z" fill="#55677c"/><path d="m245.262 181.62s15.954-24.17 37.228-11a22.689 22.689 0 0 0 -1.853-12.677 21.86 21.86 0 0 0 -9.472-9.932c-6-3.281-19.311-9.312-35.525-8.926l-9.141 5.315s17.284 9.793 18.763 37.22z" fill="#6b616b"/><path d="m208.334 145.365s-10.634 18.235-4.534 60.167c.814 5.6 1.406 11.224 1.684 16.873.5 10.062 1.161 26.287 1.161 40.917v63.708h-62.793a50.074 50.074 0 0 1 -26.986-7.878c-10.765-6.884-25.256-17.519-32.573-28.791 0 0 29.4-23.659 31.433-78.751l19.6 20.955a61.889 61.889 0 0 1 15.547-4.732s15.21-54.077 51.036-85.848z" fill="#6b616b"/><path d="m201.912 141.985c-14.786 13.115-26.05 30.015-34.192 45.359 8.888-4.592 24.492-5.724 35.019 9.571l.009.017c-3.577-35.83 5.586-51.567 5.586-51.567z" fill="#3a3237"/><path d="m169.558 183.946a28.166 28.166 0 0 1 4.523-6.305 15.5 15.5 0 0 1 24.952 3.618 30.582 30.582 0 0 1 3.3 10.98s-1.512-26.575 7.137-46.548l-7.389-6.6a42.648 42.648 0 0 0 -16.812 7.654 39.927 39.927 0 0 0 -15.8 36.379c.031.276.056.548.089.822z" fill="#6b616b"/><path d="m64.674 184.711h14.126a0 0 0 0 1 0 0v32.057a10.718 10.718 0 0 1 -10.718 10.718h-3.408a10.718 10.718 0 0 1 -10.718-10.718v-21.339a10.718 10.718 0 0 1 10.718-10.718z" fill="#ffd0b0"/><path d="m78.8 209.318v-24.607h-8.316a14.324 14.324 0 0 0 -3.114 8.919v8.157a7.761 7.761 0 0 0 7.751 7.752h1.235a14.589 14.589 0 0 0 2.444-.221z" fill="#ea8f8b"/><path d="m274.484 230.876a2.066 2.066 0 0 0 -4.111.323c.437 26.062 2.765 64.41 11.55 95.831h13.585c-9.785-25.755-16.968-67.809-21.024-96.154z" fill="#3a3237"/><path d="m182.6 327.03c-1.664-26.12-.923-65.843-.05-93.725a1.653 1.653 0 0 0 -3.293-.255c-3 24.069-6.518 58.768-7.339 93.98z" fill="#3a3237"/><path d="m202.083 139.09a39.331 39.331 0 0 0 -10.887 3.962c2.1 5.476 5.255 11.313 13.654 17.671a78.688 78.688 0 0 1 4.622-15.032z" fill="#3a3237"/><path d="m227.75 145.233a39.416 39.416 0 0 1 10.993 12.685c4.216-5.006 8.571-10.58 11.051-17.6a65.928 65.928 0 0 0 -14.154-1.228l-8.9 5.173c.327.299.66.624 1.01.97z" fill="#3a3237"/><path d="m185.885 98.5s-6.339 54.561 32.468 55.137c0 0 27.856.192 26.9-31.891l.024-31.315-48.249-29.391s-9.221 10.182-11.143 37.46z" fill="#ffd0b0"/><path d="m245.249 121.748v-2.835c-2.195.1-4.006.408-4.189.335-.6-.239-28.572-1.407-28.572-1.407s-16.76 3.416-25.523 5.221a54.527 54.527 0 0 0 4.038 12.831 19.707 19.707 0 0 0 8.139 1.769 16.492 16.492 0 0 0 11.82-4.645 19.628 19.628 0 0 0 3.982-5.591 1.791 1.791 0 0 1 1.627-1 1.814 1.814 0 0 1 1.691 1.148c.068.171.146.358.234.559a16.756 16.756 0 0 0 17.73 9.626 23.194 23.194 0 0 0 7.245-2.207 39.891 39.891 0 0 0 1.778-13.804z" fill="#ea8f8b"/><path d="m185.885 98.5a90.417 90.417 0 0 0 1.178 25.047l8.937-11.461s-.489-14.459 1.543-25.068a1.351 1.351 0 0 1 2.457-.476c4.333 6.689 17.511 23.361 45.255 31.473l.021-27.582-48.248-29.393s-9.221 10.182-11.143 37.46z" fill="#ea8f8b"/><path d="m197.989 70.838s13.243 26.151 42.862 39.305a22.009 22.009 0 0 0 22.58-2.5q.721-.57 1.427-1.224a2.186 2.186 0 0 0 .155-3.091l-.051-.054a7.4 7.4 0 0 1 -1.85-6.161c1.475-9.749 4.841-49.748-36.548-61.913a27.632 27.632 0 0 0 -15.926.065 40.711 40.711 0 0 0 -18.989 12.326l-6.763-.8a9.6 9.6 0 0 0 -8.3 3.122 59.517 59.517 0 0 0 -14.423 30.616 34.612 34.612 0 0 0 30.063 39.486s-2.69-33.232 5.763-49.177z" fill="#373d4c"/><path d="m221 120.878a2.484 2.484 0 0 1 -1.174-.3 7.457 7.457 0 0 0 -6.578 0 2.5 2.5 0 0 1 -2.391-4.392 12.552 12.552 0 0 1 11.321-.015 2.5 2.5 0 0 1 -1.178 4.707z" fill="#bad5e8"/><circle cx="198.308" cy="118.578" fill="#bad5e8" r="15.081"/><circle cx="234.747" cy="118.578" fill="#bad5e8" r="15.081"/><path d="m107.678 206.2s-7.085-13.016-18.8-20.543a9.258 9.258 0 0 0 -5.005-1.435h-2.096a9.408 9.408 0 0 0 -9.407 9.408v8.156a2.752 2.752 0 0 0 2.751 2.752h1.235a9.74 9.74 0 0 0 9.134-6.359l.039-.105s-1.716 16.266 14.263 21.526z" fill="#ffd0b0"/><path d="m99.792 219.6 4.539-7.71-8.241 6.138a23.732 23.732 0 0 0 3.702 1.572z" fill="#ea8f8b"/><path d="m141.869 241.081a4.79 4.79 0 0 1 5.839 3.318c2.31 8.184 4.571 19.654 6.234 28.944a1.778 1.778 0 0 0 3.527-.286c.715-33.577-6.593-45.224-6.593-45.224a61.889 61.889 0 0 0 -15.547 4.732l-1.243 18.142a1.524 1.524 0 0 0 3.014.408l1.29-6.35a4.8 4.8 0 0 1 3.479-3.684z" fill="#3a3237"/><path d="m237.558 190.722-13.908 12.994a3.151 3.151 0 0 1 -3.89.325l-5.835-3.863a6.01 6.01 0 0 1 -2.655-4.278c-.115-.939-.23-1.934-.339-2.978-.9 3.032-1.675 6-2.315 8.779a112.582 112.582 0 0 0 14.05 9.974s7.292-6.15 17.159-15.8c-.747-1.797-1.508-3.515-2.267-5.153z" fill="#b24646"/><path d="m196.612 107.45a10.9 10.9 0 0 0 -8.62 15.017 1.364 1.364 0 0 0 2.114.53l14.22-11.527a1.365 1.365 0 0 0 -.091-2.184 10.873 10.873 0 0 0 -7.623-1.836z" fill="#fff"/><path d="m233.243 107.45a10.9 10.9 0 0 0 -8.619 15.017 1.364 1.364 0 0 0 2.114.53l14.219-11.527a1.365 1.365 0 0 0 -.09-2.184 10.876 10.876 0 0 0 -7.624-1.836z" fill="#fff"/></svg>