<svg id="icon" height="512" viewBox="0 0 340 340" width="512" xmlns="http://www.w3.org/2000/svg"><path d="m129.098 144.781h112.677v172.342h-112.677z" fill="#436477"/><path d="m129.1 101.733h26.786a3.757 3.757 0 0 1 3.757 3.757v15.8a2.133 2.133 0 0 0 2.133 2.133h22.913a2.132 2.132 0 0 0 2.132-2.133v-15.8a3.757 3.757 0 0 1 3.757-3.757h33.339v43.048h-94.817z" fill="#436477"/><path d="m298.557 152.269-52.439-1.269h-53.064s-25.8 35.766-26.471 166.123h159.072c-.667-130.358-27.098-164.854-27.098-164.854z" fill="#6ac2e5"/><g fill="#4a93bc"><path d="m309.971 276.564-2.733-15.464-105.567 4.177-1.839 35.8c26.112 2.618 48.374-7.856 58.445-13.667a28.1 28.1 0 0 1 12.332-3.752c16.971-1.036 39.362-7.094 39.362-7.094z"/><path d="m166.583 317.122h38.273a596.813 596.813 0 0 1 2.674-87.636c6.728-29.917 25.55-39.079 25.55-39.079l-39.73-36.707c-1.534 2.223-26.121 37.144-26.767 163.422z"/><path d="m325.655 317.122c-.667-130.357-26.348-163.1-26.348-163.1l-4.831-3.022c-14.337 13.519-33.606 32.036-33.606 32.036v8.664s12.009 9.955 17.576 24.5a41.359 41.359 0 0 1 2.306 9.311c1.535 11.464 6.52 52.726 4.551 91.613z"/><path d="m271.908 162.709-38.985-2.136-20.462 22.99 7 6.845s26.592 8.471 53.317 0a51.24 51.24 0 0 0 11.125-5.03z"/></g><path d="m164.509 286.346c67.313 18.442 108.507-17.946 108.507-17.946-42.648 5.776-85.486-12.805-105.744-22.709-1.207 12.103-2.165 25.609-2.763 40.655z" fill="#373d4c"/><path d="m246.346 276.564c42.39 0 66.216-12.908 78.6-22.93-.908-10.411-2.052-19.566-3.259-28.117-12.05 13.71-35.722 32.983-75.345 32.983-43.045 0-65.477-20.1-75.468-31.851-1.131 8.182-2.539 17.175-3.4 27.026 15.436 10.919 40.626 22.889 78.872 22.889z" fill="#545c6d"/><path d="m285.041 272.323c17.844-4.29 30.031-11.138 38.052-17.238-.853-10.181-1.879-19.415-3.021-27.777a95.355 95.355 0 0 1 -36.448 24.666c.534 6.176 1.034 13.054 1.417 20.349z" fill="#373d4c"/><path d="m172.147 228.105c-1.109 8.095-2.108 16.992-2.944 26.763a120.23 120.23 0 0 0 35.473 16.279c.247-7.423.6-14.109.971-19.844a86.836 86.836 0 0 1 -33.5-23.198z" fill="#373d4c"/><path d="m163.833 317.122h32.6c-.832-31.106 2.4-72.74 3.388-84.463a66.979 66.979 0 0 1 .991-7.415c6.189-31.221 29.608-45.571 45.307-51.8v-22.444h-55.5s-26.119 35.765-26.786 166.122z" fill="#fc6565"/><path d="m328.4 317.122h-32.6c.832-31.106-2.4-72.74-3.388-84.463a66.979 66.979 0 0 0 -.991-7.415c-6.189-31.221-29.608-45.571-45.307-51.8v-22.444h55.5s26.122 35.765 26.786 166.122z" fill="#fc6565"/><path d="m185 162.157c.1.166.2.332.3.5.077.124.157.249.236.373l.081.127.088.14c.117.186.235.373.359.564.105.161.216.327.327.493l.1.154.095.143c.1.153.2.305.307.46.065.1.136.2.207.3l.05.071.045.065c.194.281.389.563.595.85l.152.208c.251.348.525.724.811 1.1.068.091.14.184.212.276l.039.05c.254.334.512.671.783 1.014l.2.247c.3.373.6.741.906 1.112.078.093.158.187.239.28l.042.049c.292.345.587.693.9 1.044.14.158.284.317.429.476l.146.16.154.171c.172.192.345.384.525.576.127.137.257.272.388.407l.127.133.15.157c.219.232.44.463.668.695.126.127.256.255.387.383l.121.118.15.15c.247.246.494.491.751.736.159.152.323.3.488.455l.166.153.183.171c.215.2.431.4.655.6q.192.173.39.342l.105.091.127.112c.313.276.626.552.951.826.129.109.262.217.4.324l.1.079.109.09c.348.288.7.576 1.058.861.141.111.286.222.431.332l.117.088.138.107c.348.269.695.537 1.055.8.2.148.406.294.613.439l.205.146.221.158c.26.187.52.374.789.558.219.151.447.3.675.449l.226.148.233.156c.257.172.515.344.78.512.208.132.421.262.634.391l.21.127.24.148c.3.188.608.376.921.56.227.133.46.264.694.394l.233.13.26.148c.3.171.6.34.906.506.268.145.543.286.818.426l.267.136.263.137c.276.144.552.288.835.427.22.109.447.215.674.319l.22.1.265.126c.369.176.738.352 1.117.521.142.063.287.125.433.186l.054.022c.6.263 1.23.535 1.878.8.154.062.314.123.474.182l.071.027c.556.218 1.131.438 1.717.651a80.789 80.789 0 0 1 26.659-16.968v-22.432h-55.5s-2.343 3.2-5.628 11.157z" fill="#c14040"/><path d="m307.238 162.154c-3.288-7.954-5.621-11.154-5.621-11.154h-55.5v22.44a80.792 80.792 0 0 1 26.658 16.967l.11-.039q.907-.332 1.786-.68l.062-.023c.127-.049.255-.1.38-.149.67-.27 1.353-.56 2.084-.884.179-.079.356-.16.533-.242l.168-.077q.7-.32 1.38-.648c.257-.125.513-.25.767-.377l.066-.033c.126-.061.252-.122.375-.185s.261-.137.39-.21a66.8 66.8 0 0 0 26.362-24.706z" fill="#c14040"/><path d="m299.39 143.408c-20.48-29.627-50.38-27.451-53.272-27.166-2.892-.285-32.792-2.461-53.272 27.166a12.545 12.545 0 0 0 -.5 13.508c6.19 10.463 21.588 28.8 53.546 28.973v.012c.078 0 .15-.006.228-.006s.15.006.228.006v-.012c31.958-.176 47.356-18.51 53.546-28.973a12.545 12.545 0 0 0 -.504-13.508z" fill="#fc6565"/><path d="m291.3 150.084c-5.806-12.73-17.227-12.76-17.227-12.76a32.151 32.151 0 0 0 5.383-12.854 58.053 58.053 0 0 0 -33.338-8.228 55.725 55.725 0 0 0 -21.853 2.945l-9.34 18.562 5.709 36.4 19.4 11.5q2.834.225 5.86.245v.012c.078 0 .15-.006.228-.006s.15.006.228.006v-.012c23.244-.128 37.721-9.862 46.273-19.186 2.277-8.575-1.323-16.624-1.323-16.624z" fill="#c14040"/><path d="m278.017 144.962a15.043 15.043 0 0 0 -7.136-1.468q-2.035.056-3.958.057c-14.818.966-26.571-.065-32.763-4.717l1.693-22.29c-11.22 1.407-29.255 6.947-43.03 26.9a12.517 12.517 0 0 0 -.482 13.47c6.188 10.462 21.586 28.8 53.549 28.978v.012c.078 0 .15-.006.228-.006s.15.006.228.006v-.012c12.349-.068 22.225-2.848 30.053-6.837 9.494-4.839 13.887-16.33 9.314-25.955q-.261-.549-.551-1.074a16.571 16.571 0 0 0 -7.145-7.064z" fill="#fc6565"/><path d="m273.487 56.772h-27.141-27.141l-4.28 24.419 5.525 37.763h25.896 25.896l5.524-37.763z" fill="#ffd0b0"/><path d="m215.903 75.611 59.285-9.13-1.701-9.709h-27.141-27.141z" fill="#ea8f8b"/><path d="m11.597 81.215h117.501v235.907h-117.501z" fill="#b1c9dd"/><path d="m107.4 34.241v11.659a2.132 2.132 0 0 1 -2.132 2.132h-21.938a2.132 2.132 0 0 1 -2.13-2.132v-11.659a3.757 3.757 0 0 0 -3.757-3.757h-14.189a3.757 3.757 0 0 0 -3.754 3.757v11.659a2.132 2.132 0 0 1 -2.132 2.132h-21.937a2.132 2.132 0 0 1 -2.131-2.132v-11.659a3.757 3.757 0 0 0 -3.757-3.757h-14.189a3.757 3.757 0 0 0 -3.754 3.757v46.974h117.5v-46.974a3.757 3.757 0 0 0 -3.757-3.757h-14.189a3.757 3.757 0 0 0 -3.754 3.757z" fill="#b1c9dd"/><path d="m238.453 88.123a2.954 2.954 0 0 1 -.475-.039l-1.365-.225a2.9 2.9 0 1 1 .942-5.717l1.365.224a2.9 2.9 0 0 1 -.467 5.757z" fill="#373d4c"/><path d="m254.625 88.123a2.9 2.9 0 0 1 -.468-5.757l1.365-.224a2.9 2.9 0 1 1 .943 5.717l-1.366.225a2.942 2.942 0 0 1 -.474.039z" fill="#373d4c"/><path d="m266.923 143.548c-21.675.027-32.763-4.714-32.763-4.714l1.693-22.29a59.715 59.715 0 0 0 -22.488 7.574c1.795 8.173 8.486 25.966 32.753 25.966 9.131 0 15.85-2.705 20.805-6.536z" fill="#c14040"/><path d="m129.1 267.506h-23.789v-45.068h23.789v-8h-54.752v-41.172h54.752v-8h-117.5v8h54.748v41.172h-54.748v8h23.19v45.068h-23.19v8h54.748v41.616h8v-41.616h54.752zm-31.787 0h-54.523v-45.068h54.521z" fill="#6789a0"/><path d="m11.597 129.241h117.501v-8h-54.75v-40.025-.001h-8v.001 40.025h-54.751z" fill="#6789a0"/><path d="m231.809 59.8s.819 9.672-10.329 20.594a16.593 16.593 0 0 0 -4.48 7.338 12.533 12.533 0 0 0 -.462 4.486s-8.82-6.521-9-16.207 2.762-12.736 2.762-12.736z" fill="#f2f2f2"/><path d="m260.883 59.8s-.819 9.672 10.329 20.594a16.593 16.593 0 0 1 4.479 7.334 12.533 12.533 0 0 1 .462 4.486s8.82-6.521 9-16.207-2.753-12.732-2.753-12.732z" fill="#f2f2f2"/><path d="m282.4 63.275-21.517-3.475a20.073 20.073 0 0 0 1.865 8.593l20.77-3.2a7.129 7.129 0 0 0 -1.118-1.918z" fill="#dbdbdb"/><path d="m268.74 105.932q-.36-.312-.724-.595a17.407 17.407 0 0 0 -10.757-3.6h-21.826a17.412 17.412 0 0 0 -10.758 3.6c-.241.189-.483.387-.723.595-7.167 6.195-7.788 17.045-1.9 24.461 4.021 5.06 11.321 10.329 24.289 10.329s20.268-5.269 24.288-10.329c5.899-7.416 5.278-18.266-1.889-24.461z" fill="#f2f2f2"/><path d="m210.3 63.275s-2.941 3.05-2.759 12.736c0 .3.043.585.064.878l19.329-2.977c5.389-7.993 4.878-14.108 4.878-14.108z" fill="#dbdbdb"/><path d="m278.613 27.006-17.247 14.018-14.419-17.859a.772.772 0 0 0 -1.2 0l-14.42 17.859-17.248-14.018a.772.772 0 0 0 -1.258.545l-2.521 35.724h72.1l-2.524-35.724a.772.772 0 0 0 -1.263-.545z" fill="#ffca58"/><path d="m246.347 50.662a4.129 4.129 0 0 1 -.78-.08 4.033 4.033 0 0 1 -1.44-.6 3.639 3.639 0 0 1 -.61-.49 4.008 4.008 0 0 1 0-5.66 4.279 4.279 0 0 1 .61-.5 4.524 4.524 0 0 1 .69-.36 3.832 3.832 0 0 1 .75-.23 3.728 3.728 0 0 1 1.56 0 3.832 3.832 0 0 1 .75.23 4.524 4.524 0 0 1 .69.36 4.919 4.919 0 0 1 .61.5 3.964 3.964 0 0 1 -.61 6.15 4.033 4.033 0 0 1 -1.44.6 4.129 4.129 0 0 1 -.78.08z" fill="#f45a4e"/><path d="m243.762 52.9a6.492 6.492 0 0 1 -1.166-.625 6.16 6.16 0 0 1 -1.031-.829 6.772 6.772 0 0 1 0-9.562 7.178 7.178 0 0 1 1.031-.845 7.6 7.6 0 0 1 1.166-.609 6.572 6.572 0 0 1 1.267-.389l.108-.023a1.528 1.528 0 0 0 1.21-1.495v-5.743a1.122 1.122 0 0 0 -1.992-.708l-11.031 13.566a2.369 2.369 0 0 1 -3.342.336l-10.956-9a1.4 1.4 0 0 0 -2.29.981l-1.315 17.885a3.171 3.171 0 0 0 3.163 3.4h26.065a1.7 1.7 0 0 0 1.7-1.7v-2.673a1.606 1.606 0 0 0 -1.305-1.578h-.013a6.5 6.5 0 0 1 -1.269-.389z" fill="#f79043"/><path d="m245.876 44.234a.732.732 0 0 0 -.319 1.2l2 2.121a.732.732 0 0 0 1.217-.248 2.362 2.362 0 0 0 -2.9-3.074z" fill="#fcfafa"/><path d="m268.616 156.212a32.673 32.673 0 0 0 -11.666-.619 2.193 2.193 0 0 0 -.366 4.278l.024.007a2.1 2.1 0 0 1 1.392 2.652 10.913 10.913 0 0 0 .058 6.3 2.113 2.113 0 0 1 -1.2 2.5 82.678 82.678 0 0 1 -12.788 4.256 1.506 1.506 0 0 0 .338 2.965c17.787.513 25.693-3.813 29.158-8.237a8.976 8.976 0 0 0 -4.95-14.102z" fill="#c14040"/><circle cx="266.496" cy="164.673" fill="#373d4c" r="5.626"/><path d="m11.597 81.215h117.501v8.35h-117.501z" fill="#6789a0"/><path d="m70.348 109.85a19.907 19.907 0 0 1 19.907 19.907v35.509a0 0 0 0 1 0 0h-39.815a0 0 0 0 1 0 0v-35.508a19.907 19.907 0 0 1 19.908-19.908z" fill="#436477"/><path d="m236.565 101.733h-1.132a17.412 17.412 0 0 0 -10.758 3.6c-.241.189-.483.387-.723.595-7.167 6.195-7.788 17.045-1.9 24.461 4.021 5.06 11.321 10.329 24.289 10.329a41.1 41.1 0 0 0 7.071-.589c-16.287-.884-22.177-11.37-24.231-17.447a17.618 17.618 0 0 1 7.379-20.953z" fill="#dbdbdb"/></svg>