<svg id="fill" height="512" viewBox="0 0 340 340" width="512" xmlns="http://www.w3.org/2000/svg"><path d="m231.014 89.046h98.986v220.206h-98.986z" fill="#c13d3d"/><path d="m231.014 229.498h98.986v15.713h-98.986z" fill="#fff"/><path d="m231.014 142.979h98.986v15.713h-98.986z" fill="#fff"/><path d="m18.787 246.459v62.793h60.068v-91.32z" fill="#c13d3d"/><path d="m236.09 106.435-66.09-23.176-66.09 23.176-25.055 49.483v153.334h91.145 91.145v-153.334z" fill="#ea5e5e"/><path d="m170 309.252h63.01v-101.345h-63.01-63.01v101.345z" fill="#fff"/><path d="m250.374 103.901-80.374-34.617-80.374 34.617-40.575 73.846 18.472 10.665 39.78-68.901 62.697-26.003 62.697 26.003 39.78 68.901 18.472-10.665z" fill="#2b313f"/><path d="m115.001 216.367v92.885h54.999 54.999v-92.885z" fill="#c13d3d"/><path d="m10 255.276 68.855-30.187v-19.285l-68.855 30.186z" fill="#2b313f"/><path d="m41.079 266.402h17.484v21.439h-17.484z" fill="#2b313f"/><path d="m136.286 127.924h67.428v67.428h-67.428z" fill="#fff"/><path d="m144.298 135.936h51.404v51.404h-51.404z" fill="#c13d3d"/><path d="m280.507 30.748a49.493 49.493 0 0 0 -49.493 49.493v8.805h98.986v-8.805a49.493 49.493 0 0 0 -49.493-49.493z" fill="#2b313f"/><g fill="#fff"><path d="m166 215.207v94.045h4 4v-94.045z"/><path d="m152.961 269.4a4 4 0 0 1 -4-4v-4.59a4 4 0 0 1 8 0v4.59a4 4 0 0 1 -4 4z"/><path d="m187.039 269.4a4 4 0 0 1 -4-4v-4.59a4 4 0 0 1 8 0v4.59a4 4 0 0 1 -4 4z"/><path d="m195.7 191.34a3.987 3.987 0 0 1 -2.828-1.172l-51.4-51.4a4 4 0 1 1 5.656-5.657l51.4 51.405a4 4 0 0 1 -2.828 6.828z"/><path d="m144.3 191.34a4 4 0 0 1 -2.828-6.828l25.7-25.7a4 4 0 0 1 5.656 5.656l-25.7 25.7a3.987 3.987 0 0 1 -2.828 1.172z"/><path d="m179.436 156.2a4 4 0 0 1 -2.829-6.828l16.267-16.267a4 4 0 1 1 5.656 5.657l-16.266 16.268a3.984 3.984 0 0 1 -2.828 1.17z"/></g></svg>