<svg id="fill" height="512" viewBox="0 0 340 340" width="512" xmlns="http://www.w3.org/2000/svg"><path d="m224.1 191.917s-24.936-7.51-19.228-32.146c0 0 5.708-24.335 34.55-21.631 0 0 9.014-29.547 39.159-18.918a28.139 28.139 0 0 1 18.329 19.918c1.642 7.142.732 16.252-7.4 26.339 0 0 .3.049.814.169a19.088 19.088 0 0 1 12.3 27.932c-3.435 6.032-9.608 12.012-20.531 11.556l-26.705-4.806z" fill="#dbeefc"/><path d="m81.4 228.981s-39.737 10.092-46.044-22.076c0 0-5.992-29.329 25.86-35.006 0 0-4.634-24.791 12.711-38.627a34.473 34.473 0 0 1 18.214-7.138c11.878-1.159 34.234.424 41.295 26.843a40.905 40.905 0 0 1 6.873.85 20.927 20.927 0 0 1 16.556 21.966c-.528 8.1-3.23 19.436-13.022 27.959l-22.076 16.714z" fill="#dbeefc"/><path d="m155.372 109.869s-42.878 1.015-48.163-35.481a26.3 26.3 0 0 1 13.251-27.078c6.639-3.575 16.055-5.864 28.941-3.44 0 0 1.886-38.656 41.485-30.8 0 0 26.085 5.971 24.828 32.056 0 0 20.364 3.543 26.726 22.151a30.755 30.755 0 0 1 -1.355 23.05c-4.164 8.78-13.555 19.981-34.486 21.112z" fill="#dbeefc"/><path d="m286.715 203.955a28.192 28.192 0 0 1 -11.438-5.232 26.378 26.378 0 0 0 -14.239-5.005c8.938-22.842-2.98-33.767-2.98-33.767-18.869 8.938-20.194 26.484-20.194 26.484-29.794-8.935-29.464 16.883-29.464 16.883a31.175 31.175 0 0 1 18.81-3.828 6.652 6.652 0 0 1 4.64 10.675 18.644 18.644 0 0 1 -8.406 6.065 21.019 21.019 0 0 1 -9.711 1.062c-11.391-1.35-18.389.993-22.373 3.361.09-37.688.392-72.326.553-88.731a8.215 8.215 0 0 1 9.223-8.087c29.376 3.744 30.264-21.578 30.264-21.578-22.353-9.58-39.383-1.065-39.383-1.065a35.792 35.792 0 0 0 -9.048-35.126c-21.289 10.644-16.5 36.191-16.5 36.191-21.288-10.645-38.851 0-38.851 0 3.8 19.358 26.27 20.578 38.85 19.686a8.233 8.233 0 0 1 8.836 7.965c1.015 36.062-.111 93.085-1.315 136.709-6.2-9.034-20.875-15.959-20.875-15.959-6.435-3.217-11.541-8.468-15.09-13.016a8.046 8.046 0 0 1 2.7-12.114c24.962-12.913 15.368-43.066 15.368-43.066s-2.318 6.29-12.58 10.925-15.9 15.228-15.9 15.228c.987-31.449-26.147-38.4-26.147-38.4-12.58 23.173-1.325 44.36-1.325 44.36-24.828-.331-30.125 17.214-30.125 17.214a35.4 35.4 0 0 0 10.983 7.129 27.109 27.109 0 0 0 22.318-1.09 33.764 33.764 0 0 1 9.159-3.048 7.991 7.991 0 0 1 8.383 4.15 69.31 69.31 0 0 0 8.685 12.43 63.374 63.374 0 0 0 16.335 13.166 74.066 74.066 0 0 1 16.622 13.311 37.921 37.921 0 0 1 10.308 27.337c-.469 14.079-.805 22.81-.805 22.81h20.071c-.479-19.873-.683-45.662-.734-72.232a21.559 21.559 0 0 1 12.809-19.793 63.643 63.643 0 0 1 14.507-4.335c14.348-2.122 22.281-10.227 26.285-16.22a6.646 6.646 0 0 1 9.365-1.65c20.046 14.183 35.194-9.442 35.194-9.442a21.988 21.988 0 0 1 -2.785-.357z" fill="#abd37d"/><path d="m75.1 192.115a26.673 26.673 0 0 1 -13.882-20.215 43.784 43.784 0 0 0 -7.837 2.122c2.473 15.067 13 19.6 20.824 20.847a1.466 1.466 0 0 0 .895-2.754z" fill="#a7cad8"/><path d="m134.7 174.194c3.838-3.432 7.817-9.53 7.325-19.927-.562-.168-1.133-.319-1.718-.44a40.905 40.905 0 0 0 -6.873-.85s1.808 11.063-1.4 19.289a1.693 1.693 0 0 0 2.666 1.928z" fill="#a7cad8"/><path d="m218.155 217.371a22.3 22.3 0 0 1 -4.421-.079c-11.391-1.35-18.389.993-22.373 3.361v34.718a21.548 21.548 0 0 1 12.8-19.413 63.643 63.643 0 0 1 14.507-4.335c14.348-2.122 22.281-10.227 26.285-16.22-.004-.003-9.247 9.547-26.798 1.968z" fill="#8eb260"/><g fill="#a7cad8"><path d="m164.3 58.953a1.363 1.363 0 0 0 2.659-.251c.826-6.647-.879-17.1-14.136-28.453a42.6 42.6 0 0 0 -1.915 5.383l-1.508 8.238s12.092 5.052 14.9 15.083z"/><path d="m215.714 41.935a31.135 31.135 0 0 0 -1.042-6.967c-14.737 4.052-20.213 11.4-22.216 16.811a1.2 1.2 0 0 0 2.028 1.2c6.976-7.67 21.23-7.854 21.23-7.854z"/><path d="m255.8 143.454a24.918 24.918 0 0 0 -12.471-13.3 35.483 35.483 0 0 0 -3.906 7.981 23.112 23.112 0 0 1 13.911 6.88 1.482 1.482 0 0 0 2.466-1.561z"/><path d="m294.7 157.311c-9.9-.529-16.214 2.994-19.946 6.392a1.751 1.751 0 0 0 1.68 2.979 28.128 28.128 0 0 1 13.07-1.2 40.821 40.821 0 0 0 5.196-8.171z"/></g></svg>