<svg id="fill" height="512" viewBox="0 0 340 340" width="512" xmlns="http://www.w3.org/2000/svg"><path d="m229.504 32.42h18.063v161.395h-18.063z" fill="#a7cad8" transform="matrix(0 1 -1 0 351.653 -125.418)"/><path d="m229.504 67.799h18.063v161.395h-18.063z" fill="#a7cad8" transform="matrix(0 1 -1 0 387.033 -90.039)"/><g fill="#dbeefc"><path d="m157.839 104.073h18.063v70.771h-18.063z"/><path d="m229.691 104.073h18.063v70.771h-18.063z"/><path d="m301.212 104.073h18.021v70.771h-18.021z"/></g><path d="m140.224 216.851v-120.237h-34.112a21.928 21.928 0 0 0 -18.546 10.228l-23.92 37.916-19.373 3.564a27.929 27.929 0 0 0 -22.773 25.164l-1.8 21.677v21.688z" fill="#ea5e5e"/><path d="m17.743 194.194h43.607a0 0 0 0 1 0 0v22.657a0 0 0 0 1 0 0h-43.607a8.1 8.1 0 0 1 -8.1-8.1v-6.46a8.1 8.1 0 0 1 8.1-8.097z" fill="#dbeefc"/><path d="m123.148 113.219v31.216h-36.671l12.98-24.758a12.055 12.055 0 0 1 10.677-6.458z" fill="#2b313f"/><circle cx="70.755" cy="216.851" fill="#2b313f" r="26.535"/><circle cx="70.755" cy="216.851" fill="#d7e4f2" r="10.379"/><path d="m140.224 174.844h179.009v42.007h-179.009z" fill="#ea5e5e"/><circle cx="247.174" cy="216.851" fill="#2b313f" r="26.535"/><circle cx="247.174" cy="216.851" fill="#d7e4f2" r="10.379"/><path d="m298.893 194.194h31.463a0 0 0 0 1 0 0v22.657a0 0 0 0 1 0 0h-31.463a8.1 8.1 0 0 1 -8.1-8.1v-6.46a8.1 8.1 0 0 1 8.1-8.097z" fill="#dbeefc" transform="matrix(-1 0 0 -1 621.149 411.046)"/><path d="m140.224 174.844h12.33v42.007h-12.33z" fill="#c13d3d"/><path d="m122.148 166.671h-6.394a4 4 0 0 1 0-8h6.394a4 4 0 0 1 0 8z" fill="#2b313f"/></svg>