<svg id="fill" height="512" viewBox="0 0 340 340" width="512" xmlns="http://www.w3.org/2000/svg"><path d="m10 112.491h320v33.474h-320z" fill="#c13d3d"/><path d="m10 210.433h320v33.474h-320z" fill="#c13d3d"/><path d="m76.888 75.564-14.637-15.764-14.637 15.764a21.07 21.07 0 0 0 -5.514 14.323v190.313h40.3v-190.313a21.074 21.074 0 0 0 -5.512-14.323z" fill="#ea5e5e"/><path d="m150.034 75.564-14.634-15.764-14.64 15.764a21.074 21.074 0 0 0 -5.509 14.323v190.313h40.293v-190.313a21.07 21.07 0 0 0 -5.51-14.323z" fill="#ea5e5e"/><path d="m223.181 75.564-14.637-15.764-14.637 15.764a21.07 21.07 0 0 0 -5.51 14.323v190.313h40.293v-190.313a21.074 21.074 0 0 0 -5.509-14.323z" fill="#ea5e5e"/><path d="m296.327 75.564-14.637-15.764-14.637 15.764a21.074 21.074 0 0 0 -5.509 14.323v190.313h40.293v-190.313a21.07 21.07 0 0 0 -5.51-14.323z" fill="#ea5e5e"/><g fill="#c13d3d"><path d="m62.25 132.229a4.049 4.049 0 0 1 -.78-.08 3.832 3.832 0 0 1 -.75-.23 3.766 3.766 0 0 1 -.69-.37 3.97 3.97 0 0 1 -.61-.49 4.137 4.137 0 0 1 -.49-.609 4.033 4.033 0 0 1 -.6-1.44 4.14 4.14 0 0 1 -.08-.781 4.029 4.029 0 0 1 1.17-2.83 5.011 5.011 0 0 1 .61-.5 4.671 4.671 0 0 1 .69-.37 3.878 3.878 0 0 1 .75-.22 3.762 3.762 0 0 1 1.56 0 3.878 3.878 0 0 1 .75.22 4.671 4.671 0 0 1 .69.37 5.011 5.011 0 0 1 .61.5 4.048 4.048 0 0 1 1.17 2.83 3.453 3.453 0 0 1 -.08.781 3.875 3.875 0 0 1 -.23.75 4.619 4.619 0 0 1 -.36.69 4.984 4.984 0 0 1 -.5.609 3.97 3.97 0 0 1 -.61.49 3.766 3.766 0 0 1 -.69.37 3.832 3.832 0 0 1 -.75.23 4.049 4.049 0 0 1 -.78.08z"/><path d="m62.25 231.229a4.049 4.049 0 0 1 -.78-.08 3.832 3.832 0 0 1 -.75-.23 3.766 3.766 0 0 1 -.69-.37 3.97 3.97 0 0 1 -.61-.49 4.137 4.137 0 0 1 -.49-.609 3.9 3.9 0 0 1 -.37-.69 4.076 4.076 0 0 1 -.23-.75 4.14 4.14 0 0 1 -.08-.781 4.045 4.045 0 0 1 .08-.779 4.033 4.033 0 0 1 .6-1.44 4.051 4.051 0 0 1 .49-.611 5.011 5.011 0 0 1 .61-.5 4.615 4.615 0 0 1 .69-.36 3.832 3.832 0 0 1 .75-.23 3.762 3.762 0 0 1 1.56 0 3.832 3.832 0 0 1 .75.23 4.615 4.615 0 0 1 .69.36 5.011 5.011 0 0 1 .61.5 4.857 4.857 0 0 1 .5.611 4.432 4.432 0 0 1 .36.69 3.791 3.791 0 0 1 .23.75 3.384 3.384 0 0 1 .08.779 3.453 3.453 0 0 1 -.08.781 4.076 4.076 0 0 1 -.23.75 4.619 4.619 0 0 1 -.36.69 4.984 4.984 0 0 1 -.5.609 3.97 3.97 0 0 1 -.61.49 3.766 3.766 0 0 1 -.69.37 3.832 3.832 0 0 1 -.75.23 4.049 4.049 0 0 1 -.78.08z"/><path d="m135.4 132.229a3.995 3.995 0 0 1 -4-4 4.006 4.006 0 0 1 1.17-2.83 4.348 4.348 0 0 1 .61-.5 5.149 5.149 0 0 1 .69-.37 3.878 3.878 0 0 1 .75-.22 3.762 3.762 0 0 1 1.56 0 4.1 4.1 0 0 1 .75.22 5.843 5.843 0 0 1 .69.37 5.011 5.011 0 0 1 .61.5 3.607 3.607 0 0 1 .49.611 3.491 3.491 0 0 1 .37.69 3.791 3.791 0 0 1 .23.75 3.992 3.992 0 0 1 -3.92 4.779z"/><path d="m135.4 231.229a3.995 3.995 0 0 1 -4-4 3.436 3.436 0 0 1 .08-.779 3.769 3.769 0 0 1 .22-.75 4.1 4.1 0 0 1 .37-.69 3.661 3.661 0 0 1 .5-.611 4.348 4.348 0 0 1 .61-.5 5.149 5.149 0 0 1 .69-.37 3.878 3.878 0 0 1 .75-.22 3.762 3.762 0 0 1 1.56 0 4.1 4.1 0 0 1 .75.22 5.843 5.843 0 0 1 .69.37 5.011 5.011 0 0 1 .61.5 3.607 3.607 0 0 1 .49.611 3.491 3.491 0 0 1 .37.69 3.791 3.791 0 0 1 .23.75 3.842 3.842 0 0 1 0 1.56 4.033 4.033 0 0 1 -.6 1.44 4.137 4.137 0 0 1 -.49.609 4.065 4.065 0 0 1 -2.83 1.17z"/><path d="m208.54 132.229a4.049 4.049 0 0 1 -.78-.08 4.3 4.3 0 0 1 -.75-.23 3.807 3.807 0 0 1 -.691-.37 3.463 3.463 0 0 1 -.6-.49 4.031 4.031 0 0 1 -1.18-2.83 3.967 3.967 0 0 1 .08-.779 3.791 3.791 0 0 1 .23-.75 3.44 3.44 0 0 1 .37-.69 3.188 3.188 0 0 1 .5-.611 4 4 0 0 1 5.65 0 3.661 3.661 0 0 1 .5.611 4.1 4.1 0 0 1 .37.69 4.6 4.6 0 0 1 .23.75 4.072 4.072 0 0 1 -1.1 3.609 3.62 3.62 0 0 1 -.61.49 3.448 3.448 0 0 1 -.691.37 3.791 3.791 0 0 1 -.75.23 3.959 3.959 0 0 1 -.778.08z"/><path d="m208.54 231.229a4.021 4.021 0 0 1 -1.53-.31 3.807 3.807 0 0 1 -.691-.37 3.463 3.463 0 0 1 -.6-.49 3.59 3.59 0 0 1 -.5-.609 3.833 3.833 0 0 1 -.37-.69 3.875 3.875 0 0 1 -.23-.75 4.059 4.059 0 0 1 -.08-.781 4.015 4.015 0 0 1 1.18-2.83 4.245 4.245 0 0 1 .6-.5 4.732 4.732 0 0 1 .691-.37 4.1 4.1 0 0 1 .75-.22 3.757 3.757 0 0 1 1.559 0 3.837 3.837 0 0 1 .75.22 4.187 4.187 0 0 1 .691.37 4.466 4.466 0 0 1 .61.5 4.006 4.006 0 0 1 1.17 2.83 4.125 4.125 0 0 1 -.07.781 4.033 4.033 0 0 1 -.6 1.44 4.206 4.206 0 0 1 -.5.609 3.62 3.62 0 0 1 -.61.49 3.448 3.448 0 0 1 -.691.37 3.791 3.791 0 0 1 -.75.23 3.959 3.959 0 0 1 -.779.08z"/><path d="m281.689 132.229a4.047 4.047 0 0 1 -.779-.08 3.791 3.791 0 0 1 -.75-.23 3.734 3.734 0 0 1 -.69-.37 4.026 4.026 0 0 1 -.611-.49 5.176 5.176 0 0 1 -.5-.609 4.708 4.708 0 0 1 -.359-.69 3.741 3.741 0 0 1 -.23-.75 4.141 4.141 0 0 1 -.081-.781 4.045 4.045 0 0 1 .081-.779 3.663 3.663 0 0 1 .23-.75 4.132 4.132 0 0 1 .359-.69 4.37 4.37 0 0 1 .5-.611 5.1 5.1 0 0 1 .611-.5 5.765 5.765 0 0 1 .69-.37 3.837 3.837 0 0 1 .75-.22 4.013 4.013 0 0 1 3.61 1.09 4.233 4.233 0 0 1 .5.611 4.063 4.063 0 0 1 .36.69 3.789 3.789 0 0 1 .229.75 3.967 3.967 0 0 1 .08.779 3.993 3.993 0 0 1 -4 4z"/><path d="m281.689 231.229a4.047 4.047 0 0 1 -.779-.08 3.791 3.791 0 0 1 -.75-.23 3.734 3.734 0 0 1 -.69-.37 4.026 4.026 0 0 1 -.611-.49 3.963 3.963 0 0 1 -1.089-3.609 3.663 3.663 0 0 1 .23-.75 4.132 4.132 0 0 1 .359-.69 4.37 4.37 0 0 1 .5-.611 5.1 5.1 0 0 1 .611-.5 4.621 4.621 0 0 1 .69-.37 3.837 3.837 0 0 1 .75-.22 4 4 0 1 1 .779 7.92z"/></g></svg>