<svg id="fill" height="512" viewBox="0 0 340 340" width="512" xmlns="http://www.w3.org/2000/svg"><path d="m306.754 14.17c-25.66-6.6-38.123 11-38.123 11-28.592-20.528-168.67-20.528-197.262 0 0 0-12.463-17.6-38.123-11 0 0-10.263 24.926 21.994 40.322 0 0-6.879 158.231 10.017 236.776a17.027 17.027 0 0 1 -3.342 14.147c-1.961 2.474-4.358 5.325-6.941 8.017a9.89 9.89 0 0 0 6.286 16.685c7.284.593 17.119-1.087 29.9-8.035 51.236 11.128 103.857 10.593 157.674 0 12.784 6.948 22.619 8.628 29.9 8.035a9.89 9.89 0 0 0 6.286-16.685c-2.583-2.692-4.98-5.543-6.941-8.017a17.027 17.027 0 0 1 -3.342-14.147c16.9-78.545 10.017-236.776 10.017-236.776 32.263-15.392 22-40.322 22-40.322z" fill="#f4b1a4"/><circle cx="167.089" cy="161.602" fill="#fff" r="71.145"/><path d="m185.987 165.266s-4.084-26.322 27.227-25.981c0 0 6.535 30.688-27.227 25.981z" fill="#8eb260"/><path d="m122.013 143.763s27.855-4.457 32.684 25.627c.003 0-30.455 11.142-32.684-25.627z" fill="#8eb260"/><path d="m170 146.923s-13.208-5.968-13.208-22.627c0-14.666 11.453-19.275 11.453-19.275s28.772 16.761 1.755 41.902z" fill="#abd37d"/><path d="m170 189.082a4 4 0 0 1 -4-4v-1.693a17.682 17.682 0 0 1 7.747-14.637l19.771-13.765a4 4 0 1 1 4.5 6.615l-19.771 13.765a9.694 9.694 0 0 0 -4.247 8.022v1.693a4 4 0 0 1 -4 4z" fill="#8eb260"/><path d="m170 194.334a4 4 0 0 1 -4-4v-3.2a9.762 9.762 0 0 0 -4.241-8.053l-19.27-13.281a4 4 0 1 1 4.525-6.6l19.27 13.281a17.765 17.765 0 0 1 7.716 14.656v3.2a4 4 0 0 1 -4 3.997z" fill="#8eb260"/><path d="m170 209.351a4 4 0 0 1 -4-4v-68.887a4 4 0 0 1 8 0v68.887a4 4 0 0 1 -4 4z" fill="#abd37d"/><path d="m188.637 203.071c-26.4-20.532-42.74 3.352-42.74 3.352-15.73-3.552-23.772 1.958-27.674 6.86a71.078 71.078 0 0 0 100.045-2.289c-10.793-18.286-29.631-7.923-29.631-7.923z" fill="#e38d76"/><g fill="#d37f75"><path d="m86.07 66.582a4 4 0 0 1 -4-4 40.152 40.152 0 0 1 2.253-13.638 4 4 0 0 1 7.444 2.933 32.787 32.787 0 0 0 -1.7 10.7 4 4 0 0 1 -3.997 4.005z"/><path d="m104.875 60.5c-.086 0-.173 0-.261-.008a4 4 0 0 1 -3.735-4.249 34.326 34.326 0 0 1 1.321-7.013 4 4 0 0 1 7.641 2.371 26.262 26.262 0 0 0 -.982 5.156 4 4 0 0 1 -3.984 3.743z"/><path d="m84.36 96.272a4 4 0 0 1 -3.978-3.636c-.283-3.1.812-9.686 1.035-10.975a4 4 0 1 1 7.883 1.359 56.1 56.1 0 0 0 -.951 8.889 4 4 0 0 1 -3.621 4.347c-.123.011-.246.016-.368.016z"/><path d="m103.978 86.337a3.513 3.513 0 0 1 -.78-.079 3.811 3.811 0 0 1 -.75-.221 4.569 4.569 0 0 1 -.689-.37 4.222 4.222 0 0 1 -.611-.5 4.419 4.419 0 0 1 -.5-.61 4.172 4.172 0 0 1 -.359-.69 3.887 3.887 0 0 1 -.231-.74 4.32 4.32 0 0 1 -.08-.79 3.917 3.917 0 0 1 1.781-3.32 3.82 3.82 0 0 1 .689-.37 3.9 3.9 0 0 1 .75-.23 4.1 4.1 0 0 1 1.561 0 3.945 3.945 0 0 1 .75.23 3.82 3.82 0 0 1 .689.37 3.94 3.94 0 0 1 .61.491 4.058 4.058 0 0 1 1.17 2.829 4.234 4.234 0 0 1 -.08.79 3.329 3.329 0 0 1 -.229.74 4.18 4.18 0 0 1 -.361.69 4.279 4.279 0 0 1 -.5.61 3.985 3.985 0 0 1 -2.83 1.17z"/><path d="m123.318 54.417a4.013 4.013 0 0 1 -4-4 4.069 4.069 0 0 1 1.17-2.83 5 5 0 0 1 .611-.5 4.478 4.478 0 0 1 .69-.36 4 4 0 1 1 1.529 7.69z"/><path d="m238.238 75.88a4.086 4.086 0 0 1 -.611-.047 4 4 0 0 1 -3.348-4.561 41.149 41.149 0 0 0 0-10.989 4 4 0 0 1 7.9-1.248 48.771 48.771 0 0 1 0 13.45 4 4 0 0 1 -3.941 3.395z"/><path d="m220.462 69.77a4.042 4.042 0 0 1 -.488-.029 4 4 0 0 1 -3.488-4.453 22.119 22.119 0 0 0 .011-5.06 4 4 0 0 1 7.92-1.132 29.613 29.613 0 0 1 .011 7.157 4 4 0 0 1 -3.966 3.517z"/><path d="m90.955 275.769a4 4 0 0 1 -3.72-2.528 40.15 40.15 0 0 1 -2.254-13.641 4 4 0 0 1 8 0 32.752 32.752 0 0 0 1.692 10.7 4 4 0 0 1 -3.718 5.473z"/><path d="m107.781 272.726a4 4 0 0 1 -3.816-2.81 34.294 34.294 0 0 1 -1.326-7.014 4 4 0 1 1 7.984-.513 26.277 26.277 0 0 0 .982 5.155 4 4 0 0 1 -3.824 5.182z"/><path d="m123.089 269.687a4.057 4.057 0 0 1 -.781-.08 3.875 3.875 0 0 1 -.75-.23 3.561 3.561 0 0 1 -.689-.369 3.614 3.614 0 0 1 -.61-.491 4.036 4.036 0 0 1 -.5-.61 4.528 4.528 0 0 1 -.37-.689 3.849 3.849 0 0 1 -.22-.75 3.4 3.4 0 0 1 -.08-.781 4.006 4.006 0 0 1 1.17-2.83 4.3 4.3 0 0 1 .61-.5 3.525 3.525 0 0 1 .689-.36 3.337 3.337 0 0 1 .75-.23 3.733 3.733 0 0 1 1.561 0 3.468 3.468 0 0 1 .75.23 3.833 3.833 0 0 1 .689.36 5.2 5.2 0 0 1 .611.5 4.033 4.033 0 0 1 1.17 2.83 4.233 4.233 0 0 1 -.08.781 4.044 4.044 0 0 1 -.6 1.439 4.086 4.086 0 0 1 -.489.61 4.226 4.226 0 0 1 -.611.491 3.878 3.878 0 0 1 -.689.369 4.053 4.053 0 0 1 -.75.23 4.138 4.138 0 0 1 -.781.08z"/><path d="m101.522 299.514a4 4 0 0 1 -3.478-2.022 34.364 34.364 0 0 1 -2.793-6.571 4 4 0 1 1 7.691-2.2 26.239 26.239 0 0 0 2.058 4.821 4 4 0 0 1 -3.479 5.972z"/><path d="m115.818 293.277a3.906 3.906 0 0 1 -3.319-1.78 4.059 4.059 0 0 1 -.6-1.44 4.213 4.213 0 0 1 -.08-.78 4.127 4.127 0 0 1 .08-.78 3.768 3.768 0 0 1 .231-.75 3.5 3.5 0 0 1 .37-.69 3.634 3.634 0 0 1 .489-.61 5 5 0 0 1 .611-.5 4.621 4.621 0 0 1 .69-.37 4 4 0 0 1 .75-.22 3.771 3.771 0 0 1 1.569 0 3.954 3.954 0 0 1 .741.22 3.845 3.845 0 0 1 .69.37 4.215 4.215 0 0 1 .609.5 4.021 4.021 0 0 1 1.17 2.83 3.388 3.388 0 0 1 -.08.78 3.742 3.742 0 0 1 -.22.75 4.406 4.406 0 0 1 -.37.69 4.679 4.679 0 0 1 -.5.61 4.027 4.027 0 0 1 -2.831 1.17z"/><path d="m234.74 297.225a4 4 0 0 1 -3.847-5.1 32.792 32.792 0 0 0 .684-10.816 4 4 0 1 1 7.965-.752 40.166 40.166 0 0 1 -.963 13.788 4 4 0 0 1 -3.839 2.88z"/><path d="m217.7 295.778a4 4 0 0 1 -3.919-4.821 26.31 26.31 0 0 0 .494-5.224 4 4 0 1 1 8-.24 34.27 34.27 0 0 1 -.661 7.109 4 4 0 0 1 -3.914 3.176z"/><path d="m202.179 294.187a4 4 0 0 1 -2.83-6.83 4.3 4.3 0 0 1 .61-.5 3.263 3.263 0 0 1 .689-.36 3.337 3.337 0 0 1 .75-.23 3.733 3.733 0 0 1 1.561 0 3.468 3.468 0 0 1 .75.23 3.833 3.833 0 0 1 .689.36 4.333 4.333 0 0 1 .6.5 3.984 3.984 0 0 1 0 5.66 3.627 3.627 0 0 1 -.6.491 3.878 3.878 0 0 1 -.689.369 4.053 4.053 0 0 1 -.75.23 4.146 4.146 0 0 1 -.78.08z"/><path d="m55.24 54.492s.222-8.251 4.736-14.946a2.147 2.147 0 0 0 -2.74-3.1c-3.815 1.839-8.329 5.391-11.778 12.211a57.556 57.556 0 0 0 9.782 5.835z"/><path d="m281.44 36.136a2 2 0 0 0 -2.625 2.828 42.134 42.134 0 0 1 5.945 15.528 57.922 57.922 0 0 0 9.5-5.629 31.3 31.3 0 0 0 -12.82-12.727z"/><path d="m77.253 312.682a2 2 0 0 0 -3.366 1.934 28.187 28.187 0 0 0 7.058 12.184 81.435 81.435 0 0 0 10.218-4.715s-8.246-3.265-13.91-9.403z"/><path d="m265.776 314.942a2.1 2.1 0 0 0 -3.514-1.988c-5.394 5.455-13.425 9.128-13.425 9.128a81.518 81.518 0 0 0 10.168 4.7 25.607 25.607 0 0 0 6.771-11.84z"/></g></svg>