<svg id="fill" height="512" viewBox="0 0 340 340" width="512" xmlns="http://www.w3.org/2000/svg"><path d="m261.089 190.359s-10.125 39.787-5.4 78.032a33.518 33.518 0 0 0 3.664 11.64c2.434 4.577 5.814 11.787 6.686 17.947h-29.518l-13.082-52.42 9.891-55.2z" fill="#ccc"/><path d="m116.533 201.46a110.6 110.6 0 0 0 -11.607 12.524 74.343 74.343 0 0 0 -15.565 55.684c1.391 11.253 7.4 20.245 8.365 28.31h-30.763l-6.763-50.328 11.27-49.288 23.658-11.547z" fill="#ccc"/><path d="m64.359 81.211s-33.035 2.381-39.634 39.662c-.216 1.223-.348 2.456-.443 3.694-.717 9.336-3.709 51.167-2.117 79.406a32.531 32.531 0 0 1 -2 13.365 75.626 75.626 0 0 1 -8.109 15.862 7.285 7.285 0 0 0 5.737 11.418c.323 0 .651 0 .985-.012a18.4 18.4 0 0 0 15.083-9.653 25.644 25.644 0 0 0 2.681-18.762 45.806 45.806 0 0 1 -1.329-10.111c-.083-11.649.729-36.558 8.568-49.008z" fill="#ccc"/><path d="m285.788 145.273v-38.589l-38.615-40.714-12.038-4.249s-27.526-4.286-63.161 2.312c-5.964 1.105-16.126 4.126-29.881 3.042-14.754-1.163-44.012-5.222-59.547-.043 0 0-30.33 8.637-41.107 48.025a92.662 92.662 0 0 0 -2.761 32.443c.994 11.479 3.158 29.953 7.471 43.085a66.7 66.7 0 0 1 3.431 18.715 80.1 80.1 0 0 1 -5.865 33.133 21.876 21.876 0 0 0 -1.156 13.321 169.548 169.548 0 0 1 4.029 26.094s4.388 6.215 15.2 6.215 13.262-6.215 13.262-6.215a69.787 69.787 0 0 0 -3.646-8.069 29.985 29.985 0 0 1 -3.529-15.04c.374-11.365 2.829-31.1 14.108-48.113a20.566 20.566 0 0 1 11.921-8.54c-.063 4.379 1.846 11.321 11.923 18.42a8.089 8.089 0 0 1 2.936 3.777l3.027 8.124a5.548 5.548 0 0 0 5.2 3.611h.263a5.548 5.548 0 0 0 5.484-4.7l.145-.942a6.044 6.044 0 0 1 5.716-5.139 40.087 40.087 0 0 0 4.325-.385 6.125 6.125 0 0 1 6.321 3.068l.034.062a5.547 5.547 0 0 0 7.071 2.423 5.547 5.547 0 0 0 3.32-5.593l-.167-1.837a15.777 15.777 0 0 1 2.65-10.261 24.117 24.117 0 0 0 3.779-8.99c5.608-.284 13.016-.482 20.536-.161a31.831 31.831 0 0 1 24.139 12.7 57.068 57.068 0 0 1 11.519 29.56 195.959 195.959 0 0 1 -.506 36.03s5.278 6.214 15.443 6.214 14.415-6.215 14.415-6.215a47.5 47.5 0 0 0 -3.277-7.652 29.219 29.219 0 0 1 -3.445-15.413c.7-13.685 2.872-38 9.585-46.955a41.381 41.381 0 0 0 24.1-23.457 57.96 57.96 0 0 1 7.954-13.942c4.684-5.974 10.491-16.178 9.394-29.16z" fill="#f2f2f2"/><path d="m285.788 106.684-38.615-40.714-12.038-4.249a162.406 162.406 0 0 0 -21.826-1.363 27.57 27.57 0 0 0 19.7 24.293 47.314 47.314 0 0 0 15.942 34.257l.284.25a4.932 4.932 0 0 1 1.583 3.347l.013.173.018.174 1.223 11.862a27.811 27.811 0 0 0 27.609 25.461h4.378a38.067 38.067 0 0 0 1.725-14.9z" fill="#ccc"/><path d="m118.344 104.913a190.784 190.784 0 0 1 4.493-39.575c-14.026-1.126-30.107-1.7-40.291 1.694 0 0-30.33 8.637-41.107 48.025a92.411 92.411 0 0 0 -2.825 31.476c16.863 9.6 30.606 1.462 38.154-5.406a35.375 35.375 0 0 1 16.165-8.252c10.346-2.314 25.167-8.948 25.411-27.962z" fill="#3d4554"/><path d="m236.521 297.978h29.517c-.764-5.4-3.452-11.6-5.743-16.13h-27.795z" fill="#2b313f"/><path d="m247.173 65.97-12.038-4.249s-24.192-3.767-56.578 1.2c.549 20.231 10.415 77.3 107.231 50.841v-7.077z" fill="#3d4554"/><path d="m235.036 61.706-.268-.038-.04-.006-.444-.06h-.016a173.381 173.381 0 0 0 -20.959-1.242 27.57 27.57 0 0 0 19.7 24.293 47.314 47.314 0 0 0 15.942 34.257l.284.25a4.425 4.425 0 0 1 .888 1.124 189.18 189.18 0 0 0 35.661-6.521v-7.077l-38.611-40.716-12.038-4.249-.1-.014z" fill="#2b313f"/><path d="m304.655 60.618a63.887 63.887 0 0 0 -8.514-8.427 26.936 26.936 0 0 0 -37.214 2.731 71.025 71.025 0 0 0 -6.186 8.021s-10.322-15.95-22.72-17.113a41.28 41.28 0 0 0 -3.328 5.915 15.465 15.465 0 0 0 14.055 21.991 33.871 33.871 0 0 0 4.632-.333s-.461 4.727-.38 10.597a35.266 35.266 0 0 0 11.9 25.911l.233.2a16.9 16.9 0 0 1 5.661 11.5l.422 5.706q22.226 13.594 44.451-.039l.625-8.962a17.29 17.29 0 0 1 1.679-6.29 78.018 78.018 0 0 0 3.119-7.421 35 35 0 0 0 1.627-16.805c-.624-4.307-1.7-9.673-3.476-13.626a31.871 31.871 0 0 0 3.643-.592c12.68-2.717 18.586-17.5 10.945-27.974a18.966 18.966 0 0 0 -3.353-3.59s-12.01 6.982-17.821 18.6z" fill="#f2f2f2"/><path d="m66.963 297.978h30.763c-.587-4.928-3.059-10.2-5.212-16.13h-27.714z" fill="#2b313f"/><path d="m292.728 127.487a15.888 15.888 0 0 1 -12.918.321c-4.5-1.923-10.558-3.252-16.248-.481l.466 6.305a15.7 15.7 0 0 0 15.657 14.543h12.229a15.7 15.7 0 0 0 15.661-14.607l.438-6.28c-4.076-1.448-9.73-2.388-15.285.199z" fill="#2b313f"/><g fill="#3d4554"><path d="m46.8 288.074a9.873 9.873 0 0 0 9.861 9.9h22.345a63.188 63.188 0 0 0 -3.957-16.13h-28.464c.133 2.09.215 4.176.215 6.23z"/><path d="m211.04 286.883a9.859 9.859 0 0 0 9.785 11.1h23.515a57.1 57.1 0 0 0 -2.866-16.13h-29.86c-.168 1.647-.356 3.321-.574 5.03z"/><path d="m151.8 124.157c6.349-2.4 15.62-3.7 28.432-.607a25.054 25.054 0 0 1 18.318 16.837c1.674 5.575 1.695 12.72-2.394 21.4a13.542 13.542 0 0 1 -1.6 2.559 32.383 32.383 0 0 1 -8.024 7.409 14.1 14.1 0 0 1 -14.62-.051l-2.736-1.639a14.149 14.149 0 0 0 -7.011-2.028c-7.894-.137-26.452-2.941-23.689-26.589a21 21 0 0 1 13.324-17.291z"/><path d="m314.7 87.685a54.573 54.573 0 0 0 -3.459-13.507 31.871 31.871 0 0 0 3.643-.592c12.68-2.717 18.586-17.5 10.945-27.974a18.966 18.966 0 0 0 -3.353-3.59s-12.01 6.974-17.821 18.6a61.008 61.008 0 0 0 -6.2-6.422l-.125.006a19 19 0 0 0 -17.819 17.211q-.192 2.041-.194 4.134a43.331 43.331 0 0 0 4.866 20.009 18.86 18.86 0 0 0 7.661 7.974c4.677 2.535 11.077 4.2 19.539 2.962.275-.7.549-1.432.813-2.185a34.915 34.915 0 0 0 1.504-16.626z"/></g><path d="m36.542 216.193a49.62 49.62 0 0 1 -1.225-7.666 14.737 14.737 0 0 1 -2.378 2.235 4.846 4.846 0 0 0 -1.814 2.956l-1.154 5.728a.539.539 0 0 1 -1.061-.03l-2.2-15.259a.539.539 0 0 0 -1.064-.012l-1.018 6.055a1.919 1.919 0 0 1 -2.691 1.435l-.207-.1a31.485 31.485 0 0 1 -1.568 5.8 75.62 75.62 0 0 1 -8.106 15.865 7.3 7.3 0 0 0 5.835 11.42c.345 0 .7 0 1.053-.02a18.35 18.35 0 0 0 14.8-9.445 25.665 25.665 0 0 0 2.798-18.962z" fill="#2b313f"/><path d="m107.82 200.642a80.515 80.515 0 0 0 -13.92 1.444 16.563 16.563 0 0 0 2.231 8.312 37.93 37.93 0 0 1 12.074-7.9.964.964 0 0 0 -.385-1.856z" fill="#ccc"/><path d="m152.15 212.71c.093-.138.187-.289.281-.433a27.585 27.585 0 0 0 3.257-7.459c.087-.361.172-.723.241-1.1l-13.548-.015a1.009 1.009 0 0 0 -.328 1.965c4.193 1.442 8.81 3.732 10.097 7.042z" fill="#ccc"/><path d="m273.226 93.077a4.048 4.048 0 0 1 -.78-.07 4.656 4.656 0 0 1 -.75-.229 4.575 4.575 0 0 1 -.689-.371 3.744 3.744 0 0 1 -.611-.5 4.351 4.351 0 0 1 -.5-.609 4.212 4.212 0 0 1 -.359-.69 3.741 3.741 0 0 1 -.23-.75 4.049 4.049 0 0 1 -.081-.781 4.129 4.129 0 0 1 .081-.779 3.906 3.906 0 0 1 .23-.75 4.561 4.561 0 0 1 .359-.69 5.028 5.028 0 0 1 .5-.61 3.745 3.745 0 0 1 .611-.491 3.883 3.883 0 0 1 .689-.37 3.973 3.973 0 0 1 .75-.23 4.139 4.139 0 0 1 1.561 0 4.019 4.019 0 0 1 .75.23 3.883 3.883 0 0 1 .689.37 4.12 4.12 0 0 1 .611.491 4.936 4.936 0 0 1 .5.61 4.66 4.66 0 0 1 .36.69 4.049 4.049 0 0 1 .229.75 4.127 4.127 0 0 1 .08.779 4.049 4.049 0 0 1 -.08.781 3.872 3.872 0 0 1 -.229.75 3.8 3.8 0 0 1 -.86 1.3 4.117 4.117 0 0 1 -.611.5 4.575 4.575 0 0 1 -.689.371 4.719 4.719 0 0 1 -.75.229 4.044 4.044 0 0 1 -.781.069z" fill="#2b313f"/><path d="m295.467 93.077a3.462 3.462 0 0 1 -.79-.079 4.339 4.339 0 0 1 -.75-.22 4.6 4.6 0 0 1 -.691-.371 4.022 4.022 0 0 1 -.6-.5 3.138 3.138 0 0 1 -.5-.609 3.552 3.552 0 0 1 -.371-.69 3.8 3.8 0 0 1 -.3-1.531 3.982 3.982 0 0 1 1.769-3.32 3.9 3.9 0 0 1 .691-.37 4.478 4.478 0 0 1 .75-.23 4.058 4.058 0 0 1 3.61 1.091 4.172 4.172 0 0 1 .5.61 4.532 4.532 0 0 1 .37.69 4.99 4.99 0 0 1 .23.75 4.211 4.211 0 0 1 .08.779 4.129 4.129 0 0 1 -.08.781 4.722 4.722 0 0 1 -.23.75 4.183 4.183 0 0 1 -.37.69 3.7 3.7 0 0 1 -.5.609 3.983 3.983 0 0 1 -2.818 1.17z" fill="#f2f2f2"/></svg>