<svg id="fill" height="512" viewBox="0 0 340 340" width="512" xmlns="http://www.w3.org/2000/svg"><g fill="#2b313f"><path d="m270.9 133.435v-49.279h-8.74a13.5 13.5 0 0 0 -12.989 9.844l-3.6 12.765a10.653 10.653 0 0 1 -8.78 7.72c-8.076 1.076-20.531 5.537-20 22.845 14.135-4.79 32.276-7.509 54.109-3.895z"/><path d="m199.045 109.941-13.26-14.989a4 4 0 1 0 -5.992 5.3l4.582 5.179-16.708 17.8a4 4 0 0 0 5.849 5.459l16.184-17.24 3.354 3.792a4 4 0 0 0 5.993-5.3z"/><path d="m156.058 108.479a213.692 213.692 0 0 0 -4.509 50.281h29.539a67.864 67.864 0 0 1 10-8.393c-7.754-23.179-26.347-36.667-35.03-41.888z"/><path d="m86.725 63.816 12.1-11.294 13.432 18.465a34.076 34.076 0 0 1 6.52 20.047v38.529l-18.338 7.762 1.961-42.571a22.529 22.529 0 0 0 -3.92-13.773z"/></g><path d="m309.645 145.035-6.071-6.035a23.515 23.515 0 0 1 -6.9-15.361c-.967-17.235-3.088-55.342-4.321-79.706a17.065 17.065 0 0 0 -17.05-16.2h-93.926a31.989 31.989 0 0 0 -29.41 19.348c-6.738 15.707-15.612 39.448-20.708 65.426a14.132 14.132 0 0 1 -10.33 10.96c-10.383 2.687-28.69 7.623-47.842 13.726l-45.658 43.137a591.4 591.4 0 0 0 -3.108 73.835h285.779l4.748-52.693v-43.938a17.628 17.628 0 0 0 -5.203-12.499zm-46.636-12.654c-41.8-4.237-68.707 14.708-78.145 22.833a14.726 14.726 0 0 1 -9.616 3.546h-14.487a9.288 9.288 0 0 1 -9.3-9.371c.613-42.613 14.559-77.312 21.449-91.92a12.806 12.806 0 0 1 11.743-7.361l75.159.955a11.231 11.231 0 0 1 11.088 11.229v63.027a7.128 7.128 0 0 1 -7.891 7.062z" fill="#ef6060"/><path d="m311.3 146.966c-4.612 4.921-11.74 5.727-18.372 5.047a45 45 0 0 1 -10.622-2.468q-3.014-1.083-6.122-1.955a89.961 89.961 0 0 0 -113 72.391 13.11 13.11 0 0 1 -12.961 11.029h-.785a13.355 13.355 0 0 1 -10.163-4.812 59.266 59.266 0 0 0 -103.585 27.967h274.41l4.748-52.693v-43.938a17.616 17.616 0 0 0 -3.548-10.568z" fill="#d33939"/><path d="m42.052 244.015h225.312v29.295h-225.312z" fill="#aabdce"/><circle cx="251.942" cy="234.16" fill="#2b313f" r="78.111"/><circle cx="251.942" cy="234.16" fill="#d7e4f2" r="45.237"/><path d="m82.978 222.906h-57.7a10.834 10.834 0 0 0 -10.511 8.171 162.523 162.523 0 0 0 -4.8 29.818 11.786 11.786 0 0 0 11.776 12.415h61.235z" fill="#d7e4f2"/><path d="m51.839 222.906a59.263 59.263 0 0 0 -12.9 19.791 13.453 13.453 0 0 1 -12.528 8.454h-15.523c-.413 3.159-.74 6.429-.923 9.734a11.789 11.789 0 0 0 11.778 12.425h61.235v-50.4z" fill="#aabdce"/><circle cx="94.051" cy="264.514" fill="#2b313f" r="47.757"/><circle cx="94.051" cy="264.514" fill="#d7e4f2" r="24.726"/><path d="m46.485 175.715a24.943 24.943 0 0 0 17.325-15.069l9.277-23.456c-9.918 3.16-20.061 6.631-29.45 10.267a22.558 22.558 0 0 0 -14.083 17.243c-.735 4.309-1.458 9.6-2.123 15.626z" fill="#ffd98d"/><circle cx="251.942" cy="234.16" fill="#aabdce" r="9.282"/><circle cx="94.051" cy="264.514" fill="#aabdce" r="5.851"/></svg>