<svg id="flat" height="512" viewBox="0 0 340 340" width="512" xmlns="http://www.w3.org/2000/svg"><path d="m315.348 287.309a6.007 6.007 0 0 1 -2.238-.433l-34.834-14a6 6 0 0 1 -3.676-4.576l-2.588-15.436c1.305-4.466.474-9.014-2.286-13.634l-8.158-48.669a33.142 33.142 0 0 1 12.346 1.067l7.889 47.061c-1.754 5.517.008 11.13 2.812 16.771l1.26 7.54 25.237 10.144 8.972-37.988 11.679 2.758-10.575 44.778a6 6 0 0 1 -5.84 4.621z" fill="#83839b"/><path d="m272.009 252.864 12.603 2.596-3.098-18.48-12.044.74z" fill="#45455b"/><path d="m270.579 171.75-11.835 1.984 2.821 16.827 12.346 1.067z" fill="#45455b"/><path d="m302.269 161.239a110.381 110.381 0 0 0 -166.644-51.934l-22.207 116.195 39.11 38.9c7.7-1 14.829 1.123 19.744 3.276a37.014 37.014 0 0 1 9.206 5.94q.624.535 1.247 1.037a40.637 40.637 0 0 0 38.918 6.364 57.991 57.991 0 0 0 16.156-8.565c15.668-11.98 21.284-33.115 14.277-51.551-8.664-22.8-7.993-41.919-7.993-41.919z" fill="#edeff4"/><path d="m198.835 89.411a110.182 110.182 0 0 0 -34.835 5.613c-.9 4.052.261 7.708 2.732 11.113 28.246-9.089 59.281-4.68 84.771 11.2a132.758 132.758 0 0 1 31.708 27.621l8.534-4.712a110.236 110.236 0 0 0 -92.91-50.835z" fill="#f74f73"/><path d="m166.729 184.774c6.894-37.265 2.836-71.19-2.72-89.736a110 110 0 0 0 -28.384 14.266l-22.207 116.196 39.11 38.9c7.7-1 14.829 1.123 19.744 3.276a37.014 37.014 0 0 1 9.206 5.94q.624.535 1.247 1.037a40.637 40.637 0 0 0 38.918 6.364 57.991 57.991 0 0 0 16.156-8.565 43.653 43.653 0 0 0 14.067-18.652c-100.25 8.269-85.137-69.026-85.137-69.026z" fill="#b0b6cc"/><path d="m145.88 243.6a143.014 143.014 0 0 0 10.909 9.856 8.953 8.953 0 0 1 2.86 3.909 8.209 8.209 0 0 1 -.259 6.2c-.1.206-.2.414-.32.622a9.8 9.8 0 0 1 -9.273 4.762 48.493 48.493 0 0 1 -17.011-5.16c1.639-7.207 6.364-13.873 13.094-20.189z" fill="#3c3c4f"/><path d="m325.926 242.531h-.157l-83.669-1.794a25.633 25.633 0 0 1 -15.272-5.459l-15.619-12.25a6 6 0 0 1 -1.32-8.073l20.585-32.01a28.445 28.445 0 0 1 16.3-12.016l51.444-14.311a6 6 0 0 1 7.5 4.24 6.166 6.166 0 0 1 -4.353 7.343l-49.681 14.612a21.207 21.207 0 0 0 -11.664 8.584l-17.041 25.562 11.642 9.006a11.424 11.424 0 0 0 6.7 2.385l84.761 2.183a6 6 0 0 1 -.152 12z" fill="#83839b"/><circle cx="218.972" cy="167.183" fill="#b0b6cc" r="3.831"/><path d="m111.492 243.353c4.931 9.875 13.283 16.422 21.3 20.431a148.857 148.857 0 0 0 13.1-20.188 105.741 105.741 0 0 1 -16.113-20.473z" fill="#3c3c4f"/><path d="m158.205 109.334q4.213-1.811 8.531-3.2c-.83-4.124-1.754-7.852-2.727-11.1a110.4 110.4 0 0 0 -11.18 4.408l-.049.023q-1.774.815-3.515 1.69c-.11.056-.218.115-.328.171-1.066.541-2.124 1.094-3.169 1.668-.259.143-.513.3-.771.439-.9.5-1.787 1-2.666 1.529-.494.3-.977.607-1.467.909-.639.4-1.283.784-1.914 1.192q-1.683 1.089-3.325 2.237l-3.118 16.313a94.427 94.427 0 0 1 25.698-16.279z" fill="#c12140"/><path d="m110.374 53.032a124.922 124.922 0 0 0 -40.774 18.992l-23.3 21.063c-23.338 26.473-31.365 54.92-31.365 54.92a159.623 159.623 0 0 0 -6.825 49.858l3.752 30.32a117.707 117.707 0 0 0 27.272 52.277 11.325 11.325 0 0 0 10.994 3.444s58.677-31.868 79.965-99.824-8.721-127.606-8.721-127.606a11.105 11.105 0 0 0 -10.998-3.444z" fill="#f16159"/><path d="m69.605 72.03a135.719 135.719 0 0 0 -23.305 21.06c11.927 6.32 43.824 21.529 91.211 31.573a192.747 192.747 0 0 0 -3.683-29.29c-34.322-8.26-54.642-17.928-64.223-23.343z" fill="#fff"/><path d="m12.021 228.83a389.961 389.961 0 0 0 76.484 24.3 189.1 189.1 0 0 0 17.628-21.223 449.106 449.106 0 0 1 -98.026-34.042 142.319 142.319 0 0 0 3.914 30.965z" fill="#fff"/><path d="m121.367 56.476a11.3 11.3 0 0 0 -1.036-1.007c7.177 24.555 35.07 144.153-72.6 228.712a10.641 10.641 0 0 0 2.394-.275c74.613-18.613 95.265-95.031 95.265-95.031s27.004-75.715-24.023-132.399z" fill="#be4144"/><path d="m61.348 118.768-11.373-5.113a3.5 3.5 0 0 0 -2.87 6.385l2.224 1a99.7 99.7 0 0 0 -7.071 13.266l-2.16-.971a3.5 3.5 0 1 0 -2.87 6.384l2.368 1.065a155.621 155.621 0 0 0 -5.788 19.066l-2.727-.509a3.5 3.5 0 0 0 -1.286 6.881l2.529.472c-1.369 6.938-2.1 12.7-2.467 16.292l-2.334-.436a3.5 3.5 0 0 0 -1.285 6.881l12.257 2.29a3.563 3.563 0 0 0 .646.06 3.5 3.5 0 0 0 .639-6.941l-3-.561c.343-3.347 1.073-9.191 2.481-16.29l2.8.522a3.563 3.563 0 0 0 .646.06 3.5 3.5 0 0 0 .639-6.941l-2.584-.483a150.676 150.676 0 0 1 5.268-17.474l2.578 1.159a3.5 3.5 0 1 0 2.87-6.385l-2.807-1.262a90.89 90.89 0 0 1 7.129-13.236l2.677 1.2a3.5 3.5 0 0 0 2.87-6.385z" fill="#fff"/><path d="m282.112 132.212-.122.379a15.629 15.629 0 0 0 1.225 12.367l12.074 21.7a6.414 6.414 0 0 0 7.181 3.106c.886-.225 1.847-.48 2.84-.76a6.413 6.413 0 0 0 4.266-8.453c-2.826-7.4-8.409-19.947-16.972-30.333a6.08 6.08 0 0 0 -10.492 1.994z" fill="#3c3c4f"/></svg>