<svg id="Flat" height="512" viewBox="0 0 340 340" width="512" xmlns="http://www.w3.org/2000/svg"><path d="m65.038 88.732s-.25-14.179 14.686-31.632a40.473 40.473 0 0 0 6.228-9.6 36.257 36.257 0 0 0 2.478-7.307 2 2 0 0 1 3.548-.844c6.029 7.834 18.379 29 13.009 66.1l-11 24.016s-23.138 6.788-28.949-40.733z" fill="#b23241"/><path d="m68.447 148.306-20.691-8.044c-8.487-6.314-17.6-16.513-22.51-32.7a20.029 20.029 0 0 1 11.259 1.7s-25.418-33.962-4.235-73.625a58.525 58.525 0 0 0 3.684-8.392 68.476 68.476 0 0 0 2.416-8.545 1.993 1.993 0 0 1 3.1-1.235c8.442 5.884 34.038 28.1 29.235 78.629l7.435-4.673a32.658 32.658 0 0 1 5.86 11.679l.089 24.22z" fill="#e54c5b"/><path d="m84 103.1a102.066 102.066 0 0 1 -14.741 21.178c-13.266-14.939-16.359-40.078-16.068-49.459a47.863 47.863 0 0 0 -1.261-12.186 1.84 1.84 0 0 0 -3.632.275 106.759 106.759 0 0 1 -1.643 13.3s-7.745 34.229 15.09 55.246a60.361 60.361 0 0 1 -13.983 8.8 55.882 55.882 0 0 0 19.545 9.581l16.781-22.517a45.52 45.52 0 0 0 -.088-24.218z" fill="#b23241"/><path d="m272.206 203.845s-5.4 14.514 15.275 41.564c16.389 21.445 22.134 44.963 23.812 53.789a2.14 2.14 0 0 1 -2.878 2.394c-7.71-3-26.335-11.943-36.209-31.332l-12.014-31.106 2.279-35.309z" fill="#b23241"/><path d="m241.3 239.154s8.577 6.475 7.038 28.027c-1.411 19.757-2.453 38.589 1.449 54.126a2.138 2.138 0 0 0 3.754.773c3.8-4.849 11.272-13.8 18.652-19.269a16.827 16.827 0 0 0 6.754-12.424 67.465 67.465 0 0 0 -5.319-30.9s-1.765-3.937-3.551-9.213l-4.361-7.581z" fill="#e54c5b"/><path d="m270.076 250.271c-.816-2.409-1.635-5.1-2.293-7.817l-26.485-3.3s4.876 3.686 6.614 14.739q1.251-.151 2.534-.317a5.84 5.84 0 0 1 6.461 4.449 145.81 145.81 0 0 1 3.413 31.161 1.685 1.685 0 0 0 3.31.444c2.073-7.736 3.59-20.5-.488-37.99 2.345-.419 4.673-.872 6.934-1.369z" fill="#b23241"/><path d="m103.85 202.965s30.568 27.49 83.129 34.307c0 0 65.1-11.871 77.191-36.284z" fill="#b23241"/><path d="m81.685 237.543-1.328-7.355v-2.482a18.338 18.338 0 0 1 1.935-8.2 18.321 18.321 0 0 0 1.935-8.2v-10.318h26.539s13.541 11.007 40.5 19.083c0 0 21.932 9.541 53.761 8.284.005 0-86.852 15.659-123.342 9.188z" fill="#e54c5b"/><path d="m205.032 228.355a221.092 221.092 0 0 1 -53.761-8.284c-17.371 4.029-44.071 10.01-70.914 10.117v7.4c36.49 6.473 124.675-9.233 124.675-9.233z" fill="#b23241"/><path d="m80.357 237.59s145.408-4.535 182.45-36.6h9.4s-6.081 25.985-4.423 41.466c0 0-112.162 13.217-180.821 7.03a7.25 7.25 0 0 1 -6.605-7.221z" fill="#e54c5b"/><path d="m317.818 163.036c-14.11-2.014-41.3-9.52-58.723-37.269a4.845 4.845 0 0 0 -4.162-2.2h-.027a14.443 14.443 0 0 1 -10.322-24.557c-22.784-35.71-54.677-46.187-74.584-46.187-22.7 0-61.006 13.62-83.594 62.782a80.649 80.649 0 0 1 -25.493 31.843 12.786 12.786 0 0 0 -5.219 9.458l-.464 7.259a4.948 4.948 0 0 1 -8.6 3.013l-7.53-8.278a90 90 0 0 1 -16.9 4.139 8.041 8.041 0 0 0 -6.533 10.459 84.429 84.429 0 0 0 11.848 23.481 18.188 18.188 0 0 0 12.56 7.3c43.214 5.011 129.925 2.344 129.925 2.344s86.741 2.667 129.949-2.357a18.209 18.209 0 0 0 12.576-7.342 84.494 84.494 0 0 0 11.805-23.413 8.048 8.048 0 0 0 -6.512-10.475z" fill="#333353"/><path d="m172.659 76.261a27.237 27.237 0 0 0 -17.972 45.994v7.859a7.951 7.951 0 0 0 7.951 7.951h1.655a1.057 1.057 0 0 0 1.057-1.057v-6.856a3.071 3.071 0 0 1 2.8-3.121 2.958 2.958 0 0 1 3.116 2.954v7.023a1.057 1.057 0 0 0 1.057 1.057h3.74a1.057 1.057 0 0 0 1.057-1.057v-6.856a3.071 3.071 0 0 1 2.8-3.121 2.958 2.958 0 0 1 3.116 2.954v7.023a1.057 1.057 0 0 0 1.057 1.057 7.951 7.951 0 0 0 7.951-7.951v-5.914a27.241 27.241 0 0 0 -19.383-47.938z" fill="#fff"/><path d="m194.281 162.739-11.154-9.373-11.924 10.02-11.923-10.02-11.155 9.373 11.924 10.02-11.924 10.02 11.155 9.373 11.923-10.02 11.924 10.02 11.154-9.373-11.923-10.02z" fill="#fff"/><g fill="#333353"><path d="m195.087 103.848a15.788 15.788 0 0 1 -1.249 7.191 7.238 7.238 0 0 1 -10.214 3.2 17.6 17.6 0 0 1 -7.6-8.384 7.2 7.2 0 0 1 4.652-9.689 20.979 20.979 0 0 1 5.28-.824 8.884 8.884 0 0 1 9.131 8.506z"/><path d="m152.4 106.361a15.772 15.772 0 0 0 2.69 6.786 7.237 7.237 0 0 0 10.651 1.047 17.6 17.6 0 0 0 5.735-9.759 7.2 7.2 0 0 0 -6.53-8.536 21.012 21.012 0 0 0 -5.337.27 8.883 8.883 0 0 0 -7.209 10.192z"/><path d="m172.345 120.084 1.171-1.105a.939.939 0 0 1 1.269-.019l1.275 1.133a.939.939 0 0 0 1.556-.835 18.968 18.968 0 0 0 -2.715-7.471.956.956 0 0 0 -1.537-.076 12.454 12.454 0 0 0 -2.606 7.627.944.944 0 0 0 1.587.746z"/></g></svg>