<svg id="Flat" height="512" viewBox="0 0 340 340" width="512" xmlns="http://www.w3.org/2000/svg"><path d="m330 314.236c-119.13-7.568-135.036-14.929-172.15-50.662-61.721-59.425-107.314-43.283-147.85-50.662v-21.6h320z" fill="#ffca8a"/><path d="m330 295.189a121 121 0 0 0 -24.049-2.358c-17.188 0-34.071.7-48.405-.549-22.6-1.975-42.576-12.935-60.753-26.514-7.77-5.8-15.234-10.986-22.346-15.609a231.917 231.917 0 0 0 -126.44-37.247h-38.007v101.324h320z" fill="#fff"/><path d="m172.622 300.693a71.084 71.084 0 0 1 -41.1-23.029c-31.322-34.864-70.794-31.964-70.794-31.964h-50.728v68.537h192.447c-7.348-5.909-16.946-11.679-27.646-13.208q-1.107-.158-2.179-.336z" fill="#95bcf4"/><path d="m54.231 149.871h13.184v41.439h-13.184z" fill="#ad7979"/><path d="m135.868 25.764h94.76v165.546h-94.76z" fill="#f2c370"/><path d="m166.629 154.236h33.237v37.075h-33.237z" fill="#b7572c"/><path d="m230.628 62.89h72.484v128.42h-72.484z" fill="#f2c370" transform="matrix(-1 0 0 -1 533.739 254.201)"/><path d="m151.62 62.89h22.24v22.24h-22.24z" fill="#b7572c"/><path d="m192.635 62.89h22.24v22.24h-22.24z" fill="#b7572c"/><path d="m151.62 102.587h22.24v22.24h-22.24z" fill="#b7572c"/><path d="m192.635 102.587h22.24v22.24h-22.24z" fill="#b7572c"/><path d="m67.415 173.839v-23.968h-13.184v15.958z" fill="#825555"/><path d="m79.563 120.367a20.037 20.037 0 1 0 -37.48 0c-7.688 4-12.669 10.392-12.669 17.6 0 12.113 14.062 21.932 31.409 21.932s31.409-9.819 31.409-21.932c0-7.207-4.981-13.602-12.669-17.6z" fill="#8fa345"/><path d="m239.78 62.89h-9.152v128.42h25.624z" fill="#db893e"/><path d="m255.749 88.934h22.24v22.24h-22.24z" fill="#b7572c"/><path d="m255.749 128.631h22.24v22.24h-22.24z" fill="#b7572c"/><path d="m92.232 137.967c0-7.207-4.981-13.6-12.669-17.6a19.964 19.964 0 0 0 -9.427-24.767c2.7 6.007 5.386 16.5-2.721 25.563 0 0 12.884 8.111 4.644 23.406-6.277 11.651-27.675 10.931-34.832 7.871 5.756 4.574 14.19 7.464 23.6 7.464 17.342-.004 31.405-9.824 31.405-21.937z" fill="#72822f"/><g fill="#ec924e"><path d="m148.77 214.636a4.127 4.127 0 0 1 -.78-.08 3.832 3.832 0 0 1 -.75-.23 3.523 3.523 0 0 1 -.69-.371 3.251 3.251 0 0 1 -.61-.5 3.54 3.54 0 0 1 -.5-.6 4.485 4.485 0 0 1 -.37-.69 4.252 4.252 0 0 1 -.22-.75 3.886 3.886 0 0 1 0-1.569 3.954 3.954 0 0 1 .22-.741 3.782 3.782 0 0 1 .37-.69 3.728 3.728 0 0 1 .5-.609 3.644 3.644 0 0 1 .61-.5 4.147 4.147 0 0 1 .69-.371 3.9 3.9 0 0 1 .75-.23 4.044 4.044 0 0 1 3.61 1.1 3.672 3.672 0 0 1 .49.609 3.256 3.256 0 0 1 .37.69 3.989 3.989 0 0 1 .23.741 3.886 3.886 0 0 1 0 1.569 4.3 4.3 0 0 1 -.23.75 3.762 3.762 0 0 1 -.37.69 3.487 3.487 0 0 1 -.49.6 4.032 4.032 0 0 1 -2.83 1.182z"/><path d="m168.29 220.815a4.128 4.128 0 0 1 -.78-.079 3.973 3.973 0 0 1 -.75-.23 3.828 3.828 0 0 1 -.69-.37 3.6 3.6 0 0 1 -.61-.491 4.909 4.909 0 0 1 -.5-.609 4.678 4.678 0 0 1 -.37-.69 4.985 4.985 0 0 1 -.22-.75 4.14 4.14 0 0 1 -.08-.781 4.018 4.018 0 1 1 6.22 3.321 3.828 3.828 0 0 1 -.69.37 3.973 3.973 0 0 1 -.75.23 4.128 4.128 0 0 1 -.78.079z"/><path d="m199.87 249.645a4.01 4.01 0 0 1 -4-4 4.153 4.153 0 0 1 .07-.79 5.371 5.371 0 0 1 .23-.75 4.678 4.678 0 0 1 .37-.69 3.7 3.7 0 0 1 .5-.6 3.977 3.977 0 0 1 4.36-.869 4.665 4.665 0 0 1 .69.369 3.188 3.188 0 0 1 .6.5 3.253 3.253 0 0 1 .5.6 3.9 3.9 0 0 1 .37.69 4.3 4.3 0 0 1 .23.75 4.159 4.159 0 0 1 .08.79 3.991 3.991 0 0 1 -1.18 2.821 3.669 3.669 0 0 1 -.6.5 4.574 4.574 0 0 1 -.69.369 3.978 3.978 0 0 1 -.75.23 4.049 4.049 0 0 1 -.78.08z"/><path d="m224.25 249.645a4.049 4.049 0 0 1 -.78-.08 3.766 3.766 0 0 1 -.75-.23 4.574 4.574 0 0 1 -.69-.369 4.226 4.226 0 0 1 -.61-.5 4 4 0 0 1 0-5.651 3.605 3.605 0 0 1 .61-.5 4.665 4.665 0 0 1 .69-.369 3.832 3.832 0 0 1 .75-.23 4.043 4.043 0 0 1 3.61 1.1 4.3 4.3 0 0 1 .5.6 4.619 4.619 0 0 1 .36.69 4.3 4.3 0 0 1 .23.75 3.9 3.9 0 0 1 0 1.571 3.924 3.924 0 0 1 -.23.739 3.75 3.75 0 0 1 -.36.69 4.233 4.233 0 0 1 -.5.611 4.03 4.03 0 0 1 -2.83 1.178z"/><path d="m214.88 262.466a4.32 4.32 0 0 1 -.79-.08 4.032 4.032 0 0 1 -.74-.23 3.782 3.782 0 0 1 -.69-.37 3.694 3.694 0 0 1 -.61-.5 4 4 0 0 1 -1.18-2.831 4.119 4.119 0 0 1 .08-.779 4.3 4.3 0 0 1 .23-.75 4.485 4.485 0 0 1 .37-.69 3.579 3.579 0 0 1 .5-.6 4.032 4.032 0 0 1 3.61-1.1 4.135 4.135 0 0 1 .75.23 3.828 3.828 0 0 1 .69.37 3.54 3.54 0 0 1 .6.5 3.157 3.157 0 0 1 .5.6 3.762 3.762 0 0 1 .37.69 4.3 4.3 0 0 1 .23.75 4.119 4.119 0 0 1 .08.779 4.029 4.029 0 0 1 -4 4.011z"/><path d="m288.02 227.326a4.032 4.032 0 0 1 -2.83-1.181 3.592 3.592 0 0 1 -.49-.609 3.548 3.548 0 0 1 -.37-.69 3.989 3.989 0 0 1 -.23-.741 3.886 3.886 0 0 1 0-1.569 4.3 4.3 0 0 1 .23-.75 3.8 3.8 0 0 1 .37-.69 4.013 4.013 0 0 1 .49-.6 3.605 3.605 0 0 1 .61-.5 3.9 3.9 0 0 1 .69-.371 3.973 3.973 0 0 1 .75-.23 4.134 4.134 0 0 1 1.56 0 3.973 3.973 0 0 1 .75.23 3.9 3.9 0 0 1 .69.371 3.251 3.251 0 0 1 .61.5 4.82 4.82 0 0 1 .5.6 4.478 4.478 0 0 1 .36.69 4.3 4.3 0 0 1 .23.75 3.886 3.886 0 0 1 0 1.569 3.989 3.989 0 0 1 -.23.741 3.75 3.75 0 0 1 -.36.69 4.215 4.215 0 0 1 -.5.609 3.644 3.644 0 0 1 -.61.5 4.585 4.585 0 0 1 -.69.371 3.832 3.832 0 0 1 -.75.23 4.047 4.047 0 0 1 -.78.08z"/><path d="m303.11 227.326a4.032 4.032 0 0 1 -2.83-1.181 3.592 3.592 0 0 1 -.49-.609 3.548 3.548 0 0 1 -.37-.69 3.989 3.989 0 0 1 -.23-.741 3.886 3.886 0 0 1 0-1.569 4.3 4.3 0 0 1 .23-.75 3.8 3.8 0 0 1 .37-.69 4 4 0 0 1 6.15-.6 4.82 4.82 0 0 1 .5.6 4.532 4.532 0 0 1 .37.69 4.252 4.252 0 0 1 .22.75 3.886 3.886 0 0 1 0 1.569 3.954 3.954 0 0 1 -.22.741 4.03 4.03 0 0 1 -.87 1.3 4 4 0 0 1 -2.83 1.18z"/><path d="m304.62 242.286a3.987 3.987 0 0 1 -2.83-1.17 3.283 3.283 0 0 1 -.5-.61 4.113 4.113 0 0 1 -.37-.691 3.791 3.791 0 0 1 -.23-.75 4 4 0 0 1 4.71-4.7 4.215 4.215 0 0 1 .75.23 3.766 3.766 0 0 1 .69.37 3.962 3.962 0 0 1 1.7 4.1 3.791 3.791 0 0 1 -.23.75 4.542 4.542 0 0 1 -.37.691 3.736 3.736 0 0 1 -.5.61 4.82 4.82 0 0 1 -.6.5 4.579 4.579 0 0 1 -.69.37 4.248 4.248 0 0 1 -.75.219 3.39 3.39 0 0 1 -.78.081z"/></g><path d="m73.237 300.423h-18.777a4 4 0 1 1 0-8h18.777a4 4 0 0 1 0 8z" fill="#fff"/><path d="m42.531 282.165h-17.777a4 4 0 0 1 0-8h17.777a4 4 0 1 1 0 8z" fill="#fff"/><path d="m90.246 282.165h-2.777a4 4 0 0 1 0-8h2.777a4 4 0 0 1 0 8z" fill="#fff"/></svg>