<svg id="flat" height="512" viewBox="0 0 500 500" width="512" xmlns="http://www.w3.org/2000/svg"><path d="m220.461 283.948c-5.519-3.376-11.687-7.411-16.4-12.245a15.756 15.756 0 0 0 -.694 14.247 212.806 212.806 0 0 0 17.1 13.851z" fill="#ff9f9c"/><path d="m203.059 279.147a37.3 37.3 0 0 1 1-7.448 42.279 42.279 0 0 1 -9.443-14.555l-3.568-1.48c-5.8 8.874.907 20.537 12.315 30.284a40.678 40.678 0 0 1 -.304-6.801z" fill="#e77c81"/><path d="m222.4 308.307c7.463 8.58 13.824 18.514 16.047 29.666l1.586-39.776c-5.294-5.863-12.3-9.8-19.567-14.25a80.622 80.622 0 0 1 -2.222 11.719c-9.838-6.858-34.034-25.75-23.617-38.524-3.15-8.195-3.632-17.017-2.957-26.05l-10.791 8.123c-.098 36.063 20.286 45.424 41.521 69.092z" fill="#4f424c"/><path d="m255.381 313.816c8.545-34.287 54.52-38.137 47.036-85.41l-9.53 6.342c-2.877 31.569-26.993 34.131-39.487 55.891z" fill="#4f424c"/><path d="m228.924 411.71c1.348-15.795 2.237-31.615 2.779-47.452 1.42-3.058 1.161-8.762.418-15.229.5-24.113.289-48.257-.25-72.4l28.108-19.529-1.724 157.658z" fill="#ff9f9c"/><path d="m262 446.382-.684-149.355c-7.663-1.08-14.538 5.571-16.723 12.9-2.138 7.159-.934 14.836.287 22.207q2.355 14.227 4.711 28.456c4.458 23.176 2.323 40.5-20.669 51.125-.329 4.541-1.491 15.573-1.948 18.6 3.064 26.002 35.026 16.067 35.026 16.067z" fill="#e77c81"/><path d="m266.831 420.97c-6.56-67.605-4.3-135.72-2.031-203.6h-34.689c.659 19.742 1.311 39.5 1.753 59.265 3.435-1.713 24.693-13.572 24.693-13.572.387 10.583-1.93 75.687-1.654 96.55.136 10.267 2.743 56.469 2.132 66.2-1.487 19.155-21.921 23.153-30.134 4.976-1.4 9.206-3.848 18.262-9.234 25.41a2.354 2.354 0 0 0 1.887 3.766h55.8a2.354 2.354 0 0 0 1.887-3.766c-7.3-9.699-9.214-22.899-10.41-35.229z" fill="#4f424c"/><path d="m422.072 138.7c1.945-1.039 4.217-1.239 6.318-1.91 5.956-1.847 5.915-6.986 1.154-10.412a37.765 37.765 0 0 0 -32.94-6.745c7.2-2.216 13.732-8.907 15.108-14.958.809-2.417-1.426-3.485-3.646-3.472-7.123-.3-14.545-.12-20.99-3.167-6.028-2.851-10.453-8.183-15.769-12.208-12.921-9.781-30.1-11.256-46.271-12.367q5.778-3.686 11.257-7.814c-11.231-15.067-40.074-12.238-56.265-7.519 3.323-2.073 8.547-5.937 8.876-10.085-1.767-5.932-14.388-5.731-19.32-4.227-5.308 1.378-10.687 4.553-15.289 7.535a31.2 31.2 0 0 0 -19.135-11.01c-4.445-.7-9.371-.293-12.838 2.577s-4.585 8.736-1.385 11.9c-13.629-5.245-28.9-7.371-42.9-3.217-10.979 3.49-11.077 8.2-5.388 15.468-18.5-9.344-37.874 5.589-48.684 20.217-7.439-7.077-17.459 2.074-13.221 10.824a37.815 37.815 0 0 1 -13.357-9.927 22.042 22.042 0 0 0 -.206 24.4c-7.713-1.2-18.251 2.267-21.784 9.6-.239 4.966 6.931 4.024 9.536 6.6a65.737 65.737 0 0 0 -28.533 31.634 16.076 16.076 0 0 0 14.225 1.253c-7.04 3.961-25.852 23.775-23.24 52.357-1.412 56.115 63.817 19.621 78.352 12.321 26.839-.469 183.513 2.166 206.119-3.832 0 0 44.026 11.567 53.022 12.488l59.779-13.488-3.226-70.616s-9.153-9.313-19.359-12.2z" fill="#bfcc7f"/><path d="m441.431 150.9s-9.153-9.312-19.359-12.2c1.945-1.039 4.217-1.239 6.318-1.91 4.483-1.179 6.5-5.833 2.45-9.329a37.686 37.686 0 0 0 -34.236-7.828c7.2-2.216 13.732-8.907 15.108-14.958.81-2.417-1.426-3.485-3.646-3.472-7.123-.3-14.545-.12-20.99-3.167-6.028-2.851-10.453-8.183-15.769-12.208-9.908-7.5-22.321-10.111-34.861-11.425 9.489 3.98 19.412 11.168 25.379 19.956 1.775 2.664 6.833 12.016.113 10.176-22.746-6.228-15.661 13.293 7.713 25.779 13.7 7.321 26.889 19.082 28.719 35.845.473 4.328.15 10.037-5.526 8.73-10.772-3.4-20.346-15.043-27.9-23.195a3.246 3.246 0 0 0 -5.667 2.5c3.142 31.458-22.515 51.119-52.945.9-1.758-2.9-5.8-2.671-5.893.8-.91 34.263-29.944 43.231-46.334-8.646a3.052 3.052 0 0 0 -5.483-.716 94.526 94.526 0 0 1 -8.681 12.172c-5.411 7.361-12.8 13.152-16.931-.566a4.754 4.754 0 0 0 -8.551-1.092c-19.03 29.889-25.745 46.614-38.815 15.823a5.272 5.272 0 0 0 -8.757-1.461c-18.7 20.625-23.369 12.655-24.264 3.967a4.416 4.416 0 0 0 -7.409-2.792c-34.906 32.746-32.533 17.79-27.928 5.791a5.458 5.458 0 0 0 -6.048-7.321c-14.821 2.5-33.767.438 28.387-48.928a3.026 3.026 0 0 0 -2.312-5.483 37.732 37.732 0 0 1 -12.388-.068c-6.641-1.029-17.751-3.991-17.751-3.991-7.818-1.187-18.188 2.256-21.784 9.6-.166 4.978 6.879 4.016 9.536 6.6a65.737 65.737 0 0 0 -28.526 31.634 16.076 16.076 0 0 0 14.225 1.253c-7.04 3.961-25.852 23.776-23.24 52.357-1.412 56.115 63.817 19.621 78.352 12.321 26.839-.469 183.513 2.166 206.119-3.832 0 0 44.026 11.567 53.022 12.488l59.779-13.488z" fill="#919951"/><path d="m261.779 397.832-.056-12.066c-16.259-38.183-19.169-81.871-13.109-122.549l-4.826 3.866c-5.863 43.991-1.4 90.494 17.991 130.749z" fill="#4f424c"/><path d="m231.7 364.257c7.552 26.244 17.138 55.391 6.175 81.978a24.15 24.15 0 0 0 5.784 1.611c12.018-32.888-2.675-66.864-11.534-98.817q-.164 7.617-.425 15.228z" fill="#4f424c"/><path d="m485.852 239.6a47.621 47.621 0 0 0 -9.118-11.911c2.811 2.817 8.194.087 8.948-3.821.983-9.034-9.5-15.466-17.112-17.781 3.776-.379 7.144-6.087 7.2-9.882-.451-8.656-7.892-15.454-14.315-20.524 6.071-.356 13.224-4.713 14.075-11.1-.876-6.168-13.136-5.241-17.765-8.225-4.194-2.021-7.536-5.416-11.245-8.231a47.5 47.5 0 0 0 -24.447-9.424s18.756 13.325 11 27.789c-2.053 3.829-7.634 5.163-11.771 4.361-1.744-.338-3.891 1.609-2.594 3.374 4.248 6.291 15.421 21.461 10.906 28.643-5.764 9.284-22.441 3.1-28.922-1.949-2.021-1.575-5.721.739-3.076 3.384a17.544 17.544 0 0 1 4.707 8.008c1.2 4.659 3.357 6.18 1.728 9.628-1.249 2.643-2.794 2.469-5.537 1.971-7.26-1.318-14.2-6.462-20.268-10.8-2.608-1.457-4.612 2.232-2.294 3.924.367.267.753.55 1.151.841 3.039 2.97-1.6 7.464-5.32 7.295-4.272-.194-7.511-3.271-10.165-6.293-4.848-5.521-9.265-11.475-13.856-17.21-1.7-2.121-4.6.58-3.552 2.74 1.924 3.976 6.14 13.638-.945 15.588-4.06 1.117-9.876-4.828-12.363-7.285-5.983-5.911-10.368-13.168-14.692-20.318-1.373-2.269-4.561-.713-4.11 1.733.756 4.1.918 9.079-2.045 12.4-2.628 2.942-8.769 3.605-10.182-1a2.253 2.253 0 0 0 -4.405.6c-.114 5.515-.493 14.449-7.5 15.477-8.33 1.222-12.44-8.562-14.858-14.733a2.268 2.268 0 0 0 -4.081-.534c-2.14 3.087-4.473 6.563-7.856 8.431-3.684 2.033-10.252 1.143-10.079-4.19a2.244 2.244 0 0 0 -4.15-1.124c-2.087 3.68-10.4 16.177-15.244 13.636-5.778-5.072-4.386-24.535-4.724-32.15a2.227 2.227 0 0 0 -3.761-1.558 224.82 224.82 0 0 1 -27.607 24.582c-4.488 3.346-10.994 7.858-15.96 2.784-1.771-1.81-2.993-5.771-3.766-9.095a2.337 2.337 0 0 0 -4.124-.881c-6.892 8.029-20.441 20.267-31.526 15.5-4.36-2.179-3.526-8.465-2.646-13.884a.8.8 0 0 0 -1.437-.59c-6.2 8.358-13.418 9.392-12.912-.515a1.3 1.3 0 0 0 -2.258-.964c-4.642 5.116-13.815 14.813-17.809 16.162-4.04 1.363-11.774 2.16-10.715-8.843a1.519 1.519 0 0 0 -2.413-1.373c-5.584 4.4-30.016 23.333-31.648 10.618-.287-2.609 8.022-14.884 12.284-21.5a1.483 1.483 0 0 0 -1.77-2.191c-5.872 2.2-14.223 5.025-16.09 1.908-4.489-7.99 5.057-25.793 9.67-32.708-8.816 7.8-12.356 19.646-20.133 28.156-8.89 9.121-23.351 11.74-29.758 23.451a8.03 8.03 0 0 0 .381 8.656c3.136 4.177 8.612 2.656 12.973.986-3.791 4.843-6.032 10.268-8.939 15.688-1.814 3.382-3.45 7.52-1.654 10.912.927 1.751 10.347-.568 10.347-.568s-10.162 12.771-10.356 22.744c-.028 4.014 4.363 6.473 8.027 5.383 6.379-1.278 11.124-6.44 15.666-11.1a183.015 183.015 0 0 1 21.435-18.798c-.263 7.053 4.51 12.2 11.76 10.719 3.362-.658 6.347-2.549 9.11-4.577 11-8.076 21.35-19.622 33.861-25.075-5.154 19.254 6.6 23.14 16.418 6.489 1.245 6.214 5.442 10.357 11.936 7.854 7.062-3.441 12.157-10.049 17.678-15.489 2.344 8.687 8.122 16.756 18.08 12.841a28.246 28.246 0 0 0 14.249-10.835c3.064 8.292 15.718 3.022 19.225-3.409-2.025 11.624 6.055 24.468 18.93 19.055 9.164-4.28 14.694-14.089 17.823-23.351.877 4.712 4.193 9.327 8.917 10.139s9.981-3.847 8.542-8.418c5.142 10.724 18.183 20.081 29.911 13.945 5.384-2.92 10.816-9.564 8.778-15.34 8.835 12.085 20.9 2.4 21.354-2.3 3.812 9.284 13.6 21.594 24.741 19.54 4.758-1.21 8.1-7.494 5.029-11.321 8.668 8.017 21.218 20.338 33.644 19.8 6.482-.479 12.872-6.434 11.5-12.788 8.425 5.436 30.486 17.362 40.066 13.274 3.543-1.7 5.446-7 2.568-9.68 9.8 7.082 27.639 14.291 39.667 11.133 6.043-3.255 4.66-11.506 1.588-16.506z" fill="#4f424c"/><g fill="#919951"><path d="m130.92 144.358c4.129-1.854 7.333-6.668 10.584-9.79 3.594-3.453 7.977-6.642 11.049-10.55 1.967-2.5-.424-6.2-3.522-4.564-4.6 2.425-8.615 6.724-12.282 10.36-3.35 3.321-8.118 7.076-9.564 11.672-.729 2.316 1.857 3.716 3.735 2.872z"/><path d="m158.112 137.24a49.818 49.818 0 0 0 11.527-10.907c.98-1.579-.684-4.107-2.581-3.357a38.124 38.124 0 0 0 -12.829 10.381c-1.7 2.392 1.567 5.244 3.883 3.883z"/><path d="m177.526 134.328a3.313 3.313 0 0 0 2.218-.678c.746-.576-.227.113.333-.228.183-.112.359-.237.532-.363a5.351 5.351 0 0 0 2.164-2.6 2.243 2.243 0 0 0 -2.908-2.65c.023-.006-.826.341-.447.193-.5.2-1.019.381-1.528.558-.163.046-.163.05 0 .014.248-.046.162-.036-.257.027-3.585.417-3.869 5.441-.107 5.727z"/><path d="m334.44 117.861c3.961 7.341 10.646 16.166 19.057 18.595a2.031 2.031 0 0 0 1.961-3.369c-2.722-2.882-6.211-5.077-9.1-7.818a58.219 58.219 0 0 1 -8.133-9.62 2.193 2.193 0 0 0 -3.785 2.212z"/><path d="m321.754 121.36c.044 2.5 2.156 4.437 3.7 6.226a22.106 22.106 0 0 0 5.5 4.926c1.582.89 4.135-.63 3.357-2.58a22.478 22.478 0 0 0 -4.041-6.155c-1.451-1.688-3.23-4.308-5.559-4.677a2.38 2.38 0 0 0 -2.967 2.26z"/><path d="m310.356 124.217a2.328 2.328 0 0 0 .777.858 1.448 1.448 0 0 0 .639.373 2.782 2.782 0 0 0 3.387-.892 1.439 1.439 0 0 0 .373-.638 2.784 2.784 0 0 0 -.892-3.388 1.447 1.447 0 0 0 -.638-.372 2.752 2.752 0 0 0 -1.884-.146 2.906 2.906 0 0 0 -1.762 4.2z"/><path d="m195.973 73.018a39.383 39.383 0 0 0 -14.23 11.236c-1.388 1.812 1.285 4.255 3.078 3.078 4.706-3.478 9.447-6.934 14.135-10.449 2.36-1.825-.646-4.951-2.983-3.865z"/><path d="m208.237 77.98a22.808 22.808 0 0 0 -8.858 7.146c-1.139 1.7.8 4.525 2.832 3.684a44.313 44.313 0 0 0 9.082-5.6 3.03 3.03 0 0 0 -3.056-5.229z"/></g></svg>