<svg id="Flat" height="512" viewBox="0 0 340 340" width="512" xmlns="http://www.w3.org/2000/svg"><path d="m70.171 192.984s-52.435 2.366-50.54-51.443c0 0-.158-21.585 28.262-45.458 23.513-22.727 28.774-35.96 28.07-46.092-.151-5.891-1.783-16.626-11.386-19.385a14.5 14.5 0 0 0 -10.051.659c-3.568 1.642-7.713 5.322-7.627 13.551l.056.187c1.976 6.614-5.836 12.079-11.151 7.675a12.951 12.951 0 0 1 -1.362-1.31 13.667 13.667 0 0 1 -3.236-7.1c-.933-6.041.222-20.982 13.276-29.059a30.306 30.306 0 0 1 32.466.631 41.7 41.7 0 0 1 17.178 22.123 44.306 44.306 0 0 1 -.355 27.523c-3.616 11.007-12.1 27.679-31.9 42.233 0 0-13.458 8.57-16.251 23.537-2.155 11.54 5.929 22.724 17.622 23.757a45.815 45.815 0 0 0 16.4-1.926z" fill="#eabbc4"/><path d="m79.638 153.087a46.88 46.88 0 0 1 -15.46 1.984 47.846 47.846 0 0 0 -8.49 12.288 10.563 10.563 0 0 1 -16.956 3.146 34.352 34.352 0 0 1 -9.857-19.7c-5.391-33.966 23.138-54.245 23.138-54.245 27.987-22.604 23.949-46.569 23.949-46.569a32.032 32.032 0 0 1 -.114 3.919c-1.515 17.81-29.748 40.757-29.748 40.757-28.424 23.873-28.229 47.533-28.229 47.533-1.895 53.809 52.672 53.809 52.672 53.809z" fill="#996d7b"/><path d="m306.486 10s-3.016 34.529 4.738 67.7a310.449 310.449 0 0 1 2 73.339 158.436 158.436 0 0 1 -4.687 26.18c-2.154 8.1-5.311 20.319-8.369 33.464a102.765 102.765 0 0 1 -22.43 44.117 202.844 202.844 0 0 1 -17.346 18.04s-21.281 14.22-54.792 30.16l-12.789 6.769a98.143 98.143 0 0 1 -37.829 11.078c-20 1.651-62.421 4.62-82.639 8.571a31.788 31.788 0 0 1 -6.113.582h-40.4a3.4 3.4 0 0 1 -2.079-6.085c10.137-7.826 36.141-20.524 98.63-21.411a121.5 121.5 0 0 0 47.569-10.494l66.429-29.5s50.293-51.694 55.032-107.265c0 0 6.588-48.676-6.212-97.113a147.115 147.115 0 0 1 -4.684-28.735l-1.169-19.397z" fill="#8db5a7"/><path d="m311.224 77.7c-7.754-33.17-4.738-67.7-4.738-67.7h-10.073a186.282 186.282 0 0 0 2.852 50.231c1.626 8.12 2.952 16.057 4.026 23.351l-11.83 9.171a300.359 300.359 0 0 1 1.328 45.161c10.522-15.229 8.22-27.172 8.22-27.172l.423-.332a3.312 3.312 0 0 1 5.341 2.311c.373 4.1.531 6.459.531 6.459s1.072 50.417-15.541 86.3c0 0-6.444 33.258-35.859 57.982l-.369-2.089-6.253-4.737-8.3.8c-2.866 3.273-4.611 5.066-4.611 5.066l-20.954 9.307 20.954-1.343h.033a2.938 2.938 0 0 1 1.605 5.434 370.267 370.267 0 0 1 -38.053 20.7l-.416-2.832s-7.707-6.54-11.687-9.719l-17.911 7.955a121.926 121.926 0 0 1 -37.014 9.868l4.822 3.946a3.721 3.721 0 0 1 -2.061 6.589c-15.029 1.163-26.137.859-26.137.859a120.4 120.4 0 0 0 -19.277 3.769 74.877 74.877 0 0 0 -12.02-11.412 192.532 192.532 0 0 0 -27.817 5.831 64.666 64.666 0 0 1 18.19 8.2 3.718 3.718 0 0 1 -.152 6.285 59.92 59.92 0 0 0 -6.076 4.061h3.83a32.262 32.262 0 0 0 6.177-.6c1.849-.36 3.884-.712 6.068-1.056.358-.056.73-.112 1.095-.167s.709-.11 1.073-.163c.393-.059.8-.117 1.2-.174.352-.051.7-.1 1.059-.152l1.256-.174c.358-.049.717-.1 1.08-.146l1.314-.174 1.073-.138q.692-.089 1.393-.176l1.052-.13 1.474-.178.971-.115c.537-.063 1.073-.126 1.616-.188.253-.03.51-.058.764-.087l1.844-.208c20.383-2.255 44.56-4 58.241-5.132a98.064 98.064 0 0 0 31.759-8.134l.5-.227c.669-.3 1.338-.605 2-.927.3-.147.6-.288.9-.435.895-.439 1.786-.888 2.669-1.355l12.792-6.764c18.492-8.794 33.249-17.059 42.772-22.705h.008c2.115-1.254 3.969-2.377 5.55-3.349l.031-.019 1.075-.664.088-.055.924-.576.126-.078.8-.5.12-.076.754-.477c1.661-1.057 2.543-1.645 2.543-1.645a202.842 202.842 0 0 0 17.336-18.027 102.81 102.81 0 0 0 22.436-44.138c3.058-13.147 6.215-25.371 8.37-33.468a158.481 158.481 0 0 0 4.686-26.184 310.449 310.449 0 0 0 -1.995-73.339z" fill="#5d7a82"/><path d="m175.3 209.336s23.812 26.722 36.438 51.828a9.593 9.593 0 0 0 9.5 5.3l20.5-2.019a11.689 11.689 0 0 1 8.545 2.585 11.687 11.687 0 0 1 4.286 9.045v1.8a4.507 4.507 0 0 0 5.034 4.476 4.507 4.507 0 0 0 3.888-3.572l1.509-7.397a15.89 15.89 0 0 0 -3.276-13.26l-2.661-3.248a15.872 15.872 0 0 0 -11.692-5.808c-4.009-.148-9.2-.294-14.284-.305a12.783 12.783 0 0 1 -11.828-8.013c-4.718-11.728-23.2-57.054-27.471-80.477l-3.665-7.184s-44.013 44.255-44.257 44.864 29.434 11.385 29.434 11.385z" fill="#493d4e"/><path d="m205.6 178.914s6.057 14.467 3.595 26.187a6.369 6.369 0 0 1 -9.721 3.918l-2.712-1.767a31.2 31.2 0 0 1 -3.583 15.931 7.581 7.581 0 0 1 -11.591 2.008l-11.136-9.634-22.407-16.116 2.8-12.417 44.155-33.937z" fill="#996d7b"/><path d="m212.1 186.736 7.019 18.748c4.462 6.97 11 14.349 20.255 18.915v-12.419s3.2-.569 8.56-1.98l-.661-4.847a9.331 9.331 0 0 1 2.073-7.223c7.745-9.325 30.657-38.264 42.666-68.011a21.424 21.424 0 0 0 1.555-8.021v-11.926a18.421 18.421 0 0 1 5.933-13.543l11.874-10.946 1.567 1.383a5.561 5.561 0 0 0 9.083-2.866 5.562 5.562 0 0 0 -.813-4.431l-3-4.4a10.618 10.618 0 0 0 -14.774-2.782c-4.406 3.018-9.866 6.72-14.892 10.023a19.391 19.391 0 0 0 -8.7 14.747l-1.307 17.278a23.747 23.747 0 0 1 -4.531 12.25c-7 9.543-21.983 29.275-35.934 42.961 0 0-3.556 6.541-5.972 8.533z" fill="#665769"/><path d="m68.5 201.037s6.324 37.438 16.667 65.75a13.962 13.962 0 0 1 -2.988 14.413l-15.92 16.767a6.713 6.713 0 0 0 1.771 10.6c6.808 3.479 16.155 9.509 21.626 18.353a6.506 6.506 0 0 0 5.533 3.08 6.513 6.513 0 0 0 6.4-7.747c-1.28-6.572-4.771-15.746-14.209-21 0 0 13.454-9.215 21.726-16.033a17.106 17.106 0 0 0 6.109-11.356c1.23-11.262 3.62-35.158 3.846-52.725z" fill="#493d4e"/><path d="m153.243 200 14.562 4.5c1.6.829 3.219 1.7 4.769 2.576a10.054 10.054 0 0 1 4.865 10.983c-2.894 12.683-9.455 40.426-16.462 63.25a164.716 164.716 0 0 0 21.789-6.812 14.578 14.578 0 0 1 16.818 4.236 53.15 53.15 0 0 1 9.408 16.553 14.1 14.1 0 0 1 -5.041 15.79q-.727.537-1.54 1.059c-4.825 3.088-11.078-.468-11.268-6.194a24.312 24.312 0 0 0 -2.174-9.56 8.39 8.39 0 0 0 -10.738-4.1l-26 10.5a8.31 8.31 0 0 1 -11.421-7.706l.371-51.11-1.9-1.849-13.41-15.734z" fill="#665769"/><path d="m238.078 169.642c-2.539 2.49-5.043 4.782-7.458 6.774l-19.758 11.008a69.886 69.886 0 0 0 8.258 18.057 16.172 16.172 0 0 0 11.905-5.552 5.5 5.5 0 0 0 1.268-3.92l-.51-6.99 5.939-1.054a3.052 3.052 0 0 0 2.508-2.663 32.844 32.844 0 0 0 -2.152-15.66z" fill="#493d4e"/><path d="m156.434 220.4 9.045 1.959s4.163-6.515 2.326-17.857c-7.029-3.636-13.819-6.546-13.819-6.546l-29.453 29.783 14.752 14.378 1.423-2.273s16.782 1.804 15.726-19.444z" fill="#493d4e"/><path d="m232.722 167.045a135.392 135.392 0 0 0 -17.269-32.631 34.482 34.482 0 0 0 14.031-31.029l1.216-47.437s6.212-3.449 5.414-10.634h-8.183s2.594-8.781-1.6-15.368c0 0-5.755 11.919-24.349 19.16 0 0-46.5 17.764-17.763 62.839 0 0-65.726-2.558-104.282 33.416-10.962 10.228-17.816 24.26-18.068 39.25-.2 12.119 3.731 26.389 18.943 37.765 0 0 9.984 6.476 16.729 8.364a24.4 24.4 0 0 1 9.174 8.365s4.047-4.587 3.778-10.253c0 0 11.872 6.745 17.268 15.109a18.972 18.972 0 0 0 5.666-11.6s8.448 2.755 13.981-3.857a13.524 13.524 0 0 0 3.018-8.7v-9.027l10.253 3.238s2.7-11.872-5.666-17.538l17.16-7.294a30.218 30.218 0 0 0 4.965-5.657l3.508 7.555s13.466-9 10.5-28.425a167.053 167.053 0 0 0 18.965 30.682 11.243 11.243 0 0 0 15.282 2.174l.2-.14a4.335 4.335 0 0 0 1.806-3.5v-6.829l5.161-1.736a5.471 5.471 0 0 0 3.7-5.834 16.29 16.29 0 0 0 -1.044-4.135c-.854-2.094-1.742-4.163-2.494-6.293z" fill="#eabbc4"/><path d="m229.484 103.385 1.216-47.437s6.212-3.449 5.414-10.634h-8.183s2.594-8.781-1.6-15.368c0 0-5.755 11.919-24.349 19.16 0 0-46.5 17.764-17.763 62.839 0 0 20.7 5.374 31.23 22.469a34.482 34.482 0 0 0 14.035-31.029z" fill="#eabbc4"/><path d="m207.672 99.235s1.714 8.367 12.233 15.828a3.6 3.6 0 0 1 1.313 4.252 14.033 14.033 0 0 1 -1.872 3.338 3.569 3.569 0 0 1 -4.438.973 35.061 35.061 0 0 0 -8.343-2.86 1.361 1.361 0 0 0 -1.158 2.372 53.816 53.816 0 0 1 10.046 11.276s18.887-8.634 14.031-31.029l.023-.9c-10.553-1.641-21.835-3.25-21.835-3.25z" fill="#493d4e"/><path d="m230.7 55.948s-14.956.458-18.5 15.987a11.129 11.129 0 0 1 -3.254 5.736l-9.684 8.94a7.527 7.527 0 0 0 -.032 11.175c1.743 1.5 4.4 2.342 8.446 1.449 0 0 9.545 14.317 25.155 12.56a23.146 23.146 0 0 0 12.472-5.549c3.113-2.687 6.56-6.8 7.355-12.256 0 0-1.549-7.345-3.147-10.044-1.318-1.154-4.066-3.323-4.663-4.794-3.133-3.753-8.765-14.2-8.765-14.2a54.865 54.865 0 0 1 -5.383-9.004z" fill="#493d4e"/><path d="m250.552 83.668a26.822 26.822 0 0 0 -2.969-3.9c-3.134-3.754-7.767-9.482-11.5-14.818a7.584 7.584 0 0 1 -3.154 1.121 9.9 9.9 0 0 1 -3.62-.258c-2.736-.662-10.376-1.731-11.706 6.484-.017.1-.033.2-.047.306a9.907 9.907 0 0 0 14.364 10.126q.293-.148.586-.311a1.019 1.019 0 0 1 1.438 1.3 22.363 22.363 0 0 0 -1.7 5.514 8.59 8.59 0 0 0 9.449 9.851 17.027 17.027 0 0 0 10.955-5.095c.065-.446.118-.9.146-1.36a15.751 15.751 0 0 0 -2.242-8.96z" fill="#b28d98"/><path d="m172.17 189.175c-8.523 1.15-26.481-3.429-40.708-7.707a2.7 2.7 0 0 0 -1.925 5.031 218.657 218.657 0 0 0 25.476 9.974 29.3 29.3 0 0 0 17.157-7.298z" fill="#996d7b"/><g fill="#3b3b59"><path d="m249.41 81.3-.459-.545a1.32 1.32 0 0 0 -1.841-.185 51.436 51.436 0 0 0 -10.573 11.33.908.908 0 0 0 1.347 1.2 78.221 78.221 0 0 1 11.969-8.737 1.331 1.331 0 0 0 .439-1.918q-.416-.588-.882-1.145z"/><circle cx="226.73" cy="74.83" r="4"/></g></svg>