<svg id="icons" height="512" viewBox="0 0 340 340" width="512" xmlns="http://www.w3.org/2000/svg"><path d="m88.353 50.356s-4.285 32.544-32.053 57.618l9.717 10.892s22.793-17.731 26.846-39.766z" fill="#f7954d"/><path d="m86.053 36.811v40.4s2.3 37.347-15.48 55.331l11.892 10.025s20.091-15.448 21.075-57.038v-48.718z" fill="#f7954d"/><path d="m68.767 30.178h241.412v20.178l-241.412-8.355z" fill="#f2ab83"/><path d="m92.863 123.793s9.044 10.36 10.677 22.265 0 35.287 0 35.287l29.36 9.565-18.765-91.763-18.485-4.762z" fill="#f7954d"/><path d="m99.732 30.178h53.352v39.848a126.841 126.841 0 0 0 4.351 33.065 275.152 275.152 0 0 0 12.615 36.4 94.522 94.522 0 0 1 6.925 25.86c.475 3.907.914 8.43 1.232 13.509l-56.788 12.05s2.972-13.871.617-37.724a84.53 84.53 0 0 0 -9.986-32.457c-5.474-9.947-12.318-24.891-12.318-44.908z" fill="#fff099"/><g fill="#f7954d"><path d="m144.568 186v-12.968a162.781 162.781 0 0 0 -1.9-25.144 108.186 108.186 0 0 0 -12.692-35.936c-11.635-20.852-11.906-38.952-11.908-39.108v-42.666h-8v42.681c0 .816.224 20.235 12.924 42.992a100.235 100.235 0 0 1 11.774 33.277 154.744 154.744 0 0 1 1.8 23.9v14.672z"/><path d="m165.957 181.461v-8.429a162.781 162.781 0 0 0 -1.9-25.144 108.205 108.205 0 0 0 -12.691-35.936c-11.636-20.852-11.907-38.952-11.909-39.108v-42.666h-8v42.681c0 .816.224 20.235 12.924 42.992a100.235 100.235 0 0 1 11.774 33.277 154.744 154.744 0 0 1 1.8 23.9v10.126z"/><path d="m158.132 170a41.206 41.206 0 0 0 -40.756 47.266h81.513a41.206 41.206 0 0 0 -40.757-47.266z"/></g><path d="m185.888 217.266a29.644 29.644 0 1 0 -57.627 0h7.265a22.644 22.644 0 1 1 43.1 0z" fill="#d66b2f"/><path d="m159.24 217.266h10.3a14.277 14.277 0 1 0 -24.922 0h10.3a7.277 7.277 0 1 1 4.33 0z" fill="#d66b2f"/><path d="m202.841 175.091a36.773 36.773 0 0 0 -36.367 42.175h72.733a36.773 36.773 0 0 0 -36.366-42.175z" fill="#fff099"/><path d="m202.158 182.816a29.628 29.628 0 0 0 -29.249 34.45h7.123a22.645 22.645 0 1 1 44.251 0h7.123a29.623 29.623 0 0 0 -29.248-34.45z" fill="#f7954d"/><path d="m217.055 217.266a15.66 15.66 0 1 0 -29.8 0h7.7a8.659 8.659 0 1 1 14.395 0z" fill="#f7954d"/><path d="m97.725 173.032a41.428 41.428 0 0 0 -41.425 41.428c0 .944.043 1.878.106 2.806h82.645c.062-.928.1-1.862.1-2.806a41.428 41.428 0 0 0 -41.426-41.428z" fill="#fff099"/><path d="m96.673 182.816a33.416 33.416 0 0 0 -33.373 33.378c0 .359.016.715.027 1.072h7c-.014-.356-.027-.713-.027-1.072a26.378 26.378 0 0 1 52.756 0c0 .359-.013.716-.028 1.072h7c.012-.357.028-.713.028-1.072a33.416 33.416 0 0 0 -33.383-33.378z" fill="#f7954d"/><path d="m114.014 217.266c.022-.357.054-.71.054-1.072a17.4 17.4 0 1 0 -34.79 0c0 .362.032.715.054 1.072h7a10.554 10.554 0 0 1 -.055-1.072 10.4 10.4 0 1 1 20.79 0 10.554 10.554 0 0 1 -.055 1.072z" fill="#f7954d"/><path d="m32.494 164.423 23.831-6.737a12.5 12.5 0 0 1 14.439 6.169c5.788 10.885 14.791 30.765 17.589 53.411h-34.683s-8.17-30.458-21.176-52.843z" fill="#728772"/><path d="m45.087 217.266s-3.771-17.79-15.266-32.31l21.069-3.485a9.38 9.38 0 0 1 9.678 4.606 93.739 93.739 0 0 1 11.032 31.189z" fill="#3c4c3c"/><path d="m157.5 103.32a127.279 127.279 0 0 1 -4.413-33.294v-7.6l-7.457 7.435a5.52 5.52 0 0 1 -3.029 1.543l-13.401 2.136a5.519 5.519 0 0 0 -4.651 5.442l-.019 13.564a5.512 5.512 0 0 1 -1.051 3.232l-7.964 10.98a5.517 5.517 0 0 0 .56 7.136l9.577 9.6a5.52 5.52 0 0 1 1.543 3.029l2.132 13.395a5.519 5.519 0 0 0 5.442 4.651l13.564.018a5.52 5.52 0 0 1 3.232 1.052l10.98 7.964a5.517 5.517 0 0 0 7.136-.56l3.889-3.877a92.72 92.72 0 0 0 -3.523-9.678 275.157 275.157 0 0 1 -12.547-36.168z" fill="#f7954d"/><path d="m68.767 30.178h241.412v-20.178l-241.412 8.355z" fill="#ffd2b3"/><path d="m173.37 75.853 13.063.018a2.747 2.747 0 0 1 2.709 2.315l2.054 12.9a2.745 2.745 0 0 0 .768 1.508l9.224 9.249a2.748 2.748 0 0 1 .278 3.553l-7.67 10.574a2.751 2.751 0 0 0 -.523 1.609l-.018 13.063a2.747 2.747 0 0 1 -2.315 2.709l-12.9 2.054a2.745 2.745 0 0 0 -1.508.768l-9.25 9.224a2.747 2.747 0 0 1 -3.552.278l-10.574-7.67a2.751 2.751 0 0 0 -1.609-.523l-13.063-.018a2.747 2.747 0 0 1 -2.709-2.315l-2.054-12.9a2.752 2.752 0 0 0 -.768-1.508l-9.224-9.249a2.748 2.748 0 0 1 -.278-3.553l7.67-10.574a2.751 2.751 0 0 0 .523-1.609l.018-13.063a2.747 2.747 0 0 1 2.315-2.709l12.9-2.054a2.745 2.745 0 0 0 1.508-.768l9.249-9.224a2.748 2.748 0 0 1 3.553-.278l10.574 7.67a2.751 2.751 0 0 0 1.609.523z" fill="#ffc7d8"/><path d="m166.124 130.111a19.519 19.519 0 0 1 -13.051-4.978 17.016 17.016 0 0 1 -5.677-12.445 14.788 14.788 0 0 1 4.623-11.118c3.774-3.544 7.441-4.056 9.855-3.866 5.625.448 9.226 4.912 9.618 5.419a4.131 4.131 0 1 1 -6.537 5.052 6.338 6.338 0 0 0 -3.768-2.238c-.4-.029-1.629-.114-3.512 1.655a6.582 6.582 0 0 0 -2.018 4.994 8.866 8.866 0 0 0 2.921 6.388 11.352 11.352 0 0 0 16.009-.9 15.205 15.205 0 0 0 -1.2-21.469 18.4 18.4 0 0 0 -14.453-4.877c-5.218.67-9.829 3.81-13.333 9.084a4.131 4.131 0 1 1 -6.881-4.572c4.8-7.225 11.607-11.737 19.164-12.706a26.627 26.627 0 0 1 21.008 6.912 23.465 23.465 0 0 1 1.857 33.134 19.56 19.56 0 0 1 -14.625 6.531z" fill="#fff"/><path d="m239.531 216.266h-194.444c-1.98 69.792 35.7 92.438 53.039 98.682a14.475 14.475 0 0 1 6.95 5.331 499.048 499.048 0 0 0 74.466 0 14.474 14.474 0 0 1 6.952-5.331c17.338-6.248 55.017-28.892 53.037-98.682z" fill="#e9ebfc"/><path d="m105.06 320.29a14.732 14.732 0 0 1 2.619 6.932v.009a3.1 3.1 0 0 0 3.082 2.769h63.1a3.1 3.1 0 0 0 3.081-2.769v-.009a14.743 14.743 0 0 1 2.619-6.932z" fill="#acb9d4"/><path d="m47.4 248.859h189.821a139.456 139.456 0 0 0 2.044-16.621h-193.911a139.257 139.257 0 0 0 2.046 16.621z" fill="#acb9d4"/></svg>