<svg id="fill" height="512" viewBox="0 0 340 340" width="512" xmlns="http://www.w3.org/2000/svg"><path d="m44.9 166.022s-23.521.233-28.55 22.8a39.278 39.278 0 0 0 8.9 34.516 47.972 47.972 0 0 0 17.96 12.476 27.364 27.364 0 0 1 14.99 15.143c1.893 4.74 2.664 14.145 2.664 20.87l13.362-3.512v-40.515z" fill="#8eb260"/><path d="m81.257 268.315 1.644-23.67a19.109 19.109 0 0 1 7.635-13.9c7.994-6.039 19.129-18.522 11.96-38.157 0 0-7.6-17.335-1.034-40.04a71.841 71.841 0 0 0 2.083-31.089c-2.707-17.212-10.485-40.259-32.162-52.649a24.184 24.184 0 0 0 -34.977 13.866 65.191 65.191 0 0 0 -1.73 6.817 104.479 104.479 0 0 1 -3.489 13.33c-3.665 10.833-8.578 33.237 5.863 49.45a31.914 31.914 0 0 1 7.266 26.746c-1.757 10.1-1.219 22.9 8.239 33.2 9.923 10.8 16.986 23.951 19.507 38.4a84.5 84.5 0 0 1 1.346 17.7z" fill="#abd37d"/><path d="m68.62 115.156c8.245 38.125 20.332 105.677 15.619 156.544l-12.95.128s5.862-47.378-6.047-156.107a1.715 1.715 0 0 1 3.378-.565z" fill="#8eb260"/><path d="m284.427 114.564a38.791 38.791 0 0 1 14.289-9.218 19.488 19.488 0 0 1 25.856 18.2 53.86 53.86 0 0 1 -2.625 16.961 64.311 64.311 0 0 1 -3.743 9.276 79.876 79.876 0 0 0 -7.391 23.578 54.59 54.59 0 0 1 -11.313 26.945 169.875 169.875 0 0 1 -27.466 27.494s-9.798-77.474 12.393-113.236z" fill="#8eb260"/><path d="m237.782 169.583s-15.462-2.978-23.032 9.909a22.418 22.418 0 0 0 1.184 24.037c3.6 5.2 9.767 11.44 20.329 17.069a21.749 21.749 0 0 1 10.83 13.937c1.358 5.443 2.255 12.167.75 18.048h15.851l-4.894-56.483z" fill="#8eb260"/><path d="m295.419 78.307c.386-12.918-9.526-23.024-22.433-22.367-13.58.692-29.968 9.991-31.254 50.237 0 0-.318 33.661-5.716 49.54 0 0-13.338 43.188 27.628 64.465l7.668-2s4.106-26.565 18.374-41.237a42.352 42.352 0 0 0 5.4-6.616c5.626-8.781 12.977-30.3.183-49.846a26.278 26.278 0 0 1 -3.3-21.391 90.772 90.772 0 0 0 3.45-20.785z" fill="#abd37d"/><path d="m260.813 248.324s-12.553-101.9 9.553-162.639c0 0-3.276 106.5 6.837 162.639z" fill="#8eb260"/><path d="m270.123 242.619s-29.317-1.062-30.319 28.765a45.507 45.507 0 0 0 .979 10.655l7.334 35.794h47.4l5.078-39.651s5.923-35.563-30.472-35.563z" fill="#f9a364"/><path d="m78.546 259.985s-25.635-.816-26.512 22.124a30.906 30.906 0 0 0 .856 8.194l6.413 27.53h41.447l4.441-30.5s5.181-27.348-26.645-27.348z" fill="#f9a364"/><path d="m178.738 91.938s11.613-20.138 35.613-20.857a14.213 14.213 0 0 1 14.7 14.709 34.45 34.45 0 0 1 -4.375 15.046 23.394 23.394 0 0 0 -2.157 16.38c2.358 10.362 2.905 27.778-14.045 41.077-25.767 20.217-36.263 49.553-39.142 57.481-.004 0-25.082-78.003 9.406-123.836z" fill="#8eb260"/><path d="m133.19 96.451s-36.511 1.585-32.547 38.056c0 0 1.276 10.718 7.513 18.027a18.073 18.073 0 0 1 4.236 12.685c-.489 9.257 2.016 24.263 20.747 33.2a23.608 23.608 0 0 1 11.891 12.564c2.583 6.533 5.67 15.091 6.752 21.111h13.654l-6.288-115.894z" fill="#8eb260"/><path d="m160.89 24.529c-6.615 5.891-12.982 16.292-16.593 34.45a36.18 36.18 0 0 1 -7.313 15.628c-6.492 8.07-15.1 25.281-6.214 54.514a32.414 32.414 0 0 1 1.182 13.671c-.083.633-.163 1.3-.235 2.007a52.79 52.79 0 0 0 17.264 44.268c5.777 5.269 12.962 13.368 14.18 21.894 0 0 3.082-34.93 25.683-64.475a47.7 47.7 0 0 0 8.278-42.054q-.18-.623-.375-1.25a36.093 36.093 0 0 1 .858-23.679c4.774-12.425 9.836-31.752 2.907-46.514-7.231-15.407-26.912-19.78-39.622-8.46z" fill="#abd37d"/><path d="m160.172 232.094s-13.276-69.363-.537-126.384a2.1 2.1 0 0 1 4.159.371c1.1 29.936 4.288 99.159 10.864 126.013z" fill="#8eb260"/><path d="m169.041 225.826s-34.64-1.3-35.825 35.187a57.532 57.532 0 0 0 1.157 13.034l8.666 43.786h56l6-48.5s7.005-43.507-35.998-43.507z" fill="#f9a364"/><g fill="#e57c35"><path d="m74.224 281.348h-3.913a4 4 0 1 0 0 8h3.913a4 4 0 0 0 0-8z"/><path d="m72.267 295.625h-1.956a4 4 0 0 0 0 8h1.956a4 4 0 0 0 0-8z"/><path d="m160.539 252.246h-.165a37.438 37.438 0 0 0 -12.126 1.9 4 4 0 1 0 2.814 7.488 29.942 29.942 0 0 1 9.311-1.391h.149a4 4 0 0 0 .017-8z"/><path d="m156.732 267.561-3.5.307a4 4 0 0 0 .345 7.984q.175 0 .354-.015l3.5-.307a4 4 0 0 0 -.7-7.969z"/><path d="m266.169 264.588c-6.941.681-10.572 2.76-10.964 3a4.008 4.008 0 0 0 2.033 7.455 3.938 3.938 0 0 0 2.036-.568 21.411 21.411 0 0 1 7.676-1.922 4 4 0 1 0 -.781-7.96z"/><path d="m262.983 278.839a24.313 24.313 0 0 0 -7.783 2.561 4.008 4.008 0 0 0 2.034 7.454 3.939 3.939 0 0 0 2.037-.568 18.03 18.03 0 0 1 5.13-1.57 4 4 0 1 0 -1.422-7.874z"/></g><rect fill="#c17878" height="8" rx="4" width="287.366" x="36.988" y="313.834"/></svg>