<svg id="flat" height="512" viewBox="0 0 340 340" width="512" xmlns="http://www.w3.org/2000/svg"><path d="m203.3 292.278s6.007 17.107 23.123 32.657a13.192 13.192 0 0 0 8.868 3.425h21.48a5.4 5.4 0 0 0 4.639-8.175c-1.934-3.151-5.388-6.066-11.56-6.316-2.588-.105-4.717-.277-6.454-.475a18.251 18.251 0 0 1 -12.255-6.341c-4.374-5.441-7.084-10.724-9.251-20.843z" fill="#6f85d3"/><path d="m215.242 257.59s1.971 13.634-9.158 21.53a9.955 9.955 0 0 0 -3.684 4.918 10.11 10.11 0 0 0 .9 8.24 9.627 9.627 0 0 0 4.743 4.312 13.029 13.029 0 0 0 5.919 1.085 8.949 8.949 0 0 0 8.079-9.715c-.009-.117-.02-.235-.032-.353a34.779 34.779 0 0 1 3.008-18.818 60.725 60.725 0 0 1 7.778-12.46z" fill="#d2dfff"/><path d="m212.971 270.973a20.814 20.814 0 0 0 10.57 1.5 30.652 30.652 0 0 1 1.477-3.685 60.7 60.7 0 0 1 7.778-12.46l-17.554 1.261a25.661 25.661 0 0 1 -2.271 13.384z" fill="#6f85d3"/><path d="m92.266 137.049a15.742 15.742 0 0 0 -8.089 9.149 11.924 11.924 0 0 1 -5.975 6.828c-2.579 1.274-5.48 2.857-8.649 4.829a5.311 5.311 0 0 0 -1.195-3.529c-2.321-3.089-5.858-2.212-8.214-1.1a8.833 8.833 0 0 0 -5.095 10.138 7.535 7.535 0 0 1 -2.467 7.206c-2.172 1.906-4.4 3.971-6.68 6.219a41.7 41.7 0 0 0 -3.424 3.821 6.077 6.077 0 0 1 .293-1.262c.763-2.154 1-5.175-2.244-7.267-3.446-2.222-6.645-.048-8.581 1.929a9.217 9.217 0 0 0 -2.9 6.886 11.432 11.432 0 0 0 3.032 7.273 10.272 10.272 0 0 1 2.584 9.188 52.365 52.365 0 0 0 -.751 16.632l8.713 16.811 16.446 17.76 31.78 9.687 28.75-3.667 15.983-4.9-14.644-31.544c-4.58 10.437-8.3 16.009-16.52 18.481-1.37.411-2.755.745-4.148 1.017a6.787 6.787 0 0 1 2.67-4.654c2.7-2.015 2.818-4.267 2.256-6.023a6.854 6.854 0 0 0 -4.038-4.134c-5.289-2.163-12.68-2.265-12.68 6.432a31.033 31.033 0 0 1 -1.167 8.935 43.221 43.221 0 0 1 -18.337-6.29c-.579-.362-1.13-.733-1.668-1.108a6.462 6.462 0 0 1 5.051-2.394c3.216.012 4.6-1.636 5.18-3.3a6.541 6.541 0 0 0 -.7-5.471c-2.791-4.688-8.37-9.011-13.365-2.378a31.89 31.89 0 0 1 -4.675 5.067 30.482 30.482 0 0 1 -3.474-6.775 29.648 29.648 0 0 1 -1.677-12.292 5.359 5.359 0 0 1 3.019 1.7c1.745 1.966 3.5 1.924 4.838 1.377a5.349 5.349 0 0 0 2.972-3.378c1.368-4.288.988-10.14-5.851-9.562-.969.082-1.865.115-2.692.111a33.217 33.217 0 0 1 3.74-6.777 53.916 53.916 0 0 1 5.847-6.8s24.299-19.933 26.746-42.871z" fill="#d2dfff"/><path d="m130.606 238.969c-.169.126-9.67-20.83-9.67-20.83-4.344 9.9-7.919 15.417-15.292 18.069a28.031 28.031 0 0 0 .632 5.372 9.435 9.435 0 0 1 -8.458 11.32 65.117 65.117 0 0 1 -10.8-.08c-48.557-4.25-52.355-55.458-52.355-55.458a52.365 52.365 0 0 0 -.751 16.632 6.219 6.219 0 0 1 -3.635-3.721c-.85-2.313-2.73-4.986-6.865-4.489-4.38.527-5.544 4.517-5.794 7.489a10.444 10.444 0 0 0 2.32 7.727c1.867 2.169 5.182 4.222 10.977 3.761 0 0 3.34-.516 5.522 1.2.2.6.327.933.327.933a48.857 48.857 0 0 0 7.874 13.872 6.991 6.991 0 0 1 -2.182-.472c-2.473-.977-5.975-1.381-8.544 2.305-2.728 3.914-.335 7.725 1.883 10.058a11.259 11.259 0 0 0 7.884 3.666c3.029.052 6.97-1.108 10.7-5.873a59.676 59.676 0 0 0 22.388 10.707 6.725 6.725 0 0 1 -4.768 2.4c-2.653.174-5.992 1.305-6.738 5.736-.792 4.705 3 7.126 6 8.288a11.265 11.265 0 0 0 8.7-.058c2.812-1.272 5.947-4.078 7.236-10.215a9.9 9.9 0 0 1 1.726-4.168 79.738 79.738 0 0 0 20.568-.678 7.392 7.392 0 0 1 -4.27 5.434c-2.686 1.231-5.7 3.728-4.725 8.623 1.039 5.2 5.935 6.211 9.512 6.228a12.508 12.508 0 0 0 9-3.5c2.417-2.433 4.562-6.587 3.471-13.469 0 0-1.413-6 2.716-8.392v-.007c7.239-3.7 10.386-7.7 10.386-7.7z" fill="#6f85d3"/><path d="m136.421 291.68a61.56 61.56 0 0 1 18 27.571 12.76 12.76 0 0 0 12.195 9.109h21.522s3.161-9.922-10.753-12.954a24.2 24.2 0 0 1 -17.3-14.266 48.819 48.819 0 0 1 -3.981-18.387z" fill="#6f85d3"/><path d="m158.229 244.65s-1.2 14.3-13.343 28.658a54.46 54.46 0 0 1 -4.718 4.831c-2.33 2.146-6.724 7.057-4.588 12.007 2.848 6.6 11.04 5.894 11.04 5.894s9.284.9 10.145-9.829a37.16 37.16 0 0 1 3.465-13.261c5.071-10.47 14.742-28.191 24.637-34.193l-21.216-6.365z" fill="#6f85d3"/><path d="m298.668 96.7-6.4-.76a38.2 38.2 0 0 0 -2.811-16.834l.337-.156a10.879 10.879 0 0 1 5.814-.933 6.556 6.556 0 0 0 4.765-1.18 7.248 7.248 0 0 0 2.062-8.992 18.227 18.227 0 0 0 -2.944-4.423 10.392 10.392 0 0 0 -14-.988l-4.463 3.607a43.355 43.355 0 0 0 -11.918-9.358l-16.114 5.732 4.2 14.947s28.9 12.683 11.964 33.264c-4.352 5.289-13.479 10.815-20.191 14.731l5.882 14.35s1.915-.9 4.928-2.625a10.125 10.125 0 0 1 12.064 1.483 50.835 50.835 0 0 0 8.763 6.8 4.422 4.422 0 0 0 6.421-5.3 145.108 145.108 0 0 0 -7.442-17.46c.154-.144.308-.286.461-.432a39.8 39.8 0 0 0 8.336-11.422l1.472.563a10.945 10.945 0 0 1 4.739 3.525 6.555 6.555 0 0 0 4.124 2.566 7.2 7.2 0 0 0 7.858-4.649 18.175 18.175 0 0 0 1.15-5.118 10.385 10.385 0 0 0 -9.057-10.938z" fill="#d2dfff"/><path d="m251.749 207.164c-7.209-6.481-25.118-24.014-36.346-47.364 3.993-1.457 7.618-2.93 10.913-4.4 3.51 6.7 12.593 21.725 27.377 30.733a.984.984 0 0 0 1.365-1.319c-3.682-6.678-12.155-23-14.943-36.562a75.342 75.342 0 0 0 10.227-7.345 13.4 13.4 0 0 0 3.074-16.232l-3.818-7.447a4.856 4.856 0 0 1 -.145-4.272l.369-.821a5.3 5.3 0 0 0 -.05-4.63c-.79-1.492-2.4-2.907-5.7-2.6-3.127.288-5.974 2.128-8.1 3.984a8.349 8.349 0 0 0 -2.158 9.673 22.871 22.871 0 0 0 2.1 3.758 6.185 6.185 0 0 1 -1.341 8.511c-2.692 2.015-5.778 4.125-9.273 6.233l-1.344-2.522a4.854 4.854 0 0 1 -.145-4.273l.369-.821a5.3 5.3 0 0 0 -.057-4.642c-.792-1.487-2.406-2.894-5.693-2.591-3.126.288-5.973 2.129-8.1 3.984a8.351 8.351 0 0 0 -2.157 9.674 18.119 18.119 0 0 0 5.68 7.283c-3.456 1.61-7.181 3.154-11.183 4.581-2.361.842-4.6 1.742-6.753 2.678l-1.246-2.962a4.856 4.856 0 0 1 .248-4.268l.443-.784a5.3 5.3 0 0 0 .375-4.615c-.649-1.558-2.126-3.116-5.436-3.116-3.14 0-6.144 1.572-8.435 3.224a8.35 8.35 0 0 0 -3.036 9.434 17.7 17.7 0 0 0 6.105 8.693 90.6 90.6 0 0 0 -13.565 9.79l-1.285-1.806a4.855 4.855 0 0 1 -.692-4.219l.261-.861a5.3 5.3 0 0 0 -.643-4.586c-.975-1.378-2.757-2.575-5.986-1.851-3.057.685-5.641 2.868-7.514 4.976a8.378 8.378 0 0 0 -.927 9.858 26.779 26.779 0 0 0 4.021 5.02 6.278 6.278 0 0 1 -1.137 9.764l-.1.058 13.719 9.836c1.21-2.1 3.105-4.731 3.105-4.731s23.875 34.767 65.175 37.306a.984.984 0 0 0 .512-1.858c-10.259-5.154-36.565-20.494-52.23-48.781a91.115 91.115 0 0 1 11.941-7.577c3.011 5.862 18.507 33.054 51.234 42.476a.981.981 0 0 0 .925-1.671z" fill="#d2dfff"/><path d="m251.749 207.164c-7.209-6.481-25.118-24.014-36.346-47.364 3.993-1.457 7.618-2.93 10.913-4.4 3.51 6.7 12.593 21.725 27.377 30.733a.984.984 0 0 0 1.365-1.319c-3.682-6.678-12.155-23-14.943-36.562 4.371-2.659 6.905-6.51 9.426-8.695 4.65-4.032 6.684-9.405 3.875-14.882l-3.818-7.447a4.856 4.856 0 0 1 -.145-4.272l.369-.821a5.3 5.3 0 0 0 -.05-4.63c-.79-1.492-2.4-2.907-5.7-2.6-3.127.288-5.974 2.128-8.1 3.984a8.349 8.349 0 0 0 -2.158 9.673 22.871 22.871 0 0 0 2.1 3.758 6.185 6.185 0 0 1 -1.341 8.511c-2.692 2.015-5.778 4.125-9.273 6.233l-1.344-2.522a4.854 4.854 0 0 1 -.145-4.273l.369-.821a5.3 5.3 0 0 0 -.057-4.642c-.792-1.487-2.406-2.894-5.693-2.591-3.126.288-5.973 2.129-8.1 3.984a8.351 8.351 0 0 0 -2.157 9.674 18.119 18.119 0 0 0 5.68 7.283c-3.456 1.61-7.181 3.154-11.183 4.581-2.361.842-4.6 1.742-6.753 2.678l-1.246-2.962a4.856 4.856 0 0 1 .248-4.268l.443-.784a5.3 5.3 0 0 0 .375-4.615c-.649-1.558-2.126-3.116-5.436-3.116-3.14 0-6.144 1.572-8.435 3.224a8.35 8.35 0 0 0 -3.036 9.434 17.7 17.7 0 0 0 6.105 8.693 90.6 90.6 0 0 0 -13.565 9.79l-1.285-1.806a4.855 4.855 0 0 1 -.692-4.219l.261-.861a5.3 5.3 0 0 0 -.643-4.586c-.975-1.378-2.757-2.575-5.986-1.851-3.057.685-5.641 2.868-7.514 4.976a8.378 8.378 0 0 0 -.927 9.858 26.779 26.779 0 0 0 4.021 5.02 6.278 6.278 0 0 1 -1.137 9.764l-.1.058 13.719 9.836c1.21-2.1 3.105-4.731 3.105-4.731s23.875 34.767 65.175 37.306a.984.984 0 0 0 .512-1.858c-10.259-5.154-36.565-20.494-52.23-48.781a91.115 91.115 0 0 1 11.941-7.577c3.011 5.862 18.507 33.054 51.234 42.476a.981.981 0 0 0 .925-1.671z" fill="#d2dfff"/><path d="m239.879 222.717a128.379 128.379 0 0 1 -12.294-7.106c-24.138-3.827-38.186-23.35-43.744-32.97a5.425 5.425 0 0 0 -8-1.569c-1.566 1.2-2.6 2.042-2.6 2.042l.948 4.155s23.875 34.767 65.175 37.306a.984.984 0 0 0 .515-1.858z" fill="#6f85d3"/><path d="m181.121 188.679a26.488 26.488 0 0 0 -33.268-10.934c-9.374 3.926-20.632 12.745-25.706 32.52a79.958 79.958 0 0 1 -6.84 17.872 12.1 12.1 0 0 0 .1 11.507c3.306 6.013 9.866 14.183 21.719 16.341a21.47 21.47 0 0 0 18.979-5.928q.726-.726 1.568-1.5l22.96-23.978c2.724-5.508 5.128-19.448 5.128-19.448a43.042 43.042 0 0 0 -2.327-11.4 26.921 26.921 0 0 0 -2.313-5.052z" fill="#d2dfff"/><path d="m185.752 205.129c-3.815 10.345-11.681 12.155-11.681 12.155l-.827 10.568 3.986 2 4.239-4.054a40.615 40.615 0 0 0 4.283-20.669z" fill="#6f85d3"/><path d="m167.082 241.651a33.2 33.2 0 0 0 10.448-9.3c.444-.621.892-1.283 1.339-1.978l-23.108-16.211s-15.333 6.487-9.334 24.739c2.229 6.781 6.615 9.239 11.248 9.656a54.078 54.078 0 0 1 9.407-6.906z" fill="#6f85d3"/><path d="m150.644 227.029c.326 5.289 2.6 11.624 10.733 14.9a18.765 18.765 0 0 0 11.977.49c5.9-1.621 17.778-3 31.1 5.938a13.985 13.985 0 0 1 5.588 7.756c1.05 3.627 3.831 8.375 11.195 8.08.12 0 .238-.011.356-.018 14.719-.873 16.914-21.862 2.688-25.739a24.377 24.377 0 0 0 -5.779-.8 55.219 55.219 0 0 1 -11.045-1.4 66.119 66.119 0 0 1 -18.525-7.113 32.28 32.28 0 0 1 -9.582-9.083c-3.443-4.833-11.269-13.323-20.9-7.827a15.9 15.9 0 0 0 -7.806 14.816z" fill="#d2dfff"/><path d="m154.626 237.316s-5.761 5.459-15.011 1.282a12.554 12.554 0 0 1 -6.8-7.991 17.052 17.052 0 0 1 -.518-7.7 38.144 38.144 0 0 1 .822-3.952 1.308 1.308 0 0 0 -2.437-.92 32.375 32.375 0 0 0 -2.878 16.943c1.482 17.149 20.464 19.971 29.868 13.585z" fill="#6f85d3"/><path d="m291.053 83.9a38.207 38.207 0 0 0 -1.6-4.8l.337-.156a10.879 10.879 0 0 1 5.814-.933 6.556 6.556 0 0 0 4.765-1.18 7.248 7.248 0 0 0 2.062-8.992 18.227 18.227 0 0 0 -2.944-4.423 10.392 10.392 0 0 0 -14-.988l-4.463 3.607a43.355 43.355 0 0 0 -11.918-9.358l-16.114 5.732 4.2 14.947s8.07 3.544 13.182 9.922a71.086 71.086 0 0 1 20.679-3.378z" fill="#6f85d3"/><path d="m193.9 82.252s-1.678-6.345.656-15.228a1.015 1.015 0 0 1 1.965.019c1 4.018 3.12 10.33 7.181 14.373z" fill="#6f85d3"/><path d="m209.8 79.353a25.7 25.7 0 0 1 -.9-12.016.8.8 0 0 1 1.544-.167c1.158 3.062 3.408 7.821 6.97 10.618z" fill="#6f85d3"/><path d="m225.133 75.711a25.708 25.708 0 0 1 -4.972-10.976.8.8 0 0 1 1.393-.687c2.139 2.477 5.888 6.173 10.194 7.575z" fill="#6f85d3"/><path d="m234.279 56.685s-7.462 23.681-39.279 22.329c-3.558-.151-7.192 1.006-5.492 5.761 0 0 7.36 7.649 41.073 7.481 7.065-.035 24.6-6.346 24.6-6.346l3.819-22.752z" fill="#d2dfff"/><path d="m232.861 95.02a13.089 13.089 0 0 1 -3.632-4.427 7.994 7.994 0 0 1 2.034-9.718 17.02 17.02 0 0 1 1.869-1.365 1.464 1.464 0 0 0 -.963-2.7 11.384 11.384 0 0 0 -7.985 4.836c-3.439 4.7-3.573 8.745-2.729 11.732a50.726 50.726 0 0 1 9.158 1.184c.687.157 1.44.312 2.248.458z" fill="#6f85d3"/><path d="m203 38.316a27.786 27.786 0 0 0 -2.067 10.408 1.175 1.175 0 0 0 2.188.607c1.694-2.881 4.454-6.91 7.41-8.483z" fill="#6f85d3"/><path d="m213.969 42.71a21.913 21.913 0 0 0 -2.292 8.309.992.992 0 0 0 1.8.611c1.573-2.238 4.1-5.347 6.664-6.457z" fill="#6f85d3"/><path d="m234.279 56.685a29.593 29.593 0 0 1 -4.828 8.459 44.023 44.023 0 0 0 15.606 11.556 4.683 4.683 0 0 1 2.046 6.874c-2.351 3.434-7.666 6.678-19.677 3.308v7.082c1.067.169 2.131.36 3.187.6 6.892 1.553 20.893 3.268 26.909-6.44a25.559 25.559 0 0 0 1.478-24.966z" fill="#6f85d3"/><path d="m223.074 48.011a20.25 20.25 0 0 0 -2.355 7.615.917.917 0 0 0 1.646.616c1.519-2.024 3.945-4.825 6.343-5.779z" fill="#6f85d3"/><path d="m186.959 32.487a49.174 49.174 0 0 0 4.465 14.852 1.174 1.174 0 0 0 2.216-.285c.563-3.1 1.623-7.513 3.388-9.994z" fill="#6f85d3"/><path d="m251.184 23.073-8.434.446a13.253 13.253 0 0 1 -7.925-2.1c-5.414-3.523-16.57-9.777-27.525-9.777 0 0-15.254-.32-21.552 17.524a5.829 5.829 0 0 0 4.232 7.606c8.456 1.887 24.327 6.7 36.87 17.876 8.727 7.779 16.166 12.059 21.512 14.405a13.232 13.232 0 0 0 14.571-2.669l7.806-7.638a21.453 21.453 0 0 0 6.344-18.869 16.908 16.908 0 0 0 -4.88-9.47 26.714 26.714 0 0 0 -8.937-5.461 29.2 29.2 0 0 0 -12.082-1.873z" fill="#d2dfff"/><g fill="#6f85d3"><path d="m247.051 52.681q.147.169.3.339a8.19 8.19 0 0 0 9.1 2.131 14.007 14.007 0 0 0 6.475-6.151c2.911-4.921 1.332-8.306-.667-10.351a8.084 8.084 0 0 0 -7.913-2c-3.319.907-5.96 3.147-7.994 6.577a8.159 8.159 0 0 0 .699 9.455z"/><path d="m225 32.63c-.064.065-.128.133-.191.2a4.8 4.8 0 0 0 -.766 5.568 8.439 8.439 0 0 0 4.2 3.442c3.22 1.4 5.218.235 6.362-1.094a4.743 4.743 0 0 0 .758-4.852 8.037 8.037 0 0 0 -4.553-4.322 5.24 5.24 0 0 0 -5.81 1.058z"/><path d="m206.777 30.893a22.367 22.367 0 0 1 -2.567-.711 3.464 3.464 0 0 1 2.361-6.513l1.387.5a3.465 3.465 0 0 1 -1.181 6.722z"/><path d="m226.774 93.871-3.307-7.187a93.2 93.2 0 0 0 -19.765.6 23.118 23.118 0 0 1 -14.184-2.515 14.845 14.845 0 0 0 1.288 2.658c2.111 3.515 6.22 5.333 10.32 5.434l19.541.479a51.344 51.344 0 0 1 6.107.531z"/><path d="m140.543 205.076a1.914 1.914 0 0 0 -3.306-1.375 10.568 10.568 0 0 0 -1.877 2.739 8.941 8.941 0 0 0 -.85 3.2 1.916 1.916 0 0 0 3.342 1.41 11.7 11.7 0 0 0 2-2.965 8.288 8.288 0 0 0 .691-3.009z"/><path d="m78.072 182.658c6.193-3.527 2.365-9.272-.516-12.424 3.02-2.017 6.035-3.817 8.88-5.411 2.2 2.7 5.587 6.987 10.817 4.143 3.015-1.64 3.743-3.572 3.516-5.313a10.173 10.173 0 0 1 3.619-9.5 42.408 42.408 0 0 0 7.9-7.654c13.926-18.819 4.719-34.325-1.172-41.249a1.366 1.366 0 0 0 -2.371 1.182 36.091 36.091 0 0 1 -2.08 21.541 39.867 39.867 0 0 1 -7.042 11.283c-2.722-4.452-7.359-2.2-7.359-2.2a15.742 15.742 0 0 0 -8.089 9.149c-6.175 17.152-18.66 33.717-18.66 33.717.935 1.584 4.885 7.103 12.557 2.736z"/><path d="m247.9 130.466c-10.856 5.73-7.783 17.789-7.783 17.789a79.325 79.325 0 0 0 8.554-5.952l1.433-1.894 1.595-.886a13.273 13.273 0 0 0 1.892-2.88l.61 1.488 7.9-4.39a2.585 2.585 0 0 0 -.428-4.7c-3.216-1.131-7.998-1.623-13.773 1.425z"/><path d="m286.357 176.441s12.845.749 20.782-.565a13.468 13.468 0 0 1 4.009-.031 12.97 12.97 0 0 1 11.238 12.1c.34 6.351-1.205 14-8.991 18.623a1.308 1.308 0 0 1 -1.969-1.253c.459-4.3.441-12.952-6.6-15.416-9.494-3.321-16.113.612-16.113.612z"/></g><path d="m293.534 182.313a8.544 8.544 0 0 0 -7.177-5.872 9.049 9.049 0 0 1 -7.066-4.429c-2.875-5.25-5.251-14.752-5.251-14.752a115.3 115.3 0 0 1 -.48-14.563c.343-7.19-5.722-12.217-12.92-12.231-11.072-.021-14.6 11.668-14.6 11.668s-3.063 10.238 7.143 14.308a12.728 12.728 0 0 1 7.115 7.483 59.287 59.287 0 0 0 13.673 21.627 16.815 16.815 0 0 1 3.361 4.407 8.892 8.892 0 0 0 9.588 5.056c8.1-.947 7-11 7-11a10.531 10.531 0 0 0 -.386-1.702z" fill="#d2dfff"/><path d="m251.749 207.164c-2.515-2.262-6.336-5.873-10.719-10.6-20.292-7.177-29.85-23.709-33.071-30.635a3.471 3.471 0 0 0 -4.72-1.638c-2.047 1.044-3.649 2.072-3.649 2.072 3.011 5.862 18.507 33.054 51.234 42.476a.981.981 0 0 0 .925-1.675z" fill="#6f85d3"/><path d="m251.086 177.246a40.954 40.954 0 0 1 -17.312-21.1 3.436 3.436 0 0 0 -4.567-1.964l-2.891 1.221c3.51 6.7 12.593 21.725 27.377 30.733a.984.984 0 0 0 1.365-1.319c-1.027-1.863-2.427-4.477-3.972-7.571z" fill="#6f85d3"/></svg>