<svg id="Flat" height="512" viewBox="0 0 340 340" width="512" xmlns="http://www.w3.org/2000/svg"><path d="m181.159 181.482h24.541s-3.186-19.756 16.889-25.81 34.411-14.972 41.738-26.767a39.377 39.377 0 0 1 -6.229 2.918 34.969 34.969 0 0 1 -15.719 1.9c-4.886-.483-13.734-.395-21.9 4.722a53.007 53.007 0 0 1 -13.179 6.215c-8.525 2.489-22.269 10.582-26.141 36.822z" fill="#3e6869"/><path d="m260.184 56.891s.319 50.983-42.7 69.146c0 0-22.973 9.739-27.583 41.817-14.324.875-18.8-10.483-15.76-26.051a71.893 71.893 0 0 1 22.02-23.803 59.544 59.544 0 0 0 18.569-20.12c7.38-13.269 21.799-32.902 45.454-40.989z" fill="#76a59d"/><path d="m189.92 167.857c-17.471-4.21-16.976-19.232-15.778-26.054a80.7 80.7 0 0 0 -10.508 39.679h25.492a82.444 82.444 0 0 1 .794-13.625z" fill="#3e6869"/><path d="m167.053 165.763c-.068-12.287 2.281-30.938 14.5-47.175a51.04 51.04 0 0 0 12.474-26.2 41.685 41.685 0 0 1 11.381-22.876c11.164-11.345 26.292-32.156 23.164-59.512 0 0-26.114 2.327-42.3 30.136a46.139 46.139 0 0 1 -8.92 11.082c-5.808 5.242-14.834 17.213-17.536 42.229a103.091 103.091 0 0 1 -3.972 18.831 140.4 140.4 0 0 0 -5.042 27.782l5.198 26.356c4.564 2.125 8.316 2.084 11.053-.653z" fill="#76a59d"/><path d="m167.057 165.763a7.011 7.011 0 0 1 -7.13-4.8 154.554 154.554 0 0 0 -9.118-20.907 260.8 260.8 0 0 0 -.371 39.192h17.767a75.879 75.879 0 0 1 -1.148-13.485z" fill="#3e6869"/><path d="m77.6 121.9a27.366 27.366 0 0 0 7.779 3.356 40.931 40.931 0 0 0 11.349 1.578 41.83 41.83 0 0 1 22.133 6.894 45.8 45.8 0 0 1 13.42 13.521c4.695 7.182 12.87 20.846 15.1 32.008h-20.392s-2.549-17.207-22.943-28.679-26.446-28.678-26.446-28.678z" fill="#3e6869"/><path d="m85.246 56.891s-10.574 34.744 16.841 57.236a40.552 40.552 0 0 1 13.544 20.561 34.884 34.884 0 0 0 9.56 16.268 39.952 39.952 0 0 1 5.137 5.769 70.9 70.9 0 0 1 5.4 8.914 14.319 14.319 0 0 0 19.3 1.7c-1.9-9.425-6.04-22.7-14.98-33.147a48.206 48.206 0 0 1 -10-19.595c-4.278-16.969-15.731-46.611-44.802-57.706z" fill="#76a59d"/><path d="m140.372 179.252h16.251a82.2 82.2 0 0 0 -1.6-11.908 23.129 23.129 0 0 1 -19.3-1.7 47.084 47.084 0 0 1 4.649 13.608z" fill="#3e6869"/><path d="m113.264 177.033h103.448a6.952 6.952 0 0 1 6.953 6.692c.74 19.837 3.191 78.119 7.06 97.036 0 0 6.516 29.991 34.663 39.615 0 0 9.122 3.09 10.164 9.624h-55.259a21.761 21.761 0 0 1 -12.983-4.3c-1.28-.951-2.711-1.972-4.209-2.967a20.282 20.282 0 0 0 -20.2-1.3 36.71 36.71 0 0 0 -6.313 3.922 16.162 16.162 0 0 1 -12.369 3.364c-13.763-2.111-42.97-5.613-60.177-.573a48.656 48.656 0 0 1 -13.683 1.854h-25.911s3.909-9.364 17.983-15.618c9.8-4.357 25.041-14.782 23.7-32.245-2.6-27.166-2.243-56.158 0-86.312l.177-11.937a6.959 6.959 0 0 1 6.956-6.855z" fill="#b5798d"/><g fill="#6d455a"><path d="m100.36 206.949-3.645 2.651a8.738 8.738 0 0 0 -3.6 7.067v30.3a23.926 23.926 0 0 0 4.29 13.8c5.672 8.044 8.246 15.152 8.723 21.369v-86.311a14.015 14.015 0 0 1 -5.768 11.124z"/><path d="m122.794 314.982a3.5 3.5 0 0 1 -1.945-6.412c2.478-1.652 3.792-8.545 3.9-12.683v-37.735a3.5 3.5 0 1 1 7 0v37.822c-.056 2.4-.654 14.179-7.015 18.42a3.482 3.482 0 0 1 -1.94.588z"/><path d="m128.247 246.342a3.5 3.5 0 0 1 -3.5-3.5v-.742a3.5 3.5 0 1 1 7 0v.742a3.5 3.5 0 0 1 -3.5 3.5z"/><path d="m128.247 231.31a3.5 3.5 0 0 1 -3.5-3.5v-31.984a3.5 3.5 0 1 1 7 0v31.984a3.5 3.5 0 0 1 -3.5 3.5z"/><path d="m155.308 302.92a3.5 3.5 0 0 1 -3.5-3.5v-102.52a3.5 3.5 0 1 1 7 0v102.52a3.5 3.5 0 0 1 -3.5 3.5z"/><path d="m185.063 242.49a3.5 3.5 0 0 1 -3.5-3.5v-43.164a3.5 3.5 0 0 1 7 0v43.164a3.5 3.5 0 0 1 -3.5 3.5z"/><path d="m185.063 293.865a3.5 3.5 0 0 1 -3.5-3.5v-30.313a3.5 3.5 0 0 1 7 0v30.313a3.5 3.5 0 0 1 -3.5 3.5z"/><path d="m222.742 320.778a3.488 3.488 0 0 1 -2.3-.862c-17.029-14.848-16.384-41.454-16.31-43.452v-80.638a3.5 3.5 0 0 1 7 0v80.707q0 .075 0 .15c-.011.246-.847 25.087 13.913 37.957a3.5 3.5 0 0 1 -2.3 6.138z"/><path d="m238.446 330c-25.677-4.355-28.065-23.975-40.414-30.58-7.439-3.979-14.879-1.7-19.618.733a4.277 4.277 0 0 1 -6.175-4.171 10.614 10.614 0 0 1 3.777-7.761s18.892-16.567 39.735 10.235a76.511 76.511 0 0 1 5.639 8.514 47.707 47.707 0 0 0 35.684 23.03z"/></g></svg>