<svg id="flat" height="512" viewBox="0 0 340 340" width="512" xmlns="http://www.w3.org/2000/svg"><path d="m96.9 44.932s14.945-14.352 37.133-14.116a67.207 67.207 0 0 0 29.289-6 6.763 6.763 0 0 1 8.916 9.211c-3.888 7.4-11.413 15.269-25.911 19.618 0 0-7.527 17.061-32.115 16.058 0 0-5.386 11.29-22.978 9.032a112.889 112.889 0 0 0 -31.466.3z" fill="#566181"/><path d="m279.3 212.125s4.856 21.784 23.5 25.33a1.893 1.893 0 0 1 .746 3.376c-5.068 3.78-15.706 8.7-29.079-1.963z" fill="#7e896d"/><path d="m186.908 311.5s7.006 1.864 16.47-2.4a18.751 18.751 0 0 1 22.342 5.68c.087.108.174.218.261.328a24.855 24.855 0 0 0 -2.262-9.38 17.649 17.649 0 0 0 -17.506-10.321 32.976 32.976 0 0 0 -12.246 3.462z" fill="#e06935"/><path d="m157.857 260.726s17.453 23.949 22.252 45.383a6.948 6.948 0 0 0 6.8 5.389 6.954 6.954 0 0 0 6.477-4.364c2.355-5.946 7.9-16.454 19-21.716 0 0-12.537-6.434-24.249 5.278a70.289 70.289 0 0 1 -8.413-34.311z" fill="#e06935"/><path d="m217.309 219.527s-13.461 31.005-37.545 43.553a30.082 30.082 0 0 1 -11.371 2.608 12.487 12.487 0 0 1 -10.536-4.962 20.454 20.454 0 0 1 -3.8-13.432c.607-12.953 12.75-27.121 12.75-27.121z" fill="#7e896d"/><path d="m317.732 147.581s17.72-38.623-5.185-79.115a18.657 18.657 0 0 0 13.5-3.272s-5.317-2.659-8.385-6.545-6.953-10.02-12.27-10.429c0 0 7.157-2.659 10.327-9.408a31.534 31.534 0 0 1 -11.554 0c-5.726-1.227-11.453-3.885-17.792-1.431a11.778 11.778 0 0 0 5.317-8.794s-11.416-1.668-24.69 6.487a35.962 35.962 0 0 1 -17.994 5.173c-6.877.164-15.56.219-22.264-.248a19.7 19.7 0 0 0 -20.742 15.208q-.071.324-.135.659a7.235 7.235 0 0 0 4.728 8.312 14.316 14.316 0 0 0 3.178.607s-1.336 6.78-1.327 6.809a6.117 6.117 0 0 0 4.056 4.016 76.117 76.117 0 0 0 16.545 2.7 37.43 37.43 0 0 1 15.106 4.94 46.724 46.724 0 0 0 17.941 5.326c15.984 1.567 47.26 20.193 51.64 59.005z" fill="#dbdba1"/><path d="m45.936 106.264a31.163 31.163 0 0 0 12.685 27.22 47.651 47.651 0 0 0 10.541 5.833 50.912 50.912 0 0 0 33.926-.14c7.068-2.492 20.166-6.363 30.069-4.948 0 0-3.046-2.765-4.071-9.413a26.1 26.1 0 0 1 17.59 1.586c8.547 4.022 10.123 4.525 16.965 4.7a18.728 18.728 0 0 1 -2.185-10.092 27.622 27.622 0 0 1 17.478 4.994 33.836 33.836 0 0 0 16.3 6.188s-5.852-5.852-5.088-11.449c0 0 8.569 1.854 20.133 10.054s33.318 6.1 33.318 6.1 40.35-3.256 25.79-42.214l37.4 32.122s-7.99 81.029-105.758 87.611c0 0-47.063 10.8-81.185 5.447l-6.071-18.628s-28.174 7.359-48.989-4c0 0 4.625-2.313 9.882-5.467 0 0-19.379 1.262-30.294-10.933 0 0 5.068.175 7.2-.535s3.838-2.274 8.1-2.7c0 0-38.575-11.6-44.738-48.41-6.087-36.335 18.251-56.955 18.251-56.955s11.483-11.166 32.715-14.848c-12.111 17.513-19.091 33.873-19.964 48.877z" fill="#dbdba1"/><path d="m238.45 168.02c-12.267 5.265-29.036 15.7-37.55 35.224l24.753-3.145 18.528-24.784a4.8 4.8 0 0 0 -5.731-7.295z" fill="#7e896d"/><path d="m219.14 179.568s-23.479 16.416-50.14 5.858c-20.653-8.177-19.95 30.9-19.95 30.9l21.231 3.176c15.118-1.773 27.037-4.276 30.02-4.929z" fill="#7e896d"/><path d="m266.092 88.577s2.507 8.874 13.893 21.513a35.247 35.247 0 0 1 7.249 13.334 47.158 47.158 0 0 1 -4.142 36.5c-9.645 17.546-32.929 42.654-86.994 41.492l-19.822 29.147s24.471 5.647 53.513-9.143l44.1-21.244s32.614-16.386 44.706-51.295a60 60 0 0 0 -23.508-69.822c-.232-.154-.467-.307-.7-.461a7.845 7.845 0 0 0 -10.705 2.021l-.11.16c-3.496 5.109-8.072 7.529-17.48 7.798z" fill="#fce2cb"/><path d="m314.054 159.46-.121.059a10.49 10.49 0 0 1 -14.61-7.8c-.486-2.673-.931-4.4-.931-4.4a91.606 91.606 0 0 0 -15.219-32.966h-.007a38.6 38.6 0 0 1 4.068 9.071 47.158 47.158 0 0 1 -4.142 36.5c-9.645 17.546-32.929 42.654-86.994 41.492l-19.822 29.147s24.471 5.647 53.513-9.143l44.1-21.244s25.986-13.076 40.165-40.716z" fill="#e2a083"/><path d="m276.118 236.126c-13.637 40.137-27.079 44.436-40.364 19.344-1.32-8.874-1.959-18.162-8.073-24.121l-6.545-19.224-5.756-13.3a77.379 77.379 0 0 1 34.22-34.025z" fill="#7d96d2"/><path d="m254.666 262.6a7.432 7.432 0 0 1 -4.325 3.036c-2.815.671-7.447-.738-7.739-10.445 0 0-11.918-2.573-3.564-25.1 0 0-17.007 2.536-11.636-19.692 0 0-13.277-1.491-6.234-21.119a83.38 83.38 0 0 0 -11.705 24.289 5.26 5.26 0 0 0 7.846 5.958 23.891 23.891 0 0 0 3.693-2.71 46.675 46.675 0 0 0 -7.855 17.248 7.612 7.612 0 0 0 11.8 7.939c3.145-2.214 5.12-3.793 5.12-3.793a38.819 38.819 0 0 0 -7.611 14.779c-2.243 8.047 7.332 14.086 13.567 8.526.214-.191.322-.294.322-.294a56.554 56.554 0 0 0 -6.559 15.977 6.261 6.261 0 0 0 9.32 6.766 47.8 47.8 0 0 0 6.305-4.377 34.33 34.33 0 0 0 -6.911 11.372 5.773 5.773 0 0 0 9.085 6.54c22.009-17.958 30.374-59.289 30.374-59.289l-7.216-18.684s-2.453 23.431-16.077 43.073z" fill="#4a5074"/><path d="m251.835 163.218a25.643 25.643 0 0 0 -7.541 7.327 18.372 18.372 0 0 0 1.755 23.234c6.647 7 15.625 20.424 18.906 43.766 1.018 7.245 11.265 7.774 13 .666l-6.095-48.753a84.789 84.789 0 0 0 -5.637-9.25z" fill="#dbdba1"/><g fill="#7e896d"><path d="m250.681 67.1a23.17 23.17 0 0 0 -6.5-1.13 116.774 116.774 0 0 1 -12.833-1.182c-12.93-1.807-17.572 0-17.572 0s-2.763 1.976-1.354 6.722c.009.03.022.057.031.086a27.9 27.9 0 0 1 6.947-2.246 35.324 35.324 0 0 1 13.833.269c2.9.608 7.4 1.268 10.36.322a19.434 19.434 0 0 1 6.63-.492 1.207 1.207 0 0 0 .458-2.349z"/><path d="m265.886 55.059a3.465 3.465 0 0 1 -.946-6.8l2.518-.716a3.464 3.464 0 1 1 1.9 6.663l-2.519.717a3.474 3.474 0 0 1 -.953.136z"/><circle cx="222.579" cy="52.62" r="3.439"/><path d="m175.116 187.832a13.586 13.586 0 0 0 -5.9-23.009 35.683 35.683 0 0 0 -16.977-.571 30.387 30.387 0 0 0 -20.541 16.6c-7.331 14.928-17.927 20.377-17.927 20.377a31.61 31.61 0 0 0 -7.089 6.064 15.615 15.615 0 0 1 -6.682 4.544 8.434 8.434 0 0 1 -2.422.54c10.37 6.573 26.018 8.824 42.026 8.964z"/></g><path d="m81.024 287.783s7.656-10.5 20.652-10.5c0 0 7.833 1.246 13.53 10.5 0 0-14.954-3.994-23.5 11.088 0 0-11.216.129-10.682-11.088z" fill="#e06935"/><path d="m90.019 231.837a36.367 36.367 0 0 0 -9.581 5.174 10.451 10.451 0 0 0 -3.977 9.976c1.713 10.474 3.691 35.174-11.519 51.884 0 0-1.163 6.488 7.75 11.429a9.827 9.827 0 0 0 8.354.5c7.021-2.757 23.1-6.987 36.277 5.049 0 0 2.792-16.156-9.887-17.9a6.964 6.964 0 0 0 -2.54.14c-3.624.853-15.55 2.837-18.272-7.143-3.22-11.807 6.436-35.192 20.07-40.781z" fill="#fcad5c"/><path d="m141.313 181.4c-7.584 14.358-21.727 41.81-51.294 50.433a33.8 33.8 0 0 0 16.675 18.328 30.741 30.741 0 0 1 24.595 4.6 22.527 22.527 0 0 0 23.286.944c13.709-7.471 32.882-22.83 41.051-52.469 0 0 12.57-35.65-32.051-34.17-7.275.25-17.244 2.834-22.262 12.334z" fill="#dbdba1"/><path d="m45.947 106.265a30.48 30.48 0 0 1 14.317-23.96 41.523 41.523 0 0 1 9.536-4.426 40.58 40.58 0 0 0 9.4-4.252c17.769-11.135 17.7-28.695 17.7-28.695s-10.776 9.422-29.17 12.161c-.618.092-1.225.193-1.827.3-20.803 24.468-19.956 48.872-19.956 48.872z" fill="#7e896d"/><path d="m265.827 240.081c2.746 4.7 10.625 4.286 12.128-1.87a68.05 68.05 0 0 0 -6.1-48.749c3.273 23.154-5.967 50.438-6.028 50.619z" fill="#7e896d"/><path d="m237.248 256.385s8.209-11.927 15.544-24.28a1.524 1.524 0 0 1 2.732 1.325c-3.763 9.936-8.744 21.445-13.652 27.84z" fill="#4a5074"/><path d="m231.728 233.522s8.016-11 15.273-22.027a1.353 1.353 0 0 1 2.38 1.266c-3.891 9.191-9.347 20.713-14.669 27.325z" fill="#4a5074"/><path d="m221.136 211.3s6.331-8.083 14.035-16.034a1.769 1.769 0 0 1 2.815 2.1c-3.6 6.336-8.4 14.572-12.822 21.4z" fill="#4a5074"/></svg>