<svg id="Flat" height="512" viewBox="0 0 340 340" width="512" xmlns="http://www.w3.org/2000/svg"><path d="m288.154 271.1a113.282 113.282 0 0 1 13.327-13.052 91.9 91.9 0 0 0 17.177-17.92s4.34 28.868-10 45.039c0 0 12.039-3.3 18.443-9.957 0 0 4.611 25.225-13.064 40.661h-33.3z" fill="#82936e"/><path d="m273.816 254.462s8.435 9.184 15.363 17.932a13.758 13.758 0 0 1 2.881 10.061c-.913 8.217-3.6 23.481-11.328 33.416h-40.984z" fill="#6f7aa8"/><path d="m179.3 279.052s19.276-32.015 48.916-50.693a13.228 13.228 0 0 1 14.376.19c8.8 5.861 23.743 16.512 31.228 25.913 0 0 4.867 46.742-34.068 61.409h-32.279z" fill="#aab4db"/><path d="m166.809 315.871h40.664s16.906-5.056 22.541-26.829c0 0-13.832.769-25.871 5.38 0 0 9.99-12.04 8.965-35.349 0 0-16.65 20.218-26.9 22.148 0 0 4.355-19.843-3.074-32.4 0 0-3.073 9.99-7.94 16.394s-23.947 20.876-8.385 50.656z" fill="#c9d38c"/><path d="m109.248 24.155a27.16 27.16 0 0 0 -11.386 3.464 11.807 11.807 0 0 0 -2.647 18.443c2.818 2.883 7.056 5.377 13.415 6.046 8.234.867 13.286-2.524 16.317-6.308a11.82 11.82 0 0 0 -1.714-16.326 22.055 22.055 0 0 0 -12.033-5.281 10.834 10.834 0 0 0 -1.952-.038z" fill="#6f7aa8"/><path d="m120.287 174.756s23.669-3.239 22.423-31.392c-.274-6.2-2.254-10.774-5.175-14.13l-54.241 1.894a30.268 30.268 0 0 0 -6.608 10.492s-5.83 26.409 23.868 34.631z" fill="#6f7aa8"/><path d="m102.712 174.756a104.551 104.551 0 0 0 -22.872-.092 18.155 18.155 0 0 0 -13.889 9.564 110.307 110.307 0 0 0 -8.394 20.45 10.8 10.8 0 0 0 1.552 9.225c2.963 4.135 8.97 9.439 20.5 10.185h16.76z" fill="#6f7aa8"/><path d="m113.456 221.147h16.913a14.677 14.677 0 0 1 13.546 9c7.241 17.29 22.051 56.057 22.894 85.722h-32.775z" fill="#6f7aa8"/><path d="m85.43 221.147h28.026a11.685 11.685 0 0 1 10.8 7.182c3.309 7.973 8.078 21.582 9.032 35.648 0 0 10.8 25.2 7.821 51.894h-49.173l-27.845-54.484c2.3-11.621 5.733-23.471 10.835-33.725a11.735 11.735 0 0 1 10.504-6.515z" fill="#aab4db"/><path d="m87.4 221.147s-9.716-8.769-3.488-25.462c1.884-5.047 3.516-8.956 4.878-11.952a15.29 15.29 0 0 1 13.923-8.977h35a11.184 11.184 0 0 1 11.124 10.091c.9 9.073 1.815 21.854.6 27.78 0 0-2.156 8.52-19.068 8.52z" fill="#aab4db"/><path d="m83.3 131.132c2.862 7.137 10.939 19.457 32.626 19.457 18.774 0 21.946-12.064 21.607-21.352-10.335-11.874-32.443-8.546-32.443-8.546s-12.705 1.054-21.79 10.441z" fill="#aab4db"/><path d="m104.426 89.893 27.774-1.811a10.09 10.09 0 0 1 8.639 3.9 10.118 10.118 0 0 1 2.11 6.1c.075 7.3-1.448 23.314-15.962 25.826h-19.932s-12.238-2.2-13.783-17 11.154-17.015 11.154-17.015z" fill="#aab4db"/><path d="m104.426 89.893-15.8 1.031a9.007 9.007 0 0 0 -8.306 7.51c-.712 4.306-1.24 9.805-.392 14.2 1.645 8.541 14.162 11.266 14.162 11.266h12.965c-7.858-5.188-7.876-12.672-7.876-22.356a14.842 14.842 0 0 1 5.247-11.651z" fill="#6f7aa8"/><path d="m95.7 90.462s-6.52-2-7.247-12.908l33.989-22.538s16.564 13.1 3.829 33.452z" fill="#6f7aa8"/><path d="m88.455 77.554s12.009 5.288 25.991-4.815 8-17.723 8-17.723-8.725-11.087-26.173 0c-14.014 8.903-7.818 22.538-7.818 22.538z" fill="#aab4db"/><path d="m91.936 315.871s-4.27-33.157-27.832-54.525a66.048 66.048 0 0 0 -26.609-14.775s7.2 17.507 10.312 30.937c0 0-14.291-19.186-35.445-22.783a45.4 45.4 0 0 1 9.3 13.784c4.077 9 6.475 24.109 14.869 31.543 0 0-9.015-7.914-24.173-8.394 0 0 12.182 11.973 13.381 24.213z" fill="#c9d38c"/><g fill="#6f7aa8"><circle cx="110.427" cy="132.609" r="3.899"/><circle cx="106.528" cy="62.876" r="3.899"/><circle cx="125.012" cy="135.027" r="3.899"/><circle cx="133.655" cy="189.659" r="3.899"/><circle cx="118.047" cy="191.087" r="3.899"/><circle cx="127.588" cy="202.977" r="3.899"/><circle cx="91.467" cy="239.004" r="3.899"/><circle cx="82.357" cy="255.716" r="3.899"/><circle cx="98.961" cy="252.726" r="3.899"/><circle cx="235.848" cy="244.927" r="3.899"/><circle cx="248.471" cy="254.462" r="3.899"/><circle cx="231.949" cy="260.336" r="3.899"/></g></svg>