<svg id="flat" height="512" viewBox="0 0 340 340" width="512" xmlns="http://www.w3.org/2000/svg"><path d="m207.6 230.471s-25.111 16.026-39.49 35.88a37.848 37.848 0 0 0 -7.4 20.423 32.82 32.82 0 0 0 .407 6.985 11.584 11.584 0 0 0 3.346 6.329 24.561 24.561 0 0 1 5.359 7.725 6.173 6.173 0 0 1 -5.7 8.571h-7.7a11.368 11.368 0 0 1 -10.648-7.456 43.344 43.344 0 0 0 -5.174-10.113 17.511 17.511 0 0 1 -3.337-12.067l1.069-10.185a25.481 25.481 0 0 1 4.919-12.563c5.845-7.85 15.678-23.984 14.348-42.273z" fill="#4a5465"/><path d="m294.357 164.437a181.217 181.217 0 0 0 0 36.666c1.374 12.462-.046 20.806-3.935 26.438-3.712 5.376-12.94 2.848-12.861-3.475a31.365 31.365 0 0 1 1.375-8.3c4.44-15.3-1.377-33.326-1.377-33.326z" fill="#4a5465"/><path d="m269.052 66.913s-9.5-3.718-18.729-3.209a5.505 5.505 0 0 1 -5.834-4.907c-.055-.528-.093-1.081-.107-1.654a9.777 9.777 0 0 1 7.856-9.8c6.017-1.214 15.463-4.625 21.053-14.207l34.509-2.89s3.907 10.732 8.754 22.11c7.718 18.117 16.519 33.782 8.015 69.067l-26.069-47.37s-19.016 1.425-29.448-7.14z" fill="#8ea0a9"/><path d="m320.908 80.037c-1.378 10.946-5.227 15.636-9.74 17.035l13.4 24.351c6.412-26.607 2.984-42.057-2.4-55.816-.202 4.365-.598 9.168-1.26 14.43z" fill="#4a5465"/><path d="m145.1 237.077s-38.789 81.505-137.151 87.577c0 0 .7-6.043 15.922-12.029a105.9 105.9 0 0 0 25.49-14.17c17.184-13.085 43.56-38.45 65.146-82.181 0 0 17.554-37.519 44.231-59.959a212.434 212.434 0 0 0 18.468-17.3c15.3-16.338 48.32-45.879 81.469-38.4a42.98 42.98 0 0 1 7.162 2.4c3.548 1.494 10.845 3.222 16.856-.885 11.417-7.8.683-21.075.683-21.075l26.033-5.944s23.679 68-15.18 88.04l-67.395 56.159h-42.5z" fill="#8ea0a9"/><path d="m268.232 121.5c-4.689 0-12.415-.9-12.415-4.019 0-2.271 4.688-2.538 6.573-2.331.248.025 23.165 1.624 33.473-7.641a12.464 12.464 0 0 0 4.229-9.8 3.464 3.464 0 0 1 6.928 0 19.294 19.294 0 0 1 -6.534 14.958c-8.366 7.516-23.011 8.833-32.254 8.833z" fill="#ffbb7d"/><path d="m313.332 127.1s-10 16.362-23.735 18.612c-1.135.186-2.276.416-3.416.681a2.872 2.872 0 0 1 -3.525-2.373 22.679 22.679 0 0 1 .586-8.775 1.7 1.7 0 0 0 -2.871-1.6 20.6 20.6 0 0 0 -5.7 12.11 7.691 7.691 0 0 1 -4.415 6.237 111.659 111.659 0 0 0 -10.571 5.448s-14.186 10.707-32.168 21.8l-6.317-28.34c-2.1-9.942-13.887-11.723-20.927-4.4-8.985 9.349-8.073 27.607-6.344 39.21a13.5 13.5 0 0 1 -9.06 14.858l-.109.036c-31.232 10.181-39.665 36.475-39.665 36.475l39.234-17.767h42.5l67.4-56.163c13.492-6.957 19.441-19.7 21.463-33.367a32.675 32.675 0 0 0 -2.36-2.682z" fill="#4a5465"/><path d="m145.1 237.077a109.146 109.146 0 0 0 22.683-4.714 29.354 29.354 0 0 1 21.137 1.19c10.539 4.834 28.877 8.374 49.082-9.568l19.386-13.092s17.624-27.947 38.521-39.78l1.007-13.595s-23.414-2.518-42.3 21.4l-27.694 25.682a34.428 34.428 0 0 1 -8.046 5.486 32.278 32.278 0 0 1 -19.761 2.769c-9.308-1.55-39.437-4.093-54.015 24.222z" fill="#e2a083"/><path d="m294.942 59.26a22.166 22.166 0 0 0 1.148-11.76 1.65 1.65 0 0 1 2.9-1.312 37.469 37.469 0 0 1 6.575 11.512z" fill="#4a5465"/><path d="m236.546 128.805a12.917 12.917 0 0 0 -14.388-1.312c-8.174 4.473-19.895 14.5-20.234 35.319a108.058 108.058 0 0 0 2.494 18.689c2.579 8.658 10.123 27.6 29.05 39.714a15.491 15.491 0 0 1 -2.268 12.585s-6.546 8.308-4.28 30.715a22.39 22.39 0 0 1 -2.01 8.859 14.962 14.962 0 0 0 -1.512 5.84l-.377 5.831a14.929 14.929 0 0 0 3 9.957 57.894 57.894 0 0 1 7.923 14.189 10.982 10.982 0 0 0 10.256 7.189h14.7a5.065 5.065 0 0 0 3.986-8.184 15.85 15.85 0 0 0 -7.761-5.412c-10.07-3.273-8.056-17.12-8.056-17.12a62.2 62.2 0 0 1 .989-10.195 16.3 16.3 0 0 1 1.263-5.9 68.005 68.005 0 0 1 2.628-8.108 16.112 16.112 0 0 1 2.575-5.632q.919-1.76 1.994-3.5a25.462 25.462 0 0 0 3.731-10.4c2.464-20.664 7.651-87.217-23.703-113.124z" fill="#8ea0a9"/><path d="m296.148 54.739a24.215 24.215 0 0 1 -3.228 7.243 14.246 14.246 0 0 1 -9.892 6.135c-3.918.557-9.285.728-13.976-1.2 0 0 56.629 47.392 37.187 86.442a49.2 49.2 0 0 0 8.394-9.3 61.27 61.27 0 0 0 6.152-59.9 133.9 133.9 0 0 0 -18.52-30.745 3.493 3.493 0 0 0 -6.117 1.325z" fill="#fce2cb"/><path d="m320.392 83.27c-5.415 27.915-29.847 6.3-29.847 6.3 13.553 17.319 26.606 41.864 15.694 63.782a49.2 49.2 0 0 0 8.394-9.3 61.273 61.273 0 0 0 6.152-59.9c-.123-.285-.265-.59-.393-.882z" fill="#e2a083"/><path d="m273.291 33.139s2.5 3.117 17.254 3.117c13.015 0 17.254-6.01 17.254-6.01a23.482 23.482 0 0 0 -5.745-9.986 16.864 16.864 0 0 0 -25.322 1.74 18.184 18.184 0 0 0 -3.441 11.139z" fill="#4a5465"/><path d="m309.221 125.884s4.285 19.51 1.31 37.315a29.412 29.412 0 0 0 1.981 16.467c.885 2.056 2 4.384 3.416 6.958a84.373 84.373 0 0 0 6.757 10.3c3.949 5.218 12.429 18.658 8.225 33.337a7.024 7.024 0 0 1 -13.051 1.218 30.212 30.212 0 0 1 -2.792-13.119 20.4 20.4 0 0 0 -4.006-12.1 201.948 201.948 0 0 0 -12.853-15.631 33.176 33.176 0 0 1 -8.872-21.549 96.505 96.505 0 0 1 1.209-19.206c3.415-19.295 18.676-23.99 18.676-23.99z" fill="#8ea0a9"/><path d="m68.436 309.56a163.144 163.144 0 0 0 28.3-16.873c17.264-19.441 28.33-40.839 37.064-60.829a122.731 122.731 0 0 1 26.769-38.705 2.049 2.049 0 0 1 2.883.054 3.464 3.464 0 0 0 4.97-4.828 8.994 8.994 0 0 0 -12.65-.225 129.832 129.832 0 0 0 -28.321 40.93c-12.445 28.485-28.393 57.467-59.015 80.476z" fill="#ffbb7d"/><g fill="#4a5465"><path d="m247.033 206.839.614-.534a9.56 9.56 0 0 0 2.5-4.382 1.447 1.447 0 0 0 -2.2-1.57c-2.149 1.439-5.91 3.338-8.425 1.152a3.324 3.324 0 0 1 -.689-3.731 36.6 36.6 0 0 1 5.027-7.817 1.237 1.237 0 0 0 -1.174-2.006 13.279 13.279 0 0 0 -5.792 2.687 22.527 22.527 0 0 0 -4.065 4.541q-.784-.666-1.626-1.335a3.635 3.635 0 0 1 -1.017-4.5c2.227-4.325 6.6-9.015 9.218-11.623a1.5 1.5 0 0 0 -1.165-2.558 8.157 8.157 0 0 0 -3.919 1.466 44.386 44.386 0 0 0 -11.1 11.827 61.971 61.971 0 0 1 -9.253-6.991 12.793 12.793 0 0 1 -3.571-13.186c3.162-10.253 10.166-17.79 13.64-21.051a1.453 1.453 0 0 0 -1.164-2.5 10.458 10.458 0 0 0 -4.27 1.374 37.767 37.767 0 0 0 -15.072 21.155 33.616 33.616 0 0 1 -1.59-4.443 68.349 68.349 0 0 0 1.321 14.092 47.041 47.041 0 0 0 1.163 4.6 64.7 64.7 0 0 0 16.834 13.883 62.807 62.807 0 0 1 12.88 10.533l.49.49a9.139 9.139 0 0 0 12.41.432z"/><path d="m220.78 175a3.464 3.464 0 0 0 4.845-.723c.042-.057 4.294-5.764 8.465-8.671a3.464 3.464 0 0 0 -3.961-5.684c-5.114 3.564-9.874 9.965-10.074 10.235a3.463 3.463 0 0 0 .725 4.843z"/><path d="m243.109 235.365a1.431 1.431 0 0 0 .272-2.683c-6.05-2.879-8.724-9.152-9.913-11.467a19.377 19.377 0 0 1 -1.658 11.575 12.627 12.627 0 0 0 11.299 2.575z"/><path d="m246.714 259.212 5.233 2.251a59.47 59.47 0 0 1 2.577-5.631l-9.988-1.825a1.264 1.264 0 0 0 -1.33 1.854 8.561 8.561 0 0 0 3.508 3.351z"/><path d="m249.318 269.569-10.076-1.753a1.481 1.481 0 0 0 -1.366 2.432 9.955 9.955 0 0 0 3.39 2.588l6.79 2.638c.312-1.819.721-3.805 1.262-5.905z"/><path d="m276.752 49.582a3.465 3.465 0 0 1 -.689-6.859l1.1-.224a3.464 3.464 0 1 1 1.386 6.788s-1.567.295-1.797.295z"/></g><path d="m246.116 118.789a2.364 2.364 0 0 0 -.511-4.393 13.045 13.045 0 0 0 -4.086-.373 11.056 11.056 0 0 0 -3.965 1.016 2.366 2.366 0 0 0 .5 4.453 14.472 14.472 0 0 0 4.405.373 10.249 10.249 0 0 0 3.657-1.076z" fill="#ffbb7d"/><path d="m182.389 176.484c1.752.74 3.907-1.189 3.3-2.929a9.188 9.188 0 0 0 -1.725-2.976 8.115 8.115 0 0 0 -2.788-2.077c-1.787-.823-4.046 1.173-3.356 2.953a10.2 10.2 0 0 0 1.884 3.191 7.6 7.6 0 0 0 2.685 1.838z" fill="#ffbb7d"/><path d="m173.9 184.417c2.191.925 4.884-1.487 4.124-3.662a11.494 11.494 0 0 0 -2.157-3.721 10.151 10.151 0 0 0 -3.486-2.6c-2.234-1.029-5.059 1.467-4.2 3.692a12.769 12.769 0 0 0 2.356 3.99 9.514 9.514 0 0 0 3.363 2.301z" fill="#ffbb7d"/><path d="m252.516 218.473a2.438 2.438 0 0 0 -1.24-4.239 11.046 11.046 0 0 0 -3.758.307 9.517 9.517 0 0 0 -3.4 1.654 2.435 2.435 0 0 0 1.236 4.3 12.238 12.238 0 0 0 4.046-.36 8.874 8.874 0 0 0 3.116-1.662z" fill="#4a5465"/></svg>