<svg id="flat" height="512" viewBox="0 0 340 340" width="512" xmlns="http://www.w3.org/2000/svg"><path d="m96.279 164.031 10.121-4.151c-1.54-2.807-4.5-5.486-8.029-7.7a1.5 1.5 0 0 0 -2.271 1.02 29.473 29.473 0 0 0 .179 10.831z" fill="#5e3742"/><path d="m66.032 164.992 10.825 1.573c.1-3.2-1.083-7.012-3-10.711a1.5 1.5 0 0 0 -2.468-.28 29.462 29.462 0 0 0 -5.357 9.418z" fill="#5e3742"/><path d="m40.33 147.779 6.534 8.773c2.337-2.189 4.2-5.72 5.464-9.689a1.5 1.5 0 0 0 -1.546-1.944 29.465 29.465 0 0 0 -10.452 2.86z" fill="#5e3742"/><path d="m38.606 119.4-1.006 10.888c3.2-.065 6.945-1.447 10.54-3.552a1.5 1.5 0 0 0 .151-2.479 29.472 29.472 0 0 0 -9.685-4.857z" fill="#5e3742"/><path d="m117.784 153.7 10.339-3.575c-1.379-2.889-4.182-5.731-7.582-8.138a1.5 1.5 0 0 0 -2.321.885 29.479 29.479 0 0 0 -.436 10.828z" fill="#5e3742"/><path d="m137.586 148.044 10.914-.744c-.574-3.15-2.534-6.627-5.185-9.84a1.5 1.5 0 0 0 -2.472.246 29.47 29.47 0 0 0 -3.257 10.338z" fill="#5e3742"/><path d="m162.256 146.137 10.914-.741c-.574-3.15-2.534-6.626-5.185-9.84a1.5 1.5 0 0 0 -2.472.246 29.5 29.5 0 0 0 -3.257 10.335z" fill="#5e3742"/><path d="m185.392 143.409 10.5-3.062c-1.236-2.954-3.9-5.93-7.173-8.5a1.5 1.5 0 0 0 -2.362.77 29.471 29.471 0 0 0 -.965 10.792z" fill="#5e3742"/><path d="m205.071 134.675 9.745-4.969c-1.765-2.671-4.934-5.1-8.634-7.012a1.5 1.5 0 0 0 -2.176 1.2 29.468 29.468 0 0 0 1.065 10.781z" fill="#5e3742"/><path d="m223.215 125.761 10.277-3.748c-1.428-2.866-4.278-5.66-7.719-8.009a1.5 1.5 0 0 0 -2.305.924 29.49 29.49 0 0 0 -.253 10.833z" fill="#5e3742"/><path d="m243.719 120.3 10.926-.522c-.51-3.16-2.4-6.676-4.986-9.942a1.5 1.5 0 0 0 -2.476.2 29.461 29.461 0 0 0 -3.464 10.264z" fill="#5e3742"/><path d="m297.675 48.01 4.859 9.8c2.691-1.735 5.153-4.876 7.108-8.555a1.5 1.5 0 0 0 -1.173-2.189 29.473 29.473 0 0 0 -10.794.944z" fill="#5e3742"/><path d="m306.1 66.879 2.6 10.626c3-1.1 6.095-3.63 8.808-6.791a1.5 1.5 0 0 0 -.665-2.394 29.473 29.473 0 0 0 -10.743-1.441z" fill="#5e3742"/><path d="m229.9 92s-3.233-5.712-3.227-14.9a1.015 1.015 0 0 1 1.905-.48c1.986 3.633 5.638 9.2 10.591 12.082z" fill="#d9e6f7"/><path d="m242.137 85.624a25.705 25.705 0 0 1 -2.512-11.784.8.8 0 0 1 1.508-.374c1.56 2.877 4.432 7.289 8.34 9.579z" fill="#a0b1f7"/><path d="m232.242 60.978a27.775 27.775 0 0 0 .179 10.61 1.175 1.175 0 0 0 2.267.131c1.046-3.174 2.894-7.695 5.451-9.856z" fill="#a0b1f7"/><path d="m245.093 62.785a21.908 21.908 0 0 0 1.149 8.543.992.992 0 0 0 1.9-.144c.57-2.676 1.678-6.528 3.6-8.553z" fill="#a0b1f7"/><path d="m219.5 55.948a43.028 43.028 0 0 0 1.448 13.492 1.028 1.028 0 0 0 1.952.112c.983-2.577 2.606-6.2 4.523-8.05z" fill="#d9e6f7"/><path d="m166.868 266.005s.684 10.936.243 23.47a12.188 12.188 0 0 0 3.127 8.593c4.122 4.574 10.973 13.3 14.385 23.975a9.176 9.176 0 0 0 8.764 6.317h13.913a6.618 6.618 0 0 0 5.069-10.893 14.717 14.717 0 0 0 -7.657-4.618 19.36 19.36 0 0 1 -10.653-6.9 41.01 41.01 0 0 1 -8.338-23.282 16.707 16.707 0 0 1 7.516-14.637 36.34 36.34 0 0 1 10.3-4.756 22.175 22.175 0 0 0 10.282-5.851c5.465-5.708 11.416-17.185 9.138-39.587h-51.03z" fill="#5e3742"/><path d="m285.566 186.949s23.262-7.615 29.549 13.378a5.861 5.861 0 0 0 6.44 4.163 5.814 5.814 0 0 0 4.884-4.619c.073-.37.144-.76.21-1.169a24.8 24.8 0 0 0 -18.21-27.807c-4.023-1.087-8.665-2.826-11.146-5.434z" fill="#5e3742"/><path d="m250.6 15.5a49.932 49.932 0 0 1 21.9 16.333l-2.433 6.43h-19.467a71.175 71.175 0 0 1 0-22.763z" fill="#5e3742"/><path d="m269.728 99.586a38.721 38.721 0 0 1 -4.39 10.724 14.574 14.574 0 0 1 -12.713 6.924 67.6 67.6 0 0 0 -14.185 1.424l-9.221 2.435a103.721 103.721 0 0 0 -23.947 11.533 71.383 71.383 0 0 1 -38.706 11.341c-12.838-.034-29.526 1.3-45 6.757l-6.363 2.52a76.39 76.39 0 0 0 -8.123 4.179 50.175 50.175 0 0 1 -27.795 7.348c-10.523-.466-22.893-3.479-30.838-13.526-14.618-17.617-10.584-41.251-3.685-65.809a55.682 55.682 0 0 0 -17.106 12.964 58.709 58.709 0 0 0 -9.13 63.574 60.277 60.277 0 0 0 23.689 26.085l26.408 11.269 78.78 9.777 97.777-9.777 49.447-47.212s1.605-38.016-24.899-52.53z" fill="#ba595b"/><path d="m43.581 171.832a32.935 32.935 0 0 0 -3.852 14.627c.807.543 1.631 1.08 2.486 1.6l7.359 3.14c-4.062-6.231-4.2-13.629-3.636-18.628a1.26 1.26 0 0 0 -2.357-.739z" fill="#5e3742"/><path d="m226.507 87.043c8.267-1.626 28.584-7.177 31-22.744 0 0-13.858 3.042-24 0a44.492 44.492 0 0 0 -13.044-2.189 2.386 2.386 0 0 1 -2.4-2.306c-.285-7.288 2-28.044 37.753-25.25l12.507-.257 21.971 3.975s33.9 24 20.772 103.1l-43.081-52.06s-5.408-.676-12.845 4.057c0 0-19.332 11.9-30.1-2.531a2.4 2.4 0 0 1 1.467-3.795z" fill="#ba595b"/><path d="m282.134 153.8c-6.38 9.187-16.8 16.6-29.649 22.086a35.732 35.732 0 0 0 -8.557-13.95 2.063 2.063 0 0 0 -3.407 2.1 62.033 62.033 0 0 1 2.038 8.4 7.908 7.908 0 0 1 -5.749 8.883c-24.808 6.851-54.952 7.864-82.324 2.252a147.839 147.839 0 0 0 -15.776-2.35 33.118 33.118 0 0 1 6.675-8.745 2.559 2.559 0 0 0 -2.271-4.384c-7.66 1.709-12.967 5.106-16.649 9.028a11.1 11.1 0 0 1 -7.54 3.6c-29.185 1.338-47.219 11.456-47.219 11.456l1.1 7.679 74.6 9.258 97.777-9.777 49.447-47.212s0-.144.011-.4c-2.841-5.281-6.841-6.081-12.507 2.076z" fill="#5e3742"/><path d="m310.266 149.872q.99-4.082 1.661-8.505s8.618-45.392-43.942-52.055c0 0 1.485 2.793 1.743 10.274a55.4 55.4 0 0 1 10.881 29.395s.6 19.066 10.843 26.17c0 0 13.308 2.729 18.814-5.279z" fill="#fce2cb"/><path d="m310.261 149.87c-23.067 12.881-29.656-20.889-29.656-20.889.784 11.85-2.249 26.4-14.569 41.954 0 0-15.952 21.094-52.8 26.414-24.48 3.535-50.648 3.535-87.7-4.994-5.91-1.36-15.17-1.756-24.508-1.455-15.993.516-44.32 3.357-58.813-2.837 0 0 17.8 17.025 49.785 22.442 19.363 3.279 40.578 14.1 56.112 19.053 33.044 10.53 59.708-2.8 59.708-2.8 27.021-11.933 88.334-18.729 102.441-76.888z" fill="#e2a083"/><path d="m268.323 34.3a166.894 166.894 0 0 1 6.777-22.66s10.751 9.263 15.193 26.632c.001 0-12.414 5.611-21.97-3.972z" fill="#5e3742"/><path d="m252.486 175.886a68.551 68.551 0 0 1 2.087 18.737 10.618 10.618 0 0 0 6.571 10.2c8.514 3.57 22.76 11.062 32.8 24.215a6.867 6.867 0 0 0 5.453 2.729 6.817 6.817 0 0 0 6.833-6.89c-.116-7.746-3.229-19.85-20.412-24.522a25.887 25.887 0 0 1 -6.142-3.212 10.291 10.291 0 0 1 -4.182-9.651c.73-5.743 1.374-16.672-1.986-27.805-.003.001-12.131 3.287-21.022 16.199z" fill="#ba595b"/><path d="m153.315 166.923a26 26 0 0 0 -23.615 22.295 45.015 45.015 0 0 0 .875 15.332s.072.352.242.984l6.559 13.758a42.13 42.13 0 0 0 8.853 9.269 18.25 18.25 0 0 1 2.01 1.756l.085.088a17.494 17.494 0 0 1 -.282 24.527 97.131 97.131 0 0 1 -21.342 15.932 10.778 10.778 0 0 0 -5.555 9.012c-.225 5.916-.874 15-2.725 22.4a9.541 9.541 0 0 0 2.613 9.132 42.079 42.079 0 0 1 8.21 10.847 10.787 10.787 0 0 0 9.627 6.107h20.752a7.176 7.176 0 0 0 6.6-10.015 11.109 11.109 0 0 0 -9.83-6.9s-11.376-.956-14.173-5.02c-1.461-2.122-2.42-6.785-3-10.758a14.168 14.168 0 0 1 5.333-13.248 42.987 42.987 0 0 1 11.842-6.349s13.8-5.051 22.39-15.05a27.846 27.846 0 0 0 6.525-15.6c.98-10.562 2.57-38.319-4.863-60.67a26.186 26.186 0 0 0 -27.128-17.83z" fill="#ba595b"/><g fill="#5e3742"><path d="m261.08 52.373a3.464 3.464 0 0 1 -.7-6.855l1.71-.357a3.464 3.464 0 1 1 1.413 6.783l-1.71.356a3.444 3.444 0 0 1 -.713.073z"/><path d="m268.323 71.644a29.809 29.809 0 0 0 8.587 3.219 1.142 1.142 0 0 0 .758-2.119 29.034 29.034 0 0 1 -6.751-5.345c-5.324-5.848-13.411-3.1-13.411-3.1a18.7 18.7 0 0 1 -1.908 5.779 17.651 17.651 0 0 1 12.725 1.566z"/><path d="m229.22 121.1c.306 3.959 1.353 13.677 4.628 22.226a1.663 1.663 0 0 0 3.217-.671c-.362-6.908-.425-16.752 1.376-23.99a83.664 83.664 0 0 0 -9.221 2.435z"/><path d="m224.537 176.684c-7.132-8.94-10.3-21.227-11.649-28.832a1.754 1.754 0 0 0 -3.434-.092 33.939 33.939 0 0 0 .878 17.787c2.236 7.081 7.454 11.323 11.991 13.772a1.757 1.757 0 0 0 2.214-2.635z"/><path d="m266.143 140.049a75.792 75.792 0 0 1 -4.473-12.3 1.419 1.419 0 0 0 -2.751.085c-.621 2.736-1.048 6.028-.325 8.393.759 2.483 3.306 4.408 5.594 5.69a1.418 1.418 0 0 0 1.955-1.868z"/><path d="m115.211 153.261c.98 4.361 3.828 8.385 6.165 11.1a1.223 1.223 0 0 0 2.11-1.1c-1.251-5.034-2.024-10.175-1.918-12.532q-3.222 1.139-6.357 2.532z"/><path d="m15.3 153.351c.041-.087 3.8-8.184 11.054-11.437a1.343 1.343 0 0 0 -.474-2.56c-3.906-.239-8.8.364-12.547 3.771a58.486 58.486 0 0 0 1.967 10.226z"/><path d="m137.38 219.29a84 84 0 0 0 13.95-1.6 1.547 1.547 0 0 0 .069-3.025 70.027 70.027 0 0 1 -20.581-9.127 45.321 45.321 0 0 0 6.562 13.752z"/><circle cx="235.733" cy="50.491" r="3.439"/><path d="m291.169 80.322a1.791 1.791 0 0 0 .779-3.259 9.906 9.906 0 0 0 -2.81-1.328 8.372 8.372 0 0 0 -3.086-.308 1.793 1.793 0 0 0 -.806 3.3 10.971 10.971 0 0 0 3.037 1.411 7.77 7.77 0 0 0 2.886.184z"/><path d="m191.055 174.545c-4.3-8.906-4.612-19.875-4.292-26.546a1.517 1.517 0 0 0 -2.878-.737 29.356 29.356 0 0 0 -2.672 15.167 20.775 20.775 0 0 0 7.47 13.914 1.52 1.52 0 0 0 2.372-1.798z"/><path d="m154.779 159.14c.225-4.416.793-10.643 2.217-14.932-2.268.119-4.6.293-6.982.523a34.634 34.634 0 0 0 2.113 14.848 1.376 1.376 0 0 0 2.652-.439z"/><path d="m107.356 188.147a95.273 95.273 0 0 1 -4.187-15.922 1.785 1.785 0 0 0 -3.457-.211c-1.094 3.357-2.009 7.433-1.375 10.48.665 3.2 3.634 5.9 6.355 7.774a1.783 1.783 0 0 0 2.664-2.121z"/><path d="m71.305 185.654a74.53 74.53 0 0 1 1.385-12.813 1.4 1.4 0 0 0 -2.47-1.12c-1.737 2.149-3.544 4.874-3.932 7.28-.407 2.524 1.009 5.332 2.476 7.46a1.4 1.4 0 0 0 2.541-.807z"/><path d="m35.12 166.948a62.835 62.835 0 0 1 7.269-10.115c.907-1.051-.25-3.047-1.566-2.713-2.5.634-5.329 1.717-6.8 3.526-1.546 1.9-1.678 5.329-1.443 8.207.12 1.526 1.886 2.28 2.54 1.095z"/><path d="m79.468 79.871a1.028 1.028 0 0 0 -.355-1.984c-7.353-.009-21.158 1-34.35 7.551-24.2 36.144 1.634 63.127 1.634 63.127s-19.26-40.2 33.071-68.694z"/><path d="m172.6 216.631a2.364 2.364 0 0 0 -.592-4.383 13.038 13.038 0 0 0 -4.092-.3 11.054 11.054 0 0 0 -3.946 1.089 2.366 2.366 0 0 0 .578 4.443 14.476 14.476 0 0 0 4.411.291 10.256 10.256 0 0 0 3.641-1.14z"/><path d="m162.377 240.268c4.416.509 11.4.975 17.5-.111a1.49 1.49 0 0 1 1.13 2.678 20.1 20.1 0 0 1 -8.432 3.371 14.663 14.663 0 0 1 -11.29-3.289 1.491 1.491 0 0 1 1.092-2.649z"/><path d="m154.337 266.189a57.643 57.643 0 0 1 -9.733-8.018c-2.046 1.832-4.357 3.739-6.953 5.656 4.921 4.037 11.369 4.967 15.916 5.033a1.443 1.443 0 0 0 .77-2.671z"/></g></svg>