<svg id="Flat" height="512" viewBox="0 0 340 340" width="512" xmlns="http://www.w3.org/2000/svg"><path d="m310.735 143.762h-14.486s-30.48 30.1-117.756 30.1-117.756-30.1-117.756-30.1h-14.486c-13.037 103.382 35.108 149.869 76.917 170.62a124.627 124.627 0 0 0 110.65 0c41.809-20.751 89.954-67.238 76.917-170.62z" fill="#b9c259"/><ellipse cx="182.297" cy="142.023" fill="#fff" rx="109.432" ry="26.813"/><path d="m310.735 143.762c0-21.209-59.207-38.4-132.242-38.4s-132.242 17.193-132.242 38.4h33.214a5.184 5.184 0 0 1 -.7-2.522c0-11.766 44.649-21.3 99.727-21.3s99.727 9.538 99.727 21.3a5.184 5.184 0 0 1 -.7 2.522z" fill="#f2f2f2"/><path d="m310.735 143.762h-14.486a54.994 54.994 0 0 1 -9.406 6.783l-14.621 7.383s30.614 138.248-89.662 169.335a124.367 124.367 0 0 0 51.258-12.881c41.809-20.751 89.954-67.238 76.917-170.62z" fill="#989e3d"/><path d="m198.335 265.49c-1.211 6.607 7.747 9.91 11.026 4.047 10.749-19.224 21.994-51.482 18.4-99.346-7.641 1.231-16.021 2.214-25.173 2.853a334.308 334.308 0 0 1 -4.253 92.446z" fill="#989e3d"/><path d="m111.174 65.665h16.351v109.129h-16.351z" fill="#e6e6e6" transform="matrix(.91 -.415 .415 .91 -39.102 60.29)"/><path d="m310.735 41.2-9.746-13.128-36.089 25.289a44.7 44.7 0 0 0 -18.539 29.874l-12.651 83.028 16.146 2.573 11.382-75.019a43.9 43.9 0 0 1 17.237-28.667z" fill="#72645a"/><path d="m104.17 67.185-14.88 6.778 12.348 27.106 13.047-10.801z" fill="#b3b3b3"/><path d="m178.493 182.164c73.035 0 132.241-17.343 132.241-38.551l-33.213.149c-5.843 10.576-47.947 18.781-99.028 18.781s-93.185-8.205-99.028-18.781l-33.184-.743c0 22.3 59.177 39.145 132.212 39.145z" fill="#f2f2f2"/><path d="m77.683 19.013c-33.827 13.675-53.838 45.779-50.158 76.6a8.817 8.817 0 0 0 13.98 6.169c8.181-6.194 16.644-8.875 27-8.862a18.3 18.3 0 0 0 12.227-4.693c10.949-9.781 26.841-16.958 42.329-17.479a18.585 18.585 0 0 0 12.716-5.81c6.591-6.871 14.294-10.59 24.956-11.666a8.84 8.84 0 0 0 6.126-14.193c-18.806-24.601-55.422-33.712-89.176-20.066z" fill="#fff"/><path d="m166.86 39.077c-18.807-24.6-55.423-33.71-89.177-20.064 0 0 32.95 2.339 52.254 50.09a19.228 19.228 0 0 0 5.841-4.167c6.591-6.871 14.294-10.59 24.956-11.666a8.839 8.839 0 0 0 6.126-14.193z" fill="#f96262"/><path d="m27.525 95.611a8.817 8.817 0 0 0 13.98 6.169c8.181-6.194 16.644-8.875 27-8.862a18.138 18.138 0 0 0 6.578-1.229c-.022-.055-18.2-45.2 2.6-72.676-33.827 13.675-53.838 45.779-50.158 76.598z" fill="#f96262"/><g fill="#989e3d"><path d="m119.343 257.336a4.148 4.148 0 0 1 -.781-.08 4.3 4.3 0 0 1 -.75-.23 4.56 4.56 0 0 1 -.689-.36 4.82 4.82 0 0 1 -.6-.5 4.031 4.031 0 0 1 -1.18-2.83 4.129 4.129 0 0 1 .08-.78 3.832 3.832 0 0 1 .23-.75 4.579 4.579 0 0 1 .37-.69 4.161 4.161 0 0 1 .5-.61 4.82 4.82 0 0 1 .6-.5 4.56 4.56 0 0 1 .689-.36 4.3 4.3 0 0 1 .75-.23 4.151 4.151 0 0 1 1.571 0 4.3 4.3 0 0 1 .75.23 4.571 4.571 0 0 1 .69.36 4.82 4.82 0 0 1 .6.5 4.161 4.161 0 0 1 .5.61 4.671 4.671 0 0 1 .37.69 3.9 3.9 0 0 1 .23.75 4.128 4.128 0 0 1 .079.78 4.03 4.03 0 0 1 -1.179 2.83 4.82 4.82 0 0 1 -.6.5 4.571 4.571 0 0 1 -.69.36 4.3 4.3 0 0 1 -.75.23 4.243 4.243 0 0 1 -.79.08z"/><path d="m111.3 278.356a3.995 3.995 0 0 1 -4-4 3.992 3.992 0 0 1 4.78-3.92 3.832 3.832 0 0 1 .75.23 3.548 3.548 0 0 1 .69.37 3.639 3.639 0 0 1 .61.49 4.008 4.008 0 0 1 0 5.66 3.694 3.694 0 0 1 -.61.5 4.183 4.183 0 0 1 -.69.37 4.659 4.659 0 0 1 -.75.23 4.049 4.049 0 0 1 -.78.07z"/><path d="m134.852 282.986a4 4 0 1 1 .781-7.92 4.7 4.7 0 0 1 .75.22 4.628 4.628 0 0 1 .69.37 4.837 4.837 0 0 1 .609.5 3.966 3.966 0 0 1 -.609 6.15 4.033 4.033 0 0 1 -1.44.6 4.131 4.131 0 0 1 -.781.08z"/></g><path d="m81.182 191.475a10.6 10.6 0 0 1 6.947 11.9 187.2 187.2 0 0 0 -2.729 29.944c-.137 8.545-12.306 9.891-14.4 1.606a132.333 132.333 0 0 1 -3.928-33.446 10.629 10.629 0 0 1 14.11-10.004z" fill="#d0d686"/></svg>