<svg id="icon" height="512" viewBox="0 0 340 340" width="512" xmlns="http://www.w3.org/2000/svg"><path d="m203.183 246.87s-7.783 25.118-24.783 41.912c0 0 10.8.6 24.164 7.919a18.689 18.689 0 0 0 8.19 2.324c.7.029 1.446.041 2.229.027a17.522 17.522 0 0 0 8.343-2.294 28.024 28.024 0 0 1 3.042-1.5 9.443 9.443 0 0 1 10.391 2.131 38.462 38.462 0 0 0 9.849 7.483 5.053 5.053 0 0 1 2.843 4.517 5.019 5.019 0 0 1 -5.163 5.016l-26.815-.772-65.666 11.043-12.324-47.622z" fill="#f9968f"/><path d="m137.078 31.172s-21.686 21.284-37.613 43.961a10.73 10.73 0 0 0 1.328 13.912l53.545 49.142 21.371-25.064-14.243-6.706a125.458 125.458 0 0 1 -24.013-14.817l-15.653-12.284 23.813-37.552z" fill="#f9968f"/><path d="m148.431 296.86c22.612 1.817 43.92 12.928 51.284 17.136a7.234 7.234 0 0 0 5.848.589l10.619-3.475.231-.036a13.236 13.236 0 0 1 12.246 4.852 26.988 26.988 0 0 0 7.157 6.165 13.5 13.5 0 0 0 6.9 1.867c.459 0 .9.02 1.307.049a4.911 4.911 0 0 1 4.406 6.188 4.906 4.906 0 0 1 -4.8 3.614l-135.352-1.86a17.07 17.07 0 0 1 -15.35-24.084c17.882-39.28 46.248-82.507 46.248-82.507l5.25-37.5c-8.262 1.078-14.267-.942-18.569-3.973-12.969-9.136-10.133-29.307 4.884-34.422.741-.252 1.185-.356 1.185-.356 15.5-4.25 30.5-22.5 30.5-22.5v-5.791a10.575 10.575 0 0 0 0-4.94v-19.521l25-10.5-.751 26a38.145 38.145 0 0 1 3.787 3 23.6 23.6 0 0 1 7.506 21.907c-1.808 9.785-5.779 27.2-12.793 39.345l-3.382 6.041a13 13 0 0 0 -1.657 6.35v7.218a13.084 13.084 0 0 0 5.273 10.453c4.078 3.059 12.563 9.385 16.292 17.4 6.472 13.919 2.908 25.093-5.714 34.082-10.152 10.595-47.555 39.209-47.555 39.209z" fill="#ffe1d2"/><path d="m143.6 196.443c.336-.224 15.656-27.394 15.656-27.394l-8.308-23.69s-7.732 30.286-32.794 27.19a19.145 19.145 0 0 0 7.712 11.335c4.3 3.031 10.307 5.051 18.569 3.973l-1.191 8.507a1.4 1.4 0 0 0 .356.079z" fill="#f9968f"/><path d="m157.79 205.067a114.3 114.3 0 0 0 20.655-58.907 2.648 2.648 0 0 0 -5.008-1.341l-31.771 62.781-2.486 17.755s-6.752 10.29-15.743 25.389c8.348-10.41 21.132-26.98 34.353-45.677z" fill="#f7a392"/><path d="m162.431 96.355v7.511a122.371 122.371 0 0 0 18.632-5.232s-1.716 6.292-5.8 9.48a.642.642 0 0 0 .328 1.149 48.06 48.06 0 0 0 11.169-.246l.62-21.483-1.72-.937z" fill="#f9968f"/><path d="m136.368 37.487s-7.7 38.147 10.605 63.805a2.1 2.1 0 0 0 2.029.847 103.281 103.281 0 0 0 25.334-7.346s6.329-3.779 9.21-5.867c0 0 2.854-42.888-47.178-51.439z" fill="#ffe1d2"/><path d="m143.754 39.1-4.215 3.724s36.542 12.9 34.8 51.969a51.4 51.4 0 0 0 9.383-5.361s2.397-38.988-39.968-50.332z" fill="#f9968f"/><path d="m166.972 15.727c-4.713-.3-12.486-.736-19.375-.857-9.037-.159-16.879 7.152-16.976 16.19a23.134 23.134 0 0 0 .3 3.934 10.89 10.89 0 0 0 8.391 8.9c12.235 2.741 36.567 11.574 41.25 39.085a23.3 23.3 0 0 1 -1.439 13.037 24.347 24.347 0 0 1 -4.9 7.369.986.986 0 0 0 .466 1.626 27.634 27.634 0 0 0 26.69-7.674s11.529 1.179 16.629-11.6a26.565 26.565 0 0 0 1.776-8.454 77.861 77.861 0 0 0 -.11-9.682 56.246 56.246 0 0 0 -40.113-49.615 56.5 56.5 0 0 0 -12.589-2.259z" fill="#373d4c"/><path d="m125.861 183.884c4.3 3.031 10.307 5.051 18.569 3.973l10.639-23.943c-23.181 4.094-29.262-4.059-30.485-11.026a19.622 19.622 0 0 0 1.277 30.996z" fill="#ff5f5f"/><path d="m155.069 163.914a56.224 56.224 0 0 1 -15.044.918 25.213 25.213 0 0 1 -21.88 7.716 19.147 19.147 0 0 0 7.716 11.336c4.3 3.031 10.307 5.051 18.569 3.973z" fill="#e03f3f"/><g fill="#f9968f"><path d="m192.321 159.416q.8-2.456 1.5-4.886c-9.15 4.6-23.893 5.831-30.46 6.154l-1.957 6.574c17.95.656 27.134-4.718 30.917-7.842z"/><path d="m148.431 296.86s2.322-1.777 5.965-4.607a47.066 47.066 0 0 0 -20.453 2.466 1.061 1.061 0 0 0 .45 2.055 125.366 125.366 0 0 1 14.038.086z"/><path d="m162.431 122.2c2.561-1.98 5.139-3.373 7.753-3.438a.817.817 0 0 0 .394-1.513 13.649 13.649 0 0 0 -8.147-1.374z"/><path d="m192.275 235.306c.4-3.332-1.416-7.612-3.338-11.033a1.034 1.034 0 0 1 1.626-1.25 23.457 23.457 0 0 1 6.285 10.553z"/></g><path d="m196.61 153.833.011-.057a2.005 2.005 0 0 0 -2.9-2.122c-8.6 4.367-20.643 7.645-29.344 6.863v4.583c13.656.391 24.761-3.552 31.386-7.958a2 2 0 0 0 .847-1.309z" fill="#ff5f5f"/><path d="m154.983 69.662a2.509 2.509 0 0 1 -.571-4.952l1.757-.412a2.508 2.508 0 0 1 1.146 4.884l-1.757.413a2.533 2.533 0 0 1 -.575.067z" fill="#f9968f"/><path d="m143.057 70.078a2.542 2.542 0 0 1 -.576-.067l-1.458-.343a2.509 2.509 0 0 1 1.148-4.884l1.458.343a2.509 2.509 0 0 1 -.572 4.951z" fill="#f9968f"/><path d="m201.44 223.009h-.021c-4.089 5.217-12.274 11.241-31.236 10.283a61.972 61.972 0 0 1 -11.23-1.631c-5.935-1.413-14.781-4.134-19.458-8.55l-.315 2.25s-.357.531-1.693 2.618c6.034 3.964 15.58 8.268 29.7 10.42a14.858 14.858 0 0 1 9.548 5.618c4.911 6.39 8.938 15.144 6.345 25.239 5.438-4.566 10.169-8.74 12.911-11.6 8.74-9.111 12.283-20.465 5.449-34.647z" fill="#ff5f5f"/><path d="m139.938 229.486q1.436-1.9 2.909-3.874a20.406 20.406 0 0 1 -3.352-2.5l-.315 2.25s-.607.926-1.693 2.618q1.14.746 2.451 1.506z" fill="#e03f3f"/><path d="m174.647 120.418a9.919 9.919 0 0 0 -11.385-1.168c-5.423 2.989-13.39 10.388-14.767 28.287l-1.808 18.231a49.871 49.871 0 0 1 -2.643 11.8c-2.8 7.866-7.78 22.07-13.425 32.26-11.028 19.91-9.3 44.5-9.3 44.5l17.863-28.969s23.1-35.127 29.2-51.038c0 0 12.925-26.594 9.417-48.021a9.888 9.888 0 0 0 -2.637-5.389q-.24-.245-.515-.493z" fill="#ffe1d2"/><path d="m146.927 10.5c-.2.342-.4.705-.591 1.09a11.608 11.608 0 0 0 5.063 15.48 37.135 37.135 0 0 0 13.4 4.047 11.479 11.479 0 0 0 10.367-4.458 12.959 12.959 0 0 0 2.608-7 8.573 8.573 0 0 0 -4.227-7.815 40.416 40.416 0 0 0 -18.788-5.644 8.636 8.636 0 0 0 -7.832 4.3z" fill="#ffe1d2"/><path d="m136.232 230.139c-3.812 5.054-6.366 7.972-14.441 9.809a91.189 91.189 0 0 0 -.474 14.379z" fill="#f9968f"/><path d="m204.941 235.225c-2.064 7.452-7.739 16.9-23.166 17.393a25.963 25.963 0 0 1 1.307 16.635c5.438-4.566 10.169-8.74 12.911-11.6 6.07-6.326 9.629-13.739 8.948-22.428z" fill="#e03f3f"/><path d="m129.426 158.091a7.656 7.656 0 0 1 -1.526-3.691 1.884 1.884 0 0 1 .723-1.724 14.123 14.123 0 0 1 5.023-2.171.83.83 0 0 1 .824 1.352 15.218 15.218 0 0 0 -3.175 5.879 1.066 1.066 0 0 1 -1.869.355z" fill="#fff4f0"/><circle cx="163.2" cy="127.808" fill="#fff4f0" r="3.161"/><path d="m132.653 255.735.076.052a3.6 3.6 0 0 1 .9 5.07c-2.53 3.515-6.867 9.644-10.725 15.593a2.793 2.793 0 0 1 -3.235 1.122l-.067-.022a2.907 2.907 0 0 1 -1.681-4.067 157.138 157.138 0 0 1 9.712-16.785 3.6 3.6 0 0 1 5.02-.963z" fill="#fff4f0"/><circle cx="114.612" cy="285.419" fill="#fff4f0" r="2.672"/><path d="m175.2 26.689a12.966 12.966 0 0 0 2.608-7 8.324 8.324 0 0 0 -1.581-5.372c-.577 4.1-2.9 12.068-12.23 11.467a46.6 46.6 0 0 1 -8.363-1.247 18.175 18.175 0 0 1 -10.454-7.02 11.663 11.663 0 0 0 6.251 9.58 37.109 37.109 0 0 0 13.4 4.046 11.476 11.476 0 0 0 10.369-4.454z" fill="#f9968f"/></svg>