<svg id="Flat" height="512" viewBox="0 0 340 340" width="512" xmlns="http://www.w3.org/2000/svg"><path d="m139.152 181.655v-29.274h75.337v72.904h-70.069z" fill="#bf5860"/><path d="m96.327 263.233s5.874 41.253 42.825 41.253 26.825-64.343 26.825-64.343h22.4s15.106 87.6-49.222 90.7c0 0-58.31 6.262-68.433-66.482z" fill="#bf5860"/><path d="m321.07 209.327q-6.928.7-13.788 1.958l-9.807 1.819a167.319 167.319 0 0 1 -30.516 2.806h-10.222c-49.068 3.163-100.589 2.9-154.009 0h-70.789l-5.222 53.145 40.527-.121c45.811 0 92.289-1.5 117.4-2.354 8.932-.305 17.775-2.163 26.525-3.985 24.255-5.049 51 .725 51 .725 17.864 2.291 38.678-1.687 55.5-4.166l3.4-38.493z" fill="#ce6581"/><path d="m210.939 215.91h-108.211a115.085 115.085 0 0 0 .349 14.578 16.545 16.545 0 0 0 16.688 15.028 38.467 38.467 0 0 0 12.931-2.885s3.107 18.18 19.209 12.639a20.007 20.007 0 0 0 8.695-10.47 23.724 23.724 0 0 0 1.521-8.6 63.442 63.442 0 0 1 .451-7.547l.588-4.9h27.7a36.54 36.54 0 0 1 5.458 18.9 14.892 14.892 0 0 0 3.158 9.134 12.228 12.228 0 0 0 10.949 4.525c11.6-.877 16.449-14.383 17.488-21.655a16.614 16.614 0 0 0 17.148 10.743c11.563-.751 14.134-18.564 11.676-29.491h-45.8z" fill="#824561"/><path d="m240.352 133.075s26.021-.758 21.221 25.767c0 0-5.305 26.021-19.452 44.968 0 0 10.66 10.452 6.5 28.123a7.081 7.081 0 0 1 -6.88 5.476 7.015 7.015 0 0 1 -6.874-5.478c-1.348-6.175-5.353-15.407-17.253-15.743l-4.906-12.631z" fill="#bf5860"/><path d="m201.329 169.873-3.418 20.848c-.236 4.993-.677 10.647-1.449 16.713a20.5 20.5 0 0 0 2.041 11.914 51.6 51.6 0 0 1 5.725 23.377 5.773 5.773 0 0 0 5.758 5.828 5.787 5.787 0 0 0 4.757-2.5c2.948-4.253 7.745-13.944 4.728-29.24a18.6 18.6 0 0 1 1.372-11.584 126.931 126.931 0 0 0 10.29-33.211l-1.565-24.952z" fill="#ff9680"/><path d="m108.441 134.719s-19.885-5.764-20.749 17.867c0 0 1.052 33.707 24.784 55.044 0 0-7.113 14-1.275 27.248a6.334 6.334 0 0 0 7.279 3.634 6.264 6.264 0 0 0 4.807-5.786c.258-5.927 2.929-14.935 13.327-17.406z" fill="#bf5860"/><path d="m110.675 136.168 1.859 28.287a152.959 152.959 0 0 0 20.705 48.459 18.688 18.688 0 0 1 3.061 11.386c-.4 6.714.052 17.518 5.962 24.188a6.519 6.519 0 0 0 11.308-3.668l3.239-28.763a22.6 22.6 0 0 0 -1.165-10.126 102.065 102.065 0 0 1 -5.429-23.837s-4.282-13.546-2.876-20.163z" fill="#ff9680"/><path d="m197.779 169.589a174.739 174.739 0 0 1 .132 21.132l9.478-2.546a50.839 50.839 0 0 0 23.739-16.161 113.876 113.876 0 0 0 1.233-27.209z" fill="#bf5860"/><path d="m108.441 134.719s-.078 12.307 4.094 29.736a46.122 46.122 0 0 0 20.389 15.852l7.045 2.908 3.126-6.643a74.43 74.43 0 0 0 7.123 5.52 65.366 65.366 0 0 1 .875-19.707z" fill="#bf5860"/><path d="m125.049 53.832s-28.4 11.9-29.093 59.535a43.558 43.558 0 0 0 8.673 27.118 39.894 39.894 0 0 0 8.964 8.611s3.015 15.978 22.007 23.816l4.824-10.25s9.647 12.963 25.624 18.993l4.221-9.346a51.466 51.466 0 0 0 20.2 9.346s8.743-5.125 14.471-12.361v11.155a43.758 43.758 0 0 0 27.735-28.338l6.229 9.7s3.935-4.543 5.709-17.009a32.888 32.888 0 0 1 4.4-12.866c3.984-6.176 7.731-11.571 8.53-21.157.992-11.9-3.133-18.448-10.1-28.227-3.464-4.864-10.176-7.823-17.488-9.423-19.289-4.223-104.906-19.297-104.906-19.297z" fill="#ff9680"/><path d="m253.619 91.827c.075-.024.15-.058.225-.083a100.257 100.257 0 0 0 -6.021-9.195c-3.463-4.864-10.176-7.823-17.488-9.423-19.294-4.22-104.91-19.294-104.91-19.294s-7.9 3.32-15.474 13.441l2.838 1.317a30.824 30.824 0 0 0 4.981 1.71 71.773 71.773 0 0 0 -.019 12.531 14.513 14.513 0 0 1 -7.8 12.445 20.91 20.91 0 0 0 15.049 9.241 40.857 40.857 0 0 0 12.288 21.651l7.373 7.072 2.695-3.713a77.51 77.51 0 0 0 16.673 19.041l9.757 7.861 2.421-6.75c1.192 1.088 2.505 2.191 3.952 3.3l4.641 3.552 5.087-2.846c.342-.192 1.632-.932 3.481-2.208l.953 7.974 12.081-7.976a69.762 69.762 0 0 0 11.975-10.729l.635 3.4 11.293-7.683c1.31-.891 10.852-7.971 12.251-25.827l8.655 5.468 2.542-12.97a32.2 32.2 0 0 0 -.134-11.307z" fill="#bf5860"/><path d="m188.374 22.408a18.188 18.188 0 0 0 -7.694-10.189 20.13 20.13 0 0 0 -16.134-2.519 37.506 37.506 0 0 0 -10.99 4.649 22.452 22.452 0 0 1 -10.7 3.827c-3.066.213-6.461-.066-9.081-1.65 0 0-.524 7.711 8.63 11.9 0 0-15.169.261-25.892 30.6a26.309 26.309 0 0 0 12.554 1.831s-3.5 5.135-2.345 19.6a14.3 14.3 0 0 1 -1.72 8.28 8.3 8.3 0 0 1 -3.52 3.507s4.446 2.877 12.293 0c0 0-3.4 12.554 9.676 24.846l5.231-7.062s6.015 16.739 20.923 28.508l3.923-10.723s1.569 7.061 12.03 14.907a55.4 55.4 0 0 0 14.642-12.559l1.308 10.723a69.18 69.18 0 0 0 21.707-25.631l2.093 10.985s10.984-7.323 7.846-30.077a23.088 23.088 0 0 1 11.773 3.139 23.042 23.042 0 0 0 -4.446-17.261s5.23 1.569 12.292-1.307c0 0-7.585-4.708-7.846-13.6 0 0 3.923-28.508-18.308-37.661 0 0 6.277-1.771 9.939-10.2a21.054 21.054 0 0 1 -16.311-3.034 24.878 24.878 0 0 0 -9.66-3.975c-6.678-1.095-16.46-.472-22.213 10.146z" fill="#ff9680"/><path d="m321.07 220.661a67.426 67.426 0 0 1 -12.083 12.168c-7.152 5.442-26.435 7.08-39.112 7.559a1.441 1.441 0 0 0 -.27 2.845l15.063 3.479a4.113 4.113 0 0 1 -.379 8.084 64.749 64.749 0 0 1 -13.674.1s-35.255-4.8-55.161-1.439c-14.248 2.4-28.618.629-35.637-.574a1.3 1.3 0 0 0 -1.1 2.239l1.59 1.491a1.726 1.726 0 0 1 -1.01 2.976 344.784 344.784 0 0 1 -64.756.038 1.07 1.07 0 0 1 -.315-2.048l6.342-2.718a1.069 1.069 0 0 0 -.436-2.052c-17.237.257-37.191.719-51.035-.9a13.331 13.331 0 0 1 -11.777-13.789c.726-17.8 6.306-21.66 6.306-21.66l-.743-.55h-30.944l-5.492 55.9h40.388c45.811 0 93.963-1.4 119.073-2.261a156.535 156.535 0 0 0 26.59-3.033c24.255-5.049 49.666-.2 49.666-.2 17.864 2.291 42.084-.271 58.906-2.75z" fill="#824561"/><path d="m198.763 72.231a.513.513 0 0 1 .093-.987 17.085 17.085 0 0 1 3.191-.226 8.585 8.585 0 0 0 6.892-3.214 18.077 18.077 0 0 0 3.771-11.612s0-21.295-24.336-21.295-24.337 21.3-24.337 21.3a17.9 17.9 0 0 0 4.263 12.203 8.517 8.517 0 0 0 6.219 2.795 26.963 26.963 0 0 1 2.849.233.508.508 0 0 1 .152.962 20.467 20.467 0 0 0 -8.079 7.343 14.979 14.979 0 0 0 -1.351 5.868c0 16.224 20.281 17.238 20.281 17.238s20.28-1.014 20.28-17.238a15.431 15.431 0 0 0 -2-7.206 16.709 16.709 0 0 0 -7.888-6.164z" fill="#896b87"/><path d="m172.405 86.524c-1.388.373-2.511-.881-1.492-1.665 3.638-2.8 9.7-6.441 16.937-6.455 9.087-.018 14.458 2.677 18.106 5.76.943.8-.161 2-1.515 1.64a69.284 69.284 0 0 0 -17-1.978c-4.141 0-10.555 1.497-15.036 2.698z" fill="#3b3b59"/><path d="m69.468 214.12c-14.98-1.102-19.426 10.88-21.068 23.289-1.905 8.139-5.4 27.237-5.432 57.877a11.908 11.908 0 0 1 -7.077 10.9 10.63 10.63 0 0 1 -9.971-.3 11.645 11.645 0 0 1 -5.589-8.875c-1.57-14.427-5.476-65.4 13.977-91.645 7.582-10.228 20.235-15.7 32.708-13.143a26.684 26.684 0 0 1 5.77 1.852l10.358 19.185z" fill="#ff9680"/><path d="m72.79 194.084c.459 3.383-.6 7.828-7.083 11.562a29.337 29.337 0 0 0 -8.875 7.576c-3.674 4.851-7.76 12.72-8.427 24.187.713-3.045 1.2-4.565 1.2-4.565 4.883-18.667 19.242-16.934 19.242-16.934h17.236c-1.006-12.51-6.705-18.81-13.293-21.826z" fill="#bf5860"/><g fill="#3b3b59"><path d="m185.212 65.215a3.149 3.149 0 0 1 2.529 3.527l-.015.1a1.419 1.419 0 0 1 -2.417.8 7.489 7.489 0 0 1 -1.7-2.566 1.411 1.411 0 0 1 1.603-1.861z"/><path d="m193.385 65.4a3.147 3.147 0 0 0 -3.074 3.063v.106a1.419 1.419 0 0 0 2.253 1.181 7.468 7.468 0 0 0 2.1-2.252 1.41 1.41 0 0 0 -1.279-2.098z"/><circle cx="179.872" cy="53.835" r="4.398"/><circle cx="196.873" cy="53.835" r="4.398"/></g></svg>