<svg id="flat" height="512" viewBox="0 0 340 340" width="512" xmlns="http://www.w3.org/2000/svg"><path d="m299.443 248.248s33.962 66.023-33.963 65.479c0 0-25.539-35.864 33.963-65.479z" fill="#88a873"/><path d="m289.661 114.03s-34.234 46.892 27.442 73.246c-.003 0 38.853-54.771-27.442-73.246z" fill="#f29251"/><path d="m220.65 135.765s-66.967-13.138-64.25 47.179c0 0 59.36 12.323 64.25-47.179z" fill="#88a873"/><path d="m157.376 31.433s-13.876 56.785-73.794 24.453c0 0 19.218-55.426 73.794-24.453z" fill="#f29251"/><g fill="#8fb7f2"><path d="m15.083 88.121h230.905c33.869 0 54.1-14.014 56.972-39.461 2.3-20.379-14.9-39.11-38.329-41.753a37.483 37.483 0 0 0 -25.317 5.939c-7.324 4.978-11.866 12.227-12.789 20.413a23.455 23.455 0 0 0 6.52 18.753 30.706 30.706 0 0 0 19.121 9.362 25.266 25.266 0 0 0 17.052-4.011 19.454 19.454 0 0 0 8.729-13.963 3.5 3.5 0 1 0 -6.955-.784 12.569 12.569 0 0 1 -5.708 8.959 18.258 18.258 0 0 1 -12.333 2.845 23.7 23.7 0 0 1 -14.781-7.174 16.571 16.571 0 0 1 -4.69-13.2 21.567 21.567 0 0 1 9.769-15.407 30.5 30.5 0 0 1 20.6-4.773c19.6 2.211 34.025 17.469 32.159 34.013-3.1 27.477-28.911 33.245-50.017 33.245h-230.908a3.5 3.5 0 1 0 0 7z"/><path d="m172.194 251.88h-157.111a3.5 3.5 0 0 0 0 7h157.111c21.107 0 46.919 5.768 50.017 33.244.893 7.913-1.893 15.793-7.843 22.189a39 39 0 0 1 -24.316 11.824 30.486 30.486 0 0 1 -20.6-4.772 21.567 21.567 0 0 1 -9.769-15.407 16.57 16.57 0 0 1 4.69-13.2 23.7 23.7 0 0 1 14.781-7.174c9.1-1.025 17.191 4.27 18.042 11.8a3.5 3.5 0 1 0 6.955-.785c-1.281-11.369-12.828-19.43-25.782-17.975a30.7 30.7 0 0 0 -19.121 9.362 23.454 23.454 0 0 0 -6.52 18.753c.923 8.186 5.465 15.435 12.789 20.413a36.878 36.878 0 0 0 20.769 6.2 40.785 40.785 0 0 0 4.548-.256 46.008 46.008 0 0 0 28.657-14.013c7.363-7.915 10.8-17.767 9.672-27.741-2.863-25.448-23.099-39.462-56.969-39.462z"/><path d="m15.083 122.672h211.846a3.5 3.5 0 0 0 0-7h-211.846a3.5 3.5 0 1 0 0 7z"/><path d="m15.083 155.132h83.247a3.5 3.5 0 0 0 0-7h-83.247a3.5 3.5 0 1 0 0 7z"/><path d="m15.083 190.776h109.691a3.5 3.5 0 0 0 0-7h-109.691a3.5 3.5 0 1 0 0 7z"/><path d="m113.858 282.133c-.052 0-.105 0-.156 0h-98.619a3.5 3.5 0 0 0 0 7h98.539c7.359.342 12.376 2.609 15.336 6.927a3.5 3.5 0 1 0 5.774-3.958c-4.239-6.188-11.263-9.541-20.874-9.969z"/><path d="m124.774 148.132a3.5 3.5 0 0 0 0 7h7.071a3.5 3.5 0 0 0 0-7z"/><path d="m214.613 183.776a3.5 3.5 0 0 0 0 7h30.429a3.5 3.5 0 0 0 0-7z"/><path d="m271.574 183.776a3.5 3.5 0 0 0 0 7h8.065a3.5 3.5 0 0 0 0-7z"/><path d="m318.662 221.44h-235.08a3.5 3.5 0 0 0 0 7h235.08a3.5 3.5 0 0 0 0-7z"/><path d="m38.083 221.44a3.5 3.5 0 0 0 0 7h7.666a3.5 3.5 0 1 0 0-7z"/></g><path d="m200.6 145.342c-7.193 4.874-15.217 10.487-22.955 16.26a26.791 26.791 0 0 0 -.119-5.253 3 3 0 0 0 -5.955.732 21.5 21.5 0 0 1 -1.224 10.09c-9.724 7.606-18.345 15.172-23.357 21.411a3 3 0 1 0 4.677 3.758c5.8-7.215 18.223-17.779 35.687-30.417a17.7 17.7 0 0 1 12.588.113 3.526 3.526 0 0 0 3.937-1.578 2.9 2.9 0 0 0 -1.578-3.938 20.882 20.882 0 0 0 -5.261-1.46q3.368-2.339 6.925-4.751a3 3 0 1 0 -3.365-4.967z" fill="#3c3c4f"/><path d="m172.094 24.813a3 3 0 0 0 -3.929-4.534c-6.953 6.021-17.765 11.456-29.486 16.109a2.775 2.775 0 0 0 -.278.111c-5.388 2.13-10.959 4.095-16.436 5.878-1.838-.356-7.213-1.58-10.931-4.309a3 3 0 1 0 -3.551 4.837 25.332 25.332 0 0 0 4.475 2.573c-2.073.612-4.1 1.194-6.074 1.744a3 3 0 1 0 1.616 5.778c7.188-2.007 15.169-4.434 23.145-7.231a35.265 35.265 0 0 0 -2.164 5.145 3 3 0 1 0 5.693 1.89c2.315-6.967 6.08-10.257 6.963-10.956 12.2-4.869 23.533-10.601 30.957-17.035z" fill="#3c3c4f"/><path d="m295.089 264.193a3 3 0 0 0 -3.809 1.866c-.8 2.344-1.752 4.942-2.841 7.684a17.552 17.552 0 0 0 -1.051-2.207 3 3 0 0 0 -5.161 3.06c.033.056 3.2 5.628.891 11.026-6.884 13.632-16.963 27.542-30.635 32.078a3 3 0 1 0 1.891 5.695c11.082-3.678 19.951-12.305 26.955-22.672a13.553 13.553 0 0 1 9.986-3.091 3 3 0 1 0 .652-5.965 18.661 18.661 0 0 0 -5.28.178 157.982 157.982 0 0 0 10.269-23.845 3 3 0 0 0 -1.867-3.807z" fill="#3c3c4f"/><path d="m317.326 147.655c-3.408.141-7.1-2.451-8.708-3.859a187.307 187.307 0 0 0 -23.759-41.256 3 3 0 1 0 -4.676 3.76 170.466 170.466 0 0 1 14.117 21.837c.211 1.8.609 8.407-4.152 12.858a3 3 0 0 0 4.1 4.383 18.713 18.713 0 0 0 4.957-7.767 165.617 165.617 0 0 1 11.795 32.171 3 3 0 0 0 5.826-1.436 159.927 159.927 0 0 0 -4.727-15.6 14.87 14.87 0 0 0 4.978.919c.162 0 .324 0 .487-.01a3 3 0 1 0 -.236-6z" fill="#3c3c4f"/></svg>