<svg id="icons" height="512" viewBox="0 0 340 340" width="512" xmlns="http://www.w3.org/2000/svg"><path d="m50.788 187.878-36.81 75.1a25.946 25.946 0 0 0 23.3 37.366h73.622a25.947 25.947 0 0 0 23.3-37.366l-36.811-75.1c-9.498-19.368-37.107-19.368-46.601 0z" fill="#e9ebfc"/><path d="m129.579 292.4c.224-.234.446-.469.661-.711.114-.128.223-.259.334-.389.227-.266.453-.533.669-.807.082-.105.16-.213.241-.318.234-.308.466-.617.687-.934.043-.061.082-.125.124-.186a25.911 25.911 0 0 0 4.444-17.164q-.077-.776-.2-1.554v-.018q-.124-.772-.3-1.545l-.006-.026q-.175-.771-.4-1.541l-.006-.022q-.228-.774-.507-1.543a26.638 26.638 0 0 0 -1.117-2.66l-8.725-17.782h-10.891a21.158 21.158 0 0 0 -11.444 3.215c-4.457 2.861-9.158 8.227-10.134 18.25v3.9c-.05 1.492-.978 8.375-13.853 8.375h-55.773a14.773 14.773 0 0 1 -10.956-12 25.95 25.95 0 0 0 24.849 33.406h73.624c.585 0 1.164-.021 1.737-.057.19-.013.375-.037.564-.053.379-.033.759-.064 1.132-.112.224-.029.444-.071.666-.105.331-.052.662-.1.988-.164.235-.046.464-.1.7-.155.305-.069.611-.136.912-.215.238-.062.47-.134.7-.2.287-.085.574-.168.857-.262.238-.079.471-.166.7-.252.27-.1.54-.2.805-.3.236-.1.468-.2.7-.3.255-.112.509-.224.759-.344.233-.112.461-.23.69-.348s.476-.248.71-.379.459-.263.685-.4.44-.268.656-.406.455-.3.679-.451c.2-.14.4-.282.6-.427.226-.165.45-.333.671-.506.184-.144.364-.291.544-.44.224-.185.446-.372.664-.564.163-.145.323-.293.483-.441.223-.208.444-.417.66-.632.145-.146.28-.289.417-.433z" fill="#acb9d4"/><path d="m301.853 206.188a144.022 144.022 0 0 0 -2.839-25.7 387.819 387.819 0 0 0 -19.167-63.666 74.977 74.977 0 0 1 -4-42.358 68.788 68.788 0 0 1 7.25-19.741 10.008 10.008 0 0 0 -.41-10.546l-.148-.216a9.906 9.906 0 0 0 -8.171-4.307h-38.033a9.906 9.906 0 0 0 -8.171 4.307l-.148.216a10.008 10.008 0 0 0 -.41 10.546 68.755 68.755 0 0 1 7.249 19.741 74.968 74.968 0 0 1 -4 42.358 387.819 387.819 0 0 0 -19.167 63.666 144.022 144.022 0 0 0 -2.839 25.7l-1.706 81.353a12.543 12.543 0 0 0 12.539 12.805h71.338a12.543 12.543 0 0 0 12.539-12.805z" fill="#fc7d70"/><path d="m74.086 300.346h15.24v-40.83a8.709 8.709 0 0 0 -8.708-8.709h-13.063a8.709 8.709 0 0 0 -8.709 8.709v40.83z" fill="#667387"/><g fill="#acb9d4"><path d="m62.18 206.985a4.047 4.047 0 0 1 -.782.055 3.818 3.818 0 0 1 -.779-.1 3.483 3.483 0 0 1 -.743-.246 3.584 3.584 0 0 1 -.685-.378 4.022 4.022 0 0 1 -1.639-2.586 4.231 4.231 0 0 1 -.066-.781 4.65 4.65 0 0 1 .1-.778 4.461 4.461 0 0 1 .246-.743 3.637 3.637 0 0 1 .387-.687 4.236 4.236 0 0 1 .515-.6 3.489 3.489 0 0 1 .618-.473 3.928 3.928 0 0 1 .7-.356 4.012 4.012 0 0 1 3.734.456 3.191 3.191 0 0 1 .6.515 3.774 3.774 0 0 1 .483.616 3.707 3.707 0 0 1 .356.7 3.837 3.837 0 0 1 .268 1.537 4.046 4.046 0 0 1 -.344 1.522 3.6 3.6 0 0 1 -.388.686 3.554 3.554 0 0 1 -.506.586 3.8 3.8 0 0 1 -.617.484 4.379 4.379 0 0 1 -.7.355 4.135 4.135 0 0 1 -.758.216z"/><path d="m70.062 221.618a4.065 4.065 0 0 1 -.782.055 4.046 4.046 0 0 1 -1.522-.344 3.586 3.586 0 0 1 -.686-.387 4 4 0 0 1 -.971-5.566 4.076 4.076 0 0 1 .514-.6 4.565 4.565 0 0 1 .617-.484 4.63 4.63 0 0 1 .7-.355 4.083 4.083 0 0 1 1.536-.268 4.009 4.009 0 0 1 1.522.343 4.242 4.242 0 0 1 .688.388 4 4 0 0 1 .971 5.566 3.578 3.578 0 0 1 -.516.6 3.792 3.792 0 0 1 -.616.484 3.834 3.834 0 0 1 -.7.355 4.07 4.07 0 0 1 -.755.213z"/><path d="m53.451 224.506a4.212 4.212 0 0 1 -.78.065 4.035 4.035 0 0 1 -1.522-.344 3.575 3.575 0 0 1 -.687-.388 3.638 3.638 0 0 1 -.586-.506 3.849 3.849 0 0 1 -.483-.617 4.3 4.3 0 0 1 -.355-.7 4.176 4.176 0 0 1 -.215-.764 4.023 4.023 0 0 1 .668-2.979 4.15 4.15 0 0 1 .516-.6 4.6 4.6 0 0 1 .615-.483 3.8 3.8 0 0 1 .7-.355 4.1 4.1 0 0 1 1.538-.269 3.889 3.889 0 0 1 .778.1 4.049 4.049 0 0 1 1.43.634 4.9 4.9 0 0 1 .6.505 4.249 4.249 0 0 1 .475.627 4.011 4.011 0 0 1 .353.69 4.088 4.088 0 0 1 .213.755 4.03 4.03 0 0 1 -.666 2.989 3.223 3.223 0 0 1 -.515.6 3.491 3.491 0 0 1 -.616.483 3.894 3.894 0 0 1 -.7.356 4.1 4.1 0 0 1 -.761.201z"/></g><path d="m100.862 287.519a22.054 22.054 0 0 1 21.386-16.146h57.1s.3.006.808.057a16.139 16.139 0 0 1 14.423 16.105v5.226a7.585 7.585 0 0 1 -7.579 7.585h-79.43a7.574 7.574 0 0 1 -7.542-8.421 31.1 31.1 0 0 1 .834-4.406z" fill="#e9ebfc"/><path d="m122.248 271.373h-14.483a7.906 7.906 0 0 1 -7.729-9.739c.023-.091.047-.183.071-.274a14.436 14.436 0 0 1 14.01-10.553h65.056a18.129 18.129 0 0 1 10.688 3.336 17.633 17.633 0 0 1 6.226 8.279 6.675 6.675 0 0 1 -6.29 8.951z" fill="#ff7b94"/><path d="m79.156 278.935h-20.31v21.411h30.48v-23.761c-2.047 1.335-5.226 2.35-10.17 2.35z" fill="#373d4c"/><path d="m150.028 271.373h17.464a78.257 78.257 0 0 0 -5.928-20.566h-11.773z" fill="#d35363"/><path d="m188.365 291.75h-15.118a5.087 5.087 0 0 1 -5.1-5.386 69.926 69.926 0 0 0 -.653-14.991h-17.466l.234 20.377h-10.921l-31.952-.017c-4.115 0-5.617-2.915-6.153-5.4-.131.393-.266.784-.374 1.188a31 31 0 0 0 -.828 4.356 7.585 7.585 0 0 0 7.536 8.471h79.43a7.585 7.585 0 0 0 7.585-7.586v-2.846a15.307 15.307 0 0 1 -6.22 1.834z" fill="#acb9d4"/><path d="m196.4 263.624c-3.33 3.5-9.485 3.191-9.485 3.191h-77.5c-5.961 0-8.17-3.561-8.981-6.488-.119.338-.23.681-.324 1.032-.024.092-.048.184-.071.275a7.906 7.906 0 0 0 7.729 9.739h82.032a6.684 6.684 0 0 0 6.6-7.749z" fill="#d35363"/><path d="m301.853 206.188a143.976 143.976 0 0 0 -2.842-25.713 387.865 387.865 0 0 0 -19.23-63.82 74.628 74.628 0 0 1 -4.112-41.284 68.918 68.918 0 0 1 7.544-20.853 9.84 9.84 0 0 0 -.537-10.359l-.139-.2a9.9 9.9 0 0 0 -8.168-4.3h-7.16a10.837 10.837 0 0 1 1.841 14.6h-21.488a1.9 1.9 0 0 0 -.665 3.67c3.932 1.469 8.42 3.132 12.195 4.493a6.122 6.122 0 0 1 3.878 7.078c-1.465 6.769-2.175 15.662-.943 27.065a114.531 114.531 0 0 0 3.628 18.485 562.609 562.609 0 0 1 16.02 81.165 9.7 9.7 0 0 1 -9.64 10.825h-29.027a9.556 9.556 0 0 0 -9.561 9.469 263.9 263.9 0 0 0 3.071 43.874 19.413 19.413 0 0 1 -19.18 22.557s-6.188-.469-9.992-4.965l-.2 9.565a12.543 12.543 0 0 0 12.539 12.805h71.335a12.543 12.543 0 0 0 12.5-11.5 12.771 12.771 0 0 0 .04-1.3z" fill="#e5544c"/><path d="m136.513 250.807s5.073 17.242 2.232 49.539h22.523s5.275-28.634-3.247-49.539z" fill="#667387"/><path d="m162.793 275.668c-.107-2.7-.318-5.489-.669-8.3a65.807 65.807 0 0 0 -4.1-16.56h-4.048l-2.293.5a2.954 2.954 0 0 0 -2.239 3.646c1.456 5.493 4.1 17.754 2.5 29.689-.5 3.7-2.931 6.739-7.156 7-1.713.106-3.451.087-5.446.113q-.207 4.1-.6 8.6h22.523s.623-3.384 1.095-8.674c.129-1.442.246-3.027.337-4.723q.045-.849.081-1.733c.122-2.956.149-6.185.015-9.558z" fill="#373d4c"/><path d="m328.7 224.045a5.488 5.488 0 0 0 -5.492-5.446h-70.25a5.488 5.488 0 0 0 -5.492 5.446c-.216 41.882 8.389 61.351 14.686 69.977a15.56 15.56 0 0 0 12.587 6.324h26.689a15.56 15.56 0 0 0 12.586-6.324c6.296-8.622 14.902-28.095 14.686-69.977z" fill="#636b77"/><path d="m323.207 218.6h-7.648c.106.37.211.749.316 1.142a59.821 59.821 0 0 1 1.963 17.1c-.279 10.21-2.053 28.028-10.338 40.8a12.272 12.272 0 0 1 -10.3 5.569h-40.955a52.585 52.585 0 0 0 5.906 10.812 15.561 15.561 0 0 0 12.587 6.324h26.689a15.56 15.56 0 0 0 12.586-6.324c6.3-8.626 14.9-28.095 14.686-69.977a5.488 5.488 0 0 0 -5.492-5.446z" fill="#373d4c"/></svg>