<svg id="flat" height="512" viewBox="0 0 340 340" width="512" xmlns="http://www.w3.org/2000/svg"><path d="m296.193 120.34a.915.915 0 0 1 -.47-1.728c24.762-9.955 31.795-37.773 28.182-56.556a3.191 3.191 0 0 0 -5.5-1.486 193.8 193.8 0 0 1 -41.588 35.306l-64.345 118.485c30.889 12.951 52.986-2.444 61.363-12.954a3.392 3.392 0 0 0 -2.673-5.481 28.422 28.422 0 0 1 -9.272-1.413 1.07 1.07 0 0 1 .14-2.067c9.226-1.584 28.555-8.769 34.272-29.953a3.414 3.414 0 0 0 -3.635-4.285 37.517 37.517 0 0 1 -10.339-.431 1.074 1.074 0 0 1 -.148-2.075c7.273-2.487 26.728-10.319 29.029-33.349a3.433 3.433 0 0 0 -4.318-3.681 47.694 47.694 0 0 1 -10.698 1.668z" fill="#813f40"/><path d="m63.181 95.876a193.715 193.715 0 0 1 -41.431-35.132 3.331 3.331 0 0 0 -5.711 1.5c-7.704 33.829 19.361 52.156 28.238 56.368a.916.916 0 0 1 -.47 1.728 47.4 47.4 0 0 1 -10.907-1.729 3.409 3.409 0 0 0 -4.4 3.581c1.077 10.915 8.768 29.857 29.314 33.51 1.094.195.945 1.874-.148 2.075a37.531 37.531 0 0 1 -10.459.419 3.4 3.4 0 0 0 -3.583 4.448c3.466 10.171 15.863 26.9 34.34 29.8a1.069 1.069 0 0 1 .14 2.067 28.83 28.83 0 0 1 -10.304 1.389 3.406 3.406 0 0 0 -3.153 4.9c3.368 7.1 10.262 15 24.369 18.386 12.5 2.681 25.27 2.01 38.51-4.83z" fill="#813f40"/><path d="m152.555 230.3s-29.462 25.246-23.209 59.357c0 0 33.5-10.381 37.879-51.485z" fill="#3c3c4f"/><path d="m148.912 242.716c-5.783 8.716-17.563 19.86-40.266 20.88 0 0 1.933-25.434 32.026-35.625z" fill="#bacee0"/><path d="m187.445 230.3s29.462 25.246 23.209 59.357c0 0-33.5-10.381-37.879-51.485z" fill="#3c3c4f"/><path d="m190.994 242.575c5.749 8.736 17.534 20 40.36 21.021 0 0-1.934-25.447-32.049-35.633z" fill="#bacee0"/><path d="m185.642 270.8a64.607 64.607 0 0 0 -4.731-17.7l-21.873.115a64.772 64.772 0 0 0 -4.68 17.589c-3.45 25.632 15.642 38.115 15.642 38.115s19.092-12.483 15.642-38.119z" fill="#bacee0"/><path d="m190.752 225.67-4.693 6.569a38.3 38.3 0 0 0 4.941 10.332 65.978 65.978 0 0 0 8.3-14.589 70.734 70.734 0 0 0 -8.548-2.312z" fill="#3c3c4f"/><path d="m180.906 253.1c-4.794-10.779-10.906-13.658-10.906-13.658s-6.156 2.9-10.957 13.771a53.387 53.387 0 0 0 5.768 4.022 9.973 9.973 0 0 0 10.434-.062 55.711 55.711 0 0 0 5.661-4.073z" fill="#3c3c4f"/><path d="m140.679 227.989a61.651 61.651 0 0 0 8.229 14.724 38.392 38.392 0 0 0 5.033-10.474l-4.693-6.569a70.76 70.76 0 0 0 -8.569 2.319z" fill="#3c3c4f"/><path d="m276.819 95.876a467.862 467.862 0 0 1 -53.884 31.07c-3.642 1.773-6.273 5.183-5.956 9.164.215 2.691 1.479 5.991 4.84 9.789a8.907 8.907 0 0 1 1.793 9.122c-2.079 5.34-7.749 13.6-21.474 21.076 0 0-1.739 14.5 5.637 25.824s21.118 7.065 21.118 7.065c1.942-3.092 3.532-7.421 4.068-13.477 0 0 20.626-1.493 20.844-28.375 0 0 21.577-8.687 11.589-33.222 0 0 24.018-12.221 11.425-38.036z" fill="#b4726f"/><g fill="#813f40"><path d="m265.394 133.912a83.35 83.35 0 0 1 -14.017 5.907 1.229 1.229 0 0 0 .017 2.368c3.545.9 9.56 1.552 18.011-.478z"/><path d="m253.805 167.134a46.935 46.935 0 0 1 -14.275 3.332 1.254 1.254 0 0 0 -.481 2.389c2.815 1.318 7.653 2.63 15.562 2.331z"/><path d="m232.961 195.509a35.52 35.52 0 0 1 -11.587-.622 1.49 1.49 0 0 0 -1.261 2.6 21.931 21.931 0 0 0 14.875 5z"/><path d="m196.051 214.284v-35.2c2.193-.977 4.214-1.974 6.087-2.984 6.568 34.571 26.755 32.889 26.755 32.889-3.261 5.19-10.739 7.851-16.421 5.375-10.672-4.651-16.421-.08-16.421-.08z"/></g><path d="m63.181 95.876a467.862 467.862 0 0 0 53.884 31.07c3.642 1.773 6.273 5.183 5.956 9.164-.215 2.691-1.479 5.991-4.84 9.789a8.907 8.907 0 0 0 -1.793 9.122c2.079 5.34 7.749 13.6 21.474 21.076 0 0 1.739 14.5-5.637 25.824s-21.118 7.065-21.118 7.065c-1.942-3.092-3.532-7.421-4.068-13.477 0 0-20.626-1.493-20.844-28.375 0 0-21.577-8.687-11.589-33.222 0 0-24.018-12.221-11.425-38.036z" fill="#b4726f"/><path d="m74.606 133.912a83.35 83.35 0 0 0 14.017 5.907 1.229 1.229 0 0 1 -.017 2.368c-3.545.9-9.56 1.552-18.011-.478z" fill="#813f40"/><path d="m86.2 167.134a46.935 46.935 0 0 0 14.275 3.332 1.254 1.254 0 0 1 .481 2.389c-2.815 1.318-7.653 2.63-15.562 2.331z" fill="#813f40"/><path d="m107.039 195.509a35.52 35.52 0 0 0 11.587-.622 1.49 1.49 0 0 1 1.261 2.6 21.931 21.931 0 0 1 -14.875 5z" fill="#813f40"/><path d="m143.949 214.284v-35.2c-2.193-.977-4.214-1.974-6.087-2.984-6.568 34.571-26.755 32.889-26.755 32.889 3.261 5.19 10.739 7.851 16.421 5.375 10.672-4.651 16.421-.08 16.421-.08z" fill="#813f40"/><path d="m170 74.141-17.172 8.871 3.28-18.789-13.893-13.306 19.199-2.741 8.586-17.095 8.586 17.095 19.199 2.741-13.893 13.306 3.28 18.789z" fill="#ffab50"/><path d="m111.172 91.086-13.012 6.721 2.485-14.237-10.526-10.082 14.547-2.077 6.506-12.953 6.505 12.953 14.548 2.077-10.527 10.082 2.485 14.237z" fill="#ffab50"/><path d="m228.828 91.086 13.012 6.721-2.485-14.237 10.526-10.082-14.547-2.077-6.506-12.953-6.505 12.953-14.548 2.077 10.527 10.082-2.485 14.237z" fill="#ffab50"/><path d="m146.989 168.832c-4.607 7.388-10.562 20.919-9.336 40.332 0 0 1.816 22.893 29.341 40.027a5.7 5.7 0 0 0 6.012 0c27.525-17.134 29.341-40.027 29.341-40.027 1.219-19.3-4.658-32.783-9.253-40.2z" fill="#b4726f"/><path d="m188.148 202.548c-1.468 4.7-4.574 12.579-9.838 16.734a2.192 2.192 0 0 1 -3.255-.637 58.561 58.561 0 0 0 -6.734-9.227 1.752 1.752 0 0 0 -2.73.123l-2.285 3.109a2.218 2.218 0 0 1 -3.178.393 19.2 19.2 0 0 1 -6.514-10.265.892.892 0 0 0 -1.753.228c-.107 6.178 1.3 14.662 8.636 19.935a2.711 2.711 0 0 0 3.895-.838l1.049-1.763a1.754 1.754 0 0 1 3.026.016c1.166 2.009 2.818 4.931 4.266 7.769a2.7 2.7 0 0 0 3.532 1.228c5.023-2.3 15.815-9.336 13.62-26.66a.893.893 0 0 0 -1.737-.145z" fill="#813f40"/><path d="m151.983 162.227a38.821 38.821 0 0 0 -4.993 6.606c.172 4.19.706 11.884 4.625 17.776a3.155 3.155 0 0 0 4.13.983l1.862-1.013a2.731 2.731 0 0 1 3.593.9 84.381 84.381 0 0 1 6.616 13.372 3.27 3.27 0 0 0 4.765 1.536c6.547-4.128 20.357-15.008 20.512-33.424a39.034 39.034 0 0 0 -5.076-6.738z" fill="#813f40"/><path d="m161.97 123.824a31.277 31.277 0 0 1 -16.018.715 5.726 5.726 0 0 0 -5.552 1.909 29.66 29.66 0 0 0 -5.787 11.671s20.192-6.4 22.363 13.227c0 0 9.771-10.24 4.994-27.522z" fill="#ffab50"/><path d="m161.97 123.824s1.737 15.148-9.987 31.363c0 0-7.791 7.05 2.924 24.479a2.277 2.277 0 0 0 2.678.963l2.834-.98a2.079 2.079 0 0 1 2.492.948l6.456 11.51a2.257 2.257 0 0 0 3.092.862 38.331 38.331 0 0 0 17.432-21.986 20.872 20.872 0 0 0 .84-6.963c-.362-8.17-1.7-30.134-5.912-38.058-5.21-9.814-22.849-2.138-22.849-2.138z" fill="#e1ecf4"/><path d="m169.61 134.181 8.4-1.479a1.227 1.227 0 0 1 1.416 1.443 5.518 5.518 0 0 1 -4.574 4.713 5.665 5.665 0 0 1 -6.064-2.806 1.226 1.226 0 0 1 .822-1.871z" fill="#3c3c4f"/></svg>