<svg id="flat" height="512" viewBox="0 0 340 340" width="512" xmlns="http://www.w3.org/2000/svg"><path d="m170 21.963 14.206 13.953a62.619 62.619 0 0 0 53.114 17.257l19.694-2.937 3.292 19.638a62.617 62.617 0 0 0 32.826 45.181l17.66 9.2-8.88 17.823a62.616 62.616 0 0 0 0 55.846l8.88 17.823-17.66 9.2a62.617 62.617 0 0 0 -32.826 45.181l-3.292 19.638-19.694-2.937a62.619 62.619 0 0 0 -53.114 17.257l-14.206 13.951-14.206-13.953a62.619 62.619 0 0 0 -53.114-17.257l-19.694 2.937-3.292-19.638a62.617 62.617 0 0 0 -32.826-45.181l-17.66-9.2 8.88-17.823a62.616 62.616 0 0 0 0-55.846l-8.88-17.823 17.66-9.2a62.617 62.617 0 0 0 32.826-45.179l3.292-19.638 19.694 2.937a62.619 62.619 0 0 0 53.114-17.257z" fill="#f74f73"/><g fill="#fff"><circle cx="170" cy="170" r="64.991"/><path d="m170.048 264.388a94.376 94.376 0 1 1 33.482-182.628 3.594 3.594 0 0 1 -2.546 6.722 87.207 87.207 0 1 0 54.934 96.366 86.925 86.925 0 0 0 -20.093-72.03 3.594 3.594 0 0 1 5.429-4.71 94.388 94.388 0 0 1 -71.206 156.28z"/><path d="m223.927 100.539a3.573 3.573 0 0 1 -2.133-.7q-1.341-.991-2.721-1.933a3.594 3.594 0 1 1 4.049-5.938c.985.672 1.976 1.375 2.943 2.091a3.594 3.594 0 0 1 -2.138 6.484z"/></g></svg>