<svg id="flat" height="512" viewBox="0 0 340 340" width="512" xmlns="http://www.w3.org/2000/svg"><path d="m276.651 34.514s3.122 32.56-6.691 63.113l-20.517 17.692 16.057 25.127s16.026 12.578 29.081 52.4c0 0 3.626-22.488 34.6-40.089 0 0-11.053-25.243 2.1-47.321 0 0-16.726-14.942-15.611-41.7.008-.007-25.304-4.913-39.019-29.222z" fill="#ff6784"/><path d="m274.865 33.516c.633 16.321.371 49.328-10.253 69.817l6.228 2.635s15.6-38.393 6.589-72.835a1.3 1.3 0 0 0 -2.564.383z" fill="#c13251"/><path d="m271.178 109.793a100.9 100.9 0 0 0 48.556-47.556 1.3 1.3 0 0 0 -2.2-1.363c-23.73 29.515-48.348 41.2-48.348 41.2z" fill="#c13251"/><path d="m273.411 103.5s31.888.678 62.422-1.049a1.664 1.664 0 0 1 .544 3.264c-12.313 3.507-34.064 7.491-62.966 4.016z" fill="#c13251"/><path d="m264.945 110.027s32.426 26.3 68.729 42.521a1.47 1.47 0 0 1 -.895 2.785c-16.128-3.455-45.73-13.215-72.93-40.467z" fill="#c13251"/><path d="m265.78 129.6s25.55 28.187 30.617 66.675a1.311 1.311 0 0 1 -2.519.662c-5.592-14.376-17.747-43.09-32.7-63.247z" fill="#c13251"/><path d="m300.686 138.162c-7.249-15.3 1.9-30.168 1.9-30.168l-35.122-3.454-6.887 1.177-11.135 9.6 16.058 25.129s7.073 8.173 11.626 14.231c.611-6.828 11.58-17.157 23.56-16.515z" fill="#c13251"/><path d="m238.113 176.713c5.064 3.028 14.037 7.586 23.189 8.326a10.944 10.944 0 0 1 9.936 9.005 42.357 42.357 0 0 1 .382 12.433c-1.171 9.027-9.251 15.637-18.263 14.36a23.23 23.23 0 0 1 -6.472-1.962 7.607 7.607 0 0 0 .7-.339c8.772-4.7 5.873-18.055-4.049-18.807-2.625-.2-5.448-.5-8.1-.936a19.747 19.747 0 0 1 -11.885-6.612c-2.725-3.223-4.657-7.566-1.483-12.048.061-.087.122-.172.184-.256a12 12 0 0 1 15.861-3.164z" fill="#8e603d"/><path d="m200.5 214.818s10.061 24.767-2.44 41.35a17.916 17.916 0 0 0 -3.521 13.85c1.113 6.378 3.684 14.992 9.606 22.3a17.89 17.89 0 0 0 8.571 5.785 13.707 13.707 0 0 1 9.812 10.862 3.054 3.054 0 0 1 -3 3.63h-16.564a10.941 10.941 0 0 1 -10.574-8.129c-2.317-8.691-7.138-22.443-15.993-31.523a20.082 20.082 0 0 1 -4.8-8.237 42.954 42.954 0 0 1 -.261-23.059c4.433-17.5-3.733-22.863-3.033-22.629s32.197-4.2 32.197-4.2z" fill="#8e603d"/><path d="m172.793 151.6s-28.6 2.509-56.2 29.1-53.944 21.327-53.944 21.327-43.868-4.515-38.058-54.938c4.725-41.01 35.7-46.4 47.526-46.945a1.023 1.023 0 0 0 .333-1.975c-7.71-3.013-24.9-7.071-43.172 6.256-28.64 20.891-26.848 55.952-26.848 55.952s-.788 60.915 54.033 74.033c0 0 2.029.465 3.072.673 0 0 48.6 10.217 71.25-11.208 0 0 13 6.761 36.553 7.446l18.589-2.033a67.022 67.022 0 0 0 43.8-35.2 104.477 104.477 0 0 0 5.039-12.137z" fill="#edb87b"/><path d="m110.028 223.882c-20.521 14.285-52.742 10.618-53.563 10.518 1.006.241 2.026.471 3.07.679 0 0 42.78 8.993 66.774-7.593-1.882-11.484 3.706-18.964 8.675-23.2a2.149 2.149 0 0 0 -1.713-3.752c-27.042 3.812-23.243 23.348-23.243 23.348z" fill="#8e603d"/><path d="m223.577 189.48c5.063 3.028 14.037 7.586 23.188 8.326a10.944 10.944 0 0 1 9.936 9.006 42.355 42.355 0 0 1 .383 12.433c-1.172 9.026-9.251 15.637-18.264 14.359a23.157 23.157 0 0 1 -6.471-1.962s10.263-5.116 9.917-16.4a4.061 4.061 0 0 0 -4.561-3.91c-4.3.536-11.336 1.131-16.807.224a19.747 19.747 0 0 1 -11.885-6.611c-2.725-3.223-4.656-7.567-1.483-12.049l.184-.256a12.007 12.007 0 0 1 15.863-3.16z" fill="#edb87b"/><path d="m215.472 30.13s6.244 51.738 33.6 72.552l10.7 31.816s-16.651 22.3-15.462 66.01c0 0-17.543-12.191-43.115-6.542 0 0-15.759-27.058-38.952-33.6 0 0 7.137-23.193-8.028-54.117 0 0 21.112-19.625 20.814-53.225.004.001 21.116.893 40.443-22.894z" fill="#ff6784"/><g fill="#8e603d"><path d="m152.017 177.561a1.087 1.087 0 0 0 1.972-.845 124.49 124.49 0 0 1 -2.571-19.106c-2.051.855-4.2 1.832-6.433 2.941a56.393 56.393 0 0 0 7.032 17.01z"/><path d="m144.161 190.338a1.072 1.072 0 0 0 1.472-1.506c-5.106-7.4-10.515-18.071-12.255-21.587q-2.608 1.719-5.271 3.695a45.431 45.431 0 0 0 16.054 19.398z"/><path d="m115.217 181.977a42.576 42.576 0 0 0 14.005 14.523 1.164 1.164 0 0 0 1.586-1.65 110.4 110.4 0 0 1 -10.05-17.969c-1.389 1.218-2.779 2.479-4.167 3.816-.459.445-.916.856-1.374 1.28z"/><path d="m112.318 201.313a1.309 1.309 0 0 0 1.617-2 58.927 58.927 0 0 1 -6.942-10.538q-2.758 2.01-5.451 3.658a41.46 41.46 0 0 0 10.776 8.88z"/><path d="m26.805 173.652a22.31 22.31 0 0 0 -10.065 7.5 1.182 1.182 0 0 0 1.5 1.764 29.972 29.972 0 0 1 10.921-3.716 42.585 42.585 0 0 1 -2.356-5.548z"/><path d="m24.208 160.347a24.344 24.344 0 0 0 -12.346 1.929 1.18 1.18 0 0 0 .451 2.252c3.679.129 8.976.513 12.582 1.61a56.618 56.618 0 0 1 -.687-5.791z"/><path d="m12.859 147.541a1.18 1.18 0 0 0 .018 2.3 46.76 46.76 0 0 1 11.223 3.9q.093-2.993.451-6.235c-4.067-1.361-8.305-.8-11.692.035z"/><path d="m33.075 101.906c-8.745 13.938-14.428 33.965-8.542 61.817a69.322 69.322 0 0 1 .056-16.634c4.724-41 35.689-46.4 47.522-46.945a1.022 1.022 0 0 0 .335-1.971 43.866 43.866 0 0 0 -39.371 3.733z"/><path d="m157.909 188.675a1.791 1.791 0 0 0 2.817-1.813 9.871 9.871 0 0 0 -1.108-2.9 8.364 8.364 0 0 0 -2.018-2.362 1.792 1.792 0 0 0 -2.864 1.821 10.953 10.953 0 0 0 1.216 3.12 7.748 7.748 0 0 0 1.957 2.134z"/><path d="m185.925 229.28c-4.021-11.228-12.427-17.77-19.358-21.422a4.824 4.824 0 0 0 -6.694 6.1l7.071 17.343a67.894 67.894 0 0 0 18.981-2.021z"/></g><path d="m122.687 229.694c4.2 4.753 11.968 8.92 26.053 10.087a63.414 63.414 0 0 1 -10.251 21.079 12.852 12.852 0 0 0 -1.4 12.893 80.178 80.178 0 0 1 6.456 30.4 9.18 9.18 0 0 0 9.2 8.88h18.662a3.183 3.183 0 0 0 3.172-3.524c-.366-3.348-2.1-8.185-8.7-10.381a11 11 0 0 1 -6.686-5.85q-.2-.444-.4-.925a37.339 37.339 0 0 1 8.83-41.353l.292-.277a22.922 22.922 0 0 0 7.209-18.1 37.619 37.619 0 0 0 -3.453-13.516c-7.81-16.705-28.383-22.833-44.419-13.728l-.3.169c-8.608 4.98-10.852 16.692-4.265 24.146z" fill="#edb87b"/><path d="m149.557 231.1-9.584 7.418a68.829 68.829 0 0 0 8.767 1.265l2.384-7.592a1 1 0 0 0 -1.567-1.091z" fill="#8e603d"/><path d="m247.69 122.049-3.66-6.661c-26.093 15.432-64.746 35-82.836 44.011a1.726 1.726 0 0 0 1.121 3.234c16.246-3.27 46.97-15.133 85.375-40.584z" fill="#c13251"/><path d="m150.7 103.522c20.305 2.735 59.79 7.416 95.468 7.936v10.591s-58.895-1.472-96.342-14.89a1.88 1.88 0 0 1 .874-3.637z" fill="#c13251"/><path d="m175.541 50.36c13.861 14.133 45.218 44.222 73.9 58.345l-5.413 6.683s-43.728-16.328-70.8-63.283a1.461 1.461 0 0 1 2.313-1.745z" fill="#c13251"/><path d="m247.69 122.049s-23.726 32.335-51.961 74.641a1.714 1.714 0 0 0 2.571 2.228c12.965-11.762 36.857-36.61 53.005-72.254z" fill="#c13251"/><path d="m254.473 132.514s-15.055 34.408-10.374 72.023a1.5 1.5 0 0 0 2.977-.095c.9-16.06 4.423-42.8 17.178-65.946z" fill="#c13251"/><path d="m213.93 28.084c.131 17.379 3.984 53.687 31.222 80.046l4.291-7.9s-22.983-23.191-33.3-72.37a1.119 1.119 0 0 0 -2.213.224z" fill="#c13251"/><path d="m233.627 149.375s10.438-7.034 21.556-.454c4.217-12.379 4.593-14.423 4.593-14.423l-10.7-31.816a58.993 58.993 0 0 1 -12.047-12.691c-1.521 8.82-8.042 19.8-25.793 23.688-.004 0 23.531 10.987 22.391 35.696z" fill="#c13251"/><path d="m295.262 110.8a34.884 34.884 0 0 1 -6.453 11 .736.736 0 0 1 -1.258-.685c.786-2.824 1.772-7.319 1.153-10.4z" fill="#eee6ff"/><path d="m285.822 111.263a27.685 27.685 0 0 1 -5.121 8.729.584.584 0 0 1 -1-.544c.623-2.241 1.405-5.808.915-8.253z" fill="#b5b1ff"/><path d="m275.3 139.9a33.725 33.725 0 0 0 4.192-11.6.712.712 0 0 0 -1.288-.513c-1.615 2.331-4.349 5.845-7.023 7.29z" fill="#eee6ff"/><path d="m270.079 134.525a26.784 26.784 0 0 0 3.326-9.207.565.565 0 0 0 -1.022-.407c-1.282 1.85-3.451 4.638-5.573 5.784z" fill="#b5b1ff"/><path d="m277.737 111.517a24.208 24.208 0 0 1 -4.476 7.631.511.511 0 0 1 -.873-.475c.545-1.96 1.229-5.078.8-7.215z" fill="#b5b1ff"/><path d="m267.591 128.673s-6.11-13.215 5.82-16.83v-2.11l-23.968.645 16.337 19.222z" fill="#8e603d"/><path d="m242.141 127.035a13.21 13.21 0 0 1 -1.506-1.2 12.6 12.6 0 0 1 -.024-18.231l2.476-2.411a14.6 14.6 0 0 0 1.854-2.1l7.234-10.194a15.971 15.971 0 0 1 23.831-2.987q.434.379.859.794a21.5 21.5 0 0 0 12.68 6.135l1.838.2a7.628 7.628 0 0 1 6.516 9.722l-1.374 4.711a2.1 2.1 0 0 1 -2.018 1.513h-35.329a1.594 1.594 0 0 0 -1.386 2.383 72.435 72.435 0 0 0 19.646 21.737 1.348 1.348 0 0 1 .242 1.95l-2.833 3.373a8.6 8.6 0 0 1 -11.632 1.43c-3.821-2.767-9.075-6.835-15.192-12.273a57.737 57.737 0 0 0 -5.882-4.552z" fill="#edb87b"/><path d="m265 103.55a2.994 2.994 0 0 1 -1.121-.217l-1.5-.6a3.02 3.02 0 1 1 2.243-5.609l1.5.6a3.02 3.02 0 0 1 -1.122 5.826z" fill="#8e603d"/></svg>