<svg id="Flat" height="512" viewBox="0 0 340 340" width="512" xmlns="http://www.w3.org/2000/svg"><path d="m316.751 230.431a80.418 80.418 0 0 0 -35.71-8.952 102.516 102.516 0 0 0 -21.983 2.085s.233-9.542 8.334-15.032a17.439 17.439 0 0 1 11.159-2.787c10.053.782 38.568 1.241 42.666-18.168 0 0-21.725 2.876-47.015-13.944a76.928 76.928 0 0 0 -12.14-6.664l-9.547-4.11s2.908-6.6 19.266-11.3 18.9-18.509 18.9-18.509a46.348 46.348 0 0 1 -15.267-2.181c-7.27-2.545-15.631-1.818-15.631-1.818a114.456 114.456 0 0 1 32.946-17.384 41.252 41.252 0 0 0 24.4-20.44c.9-1.765 1.783-3.692 2.632-5.8a13.037 13.037 0 0 1 6.443-7.27s-6.806-4-20.983 0c0 0-53.8 16.721-101.417 3.272 0 0-38.968-9.884-64.39-9.988a33.625 33.625 0 0 0 -15.756 3.869l-23.452 12.3 8.724-18.175s-32.714-5.812-58.522 2.185-41.8 9.815-41.8 9.815 11.632 96.691 0 181.024c0 0 20.72 11.269 66.521 0 13.3-3.271 37.377-5.669 47.72-6.6a1.463 1.463 0 0 0 .746-2.632c-2.734-2.021-5.47-5.558-3.566-11.124 1.577-4.61 6.845-7.04 12-8.321a40.089 40.089 0 0 1 19.424.2c1.857.465 3.836 1.03 5.7 1.69 6.931 2.461 3.436 11.045.047 16.185a1.743 1.743 0 0 0 1.528 2.7c9.5-.357 35.471-.151 59.608 10.635a77.733 77.733 0 0 0 17.514 5.352c10.78 2.007 26.653 3.582 40.666-.453 0 0-13.813-11.268 0-25.808 0 0 10.905-8 25.445 0 0 0 16.722 9.451 29.444-9.088a51.023 51.023 0 0 1 -14.654-4.764zm-89.751 7.401a13.68 13.68 0 0 1 -11.544-1.153 36.789 36.789 0 0 1 -9.293-8.126l7.338-5.92a7.674 7.674 0 0 1 11.217 1.735l7.68 11.6z" fill="#5b5b81"/><path d="m301.951 244.284s16.722 9.451 29.444-9.088a51 51 0 0 1 -14.624-4.755 80.547 80.547 0 0 0 -35.728-8.962 102.476 102.476 0 0 0 -21.985 2.085s.233-9.542 8.334-15.032a17.439 17.439 0 0 1 11.159-2.787c10.053.782 38.568 1.241 42.666-18.168 0 0-8.375 1.1-20.773-2.078-12.535.506-31.56-2.588-43.756-9.681-13.292-7.73-35.282-2.775-42.746-.748-.818.238-1.637.475-2.466.712l-.114.036c-42.846 12.2-99.953 22.166-175.883 26.121a13.907 13.907 0 0 0 -12.9 11.165c-2.186 10.9-5.988 24.874-12.438 36.918-.461 4.166-.962 8.319-1.53 12.439 0 0 20.72 11.269 66.521 0 13.3-3.271 37.377-5.669 47.72-6.6a1.463 1.463 0 0 0 .748-2.631c-2.735-2.021-5.472-5.558-3.568-11.125 1.577-4.61 6.845-7.04 12-8.321a40.089 40.089 0 0 1 19.424.2c1.857.465 3.836 1.03 5.7 1.69 6.933 2.461 3.434 11.049.044 16.189a1.74 1.74 0 0 0 1.525 2.695c9.494-.357 35.472-.153 59.614 10.635a77.8 77.8 0 0 0 17.512 5.352c10.779 2.007 26.654 3.582 40.668-.453 0 0-13.813-11.268 0-25.808-.013 0 10.892-7.997 25.432 0zm-74.951-6.452a13.68 13.68 0 0 1 -11.544-1.153 36.789 36.789 0 0 1 -9.293-8.126l7.338-5.92a7.674 7.674 0 0 1 11.217 1.735l7.68 11.6z" fill="#333353"/><path d="m294.849 163 3.739-5.52a13.339 13.339 0 0 1 8.99-5.7 12.927 12.927 0 0 1 14.644 10.12l1.138 5.422s-16.36 5.843-28.511-4.322z" fill="#5b5b81"/><path d="m54.145 118.813s-11.119-1.334-14.077 6.456a10.446 10.446 0 0 0 1.044 9.31c1.873 2.895 5.642 5.9 13.033 4.138l7.209-1.771a10.262 10.262 0 0 1 8.286 1.525l86.352 59.7a7.507 7.507 0 0 1 3.063 7.972 14.727 14.727 0 0 0 .991 10.779 10.1 10.1 0 0 0 8.288 5.05c4.731.278 11.058-1.747 9.746-15.135 0 0 7.111.474 10.763-5.023 5.073-7.637-1.986-17.913-10.885-15.708a12.208 12.208 0 0 0 -3.4 1.426 7.442 7.442 0 0 1 -8.112-.39l-85.346-60.148a10.211 10.211 0 0 1 -4.324-9.111 23.728 23.728 0 0 0 -.759-8.581 11.354 11.354 0 0 0 -17.817-5.516c-3 2.414-5.267 6.866-4.055 15.027z" fill="#fff"/><path d="m179.134 118.813s11.118-1.334 14.076 6.456a10.443 10.443 0 0 1 -1.044 9.31c-1.873 2.895-5.642 5.9-13.032 4.138l-7.21-1.771a10.262 10.262 0 0 0 -8.286 1.525l-86.352 59.7a7.511 7.511 0 0 0 -3.063 7.972 14.727 14.727 0 0 1 -.991 10.779 10.1 10.1 0 0 1 -8.288 5.05c-4.73.278-11.058-1.747-9.746-15.135 0 0-7.111.474-10.763-5.023-5.073-7.637 1.986-17.913 10.885-15.708a12.2 12.2 0 0 1 3.4 1.426 7.444 7.444 0 0 0 8.113-.39l85.351-60.151a10.211 10.211 0 0 0 4.324-9.111 23.728 23.728 0 0 1 .759-8.581 11.355 11.355 0 0 1 17.814-5.516c3 2.417 5.265 6.869 4.053 15.03z" fill="#fff"/><path d="m152.227 194.34c1.008-1.641 3.94-5.807 3.94-5.807 1.9-2.574 4.269-5.509 7.194-8.744a25.524 25.524 0 0 0 6.616-18.168c-.608-14.311-5.9-37.527-32.521-45.869a61.67 61.67 0 0 0 -43.731 2.621c-13.291 6.006-28.25 18.189-29.919 42.734a25.391 25.391 0 0 0 8.471 20.572c3.154 2.826 6.957 6.468 10.891 10.775a21.03 21.03 0 0 1 3.692 5.65c20.761 5.981 52.94 3.243 65.367-3.764z" fill="#5b5b81"/><path d="m86.84 198.113a21.3 21.3 0 0 1 1.851 8.375l.122 9.632a8.1 8.1 0 0 0 7.3 7.952 241.954 241.954 0 0 0 45.613-.156 8.1 8.1 0 0 0 7.358-8.062v-10.392a21.239 21.239 0 0 1 3.138-11.122c1-1.637 2.311-3.593 3.944-5.8-20.697 3.791-43.728 7.052-69.326 9.573z" fill="#333353"/><path d="m132.642 124.01a50.876 50.876 0 0 0 -34.91 2.54c-10.993 4.967-23.365 15.042-24.746 35.343a21 21 0 0 0 7.006 17.013c2.579 2.311 5.683 5.283 8.9 8.792a17.709 17.709 0 0 1 4.676 11.726l.1 7.966a6.7 6.7 0 0 0 6.041 6.576c1.048.1 2.232.21 3.538.309a2 2 0 0 0 2.149-1.991v-12.5a4.117 4.117 0 0 1 3.604-4.159 4 4 0 0 1 4.393 3.981v13.17a2 2 0 0 0 1.983 2q2.781.024 5.87-.031a2 2 0 0 0 1.951-2v-12.966a4.117 4.117 0 0 1 3.607-4.154 4 4 0 0 1 4.393 3.981v12.58a1.992 1.992 0 0 0 2.132 1.992q2.007-.148 4.094-.34a6.7 6.7 0 0 0 6.091-6.668v-8.595a17.586 17.586 0 0 1 2.6-9.21 82.882 82.882 0 0 1 9.2-12.02 21.112 21.112 0 0 0 5.473-15.024c-.507-12.057-5.035-31.758-28.145-38.311z" fill="#fff"/><g fill="#5b5b81"><path d="m151.982 161.29a25.189 25.189 0 0 1 -1.992 11.468 11.543 11.543 0 0 1 -16.287 5.1 28.066 28.066 0 0 1 -12.127-13.37 11.481 11.481 0 0 1 7.417-15.449 33.505 33.505 0 0 1 8.42-1.315 14.167 14.167 0 0 1 14.569 13.566z"/><path d="m83.917 165.3a25.176 25.176 0 0 0 4.29 10.821 11.542 11.542 0 0 0 16.984 1.67 28.056 28.056 0 0 0 9.145-15.562 11.481 11.481 0 0 0 -10.412-13.612 33.485 33.485 0 0 0 -8.511.43 14.167 14.167 0 0 0 -11.496 16.253z"/><path d="m115.717 187.181 1.867-1.763a1.5 1.5 0 0 1 2.024-.03l2.033 1.807a1.5 1.5 0 0 0 2.482-1.332 30.285 30.285 0 0 0 -4.329-11.913 1.524 1.524 0 0 0 -2.452-.121c-2.432 3.032-3.845 6.607-4.156 12.161a1.507 1.507 0 0 0 2.531 1.191z"/></g><path d="m219.688 135.7a3.3 3.3 0 0 1 -2.628-4.985c1.306-2.17 3.817-4.466 8.643-5.232 0 0 3.651-1.028 7.7 2.387a2.42 2.42 0 0 1 .389 3.3c-1.585 2.102-5.401 5.117-14.104 4.53z" fill="#fff"/></svg>