<svg id="icon" height="512" viewBox="0 0 340 340" width="512" xmlns="http://www.w3.org/2000/svg"><path d="m240.584 275.984h51.368v19.892h-51.368z" fill="#7f4242"/><path d="m216.688 324.887h10.836a14.836 14.836 0 0 0 14.311-10.923l18.008-65.854a57.286 57.286 0 0 0 -21.121 0z" fill="#d07a76"/><path d="m318.922 324.887h-10.835a14.835 14.835 0 0 1 -14.311-10.923l-18.008-65.854 20.7-1.475z" fill="#d07a76"/><path d="m264.48 231.152h-20.891l-4.867 16.958h21.121z" fill="#7f4242"/><path d="m292.022 231.152h-20.891l4.637 16.958h9.619a50.706 50.706 0 0 0 11.078-1.475z" fill="#7f4242"/><path d="m274.221 40.685h-26.055v195.385h26.055c33.975 0 61.517-43.739 61.517-97.693s-27.538-97.692-61.517-97.692z" fill="#342a35"/><ellipse cx="248.166" cy="138.377" fill="#fe5d77" rx="61.517" ry="97.693"/><ellipse cx="248.166" cy="138.377" fill="#fff" rx="37.221" ry="70.223"/><ellipse cx="248.166" cy="138.377" fill="#fe5d77" rx="12.802" ry="28.389"/><path d="m140.221 241.452s-15.124-7.832-27.019-.6l-20.728 15.025 17.725 6.64.8 18.912 20.724-15.029c11.121-9.187 8.498-24.948 8.498-24.948z" fill="#fe5d77"/><path d="m54.206 138.377c-8.982-6.329-17.235-7.542-26.4-4.741l-23.544 10.055 15.812 10.409-3.416 18.618 23.542-10.06c14.332-7.336 14.006-24.281 14.006-24.281z" fill="#fe5d77"/><path d="m126.716 27.663c-6.809-8.624-14.4-12.625-23.986-12.549l-25.43 2.938 12.2 14.475-8.58 16.873 25.431-2.938c14.815-3.309 20.365-18.799 20.365-18.799z" fill="#fe5d77"/><g fill="#342a35"><path d="m226.536 38.558c-2.242-.941-55.673-22.935-121.1-12.547a3.5 3.5 0 1 0 1.1 6.913c63.388-10.063 116.766 11.867 117.3 12.089a3.5 3.5 0 0 0 2.709-6.455z"/><path d="m142.427 114.043a3.5 3.5 0 0 0 -3.9-3.049c-.508.063-51.462 6.517-101.7 31.547a3.5 3.5 0 1 0 3.121 6.266c49.124-24.474 98.935-30.8 99.432-30.864a3.5 3.5 0 0 0 3.047-3.9z"/><path d="m216.426 193.248c-.567.258-57.094 26.151-92.5 55.728a3.5 3.5 0 0 0 4.488 5.372c34.676-28.963 90.358-54.475 90.917-54.73a3.5 3.5 0 0 0 -2.9-6.37z"/><path d="m213.982 190.447a29.524 29.524 0 0 1 6.385 13.463 1.658 1.658 0 0 0 2.781.922l17.76-17.046a1.661 1.661 0 0 0 -1.339-2.848l-24.493 2.808a1.656 1.656 0 0 0 -1.094 2.701z"/><path d="m136.676 106.11a29.49 29.49 0 0 1 2.1 16.488 1.159 1.159 0 0 0 1.638 1.263l24.368-11.772a1.158 1.158 0 0 0 -.272-2.177l-26.545-5.4a1.157 1.157 0 0 0 -1.289 1.598z"/><path d="m225.2 32.637a29.549 29.549 0 0 1 -6.062 13.678 1.641 1.641 0 0 0 1.1 2.681l25.809 2.46a1.229 1.229 0 0 0 .953-2.127l-19.07-17.616a1.639 1.639 0 0 0 -2.73.924z"/></g></svg>