<svg id="flat" height="512" viewBox="0 0 340 340" width="512" xmlns="http://www.w3.org/2000/svg"><path d="m82.9 165.605 5.3-9.079 20.145 6.467 21.62 6.941c-9.987 9.549-20 19.427-28.845 17.331l-15.247-9.556a8.954 8.954 0 0 1 -2.973-12.104z" fill="#b1efef"/><path d="m101.125 187.265 25.238 15.816 3.607-33.147-20.96-6.729a21.09 21.09 0 0 0 -.11 4.429c1.259 11.843-3.4 16.85-7.775 19.631z" fill="#6bb7bf"/><path d="m125.76 99.05s-25.1-17.683-17.564-47.535c5.538-21.94 24.106-33.832 31.821-37.926a1.974 1.974 0 0 1 2.885 1.964c-.548 5.174-.08 9.653 2.137 12.937 0 0 2.117-8.786 20.029-10.425a28.643 28.643 0 0 0 14.98-6.392 1.972 1.972 0 0 1 3.109.869c2.539 7.13 7.561 26.543-8.622 36.19a76.476 76.476 0 0 0 15.939-.922 1.97 1.97 0 0 1 2.329 1.655c.964 6.925 2.757 29.39-12.292 40.717l-10.8 8.868z" fill="#f74f73"/><path d="m140.575 99.391s-16.475-5.024-12.259-23.915c2.948-13.195 13.936-19.919 20.294-22.774a2.541 2.541 0 0 1 3.535 2.741 20.216 20.216 0 0 0 -.032 6.8 5.462 5.462 0 0 0 7.645 3.971 24.132 24.132 0 0 0 3.443-1.935 2.854 2.854 0 0 1 4.3 1.479c2.663 8.086 6.858 26.938-9.236 33.032z" fill="#fff"/><path d="m106.737 224.372 27.057-16.005 2.272 22.024z" fill="#6bb7bf"/><path d="m179.782 301.936a106.552 106.552 0 0 1 10.7 14.346l5.384 8.336a9.082 9.082 0 0 0 7.63 4.156h52.465a4.218 4.218 0 0 0 3.421-6.687l-46.729-64.762-48.788-37.2c-5.184 17.409-2.325 36.562 6.161 56.935z" fill="#b1efef"/><path d="m173.7 278.434 1.967-25.012 2.243-16.993-7.76-6.038-7.494 3.732-4.42 50.973 8.061 5.976a55.031 55.031 0 0 1 13.914 11.343c3.972-10.557-.222-15.669-3.576-17.937a6.664 6.664 0 0 1 -2.935-6.044z" fill="#6bb7bf"/><path d="m211.725 106.312 6.154-9.895a1.6 1.6 0 0 0 -1.407-2.454c-4.83.158-14.744 1.046-23.184 5.412l-9.444-14.258a1.606 1.606 0 0 0 -2.094-.53l-16.8 8.96-14.9-13.674a1.606 1.606 0 0 0 -2.172 0l-14.9 13.674-16.8-8.96a1.607 1.607 0 0 0 -2.095.53l-9.443 14.258c-8.44-4.366-18.355-5.254-23.184-5.412a1.6 1.6 0 0 0 -1.407 2.454l6.154 9.895a16.548 16.548 0 0 1 2.54 9.453c-.1 2.323-.326 4.577-.636 6.742a34.427 34.427 0 0 1 -5.191 19.624 17.212 17.212 0 0 0 6.203 16.869c22.408 17.512 97.291 17.512 119.7 0a17.21 17.21 0 0 0 6.194-16.874c-4.774-5.846-6.179-12.459-5.19-19.619-.31-2.165-.533-4.419-.637-6.742a16.56 16.56 0 0 1 2.539-9.453z" fill="#a3adda"/><path d="m191.04 167.1c.659-10.061-4.048-26.415-41.837-25.912-41.227.548-42.243 18-40.3 26.451 23.883 6.167 58.897 5.988 82.137-.539z" fill="#656fa0"/><path d="m148.955 110.677s-31.231-.556-60.844 11.829a79.124 79.124 0 0 1 -4.368 16.763 17.457 17.457 0 0 0 -.812 2.863c10.858-5.974 32.4-14.636 66.05-14.636s55.172 8.658 66.024 14.632a17.48 17.48 0 0 0 -.811-2.859 79.114 79.114 0 0 1 -4.368-16.762c-29.62-12.386-60.871-11.83-60.871-11.83z" fill="#656fa0"/><path d="m177.268 169.146a11.467 11.467 0 0 0 -6.491-14.418 58.215 58.215 0 0 0 -21.809-4.194 58.912 58.912 0 0 0 -11.915 1.209s-8.466 5.2-8.428 10.382c.218 29.835 16.551 127 16.551 127 8.155.341 14.6-2.972 19.779-8.969.293-27.749 2.224-81.675 12.313-111.01z" fill="#a3adda"/><path d="m127.159 154.728a11.467 11.467 0 0 0 -6.49 14.418c2.862 8.322 5.068 18.624 6.766 29.745a48.354 48.354 0 0 1 2.633 21.622c1.919 20.043 2.62 40.354 2.854 55.1 6.506-3.722 13.6-11.185 12.254-25.9-2.4-26.295-8.338-65.591-11.33-79.806-1.952-9.273.953-15.173 3.209-18.157 0 0-7.106 1.85-9.896 2.978z" fill="#656fa0"/><path d="m164.955 280.154a34.6 34.6 0 0 1 -8.8 1.759 8.451 8.451 0 0 1 -8.969-8.445v-8.655l-14.486.651c.521 18.778.264 32.2.264 32.2 10.663 5.688 21.334 4.872 32.008 0 0 .001-.13-6.811-.017-17.51z" fill="#656fa0"/><path d="m133.846 301.631h30.244a0 0 0 0 1 0 0v12.021a15.122 15.122 0 0 1 -15.122 15.122 15.122 15.122 0 0 1 -15.122-15.122v-12.021a0 0 0 0 1 0 0z" fill="#656fa0"/><path d="m172.922 291.255-.175-.175a6.817 6.817 0 0 0 -9.127-.4c-2.908 2.342-7.583 4.684-14.652 4.684-3.523 1.108-6.3 3.214-7.174 7.842-.292 3.284 1.986 5.787 5.431 7.936 10.4.476 21.017-3.35 26.337-11.059a6.885 6.885 0 0 0 -.64-8.828z" fill="#a3adda"/><path d="m170.027 270.127a31.271 31.271 0 0 0 18.047 2.958 2.879 2.879 0 0 0 1.405-5.173l-15.723-11.612z" fill="#6bb7bf"/><path d="m150.9 193.209s-5.907 15.158 4.34 26.913a111.114 111.114 0 0 1 11.379 15.778c.489-7.208 1.114-14.577 1.911-21.828z" fill="#656fa0"/><path d="m194.583 271.681s-30.493 0-29.205-35.964c.189-5.284-.247-14.415-3.919-18.22l-5.247-5.436a21.371 21.371 0 0 1 -5.782-17.833l.062-.437a7.139 7.139 0 0 1 10.316-5.355 227.849 227.849 0 0 1 31.906 19.524c19.211 14.347 19.94 49.365 19.94 49.365z" fill="#b1efef"/><path d="m128.625 207.461c.544 4.3 1.022 8.667 1.442 13.052l6.807-3.476c7.983-4.147 6.394-16.069 6.394-16.069z" fill="#656fa0"/><path d="m109.256 198.775 25.676-9.6a6.034 6.034 0 0 1 7.289 2.549c1.047 14.223-23.761 27.039-34.484 19.013-2.713-2.703-1.074-7.137 1.519-11.962z" fill="#b1efef"/><path d="m152.539 258.807c1.492-5.774-2.628-10.59-2.628-10.59 8.548-1 8.956-9.763 8.956-9.763a22.455 22.455 0 0 0 -.422-4.466 8.942 8.942 0 0 0 -8.286-7.051l-6.315-.373-12.358 11.9c.682 10.684 1.071 20.93 1.288 29.809l1.225.413c8.872.001 16.22-.897 18.54-9.879z" fill="#656fa0"/><path d="m118.659 225.076 25.185 1.488a9.947 9.947 0 0 1 9.351 9.523c-2.054 10.386-17.873 9.83-36.789 6.811-5.821-8.074-7.147-16.816 2.253-17.822z" fill="#b1efef"/><path d="m115.614 246.079 19.426.683a10.314 10.314 0 0 1 9.925 9.584c-3.122 8.669-12.282 11.351-28.687 6.845-3.531-5.998-2.578-11.597-.664-17.112z" fill="#b1efef"/><g fill="#6bb7bf"><path d="m152.8 239.548.23-1.226a10 10 0 0 0 .163-2.235c-3.848 5.717-10.546 4.876-10.546 4.876l-21.829-.889a5.943 5.943 0 0 1 -5.7-5.938v-1.021c0-4.8 2.089-7.048 3.543-8.039l-11.922-.7 1 21.43 35.683 1.255a9.213 9.213 0 0 0 9.378-7.513z"/><path d="m134 268.687a11.1 11.1 0 0 0 10.931-10.387l.037-.566a10.349 10.349 0 0 0 -.014-1.388 15.791 15.791 0 0 1 -8.943 2.928h-14.6a5.793 5.793 0 0 1 -5.793-5.793v-7.4l-7.877-.277.95 15.654a7.946 7.946 0 0 0 8.038 7.463z"/><path d="m143.259 199.188-.19-4.609a5.99 5.99 0 0 0 -.851-2.849c-1.606 9.128-8.008 12.14-8.008 12.14l-17.343 7.687a6.3 6.3 0 0 1 -8.841-5.9 22.379 22.379 0 0 1 1.23-6.878l-3.952 1.477a6.485 6.485 0 0 0 -4.158 6.781c1.291 12.046 5.591 17.339 5.591 17.339l29.963-14.295a11.543 11.543 0 0 0 6.559-10.893z"/></g><path d="m125.189 291.08-.175.175a6.812 6.812 0 0 0 -.639 8.832c5.11 7.051 13.9 10.641 22.85 11.052a12 12 0 0 1 -2.049-7.326c0-7.219 3.792-8.445 3.792-8.445-7.069 0-11.744-2.342-14.651-4.684a6.818 6.818 0 0 0 -9.128.396z" fill="#656fa0"/></svg>