<svg id="Flat" height="512" viewBox="0 0 340 340" width="512" xmlns="http://www.w3.org/2000/svg"><path d="m151.871 179.758-25.361-18.978c-7.314-12.1-13.342-29.576-12.391-53.87 0 0 5.632-41.566-21.911-57.766a38.2 38.2 0 0 0 -35.462-1.551c-10.091 4.734-21.177 14.618-22.646 35.251a37.043 37.043 0 0 0 6.727 24.649c4.807 6.542 12.89 13.122 26.323 14.911a2.453 2.453 0 0 1 .731 4.646c-4.656 2.146-12.129 3.7-22.737.444 0 0-39.66-11.372-34.062-63.858 2.47-23.159 17.673-36.171 30.605-43.717 19.513-11.387 43.613-11.089 63.507-.373a83.731 83.731 0 0 1 23.606 18.672c7.611 8.758 11.611 20.065 12.266 31.649a143.287 143.287 0 0 0 6.7 36.362c5.507 16.392 12.512 36.265 30.25 43.782z" fill="#ffb664"/><path d="m147.774 106.227c-2.474 18.467-8.562 37.886-21.263 54.552 10.1 16.712 22.653 23.171 22.653 23.171l31.736-37.329c-17.739-7.521-27.619-24.001-33.126-40.394z" fill="#e87b40"/><path d="m228 310.915 80.279-105.773s-30.07-34.015-69.937-57.3a65.225 65.225 0 0 0 -79.662 10.939q-.464.476-.928.957a65.243 65.243 0 0 0 -6.016 83.347c15.029 20.97 41.748 42.389 76.264 67.83z" fill="#a3b1e0"/><path d="m283.167 180.665c-15.645 18.465-53.942 71.983-91.2 98.256a5.8 5.8 0 0 0 -.708 8.894 102.4 102.4 0 0 0 25.926 18.574s65.643-59.491 91.093-114.578l-10.1-8.714c-5.372-4.008-10.844-7.35-15.011-2.432z" fill="#333353"/><path d="m217.184 306.389c13.423-14.352 58.435-63.746 88.846-112.341a7.012 7.012 0 0 1 9.927-2.077 83.142 83.142 0 0 1 11.407 9.388 7.068 7.068 0 0 1 1.307 8.263c-7.958 15.313-37.3 67.934-88.2 116.952a7.067 7.067 0 0 1 -8.138 1.2 50.063 50.063 0 0 1 -15.377-12.043 7.047 7.047 0 0 1 .228-9.342z" fill="#5b5b81"/><path d="m256.424 278.858q-.378-.357-.75-.719a17.416 17.416 0 0 1 -1.379-23.534l11.586-14.335a6 6 0 0 1 9.333 7.543l-11.586 14.335a5.469 5.469 0 0 0 .416 7.392 62.764 62.764 0 0 0 5.539 4.78c-.22 4.636-8.349 6.949-13.159 4.538z" fill="#ffb664"/><path d="m139.051 211.04c11.722-7.659 47.172-33.555 53.805-70.406a7.79 7.79 0 0 1 6.106-6.219c5.423-1.118 14.738-1.738 27.222 2.25l-22.206 72.51-55.389 38.369s-10.6-9-12.926-29.348a7.543 7.543 0 0 1 3.388-7.156z" fill="#5b5b81"/><path d="m246.868 149.03 13.12 7.875c3.471 2.317 5.173 6.312 4.152 9.8-5.979 20.429-48.965 66.108-100.158 96.959l-15.393-16.119a5.636 5.636 0 0 1 .4-8.177c15.1-12.934 63.612-56.19 81.6-92.746z" fill="#333353"/><path d="m176.456 220.252c-2.975 4.772-5.409 9.127-7.395 13.11l34.917-24.187 22.206-72.51a61.025 61.025 0 0 0 -18.207-3.086c-1.037 9.665-6.46 46.467-31.521 86.673z" fill="#333353"/><path d="m246.868 149.03s-15.858 92.475-52.553 141.652a165.363 165.363 0 0 1 -30.333-27.019s51.018-80.904 53.078-129.251c10.721.575 18.015 5.851 29.808 14.618z" fill="#5b5b81"/><path d="m40.959 32.263a2.41 2.41 0 0 0 3.259.989c5.841-3.117 23.312-10.687 43.646-2.842a4.814 4.814 0 0 0 6.288-2.848 4.792 4.792 0 0 0 -3.045-6.185c-8.698-2.751-28.507-6.395-49.357 7.723a2.431 2.431 0 0 0 -.791 3.163z" fill="#fff"/><path d="m275.4 289.286a17.5 17.5 0 0 0 13.2-6.018 81.381 81.381 0 0 0 12.447-18.106 6 6 0 1 0 -10.856-5.115 70.74 70.74 0 0 1 -10.635 15.335 5.472 5.472 0 0 1 -7.243.935c-.938-.65-1.843-1.322-2.732-2-4.612 3.856-9.138 4.893-13.154 4.535a77.217 77.217 0 0 0 9.05 7.333 17.367 17.367 0 0 0 9.923 3.101z" fill="#e87b40"/><circle cx="108.545" cy="36.164" fill="#fff" r="4.633"/></svg>