<svg id="icon" height="512" viewBox="0 0 340 340" width="512" xmlns="http://www.w3.org/2000/svg"><path d="m329.28 186.191a160.389 160.389 0 0 0 -20.88-35.383c-10.875-.64-32.306 17.272-32.306 17.272a113.329 113.329 0 0 1 17.592 23.989s-21.834 15.326-31.235 23.06a6.586 6.586 0 0 0 -.828 9.4l.372.43a74.919 74.919 0 0 0 -5.719 8.146 8.339 8.339 0 0 0 2.393 11.278 42.044 42.044 0 0 0 9.642 4.78 11.381 11.381 0 0 0 13.324-4.371c4.585-6.881 12.591-17.522 22.607-25.21 8.254-6.485 15.152-11.68 20.191-15.4a14.959 14.959 0 0 0 4.847-17.991z" fill="#ffd0b0"/><path d="m310.955 154.123c-1.589-2.156-2.551-3.315-2.551-3.315-10.875-.64-32.306 17.272-32.306 17.272a116.989 116.989 0 0 1 10.302 12.441c4.76-5.583 15.761-18.241 24.555-26.398z" fill="#ea8f8b"/><path d="m255.308 160.75 12.812 13.45a8.456 8.456 0 0 0 12.058.179 221.681 221.681 0 0 1 28.222-23.571l-26.548-35.5s-22.386 23.399-26.544 45.442z" fill="#e2e2e2"/><path d="m327.627 182.511a17.9 17.9 0 0 1 -8.1 16.267s-26.092 15.655-41.52 36.982c0 0-3.631 4.538-8.622 3.177-3.4-.926-9.414-4.161-12.917-6.136-.062.1-.124.2-.187.3a8.339 8.339 0 0 0 2.393 11.278 42.044 42.044 0 0 0 9.642 4.78 11.381 11.381 0 0 0 13.324-4.371c4.585-6.881 12.591-17.522 22.607-25.21 8.254-6.485 15.152-11.68 20.191-15.4a14.959 14.959 0 0 0 4.843-17.989q-.817-1.879-1.654-3.678z" fill="#ea8f8b"/><path d="m279.363 160.484a16.277 16.277 0 0 1 -2.646-15.644l7.549-21.231-6.506-3.673c-6.662 7.9-19.416 24.716-22.452 40.814l12.812 13.45a8.456 8.456 0 0 0 12.058.179c1.658-1.63 3.635-3.52 5.869-5.569z" fill="#979aa0"/><path d="m127 234.669s-51.67 69.878-66.315 96.5h72.185l19.939-21.48 8.938 1.594 8.343 19.886h65.083l-14.079-67.209z" fill="#e2e2e2"/><path d="m225.065 282.921-3.971-18.961-94.094-29.292s-2.884 3.866-9.317 12.729c.994 4.891 4.218 10.583 9.222 16.016 10.874 11.809 63.636 47.087 98.16 19.508z" fill="#979aa0"/><path d="m93.218 143.194-15.818 26.191-16.565-26.191-20.471 17.556 23.522 41.085a13.241 13.241 0 0 0 20.338 3.271l41.222-37.026z" fill="#ffd0b0"/><path d="m85.861 203.635c-7.979 4.794-11.083-.593-11.083-.593s-10.339-15.342-14.098-21.809a12.428 12.428 0 0 1 -.7-1.4 11.708 11.708 0 0 1 3.009-13.046 54.927 54.927 0 0 0 7.375-8.533l-9.526-15.063-20.474 17.559 8.848 15.45 14.674 25.631a13.24 13.24 0 0 0 20.338 3.271l1.637-1.471z" fill="#ea8f8b"/><path d="m73.949 88.116a94.643 94.643 0 0 1 2.451 22.734 67.078 67.078 0 0 1 -48.286 63.825 48.364 48.364 0 0 1 -15.5 2.08s-3.647-10.989-2.021-26.6c2.443-23.442 17.194-43.769 38.378-54.1a89.959 89.959 0 0 1 24.978-7.939z" fill="#ff7950"/><path d="m49.206 144.445a3 3 0 0 1 -2.487-4.674q.441-.658.876-1.32a3 3 0 0 1 5.015 3.294q-.452.689-.911 1.372a3 3 0 0 1 -2.493 1.328z" fill="#b74634"/><path d="m56.923 132.551a3 3 0 0 1 -2.594-4.5 162.884 162.884 0 0 0 15.9-38.039 3 3 0 0 1 5.8 1.557 169.341 169.341 0 0 1 -16.5 39.486 3 3 0 0 1 -2.606 1.496z" fill="#b74634"/><path d="m93.218 143.194-1.624 2.689c1.724 5.4 6.2 17.974 13.433 28.4a18.151 18.151 0 0 0 6.655 6.161l13.764-12.363z" fill="#ea8f8b"/><path d="m118.086 102.019-24.868 41.175a127.32 127.32 0 0 0 19.7 26.173 22.722 22.722 0 0 0 12.51 6.423 78.045 78.045 0 0 0 16.714.834s-8.972-57.89-24.056-74.605z" fill="#e2e2e2"/><path d="m118.864 143.326a37.093 37.093 0 0 0 1.492 8.9 12.469 12.469 0 0 1 -3.532 12.732l-4.334 3.972c.142.145.281.29.425.433a22.722 22.722 0 0 0 12.51 6.423 78.049 78.049 0 0 0 16.714.834s-5.573-35.958-15.319-59.377l-9.142-.877z" fill="#979aa0"/><path d="m172.29 85.715-44.648-1.241a10.665 10.665 0 0 0 -10.862 9.209l-1.766 12.84a44.108 44.108 0 0 0 .994 17.2c2.356 8.98 7 24.067 14.963 34.016a17.848 17.848 0 0 1 3.868 12.034 223.347 223.347 0 0 1 -6.964 45.729 21.505 21.505 0 0 1 -1.875 4.648 56.926 56.926 0 0 0 -4.419 10.583 22.532 22.532 0 0 0 6.1 22.845 133.36 133.36 0 0 0 31.706 21.878 74.254 74.254 0 0 0 47.227 6.81 70.237 70.237 0 0 0 7.9-1.987 16.4 16.4 0 0 0 10.986-11.627c4.16-16.568 13.7-55.582 18.269-82.5a26.059 26.059 0 0 1 6.242-13.018c7.986-8.944 23.727-27.27 34.766-44.578a15.905 15.905 0 0 0 1.771-13.152 16 16 0 0 0 -12.448-11.116l-21.917-4c-16.963-.34-48.289-7.388-79.893-14.573z" fill="#f45d77"/><path d="m223.835 138.621a27.069 27.069 0 0 0 23.107-15.392c2.6-5.546 4.739-13.03 5.241-22.939l-10.162-1.854c-15.271-1.694-42.087-7.076-69.731-12.721l-26.755-.744c.365 3.406 3.562 23.627 28.441 30.669l16.324 18.241s11.6 5.91 33.535 4.74z" fill="#bc3552"/><path d="m241.764 98.389-69.474-12.674-11.03-.307-6.4 16.975a31.015 31.015 0 0 0 .962 24.187c5.356 11.354 14.934 28.113 29.373 41.027a3.967 3.967 0 0 0 4.957.286c9.275-6.636 41.009-31.606 51.612-69.494z" fill="#fff"/><path d="m172.29 85.715-11.031-.307-6.4 16.975c-.193.512-.37 1.028-.535 1.546 4.223 4.695 10.452 9.106 19.655 11.711l16.321 18.241s10.45 5.318 30.264 4.862c8.636-10.93 17.979-23.1 21.758-43l-8.4 1.212z" fill="#c1c1c1"/><path d="m170.55 119.422c2.753 7.22 7.981 18.927 15.479 27.255a1.917 1.917 0 0 0 2.5.285c5.814-3.951 28.31-20.842 37.758-51.4l-45.243-8.254a84.85 84.85 0 0 0 -10.363 18.363 18.887 18.887 0 0 0 -.131 13.751z" fill="#373d4c"/><path d="m242.323 58.381c-2.6 16.375-5.025 31.045-9.242 43.638 0 0-25.844 6.8-49.027-13.877l12.218-32.58z" fill="#ffd0b0"/><path d="m208.849 76.515a3.5 3.5 0 0 1 4-3.022l.038.007c13.252 2.406 22.579 1.254 26.97-.189.845-4.807 1.652-9.773 2.47-14.93l-46.051-2.819-18.1 37.491a36.159 36.159 0 0 0 4.051 10.037c7.184 12.264 19.618 18.267 19.618 18.267h16.717c7.812-2.559 12.524-14.762 14.008-19.219.329-.072.511-.119.511-.119.951-2.841 1.8-5.8 2.593-8.851-9.084 1.807-18.715 1.035-25.9-.131l-4.14-1.325a112.44 112.44 0 0 0 3.215-15.197z" fill="#ea8f8b"/><path d="m182.9 186.507 3.849.939a6.455 6.455 0 0 1 4.7 7.952l-12.439 46.114a6.447 6.447 0 0 1 -7.8 4.583 34.563 34.563 0 0 1 -7.286-2.687 6.415 6.415 0 0 1 -3.229-7.256 382.1 382.1 0 0 1 14.675-45.762 6.446 6.446 0 0 1 7.53-3.883z" fill="#fff"/><path d="m219.137 79.534a2.855 2.855 0 0 1 -.584-.061l-3.018-.638a2.81 2.81 0 1 1 1.162-5.5l3.018.637a2.811 2.811 0 0 1 -.578 5.561z" fill="#373d4c"/><path d="m232.214 80.073a2.811 2.811 0 0 1 -.606-5.555l1.961-.435a2.811 2.811 0 1 1 1.217 5.488l-1.961.435a2.844 2.844 0 0 1 -.611.067z" fill="#373d4c"/><path d="m12.367 140.389c33.762 1.307 32.421-28.17 32.421-28.17h-17.24a67.674 67.674 0 0 0 -15.181 28.17z" fill="#b74634"/><path d="m11.656 113.585a59.011 59.011 0 0 1 13.078-13.361 11.94 11.94 0 0 1 13.893-.234l1.074.738a11.867 11.867 0 0 1 5.087 11.491c-1.088 7.273-5.563 17.281-21.488 19.936a11.754 11.754 0 0 1 -5.862-.48c-.431-.154-.884-.337-1.347-.556a11.886 11.886 0 0 1 -4.435-17.534z" fill="#ffd0b0"/><path d="m58.034 156.41c-8.7 1.953-27.023 3.283-36.562-16.5a37.085 37.085 0 0 0 -5.878-8.987 66.407 66.407 0 0 0 -5 19.227c-1.626 15.612 2.021 26.6 2.021 26.6a48.364 48.364 0 0 0 15.5-2.08 66.216 66.216 0 0 0 29.919-18.26z" fill="#b74634"/><path d="m44.007 149.128a3 3 0 0 0 -4.207.547 97.7 97.7 0 0 1 -15.17 15.339l6.48 2.4a100.475 100.475 0 0 0 13.444-14.083 3 3 0 0 0 -.547-4.203z" fill="#b74634"/><g fill="#979aa0"><path d="m121.1 293.832-16.7 21.776a7.649 7.649 0 0 1 -9.48 2.195 53.231 53.231 0 0 1 -10.108-6.546 1.158 1.158 0 0 0 -1.667 1.584 35.272 35.272 0 0 0 13.655 11.191 8.806 8.806 0 0 0 10.722-2.663l19.85-26.254a1.961 1.961 0 0 0 -1.08-3.083 4.99 4.99 0 0 0 -5.192 1.8z"/><path d="m88.932 302.512a45.331 45.331 0 0 0 8.175 5.645 1.626 1.626 0 0 0 2.088-.437 1.615 1.615 0 0 0 -.323-2.261l-7.755-5.817a1.615 1.615 0 0 0 -2.494.762l-.132.38a1.6 1.6 0 0 0 .441 1.728z"/><path d="m95.992 293.468a45.292 45.292 0 0 0 8.175 5.645 1.625 1.625 0 0 0 2.088-.438 1.614 1.614 0 0 0 -.323-2.26l-7.755-5.815a1.615 1.615 0 0 0 -2.494.762l-.132.38a1.6 1.6 0 0 0 .441 1.726z"/><path d="m208.871 329.919-6.071-26.761a4.992 4.992 0 0 0 -3.969-3.806 1.961 1.961 0 0 0 -2.269 2.35l6.476 29.472h6.232a7.559 7.559 0 0 1 -.399-1.255z"/><path d="m228.4 324.485a45.322 45.322 0 0 1 -9.786 1.713 1.625 1.625 0 0 1 -1.714-1.271 1.614 1.614 0 0 1 1.238-1.918l9.476-2.044a1.615 1.615 0 0 1 1.948 1.734l-.039.4a1.6 1.6 0 0 1 -1.123 1.386z"/><path d="m225.761 313.318a45.322 45.322 0 0 1 -9.785 1.713 1.626 1.626 0 0 1 -1.715-1.27 1.615 1.615 0 0 1 1.238-1.919l9.476-2.044a1.615 1.615 0 0 1 1.948 1.734l-.039.4a1.6 1.6 0 0 1 -1.123 1.386z"/></g><path d="m244.816 90.722a6.231 6.231 0 0 0 -5.641-1.349c-3.114.8-9.214 1.746-20.585 1.746a45.7 45.7 0 0 1 -19.5-4.09 3.579 3.579 0 0 0 -.534-.252 30.74 30.74 0 0 1 -9.185-6.452 3.5 3.5 0 0 0 -5.489.275l-9.263 13.033a3.5 3.5 0 0 0 -.312 3.519 62.96 62.96 0 0 0 8.015 12.6l.008.011a81.775 81.775 0 0 0 8.835 9.293 23.956 23.956 0 0 0 14.561 6.155l20.535 1.186c.282.016.563.025.844.025a14.938 14.938 0 0 0 12.669-7.136c4.687-7.569 6.515-16.618 7.222-22.877a6.553 6.553 0 0 0 -2.18-5.687zm-4.864 5.663a63.065 63.065 0 0 1 -1.431 7.615 26.333 26.333 0 0 1 -6.329 1.277 74.921 74.921 0 0 0 2.335-7.984c2.007-.247 3.833-.546 5.425-.908zm-12.807 1.529a69.2 69.2 0 0 1 -2.555 7.657c-3.772-.037-8.02-.291-12.627-.782-.063-.006-.124-.021-.187-.029a39.49 39.49 0 0 0 1.553-6.883c1.682.15 3.429.242 5.261.242 3.082 0 5.923-.073 8.555-.205zm-23.657 4.236c-2.224-1.22-4.369-2.548-5.96-3.572.728-1.412 1.325-2.74 1.8-3.88a50.34 50.34 0 0 0 7.084 2.112 32.156 32.156 0 0 1 -1.387 6.085c-.525-.234-1.038-.47-1.537-.745zm-16.2-14.259a42.21 42.21 0 0 0 5.7 3.838c-1.363 3.383-3.818 8.177-7.1 11.147a55.177 55.177 0 0 1 -4.341-6.9zm3.01 20.422a26.527 26.527 0 0 0 3.51-3.8c1.686 1.084 3.935 2.473 6.308 3.775.63.346 1.274.659 1.924.956a26.322 26.322 0 0 1 -4.834 5.7c-.466-.343-.923-.7-1.357-1.093a76.667 76.667 0 0 1 -5.549-5.538zm13.831 9.651a33.587 33.587 0 0 0 4.767-6.56c.767.142 1.54.263 2.324.346 3.12.332 6.544.607 10 .743a33.816 33.816 0 0 1 -4.6 6.224c-.031.034-.052.073-.083.107l-10.4-.6a16.083 16.083 0 0 1 -2.005-.26zm22.536 1.445-1.521-.088a50.231 50.231 0 0 0 4.015-6.809 55.581 55.581 0 0 0 6.649-.653 33.221 33.221 0 0 1 -1.986 3.741 7.948 7.948 0 0 1 -7.154 3.809z" fill="#3c4756"/><path d="m237.46 63.907h-33.426l-17.22 28.307a13.458 13.458 0 0 1 -19.787 3.663 42.432 42.432 0 0 1 -15.888-27.3 50.466 50.466 0 0 1 4.229-29.059c6.07-13.136 19.661-30.973 48.666-30.678 0 0 39.774-1.931 43.655 40.94 0-.001-4.262 14.127-10.229 14.127z" fill="#e2e2e2"/><path d="m222.653 53.776h-29.067a20.236 20.236 0 0 0 -10.17 2.713 86.035 86.035 0 0 0 -19.516 15.611 12.657 12.657 0 0 1 -10.874 4.079 42.213 42.213 0 0 0 14 19.7 13.458 13.458 0 0 0 19.787-3.663l17.22-28.307h23.3c-2.443-5.637-4.68-10.133-4.68-10.133z" fill="#979aa0"/><path d="m230.479 49.78h-18.319a7.549 7.549 0 0 0 -5.706 2.6l-4.411 5.089h23.1z" fill="#979aa0"/><path d="m211.806 63.907h25.654a10.463 10.463 0 0 0 10.446-10.955c-.051-1.087-.131-2.138-.225-3.172h-18.476a13.242 13.242 0 0 0 -10.49 5.16z" fill="#979aa0"/><path d="m243.928 60.407h-.01l-3.546.009v-1.416a3.5 3.5 0 0 0 -7 0v1.432l-14.87.04v-1.472a3.5 3.5 0 0 0 -7 0v1.5l-18.8.052a16.259 16.259 0 0 0 -9.6 3.261l-6.129 4.586a14.631 14.631 0 0 0 -3 3.167 21.654 21.654 0 0 0 -1.087 23.349l4.331 7.626a3.5 3.5 0 0 0 6.086-3.457l-4.331-7.626a14.642 14.642 0 0 1 .672-15.788 7.744 7.744 0 0 1 1.525-1.67l6.13-4.587a9.3 9.3 0 0 1 5.462-1.866l43.652-.119a3.464 3.464 0 0 0 .459.047 3.525 3.525 0 0 0 .486-.049l6.58-.018a3.5 3.5 0 0 0 -.01-7z" fill="#3c4756"/><path d="m194.9 99.622a3.5 3.5 0 0 1 -3.026-5.256c.106-.185 6.249-11.19 5.547-30.213a3.5 3.5 0 0 1 7-.258c.785 21.274-6.195 33.482-6.492 33.992a3.5 3.5 0 0 1 -3.029 1.735z" fill="#3c4756"/><path d="m197.381 93.793a3.487 3.487 0 0 1 -1.564-.371 62.466 62.466 0 0 1 -12.042-8.393 3.5 3.5 0 0 1 4.521-5.344 55.246 55.246 0 0 0 10.655 7.477 3.5 3.5 0 0 1 -1.57 6.631z" fill="#3c4756"/><path d="m166.381 32.72c2.1-3.338 5.649-7.791 10.695-10.181a4.87 4.87 0 0 1 6.978 4.348v.207a4.7 4.7 0 0 1 -2.169 3.783 22 22 0 0 0 -5.361 4.771 8 8 0 0 1 -6.739 3.51 4.189 4.189 0 0 1 -3.404-6.438z" fill="#fff"/><circle cx="193.534" cy="19.807" fill="#fff" r="3.994"/><path d="m44.908 110.318c-2.769 4.954-10.123 14.873-23.541 11.988-6.1-1.313-8.673-4.939-9.42-9.123-.094.132-.2.273-.291.4a11.886 11.886 0 0 0 4.437 17.534c.463.219.916.4 1.347.556a11.754 11.754 0 0 0 5.862.48c15.923-2.651 20.4-12.663 21.486-19.936a11.6 11.6 0 0 0 .12-1.899z" fill="#ea8f8b"/><path d="m152.067 239.272a74.362 74.362 0 0 1 -13.017-11.572 10.181 10.181 0 0 1 -2.185-8.794l.009-.044 7.018-34.121c1.044-5.075.229-11.8-2.922-15.917l-8.022-8.9a.21.21 0 0 0 -.339.246 17.92 17.92 0 0 1 2.23 9.595 223.324 223.324 0 0 1 -6.969 45.748 21.312 21.312 0 0 1 -1.864 4.623 57.035 57.035 0 0 0 -4.422 10.589 22.532 22.532 0 0 0 6.1 22.845c.992.936 2.094 1.933 3.282 2.97-4.509-11.409-2.625-20.051 0-25.535 5.291 5.526 12.931 9.216 19.39 11.546a1.871 1.871 0 0 0 1.711-3.279z" fill="#bc3552"/></svg>