<svg id="FLAT" height="512" viewBox="0 0 500 500" width="512" xmlns="http://www.w3.org/2000/svg"><path d="m168.831 235.316a5.5 5.5 0 0 1 -5.5-5.5v-206.681a5.5 5.5 0 1 1 11 0v206.681a5.5 5.5 0 0 1 -5.5 5.5z" fill="#9eaeb7"/><g fill="#2b2b38"><path d="m151.225 350.314c-.363-.137-36.6-14.025-57.377-36a39.479 39.479 0 0 1 -10.519-22.252l-9-70.2a5.5 5.5 0 0 0 -10.912 1.4l9 70.2a50.411 50.411 0 0 0 13.437 28.411c13.06 13.812 31.09 24.413 44.259 31.009-16.182 4.445-46.683 13.542-66.561 23.91a46.851 46.851 0 0 0 -16.949 15.2c-7.447 10.942-21.989 31.27-35.713 44.488a5.5 5.5 0 0 0 7.63 7.923c14.44-13.903 29.491-34.928 37.18-46.221a35.813 35.813 0 0 1 12.94-11.634c14.034-7.32 34.256-14.142 50.169-18.939a164.134 164.134 0 0 0 -12.531 11.445 97.451 97.451 0 0 0 -26.773 52.046c-3.685 21.357-9.405 36.74-16.105 43.319a5.5 5.5 0 0 0 7.706 7.85c8.575-8.418 15.049-25 19.242-49.294a86.509 86.509 0 0 1 23.768-46.2 154.471 154.471 0 0 1 33.968-25.963 5.492 5.492 0 0 0 3.144-10.5z"/><path d="m42.25 322.808a63.084 63.084 0 0 0 21.055 19.278 132.535 132.535 0 0 0 30.374 12 5.5 5.5 0 0 0 2.856-10.623 121.6 121.6 0 0 1 -27.849-10.971 52.02 52.02 0 0 1 -17.361-15.9c-10.579-15.439-17.608-34.448-21.642-47.676a5.5 5.5 0 0 0 -10.522 3.209c4.259 13.963 11.722 34.092 23.089 50.683z"/><path d="m262.22 431.1a97.453 97.453 0 0 0 -26.772-52.05 167.935 167.935 0 0 0 -22.4-19c32.02-2.752 52.931-10.991 65.375-17.971a63.074 63.074 0 0 0 21.055-19.278c11.37-16.594 18.832-36.722 23.089-50.685a5.5 5.5 0 0 0 -10.521-3.209c-4.033 13.227-11.062 32.234-21.642 47.676a52.034 52.034 0 0 1 -17.362 15.9c-10.378 5.821-27.248 12.587-52.615 15.733 11.684-6.516 25.12-15.428 35.447-26.35a50.418 50.418 0 0 0 13.437-28.411l8.636-67.369a5.5 5.5 0 1 0 -10.91-1.4l-8.637 67.379a39.48 39.48 0 0 1 -10.52 22.253c-20.773 21.971-57.013 35.859-57.377 36a5.487 5.487 0 0 0 3.145 10.5 154.565 154.565 0 0 1 33.968 25.964 86.5 86.5 0 0 1 23.767 46.2c4.193 24.291 10.668 40.876 19.243 49.294a5.5 5.5 0 0 0 7.7-7.85c-6.699-6.586-12.42-21.969-16.106-43.326z"/><path d="m330.835 436.48c-13.732-13.224-28.269-33.549-35.713-44.487a46.868 46.868 0 0 0 -16.948-15.2c-9.282-4.841-21.9-9.926-37.5-15.114a5.5 5.5 0 1 0 -3.471 10.437c15.045 5 27.118 9.859 35.883 14.43a35.833 35.833 0 0 1 12.941 11.633c7.684 11.291 22.731 32.309 37.176 46.222a5.5 5.5 0 0 0 7.631-7.923z"/></g><path d="m177.708 218.059a15.972 15.972 0 0 0 -17.754 0c-25.946 17.358-44.771 52.116-46.7 88.753 10.2 42.6 95.716 47.286 111.319 7.07q.008-.43.007-.866c-.004-38.872-19.465-76.622-46.872-94.957z" fill="#d87155"/><path d="m181.255 355.457a5.5 5.5 0 0 1 -4.166-9.088c28.53-33.147-2.705-87.277-3.024-87.82a5.5 5.5 0 0 1 9.478-5.582c1.468 2.491 35.567 61.442 1.883 100.577a5.487 5.487 0 0 1 -4.171 1.913z" fill="#8e3329"/><path d="m159.485 356.517a5.476 5.476 0 0 1 -3.253-1.069c-31.854-23.421-19.5-67.583-18.962-69.451a5.5 5.5 0 0 1 10.568 3.052c-.11.385-10.717 38.7 14.909 57.536a5.5 5.5 0 0 1 -3.262 9.932z" fill="#8e3329"/><path d="m485.294 16.156h-231.636a5.5 5.5 0 1 0 0 11h22.566c3.931 2.758 16.72 12.536 28.491 30.437 12.754 19.4 26.859 52.594 22.322 101.051l-35.214 32.138a5.5 5.5 0 1 0 7.416 8.125l34.828-31.785c6.509 1.18 25.586 5.447 49.328 18.079 26.8 14.259 65.185 42.415 96.4 95.633v105.747a5.5 5.5 0 0 0 11 0v-364.925c.021-3.437-1.85-5.237-5.501-5.5zm-92.694 82.651c-1.161-32.428-20.178-58.351-32.274-71.651h53.123a44.027 44.027 0 0 1 14 19.245 5.5 5.5 0 0 0 10.326-3.793 54.526 54.526 0 0 0 -8.807-15.452h42.139zm87.194-64.685v45.228c-10.011-9.907-22.669-14.2-31.952-16.066zm-166.226 16.917a135.537 135.537 0 0 0 -20.068-23.883h51.348c7.375 6.861 40.442 40.16 36.474 81.949l-42.545 38.829c1.723-45.634-12.384-77.575-25.209-96.895zm74.478 124.177a197.283 197.283 0 0 0 -44-17.2l93.208-85.067c7.232.509 32.117 3.821 42.545 25.07v56.73c-16.928-25.923-41.977-38.01-61.884-43.629a5.5 5.5 0 1 0 -2.988 10.586c22.075 6.232 51.152 21.238 64.872 57.274v81.133c-30.727-45.984-66.216-71.397-91.753-84.897z" fill="#9eaeb7"/><path d="m168.831 332.53c-35.533 0-49.892-15.246-55.564-25.717-.109 2.063-.181 4.13-.181 6.2 0 24.3 17.848 36.464 33.346 42.442a62.305 62.305 0 0 0 44.8 0c15.311-5.906 32.9-17.854 33.326-41.576-10.271 9.154-27.682 18.651-55.727 18.651z" fill="#8e3329"/><path d="m147.667 424.078h22.389a0 0 0 0 1 0 0v36.1a9.6 9.6 0 0 1 -9.6 9.6 12.794 12.794 0 0 1 -12.794-12.794v-32.9a0 0 0 0 1 .005-.006z" fill="#2b2b38"/><path d="m182.851 424.078a9.6 9.6 0 0 1 9.6 9.6v36.1a0 0 0 0 1 0 0h-22.394a0 0 0 0 1 0 0v-32.9a12.794 12.794 0 0 1 12.794-12.8z" fill="#2b2b38" transform="matrix(-1 0 0 -1 362.503 893.849)"/><path d="m170.057 354.1c-28.492 0-41.341 13.407-41.341 48.6s41.341 32.961 41.341 32.961 41.343 2.239 41.343-32.961-12.852-48.6-41.343-48.6z" fill="#d87155"/><circle cx="145.123" cy="400.605" fill="#2b2b38" r="5.712"/><circle cx="159.399" cy="414.67" fill="#2b2b38" r="5.712"/><circle cx="193.831" cy="400.605" fill="#2b2b38" r="5.712"/><circle cx="182.408" cy="414.67" fill="#2b2b38" r="5.712"/></svg>