<svg id="icon" height="512" viewBox="0 0 340 340" width="512" xmlns="http://www.w3.org/2000/svg"><path d="m70.382 54.353 16.3-1.312a114.551 114.551 0 0 1 23.144.485 114.428 114.428 0 0 0 22.464.538l19.116-1.423a114.582 114.582 0 0 1 14.306-.17l20.388 1.034 52.691 1.4h5.35a7.423 7.423 0 0 1 7.423 7.424v95.163l2.4 71.052 1.471 88.254a7.423 7.423 0 0 1 -7.422 7.547h-57.523l-30.513-1.545a323.772 323.772 0 0 0 -33.972.07l-6.4.349a324.156 324.156 0 0 1 -41.019-.363l-5.637-.407a7.423 7.423 0 0 1 -6.887-7.519l.69-44.48-1.6-59.077-1.6-76.641v-72.98a7.423 7.423 0 0 1 6.83-7.399z" fill="#6283b2"/><path d="m51.855 36.842 16.3-1.312a114.542 114.542 0 0 1 23.143.485 114.585 114.585 0 0 0 22.464.538l19.116-1.424a114.586 114.586 0 0 1 14.306-.169l20.385 1.034 52.69 1.4h5.35a7.423 7.423 0 0 1 7.423 7.423v95.164l2.4 71.052 1.471 88.254a7.423 7.423 0 0 1 -7.422 7.547h-57.518l-30.513-1.539a324.317 324.317 0 0 0 -33.972.07l-6.4.35a324.172 324.172 0 0 1 -41.02-.363l-5.637-.407a7.423 7.423 0 0 1 -6.887-7.519l.69-44.48-1.6-59.077-1.6-76.641v-72.987a7.423 7.423 0 0 1 6.831-7.399z" fill="#9bb5e0"/><path d="m32.1 17.687 16.3-1.312a114.469 114.469 0 0 1 23.143.485 114.573 114.573 0 0 0 22.463.538l19.116-1.424a114.586 114.586 0 0 1 14.306-.169l20.385 1.034 52.69 1.4h5.35a7.423 7.423 0 0 1 7.423 7.423v95.164l2.4 71.052 1.471 88.254a7.423 7.423 0 0 1 -7.422 7.547h-57.525l-30.513-1.539a324.317 324.317 0 0 0 -33.972.07l-6.4.349a323.985 323.985 0 0 1 -41.02-.362l-5.637-.408a7.423 7.423 0 0 1 -6.887-7.519l.69-44.479-1.6-59.077-1.6-76.641v-72.987a7.423 7.423 0 0 1 6.839-7.399z" fill="#dee9ff"/><path d="m310.732 133.875a4 4 0 0 1 -4-4v-41.344a4.8 4.8 0 0 0 -4.8-4.8h-6.648a4 4 0 0 1 0-8h6.648a12.811 12.811 0 0 1 12.8 12.8v41.344a4 4 0 0 1 -4 4z" fill="#373d4c"/><path d="m45.226 51.64a4 4 0 0 1 -2.7-6.954l8.838-8.069a4 4 0 0 1 5.4 5.908l-8.841 8.075a3.99 3.99 0 0 1 -2.697 1.04z" fill="#bdd2ef"/><g fill="#9bb5e0"><path d="m140.966 62.015h-43.484a4 4 0 0 1 0-8h43.484a4 4 0 0 1 0 8z"/><path d="m90.95 95.059h-38.808a4 4 0 1 1 0-8h38.808a4 4 0 1 1 0 8z"/><path d="m190.084 112.35h-112.006a4 4 0 0 1 0-8h112.006a4 4 0 0 1 0 8z"/><path d="m190.084 129.641h-136.021a4 4 0 0 1 0-8h136.021a4 4 0 1 1 0 8z"/><path d="m190.084 146.931h-136.021a4 4 0 0 1 0-8h136.021a4 4 0 0 1 0 8z"/><path d="m190.084 194.043h-14.584a4 4 0 0 1 0-8h14.585a4 4 0 0 1 0 8z"/><path d="m155.051 194.043h-76.973a4 4 0 1 1 0-8h76.973a4 4 0 0 1 0 8z"/><path d="m190.084 212.356h-136.021a4 4 0 1 1 0-8h136.021a4 4 0 0 1 0 8z"/><path d="m190.084 230.67h-112.006a4 4 0 0 1 0-8h112.006a4 4 0 0 1 0 8z"/><path d="m190.084 248.983h-136.021a4 4 0 1 1 0-8h136.021a4 4 0 0 1 0 8z"/><path d="m93.256 174.822h-39.193a4 4 0 1 1 0-8h39.193a4 4 0 0 1 0 8z"/><path d="m124.763 174.822h-10.539a4 4 0 1 1 0-8h10.539a4 4 0 1 1 0 8z"/></g><path d="m297.759 247.134-4.919 7.737a1.494 1.494 0 0 1 -2.517.007l-4.965-7.707a20.172 20.172 0 0 1 -3.215-10.868l-.476-160.5a6.6 6.6 0 0 1 6.578-6.617l5.571-.017a6.6 6.6 0 0 1 6.617 6.578l.476 160.5a20.176 20.176 0 0 1 -3.15 10.887z" fill="#f45d77"/><path d="m293.816 69.17h-.8c.924 2.253 1.653 5.7 1.653 11.013v157.11a41.617 41.617 0 0 1 -.247 4.52l-1.4 12.783 4.745-7.462a20.176 20.176 0 0 0 3.15-10.886l-.476-160.5a6.6 6.6 0 0 0 -6.625-6.578z" fill="#bc3552"/></svg>