<svg id="fill" height="512" viewBox="0 0 340 340" width="512" xmlns="http://www.w3.org/2000/svg"><path d="m101.043 126.085h20.182a0 0 0 0 1 0 0v210.3a10.091 10.091 0 0 1 -10.091 10.091 10.091 10.091 0 0 1 -10.091-10.091v-210.3a0 0 0 0 1 0 0z" fill="#ea5e5e" transform="matrix(.698 .716 -.716 .698 202.665 -8.263)"/><path d="m137.469 224.687 20.973-20.459-14.272-14.272-20.973 20.459z" fill="#c13d3d"/><g fill="#dbeefc"><path d="m212.8 137.1-14.5-14.87-14.5 14.148a11.576 11.576 0 0 0 -.2 16.369l6.425 6.586 6.424 6.586a11.576 11.576 0 0 0 16.369.2l14.5-14.149z"/><path d="m227.662 110.141 40.252-39.266c8.95-11.052 1.664-24.47 1.664-24.47l-53.336 52.029a8.153 8.153 0 0 1 -11.53-.143 8.154 8.154 0 0 1 .143-11.531l40.252-39.266c8.949-11.051 2.351-23.764 2.351-23.764l-59.173 57.722a21.308 21.308 0 0 0 -.373 30.132l24.888 25.516 24.9 25.518a21.309 21.309 0 0 0 30.132.374l59.168-57.723s-12.546-6.912-23.816 1.761l-40.252 39.27a8.154 8.154 0 0 1 -11.531-.143 8.154 8.154 0 0 1 .143-11.531l53.335-52.029s-13.233-7.616-24.5 1.057l-40.252 39.266a8.156 8.156 0 0 1 -11.531-.143l-.537-.551-.537-.55a8.156 8.156 0 0 1 .14-11.535z"/><path d="m66.232 58.676c-12.19-.814-29.332-.425-47.01 4.929-5.791 17.539-6.6 34.667-6.093 46.873a43.174 43.174 0 0 0 12.276 28.322l21.574 22.117a22.558 22.558 0 0 0 31.9.4l18.271-17.823 18.271-17.824a22.556 22.556 0 0 0 .4-31.9l-21.581-22.12a43.172 43.172 0 0 0 -28.008-12.974z"/><path d="m97.148 143.488-14.872 14.512 11.4 11.685a11.575 11.575 0 0 0 16.368.2l6.586-6.425 6.587-6.424a11.576 11.576 0 0 0 .2-16.369l-11.4-11.685z"/></g><path d="m179.49 133.769h20.182a0 0 0 0 1 0 0v198.855a10.091 10.091 0 0 1 -10.091 10.091 10.091 10.091 0 0 1 -10.091-10.091v-198.855a0 0 0 0 1 0 0z" fill="#ea5e5e" transform="matrix(.716 -.698 .698 .716 -112.486 200.085)"/><path d="m112.279 165.124a13.543 13.543 0 0 1 -9.635-4.345 8.034 8.034 0 0 1 .119-11.19l14.8-14.926-5.543-5.683-14.872 14.508-14.872 14.512 11.4 11.685a11.575 11.575 0 0 0 16.368.2l5.23-5.1a12.992 12.992 0 0 1 -2.995.339z" fill="#a7cad8"/><path d="m212.8 137.1-14.5-14.87-7.547 7.362 16.7 16.84a8.033 8.033 0 0 1 .119 11.189 13.126 13.126 0 0 1 -17.32 1.949l6.193 6.349a11.576 11.576 0 0 0 16.369.2l14.5-14.149z" fill="#a7cad8"/><path d="m97.2 97-4.5-4.6a53.583 53.583 0 0 0 -16.7-11.619 4 4 0 0 0 -5.539 2.834 4.08 4.08 0 0 0 2.384 4.518l.134.06a19.482 19.482 0 0 1 11.421 18.336 42.613 42.613 0 0 1 -11.1 28.1l-2.41 2.35a10.245 10.245 0 0 1 -14.49-.179l-4.5-4.608a45.571 45.571 0 0 1 -9.531-14.463 4 4 0 0 0 -5.388-2.095 4.162 4.162 0 0 0 -1.9 5.41 53.57 53.57 0 0 0 11.091 16.734l4.495 4.608a18.268 18.268 0 0 0 25.8.32l10.2-9.948 10.2-9.948a18.247 18.247 0 0 0 .333-25.81z" fill="#a7cad8"/><path d="m59.617 84.334a3.987 3.987 0 0 0 2.819-6.819 4.023 4.023 0 0 0 -3.609-1.1 3.956 3.956 0 0 0 -.74.23 3.313 3.313 0 0 0 -.691.371 3.175 3.175 0 0 0 -.609.5 3.995 3.995 0 0 0 2.83 6.819z" fill="#a7cad8"/></svg>