<svg id="Flat" height="512" viewBox="0 0 340 340" width="512" xmlns="http://www.w3.org/2000/svg"><path d="m30.637 244.348s-.535 6.915-1.119 16.525c1.628 7.219 2.178 14.658-1.14 22.887-.126 3.442-.224 6.857-.282 10.127a32.986 32.986 0 0 0 4.457 17.313 41.4 41.4 0 0 0 16.628 16.1 11.662 11.662 0 0 0 12.519-.99 11.007 11.007 0 0 0 3.278-4.154 11.527 11.527 0 0 0 -3.169-13.316c-.519-.452-1.081-.962-1.669-1.532-7.84-4.708-11.37-12.049-10.14-22.294-.412-18.405 3.334-46.607 3.334-46.607z" fill="#ffc980"/><path d="m29.518 260.873c-.412 6.782-.849 14.9-1.14 22.888 7.284-.236 10.132-3.865 11.238-6.908a10.612 10.612 0 0 0 -.4-8.14c-2.027-4.256-6.344-6.605-9.698-7.84z" fill="#614c63"/><path d="m50 285.014v-.047a38.725 38.725 0 0 0 -4.54 4.742c-6.291 7.624-4.762 12.935-2.59 15.932a10.608 10.608 0 0 0 6.965 4.232c3.862.588 7.51-.865 10.3-2.566a31.631 31.631 0 0 1 -10.135-22.293z" fill="#614c63"/><path d="m145.709 220.824-9.05 16.592a24.935 24.935 0 0 0 -3.108 12.215c.095 7.968-2.306 23.7-8.952 31.219a8.362 8.362 0 0 1 -13.6-1.26 14.535 14.535 0 0 1 -1.779-7.261v-48.637z" fill="#b06761"/><path d="m294.092 197.053s-6.826 13.708-7.928 40.455c-.165 3.994-2.361 7.566-5.591 8.822a7.994 7.994 0 0 1 -9.13-2.44c-2.389-2.776-4.865-8.14-4.313-18.34l.426-25.086z" fill="#b06761"/><path d="m222.578 54.527-4.4-19.616a13.033 13.033 0 0 1 4.581-12.957 13.034 13.034 0 0 1 14.193-1.378l11.635 6.087z" fill="#b06761"/><path d="m311.34 82.261a28.5 28.5 0 0 0 -1.95-3.42c-8.643-12.979-17.875-25.5-22.542-31.728a15.442 15.442 0 0 1 -3.084-9.265v-10.681a14.826 14.826 0 0 0 -6.754-12.467 30.845 30.845 0 0 0 -3.671-2.023 14.76 14.76 0 0 0 -17.945 4.623l-6.407 8.493a11.489 11.489 0 0 1 -6.387 4.227 11.493 11.493 0 0 0 -6.719 4.691l-12.53 17.017-16.79 15.257c-.119.108-.234.218-.345.332 0 0-2.591 5.769-1.274 8.827.935 2.172 3.717 7.774 3.717 7.774.62.962 1.3 1.946 2.039 2.941-7.193 4.485-18.593 5.478-27.122 8.319a97.539 97.539 0 0 1 -18.593 4.312 90.315 90.315 0 0 1 -25.894 1.092c-13.108.173-25.866.029-35.118-.15a36.656 36.656 0 0 0 -14.5 2.687l-22.471 18.208c-2.129 2.162-4.091 4.187-5.776 5.943a53.119 53.119 0 0 0 -11.692 18.724c-4.386 12.162-7.216 30.112-7.216 30.112l92.891 1.827 170.413-35.175c3.269-12.168 5.765-26.943 7.386-38.112z" fill="#ffc980"/><path d="m210.718 86.848a28.752 28.752 0 0 1 -5.234 2.486c1.637 5.734 6.04 15.723 13.446 19.749 9.056 4.923 26.7-1.388 32.418-3 1.175-.333 1.849-.546 1.849-.546l-4.612-7.4a70.909 70.909 0 0 1 -20.146 2.6 14.862 14.862 0 0 1 -11.939-6.058l-5.777-7.832z" fill="#b06761"/><path d="m147.837 175.326-6.323-15.662a2.171 2.171 0 0 0 -4.185.813v17.023z" fill="#b06761"/><path d="m201.78 164.192a11.078 11.078 0 0 0 5.259-5.889s-.9-5.587-2.329-11.552a1.556 1.556 0 0 0 -3.067.332c-.182 5.81-1.023 12.74-3.519 17.864z" fill="#b06761"/><path d="m263.669 94.636a53.754 53.754 0 0 0 -14.669 3.329 67.441 67.441 0 0 1 2.346 8.112c4.755 16.935 4.064 36.826 3.225 47.218l38.943-8.039c1.513-14.827.142-25.1-2.19-33.166-3.652-12.636-12.989-18.636-27.655-17.454z" fill="#f7e4fb"/><path d="m10 169.674 126.158 2.888 193.842-42.235v64.531s-59.47 10.706-101.344 18.647l-70.725 10.187c-9.969 1.472-19.721 3.4-29.5 5.847l-30.582 7.374a298.618 298.618 0 0 1 -41.535 7.157l-46.314 5.206z" fill="#ce6581"/><path d="m249.473 210.863.442-.082q2.271-.425 4.554-.85c36.908-6.883 75.531-13.906 75.531-13.906v-32.937l-44.878 10.435a1.853 1.853 0 0 0 .42 3.657h15.889a1.427 1.427 0 0 1 .762 2.634l-3.726 2.355a23.98 23.98 0 0 1 -9.362 3.46l-22.053 3.209-17.324-17.044c3.9-8.937 4.739-25.01 4.739-25.01l-22.356 23.3a6.325 6.325 0 0 1 -.252-.9c-.738-3.983-3.1-11.793-3.986-12.76-.3-.325-1.717-1.574-3.467-3.086l-24.1 5.252c-.32 2.016-2.526 14.69-8.472 22.555 0 0-5.714 8.267 8.226 14.319 1.77.769 3.574 1.546 5.4 2.339l-48.327 7.03c-3.042.443-6.067.975-9.082 1.555 5.038-16.339-2.179-35.938-2.179-35.938l-1.423.31-8.286 1.806-9.633-.221v36.5q-4.419.459-8.643.854l-4.043-13.225-7.557-11.074-22.472-12.849-15.015-1.531s3.908 14.865 16.563 31.2a15.264 15.264 0 0 1 3.212 9.661c-41.859 2.226-65.942-.695-78.579-3.428v42.447l46.727-4.958q10.835-1.151 21.559-3.067c.048-.008.095-.018.143-.027q5.094-.91 10.155-1.991c.218-.047.434-.1.652-.145 1.49-.322 2.979-.65 4.464-.994q2.571-.6 5.132-1.236l10.755-2.689 18.757-4.689c2.039-.51 4.087-.986 6.136-1.454q1.379-.314 2.76-.614c.912-.2 1.827-.388 2.74-.579q4.025-.835 8.066-1.576c3.3-.6 6.611-1.164 9.933-1.655l70.59-10.424c2.229-.423 4.511-.855 6.829-1.292l4.587-.863.161-.031c3.07-.581 6.187-1.165 9.331-1.753z" fill="#824561"/><path d="m137.329 162.37v37.108a28.2 28.2 0 0 1 -.449 5.01l-4.524 10.991-13.169 19.141a20.77 20.77 0 0 0 -3.659 11.773v15.061a22.99 22.99 0 0 1 -4.631 13.922 34.492 34.492 0 0 1 -8.956 8.306 8.494 8.494 0 0 1 -9.259-.081 5.8 5.8 0 0 1 -2.329-7.121c2.774-6.564 6.513-19.768-1.255-31.828a13.415 13.415 0 0 1 -.514-13.959 111.032 111.032 0 0 0 7.559-15.714 11.71 11.71 0 0 0 -2.469-12.052c-1.127-1.207-2.413-2.606-3.805-4.156-3.155-7.3-9.547-13.861-16.344-20.323a73.647 73.647 0 0 1 -8.188-14.557z" fill="#ffc980"/><path d="m255.129 142.454a62.337 62.337 0 0 1 -11.26 29.51c6.253 7.417 15.878 19.77 21.916 27.6a22.774 22.774 0 0 1 4.3 18.506c-.549 2.663-1.215 5.214-1.857 7.431a8.8 8.8 0 0 1 -9.969 6.22 8.807 8.807 0 0 1 -7.268-7.982l-.357-4.528a15.492 15.492 0 0 0 -5.323-10.487c-1.578-1.366-3.231-2.667-4.936-3.906a36.378 36.378 0 0 0 -16.668-9.759 155 155 0 0 0 -16.052-6.554 7.663 7.663 0 0 1 -4.314-10.856c6.938-12.7 2.224-28.664 2.224-28.664z" fill="#ffc980"/><g fill="#614c63"><path d="m94.25 180.34a8.333 8.333 0 0 0 -8.411-3.861l-12.313 1.969a216.218 216.218 0 0 0 16.344 20.322l5.231-6.819a8.331 8.331 0 0 0 .486-9.439z"/><path d="m127.388 197.851a6.93 6.93 0 0 0 -9.187 2.729 20.062 20.062 0 0 0 -1.7 3.97 7.054 7.054 0 0 0 4.192 8.643 37.424 37.424 0 0 0 11.554 2.446l.11-.16a28.21 28.21 0 0 0 4.506-10.994 48.433 48.433 0 0 0 -9.475-6.634z"/><path d="m114.5 161.364a28.754 28.754 0 0 1 3.881 2.287 5.07 5.07 0 0 1 2.151 3.485 35.739 35.739 0 0 1 .316 5.843 5.021 5.021 0 0 1 -5.169 4.807 19.707 19.707 0 0 1 -5.392-.826 5.043 5.043 0 0 1 -3.447-4.576 34.057 34.057 0 0 1 .48-7.421 5.051 5.051 0 0 1 7.18-3.599z"/><path d="m79.732 124.543a12.934 12.934 0 0 0 11.9-10.416 15.985 15.985 0 0 0 -2.156-11 36.968 36.968 0 0 0 -11.565 7.45c-3.762 3.574-7.542 7.331-10.91 10.751a21.266 21.266 0 0 0 12.731 3.215z"/><path d="m151.1 114.362 4.839-.543a7.5 7.5 0 0 0 6.35-5.306l2.7-9.028c-2.256.285-4.524.486-6.8.585-6.2.268-12.688.426-19.091.511l4.355 9.463a7.5 7.5 0 0 0 7.647 4.318z"/><path d="m113.127 122.928-4.36 3.393a6.426 6.426 0 0 0 -1.56 8.385l2.594 4.312a6.427 6.427 0 0 0 7.793 2.693l4.789-1.823a6.427 6.427 0 0 0 3.74-8.24l-2.081-5.614a7.033 7.033 0 0 0 -10.915-3.106z"/><path d="m150.907 131.216-2.817 2.047a5.773 5.773 0 0 0 -2.381 4.672v2.626a5.775 5.775 0 0 0 6.144 5.764l5.611-.358a5.776 5.776 0 0 0 4.479-8.9l-2.794-4.314a5.776 5.776 0 0 0 -8.242-1.537z"/><path d="m184.7 133-.875 3.218a6.2 6.2 0 0 0 5.983 7.826 12.169 12.169 0 0 0 7.813-2.839l.217-.182a6.2 6.2 0 0 0 .155-9.372l-2.168-1.942a6.816 6.816 0 0 0 -11.125 3.291z"/><path d="m225.27 126.872-.348.957a6.837 6.837 0 0 0 1.475 7.052l1.382 1.451a6.835 6.835 0 0 0 8.008 1.4l1.05-.525a6.826 6.826 0 0 0 2.38-10.267 14.7 14.7 0 0 0 -4.079-3.643 6.819 6.819 0 0 0 -9.868 3.575z"/><path d="m244.748 192.916a13.8 13.8 0 0 0 -3.221-5.158 10.127 10.127 0 0 0 -8.67-2.742c-4.22.647-6.719 3.476-8.2 6.566a10.242 10.242 0 0 0 -.952 3.476 107.282 107.282 0 0 1 16.665 9.763 9.214 9.214 0 0 0 4.885-6.9 9.983 9.983 0 0 0 -.507-5.005z"/><path d="m262.651 51.658a6.232 6.232 0 0 0 -2.811 6.5l.857 4.319a6.23 6.23 0 0 0 7.846 4.772l1.328-.385a6.217 6.217 0 0 0 4.023-8.373 26.712 26.712 0 0 0 -2.855-5.15 6.252 6.252 0 0 0 -8.388-1.683z"/><path d="m298.806 89.358-.171 1.508a7.99 7.99 0 0 0 2.936 7.134 50.342 50.342 0 0 0 11.435 6.647c.332-2.285.63-4.431.887-6.36a28.313 28.313 0 0 0 -2.555-16.024h-4.589a7.994 7.994 0 0 0 -7.943 7.095z"/><path d="m259.784 35.218 12.316 3.805a2.054 2.054 0 0 0 2.582-1.427c4.391-16.343-4.236-17.785-4.236-17.785s-10.154-3.242-15.422 11.7a2.049 2.049 0 0 0 1.323 2.628z"/><path d="m88.521 150.338a4 4 0 0 1 -3.821-2.823l-.706-2.291a4 4 0 1 1 7.645-2.356l.706 2.291a4 4 0 0 1 -3.824 5.179z"/><path d="m102.961 238.248a4 4 0 0 1 -4-4v-2.4a4 4 0 0 1 8 0v2.4a4 4 0 0 1 -4 4z"/><path d="m180.9 116.774a4 4 0 0 1 -2.912-6.742l1.287-1.367a4 4 0 0 1 5.825 5.483l-1.287 1.368a3.989 3.989 0 0 1 -2.913 1.258z"/><path d="m229.962 157.295h-2.611a4 4 0 0 1 0-8h2.611a4 4 0 0 1 0 8z"/><path d="m285.248 80.282a4 4 0 0 1 -4-4v-1.682a4 4 0 1 1 8 0v1.682a4 4 0 0 1 -4 4z"/><path d="m210.726 126.348a3.986 3.986 0 0 1 -.667-.056c-3.028-.506-8.753-3.3-8.753-10.26a10.2 10.2 0 0 1 7.585-10.36 4 4 0 0 1 2.088 7.723 2.4 2.4 0 0 0 -1.673 2.637 2.354 2.354 0 0 0 2.139 2.382 3.969 3.969 0 0 1 3.252 4.6 4.025 4.025 0 0 1 -3.971 3.334z"/></g><path d="m287.276 103.542c-4.876-6.728-12.786-9.778-23.607-8.906a55.915 55.915 0 0 0 -15.084 3.493 65.589 65.589 0 0 1 2.757 7.949s24.086-8.42 35.934-2.536z" fill="#ceafc6"/><path d="m214.323 70.049a3.332 3.332 0 0 0 -3.321-3.1 28.356 28.356 0 0 0 -4.769.388 8.143 8.143 0 0 0 -1.673 8.926 52.824 52.824 0 0 0 4.1 7.657 3.363 3.363 0 0 0 2.658-1.578 20.479 20.479 0 0 0 3.005-12.293z" fill="#614c63"/><path d="m231.278 55.193-.405 5.555a1.343 1.343 0 0 0 2.281 1.055l3.934-3.869a11.152 11.152 0 0 1 2.614-1.909l8-4.215a.923.923 0 0 0 -.566-1.729l-12.917 1.937a3.465 3.465 0 0 0 -2.941 3.175z" fill="#614c63"/><circle cx="65.337" cy="148.912" fill="#614c63" r="4.002"/><circle cx="170.86" cy="152.422" fill="#614c63" r="4.002"/><circle cx="222.93" cy="173.18" fill="#614c63" r="4.002"/></svg>