<svg id="flat" height="512" viewBox="0 0 340 340" width="512" xmlns="http://www.w3.org/2000/svg"><path d="m106.294 35.571a59.062 59.062 0 0 0 -3.394 7.229s-22.9 1.909-33.784 22.533a35.739 35.739 0 0 1 -14.972 14.832c-9.079 4.814-20.609 16.041-20.918 42.04 0 0-25.616 14.345-17.931 56.866 0 0-15.172 32.275-1.438 57.378 6.523 11.924 15.034 17.837 22.172 20.76a47.72 47.72 0 0 1 19.049 13.807c4.323 5.3 12.349 10.225 27.167 8.788a33.289 33.289 0 0 1 19.888 4.241c7.063 4.074 20.1 7.867 42.915 4.147 0 0 10.89 9.477 30.891 2.018a50.219 50.219 0 0 1 20.611-3.2c8.642.532 20.883-1.409 28.79-14.182 0 0 38.935 4.693 33.3-51.446 0 0 31.969-25.476-8.78-75.517a35.8 35.8 0 0 1 -8.052-22c-.222-13.865-5.635-36.874-35.935-50.832 0 0-3.074-26.64-34.325-28.177a28.66 28.66 0 0 0 -1.769-6.008c-11.029-27.471-49.068-29.122-63.485-3.277z" fill="#88a873"/><circle cx="284.253" cy="56.472" fill="#f74f73" r="23.42"/><path d="m284.252 20.884a3.5 3.5 0 0 1 -3.5-3.5v-5.054a3.5 3.5 0 1 1 7 0v5.054a3.5 3.5 0 0 1 -3.5 3.5z" fill="#ff9fb8"/><path d="m284.252 104.114a3.5 3.5 0 0 1 -3.5-3.5v-5.054a3.5 3.5 0 0 1 7 0v5.054a3.5 3.5 0 0 1 -3.5 3.5z" fill="#ff9fb8"/><path d="m328.4 59.972h-5.06a3.5 3.5 0 0 1 0-7h5.06a3.5 3.5 0 0 1 0 7z" fill="#ff9fb8"/><path d="m245.165 59.972h-5.054a3.5 3.5 0 0 1 0-7h5.054a3.5 3.5 0 0 1 0 7z" fill="#ff9fb8"/><path d="m311.892 32.333a3.5 3.5 0 0 1 -2.474-5.976l3.574-3.573a3.5 3.5 0 0 1 4.949 4.95l-3.574 3.574a3.491 3.491 0 0 1 -2.475 1.025z" fill="#ff9fb8"/><path d="m253.04 91.185a3.5 3.5 0 0 1 -2.475-5.975l3.574-3.574a3.5 3.5 0 0 1 4.949 4.95l-3.574 3.574a3.489 3.489 0 0 1 -2.474 1.025z" fill="#ff9fb8"/><path d="m315.466 91.185a3.489 3.489 0 0 1 -2.474-1.025l-3.574-3.574a3.5 3.5 0 0 1 4.949-4.95l3.574 3.574a3.5 3.5 0 0 1 -2.475 5.975z" fill="#ff9fb8"/><path d="m256.614 32.333a3.491 3.491 0 0 1 -2.475-1.025l-3.574-3.574a3.5 3.5 0 0 1 4.949-4.95l3.574 3.573a3.5 3.5 0 0 1 -2.474 5.976z" fill="#ff9fb8"/><g fill="#843331"><path d="m66.83 148.35a9.065 9.065 0 0 1 6.043 9.28c-1.2 25.434 17.395 29.185 17.583 29.22a3.032 3.032 0 0 0 .549.051 3 3 0 0 0 .569-5.946c-.5-.1-11-2.421-12.555-17.2 11.152-9.9 9.867-23.717 9.8-24.313a3 3 0 0 0 -5.97.609 24.664 24.664 0 0 1 -4.1 15.006 15.2 15.2 0 0 0 -10.11-12.423 3 3 0 1 0 -1.812 5.72z"/><path d="m78.918 195.064a75.688 75.688 0 0 0 20.072-2.916 3 3 0 0 0 -1.59-5.785c-30.378 8.352-43.258-5.212-43.814-5.816a3 3 0 0 0 -4.466 4c.48.553 9.666 10.517 29.798 10.517z"/><path d="m109.112 247.215c-14.219 2.655-24.2 1.661-31.582-1.181l-.013-.015c-8.089-8-1.855-17.783-1.591-18.188 7.629-11.507 1.012-19.209.727-19.531a3.022 3.022 0 0 0 -4.251-.275 2.982 2.982 0 0 0 -.272 4.218c.158.19 3.793 4.735-1.2 12.269a22.126 22.126 0 0 0 -3.176 15.733 42.759 42.759 0 0 1 -4.6-4.561c-.025-.03-.041-.065-.067-.095-.064-.073-.134-.139-.2-.211-.32-.37-.636-.742-.942-1.116a57.035 57.035 0 0 0 -16.7-14.136 3 3 0 0 0 -2.69 5.363 47.329 47.329 0 0 1 9.5 7c-.248.081-.495.17-.739.271-13.225 5.459-20.762-3.266-21.1-3.666a3 3 0 0 0 -4.638 3.806c3.584 4.391 14.052 11.171 28.025 5.407a4.368 4.368 0 0 1 4.838 1.1c6.653 7.678 16.645 15.338 35.472 15.338a89.016 89.016 0 0 0 16.3-1.636 3 3 0 1 0 -1.1-5.9z"/><path d="m108.134 124.133c-12.016-10.012-8.718-24.7-8.565-25.343a3 3 0 0 0 -5.832-1.414c-.149.613-2.827 12.171 3.548 23.139-24.872-8.269-22.373-22.547-22.233-23.245a3 3 0 0 0 -5.861-1.285c-.2.915-4.6 22.53 32.055 31.937.228.056 4.179 1.549 4.487 1.625 7.217 3.22 20.538 11.956 20.538 32.587a3 3 0 0 0 6 0c0-23.711-15.602-34.093-24.137-38.001z"/><path d="m135.409 129.462.522-21.031c.052-.994.084-1.962.107-2.916a25 25 0 0 1 8.071-15.474 42.516 42.516 0 0 0 12.974-22.941 3 3 0 0 0 -5.925-.949 37.033 37.033 0 0 1 -11.045 19.418 30.7 30.7 0 0 0 -4.792 5.458c-1.535-11.811-4.9-18.147-5.1-18.513a3 3 0 0 0 -5.272 2.863c.058.108 5.5 10.52 5.1 29.711a25.387 25.387 0 0 0 -.114 3.257l-.521 20.972a3 3 0 0 0 2.924 3.073h.076a3 3 0 0 0 2.995-2.928z"/><path d="m148.981 154.67c3.9-3.563 10.174-6.569 13.013-7.17a67.914 67.914 0 0 0 19.147-7.021l4.435-2.479a3 3 0 0 0 -2.93-5.236l-4.435 2.481a61.639 61.639 0 0 1 -16.917 6.263c1.064-.978 2.183-1.978 3.38-3.009a19.574 19.574 0 0 0 6.682-12.948c4.038-20.584 22.175-31.18 22.441-31.332a3 3 0 0 0 -2.956-5.219 57.87 57.87 0 0 0 -21.024 22.734c-.7-6.4-.662-13.432 1.4-19.1a3 3 0 0 0 -5.638-2.05c-3.454 9.5-2.117 21.741-.388 30.333a13.642 13.642 0 0 1 -4.428 13.034 126.188 126.188 0 0 0 -17.716 18.537c-9.564 12.09-10.672 26.662-8.716 35.468a3 3 0 0 0 5.857-1.3c-1.346-6.055-1.266-19.28 7.565-30.444.397-.512.809-1.024 1.228-1.542z"/><path d="m221.919 170.268a3 3 0 0 0 -4.7-3.726c-4.922 6.214-13.389 13.741-24.583 19.8 7.559-8.574 12.042-18.237 13.22-28.612a22.778 22.778 0 0 1 14.554-14.33 3 3 0 0 0 -1.454-5.821 27.93 27.93 0 0 0 -12.382 7.679 30.4 30.4 0 0 1 6.293-14.209l2.03-2.514a3 3 0 0 0 -4.668-3.769l-2.03 2.514a36.8 36.8 0 0 0 -8.036 23.906c.8 37.558-45.563 53.172-46.116 53.354a3 3 0 1 0 1.856 5.706 97.164 97.164 0 0 0 22.184-11.265c26.013-8.152 40.113-24.02 43.832-28.713z"/><path d="m188.333 229.621c17.926-7.972 19.587-26.087 19.65-26.885a3 3 0 0 0 -5.98-.486c-.053.62-1.378 14.076-14.223 20.963a38.118 38.118 0 0 1 1.778-13 3 3 0 0 0 -5.578-2.213c-.128.322-3.127 8.027-1.934 20.032 0 .038.011.077.017.116 0 .021.005.042.009.064s.006.05.011.075c.153.826 3.574 20.307-11.2 27.54a3 3 0 1 0 2.639 5.389c13.802-6.76 15.794-22.422 14.811-31.595z"/><path d="m227.438 247.637a3 3 0 0 0 -4.144.911c-9.8 15.322-42.083 9.742-42.407 9.684a3 3 0 0 0 -1.061 5.906 88.136 88.136 0 0 0 14.374 1.152c11.56 0 27-2.32 34.151-13.509a3 3 0 0 0 -.913-4.144z"/></g><path d="m131.082 113.591c-2.631 15.58-7.461 51.192-3.092 82.464 0 0-7.616-7.615-23.456-11.27a60.055 60.055 0 0 1 -20.141-8.414 1.42 1.42 0 0 0 -2.1 1.744c2.162 5.074 8.129 13.636 24.523 20.073 24.826 9.748 23.3 53 23.3 53s-20.081-1.711-34.116-17.223a1.423 1.423 0 0 0 -2.4 1.453 55.5 55.5 0 0 0 28.666 30.346 15.823 15.823 0 0 1 8.783 11.564c1.917 10.7 4.14 29.221.286 44.23a19.018 19.018 0 0 1 -8.224 9.612h45.289s-15.122-19.664-7.507-47.689c0 0 4.874-14.926 23.151-20.41 0 0 21.26-9.566 24.562-30.686a1.426 1.426 0 0 0 -2.473-1.182c-5.641 6.359-19.02 19.527-35.492 22.73 0 0-11.88 3.046-18.582 12.489 0 0-4.076-23.021-1.8-45.02a14.325 14.325 0 0 1 7.25-11.064c8.795-4.881 24.024-16.916 23.659-41.611a1.814 1.814 0 0 0 -3.406-.829c-4.118 7.543-12.461 20.184-24.355 25.444a7.954 7.954 0 0 1 -11.087-7.058c-.387-11.268-2.086-33.652-8.422-72.67a1.423 1.423 0 0 0 -2.816-.023z" fill="#aa473c"/></svg>