<svg id="flat" height="512" viewBox="0 0 340 340" width="512" xmlns="http://www.w3.org/2000/svg"><g fill="#3c3c4f"><path d="m19.776 203.36a42.394 42.394 0 0 1 -9.776 3.39v7.14a50.572 50.572 0 0 0 7.6-2.027v29.767h7v-32.874a86.858 86.858 0 0 0 19.4-13.89v47.576h7v-54.934c20.517-23.952 25.891-53.1 26.181-54.752l-6.9-1.213c-.09.514-9.562 51.574-50.505 71.817z"/><path d="m330 206.758a42.665 42.665 0 0 1 -9.7-3.336c-40.939-20.006-50.093-69.8-50.181-70.3l-3.448.6-3.448.6c.278 1.608 5.455 29.974 25.781 53.456v54.668h7v-47.395a87.173 87.173 0 0 0 19.4 13.739v32.84h7v-29.754a50.68 50.68 0 0 0 7.6 2.02z"/><path d="m236.661 156.936c-16.68 18.212-39.107 27.446-66.661 27.446s-49.969-9.233-66.626-27.444a82.649 82.649 0 0 1 -16.974-27.714l-6.689 2.059c.19.619 4.818 15.323 18.273 30.138a89.078 89.078 0 0 0 13.73 12.274v68.026h7v-63.448a92.418 92.418 0 0 0 26.111 10.339v53.91h7v-52.552a117.668 117.668 0 0 0 36.342 0v52.551h7v-53.908a92.535 92.535 0 0 0 26.111-10.331v63.439h7v-68.011a89.271 89.271 0 0 0 13.762-12.287c13.472-14.814 18.116-29.518 18.308-30.136l-6.687-2.072a82.741 82.741 0 0 1 -17 27.721z"/></g><path d="m86.525 194.424q-8.353 6.487-16.708 0v-69.735c0-1.68 1.677-3.042 3.746-3.042h9.216c2.069 0 3.746 1.362 3.746 3.042z" fill="#f74f73"/><path d="m270.183 194.424a15.506 15.506 0 0 1 -16.708 0v-69.735c0-1.68 1.677-3.042 3.746-3.042h9.216c2.069 0 3.746 1.362 3.746 3.042z" fill="#f74f73"/><path d="m253.475 194.424h16.709v16.851h-16.709z" fill="#c12140"/><path d="m69.817 194.424h16.709v16.851h-16.709z" fill="#c12140"/><path d="m63.652 248.006h29.038v63.446h-29.038z" fill="#c12140"/><path d="m69.008 207.562h18.325a3.442 3.442 0 0 1 3.443 3.438v37a0 0 0 0 1 0 0h-25.21a0 0 0 0 1 0 0v-37a3.442 3.442 0 0 1 3.442-3.438z" fill="#f74f73"/><path d="m247.31 248.006h29.038v63.446h-29.038z" fill="#c12140"/><path d="m252.667 207.562h18.325a3.442 3.442 0 0 1 3.442 3.438v37a0 0 0 0 1 0 0h-25.21a0 0 0 0 1 0 0v-37a3.442 3.442 0 0 1 3.443-3.438z" fill="#f74f73"/><path d="m10 237.325h320v16.731h-320z" fill="#f74f73"/><path d="m330 305.518c-22.857 0-22.857-6-45.714-6s-22.855 6-45.711 6-22.855-6-45.711-6-22.857 6-45.714 6-22.856-6-45.713-6-22.859 6-45.718 6-22.86-6-45.719-6v30.482h320z" fill="#9bbfea"/><path d="m27.727 60.677h93.011a1.763 1.763 0 0 0 1-3.218l-.186-.131a19.626 19.626 0 0 1 -7.674-12.377c-.863-4.43-4.2-12.3-17.014-12.121 0 0 1-22.83-20.571-22.83s-20.073 21.324-20.073 21.324-17.311-4.014-21.074 15.8c0 0-1.8 5.57-8.45 10.355a1.763 1.763 0 0 0 1.031 3.198z" fill="#9bbfea"/><path d="m218.608 97.682h93.011a1.764 1.764 0 0 0 1-3.219c-.062-.043-.124-.086-.186-.131a19.624 19.624 0 0 1 -7.674-12.376c-.862-4.43-4.2-12.3-17.013-12.122 0 0 1-22.829-20.572-22.829s-20.074 21.324-20.074 21.324-17.31-4.014-21.074 15.805c0 0-1.8 5.57-8.45 10.355a1.763 1.763 0 0 0 1.032 3.193z" fill="#9bbfea"/></svg>