<svg id="Flat" height="512" viewBox="0 0 340 340" width="512" xmlns="http://www.w3.org/2000/svg"><path d="m146.16 107.537a396.215 396.215 0 0 1 2.708-51.673c8.1-4.3 16.248-4.624 24.444-.9l2.854 19.93-2.8 32.647z" fill="#383353"/><path d="m245.693 55.432a42.238 42.238 0 0 0 -19.82-7.681c-12.4-1.57-34.478-.791-51.066 19.519a38.327 38.327 0 0 0 -6.072 11.037s-3.387 18.96.341 32.707l37.378 31.162s40.361-8.838 53.794-36.388l.885-27.777a42.151 42.151 0 0 0 -15.44-22.579z" fill="#524d6f"/><path d="m262.463 106.886a65.585 65.585 0 0 0 -1.34-28.872 75.137 75.137 0 0 0 -34.379 28.423 9.762 9.762 0 0 1 -6.511 4.34 5.52 5.52 0 0 1 -5.551-2.334c-12.364-18.28-35.136-20.938-35.136-20.938-7.2-1.267-9.973-5.184-10.806-9.2-2.781 7.47-4.72 18.468-.991 32.22l38.705 31.647s42.576-7.737 56.009-35.286z" fill="#383353"/><path d="m161.281 33.537a10.329 10.329 0 0 0 -10.135 8.276c-.914 4.54-1.663 9.283-2.277 14.051a39.41 39.41 0 0 1 24.443-.9l-1.8-12.551a10.339 10.339 0 0 0 -10.231-8.876z" fill="#ff8a7d"/><path d="m153.071 104.665s-13.536-23.846-31.253-39.36c-5.691 7.74-10.249 15.28-12.869 22.474a11.437 11.437 0 0 1 8.039 5.174c4.488 7.016 9.424 18.269 9.551 33.934l7 1.572z" fill="#383353"/><path d="m109.154 87.819a47.919 47.919 0 0 0 12.66-22.51c-1-.878-2.017-1.735-3.045-2.555a19.609 19.609 0 0 0 -27.769 3.53 96.92 96.92 0 0 0 -8.961 14.345s0 6.756.1 16.253l3.4 2.626 9.807-4.1a35.633 35.633 0 0 1 4.5-4.874 11.172 11.172 0 0 1 9.308-2.715z" fill="#524d6f"/><path d="m95.343 95.407c-7.8-3.027-11.524-9.243-13.3-14.775a126.353 126.353 0 0 0 -9.508 24.968l16.447 3.5a33.338 33.338 0 0 1 6.361-13.693z" fill="#ff8a7d"/><path d="m97.291 99.56-.268-.118a26.974 26.974 0 0 0 -25.466 1.942c-6.757 4.349-15.392 11.992-24.593 25.416l-16.955 31.1c-.641 1.387-6.156 12.842-15.625 17.749a9.428 9.428 0 0 0 -5.206 8.331 9.242 9.242 0 0 0 10.471 9.194c8.947-1.267 21.463-5.879 28.533-20.961a57.581 57.581 0 0 1 14-28.21c4.163-6.4 9.14-12.49 14.717-16.4a16.043 16.043 0 0 1 14.145-2.031q.909.3 1.909.657z" fill="#524d6f"/><path d="m46.908 126.887a192.621 192.621 0 0 0 -16.836 30.87l-.063.138c3.264 5.169 9.23 12.265 18.168 14.311.17-.363.341-.726.5-1.1a148.918 148.918 0 0 1 13.5-27.1c-5.145-3.883-11.777-9.886-15.269-17.119z" fill="#ff8a7d"/><path d="m135.892 126.611s-18.773-18.229-38.6-27.048a62.6 62.6 0 0 0 -4.339 26.664 60.7 60.7 0 0 1 27.658 20.236h12.689z" fill="#383353"/><path d="m224.7 130.621 31.431-37.671c1.94-1.334 3.978-2.609 6.116-3.806a33.216 33.216 0 0 1 20.4-3.946c5.073.641 32.09 19.813 32.09 19.813a93.939 93.939 0 0 1 14.811 19.054 9.237 9.237 0 0 1 -1.548 11.335 9.186 9.186 0 0 1 -13.218-.517c-3.35-3.773-7.881-8.589-13.119-13.409-4.579-10.562-13.437-11.945-21.113-10.287a20.277 20.277 0 0 0 -6.517 1.619 110.508 110.508 0 0 0 -22.656 13.689z" fill="#524d6f"/><path d="m224.7 130.621 26.675-4.129c3.473-2.643 6.733-4.886 9.76-6.791-6.721-11.608-6.109-21.512-5-26.742-21.957 15.1-31.435 37.662-31.435 37.662z" fill="#383353"/><path d="m282.648 85.212c3.5 12.452 0 21.875-2.1 25.979a20.451 20.451 0 0 1 14.479 4.528c2.308 1.875 4.518 3.817 6.627 5.759 8.042-3.344 11.567-11.115 13.079-16.46a116.687 116.687 0 0 0 -17.663-14.438 33.494 33.494 0 0 0 -14.422-5.368z" fill="#ff8a7d"/><path d="m213.105 198.316q.155 5.209.544 10.412c.443 5.862 1.09 12.667 2.034 19.952.629 13.5 2.215 25.885 6.692 34.921q.656 2.436 1.37 4.838s3.932 14.247 4.371 27.632a10.108 10.108 0 0 1 -10.129 10.392 10.129 10.129 0 0 1 -9.529-6.692 249.861 249.861 0 0 1 -8.376-28.645l-5.628-38.971q-.169-3.135-.241-6.325c-.2-9.4-.717-17.771-1.395-25.13 6.366-3.679 13.091-4.744 20.287-2.384z" fill="#524d6f"/><path d="m206.915 145.2-21.276 15.275s4.7 13.321 7.177 40.23c3.738-1.543 10.4-3.288 20.29-2.386-.179-6.006-.138-12.018.08-18.029 1.028-28.39-6.271-35.09-6.271-35.09z" fill="#383353"/><path d="m194.456 232.155a231.287 231.287 0 0 0 5.629 38.97 42.583 42.583 0 0 1 22.3-7.526 270.3 270.3 0 0 1 -6.7-34.92 57.966 57.966 0 0 0 -21.229 3.476z" fill="#ff8a7d"/><path d="m131.055 138.506s-9.5 6.943-28.921 13.679a37.368 37.368 0 0 1 -6.207 3.234c-6.468 2-10.965 5.552-15.467 10.607l-9.969 9.056a361.441 361.441 0 0 0 -21.675 29.818l-16.947 28.478c-3.129 5.8-6.241 11.9-9.289 18.307a10.537 10.537 0 0 0 7.02 14.823l.321.072a10.468 10.468 0 0 0 11.479-5.543c2.029-3.975 4.994-9.639 8.613-16.14 4.614-10.276 9.591-19.367 15.435-25.64 6.333-9.628 13.219-18.923 20.007-25.911 0 0 5.736-7.486 8.794-9.376 3.97-2.454 10.875-4.123 19.929-7.793a192.09 192.09 0 0 1 25.2-8.15z" fill="#524d6f"/><path d="m50.012 244.9c4.369-7.849 9.694-16.914 15.477-25.7-5.038-2.844-12.875-8-16.671-14.3-5.519 8.444-11.259 17.951-16.945 28.48 2.287 4.647 7.327 10.758 18.139 11.52z" fill="#ff8a7d"/><path d="m131.055 138.506s-9.5 6.943-28.921 13.679a37.368 37.368 0 0 1 -6.207 3.234c-.206.063-.392.142-.593.208 3.61 8.364 9.879 21.377 9.879 21.377l5.556.5c1.1-.415 2.234-.855 3.407-1.331a192.09 192.09 0 0 1 25.2-8.15z" fill="#383353"/><path d="m114.177 176.18c-.678-6.189-3.168-16.99-12.043-24q-2.976 1.032-6.261 2.051a37.08 37.08 0 0 0 -16.793 10.728c-2.415 2.711-5.323 6.1-8.587 10.124.919 5.372 4.089 14.682 14.966 18.269.275-.283.55-.574.824-.849a46.177 46.177 0 0 1 8.429-6.658 130.626 130.626 0 0 1 19.465-9.665z" fill="#524d6f"/><path d="m139.378 154.862a92.768 92.768 0 0 0 -25.346 13.056 37.781 37.781 0 0 0 -14.119 20.494c.044 11.345-1.217 21.5-4.485 29.821a59.846 59.846 0 0 1 -6.5 15.5 9.4 9.4 0 0 0 8.3 14.34c.174-.008.351-.018.53-.03a9.5 9.5 0 0 0 7.012-3.849 70.418 70.418 0 0 0 10.108-20.38c-1.107-11.98-.178-22.3 4.591-29.5a16.244 16.244 0 0 1 6.191-8.159 60.239 60.239 0 0 1 12-6.3z" fill="#524d6f"/><path d="m129.124 183.972a62.76 62.76 0 0 1 8.537-4.116l1.717-24.994a89.4 89.4 0 0 0 -17.741 8.081 23.884 23.884 0 0 1 7.487 21.029z" fill="#383353"/><path d="m185.639 183.666c3.843 1.3 3.077 10.5 3.077 10.5a38.416 38.416 0 0 1 -6.742 9.892 29.02 29.02 0 0 0 -5.81 11.412 41.416 41.416 0 0 0 -1.868 27.6c.232 3.172.588 6.574 1.083 10.225 1.286 9.48-9.459 16.229-17.152 10.542q-.369-.273-.732-.579a10.557 10.557 0 0 1 -3.325-5.513 97.18 97.18 0 0 1 -2.4-16.988l1.942-28.4a80.946 80.946 0 0 1 7.952-22.016s8.314-11.971 23.975-6.675z" fill="#524d6f"/><path d="m99.873 188.577a37.809 37.809 0 0 0 -1.277 8.231 98.48 98.48 0 0 1 -3.178 21.423 28.928 28.928 0 0 0 19.443 5.581 82.408 82.408 0 0 0 3.755-24.436 16.012 16.012 0 0 1 .857-5.06c-10.895.426-16.804-3.172-19.6-5.739z" fill="#ff8a7d"/><path d="m174.3 243.075c-.907-12.372.053-21.233 1.869-27.6-10.182 3.211-18.643-.747-22.445-3.1a107.918 107.918 0 0 0 -1.947 28.392c7.712 3.846 17.198 3.157 22.523 2.308z" fill="#ff8a7d"/><path d="m160.238 168.959 1.33 19.954a50.928 50.928 0 0 1 27.141 5.249 31.49 31.49 0 0 0 2.392-10.144c.732-8.278-3.925-19.893-3.925-19.893z" fill="#383353"/><path d="m251.365 141.2q1.257-.22 2.5-.4a12.378 12.378 0 0 1 12.931 6.746c.816 1.655 1.789 3.536 2.926 5.591l19.428 26.963a115.168 115.168 0 0 0 12.764 11.829 24.562 24.562 0 0 0 15.257 5.258h2.3a10.774 10.774 0 0 0 10.774-10.774 10.721 10.721 0 0 0 -7.73-10.335 34.258 34.258 0 0 1 -14.186-7.734c-8.2-7.932-14.837-17.718-20.3-28.89-2.129-3.477-4.214-7.066-6.085-10.583a23.539 23.539 0 0 0 -21.23-12.495 58.072 58.072 0 0 0 -8.133.939z" fill="#524d6f"/><path d="m228.549 165.775a39.25 39.25 0 0 1 8.782 12.87 36.533 36.533 0 0 1 2.623 9.468l9.477 38.248a109.568 109.568 0 0 0 12.616 24.072 10.555 10.555 0 0 0 12.524 3.644 10.566 10.566 0 0 0 5.752-14.077c-2.474-5.59-5.595-13.244-8.525-22.162-5.6-7.925-7.843-23.125-9.833-38.867a71.042 71.042 0 0 0 -13.445-24.161 68.026 68.026 0 0 0 -4.775-5.033c-6.21 2.305-11.017 8.323-15.196 15.998z" fill="#524d6f"/><path d="m223.425 148.772a198.455 198.455 0 0 1 27.94-7.571c1.934-5.207 4.4-14.731 1.218-23.881a270.732 270.732 0 0 0 -47.5 13.569z" fill="#383353"/><path d="m289.15 180.1c8.819-1.71 15.476-7.627 19.184-11.762a26.1 26.1 0 0 1 -3.612-4.215s-8.652-11.537-16.691-24.669c-5.329 7.145-13.329 11.5-18.309 13.676a137.812 137.812 0 0 0 19.428 26.97z" fill="#ff8a7d"/><path d="m240.053 188.838a168.1 168.1 0 0 0 9.379 37.522 39.912 39.912 0 0 0 22.37-8.523 198.834 198.834 0 0 1 -7.039-27.646 80.22 80.22 0 0 0 -2.8-11.216 70.433 70.433 0 0 1 -22.02 9.141c.03.241.079.484.11.722z" fill="#ff8a7d"/><path d="m228.544 165.78c5.233-2.364 12.329-7.1 15.2-16a57.133 57.133 0 0 0 -30.46-15.347h-6.404l-3.78 22.384a33.259 33.259 0 0 1 25.444 8.963z" fill="#383353"/><path d="m208.465 125.971c-4.485-12.849-14.363-21.765-27.741-24.261a64.266 64.266 0 0 0 -18.776-.211c-9.706 1.17-24.012 11.287-24.012 11.287a39.773 39.773 0 0 0 -9.608 24.085 61.721 61.721 0 0 0 5.952 28.984l26.183 11.156s35.9 5.458 48.429-19.909a18.9 18.9 0 0 1 .628-3.706c4.118-10.981 1.6-19.821-1.055-27.425z" fill="#524d6f"/><path d="m152.948 156.149c.036.244.066.492.087.747a12.051 12.051 0 0 1 -.622 4.746 105.642 105.642 0 0 0 -4.243 18.512 10.241 10.241 0 0 1 -10.14 8.991c-.32 0-.644-.017-.97-.044a10.253 10.253 0 0 1 -9.224-10.286c-.014-7.448 1.375-20.889 10.747-28.132 5.348-4.134 13.376-1.22 14.365 5.466z" fill="#383353"/><path d="m180.65 100.678a61.777 61.777 0 0 0 -18.554-.794 37.831 37.831 0 0 0 -24.153 12.908c-.006.049-.011.1-.017.147a11.159 11.159 0 0 0 10.986 12.331c7.678.1 23.89 2.686 34.807 21.193 7.648 12.965 17.477 13.308 25.167 10.636.519-1.052 1-2.151 1.439-3.311 4.118-10.981 2.134-20.876-.521-28.48a38.133 38.133 0 0 0 -29.154-24.63z" fill="#ff8a7d"/><path d="m169.69 164.194c.036.244.066.492.087.746a12.054 12.054 0 0 1 -.622 4.747 105.642 105.642 0 0 0 -4.243 18.512 10.241 10.241 0 0 1 -10.14 8.991c-.32 0-.644-.017-.97-.045a10.252 10.252 0 0 1 -9.224-10.286c-.014-7.447 1.375-20.888 10.747-28.131 5.348-4.134 13.375-1.22 14.365 5.466z" fill="#383353"/></svg>