<svg id="flat" height="512" viewBox="0 0 340 340" width="512" xmlns="http://www.w3.org/2000/svg"><path d="m168.549 30.368a3.5 3.5 0 0 1 -3.5-3.5v-15.118a3.5 3.5 0 0 1 7 0v15.118a3.5 3.5 0 0 1 -3.5 3.5z" fill="#7d8eaa"/><path d="m180.267 50.212a14.207 14.207 0 0 1 -3.476-9.311v-16.911h-16.483v16.91a14.208 14.208 0 0 1 -3.477 9.311l-5.73 6.6a50.327 50.327 0 0 0 34.9 0z" fill="#7d8eaa"/><path d="m137.387 56.817h65.227v21.605h-65.227z" fill="#7d8eaa"/><path d="m125.049 75.113h87v208.248h-87z" fill="#7d8eaa"/><path d="m120.522 272.422h-46.073v-86.205h-38.077v73.716l-26.372 8.224v63.593h92.604z" fill="#3c3c4f"/><path d="m303.82 200.838h-39.295v28.024h-50.26v43.56h-10.176l30.405 59.328h95.506v-48.972l-26.18-9.442z" fill="#3c3c4f"/><path d="m129.345 302.886h-16.342v-183.172h32.684v131.313z" fill="#c4d0e8"/><path d="m207.754 302.886h16.342v-183.172h-32.684v131.313z" fill="#c4d0e8"/><path d="m129.345 251.027h16.342v51.859h-16.342z" fill="#7d8eaa"/><path d="m191.412 251.027h16.342v51.859h-16.342z" fill="#7d8eaa"/><path d="m145.687 331.75h-43.083v-39.199h50.206z" fill="#7d8eaa"/><path d="m191.412 331.75h43.082v-39.199h-50.205z" fill="#7d8eaa"/><path d="m145.687 262.002h45.725v69.748h-45.725z" fill="#c4d0e8"/><g fill="#3c3c4f"><path d="m129.345 152.454a3.5 3.5 0 0 1 -3.5-3.5v-3.031a3.5 3.5 0 0 1 7 0v3.031a3.5 3.5 0 0 1 -3.5 3.5z"/><path d="m129.345 175.765a3.5 3.5 0 0 1 -3.5-3.5v-3.03a3.5 3.5 0 0 1 7 0v3.03a3.5 3.5 0 0 1 -3.5 3.5z"/><path d="m129.345 199.077a3.5 3.5 0 0 1 -3.5-3.5v-3.031a3.5 3.5 0 0 1 7 0v3.031a3.5 3.5 0 0 1 -3.5 3.5z"/><path d="m129.345 222.388a3.5 3.5 0 0 1 -3.5-3.5v-3.03a3.5 3.5 0 0 1 7 0v3.03a3.5 3.5 0 0 1 -3.5 3.5z"/><path d="m129.345 245.7a3.5 3.5 0 0 1 -3.5-3.5v-3.031a3.5 3.5 0 0 1 7 0v3.031a3.5 3.5 0 0 1 -3.5 3.5z"/><path d="m207.754 152.454a3.5 3.5 0 0 1 -3.5-3.5v-3.031a3.5 3.5 0 0 1 7 0v3.031a3.5 3.5 0 0 1 -3.5 3.5z"/><path d="m207.754 175.765a3.5 3.5 0 0 1 -3.5-3.5v-3.03a3.5 3.5 0 0 1 7 0v3.03a3.5 3.5 0 0 1 -3.5 3.5z"/><path d="m207.754 199.077a3.5 3.5 0 0 1 -3.5-3.5v-3.031a3.5 3.5 0 0 1 7 0v3.031a3.5 3.5 0 0 1 -3.5 3.5z"/><path d="m207.754 222.388a3.5 3.5 0 0 1 -3.5-3.5v-3.03a3.5 3.5 0 0 1 7 0v3.03a3.5 3.5 0 0 1 -3.5 3.5z"/><path d="m207.754 245.7a3.5 3.5 0 0 1 -3.5-3.5v-3.031a3.5 3.5 0 0 1 7 0v3.031a3.5 3.5 0 0 1 -3.5 3.5z"/><path d="m168.549 105.831a3.5 3.5 0 0 1 -3.5-3.5v-3.031a3.5 3.5 0 1 1 7 0v3.031a3.5 3.5 0 0 1 -3.5 3.5z"/><path d="m188.549 105.831a3.5 3.5 0 0 1 -3.5-3.5v-3.031a3.5 3.5 0 1 1 7 0v3.031a3.5 3.5 0 0 1 -3.5 3.5z"/><path d="m148.549 105.831a3.5 3.5 0 0 1 -3.5-3.5v-3.031a3.5 3.5 0 1 1 7 0v3.031a3.5 3.5 0 0 1 -3.5 3.5z"/><path d="m168.549 129.142a3.5 3.5 0 0 1 -3.5-3.5v-3.03a3.5 3.5 0 0 1 7 0v3.03a3.5 3.5 0 0 1 -3.5 3.5z"/><path d="m168.549 152.454a3.5 3.5 0 0 1 -3.5-3.5v-3.031a3.5 3.5 0 0 1 7 0v3.031a3.5 3.5 0 0 1 -3.5 3.5z"/><path d="m168.549 175.765a3.5 3.5 0 0 1 -3.5-3.5v-3.03a3.5 3.5 0 0 1 7 0v3.03a3.5 3.5 0 0 1 -3.5 3.5z"/><path d="m168.549 199.077a3.5 3.5 0 0 1 -3.5-3.5v-3.031a3.5 3.5 0 0 1 7 0v3.031a3.5 3.5 0 0 1 -3.5 3.5z"/><path d="m168.549 222.388a3.5 3.5 0 0 1 -3.5-3.5v-3.03a3.5 3.5 0 0 1 7 0v3.03a3.5 3.5 0 0 1 -3.5 3.5z"/><path d="m168.549 245.7a3.5 3.5 0 0 1 -3.5-3.5v-3.031a3.5 3.5 0 0 1 7 0v3.031a3.5 3.5 0 0 1 -3.5 3.5z"/><path d="m161.4 293.392a3.5 3.5 0 0 1 -3.5-3.5v-3.03a3.5 3.5 0 0 1 7 0v3.03a3.5 3.5 0 0 1 -3.5 3.5z"/><path d="m175.7 293.392a3.5 3.5 0 0 1 -3.5-3.5v-3.03a3.5 3.5 0 0 1 7 0v3.03a3.5 3.5 0 0 1 -3.5 3.5z"/><path d="m161.4 317.165a3.5 3.5 0 0 1 -3.5-3.5v-3.03a3.5 3.5 0 0 1 7 0v3.03a3.5 3.5 0 0 1 -3.5 3.5z"/><path d="m175.7 317.165a3.5 3.5 0 0 1 -3.5-3.5v-3.03a3.5 3.5 0 0 1 7 0v3.03a3.5 3.5 0 0 1 -3.5 3.5z"/><path d="m132.7 318.07a3.5 3.5 0 0 1 -3.5-3.5v-3.03a3.5 3.5 0 0 1 7 0v3.03a3.5 3.5 0 0 1 -3.5 3.5z"/><path d="m204.4 318.07a3.5 3.5 0 0 1 -3.5-3.5v-3.03a3.5 3.5 0 0 1 7 0v3.03a3.5 3.5 0 0 1 -3.5 3.5z"/><path d="m219.7 318.07a3.5 3.5 0 0 1 -3.5-3.5v-3.03a3.5 3.5 0 1 1 7 0v3.03a3.5 3.5 0 0 1 -3.5 3.5z"/><path d="m117.4 318.07a3.5 3.5 0 0 1 -3.5-3.5v-3.03a3.5 3.5 0 0 1 7 0v3.03a3.5 3.5 0 0 1 -3.5 3.5z"/></g></svg>