<svg id="FLAT" height="512" viewBox="0 0 500 500" width="512" xmlns="http://www.w3.org/2000/svg"><path d="m443.565 407.567c7.291 7.565 15.437 15.608 24.086 23.466.94 3.653 3.835 6.077 8.418 7.442q4.551 3.909 9.225 7.655v39.164s-40.666-26.271-70.231-60.595c-9.27-10.763 8.557-37.827 28.502-17.132z" fill="#d87155"/><path d="m364.891 408.066 74.622 77.228h45.781s-65.1-54.07-93.172-94.7z" fill="#8e3329"/><path d="m476.069 438.474q-4.275-3.671-8.417-7.442a53.215 53.215 0 0 1 -37.282 9.913c3.943 3.862 7.923 7.554 11.846 11.042a63.853 63.853 0 0 0 33.853-13.513z" fill="#8e3329"/><path d="m410.067 369.753-17.945 20.847c5.492 11.785 13.673 23.337 22.944 34.1a84.613 84.613 0 0 0 28.5-17.129c-19.945-20.699-33.499-37.818-33.499-37.818z" fill="#8e3329"/><path d="m14.706 41.1s50.458 29.192 92.1 73.41l-11.161 27.9s-35.235-36.058-80.939-54.947z" fill="#8e3329"/><path d="m68.169 14.706s2.923 11.17 10.668 26.576a20.883 20.883 0 0 0 5.3 9.8 176.535 176.535 0 0 0 17.779 25.318c-1.762 11.021-14.758 23.224-24.42 22.03-2.479-2.341-5.018-4.854-7.577-7.536a27.2 27.2 0 0 0 -11.194-12.812c-13.332-16.715-25.518-38-30.48-63.376z" fill="#d87155"/><path d="m69.92 90.887c-.747-5.44-2.357-26.325 14.221-39.8-1.974-3.4-3.738-6.689-5.3-9.8-13.596 10.178-18.841 24.605-20.113 36.792 3.686 4.621 7.459 8.895 11.192 12.808z" fill="#8e3329"/><path d="m126.553 99.913a156.51 156.51 0 0 1 -24.634-23.52 49.9 49.9 0 0 0 -24.419 22.032c15.9 15.016 29.309 22.952 29.309 22.952z" fill="#8e3329"/><path d="m347.984 300.945s-14.211 21.877-16.023 53.177l-33.061-19.045s5.029-30.575 24.209-54.112z" fill="#8e3329"/><path d="m139.971 194.928s24.14-15.9 32.477-46.124l24.43 25.2s-11.33 28.84-35.02 47.83z" fill="#8e3329"/><path d="m112.775 121.564s24.264 20.579 58.44 49.959a13.9 13.9 0 0 1 9.62 8.278c11.348 9.774 23.557 20.321 36.172 31.268 3.791 1.363 7.1 4.39 10.039 8.722 15.556 13.531 31.535 27.509 47.121 41.263 4.582.646 8.008 4.019 10.6 9.372 14.124 12.518 27.758 24.718 40.269 36.079 4.5.261 8.1 4.071 11.119 10.151 16.52 15.166 30.445 28.368 40.019 38.164v-40.62s-13.329-10.921-33.951-28.043a19.12 19.12 0 0 1 -8.6-7.146c-12.516-10.416-27.049-22.564-42.555-35.626-4.351-1.663-7.19-4.072-8.547-7.21-15.336-12.955-31.408-26.63-47.262-40.279a12.763 12.763 0 0 1 -8.355-7.208c-12.455-10.769-24.669-21.44-36.172-31.646-3.756-1.973-6.029-3.69-8.234-7.334-22.82-20.416-42.171-38.5-54-51.073.002-.003-13.098 3.928-15.723 22.929z" fill="#d87155"/><path d="m382.723 384.96c-11.925-10.319-48.24-41.172-90.411-76.92a17.947 17.947 0 0 1 -8.554-7.251c-14.893-12.622-30.343-25.708-45.573-38.6a13.259 13.259 0 0 1 -8.432-7.138c-13.8-11.681-27.291-23.1-39.892-33.762a13.422 13.422 0 0 1 -8.442-7.144c-37.972-32.126-65.934-55.762-65.934-55.762s-14.5 16.258 5.153 39.845c0 0 21.475 16.959 51.611 41.671a30.02 30.02 0 0 1 11.144 9.168c12 9.907 25 20.748 38.333 32.039 3.992 1.618 7.95 5.294 11.889 10.119 14.415 12.329 28.976 25.009 42.855 37.447 4.551 1.807 8.544 5.816 12.224 11.057 25.025 22.859 46.809 44.253 59.958 60.3 15.237-3.018 28.63-6.99 34.071-15.069z" fill="#d87155"/><path d="m331.786 381.257c6.534 6.806 12.237 13.121 16.866 18.772 15.237-3.019 28.63-6.991 34.071-15.07-5.787-5.008-17.322-14.855-32.479-27.747a48.905 48.905 0 0 1 -18.458 24.045z" fill="#8e3329"/><path d="m354.443 333.656c8.572 8.085 15.945 15.247 21.728 21.164v-40.62s-10.871-8.915-28.171-23.255c2.685 8.698 6.917 25.344 6.443 42.711z" fill="#8e3329"/><path d="m109.814 221.027c-3.654-5.088-7.1-12.009-10.134-21.283-14.739-45.109 27.751-57.278 27.751-57.278a178.711 178.711 0 0 0 2.652 31.088 17.821 17.821 0 0 0 2.371 10.773q.386 1.469.81 2.933c5.35 20.445-6.512 39.466-23.45 33.767z" fill="#d87155"/><path d="m351.35 386.744a114.632 114.632 0 0 0 12.412-53.284 17.215 17.215 0 0 0 -.925-11.924 54.23 54.23 0 0 0 -9.525-23.706s-4.7-11.213 8.3-16.865 24.03 4.206 24.03 4.206a61.886 61.886 0 0 1 8.511 23.253s9.107 29.142 8.2 42.8-6.835 51.457-51.003 35.52z" fill="#d87155"/><g fill="#8e3329"><path d="m348.652 400.03c15.237-3.019 28.63-6.991 34.071-15.07-3.375-2.921-8.71-7.491-15.573-13.348-19.552 11.817-41.228.642-41.228.642l-.182 2.8c9.095 9.196 16.906 17.646 22.912 24.976z"/><path d="m356.129 376.054a86.218 86.218 0 0 1 -4.779 10.69c44.168 15.937 50.088-21.857 51-35.517.638-9.562-3.63-26.7-6.25-36.126-.5.284-.787.449-.787.449-6.339 42.696-23.513 56.957-39.184 60.504z"/><path d="m172.249 239.9q5.4 4.427 11.144 9.169c-.684-7.2-.334-18.613 6.468-27.779q-4.293-3.635-8.442-7.144c-6.376 8.204-8.655 17.641-9.17 25.754z"/><path d="m221.726 281.1q5.91 5.005 11.889 10.119c-1.575-7.932-1.918-19.111 4.57-29.037l-8.432-7.138a46.569 46.569 0 0 0 -8.027 26.056z"/><path d="m276.47 328.668q6.214 5.569 12.224 11.057c-1.427-7.039-2.651-19.933 3.618-31.685q-4.24-3.6-8.554-7.251a52.818 52.818 0 0 0 -7.288 27.879z"/><path d="m274.167 261.055q5.334 4.707 10.6 9.371a52.032 52.032 0 0 1 6.305-27.044q-4.23-3.562-8.548-7.21a62.276 62.276 0 0 0 -8.357 24.883z"/><path d="m325.032 306.506q5.726 5.2 11.12 10.15a52.444 52.444 0 0 1 6.068-30.5q-4.113-3.415-8.6-7.146a62.213 62.213 0 0 0 -8.588 27.496z"/><path d="m400.387 332.834c-.759-3.808-1.644-7.6-2.508-11.018-12.756 6.472-27.156 2.757-35.051-.279.022.154.052.305.073.459a100.056 100.056 0 0 1 .849 11.464 64.245 64.245 0 0 0 18.577 2.941 45.444 45.444 0 0 0 18.06-3.567z"/><path d="m226.9 188.685a53.04 53.04 0 0 0 -9.9 22.384q4.981 4.323 10.039 8.722a43.813 43.813 0 0 1 8.213-23.9q-4.184-3.605-8.352-7.206z"/><path d="m182.5 149.7c-6.323 6.321-9.593 14.85-11.284 21.819q4.692 4.033 9.62 8.278c.823-5.938 3.187-16.476 9.9-22.762-2.368-2.897-4.827-5.541-8.236-7.335z"/><path d="m121.737 185.329a56.455 56.455 0 0 0 10.718-1c-.947-3.6-1.727-7.2-2.37-10.774-11.853 2.175-23.928-.916-32.366-4.121a64.984 64.984 0 0 0 -1.038 11.378 77.818 77.818 0 0 0 25.056 4.517z"/><path d="m127.433 142.466a181.113 181.113 0 0 1 1.8-26.849s-33.644 29.641-32.529 67.12l.352.085s7.913-25.696 30.377-40.356z"/><path d="m128.5 98.632s-13.1 3.931-15.725 22.932c0 0 7.713 6.542 20.559 17.507a62.545 62.545 0 0 1 30.219-6.523c-14.501-13.318-26.669-25.002-35.053-33.916z"/></g><path d="m97.008 187.26s-1.324-24.1 14.15-43.728c2.758-5.98 5.826-10.162 9.695-9.684a62.656 62.656 0 0 1 13.944-8.243 23.286 23.286 0 0 1 20.653 1.021 26.265 26.265 0 0 1 5.019 3.578c16.749 12.675 35.554 11.129 36.455-6.408a62.758 62.758 0 0 0 -7.97-15.972l-15.213-14.438a55.932 55.932 0 0 0 -6.731-3.577c-29.1-13.048-52.416.7-66.574 17.746-1.589 3.954-3.655 7.152-6.535 9.064-4.382 7.047-7.184 13.967-8.185 19.224-3.916 20.568 4.464 44.068 11.292 51.417z" fill="#d87155"/><path d="m173.736 93.394c3.35 8.1 8.31 24.944.459 40.989a5.5 5.5 0 1 0 9.881 4.834 54.972 54.972 0 0 0 4.873-31.39 52.2 52.2 0 0 0 -15.213-14.433z" fill="#8e3329"/><path d="m120.857 133.853a40.769 40.769 0 0 0 -20.418-26.295 82.051 82.051 0 0 0 -6.535 9.063c6.835 3.352 16.52 10.908 17.257 26.913a57.911 57.911 0 0 1 9.696-9.681z" fill="#8e3329"/><path d="m155.444 126.629v.01a26.164 26.164 0 0 1 5.026 3.565l40.191 35.6s3.331-21.165-3.736-42.012c-9.303 19.039-41.481 2.837-41.481 2.837z" fill="#8e3329"/><path d="m133.268 187.259s.773 31.034-23.443 33.762c18.968 26.4 43.454 3.4 43.454 3.4-9.892-10.656-16.139-23.771-20.011-37.162z" fill="#8e3329"/><path d="m385.635 285.175a39.628 39.628 0 0 0 -15.616-14.545c-20.946-10.473-41.253 4.333-41.253 4.333l14.481 12.022a56.885 56.885 0 0 1 10.053 10.846h.011s6.258-21.111 32.324-12.656z" fill="#8e3329"/><path d="m325.921 369.358s11.341 6.386 17.427 8.8c3.058 3.968 6.444 5.571 10.359 3.348 1.945.475 3.894.859 5.839 1.137a23.913 23.913 0 0 0 14.935-2.332c4.589-.525 7.334-3.069 8.513-7.326 4.152-5.282 7.111-12.21 9.125-19.641a14.24 14.24 0 0 0 2.263-10.846c2.086-13.652 1.54-27.173-.23-34.077 0 0 18.082 6.547 24.58 28.927l2.072 11.521q.18 2.238.214 4.632a62.04 62.04 0 0 1 -12.637 38.236l-8.89 9.451c-11.354 9.762-26.66 15.678-44.607 14.984a27.28 27.28 0 0 0 -12.562-1.49c-15.681-2.977-28.032-9.333-36.1-19.674-.004.003-5.805-33.194 19.699-25.65z" fill="#d87155"/><path d="m353.894 381.55a78.564 78.564 0 0 1 -10.541-3.4 50.924 50.924 0 0 0 -1.029 36.523c1.466.278 2.949.538 4.472.758a77.55 77.55 0 0 0 8.088.743 39.23 39.23 0 0 1 -.99-34.624z" fill="#8e3329"/><path d="m382.988 372.983a26.951 26.951 0 0 1 -8.512 7.322c5.011 8.285 13.339 17.279 25.014 20.885a61.546 61.546 0 0 0 8.89-9.451c-13.593-.973-21.648-11.896-25.392-18.756z" fill="#8e3329"/><path d="m399.1 353.783a47.428 47.428 0 0 0 21.685-4.91 57.979 57.979 0 0 0 -2.07-11.517c-8.023 5.662-17.916 5.842-24.336 5.145a98.441 98.441 0 0 1 -2.265 10.845 56.827 56.827 0 0 0 6.986.437z" fill="#8e3329"/><path d="m296.25 346.676c-2.49 21.289 1.238 37.141 9.973 48.331-1.794-23.594 19.687-25.649 19.7-25.65a182.077 182.077 0 0 1 -29.673-22.681z" fill="#8e3329"/></svg>