<svg id="flat" height="512" viewBox="0 0 340 340" width="512" xmlns="http://www.w3.org/2000/svg"><path d="m296.282 157.3s13.751 33.258-6.716 72.912a149.067 149.067 0 0 0 -12.888 33.925 2.909 2.909 0 0 1 -4.4 1.776c-4.775-3.129-12.409-11.149-10.85-30.027l7.036-58.439z" fill="#485a75"/><path d="m100.617 239.726s-8.594 8.862-7.251 37.6a23.186 23.186 0 0 1 -1.358 9.336 2.591 2.591 0 0 0 3.251 3.364c7.413-2.449 19.481-8.527 24.693-22.905l1.733-31.235z" fill="#485a75"/><path d="m280.6 55a24.193 24.193 0 0 1 9.41 18.184 25.287 25.287 0 0 1 -9.724 20.535c-1.694 1.353-3.658 2.953-5.733 4.706-3.252 4.733-8.23 7.2-14 8.622a34.666 34.666 0 0 1 -11.713 1.773c-5.745-.122-12.9-.14-20.7.147-4.575.843-8.825 1.268-12.306.7-3.319.261-6.682.587-10.038.991a117.175 117.175 0 0 0 -26.638 6.433l-14.354 6.44a115.962 115.962 0 0 0 -17.483 11.442q-2.627 2.081-5.393 4.433c-3.255 3.858-6.53 7.161-9.857 9.035-3.305 3.262-6.624 6.791-9.864 10.585-2.408 2.82-5.053 5.6-7.711 8.169a32.458 32.458 0 0 1 -8.217 7.2 112.948 112.948 0 0 1 -28.02 16.465 18.893 18.893 0 0 1 -8.037 3.5 138.257 138.257 0 0 0 -23.542 13.777 32.379 32.379 0 0 1 -7.757 6.28 81.462 81.462 0 0 0 -17.857 22.242q-1.619 3.029-2.936 5.959l-3.3 8.432a73.251 73.251 0 0 0 -3.742 19.264c-1.419 26.579 19.717 49.286 46.321 48.756a61.377 61.377 0 0 0 23.025-5.111 2.478 2.478 0 0 0 -.8-4.76c-6.845-.405-16.117-1.736-24.354-5.593a30.271 30.271 0 0 1 -10.647-46.259c.1-.119.192-.238.29-.357l17.262-12.553 85.815-13.277 119.487-42.419 49.544-79.335s-3.24-43.396-36.431-54.406z" fill="#798eb7"/><path d="m47.593 252.953s13.548-39.625 80.444-34.454l-24.386 17.384z" fill="#485a75"/><path d="m232.133 191.108a35.311 35.311 0 0 1 16.767-17.054 85.657 85.657 0 0 0 10.248-5.754 2.625 2.625 0 0 1 3.862 3.24l-7.573 17.152-11.507 7.178z" fill="#485a75"/><path d="m231.225 55.769-14.635 9.82s-19.362 15.732-34.61 24.2c0 0-22.75 11.86-33.884 15.974a37.432 37.432 0 0 1 -12.251 14.315 23.6 23.6 0 0 1 -14.211 4.073 235.023 235.023 0 0 0 -28.872.789 9.4 9.4 0 0 1 -10.37-10.311q.026-.225.057-.456a9.236 9.236 0 0 1 1.86-4.346c1.138-1.475 3.06-3.91 5.945-7.395a87.632 87.632 0 0 0 5.954-8.056c4.7-7.212 18.613-23.891 44.491-18.854a31.888 31.888 0 0 0 20.667-2.777c10.915-5.581 29.322-16.716 55.224-38.138 0 0 28.559-23.719 72.124-8.713 53.647 18.478 38.213 79.383 38.213 79.383l-7.633-17.8c-11.52-21.463-24.914-39.16-44.3-44.821-14.775.244-29.337 5.252-43.769 13.113z" fill="#798eb7"/><path d="m131.492 210.883c-3.988 5.246-11.915 14.5-20.915 18.615l22 .6a107.8 107.8 0 0 0 1.99-18.2 1.711 1.711 0 0 0 -3.075-1.015z" fill="#485a75"/><path d="m249.9 178.089s-36.832-1.378-64.374 18.683c-29.03 21.146-48.5 19.911-48.5 19.911l-3.772 15.085 44.385-6.57 46.949-18.376z" fill="#485a75"/><path d="m314.69 142.1c-14.758 25.168-40.384 53.637-40.384 53.637s-13.106 14.942-40.261 22.263a135.588 135.588 0 0 0 -22.47 8.312c-11.267 5.309-29.735 12.689-50.367 15.631a75.837 75.837 0 0 1 -17.642.4 77.761 77.761 0 0 0 -29.517 3.03 86.447 86.447 0 0 1 -32.5 3.068c-22.91-2.026-36.622 8.55-36.622 8.55s14.316-26.966 51.27-28.3 71.91-6.991 94.882-22.638c17.946-12.225 31.625-17.337 47.546-17.4a31.082 31.082 0 0 0 24.328-12.178l12.687-16.364s8.341-7.524 15.418-21.72z" fill="#d2dfff"/><path d="m134.225 207.065s-2.078 18.539-12.54 28.818c0 0-13.223 12.647-5 35.6a22.334 22.334 0 0 1 .262 14.052c-1.836 6.023-2.81 15.639 3.313 26.788a2.925 2.925 0 0 0 5.242-.289c2.75-6.394 8.193-17.243 16.1-24.775 16.872-16.076 21.967-50.755 11.483-82.208z" fill="#798eb7"/><path d="m255.547 175.234a62.306 62.306 0 0 0 -19.779 33.441 55.063 55.063 0 0 1 -9.848 20.9c-3.869 5.065-8.25 13.2-10.9 25.795a42.375 42.375 0 0 1 -2 8.088 3.986 3.986 0 0 0 5.022 5.148c24.458-8.291 86.2-38.075 56.856-121.568l-8.482 14.632a55.645 55.645 0 0 1 -10.869 13.564z" fill="#798eb7"/><g fill="#485a75"><path d="m119.254 98.3a3.465 3.465 0 0 1 -1.44-6.617l2.434-1.11a3.464 3.464 0 0 1 2.874 6.3l-2.433 1.109a3.446 3.446 0 0 1 -1.435.318z"/><path d="m155.546 102.68c.426-6.117-1.405-10.048-3.294-12.417a1.55 1.55 0 0 0 -2.725 1.222c.514 3.7.7 9.207-1.431 14.281 2.136-.789 4.704-1.866 7.45-3.086z"/><path d="m272.306 100.35a34.68 34.68 0 0 1 -11.756 6.691 100.327 100.327 0 0 0 -1.183 14.126 1.8 1.8 0 0 0 3.274 1.055c3.658-5.273 9.473-14.614 11.912-23.793q-1.107.935-2.247 1.921z"/><path d="m223.249 136.842a183.718 183.718 0 0 1 4.888-27.869c-3.968.145-8.1.371-12.307.7a133.314 133.314 0 0 0 3.886 27.415 1.8 1.8 0 0 0 3.533-.246z"/><path d="m190.247 168.544c-4.059-12.18-10.729-34.614-11.09-51.442a116.45 116.45 0 0 0 -14.352 6.442c3.122 10.576 10.246 31.045 22.307 46.665a1.8 1.8 0 0 0 3.135-1.665z"/><path d="m141.928 139.414c-3.211 2.739-6.525 5.746-9.857 9.034 2.16 6.958 6.684 19.477 13.742 29.253a1.8 1.8 0 0 0 3.164-1.608c-3.018-9.609-7.296-25.346-7.049-36.679z"/><path d="m118.591 189.71a145.512 145.512 0 0 1 -4.1-22.512q-3.942 3.793-8.225 7.193a67.446 67.446 0 0 0 9.161 16.866 1.8 1.8 0 0 0 3.164-1.547z"/><path d="m77.466 208.934a1.8 1.8 0 0 0 3.184-1.493 79.727 79.727 0 0 1 -2.4-16.575c-.16.066-.318.138-.479.2-2.455 1-4.991 2.1-7.574 3.3a47.655 47.655 0 0 0 7.269 14.568z"/><path d="m50.21 225.326c-1.619-5.008-3.431-11.766-3.533-17.182-2.659 1.958-5.255 4.052-7.754 6.283a81.737 81.737 0 0 0 8.189 12.6 1.8 1.8 0 0 0 3.098-1.701z"/><path d="m14.829 251.058a36.249 36.249 0 0 0 9.214 5.97 1.8 1.8 0 0 0 2.029-2.885 38 38 0 0 1 -7.938-11.516 88.437 88.437 0 0 0 -3.305 8.431z"/></g><path d="m299.314 47.189q-.759-.5-1.517-.97c-21.768-13.488-45.145-12.577-68.379 6.3a107.477 107.477 0 0 0 -12.828 13.07c33.351-19.975 56.968-16.279 68.505-7.9a37.568 37.568 0 0 1 14.879 25.832c2.943 23.418-2.467 41.913-8.925 54.865 1.8 7.82 11.948 16.085 23.64 3.707a107.329 107.329 0 0 0 7.34-14.656 79.809 79.809 0 0 0 4.709-20.172c2.616-23.587-7.613-47.007-27.424-60.076z" fill="#d2dfff"/><path d="m122.7 206.088a2.364 2.364 0 0 0 3.783-2.291 13.045 13.045 0 0 0 -1.359-3.871 11.036 11.036 0 0 0 -2.572-3.184 2.367 2.367 0 0 0 -3.845 2.3 14.492 14.492 0 0 0 1.493 4.158 10.272 10.272 0 0 0 2.5 2.888z" fill="#485a75"/><path d="m223.744 162.63a2.364 2.364 0 0 0 4.38-.615 13.043 13.043 0 0 0 .276-4.094 11.037 11.037 0 0 0 -1.11-3.939 2.366 2.366 0 0 0 -4.44.6 14.43 14.43 0 0 0 -.268 4.412 10.272 10.272 0 0 0 1.162 3.636z" fill="#485a75"/><path d="m254.71 142.123a2.364 2.364 0 0 0 4.383.592 13.044 13.044 0 0 0 1.372-3.866 11.028 11.028 0 0 0 0-4.093 2.366 2.366 0 0 0 -4.437-.623 14.5 14.5 0 0 0 -1.451 4.176 10.232 10.232 0 0 0 .133 3.814z" fill="#485a75"/></svg>