<svg id="FLAT" height="512" viewBox="0 0 500 500" width="512" xmlns="http://www.w3.org/2000/svg"><path d="m399.06 95.927v170.964s-276.52-65.691-322.817-135.357z" fill="#e5837c"/><path d="m371.569 59.885q-4.071-1.552-8.475-3.065s-74.394-14.908-133.212-14.192c-64.403-.784-106.182 8.958-137.482 20.893-33.053 12.6-37.558 46-7.64 64.575 46.71 29 95.651 43.989 124.175 46.334 13 1.068 20.947.9 20.947.9s81.041 1.687 149.043-40.531c29.918-18.572 25.697-62.31-7.356-74.914z" fill="#ffcac0"/><path d="m407.318 380.227c1.334-15.112 14.03-18 23.015-18.115l2.416-35.443-36.549-32.669c14.876.391 28.87 4.311 38.255 7.66l4.833-70.9s-51.428-39.614-156.369-36.139c-63.388 2.1-124.611-18.628-167.18-44.254l-26.42-10.067c-9.57 20.457-24.858 125.036-28.606 223.193 0 0 26.221 61.938 203.44 62.243 74.128.127 125.132 16.738 159.388 36.021l2.992-43.891a20.379 20.379 0 0 0 -9.3-18.416c-6.028-3.943-10.733-9.99-9.915-19.223z" fill="#ffcac0"/><path d="m301.34 284.865s-15.885-5.678-39.566-9.033l1.066-34.951c-18.823-.57-58.751-5.7-58.751-5.7l-1.167 33.981a311.224 311.224 0 0 1 -36.466-9.393v57.473a310.01 310.01 0 0 0 34.507 9l-.99 28.823c17.682 8.551 59.027 11.861 59.027 11.861l1.032-33.864c24.645 3.317 41.311 9.276 41.311 9.276z" fill="#d14343"/><g fill="#e5837c"><path d="m347.515 93.547a29.448 29.448 0 0 0 -22.8-22.237c-98.1-20.505-189.506-4.8-220.39 12.265a5.5 5.5 0 1 0 5.32 9.627c29.445-16.27 117.444-31.058 212.819-11.125a18.774 18.774 0 0 1 7.83 33.008c-18.951 15.1-60.438 31.036-150.467 21.2a49.52 49.52 0 0 1 -16.755-4.784c-5.734-2.853-9.212-6.067-9.793-9.048-.448-2.3.773-5.1 3.629-8.334 12.454-14.08 70.824-21.111 117.841-14.2a5.159 5.159 0 0 1 4.548 4.793 5.225 5.225 0 0 1 -3.575 5.655c-15.882 5.648-35.521 6.879-58.367 3.656a5.5 5.5 0 1 0 -1.536 10.892 159.846 159.846 0 0 0 41.335.9l-.038.012c.18-.021.348-.045.527-.067.247-.03.494-.061.739-.093 23.749-2.9 38.915-8.452 48.515-13.983 9.121-5.256 6.824-19-3.485-21.131-35.683-7.375-73.495-4.091-73.528-4.088-34.237.71-69.267 6.852-81.215 20.359-5.242 5.927-7.324 11.891-6.187 17.727 1.286 6.6 6.565 12.251 15.69 16.792a60.468 60.468 0 0 0 20.461 5.872 493.118 493.118 0 0 0 53.309 3.145c47.649 0 82.924-8.922 105.207-26.675a29.472 29.472 0 0 0 10.366-30.138z"/><path d="m363.092 56.823c-30.935-10.6-74.387-19.255-133.21-18.538-64.4-.785-110.391 9.665-141.687 21.6-.959.365-1.889.761-2.8 1.18-.612.28-1.2.587-1.789.889-.253.131-.515.253-.764.388-.759.407-1.492.839-2.213 1.281-.049.031-.1.06-.149.09a41.644 41.644 0 0 0 .357 71.089c46.711 29 99.572 37.283 128.1 39.627-68.587-11.807-88.386-34.744-91.39-54.3-2.6-16.91 7.3-33.282 23.2-39.595l83.553-14.155 77.044 6.657 34.6 8.4 11.579 12.11c-11.653-34.299 15.386-36.707 15.569-36.723z"/><path d="m60.713 98.7v264.793s5.682 13.4 29.575 27.76a106.129 106.129 0 0 1 -8.322-39.868v-153.194c0-57.019 33.779-47.827 33.779-47.827v-.01c-27.907-16.798-47.804-35.698-55.032-51.654z"/></g></svg>