<svg id="FLAT" height="512" viewBox="0 0 500 500" width="512" xmlns="http://www.w3.org/2000/svg"><circle cx="373.641" cy="124.768" fill="#d14343" r="65.912"/><path d="m334.769 391.4s-44.569 96.648 69.786 96.648 56.884-143.562 32.84-174.057c0 0 .586 31.668-18.766 34.6s-32.254-28.149-14.074-79.755c0 0-44.569 12.315-44.569 64.508 0 20.437 4.025 35.2 10.7 49.552 2.783 5.982 5.657 14.036 4.374 20.507-1.189 6-4.289 11.977-11.766 13.085-15.835 2.342-25.246-6.688-28.525-25.088z" fill="#ffa757"/><path d="m412.07 457.774s-27.837.926-18.734-24.218c5.433-15.007 11.423-24.217 10.51-43.408a44.528 44.528 0 0 1 29.243 35.641c3.655 23.303-7.311 31.071-21.019 31.985z" fill="#fff"/><path d="m13.547 360.17v-189.061l105.377-41.482 21.37 10.471-105.377 230.543z" fill="#5c73b4"/><path d="m140.294 329.159-105.377 41.482v-22.963c1.529-4.741 1.755-9.389 0-13.895v-47.126c1.563-13.088 2.121-25.239 0-34.893v-70.183l105.377-41.481v28.083c-2.9 12.6-2.143 23.974 0 34.893v47.124a21.637 21.637 0 0 0 0 13.9z" fill="#94aadf"/><path d="m146.591 55.4 12.185 12.613a27.545 27.545 0 0 1 3.406 33.958l-9.582 15.02a1.142 1.142 0 0 0 1.634 1.537l14.451-10.528a27.544 27.544 0 0 1 31.146-.878l15.824 10.209a1.142 1.142 0 0 0 1.58-1.575l-11.671-18.23a27.548 27.548 0 0 1 .176-29.974l24.307-37a1.141 1.141 0 0 0 -1.72-1.473l-30.58 27.671a27.543 27.543 0 0 1 -28.577 5.2l-21.339-8.407a1.142 1.142 0 0 0 -1.24 1.857z" fill="#94aadf"/><g fill="#d14343"><path d="m373.64 32.969a5.5 5.5 0 0 1 -5.5-5.5v-10.013a5.5 5.5 0 0 1 11 0v10.013a5.5 5.5 0 0 1 -5.5 5.5z"/><path d="m373.64 237.58a5.5 5.5 0 0 1 -5.5-5.5v-10.013a5.5 5.5 0 0 1 11 0v10.013a5.5 5.5 0 0 1 -5.5 5.5z"/><path d="m480.953 130.267h-10.013a5.5 5.5 0 0 1 0-11h10.013a5.5 5.5 0 0 1 0 11z"/><path d="m276.342 130.267h-10.013a5.5 5.5 0 0 1 0-11h10.013a5.5 5.5 0 0 1 0 11z"/><path d="m442.441 61.467a5.5 5.5 0 0 1 -3.889-9.389l7.081-7.078a5.5 5.5 0 1 1 7.777 7.777l-7.08 7.08a5.479 5.479 0 0 1 -3.889 1.61z"/><path d="m297.759 206.149a5.5 5.5 0 0 1 -3.888-9.388l7.08-7.08a5.5 5.5 0 1 1 7.777 7.777l-7.08 7.08a5.48 5.48 0 0 1 -3.889 1.611z"/><path d="m449.521 206.149a5.48 5.48 0 0 1 -3.888-1.611l-7.081-7.08a5.5 5.5 0 0 1 7.778-7.777l7.08 7.08a5.5 5.5 0 0 1 -3.889 9.388z"/><path d="m304.84 61.467a5.477 5.477 0 0 1 -3.889-1.612l-7.08-7.08a5.5 5.5 0 0 1 7.777-7.775l7.08 7.08a5.5 5.5 0 0 1 -3.888 9.389z"/></g><path d="m34.917 286.657 105.377-83.583v-34.893l-105.377 83.583z" fill="#fff"/><path d="m34.917 347.678 105.377-83.583v-13.896l-105.377 83.584z" fill="#fff"/><path d="m294.851 374.111a5.5 5.5 0 0 0 -6.324 4.528l-1.315 7.943-109.733-127.8 78.133-75.922a5.5 5.5 0 0 0 -7.666-7.888l-81.846 79.528a5.5 5.5 0 0 0 -.34 7.527l113.578 132.273-8.343.516a5.5 5.5 0 0 0 .335 10.99c.114 0 .229 0 .345-.011l19.379-1.2a5.5 5.5 0 0 0 5.086-4.595l3.239-19.567a5.5 5.5 0 0 0 -4.528-6.322z" fill="#d14343"/></svg>