<svg id="flat" height="512" viewBox="0 0 340 340" width="512" xmlns="http://www.w3.org/2000/svg"><path d="m254.679 254.199h106.088v15.212h-106.088z" fill="#893f3f" transform="matrix(0 1 -1 0 569.528 -45.919)"/><path d="m172.998 254.199h106.088v15.212h-106.088z" fill="#893f3f" transform="matrix(0 1 -1 0 487.846 35.762)"/><path d="m71.91 55.972s-25.643-3.7-41.423 20.958c0 0-8.876 15.78-6.41 33.286 0 0-15.534 10.6-14.548 30.328s15.534 26.136 15.534 26.136-4.932 36.491 49.066 31.067c0 0 26.136 33.779 75.2 4.685 0 0 29.588 5.917 40.19-18.246 0 0 35.752-6.164 24.164-54.984 0 0 7.4-29.588-20.219-44.628 0 0-1.972-36.245-40.683-36.245 0 0-3.708-23.177-41.191-23.177-30.86 0-39.68 30.82-39.68 30.82z" fill="#f29251"/><g fill="#cc4729"><path d="m166.812 68.011s8.332-19.923 34.413-13.041c0 0-5.615 26.807-34.413 13.041z"/><path d="m289.975 41.386s-5.8 19.743 24.814 24.09c0 0 2.355-25.176-24.814-24.09z"/><path d="m268.784 140.46s-9.962 22.278 21.554 25c0-.005 2.716-25.724-21.554-25z"/><path d="m53.243 223.878s-5.046 24.386 22.7 25.648c.005 0 1.266-32.165-22.7-25.648z"/><path d="m156.255 279.168s-3.153 25.017 23.967 24.387c0 0 1.894-27.35-23.967-24.387z"/></g><path d="m203.249 200.975h127.267v18.269h-127.267z" fill="#c4766e"/><path d="m203.249 235.045h127.267v18.269h-127.267z" fill="#c4766e"/><path d="m203.249 269.115h127.267v15.212h-127.267z" fill="#c4766e"/><circle cx="238.812" cy="68.315" fill="#f29251" r="4.173"/><circle cx="314.033" cy="118.554" fill="#f29251" r="4.173"/><circle cx="176.078" cy="244.179" fill="#f29251" r="4.173"/><circle cx="60.247" cy="280.895" fill="#f29251" r="4.173"/><path d="m87.088 102.566a2.993 2.993 0 0 0 3.349-2.6c.7-5.625 5.587-9.368 5.626-9.4a3.122 3.122 0 0 0 .265-.22c11.59-10.85 7.158-25.182 6.963-25.787a3 3 0 0 0 -5.716 1.825c.144.458 3.394 11.291-5.247 19.487-1.083.851-6.894 5.74-7.845 13.349a3 3 0 0 0 2.605 3.346z" fill="#843331"/><path d="m144.01 118.1c28.416-5.258 36.065-22.545 36.377-23.278a3 3 0 0 0 -5.515-2.364c-.255.581-6.2 13.55-27.994 18.887a43.609 43.609 0 0 0 10-24.14 3 3 0 0 0 -6-.224 38.473 38.473 0 0 1 -16.873 28.085 38.868 38.868 0 0 0 -15.927 20.543c-4.979-22.886-28.114-25.165-34.132-25.369-8.955-10.1-7.811-25.77-7.791-26.016a3 3 0 0 0 -5.979-.507c-.059.7-1.191 15.368 6.655 27.1-8.758.548-15.345-1.065-19.208-4.76a14.261 14.261 0 0 1 -4.123-10.985 3 3 0 0 0 -5.965-.655c-.042.376-.956 9.3 5.864 15.9 6.051 5.856 15.968 7.843 29.484 5.9 2.444-.066 28.406 0 30.069 25.942a3 3 0 0 0 2.991 2.808q.1 0 .2-.006c.1-.007.19-.032.285-.048a40.529 40.529 0 0 0 .055 5.081 3 3 0 0 0 2.989 2.776c.075 0 .151 0 .227-.009a3 3 0 0 0 2.768-3.214 31.644 31.644 0 0 1 11.86-27.348c.038-.025.079-.043.116-.07a23.448 23.448 0 0 1 9.567-4.029z" fill="#843331"/><path d="m186.3 152.018a3.005 3.005 0 0 0 -3.81 1.855c-.289.829-7.414 20.261-35.526 15.972a3 3 0 1 0 -.9 5.932 57.124 57.124 0 0 0 8.621.683c26.154 0 33.409-20.421 33.486-20.649a2.993 2.993 0 0 0 -1.871-3.793z" fill="#843331"/><path d="m74.3 163.01c-9.991 2.978-17.985 2.576-23.756-1.194-7.808-5.1-9.132-14.936-9.15-15.084a3 3 0 0 0 -5.958.71c.06.515 1.6 12.67 11.763 19.356a26.785 26.785 0 0 0 15.042 4.183 48.524 48.524 0 0 0 13.773-2.221 3 3 0 1 0 -1.714-5.75z" fill="#843331"/><path d="m89.16 163.413c-8.707-5.987-2.509-16.992-2.2-17.533a20.739 20.739 0 0 0 .741-18.646 3 3 0 0 0 -5.321 2.766 14.6 14.6 0 0 1 -.647 12.933c-3.264 5.59-6.622 18.1 4.028 25.419a3 3 0 1 0 3.4-4.943z" fill="#843331"/><path d="m98.3 314.848s9.486-22.123 10.3-105.126a35.726 35.726 0 0 0 -11.11-26.437 48.514 48.514 0 0 0 -16.445-10.257s-17.766-6.1-21.919-27.361a2.116 2.116 0 0 1 3.818-1.593c4.286 6.181 11.694 14.066 22.932 17.221 0 0 18.98 4.486 24.846 17.944 0 0-.258-46.585 4.827-78.568a2.119 2.119 0 0 1 4.2.119c1.856 18.573 4.883 52.134 5.121 75.689a34.838 34.838 0 0 1 16.565-12.079c8.259-2.839 15.747-11.083 19.141-20.112a2.115 2.115 0 0 1 4.069.521c1.067 9.566-.356 23.83-15.618 31.67a51.912 51.912 0 0 0 -5.6 3.471 35.84 35.84 0 0 0 -15.118 28.434c-.538 20.547-.793 68.31 6.574 106.464z" fill="#aa473c"/></svg>