<svg id="Flat" height="512" viewBox="0 0 340 340" width="512" xmlns="http://www.w3.org/2000/svg"><path d="m43.17 29.794-8.655 4.289a6.317 6.317 0 0 0 -2.868 8.439l14 28.589-10.73.964-6.343 3.367a4.76 4.76 0 0 0 -2.16 6.037l6.473 15.513a4.759 4.759 0 0 0 6.337 2.508l7.435-3.326 7.826-4.523 21.55 44.654 15.747-12.466z" fill="#96aef4"/><path d="m111.2 61.263-7.125-16.784a4.311 4.311 0 0 0 -5.8-2.216l-16.2 7.625-12.156-26.5a6.4 6.4 0 0 0 -8.786-3l-17.953 9.4a6.4 6.4 0 0 0 -2.8 8.432l12.207 25.54-17.669 8.315a4.31 4.31 0 0 0 -2.027 5.812l8.072 16.3a4.311 4.311 0 0 0 5.7 1.989l17.502-8.226 10.181 21.273 12.418 18.245 26.054-10.549-19.564-42.642 15.808-7.429a4.309 4.309 0 0 0 2.138-5.585z" fill="#d2e8ff"/><path d="m84.592 130.632 28.226-13.713-9.441-20.578-29.031 12.882z" fill="#96aef4"/><path d="m153.235 117.664 96.709-.745 56.323 47.995v22.803h-151.419z" fill="#75212c"/><path d="m305.126 75.616 12.441 6.508c12.361 6.467 15.253 23.3 5.222 32.993-3.452 3.337-8.32 5.824-15.173 6.458a5.413 5.413 0 0 1 -5.352-3.072 5.439 5.439 0 0 1 3.305-7.552 17.637 17.637 0 0 0 6.28-3.395c5.78-4.95 2.472-11.65-4.694-14.8-3.1-1.361-7.591-1.847-12.565-1.847z" fill="#e87b40"/><path d="m241.355 42.255-12.3-6.433a23.983 23.983 0 0 0 -31.264 7.989 37.031 37.031 0 0 0 -2.391 4.289 21 21 0 0 0 2.841 22.7q.36.414.752.83a5.93 5.93 0 0 0 8.531-.014 5.969 5.969 0 0 0 .81-7.293c-2.029-3.314-4-8.311-1.165-12.564 4.724-7.087 18.142-8.773 24.192 7.969z" fill="#ffb664"/><path d="m241.355 42.255 63.771 33.361s-12.624 26.058-22.2 33.24c-5.225 3.919-12.46 3.885-17.955 3.046a11.566 11.566 0 0 0 -12.076 6.213l-15.895 31.441-13.277-4.082 14.077-31.918a11.665 11.665 0 0 0 -2.879-13.3c-8.563-7.871-19.469-26.036 6.434-58.001z" fill="#ffb664"/><ellipse cx="259.812" cy="81.276" fill="#7dd3b0" rx="10.598" ry="7.902" transform="matrix(.452 -.892 .892 .452 69.889 276.307)"/><ellipse cx="258.598" cy="76.925" fill="#fff" rx="3.324" ry="2.479" transform="matrix(.608 -.794 .794 .608 40.232 235.376)"/><path d="m266.861 84.847a12.01 12.01 0 0 0 .963-9.111c-1.377 3.695-4.037 8.127-9 9.091-4.082.793-6.274-.689-7.453-2.51-.409 3.681.894 7.016 3.651 8.413 3.894 1.97 9.194-.661 11.839-5.883z" fill="#4ca57f"/><path d="m305.126 75.616-15.25-7.978s-.692 23.164-20.415 34a35.914 35.914 0 0 1 -26.265 3.248 28.2 28.2 0 0 1 -6.426-2.472 11.569 11.569 0 0 1 1.03 11.137l-14.075 31.918 13.275 4.087 15.9-31.441a11.56 11.56 0 0 1 12.066-6.215c5.5.841 12.736.878 17.965-3.044 9.569-7.182 22.195-33.24 22.195-33.24z" fill="#e87b40"/><path d="m168.347 133.289 53.807.171a7.168 7.168 0 0 1 7.345 7.166v4.39l20.94 1.514a7.168 7.168 0 0 1 6.652 7.15v5.956h12.522a7.168 7.168 0 0 1 7.168 7.168v17.541h-87.846z" fill="#ffb664"/><path d="m56.869 157.138-2.154-8.813a8 8 0 0 1 5.24-9.488l9.371-3.126-.644-3.811a8.848 8.848 0 0 1 6.492-10.034l52.219-16.689a5.412 5.412 0 0 1 6.5 3.508l3.2 9.5 17.755-1.268a5.413 5.413 0 0 1 5.791 5.111l.371 10.027 13.806.727a5.414 5.414 0 0 1 5.129 5.406v4.829l16.352 1.533a5.413 5.413 0 0 1 4.908 5.39v5.368l13.962.116a5.961 5.961 0 0 1 5.91 6.091l-.536 24.43-165.831-2.066z" fill="#e87b40"/><path d="m205.587 184.345h71.194v-14.066h-37.991v-1.592a13.261 13.261 0 0 0 -13.261-13.261h-10.362z" fill="#e87b40"/><path d="m34.768 177.159v-5.121a8.121 8.121 0 0 1 7.171-8.065l8.323-.979v-2.048a8.12 8.12 0 0 1 7.5-8.1l16.679-1.283v-3.575a9.062 9.062 0 0 1 8.248-9.025l14.711-1.323a7.86 7.86 0 0 1 8.335 5.935 11.744 11.744 0 0 0 .609 6.757l20.831-4.912a9.062 9.062 0 0 1 9.639 7.459c-.155 1.368.424 3.462.97 5.523l18.281-4.651c4.5-1.433 7.891 1.683 8.2 6.138l1.6 23.293z" fill="#ffb664"/><path d="m170.962 177.159h-136.194l20.393 130.023 115.8 1.992h104.02a13.545 13.545 0 0 0 13.284-11.574l18.89-120.443z" fill="#bc5e66"/><path d="m143.165 223.814h77.391l4.202-46.655h-43.845-41.951z" fill="#75212c"/><path d="m303.085 203.109c-1.446 5.3-5.532 14.106-5.234 19.232.194 3.317-10.386 14.343-10.017 20.675.149 2.559-24.173 25.233-45.26 20.551-1.48-.328-1.474-9.159-1.559-12.01a11.067 11.067 0 0 0 -3.208-7.594 3.737 3.737 0 0 1 .422-5.669 11.477 11.477 0 0 0 -2.911-19.935q-.017-1-.039-1.982a11.481 11.481 0 0 0 6.173-10.855c-.253-4.347-1.926-8.262-5.48-10.033a1.6 1.6 0 0 1 -.844-1.294v-.02a1.614 1.614 0 0 1 .718-1.512c3.291-2.116 4.524-5.744 4.272-10.075a11.438 11.438 0 0 0 -1.733-5.429h-19.459a11.47 11.47 0 0 0 7.034 17.264c.031.322.062.642.094.977a11.484 11.484 0 0 0 1.242 21.956c.007.33.012.668.018 1a11.486 11.486 0 0 0 -.8 21.195c-.034.439-.068.881-.1 1.323-4.891 1.33-8.246 6.656-9.248 11.858-1.39 7.22 1.434 18.9 6.194 22.991 12.545 10.795 24.271 7.259 28.946 3.89.817.2 1.653.385 2.514.541 8.844 11.538 25.214 2.427 23.4-6.555-.091-.451-.086-.907-.164-1.349.606-.418 1.228-.857 1.869-1.325a11.574 11.574 0 0 0 6.3 1.395 11.431 11.431 0 0 0 6.38-2.4z" fill="#75212c"/><path d="m305.248 177.159c.261 5.334-1.978 17.278-1.673 22.824l3.58-22.824z" fill="#75212c"/><path d="m248.934 294.3a11.951 11.951 0 0 1 -10.745-6.774 28.253 28.253 0 0 0 -22.246-16.009l-59.956-.527-32.465-29.3a8.518 8.518 0 0 0 -11.707.277l-13.573 13.464v-1.653a7.154 7.154 0 0 0 -7.154-7.154h-45.425l9.5 60.558 115.8 1.992h104.018a13.545 13.545 0 0 0 13.284-11.574l.518-3.307z" fill="#75212c"/><path d="m285.737 188.321c0 7.264 6.444 10.655 6.444 10.655s-12.549 5.327-7.123 18.943h15.665l6.432-41.01h-15.5a13.329 13.329 0 0 0 -5.918 11.412z" fill="#75212c"/><path d="m42.494 226.419h256.935l1.923-12.263h-260.781z" fill="#75212c"/><path d="m49.89 273.572h242.143l1.924-12.263h-245.991z" fill="#75212c"/><path d="m205.587 222.085s-.636 14.469 14.286 15.172l.885-16.969z" fill="#75212c"/><path d="m37.7 289.308v-12.79a7.674 7.674 0 0 1 7.674-7.674h7.676v-8.744a7.248 7.248 0 0 1 7.248-7.248h24.728a7.248 7.248 0 0 1 7.248 7.248v5.542h24.407a9.06 9.06 0 0 1 9.06 9.06v5.649h22.6a10.445 10.445 0 0 1 10.441 10.449v38.169h-79.461s-35.863-6.62-41.621-39.661z" fill="#e87b40"/><path d="m254.527 269.622c-28.234 0-37.443-24.853-37.537-25.114l-.293-.822.075-.869c.5-5.809 1.663-21.161 1.776-22.654a287.14 287.14 0 0 0 -2.625-45.047l7.9-1.272a289.538 289.538 0 0 1 2.723 46.572l-.011.231c-.012.159-1.144 15.184-1.71 21.909 1.631 3.781 10.049 20.209 31.989 19 4.151-2.013 29.986-15.75 39.888-49.779l.174-.479c.1-.226 9.857-23.09 5.3-42.781l7.8-1.8c4.945 21.38-4.478 44.733-5.659 47.531-11.883 40.464-43.587 54.363-44.933 54.935l-.615.262-.667.048c-1.224.087-2.418.129-3.575.129z" fill="#96aef4"/><path d="m190.737 300.156a20.1 20.1 0 0 1 39.454-4.606c-1.352 11.643-8.71 16.985-18.1 20.194z" fill="#ffb664"/><circle cx="221.209" cy="197.414" fill="#96aef4" r="11.486"/><path d="m210.82 321.02a20.043 20.043 0 0 0 19.35-25.464c-5.358 13.086-16.345 14.481-19.815 14.583a18.652 18.652 0 0 0 -16.54-9.982h-3.054c-.01.256-.038.507-.038.765a20.1 20.1 0 0 0 20.097 20.098z" fill="#e87b40"/><path d="m33.3 287.346h28.5a7.73 7.73 0 0 1 7.73 7.73 7.73 7.73 0 0 1 -7.73 7.73h-3.607v11.1h21.128a6.621 6.621 0 0 1 6.621 6.621v1.822a6.621 6.621 0 0 1 -6.621 6.621h-30.579a6.8 6.8 0 0 1 -6.8-6.8v-1.523h-25.85a7.449 7.449 0 0 1 -7.45-7.45v-3.067a7.45 7.45 0 0 1 7.428-7.45l8.54-.026-.077-6.435a8.768 8.768 0 0 1 8.767-8.873z" fill="#ffb664"/><path d="m150 292.738h16.61a8.922 8.922 0 0 1 8.9 8.35l.454 7.069h17.848c5.079 0 10.3 4.063 10.3 9.142v2.474a9.2 9.2 0 0 1 -9.2 9.2h-57.812a9.493 9.493 0 0 1 -9.493-9.493 9.494 9.494 0 0 1 9.493-9.494h3.787l.2-8.527a8.921 8.921 0 0 1 8.913-8.721z" fill="#ffb664"/><rect fill="#ffb664" height="14.654" rx="7.327" width="41.77" x="82.615" y="290.912"/><rect fill="#ffb664" height="43.443" rx="5.488" transform="matrix(.707 -.707 .707 .707 -153.087 167.44)" width="17.606" x="116.772" y="246.791"/><circle cx="219.873" cy="174.48" fill="#96aef4" r="11.486"/><circle cx="222.546" cy="220.347" fill="#96aef4" r="11.486"/><path d="m232.239 242.78a11.486 11.486 0 1 1 -11.584-11.059c6.418.16 11.395 4.719 11.584 11.059z" fill="#96aef4"/><circle cx="234.981" cy="261.3" fill="#96aef4" r="11.625"/><circle cx="257.815" cy="265.502" fill="#96aef4" r="11.647"/><circle cx="276.781" cy="252.079" fill="#96aef4" r="11.486"/><circle cx="290.525" cy="233.572" fill="#96aef4" r="11.486"/><circle cx="300.542" cy="212.897" fill="#96aef4" r="11.486"/><circle cx="306.267" cy="190.593" fill="#96aef4" r="11.486"/><path d="m317.543 166.924a11.723 11.723 0 0 1 -11.035 12.185c-6.607.385-11.529-4.515-11.9-10.848a11.486 11.486 0 0 1 22.934-1.337z" fill="#96aef4"/><g fill="#d2e8ff"><path d="m313.348 162.639a9.769 9.769 0 0 0 -1.834-5.151 11.459 11.459 0 0 0 -16.911 9.9 9.347 9.347 0 0 0 9.313 5.669 10.02 10.02 0 0 0 9.432-10.418z"/><path d="m305.6 179.126a11.486 11.486 0 0 0 -10.8 12.135c.019.31.057.614.1.916a9.326 9.326 0 0 0 8.557 4.266 10.02 10.02 0 0 0 9.431-10.415 9.766 9.766 0 0 0 -2.754-6.254 11.435 11.435 0 0 0 -4.534-.648z"/><path d="m299.873 201.43a11.476 11.476 0 0 0 -10.8 11.443 9.35 9.35 0 0 0 9.385 5.849 10.019 10.019 0 0 0 9.432-10.415 9.761 9.761 0 0 0 -2.264-5.7 11.431 11.431 0 0 0 -5.753-1.177z"/><path d="m289.856 222.105a11.486 11.486 0 0 0 -10.8 12.135 11.929 11.929 0 0 0 .557 2.948 9.364 9.364 0 0 0 7.354 2.761 10.02 10.02 0 0 0 9.432-10.415 9.793 9.793 0 0 0 -3.9-7.268 11.48 11.48 0 0 0 -2.643-.161z"/><path d="m276.113 240.613a11.476 11.476 0 0 0 -10.8 11.637 9.353 9.353 0 0 0 9.431 5.962 10.02 10.02 0 0 0 9.432-10.415 9.776 9.776 0 0 0 -2.691-6.192 11.427 11.427 0 0 0 -5.372-.992z"/><path d="m266.226 259.641a9.825 9.825 0 0 0 -.561-2.735 11.632 11.632 0 0 0 -18.915 4.987 9.456 9.456 0 0 0 10.044 8.163 10.02 10.02 0 0 0 9.432-10.415z"/><path d="m245.294 256.229c-.007-.118-.027-.232-.038-.349a11.607 11.607 0 0 0 -19.079-2.159 9.756 9.756 0 0 0 -.485 3.651 9.526 9.526 0 0 0 10.17 9.272 10.02 10.02 0 0 0 9.432-10.415z"/><path d="m227.528 233.926a12.423 12.423 0 0 0 -6.873-2.2 11.343 11.343 0 0 0 -11.168 9.258 9.431 9.431 0 0 0 9.972 7.8 10.021 10.021 0 0 0 9.432-10.415 9.768 9.768 0 0 0 -1.363-4.443z"/><path d="m221.878 208.88a11.488 11.488 0 0 0 -10.8 12.136c0 .044.012.087.015.132a9.339 9.339 0 0 0 9.148 5.312 10.02 10.02 0 0 0 9.432-10.415 9.766 9.766 0 0 0 -2.848-6.345 11.435 11.435 0 0 0 -4.947-.82z"/><path d="m220.541 185.947a11.483 11.483 0 0 0 -9.683 16.441 9.489 9.489 0 0 0 5.99 1.618 10.02 10.02 0 0 0 9.432-10.415 9.794 9.794 0 0 0 -4.442-7.642 11.687 11.687 0 0 0 -1.297-.002z"/><path d="m219.2 163.014a11.428 11.428 0 0 0 -10.5 14.076 9.359 9.359 0 0 0 7.595 3.011 10.02 10.02 0 0 0 9.432-10.415 9.776 9.776 0 0 0 -2.759-6.259 11.474 11.474 0 0 0 -3.768-.413z"/><path d="m179.622 216.638h-17.322a11.978 11.978 0 0 1 -11.934-10.949l-2.224-25.789a8.859 8.859 0 0 1 8.826-9.621h27.987a8.859 8.859 0 0 1 8.826 9.621l-2.225 25.789a11.977 11.977 0 0 1 -11.934 10.949z"/></g><path d="m24.571 98.6c-.072 6.859-1.39 19.275-9.433 25.231a1.008 1.008 0 0 0 .338 1.793 32.767 32.767 0 0 1 20.914 17.164 1.012 1.012 0 0 0 1.91-.488c-.138-7.02 1.247-17.69 9.618-24.68a1.009 1.009 0 0 0 -.446-1.754c-4.352-.926-13.926-4.439-21-17.725a1.012 1.012 0 0 0 -1.901.459z" fill="#ffd88f"/><path d="m147.481 18.288c-1.449 6.7-5.235 18.6-14.312 22.819a1.009 1.009 0 0 0 -.029 1.825 32.765 32.765 0 0 1 17.036 21.021 1.012 1.012 0 0 0 1.973-.091c1.275-6.9 4.777-17.078 14.382-22.243a1.009 1.009 0 0 0 -.085-1.808c-4.078-1.783-12.749-7.149-17.006-21.584a1.012 1.012 0 0 0 -1.959.061z" fill="#ffb664"/><path d="m315.413 11.7c-2.194 6.2-7.171 16.861-16.169 19.81a1.011 1.011 0 0 0 -.252 1.809 31.381 31.381 0 0 1 13.594 21.766 1.011 1.011 0 0 0 1.961.174c2.049-6.386 6.569-15.49 16.178-19.249a1.008 1.008 0 0 0 .141-1.8c-3.677-2.206-11.154-8.308-13.5-22.324a1.011 1.011 0 0 0 -1.953-.186z" fill="#ffd88f"/><path d="m170.962 200.336a4.5 4.5 0 0 1 -4.5-4.5v-6.2a4.5 4.5 0 0 1 9 0v6.2a4.5 4.5 0 0 1 -4.5 4.5z" fill="#96aef4"/><path d="m88.879 161.181a3.225 3.225 0 0 0 6.445-.1l.02-.96a7.628 7.628 0 0 1 5.792-8.56l5.206-1.227-.4-5.442a7.943 7.943 0 0 0 -.217-1.313l-8.5 1.726a10.755 10.755 0 0 0 -8.6 11.1z" fill="#e87b40"/><path d="m238.416 60.224 2.6.787a1.152 1.152 0 0 1 .666 1.683 36.108 36.108 0 0 0 -4.731 20.561 1.4 1.4 0 0 1 -1.339 1.508l-2.451.1a2.171 2.171 0 0 1 -2.246-1.835c-.548-3.661-.789-12.193 5.934-22.255a1.4 1.4 0 0 1 1.567-.549z" fill="#fff"/><path d="m241.678 56.709 2.3.813a.909.909 0 0 0 1.048-.337l1.694-2.43a.908.908 0 0 0 -.4-1.357l-2.281-.95a.907.907 0 0 0 -1.1.334l-1.712 2.568a.908.908 0 0 0 .451 1.359z" fill="#fff"/><path d="m157.376 308.157h18.591l-.429-6.67h-18.162a3.335 3.335 0 0 0 0 6.67z" fill="#e87b40"/><path d="m49.819 299.6a3.058 3.058 0 0 0 -3.058-3.058h-22.224l.073 6.116h22.151a3.058 3.058 0 0 0 3.058-3.058z" fill="#e87b40"/><path d="m117.975 168.6a2.968 2.968 0 0 0 3.731 2.351 2.967 2.967 0 0 0 2.147-3.151l-.123-1.237a5.345 5.345 0 0 1 4.052-5.724l10-2.44-.94-5.341c-.01-.062-.026-.12-.037-.181l-12.972 3.074a8.444 8.444 0 0 0 -6.375 9.654z" fill="#e87b40"/><path d="m201.205 155.31h-11.434a.91.91 0 0 1 -.334-1.756l14.439-5.7z" fill="#ffb664"/><path d="m47.4 41.34 3.3 6.615a2.122 2.122 0 0 0 3.911-.277l5.329-15.978a2.122 2.122 0 0 0 -2.992-2.553l-6.729 3.5a6.514 6.514 0 0 0 -2.819 8.693z" fill="#fff"/></svg>