<svg id="icon" height="512" viewBox="0 0 340 340" width="512" xmlns="http://www.w3.org/2000/svg"><path d="m218.037 30.13v13.343a6.636 6.636 0 0 1 -6.637 6.637h-6.649a6.636 6.636 0 0 1 -6.636-6.637v-13.343h-19.921v13.343a6.636 6.636 0 0 1 -6.636 6.637h-6.65a6.636 6.636 0 0 1 -6.636-6.637v-13.343h-19.921v27.078a18.215 18.215 0 0 0 3.985 11.372l5.327 6.667a18.207 18.207 0 0 1 3.986 11.371v101.537h73.112v-101.537a18.117 18.117 0 0 1 3.885-11.371l5.328-6.667a18.215 18.215 0 0 0 3.985-11.372v-27.078z" fill="#342a35"/><path d="m198.448 116.156h-20.587v-22.356a10.293 10.293 0 0 1 10.294-10.293 10.293 10.293 0 0 1 10.293 10.293z" fill="#fff"/><path d="m86.312 53.836v16.608a6.355 6.355 0 0 1 -6.355 6.356h-6.368a6.355 6.355 0 0 1 -6.355-6.355v-16.609h-19.078v16.608a6.355 6.355 0 0 1 -6.356 6.356h-6.367a6.355 6.355 0 0 1 -6.355-6.355v-16.609h-19.078v25.931a17.443 17.443 0 0 0 3.817 10.89l5.1 6.384a17.443 17.443 0 0 1 3.817 10.89v62.343h69.92v-62.343a17.443 17.443 0 0 1 3.817-10.89l5.1-6.384a17.443 17.443 0 0 0 3.817-10.89v-25.931z" fill="#342a35"/><path d="m194.546 136.84v26.409h-30.222v-26.409h-30.224v26.409h-30.218v-26.409h-30.221v26.409h-30.221v-26.409h-30.221v46.492a10.387 10.387 0 0 1 0 7v35.006c1.145 2.074.7 4.508 0 7v33.223c.913 1.972.6 4.429 0 7v37.309h22.776a14.778 14.778 0 0 1 7 0h146.135a8.311 8.311 0 0 1 7 0h17.157c5.134-51.454 4.038-110.459 0-173.03z" fill="#dce2f9"/><path d="m66.889 122.411h-18.389v-17.343a9.193 9.193 0 0 1 9.2-9.193 9.194 9.194 0 0 1 9.194 9.193z" fill="#fff"/><path d="m216.17 265.561h-33.663v-33.223h34.218c0-2.327 0-4.656-.019-7h-56.365v-35.006h55.628c-.079-2.33-.155-4.656-.246-7h-202.504v7h22.776v35.006h-22.776v7h45.581v22.88a3.5 3.5 0 1 0 7 0v-22.88h109.7v33.223h-22.387a3.5 3.5 0 0 0 0 7h36.017v37.309h7v-37.309h19.77q.149-3.48.27-7zm-62.829-40.223h-110.341v-35.006h43.14v20.958a3.5 3.5 0 0 0 7 0v-20.958h60.206z" fill="#7784b2"/><path d="m13.219 272.561h22.776v37.309h7v-37.309h45.4a3.5 3.5 0 0 0 0-7h-75.176z" fill="#7784b2"/><path d="m213.287 309.87h11.48l4.662-173.03h-16.142z" fill="#7784b2"/><path d="m319.936 309.87h-26.454c-2.109-1.154-4.466-1.036-7 0h-28.262a10.078 10.078 0 0 0 -7 0h-26.453v-36.316a8.084 8.084 0 0 0 0-7v-70.727c.768-1.824.55-4.3 0-7v-31.812a10.63 10.63 0 0 0 0-7v-23.252a356.6 356.6 0 0 1 95.169 0v23.252a8.573 8.573 0 0 0 0 7v31.812c-1.083 2.02-.909 4.4 0 7v34.226a11.348 11.348 0 0 0 0 7v29.5c-1.167 1.859-1 4.261 0 7z" fill="#dce2f9"/><g fill="#7784b2"><path d="m224.767 157.015h95.169v-7h-66.8v-25.906q-3.493.189-7 .45v25.456h-21.369z"/><path d="m292.341 124.143v15.393a3.5 3.5 0 0 0 7 0v-14.927q-3.494-.267-7-.466z"/><path d="m319.936 266.554h-44.084v-29.5h44.084v-7h-19.5v-34.227h19.5v-7h-95.169v7h68.669v34.226h-35.216v-19.433a3.5 3.5 0 0 0 -7 0v19.433h-11.1a3.5 3.5 0 0 0 0 7h28.733v29.5h-44.086v7h26.453v36.317h7v-36.316h28.262v36.316h7v-36.316h26.454z"/><path d="m224.767 112.711h95.169v14.052h-95.169z"/></g><path d="m306.94 75.429v17.335h-23.059v-17.335h-23.059v17.335h-23.06v-17.335h-23.062v27.445a9.837 9.837 0 0 0 9.836 9.837h95.624a9.837 9.837 0 0 0 9.84-9.837v-27.445z" fill="#dce2f9"/><path d="m119.48 225.338a41.013 41.013 0 0 1 41.013 41.013v43.519a0 0 0 0 1 0 0h-82.026a0 0 0 0 1 0 0v-43.519a41.013 41.013 0 0 1 41.013-41.013z" fill="#d07a76"/><path d="m115.98 309.87h7v-84.37c-1.154-.1-2.319-.159-3.5-.159-1.18 0-2.345.061-3.5.159z" fill="#7f4242"/><path d="m95.126 309.87h7v-80.681a40.982 40.982 0 0 0 -7 4.165z" fill="#7f4242"/><path d="m137 309.87h7v-76.4a41.014 41.014 0 0 0 -7-4.208z" fill="#7f4242"/><path d="m272.351 144.72a13.2 13.2 0 0 1 13.2 13.2v37.9a0 0 0 0 1 0 0h-26.403a0 0 0 0 1 0 0v-37.9a13.2 13.2 0 0 1 13.203-13.2z" fill="#342a35"/></svg>