<svg id="Flat" height="512" viewBox="0 0 340 340" width="512" xmlns="http://www.w3.org/2000/svg"><path d="m23.6 89.092s-25.347 22.377-5.811 47.268a29.314 29.314 0 0 1 6.253 18.24l13.258 27.739c46.005 3.488 96.54 1.368 149.948-4.308l17.079-21.537s38.268-15.8 8.147-58.761c0 0 16.048-21.726-.494-43.453-8.254-10.842-17.484-14.122-24.66-14.687a29.417 29.417 0 0 1 -19.614-10.15 34.071 34.071 0 0 0 -26.337-11.95c-25.183 0-38.269 13.332-38.269 13.332s-12.35-14.32-33.95-4.691a29.065 29.065 0 0 0 -11.29 9.484 29.379 29.379 0 0 1 -16.33 11.858c-5.549 1.487-11.791 4.173-15.95 9.026-11.851 13.826-1.98 32.59-1.98 32.59z" fill="#80a2a5"/><path d="m163.488 153c-5.722 9.115-11.6 17.9-21.355 18.649-25.108 9.983-36.377 2.157-43.927-1.165a41.8 41.8 0 0 0 -22.07-3.124c-30.044 3.794-44.962-5.06-52.095-12.759-.006.971-.057 1.945-.16 2.919-.97 9.181.122 21.173 10.34 27.612 18.023 11.357 29.133 2.962 29.133 2.962s6.913 27.653 53.329 27.653c26.11 0 39.173-8.2 45.606-15.381a29.8 29.8 0 0 1 18.141-9.9c10.056-1.337 22.862-8.163 23.9-33.977-31.456 14.69-40.842-3.489-40.842-3.489z" fill="#5c797c"/><path d="m245.867 170.179h22.587v144.885h-22.587z" fill="#915362" transform="matrix(0 1 -1 0 499.782 -14.538)"/><path d="m245.867 216.03h22.587v144.885h-22.587z" fill="#915362" transform="matrix(0 1 -1 0 545.633 31.313)"/><path d="m200.016 214.235h22.587v108.273h-22.587z" fill="#e59b9d"/><path d="m245.867 214.235h22.587v108.273h-22.587z" fill="#e59b9d"/><path d="m291.718 214.235h22.587v108.273h-22.587z" fill="#e59b9d"/><path d="m114.729 193.976a3.5 3.5 0 0 1 -3.5-3.5c0-1.379-.45-13.557-16.047-16.388-22.754-4.13-25.333-20.08-25.432-20.757a3.5 3.5 0 0 1 6.923-1.04c.093.55 2.225 11.727 19.759 14.909 17.206 3.124 21.8 16.1 21.8 23.276a3.5 3.5 0 0 1 -3.503 3.5z" fill="#474756"/><path d="m100.407 134.794a3.486 3.486 0 0 1 -2.327-.887c-.042-.033-8.86-7.112-36.422-7.112-.021 0-.045 0-.069 0-20.671 0-25.1-14.759-25.283-15.388a3.5 3.5 0 0 1 6.726-1.943c.151.489 3.405 10.331 18.557 10.331h.07c30.231 0 40.056 7.975 41.078 8.885a3.5 3.5 0 0 1 -2.33 6.114z" fill="#474756"/><path d="m37.307 100.126a3.5 3.5 0 0 1 -3.5-3.4c-.023-.788 0-1.232 0-1.232a3.5 3.5 0 0 1 6.994.3c0 .056-.008.311 0 .723a3.5 3.5 0 0 1 -3.394 3.6z" fill="#474756"/><path d="m126.351 108.892a3.554 3.554 0 0 1 -.6-.052c-14.259-2.482-16.951-15.64-16.381-22.252a3.5 3.5 0 0 1 6.976.589c-.1 1.322-.652 12.807 10.6 14.767a3.5 3.5 0 0 1 -.6 6.948z" fill="#474756"/><path d="m147.8 111.845a3.5 3.5 0 0 1 0-7c22.138 0 33.623-24.265 33.736-24.51a3.5 3.5 0 0 1 6.364 2.925c-.537 1.167-13.43 28.585-40.1 28.585z" fill="#474756"/><g fill="#915362"><circle cx="211.309" cy="242.622" r="4.023"/><circle cx="211.309" cy="288.473" r="4.023"/><circle cx="257.16" cy="242.622" r="4.023"/><circle cx="257.16" cy="288.473" r="4.023"/><circle cx="303.011" cy="242.622" r="4.023"/><circle cx="303.011" cy="288.473" r="4.023"/></g><path d="m126.177 178.9a3.5 3.5 0 0 1 -.22-6.993c30.448-1.944 35.488-25.066 35.687-26.049a3.5 3.5 0 0 1 6.868 1.351c-.057.294-6.13 29.387-42.109 31.683-.076 0-.152.008-.226.008z" fill="#474756"/><path d="m135.669 288.831a51.53 51.53 0 0 1 23.7-14.194l-7.441 20.382s6.47-2.75 15.691-.971c0 0-4.53 3.4-9.383 11.486 0 0 7.765-.971 14.236 7.441a52.936 52.936 0 0 1 -19.4 8.977 22.119 22.119 0 0 1 -5.019.555h-13.282z" fill="#82936e"/><path d="m71.318 76.591c-3.4 10.527-7.4 37.057 27.259 59.174a21.989 21.989 0 0 1 10.233 17.48c1.157 24.825 3.571 84.2 3.139 139.611l8.587 29.651h14.235s3.093-91.95-6.708-169.109a21.694 21.694 0 0 1 7.268-19.179c9.35-8.069 22.415-24.659 21.145-53.773a1.363 1.363 0 0 0 -2.615-.472c-4.175 9.923-14.53 30.331-31.991 39.188a21.561 21.561 0 0 1 -21.311-.96c-9.169-5.811-22.119-17.932-26.615-41.436a1.358 1.358 0 0 0 -2.626-.175z" fill="#995c6b"/><path d="m120.536 322.507s1.52-28.951-21.277-40.5c0 0 3.344 8.814.912 14.286 0 0-17.934-22.949-47.114-25.685 0 0 15.5 14.894 18.845 31.308 0 0-5.319-4.255-17.933-3.951 0 0 13.07 9.42 12.158 24.543z" fill="#c9d38c"/></svg>