<svg id="flat" height="512" viewBox="0 0 340 340" width="512" xmlns="http://www.w3.org/2000/svg"><path d="m287.756 105.353 14.722-2.7 2.281-9.953 10.16-4.354s1.866-9.331 1.659-14.308a65.532 65.532 0 0 1 11.333 12.839 14.6 14.6 0 0 1 .166 15.95 140.463 140.463 0 0 1 -22.4 27.323s-11.44 7.546-12.089 7.753-18.274-2.28-18.274-2.28z" fill="#aab1d6"/><path d="m296.625 118.487c.689-5.966 1.071-11.639 1.256-14.988l-10.125 1.854-12.441 30.274s18.094 2.338 18.274 2.28c.649-.207 12.089-7.753 12.089-7.753a131.192 131.192 0 0 0 15.257-17.022c-9.19 4.788-19.364 5.39-24.31 5.355z" fill="#485a75"/><path d="m290.162 40.942s10.094 8.582 15.516 17.27l-17.933 12.511s-1.595-12.823 2.417-29.781z" fill="#aab1d6"/><path d="m141.593 153.89s-9.311 6.15-20.289 13.321a46.665 46.665 0 0 1 -22.232 7.474 134.707 134.707 0 0 0 -23.158 3.5 3.342 3.342 0 0 0 -2.05 4.932 40.317 40.317 0 0 1 3.811 9.057s3.871 21.215 23.012 17.909 40.906-56.193 40.906-56.193z" fill="#485a75"/><path d="m137.994 280.89s7.5 11.789 6.195 25.812a3.338 3.338 0 0 0 5.047 3.195 55.035 55.035 0 0 0 26.227-39.752z" fill="#485a75"/><path d="m25.98 199.4s4.786-20.157 0-34.541c0 0 8.554 9.469 17.3 13.247 11.577 5 15.325 21.294 15.325 21.294s5.438 25.687 38.045 10.768l4.034 7.419s-55.123 40.513-74.704-18.187z" fill="#485a75"/><path d="m137.994 153.725s-19.082 23.975-33.064 46.543c-12.248 19.772-53.577 44.683-78.95-.866 0 0-15.284 51.357 47.383 76.73 0 0 112.481 44.652 188.454-78.248v-10.1s-48.493-38.161-123.823-34.059z" fill="#798eb7"/><path d="m285.343 36.69 4.819 4.252s-1.162 24.918-.562 49.144a132.1 132.1 0 0 1 -.955 19.541c-.342 2.751-.734 5.757-1.149 8.677a37.265 37.265 0 0 0 -1.658 10.06 46.448 46.448 0 0 0 8.957 1.67 30.615 30.615 0 0 0 10.885.12s-21.185 44.457-43.861 67.73c0 0-13.339-19.281-28.257-26.741 0 0-24.432-9.877-48-7.789 0 0-35.652 1.16-46.394-11.371a76.353 76.353 0 0 1 15.232-16.756s38.213-62.555 119.048-100.27a10.978 10.978 0 0 1 11.895 1.733z" fill="#aab1d6"/><g fill="#485a75"><path d="m79.317 115.639a160.376 160.376 0 0 1 -13.134-14.145 137.773 137.773 0 0 0 -12.913 19.72 2.055 2.055 0 0 1 -3.817-1.43 139.757 139.757 0 0 1 6.614-20.669 14.489 14.489 0 0 0 -1.1-13.2c-2.4-3.839-4.5-7.609-6.336-11.274a119.178 119.178 0 0 0 -6.544 15.508 2.057 2.057 0 0 1 -4-.818 94.009 94.009 0 0 1 4.123-21.104 14.019 14.019 0 0 0 -.13-8.97 112.862 112.862 0 0 1 -6.231-27.943 1.854 1.854 0 0 0 -3.346-.942c-16.254 21.84-21.612 47.128-22.71 67.874a119.16 119.16 0 0 0 12.862 59.934c2.008 3.975 3.325 6.681 3.325 6.681 10.877 24.118 32.628 34.539 32.628 34.539-9.182-30.832 9.944-57.179 21.208-69.379a10.255 10.255 0 0 0 -.499-14.382z"/><path d="m144.061 225.191c-34.117 37.363-83.321 31.8-105.042 27.658a69.825 69.825 0 0 0 7.771 7.7c12.689 4.1 32.179 6.337 59.676-.83 27.3-7.115 40.328-22.318 47.255-32.146 4.45-6.316-.759-12.131-9.66-2.382z"/><path d="m192.222 177.01a70.881 70.881 0 0 1 -10.973 15.2 2.967 2.967 0 0 1 -4.914-3.02 32.434 32.434 0 0 1 11.454-15.934 2.966 2.966 0 0 1 4.433 3.754z"/><path d="m226.228 191.262c-8.755 12.684-35.122 45.941-69.745 64.537-2.711 1.456-1.048 5.758 1.857 4.8a133.714 133.714 0 0 0 74.633-60.518 7.849 7.849 0 0 0 -1.1-9.282 3.613 3.613 0 0 0 -5.645.463z"/><path d="m160.278 210.5a3.474 3.474 0 0 0 5.333 3.716 19.182 19.182 0 0 0 4.39-4.133 16.25 16.25 0 0 0 2.743-5.354 3.478 3.478 0 0 0 -5.383-3.793 21.282 21.282 0 0 0 -4.7 4.486 15.065 15.065 0 0 0 -2.383 5.078z"/><path d="m300.755 130.33-21.361 14.77s-.3 2.775-14.031 17.781c0 0 10.426 3.534 18.385 6.35a398.209 398.209 0 0 0 21.93-39.08c-1.726.136-3.364.183-4.923.179z"/><path d="m305.678 130.154c-4.119.317-14.97-.674-14.97-.674a53.887 53.887 0 0 1 -36.3 15.731 18.641 18.641 0 0 1 -12.427-4.077c-.125-.1-.244-.2-.359-.3a6.154 6.154 0 0 1 -2.068-5.68q.3-1.825.568-3.68c1.063-3.858 5.714-12.876 25.725-7.37l-.009-.007a155.472 155.472 0 0 0 20 4.267s1.126-6.327 1.657-10.06c-6.677-.279-34.968-2.307-37.639-16.694-2.677-14.418 3.7-26.254 8.5-35.474a2.6 2.6 0 0 0 -4.108-3.066 39.543 39.543 0 0 0 -5.975 7.659v-.006c-4.105 3.878-4.521-1.108-4.521-1.108-.059-11.056-.413-18.331-.418-18.417q-4.6 2.835-8.965 5.738c1.1 12.485 4.007 53.575-2.684 78.213a10.562 10.562 0 0 0 -.508 1.965c-1.679 5.76-7.934 22.021-24.275 18.211-12.9-8.823-7.12-22.176-7.1-22.226a28.6 28.6 0 0 1 1.846-2.888 50.7 50.7 0 0 0 6.783-13.476c1.933-2.629 5.35-6.727 8.507-7.7a35.288 35.288 0 0 1 9.512-1.285 1.7 1.7 0 0 0 .728-3.237 35.4 35.4 0 0 0 -6.688-2.471c-7.63-4.239-12.111-14.977-12.111-14.977a41.691 41.691 0 0 0 -3.809-7.57q-3.13 2.685-6.059 5.336c.023.031 7.212 8.482 5.219 24.76-.567 4.625-3.616 10.185-6.8 15.228-9.595 12.52-25.083 13.148-25.083 13.148-.23-.018-.46-.039-.688-.05-8.583-.431-10.373-7.115-10.6-11.618-4.124 5.588-6.164 8.925-6.164 8.925s.92 9.2 12.205 10.059a38.993 38.993 0 0 1 7.163 1.134 52.352 52.352 0 0 1 7.762 2.639c6.736 8.933-8.051 7.153-9.552 6.952-17.147-2.347-25.283-6.858-28.739-9.427a80.628 80.628 0 0 0 -5.249 7.141c10.741 12.532 46.546 11.935 46.546 11.935 23.571-2.088 47.142 8.056 47.142 8.056 14.919 7.459 30.135 24.168 30.135 24.168 2.578-2.645 5.136-5.567 7.646-8.663l-2.326-3.128-21.828-17.728a6.277 6.277 0 0 1 .843-10.342 53.766 53.766 0 0 1 15.224-5.607c1.243-.2 2.578-.432 3.993-.714 12.065-2.399 29.654-8.099 40.318-21.545z"/></g><circle cx="268.536" cy="53.607" fill="#fff" r="8.155"/><circle cx="268.536" cy="53.607" fill="#40486f" r="3.663"/><path d="m274.81 155.641c-12.181 8.229-30.54 24.532-34.845 50a11.341 11.341 0 0 0 4.719 11.1 55.193 55.193 0 0 1 22.416 36.03 3.346 3.346 0 0 0 6.169 1.089c9.519-15.953 27.793-53.5 17.038-92.475a10.158 10.158 0 0 0 -15.497-5.744z" fill="#485a75"/></svg>