<svg id="icon" height="512" viewBox="0 0 340 340" width="512" xmlns="http://www.w3.org/2000/svg"><path d="m10 38.859h320v262.281h-320z" fill="#9dedbb"/><path d="m151.579 220.388-4.269-2.344 7.44-18.3a74.834 74.834 0 0 0 4.278-14.758l9.518 1.456a50.1 50.1 0 0 0 50.148-23.109l2.45-3.947a10.372 10.372 0 0 0 -.694-11.915c.208.014.416.032.627.032a9.116 9.116 0 1 0 -7.445-3.877 10.371 10.371 0 0 0 -9.2 3.556l-15.559 18.244-18.527-7.024a5.507 5.507 0 0 0 .384-.471l2.642-3.9a5.91 5.91 0 0 1 4.707-2.712 3.4 3.4 0 0 0 3.262-4.195l-1.668-6.922a15.771 15.771 0 0 1 -.3-5.723 22.3 22.3 0 0 0 .164-4.327 6.666 6.666 0 0 0 -2.188-4.487 19.781 19.781 0 0 0 -10.649-19.193 11.477 11.477 0 0 0 4.36-9.149 11.5 11.5 0 0 0 -23.006.142 11.459 11.459 0 0 0 3.3 8.059c-.135.04-.277.072-.411.113a29.246 29.246 0 0 0 -17.763 16.153 47.593 47.593 0 0 0 -4.052 22.173l-13.932-9.294a12.9 12.9 0 0 0 -17.029 2.43 147.944 147.944 0 0 0 -20.726 31.99 10.22 10.22 0 0 0 0 8.627 9.1 9.1 0 0 0 -8.844 9.411 9.2 9.2 0 0 0 8.826 8.776 9.084 9.084 0 0 0 8.78-12.3 10.179 10.179 0 0 0 8.329-3.673l15.147-18.286 10.33 11.3-7.325 26.594a155.528 155.528 0 0 1 -7.506 21.152l-.334.76a13.573 13.573 0 0 1 -11.144 8.071 607.461 607.461 0 0 1 -83.7 1.806v69.814h320v-202.236c-24.36 42.873-74.963 97.885-178.421 121.483z" fill="#7ec99b"/><path d="m144.2 212.2-17.727 35.646-22.2-11.834a9.67 9.67 0 0 0 -13.291 2.634l-10.425 15.27 3.162 2.293a8.105 8.105 0 0 0 10.615-.959l24.444 15.916a17.935 17.935 0 0 0 23.912-3.976l25.867-33.051z" fill="#425666"/><path d="m192.766 154.313 29.32 11.116 15.56-18.244a10.376 10.376 0 0 1 12.335-2.645 10.377 10.377 0 0 1 4.376 14.849l-12.607 20.318a20.927 20.927 0 0 1 -20.945 9.652l-37.535-5.742z" fill="#425666"/><path d="m212.789 131.24c-.873 3.837-7.247 7.9-10.921 12.274l-8.4 14.7v13.372a74.775 74.775 0 0 1 -5.507 28.165l-7.44 18.3 25.252 13.863a20.125 20.125 0 0 1 10.439 17.641v38.477a12.285 12.285 0 0 1 7.348 13.116h-18.54a9.453 9.453 0 0 1 -9.453-9.453v-31.428a11.13 11.13 0 0 0 -7.5-10.521l-31.267-10.794a20.65 20.65 0 0 1 -12.6-26.75l20.577-55.041s-6.6-17.273 1.613-35.371a29.243 29.243 0 0 1 17.763-16.153 25.254 25.254 0 0 1 6.91-1.143c13.897-.272 25.149 11.69 21.726 26.746z" fill="#6e8596"/><circle cx="254.291" cy="138.404" fill="#ebeded" r="9.102"/><circle cx="131.675" cy="278.767" fill="#ebeded" r="9.102"/><path d="m193.47 165.289v-7.079l8.245-14.429-12.235-8.566s-11.317 18.523 3.99 30.074z" fill="#425666"/><path d="m175.984 171.247-16.271-.538-3.056 8.174c4.358 2.2 14.616 5.929 21.458-3.23a2.765 2.765 0 0 0 -2.131-4.406z" fill="#425666"/><path d="m182.551 163.846c-.009-.164-.019-.331-.031-.5a12.894 12.894 0 0 0 -5.762-9.766l-28.352-18.913a12.883 12.883 0 0 0 -17 2.4 147.972 147.972 0 0 0 -20.752 32.022 10.215 10.215 0 0 0 3.119 12.488 10.2 10.2 0 0 0 13.97-1.652l15.147-18.286 19.136 13.437c8.85 6.216 21.074-.427 20.525-11.23z" fill="#6e8596"/><path d="m205.781 123.923a17.73 17.73 0 0 0 -9.774 3.43 20.7 20.7 0 0 0 -8.488 18.077 21.694 21.694 0 0 0 .566 3.786 15.845 15.845 0 0 0 9.254 10.654 5.4 5.4 0 0 0 6.6-1.936l2.642-3.9a6.192 6.192 0 0 1 4.829-2.715 3.4 3.4 0 0 0 3.14-4.192l-1.668-6.922a15.228 15.228 0 0 1 -.318-5.589 22.471 22.471 0 0 0 .181-4.461 6.725 6.725 0 0 0 -6.964-6.232z" fill="#ffd0b0"/><path d="m203.8 139.718c-.13-.056-.26-.115-.393-.175a1.509 1.509 0 0 1 1.227-2.758l.021.009a5.335 5.335 0 0 0 1.649.556 1.509 1.509 0 1 1 -.223 3.01 6.848 6.848 0 0 1 -2.281-.642z" fill="#f7a392"/><path d="m169.7 211.405a.889.889 0 0 0 -.431 1.7l11.255 4.939 2.668-6.562a69.88 69.88 0 0 1 -13.492-.077z" fill="#425666"/><path d="m201.309 107.245a18.735 18.735 0 0 0 -10.245-2.751 25.254 25.254 0 0 0 -6.91 1.143 26.726 26.726 0 0 0 -5.681 2.5 12.785 12.785 0 0 0 6.98 2.968c10.433 1.517 14.638-2.345 15.856-3.86z" fill="#425666"/><circle cx="192.766" cy="97.465" fill="#ebeded" r="11.503"/><path d="m188.485 102.967a11.436 11.436 0 0 0 1.487 5.645 11.488 11.488 0 0 0 12.811-16.792 11.463 11.463 0 0 0 -14.3 11.147z" fill="#fff"/><path d="m205.775 231.907-.253-.138a12.073 12.073 0 0 0 1.951 12.337c2.2 2.728 5.581 4.391 8.739 5.405a20.123 20.123 0 0 0 -10.437-17.604z" fill="#3a4c5e"/><path d="m122.451 183.279c-.752-2.811-3.4-8.4-12.667-11.16a10.176 10.176 0 0 0 12.667 11.16z" fill="#425666"/><circle cx="110.903" cy="186.805" fill="#ebeded" r="9.102"/><path d="m106.974 190.142a9.054 9.054 0 0 0 1.88 5.525 9.088 9.088 0 0 0 9.27-14.387 9.076 9.076 0 0 0 -11.15 8.862z" fill="#fff"/><circle cx="215.973" cy="235.004" fill="#ebeded" r="9.102"/><path d="m213.4 239.5a9.052 9.052 0 0 0 1.189 4.488 9.087 9.087 0 0 0 9.3-13.473 9.034 9.034 0 0 0 -10.489 8.985z" fill="#fff"/></svg>