<svg id="fill" height="512" viewBox="0 0 340 340" width="512" xmlns="http://www.w3.org/2000/svg"><path d="m248.853 97.05a58.744 58.744 0 0 0 -7.586-18.03c.28.086.557.173.849.247 1.369.35 2.644-1.487 1.459-2.507-4-3.44-5.523-8.513-8.018-12.954a28.344 28.344 0 0 0 2.974.546c1.471.182 2.053-2.178.757-2.8-5.538-2.639-8.923-7.544-13.282-11.633a36.424 36.424 0 0 0 -12.406-7.569 7.421 7.421 0 0 0 1.609-1.522 1.524 1.524 0 0 0 -1.061-2.56c-3.65-.4-6.89-1.981-10.163-3.488.865-.586 1.229-1.523.662-2.96a1.592 1.592 0 0 0 -1.447-1.1q-8.26-.807-16.543-1.079a12.225 12.225 0 0 0 1.43-1.885c.632-1.021-.449-2.727-1.694-2.2a96.544 96.544 0 0 1 -14.555 4.8c-1.548.035-3.069.108-4.551.218a78.716 78.716 0 0 0 -29.92 8.377 9.682 9.682 0 0 0 .4-2.881 1.514 1.514 0 0 0 -2.8-.757c-4.08 5.682-14.867 9.947-19.162 16.629a12.163 12.163 0 0 0 -1.044-1.434 1.514 1.514 0 0 0 -2.561 1.061c.634 5.048-2.674 9.189-5.226 13.59a1.552 1.552 0 0 0 -2.759-.307 51.135 51.135 0 0 0 -5.772 23.409 71.641 71.641 0 0 0 -1.473 17.431 12.165 12.165 0 0 0 -4.564-1.4c-1.642-.185-1.809 2.031-.757 2.8 6.312 4.59 5.567 13.464 7.945 20.666a17.038 17.038 0 0 0 -2.492-.779c-1.327-.309-2.715 1.51-1.459 2.507 4.585 3.639 7.524 8.48 10.623 13.3-.771-.3-1.56-.581-2.379-.822a1.507 1.507 0 0 0 -1.156 2.742c5.321 3.237 7.941 9.258 13.306 12.566a107.92 107.92 0 0 0 11.541 5.96 71.313 71.313 0 0 0 36.7 13.165c1.814.127 3.569.18 5.295.2a1.639 1.639 0 0 0 .18.143c.518.332.851.533 1.172.7-1.207.528-2.419 1.045-3.644 1.539-1.178.476-1.65 2.653 0 2.893a22.922 22.922 0 0 0 13.292-1.671c2.671-1.234 4.823-3.174 7.273-4.76a18.842 18.842 0 0 1 2.408-1.3c.192-.051.374-.11.563-.163-.3.342-.6.687-.9 1.043a1.514 1.514 0 0 0 1.459 2.507c10.831-2.013 18.689-9.7 25.718-17.678.174.756.356 1.511.558 2.271.307 1.153 2.2 1.575 2.742.358l6.147-13.733c.268-.4.52-.78.735-1.12q1.747-2.76 3.647-5.426c12.388-17.358 14.983-32.808 14.179-44.445a17.6 17.6 0 0 0 1.539 1 1.517 1.517 0 0 0 2.212-1.705z" fill="#ffd98d"/><path d="m213.9 102.575a43.106 43.106 0 0 0 -5.553-20.662 16.153 16.153 0 0 0 1.639-.187 1.512 1.512 0 0 0 .662-2.507c-2.461-2.471-4.925-4.995-7.473-7.41a10.139 10.139 0 0 0 3.368-1.878 1.511 1.511 0 0 0 -.662-2.507 139.293 139.293 0 0 1 -14.115-4.565c.317-.133.638-.276.969-.439a1.51 1.51 0 0 0 -.757-2.8c-5.695.451-11.279-1.725-16.783-1.7a10.225 10.225 0 0 0 .392-1.031 1.512 1.512 0 0 0 -2.507-1.459c-5.631 5.025-14.117 4.213-20.1 8.331a43.076 43.076 0 0 0 -12.759 8.821c-.435.435-.852.882-1.264 1.33l-.5-2.076a1.516 1.516 0 0 0 -2.742-.358 74.287 74.287 0 0 0 -4.513 11.574 10.329 10.329 0 0 0 -2.912-2.555 1.518 1.518 0 0 0 -2.2 1.694c1.8 8.83-2.48 18.089.236 26.55a6.354 6.354 0 0 0 -1.465.24 1.511 1.511 0 0 0 -.662 2.507c4.123 3.3 3.67 9.3 6.5 13.5a14.055 14.055 0 0 0 4.708 4.347 9.183 9.183 0 0 0 -2.006 1.74 1.521 1.521 0 0 0 1.06 2.56c6 .628 9.463 6.987 14.894 9.121a40.434 40.434 0 0 0 10.916 2.228 43.3 43.3 0 0 0 7.923 1.2c-.376 1.329-1.113 2.4-.293 4.139a1.52 1.52 0 0 0 2.356.3 19.185 19.185 0 0 1 9.262-4.5 1.461 1.461 0 0 0 .77 1.512 1.582 1.582 0 0 0 1.821 1.2c4.093-.724 7.969-3.667 11.523-6.821-.131.346-.26.695-.383 1.051a1.514 1.514 0 0 0 2.2 1.694c6.2-4 7.367-11.263 10.851-17.188.109-.158.223-.314.329-.473a7.187 7.187 0 0 0 2.646 2.674 1.517 1.517 0 0 0 2.257-1.3c.743-8.672 3.524-17.405 2.367-25.897z" fill="#f4b271"/><circle cx="170.747" cy="103.112" fill="#ffd98d" r="17.075"/><path d="m238.661 314.546a58.769 58.769 0 0 0 19.282-3.3c-.147.253-.295.5-.434.77-.651 1.255.849 2.913 2.111 1.991 4.258-3.113 9.544-3.447 14.436-4.868a28.128 28.128 0 0 0 -1.207 2.771c-.511 1.392 1.655 2.494 2.551 1.372 3.827-4.794 9.372-6.977 14.345-10.294a36.439 36.439 0 0 0 10.191-10.363 7.41 7.41 0 0 0 1.117 1.912 1.524 1.524 0 0 0 2.734-.452c1.215-3.465 3.493-6.26 5.7-9.106.374.976 1.2 1.543 2.732 1.316a1.591 1.591 0 0 0 1.4-1.158q2.661-7.863 4.8-15.867a12.283 12.283 0 0 0 1.512 1.821c.851.847 2.758.181 2.531-1.149a96.679 96.679 0 0 1 -1.37-15.265c.317-1.516.592-3.013.821-4.481a78.714 78.714 0 0 0 -1.367-31.041 9.69 9.69 0 0 0 2.716 1.043 1.514 1.514 0 0 0 1.372-2.55c-4.608-5.264-6.313-16.737-11.846-22.437a12.286 12.286 0 0 0 1.634-.692 1.513 1.513 0 0 0 -.452-2.734c-5.06-.529-8.342-4.69-12.049-8.175a1.552 1.552 0 0 0 .925-2.617 51.132 51.132 0 0 0 -21.487-10.935 71.7 71.7 0 0 0 -16.643-5.392 12.151 12.151 0 0 0 2.4-4.128c.554-1.557-1.567-2.222-2.55-1.372-5.9 5.106-14.376 2.367-21.93 3.047a16.863 16.863 0 0 0 1.324-2.249c.6-1.223-.854-2.988-2.11-1.991-4.585 3.639-9.967 5.4-15.369 7.326.47-.682.92-1.388 1.34-2.131a1.507 1.507 0 0 0 -2.407-1.748c-4.36 4.447-10.819 5.632-15.259 10.107a107.722 107.722 0 0 0 -8.424 9.886 71.315 71.315 0 0 0 -21.153 32.758c-.536 1.738-.986 3.434-1.4 5.111a1.648 1.648 0 0 0 -.179.143c-.441.429-.713.708-.946.983-.24-1.3-.468-2.593-.672-3.9-.2-1.256-2.209-2.21-2.817-.657a22.92 22.92 0 0 0 -1.39 13.324c.6 2.882 2 5.418 2.985 8.164a18.757 18.757 0 0 1 .72 2.641c.006.2.022.388.03.585-.263-.373-.531-.745-.811-1.113a1.514 1.514 0 0 0 -2.773.853c-.5 11 5.2 20.4 11.379 29.059-.776 0-1.553 0-2.339.028-1.193.037-2.032 1.782-.971 2.589l11.979 9.1c.328.352.642.684.924.971q2.292 2.328 4.456 4.783c14.094 16 28.552 22.039 40.067 23.9a17.353 17.353 0 0 0 -1.318 1.273 1.517 1.517 0 0 0 1.159 2.538z" fill="#ffd98d"/><path d="m241.214 279.253a43.122 43.122 0 0 0 21.383-.717 16 16 0 0 0 -.189 1.638 1.511 1.511 0 0 0 2.291 1.213c2.965-1.835 5.983-3.661 8.913-5.6a10.134 10.134 0 0 0 1.064 3.706 1.511 1.511 0 0 0 2.592-.075 139.526 139.526 0 0 1 7.65-12.711c.057.339.124.684.207 1.044a1.511 1.511 0 0 0 2.894-.1c.854-5.649 4.24-10.593 5.466-15.959a10.55 10.55 0 0 0 .914.616c1.362.8 2.671-.864 1.991-2.111-3.616-6.624-.9-14.7-3.551-21.466a43.061 43.061 0 0 0 -5.695-14.428c-.325-.523-.665-1.03-1.008-1.533l2.135-.015a1.516 1.516 0 0 0 .971-2.589 74.382 74.382 0 0 0 -10.242-7.021 10.327 10.327 0 0 0 3.149-2.256 1.517 1.517 0 0 0 -1.149-2.53c-9.009-.25-17.055-6.522-25.911-5.8a6.394 6.394 0 0 0 .1-1.482c-.055-1.028-1.367-1.942-2.292-1.214-4.147 3.267-9.889 1.464-14.624 3.266a14.064 14.064 0 0 0 -5.3 3.6 9.19 9.19 0 0 0 -1.239-2.349 1.521 1.521 0 0 0 -2.734.452c-1.972 5.7-8.953 7.63-12.264 12.434a40.468 40.468 0 0 0 -4.647 10.126 43.271 43.271 0 0 0 -2.971 7.443c-1.209-.668-2.085-1.629-3.964-1.225a1.519 1.519 0 0 0 -.831 2.225 19.168 19.168 0 0 1 2.282 10.043 1.461 1.461 0 0 0 -1.647.406 1.582 1.582 0 0 0 -1.58 1.5c-.224 4.151 1.762 8.594 4.027 12.77-.307-.206-.618-.411-.937-.611a1.514 1.514 0 0 0 -2.15 1.761c2.488 6.944 9.3 9.731 14.277 14.469.129.142.255.288.386.428a7.193 7.193 0 0 0 -3.205 1.97 1.517 1.517 0 0 0 .749 2.492c8.286 2.698 16.157 7.387 24.689 8.19z" fill="#f4b271"/><circle cx="250.488" cy="237.103" fill="#ffd98d" r="17.075"/><path d="m36.723 180.335a58.781 58.781 0 0 0 -8.588 17.575c-.119-.267-.237-.533-.372-.8-.638-1.262-2.86-1.013-2.848.55.038 5.274-2.779 9.76-4.482 14.561a28.073 28.073 0 0 0 -1.545-2.6c-.831-1.228-2.991-.114-2.6 1.268 1.655 5.907.187 11.683-.025 17.657a36.425 36.425 0 0 0 2.458 14.325 7.444 7.444 0 0 0 -2.2-.211 1.525 1.525 0 0 0 -1.231 2.484c2.1 3.01 3.041 6.492 4.06 9.949-1.011-.267-1.956.075-2.665 1.448a1.594 1.594 0 0 0 .122 1.814q4.827 6.753 10.071 13.169a12.2 12.2 0 0 0 -2.361.163c-1.184.2-1.758 2.133-.545 2.726a96.583 96.583 0 0 1 13.19 7.805q1.568 1.714 3.157 3.284a78.707 78.707 0 0 0 25.993 17.023 9.663 9.663 0 0 0 -2.433 1.594 1.514 1.514 0 0 0 1.268 2.6c6.965-.665 17.273 4.653 25.131 3.492a12.089 12.089 0 0 0 -.393 1.729 1.513 1.513 0 0 0 2.483 1.231c3.385-3.8 8.68-4.031 13.673-5a1.553 1.553 0 0 0 1.585 2.28 51.128 51.128 0 0 0 21.419-11.051 71.658 71.658 0 0 0 14.1-10.358 12.159 12.159 0 0 0 1.951 4.357c.94 1.358 2.719.026 2.6-1.269-.7-7.773 6.477-13.05 10.337-19.579a16.99 16.99 0 0 0 1.052 2.389c.641 1.2 2.924 1.051 2.849-.55-.276-5.847 1.437-11.246 3.032-16.754.279.78.589 1.558.946 2.333a1.507 1.507 0 0 0 2.825-.933c-1.063-6.137 1.749-12.071.711-18.289a107.977 107.977 0 0 0 -3.1-12.612 71.315 71.315 0 0 0 -14.231-36.3c-1.1-1.45-2.212-2.807-3.332-4.12a1.636 1.636 0 0 0 -.012-.229c-.09-.608-.158-.991-.245-1.342 1.191.562 2.378 1.135 3.556 1.732 1.133.575 3.084-.5 2.179-1.9a22.926 22.926 0 0 0 -10-8.911c-2.687-1.2-5.564-1.544-8.37-2.346a18.719 18.719 0 0 1 -2.563-.959c-.165-.11-.329-.208-.493-.317.457 0 .915 0 1.377-.008a1.514 1.514 0 0 0 .928-2.749c-8.641-6.833-19.6-7.694-30.233-7.739.455-.629.9-1.262 1.343-1.915.667-.99-.259-2.69-1.533-2.3l-14.387 4.4c-.477.06-.93.122-1.327.183q-3.229.5-6.486.823c-21.223 2.09-34.566 10.3-42.8 18.559a17.692 17.692 0 0 0 -.263-1.813 1.518 1.518 0 0 0 -2.733-.549z" fill="#ffd98d"/><path d="m63.878 203.024a43.1 43.1 0 0 0 -11.909 17.776 16.125 16.125 0 0 0 -1.219-1.111 1.512 1.512 0 0 0 -2.323 1.151c-.242 3.479-.523 7-.665 10.5a10.134 10.134 0 0 0 -3.63-1.3 1.511 1.511 0 0 0 -1.453 2.148 139.22 139.22 0 0 1 5.848 13.634c-.308-.152-.627-.3-.968-.442a1.511 1.511 0 0 0 -1.607 2.409c4.086 3.992 6.121 9.629 9.76 13.759a10.3 10.3 0 0 0 -1.034.382 1.513 1.513 0 0 0 .55 2.849c7.49.934 12.46 7.86 19.5 9.657a43.051 43.051 0 0 0 15.037 3.806c.614.041 1.224.062 1.833.077l-1.235 1.742a1.515 1.515 0 0 0 1.534 2.3 74.32 74.32 0 0 0 11.686-4.214 10.307 10.307 0 0 0 -.008 3.874 1.518 1.518 0 0 0 2.725.545c5.465-7.166 15.255-10.033 19.841-17.645a6.338 6.338 0 0 0 1.145.947 1.511 1.511 0 0 0 2.323-1.151c-.229-5.275 4.589-8.882 5.892-13.778a14.07 14.07 0 0 0 .178-6.406 9.194 9.194 0 0 0 2.63.367 1.522 1.522 0 0 0 1.23-2.484c-3.471-4.928-.963-11.723-2.928-17.217a40.451 40.451 0 0 0 -5.5-9.687 43.37 43.37 0 0 0 -4.3-6.759c1.248-.591 2.54-.741 3.31-2.5.421-.964-.457-1.829-1.322-1.974a19.183 19.183 0 0 1 -9.484-4.014 1.46 1.46 0 0 0 .632-1.574 1.582 1.582 0 0 0 -.3-2.16c-3.238-2.606-8.005-3.59-12.718-4.191.347-.129.695-.261 1.044-.4a1.515 1.515 0 0 0 -.174-2.774c-7.089-2.037-13.329 1.862-20.083 3.135-.191.022-.383.039-.573.063a7.183 7.183 0 0 0 .273-3.751 1.517 1.517 0 0 0 -2.46-.848c-7.039 5.154-15.443 8.803-21.078 15.259z" fill="#f4b271"/><circle cx="92.672" cy="235.172" fill="#ffd98d" r="17.075"/></svg>