<svg id="flat" height="512" viewBox="0 0 340 340" width="512" xmlns="http://www.w3.org/2000/svg"><path d="m51.275 88.261s-12.791-4.195-27.962 5.482c-3.659 2.334-6.663 4.136-9.117 5.526a8.4 8.4 0 0 0 -.651 14.2c5.017 3.487 11.867 6.083 20.073 3.81 17.944-4.965 17.657-29.018 17.657-29.018z" fill="#ef6383"/><path d="m131.86 91.651s-27.2 1.569-46.819-2.354c-14.363-2.873-30.129-1.539-37.543-.618a7.6 7.6 0 0 0 -6.74 7.166c-.008.247-.008.5 0 .755a7.648 7.648 0 0 0 8.676 7.086 96.047 96.047 0 0 1 28.8.781c15.478 2.916 30.34 4.784 30.34 4.784z" fill="#ff9fb7"/><path d="m85.041 89.3c-2-.4-4.035-.713-6.067-.962a28.947 28.947 0 0 0 -7.916 15.1c2.028.206 4.113.49 6.235.864.244-11.014 9.951-13.8 10.317-13.987a3.462 3.462 0 0 0 .649-.437c-1.09-.178-2.166-.371-3.218-.578z" fill="#ef6383"/><path d="m66.953 87.567c-2.817-.032-5.528.025-8.04.143a26.78 26.78 0 0 0 -2.434 15.371c2.023-.1 4.245-.147 6.612-.109a14.275 14.275 0 0 1 3.862-15.405z" fill="#ef6383"/><path d="m108.581 109.251 23.279-17.6a264.326 264.326 0 0 1 -32.373-.425 67.75 67.75 0 0 0 -15.782 14.234c13.334 2.34 24.876 3.791 24.876 3.791z" fill="#ef6383"/><path d="m171.968 230.716s-7.307 16.634 1.654 31.325a8.249 8.249 0 0 0 14.619-1.028c3.467-7.975 4.994-19.719-6.431-31.441z" fill="#ef6383"/><path d="m163.407 171.511s-10.86 36.925 8.431 64.265a6.507 6.507 0 0 0 5.323 2.722 6.557 6.557 0 0 0 6.339-8.219c-3.639-14.016-7.986-48.222 7.268-70.518z" fill="#ff9fb7"/><path d="m160.777 204.245c.2 2.083.49 4.2.876 6.351 5.35-.044 12.316-.933 18.462-4.36-.106-2.527-.138-5.127-.072-7.774-5.393 5.758-13.565 6.288-19.266 5.783z" fill="#ef6383"/><path d="m180.845 215.523c-5.274 7.234-13.63 5.906-16.6 5.18a61.307 61.307 0 0 0 2.888 7.084c.2 0 .388.013.594.013a24.818 24.818 0 0 0 14.311-4.226c-.446-2.442-.858-5.148-1.193-8.051z" fill="#ef6383"/><path d="m163.407 171.511a95.426 95.426 0 0 0 -3.023 25.837 89.059 89.059 0 0 0 20.716-11.248c1.412-9.321 4.343-18.558 9.669-26.342z" fill="#ef6383"/><path d="m97.837 300.705a62.928 62.928 0 0 1 17.933 8.5 51.33 51.33 0 0 1 4.124 3.15c4.362 3.646 17.209 13.982 27.947 18.579a20.085 20.085 0 0 0 12.279 1.266c6.135-1.377 13.415-6.184 13.019-21.321a82.421 82.421 0 0 1 1.93-21.337 15.651 15.651 0 0 0 -5.312-16.2c-3.025-2.351-7.251-3.819-13.069-2.656-16.112 3.223-37.142-3.561-45.453-16.281z" fill="#753662"/><path d="m124.557 299.809c11.761 5.464 31.051 12.413 52.8 12.22a5.445 5.445 0 0 0 5.29-4.568 5.462 5.462 0 0 0 -4.327-6.265c-10.081-1.985-32.666-7.215-48.779-16.813z" fill="#ce767d"/><path d="m117.727 275.023-5.171 18.38a106.534 106.534 0 0 0 12 6.4 12.316 12.316 0 0 0 3.992-6.278 45.565 45.565 0 0 0 .995-9.148 50.009 50.009 0 0 1 -11.816-9.354z" fill="#753662"/><path d="m145.19 87.226c-16.35 0-27.814-10.8-28.394-11.363a3.464 3.464 0 0 1 4.8-5c.618.587 14.689 13.7 32.845 7.993a3.464 3.464 0 0 1 2.075 6.611 37.648 37.648 0 0 1 -11.326 1.759z" fill="#ef6383"/><path d="m164.285 79.206c-11.893 0-22.569-6.374-25.84-9.067a3.464 3.464 0 1 1 4.4-5.349c2.451 2.017 14.9 9.585 26.693 6.918a3.464 3.464 0 0 1 1.531 6.757 30.673 30.673 0 0 1 -6.784.741z" fill="#ef6383"/><path d="m199.206 194.773a3.467 3.467 0 0 1 -3.352-2.6c-5.356-20.784 7.042-40.678 7.573-41.515a3.464 3.464 0 0 1 5.854 3.706c-.114.18-11.314 18.245-6.717 36.08a3.47 3.47 0 0 1 -3.358 4.33z" fill="#ef6383"/><path d="m216.236 184.45a3.465 3.465 0 0 1 -3.439-3.077 89.681 89.681 0 0 1 3.4-36.661 3.464 3.464 0 0 1 6.534 2.3 84.206 84.206 0 0 0 -3.047 33.583 3.468 3.468 0 0 1 -3.056 3.831 3.7 3.7 0 0 1 -.392.024z" fill="#ef6383"/><path d="m207.687 25.239s-18.91 9.994-23.926 48.169l14.65 3.277s.381-22.961 16.045-37.365z" fill="#ff9fb7"/><path d="m287.764 142.014s-28.541 13.139-73.308-9.114l7.763-11.947s24.389 16.4 57.39 7.735z" fill="#ff9fb7"/><path d="m141.858 82.448s-84.897 28.559-104.408 107.061c-19.98 80.391 44.678 110.716 44.678 110.716s22.224 9.411 34.434-5.054c0 0 2.541-5.761 3.808-9.084 0 0 3.387-11.683-4.234-26.047a45.645 45.645 0 0 1 -4.754-19.21c-.451-13.464 4.067-35.86 29.488-47.989 40.437-19.293 56.614-34.772 56.614-34.772-14.046-33.069-30.495-58.027-55.626-75.621z" fill="#ce767d"/><path d="m141.858 195.3c31.592-15.073 48.827-27.888 54.855-32.773l-27.553-15.566s-1.763 14.094-15.519 19.891-49.655 22.012-54.429 57.814a55.422 55.422 0 0 0 8.571 34.079c8.933 14.184 11.181 26.784 8.77 36.419a27.875 27.875 0 0 0 4.69-8.153 37.758 37.758 0 0 0 -3.34-27.423 42.209 42.209 0 0 1 -5.128-18.314c-.451-13.464 3.662-33.844 29.083-45.974z" fill="#753662"/><path d="m141.858 82.448s-4.126 1.389-10.761 4.391c-2.118 3.516-3.842 9.178-1.222 17.126 1.809 5.492 6.831 9.854 12.4 13.16a42.944 42.944 0 0 1 20.776 30.009c1.912 12.011 7.027 24.6 20.012 25.252 11.113-7.335 16.149-11.971 16.149-11.971-14.049-33.068-32.223-60.373-57.354-77.967z" fill="#753662"/><path d="m228 129.7c-4.967 14.373-14.548 26.441-32.433 35.1-7.555 3.659-15.212 1.411-17.262-6.729-.669-2.655-2.692-8.766-2.692-8.766-.157-2.038-.236-4.24-.215-6.619a35.544 35.544 0 0 0 -18.478-31.529 72.911 72.911 0 0 1 -16.142-11.693 13 13 0 0 1 3.8-21.053c10.11-4.576 24.892-9.559 41.153-9.447 31.239.214 52.469 31.205 42.269 60.736z" fill="#ce767d"/><path d="m167.4 68.492a5.023 5.023 0 0 0 -.577 8.565c3.214 2.23 8.5 4.382 16.975 4.453 9.01.076 14.5-2.129 17.676-4.237a3.833 3.833 0 0 0 -.127-6.5 41.666 41.666 0 0 0 -17.547-5.432 29.525 29.525 0 0 0 -16.4 3.151z" fill="#343b5d"/><g fill="#753662"><path d="m142.554 155.462a57.192 57.192 0 0 0 -17.415-31.294c-12.633-11.6-12.357-22.943-11.127-28.569q-2.017 1.158-4.117 2.426c-2.154 7.662-3.961 23.65 12.265 36.931a31.323 31.323 0 0 1 10.991 19.182c1.9 11.531 7.821 27.546 25.78 32.533q1.824-.978 3.555-1.931c-11.152-6.846-17.986-19.277-19.932-29.278z"/><path d="m80.679 119.659c-1.651 7.35-1.351 20.495 15.524 32.917a28.92 28.92 0 0 1 11.245 18.114c2.077 11.291 8.031 27 24.978 30.136.8-.574 1.634-1.14 2.5-1.693-10.3-6.463-15.157-16.345-17.356-25.5a58.186 58.186 0 0 0 -21.44-32.645c-15.422-11.781-10.476-25.663-10.472-25.676q-2.498 2.097-4.979 4.347z"/><path d="m94.68 195.513a61.093 61.093 0 0 0 -24.533-30.967c-12.555-8.139-12.725-18.529-12.727-18.673q-2.193 3.144-4.248 6.465c.208 7.264 3.262 18.923 19.172 25.734a17.482 17.482 0 0 1 10.2 11.941c3.094 12.822 11.561 34.373 33.267 31.908.347-.917.724-1.836 1.144-2.754a39.206 39.206 0 0 1 -22.275-23.654z"/><path d="m112.752 238.5c-17.395-1.072-26.952-8.668-32.188-16.29a49.908 49.908 0 0 0 -25.628-19.51c-12.826-4.14-17.81-11.233-17.911-11.378q-.99 4.217-1.679 8.249c1.684 5.387 6.749 12.4 21.443 14.633a17.063 17.063 0 0 1 12.254 8.523c5.754 10.213 19 26.024 43.774 19.187-.011-.213-.035-.425-.042-.639-.03-.9-.038-1.823-.023-2.775z"/><path d="m116.136 255.86q-.507-1.191-.947-2.4h-.007c-12.8 6.36-22.871 4.943-29.746 1.935a43.219 43.219 0 0 0 -25.069-2.632c-13.552 2.472-21.539-2.419-21.578-2.443a86.8 86.8 0 0 0 3.318 8.087c4.274 2.962 11.16 5.52 20.923 2.651a19.7 19.7 0 0 1 14.732 1.462c9.224 4.847 25.629 9.751 38.374-6.66z"/><path d="m121.659 270.031a38.535 38.535 0 0 0 -1.054-4.031 24.918 24.918 0 0 1 -16.682 9.794 35.534 35.534 0 0 0 -20.188 9.959 21.112 21.112 0 0 1 -14.565 6.117c2.511 1.953 4.811 3.542 6.757 4.792 4.341.366 10.592-.833 17.053-7.932a15.252 15.252 0 0 1 9.382-4.853c6.538-.825 16.608-3.759 19.297-13.846z"/><path d="m228 129.7a46.918 46.918 0 0 0 2.377-10.935c-3.353 3.6-7.211 7.888-11.59 12.976-15.294 17.775-36.1 18.052-43.17 17.565a56.611 56.611 0 0 0 1.484 9.454 13.124 13.124 0 0 0 18.545 8.565c17.883-8.665 27.386-23.256 32.354-37.625z"/></g><path d="m231.194 138.719c-2.708 7.973-9.528 12.782-14.371 15.3a4.684 4.684 0 0 1 -6.764-3.181 32.9 32.9 0 0 1 -.126-14.125c3.3-13.175 13.72-18.741 18.365-20.611a2.346 2.346 0 0 1 3.12 1.441 33.983 33.983 0 0 1 -.224 21.176z" fill="#343b5d"/><path d="m200.55 31.378c-.745 5.38.151 11.983 7.757 14.922.019.007.037.012.056.02a42.856 42.856 0 0 1 6.093-7l-6.769-14.081a29.477 29.477 0 0 0 -7.137 6.139z" fill="#ef6383"/><path d="m279.609 128.688a77.387 77.387 0 0 1 -8.524 1.728 22.436 22.436 0 0 0 2.069 9.281 12.466 12.466 0 0 0 4.109 5.152 45.91 45.91 0 0 0 10.5-2.835z" fill="#ef6383"/><path d="m294.339 138.719s31.292-7.489 35.688-35.021a2.325 2.325 0 0 0 -3.686-2.252 36.42 36.42 0 0 1 -14.548 6.606s-11.625 2.028-15.36 12.3z" fill="#ef6383"/><path d="m287.764 142.014s6.2-1.271 11.468-8.169a9.829 9.829 0 0 0 .974-10.5c-3.883-7.448-10.409-24.372 6.017-42.728a2.32 2.32 0 0 0 -2.057-3.839c-9.867 1.356-27.812 8.638-22.207 44.336a9.043 9.043 0 0 1 -2.35 7.575 15.056 15.056 0 0 0 8.155 13.325z" fill="#ff9fb7"/><path d="m214.021 21.5s23.268-22.22 48.779-10.976a2.325 2.325 0 0 1 -.108 4.318 36.419 36.419 0 0 0 -13.442 8.637s-8.01 8.665-18.669 6.228z" fill="#ef6383"/><path d="m207.687 25.239s4.43-4.517 13.083-5.2a9.829 9.829 0 0 1 9.35 4.879c4.15 7.3 14.826 21.965 39.156 18.126a2.32 2.32 0 0 1 2.106 3.815c-6.5 7.553-22.345 18.667-49.287-5.4a9.043 9.043 0 0 0 -7.639-2.135 15.054 15.054 0 0 1 -6.769-14.085z" fill="#ff9fb7"/></svg>