<svg id="flat" height="512" viewBox="0 0 340 340" width="512" xmlns="http://www.w3.org/2000/svg"><path d="m156.4 36.28a56.6 56.6 0 0 0 -3.261 6.932s-22 1.83-32.453 21.613a34.309 34.309 0 0 1 -14.38 14.229c-8.722 4.617-19.8 15.385-20.094 40.323 0 0-24.605 13.759-17.224 54.545 0 0-14.573 30.957-1.381 55.036 6.266 11.437 14.441 17.109 21.3 19.912a45.845 45.845 0 0 1 18.3 13.243c4.153 5.081 11.862 9.808 26.1 8.43a32.007 32.007 0 0 1 19.1 4.068c6.784 3.907 19.306 7.546 41.224 3.977 0 0 10.46 9.09 29.673 1.936a48.286 48.286 0 0 1 19.8-3.074c8.3.51 20.06-1.352 27.655-13.6 0 0 37.4 4.5 31.987-49.345 0 0 30.709-24.436-8.434-72.434a34.318 34.318 0 0 1 -7.734-21.106c-.213-13.3-5.413-35.369-34.519-48.757 0 0-2.953-25.553-32.971-27.027a27.514 27.514 0 0 0 -1.7-5.762c-10.6-26.345-47.14-27.929-60.988-3.139z" fill="#f29251"/><path d="m27.741 127.951s-8.763 21.192 10.994 35.213c0 0 17.048-24.858-10.994-35.213z" fill="#cc4729"/><path d="m68.191 274.391s-6.5 23.083 18.245 26.124c0 0 8.155-22.668-18.245-26.124z" fill="#cc4729"/><path d="m243.816 291.655s-6.882 19.128 17.551 25.192c0 0 7.646-23.015-17.551-25.192z" fill="#cc4729"/><path d="m291.864 225.563s-4.355 24.575 18.816 29.083c0 0 5.599-28.461-18.816-29.083z" fill="#cc4729"/><path d="m308.814 105s-21.46.356-28.614 23.683c0-.002 33.746 9.962 28.614-23.683z" fill="#cc4729"/><g fill="#843331"><path d="m115.207 139.222a9.063 9.063 0 0 1 6.043 9.28c-1.2 25.435 17.4 29.185 17.583 29.22a3.043 3.043 0 0 0 .55.051 3 3 0 0 0 .568-5.946c-.5-.1-11-2.421-12.555-17.2 11.152-9.9 9.867-23.717 9.8-24.313a3 3 0 0 0 -5.969.609 24.668 24.668 0 0 1 -4.1 15.006 15.2 15.2 0 0 0 -10.107-12.429 3 3 0 1 0 -1.813 5.72z"/><path d="m127.3 185.937a75.693 75.693 0 0 0 20.072-2.917 3 3 0 1 0 -1.59-5.785c-30.378 8.352-43.257-5.212-43.813-5.816a3 3 0 0 0 -4.467 4c.479.548 9.661 10.518 29.798 10.518z"/><path d="m157.489 238.087c-14.218 2.655-24.2 1.661-31.582-1.181l-.012-.015c-8.089-8-1.856-17.783-1.591-18.188 7.629-11.507 1.011-19.209.726-19.531a3.022 3.022 0 0 0 -4.251-.275 2.981 2.981 0 0 0 -.271 4.218c.157.19 3.793 4.735-1.2 12.269a22.121 22.121 0 0 0 -3.176 15.733 42.769 42.769 0 0 1 -4.6-4.561c-.025-.03-.041-.065-.067-.095-.064-.073-.133-.139-.2-.21q-.48-.556-.942-1.117a57.021 57.021 0 0 0 -16.702-14.134 3 3 0 0 0 -2.689 5.363 47.329 47.329 0 0 1 9.5 7c-.249.081-.5.17-.74.271-13.224 5.459-20.761-3.266-21.1-3.666a3 3 0 0 0 -4.639 3.806c3.584 4.391 14.053 11.171 28.026 5.407a4.366 4.366 0 0 1 4.837 1.1c6.653 7.678 16.645 15.339 35.472 15.339a89.034 89.034 0 0 0 16.3-1.637 3 3 0 0 0 -1.1-5.9z"/><path d="m156.511 115.005c-12.015-10.012-8.718-24.7-8.565-25.343a3 3 0 0 0 -5.832-1.413c-.148.612-2.826 12.17 3.549 23.138-24.873-8.269-22.373-22.546-22.233-23.245a3 3 0 0 0 -5.862-1.285c-.2.915-4.6 22.53 32.055 31.937.228.057 4.179 1.549 4.488 1.626 7.216 3.219 20.538 11.955 20.538 32.586a3 3 0 0 0 6 0c0-23.706-15.602-34.093-24.138-38.001z"/><path d="m183.786 120.334.523-21.031c.051-.994.083-1.961.106-2.916a25.014 25.014 0 0 1 8.071-15.474 42.516 42.516 0 0 0 12.974-22.945 3 3 0 0 0 -5.925-.949 37.016 37.016 0 0 1 -11.045 19.418 30.777 30.777 0 0 0 -4.79 5.463c-1.535-11.811-4.9-18.147-5.1-18.513a3 3 0 0 0 -5.273 2.863c.058.108 5.5 10.52 5.1 29.711a25.211 25.211 0 0 0 -.113 3.257l-.522 20.972a3 3 0 0 0 2.925 3.073h.075a3 3 0 0 0 2.994-2.929z"/><path d="m197.358 145.542c3.9-3.563 10.174-6.569 13.013-7.169a67.953 67.953 0 0 0 19.148-7.022l4.434-2.481a3 3 0 1 0 -2.929-5.236l-4.435 2.481a61.663 61.663 0 0 1 -16.917 6.263c1.064-.978 2.183-1.978 3.38-3.009a19.574 19.574 0 0 0 6.682-12.948c4.037-20.584 22.175-31.179 22.441-31.332a3 3 0 0 0 -2.956-5.221 57.879 57.879 0 0 0 -21.019 22.732c-.7-6.4-.662-13.432 1.4-19.1a3 3 0 0 0 -5.639-2.05c-3.454 9.5-2.117 21.741-.388 30.333a13.642 13.642 0 0 1 -4.427 13.034 126.135 126.135 0 0 0 -17.716 18.537c-9.565 12.09-10.673 26.663-8.717 35.468a3 3 0 0 0 2.926 2.349 3.043 3.043 0 0 0 .653-.071 3 3 0 0 0 2.279-3.58c-1.346-6.055-1.266-19.28 7.564-30.443q.594-.756 1.223-1.535z"/><path d="m270.3 161.14a3 3 0 1 0 -4.7-3.725c-4.922 6.213-13.39 13.74-24.583 19.8 7.558-8.574 12.042-18.237 13.219-28.612a22.78 22.78 0 0 1 14.558-14.331 3 3 0 0 0 -1.454-5.821 27.941 27.941 0 0 0 -12.381 7.679 30.4 30.4 0 0 1 6.292-14.209l2.03-2.514a3 3 0 0 0 -4.667-3.769l-2.031 2.514a36.81 36.81 0 0 0 -8.036 23.906c.8 37.558-45.562 53.173-46.115 53.354a3 3 0 1 0 1.855 5.706 97.09 97.09 0 0 0 22.185-11.265c26.002-8.153 40.107-24.02 43.828-28.713z"/><path d="m236.71 220.493c17.926-7.972 19.587-26.087 19.65-26.885a3 3 0 0 0 -5.979-.486c-.054.62-1.379 14.076-14.224 20.963a38.131 38.131 0 0 1 1.779-13 3 3 0 0 0 -5.579-2.21c-.127.322-3.126 8.027-1.933 20.032 0 .038.011.077.016.116l.009.064c0 .025.007.05.011.075.153.826 3.574 20.307-11.2 27.54a3 3 0 1 0 2.639 5.389c13.801-6.763 15.795-22.425 14.811-31.598z"/><path d="m275.815 238.509a3 3 0 0 0 -4.143.911c-9.8 15.322-42.083 9.742-42.407 9.685a3 3 0 0 0 -1.062 5.905 88.165 88.165 0 0 0 14.372 1.152c11.561 0 27-2.32 34.152-13.509a3 3 0 0 0 -.912-4.144z"/></g><path d="m179.916 103.605c-2.623 15.484-7.509 51.252-3.123 82.648 0 0-7.615-7.616-23.456-11.271a59.964 59.964 0 0 1 -20.225-8.471 1.39 1.39 0 0 0 -2.051 1.71c2.129 5.062 8.068 13.688 24.561 20.164 24.827 9.748 23.3 53 23.3 53s-20.2-1.725-34.239-17.36a1.391 1.391 0 0 0 -2.341 1.421 55.5 55.5 0 0 0 28.723 30.508 15.839 15.839 0 0 1 8.791 11.574c1.916 10.7 4.138 29.218.285 44.223a19.023 19.023 0 0 1 -8.225 9.613h45.284s-15.123-19.665-7.507-47.69c0 0 4.874-14.926 23.151-20.409 0 0 21.333-9.6 24.578-30.8a1.393 1.393 0 0 0 -2.415-1.157c-5.6 6.326-19.022 19.6-35.566 22.814 0 0-11.88 3.046-18.582 12.489 0 0-4.077-23.02-1.8-45.02a14.327 14.327 0 0 1 7.25-11.064c8.985-4.987 24.687-17.441 23.612-43.237a1.393 1.393 0 0 0 -2.622-.583c-3.8 7.276-12.438 21.227-25.092 26.823a7.955 7.955 0 0 1 -11.088-7.058c-.387-11.286-2.091-33.722-8.451-72.851a1.393 1.393 0 0 0 -2.752-.016z" fill="#aa473c"/><path d="m274.315 147.1s-24.881 12.236-5.754 36.962c0-.001 19.906-14.21 5.754-36.962z" fill="#cc4729"/><path d="m191.569 42.9s-8.044 21.3 16.238 29.5c0-.009 5.679-27.041-16.238-29.5z" fill="#cc4729"/><path d="m89.568 160.226s-1.922 26.341 23.609 26.066c0 0 3.478-27.15-23.609-26.066z" fill="#cc4729"/></svg>