<svg id="Flat" height="512" viewBox="0 0 340 340" width="512" xmlns="http://www.w3.org/2000/svg"><path d="m232.532 221.266a328.81 328.81 0 0 0 -108.81-4.952c-22.28 2.659-50.714 6.953-76.4 13.559v63.986c25.748 6.624 54.262 10.923 76.568 13.58a328.507 328.507 0 0 0 108.638-4.972l21.499-5.467c35.66-10.457 56.093-23.814 64.918-30.653a5.673 5.673 0 0 0 -.025-8.974c-8.838-6.845-29.266-20.187-64.893-30.634z" fill="#ff7a4e"/><path d="m47.327 293.855v-63.978c-14 3.6-27.178 7.885-38.1 12.968l6.807 19.021-6.804 19.021c10.919 5.084 24.101 9.368 38.097 12.968z" fill="#f2c370"/><path d="m232.529 221.279v81.175c1.866-.406 3.732-.816 5.593-1.256q8.415-1.99 15.9-4.2v-70.258q-7.5-2.2-15.9-4.205c-1.861-.435-3.722-.85-5.593-1.256z" fill="#f2c370"/><path d="m79.79 222.854-28.21 72.069c24.6 6.022 51.229 10 72.314 12.516q16.583 1.975 33.256 2.3l7.032-42.88-6.457-52.876a337.942 337.942 0 0 0 -34 2.332c-13.119 1.564-28.37 3.702-43.935 6.539z" fill="#f14f2a"/><path d="m202.623 307.476v-91.217q-8.881-1.063-17.806-1.65v21.014l-1.8 73.6q9.826-.574 19.606-1.747z" fill="#f14f2a"/><path d="m186.731 136.085-1.109-.3a10.053 10.053 0 0 1 -7.417-9.7v-18.877l-28.18-10.041v26.873a10.051 10.051 0 0 1 -10.052 10.052 28.682 28.682 0 0 0 -19.434 7.586c-11.958 11.01-33.1 32.933-43.544 58.6a25.1 25.1 0 0 0 -1.793 9.468 25.864 25.864 0 0 0 6.577 17.238c8.825 9.876 23.912 26.676 28.405 31.169v12.633a9.069 9.069 0 0 0 9.07 9.069h1.3a9.393 9.393 0 0 0 9.394-9.393v-17.494h65.752v-37.484c5 .475 10.329 1.148 15.889 1.957v-48.847a33.688 33.688 0 0 0 -24.858-32.509zm-59.453 106.76-21.965-26.245a9.818 9.818 0 0 1 0-12.6l21.965-26.249z" fill="#f9beac"/><path d="m150.025 124.04a10.066 10.066 0 0 1 -.469 3.038l28.649-8.721v-11.149l-28.18-10.041z" fill="#e5897a"/><path d="m129.943 249.968h65.754v78.082h-65.754z" fill="#88b5ea"/><path d="m196.782 80.471s10.77-2.485 14.021-19.556a40.585 40.585 0 0 0 -2.1-23.09c-3.345-8.1-10.36-17.271-25.024-18.03 0 0-28.082-13.479-52.987 8.055a45.061 45.061 0 0 0 -14.756 24.082 41.134 41.134 0 0 0 -.987 10.634 31.913 31.913 0 0 0 12.5 24.5 23.331 23.331 0 0 0 15.775 4.9z" fill="#313847"/><path d="m188.875 51.956s-2.9 12.466-14.221 18.608l-5.424-9.491s-11.274 21.007-34.055 19.857v7.126a11.192 11.192 0 0 0 8.76 11.018 18.492 18.492 0 0 0 4.728.339s3.479 8.489 15.217 12.794c11.127 4.081 23.8 1.471 31.617-7.439a27.453 27.453 0 0 0 5.477-9.62 29.811 29.811 0 0 0 1.378-8.529c.202-7.762-.837-25.47-13.477-34.663z" fill="#f9beac"/><circle cx="278.714" cy="64.008" fill="#ff7a4e" r="29.517"/><g fill="#e5897a"><path d="m202.623 216.243v-33.761a10.917 10.917 0 0 0 -4.368-8.734 1.468 1.468 0 0 0 -2.657.86l.1 42.876v-2c2.241.216 4.558.472 6.925.759z"/><path d="m127.278 242.845s2.665 2.733 2.665 10.123h8.248v-79.531a3.1 3.1 0 0 0 -5.451-2.025l-5.462 6.335z"/><path d="m174.654 70.564-5.424-9.491a43.536 43.536 0 0 1 -9.489 11.235c-.261.221-.533.44-.805.659-.108.087-.212.174-.322.261-.24.189-.489.375-.737.561-.152.115-.3.23-.456.343-.233.171-.475.337-.715.5-.179.125-.357.25-.54.373-.234.158-.476.312-.717.466-.2.128-.4.256-.6.381-.238.146-.481.288-.724.43-.219.127-.437.254-.661.378-.241.134-.487.265-.733.394s-.474.248-.716.368-.5.241-.747.359-.508.235-.766.348-.506.218-.763.324-.542.218-.817.322c-.257.1-.515.194-.777.287-.286.1-.576.2-.868.29-.262.085-.524.169-.791.248-.3.09-.613.172-.922.254-.266.07-.531.141-.8.206-.322.077-.652.144-.98.212-.269.055-.536.113-.809.162-.344.062-.695.113-1.046.164-.269.04-.535.084-.808.117-.374.046-.757.078-1.139.111-.259.023-.514.052-.777.069-.432.028-.875.039-1.316.051-.223.006-.44.02-.665.022-.671 0-1.352-.008-2.045-.043v7.126a11.192 11.192 0 0 0 8.76 11.018 18.492 18.492 0 0 0 4.728.339s2.95 7.143 12.5 11.646c-5.858-4.3-5.726-11.962-5.726-11.962v-9.638a13.158 13.158 0 0 1 2.6-8.006 14.65 14.65 0 0 1 2.883-2.8 29.585 29.585 0 0 0 5.844-5.9.787.787 0 0 1 1.315.072l1.455 2.482a1.525 1.525 0 0 0 1.677.723c17.085-4.345 17.659-24.065 17.659-24.065s-2.896 12.462-14.22 18.604z"/><path d="m164.069 194.476a9.414 9.414 0 0 0 7.159-9.193v-13.176a3.284 3.284 0 0 0 -6.567 0v13.176a2.9 2.9 0 0 1 -2.151 2.814 26.941 26.941 0 0 1 -12.736-.284 3.283 3.283 0 0 0 -1.954 6.268 33.019 33.019 0 0 0 9.082 1.226 30.3 30.3 0 0 0 7.167-.831z"/><path d="m191.918 189.952a3.284 3.284 0 0 0 -4.018-2.326 19.588 19.588 0 0 1 -10.166.06 3.283 3.283 0 0 0 -2.111 6.217 23.3 23.3 0 0 0 7 .977 27.023 27.023 0 0 0 6.967-.91 3.283 3.283 0 0 0 2.328-4.018z"/><path d="m169 206.739a3.283 3.283 0 0 0 -3.283 3.283v6.213h-5.875a3.283 3.283 0 0 0 0 6.566h5.875v6.213a3.283 3.283 0 0 0 6.566 0v-18.992a3.283 3.283 0 0 0 -3.283-3.283z"/><path d="m182.717 216.235h-4.523a3.283 3.283 0 0 0 0 6.566h4.523a3.283 3.283 0 0 0 0-6.566z"/><rect height="6.063" rx="3.032" transform="matrix(.901 .434 -.434 .901 80.286 -53.603)" width="14.807" x="150.105" y="145.955"/><rect height="6.063" rx="3.032" transform="matrix(-.901 .434 -.434 -.901 406.903 205.053)" width="14.807" x="172.635" y="145.955"/></g><path d="m278.71 19.95a3.981 3.981 0 0 1 -2.82-1.17 4.049 4.049 0 0 1 -.87-1.3 3.956 3.956 0 0 1 -.23-.74 3.891 3.891 0 0 1 0-1.57 4.3 4.3 0 0 1 .23-.75 3.828 3.828 0 0 1 .37-.69 3.188 3.188 0 0 1 .5-.6 3.972 3.972 0 0 1 5.65 0 3.62 3.62 0 0 1 .5.6 4.579 4.579 0 0 1 .37.69 5.371 5.371 0 0 1 .23.75 4.436 4.436 0 0 1 0 1.57 4.87 4.87 0 0 1 -.23.74 3.782 3.782 0 0 1 -.37.69 4 4 0 0 1 -1.11 1.11 4.143 4.143 0 0 1 -.69.37 4.87 4.87 0 0 1 -.74.23 4.146 4.146 0 0 1 -.79.07z" fill="#ff7a4e"/><path d="m278.71 116.06a4.023 4.023 0 0 1 -2.82-1.17 3.605 3.605 0 0 1 -.5-.61 4.033 4.033 0 0 1 -.6-1.44 3.843 3.843 0 0 1 0-1.56 4.033 4.033 0 0 1 .6-1.44 3.605 3.605 0 0 1 .5-.61 4 4 0 0 1 5.65 0 4.161 4.161 0 0 1 .5.61 4.579 4.579 0 0 1 .37.69 4.659 4.659 0 0 1 .23.75 4.381 4.381 0 0 1 0 1.56 4.659 4.659 0 0 1 -.23.75 4.579 4.579 0 0 1 -.37.69 4.161 4.161 0 0 1 -.5.61 4.029 4.029 0 0 1 -2.83 1.17z" fill="#ff7a4e"/><path d="m326.77 68.01a4.047 4.047 0 0 1 -.78-.08 3.832 3.832 0 0 1 -.75-.23 3.519 3.519 0 0 1 -.69-.37 3.639 3.639 0 0 1 -.61-.49 4.161 4.161 0 0 1 -.5-.61 4.579 4.579 0 0 1 -.37-.69 4.019 4.019 0 0 1 -.22-.75 3.445 3.445 0 0 1 -.08-.78 3.987 3.987 0 0 1 1.17-2.83 3.694 3.694 0 0 1 .61-.5 4.143 4.143 0 0 1 .69-.37 3.809 3.809 0 0 1 .75-.22 3.728 3.728 0 0 1 1.56 0 4.019 4.019 0 0 1 .75.22 4.579 4.579 0 0 1 .69.37 3.62 3.62 0 0 1 .6.5 4 4 0 0 1 1.18 2.83 4.129 4.129 0 0 1 -.08.78 4.053 4.053 0 0 1 -.23.75 3.828 3.828 0 0 1 -.37.69 3.605 3.605 0 0 1 -.5.61 3.565 3.565 0 0 1 -.6.49 3.828 3.828 0 0 1 -.69.37 4.053 4.053 0 0 1 -.75.23 4.129 4.129 0 0 1 -.78.08z" fill="#ff7a4e"/><path d="m230.66 68.01a4.129 4.129 0 0 1 -.78-.08 4.033 4.033 0 0 1 -1.44-.6 3.914 3.914 0 0 1 -1.78-3.32 4.029 4.029 0 0 1 1.17-2.83 4.919 4.919 0 0 1 .61-.5 4.579 4.579 0 0 1 .69-.37 3.809 3.809 0 0 1 .75-.22 3.992 3.992 0 0 1 4.78 3.92 3.995 3.995 0 0 1 -4 4z" fill="#ff7a4e"/><path d="m312.69 34.03a4.129 4.129 0 0 1 -.78-.08 4.053 4.053 0 0 1 -.75-.23 3.828 3.828 0 0 1 -.69-.37 3.914 3.914 0 0 1 -1.78-3.32 4 4 0 0 1 6.83-2.83 4.919 4.919 0 0 1 .5.61 4.579 4.579 0 0 1 .37.69 3.809 3.809 0 0 1 .22.75 3.445 3.445 0 0 1 .08.78 4.021 4.021 0 0 1 -1.17 2.83 3.639 3.639 0 0 1 -.61.49 3.519 3.519 0 0 1 -.69.37 3.832 3.832 0 0 1 -.75.23 4.047 4.047 0 0 1 -.78.08z" fill="#ff7a4e"/><path d="m244.73 101.99a4.023 4.023 0 0 1 -2.82-1.17 4.161 4.161 0 0 1 -.5-.61 4.579 4.579 0 0 1 -.37-.69 4.3 4.3 0 0 1 -.23-.75 4.114 4.114 0 0 1 -.07-.78 4.219 4.219 0 0 1 .07-.79 3.956 3.956 0 0 1 .23-.74 4.143 4.143 0 0 1 .37-.69 3.694 3.694 0 0 1 .5-.61 4 4 0 0 1 3.61-1.09 3.922 3.922 0 0 1 .74.22 3.782 3.782 0 0 1 .69.37 4 4 0 0 1 1.11 1.11 4.143 4.143 0 0 1 .37.69 4.87 4.87 0 0 1 .23.74 4.219 4.219 0 0 1 .07.79 4.114 4.114 0 0 1 -.07.78 5.371 5.371 0 0 1 -.23.75 4.579 4.579 0 0 1 -.37.69 4.161 4.161 0 0 1 -.5.61 3.639 3.639 0 0 1 -.61.49 3.256 3.256 0 0 1 -.69.37 3.956 3.956 0 0 1 -.74.23 4.15 4.15 0 0 1 -.79.08z" fill="#ff7a4e"/><path d="m312.69 101.99a4.031 4.031 0 0 1 -2.83-1.18 3.565 3.565 0 0 1 -.49-.6 3.828 3.828 0 0 1 -.37-.69 4.053 4.053 0 0 1 -.23-.75 4.129 4.129 0 0 1 -.08-.78 3.995 3.995 0 0 1 4-4 3.995 3.995 0 0 1 4 4 3.445 3.445 0 0 1 -.08.78 4.252 4.252 0 0 1 -.22.75 4.579 4.579 0 0 1 -.37.69 4.188 4.188 0 0 1 -.5.6 4 4 0 0 1 -2.83 1.18z" fill="#ff7a4e"/><path d="m244.73 34.03a3.995 3.995 0 0 1 -3.99-4 4.114 4.114 0 0 1 .07-.78 3.832 3.832 0 0 1 .23-.75 4.579 4.579 0 0 1 .37-.69 3.694 3.694 0 0 1 .5-.61 4.01 4.01 0 0 1 3.61-1.09 3.956 3.956 0 0 1 .74.23 3.75 3.75 0 0 1 .69.36 4.279 4.279 0 0 1 .61.5 3.694 3.694 0 0 1 .5.61 4.579 4.579 0 0 1 .37.69 4.659 4.659 0 0 1 .23.75 4.114 4.114 0 0 1 .07.78 4.021 4.021 0 0 1 -1.17 2.83 3.639 3.639 0 0 1 -.61.49 3.256 3.256 0 0 1 -.69.37 3.956 3.956 0 0 1 -.74.23 4.15 4.15 0 0 1 -.79.08z" fill="#ff7a4e"/><path d="m173.28 88.59a4.029 4.029 0 0 1 -2.83-1.17 4.161 4.161 0 0 1 -.5-.61 4.579 4.579 0 0 1 -.37-.69 4.659 4.659 0 0 1 -.23-.75 4.114 4.114 0 0 1 -.07-.78 3.992 3.992 0 0 1 4.78-3.92 4.3 4.3 0 0 1 .75.23 4.524 4.524 0 0 1 .69.36 4.82 4.82 0 0 1 .6.5 4.014 4.014 0 0 1 1.18 2.83 4.129 4.129 0 0 1 -.08.78 4.033 4.033 0 0 1 -.6 1.44 3.605 3.605 0 0 1 -.5.61 4.013 4.013 0 0 1 -.6.49 3.828 3.828 0 0 1 -.69.37 4.3 4.3 0 0 1 -.75.23 4.129 4.129 0 0 1 -.78.08z" fill="#313847"/><path d="m188.03 88.59a4.047 4.047 0 0 1 -.78-.08 4.033 4.033 0 0 1 -1.44-.6 4.093 4.093 0 0 1 -.61-.49 4.919 4.919 0 0 1 -.5-.61 4.524 4.524 0 0 1 -.36-.69 3.832 3.832 0 0 1 -.23-.75 3.445 3.445 0 0 1 -.08-.78 4.065 4.065 0 0 1 1.17-2.83 4.919 4.919 0 0 1 .61-.5 3.778 3.778 0 0 1 .69-.36 3.832 3.832 0 0 1 .75-.23 3.992 3.992 0 0 1 4.78 3.92 4.129 4.129 0 0 1 -.08.78 4.033 4.033 0 0 1 -.6 1.44 3.914 3.914 0 0 1 -3.32 1.78z" fill="#313847"/><path d="m173.744 279.627a4 4 0 0 0 -5.217 2.188l-2.692 6.584a22.135 22.135 0 0 0 -1.653 8.414v31.237h8v-31.237a14.15 14.15 0 0 1 1.059-5.386l2.692-6.583a4 4 0 0 0 -2.189-5.217z" fill="#3e7bad"/><path d="m129.943 249.968h8.248v78.082h-8.248z" fill="#3e7bad"/><path d="m129.943 260.472h51.681a3.193 3.193 0 0 1 3.193 3.193 3.193 3.193 0 0 1 -3.193 3.193h-51.681a0 0 0 0 1 0 0v-6.385a0 0 0 0 1 0-.001z" fill="#3e7bad"/></svg>