<svg id="Flat" height="512" viewBox="0 0 340 340" width="512" xmlns="http://www.w3.org/2000/svg"><path d="m62.585 215.953 13.855 32.529 6.111-4.743c-7.466-14.17-10.773-21.88-10.592-38.194-3.921 2.838-7.37 6.055-9.374 10.408z" fill="#ffc48c"/><path d="m277.415 215.953-13.883 32.187-6.111-4.743c7.466-14.17 10.773-21.88 10.592-38.194a28.279 28.279 0 0 1 9.402 10.75z" fill="#ffc48c"/><path d="m218.052 13.972a34.761 34.761 0 0 0 -15.469-5.079c-14.475-1.172-32.583-.91-32.583-.91s-18.108-.262-32.583.91a34.8 34.8 0 0 0 -23.217 11.597 64.506 64.506 0 0 0 -16.369 39.143 100.826 100.826 0 0 1 4.677 15.174l67.492-3.553 57.574-10.529z" fill="#5b5b81"/><path d="m186.649 8.108c3.511 5.134 16.825 27.706 12.712 69.2l9 .521c3.45-35.564-4.956-58.274-10.787-69.279-3.674-.214-7.424-.35-10.925-.442z" fill="#333353"/><path d="m153.351 8.108c-3.5.089-7.246.228-10.925.441-5.831 11.005-14.237 33.715-10.787 69.279l9-.521c-4.115-41.507 9.205-64.072 12.712-69.199z" fill="#333353"/><path d="m218.05 13.975c-8.668 18.5-36.018 51.4-120.217 45.658a76.358 76.358 0 0 0 1.487 20.067l70.68-4.1 70.68 4.1c5.879-28.973-5.352-48.481-14.878-59.212a34.9 34.9 0 0 0 -7.752-6.513z" fill="#333353"/><path d="m161.55 148.44h16.899v95.299h-16.899z" fill="#75212c"/><path d="m32.713 107.974c7.164-5.216 29.026-20.159 56.133-29.41l-2.846 17.748s-30.1 8.968-46.938 20.777a5.537 5.537 0 0 1 -5.528.535c-.039-.018-.079-.037-.118-.057a5.643 5.643 0 0 1 -.703-9.593z" fill="#bc5e66"/><path d="m132.556 210.818a76.511 76.511 0 0 0 2.277 30.561l11.04-3.768s-3.53-19.413 0-32.408z" fill="#75212c"/><path d="m101.9 228.42s.73 15.487 6.721 29.221l9.789-5.406s-4.676-18.848-3.653-33.02z" fill="#75212c"/><path d="m72.882 254.9s1.762 9.082 8.053 22.415l11.284-7.8s-6.671-13.327-7.911-27.74z" fill="#75212c"/><path d="m72.882 254.9s37.028-42.418 97.118-50.933v-13.718s-57.532 5.845-96.069 49.527a10.934 10.934 0 0 0 -2.637 8.859 33.969 33.969 0 0 0 1.588 6.265z" fill="#bc5e66"/><path d="m92.219 297.457s32.66-28.057 77.781-37.243v61.327h-55.186s-14.153-8.941-22.595-24.084z" fill="#bc5e66"/><path d="m153.025 321.541h16.975v-61.327a160.714 160.714 0 0 0 -16.975 4.461z" fill="#75212c"/><path d="m96.306 303.8a93.734 93.734 0 0 1 -15.371-26.487s30.356-36.664 89.065-48.213v33.148l-16.975 9.682c-15.025 5.079-37.498 14.81-56.719 31.87z" fill="#d2e8ff"/><path d="m207.444 210.818a76.511 76.511 0 0 1 -2.277 30.561l-11.04-3.768s3.53-19.413 0-32.408z" fill="#75212c"/><path d="m238.105 228.42s-.73 15.487-6.721 29.221l-9.789-5.406s4.676-18.848 3.653-33.02z" fill="#75212c"/><path d="m267.118 254.9s-1.762 9.082-8.053 22.415l-11.284-7.8s6.671-13.327 7.911-27.74z" fill="#75212c"/><path d="m267.118 254.9s-37.028-42.418-97.118-50.933v-13.718s57.532 5.845 96.069 49.527a10.934 10.934 0 0 1 2.637 8.859 33.969 33.969 0 0 1 -1.588 6.265z" fill="#bc5e66"/><path d="m247.781 297.457s-32.66-28.057-77.781-37.243v61.327h55.186s14.153-8.941 22.595-24.084z" fill="#bc5e66"/><path d="m186.975 264.675a160.714 160.714 0 0 0 -16.975-4.461v61.327h16.975z" fill="#75212c"/><path d="m243.694 303.8a93.734 93.734 0 0 0 15.371-26.487s-30.356-36.664-89.065-48.213v32.684l16.975 10.146c15.025 5.079 37.498 14.81 56.719 31.87z" fill="#d2e8ff"/><path d="m307.287 107.974c-7.164-5.216-29.026-20.159-56.133-29.41l2.846 17.748s30.1 8.968 46.938 20.777a5.537 5.537 0 0 0 5.528.535c.039-.018.079-.037.118-.057a5.643 5.643 0 0 0 .703-9.593z" fill="#bc5e66"/><path d="m251.154 78.564a176.747 176.747 0 0 0 -19.682-5.059c-4.116.948-8.416.286-12.929-2.252a369.844 369.844 0 0 0 -48.543-3.81 369.844 369.844 0 0 0 -48.543 3.81c-3.872 2.833-8.27 3.165-12.929 2.252a176.747 176.747 0 0 0 -19.682 5.059s-26.371 23.7-34.394 63.8c0 0 33.452 27.5 110.516 20.541 90.311-8.154 86.186-84.341 86.186-84.341z" fill="#5b5b81"/><path d="m277.415 215.953c34.058-83.179-26.261-137.389-26.261-137.389l-.455-.145c-19.429 22.88-78.482 76.72-196.24 63.95-4.112 20.55-3.414 45.4 8.126 73.584 0 0 35.542-49.283 107.415-49.283s107.415 49.283 107.415 49.283z" fill="#333353"/><path d="m170 290.9-.018-.018-9.459 9.528a18.177 18.177 0 0 1 -25.3 0l-9.461-9.529-9.457 9.526a18.219 18.219 0 0 1 -19.789 3.685 77.881 77.881 0 0 0 17.264 16.758h56.22z" fill="#75212c"/><path d="m135.626 103.157a4.4 4.4 0 0 0 -3.7-.114c-4.11 1.736-13.84 4.84-13.824-4.7 0 0-.537-5.589 7.367-6.089 0 0-3.154-7.856 3.5-9.178 4.909-.976 7.135 4.448 7.965 7.36a4.388 4.388 0 0 0 2.173 2.675c8.174 4.337 42.8 23.336 61.063 43.231a4.421 4.421 0 0 0 5.18 1.045c2.712-1.319 6.917-2.444 10.3.734 5.472 5.134.806 12.247-6.486 10.315 0 0 1.957 7.6-7.043 7.46-6.365-.1-6.434-5.747-5.928-9.046a4.376 4.376 0 0 0 -1.614-4.06c-7.69-6.179-34.846-27.461-58.953-39.633z" fill="#fff"/><path d="m200.505 102.762a4.406 4.406 0 0 1 3.805-.073c4.125 1.852 13.741 5.154 13.725-4.342 0 0 .537-5.589-7.367-6.089 0 0 3.267-8.7-3.5-9.178-5.938-.418-7.8 4.831-8.384 7.875a4.468 4.468 0 0 1 -2.3 3.143c-8.273 4.341-39.872 21.6-60.361 42.191a4.44 4.44 0 0 1 -4.963.9c-2.782-1.232-7.211-2.316-10.678.937-5.472 5.134-.806 12.247 6.487 10.315 0 0-1.958 7.6 7.042 7.46 6.376-.1 6.889-5.445 6.646-8.554a4.488 4.488 0 0 1 1.528-3.785c7.191-6.145 34.015-28.462 58.32-40.8z" fill="#fff"/><path d="m170 320.847h56.219a77.883 77.883 0 0 0 17.274-16.772 18.217 18.217 0 0 1 -19.826-3.666l-9.465-9.531-9.46 9.529a18.178 18.178 0 0 1 -25.3 0l-9.442-9.507z" fill="#75212c"/><path d="m231.471 73.506c-4.315-.869-8.657-1.614-12.928-2.252a132.4 132.4 0 0 1 18.857 33.192c10.431 26.309 12.822 54.138 7.161 82.9 2.882 1.772 5.576 3.571 8.077 5.361 8.559-39.642 1.124-71.708-7.076-92.226a148.053 148.053 0 0 0 -14.091-26.975z" fill="#333353"/><path d="m121.457 71.254c-4.272.638-8.613 1.383-12.928 2.252a148.053 148.053 0 0 0 -14.09 26.972c-8.2 20.522-15.639 52.584-7.076 92.222 2.5-1.79 5.2-3.589 8.077-5.361-5.661-28.759-3.27-56.588 7.161-82.9a132.353 132.353 0 0 1 18.856-33.185z" fill="#333353"/><path d="m167.088 86.636a27.238 27.238 0 0 0 -17.973 46v7.858a7.951 7.951 0 0 0 7.951 7.951h.551a1.1 1.1 0 0 0 1.1-1.1v-7.695a3.115 3.115 0 0 1 2.839-3.165 3 3 0 0 1 3.161 3v7.857a1.1 1.1 0 0 0 1.1 1.1h4.494a1.1 1.1 0 0 0 1.1-1.1v-7.692a3.115 3.115 0 0 1 2.839-3.165 3 3 0 0 1 3.161 3v7.857a1.1 1.1 0 0 0 1.1 1.1 7.95 7.95 0 0 0 7.951-7.95v-5.915a27.241 27.241 0 0 0 -19.382-47.939z" fill="#fff"/><g fill="#96aef4"><circle cx="101.895" cy="279.857" r="3.5"/><circle cx="125.467" cy="263.714" r="3.5"/><circle cx="238.105" cy="279.857" r="3.5"/><circle cx="214.533" cy="263.714" r="3.5"/></g><path d="m153.025 207.376a152.352 152.352 0 0 1 16.975-3.409v-13.718a130.418 130.418 0 0 0 -16.975 3.293z" fill="#75212c"/><path d="m186.975 193.542a130.418 130.418 0 0 0 -16.975-3.293v13.718a152.352 152.352 0 0 1 16.975 3.409z" fill="#75212c"/><path d="m186.975 233.335c-5.375-1.625-11.019-3.065-16.975-4.235v38.075a143.961 143.961 0 0 1 16.975 4.755z" fill="#96aef4"/><path d="m153.025 271.928a143.961 143.961 0 0 1 16.975-4.755v-38.073c-5.956 1.172-11.6 2.612-16.975 4.237z" fill="#96aef4"/><path d="m169.48 183.13h1.04a7.929 7.929 0 0 1 7.929 7.929v110.017a0 0 0 0 1 0 0h-16.9a0 0 0 0 1 0 0v-110.016a7.929 7.929 0 0 1 7.929-7.929z" fill="#bc5e66"/><path d="m178.45 299.407-8.45-8.511-.018-.018-8.432 8.493v17.686h16.9z" fill="#75212c"/><path d="m324.774 316.73a17.783 17.783 0 0 1 -12.648-5.122l-9.47-9.535-9.465 9.532a18.176 18.176 0 0 1 -25.3 0l-9.465-9.531-9.465 9.531a18.175 18.175 0 0 1 -25.3 0l-9.465-9.531-9.46 9.529a18.178 18.178 0 0 1 -25.3 0l-9.46-9.529-9.458 9.528a18.178 18.178 0 0 1 -25.3 0l-9.461-9.529-9.457 9.526a18.175 18.175 0 0 1 -25.3 0l-9.456-9.525-9.454 9.526a18.177 18.177 0 0 1 -25.3 0l-9.46-9.528-9.46 9.528a17.779 17.779 0 0 1 -12.65 5.124h-5.22v15.317h320v-15.292z" fill="#74a9f7"/><path d="m189.66 114.1a15.934 15.934 0 0 1 -1.261 7.26 7.308 7.308 0 0 1 -10.311 3.228 17.768 17.768 0 0 1 -7.677-8.464 7.269 7.269 0 0 1 4.7-9.781 21.173 21.173 0 0 1 5.33-.832 8.968 8.968 0 0 1 9.219 8.589z" fill="#5b5b81"/><path d="m146.57 116.637a15.942 15.942 0 0 0 2.716 6.85 7.306 7.306 0 0 0 10.752 1.058 17.769 17.769 0 0 0 5.79-9.852 7.268 7.268 0 0 0 -6.592-8.617 21.142 21.142 0 0 0 -5.388.272 8.968 8.968 0 0 0 -7.278 10.289z" fill="#5b5b81"/><path d="m166.7 130.49 1.182-1.115a.948.948 0 0 1 1.281-.02l1.288 1.144a.947.947 0 0 0 1.57-.843 19.163 19.163 0 0 0 -2.74-7.542.964.964 0 0 0 -1.552-.076 12.562 12.562 0 0 0 -2.631 7.7.953.953 0 0 0 1.602.752z" fill="#5b5b81"/></svg>