<svg id="FLAT" height="512" viewBox="0 0 500 500" width="512" xmlns="http://www.w3.org/2000/svg"><path d="m123.671 477.885c-7.157-8.47-12.93-23.922-5.221-51.365a2.075 2.075 0 0 1 3.858-.354c3.428 6.944 10.842 18.933 22.275 21.982 0 0-21.081-49.77 11.568-71.14 22.5-14.725 26.545-31.629 27.164-39.158a2.071 2.071 0 0 1 3.455-1.393c4.351 4.008 10.7 12.843 5.43 27.627a8.62 8.62 0 0 0 2.087 9.255c2.76 2.522 7.736 3.885 16.6-.749 14.565-7.62 10.528-42.5 8.628-54.679a28.332 28.332 0 0 1 1.378-14.28c3.824-10.248 14.582-26.244 44.794-37.917 16.281-6.29 23.648-17.539 26.276-29.659a2.072 2.072 0 0 1 4.055.094c1.5 7.737.985 20.645-10.7 37.2-19.63 27.81-17.344 37.079-5.673 47.985 10.952 10.234 24.14 32.1 18.367 55.38a11.5 11.5 0 0 0 5.575 13.109c3.231 1.656 7.753 1.974 13.9-1.419 13.779-7.6 18.449-27.211 14.373-41.87a2.066 2.066 0 0 1 3.286-2.176c8.084 6.614 21.51 21.846 17.239 47.863-2.782 16.945-8.5 29.008-13.839 37.073 0 0-10.7 15.274 6.75 16.364 12.447.778 18.323-8.987 20.669-14.65a2.066 2.066 0 0 1 3.7-.224c4.438 7.717 12.267 26.53-2.288 45.867a27.528 27.528 0 0 1 -22.041 10.791h-50.611s-29.168-36.191-81.452 0h-68.573a27.468 27.468 0 0 1 -21.029-9.557z" fill="#ffa757"/><g fill="#9b8181"><path d="m155.06 21.279c4.084 8.645 7.841 21.843 2.237 35.244a18.467 18.467 0 0 1 -9.935 9.882c-9.709 4.049-28.553 14.349-25.038 32.277 2.716 13.851 18.619 20.318 31.555 23.318 17.006 3.938 30.263 17.539 32.954 34.786a89.927 89.927 0 0 1 -.148 26.928c-6.108 41.811-49.328 54.965-75.636 49.8-22.149-4.354-38.305-11.369-43.139-40.114a15.8 15.8 0 0 1 15.88-18.337l3.7.059a15.39 15.39 0 0 1 11.419 5.134c3.095 3.566 9.057 6.878 19.657 1.579 12.082-6.042 12.329-17.894 6.128-27.837a29.488 29.488 0 0 0 -19.494-13.093c-16.2-3.17-55.091-15.845-45.358-63.833 9.375-46.218 56.939-60.234 78.549-64.252a15.326 15.326 0 0 1 16.669 8.459z"/><path d="m326.681 110.9c-1.41-44.63-35.234-56.844-55.9-54.965 0 0-52.616 3.288-59.193 54.025s34.764 66.24 59.193 64.831 57.309-19.265 55.9-63.891zm-57.233 25.244c-7.976.46-21.475-4.6-19.327-21.168s19.327-17.64 19.327-17.64c6.749-.614 17.794 3.374 18.254 17.947s-10.277 20.398-18.254 20.858z"/><path d="m406.03 41.338c-13.969 6.792-35.862 25.7-38.509 50.176-1.823 16.871 10.4 29.648 23.475 38.332 8.339 5.54 6.608 18.439-3.054 21.063q-.561.151-1.159.268c-3.4.653-6.413 1.125-8.991 1.466a12.088 12.088 0 0 0 -10.276 14.339c1.54 7.713 6.147 16.661 18.594 20.8a12.087 12.087 0 0 0 6.814.255c9.811-2.525 38.559-12.763 48.01-47.537a21.617 21.617 0 0 0 -7.293-22.556c-4.452-3.577-12.712-7.207-16.941-13.134-5.895-8.263-7.045-17.092-.385-24.752 0 0 6.959-8.081 8.237-9.373 6.44-6.512 7.007-14.979 1.194-22.056 0-.003-7.924-13.023-19.716-7.291z"/></g><circle cx="223.161" cy="212.866" fill="#ffa757" r="15.161"/><circle cx="325.882" cy="193.241" fill="#ffa757" r="12.109"/><path d="m279.641 487.441-8.38-22.5-2.461-58.667h18.912l2.4 29.751 12.99-9.638 8.38 14.247s-18.018 12.745-16.761 46.807z" fill="#d87155"/><ellipse cx="179.294" cy="289.532" fill="#9b8181" rx="16.903" ry="14.177" transform="matrix(.128 -.992 .992 .128 -130.837 430.225)"/><path d="m378.762 403.21a7.6 7.6 0 0 1 -7.382-9.415l2.165-8.79a7.6 7.6 0 1 1 14.751 3.633l-2.164 8.791a7.6 7.6 0 0 1 -7.37 5.781z" fill="#9b8181"/><path d="m269.748 428.82 1.513 36.117 8.38 22.5h15.085a81.19 81.19 0 0 1 .859-15.575c-5.219-17.924-20.045-36.327-25.837-43.042z" fill="#8e3329"/><path d="m225.522 487.441h31.078s8.31-40.632-5.446-58.514h-20.47s-7.863 35.873-5.162 58.514z" fill="#8e3329"/><path d="m279.641 487.441h-23.041c-.215-21.8-6.289-35.543-12.146-43.755-3.77-10.009-.988-19.628 5.443-29.031-.005 0 27.23 21.545 29.744 72.786z" fill="#d87155"/><path d="m233.549 433.091s5.349 2.83 10.893 10.6a79.139 79.139 0 0 1 5.45-29.035c-13.826 2.932-16.343 18.435-16.343 18.435z" fill="#8e3329"/><path d="m213.273 487.441h12.249a9.568 9.568 0 0 0 9.579-9.816c-.394-14.3-4.328-41.5 14.791-62.97l-18.5-16.908s-27.013 33.931-18.119 89.694z" fill="#d87155"/></svg>