<svg id="icon" height="512" viewBox="0 0 340 340" width="512" xmlns="http://www.w3.org/2000/svg"><path d="m213.099 130.948h16.512v32.601h-16.512z" fill="#b2b4b7"/><path d="m206.345 122.605v9.942a9.365 9.365 0 0 0 6.306 8.851l64.095 22.151v-69.3l-63.762 19.4a9.363 9.363 0 0 0 -6.639 8.956z" fill="#ededed"/><path d="m181.119 182.731 15.366 19.813 5.122-30.589a19.034 19.034 0 0 1 18.773-15.891h1.857a12.8 12.8 0 0 1 12.8 12.8 12.8 12.8 0 0 1 -12.8 12.8h-2.466l-3.947 35.249a14.928 14.928 0 0 1 -23.648 10.387l-36.061-26.376z" fill="#ffd0b0"/><path d="m171.706 212.332 12.09-26.148-2.677-3.453-25.004 18.197z" fill="#ea8f8b"/><path d="m276.746 94.247h8.024a8.284 8.284 0 0 1 8.283 8.283v52.736a8.283 8.283 0 0 1 -8.283 8.283h-8.024z" fill="#f45d77"/><path d="m152.389 241.542 3.726 89.754h-101.272l6.219-85.905z" fill="#8ba3c6"/><path d="m153.48 267.812-1.09-26.27-91.328 3.849-6.219 85.909h14.387l2.953-11.664c7.372-1.292 9.077-5.611 9.185-9.076a11.923 11.923 0 0 0 -1.377-5.86 35.1 35.1 0 0 1 -3.146-9.733 18.279 18.279 0 0 1 -.2-4.741l.957-11.288c25.153 5.791 48.412-.646 48.412-.646v-11.747l9.105-1.108.349 10.827c8.871-1.957 14.971-5.198 18.012-8.452z" fill="#405d7f"/><path d="m149.982 142.584 31.137 40.147-23.353 25.923z" fill="#94b2dd"/><path d="m97.173 133.368 18.094-10.986 27.787 17.771 3.3 108.563s-11.7 7.755-40.133 6.462z" fill="#d9ecf9"/><path d="m146.353 248.716-3.3-108.563-27.787-17.771-13.029 7.911 1.923 5.776s8.679 8.337 25.861 13.275a6.244 6.244 0 0 1 4.373 4.428 45.9 45.9 0 0 1 1.31 9.562c.3 9.637-1.013 76.38-1.013 89.671 8.056-1.905 11.662-4.289 11.662-4.289z" fill="#94b2dd"/><path d="m104.155 96.954v22.659a11.8 11.8 0 0 0 3.129 8.02 51.246 51.246 0 0 0 25.167 14.951v-32.955l-19.52-19.52z" fill="#ffd0b0"/><path d="m104.155 119.613s15.645 14.761 15.645 49.128v104.006s-39.492 6.934-56.977-8.441v-82.3l19.55-53.36a126.776 126.776 0 0 1 21.782-9.033z" fill="#b77066"/><path d="m76.775 143.929-13.95 38.077v82.3c4.146 3.646 9.531 6.036 15.332 7.563 2.492-29.938 5.821-51.144 6.889-57.53a2.4 2.4 0 0 1 2.374-2.007h1.934a2.406 2.406 0 0 0 2.362-1.919c7.414-36.91-4.471-69.523-4.471-69.523z" fill="#914943"/><path d="m132.451 135.621a70.065 70.065 0 0 1 7.676 32.2v98.725a33.852 33.852 0 0 0 11.7-4.338 17.73 17.73 0 0 0 8.424-15.432l-1.108-78.5a52.546 52.546 0 0 0 -8.079-27.639c-4.15-6.479-10.17-12.55-18.614-14.324z" fill="#b77066"/><path d="m80.63 196.426s-8.147 47.225-11.445 94.4a16.2 16.2 0 0 0 2.324 9.573l1.882 3.083a7.059 7.059 0 0 1 .548 6.251 7.059 7.059 0 0 1 -6.573 4.485h-.545l-2.164 9.249a8.972 8.972 0 0 1 -9.814 6.863 8.963 8.963 0 0 1 -7.9-8.961c.154-21.7 2.221-79.963 12.208-138.638z" fill="#ffd0b0"/><path d="m131.815 331.3-.815-30.34a56.6 56.6 0 0 1 2.78-14.942.987.987 0 0 0 -1.718-.907 14.1 14.1 0 0 0 -1.77 2.925 31.668 31.668 0 0 0 -3.172 13.816l-1.111 29.448z" fill="#405d7f"/><path d="m104.155 109.807c3.235 4.957 12.965 16.5 28.3 20.78v-20.958l-19.52-19.52-8.776 6.845z" fill="#ea8f8b"/><path d="m98.991 88.157c-.672-.045-14.146-5.838-16.616-27.17l41.765-14.82 1.8 23.577s-10.108 19.536-26.949 18.413z" fill="#ce6046"/><path d="m125.44 63.229-1.3-17.062-41.765 14.82a40.945 40.945 0 0 0 5.488 16.9 12.008 12.008 0 0 0 7.427-1.933s11.582-7.541 30.15-12.725z" fill="#a54532"/><path d="m166.263 42.794-9.041 64.021a14.358 14.358 0 0 1 -18.4 11.726l-20.968-6.395a11.882 11.882 0 0 1 -8.04-8.4l-.8-3.089s-14.467 2.462-15.7-10.466a7.752 7.752 0 0 1 7.05-7.72l1.873-.17a12.793 12.793 0 0 0 11.043-8.801c2.035-6.359 4.256-15.657 3.735-24.857a148.259 148.259 0 0 1 49.248-5.849z" fill="#ffd0b0"/><path d="m137.666 75.954a3.046 3.046 0 0 1 -.379-.023l-3.273-.4a3.122 3.122 0 1 1 .75-6.2l3.274.4a3.122 3.122 0 0 1 -.372 6.221z" fill="#373d4c"/><path d="m117.015 48.642a64.216 64.216 0 0 1 -1.808 17.888 128.9 128.9 0 0 1 48.832-7.987l2.224-15.749a148.259 148.259 0 0 0 -49.248 5.848z" fill="#ea8f8b"/><path d="m152.406 76.03a3.123 3.123 0 0 1 -.645-6.177l2.59-.55a3.122 3.122 0 0 1 1.3 6.109l-2.589.549a3.1 3.1 0 0 1 -.656.069z" fill="#373d4c"/><path d="m91.739 72.224q.459-.42.955-.863a93.292 93.292 0 0 1 62.124-23.492h19.725a9.213 9.213 0 0 0 9.213-9.213 9.213 9.213 0 0 0 -9.213-9.213h-7.61s-10.018-16.089-39.3-20.254c-14.541-2.068-29.4 2.516-39.6 13.087a46.7 46.7 0 0 0 -12.174 23.751 32.784 32.784 0 0 0 1.149 17.163 40.053 40.053 0 0 0 3.334 7.3 7.42 7.42 0 0 0 11.397 1.734z" fill="#71829e"/><path d="m160.917 22.985a62.248 62.248 0 0 0 -16.4 3.631 2.387 2.387 0 0 0 1.033 4.625c10.722-1.083 21.385-1.8 21.385-1.8a31.945 31.945 0 0 0 -6.018-6.456z" fill="#384863"/><path d="m56.179 201.786a53.236 53.236 0 0 0 21.485 13.523c1.717-11.642 2.966-18.883 2.966-18.883l-21.474-13.695c-1.085 6.369-2.071 12.738-2.977 19.055z" fill="#ea8f8b"/><path d="m82.375 128.646s5.721 8.475 8.009 29.153a135.493 135.493 0 0 1 .293 25.766l-1.626 20.19s-19.653-.806-32.947-14.2a10.009 10.009 0 0 1 -2.647-9.229c2.771-12.446 11.47-44.444 28.918-51.68z" fill="#d9ecf9"/><path d="m116.8 144.35c-4.544-17.092-12.646-24.737-12.646-24.737a132.515 132.515 0 0 0 -13.219 4.922c4.208 5.41 12.131 13.278 25.865 19.815z" fill="#914943"/><path d="m151.065 140.631c-4.15-6.479-10.17-12.55-18.614-14.324v9.314a63.606 63.606 0 0 1 5.862 16.217 149.125 149.125 0 0 0 19.045 3.251 50.54 50.54 0 0 0 -6.293-14.458z" fill="#914943"/><path d="m136.273 42.571a72.684 72.684 0 0 0 -23.649 5.349c-12.186 4.913-25.953-2.47-28.116-15.429a38.267 38.267 0 0 1 -.495-5.429 47.651 47.651 0 0 0 -8.128 18.838 32.847 32.847 0 0 0 1.122 17.286 40.037 40.037 0 0 0 3.35 7.331 7.411 7.411 0 0 0 11.378 1.708q.462-.422.959-.866a91.424 91.424 0 0 1 13.167-9.76q.271-.166.546-.332c1.092-.658 2.2-1.3 3.312-1.908l.162-.086q1.689-.919 3.415-1.767c.083-.041.165-.084.249-.124q1.752-.855 3.539-1.635l.372-.16c1.2-.518 2.4-1.015 3.621-1.481a94.126 94.126 0 0 1 20.323-5.27l.08-.572a5.012 5.012 0 0 0 -5.207-5.693z" fill="#384863"/><rect fill="#b2b4b7" height="7.066" rx="1.509" transform="matrix(0 1 -1 0 343.621 -95.599)" width="3.019" x="218.1" y="120.478"/><rect fill="#b2b4b7" height="7.066" rx="1.509" transform="matrix(0 1 -1 0 350.273 -88.946)" width="3.019" x="218.1" y="127.131"/><path d="m284.77 163.549a8.283 8.283 0 0 0 8.283-8.283v-3.827h-16.307v12.11z" fill="#bc3552"/><path d="m206.345 128.471v4.076a9.365 9.365 0 0 0 6.306 8.851l64.095 22.151v-12.11s-54.763-13.809-62.172-16.215a15.535 15.535 0 0 1 -8.229-6.753z" fill="#b2b4b7"/></svg>