<svg id="flat" height="512" viewBox="0 0 340 340" width="512" xmlns="http://www.w3.org/2000/svg"><path d="m146.871 226.065s-23.931 13.686-34.209 53.2a27.535 27.535 0 0 1 -12.247 16.09l-13.052 7.13a29.022 29.022 0 0 1 -15.88 3.533c-9.64-.659-26.46 0-39.178 10.2 0 0 23.348-2.23 40.6 1.555a30.2 30.2 0 0 0 22.373-3.866l26.447-16.39s-.96 2.457-.235 9.269a13.13 13.13 0 0 1 -2.733 9.691c-2.238 2.755-6.073 5.692-12.633 7.418 0 0 7.771 6.163 17.234 2.683a17.935 17.935 0 0 0 8.065-6.165 32.791 32.791 0 0 0 5.886-13.174c1.423-7 5.8-18.649 19.209-28.226l22.047-50.59-14.37-20.276z" fill="#c13251"/><path d="m173.046 170.955s1.061 5.834-14.321 15.382c-8.687 5.392-24.143 13.83-35.95 20.153a34.126 34.126 0 0 1 -31.831.2c-3.018-1.565-6.292-3.254-9.658-4.973 0 0-27.051-15.116-51.98 15.913 0 0 30.764-9.548 48.8 1.326l-20.954 31.295s-26.252 27.581-50.388 31.824c0 0 19.094 9.812 42.963-5.569 9.251-5.962 17.546-11.207 24.236-15.395a66.374 66.374 0 0 1 30.643-10.02c8.5-.583 19.681-3.079 29.558-10.918 18.962-15.051 31.933-20.354 31.933-20.354s-5.044 3.627-7.922 15.348a26.641 26.641 0 0 0 -.735 6.7l.118 8.768a17.807 17.807 0 0 1 -5.6 13.209l-3.765 3.543a17.662 17.662 0 0 1 -12.332 4.843 29.166 29.166 0 0 1 -10.55-2.089c-9.813-3.978-27.051-1.326-37.129 13.525 0 0 23.6-9.812 35.537-.53 0 0 15.49 11.85 34.212-2.122a80.4 80.4 0 0 0 15.543-17.549 40.036 40.036 0 0 1 10.684-11.148c6.325-4.331 15.837-8.264 27.7-5.421l30.938-2.48 25.724-51.184-10.608-33.681-46.054-12.73z" fill="#ff6784"/><path d="m257.911 159.551-46.054-12.73-38.811 24.134s1.061 5.834-14.321 15.382c-.224.139-.471.288-.7.431 6.911 1.767 17.569 3.855 24.943 2.314 0 0 11.365 9.247 23.31 7.67 0 0 .067 11.875 9.519 13.441a1.168 1.168 0 0 0 1.121-1.979 11.338 11.338 0 0 1 -2.537-3.449c-.039-.1-.078-.206-.116-.308l-.064-.177a9.1 9.1 0 0 1 5.987-11.606 40.45 40.45 0 0 1 7.47-1.75 10.6 10.6 0 0 1 11.6 12.264c-.944 5.659-3.158 12.832-8.233 18.607a6.388 6.388 0 0 1 -7.735 1.369l-.046-.023a34.388 34.388 0 0 0 -24.014-3.07 29.116 29.116 0 0 0 -16.87 13.192 25.622 25.622 0 0 0 -3.147 10.347 58.6 58.6 0 0 1 -4.68 18.318 39.12 39.12 0 0 1 9.627-9.611c6.325-4.331 15.837-8.264 27.7-5.421l13.069-2.533 17.869.053 25.724-51.184z" fill="#c13251"/><path d="m186.306 172.546s6.061 15.369 23.463 15.99a20.3 20.3 0 0 0 8.758-1.683c6.326-2.729 21.816-7.562 29.306 6.379l1.061-12.73-5.834-18.034-20.421-8.486z" fill="#d38c73"/><path d="m231.85 162.569a57.823 57.823 0 0 1 -27.458 14.8c-9.628 2.122-27.31 2.938-39.1-2.384 0 0-28.377-12.4-31.132-57.031 0 0 5.785-15.428 4.132-30.857 0 0 12.4-13.224 14.6-32.51 0 0 18.459-10.194 31.684-28.928a117.174 117.174 0 0 1 40.643-13.259 82.386 82.386 0 0 1 14.473.86c56 7.568 96.343 57.353 93.392 113.787q-.252 4.833-.83 9.924s-5.234 14.327-4.132 35.817c0 0-11.3 11.3-15.98 31.407 0 0-18.459 4.684-29.2 31.959 0 0-29.2 27.827-71.081 10.745 0 0 32.393-11.312 33.888-41.6 1.651-33.499-13.899-42.73-13.899-42.73z" fill="#fce2cb"/><circle cx="227.071" cy="201.632" fill="#c13251" r="4.773"/><g fill="#d38c73"><path d="m326.6 83.633c2.49 16.814.117 33.014-1.75 41.977-10.77-3.425-24.557-2.272-35.039-.453a1.916 1.916 0 0 0 .253 3.8c10.084.416 22.98 1.555 32.588 4.491-4.158 6.085-6.25 14.187-7.29 20.3-19.949-13.639-46.633-16.907-58.11-17.69a54.184 54.184 0 0 0 -.806-9.416c-.238-1.371-.556-2.722-.911-4.062 16.249-2.444 45.729-11.957 67.385-47.821a109.681 109.681 0 0 0 -8.265-14.628c-12.564 37.689-52.59 49.709-63.17 52.268-.591-1.067-1.217-2.115-1.9-3.125 18.634-10.019 27.793-27.571 32.239-41.1a2.762 2.762 0 0 0 -4.96-2.336c-7.424 11.8-19.158 27.059-34.187 35.721a34.874 34.874 0 0 0 -3.226-2.446 71.1 71.1 0 0 0 2.466-24.154 2.507 2.507 0 0 0 -4.982-.137 95.492 95.492 0 0 1 -4.935 20.63 32.076 32.076 0 0 0 -12.714-1.531 31.083 31.083 0 0 0 -18.391 7.448c-27.681-14.733-48-46.778-48-46.778a57.619 57.619 0 0 1 -4.86 17.209c8.4 10.7 24.67 27.412 48.482 34.482a24.309 24.309 0 0 0 -4.2 16.088 123.246 123.246 0 0 1 -58.151-4.414 67.822 67.822 0 0 0 1.788 13.6c12.06 1.984 36.245 4.476 57.635-2.388.113.39.209.77.337 1.168a26.763 26.763 0 0 0 7.718 10.436c-14.266 23.826-41.8 26.02-47.321 26.218a42.071 42.071 0 0 0 10.975 8 38.19 38.19 0 0 0 5.994 2.07c11.79-2.524 30.191-10.177 35.98-33.362a17.145 17.145 0 0 0 8.922.129 45.506 45.506 0 0 1 7.746 9.844 1.923 1.923 0 0 0 3.563-1.213 26.451 26.451 0 0 0 -4.408-11.6c4.357-3.233 4.3-7.733 3.155-11.422a2.769 2.769 0 0 0 -5.075-.473 11.829 11.829 0 0 1 -6.777 5.649 8.444 8.444 0 0 1 -6.73-.405c-5.182-2.81-5.152-9.769-5.152-9.769-.9-12.844 12.882-17.334 12.882-17.334 8.653-2.668 14.7.3 18.442 3.637a23 23 0 0 1 6.123 9.618 41.732 41.732 0 0 1 -8.111 42.208l8.127 12.522a51.872 51.872 0 0 0 10.32-13.1c9.208 8.464 21.07 23.579 27.278 48.451a23.818 23.818 0 0 1 -10.444 11.693 66.832 66.832 0 0 0 -5.218-19.813 1.784 1.784 0 0 0 -3.422.84c.555 6.553.789 15.226-.684 22.486a57.863 57.863 0 0 1 -19.15.721c-9.955 14.642-26.8 20.529-26.8 20.529 41.877 17.082 71.081-10.744 71.081-10.744 10.745-27.276 29.2-31.959 29.2-31.959 4.684-20.113 15.98-31.408 15.98-31.408-1.1-21.49 4.132-35.817 4.132-35.817q.586-5.083.83-9.925a109.736 109.736 0 0 0 -6.482-43.41zm-20.733 94.84a71.074 71.074 0 0 0 -16.753-11.51 2.44 2.44 0 0 0 -2.837 3.883 152.538 152.538 0 0 1 15.455 18.543c-6.865 1.089-12.336 5.024-16.214 8.915-7.5-20.753-23.169-36.084-31.847-43.383a52.043 52.043 0 0 0 3-11.131c13.654 2.407 34.871 7.989 55.6 20.873-3.132 3.728-5.143 9.066-6.405 13.81z"/><path d="m171.259 142.633a190.46 190.46 0 0 1 -31.208 2.7 66.654 66.654 0 0 0 6.5 12.328 78.241 78.241 0 0 0 26.293-11.048 2.183 2.183 0 0 0 -1.585-3.98z"/><path d="m167.863 110.967a2.379 2.379 0 0 0 .818-4.645 76.021 76.021 0 0 1 -30.381-19.222 62.269 62.269 0 0 1 -.279 14.4c9.412 6.923 20.604 9.105 29.842 9.467z"/><path d="m210.846 74.245c-4.646-14.945-10.671-36.067-13.634-53.745-.041-.246-.084-.48-.126-.721a101.505 101.505 0 0 0 -12.5 5.883c-.98 1.388-1.99 2.722-3.018 4.016 3.129 7.642 12.017 28.347 23.737 47.088a3.07 3.07 0 0 0 5.541-2.521z"/><path d="m238.014 41.247a77.34 77.34 0 0 0 -3.029-28.521 72.176 72.176 0 0 0 -9.766-.329c-.462.056-.919.12-1.378.183a158.137 158.137 0 0 1 10.329 28.953 1.951 1.951 0 0 0 3.844-.286z"/><path d="m235.37 55.261a14.5 14.5 0 0 0 -.268 4.413 10.253 10.253 0 0 0 1.163 3.635 2.363 2.363 0 0 0 4.379-.615 13.039 13.039 0 0 0 .276-4.093 11.037 11.037 0 0 0 -1.11-3.94 2.366 2.366 0 0 0 -4.44.6z"/></g><path d="m78.1 218.957-2.709.624c-3.735 1.063-10.959 3.8-19.3 10.514-12.2 9.813-38.083 16.443-46.225 13.26 0 0 12.544 21.747 47.285 6.9 0 0 15.967-16.224 37.691-19.132a1.676 1.676 0 0 0 .484-3.192 172.493 172.493 0 0 1 -17.226-8.974z" fill="#c13251"/></svg>