<svg id="fill" height="512" viewBox="0 0 340 340" width="512" xmlns="http://www.w3.org/2000/svg"><path d="m272.265 25.654s20.086-8.484 32.9 7.446-3.636 32.379-3.636 32.379l-26.493-14.025z" fill="#8c4c4b"/><path d="m277.04 28.418-4.614-1.265 2.61 24.3 26.492 14.025s10.018-10.019 8.327-21.991c-20.82 5.86-32.815-15.069-32.815-15.069z" fill="#6b3434"/><g fill="#8c4c4b"><path d="m75.369 125.321c0 1.16-27.527-10.061-42.806 20.144a59.839 59.839 0 0 0 -5.957 20.577c-1.387 12.758-3.606 40.158-.293 63.092a23.294 23.294 0 0 1 -1.573 12.286c-2.669 6.422-5.563 17.268.121 26.129a22.537 22.537 0 0 1 3.567 12.779 50.878 50.878 0 0 0 .208 6.344 7.224 7.224 0 0 0 12.494 4.228c5.983-6.519 13.484-17.9 18.132-36.723z"/><path d="m257.769 192.929s-14.48 65.436-18.464 104.133a13.342 13.342 0 0 0 4.17 11.047c4.452 4.219 10.366 11.894 10.214 22.82h-22.295l-15.026-23.729 10.179-99.845z"/><path d="m131.307 201.058s-5.486 30.942-26.9 56.282a35.4 35.4 0 0 0 -6.283 10.615 87.005 87.005 0 0 0 -5.363 31.287 11.954 11.954 0 0 0 3.933 8.561c4.3 3.905 10.8 11.8 9.651 23.126h-27.145l-9.451-23.968 8.97-78.761 30.05-34.17z"/></g><path d="m264.112 9.071s15.83 11 16.143 27.016a11.616 11.616 0 0 0 7.123 10.324c2.386 1.031 5.062 2.272 7.679 3.657a23.212 23.212 0 0 1 7.714 6.595c2.846 3.8 7.382 10.111 11.98 17.593a24.949 24.949 0 0 1 -.72 27.133 56.955 56.955 0 0 1 -5.9 7.325 8.263 8.263 0 0 1 -11.4.5c-5.02-4.4-12.581-10.578-17.821-12.862 0 0-7.579 13.644-14.563 28.4a48.556 48.556 0 0 0 -4.647 19.668c-.215 9.455-.45 24.012-.245 36.581a37.5 37.5 0 0 1 -18.319 33.127c-.884.513-1.793.992-2.724 1.429 0 0-15.195 49.623-14.862 87.2a16.358 16.358 0 0 0 1.175 5.279c-6.554 4.262-14.071 4.468-22.648.218-1.554-15.228 2.749-57.389-3.05-83.378 0 0-24.587 5.855-44.707-7.185 0 0-23.95-14.636-40.715-12.773a483.276 483.276 0 0 1 -25.685 42.7 41.324 41.324 0 0 0 -6.115 13.806c-2.268 9.491-5.27 25.8-4.1 42.143a12.429 12.429 0 0 0 1.044 4.184q.115.255.241.506c-6.7 3.369-14.186 3.409-22.493 0 .266-18.936.709-75.092-3.031-92.692 0 0-21.555-49.763 8.516-85.156 0 0 23.418-27.942 69.722-14.636 0 0 28.24 6.888 43.987 5.309 19.359-10.172 65.337-48.416 80.6-75.187l3.189-4.942s-2.667-20.688 4.632-31.882z" fill="#bc695e"/><path d="m231.394 330.929h22.295c.15-10.811-5.636-18.435-10.072-22.68h-26.587z" fill="#2b313f"/><path d="m79.2 330.929h27.142c1.11-10.922-4.889-18.64-9.176-22.68h-26.907z" fill="#2b313f"/><path d="m231.347 55.509a19 19 0 0 1 -7.6 7.717c-15.572 8.328-23.59 23.1-27.283 32.371-1.645 4.128-5.331 6.77-10.6 8.273a23.629 23.629 0 0 0 -12.081 7.753 31.108 31.108 0 0 0 -4.275 7.135 10.345 10.345 0 0 0 7.857 14.366c28.986 4.463 39.522-22.8 39.522-22.8 25.971 2.024 26.825-27.5 26.825-27.5 22.125-9.96 18.228-39.606 15.623-51.6-15.483 5.092-24.116 17.219-27.988 24.285z" fill="#8c4c4b"/><path d="m201.688 314.019 7.984 16.91h27.942c-.662-8.847-5.854-15.084-9.684-18.534a13.291 13.291 0 0 1 -3.092-4.146h-22.761c-.22 3.651-.389 5.77-.389 5.77z" fill="#3d4554"/><path d="m62.777 330.929h27.144c0-9.363-5.268-16.168-8.737-19.634a11.786 11.786 0 0 1 -2.184-3.046h-22.5c-.007.557-.015 1.087-.023 1.578a21.236 21.236 0 0 0 1.678 8.541c2.287 5.466 4.622 12.561 4.622 12.561z" fill="#3d4554"/><path d="m224.517 218.1a1.233 1.233 0 0 0 -.306 2.391 38.215 38.215 0 0 0 12.227 1.965c1.2-4.355 1.974-6.9 1.974-6.9a95.015 95.015 0 0 1 -13.895 2.544z" fill="#8c4c4b"/><path d="m259.338 31.228s4.562 26.972-16.488 41.242a24.988 24.988 0 0 0 -4.263-5.9.657.657 0 0 0 -1.1.653 33.442 33.442 0 0 1 1.224 7.719s.608 22.944-20.911 26.483a31.241 31.241 0 0 0 -1.464-9.372.657.657 0 0 0 -1.282.173 85.368 85.368 0 0 1 -1.215 9.623s-7.236 25.777-32.787 21.255c-7.009-1.241-9.213-4.864-8.73-9.466a31.34 31.34 0 0 0 -2.813 5.124 10.345 10.345 0 0 0 7.857 14.366c28.986 4.462 39.522-22.8 39.522-22.8 25.971 2.024 26.826-27.5 26.826-27.5 22.126-9.964 18.229-39.61 15.624-51.6z" fill="#6b3434"/><path d="m36.179 249.929c-2.144 5.26-5.938 11.91-12.257 15.986.284.551.594 1.1.939 1.634a22.537 22.537 0 0 1 3.567 12.779s9.023-11.21 10.23-29.833a1.288 1.288 0 0 0 -2.479-.566z" fill="#6b3434"/><circle cx="39.768" cy="237.656" fill="#6b3434" r="3.357"/><path d="m281.04 64.429a4.024 4.024 0 0 1 -2.831-1.17 3.685 3.685 0 0 1 -.489-.61 3.519 3.519 0 0 1 -.37-.69 3.813 3.813 0 0 1 -.23-.74 4.234 4.234 0 0 1 -.08-.79 4.021 4.021 0 0 1 .31-1.53 3.828 3.828 0 0 1 .37-.69 4.151 4.151 0 0 1 .489-.61 4.009 4.009 0 0 1 5.661 0 5.011 5.011 0 0 1 .5.61 5.994 5.994 0 0 1 .37.69 4.248 4.248 0 0 1 .219.75 3.39 3.39 0 0 1 .081.78 3.476 3.476 0 0 1 -.081.79 3.919 3.919 0 0 1 -.219.74 5.266 5.266 0 0 1 -.37.69 4.348 4.348 0 0 1 -.5.61 3.988 3.988 0 0 1 -2.83 1.17z" fill="#2b313f"/><path d="m175.913 214.474a100.909 100.909 0 0 1 -30.593-1.574c5.389 2.587 9 4.79 9 4.79 20.12 13.04 44.707 7.185 44.707 7.185s-3.646-12.706-23.114-10.401z" fill="#8c4c4b"/><path d="m266.4 85.192a1.26 1.26 0 0 0 -2.331.8c.74 5.358 3.211 13.075 10.941 17.579 2.345-4.425 3.9-7.224 3.9-7.224s-7.182-2.501-12.51-11.155z" fill="#8c4c4b"/></svg>