<svg id="Flat" height="512" viewBox="0 0 340 340" width="512" xmlns="http://www.w3.org/2000/svg"><path d="m176.132 166.507h-77.084-77.084l-11.773 144.293h77.925l4.485-57.118h6.447 6.447l4.485 57.118h77.925z" fill="#88b5ea"/><rect fill="#ffca8a" height="118.891" rx="28.74" width="57.479" x="196.85" y="84.719"/><rect fill="#ffca8a" height="118.891" rx="28.74" width="57.479" x="268.329" y="84.719"/><g fill="#ddad8a"><path d="m270.486 102.53h53.166a28.747 28.747 0 0 0 -4.391-7.333h-44.384a28.719 28.719 0 0 0 -4.391 7.333z"/><path d="m268.329 116.864h57.479v7.333h-57.479z"/><path d="m268.329 138.53h57.479v7.333h-57.479z"/><path d="m268.329 160.197h57.479v7.333h-57.479z"/><path d="m272.159 189.2h49.82a28.552 28.552 0 0 0 2.968-7.333h-55.757a28.554 28.554 0 0 0 2.969 7.333z"/><path d="m199.007 102.53h53.166a28.747 28.747 0 0 0 -4.391-7.333h-44.382a28.719 28.719 0 0 0 -4.393 7.333z"/><path d="m196.85 116.864h57.479v7.333h-57.479z"/><path d="m196.85 138.53h57.479v7.333h-57.479z"/><path d="m196.85 160.197h57.479v7.333h-57.479z"/><path d="m200.68 189.2h49.82a28.552 28.552 0 0 0 2.968-7.333h-55.757a28.518 28.518 0 0 0 2.969 7.333z"/></g><path d="m60.657 185.235h-40.221l-.653 8h40.874a4 4 0 0 0 0-8z" fill="#3e7bad"/><path d="m177.66 185.235h-99.226c-.065 0-.125.016-.189.019a3.931 3.931 0 0 0 -3.725 3.162c-.019.09-.019.186-.031.279a3.981 3.981 0 0 0 -.055.492l-.275 22.787a4 4 0 0 0 3.951 4.047h.05a4 4 0 0 0 4-3.952l.227-18.835h33.551v38.343a4 4 0 0 0 8 0v-38.342h54.376z" fill="#3e7bad"/><path d="m329.361 143.907a4 4 0 0 0 -5.391-1.715c-.794.411-17.3 9.06-26.9 22.484-9.6-13.424-26.107-22.073-26.9-22.484a4 4 0 1 0 -3.676 7.1c.194.1 19.206 10.062 26.577 24.084v30.234a4 4 0 0 0 8 0v-30.229c7.349-13.981 26.382-23.981 26.577-24.081a4 4 0 0 0 1.713-5.393z" fill="#495263"/><path d="m256.717 143.907a4 4 0 0 0 -5.39-1.715c-.794.411-17.3 9.06-26.9 22.484-9.6-13.424-26.107-22.073-26.9-22.484a4 4 0 1 0 -3.676 7.1c.195.1 19.206 10.062 26.577 24.084v30.234a4 4 0 0 0 8 0v-30.229c7.348-13.981 26.382-23.981 26.572-24.081a4 4 0 0 0 1.717-5.393z" fill="#495263"/><path d="m172.406 44.565h-4.812a24.508 24.508 0 0 0 -3.654-5.92 35.574 35.574 0 0 0 -3.352-3.5 23.111 23.111 0 0 0 -15.634-5.945h-86.891a23.11 23.11 0 0 0 -15.635 5.946 35.461 35.461 0 0 0 -3.35 3.5 24.486 24.486 0 0 0 -3.655 5.921h-4.893a4 4 0 0 0 0 8h2.963a22.4 22.4 0 0 0 8.959 19.343 26.678 26.678 0 0 0 -6.908 9.07 2.817 2.817 0 0 0 2.2 3.982l1.223.153a7.758 7.758 0 0 0 7.909-4.257l1.253-2.52a14.418 14.418 0 0 1 1.649-2.564 29.373 29.373 0 0 0 9.71 1.64 31.144 31.144 0 0 0 16.871-5.029 56.559 56.559 0 0 0 13.478-12.163 19.222 19.222 0 0 0 3.036-5.387c2.687-1.413 9.878-4.34 17.246-.066a19.21 19.21 0 0 0 3.061 5.453 56.544 56.544 0 0 0 13.483 12.163 31.14 31.14 0 0 0 16.87 5.029 29.376 29.376 0 0 0 9.641-1.615 14.493 14.493 0 0 1 1.695 2.62l1.258 2.522a7.783 7.783 0 0 0 7.914 4.269l1.223-.152a2.808 2.808 0 0 0 2.19-3.978 26.782 26.782 0 0 0 -6.959-9.112 22.424 22.424 0 0 0 9.028-19.4h2.883a4 4 0 0 0 0-8zm-61.522-4.512a19.276 19.276 0 0 0 -1.7 5.571 25.1 25.1 0 0 0 -15.33.184 19.129 19.129 0 0 0 -3.415-8.608h22.138a19.567 19.567 0 0 0 -1.693 2.853z" fill="#313847"/><circle cx="52.263" cy="47.588" fill="#fff" r="6.084"/><circle cx="129.282" cy="47.588" fill="#fff" r="6.084"/></svg>