<svg id="fill" height="512" viewBox="0 0 340 340" width="512" xmlns="http://www.w3.org/2000/svg"><path d="m100.4 125.016-11.5-28.362a14.094 14.094 0 0 0 -10.329-8.529l-11.352-2.241a7.978 7.978 0 0 1 -6.352-8.956l.149-1.043a7.979 7.979 0 0 1 9.463-6.7l10.857 2.171a36.041 36.041 0 0 1 24.991 18.877l7.332 14.278z" fill="#7d889e"/><path d="m239.605 125.016 11.5-28.362a14.094 14.094 0 0 1 10.329-8.529l11.345-2.241a7.978 7.978 0 0 0 6.352-8.956l-.149-1.043a7.979 7.979 0 0 0 -9.463-6.7l-10.857 2.171a36.041 36.041 0 0 0 -24.991 18.877l-7.332 14.278z" fill="#7d889e"/><path d="m220.392 84.177v-54.748h-100.784v54.748a17.249 17.249 0 0 1 -3.294 10.139l-23.9 32.9a17.249 17.249 0 0 0 -3.294 10.138v164.24a257.547 257.547 0 0 0 161.758 0v-164.242a17.249 17.249 0 0 0 -3.294-10.138l-23.9-32.9a17.249 17.249 0 0 1 -3.292-10.137z" fill="#e6e6e6"/><path d="m221.872 184.055-24.758 3.537c-8.589-17.684-27.114-15.663-27.114-15.663s-18.525-2.021-27.114 15.663l-24.758-3.537s-1.263 21.979 19.958 21.979l.644 11.28a23.924 23.924 0 0 0 3.888 11.767l3.98 6.06c1.318 2.008 2.7 4.115 2.983 6.479l20.419 7.8 20.419-7.8c0-2.38 1.665-4.471 2.983-6.479l3.98-6.06a23.924 23.924 0 0 0 3.888-11.767l.644-11.28c21.221 0 19.958-21.979 19.958-21.979z" fill="#fff"/><path d="m174.141 266.2a18.492 18.492 0 0 0 15.289-17.4l.069-1.566a23.857 23.857 0 0 1 .933-5.6c-3.737-.08-10.154.311-15.382 3.325a10.053 10.053 0 0 1 -10.1 0c-5.228-3.014-11.645-3.405-15.382-3.325a23.849 23.849 0 0 1 .933 5.6l.069 1.568a18.5 18.5 0 0 0 15.289 17.398 24.046 24.046 0 0 0 8.282 0z" fill="#3d4554"/><path d="m146.65 105.768a140.9 140.9 0 0 1 -20.028-3.57 1.915 1.915 0 0 0 -2.152.9l-3.777 6.561a1.929 1.929 0 0 0 .952 2.754c6.824 2.739 15.115 4.416 22.955 5.439a1.922 1.922 0 0 0 2.13-1.548l1.6-8.261a1.926 1.926 0 0 0 -1.68-2.275z" fill="#fff"/><path d="m159.516 108.892-.56 7.871a2.322 2.322 0 0 0 2.213 2.487c3.349.144 6.093.183 7.892.188a2.324 2.324 0 0 0 2.334-2.324v-8.092a2.331 2.331 0 0 0 -2.405-2.323q-3.653.1-7.1.035a2.331 2.331 0 0 0 -2.374 2.158z" fill="#fff"/><path d="m220.392 84.177v-54.748h-25.438v56.771a29.644 29.644 0 0 0 5.5 17.2l20.389 28.626a29.647 29.647 0 0 1 5.5 17.2v130.24s-.252 18.605-19.811 32.493a257.517 257.517 0 0 0 44.349-10.364v-164.243a17.249 17.249 0 0 0 -3.294-10.138l-23.9-32.9a17.249 17.249 0 0 1 -3.295-10.137z" fill="#ccc"/><path d="m76.41 308.914a10.215 10.215 0 0 0 7.624 9.889 335.612 335.612 0 0 0 171.932 0 10.215 10.215 0 0 0 7.624-9.889 10.218 10.218 0 0 0 -12.626-9.921 342.163 342.163 0 0 1 -161.928 0 10.218 10.218 0 0 0 -12.626 9.921z" fill="#7d889e"/><path d="m221.052 29.429a387.892 387.892 0 0 1 -102.1 0 9.715 9.715 0 0 1 -9.715-9.714 9.715 9.715 0 0 1 9.711-9.715 390.647 390.647 0 0 0 102.1 0 9.715 9.715 0 0 1 9.715 9.715 9.715 9.715 0 0 1 -9.711 9.714z" fill="#7d889e"/><path d="m197.114 187.592a27.217 27.217 0 0 0 -22.667-15.6 35.13 35.13 0 0 0 23.774 55.708 23.92 23.92 0 0 0 3.049-10.388l.644-11.28c21.221 0 19.958-21.979 19.958-21.979z" fill="#3d4554"/><path d="m158.8 209.22a4.021 4.021 0 0 1 -2.83-1.17 3.639 3.639 0 0 1 -.49-.61 3.519 3.519 0 0 1 -.37-.69 3.832 3.832 0 0 1 -.23-.75 3.956 3.956 0 0 1 1.09-3.6 3.605 3.605 0 0 1 .61-.5 3.828 3.828 0 0 1 .69-.37 3.959 3.959 0 0 1 2.31-.23 3.832 3.832 0 0 1 .75.23 3.519 3.519 0 0 1 .69.37 3.251 3.251 0 0 1 .61.5 3.956 3.956 0 0 1 1.09 3.6 3.809 3.809 0 0 1 -.22.75 4.143 4.143 0 0 1 -.37.69 4.279 4.279 0 0 1 -.5.61 4 4 0 0 1 -2.83 1.17z" fill="#3d4554"/><path d="m180.16 209.22a4.021 4.021 0 0 1 -2.83-1.17 3.639 3.639 0 0 1 -.49-.61 3.519 3.519 0 0 1 -.37-.69 3.832 3.832 0 0 1 -.23-.75 3.956 3.956 0 0 1 1.09-3.6 3.605 3.605 0 0 1 .61-.5 3.828 3.828 0 0 1 .69-.37 4.3 4.3 0 0 1 .75-.23 4.035 4.035 0 0 1 3.61 1.1 3.981 3.981 0 0 1 1.17 2.82 4.042 4.042 0 0 1 -.07.78 4.659 4.659 0 0 1 -.23.75 4.143 4.143 0 0 1 -.37.69 3.694 3.694 0 0 1 -.5.61 3.987 3.987 0 0 1 -2.83 1.17z" fill="#fff"/></svg>