<svg id="flat" height="512" viewBox="0 0 340 340" width="512" xmlns="http://www.w3.org/2000/svg"><path d="m132.666 144.031s26.645 6.03 44.975-3.75a7.379 7.379 0 0 1 9.527 2.147c4.758 6.643 14.783 15.789 32.741 12.53l-21.087 42.736-62.445-7.254z" fill="#916f6f"/><path d="m192.893 97.819s-19.622-1.682-47.093-2.519-28.874-22.43-28.874-22.43a39.4 39.4 0 0 1 -.181-5.4 36.23 36.23 0 0 1 23.262-32.78 100.321 100.321 0 0 1 16.412-4.92 33.648 33.648 0 0 0 14.9-6.813 46.961 46.961 0 0 1 24.2-9.947 26.951 26.951 0 0 1 14.327 2.126 41.7 41.7 0 0 1 13.682 9.8 17.58 17.58 0 0 0 8.042 4.941 33.82 33.82 0 0 1 19.23 14.68c11.172 18.183 26.5 59.815 11.335 141l-40.368 19.343-2.523-67.839s3.084-29.711-26.351-39.242z" fill="#9b9b91"/><path d="m220.954 183.051.813 21.852 40.367-19.343q1.851-9.916 3.113-19.051c-8.361 3.713-14.259.906-16.942-1a3.567 3.567 0 0 0 -3.728-.274l-13.985 7.325s-3.812 4.5-9.638 10.491z" fill="#63605e"/><path d="m227.284 120.087a59.671 59.671 0 0 1 7.375 18.8 14.223 14.223 0 0 0 1.427 9 113.236 113.236 0 0 1 -.019 21.81l-16.978 12.705-13.061-17.279c.786-.944 1.552-1.916 2.289-2.913a33.656 33.656 0 0 0 6.473-19.981c0-7.186-.892-17.275-4.94-26.386 4.299-1.267 10.677 1.157 17.434 4.244z" fill="#fce2cb"/><path d="m208.311 208.267 23.548-13.456a180.065 180.065 0 0 0 4.2-25.111 33.725 33.725 0 0 1 -30.033-4.575 96.543 96.543 0 0 1 -22.381 19.034z" fill="#e2a083"/><path d="m111.771 143.3 6.843 3.365 25.579 8.4 9.583 22.464 12.271-1.511c7.045 2.052 17.958 3.757 35.469 2.936 0 0 10.124 5.2 20.794 18.058l8.423-7.546a77.063 77.063 0 0 1 12.645-7.557s11.218 7.716 25.445-4.6 27.087-13.133 27.087-13.133a203.579 203.579 0 0 1 -.281 41.648 91.182 91.182 0 0 1 -6.159 24.59c-9.689 23.815-36.611 73.884-96.436 91.359-49.831 14.555-86.373-3.149-106.74-18.434a73.238 73.238 0 0 1 -24.342-32.522l-2.016-5.281a73.938 73.938 0 0 1 -4.794-22.992c-.738-16.127-.031-43.306 10.939-60.639a236.144 236.144 0 0 1 27.719-35.377 15.4 15.4 0 0 1 17.971-3.228z" fill="#f2d3d2"/><path d="m155.824 171.563-9.029-18.6-28.181-6.293-6.843-3.365c-.335-.165-.675-.312-1.017-.45-3.267 6.38-6.487 16.874-3.507 30.927a2.771 2.771 0 0 0 5.058.872 35.123 35.123 0 0 1 4.927-6.557s6.49 15.914 20.9 21.486a2.784 2.784 0 0 0 3.732-1.947 102.657 102.657 0 0 0 2.659-16.49 81.575 81.575 0 0 1 7.636 17.143 2.771 2.771 0 0 0 4.539 1.249 37.126 37.126 0 0 0 9.35-13.519c-7.419-2.093-10.224-4.456-10.224-4.456z" fill="#916f6f"/><path d="m127.716 129.584a13.072 13.072 0 0 0 6.971 2.852 10.813 10.813 0 0 1 8.237 5.378 17.433 17.433 0 0 0 7.6 7 11.838 11.838 0 0 1 6.1 6.842 38.791 38.791 0 0 1 -1.31 28.186.836.836 0 0 1 -1.564-.094c-1.51-5.128-6.163-18.122-16.017-24.691a110.177 110.177 0 0 0 -1.6 25.14.829.829 0 0 1 -1.31.74c-4.012-2.889-14.816-12.256-12.22-27.832a34.517 34.517 0 0 0 -12.812 16.3.83.83 0 0 1 -1.584-.084c-1.2-4.8-3.1-15.382.73-23.778a88.51 88.51 0 0 1 8.9-14.773 6.759 6.759 0 0 1 9.879-1.186z" fill="#9b9b91"/><circle cx="197.638" cy="36.663" fill="#63605e" r="8.46"/><path d="m20.4 312.569v-.789a9.822 9.822 0 0 1 4.258-8.094l5.49-3.775s15.841 4.608 23.457 19.954c0 0-9.195 3.594-23.8 2.681a10.011 10.011 0 0 1 -9.405-9.977z" fill="#916f6f"/><path d="m264.345 302.023a23.9 23.9 0 0 1 -3.345 4.223 10.924 10.924 0 0 0 -3.223 8.2 8.442 8.442 0 0 0 1.98 5.187 8.107 8.107 0 0 0 6.832 2.639l29.193-2.419s1.433-17.348-22.535-21.84a8.625 8.625 0 0 0 -8.902 4.01z" fill="#916f6f"/><path d="m291.661 289.474 10.42-7.783a9.327 9.327 0 0 1 10.765-.263 22.72 22.72 0 0 1 6.756 6.921l-3.938 11.626s-13.877-1.5-24.003-10.501z" fill="#916f6f"/><g fill="#63605e"><path d="m183.613 73.821c-10.245-5.4-30.475-11.84-66.668-9.248-.1.959-.174 1.926-.2 2.9a39.4 39.4 0 0 0 .181 5.4s.023.353.12.966c0 0 37.575-5.265 65.475 2.7a1.471 1.471 0 0 0 1.092-2.718z"/><path d="m261.208 68.238a36.474 36.474 0 0 1 -10.392 9.233 1.5 1.5 0 0 0 .943 2.773 29.626 29.626 0 0 0 11.757-3.561q-1.08-4.483-2.308-8.445z"/><path d="m265.591 86.743a111.082 111.082 0 0 1 -15.74 11.688 1.5 1.5 0 0 0 .95 2.777c4.805-.578 11.044-1.8 16.242-4.405q-.616-5.284-1.452-10.06z"/><path d="m268.185 110.678a131.828 131.828 0 0 1 -20.535 9.122 1.5 1.5 0 0 0 .278 2.919c5.757.647 13.891 1.046 20.551-.594q-.015-5.961-.294-11.447z"/></g><path d="m234.649 138.89c-9.64 1.518-16.259-1-20.124-3.383.195 2.416.267 4.688.265 6.726a34.741 34.741 0 0 1 -.267 4.071c5.435 2.342 13.591 4.517 21.556 1.588a81.336 81.336 0 0 0 -1.43-9.002z" fill="#e2a083"/><path d="m229.477 215.024c-.09 5.714-.053 14.309.627 22.832a12.028 12.028 0 0 1 -3.059 9l-13.9 15.436a1.755 1.755 0 0 0 2.284 2.63l25.191-16.961v-37.069a20.465 20.465 0 0 0 -3.229-11.033l-6.652-10.393a51.3 51.3 0 0 0 -8.426 7.542l3.481 5.324a22.559 22.559 0 0 1 3.683 12.692z" fill="#916f6f"/><path d="m130.005 272.962-6.632-30.317 5.948-14.723a9.551 9.551 0 0 1 7.18-5.825l11.973-2.132 14.257-37.558-10.573 5.877-9.225 24.916-8.712.884a15.024 15.024 0 0 0 -12.651 9.952l-5.645 16.018-19.785-.384a1.274 1.274 0 0 0 -.3 2.518l20.376 4.54 8.525 32.438 27.785 17.452a1.252 1.252 0 0 0 1.5-1.99z" fill="#916f6f"/><circle cx="137.736" cy="52.866" fill="#63605e" r="3.439"/><path d="m192.894 97.819c8.447 4.051 13.708 10.728 16.951 18.03a69.033 69.033 0 0 1 17.427 4.246 47.476 47.476 0 0 0 -34.378-22.276z" fill="#e2a083"/><path d="m114.214 161.305a32.475 32.475 0 0 1 8.392-8.2 14.9 14.9 0 0 0 4.73-5.9 2.424 2.424 0 0 0 -3.5-2.986c-3.683 2.245-8.595 7.074-9.622 17.086z" fill="#63605e"/><path d="m150.612 171.4a29.583 29.583 0 0 0 -10.012-22.564 1.925 1.925 0 0 0 -3.195 1.578l.326 4.647c6.158 4.102 10.282 10.708 12.881 16.339z" fill="#63605e"/></svg>