<svg id="Flat" height="512" viewBox="0 0 340 340" width="512" xmlns="http://www.w3.org/2000/svg"><path d="m181.233 37.317-20.683-18.237a30.139 30.139 0 0 0 -19.933-7.532h-19.3a29.743 29.743 0 0 0 -10.951 2.052c-5.929 2.345-14.381 6.753-16.929 13.491a11.174 11.174 0 0 0 -.622 2.946l-.815 8.872a25.35 25.35 0 0 1 -7.416 15.67c-.126.126-.253.253-.38.383a25.212 25.212 0 0 0 -7.023 19.281c.316 5.127.193 12.963-2.478 19.641 0 0-5.657 14.456 5.028 26.712 0 0 13.208 17.644 40.366 37.03a63.233 63.233 0 0 1 13.544 12.945 76.354 76.354 0 0 1 11.546 21.088 44.009 44.009 0 0 1 2.388 14.444v20.905a56.051 56.051 0 0 1 -.928 10.162 56.13 56.13 0 0 0 -.928 10.161v37.624a34.514 34.514 0 0 0 4.637 17.256c2.083 3.608 4.368 7.762 5.7 10.8 2.612 5.936 9.264 13.805 24.144 15.386a9.465 9.465 0 0 0 10.48-8.463c.02-.252.032-.51.035-.772a9.345 9.345 0 0 0 -3.387-7.221c-3.008-2.515-8-7.814-6.875-14.576a25.586 25.586 0 0 1 5.918-13.969 16.967 16.967 0 0 0 4.344-11.139v-9.514a15.1 15.1 0 0 1 7.438-12.964c5.351-3.181 12.308-8.267 16.323-14.972a12.733 12.733 0 0 0 1.514-9.037l-1.063-5.309a48.47 48.47 0 0 1 -.872-11.686 2.436 2.436 0 0 1 4.117-1.592 29.933 29.933 0 0 0 3.511 2.873 14.8 14.8 0 0 0 17.963-.81l16.294-13.657a32.759 32.759 0 0 0 8.163-10.264l1.765-3.47a32.769 32.769 0 0 0 3.516-13.168l.473-9.173a32.784 32.784 0 0 1 6.088-17.4l4.3-6a15.148 15.148 0 0 0 2.833-8.82v-14.239a15.083 15.083 0 0 0 -7.18-12.882 99.9 99.9 0 0 0 -9.609-5.164 61.907 61.907 0 0 1 -11.928-7.485 87.457 87.457 0 0 0 -29.07-14.611 33.26 33.26 0 0 1 -12.756-7.272z" fill="#f79d79"/><path d="m225.294 72.913a33.26 33.26 0 0 1 -12.756-7.272l-31.3-28.324-11.832-10.428a43.4 43.4 0 0 0 -27.383 40.028c-2.219 42.634 36.6 69.68 38.26 70.813l5.079 3.472 5.079-3.472c1.563-1.069 36.2-25.2 38.25-63.73-1.105-.373-2.23-.739-3.397-1.087z" fill="#c15742"/><path d="m178.763 64.98-39.063-3.842a15.751 15.751 0 0 0 -10.747 2.9l-9.888 7.125a15.746 15.746 0 0 1 -7.38 2.865l-.307.036a15.745 15.745 0 0 0 -13.656 12.769l-2.01 10.854a15.682 15.682 0 0 0 3.819 13.449 73.062 73.062 0 0 0 12.693 10.7 16.071 16.071 0 0 1 2.141 1.743c3.3 3.218 14.054 13.814 21.61 22.621.269.314.52.631.762.966 1.9 2.618 12.524 16.389 26.45 17.353a15.3 15.3 0 0 0 8.264-1.851l9.883-5.3a15.745 15.745 0 0 1 11.5-1.338l10.166 2.717a15.743 15.743 0 0 0 13.893-2.919l5.118-4.094a15.746 15.746 0 0 0 5.91-12.3v-2.213a15.745 15.745 0 0 1 4.46-10.98 15.747 15.747 0 0 0 4.388-12.488l-.065-.677a15.747 15.747 0 0 0 -4.823-9.9l-21.546-20.49a15.779 15.779 0 0 0 -2.71-2.068l-22.263-13.446a15.752 15.752 0 0 0 -6.599-2.192z" fill="#878e73"/><path d="m180.283 137.73 3.021 2.065a3.648 3.648 0 0 0 4.116 0l3.021-2.065c1.246-.852 23.486-16.344 33.515-42.091l-13.619-12.952a15.779 15.779 0 0 0 -2.71-2.068l-22.265-13.447a15.752 15.752 0 0 0 -6.6-2.192l-36.345-3.575a43.56 43.56 0 0 0 -.4 5.512c-2.217 42.634 36.609 69.683 38.266 70.813z" fill="#42493e"/><path d="m219.7 67.172a34.34 34.34 0 0 0 -68.68 0c-1.855 33.351 25.705 56.586 32.731 61.947a2.647 2.647 0 0 0 3.218 0c7.031-5.361 34.588-28.596 32.731-61.947z" fill="#f95885"/><circle cx="185.362" cy="67.172" fill="#fff" r="13.729"/><g fill="#92d3ff"><path d="m88.551 191.324a16.747 16.747 0 0 1 -9.668-2.853 9.854 9.854 0 0 0 -11.1 0 16.75 16.75 0 0 1 -9.668 2.853 16.743 16.743 0 0 1 -9.667-2.853 9.016 9.016 0 0 0 -5.551-1.713 9.015 9.015 0 0 0 -5.55 1.713 16.743 16.743 0 0 1 -9.667 2.853 16.729 16.729 0 0 1 -9.664-2.854 9.014 9.014 0 0 0 -5.547-1.712 4 4 0 0 1 0-8 16.737 16.737 0 0 1 9.664 2.854 9.014 9.014 0 0 0 5.547 1.712 9.019 9.019 0 0 0 5.551-1.713 16.75 16.75 0 0 1 9.666-2.853 16.751 16.751 0 0 1 9.667 2.853 9.852 9.852 0 0 0 11.1 0 17.806 17.806 0 0 1 19.335 0 9.023 9.023 0 0 0 5.553 1.713 4 4 0 0 1 0 8z"/><path d="m118.646 211.084a16.746 16.746 0 0 1 -9.667-2.853 9.855 9.855 0 0 0 -11.105 0 17.8 17.8 0 0 1 -19.334 0 9.849 9.849 0 0 0 -11.1 0 16.746 16.746 0 0 1 -9.667 2.853 16.727 16.727 0 0 1 -9.664-2.854 9.015 9.015 0 0 0 -5.548-1.712 4 4 0 0 1 0-8 16.733 16.733 0 0 1 9.665 2.854 9.846 9.846 0 0 0 11.1 0 17.8 17.8 0 0 1 19.333 0 9.852 9.852 0 0 0 11.1 0 17.806 17.806 0 0 1 19.335 0 9.02 9.02 0 0 0 5.552 1.713 4 4 0 1 1 0 8z"/><path d="m296.44 279.406a16.747 16.747 0 0 1 -9.668-2.853 9.86 9.86 0 0 0 -11.105 0 17.8 17.8 0 0 1 -19.334 0 9.854 9.854 0 0 0 -11.1 0 17.8 17.8 0 0 1 -19.331 0 9.014 9.014 0 0 0 -5.547-1.711 4 4 0 0 1 0-8 16.737 16.737 0 0 1 9.664 2.853 9.845 9.845 0 0 0 11.1 0 17.809 17.809 0 0 1 19.334 0 9.852 9.852 0 0 0 11.1 0 17.811 17.811 0 0 1 19.335 0 9.023 9.023 0 0 0 5.553 1.713 4 4 0 0 1 0 8z"/><path d="m326.535 299.165a16.746 16.746 0 0 1 -9.667-2.853 9.855 9.855 0 0 0 -11.105 0 17.806 17.806 0 0 1 -19.335 0 9.849 9.849 0 0 0 -11.1 0 17.795 17.795 0 0 1 -19.33 0 9.015 9.015 0 0 0 -5.548-1.712 4 4 0 0 1 0-8 16.73 16.73 0 0 1 9.665 2.854 9.845 9.845 0 0 0 11.1 0 17.8 17.8 0 0 1 19.334 0 9.852 9.852 0 0 0 11.1 0 17.806 17.806 0 0 1 19.335 0 9.02 9.02 0 0 0 5.552 1.713 4 4 0 0 1 0 8z"/><path d="m297.44 27.235a16.75 16.75 0 0 1 -9.668-2.852 9.86 9.86 0 0 0 -11.105 0 17.809 17.809 0 0 1 -19.334 0 9.855 9.855 0 0 0 -11.1 0 17.8 17.8 0 0 1 -19.33 0 9 9 0 0 0 -5.547-1.712 4 4 0 0 1 0-8 16.742 16.742 0 0 1 9.663 2.852 9.85 9.85 0 0 0 11.1 0 17.809 17.809 0 0 1 19.332 0 9.854 9.854 0 0 0 11.1 0 17.816 17.816 0 0 1 19.335 0 9.023 9.023 0 0 0 5.553 1.713 4 4 0 0 1 0 8z"/><path d="m327.535 47a16.746 16.746 0 0 1 -9.667-2.853 9.855 9.855 0 0 0 -11.105 0 17.806 17.806 0 0 1 -19.335 0 9.849 9.849 0 0 0 -11.1 0 17.795 17.795 0 0 1 -19.33 0 9.015 9.015 0 0 0 -5.548-1.712 4 4 0 0 1 0-8 16.73 16.73 0 0 1 9.665 2.854 9.845 9.845 0 0 0 11.1 0 17.8 17.8 0 0 1 19.334 0 9.852 9.852 0 0 0 11.1 0 17.806 17.806 0 0 1 19.335 0 9.02 9.02 0 0 0 5.552 1.713 4 4 0 0 1 0 8z"/></g></svg>