<svg id="Flat" height="512" viewBox="0 0 340 340" width="512" xmlns="http://www.w3.org/2000/svg"><path d="m179.55 127.216s13.335 20.016-6.507 50.034a44.238 44.238 0 0 0 -2.225 34.6h-29.064l2.289-33.324 26.775-22.132z" fill="#a83948"/><path d="m127.763 211.846s-5.088-28.237 19.842-45.28c22.241-15.206 26.867-33.754 23.451-46.745a1.352 1.352 0 0 1 2.216-1.362c.714.665 1.491 1.436 2.3 2.309a29.689 29.689 0 0 1 -1.553 41.525 99.09 99.09 0 0 1 -10.5 8.72 31.487 31.487 0 0 0 -12.886 22.124 43.933 43.933 0 0 0 2.068 18.709z" fill="#d68683"/><path d="m69.791 205.256s23.507 6.646 65.624-9.195c0 0 34.845 12.108 85.778 12.108 0 0 44.915 4.253 76.748-11.1 0 0 10.517 8.185 32.877 8.185v50.271l-272.681 10.888z" fill="#32579d"/><path d="m330.818 255.527a34.632 34.632 0 0 1 -13.218-4.027l-20.238-11-20.231 11a34.679 34.679 0 0 1 -33.123 0l-20.233-11-20.23 11a34.679 34.679 0 0 1 -33.124 0l-20.229-11-20.225 11a34.677 34.677 0 0 1 -33.126 0l-20.228-11-11.2 6.089-7.276 68.761h272.681z" fill="#5f8ad8"/><path d="m166.066 54.15a78.98 78.98 0 0 0 37.514-1.077c10.1-2.731 25.32-6.065 39.436-6.065l26.625 12.732 24.181 40.434-27.476 67.881s-60.924 54.61-54.582 144.2h74.13s-16.876-64.25 17.512-119.768c31.643-51.086 27.412-89.142 27.412-89.142s-1.057-55.957-53.99-80.139c-11.136-5.088-22.378-8.338-42.575-8.338-18.249 0-35.709 9.593-43.932 14.869a54.817 54.817 0 0 1 -26 8.791q-1.564.1-3.2.112c-7.913.047-9.711 11-2.217 13.541a66.943 66.943 0 0 0 7.162 1.969z" fill="#dd5766"/><path d="m289.529 71.852c-9.217-12.4-23.778-23.6-46.513-24.844a51.821 51.821 0 0 1 4.525 2.712 10.694 10.694 0 0 1 4.545 11.211 7.97 7.97 0 0 0 1.53 6.632l5.528 7.007a7.968 7.968 0 0 0 7.208 2.976 9.57 9.57 0 0 1 9.935 5.622 67.6 67.6 0 0 1 5.568 24.648s.619 29.518-38.091 53.784c0 0-81.033 56.543-65.872 144.334l48.647 9.416s-18.439-68.65 44.724-135.74a134.522 134.522 0 0 0 22.313-28.687c14.267-24.899 13.076-56.042-4.047-79.071z" fill="#ffbfb8"/><path d="m289.529 71.852c-9.217-12.4-23.778-23.6-46.513-24.844a51.821 51.821 0 0 1 4.525 2.712 10.694 10.694 0 0 1 4.545 11.211 7.97 7.97 0 0 0 1.53 6.632l5.528 7.007a7.968 7.968 0 0 0 7.208 2.976 9.57 9.57 0 0 1 9.935 5.622 67.6 67.6 0 0 1 5.568 24.648s.619 29.518-38.091 53.784c0 0-81.033 56.543-65.872 144.334l48.647 9.416s-18.439-68.65 44.724-135.74a134.522 134.522 0 0 0 22.313-28.687c14.267-24.899 13.076-56.042-4.047-79.071z" fill="#ffc5c5"/><path d="m282.088 285.014c-18.782 2-25.917-12.749-25.917-12.749-8.279 16.9-21.76 14.8-21.76 14.8-6.812-.568-11.729-2.581-15.274-5.121a16.84 16.84 0 0 1 -6.044-8.051 181.218 181.218 0 0 0 -1.329 38.366h74.13a154.4 154.4 0 0 1 -3.806-27.245z" fill="#a83948"/><path d="m226.539 315.35s-3.193-11.911-2.365-30.649a25.1 25.1 0 0 1 -5.037-2.761 17.467 17.467 0 0 1 -5.581-21.195 65.767 65.767 0 0 0 4.9-21.444 6.375 6.375 0 0 0 -10.19-5.57c-7.446 5.61-18.139 13.709-29.025 22.089a126 126 0 0 0 -1.349 50.114z" fill="#d68683"/><path d="m91.57 223.412-.048-.006a7.679 7.679 0 0 1 -6.4-5.356 189.734 189.734 0 0 0 -6.885-18c-.436-.993-.909-3.094-.3-3.993l4.285-12.034a49.825 49.825 0 0 0 -10.232-13.187 1.519 1.519 0 0 0 -1.269-.358l-8.535 1.449a4.6 4.6 0 0 1 -4.266-1.559c-19.054-22.434-14.642-40.257-14.642-40.257-12.884 3.536-17.139 11.189-17.139 11.189l23.508 168.9h19.827l20.959-3.772a180.144 180.144 0 0 0 3.046-39.216 7.641 7.641 0 0 1 3.828-6.88l1.643-.944a6.121 6.121 0 0 0 3.09-5.04 62.375 62.375 0 0 0 -4.866-26.776 7 7 0 0 0 -5.604-4.16z" fill="#ffc5c5"/><path d="m93.479 267.214a7.641 7.641 0 0 1 3.828-6.88l1.643-.944a6.121 6.121 0 0 0 3.09-5.04 62.375 62.375 0 0 0 -4.866-26.776 7 7 0 0 0 -5.6-4.162l-.048-.006a7.68 7.68 0 0 1 -6.4-5.355c-.5-1.582-1.038-3.175-1.594-4.738 0 .087-.1 41.7-39.433 56.993l5.553 39.9h19.822l20.959-3.772a180.144 180.144 0 0 0 3.046-39.22z" fill="#d68683"/><path d="m43.278 130.112s-6.073 5.918-6.551 18.124a37.855 37.855 0 0 0 6.508 22.394c7.805 11.716 24.8 41.228 27.528 79.583l-10.745 54.05-41.553-4.617 3.567-24.3a103.969 103.969 0 0 0 6.5-60.181 205.26 205.26 0 0 0 -14.708-47.214 53.011 53.011 0 0 1 -1.939-39.341c4.34-12.383 14.005-25.2 34.758-31.079 0 0 30.524-8.3 46 16.778 6.86 11.117 6.163 25.543-2.505 35.317-4.45 5.018-11.056 9.034-20.8 9.034 0 0-11.807.114-19.163-6.138z" fill="#dd5766"/><path d="m22.029 275.346q-1.715 3.963-3.781 7.791c-6.923 12.785-7.43 23.679-7.43 23.679l51.565 3.384a144.46 144.46 0 0 0 8.375-59.988c-8.793 11.92-23.647 22.706-48.729 25.134z" fill="#a83948"/><path d="m325.592 306.82a17.78 17.78 0 0 1 -12.648-5.122l-9.469-9.535-9.466 9.532a18.176 18.176 0 0 1 -25.3 0l-9.465-9.532-9.464 9.532a18.177 18.177 0 0 1 -25.3 0l-9.464-9.531-9.461 9.529a18.176 18.176 0 0 1 -25.3 0l-9.461-9.529-9.458 9.528a18.177 18.177 0 0 1 -25.3 0l-9.461-9.529-9.457 9.526a18.176 18.176 0 0 1 -25.3 0l-9.455-9.526-9.46 9.528a18.176 18.176 0 0 1 -25.3 0l-9.46-9.529-9.46 9.529a17.779 17.779 0 0 1 -12.649 5.124h-5.216v18.316h320v-18.292z" fill="#74a9f7"/><path d="m196.078 207.035a14.472 14.472 0 0 1 21.022 9.665c2.3 10.407 2.455 25.29-8.851 38.985-6.556 7.941-12.816 12.48-18.275 14.992a17.054 17.054 0 0 1 -24.19-14.6c-.427-7.979 1.6-18.393 10.215-30.129 7.344-10.004 14.28-15.699 20.079-18.913z" fill="#ffc5c5"/><path d="m195.083 226.585c3.165-1.437 6.6.945 6.864 4.681a18.858 18.858 0 0 1 -5.006 14.74 19.117 19.117 0 0 1 -7.116 5.012c-4.083 1.476-8.094-2.023-7.726-6.738a19.491 19.491 0 0 1 5.047-11.243 23.8 23.8 0 0 1 7.937-6.452z" fill="#d68683"/><circle cx="72.442" cy="44.541" fill="#74a9f7" r="10.982"/><circle cx="210.055" cy="98.776" fill="#74a9f7" r="9.741"/><path d="m50.174 152.524c-1.336-5.87-.534-16.269 7.963-18.957 7.319-2.315 11.776 1.947 14.171 5.725a1.917 1.917 0 0 0 3.522-1.034 13.46 13.46 0 0 0 -3.389-9.028 17.642 17.642 0 0 0 -17.663-5.685c-6.432 1.615-11.5 6.566-11.5 6.566-3.034 9.907.57 18.146 6.896 22.413z" fill="#a83948"/><path d="m126.155 131.059a6.1 6.1 0 0 1 -4.05-1.535l-.838-.742a6.114 6.114 0 0 1 8.1-9.156l.838.742a6.113 6.113 0 0 1 -4.054 10.691z" fill="#5375b9"/><g fill="#d68683"><path d="m78.511 197.02 4.657-6.915a3.742 3.742 0 0 0 .263-3.711c-.395-.822-.8-1.6-1.219-2.364l-2.923 2.744a4.225 4.225 0 0 1 -5.285.4l-4.143-2.851a.618.618 0 0 0 -.85.872 161.636 161.636 0 0 1 9.225 14.859 3.156 3.156 0 0 1 .275-3.034z"/><path d="m246.364 172.161-14.464-.861a196.676 196.676 0 0 0 -22.652 24.149 29.712 29.712 0 0 0 8.051 4.4c14.9 5.545 27.261-7.818 34.007-17.678a6.419 6.419 0 0 0 -4.942-10.01z"/><path d="m281.3 113.7-.13.034c-1.189 6.081-4.458 16.189-13.415 27.188 15.443 1.734 19.536-11.915 20.556-21.106a5.644 5.644 0 0 0 -7.011-6.116z"/></g><path d="m246.241 144.321a11.318 11.318 0 0 1 14.593 10.7c.131 8.335-2.086 19.763-12.9 28.483-6.269 5.055-11.777 7.552-16.354 8.62a13.338 13.338 0 0 1 -16.244-14.984c.925-6.18 4.112-13.842 12.554-21.483 7.195-6.508 13.403-9.784 18.351-11.336z" fill="#ffc5c5"/><path d="m272.978 98.268a7.865 7.865 0 0 1 12.42 1.979 24.082 24.082 0 0 1 1.077 21.7 28.73 28.73 0 0 1 -7.369 10.523 9.268 9.268 0 0 1 -14.8-4.1c-1.392-4.113-1.856-9.861.933-17.265 2.379-6.305 5.175-10.305 7.739-12.837z" fill="#ffc5c5"/><path d="m241.775 160.489c2.247-.512 4.162 1.492 3.836 3.953a12.506 12.506 0 0 1 -5.212 8.909 12.672 12.672 0 0 1 -5.288 2.308c-2.848.416-4.989-2.39-4.122-5.4a12.914 12.914 0 0 1 4.773-6.631 15.775 15.775 0 0 1 6.013-3.139z" fill="#d68683"/><path d="m275.23 120.748a3.5 3.5 0 0 1 -3.3-4.658l1.315-3.754a3.5 3.5 0 0 1 6.606 2.315l-1.315 3.753a3.5 3.5 0 0 1 -3.306 2.344z" fill="#d68683"/></svg>