<svg id="icon" height="512" viewBox="0 0 340 340" width="512" xmlns="http://www.w3.org/2000/svg"><path d="m289.781 156.184 24.367 48.945a20.919 20.919 0 0 1 -1.105 20.621 321.025 321.025 0 0 1 -21.1 29.171 8.479 8.479 0 0 0 -.071 10.619 12 12 0 0 1 .416 14.5q-.092.126-.186.249a12.14 12.14 0 0 1 -21.1-3.451 33.757 33.757 0 0 1 -1.115-17.718 43.282 43.282 0 0 1 4.712-12.685l17.121-31.088a2.324 2.324 0 0 0 -.254-2.614l-28.381-33.858s3.615-21.134 26.696-22.691z" fill="#ffd0b0"/><path d="m263.081 178.873 10.833 12.927a29.621 29.621 0 0 0 -.09-14.821c2.927-9.053 15.957-20.791 15.957-20.791-23.081 1.553-26.7 22.685-26.7 22.685z" fill="#e8968e"/><path d="m187.612 140.73-23.612 2.56a3.514 3.514 0 0 1 -3.668-4.727l20.693-55.169-6.675-16.125s-25.28 30.065-44.641 74.954a18.714 18.714 0 0 0 15.478 26.047 240.586 240.586 0 0 0 44.422-.037l10.108-14.181z" fill="#ffd0b0"/><path d="m189.613 168.233 10.108-14.181-12.109-13.322-6.171.669-16.441 27.866a226.546 226.546 0 0 0 24.613-1.032z" fill="#e8968e"/><path d="m255.252 253.528a173.96 173.96 0 0 1 13.135 15.172 60.98 60.98 0 0 1 12.756 35.128 192.659 192.659 0 0 1 -.4 24.4h-109.882a254.159 254.159 0 0 1 12.622-37.352c8.193-18.837 11.743-30.2 11.743-30.2z" fill="#8ba3c6"/><path d="m280.743 328.233a192.659 192.659 0 0 0 .4-24.4 60.98 60.98 0 0 0 -12.756-35.133 173.96 173.96 0 0 0 -13.135-15.174l-60.026 7.151s10.794 16.3 44.241 10.8c0 0 10.625-2.117 19.534 4.971a18.6 18.6 0 0 1 5.292 7.474c3.052 7.233 10.445 27.589 5.092 44.312z" fill="#405d7f"/><path d="m193.336 219.432s-2 16.263 1.89 41.247c0 0 11.1 7.89 29.1 7.89s30.931-15.041 30.931-15.041l-4.024-5.5a13.313 13.313 0 0 1 -2.45-6.075 24.968 24.968 0 0 1 -.111-6.563l1.425-9.123z" fill="#ffd0b0"/><path d="m193.129 221.712c2.787 2.194 24.583 18.358 55.515 13.861.009-.059.014-.124.023-.181l1.425-9.123-56.756-6.837s-.097.788-.207 2.28z" fill="#e8968e"/><path d="m196.427 101.361s-21.332-2.322-24.888-22.2 5.037-37.059 5.037-37.059 7.178-14.356 21.03-15.619a12.413 12.413 0 0 0 4.6-1.377c.562-.292 1.225-.617 1.982-.955a37.791 37.791 0 0 1 44.912 11.332 70.353 70.353 0 0 1 12.128 23.241 72.143 72.143 0 0 1 2.612 13.1c1.284 11.639 4.885 46.707 4.885 73.974h-71.113s-1.185-29.03-1.185-44.437z" fill="#ce6046"/><path d="m268.72 145.8c0-7.782-.294-16.2-.744-24.528-25.562-2.926-27.022-42.653-27.022-42.653l-5.3-.913-15.22 36.065-.666 32.029z" fill="#a54532"/><path d="m228.153 111.856-4.986-24.112-27.244-37.355s-11.389 13.916-25.233 17.753a56.692 56.692 0 0 0 .849 11.022c3.556 19.875 24.888 22.2 24.888 22.2 0 15.407 1.185 44.442 1.185 44.442h30.165z" fill="#a54532"/><path d="m245.146 125.947a20.406 20.406 0 0 0 2.071 2.053 23.413 23.413 0 0 0 13.8 5.594c5.864.424 19.892 3.513 28.764 22.587 0 0-14.363 9.158-21.061 20.606 0 0 4.84 21.719-14.049 33.739l-4.579 15.74s-38.154 6.9-56.756-6.837v-14.02s-16.688-7.342-14.211-28.427c0 0 2.191-12.724 12.207-21.942l-3.72-14.31s8.1-5.9 18.316-6.3a105.332 105.332 0 0 0 24.326-4.293z" fill="#f45d77"/><path d="m194.131 137.2c4.94 3.782 34 23.338 86.439 5.585a31.339 31.339 0 0 0 -19.553-9.192 23.415 23.415 0 0 1 -13.8-5.594 20.406 20.406 0 0 1 -2.071-2.056l-14.892 4.194a105.332 105.332 0 0 1 -24.326 4.293 33.989 33.989 0 0 0 -11.797 2.77z" fill="#bc3552"/><path d="m117.267 37.974-22.434-1.413a4.789 4.789 0 0 1 -3.617-2.024l-14.59-20.737a4.79 4.79 0 0 0 -7.835 0l-14.591 20.737a4.791 4.791 0 0 1 -3.617 2.024l-22.433 1.413a4.791 4.791 0 0 0 -3.486 7.716l16.264 20.983a4.786 4.786 0 0 1 .872 4.037l-6.314 26.705a4.79 4.79 0 0 0 6.911 5.333l28.062-14.926a4.785 4.785 0 0 1 4.5 0l28.061 14.926a4.791 4.791 0 0 0 6.912-5.333l-6.318-26.705a4.786 4.786 0 0 1 .875-4.037l16.263-20.983a4.79 4.79 0 0 0 -3.485-7.716z" fill="#ffca58"/><path d="m237.319 92.379s-.811 16.924 6.316 30.161a24.629 24.629 0 0 1 2.507 16.425c-1.477 7.5-5.069 16.848-13.738 21.471a15.133 15.133 0 0 1 -16.889-1.533 13.339 13.339 0 0 1 -4.658-12.626 18.865 18.865 0 0 1 2.946-7.707l4.067-6.3a16.832 16.832 0 0 0 2.669-9.967l-.841-16.774z" fill="#ffd0b0"/><path d="m237.319 92.379-17.619 13.15.841 16.774q.033.66.014 1.317a16.825 16.825 0 0 1 -2.683 8.65l-4.067 6.3q-.507.786-.942 1.614l-.046.084q-.432.826-.783 1.688l-.027.064a18.353 18.353 0 0 0 -.619 1.789l-.006.019a17.114 17.114 0 0 0 -.428 1.874 89.6 89.6 0 0 0 31.389 4.376 37.558 37.558 0 0 0 2.8-7c.014-.048.027-.1.04-.144.12-.414.235-.826.34-1.235.041-.156.075-.31.114-.465.075-.3.151-.608.219-.907.1-.461.2-.918.29-1.367.021-.106.029-.213.048-.319a24.413 24.413 0 0 0 .151-7.879 24.557 24.557 0 0 0 -2.706-8.227c-7.131-13.235-6.32-30.156-6.32-30.156z" fill="#e8968e"/><path d="m213.524 245.629a2.185 2.185 0 0 1 -2.185-2.185v-1.344a2.186 2.186 0 1 1 4.371 0v1.341a2.186 2.186 0 0 1 -2.186 2.188z" fill="#e8968e"/><path d="m200.377 40.682a1.037 1.037 0 0 1 1.859-.267c1.405 2.095 4.595 5.553 11.8 9.954 12.21 7.461 22.385 16.618 23.4 30.863v8.551c0 7.269-7.161 19.814-7.161 19.814a29.5 29.5 0 0 1 -2.121 2.259 34.312 34.312 0 0 1 -12.324 7.669 12.234 12.234 0 0 1 -10.049-.915 43.356 43.356 0 0 1 -3.878-2.448 29.638 29.638 0 0 1 -12.289-24.227v-25.6a20.879 20.879 0 0 1 3.316-11.29l2.994-4.657a37.9 37.9 0 0 0 4.381-9.467z" fill="#ffd0b0"/><path d="m237.435 89.783v-8.551c-1.017-14.245-11.192-23.4-23.4-30.863a52.992 52.992 0 0 1 -8.652-6.375 29.159 29.159 0 0 0 8.143 8.537c8.947 6.424 16.454 15.5 18.357 24.581 0 0 4.217 21-1.618 32.5a30.7 30.7 0 0 0 7.17-19.829z" fill="#e8968e"/><path d="m234.328 82.469-.339-5.668h-44.376v15.134l.177.337a12.824 12.824 0 0 0 7.15 1.774c3.786 0 7.09-2.468 9-4.268a2.378 2.378 0 0 1 3.295.061c1.854 1.8 5.507 4.207 11.745 4.207 9.929 0 13.348-11.577 13.348-11.577z" fill="#e8968e"/><path d="m241.786 75.694h-53a3.166 3.166 0 0 0 -3.186 3.152 18.789 18.789 0 0 0 .23 2.835c1.662 10.279 13.48 12.774 18.721 4.136a16.652 16.652 0 0 0 2.093-6.093h2.111a16.674 16.674 0 0 0 2.094 6.093c5.24 8.638 17.059 6.143 18.721-4.136a18.522 18.522 0 0 0 .193-2l9.4-.421a3.28 3.28 0 0 0 2.668-1.592l.555-.925a.694.694 0 0 0 -.6-1.049z" fill="#373d4c"/><path d="m225.183 304.341a7.071 7.071 0 0 0 -3.606-3.077 17.232 17.232 0 0 1 -5.46-3.3.947.947 0 0 0 -1.487 1.127 12.934 12.934 0 0 0 3.27 4.006 8.03 8.03 0 0 1 1.512 1.645 8.533 8.533 0 0 1 1.337 3.494c.612 3.686 1.553 13.337-3.79 20h14.518c-.384-11.961-4.108-20.103-6.294-23.895z" fill="#405d7f"/><path d="m221.554 207.869a10.219 10.219 0 0 0 -6.767-.477c-11.168 2.931-21.419-1.983-21.419-1.983v14.023c18.6 13.737 56.757 6.837 56.757 6.837l4.579-15.74a50.238 50.238 0 0 1 -33.15-2.66z" fill="#c94769"/><g fill="#fff"><path d="m194.749 78.544h-4.149a1.5 1.5 0 0 0 -1.5 1.547 12.394 12.394 0 0 0 .723 3.935.657.657 0 0 0 1.089.206l4.313-4.589a.652.652 0 0 0 -.476-1.099z"/><path d="m218.5 78.544h-4.154a1.5 1.5 0 0 0 -1.5 1.547 12.394 12.394 0 0 0 .723 3.935.657.657 0 0 0 1.089.206l4.313-4.589a.652.652 0 0 0 -.471-1.099z"/></g></svg>