<svg id="flat" height="512" viewBox="0 0 340 340" width="512" xmlns="http://www.w3.org/2000/svg"><path d="m279.407 189.682s7.527-4.517 19.57-2.509 31.614 24.587 32.617 71.756c0 0 1 52.187-40.143 56.2s-49.678-25.09-49.678-25.09z" fill="#eda051"/><path d="m48.809 242.872s-17.865-118.472 67.959-202.528a97.925 97.925 0 0 1 43.777-25.162c19.883-5.143 46.353-5.143 72.7 15.431 0 0 53.692 46.165 55.2 142.509 0 0 .772 79.284-31.111 117.42 0 0-25.592 29.1-67.743 32.528 0 0-75.359 9.215-110.4-24.5-26.591-25.591-30.382-55.698-30.382-55.698z" fill="#ffd87b"/><path d="m78.044 235.417c-11.017-13.371-24.479-16.117-30.709-13.433a183.788 183.788 0 0 0 1.474 20.888s3.787 30.107 30.382 55.7c7.259 6.985 16.25 12.122 25.942 15.885 8.42-32.909-13.297-62.3-27.089-79.04z" fill="#eda051"/><path d="m49.056 233.338a18.152 18.152 0 0 1 13.884 6.428c7.244 8.584 19.332 24.992 24.906 44.464a34.033 34.033 0 0 1 -4.934 29.39c-5.32 7.309-14.4 14.055-29.814 14.055a76.831 76.831 0 0 1 -18.689-2.153 34.453 34.453 0 0 1 -25.567-38.9 77.657 77.657 0 0 1 28.723-49.2 18.377 18.377 0 0 1 11.491-4.084z" fill="#ffd87b"/><path d="m46.086 279.706a13.551 13.551 0 0 1 9.424 9.757s2.045 20.177-16.007 14.16c-12.126-4.043-10.873-11.923-7.892-17.623a12.435 12.435 0 0 1 14.475-6.294z" fill="#fff"/><g fill="#eda051"><path d="m141.7 269.147s10.9 0 16.091 9.333a18.441 18.441 0 0 1 1.718 12.778c-1.45 6.887-6.083 17.558-20.887 15.443-22.67-3.239-16.314-23.087-16.314-23.087s3.386-14.467 19.392-14.467z"/><path d="m81.059 120.47c17.854 0 16.315-16.008 16.315-16.008-2.447-11.825-11.641-15.276-17.574-16.262a230.617 230.617 0 0 0 -13.458 27.622c3.036 2.557 7.667 4.647 14.717 4.648z"/><path d="m224.282 50.292s-15.782-3.687-16.838 13.674c0 0-.641 15.023 14.185 15.031 16.725.009 15.878-13.729 15.878-13.729s0-11.888-13.225-14.976z"/></g><path d="m318.864 223.943s-11.693 3.549-11.484 16.077c0 0 0 13.414 13.989 13.363a9.2 9.2 0 0 0 9.111-10.263c-.541-4.437-1.258-8.6-2.122-12.485a8.558 8.558 0 0 0 -9.409-6.7z" fill="#cc814c"/><path d="m301.906 277.44a14.282 14.282 0 0 1 2.221 2.944 10.045 10.045 0 0 1 1.241 6.531c-.567 3.627-2.788 8.8-10.844 8.844-6.19.03-11.289-5.229-10.395-11.354a12.516 12.516 0 0 1 2.618-5.835 10.133 10.133 0 0 1 15.159-1.13z" fill="#ffd87b"/><path d="m166.678 150.243s-31.513-13.474-63.85-2.246c0 0-20.4 6.262-29.951 20.75a9.929 9.929 0 0 0 .5 11.484 10.008 10.008 0 0 0 8.511 3.9c15.923-.9 63.357-4.847 84.793-20.414z" fill="#96666b"/><path d="m155.372 162.172c-16.08 12.316-46.193 38.572-55.315 68.453a11.667 11.667 0 0 0 6.446 14.15l.262.111a11.535 11.535 0 0 0 11.835-1.907c10.14-8.543 34-30.883 47.248-61.788z" fill="#d19c90"/><path d="m171.792 146.722s20.619-38.64 65.291-46.441a10.434 10.434 0 0 1 12.194 10.919c-.987 15.426-11.674 40.705-69.425 46.234z" fill="#96666b"/><path d="m155.372 162.172a51.022 51.022 0 0 0 10.469 19.016 119.443 119.443 0 0 0 5.951-17.35l-6.087-9.1s-4.12 2.676-10.333 7.434z" fill="#96666b"/><path d="m185.26 148.932a214.42 214.42 0 0 1 51.167 1.158 43.79 43.79 0 0 1 17.837 6.622q.231.151.463.307c9.689 6.509 7.034 21.568-4.334 24.214-12.355 2.876-31.58 2.847-59.16-8.665z" fill="#d19c90"/><path d="m191.19 171.569a70.663 70.663 0 0 0 -5.929-22.634 125.238 125.238 0 0 0 -13.469 1.982l4.362 14.6c5.285 2.727 10.305 5.056 15.081 7.049-.006-.332-.016-.661-.045-.997z" fill="#96666b"/><path d="m174.463 172.474s-4.856 48.228 27.306 81.45a7.424 7.424 0 0 0 12.762-5.571 130.627 130.627 0 0 0 -33.78-80.08z" fill="#d19c90"/><path d="m159.949 141.71s-2.839 18.819 9.006 30.976c5.7 5.852 15.634 1.187 14.945-6.954-.658-7.775-3.81-17.961-13.255-28.963z" fill="#d19c90"/><circle cx="161.786" cy="132.354" fill="#d19c90" r="14.368"/><path d="m175.579 197.776a31.579 31.579 0 0 1 20.826-8.336q-1.967-3.3-4.211-6.61a38.755 38.755 0 0 0 -17.559 6.8c.211 2.526.514 5.256.944 8.146z" fill="#96666b"/><path d="m177.792 209.042c.58 2.356 1.25 4.763 2.022 7.2 3.572-3.084 12.069-8.818 25.6-8.584q-1.365-3.412-3-6.9a44.794 44.794 0 0 0 -24.622 8.284z" fill="#96666b"/><path d="m184.9 229.3q1.487 3.157 3.246 6.3a35.03 35.03 0 0 1 23.383-8.272c-.509-2.247-1.1-4.56-1.772-6.924a41.815 41.815 0 0 0 -24.857 8.896z" fill="#96666b"/><path d="m54.314 261.941h-2.207a3.464 3.464 0 1 1 0-6.928h2.207a3.464 3.464 0 1 1 0 6.928z" fill="#eda051"/><path d="m196.447 295.437a3.455 3.455 0 0 1 -2.7-1.292l-1.736-2.155a3.464 3.464 0 0 1 5.4-4.346l1.736 2.156a3.465 3.465 0 0 1 -2.7 5.637z" fill="#eda051"/><path d="m301.941 210.739a3.465 3.465 0 0 1 -3.464-3.464v-1.1a3.464 3.464 0 0 1 6.928 0v1.1a3.464 3.464 0 0 1 -3.464 3.464z" fill="#ffd87b"/><path d="m177.023 50.067h-1.9a3.464 3.464 0 0 1 0-6.928h1.9a3.464 3.464 0 1 1 0 6.928z" fill="#eda051"/><path d="m164.188 73.661a18.475 18.475 0 0 1 -3.738 13.331l-21.763 28.192a18.474 18.474 0 0 1 -16.018 7.132 18.427 18.427 0 0 1 -16.791-21.692c2.271-12.048 7.694-27.421 20.341-40.25 13.14-13.328 35.901-5.314 37.969 13.287z" fill="#fff"/></svg>