<svg id="flat" height="512" viewBox="0 0 340 340" width="512" xmlns="http://www.w3.org/2000/svg"><path d="m86.4 113a3.188 3.188 0 0 0 .376.023 3 3 0 0 0 2.973-2.628c.7-5.624 5.587-9.367 5.626-9.4.092-.07.18-.143.264-.221a24.387 24.387 0 0 0 7.6-14.216 3 3 0 0 0 -5.924-.953 18.489 18.489 0 0 1 -5.678 10.695c-1.082.851-6.894 5.741-7.844 13.348a3 3 0 0 0 2.607 3.352z" fill="#84335a"/><path d="m168.091 118.114a3 3 0 0 0 -5.146-3.086c-.27.442-6.342 10.127-20.333 10.58a45.686 45.686 0 0 0 12.64-22.046 3.08 3.08 0 0 0 -1.655-3.553 3 3 0 0 0 -4.154 2.047 39.647 39.647 0 0 1 -16.087 23.417c-1.622.9-12.737 7.487-16.536 20.732-5.089-21.205-27.82-24.856-33.48-25.439-9.045-10.1-7.9-25.86-7.876-26.106a3 3 0 0 0 -5.978-.507c-.06.7-1.192 15.375 6.661 27.1-8.183.534-14.341-.8-18.333-4a13.637 13.637 0 0 1 -4.982-9.717 3.116 3.116 0 0 0 -3.031-2.925 3 3 0 0 0 -2.963 3.227 19.84 19.84 0 0 0 7.226 14.1c5.406 4.329 13.385 6.076 23.759 5.206a36.347 36.347 0 0 1 18.258 3.088c7.143 3.3 14.5 9.609 15.606 21.682a3 3 0 0 0 2.985 2.727c.091 0 .183 0 .276-.013a2.969 2.969 0 0 0 .618-.124c0 .229-.016.455-.02.685a3.086 3.086 0 0 0 2.571 3.165 3 3 0 0 0 3.427-2.971c0-11.246 6.514-18.443 10.9-22.018.031-.019.064-.033.094-.054a10.131 10.131 0 0 1 6.383-1.779c20.095 1.35 28.808-12.815 29.17-13.418z" fill="#84335a"/><path d="m185.93 162.582a3 3 0 0 0 -4 1.4c-.4.818-10.03 20.052-36.187 17.347a3 3 0 1 0 -.615 5.969 53.573 53.573 0 0 0 5.477.287c26.4 0 36.631-20.79 36.738-21.014a3 3 0 0 0 -1.413-3.989z" fill="#84335a"/><path d="m75.564 174.252c-11.151 2.687-19.37 1.934-24.434-2.242-5.9-4.866-5.628-13.12-5.622-13.271a3 3 0 0 0 -5.992-.307c-.025.458-.5 11.312 7.736 18.158 4.189 3.481 9.748 5.226 16.609 5.226a56.37 56.37 0 0 0 13.109-1.732 3 3 0 0 0 -1.406-5.832z" fill="#84335a"/><path d="m87.011 137.667a3 3 0 1 0 -5.322 2.769 14.678 14.678 0 0 1 -.689 13.017c-2 3.689-7.31 13.489 1.714 23.367a3 3 0 0 0 4.43-4.047c-5.1-5.582-4.035-10.618-.868-16.461a20.734 20.734 0 0 0 .735-18.645z" fill="#84335a"/><path d="m253.989 264.631h106.088v15.212h-106.088z" fill="#894267" transform="matrix(0 1 -1 0 579.27 -34.796)"/><path d="m172.308 264.631h106.088v15.212h-106.088z" fill="#894267" transform="matrix(0 1 -1 0 497.589 46.886)"/><path d="m97.609 325.281s9.485-22.123 10.3-105.127a35.721 35.721 0 0 0 -11.109-26.436 48.526 48.526 0 0 0 -16.446-10.258s-21.143-7.258-22.69-33.544a.8.8 0 0 1 1.5-.438c3.183 5.916 11.329 18.125 26.02 22.249 0 0 18.98 4.486 24.847 17.945 0 0-.313-56.343 6.514-87.643a.8.8 0 0 1 1.576.091c1.48 13.936 5.773 56.554 6.058 84.791a34.846 34.846 0 0 1 16.565-12.078c9.858-3.389 18.616-14.478 20.627-25.412a.8.8 0 0 1 1.558-.03c1.991 8.311 4.277 27.827-14.593 37.52a52.1 52.1 0 0 0 -5.6 3.472 35.843 35.843 0 0 0 -15.118 28.434c-.537 20.546-.792 68.309 6.574 106.464z" fill="#aa4765"/><path d="m202.559 211.407h127.267v18.269h-127.267z" fill="#c47692"/><path d="m202.559 245.477h127.267v18.269h-127.267z" fill="#c47692"/><path d="m202.559 279.548h127.267v15.212h-127.267z" fill="#c47692"/><path d="m221.965 198.791c-7-.393-15.578-.02-23.664 2.621a20.907 20.907 0 0 0 -13.977 16.123c-1.289 7.061-1.584 16.53 2.921 25.036 0 0 3.235 2.888 4.832 4.707 3.968 4.517 9.61 4.586 15.993 2.8 0 0 9.993-2.9 11.537-11.651.807-4.571 3.969-11.474 7.482-14.508 6.328-5.464 7.241-17.292 7.241-17.292a14.738 14.738 0 0 0 -12.365-7.836z" fill="#caddfc"/><path d="m300.172 195.03s-11.8-1.829-20.082 6.645a9.545 9.545 0 0 0 -1.533 2.054s1.235 12.815 17.058 11.13c11.533-1.227 13.624-15.838 13.624-15.838a14.623 14.623 0 0 0 -9.067-3.991z" fill="#caddfc"/><path d="m97.86 323.291h-30.751c-8.882 0-13.194-8.089-7.032-14.485 1.641-1.7 6.759-6.026 6.759-6.026a18.917 18.917 0 0 0 6.709-6.793 18.982 18.982 0 0 1 17.207-9.9c9.576 0 15.3 9.343 17.571 19.717 0 0 .046 5.31.178 7.972-.001-.001-4.41 9.515-10.641 9.515z" fill="#caddfc"/><path d="m173.451 323.628c6.151-1.016 4.756-12.117 4.756-12.117-.137-.159-.283-.314-.436-.466-2.995-2.957-7.475-5.387-14.112-5.387a22.139 22.139 0 0 0 -10.058 2 7.965 7.965 0 0 0 -2.545 2.007s-2.172 9 2.709 11.385a32.25 32.25 0 0 0 19.686 2.578z" fill="#86abe0"/><path d="m29.639 215.822a30.478 30.478 0 0 0 -3.081 2.579 11.134 11.134 0 0 0 -2.263 3.018s-.238 14.409 9.946 14.75c12.859.431 11.059-17.275 11.059-17.275a10.938 10.938 0 0 0 -15.661-3.072z" fill="#caddfc"/><path d="m24.58 107.113a7.309 7.309 0 0 1 5.593 8.225c-.012.074-.025.148-.038.222l-3.972 6.121-13.987-1.806-1.393-6.3a10.055 10.055 0 0 1 2.829-4.2c2.273-2.007 5.763-3.475 10.968-2.262z" fill="#86abe0"/><path d="m71.945 68.848a35.92 35.92 0 0 1 -18.636 5.365c-5.916.152-13.26 2.943-18.1 13.953 0 0-5.554 12.939 9.256 19.93 10.7 5.048 22.022-4.942 27.8-11.189a15.027 15.027 0 0 1 9.735-4.587 55.113 55.113 0 0 0 16.11-2.875c10.283-3.7 5.74-21.51 5.74-21.51a13.986 13.986 0 0 0 -6.207-3.669c-6.816-1.987-15.653-1.884-25.698 4.582z" fill="#caddfc"/><path d="m140.691 16.447a10.052 10.052 0 0 0 -13.552 2.064c-1.561 2.089-2.474 5.078-1.495 9.31 0 0 4.236 6.811 8.186 7.456 4.146.678 9.785-.576 10.913-4.623.832-2.981.407-8.911.407-8.911a11.163 11.163 0 0 0 -4.459-5.296z" fill="#86abe0"/><path d="m174.69 77.018a29.388 29.388 0 0 1 -8.813-2.7c-4.876-2.39-13.6-4.8-21.877 2.367a20.553 20.553 0 0 0 -3.379 3.683s-1.36 17.283 11.949 21.463c3.854 1.211 8.338 4.766 10.107 8.4 2.788 5.72 7.73 11.694 20.294 8.241 7.422-2.039 10.528-5.3 12.052-10.263 1.378-4.494.889-12.351.889-12.351a25.336 25.336 0 0 0 -19.371-18.516q-.898-.188-1.851-.324z" fill="#caddfc"/><path d="m244.343 137.316c-2.647-6.917-11.352-10.022-17.561-5.209a14.708 14.708 0 0 0 -4.342 5.574s-1.73 16.43 12.7 15.015c7.767-.761 9.203-15.38 9.203-15.38z" fill="#caddfc"/><path d="m319.663 110.291c-3.9-6.713-15.1-8.758-20.007-.067-.071.125-.141.252-.211.381q-.14.258-.266.514s-.349 5.317.482 7.926c2.628 8.243 11.357 9.949 17.226 3.593 3.613-3.917 2.776-12.347 2.776-12.347z" fill="#86abe0"/><path d="m287.751 27.517c-2.448-11.155-20.481-13.806-24.434-.773 0 0-1.493 15.144 11.807 14.251 11.487-.771 12.627-13.478 12.627-13.478z" fill="#caddfc"/><g fill="#86abe0"><circle cx="40.828" cy="19.133" r="4.173"/><circle cx="262.224" cy="81.91" r="4.173"/><path d="m103.842 67.941c-.4 5.334-2.6 11.933-10.319 15.141a32.448 32.448 0 0 1 -16.5 2.385 13.807 13.807 0 0 0 -12.4 4.919 21.485 21.485 0 0 1 -4.58 4.225 18.77 18.77 0 0 1 -16.739 2.24 11.825 11.825 0 0 1 -8.091-8.679c-.12.271-.245.523-.361.805 0 0-5.5 13.653 9.313 20.644 10.7 5.049 22.587-5.494 28.368-11.741a13.261 13.261 0 0 1 9.176-4.188 58.5 58.5 0 0 0 16.6-2.947 13.971 13.971 0 0 0 5.533-22.804z"/><path d="m183.133 120.8c7.423-2.04 10.961-6.65 12.485-11.617a24.461 24.461 0 0 0 .288-13.329c-1.8 5.547-5.916 10.52-14.829 10.743-12.355.309-17.82-3.976-20.211-7.428a11.761 11.761 0 0 0 -7.455-4.841c-12.012-2.34-13.174-9.764-12.83-13.9-6.166 8.849-.994 19.18 12.284 23.351a14.645 14.645 0 0 1 8.806 7.554c2.788 5.72 8.899 12.921 21.462 9.467z"/><path d="m234.324 206.628c-1.384 4.025-4.739 9.686-12.881 12.812a19.157 19.157 0 0 0 -11 11.094c-2.5 6.511-8.54 13.869-23.172 12.082a29.583 29.583 0 0 0 3.907 5.649c3.968 4.518 10.611 6.347 16.994 4.56 0 0 11.633-3.839 13.178-12.59.806-4.571 3.024-10.632 6.894-13.2a26.926 26.926 0 0 0 2.814-2.138 14.7 14.7 0 0 0 3.266-18.269z"/><path d="m295.931 218.2c11.6 0 15.357-4.79 16.5-8.682a10.137 10.137 0 0 0 -1.841-8.986 14.369 14.369 0 0 0 -1.356-1.5c-1.4 4.894-7.581 10.81-18.492 10.81-7.55 0-10.816-3.166-12.232-6a9.117 9.117 0 0 0 5.89 13.148 47.85 47.85 0 0 0 11.531 1.21z"/><path d="m173.333 324.479a7.961 7.961 0 0 0 4.858-12.954c-2.258 2.8-6.841 6.357-15.3 5.548-9.242-.885-11.4-4.91-11.828-7.4a8 8 0 0 0 2.677 12.267 31.97 31.97 0 0 0 19.593 2.539z"/><path d="m98.451 325.281a10.925 10.925 0 0 0 10.941-11.416 49.49 49.49 0 0 0 -1.073-8.062c-1.534 5.069-5.068 10.255-13.093 10.547-14.213.517-23.908-4.292-28.392-13.573-.428.255-.865.5-1.314.719a23.7 23.7 0 0 0 -6.647 4.725 10.079 10.079 0 0 0 7.273 17.06z"/><path d="m45.285 218.9c-2.054 4.6-6.329 10.949-13.823 8.957-4.664-1.24-6.554-3.82-7.16-6.439a10.971 10.971 0 0 0 9.676 15.859h.483c10.839 0 13.888-7.354 12.207-15.009a10.735 10.735 0 0 0 -1.383-3.368z"/><path d="m245.027 140.019a11.957 11.957 0 0 0 -.69-2.7c-1.31 5.069-4.372 10-11.38 9.573-7.871-.485-10.085-5.167-10.507-9.206a18.988 18.988 0 0 0 -.816 2.05c-2.676 8.109.615 12.078 3.85 13.981a11.526 11.526 0 0 0 8.231 1.22c4.842-1.016 12.726-4.301 11.312-14.918z"/><path d="m317.478 123.957a13.619 13.619 0 0 0 2.775-4.494 10.477 10.477 0 0 0 -.6-9.167c-1.48 5.093-4.541 9.9-10.869 9.123-6.728-.832-8.976-4.746-9.592-8.293a11.888 11.888 0 0 0 -.923 9.165c2.631 8.243 13.353 10.035 19.209 3.666z"/><path d="m276 43.423a12.476 12.476 0 0 0 11.437-9.241c.092-.352.178-.714.257-1.083a13.045 13.045 0 0 0 .045-5.58c-2.764 3.754-8.667 9.9-16.813 8.179-5.956-1.258-7.5-5.318-7.6-8.95-.043.142-.1.273-.136.419q-.318 1.164-.57 2.457c-2.383 12.312 6.38 14.167 13.38 13.799z"/><path d="m135.614 29.55c-4.483.712-7.689-.246-9.951-1.733.053.228.087.445.151.68a11.92 11.92 0 0 0 10.2 9.213 8.189 8.189 0 0 0 9.19-5.965c.831-2.982 1.263-6.674-.055-10a11.288 11.288 0 0 1 -9.535 7.805z"/><path d="m17.03 118.226c-3.687-1.373-5.456-3.064-6.226-4.645a11.258 11.258 0 0 0 -.035 7.32c1.247 3.725 4.143 7.43 10.868 4.544 5.782-2.48 7.868-6.464 8.494-9.886a12 12 0 0 1 -13.101 2.667z"/></g></svg>