<svg id="Flat" height="512" viewBox="0 0 340 340" width="512" xmlns="http://www.w3.org/2000/svg"><path d="m89.334 206.227-27.669-11.156a18.391 18.391 0 0 1 -10.853-21.954c5.46-19.786 16.3-54.252 31.876-81.485 3.361-5.876 11.741-10.632 18.512-10.632h22.39v6.859a14.329 14.329 0 0 1 -13.717 14.316l-6.594.282a4.17 4.17 0 0 0 -3.831 3c-2.679 9.188-11.044 38.8-15.481 64.992l15 1.012z" fill="#ffd0cf"/><path d="m89.334 206.228 9.633-34.768-6.033-.407-13.916 31.015z" fill="#e5858a"/><path d="m95.124 82.1c2.057 9.992 13.84 9.7 13.84 9.7h14.068a14.341 14.341 0 0 0 .558-3.942v-6.858h-22.39a19.118 19.118 0 0 0 -6.076 1.1z" fill="#e5858a"/><path d="m106.035 234.093s-9.272 3.665-18.757 13.442a17.548 17.548 0 0 0 -4.887 11.688c-.478 15.375 1.8 51.79 34.707 46.413z" fill="#42493e"/><path d="m254.584 162.053s25.041 2.428 28.17 25.362c0 0 4.449 44.651-.246 61.946l-21.179-19.842z" fill="#42493e"/><path d="m146.019 122.9s-29.867 11.506-30.526 57.53c0 0-11.837 6.9-11.837 36.162v72.652s2.868 27.286 42.363 27.286h67.768l49.31-28.582s12.821-96.885-12.163-149.87a48.658 48.658 0 0 0 -34.519-19.452z" fill="#878e73"/><path d="m222.161 121.416 13.628-9.736a45.242 45.242 0 0 1 14.805 3.895c12.947 5.792 21.052 5.9 24.94 5.36a1.741 1.741 0 0 1 1.885 2.282c-2.665 7.859-12.131 28.5-37.231 24.788-8.771-1.3-14.415-4.543-18-8.524z" fill="#ffbb57"/><path d="m141.651 174.337-42.684-2.877-9.633 34.767 38.721 15.613z" fill="#eaa284"/><path d="m224.867 178.988s28.568 27.9 44.845 52.154l-32.886 26.892z" fill="#eaa284"/><path d="m204.653 171.46h8.764a16.761 16.761 0 0 1 13.872 7.295c5.825 8.567 14.174 23.7 14.174 40.084v31.182s-.463 36.879-33.823 34.771z" fill="#42493e"/><path d="m161.252 170.859h-16.027a11.429 11.429 0 0 0 -9.667 5.268c-4.7 7.428-11.968 22.91-11.968 47.71v39.232s.785 24.911 27.07 21.381z" fill="#42493e"/><path d="m150.549 246.478-2.781 23.113c.13 2.364.261 4.78.388 7.181a82.344 82.344 0 0 1 -2.869 26.379 80.979 80.979 0 0 0 -3.071 26.266h76.156s2.408-12.855-1.859-25.751c-1.882-5.686-2.426-17.222-2.426-17.222a79.851 79.851 0 0 1 -.6-11.942l.129-4.911-2.585-23.113z" fill="#eaa284"/><path d="m169.172 157.264v5.352a8.249 8.249 0 0 1 -7.92 8.243l-9.226 23.711s5.531 20.6 33.042 24.269c0 0 18.711-4.456 26.964-22.185 0 0-6.135-13.884-7.379-25.194l-1.14-.3a10.137 10.137 0 0 1 -7.482-8.768c-.284-2.788-.539-6.266-.611-10.174z" fill="#ffd0cf"/><path d="m196.683 133.556-27.511 12.532v11.176c5.1 1.19 16.56 2.626 26.251-5.05a103.267 103.267 0 0 1 1.26-18.658z" fill="#e5858a"/><path d="m140.321 77.945v40.083a32.166 32.166 0 0 0 32.166 32.165 32.166 32.166 0 0 0 32.166-32.165v-43.052z" fill="#ffd0cf"/><path d="m140.322 91.801h64.331v-16.825l-64.331 2.969z" fill="#e5858a"/><path d="m217.2 114.736s-4.04 14.709 5 24.743c13.586-7.638 14.12-21.584 13.6-27.8-11.246-.925-18.6 3.057-18.6 3.057z" fill="#db7c45"/><path d="m180.622 81-.055 10.8c1.443 6.889 5.334 15.367 15.389 20.018a8.5 8.5 0 0 1 5.008 7.606c.057 5.58-.415 13.823-3.294 18.6 0 0 .676.062 1.833.05a28.365 28.365 0 0 0 27.913-28.45v-28.624z" fill="#ffbb57"/><path d="m180.568 91.8h46.848v-10.8h-47.506a36.35 36.35 0 0 0 .658 10.8z" fill="#db7c45"/><path d="m211.841 196.212c-.593-1.389-2.789-6.942-4.515-12.5-4.432 7.779-12.847 13.454-18.182 16.469a1.477 1.477 0 0 1 -2.194-1.181l-.412-5.777a2.5 2.5 0 0 0 -2-2.38 2.381 2.381 0 0 0 -2.47 2.38l-.468 6.562a1.486 1.486 0 0 1 -2.019 1.274c-12.454-4.79-18.084-11.892-23.019-18.157l-4.541 11.67a26.831 26.831 0 0 0 2.962 6.322c7.9 8.16 19.737 13.128 25.838 15.3a3.738 3.738 0 0 0 3.876 2.84 3.922 3.922 0 0 0 3.1-2.887 63.865 63.865 0 0 0 24.044-19.935z" fill="#e5858a"/><path d="m217.637 303.879a91.487 91.487 0 0 1 -3.97-17.437c-1.389.271-15.456 3.4-15.456 18.759v18.054a11.689 11.689 0 0 0 1.819 6.162h20.484a67.563 67.563 0 0 0 -2.877-25.538z" fill="#af6b58"/><path d="m146.36 246.478s.644 10.852 1.317 23.113h65.848l.6-23.113z" fill="#af6b58"/><path d="m154.434 188.382s5.41 12.949 29.871 21.123a57.523 57.523 0 0 0 25.014-19.762 148.9 148.9 0 0 0 11.971 19.64c4.1 5.775 7.537 12.026 7.555 19.108.019 7.558-2.33 16.434-11.663 22.061a14.437 14.437 0 0 1 -7.457 2.048h-55.142a14.389 14.389 0 0 1 -7.43-2.036c-4.025-2.423-9.867-7.2-12.084-15.337-2.211-8.114.572-16.379 5.54-23.163 5.491-7.495 10.432-14.964 13.825-23.682z" fill="#eaa284"/><ellipse cx="171.92" cy="125.962" fill="#d85669" rx="13.072" ry="12.165" transform="matrix(.954 -.299 .299 .954 -29.78 57.114)"/><path d="m268.945 232.584 4.265 2.9c3.435 4.373 8.864 11.566 13.8 19.318a18.151 18.151 0 0 1 .783 18.144c-6.684 12.843-21.48 36.061-47.362 52.132a28.777 28.777 0 0 1 -15.178 4.337h-6.653a12.836 12.836 0 0 1 -12.837-12.836v-11.271a12.828 12.828 0 0 1 14.063-12.782 31.434 31.434 0 0 1 13.994 4.75c2.708-.635 4.758-2.743 6.319-5.94 6-6.066 14.443-15.845 16.771-24.848l-6.491-6.709-4.788-7.179z" fill="#ffd0cf"/><path d="m242.505 306.845a32.747 32.747 0 0 0 -2.37-15.509c-3.6 3.637-6.319 5.94-6.319 5.94a29.271 29.271 0 0 1 5.254 9.937 1.763 1.763 0 0 0 3.435-.368z" fill="#e5858a"/><path d="m132.268 65.253 9.421-21.576a39.787 39.787 0 0 0 3.348-7.491c1.664-5.043 4.3-12.047 7.471-16.992a10.9 10.9 0 0 1 10.711-4.77 44.446 44.446 0 0 1 9.872 2.489 12.072 12.072 0 0 0 10.325-.664c4.817-2.731 12.352-6.086 19.695-5.623 0 0 15.5 1.262 21.7 33.048l-.076 21.579z" fill="#eaa284"/><path d="m227.16 65.253a142.88 142.88 0 0 0 -2.355-21.579h-83.121a37.549 37.549 0 0 1 -2.384 3.626 148.487 148.487 0 0 0 -11.248 17.951z" fill="#af6b58"/><path d="m105.335 81h148.327a8.1 8.1 0 0 0 8.1-8.1 9.218 9.218 0 0 0 -9.218-9.218h-146.092a9.218 9.218 0 0 0 -9.218 9.218 8.1 8.1 0 0 0 8.101 8.1z" fill="#eaa284"/><path d="m269.712 231.142-26.241 21.458 6.944 7.179 22.794-24.292c-2.131-2.714-3.497-4.345-3.497-4.345z" fill="#e5858a"/><g fill="#3b3b59"><circle cx="169.173" cy="101.655" r="4.058"/><circle cx="155.243" cy="101.655" r="4.058"/></g></svg>