<svg id="Flat" height="512" viewBox="0 0 340 340" width="512" xmlns="http://www.w3.org/2000/svg"><path d="m181.265 256.831a57.617 57.617 0 0 0 -26.647 8.426 48.6 48.6 0 0 0 -16.7 17.814c-5.982 10.73-23.16 36.106-50.379 32.809a1.953 1.953 0 0 1 -.713-3.659 26.5 26.5 0 0 0 9.258-8.305 25.6 25.6 0 0 0 4.037-17.274c-.846-7.641-.716-24.7 14.475-36.515z" fill="#3a5993"/><path d="m330.979 196.2s4.711 9.135-3.171 14.457a14.75 14.75 0 0 1 -8.274 2.391h-8.666a24.47 24.47 0 0 0 -15.8 5.793c-16.323 13.786-64.617 46.989-145.943 41.3 0 0-29.853-1.645-47.513.649l30.5-32.295 157.875-55.625c18.313 4.23 36.541 8.53 40.992 23.33z" fill="#ebf6ff"/><path d="m163.867 233.214a3.5 3.5 0 0 0 -4.405 2.257 48.222 48.222 0 0 1 -18.157 24.344c4.749.154 7.824.323 7.824.323.89.062 1.772.114 2.654.167a54.439 54.439 0 0 0 14.341-22.686 3.5 3.5 0 0 0 -2.257-4.405z" fill="#b5d3f7"/><path d="m191.454 259.614a43.617 43.617 0 0 0 6.011-12.337c.013-.042.025-.085.037-.127.035-.131 3.569-13.1 9.752-21.169a3.5 3.5 0 0 0 -5.557-4.258c-6.84 8.926-10.6 22.328-10.936 23.54a34.763 34.763 0 0 1 -9.151 15.121q5.028-.284 9.844-.77z" fill="#b5d3f7"/><path d="m228.113 252.826a59.038 59.038 0 0 0 8.173-21.744c4.262-23.466 11.387-30.969 11.427-31.011a3.5 3.5 0 0 0 -4.879-5.02c-.354.344-8.7 8.705-13.435 34.781-2.582 14.217-8.4 21.924-12.571 25.783q5.847-1.275 11.285-2.789z" fill="#b5d3f7"/><path d="m266.307 237.858a80.663 80.663 0 0 0 4.581-22.78c1.674-24.214 10.791-29.717 10.811-29.732a3.5 3.5 0 1 0 -3.195-6.228c-1.289.661-12.65 7.276-14.6 35.478-1.016 14.695-4.782 23.447-7.7 28.152 3.585-1.603 6.952-3.243 10.103-4.89z" fill="#b5d3f7"/><path d="m315.577 180.523a67.029 67.029 0 0 0 -6.517-2.579c-1.73 2.1-6.109 8.574-7.607 21.762a56.859 56.859 0 0 1 -5.579 18.512 24.468 24.468 0 0 1 9.491-4.52 61.455 61.455 0 0 0 3.043-13.2c1.5-13.193 6.245-18.33 6.26-18.347a3.462 3.462 0 0 0 .909-1.628z" fill="#b5d3f7"/><path d="m107.347 90.55s15.206-1.845 28.113 0c0 0-12.907-48.573 25.008-66.723 0 0-2.824 9.277 2.42 14.923 0 0 16.537 19.361 2.016 48.805 0 0 15.714 1.428 25.3 19.072a26.251 26.251 0 0 0 9.554 10.088 14.342 14.342 0 0 0 7.1 2.3s-40.738 27.831-65.342-12.906c0 0-53.644 10.083-28.637 46.384 0 0-36.3-3.227-31.46-31.864-.006 0 7.495-20.629 25.928-30.079z" fill="#3a5993"/><path d="m303.218 157.639s3.856-9.253-13.5-11.567c-5.233-.7-9.59-1.5-13.122-2.282a138.008 138.008 0 0 0 -35.745-3.187 293.977 293.977 0 0 0 -30.561 2.77c-25.448 3.856-97.55 17.611-117.985-3.147s15.042-49.676 15.042-49.676-61.011 5.78-87.225 52.46c-11.038 19.656-12.381 43.49-2.822 63.906 8.976 19.163 28.557 40.763 71.15 48.273l68.11-12.338s48.333-5.784 78.408-30.075c0 0 32.773-31.231 71.331-27.761a34.689 34.689 0 0 1 24.68 11.185s2.699-29.307-27.761-38.561z" fill="#7999e2"/><path d="m132.114 247.28s-10.183 1.312-24.382 13.127a91.375 91.375 0 0 0 -12.1 12.329c-10.187 12.408-48.518 53.475-87.288 22.258a1.948 1.948 0 0 1 1.18-3.456c8.632-.189 25.389-3.276 34.488-22.991 0 0 10.091-23.126 26.91-27.331z" fill="#7999e2"/><g fill="#3a5993"><path d="m303.218 157.64s-2.3 1.483-7.825 2.079a37.961 37.961 0 0 1 -9.18-.2 94.2 94.2 0 0 0 -51.576 8.184 83.984 83.984 0 0 0 -28.654 22.968c-6.581 8.083-21.564 23.538-44.029 29.847a2.415 2.415 0 0 0 .811 4.731c14.357-1.009 33.976-7.139 51.181-29.1 0 0 26.553-34.658 73.406-26.306 13.045 2.325 22.725-.209 29.909-5.07a42.083 42.083 0 0 0 -14.043-7.133z"/><path d="m177.921 188.92a3.5 3.5 0 0 1 -2.049-6.34l3.348-2.411a3.5 3.5 0 0 1 4.091 5.68l-3.347 2.411a3.482 3.482 0 0 1 -2.043.66z"/><circle cx="118.333" cy="183.009" r="3.5"/><circle cx="80.968" cy="216.828" r="3.5"/><circle cx="62.955" cy="176.37" r="3.5"/></g></svg>