<svg id="Flat" height="512" viewBox="0 0 340 340" width="512" xmlns="http://www.w3.org/2000/svg"><path d="m32.636 47.01h13.827a23.347 23.347 0 0 1 17.789 8.227l82.537 97.11h-19.931l-69.515-84.118a15.2 15.2 0 0 0 -11.717-5.518h-6.8s-9.8 0-8.526 9.379c0 0-13.228-15.735 2.336-25.08z" fill="#8294b9"/><rect fill="#838dbc" height="115.936" rx="18.087" width="133.715" x="25.055" y="146.264"/><path d="m158.769 244.113v-79.762a18.087 18.087 0 0 0 -18.087-18.087h-94.723l40.815 54.936s-35.774 16.191-29.607 61h83.515a18.087 18.087 0 0 0 18.087-18.087z" fill="#5d689d"/><path d="m25.054 201.195h70.927v19.999h-70.927z" fill="#5d689d"/><path d="m72.987 211.291h-55.257a5.853 5.853 0 0 1 -5.853-5.852v-8.488a5.853 5.853 0 0 1 5.853-5.851h61.542l14.978 10.973z" fill="#838dbc"/><path d="m81.557 204.241a58.456 58.456 0 0 0 -8.57 7.05h50.7v-20.191h-44.415l3.667 4.936a5.753 5.753 0 0 1 -1.382 8.205z" fill="#5d689d"/><path d="m191.451 152.347h85.507v63.005h-85.507z" fill="#abafd0"/><path d="m259.836 155.429h20.695a0 0 0 0 1 0 0v20.937a6.257 6.257 0 0 1 -6.257 6.257h-8.181a6.257 6.257 0 0 1 -6.257-6.257v-20.937a0 0 0 0 1 0 0z" fill="#7b80a8"/><path d="m209.046 195.361h40.547a6.709 6.709 0 0 1 6.709 6.709v14.32a0 0 0 0 1 0 0h-53.965a0 0 0 0 1 0 0v-14.32a6.709 6.709 0 0 1 6.709-6.709z" fill="#7b80a8"/><path d="m332.184 245.98c-2.945-19.341-13.335-42.012-44.728-48.526a30.722 30.722 0 0 0 -22.133 4.012c-7.145 4.331-19.29 9.528-36.437 9.528-17.979 0-30.567-6.253-37.633-11.11-10.782-7.411-24.1-10.476-36.857-7.58a42.141 42.141 0 0 0 -17.274 8.295l13.728 65.722h175.858z" fill="#f4737d"/><path d="m333.183 257.708a91.969 91.969 0 0 0 -1.006-11.727c-8.749 10.787-23.762 9.229-23.762 9.229h-104.757a46.764 46.764 0 0 1 -36.34-17.331l-18.91-23.346-27.249 8.85c-.413 1.029-.818 2.08-1.205 3.173l13.256 49.567h182.035a17.965 17.965 0 0 0 17.938-18.415z" fill="#bf454f"/><circle cx="276.958" cy="254.171" fill="#474756" r="38.819"/><circle cx="276.958" cy="254.171" fill="#fff" r="17.692"/><path d="m10.756 74.631 120.53 153.555a10.95 10.95 0 0 0 15.738 1.554 10.95 10.95 0 0 0 1.384-15.207l-117.617-145.213a20.684 20.684 0 0 1 -4.5-9.98 13.172 13.172 0 0 1 6.34-12.33h-6.6c-16.094 0-24.781 15.51-15.275 27.621z" fill="#dae5f7"/><circle cx="110.088" cy="254.171" fill="#474756" r="38.819"/><circle cx="110.088" cy="254.171" fill="#fff" r="17.692"/><g fill="#7b80a8"><path d="m231.6 176.618h18.008a3 3 0 0 1 3 3 3 3 0 0 1 -3 3h-18.008a0 0 0 0 1 0 0v-6.005a0 0 0 0 1 0 .005z"/><path d="m226.148 164.826h18.008a3 3 0 0 1 3 3 3 3 0 0 1 -3 3h-18.008a0 0 0 0 1 0 0v-6.005a0 0 0 0 1 0 0z"/><path d="m187.879 155.429h49.334a0 0 0 0 1 0 0v20.937a6.257 6.257 0 0 1 -6.257 6.257h-36.82a6.257 6.257 0 0 1 -6.257-6.257v-20.937a0 0 0 0 1 0 0z"/></g><path d="m200.032 112.592h69.549a21.539 21.539 0 0 1 21.539 21.539v16.726a8.182 8.182 0 0 1 -8.182 8.182h-96.262a8.182 8.182 0 0 1 -8.182-8.182v-16.726a21.539 21.539 0 0 1 21.538-21.539z" fill="#474756"/><circle cx="134.63" cy="214.68" fill="#8294b9" r="3.899"/></svg>