<svg id="flat" height="512" viewBox="0 0 340 340" width="512" xmlns="http://www.w3.org/2000/svg"><g fill="#ffc36c"><path d="m317.145 195.547a3.469 3.469 0 0 1 -3.426-4q.228-1.464.439-2.909a3.463 3.463 0 0 1 6.854 1q-.214 1.479-.448 2.974a3.465 3.465 0 0 1 -3.419 2.935z"/><path d="m320.108 164.986h-.115a3.463 3.463 0 0 1 -3.349-3.575c.872-26.746-3.361-50.072-12.581-69.329a44.107 44.107 0 0 0 -5.847-9.147 3.464 3.464 0 0 1 5.328-4.429 51.093 51.093 0 0 1 6.768 10.584c9.7 20.269 14.165 44.678 13.256 72.547a3.465 3.465 0 0 1 -3.46 3.349z"/><path d="m231.412 80.565a3.466 3.466 0 0 1 -3.078-5.049c6.466-12.585 26.056-17.965 40.29-15.1a3.465 3.465 0 1 1 -1.367 6.793c-12.734-2.57-28.357 2.901-32.757 11.474a3.465 3.465 0 0 1 -3.088 1.882z"/></g><path d="m162.824 196.2 4.714 1.546 12.686 8.986 3.022.655a12.658 12.658 0 0 1 8.985 7.472 176.943 176.943 0 0 0 15.691 29.541 67.8 67.8 0 0 0 11.535 12.94c4.771 4.171 12.373 10.991 20.244 18.751a69.215 69.215 0 0 0 12.744 9.883c11.836 7.173 35.779 22.273 52.039 36.463a3.335 3.335 0 0 1 -2.194 5.847h-241.726a3.331 3.331 0 0 1 -2.1-5.925c8.191-6.589 21.75-17.866 33.839-29.649l18.724-17.772a73.113 73.113 0 0 0 15.134-20.474c6.508-13.082 17.717-35.233 28.694-55.134a6.706 6.706 0 0 1 7.969-3.13z" fill="#8da3ea"/><path d="m263 292.524c-2.311 6.164-7.97 11.352-18.4 14.791-42.134 13.892-67.417 2.913-77.425-3.444a13.5 13.5 0 0 0 -11.783-1.261c-11.491 4.118-22.782 7.848-32.826 9.157a21.928 21.928 0 0 1 -24.622-24.4l-5.633 5.346c-12.089 11.783-25.648 23.06-33.839 29.649a3.331 3.331 0 0 0 2.1 5.925h241.718a3.335 3.335 0 0 0 2.194-5.847c-12.284-10.725-28.964-21.967-41.484-29.916z" fill="#5c6198"/><path d="m167.538 197.749s11.326-.847 13 10.567l.438 28.511a59.507 59.507 0 0 0 17.553 41.695 47.988 47.988 0 0 0 6.85 5.66c19.58 13.073 21.149 44.1 21.149 44.1h-14.1s-2.686-23.292-18.8-35.377c0 0-16.113-12.421-18.8-23.834 0 0-5.035 12.42-15.106 18.463 0 0-16.113 8.651-15.106 40.748h-11.406s-6.042-30.006 19.135-50.819c0 0 14.186-11.456 15.193-33.276s0-46.438 0-46.438z" fill="#f7596e"/><path d="m147.434 305.387c-4.737 1.6-9.4 3.045-13.9 4.2a54.911 54.911 0 0 0 -.323 18.7h11.414a67.292 67.292 0 0 1 2.809-22.9z" fill="#c43049"/><path d="m208.643 313.985a64.631 64.631 0 0 1 3.791 14.3h14.1a79.438 79.438 0 0 0 -2.831-15.764 109.286 109.286 0 0 1 -15.06 1.464z" fill="#c43049"/><path d="m99.219 194.371a24.3 24.3 0 0 0 5.671 16.965 17.6 17.6 0 0 1 3.8 17.068 24.316 24.316 0 0 1 -4.982 9.1c-5.8 6.753-16.928 3.278-18.17-5.539-2.959-21.026-4.738-60.465 14.118-97.755 8.08-15.973 30.932-16.316 39.458-.576 4.965 9.165 9.359 21.5 11.48 37.938a1.412 1.412 0 0 1 -2.676.787c-3.73-7.927-10.141-20.335-18.015-30.657a12.177 12.177 0 0 0 -20.977 2.7c-4.233 10.409-8.644 26.569-9.707 49.969z" fill="#ffc36c"/><path d="m174.626 171.56a1.3 1.3 0 0 1 -2.6-.06c-1.664-38.485.614-128.793 55.421-157.072 0 0 57.026-28.223 62.681 97.341a179.212 179.212 0 0 1 -.374 22.131c-.908 11.532-2.874 29.086-6.919 41.307-4.174 12.612-19.464 13.384-24.517 1.1-4.207-10.23-5.362-25.313 3.81-46.619a74.076 74.076 0 0 0 5.909-33.467c-.967-17.074-3.18-42.336-14.041-57.875-7.467-10.683-22.778-11.037-32.78-2.68-16.916 14.134-39.034 53.364-46.59 135.894z" fill="#c43049"/><path d="m73.705 104.888a3.427 3.427 0 0 1 -.649-.062 3.464 3.464 0 0 1 -2.758-4.049c3.088-16.286 7.473-30.367 13.031-41.851 4.578-9.459 14.56-18.856 25.007-20.288 10.405-1.429 17.029-1.128 27.883 9.155 7.907 7.491 11.209 22.01 16.174 31.628 0 0-15.227-19.922-22.552-25.6-6.519-5.051-13.354-6.553-21.575-5.426a24.4 24.4 0 0 0 -18.7 13.548c-5.293 10.937-9.485 24.436-12.46 40.125a3.466 3.466 0 0 1 -3.401 2.82z" fill="#c43049"/><path d="m70 133.964c-.054 0-.108 0-.162 0a3.465 3.465 0 0 1 -3.3-3.619s.057-1.258.234-3.5a3.464 3.464 0 1 1 6.907.544c-.163 2.072-.218 3.246-.22 3.279a3.464 3.464 0 0 1 -3.459 3.296z" fill="#c43049"/><path d="m162.214 116.355a3.464 3.464 0 0 1 -3.532-2.882l-.771-4.539a3.464 3.464 0 0 1 6.83-1.16l.771 4.539a3.464 3.464 0 0 1 -3.3 4.042z" fill="#ff627f"/><path d="m228.859 172.29a3.5 3.5 0 0 1 -.574-.048 3.464 3.464 0 0 1 -2.847-3.987q.234-1.4.439-2.78a3.464 3.464 0 0 1 6.853 1.017q-.213 1.439-.458 2.9a3.467 3.467 0 0 1 -3.413 2.898z" fill="#c43049"/><path d="m186.79 185c-.073 0-.145 0-.219-.006a3.463 3.463 0 0 1 -3.242-3.67c.1-1.579 2.614-38.944 21.8-64.071a15.425 15.425 0 0 1 27.461 6.747 128.248 128.248 0 0 1 1.676 17.585 3.465 3.465 0 1 1 -6.927.187 120.814 120.814 0 0 0 -1.583-16.628 8.21 8.21 0 0 0 -6.294-6.771 8.427 8.427 0 0 0 -8.827 3.083c-17.889 23.43-20.368 59.929-20.391 60.3a3.464 3.464 0 0 1 -3.454 3.244z" fill="#c43049"/><path d="m152.108 83.434a1.048 1.048 0 0 0 1.954-.71c-2.614-11.5-9.335-34.062-24.292-50.748-20.313-22.661-54.29-25.267-71.859-.418-13.857 19.6-28.07 52.4-34.012 106.918a102.849 102.849 0 0 1 -4.363 20.594 66.034 66.034 0 0 0 -2.3 31.286 10.958 10.958 0 0 0 20.137 3.918 42.288 42.288 0 0 0 2.441-4.575 26.4 26.4 0 0 0 .186-21.517c-2.82-6.451-5.713-17.808-3.356-35.165 2.921-21.517 13.333-60.509 31.236-88.093a34.582 34.582 0 0 1 50.547-8.271c12.694 10.13 23.573 27.229 33.681 46.781z" fill="#f7596e"/><path d="m100.954 309.581 23.77-25.581a55.554 55.554 0 0 0 8.331-11.691l7.245-13.6a1.379 1.379 0 0 1 2.532 1.066l-4.907 15.452a55.549 55.549 0 0 1 -5.255 11.673l-18.34 30.7z" fill="#5c6198"/><path d="m246.064 315.018s-15.828-17.858-25.9-33.966a2.277 2.277 0 0 1 3.4-2.949l35.433 29.724z" fill="#5c6198"/></svg>