<svg id="fill" height="512" viewBox="0 0 340 340" width="512" xmlns="http://www.w3.org/2000/svg"><path d="m216.832 15h45.287a2.169 2.169 0 0 1 2.169 2.169v116a2.169 2.169 0 0 1 -2.169 2.169h-45.287a0 0 0 0 1 0 0v-120.338a0 0 0 0 1 0 0z" fill="#dbeefc" transform="matrix(.826 .563 -.563 .826 84.119 -122.43)"/><path d="m84.66 6.051h45.287a2.169 2.169 0 0 1 2.169 2.169v116a2.169 2.169 0 0 1 -2.169 2.169h-45.287a0 0 0 0 1 0 0v-120.338a0 0 0 0 1 0 0z" fill="#dbeefc" transform="matrix(.563 -.826 .826 .563 -7.377 118.488)"/><path d="m223.617 180.487-53.617-40.744-55.668 78.931-5.943 110.679h61.611 61.611z" fill="#ea5e5e"/><path d="m111.957 262.916 46.311-59.153 69.191 48.266-3.842-71.542-53.617-40.744-55.668 78.931z" fill="#c13d3d"/><path d="m75.712 138.223h45.288a2.169 2.169 0 0 1 2.169 2.169v116a2.169 2.169 0 0 1 -2.169 2.171h-45.288a0 0 0 0 1 0 0v-120.34a0 0 0 0 1 0 0z" fill="#dbeefc" transform="matrix(-.826 -.563 .563 -.826 69.872 418.333)"/><path d="m207.883 147.171h45.287a2.169 2.169 0 0 1 2.169 2.169v116a2.169 2.169 0 0 1 -2.169 2.169h-45.287a0 0 0 0 1 0 0v-120.338a0 0 0 0 1 0 0z" fill="#dbeefc" transform="matrix(-.563 .826 -.826 -.563 533.386 132.735)"/><path d="m158.268 231.564h23.465v31.882h-23.465z" fill="#2b313f"/><path d="m170 280.187a20.181 20.181 0 0 1 20.181 20.181v28.985a0 0 0 0 1 0 0h-40.362a0 0 0 0 1 0 0v-28.985a20.181 20.181 0 0 1 20.181-20.181z" fill="#2b313f"/><g fill="#a7cad8"><path d="m219.314 64.211 39.034 26.991 4.505-6.61-39.034-26.991z"/><path d="m97.356 87.418 27.072-38.98-6.611-4.506-27.072 38.98z"/><path d="m77.142 188.977 38.956 27.106 4.506-6.61-38.961-27.1z"/><path d="m222.208 229.648 27.115-38.951-6.612-4.506-27.114 38.95z"/><path d="m292.515 210.11-111.035-75.681 75.541-110.829a8.285 8.285 0 0 0 -2.18-11.512 8.285 8.285 0 0 0 -11.512 2.18l-75.681 111.032-110.83-75.54a8.286 8.286 0 0 0 -11.513 2.18 8.285 8.285 0 0 0 2.18 11.512l110.83 75.542-75.336 110.97a8.285 8.285 0 1 0 13.692 9.336l75.681-111.035 110.83 75.535a8.286 8.286 0 1 0 9.333-13.693z"/></g><circle cx="170" cy="136.781" fill="#dbeefc" r="15.561"/></svg>