<svg id="icons" height="512" viewBox="0 0 340 340" width="512" xmlns="http://www.w3.org/2000/svg"><path d="m112.66 245.799h114.68v81.217h-114.68z" fill="#677ba2"/><path d="m112.66 245.799h42.512v81.217h-42.512z" fill="#324b74"/><path d="m143.088 245.799h20.779v81.217h-20.779z" fill="#e9ebfc"/><path d="m227.34 245.8h-46.461c.211 6.833.573 13.57 1.165 19.438.968 9.6 3.878 16.2 7.029 20.683a21.078 21.078 0 0 0 17.807 8.879 95.015 95.015 0 0 0 20.46-2.829z" fill="#324b74"/><path d="m170 89.82h-14.828v45.505h14.828 14.828v-45.505z" fill="#ffc4b6"/><path d="m143.088 245.8v46.814a20.811 20.811 0 0 0 7.839-6.693c3.151-4.478 6.061-11.086 7.029-20.683.592-5.868.954-12.605 1.165-19.438z" fill="#acb9d4"/><path d="m184.828 124.191v-34.371h-14.828-14.828v14.095z" fill="#ea8b7f"/><path d="m142.23 183.222h55.541v76.856h-55.541z" fill="#618dce"/><path d="m142.23 251.063h55.541v9.015h-55.541z" fill="#3c699e"/><path d="m280.151 216.294c-14.122-32.706-33.588-62.587-33.588-62.587-17.334-28.834-45.668-27.334-45.668-27.334l-16.067-15.5-14.828 22-14.828-22-16.067 15.5s-28.334-1.5-45.668 27.334c0 0-19.466 29.881-33.588 62.587a30 30 0 0 0 4.913 31.6c9.007 10.291 23.716 22.762 45.024 28.191 6.936 1.984 15.506 3.19 23.781 4.012a15.44 15.44 0 0 0 6.532-.758l10.213-92.363 19.688-20.107 19.688 20.112 10.212 92.363a15.44 15.44 0 0 0 6.532.758c8.275-.822 16.845-2.028 23.781-4.012 21.308-5.429 36.017-17.9 45.024-28.191a30 30 0 0 0 4.914-31.605z" fill="#677ba2"/><path d="m142.23 215.735 23.2-14.889a8.4 8.4 0 0 1 9.123.029l23.218 15.11v-32.763h-55.541z" fill="#3c699e"/><g fill="#324b74"><path d="m167.339 165.889a4 4 0 0 0 3.342-6.193l-25.61-39.078-5.966 5.755 24.885 37.707a4 4 0 0 0 3.349 1.809z"/><path d="m143.748 190.557-3.253 11.89c-3.552 42.3-1.374 68.384-.4 76.889a15.041 15.041 0 0 0 7.544-5.7 32.531 32.531 0 0 0 5.307-14.214 562.98 562.98 0 0 0 2.3-74.635z"/><path d="m200.9 126.373-5.782-5.578-10.285-9.922-6.145 9.117 9.365 6.4a2.867 2.867 0 0 1 .775 3.944l-16.069 24.377a4 4 0 1 0 6.691 4.385l6.7-10.227a23.712 23.712 0 0 1 26.25-9.719 47.339 47.339 0 0 0 23.053.919 51.924 51.924 0 0 0 -34.553-13.696z"/><path d="m232.349 147.636a277.416 277.416 0 0 0 -7.042 35.971l-8.688-3.2z"/><path d="m196.252 190.557 3.253 11.89c3.552 42.3 1.374 68.384.4 76.889a15.041 15.041 0 0 1 -7.544-5.7 32.531 32.531 0 0 1 -5.307-14.214 562.98 562.98 0 0 1 -2.3-74.635z"/></g><path d="m197.693 173.447 20.782 10.161c4.332-13.331 10.263-29.368 17.4-43.162a53.205 53.205 0 0 0 -18.543-11.18 309.693 309.693 0 0 0 -19.639 44.181z" fill="#618dce"/><path d="m257.733 195.484a64.9 64.9 0 0 0 -15.4-6.648c-.136-.2-.273-.4-.405-.593a12.516 12.516 0 0 0 -9.49-5.395l-4.419-.288a26.9 26.9 0 0 1 -3.162-.484 14.59 14.59 0 0 1 -4.717-1.855l-30.309-18.471v-8.95a16.531 16.531 0 0 0 -16.53-16.531h-3.176v24.634l29.38 13.754 22.127 10.443a11.922 11.922 0 0 0 5.082 1.138 12.643 12.643 0 0 1 8.713 3.788c4.593 4.417 10.488 13.162 14.637 19.743a1.382 1.382 0 0 0 2.468-1.2 84.9 84.9 0 0 0 -6.376-13.616 62.018 62.018 0 0 1 10.925 2.125.864.864 0 0 0 .652-1.594z" fill="#324b74"/><path d="m212.217 139.1a47.048 47.048 0 0 0 23.266 1 53.251 53.251 0 0 0 -18.15-10.837c-1.363 2.484-3.119 5.8-5.116 9.837z" fill="#3c699e"/><path d="m141.025 51.692-2.577.589a12.718 12.718 0 0 0 -9.884 12.4v.793a12.576 12.576 0 0 0 3.677 8.946c2.777 2.749 6.963 6.087 11.989 7.537z" fill="#ea8b7f"/><path d="m198.975 51.692 2.577.589a12.718 12.718 0 0 1 9.884 12.4v.793a12.573 12.573 0 0 1 -3.678 8.946c-2.776 2.749-6.962 6.087-11.988 7.537z" fill="#ea8b7f"/><path d="m198.555 31.351c-.1-.215-.2-.429-.3-.639-11.4-23.637-45.1-23.637-56.508 0q-.153.317-.3.64a34.979 34.979 0 0 0 -2.992 15.614l.692 23.3a31.6 31.6 0 0 0 6 17.623 53.088 53.088 0 0 0 11.225 11.559 14.415 14.415 0 0 0 8.546 2.807h10.172a14.064 14.064 0 0 0 8.254-2.594 52.8 52.8 0 0 0 11.524-11.782 31.591 31.591 0 0 0 5.991-17.613l.692-23.295a34.979 34.979 0 0 0 -2.996-15.62z" fill="#ffc4b6"/><path d="m161.733 67.485a2.828 2.828 0 0 1 -1.442-.4 12.507 12.507 0 0 0 -2.894-1.22 2.835 2.835 0 1 1 1.53-5.459 18.027 18.027 0 0 1 4.254 1.8 2.835 2.835 0 0 1 -1.448 5.274z" fill="#ea8b7f"/><path d="m178.267 67.485a2.835 2.835 0 0 1 -1.448-5.274 18.019 18.019 0 0 1 4.254-1.8 2.835 2.835 0 1 1 1.53 5.459 12.525 12.525 0 0 0 -2.894 1.22 2.828 2.828 0 0 1 -1.442.395z" fill="#ea8b7f"/><path d="m166.824 136.272a16.531 16.531 0 0 0 -16.531 16.528v8.947l-32.381 19.736a26.432 26.432 0 0 1 -5.928 1.074l-4.419.288a12.518 12.518 0 0 0 -9.49 5.394c-.132.191-.269.393-.405.594a64.922 64.922 0 0 0 -15.4 6.648.864.864 0 0 0 .652 1.586 62.018 62.018 0 0 1 10.925-2.125 84.878 84.878 0 0 0 -6.376 13.614 1.382 1.382 0 0 0 2.468 1.206c4.15-6.581 10.044-15.326 14.637-19.742a12.643 12.643 0 0 1 8.713-3.788 11.922 11.922 0 0 0 5.082-1.138l22.129-10.434 29.5-13.754v-24.634z" fill="#324b74"/><path d="m219.686 179.945-19.917-12.138c-.694 1.839-1.388 3.71-2.076 5.64 3.025 2.462 12.063 6.349 20.778 10.159.393-1.196.8-2.423 1.215-3.661z" fill="#3c699e"/><path d="m170 136.277s-13.4-.685-14.828 14.165v14.394l-14.672 9.824v27.787l29.5-18.963z" fill="#ffc4b6"/><path d="m170 136.277s13.4-.685 14.828 14.165v14.394l14.677 9.824v27.787l-29.505-18.963z" fill="#ffc4b6"/><path d="m162.124 25.126a3 3 0 0 1 -1.435-5.819l.387-.111a3 3 0 0 1 1.606 5.781l-.283.081a2.827 2.827 0 0 1 -.275.068z" fill="#ffe1dc"/><path d="m149.355 36.182a3 3 0 0 1 -3.316-4.176 19.088 19.088 0 0 1 5.09-6.3 3 3 0 0 1 3.821 4.627 13.709 13.709 0 0 0 -3.441 4.143 2.994 2.994 0 0 1 -2.154 1.706z" fill="#ffe1dc"/><path d="m167.355 185.185 2.645-1.7 2.645 1.7v-48.7a17.249 17.249 0 0 0 -5.29 0z" fill="#ea8b7f"/></svg>