<svg id="Flat" height="512" viewBox="0 0 340 340" width="512" xmlns="http://www.w3.org/2000/svg"><path d="m179.487 150.993s18.415 27.9-5.4 48.966l75.613 115.785s17.875 18.636 40.384 9.861l-85.907-128.605s13.862-30.353-8.863-57.226z" fill="#8294b9"/><path d="m181.742 153.31 17.034-11.655a4.672 4.672 0 0 0 1.083-6.681l-12.532-16.508-25.549 16.7 13.668 17.194a4.673 4.673 0 0 0 6.296.95z" fill="#474756"/><path d="m177.4 134.324 11.812-9.594a7.208 7.208 0 0 0 1.28-9.842l-68.346-93.728-25.9 1.756c14.446 33.222 29.007 64.722 44.539 81.861 13.292 20.623 25.73 32.76 36.615 29.547z" fill="#f4737d"/><path d="m150.8 182.345s21.047 13.411 40.11 1.48a19.622 19.622 0 0 1 20.89-.025l104.86 66.107s18.921 17.574 10.508 40.221l-125.247-80.791a11.21 11.21 0 0 0 -9.448-1.276c-9.534 3-31.919 7.242-52.631-9.711z" fill="#dae5f7"/><path d="m153.155 184.562-11.38 17.219a4.672 4.672 0 0 1 -6.663 1.191l-16.707-12.266 16.289-25.814 17.411 13.39a4.673 4.673 0 0 1 1.05 6.28z" fill="#474756"/><path d="m140.477 172.416-11.606 14.768c-18.615 1.443-80.224-40.881-106.237-79.12l24.616-11.489 91.75 65.525a7.208 7.208 0 0 1 1.477 10.316z" fill="#f4737d"/><circle cx="200.413" cy="195.16" fill="#8294b9" r="3.899"/><g fill="#bf454f"><path d="m169.393 140.828 8.01-6.5c-3.125-1.538-6.664-4.314-10.338-9.152l-54.88-73.976s-12.754-16.784 9.961-30.04l-.558-.765a20.321 20.321 0 0 0 -28.6-4.293 20.32 20.32 0 0 0 -4.165 28.339l70.227 95.075a7.208 7.208 0 0 0 10.343 1.312z"/><path d="m19.291 126.55 95.587 67.381a7.208 7.208 0 0 0 9.821-1.438l4.172-5.309a36.057 36.057 0 0 1 -8-4.362l-74.688-53.894s-17.631-12.434 1.067-32.353l-4.441-3.175a20.321 20.321 0 1 0 -23.518 33.15z"/></g></svg>