<svg id="Flat" height="512" viewBox="0 0 340 340" width="512" xmlns="http://www.w3.org/2000/svg"><circle cx="66.787" cy="60.366" fill="#ff7a4e" r="29.517"/><path d="m306.691 199.1s4.361 12.049 13.039 18.4a13.983 13.983 0 0 1 4.4 5.235 10.224 10.224 0 0 1 -.56 10.335c-5 7.9-14.481 1.053-14.481 1.053z" fill="#74bcf7"/><path d="m144.24 124.587s3.686 7.372 2.633 20.537c0 0-1.3 8.65 4.142 11.447a6.45 6.45 0 0 0 3.944.573c3.642-.574 10.62-3.792 7.448-20.445z" fill="#74bcf7"/><path d="m190.6 99.674-11.447 10.426a6.055 6.055 0 0 0 .243 9.164l.014.012a13.929 13.929 0 0 0 8.737 3.133 39.363 39.363 0 0 1 24.459 8.6 11.124 11.124 0 0 0 10.558 1.972l.28-.1a12.952 12.952 0 0 0 8.749-12.264v-16.855h34.063l.727 19.469a19.016 19.016 0 0 0 12.431 17.136c2.676.986 5.76 2 9.211 2.93 10.444 2.825 18.692 11.82 18.985 22.634 1.428 52.79 5.226 99.406 8.429 138.42 0 0-2.038 16.874-19.8 16.874l-6.7-48.9h-80.345s2.407-45.292.012-80.867a33.156 33.156 0 0 0 -13.127-24.275l-47.879-36.044a20.275 20.275 0 0 1 -2.576-30.111 159.973 159.973 0 0 1 20.7-18.587z" fill="#f9beac"/><path d="m266.983 123.231-.728-19.469h-34.062v12.917l36.907 14.586a19 19 0 0 1 -2.117-8.034z" fill="#e5897a"/><path d="m209.194 272.326h80.352l8.128 59.357h-95.903z" fill="#88b5ea"/><path d="m219.491 67.021 1.539 19.567c1.355 17.233 14.947 30.488 31.263 30.488 13.818 0 26.118-9.543 30.023-23.592a85.455 85.455 0 0 0 2.77-16.452v-25.583h-62.709z" fill="#f9beac"/><path d="m219.491 67.021 1.093 13.906 2.6-2.03s7.3 4.154 16.491-2.266l15.419-10.951s7.175 6.968 16.805 9.337c5.885 1.448 10.074 5.676 12.445 8.747.311-2.119.563-4.361.742-6.732v-25.583h-62.709z" fill="#e5897a"/><path d="m237.81 26.3a54.67 54.67 0 0 1 18.706-11.1 29 29 0 0 1 30.024 7.313 119.373 119.373 0 0 1 9.448 10.921 20.069 20.069 0 0 0 10.246 7.209 25.409 25.409 0 0 0 9.166.916 2.017 2.017 0 0 1 2.09 2.661c-1.668 4.734-5.9 13.6-14.875 16.78 0 0 8.34 4.538 11.291 18.61a2.016 2.016 0 0 1 -2.265 2.39l-11.519-1.625s-4.034 16.8-20.2 19.306a44.594 44.594 0 0 0 2.113-10.787 17.424 17.424 0 0 0 -7.726-15.594c-7.031-4.7-17.818-13.285-24.245-25.092z" fill="#313847"/><path d="m190.6 99.674 30.331-28.745a12.721 12.721 0 0 0 12.693 0l15.521-10.221a10.178 10.178 0 0 0 2.781-14.28l5.111-3.868a7.275 7.275 0 0 0 1.4-10.2l-5.82-7.663a12.961 12.961 0 0 0 -17.674-2.834l-24.818 17.1a11.549 11.549 0 0 0 -4.994 9.215 11.549 11.549 0 0 1 -4.673 8.987l-34.142 25.28z" fill="#f9beac"/><g fill="#ff7a4e"><path d="m66.783 16.313a4.012 4.012 0 0 1 -4-4 4.14 4.14 0 0 1 .08-.781 4.033 4.033 0 0 1 .6-1.44 3.645 3.645 0 0 1 .5-.61 4.007 4.007 0 0 1 3.6-1.089 3.766 3.766 0 0 1 .75.23 4.025 4.025 0 0 1 .69.359 4.335 4.335 0 0 1 .61.5 4.214 4.214 0 0 1 .5.61 4.033 4.033 0 0 1 .6 1.44 4.14 4.14 0 0 1 .08.781 4.033 4.033 0 0 1 -1.18 2.83 4.479 4.479 0 0 1 -.61.5 4.253 4.253 0 0 1 -.69.36 3.83 3.83 0 0 1 -.75.229 4.047 4.047 0 0 1 -.78.081z"/><path d="m66.783 112.422a4.029 4.029 0 1 1 2.83-1.18 3.244 3.244 0 0 1 -.61.5 3.467 3.467 0 0 1 -.69.37 3.766 3.766 0 0 1 -.75.23 3.969 3.969 0 0 1 -.78.08z"/><path d="m114.843 64.362a4 4 0 0 1 -2.83-1.17 3.728 3.728 0 0 1 -.5-.609 4.264 4.264 0 0 1 -.371-.69 3.917 3.917 0 0 1 -.219-.75 3.39 3.39 0 0 1 -.08-.781 3.995 3.995 0 0 1 4-4 3.995 3.995 0 0 1 4 4 3.995 3.995 0 0 1 -4 4z"/><path d="m18.733 64.362a4.02 4.02 0 0 1 -2.83-1.17 4.326 4.326 0 0 1 -.5-.609 4.066 4.066 0 0 1 -.36-.69 3.875 3.875 0 0 1 -.23-.75 4.049 4.049 0 0 1 -.08-.781 4.119 4.119 0 0 1 .08-.779 4.03 4.03 0 0 1 .23-.75 4.348 4.348 0 0 1 .36-.69 4.857 4.857 0 0 1 .5-.611 4.086 4.086 0 0 1 .61-.489 3.9 3.9 0 0 1 .69-.371 3.832 3.832 0 0 1 .75-.23 4.094 4.094 0 0 1 1.56 0 3.832 3.832 0 0 1 .75.23 3.9 3.9 0 0 1 .69.371 4.086 4.086 0 0 1 .61.489 4.857 4.857 0 0 1 .5.611 4.432 4.432 0 0 1 .36.69 4.03 4.03 0 0 1 .23.75 4.119 4.119 0 0 1 .08.779 4.049 4.049 0 0 1 -.08.781 3.875 3.875 0 0 1 -.23.75 4.14 4.14 0 0 1 -.36.69 4.326 4.326 0 0 1 -.5.609 4.1 4.1 0 0 1 -.61.5 4.585 4.585 0 0 1 -.69.371 4.869 4.869 0 0 1 -.75.23 4.2 4.2 0 0 1 -.78.069z"/><path d="m100.763 30.382a4.2 4.2 0 0 1 -.78-.069 5.108 5.108 0 0 1 -.75-.23 4.585 4.585 0 0 1 -.69-.371 3.571 3.571 0 0 1 -.6-.5 4 4 0 0 1 -1.18-2.83 4.119 4.119 0 0 1 .08-.779 3.915 3.915 0 0 1 .23-.741 3.6 3.6 0 0 1 .37-.7 3.5 3.5 0 0 1 .5-.6 3.151 3.151 0 0 1 .6-.5 3.833 3.833 0 0 1 .69-.371 4.053 4.053 0 0 1 .75-.23 4.146 4.146 0 0 1 1.57 0 3.956 3.956 0 0 1 .74.23 3.26 3.26 0 0 1 .69.371 3.644 3.644 0 0 1 .61.5 4.022 4.022 0 0 1 .5.6 4.241 4.241 0 0 1 .37.7 3.877 3.877 0 0 1 .219.741 3.381 3.381 0 0 1 .081.779 3.987 3.987 0 0 1 -1.17 2.83 3.644 3.644 0 0 1 -.61.5 3.786 3.786 0 0 1 -.69.371 4.985 4.985 0 0 1 -.74.23 4.3 4.3 0 0 1 -.79.069z"/><path d="m32.8 98.342a4.012 4.012 0 0 1 -4-4 4.007 4.007 0 0 1 4.79-3.92 4.3 4.3 0 0 1 .75.23 3.5 3.5 0 0 1 .68.371 3.634 3.634 0 0 1 .61.489 3.958 3.958 0 0 1 1.1 3.611 3.945 3.945 0 0 1 -.23.75 4.183 4.183 0 0 1 -.37.69 3.728 3.728 0 0 1 -.5.609 4.148 4.148 0 0 1 -.61.5 4.051 4.051 0 0 1 -.68.371 4.248 4.248 0 0 1 -.75.219 3.474 3.474 0 0 1 -.79.08z"/><path d="m100.763 98.342a4.309 4.309 0 0 1 -1.53-.3 4.585 4.585 0 0 1 -.69-.371 3.571 3.571 0 0 1 -.6-.5 3.277 3.277 0 0 1 -.5-.609 3.548 3.548 0 0 1 -.37-.69 3.806 3.806 0 0 1 -.23-.75 4.049 4.049 0 0 1 -.08-.781 4.119 4.119 0 0 1 .08-.779 3.956 3.956 0 0 1 .23-.75 3.762 3.762 0 0 1 .37-.69 3.893 3.893 0 0 1 1.1-1.1 3.9 3.9 0 0 1 .69-.371 4.053 4.053 0 0 1 .75-.23 4.146 4.146 0 0 1 1.57 0 3.956 3.956 0 0 1 .74.23 3.306 3.306 0 0 1 .69.371 3.634 3.634 0 0 1 .61.489 4.117 4.117 0 0 1 .5.611 4.485 4.485 0 0 1 .37.69 3.92 3.92 0 0 1 .219.75 3.381 3.381 0 0 1 .081.779 3.336 3.336 0 0 1 -.081.781 3.778 3.778 0 0 1 -.219.75 4.183 4.183 0 0 1 -.37.69 3.728 3.728 0 0 1 -.5.609 3.644 3.644 0 0 1 -.61.5 3.786 3.786 0 0 1 -.69.371 3.919 3.919 0 0 1 -.74.219 4.151 4.151 0 0 1 -.79.081z"/><path d="m32.8 30.382a3.981 3.981 0 0 1 -2.82-1.17 4.081 4.081 0 0 1 -.5-.6 4.2 4.2 0 0 1 -.37-.7 3.884 3.884 0 0 1 -.23-.74 4.226 4.226 0 0 1 -.08-.79 4.021 4.021 0 0 1 4.79-3.92 5.508 5.508 0 0 1 .75.23 4.051 4.051 0 0 1 .68.371 3.644 3.644 0 0 1 .61.5 3.97 3.97 0 0 1 0 5.649 3.251 3.251 0 0 1 -.61.5 4.051 4.051 0 0 1 -.68.371 4.478 4.478 0 0 1 -.75.23 4.228 4.228 0 0 1 -.79.069z"/></g><path d="m253.723 331.683v-25.678h3.968a4 4 0 0 0 0-8h-16.491a4 4 0 0 0 0 8h4.519v25.678z" fill="#3e7bad"/><path d="m236.739 205.1h-12.239a4 4 0 0 1 0-8h12.244a4 4 0 0 1 0 8z" fill="#e5897a"/><path d="m273.646 205.1h-15.567a11.535 11.535 0 0 1 -11.522-11.521v-15.218a4 4 0 0 1 8 0v15.218a3.526 3.526 0 0 0 3.522 3.521h15.567a4 4 0 0 1 0 8z" fill="#e5897a"/><path d="m244.138 235.118h-5.026a4 4 0 0 1 0-8h5.026a2.422 2.422 0 0 0 2.419-2.42v-8.526a4 4 0 0 1 8 0v8.528a10.431 10.431 0 0 1 -10.419 10.418z" fill="#e5897a"/><path d="m267.171 235.118h-5.981a4 4 0 0 1 0-8h5.981a4 4 0 0 1 0 8z" fill="#e5897a"/><path d="m250.557 255.218a4 4 0 0 1 -4-4v-9.036a4 4 0 0 1 8 0v9.036a4 4 0 0 1 -4 4z" fill="#e5897a"/><path d="m243.673 88.353a3.988 3.988 0 0 1 -2.83-1.171 4.17 4.17 0 0 1 -.5-.61 3.782 3.782 0 0 1 -.37-.69 3.891 3.891 0 0 1 -.22-.739 3.544 3.544 0 0 1 -.08-.79 3.453 3.453 0 0 1 .08-.781 4.252 4.252 0 0 1 .22-.75 4.678 4.678 0 0 1 .37-.69 4.188 4.188 0 0 1 .5-.6 4.038 4.038 0 0 1 3.61-1.1 4.13 4.13 0 0 1 .75.23 3.786 3.786 0 0 1 .689.37 3.573 3.573 0 0 1 .611.5 3.614 3.614 0 0 1 .49.6 3.963 3.963 0 0 1 .37.69 4.3 4.3 0 0 1 .23.75 4.224 4.224 0 0 1 .08.781 4.338 4.338 0 0 1 -.08.79 3.924 3.924 0 0 1 -.23.739 3.3 3.3 0 0 1 -.37.69 3.609 3.609 0 0 1 -.49.61 4.055 4.055 0 0 1 -.611.5 4.521 4.521 0 0 1 -.689.37 4.99 4.99 0 0 1 -.75.23 4.043 4.043 0 0 1 -.78.071z" fill="#313847"/><path d="m260.193 88.353a3.526 3.526 0 0 1 -.79-.08 4 4 0 0 1 -.74-.221 4.2 4.2 0 0 1 -.7-.37 3.983 3.983 0 0 1 -.6-6.15 3.779 3.779 0 0 1 1.3-.87 3.993 3.993 0 0 1 4.35 6.52 3.982 3.982 0 0 1 -2.82 1.171z" fill="#313847"/><path d="m281.384 169.252a25.62 25.62 0 0 0 -6.419-13.252 25.62 25.62 0 0 0 -6.419 13.248 8.011 8.011 0 0 0 2.261 7.163 5.764 5.764 0 0 0 8.316 0 8.011 8.011 0 0 0 2.261-7.159z" fill="#e5897a"/><path d="m306.056 319.007c-7.534-27.88-12.852-107.793-14-126.186a11.379 11.379 0 0 0 -2.731-6.713 1.692 1.692 0 0 0 -2.973 1.04c-1.525 38.8 3.191 85.178 3.191 85.178l6.7 48.9a20.834 20.834 0 0 0 9.813-2.219z" fill="#e5897a"/><path d="m249.446 33.1a2 2 0 0 0 -2.792-.457l-12.842 9.233-3.144-4.382 10.257-7.448a2 2 0 0 0 -2.35-3.237l-11.854 8.609h-.006c-.036.026-.064.059-.1.087a1.924 1.924 0 0 0 -.2.18c-.038.041-.066.088-.1.132a2.137 2.137 0 0 0 -.136.181c-.035.058-.059.122-.088.183s-.058.107-.079.164a2.094 2.094 0 0 0 -.058.22c-.012.05-.031.1-.039.151a1.938 1.938 0 0 0 -.016.241c0 .047-.011.094-.009.141a1.927 1.927 0 0 0 .03.239c.007.048.008.1.019.145a1.923 1.923 0 0 0 .073.218c.018.052.03.1.052.155a1.866 1.866 0 0 0 .1.178 1.675 1.675 0 0 0 .1.169l10.048 14-4.986 3.598a12.754 12.754 0 0 0 -6.345-2.526 12.369 12.369 0 0 0 -.8-9.64 2 2 0 0 0 -3.54 1.865 8.847 8.847 0 0 1 -.121 8.179 13.756 13.756 0 0 0 -3.014 1.269 2 2 0 1 0 1.968 3.482 8.348 8.348 0 0 1 10.245 1.285 2 2 0 0 0 2.643.27l7.9-5.7 4.953-3.572a2 2 0 0 0 -2.34-3.244l-3.324 2.4-3.407-4.747 12.846-9.236a2 2 0 0 0 .456-2.785z" fill="#e5897a"/><path d="m209.194 272.326h80.352l.939 6.86h2.373v-14.365h-83.33c-.186 4.723-.334 7.505-.334 7.505z" fill="#e5897a"/><path d="m244.938 288.73h46.854l-1.15-8.4h-45.7a4.2 4.2 0 1 0 0 8.4z" fill="#3e7bad"/><rect fill="#3e7bad" height="8.398" rx="4.199" transform="matrix(-1 0 0 -1 449.507 569.062)" width="9.904" x="219.801" y="280.332"/><path d="m280.744 165.337a23.065 23.065 0 0 0 -5.779-11.926 23.065 23.065 0 0 0 -5.779 11.926 7.211 7.211 0 0 0 2.036 6.448 5.187 5.187 0 0 0 7.486 0 7.211 7.211 0 0 0 2.036-6.448z" fill="#74bcf7"/><path d="m237.036 181.091a25.614 25.614 0 0 0 -6.419-13.247 25.614 25.614 0 0 0 -6.419 13.247 8.008 8.008 0 0 0 2.261 7.163 5.762 5.762 0 0 0 8.316 0 8.008 8.008 0 0 0 2.261-7.163z" fill="#e5897a"/><path d="m236.4 177.176a23.065 23.065 0 0 0 -5.779-11.925 23.065 23.065 0 0 0 -5.779 11.925 7.21 7.21 0 0 0 2.036 6.448 5.188 5.188 0 0 0 7.487 0 7.213 7.213 0 0 0 2.035-6.448z" fill="#74bcf7"/><path d="m218.723 156.864a25.62 25.62 0 0 0 -6.419-13.248 25.62 25.62 0 0 0 -6.419 13.248 8.007 8.007 0 0 0 2.261 7.162 5.762 5.762 0 0 0 8.316 0 8.007 8.007 0 0 0 2.261-7.162z" fill="#e5897a"/><path d="m218.083 152.948a23.065 23.065 0 0 0 -5.779-11.925 23.059 23.059 0 0 0 -5.778 11.925 7.209 7.209 0 0 0 2.035 6.449 5.188 5.188 0 0 0 7.487 0 7.212 7.212 0 0 0 2.035-6.449z" fill="#74bcf7"/></svg>