<svg id="flat" height="512" viewBox="0 0 340 340" width="512" xmlns="http://www.w3.org/2000/svg"><g fill="#84335a"><path d="m261.622 148.336a3 3 0 0 0 -3.891 1.691c-4 10.148-17.853 22.989-32.034 32.227a48.839 48.839 0 0 0 9.526-21.915c1.446-3.9 6.8-10.908 11.458-12.837a3 3 0 1 0 -2.3-5.543 25.316 25.316 0 0 0 -8.527 6.59c-.012-.241-.019-.48-.034-.722-.563-9.024.982-14.727 2.721-15.511a3 3 0 1 0 -2.464-5.47c-6.092 2.744-6.759 13.128-6.245 21.354 1.1 17.584-6.24 31.825-21.8 42.33a79.188 79.188 0 0 1 -24.491 10.8 3 3 0 1 0 1.25 5.869 83.3 83.3 0 0 0 21.636-8.617c19.545-6.18 50.082-29.088 56.886-46.352a3 3 0 0 0 -1.691-3.894z"/><path d="m217.912 226.555c18.01-7.95 19.675-26.123 19.738-26.923a3 3 0 0 0 -5.981-.477c-.012.152-1.28 13.972-14.222 20.947a38.124 38.124 0 0 1 1.779-13 3 3 0 0 0 -5.578-2.211c-.128.322-3.128 8.027-1.935 20.032 0 .047.012.1.019.147v.006c.035.23 2.907 20.643-11.019 26.437a3 3 0 1 0 2.305 5.539c15.144-6.299 15.356-24.017 14.894-30.497z"/><path d="m243.351 252.94c-14.877 6.845-34.06 3.159-34.311 3.111a3 3 0 0 0 -1.178 5.883 75.53 75.53 0 0 0 13.644 1.177c7.21 0 16.226-.979 24.353-4.719a3 3 0 1 0 -2.508-5.452z"/><path d="m191.663 144.4a67.925 67.925 0 0 0 19.145-7.021l4.435-2.48a3 3 0 0 0 -2.93-5.237l-4.435 2.481a61.714 61.714 0 0 1 -17.006 6.284q1.665-1.477 3.47-3.03a19.573 19.573 0 0 0 6.681-12.944c1.633-8.248 9.447-19.331 13.82-24.592a3 3 0 0 0 -4.615-3.836 101.715 101.715 0 0 0 -10.387 15.22c-.521-7.546-.26-17.02 1.134-22.671a3 3 0 1 0 -5.826-1.437c-2.131 8.637-1.907 24.658-.293 32.678a13.649 13.649 0 0 1 -4.428 13.035c-8.792 7.567-15.317 13.835-18.589 19.822-7.72 14.132-6.994 24.313-6.512 31.051a3 3 0 0 0 2.989 2.786c.071 0 .144 0 .217-.008a3 3 0 0 0 2.778-3.206c-.456-6.4-1.082-15.161 5.794-27.746.221-.405.469-.814.729-1.227 4.032-4.982 9.736-7.061 13.829-7.922z"/><path d="m137.8 119.129c-12.035-10.7-8.718-26.369-8.559-27.081a3 3 0 0 0 -5.849-1.339c-.149.649-2.853 13.038 3.744 24.683-25.152-8.812-22.553-24.214-22.413-24.947a3 3 0 0 0 -5.876-1.217c-.2.96-4.548 23.646 32.072 33.609a24.075 24.075 0 0 1 3.568 1.324 2.935 2.935 0 0 0 .78.362c7.415 3.561 21.714 13.722 21.714 39.156a3 3 0 0 0 6 0c.003-28.561-16.406-40.309-25.181-44.55z"/><path d="m165.1 104.855v-.005c0-.042 0-.084 0-.126-.195-6.018 3.126-12.829 8.681-17.788l.578-.509c2.388-2.086 6.831-5.968 7.865-10.58a3 3 0 0 0 -5.855-1.313c-.605 2.7-4.22 5.857-5.957 7.374l-.627.552a34.879 34.879 0 0 0 -5.675 6.475c-.957-8.752-2.415-16.181-3.526-19.418a3 3 0 1 0 -5.676 1.947c1.659 4.832 4.057 19.893 4.194 33.443v.027l.5 28.085a3 3 0 0 0 3 2.946h.055a3 3 0 0 0 2.946-3.054z"/><path d="m103.517 191.376a57.665 57.665 0 0 0 9.731-.88c.427-.073.88-.16 1.357-.252a24.311 24.311 0 0 1 14.623.936 3 3 0 1 0 2.057-5.637 33.934 33.934 0 0 0 -5.568-1.529 2.99 2.99 0 0 0 -1.21-3.806c-.154-.091-15.46-9.2-16.87-22.824a3 3 0 1 0 -5.968.617c1.329 12.847 12 21.935 17.112 25.6a40.772 40.772 0 0 0 -5.311.752c-.435.084-.846.164-1.237.23-25.253 4.341-30.661-10.232-30.9-10.914a3 3 0 0 0 -5.7 1.889c.067.178 5.485 15.818 27.884 15.818z"/><path d="m138.923 245.426c-14.508 1.319-24.414.253-31.824-2.6-7.953-7.985-1.768-17.694-1.505-18.1 7.628-11.5 1.012-19.207.727-19.53a3.022 3.022 0 0 0 -4.251-.274 2.98 2.98 0 0 0 -.272 4.217c.158.19 3.792 4.735-1.2 12.268a22.133 22.133 0 0 0 -3.18 15.71 42.209 42.209 0 0 1 -4.6-4.548c-.023-.027-.037-.058-.06-.085-.068-.077-.141-.147-.21-.222q-.47-.544-.931-1.1a57.045 57.045 0 0 0 -16.7-14.137 3 3 0 0 0 -2.689 5.365 47.23 47.23 0 0 1 9.5 7q-.372.12-.738.27c-13.23 5.457-20.764-3.265-21.1-3.666a3 3 0 0 0 -4.637 3.807c3.583 4.389 14.051 11.168 28.026 5.406a4.364 4.364 0 0 1 4.857 1.122c8.174 9.412 18.686 15.648 39.555 15.648 3.6 0 7.522-.186 11.784-.575a3 3 0 1 0 -.543-5.974z"/></g><circle cx="262.669" cy="239.82" fill="#86abe0" r="12.286"/><path d="m304.742 169.693a17.921 17.921 0 0 0 -.83 5.223s5.542 13.247 16.481 8.319c6.34-2.856 4.937-13.3 4.937-13.3a24.29 24.29 0 0 0 -4.272-4.8 10.143 10.143 0 0 0 -16.316 4.558z" fill="#caddfc"/><path d="m89.5 329.708h29.385a7.205 7.205 0 0 0 6.276-10.755c-2.855-5.006-8.711-9.875-20.691-9.875-11.773 0-17.9 4.7-21.088 9.615a7.189 7.189 0 0 0 6.118 11.015z" fill="#86abe0"/><path d="m94.94 287.766c7.082 2.786 17.232-5.407 13.8-13.018a14.7 14.7 0 0 0 -2.628-3.95 11.93 11.93 0 0 0 -16.055-1.268c-1.092.849-7.057 13.54 4.883 18.236z" fill="#caddfc"/><path d="m36.307 130.256a16.821 16.821 0 0 1 1.7 4.78 12.2 12.2 0 0 1 -3.736 11.541 16.962 16.962 0 0 1 -4.422 2.815 12.143 12.143 0 0 1 -16.1-6.816c-1.761-4.573-1.989-10.261 3.636-15.236 5.873-5.193 15.186-3.975 18.922 2.916z" fill="#86abe0"/><path d="m55.219 27.546a17.275 17.275 0 0 0 -5.467 8.454 12.586 12.586 0 0 0 7.237 14.878 19.086 19.086 0 0 0 6.389 1.308 12.677 12.677 0 0 0 13.281-11.711c.325-4.616-.667-9.846-5.336-13.623a12.494 12.494 0 0 0 -16.104.694z" fill="#caddfc"/><path d="m205.849 11.558a13.01 13.01 0 0 0 -5.4 5.678 10.267 10.267 0 0 0 3.006 12.9 17.754 17.754 0 0 0 6.408 2.848 10.264 10.264 0 0 0 12.507-12.084 14.743 14.743 0 0 0 -4.151-7.5 10.435 10.435 0 0 0 -12.37-1.842z" fill="#caddfc"/><path d="m269.576 40.211a17.782 17.782 0 0 0 -1.122 1.843 12.336 12.336 0 0 0 7.153 17.565 22.075 22.075 0 0 0 2.539.616c9.549 1.746 17.417-7.818 13.673-16.775a17.43 17.43 0 0 0 -1.425-2.721 12.461 12.461 0 0 0 -20.818-.528z" fill="#86abe0"/><path d="m160.561 111.615c-2.664 16.119-7.17 50.8-2.9 81.335 0 0-7.615-7.615-23.456-11.27a60.654 60.654 0 0 1 -19.621-8.067 1.608 1.608 0 0 0 -2.33 2.04c2.383 5.131 8.516 13.257 24.236 19.43 24.826 9.748 23.3 53 23.3 53s-19.476-1.662-33.471-16.523a1.608 1.608 0 0 0 -2.666 1.7 55.53 55.53 0 0 0 28.28 29.389 15.839 15.839 0 0 1 8.791 11.574c1.916 10.7 4.138 29.218.285 44.223a19.023 19.023 0 0 1 -8.225 9.612h45.279s-15.122-19.664-7.506-47.689c0 0 4.874-14.926 23.151-20.41 0 0 20.829-9.373 24.455-30.044a1.612 1.612 0 0 0 -2.786-1.354c-5.866 6.516-19 19.134-35.072 22.26 0 0-11.881 3.046-18.582 12.489 0 0-4.077-23.021-1.805-45.02a14.329 14.329 0 0 1 7.251-11.064c8.884-4.931 24.334-17.162 23.642-42.37a1.614 1.614 0 0 0 -3.03-.735c-3.98 7.442-12.463 20.691-24.714 26.108a7.955 7.955 0 0 1 -11.088-7.058c-.383-11.16-2.054-33.224-8.24-71.549a1.61 1.61 0 0 0 -3.178-.007z" fill="#aa4765"/><path d="m202.044 47.953c-7.814-6.642-21.4-14.559-37.433-8.378a24.732 24.732 0 0 0 -8.47 5.443s-5.661 11.4-.414 19.435c2.945 4.515 7.405 9.7 12.79 9.919 7.248.3 21.337 4.694 34.166 15.187 14.877 12.168 33.355-5.348 33.355-5.348a21.971 21.971 0 0 0 .813-6.841c-.316-8.416-3.9-18.249-17.962-21.241a38.172 38.172 0 0 1 -16.845-8.176z" fill="#caddfc"/><path d="m118.763 148.649c-2.186 2.751-5.909 5.2-10.171 8.137-36.987 25.521-45.14 6.732-45.14 6.732a28.52 28.52 0 0 1 -.411-4.981c.009-10.515 6.029-20.122 14.292-26.624 7.543-5.934 19.009-11.046 34.271-6.973a13.448 13.448 0 0 1 1.721.635 15.913 15.913 0 0 1 5.752 4.234s4.753 12.465-.314 18.84z" fill="#caddfc"/><path d="m238.544 132.316c2.716 12.3 23.94 19.033 24.125 19.018 10.3-.814 16.732-16.881 16.732-16.881a18.337 18.337 0 0 0 -.576-3.208c-2.665-9.784-9.447-20.225-26.053-21.948a15.457 15.457 0 0 0 -13.617 5.571s-2.184 10.326-.611 17.448z" fill="#caddfc"/><path d="m219.05 86.344a21.294 21.294 0 0 1 -8.035-4.724c-3.19-2.905-13.563-11.006-35.876-17.5-15.592-4.536-19-12.769-18.992-19.1a22.38 22.38 0 0 0 -5.974 10.151 16.32 16.32 0 0 0 3.673 15.92 20.129 20.129 0 0 0 14.168 6.475 42.254 42.254 0 0 1 31.465 15.587 18.507 18.507 0 0 0 8.161 5.767c.105.038.212.075.319.112 12.2 4.213 24.785-3.218 28.079-14.825-6.775 3.787-12.722 3.444-16.988 2.137z" fill="#86abe0"/><path d="m104.373 146.43c-14.042 6.754-20.6 12.63-23.325 15.631a14.4 14.4 0 0 1 -7.619 4.532c-3.187.672-7.047.425-9.969-3.076 2.081 11.794 11.33 14.013 11.33 14.013 11.353 3.229 17.972-1.959 21.608-7.183a36.147 36.147 0 0 1 13.054-11.728 29.844 29.844 0 0 0 9.974-7.942 16.423 16.423 0 0 0 -.363-20.856c-.254 4.526-3.041 11.006-14.69 16.609z" fill="#86abe0"/><path d="m279.4 134.453c-4.424 4.5-12.347 8.729-24.963 3.2-13.657-5.981-15.658-16.109-15.273-22.783a14.943 14.943 0 0 0 -1.573 2.359 24.382 24.382 0 0 0 -2.244 17.1 25.758 25.758 0 0 0 26.721 20.044c.182-.011.366-.024.55-.039a18.372 18.372 0 0 0 16.782-19.881z" fill="#86abe0"/><path d="m108.736 274.748c-1.44 4.727-4.513 9.693-11.078 8.492-9.472-1.731-8.443-10.237-7.6-13.709a11.917 11.917 0 0 0 -2.83 3.171c-.06.1-.12.2-.179.3a11.982 11.982 0 0 0 7.806 17.973 26.872 26.872 0 0 0 4.565.489c9.038.236 12.751-9.105 9.316-16.716z" fill="#86abe0"/><path d="m325.7 170.489c-.117-.18-.254-.362-.377-.543a10.655 10.655 0 0 1 -8.4 7.473c-6.606 1.243-10.71-.679-13-2.5a21.088 21.088 0 0 0 .125 2.646 10.083 10.083 0 0 0 9.671 9.02 17.816 17.816 0 0 0 8-1.514 10.031 10.031 0 0 0 3.981-14.582z" fill="#86abe0"/></svg>