<svg id="fill" height="512" viewBox="0 0 340 340" width="512" xmlns="http://www.w3.org/2000/svg"><path d="m161.899 230.471h16.241v99.529h-16.241z" fill="#d86f6f"/><path d="m161.9 253.113a55.3 55.3 0 0 0 8.121.823 55.29 55.29 0 0 0 8.12-.823v-22.642h-16.241z" fill="#cc4646"/><path d="m186.971 168.031h-33.9s-19.459 9.641-16.952 39.713c2.816 33.78 33.9 33.78 33.9 33.78s31.087 0 33.9-33.78c2.51-30.072-16.948-39.713-16.948-39.713z" fill="#f9cb7a"/><g fill="#e88f36"><path d="m148.551 210.512a1.678 1.678 0 0 0 3.3-.187c.99-8.533 3.676-21.611 10.946-27.228l-12.536-1.143s-4.645 14.971-1.71 28.558z"/><path d="m182.7 205.357a49.188 49.188 0 0 0 -1-24.769l-9.24.969s4.986 9.17 7.5 23.711a1.4 1.4 0 0 0 2.74.089z"/><path d="m172.847 241.308a94.792 94.792 0 0 1 -4.665-30.109.91.91 0 0 0 -1.778-.3c-2 6.617-4.291 18.137-1.183 30.109a30.906 30.906 0 0 0 4.8.511 26 26 0 0 0 2.826-.211z"/><path d="m189.86 217.02c.516 9.021-.94 15.387-2.521 19.495a32.314 32.314 0 0 0 5.717-4.222 44.71 44.71 0 0 0 -1.586-15.566.824.824 0 0 0 -1.61.293z"/><path d="m137.086 191.329h65.868c-3.885-17.29-15.983-23.3-15.983-23.3h-33.9s-12.1 6.01-15.985 23.3z"/></g><path d="m161.899 87.54h16.241v46.347h-16.241z" fill="#d86f6f"/><path d="m161.9 105.05a70.45 70.45 0 0 0 8.121.488 70.433 70.433 0 0 0 8.12-.488v-17.51h-16.241z" fill="#cc4646"/><path d="m287.2 126.432s11.352 6.573 11.748 30.872a2.165 2.165 0 0 0 3.239 1.834c4.458-2.554 11.871-8.713 11.414-21.3a22.373 22.373 0 0 1 12.271 6.7 2.164 2.164 0 0 0 3.736-1.172c1.007-7.312.866-21.051-12.1-28.818a41.747 41.747 0 0 1 8.737-4.021 2.164 2.164 0 0 0 .818-3.687c-6.095-5.45-21.348-15.413-41.933-2.957z" fill="#f9cb7a"/><path d="m288.351 108.392 14.377 1.828a1.148 1.148 0 0 1 .125 2.254l-14.5 3.5z" fill="#e88f36"/><path d="m311.085 125.763c3.741 1.653 8.511 5.566 9.8 14.789a21.813 21.813 0 0 0 -7.284-2.712 15.54 15.54 0 0 0 -3.763-10.367 1.087 1.087 0 0 1 1.247-1.71z" fill="#e88f36"/><path d="m166.656 10h6.728a31.973 31.973 0 0 1 31.973 31.973v8.653a0 0 0 0 1 0 0h-70.674a0 0 0 0 1 0 0v-8.653a31.973 31.973 0 0 1 31.973-31.973z" fill="#f4ba89"/><path d="m205.113 38.08h-70.186a32.265 32.265 0 0 0 -.244 3.893v8.653h70.674v-8.653a32.265 32.265 0 0 0 -.244-3.893z" fill="#ef6060"/><rect fill="#f4ba89" height="14.372" rx="7.186" width="122.699" x="108.67" y="50.626"/><path d="m139.873 65h60.295a0 0 0 0 1 0 0 30.147 30.147 0 0 1 -30.148 30.145 30.147 30.147 0 0 1 -30.147-30.145 0 0 0 0 1 0 0z" fill="#f9cb7a"/><path d="m52.8 126.432s-11.35 6.573-11.746 30.868a2.165 2.165 0 0 1 -3.239 1.834c-4.458-2.554-11.871-8.713-11.414-21.3a22.373 22.373 0 0 0 -12.271 6.7 2.164 2.164 0 0 1 -3.736-1.172c-1.007-7.312-.866-21.051 12.1-28.818a41.747 41.747 0 0 0 -8.737-4.021 2.164 2.164 0 0 1 -.818-3.687c6.1-5.45 21.348-15.413 41.933-2.957z" fill="#f9cb7a"/><path d="m207.336 104.607a12.743 12.743 0 0 0 -11.329 7.079 26.443 26.443 0 0 1 -10.537 10.955 30.925 30.925 0 0 1 -30.9 0 26.447 26.447 0 0 1 -10.536-10.955 12.746 12.746 0 0 0 -11.33-7.079h-59.583v22.705s18.012.223 34.63 4.086a29.638 29.638 0 0 1 22.322 23.12c1.193 6.008 2.01 14.864 2.687 21.293a10.054 10.054 0 0 0 10 9h54.518a10.054 10.054 0 0 0 10-9c.676-6.429 1.494-15.285 2.687-21.293a29.638 29.638 0 0 1 22.322-23.12 180.931 180.931 0 0 1 33.781-4.086v-22.7z" fill="#ef6060"/><rect fill="#d33939" height="29.778" rx="6.994" transform="matrix(-1 0 0 -1 541.269 231.954)" width="13.987" x="263.641" y="101.088"/><rect fill="#d33939" height="29.778" rx="6.994" transform="matrix(-1 0 0 -1 569.244 231.954)" width="13.987" x="277.628" y="101.088"/><path d="m51.649 108.392-14.377 1.828a1.148 1.148 0 0 0 -.125 2.254l14.5 3.5z" fill="#e88f36"/><rect fill="#d33939" height="29.778" rx="6.994" width="13.987" x="62.412" y="101.088"/><rect fill="#d33939" height="29.778" rx="6.994" width="13.987" x="48.424" y="101.088"/><path d="m28.915 125.763c-3.741 1.653-8.511 5.566-9.8 14.789a21.813 21.813 0 0 1 7.285-2.712 15.54 15.54 0 0 1 3.763-10.367 1.087 1.087 0 0 0 -1.248-1.71z" fill="#e88f36"/><path d="m169.169 76.879a43.7 43.7 0 0 1 -6.514 17.356 30.206 30.206 0 0 0 7.365.91c.266 0 .529-.013.794-.02 2.375-6.56 1.882-13.37.872-18.345a1.277 1.277 0 0 0 -2.517.099z" fill="#e88f36"/><path d="m183.045 68.848a63.2 63.2 0 0 1 -1.587 10.875 1.133 1.133 0 0 0 2.028.917 32.03 32.03 0 0 0 5-11.792z" fill="#e88f36"/><path d="m205.357 50.626v-8.653a31.973 31.973 0 0 0 -31.973-31.973s10.866 2.678 11.571 28.08v12.546z" fill="#dd9d6c"/><path d="m224.184 50.626h-23.441c1.8 1.017 3.482 2.929 3.482 6.572v4a5.988 5.988 0 0 1 -.736 3.8h20.695a7.186 7.186 0 0 0 0-14.372z" fill="#dd9d6c"/><path d="m173.886 160.846a3.989 3.989 0 0 1 -3.175-1.563l-3.863-5.028a4 4 0 0 1 6.344-4.874l3.863 5.028a4 4 0 0 1 -3.169 6.437z" fill="#d33939"/><path d="m186.633 156.563a3.99 3.99 0 0 1 -3.226-1.631l-5.773-7.852a4 4 0 1 1 6.445-4.739l5.773 7.853a4 4 0 0 1 -3.219 6.369z" fill="#d33939"/><path d="m119.8 125.267a4 4 0 0 1 -3.584-5.771l2.112-4.28a4 4 0 0 1 7.174 3.54l-2.112 4.28a4 4 0 0 1 -3.59 2.231z" fill="#d33939"/><path d="m131.732 130.978a4 4 0 0 1 -3.545-5.846l2.521-4.849a4 4 0 0 1 7.1 3.69l-2.522 4.849a4 4 0 0 1 -3.554 2.156z" fill="#d33939"/><path d="m151.371 67.449a28.725 28.725 0 0 0 6.129 14.663 1.125 1.125 0 0 0 1.981-.888 46.676 46.676 0 0 1 -.168-13.775z" fill="#e88f36"/><path d="m140.5 71.136h59.04a30.276 30.276 0 0 0 .627-6.136h-60.294a30.276 30.276 0 0 0 .627 6.136z" fill="#e88f36"/><path d="m205.357 50.626v-8.653a32.265 32.265 0 0 0 -.244-3.893h-20.158v6.273a23.334 23.334 0 0 1 -.705 6.273z" fill="#d33939"/></svg>