<svg id="flat" height="512" viewBox="0 0 340 340" width="512" xmlns="http://www.w3.org/2000/svg"><path d="m146.826 326.806h46.348s34.462-53.155 20.871-108.677h-90.224s-6.042 63.8 23.005 108.677z" fill="#696987"/><path d="m146.631 257.879a394.99 394.99 0 0 0 23.369 68.927s15.152-32.583 23.668-70.234c0 0-6.828-16.691-23.876-16.691s-23.161 17.998-23.161 17.998z" fill="#fff"/><path d="m215.312 190.657s15.995 21.834 50.363 38.858a22.821 22.821 0 0 1 10.911 11.764 292.205 292.205 0 0 1 20.564 85.527h-103.976s37.021-56.946 19.748-123.3z" fill="#696987"/><path d="m221.359 204.553s5.088 17.523 27.971 36.818a3.664 3.664 0 0 1 -.33 5.829l-22.16 14.976s4.865 5.5 11.275 16.615a14 14 0 0 1 -.2 14.32c-5.892 9.588-19.186 25.825-44.739 33.695 0 0 25.262-77.366 2.714-123.3z" fill="#414151"/><path d="m146.633 257.878a34.974 34.974 0 0 0 14.062-9.094 11 11 0 0 1 8.174-3.652h2.987a10.916 10.916 0 0 1 7.216 2.7 46.884 46.884 0 0 0 14.6 8.74 237.255 237.255 0 0 0 4.872-29.479h-57.083a239.626 239.626 0 0 0 5.172 30.785z" fill="#d5d6e2"/><path d="m124.688 190.657s-16 21.834-50.363 38.858a22.821 22.821 0 0 0 -10.911 11.764 292.205 292.205 0 0 0 -20.564 85.527h103.976s-37.021-56.946-19.748-123.3z" fill="#696987"/><path d="m118.641 204.553s-5.088 17.523-27.971 36.818a3.664 3.664 0 0 0 .335 5.829l22.155 14.976s-4.865 5.5-11.275 16.615a14 14 0 0 0 .2 14.32c5.892 9.588 19.186 25.825 44.739 33.695 0 0-25.262-77.366-2.714-123.3z" fill="#414151"/><path d="m120.073 185.484a78.4 78.4 0 0 0 -5.252 21.944 2.358 2.358 0 0 0 3.066 2.514c8.543-2.75 31.6-7.248 52.113 14.863 20.509-22.11 43.567-17.614 52.112-14.864a2.353 2.353 0 0 0 3.07-2.483 79.886 79.886 0 0 0 -4.924-21.169z" fill="#fff"/><path d="m210.294 172.193h-80.588s-5.214 2.835-9.627 13.293a43.148 43.148 0 0 0 29.148 22.374l2.092 3.47a52.147 52.147 0 0 1 14.344 9.222l12.293-2.976a51.08 51.08 0 0 1 9.238-5.588c2.8-5.936 10.928-17.757 33.064-25.7-4.479-11.128-9.964-14.095-9.964-14.095z" fill="#d5d6e2"/><path d="m119.041 108.343c-5.262-5.4-15.53-1.991-16.549 5.478-.831 6.1-.016 15.212 9.132 22.931a15.075 15.075 0 0 0 7.12 3.4 13.448 13.448 0 0 0 11.262-2.78c.686-10.634-3.518-20.191-10.965-29.029z" fill="#ef9292"/><path d="m217.128 108.652c5.261-5.4 15.867-2.3 16.886 5.169.831 6.1.016 15.212-9.132 22.931a15.075 15.075 0 0 1 -7.12 3.4 13.448 13.448 0 0 1 -11.262-2.78 57.561 57.561 0 0 1 10.628-28.72z" fill="#ef9292"/><path d="m136.946 33.6a28.95 28.95 0 0 1 -12.892 6.988c-9.2 2.265-24.088 9.273-24.841 30.931a56.409 56.409 0 0 0 16.2 41.748 29.694 29.694 0 0 1 8.488 23.065 62.539 62.539 0 0 1 -3.349 15.346s-6.292 27.632 18.6 38.849l4.1-9.849s17.236 9.849 26.811 28.178c0 0 10.123-17.235 29.273-24.9s21.613-26.811 18.6-37.755c-2.042-7.425-3.328-14.473-1.722-23.537a50.449 50.449 0 0 1 7.762-19.03c6.7-10.092 19.692-35.083.526-55.1a26.694 26.694 0 0 0 -19.972-6.019s7.661-27.9-21.339-29.273c-20.306-.957-37.669 12.319-46.245 20.358z" fill="#3c3c4f"/><path d="m204.541 65.838a20.12 20.12 0 0 0 -17.664-4.238c-4.985 1.206-32.263 1.206-37.248 0a20.12 20.12 0 0 0 -17.664 4.236c-8.885 7.5-11.008 17-10.824 24.838a32.475 32.475 0 0 0 7.945 20.08 64.374 64.374 0 0 1 12.525 23.107 29.848 29.848 0 0 1 1.19 8.418v4.648a19.739 19.739 0 0 0 19.739 19.74h11.426a19.739 19.739 0 0 0 19.739-19.74v-4.648a29.848 29.848 0 0 1 1.19-8.418 64.374 64.374 0 0 1 12.525-23.107 32.475 32.475 0 0 0 7.945-20.08c.184-7.832-1.939-17.338-10.824-24.836z" fill="#ffcac0"/><path d="m156.311 209.833a25.378 25.378 0 0 0 -8.4-4.322 12.721 12.721 0 0 0 -14.332 5.479c-2.491 4.064-4.765 10.363-4.357 19.6a12.972 12.972 0 0 0 1.149 4.812s16.422 8.541 25.5-2.227.44-23.342.44-23.342z" fill="#f45d77"/><path d="m183.689 209.833a25.387 25.387 0 0 1 8.4-4.322 12.721 12.721 0 0 1 14.332 5.479c2.491 4.064 4.765 10.363 4.357 19.6l-.006.113s-13.5 15.441-23.972 4.543-3.111-25.413-3.111-25.413z" fill="#f45d77"/><path d="m137.574 91.848a14.076 14.076 0 0 0 -.7 2.076 4.486 4.486 0 0 0 4.323 5.618h18.511a1.073 1.073 0 0 0 .876-1.7c-2.319-3.2-8.142-9.829-16.733-10.065a6.654 6.654 0 0 0 -6.277 4.071z" fill="#3c3c4f"/><path d="m198.932 91.848a14.076 14.076 0 0 1 .7 2.076 4.486 4.486 0 0 1 -4.323 5.618h-18.516a1.073 1.073 0 0 1 -.876-1.7c2.319-3.2 8.142-9.829 16.733-10.065a6.654 6.654 0 0 1 6.282 4.071z" fill="#3c3c4f"/><g fill="#e58585"><path d="m180.037 143.123c-12.678 1.152-20.2.038-20.272.027a3.5 3.5 0 0 0 -1.074 6.917 72.543 72.543 0 0 0 10.24.582c3.229 0 7.169-.14 11.739-.554a3.5 3.5 0 0 0 -.633-6.972z"/><path d="m178.319 119.891a3.486 3.486 0 0 0 -5.53.172 3.577 3.577 0 0 0 .2 4.363c.308.377.59.761.888 1.14a16.781 16.781 0 0 1 -5.62 3.974 16.845 16.845 0 0 1 -5.62-3.976c.289-.368.564-.741.861-1.107a3.616 3.616 0 0 0 -.236-4.9 3.562 3.562 0 0 0 -5.073.339c-3.682 3.978-5.922 11.3-6.943 15.39a1.006 1.006 0 0 0 1.631 1l5.726-4.868c3.5 3.146 9.653 5.358 9.653 5.358a37.417 37.417 0 0 0 9.652-5.357l6.388 5.051a1.006 1.006 0 0 0 1.6-1.048 44.356 44.356 0 0 0 -7.577-15.531z"/><path d="m155 111.241a3 3 0 0 0 .368-5.978 45.154 45.154 0 0 0 -10.6-.24 3 3 0 0 0 .682 5.961 39.446 39.446 0 0 1 9.173.233 2.99 2.99 0 0 0 .377.024z"/><path d="m191.806 105.023a45.154 45.154 0 0 0 -10.6.24 3 3 0 1 0 .744 5.954 39.386 39.386 0 0 1 9.173-.233 3 3 0 0 0 .682-5.961z"/></g><path d="m161.266 225.951a3.025 3.025 0 0 1 -.689-.08c-4.909-1.153-13.606-1-13.693-1a2.967 2.967 0 0 1 -3.057-2.941 3 3 0 0 1 2.94-3.058c.386-.008 9.535-.17 15.183 1.157a3 3 0 0 1 -.684 5.921z" fill="#c12140"/><path d="m178.608 225.951a3 3 0 0 1 -.684-5.921c5.646-1.327 14.795-1.165 15.183-1.157a3 3 0 0 1 -.058 6h-.059c-.087 0-8.784-.154-13.693 1a3.025 3.025 0 0 1 -.689.078z" fill="#c12140"/><path d="m189.9 234.263a6.238 6.238 0 0 1 -4.073-5.861v-12.732a9.006 9.006 0 0 0 -2.137-5.834 33.373 33.373 0 0 0 -8.263 9.332l-1.252 10.856c2.123 3.448 9.013 11.678 22.173 13.167a13.106 13.106 0 0 0 14.423-12.491c-7.05 7.052-15.829 5.417-20.871 3.563z" fill="#c12140"/><path d="m164.572 219.168a33.373 33.373 0 0 0 -8.263-9.332 9.006 9.006 0 0 0 -2.137 5.834v12.61a6.221 6.221 0 0 1 -4.048 5.85c-4.585 1.688-12.381 3.656-19.742 1.266a12.9 12.9 0 0 0 13.412 7.469 31.98 31.98 0 0 0 17.819-8.158c.016-.013.037-.022.051-.036a33.725 33.725 0 0 0 4.16-4.647z" fill="#c12140"/><rect fill="#f45d77" height="20.773" rx="5.402" width="18.894" x="160.553" y="213.635"/></svg>