<svg id="Flat" height="512" viewBox="0 0 340 340" width="512" xmlns="http://www.w3.org/2000/svg"><path d="m242.511 179.192c-5.722 12.474-8.03 28.916-7.615 41.824a11.363 11.363 0 0 0 4.548 8.829 24.5 24.5 0 0 1 5.691 5.774 7.44 7.44 0 0 1 -6.155 11.594l-18.18.087-10.6-18.866 1.7-49.242z" fill="#a18891"/><path d="m152.177 161.521a91.265 91.265 0 0 0 -19.861 38.722 20.916 20.916 0 0 0 .062 9.418 34.823 34.823 0 0 0 2.378 6.834 21.13 21.13 0 0 0 5.332 6.927c2.461 2.118 8.074 5.091 13.906 7.356a11.094 11.094 0 0 1 7.047 10.351 6.04 6.04 0 0 1 -6.04 6.039h-36.359l-18.609-32.068s-.613-45.4 32.309-71.775z" fill="#a18891"/><path d="m312.854 146.146-3.376-9.324a189.872 189.872 0 0 0 -17.1-23.32l-16.538-16.829q-1.4-1.233-2.848-2.449a66.538 66.538 0 0 0 -12.592-8.332l-29.984-7.228a234.61 234.61 0 0 1 -40.344-4.911 17.08 17.08 0 0 1 -8.185-2.044q-1.507-.422-3-.876s-5.6-1.637-14.738-3.274l-33.387-3.259c-4.268-.06-8.686.023-13.2.3a113.921 113.921 0 0 0 -73.657 33.363l-8.773 9.822a149.7 149.7 0 0 0 -19.764 32.989 19.4 19.4 0 0 1 -3 7.594q-1.083 3.015-2.038 6.174a23.441 23.441 0 0 1 -2.055 7.8c-3.55 15.715-3.987 33.5 2.228 52.017l13.5 26.4q.578.825 1.175 1.65a78.036 78.036 0 0 0 13.864 13.968 41.3 41.3 0 0 1 9.156 6.559 101.392 101.392 0 0 0 28.535 12.434 10.784 10.784 0 0 0 12.8-6.7 10.807 10.807 0 0 0 -4.909-13.254 17.816 17.816 0 0 1 -7.412-3.6c-8.731-4.529-19.616-11.412-28.891-21.043-2.789-1.066-4.66-3.982-6.247-7.47a69.471 69.471 0 0 1 -9.955-59.97 88.077 88.077 0 0 1 7.368-17.926 11.893 11.893 0 0 1 4.248-6.781 61.076 61.076 0 0 1 16.805-16.262l-.86 9.934a25.54 25.54 0 0 0 3.766 15.721c4.739 7.6 12.019 19.867 15.854 29.307a18.161 18.161 0 0 1 1.322 6.728 244.259 244.259 0 0 1 -1.111 25.955 12.417 12.417 0 0 0 3.745 10.282 272.093 272.093 0 0 1 21.044 22.374 12.1 12.1 0 0 0 9.414 4.5h21.192a4.552 4.552 0 0 0 4.553-4.552 9.045 9.045 0 0 0 -6.125-8.561l-9.169-3.128a18.116 18.116 0 0 1 -6.211-3.606 31.3 31.3 0 0 1 -5.325-6.076 17.776 17.776 0 0 1 -2.811-10.433 97.269 97.269 0 0 1 4.377-25.185 14.446 14.446 0 0 1 3.055-8.177 69.71 69.71 0 0 1 15.877-23.039s25.389.244 55.556 22.667c0 0 .8 8.336 3.066 20.118a17.188 17.188 0 0 1 1.649 7.935c2.537 11.337 6.287 24.494 11.685 36.247a10.159 10.159 0 0 0 9.231 5.922h6.486a5.886 5.886 0 0 0 5.135-8.76 18.96 18.96 0 0 0 -4.835-5.679 9.3 9.3 0 0 1 -3.536-6.633c-.542-7.657-.736-23.145 5.173-33.469a16.594 16.594 0 0 1 14.114-8.293c4.29-.076 10.671.039 17.977-.458.001.003 49.223-7.816 58.026-37.859z" fill="#f2ad88"/><path d="m314.684 145.926s-1.752-3.532-5.207-9.1a56.7 56.7 0 0 0 -14.415-2.093 62.245 62.245 0 0 0 -19.733 3.745 41.919 41.919 0 0 0 -12.676-2.011 29.833 29.833 0 0 0 -9.02 1.22l-2.712.909a2.768 2.768 0 0 0 -1.883 2.462l-.168 2.855a30.9 30.9 0 0 0 6.739 21.026 65.989 65.989 0 0 0 -.781 19.054c21.392-1.442 51.011-7.879 59.856-38.067z" fill="#a86449"/><path d="m334.266 144.321s-8.212-2.751-19.582 1.6c0 0-9.764-4.2-19.622-4.2s-19.623 4.2-19.623 4.2c-11.37-4.356-19.581-1.6-19.581-1.6a23.9 23.9 0 0 0 7.336 18.571 59.521 59.521 0 0 0 -1.384 20.584 14.243 14.243 0 0 0 5.605 9.712 69.424 69.424 0 0 1 9.361 8.832q19.413 8.04 36.537.039a69.429 69.429 0 0 1 9.408-8.881 14.2 14.2 0 0 0 5.589-9.68 59.517 59.517 0 0 0 -1.381-20.606 23.9 23.9 0 0 0 7.337-18.571z" fill="#f2ad88"/><path d="m188.251 144.915a49.971 49.971 0 0 0 -7.663 26.582c2.65 1.689 5.353 3.541 8.1 5.581 0 0-1.518-12.359-.648-20.166a51.921 51.921 0 0 1 2.6-10.943c.534-1.413-1.567-2.322-2.389-1.054z" fill="#a86449"/><path d="m134.363 134.181c3.1 9.14 2.286 14.427-1.233 20.23 0 0 6 2.667 15.778 10.222s25.333 12.889 39.778 12.445a126.436 126.436 0 0 1 -.648-20.166c-27.562-3.168-43.726-16.747-50.65-24.153-1.164-1.244-3.572-.191-3.025 1.422z" fill="#ffefff"/><g fill="#614c63"><path d="m24.01 240.746a16.035 16.035 0 0 0 -12.2-26.456c-.438 0-.868.031-1.3.066a103.277 103.277 0 0 0 13.5 26.39z"/><path d="m130.762 64.305c2.2 4.861 6.187 10.54 13.141 12.214 7.263 1.749 14.943-3.8 20.249-8.959a208.3 208.3 0 0 0 -33.39-3.255z"/><path d="m83.354 111.608a6.469 6.469 0 0 0 -2.417 5.009 9.42 9.42 0 0 0 1.054 4.768c1.1 1.815 4.144 2.008 6.347 1.883a6.443 6.443 0 0 0 4.021-1.74l3.851-3.6a6.508 6.508 0 0 0 .77-8.653 6.51 6.51 0 0 0 -9.308-1.164z"/><path d="m158.751 88.98a15.885 15.885 0 0 0 -6.421 1.76c-2.393 1.28-4.978 3.528-4.873 7.25a5.624 5.624 0 0 0 3.5 5.319 8.055 8.055 0 0 0 6.207.084l8.764-3.346a5.686 5.686 0 0 0 3.658-5.313 5.721 5.721 0 0 0 -5.281-5.689 37.609 37.609 0 0 0 -5.554-.065z"/><path d="m164.152 118.936-2.206 1.023a5.668 5.668 0 0 0 -2.842 7.43 8.134 8.134 0 0 0 5.5 4.449 5.522 5.522 0 0 0 4.244-.55l6.366-3.59a5.7 5.7 0 0 0 2.77-6.184 5.711 5.711 0 0 0 -5.844-4.482 21.577 21.577 0 0 0 -7.988 1.904z"/><path d="m211.3 111.414v.01a7.027 7.027 0 0 1 -6.428 5.429c-3.284.191-7.449-.048-10.582-1.871l-.179-.107c-5.772-3.509-3.5-12.435 3.232-12.951a21.317 21.317 0 0 1 10 1.482 6.97 6.97 0 0 1 3.957 8.008z"/><path d="m260.4 85.905a65.87 65.87 0 0 0 -27.718-7.159c-.737-.024-1.5-.054-2.26-.085.714 4.932 3.338 10.516 10.968 13.186 7.604 2.664 14.246-1.29 19.01-5.942z"/><path d="m230.4 137.609 1.014.735a6.66 6.66 0 0 1 1.983 8.488l-1.108 2.107a6.659 6.659 0 0 1 -5.889 3.561h-5.18a6.66 6.66 0 0 1 -6.645-7.089 6.66 6.66 0 0 1 3.485-5.431l5.274-2.843a6.658 6.658 0 0 1 7.066.472z"/><path d="m111.438 80.646 7.242.2a6 6 0 0 1 5.649 4.515 6 6 0 0 1 -3.3 6.929l-6.577 3.037a7.919 7.919 0 0 1 -11.036-5.043q-.077-.307-.131-.625a7.913 7.913 0 0 1 8.153-9.013z"/><path d="m306.561 170.242c-.435 1.321-1.681 1.354-2.154.063a57.144 57.144 0 0 1 -2.551-8.312 39.92 39.92 0 0 1 .064-9.858c.152-1.311 1.157-1.945 1.886-1.189a17.047 17.047 0 0 1 4.55 9.43c.374 2.59-.836 6.958-1.795 9.866z"/><path d="m283.7 170.918c.435 1.32 1.681 1.354 2.154.063a57.144 57.144 0 0 0 2.551-8.312 39.92 39.92 0 0 0 -.064-9.858c-.152-1.311-1.157-1.945-1.886-1.189a17.047 17.047 0 0 0 -4.55 9.43c-.379 2.59.831 6.958 1.795 9.866z"/><path d="m203.917 172.439a4 4 0 0 1 -3.514-2.084l-.524-.959a4 4 0 1 1 7.022-3.833l.523.959a4 4 0 0 1 -3.507 5.917z"/><path d="m126.61 118.983a4.011 4.011 0 0 1 -1.017-.132 12.621 12.621 0 0 0 -5.7-.252 4 4 0 0 1 -1.631-7.832 20.473 20.473 0 0 1 9.358.345 4 4 0 0 1 -1.011 7.871z"/><path d="m109.977 152.358a4 4 0 0 1 -4.437-3.063c-1.522-6.582-5.69-6.85-5.732-6.851a4 4 0 0 1 .163-8c.424.009 10.429.357 13.363 13.047a4 4 0 0 1 -3 4.8c-.116.028-.234.05-.357.067z"/><path d="m86.84 158.5a3.986 3.986 0 0 1 -2.68-1.032 28.714 28.714 0 0 1 -6.247-8.2 4 4 0 0 1 7.094-3.7 20.569 20.569 0 0 0 4.516 5.959 4 4 0 0 1 -2.683 6.973z"/><path d="m114.2 185.627a84.706 84.706 0 0 1 3.057-8.176 93.932 93.932 0 0 1 -12.341.17 4 4 0 1 0 -.975 7.94 44.683 44.683 0 0 0 4.788.191c1.682 0 3.571-.044 5.471-.125z"/><path d="m91.887 180.719a3.979 3.979 0 0 1 -2.468-.854 14.481 14.481 0 0 1 -1.554-1.38 4 4 0 0 1 5.8-5.509 8.23 8.23 0 0 0 .694.6 4 4 0 0 1 -2.473 7.146z"/><path d="m93.974 209.265q-.086 0-.171 0a4 4 0 0 1 -3.829-4.165c.168-4 1.942-7.341 3.655-10.089a4 4 0 0 1 6.788 4.235c-1.646 2.639-2.378 4.49-2.45 6.19a4 4 0 0 1 -3.993 3.829z"/><path d="m69.462 100.068a4 4 0 0 1 -2.89-6.762c.753-.787 4.717-4.775 8.808-6a4 4 0 0 1 2.3 7.662c-1.553.466-4.053 2.547-5.332 3.875a3.993 3.993 0 0 1 -2.886 1.225z"/><path d="m43.911 97.968q-2.4 2.407-4.671 4.955s-1.6 1.71-4.107 4.862a40.72 40.72 0 0 0 2.653 12.858 4 4 0 1 0 7.456-2.9 32.7 32.7 0 0 1 -2.034-14.311z"/><path d="m31 135.563a4 4 0 0 0 1.338 5.5l7.157 4.355a72.466 72.466 0 0 1 4.244-6.782l-7.239-4.411a4 4 0 0 0 -5.5 1.338z"/><path d="m26.768 146.853a4 4 0 0 0 -3.243-4.635l-8.152-1.442c-1.055 2.443-2.063 4.976-3 7.593l9.763 1.727a4.094 4.094 0 0 0 .7.061 4 4 0 0 0 3.932-3.304z"/><path d="m11.587 163.594c2.089 1.707 3.01 4.7 2.738 8.887a4 4 0 0 0 3.732 4.251c.089 0 .176.008.263.008a4 4 0 0 0 3.988-3.74c.559-8.613-2.768-13.236-5.658-15.6a13.868 13.868 0 0 0 -6.318-2.857c-.763 2.537-1.454 5.138-2.055 7.8a6.056 6.056 0 0 1 3.31 1.251z"/><path d="m39.831 242.539a3.994 3.994 0 0 0 3.084-1.449 32.721 32.721 0 0 0 5.411-10.325c-.2-.2-.4-.4-.6-.609a66.782 66.782 0 0 1 -5.655-6.855c-.689 3.287-2.25 8.978-5.321 12.687a4 4 0 0 0 3.079 6.551z"/><path d="m52.83 252.47c-.3.167-.6.329-.907.484a32.391 32.391 0 0 1 -12.885 3.416 100.063 100.063 0 0 0 9.158 6.556 38.683 38.683 0 0 0 7.375-2.852q.576-.294 1.15-.614a4 4 0 1 0 -3.891-6.99z"/><path d="m84.616 255.419c-.251-.138-.5-.273-.77-.392-1.994-.9-4.239-1.972-6.636-3.216l-.186 1.023c-.683 2.715-2.124 6.3-3.14 7.2a4 4 0 1 0 5.291 6c3.025-2.67 4.809-8.3 5.441-10.615z"/></g><path d="m130.761 183.193a4 4 0 0 0 1.169-.176l5.094-1.554c.742-.227 1.5-.41 2.26-.564a95.822 95.822 0 0 1 4.784-8.487 32.589 32.589 0 0 0 -9.379 1.4l-5.094 1.555a4 4 0 0 0 1.166 7.827z" fill="#4c3950"/><path d="m127.127 210.035a19.98 19.98 0 0 0 5.763 1.523c-.193-.657-.369-1.3-.512-1.9a20.927 20.927 0 0 1 -.5-6.415 10.389 10.389 0 0 1 -1.5-.519 7.7 7.7 0 0 1 -3.771-3.047 4 4 0 1 0 -7.06 3.763 15.388 15.388 0 0 0 7.58 6.595z" fill="#4c3950"/><path d="m210.207 93.041a4 4 0 0 1 -.365-7.983q.573-.054 1.166-.124a4 4 0 1 1 .946 7.944q-.7.083-1.373.146c-.125.011-.25.017-.374.017z" fill="#614c63"/><path d="m182 73.082c.069 1.852.879 11.477 10.1 16.805a4 4 0 0 0 4-6.926 12.465 12.465 0 0 1 -6.023-9.214c-2.748-.609-5.483-1.288-8.185-2.043.03.629.074 1.107.108 1.378z" fill="#614c63"/><path d="m190.042 140.339h-2a4 4 0 0 1 0-8h2a4 4 0 0 1 0 8z" fill="#614c63"/><path d="m239.346 125.79a4 4 0 0 1 -3.786-2.71c-2.385-7-8.172-6.166-8.419-6.128a4 4 0 1 1 -1.25-7.9c4.374-.694 13.614.808 17.241 11.448a4 4 0 0 1 -3.786 5.291z" fill="#614c63"/><path d="m251.09 134.7h-2.332a4 4 0 0 1 0-8h2.332a4 4 0 0 1 0 8z" fill="#614c63"/><path d="m249.909 110.562a4.014 4.014 0 0 1 -2.844-6.841c2.654-2.714 10.037-6.326 18.979-.566a4 4 0 1 1 -4.332 6.726c-5.365-3.456-8.428-1.029-8.988-.507a3.917 3.917 0 0 1 -2.815 1.188z" fill="#614c63"/><path d="m271.4 128.534a3.983 3.983 0 0 1 -2.611-.971 9.538 9.538 0 0 0 -3.792-1.849 4 4 0 0 1 1.516-7.855 17.447 17.447 0 0 1 7.5 3.646 4 4 0 0 1 -2.615 7.029z" fill="#614c63"/><path d="m275.837 96.676a60.641 60.641 0 0 1 10.821 31.71l.021.482a4 4 0 0 0 3.994 3.839h.164a4 4 0 0 0 3.836-4.158l-.024-.536a68.364 68.364 0 0 0 -2.271-14.5 170.3 170.3 0 0 0 -16.541-16.837z" fill="#614c63"/><path d="m231.286 199.3a4 4 0 0 0 0 8h4.127c.268-2.648.638-5.328 1.11-8z" fill="#4c3950"/><path d="m228.337 173.571a13.574 13.574 0 0 1 -4.664-.993 3.956 3.956 0 0 1 -2-5.683 3.938 3.938 0 0 1 4.277-1.882 10.121 10.121 0 0 0 6.031-.237 3.962 3.962 0 0 1 4.408.775 4.022 4.022 0 0 1 -1.23 6.567 17.305 17.305 0 0 1 -6.822 1.453z" fill="#614c63"/><path d="m207.521 191.245a4 4 0 0 1 -3.809-5.24 19.587 19.587 0 0 1 4.234-7.333 4.016 4.016 0 0 1 5.871-.107 4.045 4.045 0 0 1 .141 5.478 12.157 12.157 0 0 0 -2.583 4.265 4 4 0 0 1 -3.854 2.937z" fill="#614c63"/><path d="m192.3 197.2h-.542c.482 2.5 1.03 5.164 1.65 7.935a11.171 11.171 0 0 1 7.839 3.188 4 4 0 1 0 5.341-5.955c-6.237-5.598-12.543-5.368-14.288-5.168z" fill="#614c63"/><path d="m271.826 177.482a4.916 4.916 0 0 1 7.937-2.585 15.5 15.5 0 0 0 4.906 2.633 11.5 11.5 0 0 1 6.9 6.856 5.487 5.487 0 0 1 -4.374 7.472 17.1 17.1 0 0 1 -2.2.109s-12.638 0-13.443-9.74a15.212 15.212 0 0 1 .274-4.745z" fill="#ffefff"/><path d="m318.3 177.482a4.917 4.917 0 0 0 -7.938-2.585 15.5 15.5 0 0 1 -4.906 2.633 11.5 11.5 0 0 0 -6.895 6.856 5.487 5.487 0 0 0 4.374 7.472 17.106 17.106 0 0 0 2.2.109s12.638 0 13.443-9.74a15.215 15.215 0 0 0 -.278-4.745z" fill="#ffefff"/><path d="m307.717 191.73a2.076 2.076 0 0 1 -.283-3.95l4.352-3.025a57.624 57.624 0 0 0 16.831-9.446c-.035-1.06-.091-2.151-.193-3.3-3.7 3.124-16.923 7.183-16.923 7.183a112.777 112.777 0 0 1 -10.955 4.73c.53 3.609 1.059 7.486 1.472 10.589.37 2.784.646 4.94.742 5.7.024.183.038.3.038.3l-7.723 3.835-.013-.006-.014.006-7.723-3.835s.014-.117.038-.3c.1-.761.372-2.917.742-5.7.413-3.1.942-6.98 1.472-10.589a57.3 57.3 0 0 1 -10.955-4.73s-13.457-4.261-16.922-7.182c-.1 1.148-.159 2.239-.194 3.3a57.649 57.649 0 0 0 16.831 9.445l4.352 3.025a2.076 2.076 0 0 1 -.283 3.95c-4.266 1.964-5.827 4.823-5.632 10.291.857.954 1.67 1.9 2.432 2.808a34.856 34.856 0 0 0 15.856 4.826 34.856 34.856 0 0 0 15.855-4.826c.762-.911 1.576-1.854 2.432-2.808.433-5.063-1.358-8.554-5.632-10.291z" fill="#614c63"/><path d="m331.624 201.96a.962.962 0 0 0 -1.147-.6l-.049.012a35.133 35.133 0 0 1 -5.428 1.054 42.064 42.064 0 0 1 -5.533.258 52.927 52.927 0 0 1 -5.53-.381c-1.053-.13-2.124-.3-3.168-.49a3.618 3.618 0 0 0 -5.232-1.854 9.3 9.3 0 0 0 -3.158 3.19h-14.636a9.3 9.3 0 0 0 -3.158-3.19 3.611 3.611 0 0 0 -5.28 2.02c-.74.122-1.486.233-2.222.324a52.927 52.927 0 0 1 -5.53.381 42.064 42.064 0 0 1 -5.533-.258 35.133 35.133 0 0 1 -5.427-1.055l-.049-.012a.963.963 0 0 0 -.574 1.837 37.567 37.567 0 0 0 5.659 1.645 44.994 44.994 0 0 0 5.831.806 56.084 56.084 0 0 0 5.885.128c.85-.03 1.686-.076 2.525-.139.9 1.092 1.721 2.133 2.437 3.067-.205.065-.412.124-.615.194a26.284 26.284 0 0 0 -5.042 2.332 25.194 25.194 0 0 0 -4.426 3.294 27.744 27.744 0 0 0 -3.629 4.091 1.1 1.1 0 0 0 1.7 1.406l.047-.052a25.18 25.18 0 0 1 3.6-3.419 22.232 22.232 0 0 1 4.178-2.586 22.883 22.883 0 0 1 4.589-1.662c.787-.2 1.582-.351 2.375-.469.052-.008.106-.013.158-.02a8.752 8.752 0 0 0 4.919 1.518h9.8a8.744 8.744 0 0 0 5.033-1.605c.316.029.636.065.942.107.793.118 1.588.271 2.375.469a22.883 22.883 0 0 1 4.589 1.662 22.232 22.232 0 0 1 4.178 2.586 25.18 25.18 0 0 1 3.6 3.419l.047.052a1.1 1.1 0 0 0 1.7-1.406 27.744 27.744 0 0 0 -3.629-4.091 25.194 25.194 0 0 0 -4.426-3.294 26.284 26.284 0 0 0 -5.042-2.332q-.662-.228-1.337-.421c.69-.9 1.47-1.878 2.319-2.911 1.125.1 2.234.171 3.365.21a56.084 56.084 0 0 0 5.885-.128 44.994 44.994 0 0 0 5.831-.806 37.567 37.567 0 0 0 5.659-1.645.963.963 0 0 0 .574-1.236z" fill="#ffefff"/><path d="m188.135 160.965c.01-.632-.121-3.484-.1-4.053q-2.588-.3-5.042-.713a55.477 55.477 0 0 0 -2.264 20.564 61.045 61.045 0 0 0 8.092.315 97.261 97.261 0 0 1 -.686-16.113z" fill="#c7b2c9"/><path d="m302.8 200.512-3.643.359a8.4 8.4 0 0 0 -2.731 1.255 2.583 2.583 0 0 1 -2.725 0 8.443 8.443 0 0 0 -2.742-1.257l-3.632-.357c.314 8.747 7.736 8.639 7.737 8.639s7.42.108 7.736-8.639z" fill="#f76795"/><path d="m279.039 179.547 1.02.265 7.834 3.382 1.1.625s-1.388 5.254-7.164 3.28c-6.108-2.088-2.79-7.552-2.79-7.552z" fill="#3b3b59"/><path d="m311.343 179.581-1.361.267-7.825 3.378-.921.632s1.213 5.256 6.989 3.282c6.11-2.088 3.118-7.559 3.118-7.559z" fill="#3b3b59"/><path d="m281.714 187.509c5.776 1.975 7.863-3.587 7.863-3.587l-1.684-.728c-.843 1.48-2.673 3.806-5.523 2.867-3.234-1.065-2.676-4.772-2.311-6.249l-1.437-.62s-3.022 6.23 3.092 8.317z" fill="#ffb052"/><path d="m308.41 187.509c6.109-2.087 3.091-8.317 3.091-8.317l-1.519.656c.365 1.5.891 5.156-2.319 6.213-2.829.932-4.654-1.355-5.506-2.835l-1.611.7s2.087 5.558 7.864 3.583z" fill="#ffb052"/><circle cx="18.319" cy="189.913" fill="#614c63" r="4.051"/><circle cx="98.279" cy="219.343" fill="#614c63" r="4.051"/><circle cx="71.759" cy="134.201" fill="#614c63" r="4.051"/><circle cx="113.849" cy="162.498" fill="#614c63" r="4.051"/><circle cx="117.257" cy="129.745" fill="#614c63" r="4.051"/><circle cx="89.658" cy="85.683" fill="#614c63" r="4.051"/><circle cx="140.649" cy="113.003" fill="#614c63" r="4.051"/><circle cx="206.349" cy="217.241" fill="#614c63" r="4.051"/></svg>