<svg id="Flat" height="512" viewBox="0 0 340 340" width="512" xmlns="http://www.w3.org/2000/svg"><path d="m287.638 83.611v-12.852h-58.35v12.852s-40.388 13.794-40.388 53.189v168.553a22.646 22.646 0 0 0 22.642 22.647h93.842a22.646 22.646 0 0 0 22.647-22.647v-168.553c0-39.395-40.393-53.189-40.393-53.189z" fill="#ffd597"/><path d="m283.541 12h-50.156a10.493 10.493 0 0 0 -10.493 10.492v42.794a5.474 5.474 0 0 0 5.474 5.473h60.194a5.473 5.473 0 0 0 5.473-5.473v-42.794a10.492 10.492 0 0 0 -10.492-10.492z" fill="#f79c2f"/><path d="m179.487 14.293h-158.11a9.406 9.406 0 0 0 -9.272 10.985l39.862 234.031h96.933l39.859-234.031a9.406 9.406 0 0 0 -9.272-10.985z" fill="#ffd597"/><path d="m51.967 259.309v54.491a14.2 14.2 0 0 0 14.2 14.2h68.533a14.2 14.2 0 0 0 14.2-14.2v-54.491z" fill="#f79c2f"/><circle cx="100.432" cy="109.781" fill="#ff7a4e" r="32.729"/><circle cx="258.463" cy="168.743" fill="#ff7a4e" r="30.9"/><path d="m102.36 120.494a8 8 0 0 0 -6.714-1.593 35.17 35.17 0 0 1 -6.368.577c-4.76 0-8.446-1.009-10.379-2.84a7.985 7.985 0 0 0 -10.554-.387 32.738 32.738 0 0 0 32.087 26.259c1.038 0 2.064-.054 3.077-.148a64.307 64.307 0 0 0 1.827-15.642 8 8 0 0 0 -2.976-6.226z" fill="#f14f2a"/><path d="m259.862 176.216a8 8 0 0 0 -6.714-1.593 35.254 35.254 0 0 1 -6.387.579c-4.777 0-8.476-1.013-10.418-2.852a7.969 7.969 0 0 0 -8.7-1.517 30.9 30.9 0 0 0 30.822 28.81c.73 0 1.451-.034 2.168-.084a63.41 63.41 0 0 0 2.207-17.117 8 8 0 0 0 -2.978-6.226z" fill="#f14f2a"/><g fill="#ff7a4e"><path d="m100.428 60.5a4 4 0 0 1 -2.82-6.83 4.123 4.123 0 0 1 .6-.5 3.717 3.717 0 0 1 .69-.36 3.586 3.586 0 0 1 .75-.23 4 4 0 1 1 .78 7.92z"/><path d="m153.718 113.78a4.026 4.026 0 0 1 -2.83-1.171 3.646 3.646 0 0 1 -.5-.609 4.579 4.579 0 0 1 -.37-.69 4.722 4.722 0 0 1 -.23-.75 4.114 4.114 0 0 1 -.07-.78 3.993 3.993 0 0 1 4.78-3.921 4.392 4.392 0 0 1 .75.231 3.766 3.766 0 0 1 .69.37 3.565 3.565 0 0 1 .6.49 4.028 4.028 0 0 1 -.6 6.159 4.243 4.243 0 0 1 -1.44.591 4.129 4.129 0 0 1 -.78.08z"/><path d="m138.108 76.109a4.128 4.128 0 0 1 -.78-.079 3.973 3.973 0 0 1 -.75-.23 4.671 4.671 0 0 1 -.69-.37 4.161 4.161 0 0 1 -.61-.5 4.82 4.82 0 0 1 -.5-.6 4.571 4.571 0 0 1 -.36-.69 4.3 4.3 0 0 1 -.23-.75 4.131 4.131 0 0 1 -.08-.781 4.028 4.028 0 0 1 1.17-2.829 3.605 3.605 0 0 1 .61-.5 4.579 4.579 0 0 1 .69-.37 3.766 3.766 0 0 1 .75-.23 4 4 0 0 1 4.78 3.929 4.131 4.131 0 0 1 -.08.781 4.3 4.3 0 0 1 -.23.75 4.571 4.571 0 0 1 -.36.69 4.82 4.82 0 0 1 -.5.6 4.161 4.161 0 0 1 -.61.5 4.671 4.671 0 0 1 -.69.37 3.973 3.973 0 0 1 -.75.23 4.128 4.128 0 0 1 -.78.079z"/><path d="m138.108 151.46a4.031 4.031 0 0 1 -2.83-1.18 4.243 4.243 0 0 1 -.5-.6 4.571 4.571 0 0 1 -.36-.69 4.053 4.053 0 0 1 -.23-.75 4.138 4.138 0 0 1 -.08-.78 4.027 4.027 0 0 1 1.17-2.83 4.1 4.1 0 0 1 .61-.5 4.491 4.491 0 0 1 .69-.37 4.659 4.659 0 0 1 .75-.23 4 4 0 0 1 4.78 3.93 4.138 4.138 0 0 1 -.08.78 4.053 4.053 0 0 1 -.23.75 4.571 4.571 0 0 1 -.36.69 4.243 4.243 0 0 1 -.5.6 4.031 4.031 0 0 1 -2.83 1.18z"/><path d="m62.758 76.109a4.046 4.046 0 0 1 -.78-.079 3.973 3.973 0 0 1 -.75-.23 4.218 4.218 0 0 1 -.69-.37 3.694 3.694 0 0 1 -.61-.5 4.82 4.82 0 0 1 -.5-.6 4.628 4.628 0 0 1 -.37-.69 4.252 4.252 0 0 1 -.22-.75 3.447 3.447 0 0 1 -.08-.781 4 4 0 0 1 4.78-3.929 3.978 3.978 0 0 1 .75.23 4.579 4.579 0 0 1 .69.37 3.605 3.605 0 0 1 .61.5 4 4 0 0 1 0 5.65 4.161 4.161 0 0 1 -.61.5 4.671 4.671 0 0 1 -.69.37 4.211 4.211 0 0 1 -.75.23 4.128 4.128 0 0 1 -.78.079z"/><path d="m258.458 122.439a4.049 4.049 0 0 1 -.78-.08 3.953 3.953 0 0 1 -.74-.229 4.2 4.2 0 0 1 -.7-.36 4.82 4.82 0 0 1 -.6-.5 3.605 3.605 0 0 1 -.5-.61 4.033 4.033 0 0 1 -.6-1.44 3.842 3.842 0 0 1 0-1.56 4.033 4.033 0 0 1 .6-1.44 3.289 3.289 0 0 1 .5-.611 4.005 4.005 0 0 1 6.83 2.83 4.131 4.131 0 0 1 -.08.781 4.033 4.033 0 0 1 -.6 1.44 3.605 3.605 0 0 1 -.5.61 4.82 4.82 0 0 1 -.6.5 4.2 4.2 0 0 1 -.7.36 3.953 3.953 0 0 1 -.74.229 4.071 4.071 0 0 1 -.79.08z"/><path d="m308.768 172.74a3.445 3.445 0 0 1 -.78-.08 3.811 3.811 0 0 1 -.75-.221 4.406 4.406 0 0 1 -.69-.37 3.6 3.6 0 0 1 -.61-.5 4.006 4.006 0 0 1 0-5.659 3.59 3.59 0 0 1 .61-.49 3.766 3.766 0 0 1 .69-.37 3.9 3.9 0 0 1 .75-.231 3.993 3.993 0 0 1 4.78 3.921 4 4 0 0 1 -4 4z"/><path d="m294.038 137.17a3.591 3.591 0 0 1 -.79-.08 3.922 3.922 0 0 1 -.74-.22 4.241 4.241 0 0 1 -.7-.37 4.145 4.145 0 0 1 -.6-.5 4 4 0 0 1 0-5.65 3.54 3.54 0 0 1 .6-.5 3.659 3.659 0 0 1 .7-.371 4.028 4.028 0 0 1 .74-.229 4.105 4.105 0 0 1 1.57 0 4.028 4.028 0 0 1 .74.229 3.659 3.659 0 0 1 .7.371 3.54 3.54 0 0 1 .6.5 4 4 0 0 1 -2.82 6.82z"/><path d="m294.038 208.31a3.476 3.476 0 0 1 -.79-.081 3.919 3.919 0 0 1 -.74-.219 4.241 4.241 0 0 1 -.7-.37 4.081 4.081 0 0 1 -.6-.5 3.694 3.694 0 0 1 -.5-.61 4.183 4.183 0 0 1 -.37-.69 4.87 4.87 0 0 1 -.23-.74 4.226 4.226 0 0 1 -.07-.79 3.979 3.979 0 0 1 1.17-2.82 3.54 3.54 0 0 1 .6-.5 3.6 3.6 0 0 1 .7-.37 3.884 3.884 0 0 1 .74-.23 4.026 4.026 0 0 1 3.61 1.1 3.979 3.979 0 0 1 1.17 2.82 4.226 4.226 0 0 1 -.07.79 4.87 4.87 0 0 1 -.23.74 4.183 4.183 0 0 1 -.37.69 3.694 3.694 0 0 1 -.5.61 3.981 3.981 0 0 1 -2.82 1.17z"/><path d="m222.888 137.17a4.012 4.012 0 0 1 -4-4 4.023 4.023 0 0 1 1.17-2.82 3.605 3.605 0 0 1 .61-.5 3.9 3.9 0 0 1 .69-.371 4.382 4.382 0 0 1 .75-.229 4.105 4.105 0 0 1 1.57 0 4.028 4.028 0 0 1 .74.229 3.306 3.306 0 0 1 .69.371 3.251 3.251 0 0 1 .61.5 4 4 0 0 1 -2.83 6.82z"/></g><path d="m121.38 196.672h-41.9a4 4 0 1 1 0-8h41.9a4 4 0 1 1 0 8z" fill="#f79c2f"/><path d="m121.38 221.5h-41.9a4 4 0 0 1 0-8h41.9a4 4 0 0 1 0 8z" fill="#f79c2f"/><path d="m279.412 256.112h-41.9a4 4 0 1 1 0-8h41.9a4 4 0 0 1 0 8z" fill="#f79c2f"/><path d="m279.412 280.94h-41.9a4 4 0 1 1 0-8h41.9a4 4 0 0 1 0 8z" fill="#f79c2f"/><path d="m73.4 122.445c-8.122 7.695-23.939 4.275-23.939 4.275 0 33.462 23.939 39.329 23.939 39.329s23.939-5.867 23.939-39.329c-.003 0-15.82 3.42-23.939-4.275z" fill="#fff"/><path d="m230.841 178.157c-8.142 7.714-24 4.285-24 4.285 0 33.544 24 39.424 24 39.424s24-5.88 24-39.424c-.003 0-15.858 3.429-24-4.285z" fill="#fff"/></svg>