<svg id="Flat" height="512" viewBox="0 0 340 340" width="512" xmlns="http://www.w3.org/2000/svg"><path d="m45.292 130.447s-10.485-19.987 3.026-40.681a2.6 2.6 0 0 1 3.806-.6c4.827 3.9 15.961 14.343 17.491 28.723z" fill="#4a384d"/><path d="m289.267 172.792s-7.971 26.3 13.336 59.444a25.716 25.716 0 0 1 3.357 7.725c1.583 6.407 4.128 18.723 3.891 30.919a8.7 8.7 0 0 1 -8.7 8.527h-7.384a9.754 9.754 0 0 1 -9.625-8.1c-1.509-8.845-4.978-23.235-12.566-34.381v-64.134z" fill="#4a384d"/><path d="m153.6 221.047s11.662 31.852 37.963 55.981a9.146 9.146 0 0 0 13.141-.87l4.4-5.191a8.528 8.528 0 0 0 -.045-11.061 62.321 62.321 0 0 1 -11.81-20.863c-5.361-16.464-8.424-55.137-8.424-55.137h-23.74z" fill="#4a384d"/><path d="m81.33 83.136a32.231 32.231 0 0 1 6.122 17.443s26.469-21.524 51.486-32.808a74.944 74.944 0 0 1 17.915-5.463 374.364 374.364 0 0 1 73.647-5.284 55.316 55.316 0 0 1 19.3 4.109c23.493 9.667 79.646 39.579 76.561 103.749a7.183 7.183 0 0 1 -10.808 5.8l-11.907-6.958s-20.253 19.616-25.039 46.191a27.287 27.287 0 0 0 3.53 19.2c.2.317.4.64.616.966a11.393 11.393 0 0 1 1.66 8.085c-1.045 6.427-3.441 18.1-8.145 27.659a39 39 0 0 0 -3.009 8.137c-.024.1-.047.2-.071.3a11.5 11.5 0 0 1 -11.188 8.878h-7.291a7.786 7.786 0 0 1 -7.142-10.918c1.087-2.447 2.4-5.147 3.948-7.926a34.567 34.567 0 0 0 4.406-14.656 36.555 36.555 0 0 0 -.133-6.475 14.058 14.058 0 0 0 -3.989-8.209 136.546 136.546 0 0 1 -13.631-15.887 29.093 29.093 0 0 1 -4.731-11.247l-1.6-8.238a110.594 110.594 0 0 1 -51.753-9.375 187.641 187.641 0 0 0 -15.872 30.065 52.606 52.606 0 0 0 -3.769 16.9c-.423 7.416-1.92 19.358-6.986 28.042a88.145 88.145 0 0 0 -5.737 11.363 10.406 10.406 0 0 1 -9.652 6.564h-7.658a6.236 6.236 0 0 1 -5.424-9.329 55.433 55.433 0 0 0 5.97-40.85s-9.375-17.626-13.875-33.752c0 0-9.751-.375-12-7.875 0 0-19.876-1.5-30.752 2.25 0 0-14.541 30.794-35.819 24.609a99.15 99.15 0 0 0 -2.056 12.268 9.8 9.8 0 0 1 -9.971 8.507l-6.175-.268a3.2 3.2 0 0 1 -3.027-2.706c-1.374-8.856-5.481-38.84-2.958-65.997 0 0 3.375-35.294 44.253-52.17 0 0-2.014-23.271 18.718-35.5a3.09 3.09 0 0 1 4.036.806z" fill="#8a6e81"/><g fill="#4a384d"><path d="m46.41 218.873a98.97 98.97 0 0 1 2.945-26.6 1.692 1.692 0 0 0 -3.156-1.181c-5.64 12.066-7.692 27.1-7.692 27.1a19.834 19.834 0 0 0 7.903.681z"/><path d="m51.476 156.35a4 4 0 0 1 -2.021-7.455l3.068-1.791a4 4 0 0 1 4.034 6.909l-3.069 1.787a3.979 3.979 0 0 1 -2.012.55z"/><path d="m84.476 120.085c6.222-3.558 12.017-10.994 11.929-26.364-5.53 4.077-8.953 6.858-8.953 6.858s.591 9.851-5.357 16.577a1.915 1.915 0 0 0 2.381 2.929z"/><path d="m119.867 207.856a87.835 87.835 0 0 0 6.388-58.253 1.952 1.952 0 0 0 -3.85.6c1.234 13.417.955 31.423-5.326 49.009.801 2.868 1.758 5.788 2.788 8.644z"/><path d="m324.569 169.255a6.127 6.127 0 0 1 -2.141.491 7.141 7.141 0 0 1 -5.913-2.814l-5.3-6.734a2.789 2.789 0 0 0 -4.262-.143l-3.311 3.673 11.907 6.958a7.208 7.208 0 0 0 9.02-1.431z"/><path d="m105.655 168.693c-2.162 7.575-5.633 17-10.511 22.347 5.663-.028 9.934.294 9.934.294a84.618 84.618 0 0 0 3.96-22.1 1.725 1.725 0 0 0 -3.383-.541z"/><path d="m232.437 170.318a1.691 1.691 0 0 0 -3.2-.984c-3.1 6.7-6.218 16.78-6.463 30.457a78.79 78.79 0 0 0 9.061-.207s-1.555-15.759.602-29.266z"/></g></svg>