<svg id="fill" height="512" viewBox="0 0 340 340" width="512" xmlns="http://www.w3.org/2000/svg"><path d="m267.329 243.208a130.988 130.988 0 0 0 -7.128 42.475 14.231 14.231 0 0 0 5.192 10.969 28.061 28.061 0 0 1 10.171 18.913h-27.828l-12.87-19.832v-49.046z" fill="#2b313f"/><path d="m102.336 250.712a92.9 92.9 0 0 1 -14.228 23.723 16.708 16.708 0 0 0 -3.727 7.756c-.175.972-.333 2.053-.444 3.214a10.09 10.09 0 0 0 3.666 8.731c4.221 3.477 10.459 10.518 9.8 21.429h-26.026l-10.783-26.094 7.471-41.755z" fill="#2b313f"/><path d="m289.343 179.873s1.976 19.756-4.593 34.428a30.209 30.209 0 0 0 -2.558 11.789c-.209 11.057-4.766 31.466-37.155 22.333l4.18-58.1z" fill="#ccc"/><path d="m126.747 233.537s-8.687 39.644-58.682 14.179l8.105-21.7z" fill="#ccc"/><path d="m43.677 238.875s4.251 24.345 2.961 47.858a31.866 31.866 0 0 0 2.139 13.38 67.892 67.892 0 0 1 4.164 15.452h24.241a27.783 27.783 0 0 0 -6.739-18.447 16.613 16.613 0 0 1 -3.828-12.467c1.126-11.131 5.763-30.976 23.78-45.776z" fill="#495260"/><path d="m220.657 246.687s3.99 23.634.919 48.232a14.292 14.292 0 0 0 3.177 10.866 80.665 80.665 0 0 1 7.067 9.78h22.687a26.066 26.066 0 0 0 -7.585-16.88 13.5 13.5 0 0 1 -4.01-8.888c-.4-8.841-.244-26.334 5.473-43.11z" fill="#495260"/><path d="m310.792 52.127s29.327 25.848 5.965 69.591c0 0 3.48 71.578-51.2 76.549 0 0 .5 57.66-32.807 61.637 0 0-19.386.5-29.825-22.368 0 0-17.4 5.467-28.333-1.989 0 0-32.568 17.465-57.69 2.718a19.949 19.949 0 0 0 -5.7-2.276l-.185-.042a20.343 20.343 0 0 0 -18.748 5.512c-6.147 6.16-18.565 15.559-34.985 12.48 0 0-20.016-2.383-26.917-26.748-.25-.883-.451-1.772-.649-2.668-.793-3.6-3.712-15.448-9.46-24.1a58.88 58.88 0 0 1 -9.5-23.951 81.36 81.36 0 0 1 8.748-50.284s-.144-.287-.375-.812a28.376 28.376 0 0 1 8.283-33.526c17.132-13.69 60.045-37.024 137.8-15.369 0 0 13.351-13.918 36.216-9.941 0 0 6.959-14.913 22.368-19.386 0 0-15.906-.5-21.374-15.409 0 0 36.784-19.386 48.216 4.97 0 0 26.842-13.421 43.743 3.48 0 0 10.438-19.386 35.491-10.936.006.003 3.784 21.377-19.082 22.868z" fill="#f2f2f2"/><path d="m129.328 213.417a1.723 1.723 0 0 0 -2.14-2.67c-13.962 8.42-28.13 22.459-34.917 30.712a20.34 20.34 0 0 1 18.747-5.512l.185.042c.056.012.11.031.166.044a120.043 120.043 0 0 1 17.959-22.616z" fill="#ccc"/><path d="m42.681 102.467c-8.187.582-15.263 2.93-25.77 10.477a28.115 28.115 0 0 0 2.336 12.435c.23.525.374.812.374.812s7.792-12.149 23.913-20.667a1.621 1.621 0 0 0 -.853-3.057z" fill="#ccc"/><path d="m199.051 208.079a20.128 20.128 0 0 0 -4.563-13.74 40.079 40.079 0 0 0 -4.647-4.764 1.968 1.968 0 0 0 -2.964 2.508 41.956 41.956 0 0 1 4.009 8.346 14.62 14.62 0 0 1 .731 5.907c-.162 2.008-.325 5.146-.249 8.962v.054c0 .182.009.366.014.551.041 3.2-.346 18.273-11.06 22.331 10.393 3.141 22.6-.693 22.6-.693l.015.029.1-.029a87.422 87.422 0 0 1 -3.986-29.462z" fill="#ccc"/><path d="m247.172 193.343c2.431 5.568 7.527 12.272 18.033 12.911.38-4.854.354-7.987.354-7.987s-9.547-.05-16.237-6.434a1.342 1.342 0 0 0 -2.15 1.51z" fill="#ccc"/><path d="m240.285 89.679s-1.414 15.482 8.025 26.933c0 0 9.272 12.446 13.188 22.5a17.643 17.643 0 0 0 14.856 11.188q.5.042 1.006.059a17.686 17.686 0 0 0 17.506-13.58c1.252-5 3.238-11.447 5.982-16.031a42.607 42.607 0 0 0 3.68-7.482 47.414 47.414 0 0 0 2.744-20.014z" fill="#ccc"/><path d="m307.272 93.255c-.415-8.339-3.193-19.777-14.138-26.5-2.472 3.6-6.73 6.984-14.076 8.367a3.787 3.787 0 0 1 -4.372-2.893 3.774 3.774 0 0 0 -4.462-2.869c-4.041.879-10.858 1.439-16.978-2.4-6.942 3.7-12.961 9.792-12.961 19.786v2.934a29.827 29.827 0 0 0 7.3 19.507 149.021 149.021 0 0 1 17.628 24.788 13.3 13.3 0 0 0 11.66 6.931h1.6a13.306 13.306 0 0 0 12.414-8.555c2.556-6.654 6.689-16.06 12.148-24.01a24.519 24.519 0 0 0 4.237-15.086z" fill="#495260"/><g fill="#ccc"><path d="m236.567 43.466a31.226 31.226 0 0 0 -10.907-2.233c-.532-.014-1.068 0-1.6.011-2.41.055-10.657.029-17.59-2.5 6.871 8.08 17.334 8.409 17.334 8.409a51.337 51.337 0 0 1 12.152-.918 1.443 1.443 0 0 0 .611-2.769z"/><path d="m305.677 45.678a.847.847 0 0 0 -.5 1.551 27.127 27.127 0 0 1 5.62 4.9c13.3-.868 17.582-8.463 18.839-14.666-6.485 7.747-18.059 8.43-23.959 8.215z"/><path d="m58.107 161.448a1.293 1.293 0 0 1 2.445.644 12 12 0 0 0 5.789 11.426 10.872 10.872 0 0 0 12.473-.095 1.038 1.038 0 0 1 1.435 1.457 15.179 15.179 0 0 1 -6.859 5.52 12.443 12.443 0 0 1 -17.157-12.533 17.6 17.6 0 0 1 1.874-6.419z"/><path d="m65.262 177.045a1.292 1.292 0 0 1 2.444.645 12 12 0 0 0 5.79 11.425 10.873 10.873 0 0 0 12.472-.094 1.038 1.038 0 0 1 1.435 1.456 15.176 15.176 0 0 1 -6.858 5.523 12.443 12.443 0 0 1 -17.157-12.533 17.565 17.565 0 0 1 1.874-6.422z"/><path d="m84.4 179.145a1.292 1.292 0 0 1 2.444.644 12 12 0 0 0 5.79 11.426 10.876 10.876 0 0 0 12.473-.095 1.038 1.038 0 0 1 1.434 1.456 15.158 15.158 0 0 1 -6.858 5.522 12.443 12.443 0 0 1 -17.157-12.533 17.585 17.585 0 0 1 1.874-6.42z"/><path d="m168.429 119.782a1.423 1.423 0 0 1 2.691.709c-.2 4.113.907 9.186 6.373 12.576a11.97 11.97 0 0 0 13.728-.1 1.142 1.142 0 0 1 1.579 1.6 16.692 16.692 0 0 1 -7.549 6.078 13.7 13.7 0 0 1 -18.884-13.794 19.345 19.345 0 0 1 2.062-7.069z"/><path d="m176.3 136.949a1.423 1.423 0 0 1 2.691.709c-.2 4.114.907 9.187 6.372 12.576a11.968 11.968 0 0 0 13.728-.1 1.143 1.143 0 0 1 1.58 1.6 16.7 16.7 0 0 1 -7.549 6.078 13.7 13.7 0 0 1 -18.884-13.8 19.351 19.351 0 0 1 2.062-7.063z"/><path d="m89.111 100.777a1.432 1.432 0 0 1 2.708.714c-.2 4.14.913 9.246 6.414 12.657a12.043 12.043 0 0 0 13.816-.1 1.15 1.15 0 0 1 1.589 1.613 16.8 16.8 0 0 1 -7.6 6.117 13.784 13.784 0 0 1 -19.003-13.888 19.492 19.492 0 0 1 2.076-7.113z"/><path d="m97.036 118.055a1.432 1.432 0 0 1 2.708.714c-.2 4.14.913 9.246 6.414 12.657a12.045 12.045 0 0 0 13.817-.1 1.15 1.15 0 0 1 1.589 1.613 16.8 16.8 0 0 1 -7.6 6.117 13.783 13.783 0 0 1 -19.006-13.883 19.474 19.474 0 0 1 2.078-7.118z"/><path d="m197.37 139.26a1.423 1.423 0 0 1 2.691.709c-.2 4.113.907 9.187 6.372 12.576a11.968 11.968 0 0 0 13.728-.1 1.143 1.143 0 0 1 1.58 1.6 16.7 16.7 0 0 1 -7.549 6.078 13.7 13.7 0 0 1 -18.884-13.8 19.351 19.351 0 0 1 2.062-7.063z"/></g><path d="m286.88 108.522a4 4 0 0 0 -5.556 1.061c-.155.228-.314.446-.475.653a4.246 4.246 0 0 1 -3.01 1.624 4.4 4.4 0 0 1 -3.368-1.109 12.346 12.346 0 0 1 -1.334-1.369 4 4 0 0 0 -6.342 4.877 19.162 19.162 0 0 0 2.337 2.451 12.417 12.417 0 0 0 4.171 2.45v2.24a4 4 0 0 0 8 0v-2.147a12.265 12.265 0 0 0 5.863-4.1q.4-.508.776-1.066a4 4 0 0 0 -1.062-5.565z" fill="#222833"/><path d="m267.03 96.335a4.012 4.012 0 0 0 4-4 4.234 4.234 0 0 0 -.08-.79 3.956 3.956 0 0 0 -.23-.74 4.1 4.1 0 0 0 -.36-.69 4.279 4.279 0 0 0 -.5-.61 4.161 4.161 0 0 0 -.61-.5 4.579 4.579 0 0 0 -.69-.37 4.659 4.659 0 0 0 -.75-.23 4.093 4.093 0 0 0 -1.56 0 4.659 4.659 0 0 0 -.75.23 4.579 4.579 0 0 0 -.69.37 4.161 4.161 0 0 0 -.61.5 4.279 4.279 0 0 0 -.5.61 4.1 4.1 0 0 0 -.36.69 3.956 3.956 0 0 0 -.23.74 4.234 4.234 0 0 0 -.08.79 4.023 4.023 0 0 0 1.17 2.82 3.605 3.605 0 0 0 .61.5 4.033 4.033 0 0 0 1.44.6 4.129 4.129 0 0 0 .78.08z" fill="#222833"/><path d="m283.47 95.655a4.033 4.033 0 0 0 1.44.6 4.129 4.129 0 0 0 .78.08 4 4 0 1 0 -.78-7.93 4.659 4.659 0 0 0 -.75.23 4.579 4.579 0 0 0 -.69.37 4.161 4.161 0 0 0 -.61.5 4.008 4.008 0 0 0 0 5.66 4.093 4.093 0 0 0 .61.49z" fill="#222833"/></svg>