<svg id="icon" height="512" viewBox="0 0 340 340" width="512" xmlns="http://www.w3.org/2000/svg"><path d="m120.009 117.464s28.3 45.2 26.663 106.713l-35.8-97.986z" fill="#274f89"/><path d="m238.883 51.514s-4-23.336 11.563-25.228c11.6-1.411 17.708 9.145 20.063 14.6a14.84 14.84 0 0 1 .921 9.481c-1.1 4.353-6.014 9.407-16.3 9.762z" fill="#ce6046"/><path d="m250 34.709a14.345 14.345 0 0 1 7.8-7.626 16.206 16.206 0 0 0 -7.356-.8c-15.882 1.683-11.573 25.17-11.57 25.185s8.889 4.756 8.889 4.756l7.362 3.907c7.126-.246 11.672-2.746 14.16-5.706a26.009 26.009 0 0 1 -16.23-6.23 11.34 11.34 0 0 1 -3.055-13.486z" fill="#a54532"/><path d="m193.9 78.031a110.07 110.07 0 0 0 2.69 21.756 21.963 21.963 0 0 1 .64 6.841c-.217 3.239-.826 7.733-2.483 11.126a2.573 2.573 0 0 0 .32 2.826 163.193 163.193 0 0 1 13.292 17.583 7.794 7.794 0 0 0 9.321 3.178l21.268-7.91a155.1 155.1 0 0 1 1.669 32.834l23.113-17.832-2.481-40.448-4.77-25.375z" fill="#ffe1d2"/><path d="m215.76 138.051a5.363 5.363 0 0 1 -3.1-2.154l-11.916-16.769a4.088 4.088 0 0 1 -.577-3.532 46.853 46.853 0 0 0 1.661-8.888 25.861 25.861 0 0 0 -.7-8.771c-.226-.882-.413-1.725-.581-2.546a36.286 36.286 0 0 0 25.281 2.314l-18.1-18.662-7.1-.52-2.171-.159-2.621-.192-1.938-.141a119.641 119.641 0 0 0 1.23 14.3v.019c.365 2.434.836 4.96 1.446 7.39a21.933 21.933 0 0 1 .661 6.748c-.209 3.249-.811 7.824-2.492 11.266a2.573 2.573 0 0 0 .32 2.826 163.193 163.193 0 0 1 13.292 17.583 7.794 7.794 0 0 0 9.321 3.178l8.15-3.031a34.68 34.68 0 0 1 -10.066-.259z" fill="#f7a392"/><path d="m258.628 56.708a20.49 20.49 0 0 1 -9.22-5.2c-4.278-4.126-12.65-9.259-27.344-8.228a36.963 36.963 0 0 0 -29.3 22.369 20.319 20.319 0 0 0 6.9 24.415 49.344 49.344 0 0 0 29.491 8.929 1.613 1.613 0 0 0 1.472-1.062c3.7-10.505 19.958-6.842 18.612 4.815a20.867 20.867 0 0 1 -.827 3.8 8.718 8.718 0 0 1 -.926 1.995 13.229 13.229 0 0 1 -5.46 5.174 1.312 1.312 0 0 0 -.735 1.693l2.053 5.077a6.619 6.619 0 0 0 5.623 4.127 62.463 62.463 0 0 0 12.189-.385 6.554 6.554 0 0 0 3.182-1.272c5.017-3.8 20.6-17.841 13.857-41.626-5.095-17.98-13.881-23.199-19.567-24.621z" fill="#d37c5e"/><path d="m258.628 56.708a20.49 20.49 0 0 1 -9.22-5.2c-4.278-4.126-12.65-9.259-27.344-8.228a36.963 36.963 0 0 0 -29.3 22.369 20.319 20.319 0 0 0 6.9 24.415 49.344 49.344 0 0 0 29.491 8.929 1.613 1.613 0 0 0 1.472-1.062c3.7-10.505 19.958-6.842 18.612 4.815a20.867 20.867 0 0 1 -.827 3.8 8.718 8.718 0 0 1 -.926 1.995 13.229 13.229 0 0 1 -5.46 5.174 1.312 1.312 0 0 0 -.735 1.693l2.053 5.077a6.619 6.619 0 0 0 5.623 4.127 62.463 62.463 0 0 0 12.189-.385 6.554 6.554 0 0 0 3.182-1.272c5.017-3.8 20.6-17.841 13.857-41.626-5.095-17.98-13.881-23.199-19.567-24.621z" fill="#ce6046"/><path d="m210.225 112.231c-.225 0-.452 0-.683-.006a2.4 2.4 0 0 1 .035-4.791h.036a8.455 8.455 0 0 0 2.753-.237 2.4 2.4 0 1 1 1.586 4.521 10.888 10.888 0 0 1 -3.727.513z" fill="#f7a392"/><path d="m245.3 159.583-.832-19.613a8.627 8.627 0 0 1 1.466-5.187l2.808-4.166a.56.56 0 0 0 -.672-.833l-9.134 3.651a153.508 153.508 0 0 1 1.835 29.232z" fill="#f7a392"/><path d="m193.9 61.891s-3.753 16.578-15.486 26.482a9.355 9.355 0 0 0 -3.4 7.129v5.979a7.7 7.7 0 0 1 -3.056 6.14l-17.454 13.2a7.821 7.821 0 0 1 -10.016-.487l-10.662-9.821-13.288 21.038-17.824-26.837 12.617-19.227.4-31.844z" fill="#ffd0b0"/><path d="m193.9 61.891-29.81-3.147-4.018 16.7s10.744 5.238 20.657 4.014a37.127 37.127 0 0 1 -5.707 6.322 9.561 9.561 0 0 0 -3.234 6.809l-.279 8.423a4.473 4.473 0 0 1 -1.757 3.41l-17.031 13.323a6.629 6.629 0 0 1 -6.045 1.11l-5.718-1.77 3.529 3.25a7.82 7.82 0 0 0 10.015.487l17.455-13.2a7.694 7.694 0 0 0 3.056-6.14v-5.982a9.292 9.292 0 0 1 3.362-7.1c9.571-8.055 13.845-20.555 15.105-24.934l-.117.047c.354-1.013.537-1.622.537-1.622z" fill="#ea8f8b"/><path d="m194.731 61.671s-15.618 23.614-46.053 11.129a10.553 10.553 0 0 0 -11.717 2.658l-.311.336a.383.383 0 0 1 -.664-.215l-.011-.094c-1.392-11.479-18.584-9.962-18.063 1.589q.031.694.119 1.438c.522 4.4 5.008 7.732 9.826 7.875a1.384 1.384 0 0 1 1.167 2.088 15.273 15.273 0 0 1 -10.2 7.244c-8.378 1.827-16.847-2.382-21.146-9.8-3.678-6.354-6.578-16.26-3.125-30.257a38.31 38.31 0 0 1 6.683-14.1c3.564-4.668 9.184-10.28 16.864-12.782a15.742 15.742 0 0 0 7.755-5.769c4.108-5.611 13.462-14.221 31.945-13.511a48.815 48.815 0 0 1 7.246 1.021c22.5 4.717 36.769 27.589 30.181 49.616q-.234.763-.496 1.534z" fill="#373d4c"/><path d="m163.81 91.2a2.216 2.216 0 0 1 -.614-.087 14.861 14.861 0 0 1 -3.483-1.606 2.222 2.222 0 0 1 2.4-3.743 10.519 10.519 0 0 0 2.312 1.076 2.223 2.223 0 0 1 -.612 4.36z" fill="#ea8f8b"/><path d="m133.823 110.51-7.487-6.9a.866.866 0 0 0 -1.422.865l1.751 6.427a3.9 3.9 0 0 1 -.605 3.311l-8.887 12.269 3.362 5.063 8.211-13z" fill="#ea8f8b"/><path d="m62.86 263.285c-5.334 20.5-7.146 43.2-6.79 67.258h73.662l3.682-37.1z" fill="#373d4c"/><path d="m213.857 205.727a627.828 627.828 0 0 1 -57.788 64.885l9.922 11.814 62.822-59.341z" fill="#f7a392"/><path d="m248.419 152.87c-.577.193-18.675 12.243-38.326 33.544a19.136 19.136 0 0 0 -2.17 23.357 27.946 27.946 0 0 0 3.14 3.946 23.24 23.24 0 0 1 5.52 9.6 33.139 33.139 0 0 1 .786 3.468 33.572 33.572 0 0 1 -2.411 18.9 285.054 285.054 0 0 0 -21.06 84.857h90.014s1.7-27.977-12.888-59.591c-8.813-19.1-12.542-40.244-9.614-61.072.321-2.282.719-4.588 1.206-6.9a246.92 246.92 0 0 0 4.265-46.394 3.781 3.781 0 0 0 -2.533-3.491l-5.178-1.824a8.252 8.252 0 0 0 -5.159-.109z" fill="#ffca58"/><path d="m75.963 113.588a89.058 89.058 0 0 1 19.018-9.712 12.9 12.9 0 0 1 15.228 5.289 238.664 238.664 0 0 1 19.136 38.6s4.627 11.314 8.359 31.155c6.251 33.24 11.362 86.692-1.975 123.776a2.117 2.117 0 0 1 -2.877 1.2l-69.239-32.041a10.363 10.363 0 0 1 -5.4-12.9 276.62 276.62 0 0 1 17.245-37.655z" fill="#4781c6"/><path d="m249.409 51.507c-4.279-4.126-12.651-9.259-27.345-8.228a36.96 36.96 0 0 0 -29.3 22.369 20.319 20.319 0 0 0 6.9 24.415 47.286 47.286 0 0 0 10.619 5.656c-4.9-6.093-6.259-14.285-6.259-14.285-1.4-14.512 6.71-22.938 6.71-22.938 10.709-12.676 29.488-9.206 39.79-5.987-.38-.322-.755-.654-1.115-1.002z" fill="#a54532"/><path d="m157.293 75.5s19.318 6.26 32.459-3.379a16.524 16.524 0 0 0 6-8.757 43.621 43.621 0 0 0 -1.452-27.887z" fill="#373d4c"/><path d="m210.093 186.414a19.136 19.136 0 0 0 -2.17 23.357 27.946 27.946 0 0 0 3.14 3.946 23.24 23.24 0 0 1 5.52 9.6 33.139 33.139 0 0 1 .786 3.468 31.481 31.481 0 0 1 .44 4.746l2.627-.538 5.392-19c-14.434-1.107-15.965-13.065-15.965-13.065-.514-6.336 2.678-13.236 6.493-19.058q-3.087 3.114-6.263 6.544z" fill="#f79043"/><path d="m217.62 235.491a34.887 34.887 0 0 1 -2.662 10.195 257.746 257.746 0 0 0 -8.971 24.442c-.014.043-.027.089-.041.132q-.409 1.305-.819 2.659c-.036.12-.072.239-.109.359q-.409 1.357-.818 2.762c-.027.094-.055.186-.082.28-.06.2-.119.4-.179.611l.007-.006a282.383 282.383 0 0 0 -10.046 53.618h14.359c1.368-26.8 5.035-45.876 7.983-57.44a29.323 29.323 0 0 1 8.18-13.963c10.672-10.189 17.916-18.469 17.916-18.469 13.6-17.884 19.615-55.607 19.615-55.607z" fill="#f79043"/><path d="m249.508 147.924c-3.656 3.207-8.13 9-10.283 19.048-.437 2.041-.984 4.048-1.556 6.055a315.906 315.906 0 0 1 -13.28 37.763 76.157 76.157 0 0 1 -15.31 22.707l-46.551 47.578 8.3 10.035s37.857-26.556 66.852-60.616a82.924 82.924 0 0 0 6.967-9.482c7.629-12.075 25.659-42.892 25.263-63.872 0 0-.234-6.74-5.684-10.437a12.118 12.118 0 0 0 -14.718 1.221z" fill="#ffe1d2"/><path d="m245.036 163.9a23.588 23.588 0 0 1 .657-2.579c3.149-9.659 8.746-14.371 12.48-16.541a12.639 12.639 0 0 0 -8.665 3.149c-3.656 3.207-8.13 9-10.283 19.048-.437 2.041-.984 4.048-1.556 6.055a316.046 316.046 0 0 1 -13.279 37.758 76.718 76.718 0 0 1 -4.891 9.343l.007-.007c16.494-15.594 24.121-49.376 25.53-56.226z" fill="#f7a392"/><path d="m174.955 268.373-12.427 12.7 8.3 10.035s4.975-3.493 12.68-9.549c-.433-6.816-6.429-11.673-8.553-13.186z" fill="#f7a392"/><path d="m138.108 295.587c.354-1.125.708-2.25 1.04-3.374.223-.757.431-1.512.644-2.269.274-.974.547-1.947.8-2.919.22-.832.428-1.662.635-2.492.221-.887.44-1.773.647-2.658s.408-1.77.6-2.654q.268-1.222.519-2.441c.192-.935.381-1.868.558-2.8.143-.747.275-1.492.408-2.237.175-.982.35-1.964.509-2.943.108-.666.205-1.33.305-2 .159-1.044.32-2.089.461-3.13.007-.057.017-.115.025-.172 5.988-44.6-4.153-85.809-15.824-115.5 5.328 22.021 13.153 65.718 3.844 105.443-24.779-20.788-56.479-47.234-57.748-47.741l-.073 15.6c-2.453 4.539-4.616 8.766-6.534 12.688l50.3 47.042a9.576 9.576 0 0 1 2.582 9.917c-.6 1.865-1.39 4.123-2.431 6.708l2.357 1.091 11.119 5.144a2.117 2.117 0 0 0 2.877-1.2v-.015q.942-2.622 1.793-5.238c.208-.616.392-1.237.587-1.85z" fill="#274f89"/><path d="m151.806 256.543 24.585 22.478a7.722 7.722 0 0 1 -.712 12 26.778 26.778 0 0 1 -15.262 5.19 14.926 14.926 0 0 1 -10.111-3.919l-20.574-18.785z" fill="#ffd0b0"/><path d="m150.306 292.293a14.924 14.924 0 0 0 10.111 3.919 26.055 26.055 0 0 0 13.528-4.053 24.116 24.116 0 0 1 -22.038-6.223l-5.283-5.1a6.467 6.467 0 0 1 -.2-9.1l10.217-10.763-4.837-4.422-22.075 16.964z" fill="#ef9e9e"/><path d="m79.033 111.728c3.715-1.889 13.485 6.065 16.428 15.274a22.124 22.124 0 0 1 .966 6.743v68.055l55.379 54.746-21.518 21.519-60.516-56.48a20.412 20.412 0 0 1 -6.454-13.953c-.855-17.959-1.278-58.232 8.762-88.032.734-2.182.892-4.79 6.953-7.872z" fill="#4781c6"/><path d="m91.867 207.034 53.748 43.389-49.188-48.623v-68.055a22.124 22.124 0 0 0 -.966-6.745 28.006 28.006 0 0 0 -10.009-13.447c2.98 3.62 5.97 10.463 5.331 23.248l-2.9 61.354a10.757 10.757 0 0 0 3.984 8.879z" fill="#274f89"/></svg>