<svg id="flat" height="512" viewBox="0 0 340 340" width="512" xmlns="http://www.w3.org/2000/svg"><path d="m148.528 292.672h92.194v36.885h-92.194z" fill="#7fa0e2"/><path d="m148.528 306.429a555.319 555.319 0 0 0 92.194 13.324v-27.081h-92.194z" fill="#395787"/><path d="m54.4 24.717c-16.493 28.734-26.084 154.272-27.794 178.429a1.356 1.356 0 0 0 2.348 1.013c15.359-16.109 25.441.459 25.441.459s10.082-16.568 25.442-.459a1.356 1.356 0 0 0 2.347-1.013c-1.71-24.157-11.301-149.695-27.784-178.429z" fill="#67bfbf"/><path d="m54.4 229.119a3 3 0 0 1 -3-3v-208.328a3 3 0 0 1 6 0v208.328a3 3 0 0 1 -3 3z" fill="#428e8a"/><path d="m47.976 268.914s20.13 5.618 38.074-8.27l-1.716-22.218-35.421 6.3z" fill="#ffcac0"/><path d="m84.334 238.426-35.421 6.3-.413 10.774 11.721 6.248a15.25 15.25 0 0 0 7.9-5.649s2.731 2.072 8.583 1.812c4.287-.19 7.305-4.5 8.616-6.793z" fill="#e5837c"/><rect fill="#4a4a60" height="69.282" rx="9.284" width="18.569" x="45.111" y="219.953"/><path d="m44.554 237.057 7.518.515c4.928.337 7.613 4.792 7.114 9.707l-.447 14.008-.034.329a8.742 8.742 0 0 1 -8.074 7.837l-7.872.562a8.744 8.744 0 0 1 -9.367-8.683 65.454 65.454 0 0 1 2.139-17.9 8.786 8.786 0 0 1 9.023-6.375z" fill="#ffcac0"/><path d="m53.063 243.99-3.344 9.371a5.821 5.821 0 0 0 3.767 7.591 14.2 14.2 0 0 0 5.253.335l1.478-14.556-.017-.031z" fill="#e5837c"/><path d="m78.092 232.557-15.678 2.529a11.414 11.414 0 0 0 -9.519 9.93l-.787 6.653a2.283 2.283 0 0 0 1.768 2.5c3.67.8 11.228 1.353 12.513-7.105 5.573 3.152 10.894 1.8 16.073-2.089z" fill="#ffcac0"/><path d="m71.925 267.979a44.192 44.192 0 0 0 14.126-7.335l-1.717-22.218-12.376 2.2c.87 7.167 1.61 17.924-.033 27.353z" fill="#e5837c"/><path d="m78.092 232.557-7.157 1.154a135.132 135.132 0 0 1 1.766 15.1c3.324-.01 6.57-1.438 9.761-3.834z" fill="#e5837c"/><path d="m251.085 228.615s-21.485 19.085 6.944 43.109a11.285 11.285 0 0 0 15.679-1.174 9.971 9.971 0 0 0 1.479-10.9 8.883 8.883 0 0 1 .024-8s-8.636-23.284-24.126-23.035z" fill="#ffcac0"/><path d="m275.187 259.647a8.883 8.883 0 0 1 .024-8 56.471 56.471 0 0 0 -7.29-13.007c-.7.475-1.38.912-2.035 1.3 0 0 5.636 22.134-15.823 23.673a56.118 56.118 0 0 0 7.966 8.117 11.285 11.285 0 0 0 15.679-1.174 9.971 9.971 0 0 0 1.479-10.909z" fill="#e5837c"/><path d="m146.41 116.6-10.977 6.922c-2.885 3.42-5.749 8.521-7.762 16.125-5.7 21.537-17.533 63.18-51.757 89.133a3.252 3.252 0 0 0 -1.059 3.867 128.279 128.279 0 0 1 6.887 21.05s29.789-3.608 57.129-55.681c0 0-4.953 66.77-3.876 94.555 0 0 54.492 15.508 118.031 6.031 0 0-2.369-108.124-5.169-134.617a317.789 317.789 0 0 1 28.506 30.942 8.055 8.055 0 0 1 -.858 10.853l-24.42 22.839s17.665 10.536 24.126 23.029a370.119 370.119 0 0 0 31.8-32.259 26.561 26.561 0 0 0 3.845-28.592c-9.922-20.965-30.165-54.2-57.769-66.477l-21.6-4.765s19.765-5.918 19.064-19.014a13.088 13.088 0 0 0 -9.258-11.58c-12.516-3.976-45.818-11.369-93.43 2.008 0 0-11.793 2.369-10.716 13.785.001-.004.217 8.181 9.263 11.846z" fill="#ffb655"/><path d="m179.381 155.7c-.08-9.251 2.549-19.544 9.923-25.847l-4.281-6.57s-13.634 8.284-13.634 32.251c0 0 .01 76.183 8.673 144.679q3.921.37 8.091.664c-4.772-40.926-8.547-118.897-8.772-145.177z" fill="#e87b31"/><path d="m189.305 16.093s-4.559-6.535-12.685-5.55c-10.32 1.257-26.756 8.126-26.756 30.523 0 0 .436 25.538 1.684 43.98a23.616 23.616 0 0 0 6.338 14.588c4.864 5.174 12.266 12.859 19.764 19.917h24.983s7.069-4.6 14.907-10.735a23.623 23.623 0 0 0 9.006-20.536c-.155-1.884-.3-3.9-.428-5.983a115.882 115.882 0 0 1 -.049-12.953c.804-15.557.838-67.987-36.764-53.251z" fill="#4a4a60"/><path d="m202.633 119.353-13.328 10.504-11.655-10.306v-13.147l14.903-1.094 10.08 7.249z" fill="#ffcac0"/><path d="m177.65 106.4c4.405 2.831 12.81 6.751 24.983 6.155v-19.024h-24.983z" fill="#e5837c"/><path d="m185.912 29.578s-7.323 21.7 25.225 31.734v17.9a22.784 22.784 0 0 1 -22.784 22.788 22.783 22.783 0 0 1 -22.783-22.787v-19.613a32.064 32.064 0 0 1 9.841-23.43 32.443 32.443 0 0 1 10.501-6.592z" fill="#ffcac0"/><g fill="#e87b31"><path d="m158.5 235.516h-22.524a37.917 37.917 0 0 0 -.932 24.172s27.053 1.95 26.75-20.95a3.288 3.288 0 0 0 -3.294-3.222z"/><path d="m211.1 235.516h29.448a2.755 2.755 0 0 1 2.749 2.86c-.2 5.856-2.28 18.67-16.746 18.67-14.294 0-17.478-12.512-18.185-18.459a2.749 2.749 0 0 1 2.734-3.071z"/><circle cx="193.836" cy="148.507" r="4.173"/><circle cx="194.934" cy="176.935" r="4.173"/><circle cx="194.934" cy="208.902" r="4.173"/><circle cx="196.485" cy="240.649" r="4.173"/><circle cx="198.799" cy="274.351" r="4.173"/></g><circle cx="179.379" cy="68.656" fill="#e5837c" r="4.173"/><circle cx="193.616" cy="68.656" fill="#e5837c" r="4.173"/><path d="m186.839 89.673a21.428 21.428 0 0 1 -5.364-.638 3 3 0 0 1 1.609-5.78c.144.037 6.777 1.742 11.813-2.054a3 3 0 0 1 3.611 4.791 19.2 19.2 0 0 1 -11.669 3.681z" fill="#e5837c"/><path d="m137.788 164.205a247.936 247.936 0 0 0 -8.841 36.63s-14.947 35.985-47.213 52.865a81.631 81.631 0 0 1 1.8 11.289 2.051 2.051 0 0 0 3.4 1.358c10.263-9.017 42.22-38.824 51.935-68.33.607-8.852 1.656-22.739 2.451-33.114a1.813 1.813 0 0 0 -3.532-.698z" fill="#e87b31"/><path d="m135.435 123.519c10.2-2.273 19.965.563 25.148 2.6a1.18 1.18 0 0 0 1.251-1.941c-5.457-5.515-15.424-7.579-15.424-7.579s-5.525.461-10.975 6.92z" fill="#e87b31"/><path d="m99.28 250.085c-.3-7.55-4.624-16.883-8.068-23.186a1.22 1.22 0 0 1 1.937-1.445c3.759 3.822 8.319 9.176 10.91 14.83z" fill="#e87b31"/><path d="m279.865 239.544c-2.411-5.739-7.28-10.916-10.922-14.235a1.308 1.308 0 0 1 1.4-2.169 32.468 32.468 0 0 1 11.953 9.321z" fill="#e87b31"/><path d="m212.679 129.285c8.878-2.4 24.939-5.9 40.41-4.963a52.8 52.8 0 0 0 -21.6-4.771s-10.84 1.692-19.869 7.239a1.369 1.369 0 0 0 1.059 2.495z" fill="#e87b31"/><path d="m307.015 219.385a26.57 26.57 0 0 0 4.877-26.036c-7.62 9.283-32.113 38.41-46.006 46.585a46.2 46.2 0 0 1 9.324 11.709 370.119 370.119 0 0 0 31.805-32.258z" fill="#e87b31"/><path d="m187.36 307.65h9.126v21.907h-9.126z" fill="#395787"/></svg>