<svg id="Flat" height="512" viewBox="0 0 340 340" width="512" xmlns="http://www.w3.org/2000/svg"><path d="m257.2 55.007-8.864-34.451a2.879 2.879 0 0 1 3.934-3.356l12.33 5.376a4.327 4.327 0 0 0 5.127-1.289l9.373-11.908a2.879 2.879 0 0 1 5.027.98l4.985 17.208a4.323 4.323 0 0 0 3.335 3.042l23 4.436a2.879 2.879 0 0 1 .958 5.282l-20.468 12.53a4.325 4.325 0 0 0 -1.967 4.614l2.788 12.712a2.879 2.879 0 0 1 -4.136 3.172z" fill="#ffb664"/><path d="m205.19 101.222s22.845-43.433 65.759-61.742a2.128 2.128 0 0 1 2.8 1.169l.041.1a13.313 13.313 0 0 1 -4.427 15.751c-13.049 9.726-35.2 29.524-44.371 57.245z" fill="#bc5e66"/><path d="m153.546 105.889 21.709-15.589a13.316 13.316 0 0 1 13.209-1.351c12.025 5.393 36.6 17.912 53.052 36.447a13.354 13.354 0 0 1 2.707 13.009l-8.79 26.937z" fill="#5b5b81"/><path d="m222.618 76.462c-1.641 1.925-3.166 3.8-4.579 5.61a39.193 39.193 0 0 0 12.8 17.953q1.417-2.712 2.967-5.3a33.938 33.938 0 0 1 -11.188-18.263z" fill="#75212c"/><path d="m242.889 81.777q1.906-2.367 3.86-4.57c-2.723-2.037-6.893-6.725-8.347-16.827q-2.7 2.379-5.2 4.794c2.121 9.086 6.377 14.026 9.687 16.603z" fill="#75212c"/><path d="m257.085 66.681q2.353-2.164 4.6-4.066c-2.491-1.628-6.619-5.618-7.253-14.356q-2.869 1.838-5.581 3.787c1.34 7.754 5.111 12.204 8.234 14.635z" fill="#75212c"/><path d="m218.133 105.393c-3.306 8.255-10.982 23.445-23.636 26.609-1.254.313-2.426.667-3.534 1.055l44.47 32.289 8.79-26.937a13.354 13.354 0 0 0 -2.707-13.009 125.591 125.591 0 0 0 -23.383-20.007z" fill="#333353"/><path d="m251.345 217.16a114.58 114.58 0 0 1 -222.945 37.21l160.811-139.1a114.552 114.552 0 0 1 62.134 101.89z" fill="#333353"/><path d="m22.224 217.159a114.392 114.392 0 0 0 6.183 37.209 107.1 107.1 0 0 0 160.8-139.093 114.6 114.6 0 0 0 -166.983 101.884z" fill="#5b5b81"/><path d="m120.218 155.809a14.251 14.251 0 0 0 -6.14-9.168c-3.3-2.15-6.967-5.758-6.083-10.884 1.544-8.957 10.81-7.722 14.208-3.4 0 0 8.589-10.028 16.649-3.316 0 0 7.117 5.613-1.242 14.051a12.81 12.81 0 0 0 -3.425 11.046c3.131 19.675 11.652 74.905 14.474 110.541a10.657 10.657 0 0 0 4.9 8.073c.57.37 1.161.785 1.753 1.247 10.991 8.591-1.666 25.554-12.885 17.262q-.835-.618-1.693-1.38a24.386 24.386 0 0 1 -5.843 3.85c-10.877 5.062-19.117-11.164-8.557-16.86a19.71 19.71 0 0 1 2.568-1.148 9.33 9.33 0 0 0 6.179-9.56c-1.741-19.335-6.781-70.13-14.863-110.354z" fill="#c9cbe2"/><path d="m83.6 193.828a15 15 0 0 1 -9.633-6.49c-2.253-3.48-6.04-7.351-11.439-6.436-9.433 1.6-8.16 11.357-3.618 14.946 0 0-10.582 9.012-3.539 17.517 0 0 5.887 7.508 14.794-1.267a13.489 13.489 0 0 1 11.638-3.572c20.7 3.355 78.816 12.488 116.32 15.565a11.214 11.214 0 0 1 8.484 5.183c.388.6.823 1.224 1.308 1.848 9.011 11.6 26.9-1.678 18.209-13.512q-.648-.882-1.448-1.786a25.7 25.7 0 0 0 4.071-6.139c5.36-11.436-11.695-20.157-17.723-9.059a20.92 20.92 0 0 0 -1.217 2.7 9.819 9.819 0 0 1 -10.082 6.476c-20.349-1.89-73.804-7.343-116.125-15.974z" fill="#c9cbe2"/><path d="m128.9 275.726a19.71 19.71 0 0 0 -2.568 1.148 9.626 9.626 0 0 0 -3.256 2.776 106.352 106.352 0 0 0 27.338-10 10.362 10.362 0 0 1 -1.758-4.969c-2.822-35.636-11.343-90.866-14.474-110.541a12.81 12.81 0 0 1 3.428-11.04c8.359-8.438 1.242-14.05 1.242-14.05-8.06-6.713-16.649 3.315-16.649 3.315-3.4-4.325-12.664-5.56-14.208 3.4-.884 5.126 2.784 8.734 6.083 10.884a14.251 14.251 0 0 1 6.14 9.168c8.086 40.224 13.122 91.019 14.864 110.357a9.33 9.33 0 0 1 -6.182 9.552z" fill="#fff"/><path d="m201.61 209.786a9.618 9.618 0 0 1 -1.883.016c-20.351-1.89-73.806-7.343-116.125-15.974a15 15 0 0 1 -9.633-6.49c-2.253-3.48-6.04-7.351-11.439-6.436-9.433 1.6-8.16 11.357-3.618 14.946 0 0-10.582 9.012-3.539 17.517 0 0 5.887 7.508 14.794-1.267a13.489 13.489 0 0 1 11.638-3.572c20.247 3.281 76.267 12.086 113.805 15.349a106.423 106.423 0 0 0 6-14.089z" fill="#fff"/><path d="m181.792 185.412a53.61 53.61 0 0 0 -40.284-28.212c-10.283-1.335-22.029.181-31.3 9.793a48.569 48.569 0 0 0 -10.6 23 30.549 30.549 0 0 1 -8.608 16.479l-7.31 7.186a10.585 10.585 0 0 0 .317 15.4 1.791 1.791 0 0 0 2.339.057l13.86-11.359a4.151 4.151 0 0 1 5.663.252 4 4 0 0 1 -.417 5.792l-12.696 10.4a1.792 1.792 0 0 0 -.066 2.715l3.465 3.137a1.791 1.791 0 0 0 2.409 0l12.487-11.36a4 4 0 0 1 5.384 5.918l-11.654 10.6a1.793 1.793 0 0 0 0 2.655l1.2 1.084a10.584 10.584 0 0 0 14.063.128l7.486-6.532a28.539 28.539 0 0 1 21.48-6.907l12.19 1.162a18.111 18.111 0 0 0 15.756-6.47c7.144-8.73 15.514-24.759 4.836-44.918z" fill="#fff"/><g fill="#5b5b81"><path d="m168.3 218.666a25.339 25.339 0 0 1 -8.761 7.78 11.617 11.617 0 0 1 -16.021-6.2 28.241 28.241 0 0 1 -1.162-18.132 11.556 11.556 0 0 1 15.524-7.514 33.734 33.734 0 0 1 7.454 4.246 14.259 14.259 0 0 1 2.966 19.82z"/><path d="m113.774 174.915a25.347 25.347 0 0 0 -3.518 11.176 11.618 11.618 0 0 0 12.209 12.087 28.247 28.247 0 0 0 17.023-6.352 11.557 11.557 0 0 0 .506-17.244 33.709 33.709 0 0 0 -6.922-5.067 14.262 14.262 0 0 0 -19.298 5.4z"/><path d="m117.04 214.652 2.58.16a1.508 1.508 0 0 1 1.414 1.467l.07 2.737a1.508 1.508 0 0 0 2.686.908 30.463 30.463 0 0 0 5.779-11.376 1.534 1.534 0 0 0 -1.6-1.885c-3.9.3-7.5 1.718-11.8 5.31a1.516 1.516 0 0 0 .871 2.679z"/></g></svg>