<svg id="flat" height="512" viewBox="0 0 340 340" width="512" xmlns="http://www.w3.org/2000/svg"><path d="m170.272 26.744s-53.289-36.824-84.425 37.422c0 0-46.7-.9-43.409 58.678 0 0-26.118 18.06-9.294 55.519a10.807 10.807 0 0 1 .064 8.719c-5.725 13.192-19.269 52.445 16.415 63.6 0 0-2.2 26.645 48 21.855 0 0 25.948 25.447 82.53 7.484 0 0 21.256 10.478 45.506-10.778 0 0 35.326 1.5 31.135-37.122 0 0 15.277-4.395 26.059-20.533a10.855 10.855 0 0 0 -2.487-14.65c-4.117-3.147-6.411-8.457 3.372-16.61 0 0 30.237-17.364 13.472-32.332a175.606 175.606 0 0 1 -20.2-21.543 7.289 7.289 0 0 1 3.718-11.525l.348-.1c5.977-1.794 5.753-10.377-.288-11.941a164.386 164.386 0 0 1 -25.862-8.8 9.268 9.268 0 0 1 -2.4-15.367l.252-.22a6.91 6.91 0 0 0 -2.788-11.93c-1.466-.374-3.052-.714-4.757-.994a19.294 19.294 0 0 1 -14.472-11.31c-5.782-13.157-21.181-33.285-60.489-27.522z" fill="#88a8a1"/><path d="m284.291 60.724s4.069 17.033 35.27 13.114c0 0-3.316-26.529-35.27-13.114z" fill="#557071"/><path d="m205.61 122.674s6.029 10.25 24.267 4.522a80.21 80.21 0 0 1 12.452-2.961s-13.356-27.035-36.719-1.561z" fill="#557071"/><path d="m274.849 248.06a19.785 19.785 0 0 0 18.492 10.84c13.654-.234 18.881-10.3 18.881-10.3s-15.604-13.8-37.373-.54z" fill="#557071"/><path d="m76.967 293.237s1.576 17.6 26.66 15.366c0-.003.131-22.458-26.66-15.366z" fill="#557071"/><circle cx="57.709" cy="296.027" fill="#557071" r="4.173"/><circle cx="293.536" cy="300.766" fill="#557071" r="4.173"/><circle cx="321.895" cy="143.324" fill="#557071" r="4.173"/><circle cx="249.913" cy="34.187" fill="#557071" r="4.173"/><path d="m117.576 136.57a41.694 41.694 0 0 1 -11.692-17.193 2.98 2.98 0 0 0 -.3-1.134c-.058-.12-.126-.234-.188-.352-4.49-14.865 1.661-27.829 2.038-28.6a3 3 0 0 0 -5.378-2.662 50.577 50.577 0 0 0 -3.988 24.208c-12.817-9.1-6.278-26.179-5.971-26.956a3 3 0 0 0 -5.572-2.226c-3.293 8.228-5.44 26.2 10.008 35.34a9.282 9.282 0 0 1 3.479 3.566 46.845 46.845 0 0 0 13.52 20.44c5.431 4.951 8.072 10.51 8.072 17a3 3 0 0 0 6 0c.003-8.154-3.372-15.365-10.028-21.431z" fill="#84335f"/><path d="m81.6 156.4c.076 0 .153 0 .23-.009a3 3 0 0 0 2.764-3.218c-.006-.082-.532-8.077 6.343-11.656a3 3 0 1 0 -2.772-5.322c-10.347 5.388-9.59 16.943-9.553 17.433a3 3 0 0 0 2.988 2.772z" fill="#84335f"/><path d="m105.619 149.15a3 3 0 0 0 -3.709 2.046c-.086.293-2.218 7.233-11.218 12.737a11.821 11.821 0 0 0 -5.306 11.911 25.844 25.844 0 0 0 -6.52-2.485c-3.942-.963-6.674-2.813-8.355-5.659-3.322-5.628-1.3-13.28-1.284-13.357a3 3 0 0 0 -5.785-1.593c-.114.409-2.723 10.115 1.878 17.959 2.508 4.274 6.587 7.127 12.122 8.478 6.433 1.571 8.819 4.649 10.55 7.41a3 3 0 1 0 5.084-3.187c-.364-.581-.759-1.169-1.188-1.757a2.992 2.992 0 0 0 .585-3.86 6.71 6.71 0 0 1 -1.1-5.19 5.865 5.865 0 0 1 2.451-3.551c11.124-6.8 13.755-15.84 13.861-16.222a2.991 2.991 0 0 0 -2.066-3.68z" fill="#84335f"/><path d="m100.919 245.726c-10.709-.382-18.9-3.735-24.355-9.969a28.359 28.359 0 0 1 -4.489-7.083c-2.59-11.946 9.461-19.537 9.98-19.857a3 3 0 0 0 -3.128-5.12 32.559 32.559 0 0 0 -10.137 10.47 34.684 34.684 0 0 1 .037-4.351 3 3 0 0 0 -5.97-.6c-.066.651-1.351 14.446 6.05 26.249-4.016-.744-7.092-2.166-9.043-4.221a8.186 8.186 0 0 1 -2.4-5.55 3 3 0 0 0 -5.987-.386 13.931 13.931 0 0 0 3.874 9.9c3.927 4.257 10.305 6.548 18.956 6.827 6.459 6.034 15.316 9.3 26.395 9.689h.109a3 3 0 0 0 .1-6z" fill="#84335f"/><path d="m226.665 208.368a3 3 0 0 0 -4.166.8c-.023.033-3.24 3.419-15.169 4.1a49.391 49.391 0 0 0 -12.347 2.3 73.587 73.587 0 0 1 14.6-11.892 3 3 0 1 0 -2.971-5.212c-.753.429-18.536 10.72-27.771 29.584-.425.867-.8 1.733-1.193 2.653-.79 1.832-7.7 14.905-10.626 19.468a2.981 2.981 0 0 0 3.344 4.5 2.986 2.986 0 0 0 1.82 1.526 85.763 85.763 0 0 0 22.081 3.072c10.307 0 21.9-2.306 29.29-10.9a3 3 0 1 0 -4.557-3.918c-13.073 15.211-44.8 6.084-45.12 5.99h-.02c3.366-5.8 8.456-15.418 9.327-17.439.335-.777.666-1.549 1.037-2.307.759-1.551 1.589-3.04 2.467-4.468a40.731 40.731 0 0 1 20.979-6.958c15.085-.865 19.134-5.758 19.792-6.729a3 3 0 0 0 -.797-4.17z" fill="#84335f"/><path d="m237.453 144.9a3 3 0 0 0 -3.965-1.508c-19.484 8.748-31.578 29.443-34.712 35.336-30.722 2.747-50.917 21.829-51.777 22.654a3 3 0 0 0 4.155 4.331c.2-.192 20.288-19.1 49.706-21.131 1.368-.057 20.927-.988 33.153-8.031a3 3 0 1 0 -2.994-5.2c-7.428 4.279-18.438 6.066-24.987 6.784 4.613-7.674 15.068-22.6 29.913-29.271a3 3 0 0 0 1.508-3.964z" fill="#84335f"/><path d="m156.075 142.868c.471.021 1.04.038 1.7.038 5.714 0 17.829-1.218 25.494-10.7a3 3 0 0 0 -4.666-3.772c-4.537 5.613-11.373 7.554-16.474 8.182a76.434 76.434 0 0 0 12.286-19.527c.006-.014.011-.028.018-.042.848-1.96 1.641-4.006 2.353-6.155 4.844-14.627 14.306-17.565 23.456-20.407l1.339-.417a3 3 0 0 0 -1.8-5.725l-1.321.413c-7.632 2.37-16.745 5.209-23.085 15.082-.01-.138-.015-.266-.026-.405a22.542 22.542 0 0 1 8.841-19.933 16.68 16.68 0 0 1 1.689-1.138 3 3 0 0 0 -2.879-5.262 21.881 21.881 0 0 0 -2.406 1.6 28.516 28.516 0 0 0 -11.222 25.192c.5 6.476.316 11.75-.511 14.915a69.839 69.839 0 0 1 -23.291 28.793 38.125 38.125 0 0 0 -17.609 30.349 3 3 0 0 0 2.991 3h.009a3 3 0 0 0 3-2.985 32.058 32.058 0 0 1 14.827-25.3 55.717 55.717 0 0 0 7.287-5.796z" fill="#84335f"/><path d="m128.607 131.936a3.076 3.076 0 0 0 .457-.034 3 3 0 0 0 2.513-3.419 113.333 113.333 0 0 1 -.122-35.778c5.3-12.615 19.694-22.008 24.835-24.577a3 3 0 0 0 -2.681-5.368 71.623 71.623 0 0 0 -17.763 13.265 89.578 89.578 0 0 1 14.647-25.587c.376-.464.7-.858.951-1.184a3 3 0 0 0 -4.733-3.69c-.234.3-.529.664-.877 1.092-18.336 22.584-25.128 50.42-20.189 82.733a3 3 0 0 0 2.962 2.547z" fill="#84335f"/><g fill="#3f516b"><path d="m324.443 219.264a511.814 511.814 0 0 1 -95.792-23.473 3 3 0 0 0 -1.989 5.66 517.956 517.956 0 0 0 96.917 23.749 3.075 3.075 0 0 0 .436.031 3 3 0 0 0 .428-5.969z"/><path d="m82.869 115.173-1.288-1.032a3 3 0 0 0 -3.761 4.676l1.306 1.046a3 3 0 0 0 3.743-4.69z"/><path d="m63.874 107.163a3 3 0 1 0 3.934-4.53c-30.584-26.564-46.27-47.292-46.425-47.5a3 3 0 0 0 -4.8 3.6c.647.867 16.178 21.407 47.291 48.43z"/><path d="m268.7 238.034a2.958 2.958 0 0 0 .55.052 3 3 0 0 0 .544-5.951c-8.885-1.649-17.871-3.685-26.707-6.052a3 3 0 1 0 -1.553 5.795c8.991 2.408 18.131 4.479 27.166 6.156z"/><path d="m35.623 95.138a3 3 0 0 0 -4.439 4.035 478.564 478.564 0 0 0 37.516 36.842 3 3 0 1 0 3.968-4.5 473.018 473.018 0 0 1 -37.045-36.377z"/><path d="m17.17 77.83a3 3 0 0 0 -.576 4.2s.7.921 2.074 2.625a3 3 0 1 0 4.67-3.768c-1.287-1.594-1.949-2.465-1.966-2.486a3 3 0 0 0 -4.202-.571z"/><path d="m64.679 191.07c-22.44-14.545-43.187-39.2-43.394-39.444a3 3 0 0 0 -4.6 3.849c.867 1.037 21.519 25.583 44.732 40.63a3 3 0 1 0 3.264-5.035z"/><path d="m307.972 326.518q-1.395-.1-2.787-.218a3 3 0 0 0 -.5 5.979q1.425.119 2.849.224c.075 0 .148.007.221.007a3 3 0 0 0 .215-5.992z"/><path d="m283.432 323.673c-24.99-3.928-51.434-11.174-78.594-21.538a3 3 0 1 0 -2.138 5.606c27.549 10.512 54.4 17.867 79.8 21.86a3 3 0 1 0 .932-5.928z"/><path d="m37.994 205.9c-12.678-9.834-19.953-16.215-20.024-16.278a3 3 0 0 0 -3.963 4.5c.073.065 7.469 6.554 20.309 16.513a3 3 0 1 0 3.678-4.74z"/><path d="m124.107 35.753a148.865 148.865 0 0 1 -31.497-27.178 3 3 0 0 0 -4.619 3.825 152.094 152.094 0 0 0 32.928 28.431 3 3 0 0 0 3.188-5.082z"/><path d="m208.574 73.071q1.2.644 2.411 1.261a3 3 0 0 0 2.736-5.34q-1.163-.6-2.327-1.216a3 3 0 1 0 -2.82 5.3z"/><path d="m194.679 57.868c-32.166-20.843-61.329-49.239-61.62-49.523a3 3 0 1 0 -4.195 4.289c.295.289 29.87 29.092 62.551 50.269a3 3 0 1 0 3.264-5.035z"/></g><path d="m127.04 110.036c-3.167 15.181-9.649 52.316-5.173 84.36 0 0-6.752-7.917-22.25-12.824-8.592-2.721-13.109-10.818-15.336-16.783a1.385 1.385 0 0 0 -2.683.444c-.185 9.222 2.229 24.671 19.1 31.295 24.827 9.748 23.3 53 23.3 53s-20.025-2.555-33.971-18.757a1.383 1.383 0 0 0 -2.376 1.312 53.569 53.569 0 0 0 28.484 32.017 15.858 15.858 0 0 1 8.8 11.586c1.916 10.7 4.135 29.213.283 44.215a19.018 19.018 0 0 1 -8.224 9.613h45.279s-8.513-11.07-9.548-28.434a44.037 44.037 0 0 1 11.622-32.158c2.064-2.266 4.5-4.727 7.356-7.3 10.545-9.5 25.277-10.886 32.725-25.8a1.389 1.389 0 0 0 -1.565-1.987 214.621 214.621 0 0 0 -30.182 10.254 63.06 63.06 0 0 0 -13.918 8.108c-4.288 3.3-9.451 7.8-12.831 12.566 0 0-4.076-23.02-1.8-45.02a14.325 14.325 0 0 1 7.25-11.064c9.035-5.015 26.046-17.362 24.91-43.424a1.388 1.388 0 0 0 -2.587-.636c-4.056 7.07-13.509 21.351-26.423 27.063a7.955 7.955 0 0 1 -11.089-7.06c-.39-11.359-.173-34.815-6.421-74.5a1.387 1.387 0 0 0 -2.732-.086z" fill="#aa476a"/></svg>