<svg id="Flat" height="512" viewBox="0 0 340 340" width="512" xmlns="http://www.w3.org/2000/svg"><path d="m323.751 307.984c-52.135-20.254-155.12-85.227-226.271-192.967l-16.18 11.934s34.347 87.876 108.239 144.669c52.245 40.155 112.085 41.086 133.666 39.891a1.825 1.825 0 0 0 .546-3.527z" fill="#d2e8ff"/><path d="m16.249 307.984c52.135-20.254 155.12-85.227 226.271-192.967l16.18 11.934s-34.344 87.876-108.236 144.669c-52.245 40.155-112.085 41.086-133.664 39.891a1.825 1.825 0 0 1 -.551-3.527z" fill="#d2e8ff"/><path d="m251.982 122c-19.408 36.028-83.088 138.57-201.621 188.529 27.907-3 65.655-12.428 100.1-38.9 73.895-56.802 108.239-144.678 108.239-144.678z" fill="#96aef4"/><path d="m87.982 122.021-6.685 4.93s34.347 87.876 108.239 144.669c34.421 26.455 72.136 35.884 100.037 38.9-118.494-49.953-182.166-152.449-201.591-188.499z" fill="#96aef4"/><path d="m238.152 211.863c-1.886-28.286-16.576-57.073-47.72-66.034l-1.353 4.2a12.078 12.078 0 0 0 2.583 11.854l1.458 1.595.076.083c3.863 6.121 2.243 9.35-2.409 16.282 0 0-5.8 7.555-9.611 11.025l1.381-11.324a7 7 0 0 0 -5.014-7.57 12.078 12.078 0 0 1 -8.692-10.718l-1.342-18.241c-44.564.888-64.891 35.224-67.132 68.846-1.582 23.732 14.838 36.993 24.946 42.855a16.527 16.527 0 0 1 8.155 13.384l.921 17.341a10.488 10.488 0 0 0 8.357 9.674c1.979.409 4.044.755 6.112 1.049v-8.1a6.727 6.727 0 0 1 6.343-6.816 6.545 6.545 0 0 1 6.745 6.542v6.2a3.674 3.674 0 0 0 3.674 3.673h7.27a3.684 3.684 0 0 0 3.673-3.673v-5.929a6.727 6.727 0 0 1 6.344-6.816 6.545 6.545 0 0 1 6.745 6.542v8.376c2.068-.294 4.134-.64 6.112-1.049a10.488 10.488 0 0 0 8.357-9.674l.921-17.341a16.527 16.527 0 0 1 8.155-13.384c10.107-5.859 26.527-19.115 24.945-42.852z" fill="#8d8db2"/><path d="m219.24 219.5a36.888 36.888 0 0 1 -2.92 16.8c-4.044 9.076-15.233 12.4-23.864 7.471a41.111 41.111 0 0 1 -17.767-19.59 16.82 16.82 0 0 1 10.867-22.636 49.029 49.029 0 0 1 12.337-1.927 20.758 20.758 0 0 1 21.347 19.882z" fill="#333353"/><path d="m119.51 225.373a36.879 36.879 0 0 0 6.285 15.854c5.81 8.061 17.441 9.028 24.886 2.447a41.114 41.114 0 0 0 13.4-22.8 16.821 16.821 0 0 0 -15.256-19.944 49.063 49.063 0 0 0 -12.471.63 20.757 20.757 0 0 0 -16.844 23.813z" fill="#333353"/><path d="m166.1 263.5 2.736-2.583a2.2 2.2 0 0 1 2.966-.045l2.979 2.648a2.194 2.194 0 0 0 3.635-1.952 44.347 44.347 0 0 0 -6.342-17.455 2.233 2.233 0 0 0 -3.592-.177c-3.564 4.443-5.635 9.682-6.089 17.819a2.207 2.207 0 0 0 3.707 1.745z" fill="#333353"/><path d="m109.837 132.865q-6.314-8.723-12.357-17.848l-16.18 11.934s5.762 14.742 17.639 36.049z" fill="#96aef4"/><path d="m241.57 162.083a324.653 324.653 0 0 0 17.13-35.132l-16.18-11.934q-5.765 8.728-11.8 17.074z" fill="#96aef4"/><path d="m90.719 103.976-39.774-60.535-15.269 12.284 36.487 64.029s7.215-2.704 18.556-15.778z" fill="#e54c5b"/><path d="m65.65 88.751c-5.785-8.922-15.055-23.565-23.415-38.3l-6.559 5.276 36.487 64.029s7.215-2.7 18.556-15.778l-9.81-14.931-1.809 1.58a8.98 8.98 0 0 1 -13.45-1.876z" fill="#a02a39"/><path d="m48.757 39.816-13.857 12.87-6.2-11.359a8.777 8.777 0 0 1 2.857-11.52 8.776 8.776 0 0 1 12.153 2.445z" fill="#e54c5b"/><path d="m249.281 103.976 39.774-60.535 15.269 12.284-36.487 64.029s-7.215-2.704-18.556-15.778z" fill="#e54c5b"/><path d="m304.324 55.725-7.324-5.89c-8.453 14.949-17.905 29.883-23.769 38.927a8.975 8.975 0 0 1 -13.444 1.865l-1.1-.966-9.4 14.315c11.341 13.074 18.556 15.778 18.556 15.778z" fill="#a02a39"/><path d="m291.243 39.816 13.857 12.87 6.2-11.359a8.777 8.777 0 0 0 -2.857-11.52 8.776 8.776 0 0 0 -12.148 2.445z" fill="#e54c5b"/><g fill="#a02a39"><path d="m68.505 70.166c-1.765 2.626-8.036 10.822-17.956 11.658l3.2 5.618c9.1-1.729 15.246-8 18.283-11.906z"/><path d="m58.746 55.314c-2.462 2.868-8.525 8.9-17.16 10.782l3.082 5.409a39.28 39.28 0 0 0 17.484-11.005z"/><path d="m271.453 70.231-3.509 5.341c3.094 3.9 9.284 10.166 18.176 12.1l3.163-5.55c-9.528-1.142-15.905-9.144-17.83-11.891z"/><path d="m281.049 55.625-3.377 5.14c3.24 3.24 9.478 8.479 17.647 10.763l3.087-5.417c-8.444-1.823-14.914-7.888-17.357-10.486z"/><path d="m31.383 29.938a8.772 8.772 0 0 0 -2.678 11.389l6.2 11.359 5.641-5.24c-3.357-6.012-6.51-11.976-9.163-17.508z"/><path d="m305.1 52.686 6.2-11.359a8.777 8.777 0 0 0 -2.857-11.52c-.221-.147-.448-.277-.678-.4-2.606 5.474-5.715 11.385-9.036 17.361z"/></g><path d="m60.051 139.472a13.21 13.21 0 0 1 4.772-18.236c9.66-5.57 22.792-15.194 30.491-29.419 6.915-12.778 6.19-28.5-2.555-40.108q-.18-.24-.366-.48a25.967 25.967 0 0 0 -27.331-9.083c-9.271 2.524-21.632 8.082-33.42 20.254a1.235 1.235 0 0 1 -2.049-1.287 56.5 56.5 0 0 1 12.782-19.936c23.949-23.717 63.985-13.4 74.01 18.783a51.055 51.055 0 0 1 1.95 9.212 53.821 53.821 0 0 1 -5.694 30.363c-6.341 12.64-19.641 31.047-46.084 42.112a5.247 5.247 0 0 1 -6.506-2.175z" fill="#ffb664"/><path d="m279.949 139.472a13.21 13.21 0 0 0 -4.772-18.236c-9.66-5.57-22.792-15.194-30.491-29.419-6.915-12.778-6.19-28.5 2.555-40.108q.18-.24.366-.48a25.967 25.967 0 0 1 27.331-9.083c9.271 2.524 21.632 8.082 33.42 20.255a1.235 1.235 0 0 0 2.049-1.287 56.5 56.5 0 0 0 -12.782-19.937c-23.949-23.717-63.985-13.4-74.01 18.783a51.055 51.055 0 0 0 -1.95 9.212 53.821 53.821 0 0 0 5.694 30.363c6.341 12.64 19.638 31.047 46.084 42.112a5.247 5.247 0 0 0 6.506-2.175z" fill="#ffb664"/><path d="m112.641 99.535a53.821 53.821 0 0 0 5.694-30.363c-.084-.707-.186-1.4-.295-2.086-2.728 18.148-11.388 39.392-36.668 42.16a95.751 95.751 0 0 1 -16.549 11.99 13.21 13.21 0 0 0 -4.772 18.236 5.247 5.247 0 0 0 6.506 2.175c26.443-11.065 39.743-29.472 46.084-42.112z" fill="#e87b40"/><path d="m279.949 139.472a13.21 13.21 0 0 0 -4.772-18.236 95.591 95.591 0 0 1 -16.684-12.115c-25.732-3.362-33.8-26.23-36.052-44.659-.322 1.518-.584 3.087-.776 4.71a53.821 53.821 0 0 0 5.694 30.363c6.341 12.64 19.638 31.047 46.084 42.112a5.247 5.247 0 0 0 6.506-2.175z" fill="#e87b40"/></svg>