<svg id="flat" height="512" viewBox="0 0 340 340" width="512" xmlns="http://www.w3.org/2000/svg"><path d="m287.181 247.1s-14.492 41.783 7.245 65.21a16.9 16.9 0 0 1 3.06 3.8 5.849 5.849 0 0 1 -5.036 8.83h-21.934l-10.423-49.34s3.177-17.877 27.088-28.5z" fill="#63605e"/><path d="m165.991 295a37.39 37.39 0 0 1 13.4 22.392 9.143 9.143 0 0 0 9 7.546h10.35a5.686 5.686 0 0 0 4.606-9.051 12.631 12.631 0 0 0 -2.547-2.487 12.976 12.976 0 0 1 -4.235-5.638c-2.138-5.4-4.881-15.429-1.827-26.554l-20.546-1.877z" fill="#63605e"/><path d="m286.685 38.142-4.256-4.9a14.089 14.089 0 0 1 -3.387-8.056c-.007-.082-.014-.165-.022-.249-1.5-15.836-22.109-21.175-31.318-8.2q-.133.188-.265.38a25.658 25.658 0 0 0 -4.251 12.9c-.237 3.79-1.057 9.858-3.771 14.53l2.5 3.769z" fill="#63605e"/><path d="m271.669 55.915a37.745 37.745 0 0 1 4.757 4.875s20.454 19.869 18.137 53.8c-1.384 20.266-8.685 40.506-23.353 54.559a59.532 59.532 0 0 1 -11.826 9.074s-75.042-4.54-127.652 57.417c0 0-32.826 34.006-62.491 41.126-10.014 2.4-17.588 2.479-23.143 1.634a14.878 14.878 0 0 1 -4.11-1.246c-9.494-5.202-15.988-16.228-19.988-32.06-6.5 5.816-12.017 15.145-10.442 29.806 0 0 2.937 39.257 61.422 29.1q4.017-.7 7.8-1.417c25.326-6.22 48.862-14.961 67.288-21.977 0 0 25.213-1.555 38.833 1.382s43.273 6.841 56.626-8.915l19.091-3.636 4.221-2.56c31.474-24.214 32.463-50.953 32.463-50.953a60.705 60.705 0 0 0 -.486-6.087c17.584-26.837 26.452-59.572 28.551-96.911-2.94-19.222-11.013-40.493-27.312-63.04a84.376 84.376 0 0 0 -24.115-22.534q-.663-.408-1.335-.8c-1.1-.645-2.319-1.041-3.433-1.657-2.175-1.2-6.457-2.884-10.835-.758a11.794 11.794 0 0 0 -6.289 6.557l-.033.085a13.829 13.829 0 0 1 -4.456 5.961l-11.53 8.881a7.413 7.413 0 0 0 -1.874 9.617l.01.015a7.329 7.329 0 0 0 8.3 3.386l.167-.047a27.036 27.036 0 0 1 12.16-.5c3.867.708 9.908 1.034 14.877-2.177z" fill="#9b9b91"/><path d="m298.82 209.833s37.4-39.278 28.533-96.993c-3.229 15.9-12.888 37.965-40.756 51.556 12.745 19.197 12.223 45.437 12.223 45.437z" fill="#63605e"/><path d="m249.666 249.6c-1.088-4.228-2.179-8.433-3.327-12.255a3.579 3.579 0 0 0 -6.888.091 42.7 42.7 0 0 1 -5.883 12.041c-7.807 11.91-3.043 16.986-3.043 16.986-4.451 3.558-4.183 7.352-4.183 7.352-9.36 6.459-31.818 1.775-31.818 1.775s4.057-8.873-2.408-20.916a61.453 61.453 0 0 1 -6.422-17.719 1.108 1.108 0 0 0 -2.153-.1 15.032 15.032 0 0 0 -.37 5.856s-11.223 29.5-14.263 38.159a109.251 109.251 0 0 1 18.24 2.574c13.619 2.938 42.854 6.251 56.206-9.5l3.141.806z" fill="#63605e"/><path d="m237.147 254.042s-5.8 13.135-28.04 14.475-25.726-15.275-25.726-15.275l-19.415 7.1s-25.252 7.173-46.088 24.362c-16.4 13.532-36.417 17.649-37.095 17.869 46.423-8.813 66.372-21.978 66.372-21.978s25.836-.73 39.455 2.208 42.677 7.559 56.029-8.2l2.663.345z" fill="#fce2cb"/><path d="m80.783 302.574c45.053-6.742 67.24-19.663 67.24-19.663s3.76-.189 9.144-.244v-21.267c-8.788 3.132-25.535 10.128-40.085 22.131-16.404 13.528-35.621 18.823-36.299 19.043z" fill="#e2a083"/><path d="m237.147 254.042s-1.977 4.46-8.022 8.448a6.875 6.875 0 0 0 1.4 3.97c-4.451 3.558-4.183 7.352-4.183 7.352-5.873 4.052-16.9 3.718-24.305 2.907a7.011 7.011 0 0 1 -6.285-7.244 24.678 24.678 0 0 0 -.026-2.771 20.191 20.191 0 0 1 -12.345-13.462l-4.736 1.453c-3.706 9.843-8.619 22.962-10.421 28.091a108.533 108.533 0 0 1 17.9 1.822c13.62 2.938 44.064 6.41 57.417-9.346l1.762-.31z" fill="#e2a083"/><path d="m284.013 229.506a49.3 49.3 0 0 0 -2.139-9.528 3.835 3.835 0 0 0 -7.466 1.149c-.311 17.8-6.889 38.918-10.122 48.27l3.545-.075c9.887-5.963 32.451-22.958 31.481-53.4a49.8 49.8 0 0 1 -6.937 15.581 4.578 4.578 0 0 1 -8.362-1.997z" fill="#63605e"/><path d="m276.42 60.783v.009c6.557 7.793 17.564 25.223 17.423 54.379a79.138 79.138 0 0 1 -.8 10.76v.02a200.91 200.91 0 0 1 -6.443 38.449c8.183.155 14.713-5.206 20.246-13.9.819-65.931-30.426-89.717-30.426-89.717z" fill="#fce2cb"/><path d="m147.365 257.478.6 12a47.519 47.519 0 0 1 -4.673 22.759c-2.7 5.683-5.458 14.676-5.779 27.983a10.011 10.011 0 0 0 10.016 10.334h11.859a7.176 7.176 0 0 0 7.136-8.274 12.4 12.4 0 0 0 -1.751-4.679 13.025 13.025 0 0 1 -2.051-9.387 40.248 40.248 0 0 1 13.589-23.543 23.936 23.936 0 0 0 8.44-16.649 100.3 100.3 0 0 0 -1.585-25.309s-23.266 3.799-35.801 14.765z" fill="#9b9b91"/><path d="m235.915 220.1s11.435 12.94 1.232 33.94c0 0-4.216 8.139-.9 14.557-4.2 2.461-7.488 8.169-.9 18.736.914 1.467 1.762 2.979 2.553 4.516l2.527 4.9a28.11 28.11 0 0 1 2.969 9.93c.308 2.936.621 6.291.621 7.829v7.5a8.538 8.538 0 0 0 8.538 8.537h15.566a6.348 6.348 0 0 0 5.673-9.287 14.923 14.923 0 0 0 -1.177-1.818 16.437 16.437 0 0 1 -3.3-9.441 43.924 43.924 0 0 0 -2.7-13.966 28.235 28.235 0 0 1 -1.763-11.891c.465-6.548 2.507-16.661 9.176-29.744 6.882-13.5 7.073-25.231 5.883-32.995a33.861 33.861 0 0 0 -7.886-17.105 20.614 20.614 0 0 0 -4.428-3.97z" fill="#9b9b91"/><g fill="#63605e"><path d="m263.053 40.063a3.464 3.464 0 0 1 -1.942-6.335l1.28-.864a3.464 3.464 0 1 1 3.878 5.741l-1.28.865a3.453 3.453 0 0 1 -1.936.593z"/><path d="m275.475 59.694c5.613-6.835 3.953-12.417 1.732-15.784a1.006 1.006 0 0 0 -1.832.738 12.567 12.567 0 0 1 -3.706 11.267 35.035 35.035 0 0 1 3.806 3.779z"/><path d="m245.846 263.153c-5.13 4.531-9.18-.438-10.665-2.746a13.428 13.428 0 0 0 1.066 8.192s6.025 4.344 11.019-1.114a20.572 20.572 0 0 1 8.768-5.569.979.979 0 0 0 -.22-1.9 12.438 12.438 0 0 0 -9.968 3.137z"/><path d="m41.99 277.154c-6.355-4.545-10.532-11.978-6.788-19.475a20.992 20.992 0 0 1 9.737-9.485c10.145-5.072 18.916-.98 23.76 2.448a1.694 1.694 0 0 0 2.532-2.035c-2.773-6.749-10.58-16.832-32.167-12.43a41.069 41.069 0 0 0 -17.064 8.923c-2.921 22.929 19.99 32.054 19.99 32.054z"/></g><path d="m306.842 150.5a79.447 79.447 0 0 1 -20.242 13.9c-1.228 4.662-2.453 8.754-3.511 12.051a12.383 12.383 0 0 0 3.991 13.309 34.8 34.8 0 0 1 11.744 20.076c5.491-22.76 7.808-42.436 8.018-59.336z" fill="#e2a083"/></svg>