<svg id="Flat" height="512" viewBox="0 0 340 340" width="512" xmlns="http://www.w3.org/2000/svg"><path d="m63.64 153.555s-11.055 8.4-13.147 30.023c0 0-16.389 81.248-25.456 112.631 0 0-15.422 3.437-15.033 18.98h24.123a11.262 11.262 0 0 0 10.787-8.026l25.455-84.879 3.138-68.729z" fill="#e5897a"/><circle cx="263.011" cy="175.438" fill="#ff7a4e" r="50.335"/><path d="m70.179 197.861h259.825v49.046h-259.825z" fill="#95bcf4"/><path d="m90.291 232.306h239.712v82.883h-239.712z" fill="#ffca8a"/><path d="m133.707 252.462-43.416 5.584v57.143h139.145l7.755-7.074-46.641-52.056z" fill="#f9ae7a"/><path d="m135.3 232.471 14.19-8.848a13.78 13.78 0 0 1 17.757 2.731l58.463 68.292-17.828 14.754a9.057 9.057 0 0 1 -12.76-1.214l-31.875-38.636-29.947-11.981z" fill="#e5897a"/><path d="m62.349 266.672v22.934a25.582 25.582 0 0 0 25.582 25.583h43.033a24.023 24.023 0 0 0 17.124-7.176l30.354-30.86-20.465-35.174-30.377 20.145-65.18-1.6z" fill="#88b5ea"/><path d="m109.235 315.189 1.983-5.536 10.887-18.722 3.579-25.6-.91-3.272-19.382-.476-2.255 5.094-4.16 24.81s-13.722 5.891-12.261 23.676c.4.019.808.031 1.215.031z" fill="#3e7bad"/><path d="m70.179 175.438h259.825v22.422h-259.825z" fill="#cce3ff"/><path d="m109.275 296.493c-16.689 3.556-15.595 18.7-15.595 18.7h27.633c11.217 0 13.132-13.772 13.132-13.772 1.641-19.425 10.943-87.822 10.943-87.822 1.474-13.9 2.381-26.214 2.939-36.109a26.367 26.367 0 0 0 -23.915-27.733l-6.816-.627a10.97 10.97 0 0 1 -9.963-10.923v-11.886a26.778 26.778 0 0 0 9.054-4.869 25.411 25.411 0 0 0 9-19.688v-36.727l-48.7-1.915-.273 49.793v33.925a27.876 27.876 0 0 0 -13.078 6.715l-1.287 113.117h49.935z" fill="#f9beac"/><path d="m51.538 107.151c-18.456-23.29-2.909-51.466-2.909-51.466 15.463-26.924 40.243-23.234 48.971-20.912a18.053 18.053 0 0 0 10.58-.239 25.381 25.381 0 0 0 10.92-7.792 5.489 5.489 0 0 1 9.456 2.045c2.444 9.07-2.729 19.29-2.729 19.29h6.608a5.562 5.562 0 0 1 5.62 6.069 23.492 23.492 0 0 1 -2.4 8.824 18.5 18.5 0 0 1 -16.588 9.945h-11.587a8.95 8.95 0 0 0 -8.95 8.95v14.545a14.8 14.8 0 0 0 -5.23-3.71 8.66 8.66 0 0 0 -11.572 6.574c-.743 3.93.753 9.186 10.094 14.145 0 0-.839 4.153-7.8 6.513a23.226 23.226 0 0 1 -16.65-.877 40.8 40.8 0 0 1 -15.834-11.904z" fill="#313847"/><path d="m157.977 241.979 13.361-9a19.117 19.117 0 0 1 26.672 5.373l33.19 50.632s16.627-9.593 26.54 3.837l-23.66 17.607a8.452 8.452 0 0 1 -11.522-1.35l-28.555-34.049a7.523 7.523 0 0 0 -9.781-1.527l-5.783 3.651z" fill="#f9beac"/><path d="m327.27 256.689-2.494-3.624a15.51 15.51 0 0 1 -2.734-8.792v-24.621a6.459 6.459 0 1 0 -12.918 0v24.621a15.509 15.509 0 0 1 -2.733 8.792l-2.5 3.624a15.507 15.507 0 0 0 -2.733 8.792v49.708h28.842v-49.708a15.508 15.508 0 0 0 -2.73-8.792z" fill="#597c3e"/><path d="m257.743 252.462v12.989a16.724 16.724 0 0 0 15.2 16.717c.541.046.855.046.855.046s.314 0 .856-.046a16.723 16.723 0 0 0 15.2-16.717v-12.989z" fill="#d4f4ff"/><path d="m112.283 93.449a4.066 4.066 0 0 1 -2.83-1.17 5.021 5.021 0 0 1 -.5-.611 4.649 4.649 0 0 1 -.36-.689 3.832 3.832 0 0 1 -.23-.75 4.222 4.222 0 0 1 -.08-.78 4.071 4.071 0 0 1 1.17-2.831 5.038 5.038 0 0 1 .611-.5 4.611 4.611 0 0 1 .69-.36 3.724 3.724 0 0 1 .75-.229 4.009 4.009 0 0 1 3.609 1.089 4.756 4.756 0 0 1 .5.611 4.471 4.471 0 0 1 .36.689 3.766 3.766 0 0 1 .23.75 3.847 3.847 0 0 1 0 1.561 3.766 3.766 0 0 1 -.23.75 4.382 4.382 0 0 1 -.36.689 4.756 4.756 0 0 1 -.5.611 4.065 4.065 0 0 1 -2.83 1.17z" fill="#313847"/><path d="m112.284 266.672 7.007-71.6a1.525 1.525 0 0 0 -3.01-.462l-13.144 72.057z" fill="#e5897a"/><path d="m107.633 135.717v-9.4a13.785 13.785 0 0 1 -8.016-3.3 1.63 1.63 0 0 0 -2.719 1.539c.843 3.725 3.455 8.359 10.735 11.161z" fill="#e5897a"/><path d="m271.523 279.809h4.549v31.117h-4.549z" fill="#d4f4ff"/><path d="m276.071 310.926h-2.274-2.274l-11.922 4.263h14.196 14.196z" fill="#d4f4ff"/><path d="m273.8 268.118a16.268 16.268 0 0 0 -10.072.122 2.2 2.2 0 0 0 -1.236 2.951 12.862 12.862 0 0 0 10.645 7.644c.42.036.663.036.663.036s.243 0 .663-.036a12.876 12.876 0 0 0 10.763-7.9.977.977 0 0 0 -1-1.331 28.6 28.6 0 0 1 -10.426-1.486z" fill="#f9809d"/><path d="m311.34 270.9h-10.177v27.765h10.177a3.521 3.521 0 0 0 3.522-3.521v-20.718a3.522 3.522 0 0 0 -3.522-3.526z" fill="#8faf74"/><g fill="#fff"><path d="m272.058 191.963h-23.858a4.014 4.014 0 0 1 0-8.028h23.859a4.014 4.014 0 0 1 0 8.028z"/><path d="m220.48 217.407h-40.78a4 4 0 0 1 0-8h40.78a4 4 0 0 1 0 8z"/><path d="m222.594 191.963h-12.822a4.014 4.014 0 0 1 0-8.028h12.822a4.014 4.014 0 0 1 0 8.028z"/><path d="m295.634 217.536h-2.787a4.014 4.014 0 1 1 0-8.028h2.787a4.014 4.014 0 1 1 0 8.028z"/><path d="m302.556 191.963h-2.787a4.014 4.014 0 0 1 0-8.028h2.787a4.014 4.014 0 1 1 0 8.028z"/><path d="m261.045 218.606h-8.777a4 4 0 0 1 0-8h8.777a4 4 0 0 1 0 8z"/></g><path d="m237.461 252.615a3.476 3.476 0 0 1 -.444-.507 3.352 3.352 0 0 1 -.332-.577 3.212 3.212 0 0 1 -.224-.63 3.753 3.753 0 0 1 -.092-.672 3.423 3.423 0 0 1 3.31-3.564 3.7 3.7 0 0 1 .676.041 3.185 3.185 0 0 1 .645.178 3.353 3.353 0 0 1 .6.287 3.558 3.558 0 0 1 .988.918 3.428 3.428 0 0 1 .332.578 3.541 3.541 0 0 1 .23.636 4.077 4.077 0 0 1 .086.665 3.165 3.165 0 0 1 -.042.677 3.314 3.314 0 0 1 -.17.651 3.354 3.354 0 0 1 -.294.606 3.536 3.536 0 0 1 -.412.533 3.433 3.433 0 0 1 -4.858.18z" fill="#ec924e"/><path d="m222.67 252.027a3 3 0 0 1 -.445-.507 3.615 3.615 0 0 1 -.343-.577 3.926 3.926 0 0 1 -.219-.637 3.139 3.139 0 0 1 -.085-.665 3.423 3.423 0 0 1 3.309-3.565 3.106 3.106 0 0 1 .665.042 3.359 3.359 0 0 1 .65.171 3.666 3.666 0 0 1 .607.294 3.49 3.49 0 0 1 1.636 2.8 3.438 3.438 0 0 1 -5.775 2.647z" fill="#ec924e"/><path d="m238.407 266.638a3.447 3.447 0 0 1 -.18-4.858 3.521 3.521 0 0 1 .506-.444 3.443 3.443 0 0 1 .584-.338 3.269 3.269 0 0 1 .636-.218 3.11 3.11 0 0 1 .672-.092 3.468 3.468 0 0 1 2.9 1.419 3.3 3.3 0 0 1 .338.583 2.768 2.768 0 0 1 .218.636 3.1 3.1 0 0 1 .1.665 3.556 3.556 0 0 1 -.041.677 3.947 3.947 0 0 1 -.171.651 4.3 4.3 0 0 1 -.293.607 3.579 3.579 0 0 1 -.412.532 3.432 3.432 0 0 1 -2.392 1.1 3.209 3.209 0 0 1 -.676-.042 3.293 3.293 0 0 1 -.651-.17 3.338 3.338 0 0 1 -.6-.3 2.933 2.933 0 0 1 -.538-.408z" fill="#ec924e"/><path d="m85.163 189.473c-1.286 27.151-1.157 64.041-2.434 77.924h-6.222l6.342-78.114a1.162 1.162 0 0 1 2.314.19z" fill="#e5897a"/></svg>