<svg id="icon" height="512" viewBox="0 0 340 340" width="512" xmlns="http://www.w3.org/2000/svg"><path d="m60.426 152.03s-17.142-25.721 70.631-58.166l10.17 9.623-8.463 14.625-49.18 47.041s-11.139 2.694-23.158-13.123z" fill="#8098ba"/><path d="m141.227 103.662s1.871-12.922 6.442-23.677c0 0 7.26-12.907 6.992-26.62l-40.175-8.221s-3.728 18.318 8.446 31.614c0 0-10.1 16.94-17.822 56.735z" fill="#ffebde"/><path d="m150.888 52.593-36.4-7.449a42.157 42.157 0 0 0 1.848 20.668l8.793.451a5.517 5.517 0 0 1 4.406 2.535 14.514 14.514 0 0 0 9.64 6.51l12-21.021z" fill="#e8ae9c"/><path d="m174.111 48.445a19.023 19.023 0 0 1 .667 5.379 11.094 11.094 0 0 1 -12.43 10.55l-43.948-5.029 2-12.992h50.994a2.815 2.815 0 0 1 2.717 2.092z" fill="#ea8a86"/><path d="m118.4 59.345 2-12.992h-14.34a6.661 6.661 0 0 1 -6.571-5.3l-.02-.1c-.405-2.146-1.29-4.061-.207-7.242 0 0-47.937-3.149-77.417 26.517l8.8-.051a585.849 585.849 0 0 1 87.755-.832z" fill="#7b95ad"/><path d="m147.387 46.353h-26.989l-1.994 12.992 28.983 3.317z" fill="#c46060"/><path d="m141.227 103.662s.232-1.6.731-4.141c-13.444.312-25.117 6.67-31.55 11-1.792 6.6-3.6 14.231-5.3 22.968z" fill="#e8ae9c"/><path d="m244.84 21.191s19.508-11.643 46.54 8.4c30.443 22.57 19.945 64.561 19.945 64.561s-5.716 25.543-13.316 40.526a56.35 56.35 0 0 0 -5.987 32.322 64.772 64.772 0 0 0 3.557 14.808s34.117 63.773-4.2 108.914c0 0-35.955 44.615-156.154 7.086 0 0-20.961-5.768-28.07-25.955-4.411-12.525-1.506-26.447 6.935-36.7 10.56-12.823 30.61-41 48.925-88.278a236.107 236.107 0 0 0 9.6-31.079c4.7-19.934 17.565-63.136 44.869-87.831a29.453 29.453 0 0 1 26.1-7.084c.41.095.831.197 1.256.31z" fill="#373d4c"/><path d="m242.954 158.364s-9.338 25.472 6.321 45.2c0 0 7.2 8.456 27.873 20.983 0 0 41.342 15.247 41.96 95.793a1.82 1.82 0 0 1 -1.815 1.829h-51.473a1.8 1.8 0 0 1 -1.81-1.813c.054-8.894.027-48.379-4.4-71.067 0 0-7.634 9.6-21.627 19.507a17.785 17.785 0 0 0 -7.373 16.77c.952 7.453 2.054 18.621 2.6 33.189a3.291 3.291 0 0 1 -3.281 3.414h-117.694a2.493 2.493 0 0 1 -2.235-3.6c4.644-9.46 19.515-36.035 50.413-61.051a20.782 20.782 0 0 0 4.969-26.518c-4.454-7.736-7.781-18.243-4.738-30.562a303.874 303.874 0 0 1 -69.375 19.374 15.287 15.287 0 0 1 -17.488-14.148l-.658-10.06a56.262 56.262 0 0 0 -2.858-14.384l-9.839-29.012s11.9 5.95 23.175-4.385 25.368-34.136 57.626-44.158a516.205 516.205 0 0 1 -11.275 61.666s23.176-7.173 43.846-18.76c0 0 24.079-14.093 35.215 8.142z" fill="#d6e0ef"/><path d="m279.989 225.929c-4.536-2.514-9-5.162-13.279-8.1q-3.393-2.331-6.046-4.343a49.852 49.852 0 0 1 -18.726-51c.034-.145.068-.284.1-.422q.167-.693.355-1.385c.378-1.386.687-2.3.794-2.6l.006-.015.035-.1-7.715-.734-26.5-2.519a25.088 25.088 0 0 0 -5.595-7.554c-1.388 7.293-3.547 26.1 6.778 41.99a4.34 4.34 0 0 0 4.842 1.774 94.217 94.217 0 0 0 9.915-3.493 7.747 7.747 0 0 1 10.317 4.485c4.361 12.48 14.819 26.627 38.672 35.961a84.318 84.318 0 0 1 23.829 14.209c-7.037-9.327-14.02-14.069-17.782-16.154z" fill="#8098ba"/><path d="m257.628 131.946s-15.957 38.378-40.495 49.827a3.838 3.838 0 0 1 -5.254-2.33 58.3 58.3 0 0 1 -3.134-13.75 46.587 46.587 0 0 1 .268-10.983 28.342 28.342 0 0 0 8.3-19.5z" fill="#ffebde"/><path d="m257.581 132.059.047-.113-40.318 3.262a26.3 26.3 0 0 1 -2.148 10.328 43.334 43.334 0 0 0 23.18 7.939 64.7 64.7 0 0 1 -18.274 21.164 5.037 5.037 0 0 1 -7.153-1.152 43.155 43.155 0 0 1 -4.164-7.794 65.765 65.765 0 0 0 3.122 14.431 3.838 3.838 0 0 0 5.254 2.33c23.739-11.076 39.451-47.991 40.449-50.384z" fill="#e8ae9c"/><path d="m239.241 38.178s-6.8 26.938 11.769 44.722c11.556 11.067 15.718 20.818 17.213 26.6a11.29 11.29 0 0 1 -1.6 9.153l-9 13.288a27.8 27.8 0 0 1 -37.752 8.023 48.832 48.832 0 0 1 -5.488-3.99 34.162 34.162 0 0 1 -11.783-29.549c2.017-20.443 9.432-58.611 36.641-68.247z" fill="#ffebde"/><path d="m230.645 78.894c0 4.71-4.258 8.927-9.323 8.927s-10.3-4.354-9.172-8.927c1.626-6.586 5.775-9.237 10.84-9.237s7.655 4.527 7.655 9.237z" fill="#373d4c"/><path d="m234.959 66.369a46.262 46.262 0 0 0 14.1 26.722c1.139 1.02 2.246 2.076 3.281 3.2 3.68 4.006 10.675 12.6 13.837 23.024l.446-.659a11.29 11.29 0 0 0 1.6-9.153c-1.5-5.787-5.657-15.538-17.213-26.6-18.569-17.784-11.769-44.722-11.769-44.722s-7.075 10.652-4.282 28.188z" fill="#e8ae9c"/><path d="m224.181 78.787a2.864 2.864 0 0 1 -2.861 2.739c-1.554 0-3.16-1.336-2.814-2.739a3.265 3.265 0 0 1 3.326-2.835c1.555 0 2.349 1.389 2.349 2.835z" fill="#fff"/><path d="m244.527 115.878c-1.077 7.489-5.581 12.619-13.184 12.619-4.89 0-11.895-5.3-11.895-5.3a13.767 13.767 0 1 1 25.224-9.527s-.04 1.482-.145 2.208z" fill="#373d4c"/><path d="m232.514 113c-6.263 1.515-11.072 5.513-13.055 10.2a13.762 13.762 0 0 0 25.213-9.52 20.292 20.292 0 0 0 -12.158-.68z" fill="#ea645e"/><g fill="#8098ba"><path d="m170.416 184.782a1.11 1.11 0 0 0 -1.144-1.876c-6.187 2.736-14.812 8.836-20.389 22.123 7.441-2.689 11.761-4.594 11.761-4.594a29.43 29.43 0 0 1 9.772-15.653z"/><path d="m128.25 182.877 19.15-23.877c-10.105 4.053-17.449 6.326-17.449 6.326s-2.4 8.738-4.282 16.272a1.474 1.474 0 0 0 2.581 1.279z"/><path d="m244.725 241.89c-13.821 10.8-26.887 9.083-34.47 6.471a2.352 2.352 0 0 0 -2.5 3.824c2.727 2.852 7.082 5.707 13.91 6.686a17.489 17.489 0 0 0 4.485.057c5.3-.613 17.927-3.325 21.286-15.3a1.674 1.674 0 0 0 -.747-1.853 1.712 1.712 0 0 0 -1.964.115z"/></g><path d="m84.633 42.13a12.785 12.785 0 0 0 4.067-1.237 11.021 11.021 0 0 1 9.629-.511c.467.207.851.4 1.148.568a15.224 15.224 0 0 1 .255-6.621 1.182 1.182 0 0 0 -1.106-1.485c-8.54-.221-50.917.131-77.542 27.169a.651.651 0 0 0 .541 1.1c1.78-.215 4.836-.559 9.02-.938a14.261 14.261 0 0 1 1.776-2.913 12.4 12.4 0 0 1 7.613-4.208 12 12 0 0 0 6.787-3.832 11.527 11.527 0 0 1 4.502-3.222 15.026 15.026 0 0 1 6.342-.852c5.042-.025 6.655.629 12.435-2.756a11.286 11.286 0 0 1 9.557-.8 10.4 10.4 0 0 0 4.976.538z" fill="#c5daea"/><path d="m120.4 46.353h-12.5c.137 3.134 1.092 9.975 6.667 12.762q1.908.108 3.841.23z" fill="#5d7b91"/><path d="m126.483 29.094h15.563a13.293 13.293 0 0 1 13.293 13.293v13.294a0 0 0 0 1 0 0h-28.856a13.293 13.293 0 0 1 -13.293-13.293 13.293 13.293 0 0 1 13.293-13.293z" fill="#ffebde"/><path d="m155.339 46.306a9.211 9.211 0 0 0 -7.65-4.953h-15.289a7.515 7.515 0 0 0 -7.507 7.507 13.988 13.988 0 0 0 1.785 6.821h28.665z" fill="#e8ae9c"/><path d="m132.4 46.353h15.293a9.506 9.506 0 0 1 9.53 9.992 34.876 34.876 0 0 1 -3.664 13.914 11.17 11.17 0 0 1 -9.927 6.076c-9.929 0-13.563-13.16-4.986-18.163.117-.068.235-.136.355-.2a9.108 9.108 0 0 1 -9.108-9.109 2.507 2.507 0 0 1 2.507-2.51z" fill="#ffebde"/></svg>