<svg id="flat" height="512" viewBox="0 0 340 340" width="512" xmlns="http://www.w3.org/2000/svg"><path d="m196.323 87.369s-33.355 29.753-20.672 78.515h14.886s-4.84-30.363 16.939-49.207a12.819 12.819 0 0 0 1.818-17.633 48.061 48.061 0 0 0 -12.971-11.675z" fill="#c9491c"/><path d="m306.016 237.091c-5.35-75.385-49.608-53.446-49.608-53.446-4.863-18.914-22.858-28.928-22.858-28.928-33.188-19.048-51.55 4.557-51.55 4.557s-18.366-23.6-51.553-4.557c0 0-18 10.014-22.859 28.928 0 0-44.258-21.939-49.608 53.446 0 0-7.781 73.925 56.9 75.871 0 0 9.794 12.922 32.652 12.922s34.468-23.184 34.468-23.184 11.606 23.188 34.465 23.188 32.652-12.922 32.652-12.922c64.683-1.95 56.899-75.875 56.899-75.875z" fill="#f9854b"/><path d="m101.676 15.053s3.677 5 3.1 13.972c-.64 10.085-13.576 13.775-19.649 5.705a45.112 45.112 0 0 1 -6.942-13.182 34.168 34.168 0 0 1 -2.432 9.15 12.905 12.905 0 0 1 -15.317 7.475 34.148 34.148 0 0 1 -8.709-3.714 45.112 45.112 0 0 1 6.119 13.583c2.625 9.759-8.244 17.68-16.59 11.982-7.423-5.067-9.1-11.044-9.1-11.044-18.672 15.606-20.482 46.32-20.482 46.32 23.713-17.253 35.167 3.487 35.167 3.487 25.851-31.644 50.226-4.984 50.226-4.984s-6.016-35.615 34.833-36.521c0 0-9.3-21.791 18.891-29.866.002 0-25.326-17.476-49.115-12.363z" fill="#4a4a60"/><path d="m308.131 49.219s-.874 4.946-6.445 9.62c-6.264 5.256-15.648-.252-14.316-8.319a36.488 36.488 0 0 1 3.84-11.426 27.608 27.608 0 0 1 -6.715 3.687 10.441 10.441 0 0 1 -12.93-4.792 27.667 27.667 0 0 1 -2.69-7.173 36.5 36.5 0 0 1 -4.534 11.169c-4.247 6.986-14.954 5.048-16.28-3.02-1.179-7.176 1.382-11.5 1.382-11.5-19.563-2.213-38.556 13.884-38.556 13.884 23.343 4.246 17.6 22.534 17.6 22.534 32.962-2.54 30.969 26.619 30.969 26.619s17.492-23.414 40.837-.007c0 0 7.562-17.613 28.034-5.62-.001.002-3.916-24.585-20.196-35.656z" fill="#4a4a60"/><g fill="#c9491c"><path d="m107.584 183.645-.038-.018-.017-.008-.106-.05-.023-.01-.185-.084-.02-.009a34.613 34.613 0 0 0 -8.762-2.446c-18.1 48.061-.55 107.862 6.68 131.021a75.293 75.293 0 0 0 9.766.921c-21.158-73.093-7.295-129.317-7.295-129.317z"/><path d="m261.989 311.463c4.673-17.369 16.722-71.537 4.219-130.53a33.62 33.62 0 0 0 -9.8 2.712s12.534 49.093-7.3 129.317a72.617 72.617 0 0 0 12.881-1.499z"/><path d="m124.242 208.327a30.723 30.723 0 0 0 -3.143 8.391 4.052 4.052 0 0 0 5.83 4.458c8.552-4.466 24.421-9.819 41.5-.8a4.057 4.057 0 0 0 5.844-4.624c-.594-2.163-1.4-4.669-2.472-7.489-.001 0-20.007-18.107-47.559.064z"/></g><path d="m124.242 208.327a1.761 1.761 0 0 0 2.411 2.392 44.269 44.269 0 0 1 22.093-5.443c10.373 0 16.792 2.673 20.438 5.034a1.762 1.762 0 0 0 2.619-2.047c-2.376-7.273-8.285-19.064-21.628-19.064-12.975.001-21.649 11.561-25.933 19.128z" fill="#ffda9f"/><path d="m193.8 208.263a65.8 65.8 0 0 0 -3.018 8.182 3.556 3.556 0 0 0 5.1 4.167c14.3-7.62 29.4-7.18 45.263 1.055a3.548 3.548 0 0 0 4.981-4.307 35.718 35.718 0 0 0 -4.764-9.033s-21.605-15.541-47.562-.064z" fill="#c9491c"/><path d="m241.363 208.327a1.761 1.761 0 0 1 -2.411 2.392 44.269 44.269 0 0 0 -22.093-5.443c-10.373 0-16.792 2.673-20.438 5.034a1.762 1.762 0 0 1 -2.619-2.047c2.376-7.273 8.285-19.064 21.628-19.064 12.979.001 21.649 11.561 25.933 19.128z" fill="#ffda9f"/><path d="m121.161 243.2s-7.72 29.615 19.137 50.059a6.356 6.356 0 0 0 8.241-.419l14.992-14.266 14.777 11.986a6.327 6.327 0 0 0 8.571-.555l12.5-13.148 18.7 16.517a6.332 6.332 0 0 0 7.846.424c7.5-5.289 21.456-19.546 16.913-50.6l-12.544 18.837s-90.794-.649-91.442 0-17.691-18.835-17.691-18.835z" fill="#c9491c"/><path d="m240.384 242.185c-7.278 7.843-16.793 12.652-19.635 13.983a1.407 1.407 0 0 1 -1.52-.209l-18.469-15.869a1.415 1.415 0 0 0 -1.855.01l-15.976 14.015a1.414 1.414 0 0 1 -1.865 0l-15.977-14.015a1.413 1.413 0 0 0 -1.854-.01l-18.469 15.869a1.407 1.407 0 0 1 -1.52.209c-2.842-1.331-12.358-6.14-19.635-13.983a1.41 1.41 0 0 0 -2.448 1.011c.363 8.723 3.141 29.884 20.952 40.914a1.418 1.418 0 0 0 1.65-.128l20.1-16.877a1.414 1.414 0 0 1 1.754-.052l15.532 11.554a1.413 1.413 0 0 0 1.688 0l15.533-11.554a1.413 1.413 0 0 1 1.753.052l20.1 16.877a1.419 1.419 0 0 0 1.651.128c17.81-11.03 20.588-32.191 20.952-40.914a1.41 1.41 0 0 0 -2.442-1.011z" fill="#ffda9f"/></svg>