<svg id="icons" height="512" viewBox="0 0 340 340" width="512" xmlns="http://www.w3.org/2000/svg"><path d="m165.6 33.563s35.307 13.73 47.861 34.522c-.005 0-32.961 8.631-47.861-34.522z" fill="#738937"/><path d="m165.6 33.563s25.892 35.307 30.6 107.1c-.006-.002-42.767-25.894-30.6-107.1z" fill="#a9c469"/><path d="m165.6 33.563s-27.461 49.43-13.731 111.413c-.005 0 25.887-31.776 13.731-111.413z" fill="#738937"/><path d="m100.771 116.5a4 4 0 0 1 -3.7-5.522c17.226-41.891 64.066-79 66.052-80.557a4 4 0 0 1 4.941 6.291c-.47.369-47.178 37.387-63.595 77.309a4 4 0 0 1 -3.698 2.479z" fill="#4a683c"/><path d="m288.756 64.271s21.259 52.817-11.294 110.948c0 0-14.616-59.792 11.294-110.948z" fill="#738937"/><path d="m288.756 64.271s39.2 38.2 23.917 109.287c0 0-34.215-31.225-23.917-109.287z" fill="#a9c469"/><path d="m247.406 135.067a4 4 0 0 1 -3.736-5.424c12.188-31.994 21.661-47.286 42.236-68.178a4 4 0 0 1 5.7 5.613c-19.661 19.965-28.736 34.637-40.461 65.412a4 4 0 0 1 -3.739 2.577z" fill="#4a683c"/><path d="m286.824 236.673s-7.037 43.847 16.216 80.719c0 0 19.883-41.854-16.216-80.719z" fill="#a9c469"/><path d="m191.759 183.192s19.267 43.847 5.98 109.951c0 0-32.554-43.515-5.98-109.951z" fill="#738937"/><path d="m191.759 183.192s8.128 44.18-26.164 97.328c.005 0-15.69-59.128 26.164-97.328z" fill="#a9c469"/><path d="m232.77 249.485a4 4 0 0 1 -3.638-2.333c-10.833-23.608-25.5-45.908-40.25-61.182a4 4 0 1 1 5.755-5.557c15.348 15.9 30.571 39.007 41.766 63.4a4 4 0 0 1 -3.633 5.669z" fill="#4a683c"/><path d="m244.685 319.068a3.925 3.925 0 0 1 -.6-.045 4 4 0 0 1 -3.362-4.55c7.107-47.3 41.93-79.416 43.409-80.76a4 4 0 1 1 5.381 5.92c-.418.382-34.213 31.663-40.879 76.029a4 4 0 0 1 -3.949 3.406z" fill="#4a683c"/><path d="m56.23 162.6s17.938 73.08-8.3 117.924c-.005-.004-16.946-54.813 8.3-117.924z" fill="#738937"/><path d="m56.23 162.6s7.563 61.786-31.762 95.336c0-.004-8.1-46.177 31.762-95.336z" fill="#a9c469"/><path d="m89.055 222.672a4 4 0 0 1 -3.883-3.056c-8.647-35.55-32.172-53.644-32.412-53.823a4 4 0 0 1 4.8-6.4c1.058.792 26.025 19.866 35.381 58.33a4 4 0 0 1 -3.89 4.946z" fill="#4a683c"/><path d="m83.474 10v73.843a12.106 12.106 0 0 1 -.674 3.987 42.685 42.685 0 0 1 -3.54 7.709 12.26 12.26 0 0 0 .456 13.373c2.021 2.853 3.759 6.16 3.759 9.1v61a29.141 29.141 0 0 1 -1.66 9.7l-.1.281a29.21 29.21 0 0 0 -.376 18.268l.851 2.773a29.154 29.154 0 0 1 1.284 8.564v111.402h17.666v-112.535a27.012 27.012 0 0 1 4.414-15.121q.445-.661.951-1.316a12.076 12.076 0 0 0 1.067-13.062l-2.572-4.744a13.071 13.071 0 0 1 -1.847-6.472v-56.467a16.573 16.573 0 0 1 .416-3.736 38.649 38.649 0 0 1 3.376-9.13 17.064 17.064 0 0 0 -.039-16.078l-1.027-1.877a16.845 16.845 0 0 1 -2.053-8.078v-71.384z" fill="#6e9160"/><path d="m231.942 10v95.723a9.056 9.056 0 0 1 -1.924 5.6l-3.722 4.722a9.1 9.1 0 0 0 .547 11.833 9.016 9.016 0 0 1 2.47 6.231v83.946a11.636 11.636 0 0 1 -.569 3.6l-3.927 12.065a11.58 11.58 0 0 0 1.776 10.584 11.5 11.5 0 0 1 2.345 6.984v78.712h20.276v-77.729a12.9 12.9 0 0 1 1.955-6.844l.928-1.48a12.962 12.962 0 0 0 .057-13.6l-.666-1.081a12.9 12.9 0 0 1 -1.9-6.753v-83.725a15.852 15.852 0 0 1 1.882-7.508l1.062-1.972a15.918 15.918 0 0 0 .335-14.356l-.23-.48a15.888 15.888 0 0 1 -1.547-6.849v-97.623z" fill="#6e9160"/><g fill="#4a683c"><path d="m102.194 330v-112.535a26.176 26.176 0 0 1 4.61-15.121q.465-.661.993-1.316a11.653 11.653 0 0 0 1.115-13.062l-2.682-4.744a12.644 12.644 0 0 1 -1.929-6.472v-56.467a15.928 15.928 0 0 1 .433-3.736 37.563 37.563 0 0 1 3.528-9.13 16.427 16.427 0 0 0 -.041-16.078l-1.073-1.877a16.28 16.28 0 0 1 -2.148-8.078v-71.384h-10.355v73.02a12.273 12.273 0 0 0 .8 4.376c1.56 4.1 4.582 13.964 1.212 21.981a5.426 5.426 0 0 1 -5.009 3.305h-1.873c-1.561 0-2.238 1.479-1.417 2.435l3.289 3.825a12.4 12.4 0 0 1 3 8.088v50.416a7.072 7.072 0 0 0 .718 3.117c1.458 2.979 4.477 10.25 2.579 16.176a7.1 7.1 0 0 1 -6.778 4.89h-1.466a1.846 1.846 0 0 0 -1.542 2.863l2.991 4.538a21.2 21.2 0 0 1 3.5 11.667v109.303z"/><path d="m252.691 131.28 1.109-1.972a15.31 15.31 0 0 0 .35-14.356l-.24-.48a15.318 15.318 0 0 1 -1.616-6.849v-97.623h-9.827v93.051a13.505 13.505 0 0 0 1.028 5.133c1.761 4.286 4.839 13.567 1.276 19.218a5.017 5.017 0 0 1 -4.27 2.241h-3.2c-1.567 0-2.105 1.416-1.248 2.178l4.62 4.1a5.346 5.346 0 0 1 1.8 4v81.045a5.5 5.5 0 0 0 .827 2.924c1.622 2.592 4.834 8.853 2.089 14.293a6.7 6.7 0 0 1 -6.018 3.557h-.111a2.348 2.348 0 0 0 -1.683 4l1.733 1.746a10.9 10.9 0 0 1 3.163 7.676v74.838h7.865v-77.729a12.492 12.492 0 0 1 2.042-6.844l.97-1.48a12.489 12.489 0 0 0 .059-13.6l-.695-1.081a12.486 12.486 0 0 1 -1.984-6.753v-83.725a15.318 15.318 0 0 1 1.961-7.508z"/></g></svg>