<svg id="Flat" height="512" viewBox="0 0 340 340" width="512" xmlns="http://www.w3.org/2000/svg"><path d="m64.237 66.737h213.037v187.237h-213.037z" fill="#b2746a"/><path d="m136.286 129.044-3.5 13.821c-.186 22.915 10.744 32.935 10.744 32.935l26.135 2.188 25.833-1.814a32.254 32.254 0 0 0 5.272-8.7l-.13-38.431z" fill="#ffcacf"/><path d="m134.122 129.044a81.936 81.936 0 0 0 -1.338 13.821l16.309.518a28.368 28.368 0 0 1 13.192 3.719 107.469 107.469 0 0 0 10.318 5.285 6.367 6.367 0 0 1 3.226 3.064c1.165 2.419 4.075 6.42 11.1 8.98a55.518 55.518 0 0 0 13.836 3.042c3.361-7.733 6.275-20.584 1.5-38.429z" fill="#e8808f"/><path d="m185.637 152.082a3.028 3.028 0 0 1 -.945-.153c-17.4-5.775-30.224-19.71-30.761-20.3a3 3 0 1 1 4.437-4.037c.195.212 12.383 13.392 28.214 18.643a3 3 0 0 1 -.945 5.848z" fill="#333353"/><path d="m143.785 179.651h51.328v73.171h-51.328z" fill="#333353"/><path d="m145.186 209.743s14.914 6.943 23.626-4.948a1.658 1.658 0 0 1 2.8.262c1.973 3.741 7.4 9.318 21.922 6.7v-28.173l-26.014-7.474-23.735 13.533z" fill="#fff"/><path d="m143.785 189.643.528 7.572c6.291 2.45 14.794 3.048 24.917-2.943 0 0 11.81 6.967 24.3 4.1v-14.79l-26.01-7.472z" fill="#e6e6f5"/><path d="m152.1 198.928 1.734 53.771-61.47-1.281.959-26.237a18.3 18.3 0 0 1 2.037-7.84c3.966-7.562 15.443-22.509 46.316-30.576z" fill="#b54352"/><path d="m129.425 190.672-.724 11.734a8.242 8.242 0 0 1 -6.351 7.555c-5.756 1.3-13.953 5.24-16.23 17.024a10.1 10.1 0 0 1 -8.455 8.237l-.225.029a7.961 7.961 0 0 1 -8.685-9.661c2.298-10.533 10.757-27.44 40.67-34.918z" fill="#ffb664"/><path d="m188.661 199.035-1.731 53.665 61.47-1.281-.959-26.237a18.3 18.3 0 0 0 -2.037-7.84c-3.966-7.562-15.443-22.509-46.316-30.576z" fill="#b54352"/><path d="m207.884 189.419c-2.745-.944-5.666-1.836-8.8-2.654h-10.028l-.4 12.27a26.177 26.177 0 0 0 19.228-9.616z" fill="#6b2736"/><path d="m152.1 198.928-.392-12.163h-10.029c-3.079.805-5.958 1.68-8.663 2.608 2.12 2.363 8.925 8.973 19.084 9.555z" fill="#6b2736"/><path d="m211.342 190.672.724 11.734a8.24 8.24 0 0 0 6.351 7.555c5.756 1.3 13.953 5.24 16.229 17.024a10.107 10.107 0 0 0 8.456 8.237l.225.029a7.961 7.961 0 0 0 8.685-9.661c-2.298-10.533-10.757-27.44-40.67-34.918z" fill="#ffb664"/><path d="m190.08 171.527c-7.471-6.093-15.513-3.56-19.03-1.937a4.333 4.333 0 0 1 -3.639 0c-3.517-1.623-11.559-4.156-19.03 1.937 0 0-7.762 6.548-14.683 2.335a.925.925 0 0 0 -1.355 1.057c1.436 5.052 6.145 15.851 20.158 15.851 0 0 12.392.436 16.729-9.153 4.338 9.589 16.73 9.153 16.73 9.153 14.013 0 18.722-10.8 20.158-15.851a.925.925 0 0 0 -1.355-1.057c-6.921 4.213-14.683-2.335-14.683-2.335z" fill="#333353"/><path d="m297.526 225.185a53.549 53.549 0 0 0 3.856-23.509c-3.263-53.847-3.176-151.438-3.063-181.506a9.031 9.031 0 0 0 -9.038-9.064h-189.381a18.868 18.868 0 0 0 -15.183 7.666l-2.54 3.442-7.172-13.32h-27.289a7.857 7.857 0 0 0 -7.855 8.056c.257 10.1.7 27.545 1.005 39.51a79.116 79.116 0 0 0 3.25 19.827 23.106 23.106 0 0 1 .649 10.747 33.176 33.176 0 0 0 .653 15.2c4.01 14.138.866 23.282-2.122 28.207a27.874 27.874 0 0 0 -3.974 13.613c-1.677 53.647-.285 149.967.19 178.727a8.469 8.469 0 0 0 8.472 8.327h122.067a36.746 36.746 0 0 0 16.182-3.977c9.625-4.732 19.576-.681 24.481 2.025a16.029 16.029 0 0 0 7.744 1.952h72.854a8.473 8.473 0 0 0 8.473-8.588l-.909-67.211c-6.458-11.744-4.338-22.809-1.35-30.124zm-30.467 24.107h-174.091a84.451 84.451 0 0 1 -20.485-2.521 9.856 9.856 0 0 1 -7.466-9.561v-152.966a13.113 13.113 0 0 1 13.112-13.112h152.324a51.244 51.244 0 0 1 12.109 1.452 51.218 51.218 0 0 0 20.687.728l.919-.155a10.316 10.316 0 0 1 12.045 10.064c.313 30.253 1.131 110.045 1.536 155.287a10.688 10.688 0 0 1 -10.69 10.784z" fill="#efd4cc"/><path d="m132.864 34.789h-10.918l-5.543-9.054-5.542 9.054h-10.918l6.719 9.909-2.941 12.094 12.682-5.479 11.788 5.479-2.046-12.094z" fill="#f9a25a"/><path d="m240.057 34.789h-10.918l-5.543-9.054-5.542 9.054h-10.918l6.719 9.909-2.941 12.094 12.682-5.479 11.788 5.479-2.046-12.094z" fill="#f9a25a"/><path d="m186.46 34.789h-10.917l-5.543-9.054-5.543 9.054h-10.918l6.719 9.909-2.94 12.094 12.682-5.479 11.788 5.479-2.046-12.094z" fill="#f9a25a"/><path d="m229.819 95.967q-3.7 2.334-6.887 3.989a8.979 8.979 0 0 1 -11.1-2.346 52.337 52.337 0 0 0 -13.008-11.336 56.015 56.015 0 0 0 -28.824-8.387h-.091-.091a56.015 56.015 0 0 0 -28.826 8.387 52.337 52.337 0 0 0 -13.008 11.336 8.979 8.979 0 0 1 -11.1 2.346q-3.184-1.656-6.884-3.989a2.217 2.217 0 0 0 -3.4 2.087c.734 7.271 2.977 18.927 9.734 29.166a14.365 14.365 0 0 0 12 6.393h83.14a14.365 14.365 0 0 0 12-6.393c6.757-10.239 9-21.895 9.734-29.166a2.217 2.217 0 0 0 -3.389-2.087z" fill="#333353"/><path d="m186.173 137.9h13.932a10.425 10.425 0 0 1 10.424 11.119 52.938 52.938 0 0 1 -.71 5.723 10.473 10.473 0 0 1 -12.49 8.394c-5.992-1.281-13.5-3.919-18.4-9.348-5.505-6.105-.981-15.888 7.244-15.888z" fill="#333353"/><g fill="#6b2736"><path d="m139.081 222.605a3.076 3.076 0 0 1 -.5-.042l-3.369-.569a3 3 0 0 1 1-5.916l3.369.569a3 3 0 0 1 -.5 5.958z"/><path d="m139.081 236.216a3.076 3.076 0 0 1 -.5-.042l-3.369-.568a3 3 0 0 1 1-5.916l3.369.568a3 3 0 0 1 -.5 5.958z"/><path d="m202.267 222.605a3 3 0 0 1 -.5-5.958l3.369-.569a3 3 0 1 1 1 5.916l-3.369.569a3.076 3.076 0 0 1 -.5.042z"/><path d="m202.267 236.216a3 3 0 0 1 -.5-5.958l3.369-.568a3 3 0 1 1 1 5.916l-3.369.568a3.076 3.076 0 0 1 -.5.042z"/></g><path d="m154.856 154.811a3.014 3.014 0 0 1 -.907-.141l-3.412-1.082a3 3 0 1 1 1.813-5.719l3.412 1.082a3 3 0 0 1 -.906 5.86z" fill="#e8808f"/><path d="m180.666 112.574-5.336-3.743 5.336-3.744a3.5 3.5 0 0 0 -4.022-5.735l-7.413 5.2-7.413-5.2a3.5 3.5 0 0 0 -4.023 5.735l5.337 3.744-5.337 3.743a3.5 3.5 0 0 0 4.023 5.735l7.413-5.2 7.413 5.2a3.5 3.5 0 0 0 4.022-5.735z" fill="#fff"/><path d="m102.828 265.436a22.262 22.262 0 0 0 -13.344 37.736v11.4a3.636 3.636 0 0 0 3.636 3.635h3.187v-9.139a3 3 0 0 1 6 0v9.139h5.172v-9.139a3 3 0 0 1 6 0v9.139h2.352a3.635 3.635 0 0 0 3.635-3.635v-9.784a22.268 22.268 0 0 0 -16.638-39.351z" fill="#fff"/><path d="m183.434 297.3c-1.082-5.718-6.192-7.07-10.948-7.767v-12.548a5.64 5.64 0 0 1 3.868 3.284 3 3 0 0 0 5.474-2.455 11.773 11.773 0 0 0 -9.342-6.962v-3.762a3 3 0 0 0 -6 0v3.91a14.468 14.468 0 0 0 -8.863 5.691 11.958 11.958 0 0 0 -2.079 9.419c1.194 6.046 6.225 7.817 10.942 8.637v11.653a5.728 5.728 0 0 1 -4.087-3.833 3 3 0 1 0 -5.664 1.978 11.9 11.9 0 0 0 9.751 7.981v3.619a3 3 0 0 0 6 0v-3.758a14.461 14.461 0 0 0 8.864-5.693 11.891 11.891 0 0 0 2.084-9.394zm-22-12.351a5.87 5.87 0 0 1 1.016-4.687 8.5 8.5 0 0 1 4.04-3.035v11.409c-3.051-.631-4.64-1.559-5.06-3.686zm15.1 18.177a8.495 8.495 0 0 1 -4.041 3.034v-10.547c3.158.528 4.747 1.191 5.052 2.8a5.957 5.957 0 0 1 -1.018 4.714z" fill="#cc8e84"/><path d="m122.308 287.267a12.879 12.879 0 0 1 -1.02 5.867 5.9 5.9 0 0 1 -8.333 2.609 14.36 14.36 0 0 1 -6.2-6.84 5.875 5.875 0 0 1 3.8-7.905 17.156 17.156 0 0 1 4.308-.672 7.248 7.248 0 0 1 7.445 6.941z" fill="#efd4cc"/><path d="m87.484 289.318a12.875 12.875 0 0 0 2.194 5.536 5.9 5.9 0 0 0 8.69.854 14.357 14.357 0 0 0 4.679-7.962 5.874 5.874 0 0 0 -5.327-6.964 17.122 17.122 0 0 0 -4.355.22 7.248 7.248 0 0 0 -5.881 8.316z" fill="#efd4cc"/><path d="m103.467 301.2.855-.807a.686.686 0 0 1 .926-.014l.931.827a.686.686 0 0 0 1.136-.61 13.867 13.867 0 0 0 -1.982-5.453.7.7 0 0 0 -1.122-.055 9.085 9.085 0 0 0 -1.9 5.566.69.69 0 0 0 1.156.546z" fill="#efd4cc"/><path d="m234.881 265.436a22.262 22.262 0 0 0 -13.344 37.736v11.4a3.635 3.635 0 0 0 3.635 3.635h3.188v-9.139a3 3 0 0 1 6 0v9.139h5.171v-9.139a3 3 0 0 1 6 0v9.139h2.353a3.636 3.636 0 0 0 3.635-3.635v-9.784a22.268 22.268 0 0 0 -16.638-39.351z" fill="#fff"/><path d="m254.36 287.267a12.877 12.877 0 0 1 -1.019 5.867 5.9 5.9 0 0 1 -8.333 2.609 14.355 14.355 0 0 1 -6.2-6.84 5.875 5.875 0 0 1 3.792-7.903 17.148 17.148 0 0 1 4.307-.672 7.247 7.247 0 0 1 7.453 6.939z" fill="#efd4cc"/><path d="m219.536 289.318a12.89 12.89 0 0 0 2.195 5.536 5.9 5.9 0 0 0 8.69.854 14.351 14.351 0 0 0 4.678-7.962 5.874 5.874 0 0 0 -5.327-6.964 17.116 17.116 0 0 0 -4.354.22 7.249 7.249 0 0 0 -5.882 8.316z" fill="#efd4cc"/><path d="m235.519 301.2.855-.807a.687.687 0 0 1 .927-.014l.93.827a.686.686 0 0 0 1.136-.61 13.848 13.848 0 0 0 -1.981-5.453.7.7 0 0 0 -1.122-.055 9.079 9.079 0 0 0 -1.9 5.566.69.69 0 0 0 1.155.546z" fill="#efd4cc"/></svg>