<svg id="Flat" height="512" viewBox="0 0 340 340" width="512" xmlns="http://www.w3.org/2000/svg"><path d="m132.6 23.066a133.687 133.687 0 1 0 136.725 214.087v37.147h30.158v-121.72a133.728 133.728 0 0 0 -100.461-129.514zm33.211 201.784a72.28 72.28 0 0 1 -33.22-136.469s9.175-22.23 33.22-22.23 33.22 22.23 33.22 22.23a72.28 72.28 0 0 1 -33.22 136.469z" fill="#8ed0c5"/><path d="m284.878 331.747h-.948a9.483 9.483 0 0 1 -9.438-8.561l-4.164-42.617h28.152l-4.164 42.617a9.483 9.483 0 0 1 -9.438 8.561z" fill="#89b9f2"/><path d="m260.947 269.53h46.914a0 0 0 0 1 0 0v13.752a8.325 8.325 0 0 1 -8.325 8.325h-30.264a8.325 8.325 0 0 1 -8.325-8.325v-13.752a0 0 0 0 1 0 0z" fill="#474756"/><g fill="#599084"><path d="m163.311 261.094c-58.456 0-106.011-48.679-106.011-108.514a110.3 110.3 0 0 1 23.984-68.75 105.975 105.975 0 0 1 59.953-37.407c.064-.014.128-.027.193-.038a131.26 131.26 0 0 1 41.1-.534c.073.01.145.023.217.036 50.165 9.519 86.575 54.39 86.575 106.693.003 59.835-47.554 108.514-106.011 108.514zm-20.144-204.868c-44.1 9.612-76.1 50.117-76.1 96.354 0 54.321 43.175 98.514 96.244 98.514s96.245-44.193 96.245-98.514c0-47.447-33-88.156-78.478-96.84a121.818 121.818 0 0 0 -37.911.486z"/><path d="m258.783 248.6a134.526 134.526 0 0 0 10.542-11.449v-84.571l-10.542 43.764z"/><path d="m132.6 23.069v65.331a72.218 72.218 0 0 1 66.42 0v-65.331a134.609 134.609 0 0 0 -66.42 0z"/></g><path d="m144.868 83.333v-64.691a10.389 10.389 0 0 1 10.389-10.389h15.553l8.285 7.259v61.361c-12.613 5.974-24.695 10.268-34.227 6.46z" fill="#dae5f7"/><path d="m173.957 8.253h-3.147c2.048 3.826 3.692 9.532 3.692 18.02v29.47a24.091 24.091 0 0 1 -15.943 22.671l-13.691 4.919v1.278a10.389 10.389 0 0 0 10.389 10.389h18.7a10.389 10.389 0 0 0 10.389-10.389v-65.969a10.389 10.389 0 0 0 -10.389-10.389z" fill="#b2c4d8"/></svg>