<svg id="flat" height="512" viewBox="0 0 340 340" width="512" xmlns="http://www.w3.org/2000/svg"><path d="m154.8 54.659c-34.219 0-61.959 31.768-61.959 70.957h123.914c0-39.189-27.74-70.957-61.955-70.957z" fill="#c12140"/><path d="m75.455 78.175a48.872 48.872 0 0 0 -48.872 48.872h97.745a48.873 48.873 0 0 0 -48.873-48.872z" fill="#f74f73"/><path d="m207.962 69.586c-28.12 0-50.917 25.726-50.917 57.461h101.834c0-31.735-22.796-57.461-50.917-57.461z" fill="#f74f73"/><path d="m119.634 16.561s-6.654 31.372 29.466 34.033c0 0 3.047-30.421-29.466-34.033z" fill="#4d6d38"/><path d="m101.267 39.426s-27.118 9.545-27.988 39.749c0 0 38.482.789 27.988-39.749z" fill="#88a873"/><path d="m74.375 91.678a3.5 3.5 0 0 1 -3.5-3.408c-.58-22.186-14.951-29.549-15.1-29.621a3.5 3.5 0 1 1 3.105-6.274c.746.369 18.3 9.353 18.989 35.711a3.5 3.5 0 0 1 -3.407 3.591z" fill="#3c3c4f"/><path d="m151.166 67.335a3.5 3.5 0 0 1 -3.428-2.814c-4.964-24.821 6.668-48.521 7.162-49.521a3.5 3.5 0 0 1 6.265 3.122c-.111.224-11.051 22.611-6.567 45.028a3.5 3.5 0 0 1 -3.436 4.187z" fill="#3c3c4f"/><path d="m206.928 84.6a3.5 3.5 0 0 1 -3.5-3.357c-1.101-26.987 13.572-37.529 14.193-37.964a3.5 3.5 0 0 1 4.02 5.729c-.533.386-12.152 9.057-11.214 31.952a3.5 3.5 0 0 1 -3.353 3.641z" fill="#3c3c4f"/><path d="m24.715 150.304 11.134 153.448h209.017l11.134-153.448z" fill="#e3938b"/><path d="m140.358 301.252a3.5 3.5 0 0 1 -3.5-3.5v-141.979a3.5 3.5 0 1 1 7 0v141.979a3.5 3.5 0 0 1 -3.5 3.5z" fill="#b25959"/><path d="m85.357 297.941a3.5 3.5 0 0 1 -3.491-3.294l-8.182-138.668a3.5 3.5 0 1 1 6.988-.412l8.182 138.668a3.5 3.5 0 0 1 -3.288 3.7c-.066.004-.14.006-.209.006z" fill="#b25959"/><path d="m195.807 290.335c-.07 0-.139 0-.209-.006a3.5 3.5 0 0 1 -3.288-3.7l7.733-131.062a3.5 3.5 0 1 1 6.988.412l-7.731 131.062a3.5 3.5 0 0 1 -3.493 3.294z" fill="#b25959"/><path d="m26.128 169.775h228.459l1.413-19.471h-231.285z" fill="#b25959"/><path d="m258.393 119.522h-236.071a8.489 8.489 0 0 0 -8.465 9.128l1.216 16.118a9.936 9.936 0 0 0 9.907 9.189h230.755a9.936 9.936 0 0 0 9.907-9.189l1.216-16.118a8.489 8.489 0 0 0 -8.465-9.128z" fill="#e3938b"/><path d="m35.849 303.752h209.017l6.969-96.048a47.934 47.934 0 0 0 -39.32-20.517h-44.734a27.424 27.424 0 0 0 -27.424 27.423l-10.37 1.425a31 31 0 0 0 -26.1 24.255l-.81 3.8a20.414 20.414 0 0 0 -20.369 21.764l1.157 17.477h-49.5z" fill="#b25959"/><path d="m86.236 294.441h-49.529a8.57 8.57 0 0 0 -8.446 10.022l2.187 12.725a11.741 11.741 0 0 0 11.571 9.752h94.839c-3.391-10.833-35.603-21.666-50.622-32.499z" fill="#e3938b"/><path d="m128.106 326.94h110.594a11.742 11.742 0 0 0 11.571-9.752l2.187-12.725a8.57 8.57 0 0 0 -8.446-10.022h-157.776s11.239 29.25 41.87 32.499z" fill="#b25959"/><path d="m286.865 244.094h39.302v82.846h-39.302z" fill="#ffcac0"/><path d="m326.168 307.751h-6.762a11.879 11.879 0 0 1 -11.879-11.879v-51.778h-20.662v82.846h39.3z" fill="#e5837c"/><path d="m295.442 230.572v96.368h-134.694a18.828 18.828 0 0 1 -18.811-20.425c.012-.131.025-.262.039-.394 0 0-22.512 2.2-21.963-22.786 0 0-15.61.022-15.61-15.269 0-13.453 14.512-13.558 14.512-13.558s-3.3-19.766 15.1-22.237h39.534s-11.531-4.118-11.531-17.021 17.3-12.355 17.3-12.355h29.662a35.322 35.322 0 0 1 28.153 13.992l4.386 5.79a18.674 18.674 0 0 0 14.886 7.4h10.478l4.822-3.656a11.5 11.5 0 0 1 7.094-2.332l10.381.139a6.346 6.346 0 0 1 6.262 6.344z" fill="#88a7e5"/><g fill="#4f6ec6"><path d="m241.509 304.123-12.135.917a7.8 7.8 0 0 1 -8.389-7.778v-37.893a7.8 7.8 0 0 1 8.389-7.778l12.135.917a6.415 6.415 0 0 1 5.931 6.4v38.823a6.415 6.415 0 0 1 -5.931 6.392z"/><path d="m189.738 235.771h-16.19a3.5 3.5 0 0 1 0-7h16.19a3.5 3.5 0 0 1 0 7z"/><path d="m180.145 258.008h-61.23a3.5 3.5 0 0 1 0-7h61.23a3.5 3.5 0 0 1 0 7z"/><path d="m180.145 286.835h-60.132a3.5 3.5 0 1 1 0-7h60.132a3.5 3.5 0 1 1 0 7z"/><path d="m180.145 309.621h-38.169a3.5 3.5 0 0 1 0-7h38.169a3.5 3.5 0 0 1 0 7z"/><path d="m257.32 326.94h9.563v-96.865h-7.958a10.74 10.74 0 0 1 -1.605-.122z"/></g></svg>