<svg id="icons" height="512" viewBox="0 0 340 340" width="512" xmlns="http://www.w3.org/2000/svg"><path d="m330.857 179.5h-320v76.825c111.618 38.705 218.285 39.026 320 0z" fill="#b0d6ed"/><path d="m30.386 220.36c-5.428 1.259-12.358 4.154-17.267 10.782a26.354 26.354 0 0 0 -4.79 12.158c-1.087 7.922-1.927 24.3 7.688 33.134 0 0 9.016 9.547 25.723 9.016l17.767-24.131s-2.526-22.929-14.066-36.186a15.348 15.348 0 0 0 -15.055-4.773z" fill="#bdbfd6"/><path d="m279.957 194.955h-207.919a4 4 0 1 0 0 8h207.919a4 4 0 0 0 0-8z" fill="#72aad3"/><path d="m267.142 249.382s16.224-17.006 30.883-27.019a13.654 13.654 0 0 1 14.931-.313 45.732 45.732 0 0 1 16.708 17.6 24.09 24.09 0 0 1 2.181 15.684c-2 10.122-7.507 28.326-21.744 34.882z" fill="#bdbfd6"/><path d="m107.1 57.329s12.537-.892 10.733-15.391a16.709 16.709 0 0 0 -7.3-12.084c-4.429-2.849-11.591-4.532-22.7-.3a16.891 16.891 0 0 0 -4.446 2.517 24.386 24.386 0 0 0 -8.565 12.433c-2.735 10.161 3.917 20.723 14.395 21.683 5.161.477 11.406-1.374 17.883-8.858z" fill="#d9eef9"/><path d="m262.588 133.879q-.155.465-.289.96s-1.853 7.413 7.033 12.508a13.61 13.61 0 0 1 3.663 3.1 16.135 16.135 0 0 0 4.1 3.487c9.156 5.481 21.108-1.017 20.72-11.682q-.015-.42-.054-.849a13.623 13.623 0 0 0 -7.2-10.595l-8.216-4.45c-7.503-4.058-17.077-.575-19.757 7.521z" fill="#d9eef9"/><path d="m226.354 185.142c-2.675-3.5-7.486-6.761-16.033-5.79 0 0-14.355 2.2-21.217-7.867a17.126 17.126 0 0 1 -2.812-9.666v-17.419h-26.638v17.42a17.127 17.127 0 0 1 -2.813 9.666c-6.861 10.071-21.216 7.867-21.216 7.867-8.547-.971-13.359 2.288-16.033 5.79a16.3 16.3 0 0 0 -3.212 9.914v28.4h113.186v-28.4a16.3 16.3 0 0 0 -3.212-9.915z" fill="#ffc4b6"/><path d="m36.181 136.837a4 4 0 0 1 -3.763-5.355c5.416-15.055-1.445-30.358-1.515-30.511-8.248-17.871 5.687-32.22 6.284-32.822a4 4 0 0 1 5.691 5.623c-.436.446-10.6 11.076-4.7 23.859.346.757 8.281 18.468 1.772 36.56a4 4 0 0 1 -3.769 2.646z" fill="#d9eef9"/><path d="m53.622 142.489a4 4 0 0 1 -3.763-5.355c5.416-15.055-1.445-30.358-1.515-30.511-8.244-17.871 5.687-32.223 6.284-32.823a4 4 0 0 1 5.691 5.623c-.437.446-10.605 11.076-4.706 23.859.347.757 8.282 18.468 1.773 36.56a4 4 0 0 1 -3.764 2.647z" fill="#d9eef9"/><path d="m250.19 92.957a4 4 0 0 1 -3.763-5.356c5.416-15.054-1.445-30.357-1.514-30.509-8.248-17.873 5.687-32.221 6.284-32.824a4 4 0 0 1 5.69 5.623c-.436.447-10.6 11.076-4.705 23.86.346.756 8.281 18.467 1.772 36.559a4 4 0 0 1 -3.764 2.647z" fill="#d9eef9"/><path d="m267.631 98.609a4 4 0 0 1 -3.763-5.355c5.382-14.959-1.449-30.365-1.518-30.518a27.132 27.132 0 0 1 -2.55-12.223 4 4 0 0 1 8 .229 19.212 19.212 0 0 0 1.83 8.66c.346.758 8.281 18.469 1.772 36.561a4 4 0 0 1 -3.771 2.646z" fill="#d9eef9"/><path d="m270.254 38.142a4 4 0 0 1 -3.116-6.505c.839-1.045 1.435-1.65 1.5-1.716a4 4 0 0 1 5.689 5.624c-.021.021-.4.411-.952 1.1a3.994 3.994 0 0 1 -3.121 1.497z" fill="#d9eef9"/><path d="m31.817 240.647a3.548 3.548 0 0 0 -.37-.69 3.251 3.251 0 0 0 -.5-.61 4.046 4.046 0 0 0 -3.61-1.1 4.985 4.985 0 0 0 -.74.23 4.241 4.241 0 0 0 -.7.37 4.081 4.081 0 0 0 -.6.5 3.694 3.694 0 0 0 -.5.61 4.183 4.183 0 0 0 -.37.69 3.809 3.809 0 0 0 -.22.75 3.393 3.393 0 0 0 -.08.78 3.445 3.445 0 0 0 .08.78 4.019 4.019 0 0 0 .22.75 4.579 4.579 0 0 0 .37.69 3.62 3.62 0 0 0 .5.6 4.005 4.005 0 0 0 6.83-2.82 4.055 4.055 0 0 0 -.08-.78 3.832 3.832 0 0 0 -.23-.75z" fill="#70748e"/><path d="m20.807 251.177a4.053 4.053 0 0 0 -.75.23 3.958 3.958 0 0 0 -.69.37 3.7 3.7 0 0 0 -.61.5 4 4 0 0 0 2.83 6.82 3.387 3.387 0 0 0 .78-.08 3.256 3.256 0 0 0 .75-.23 3.48 3.48 0 0 0 .69-.36 3.694 3.694 0 0 0 .61-.5 4 4 0 0 0 -3.61-6.75z" fill="#70748e"/><path d="m313.817 233.367a3.256 3.256 0 0 0 -.37-.69 3.639 3.639 0 0 0 -.49-.61 4.226 4.226 0 0 0 -.61-.5 4.671 4.671 0 0 0 -.69-.37 5.371 5.371 0 0 0 -.75-.23 4.146 4.146 0 0 0 -1.57 0 4.87 4.87 0 0 0 -.74.23 4.318 4.318 0 0 0 -.7.37 4.145 4.145 0 0 0 -.6.5 3.694 3.694 0 0 0 -.5.61 3.782 3.782 0 0 0 -.37.69 4.87 4.87 0 0 0 -.23.74 4.219 4.219 0 0 0 -.07.79 4.107 4.107 0 0 0 .07.78 5.371 5.371 0 0 0 .23.75 4.532 4.532 0 0 0 .37.69 4.081 4.081 0 0 0 .5.6 3.99 3.99 0 0 0 2.82 1.18 4.15 4.15 0 0 0 .79-.08 4.382 4.382 0 0 0 .75-.229 3.9 3.9 0 0 0 .69-.371 3.605 3.605 0 0 0 .61-.5 4.013 4.013 0 0 0 .49-.6 3.8 3.8 0 0 0 .37-.69 4.3 4.3 0 0 0 .23-.75 4.121 4.121 0 0 0 .08-.78 4.234 4.234 0 0 0 -.08-.79 3.956 3.956 0 0 0 -.23-.74z" fill="#70748e"/><path d="m322.747 245.548a3.769 3.769 0 0 0 -.22-.75 4.542 4.542 0 0 0 -.37-.691 4.279 4.279 0 0 0 -.5-.61 4 4 0 1 0 0 5.66 4.984 4.984 0 0 0 .5-.609 4.638 4.638 0 0 0 .37-.691 3.809 3.809 0 0 0 .22-.75 3.838 3.838 0 0 0 0-1.559z" fill="#70748e"/><path d="m172.973 223.458h3.1l-2.043-15.439a1.059 1.059 0 1 0 -2.117 0l-2.043 15.439z" fill="#ea8b7f"/><path d="m135.372 223.458 1.677-16.033c.106-1.013-1.029-1.43-1.4-.513l-6.649 16.546z" fill="#ea8b7f"/><path d="m216.575 221.379-6.357-15.414c-.394-.955-1.577-.524-1.479.539l1.571 16.954h3.89z" fill="#ea8b7f"/><path d="m164.018 197.12a3.017 3.017 0 0 1 -.442-.032 40.919 40.919 0 0 1 -10.01-2.953 3 3 0 0 1 2.514-5.448 35.3 35.3 0 0 0 8.372 2.465 3 3 0 0 1 -.434 5.968z" fill="#ea8b7f"/><path d="m183.458 197.12a3 3 0 0 1 -.435-5.968 34.9 34.9 0 0 0 8.371-2.464 3 3 0 0 1 2.516 5.447 40.935 40.935 0 0 1 -10.011 2.953 2.994 2.994 0 0 1 -.441.032z" fill="#ea8b7f"/><g fill="#72aad3"><path d="m54.784 194.955h-2.079a4 4 0 0 0 0 8h2.079a4 4 0 0 0 0-8z"/><path d="m35.919 194.955h-25.062v8h25.062a4 4 0 1 0 0-8z"/><path d="m330.857 194.955h-27.219a4 4 0 0 0 0 8h27.219z"/><path d="m84.639 219.458h-21.286a4 4 0 1 0 0 8h21.286a4 4 0 0 0 0-8z"/><path d="m246.345 219.458h-142.983a4 4 0 0 0 0 8h142.983a4 4 0 0 0 0-8z"/><path d="m228.269 236.752h-29.012a4 4 0 0 0 0 8h29.012a4 4 0 0 0 0-8z"/><path d="m179.887 236.752h-2.025a4 4 0 0 0 0 8h2.025a4 4 0 0 0 0-8z"/><path d="m270.46 219.458h-2.024a4 4 0 0 0 0 8h2.024a4 4 0 0 0 0-8z"/><path d="m156.467 236.752h-29.1a4 4 0 0 0 0 8h29.1a4 4 0 1 0 0-8z"/></g><path d="m41.74 285.446 17.767-24.131a92.837 92.837 0 0 0 -3.447-15.615c-4.969.641-12.111 2.58-17.4 8.23-6.555 7.007-8.063 22.441-8.4 30.22a39.127 39.127 0 0 0 11.48 1.296z" fill="#70748e"/><path d="m297.821 245.588c-7.358-3.589-16.445-4.347-22.4-4.394-4.973 4.721-8.282 8.188-8.282 8.188l42.961 40.837a29.516 29.516 0 0 0 10.62-8.552c-2.411-17.995-11.647-30.59-22.899-36.079z" fill="#70748e"/><path d="m139.325 276.165s-16.971-32.617-41.9-32.617c-10.809-.021-19.922 1.648-27.562 4.787a32.412 32.412 0 0 1 -7.779 2.133c-4.759.674-13.015 2.892-18.887 10.159a25.276 25.276 0 0 0 -5.437 15.914v8.978a25.838 25.838 0 0 0 7.9 18.672c5.141 4.924 12.6 10.672 21.8 13.872 0 0 25.192 8.751 48.793-3.182z" fill="#bdbfd6"/><path d="m99.426 265.4a3.758 3.758 0 0 0 .37-.689 3.875 3.875 0 0 0 .23-.75 4.14 4.14 0 0 0 .08-.781 4.055 4.055 0 0 0 -.08-.78 3.832 3.832 0 0 0 -.23-.75 3.487 3.487 0 0 0 -.37-.689 3.607 3.607 0 0 0 -.49-.611 5.106 5.106 0 0 0 -.61-.5 4.615 4.615 0 0 0 -.69-.36 4.3 4.3 0 0 0 -.75-.23 3.776 3.776 0 0 0 -1.57 0 3.956 3.956 0 0 0 -.74.23 3.813 3.813 0 0 0 -.69.36 4.419 4.419 0 0 0 -.61.5 3.661 3.661 0 0 0 -.5.611 4.173 4.173 0 0 0 -.37.689 4.659 4.659 0 0 0 -.23.75 4.049 4.049 0 0 0 -.07.78 4.125 4.125 0 0 0 .07.781 4.722 4.722 0 0 0 .23.75 4.569 4.569 0 0 0 .37.689 4.109 4.109 0 0 0 .5.61 4 4 0 0 0 5.65 0 3.566 3.566 0 0 0 .5-.61z" fill="#70748e"/><path d="m104.586 275.141a4.569 4.569 0 0 0 -.37-.689 3.914 3.914 0 0 0 -1.1-1.1 3.958 3.958 0 0 0 -.69-.37 4.211 4.211 0 0 0 -.75-.229 4 4 0 0 0 -3.61 1.089 3.573 3.573 0 0 0 -.5.611 3.753 3.753 0 0 0 -.369.689 3.982 3.982 0 0 0 -.231.75 3.847 3.847 0 0 0 0 1.561 3.768 3.768 0 0 0 .231.75 3.483 3.483 0 0 0 .369.689 3.289 3.289 0 0 0 .5.611 4 4 0 0 0 5.65 0 3.744 3.744 0 0 0 .5-.611 4.173 4.173 0 0 0 .37-.689 4.659 4.659 0 0 0 .23-.75 4.386 4.386 0 0 0 0-1.561 4.99 4.99 0 0 0 -.23-.751z" fill="#70748e"/><path d="m86.076 270.712a4.031 4.031 0 0 0 -3.93 4.779 4.6 4.6 0 0 0 .23.75 4.143 4.143 0 0 0 .37.69 3.744 3.744 0 0 0 .5.611 3.987 3.987 0 0 0 2.83 1.17 3.446 3.446 0 0 0 .78-.081 4.015 4.015 0 0 0 .75-.219 4.767 4.767 0 0 0 .69-.37 4.21 4.21 0 0 0 .6-.5 3.289 3.289 0 0 0 .5-.611 3.519 3.519 0 0 0 .37-.69 3.726 3.726 0 0 0 .23-.75 3.991 3.991 0 0 0 -3.92-4.779z" fill="#70748e"/><path d="m139.325 276.165a87.622 87.622 0 0 0 -10.1-14.592c-7.9 4.278-22.53 15.038-28.48 38.068a31.664 31.664 0 0 0 1.075 20.2 57.125 57.125 0 0 0 14.434-4.964z" fill="#70748e"/><path d="m255.71 246.387 26.938 2.309a26.578 26.578 0 0 1 11.857 3.9c8.329 5.219 21.011 17.017 19.573 40.012a68.831 68.831 0 0 1 -5.067 10.84 38.921 38.921 0 0 1 -20.311 17.02l-19.44 7.142s-23.067 2.39-42.96-22.541l-5.834-19.6s7.034-23.319 24.5-36.1a15.882 15.882 0 0 1 10.744-2.982z" fill="#bdbfd6"/><path d="m276.817 285.467a3.828 3.828 0 0 0 -.37-.69 3.56 3.56 0 0 0 -.5-.609 3.522 3.522 0 0 0 -.6-.491 3.828 3.828 0 0 0 -.69-.37 3.976 3.976 0 0 0 -2.32-.23 4.032 4.032 0 0 0 -.74.23 3.519 3.519 0 0 0 -.69.37 3.6 3.6 0 0 0 -.61.491 4.1 4.1 0 0 0 -.5.609 4.579 4.579 0 0 0 -.37.69 4.019 4.019 0 0 0 -.22.75 3.445 3.445 0 0 0 -.08.78 3.381 3.381 0 0 0 .08.78 3.809 3.809 0 0 0 .22.75 4.1 4.1 0 0 0 .37.69 3.694 3.694 0 0 0 .5.61 4.212 4.212 0 0 0 .61.5 3.856 3.856 0 0 0 1.43.591 4.318 4.318 0 0 0 .79.079 4.212 4.212 0 0 0 .78-.079 5.072 5.072 0 0 0 .75-.221 5.564 5.564 0 0 0 .69-.37 4.123 4.123 0 0 0 .6-.5 4.03 4.03 0 0 0 1.18-2.83 4.129 4.129 0 0 0 -.08-.78 4.053 4.053 0 0 0 -.23-.75z" fill="#70748e"/><path d="m292.977 275.317a3.958 3.958 0 0 0 -.69-.37 4.3 4.3 0 0 0 -.75-.23 3.992 3.992 0 0 0 -4.78 3.92 3.459 3.459 0 0 0 .08.781 3.849 3.849 0 0 0 .22.75 4.173 4.173 0 0 0 .37.689 3.251 3.251 0 0 0 .5.61 3.694 3.694 0 0 0 .61.5 3.848 3.848 0 0 0 .69.371 3.919 3.919 0 0 0 .74.219 3.532 3.532 0 0 0 .79.08 4.023 4.023 0 0 0 2.82-1.17 3.694 3.694 0 0 0 .5-.61 4.173 4.173 0 0 0 .37-.689 4.722 4.722 0 0 0 .23-.75 4.132 4.132 0 0 0 .07-.781 4.023 4.023 0 0 0 -1.17-2.83 4.076 4.076 0 0 0 -.6-.49z" fill="#70748e"/><path d="m279.647 265.577a4.049 4.049 0 0 0 -.87-1.3 4.038 4.038 0 0 0 -3.61-1.1 4.87 4.87 0 0 0 -.74.23 3.845 3.845 0 0 0 -.69.37 4.032 4.032 0 0 0 -1.48 1.8 4.659 4.659 0 0 0 -.23.75 4.042 4.042 0 0 0 -.07.78 3.981 3.981 0 0 0 1.17 2.82 3.251 3.251 0 0 0 .61.5 3.306 3.306 0 0 0 .69.371 4.028 4.028 0 0 0 .74.229 4.234 4.234 0 0 0 .79.08 4.029 4.029 0 0 0 4-4 4.047 4.047 0 0 0 -.08-.78 3.832 3.832 0 0 0 -.23-.75z" fill="#70748e"/><path d="m227 270.684a83.654 83.654 0 0 0 -6.532 14.783l5.834 19.6a68.474 68.474 0 0 0 11.037 11.082c9.42-21.912-5.259-40.085-10.339-45.465z" fill="#70748e"/><path d="m108.709 297.721-1.4 7a20.162 20.162 0 0 0 4.246 17 29.261 29.261 0 0 0 6.265 5.558 19.862 19.862 0 0 0 10.913 3.151h71.925a19.8 19.8 0 0 0 2.632-.169c5.9-.79 25.731-5.095 28.306-27.386a20.385 20.385 0 0 0 -1.172-9.451c-3.271-8.784-12.591-27.62-33.024-30.25 0 0-47.818-9.1-70.389 7.7a19.423 19.423 0 0 0 -1.537 1.284 67.887 67.887 0 0 0 -15.443 21.35 20.505 20.505 0 0 0 -1.322 4.213z" fill="#bdbfd6"/><path d="m138.177 303a3.862 3.862 0 0 0 -.37-.69 3.6 3.6 0 0 0 -.49-.6 3.984 3.984 0 0 0 -5.66 0 4.243 4.243 0 0 0 -.5.6 4.628 4.628 0 0 0 -.37.69 3.809 3.809 0 0 0 -.22.75 3.45 3.45 0 0 0 -.08.78 3.387 3.387 0 0 0 .08.78 3.256 3.256 0 0 0 .23.75 4.063 4.063 0 0 0 .36.69 4.279 4.279 0 0 0 .5.61 4 4 0 0 0 2.83 1.17 3.388 3.388 0 0 0 .78-.08 3.809 3.809 0 0 0 .75-.22 4.491 4.491 0 0 0 .69-.37 4.919 4.919 0 0 0 .61-.5 3.639 3.639 0 0 0 .49-.61 3.491 3.491 0 0 0 .37-.69 3.832 3.832 0 0 0 .23-.75 4.047 4.047 0 0 0 .08-.78 4.138 4.138 0 0 0 -.08-.78 3.832 3.832 0 0 0 -.23-.75z" fill="#70748e"/><path d="m147.567 313.677a3.225 3.225 0 0 0 -.36-.69 4.215 4.215 0 0 0 -.5-.609 3.6 3.6 0 0 0 -.61-.5 4 4 0 0 0 -.69-.37 3.811 3.811 0 0 0 -.75-.221 3.728 3.728 0 0 0 -1.56 0 4.022 4.022 0 0 0 -.75.221 4.406 4.406 0 0 0 -.69.37 4.036 4.036 0 0 0 -.61.5 3.592 3.592 0 0 0 -.49.609 3.256 3.256 0 0 0 -.37.69 3.989 3.989 0 0 0 -.23.741 4.215 4.215 0 0 0 -.08.789 4.129 4.129 0 0 0 .08.78 4.3 4.3 0 0 0 .23.75 3.828 3.828 0 0 0 .37.69 3.565 3.565 0 0 0 .49.6 3.605 3.605 0 0 0 .61.5 4.406 4.406 0 0 0 .69.37 4.134 4.134 0 0 0 .75.231 4.2 4.2 0 0 0 .78.069 4.122 4.122 0 0 0 .78-.069 3.9 3.9 0 0 0 .75-.231 4 4 0 0 0 .69-.37 3.251 3.251 0 0 0 .61-.5 4.188 4.188 0 0 0 .5-.6 3.778 3.778 0 0 0 .36-.69 4.3 4.3 0 0 0 .23-.75 4.129 4.129 0 0 0 .08-.78 4.215 4.215 0 0 0 -.08-.789 3.989 3.989 0 0 0 -.23-.741z" fill="#70748e"/><path d="m196.287 285.467a3.828 3.828 0 0 0 -.37-.69 3.932 3.932 0 0 0 -4.1-1.7 3.9 3.9 0 0 0 -.75.23 3.828 3.828 0 0 0 -.69.37 3.6 3.6 0 0 0 -.61.491 4.837 4.837 0 0 0 -.5.609 4.579 4.579 0 0 0 -.37.69 4.019 4.019 0 0 0 -.22.75 3.445 3.445 0 0 0 -.08.78 4.063 4.063 0 0 0 1.17 2.83 4.212 4.212 0 0 0 .61.5 4.931 4.931 0 0 0 .69.37 4.74 4.74 0 0 0 .75.221 3.89 3.89 0 0 0 1.56 0 4.74 4.74 0 0 0 .75-.221 5.564 5.564 0 0 0 .69-.37 4.831 4.831 0 0 0 .61-.5 4.063 4.063 0 0 0 1.173-2.827 4.129 4.129 0 0 0 -.08-.78 4.053 4.053 0 0 0 -.233-.753z" fill="#70748e"/><path d="m186.292 161.819v-17.419h-26.638v12.874a64.258 64.258 0 0 0 26.9 7.675 19.153 19.153 0 0 1 -.262-3.13z" fill="#ea8b7f"/><circle cx="169.315" cy="30.1" fill="#383a3d" r="20.528"/><path d="m145.879 129.694-7.835-2.585a12.628 12.628 0 0 1 -8.545-10.2 12.628 12.628 0 0 1 4.256-11.362l10.628-9.159z" fill="#ea8b7f"/><path d="m200.066 129.694 7.836-2.585a12.631 12.631 0 0 0 8.545-10.2 12.629 12.629 0 0 0 -4.257-11.362l-10.627-9.159z" fill="#ea8b7f"/><path d="m139.325 94.608v11.661l1.673 15.3a32.684 32.684 0 0 0 28.76 29.069 40.9 40.9 0 0 0 4.415.234s.569-.018 1.56-.127a32.75 32.75 0 0 0 28.937-29.681 214.448 214.448 0 0 0 .639-26.46l-49.7-38.635s-15.509 10.213-16.284 38.639z" fill="#ffc4b6"/><path d="m153.816 65.254s6.749 35.907 49.732 41.575a11.8 11.8 0 0 0 12.528-7.244c2.418-6.092 4-16.3.323-32.55a46.666 46.666 0 0 0 -17.872-27.58c-9.219-6.688-22.969-11.4-42.316-6.015 0 0-18.307 2.968-26.307 27.539a48.747 48.747 0 0 0 1.25 34.389c1.926 4.463 4.579 8.655 8.171 10.9 0 .001 1.617-26.943 14.491-41.014z" fill="#383a3d"/><path d="m173.89 137.419a18.2 18.2 0 0 1 -6.521-1.179 3 3 0 0 1 2.313-5.536 12.042 12.042 0 0 0 8.146-.014 3 3 0 1 1 2.229 5.57 16.526 16.526 0 0 1 -6.167 1.159z" fill="#ea8b7f"/><path d="m165.423 118.936a2.972 2.972 0 0 1 -1.113-.216 16.335 16.335 0 0 0 -5.266-1.134 3 3 0 0 1 .3-5.993 22.287 22.287 0 0 1 7.2 1.557 3 3 0 0 1 -1.115 5.786z" fill="#ea8b7f"/><path d="m182.053 118.936a3 3 0 0 1 -1.115-5.786 22.251 22.251 0 0 1 6.278-1.493 3 3 0 0 1 .538 5.977 16.231 16.231 0 0 0 -4.587 1.086 2.981 2.981 0 0 1 -1.114.216z" fill="#ea8b7f"/></svg>