<svg id="Flat" height="512" viewBox="0 0 340 340" width="512" xmlns="http://www.w3.org/2000/svg"><path d="m97.979 146.4s-22.279-11.136-27.321 11.145l-3.583 16.44q-.753 3.454-1.791 6.83c-1.976 6.455-6 23.452 2.851 32.787a17.441 17.441 0 0 0 9.665 4.963c6.321 1.136 17.059.632 20.179-14.6 4.509-22.016 7.693-31.565 7.693-31.565z" fill="#4c3b82"/><path d="m20.534 300.418 11.335-32.37a18.8 18.8 0 0 1 6.339-8.645l15.338-14.309 4.366-11.258a23.3 23.3 0 0 1 8.093-10.474l13.439-9.7 46.315-27.773 59.194-17.671 18.087 6.821 32.3-6.821s24.551 10.16 40.815 27.758a31.749 31.749 0 0 1 8.15 17.445l2.153 16.5s9.985 11.215 19.534 20.786c4.2 4.208 6.468 7.852 7.815 13.642a240.084 240.084 0 0 1 4.832 35.8z" fill="#afabc5"/><path d="m206.883 267.616s.207 16.183-26.572 14.519-21.933-7.2-21.933-7.2l17.484-5.145z" fill="#4c3b82"/><path d="m245.165 177.805-42.956 8.945-17.355-18.508-3.533.761-6.033 6.377-.587-1.159-20.301 3.248-27.2 8.732s-2.981 8.688-1.5 9.574c.513.307-.211 2.984-1.373 6.345l-11.388-5.441-7.073-2.071-26.41 19.056 1.012 1.134a28.083 28.083 0 0 0 9 7.089c6.9 3.16 15.01 6.607 30.246 5.632l-27.232 21.711s-9.215 8.734 4.655 26.759 28.289 20.87 28.289 20.87 16.375.522 28.205 3.3h34.176a15.134 15.134 0 0 0 1.565-9.124l-40.814-24.055-24.658 5.645-14.5-11.056-1.4-15.021s13.763-10.214 15.894-11.115c.9-.379 3.66-3.684 6.561-7.384l14.1 12.725c52.7-12.411 18.905-49.755 18.905-49.755l14.633-4.974 4.6 5.978-5.106 8.814s1.929 7.672 17.055 5.252a33 33 0 0 1 9.973-.383 22.067 22.067 0 0 0 14.424-2.824 23.269 23.269 0 0 0 4.8-3.919 13.057 13.057 0 0 1 7.017-3.894 15.689 15.689 0 0 1 11.533 2.11 11.18 11.18 0 0 0 5.537 1.71c3.258.09 7.333-1.3 8.611-8.274z" fill="#5e607e"/><path d="m229.756 43.037.188.162a13.782 13.782 0 0 1 4.559 7.914 49.9 49.9 0 0 1 .825 9.939l-1.552 11.162a43.094 43.094 0 0 1 -7.938 15.686 39.2 39.2 0 0 0 -7.79 17.916c-.338 2.007-.774 4.206-1.339 6.527 0 0-4.188 16.47-20.311 30.051-3.222 2.714-4.108 8.879-5.782 12.745l-11.19 16.561-7.113 6.822-21.917 8.64c-3.623.94-6.987 1.956-8.749 3.449 0 0 15.927 4.4 21.809 17.814a21.888 21.888 0 0 1 -8.1 26.853 55.568 55.568 0 0 1 -23.936 8.722 30.294 30.294 0 0 0 -10.115 3.08l-.227.119a9.038 9.038 0 0 0 -4.318 10.772l.37 1.14a8.4 8.4 0 0 0 9.78 5.62 216.427 216.427 0 0 0 21.751-5.921 206.217 206.217 0 0 1 24.542-6.35 14.139 14.139 0 0 0 8.379-5.149c2.051-2.6 5.243-5.226 9.167-3.7 0 0 5.843 2.531 5.65 8.868a59.812 59.812 0 0 1 -2.681 7.712s6.388-3.371 11 .887a6.463 6.463 0 0 1 .779.83 7.18 7.18 0 0 1 -4.47 11.474c-6.034 1.07-17.737 2.852-27.592 2.6 0 0 8.684 3.306 14.041 9.165a7.092 7.092 0 0 1 .356 9.361c-1.635 1.9-4.507 3.178-9.553 1.7a12.017 12.017 0 0 1 -5.295-3.946 12.291 12.291 0 0 0 -7.005-4.5 100.065 100.065 0 0 0 -32.568-1.733 29.856 29.856 0 0 1 -23.361-7.935 76.421 76.421 0 0 1 -15.958-20.609 14.725 14.725 0 0 1 5.559-19.546 22 22 0 0 1 2.209-1.113 52.894 52.894 0 0 0 13.211-8.516c5.151-4.421 11.905-9.741 16.894-11.948 0 0-28.923-1.774-38.86-6.92 0 0-17.767-11.845-9.484-29.4a34.312 34.312 0 0 0 2.913-9.547c.3-1.993.664-4.411 1.081-7.131.823-9.064 1.6-11.517 3.048-19.313 2.3-14.1 4.938-29.141 6.878-36.819l17.128-15.32c2.089-1.071 4.43-2.149 7.052-3.217a48.126 48.126 0 0 0 7.279-3.743c.82-.511 1.741-1.093 2.747-1.742a21.5 21.5 0 0 0 12.712-8.85c9.941-7.46 21.576-17.56 29.675-28.885a14.264 14.264 0 0 1 12.843-5.84 36.69 36.69 0 0 1 6.211 1.093 28.4 28.4 0 0 0 7.069.93c5 .026 13.381-.139 19.311-1.342a11.973 11.973 0 0 1 10.188 2.721z" fill="#59aff9"/><path d="m202.79 174.581s.173-6.639 4.2-11.654a10.019 10.019 0 0 1 17.088 2.332q.2.5.391 1.039l-7.75 17.975z" fill="#4c3b82"/><circle cx="193.511" cy="64.701" fill="#4c3b82" r="7.463"/><circle cx="191.264" cy="63.746" fill="#fff" r="2.47"/><path d="m132.356 86.224a8.98 8.98 0 0 0 8.644 6.455h3.2a8.942 8.942 0 0 0 8.886-7.393l.012-.074a8.978 8.978 0 0 0 -5.716-9.74l-2.931-1.114c-4.837 3.628-9.272 6.633-12.712 8.852a19.991 19.991 0 0 0 .617 3.014z" fill="#4c3b82"/><path d="m97.542 107.236v.009a11.377 11.377 0 0 0 3.489 3.963 31.546 31.546 0 0 0 9.925 4.862c7.856 2.057 9.762-7.174 10.2-10.649a9.621 9.621 0 0 0 .062-2.191 18.13 18.13 0 0 0 -3.581-8.455 11.548 11.548 0 0 0 -2.961-2.857c-15.36 7.87-17.134 15.318-17.134 15.318z" fill="#4c3b82"/><path d="m124.861 132.217.432-.271a10.6 10.6 0 0 1 12.154.619 10.552 10.552 0 0 1 4.028 9.447 14.568 14.568 0 0 1 -4.149 8.915c-3.5 3.5-8.368 2.024-12.069-.043a10.541 10.541 0 0 1 -5.359-9.216v-.475a10.6 10.6 0 0 1 4.963-8.976z" fill="#4c3b82"/><path d="m109.438 153a8.546 8.546 0 0 0 -.538-7.879 6.724 6.724 0 0 0 -4.04-3.215 6.128 6.128 0 0 0 -7.689 4.945l-.024.151a7.058 7.058 0 0 0 8.122 8.074c1.994-.342 3.658-.985 4.169-2.076z" fill="#4c3b82"/><path d="m235.325 61.052a141.672 141.672 0 0 0 -27.325 28.469 1.384 1.384 0 0 0 1.662 2.084 15.525 15.525 0 0 0 4.733-3.1 240.519 240.519 0 0 1 19.382-16.29 46.006 46.006 0 0 0 1.548-11.163z" fill="#4c3b82"/><path d="m123.71 185.49a98.569 98.569 0 0 1 17.936 5.125l8.75-3.449a70.562 70.562 0 0 0 -26.495-4.245 1.3 1.3 0 0 0 -.191 2.569z" fill="#4c3b82"/><path d="m30.361 267.834-12.561 32.322h18.7l17.051-55.062-16.14 13.075a23.31 23.31 0 0 0 -7.05 9.665z" fill="#5e607e"/><path d="m322.2 300.156c-.48-9.963-3.99-26.379-6.291-36.27a31.862 31.862 0 0 0 -8.478-15.289c-9.548-9.571-20.979-18.669-20.979-18.669l4.177 70.228z" fill="#5e607e"/><path d="m198.094 145.162c10.754-8.987 16.024-22.183 18.611-32.822-5.5 16.471-19.505 14.876-19.505 14.876l-7.718 15.134-2.082 14.972s.884.2 2.083.438l1.135-2.623a27 27 0 0 1 7.476-9.975z" fill="#4c3b82"/><path d="m187.4 162.572-4.535-30.072a2.84 2.84 0 0 0 -5.587-.164l-7.278 34.412a16.22 16.22 0 0 0 2.318 11.778l9.863-3.888z" fill="#4c3b82"/><path d="m189.747 108.883a8.688 8.688 0 0 1 8.114 9.306l-2.873 39.211a12.769 12.769 0 0 0 4.571 10.75l14.451 12.013 1.416-3.923a25.093 25.093 0 0 1 11.259-13.527 21.59 21.59 0 0 1 8.242-2.645 8.575 8.575 0 0 1 6.837 2.179c1.967 1.88 3.612 5.228 2.32 11.1 0 0 11.288 1.557 12.431 15.121a6.838 6.838 0 0 1 -5.949 7.482 7.1 7.1 0 0 1 -6.059-2.619 6.284 6.284 0 0 1 -.752-1.031 11.443 11.443 0 0 0 -12.544-5.276 29.487 29.487 0 0 0 -13.8 7.788 20.876 20.876 0 0 1 -14.23 5.979 58.227 58.227 0 0 0 -13.607 1.925s-9.163 3.759-11.982-1.879 3.759-10.573 3.759-10.573 6.344-3.76 12.218-2.115l-8.459-8.1a24.407 24.407 0 0 1 -7.472-19.233l2.889-43.83a8.689 8.689 0 0 1 9.22-8.103z" fill="#59aff9"/><g fill="#4c3b82"><path d="m177.82 264.256c13.678-.866 15.9-4.061 15.9-4.061a15.758 15.758 0 0 0 2.68-7.712c-3.473 4.6-18.3 8.083-30.2 10.2a1.063 1.063 0 0 0 .227 2.108c3.588-.118 7.493-.291 11.393-.535z"/><circle cx="219.196" cy="57.706" r="4"/><circle cx="170" cy="74.358" r="4"/><circle cx="163.466" cy="99.098" r="4"/><circle cx="160.716" cy="132.808" r="4"/><circle cx="138.705" cy="115.136" r="4"/><circle cx="150.392" cy="159.134" r="4"/><circle cx="119.898" cy="166.748" r="4"/><circle cx="97.057" cy="182.884" r="4"/></g></svg>