<svg id="Flat" height="512" viewBox="0 0 340 340" width="512" xmlns="http://www.w3.org/2000/svg"><path d="m152.528 97.917h13.757v194.474h-13.757z" fill="#e6e6e6" transform="matrix(.934 -.358 .358 .934 -59.329 70.053)"/><path d="m164.522 189.286-33.522-87.38-12.844 4.928 30.191 78.687c4.959 1.147 10.56 2.452 16.175 3.765z" fill="#b3b3b3"/><path d="m277.926 239.563-9.278 19.247-17.142-14.344 7.516-16.146 19.207 1.392z" fill="#cc938b"/><path d="m91.951 19.342c-87.288 42.301-78.574 128.158-78.574 128.158 40.909-16.8 69.907-1.493 69.907-1.493 18.395-18.07 46.837-27.176 46.838-27.177s27.235-12.255 53-11.127c0 0 11.319-30.773 52.964-45.65-.004 0-50.955-69.653-144.135-42.711z" fill="#f4f4f4"/><path d="m13.377 147.5c40.909-16.8 69.907-1.493 69.907-1.493-30.109-79.577 8.667-126.665 8.667-126.665-87.288 42.3-78.574 128.158-78.574 128.158z" fill="#f96262"/><path d="m236.083 62.053c-41.646 14.877-52.965 45.65-52.965 45.65-30.847-79.294-91.167-88.361-91.167-88.361 93.18-26.942 144.132 42.711 144.132 42.711z" fill="#f96262"/><path d="m58 162.6a4.78 4.78 0 0 0 -8.674.8c-14.466 41.009-22.635 97.279-25.4 118.812a21.937 21.937 0 0 0 17.448 24.428 60.215 60.215 0 0 0 11.2.951h38.064l-27.053-32.547c-6.858-2.751-10.329-9.67-10.329-9.67 9.376-11.257 3.7-26.375.656-32.636a17.918 17.918 0 0 1 -1.717-9.419 89.438 89.438 0 0 1 3.667-16.856c13.609-4.31 6.386-19.85 6.386-19.85-3.847-7.5-2.754-17.416-2.754-17.416a13.009 13.009 0 0 0 -1.494-6.597z" fill="#a56262"/><path d="m259.022 228.32-3.351 7.199 5.438 12.826 13.095-1.06 3.722-7.722.303-9.851z" fill="#a56262"/><path d="m262.735 244.3 25.786 35.5 5.108-33.25a10.831 10.831 0 0 1 10.69-9.085h10.422a7.134 7.134 0 0 1 6.961 5.57 7.134 7.134 0 0 1 -6.034 8.639 9.128 9.128 0 0 0 -7.882 7.992l-5.54 40.869a8.915 8.915 0 0 1 -13.288 5.784l-14.977-12.626s1.752 13.894-10.572 13.894h-211.504a15.327 15.327 0 0 1 -13.639-22.309c12.673-24.843 36.988-66.867 73.818-107.489a4.781 4.781 0 0 1 8.3 2.527 12.975 12.975 0 0 1 -1.171 6.753s-4.847 8.724-4.2 17.124c0 0 .647 17.125-13.57 15.832a89.516 89.516 0 0 0 -9.9 14.123 17.922 17.922 0 0 0 -2.063 9.351c.385 6.953-.234 23.088-13.235 29.839 0 0 17.447-8.078 36.511-5.17 0 0 22.294-37.157 66.236 4.2l9.37-.323 23.264-14.216z" fill="#cc938b"/><path d="m303.246 219.547v-28.347h-44.19v29.492a24.934 24.934 0 0 0 24.934 24.934h.8a18.458 18.458 0 0 0 18.458-18.458z" fill="#cc938b"/><path d="m11.031 307.587h317.938a0 0 0 0 1 0 0v1.283a17.984 17.984 0 0 1 -17.984 17.984h-281.97a17.984 17.984 0 0 1 -17.984-17.984v-1.283a0 0 0 0 1 0 0z" fill="#95bcf4"/><path d="m151 286.892a171.085 171.085 0 0 1 16.968-23.644c-17.715-13.813-32.689-12.481-42.36-6.792 8.351 3.007 19.946 10.707 25.392 30.436z" fill="#ffd85a"/><path d="m293.41 214.328a3.945 3.945 0 0 0 -.23-.75 3.862 3.862 0 0 0 -.37-.69 3.56 3.56 0 0 0 -.5-.609 4.06 4.06 0 0 0 -.6-.5 4.529 4.529 0 0 0 -.69-.361 4.382 4.382 0 0 0 -.75-.229 3.743 3.743 0 0 0 -1.57 0 4.028 4.028 0 0 0 -.74.229 3.722 3.722 0 0 0 -.69.361 4.148 4.148 0 0 0 -.61.5 4.1 4.1 0 0 0 -.5.609 4.033 4.033 0 0 0 -.6 1.44 4.381 4.381 0 0 0 0 1.56 4.033 4.033 0 0 0 .6 1.44 4.222 4.222 0 0 0 .5.611 3.685 3.685 0 0 0 .61.489 3.232 3.232 0 0 0 .69.37 3.887 3.887 0 0 0 .74.231 4.311 4.311 0 0 0 .79.08 4 4 0 0 0 1.53-.311 3.828 3.828 0 0 0 .69-.37 3.608 3.608 0 0 0 .6-.489 3.652 3.652 0 0 0 .5-.611 3.8 3.8 0 0 0 .37-.69 3.859 3.859 0 0 0 .23-.75 3.842 3.842 0 0 0 0-1.56z" fill="#232935"/><path d="m150.46 307.587 4.664-31.899-5.48-.801-4.78 32.7z" fill="#ffd85a"/><path d="m267.458 252.849-6.349-8.123-49.487 13.1-9.475 5.79c2.66 10.12 15.663 20.956 31.845 20.333 33.466-1.286 33.466-31.099 33.466-31.1z" fill="#a56262"/><path d="m309.835 184.7a14.642 14.642 0 0 1 10.615 14.641s-1.83 16.106-17.2 17.2v-5.301c.224-6.8-6.637-14.825-14.824-14.825h-2.289c-14.681 0-22.577 17.044-13.764 27.964a5.514 5.514 0 0 1 1.168 4.692 7.993 7.993 0 0 1 -4.509 5.782 3.393 3.393 0 0 0 -1.878 3.789c1.439 6.987 2.988 24.249-13.656 33.9a34.672 34.672 0 0 1 -22.129 4.194c-10.15-1.4-24.276-6.76-29.052-25.146a16.855 16.855 0 0 1 18.98-20.842q.52.089 1.058.2s-4.758-18.057 15.008-23.182c0 0-15.374-34.041 19.4-40.264 0 0 12.08-21.6 31.114-7.687-.004-.004 25.985-2.932 21.958 24.885z" fill="#343c49"/><g fill="#a56262"><path d="m266.532 290.085 6.369 11.671a17.715 17.715 0 0 0 1.08-8.063l-5.915-4.875a1.013 1.013 0 0 0 -1.534 1.267z"/><path d="m237.84 307.587a8.651 8.651 0 0 1 -5.277-8.506 10.422 10.422 0 0 1 2.362-6.335.722.722 0 0 0 -.906-1.079c-3.9 1.967-5.649 6.215-6.335 8.521a9.64 9.64 0 0 1 -2.742 4.394 10.626 10.626 0 0 1 -7.2 2.928h10.17c0 .016.007.03.011.045z"/><path d="m91.539 234.148a89.516 89.516 0 0 1 9.9-14.123c14.217 1.293 13.57-15.832 13.57-15.832-.646-8.4 4.2-17.124 4.2-17.124a12.975 12.975 0 0 0 1.171-6.753 4.781 4.781 0 0 0 -8.3-2.527 491.076 491.076 0 0 0 -50.625 66.888 201.04 201.04 0 0 0 28.017-2.908 17.98 17.98 0 0 1 2.067-7.621z"/></g></svg>