<svg id="Flat" height="512" viewBox="0 0 340 340" width="512" xmlns="http://www.w3.org/2000/svg"><path d="m177.542 17.542h-15.084v304.916h15.084a152.458 152.458 0 0 0 0-304.916z" fill="#e87b40"/><circle cx="162.458" cy="170" fill="#ffb664" r="152.458"/><path d="m132.421 319.493 179.53-179.53a151.76 151.76 0 0 0 -28.908-63.25l-213.871 213.872a151.787 151.787 0 0 0 63.249 28.908z" fill="#fff4e1"/><path d="m33.188 250.843 210.112-210.113a151.558 151.558 0 0 0 -44.4-18.795l-184.5 184.5a151.585 151.585 0 0 0 18.788 44.408z" fill="#fff4e1"/><g fill="#e87b40"><path d="m314.593 179.831q.27-4.254.308-8.567h-33.48c0-.421.015-.842.015-1.264a118.824 118.824 0 0 0 -6.349-38.438l15.682-5.991a4.284 4.284 0 1 0 -3.056-8l-15.683 5.991a118.982 118.982 0 0 0 -19.846-31.679l23.72-23.72q-2.863-3.189-5.9-6.215l-23.691 23.689a119.31 119.31 0 0 0 -31.4-22.448l6.858-15.335a4.284 4.284 0 1 0 -7.821-3.5l-6.85 15.334a118.492 118.492 0 0 0 -40.353-8.581v-33.507q-2.135-.058-4.284-.062t-4.283.062v33.511a118.613 118.613 0 0 0 -34.155 6.261l-5.991-15.683a4.283 4.283 0 1 0 -8 3.056l5.99 15.683a119.131 119.131 0 0 0 -37.41 25.211l-23.702-23.695q-3.038 3.022-5.9 6.215l23.729 23.728a119.219 119.219 0 0 0 -17.093 25.657l-15.336-6.858a4.284 4.284 0 0 0 -3.5 7.821l15.331 6.856a118.638 118.638 0 0 0 -8.663 44.637c0 .423.022.842.027 1.264h-33.491q.034 4.314.308 8.567h33.56a118.46 118.46 0 0 0 5.946 28.607l-15.683 5.991a4.284 4.284 0 1 0 3.057 8l15.683-5.991a119.1 119.1 0 0 0 25.213 37.413l-23.7 23.695q3.023 3.038 6.216 5.9l23.728-23.729a119.137 119.137 0 0 0 25.656 17.094l-6.858 15.335a4.283 4.283 0 1 0 7.82 3.5l6.856-15.331a118.5 118.5 0 0 0 40.354 8.581v33.5q2.136.06 4.283.063t4.284-.063v-33.507a118.64 118.64 0 0 0 34.155-6.26l5.99 15.682a4.284 4.284 0 1 0 8-3.056l-5.984-15.684a118.962 118.962 0 0 0 31.68-19.846l23.72 23.721q3.188-2.865 6.215-5.9l-23.693-23.693a119.28 119.28 0 0 0 22.447-31.4l15.336 6.858a4.284 4.284 0 0 0 3.5-7.821l-15.331-6.856a118.357 118.357 0 0 0 8.256-34.806zm-152.135 93.785a103.616 103.616 0 1 1 103.617-103.616 103.616 103.616 0 0 1 -103.617 103.616z"/><path d="m161.269 82.919a75.543 75.543 0 0 0 -12.1 2.307s-29.92 6.83-30.169 44.774a9.283 9.283 0 0 0 2.4 6.282 6.316 6.316 0 0 1 .291 8.125l-.605.773a9.516 9.516 0 0 0 -2.008 6.33 102.551 102.551 0 0 0 4.137 24.026l6.952-2.52a9.416 9.416 0 0 0 5.818-6.172l2.454-8.262 7.958 10.034 4.248-1.465a10.286 10.286 0 0 0 6.792-8.031l.736-4.416a6.822 6.822 0 0 1 5.016-5.5 50.863 50.863 0 0 1 16.288-1.352 20.18 20.18 0 0 0 19.032-10.152 34.752 34.752 0 0 0 2.77-6.379c8.305-25.677-13.161-51.144-40.01-48.402zm-3.262 35.081c-.223 3.823-1.368 8.576-5.132 11.986a10.8 10.8 0 0 1 -13.3 1.19 7.411 7.411 0 0 1 -3.414-6.563c.16-8.131 2-11.754 2-11.754a14.381 14.381 0 0 1 5.1-5.549 8.857 8.857 0 0 1 10.747.981 12.225 12.225 0 0 1 3.999 9.709z"/><path d="m203.581 208.676a11.784 11.784 0 0 0 4.448 1.318c8.858.725 10.223-12.712 1.421-13.942-.345-.048-.7-.089-1.073-.122 0 0 2.022-9.241-5-13.463a6.994 6.994 0 0 0 -7.968.467 11.043 11.043 0 0 0 -4.063 8.3 7.835 7.835 0 0 1 -3.837 6.2 409.229 409.229 0 0 0 -46.659 32.722 8.571 8.571 0 0 1 -9.058 1.125 17.169 17.169 0 0 0 -5.873-1.615c-6.051-.494-10.881 5.4-8.707 11.069.962 2.509 3.19 4.693 7.858 5.259 0 0 .032.181.114.491 2.428 9.11 15.53 8.881 17.739-.284.018-.074.035-.147.051-.222a8.5 8.5 0 0 1 3.265-4.928c8.068-6 31.271-22.914 48.812-32.408a9.085 9.085 0 0 1 8.53.033z"/><path d="m129.4 216.984a11.762 11.762 0 0 1 -4.168 2.036c-8.615 2.181-12.187-10.844-3.71-13.514q.5-.157 1.038-.3s-3.524-8.779 2.7-14.1a6.993 6.993 0 0 1 7.936-.859 11.046 11.046 0 0 1 5.38 7.512 7.836 7.836 0 0 0 4.811 5.479 409.288 409.288 0 0 1 51.433 24.544 8.569 8.569 0 0 0 9.119-.39 17.145 17.145 0 0 1 5.524-2.564c5.886-1.49 11.626 3.523 10.42 9.474-.533 2.634-2.369 5.157-6.879 6.488 0 0 0 .184-.031.5-.886 9.386-13.845 11.329-17.541 2.656q-.045-.1-.087-.21a8.494 8.494 0 0 0 -4.036-4.319c-8.949-4.579-34.633-17.42-53.5-23.88a9.086 9.086 0 0 0 -8.409 1.447z"/><path d="m103.576 178.945-7.767-5.179 6.543-6.857a3.807 3.807 0 0 0 -5.509-5.257l-7.466 7.824-8.8-5.87a3.808 3.808 0 0 0 -4.225 6.336l7.69 5.127-6.573 6.888a3.807 3.807 0 1 0 5.508 5.257l7.5-7.855 8.879 5.922a3.808 3.808 0 0 0 4.225-6.336z"/><path d="m248.19 174.742h-.858a2.759 2.759 0 0 1 -2.756-2.756v-22.386h3.614a3.332 3.332 0 0 0 0-6.663h-25.967a3.332 3.332 0 0 0 0 6.663h2.091a2.76 2.76 0 0 1 2.756 2.756v22.387h-4.115a3.332 3.332 0 1 0 0 6.663h25.235a3.332 3.332 0 0 0 0-6.663zm-14.871-25.142h4.594v22.387a9.4 9.4 0 0 0 .413 2.756h-4.593v-22.388a9.375 9.375 0 0 0 -.414-2.755z"/></g></svg>