<svg id="Flat" height="512" viewBox="0 0 340 340" width="512" xmlns="http://www.w3.org/2000/svg"><path d="m141.424 77.941h17.845v139.531h-17.845z" fill="#dae5f7" transform="matrix(.707 -.707 .707 .707 -60.409 149.573)"/><path d="m236.226 185.258-13.043 13.042-13.761-13.762a8.336 8.336 0 0 0 -11.788 0l-10.456 10.456a8.334 8.334 0 0 0 0 11.787l13.762 13.762-13.04 13.043a21.167 21.167 0 0 0 0 29.934l13.432 13.432 2.8 2.8 49.5 49.5 2.85-2.85a12.748 12.748 0 0 0 0-18.028l-53.7-53.7a7.231 7.231 0 0 1 0-10.226l.066-.066a7.231 7.231 0 0 1 10.226 0l62.711 62.711 2.85-2.849a12.748 12.748 0 0 0 0-18.028l-53.7-53.7a7.231 7.231 0 0 1 0-10.226 7.231 7.231 0 0 1 10.226 0l62.706 62.71 2.85-2.85a12.747 12.747 0 0 0 0-18.027l-53.7-53.7a7.231 7.231 0 0 1 0-10.226l.066-.066a7.231 7.231 0 0 1 10.226 0l62.711 62.711 2.85-2.849a12.748 12.748 0 0 0 0-18.028l-40.48-40.478-2.8-2.8-13.43-13.429a21.167 21.167 0 0 0 -29.934 0z" fill="#a6caf7"/><path d="m111.552 96.294-19.653-19.653-12.618 12.618 15.856 15.856z" fill="#8294b9"/><path d="m49.124 15.208 10.951 7.633c20.742 12.445 9.585 44.179 9.585 44.179s-31.734 11.157-44.179-9.585l-7.633-10.951s-10.948 9.624 1.493 22.069l5.459 5.457a38.2 38.2 0 0 0 30.9 11.206q.726-.076 1.469-.18a17.377 17.377 0 0 1 6.684.366s10.819.068 17.54-6.653 6.653-17.54 6.653-17.54a17.381 17.381 0 0 1 -.366-6.685q.1-.742.18-1.468a38.2 38.2 0 0 0 -11.206-30.9l-5.461-5.456c-12.445-12.444-22.069-1.492-22.069-1.492z" fill="#f4737d"/><path d="m57.794 13.8c-.09-.058-.182-.116-.274-.172a8.113 8.113 0 0 0 -9.941 1.282l-15.014 15.015-15.014 15.014a8.113 8.113 0 0 0 -1.282 9.941c.057.092.114.184.172.274a13.116 13.116 0 0 0 20.3 2.09l11.572-11.572 11.571-11.572a13.116 13.116 0 0 0 -2.09-20.3z" fill="#474756"/><path d="m94.151 70.619-1.78-1.779a16.56 16.56 0 0 1 -4.326-7.632 35.041 35.041 0 0 1 -24.2 24.2 16.56 16.56 0 0 1 7.632 4.326l1.779 1.78a5.716 5.716 0 0 0 8.083 0l6.405-6.4 6.4-6.405a5.716 5.716 0 0 0 .007-8.09z" fill="#bf454f"/></svg>