<svg id="flat" height="512" viewBox="0 0 340 340" width="512" xmlns="http://www.w3.org/2000/svg"><path d="m212.523 260.9h101.647a13.021 13.021 0 0 0 12.93-14.716c-1.755-13.107-7.795-31.071-27.246-36.808 0 0-2.435-15.1-16.1-21.147-16.063-7.112-34.458 3.41-37.41 20.728a44.14 44.14 0 0 0 -.542 4.77s-21.073-2.386-26.916 23.59a36.909 36.909 0 0 1 -8.855 16.988l-.216.232a3.763 3.763 0 0 0 2.708 6.363z" fill="#a2cbfc"/><path d="m24.623 70.687h71.455a11.023 11.023 0 0 0 10.939-12.252c-1.755-16.135-9.055-42.484-38.007-42.484 0 0-25.652-1.987-36.672 27.368a22.6 22.6 0 0 0 -16.969 10.387 11.01 11.01 0 0 0 9.254 16.981z" fill="#a2cbfc"/><path d="m20.493 288.411q0 5.015.182 9.985h38.078c0-20.282 0-50.9 0-50.9a243.875 243.875 0 0 1 130.836-176.809 239.825 239.825 0 0 1 35.254-14.387 243.449 243.449 0 0 1 74.057-11.462 260.549 260.549 0 0 1 30.309 2.109v-35.289a280.9 280.9 0 0 0 -30.309-1.658c-153.758 0-278.407 124.649-278.407 278.411z" fill="#f9628d"/><path d="m224.843 56.3a239.825 239.825 0 0 0 -35.254 14.385 243.878 243.878 0 0 0 -130.836 176.808v50.9h32.517l3.91-63.849c23.801-90.254 105.991-156.805 203.72-156.805a212.433 212.433 0 0 1 30.313 2.161v-33.2a245.49 245.49 0 0 0 -104.37 9.6z" fill="#fcbe7a"/><path d="m95.18 234.547 2.187 63.853h27.01v-55.9a180.675 180.675 0 0 1 204.836-131.976v-30.624a212.433 212.433 0 0 0 -30.313-2.161c-97.729 0-179.919 66.551-203.72 156.808z" fill="#95e8c5"/><path d="m124.377 242.493v55.9h26.915c-.221-3.3-.344-6.628-.344-9.985a147.994 147.994 0 0 1 178.265-144.824v-33.06a180.675 180.675 0 0 0 -204.836 131.969z" fill="#90a3e0"/><path d="m150.948 288.411a148.11 148.11 0 0 1 5.043-38.4 71.913 71.913 0 0 0 -26.063-24.97 179.1 179.1 0 0 0 -5.551 17.452v55.9h26.915c-.221-3.293-.344-6.625-.344-9.982z" fill="#6b84c1"/><path d="m124.377 242.493a179.1 179.1 0 0 1 5.551-17.452 69.51 69.51 0 0 0 -29.162-8.353q-3.171 8.757-5.586 17.859c-5.631 13.545-1.8 38.6 2.187 63.849h27.01z" fill="#76cca5"/><path d="m95.18 234.547q2.4-9.1 5.586-17.859a97.262 97.262 0 0 0 -30.573 3.147c-1.861.473-3.7 1.019-5.518 1.622a241.894 241.894 0 0 0 -5.922 26.036v50.9h32.517z" fill="#e89d54"/><path d="m58.753 298.4c0-20.282 0-50.9 0-50.9a241.652 241.652 0 0 1 5.921-26.036 72.682 72.682 0 0 0 -28.564 17.302 76.5 76.5 0 0 0 -13.908 18.8 281.538 281.538 0 0 0 -1.709 30.845q0 5.015.182 9.985z" fill="#d84878"/><path d="m20.407 330h204.329a9.631 9.631 0 0 0 9.181-12.518c-3.293-10.563-11.6-24.266-32.568-26.163a16.354 16.354 0 0 1 -13.491-9.39c-4.315-9.526-15.94-22.41-47.181-19.229 0 0-15.262-36.784-61.149-25.127a50.534 50.534 0 0 0 -23.336 12.962 49.947 49.947 0 0 0 -14.949 32.11s-26.211 5.463-30.368 36.381a9.648 9.648 0 0 0 9.532 10.974z" fill="#a2cbfc"/></svg>