<svg id="flat" height="512" viewBox="0 0 340 340" width="512" xmlns="http://www.w3.org/2000/svg"><path d="m309.417 30.583s-106.14 17.232-183.871 94.963-88.316 177.224-88.316 177.224 81.155-28.923 158.886-106.654 113.301-165.533 113.301-165.533z" fill="#ffb655"/><path d="m214.454 214.454c77.731-77.731 94.963-183.871 94.963-183.871l-272.187 272.187s99.493-10.585 177.224-88.316z" fill="#e87b31"/><g fill="#3c3c4f"><circle cx="260.726" cy="79.274" r="9.963"/><path d="m96.425 258.163a2.99 2.99 0 0 1 -.878-2.121v-29.177a3 3 0 0 1 6 0v29.177a3 3 0 0 1 -5.121 2.121z"/><path d="m81.837 243.575a3 3 0 0 1 2.121-5.121h29.177a3 3 0 0 1 0 6h-29.177a2.99 2.99 0 0 1 -2.121-.879z"/><path d="m60.332 268.138a3 3 0 0 1 2.121-5.121h23.061a3 3 0 1 1 0 6h-23.061a2.986 2.986 0 0 1 -2.121-.879z"/><path d="m71.862 279.668a2.986 2.986 0 0 1 -.878-2.121v-23.061a3 3 0 1 1 6 0v23.061a3 3 0 0 1 -5.121 2.121z"/><path d="m62.528 276.712a3.117 3.117 0 0 0 -3.95.467l-22.987 22.987a3 3 0 0 0 0 4.243 3 3 0 0 0 4.243 0l23.107-23.109a3 3 0 0 0 -.413-4.588z"/><path d="m306.274 29.484-46.549 46.548a3.114 3.114 0 0 0 -.23 4.246 3 3 0 0 0 4.353.117l46.668-46.669a3 3 0 0 0 0-4.242 3 3 0 0 0 -4.242 0z"/><path d="m196.116 196.116c20.567-20.567 35.256-45.8 36.719-48.417a23.676 23.676 0 0 0 -3.908-28.306l-8.32-8.32a23.676 23.676 0 0 0 -28.306-3.908 240.99 240.99 0 0 0 -48.417 36.719c-21.495 21.5-34.563 41.205-35.348 42.49a23.662 23.662 0 0 0 3.472 29.062l12.556 12.556a23.662 23.662 0 0 0 29.062 3.472 305.571 305.571 0 0 0 42.49-35.348z"/></g><path d="m27.153 26.71h35.756a26.891 26.891 0 0 1 26.891 26.89 26.891 26.891 0 0 1 -26.891 26.892h-35.756a9.752 9.752 0 0 1 -9.753-9.752v-34.278a9.752 9.752 0 0 1 9.753-9.752z" fill="#90a3e0" transform="matrix(.707 .707 -.707 .707 53.601 -22.202)"/><path d="m259.952 259.508h35.756a26.891 26.891 0 0 1 26.892 26.892 26.891 26.891 0 0 1 -26.891 26.891h-35.757a9.752 9.752 0 0 1 -9.752-9.752v-34.279a9.752 9.752 0 0 1 9.752-9.752z" fill="#90a3e0" transform="matrix(-.707 -.707 .707 -.707 286.399 691.429)"/><path d="m280.824 270.376-211.2-211.2a7.388 7.388 0 0 0 -10.448 10.448l211.2 211.2a7.388 7.388 0 1 0 10.448-10.448z" fill="#e3e7fc"/></svg>