<svg id="Flat" height="512" viewBox="0 0 340 340" width="512" xmlns="http://www.w3.org/2000/svg"><circle cx="279.947" cy="70.142" fill="#ff7a4e" r="29.517"/><path d="m196.625 109.713 17.561 45.526h-160.986l-19.085-45.526z" fill="#fff"/><path d="m199.301 116.651-2.676-6.937h-162.51l9.84 23.473z" fill="#e6e6e6"/><path d="m86.573 140.888h-15.28l-7-17.717h15.28z" fill="#313847"/><path d="m119.571 140.888h-15.281l-7-17.717h15.281z" fill="#313847"/><path d="m152.568 140.888h-15.28l-7-17.717h15.28z" fill="#313847"/><path d="m185.566 140.888h-15.281l-7-17.717h15.281z" fill="#313847"/><g fill="#ff7a4e"><path d="m279.95 26.09a4.227 4.227 0 0 1 -.79-.081 4.318 4.318 0 0 1 -1.431-.589 4.47 4.47 0 0 1 -.609-.5 4.169 4.169 0 0 1 -.5-.611 4.435 4.435 0 0 1 -.37-.689 3.906 3.906 0 0 1 -.23-.75 4.14 4.14 0 0 1 -.081-.78 4.058 4.058 0 0 1 .081-.781 3.7 3.7 0 0 1 .23-.75 4.528 4.528 0 0 1 .37-.689 4.222 4.222 0 0 1 .5-.611 4 4 0 0 1 3.609-1.089 4.248 4.248 0 0 1 .75.219 4.725 4.725 0 0 1 .691.37 5.106 5.106 0 0 1 .61.5 4 4 0 0 1 -.01 5.661 5 5 0 0 1 -.6.5 4.67 4.67 0 0 1 -.691.36 4.211 4.211 0 0 1 -.75.229 4.112 4.112 0 0 1 -.779.081z"/><path d="m279.95 122.19a4.212 4.212 0 0 1 -.79-.07 4.874 4.874 0 0 1 -.74-.231 3.673 3.673 0 0 1 -.691-.37 3.628 3.628 0 0 1 -.609-.5 4.022 4.022 0 0 1 -.5-.6 4.176 4.176 0 0 1 -.37-.7 3.813 3.813 0 0 1 -.23-.74 3.974 3.974 0 0 1 .23-2.319 4.548 4.548 0 0 1 .37-.691 4.022 4.022 0 0 1 .5-.6 3.96 3.96 0 0 1 .6-.5 3.468 3.468 0 0 1 .7-.37 4.035 4.035 0 0 1 .74-.231 4.182 4.182 0 0 1 1.569 0 4.392 4.392 0 0 1 .75.231 3.683 3.683 0 0 1 .691.37 4 4 0 0 1 1.78 3.33 4.119 4.119 0 0 1 -.08.779 4.032 4.032 0 0 1 -.23.74 3.608 3.608 0 0 1 -.37.7 3.5 3.5 0 0 1 -.5.6 3.448 3.448 0 0 1 -.6.5 4.372 4.372 0 0 1 -.691.37 5.377 5.377 0 0 1 -.75.231 4.1 4.1 0 0 1 -.779.071z"/><path d="m328 74.139a4.041 4.041 0 0 1 -.78-.08 3.9 3.9 0 0 1 -.75-.229 4.483 4.483 0 0 1 -.69-.361 4.679 4.679 0 0 1 -.61-.5 4.15 4.15 0 0 1 -.5-.609 3.749 3.749 0 0 1 -.36-.69 3.875 3.875 0 0 1 -.23-.75 3.447 3.447 0 0 1 -.08-.781 3.906 3.906 0 0 1 1.78-3.319 4.059 4.059 0 0 1 1.44-.6 3.992 3.992 0 0 1 4.78 3.92 4.131 4.131 0 0 1 -.08.781 3.809 3.809 0 0 1 -.231.75 3.738 3.738 0 0 1 -.37.69 3.538 3.538 0 0 1 -.489.609 4.06 4.06 0 0 1 -2.83 1.169z"/><path d="m231.89 74.139a4.023 4.023 0 0 1 -2.821-1.17 3.656 3.656 0 0 1 -.5-.609 3.922 3.922 0 0 1 -.369-.69 3.875 3.875 0 0 1 -.23-.75 4.049 4.049 0 0 1 -.08-.781 4.127 4.127 0 0 1 .08-.779 3.791 3.791 0 0 1 .23-.75 3.852 3.852 0 0 1 .369-.69 4.226 4.226 0 0 1 .491-.611 4.008 4.008 0 0 1 5.66 0 4.289 4.289 0 0 1 .5.611 4.007 4.007 0 0 1 .6 1.44 4.047 4.047 0 0 1 .08.779 3.972 3.972 0 0 1 -.08.781 4.007 4.007 0 0 1 -.6 1.44 4.164 4.164 0 0 1 -.5.609 4.026 4.026 0 0 1 -2.83 1.17z"/><path d="m313.93 40.16a3.525 3.525 0 0 1 -.79-.08 3.954 3.954 0 0 1 -.741-.22 3.835 3.835 0 0 1 -.689-.37 3.745 3.745 0 0 1 -.61-.5 4 4 0 0 1 -1.17-2.83 3.8 3.8 0 0 1 .3-1.53 3.862 3.862 0 0 1 .371-.69 4.313 4.313 0 0 1 1.1-1.1 3.651 3.651 0 0 1 .7-.371 4.062 4.062 0 0 1 .741-.229 4.006 4.006 0 0 1 3.61 1.1 3.2 3.2 0 0 1 .5.6 3.857 3.857 0 0 1 .37.69 4.99 4.99 0 0 1 .23.75 4.19 4.19 0 0 1 .07.78 4.123 4.123 0 0 1 -.07.78 4.659 4.659 0 0 1 -.23.75 3.6 3.6 0 0 1 -.37.69 3.4 3.4 0 0 1 -.5.61 4.207 4.207 0 0 1 -.6.5 4.266 4.266 0 0 1 -.7.37 3.922 3.922 0 0 1 -.74.22 3.509 3.509 0 0 1 -.782.08z"/><path d="m245.97 108.12a4.012 4.012 0 1 1 2.82-1.17 4.264 4.264 0 0 1 -.6.5 3.733 3.733 0 0 1 -.689.359 3.363 3.363 0 0 1 -.75.231 3.509 3.509 0 0 1 -.781.08z"/><path d="m313.93 108.12a4.142 4.142 0 0 1 -.79-.08 3.919 3.919 0 0 1 -.741-.231 3.678 3.678 0 0 1 -.689-.359 4.348 4.348 0 0 1 -.61-.5 4.021 4.021 0 0 1 -1.17-2.83 4.107 4.107 0 0 1 .07-.78 3.985 3.985 0 0 1 .6-1.44 3.528 3.528 0 0 1 .5-.61 3.579 3.579 0 0 1 .6-.491 3.7 3.7 0 0 1 .7-.37 3.968 3.968 0 0 1 4.351.861 3.623 3.623 0 0 1 .5.61 3.857 3.857 0 0 1 .37.69 4.659 4.659 0 0 1 .23.75 4.381 4.381 0 0 1 0 1.56 4.659 4.659 0 0 1 -.23.75 3.927 3.927 0 0 1 -.37.69 3.4 3.4 0 0 1 -.5.61 5 5 0 0 1 -.6.5 4.074 4.074 0 0 1 -.7.359 3.887 3.887 0 0 1 -.74.231 4.138 4.138 0 0 1 -.781.08z"/><path d="m245.97 40.16a3.452 3.452 0 0 1 -.781-.08 3.849 3.849 0 0 1 -.75-.22 4.249 4.249 0 0 1 -.689-.37 3.7 3.7 0 0 1 -.61-.5 4.008 4.008 0 0 1 0-5.66 3.551 3.551 0 0 1 .61-.49 3.6 3.6 0 0 1 .689-.371 3.943 3.943 0 0 1 .75-.229 3.992 3.992 0 0 1 4.781 3.92 4 4 0 0 1 -1.18 2.83 3.677 3.677 0 0 1 -.6.5 4.611 4.611 0 0 1 -.689.37 4.019 4.019 0 0 1 -.75.22 3.509 3.509 0 0 1 -.781.08z"/></g><path d="m210.491 109.713h-182.44a12.364 12.364 0 0 1 -11.375-7.513l-4.8-11.258h183.024a12.366 12.366 0 0 1 11.586 8.045z" fill="#7c93bf"/><path d="m8 155.239h210.891a36.69 36.69 0 0 1 33.506 21.74l12.433 27.867s-186.6 22.133-234.3 7.251l-4.52-32.851a10.123 10.123 0 0 0 -10.029-8.746h-7.981z" fill="#e6e6e6"/><path d="m123.473 216.518c18.452-.595 37.08-1.683 54.055-2.905l-9.117-32.975a13.818 13.818 0 0 0 -13.318-10.138h-44.343z" fill="#313847"/><path d="m193.976 212.351c30.239-2.458 51.992-4.974 51.992-4.974l-8.9-21.826a23.6 23.6 0 0 0 -22.244-15.051h-32.419z" fill="#313847"/><path d="m84.009 170.5h-41.129l6.39 44.337c16.386 1.9 36.74 2.391 58.085 2.066l-10.028-36.265a13.817 13.817 0 0 0 -13.318-10.138z" fill="#313847"/><path d="m8 264.131h320v57.779h-320z" fill="#95bcf4"/><path d="m13.359 207.517s185.526 10.7 288.18-16.187a6.2 6.2 0 0 1 7.489 7.819c-5.179 16.889-18.809 49.387-49.922 64.982h-225.141s-19.08-19.217-20.606-56.614z" fill="#fff"/><path d="m33.965 264.131h225.141c25.684-12.874 39.453-37.265 46.39-54.887a184.694 184.694 0 0 1 -29.134 15.138c-38.715 16.158-81.193 21.137-122.747 15.37-17.264-2.4-31.627-3.964-41.791-4.939a240.547 240.547 0 0 0 -46.164-.081c-23.945 2.32-36.888 7.253-43.481 10.907 5.607 12.261 11.786 18.492 11.786 18.492z" fill="#7c93bf"/><path d="m8 264.131h320v20.518h-320z" fill="#cce3ff"/><path d="m171.262 279.371h-15.362a3.662 3.662 0 0 1 0-7.324h15.36a3.662 3.662 0 1 1 0 7.324z" fill="#fff"/><path d="m276.291 279.371h-19.023a3.662 3.662 0 0 1 0-7.324h19.023a3.662 3.662 0 0 1 0 7.324z" fill="#fff"/><path d="m214.8 279.371h-4.374a3.662 3.662 0 0 1 0-7.324h4.374a3.662 3.662 0 1 1 0 7.324z" fill="#fff"/><path d="m205.176 306.822h31.777a4 4 0 0 0 0-8h-31.777a4 4 0 0 0 0 8z" fill="#fff"/><path d="m107.24 306.822h15.777a4 4 0 0 0 0-8h-15.777a4 4 0 0 0 0 8z" fill="#fff"/><path d="m165.368 306.822h8.778a4 4 0 0 0 0-8h-8.778a4 4 0 0 0 0 8z" fill="#fff"/><path d="m278.981 307.072h-1.781a4 4 0 0 1 0-8h1.777a4 4 0 0 1 0 8z" fill="#fff"/></svg>