<svg id="Flat" height="512" viewBox="0 0 340 340" width="512" xmlns="http://www.w3.org/2000/svg"><path d="m240.152 153.2s32.561 1.778 56.936-25.044l14.109 7.088a15.477 15.477 0 0 1 7.356 19.848 76.7 76.7 0 0 0 -5.512 22.442 84.132 84.132 0 0 0 2.785 30.676c7.423 27.026 22.02 107.877-70.705 103.286l-14.649-26.453s88.855 16.358 59.091-69.338c0 0-10.18-28.553 1.986-51.643 0 0-16.392 17.36-51.4 15.945z" fill="#96aef4"/><path d="m76.279 304.5v-196.925a8.993 8.993 0 0 1 8.993-8.994h145.886a8.994 8.994 0 0 1 8.994 8.994v196.925z" fill="#bc5e66"/><path d="m76.279 139.1c9.948-.429 26.7-4.036 34.993-22.305 0 0 16.474-.624 19.153-18.218h-45.153a8.993 8.993 0 0 0 -8.993 8.994z" fill="#75212c"/><path d="m240.152 107.575a8.994 8.994 0 0 0 -8.994-8.994h-27.723v150.077a21.152 21.152 0 0 1 -21.153 21.152h-106v34.69h163.87z" fill="#75212c"/><path d="m105.36 98.581h10v205.917h-10z" fill="#75212c"/><path d="m138.591 98.581h10v205.917h-10z" fill="#75212c"/><path d="m170.202 98.581h10v205.917h-10z" fill="#75212c"/><path d="m76.279 162.664h163.873v35.842h-163.873z" fill="#75212c"/><path d="m175.177 66.736c-12.768-24.752-40.955-13.22-40.955-13.22s-7.032-18.564-34.6-16.032c-26.606 2.443-27.561 32.065-27.561 32.065-21.261 3.209-26.934 16.608-28.436 24.03l7.918 22.421c26.015 6.811 44.488-1.347 57.4-20.536l129.557-3.714v-15.764c-2.487-2.646-6.375-4.718-12.3-5.594 0 0-4.36-19.548-24.893-19.548s-26.13 15.892-26.13 15.892z" fill="#ffdb87"/><circle cx="47.357" cy="39.285" fill="#ffdb87" r="15.389"/><circle cx="245.854" cy="24.154" fill="#ffb94d" r="12.92"/><path d="m269.761 66.976a4 4 0 0 1 -4-4v-3.654a4 4 0 0 1 8 0v3.654a4 4 0 0 1 -4 4z" fill="#ffdb87"/><path d="m269.761 89.772a4 4 0 0 1 -4-4v-3.653a4 4 0 1 1 8 0v3.653a4 4 0 0 1 -4 4z" fill="#ffdb87"/><path d="m282.986 76.548h-3.654a4 4 0 0 1 0-8h3.654a4 4 0 0 1 0 8z" fill="#ffdb87"/><path d="m260.19 76.548h-3.654a4 4 0 0 1 0-8h3.654a4 4 0 0 1 0 8z" fill="#ffdb87"/><path d="m38.713 145.731a4 4 0 0 1 -2.828-6.828l2.584-2.584a4 4 0 0 1 5.656 5.656l-2.584 2.584a3.982 3.982 0 0 1 -2.828 1.172z" fill="#ffb94d"/><path d="m22.594 161.85a4 4 0 0 1 -2.829-6.828l2.583-2.584a4 4 0 1 1 5.658 5.656l-2.583 2.584a3.985 3.985 0 0 1 -2.829 1.172z" fill="#ffb94d"/><path d="m41.3 161.85a3.982 3.982 0 0 1 -2.828-1.172l-2.584-2.584a4 4 0 1 1 5.656-5.656l2.584 2.584a4 4 0 0 1 -2.828 6.828z" fill="#ffb94d"/><path d="m25.177 145.731a3.983 3.983 0 0 1 -2.829-1.172l-2.583-2.584a4 4 0 0 1 5.658-5.656l2.583 2.584a4 4 0 0 1 -2.829 6.828z" fill="#ffb94d"/><path d="m203.344 145.478h-127.065a9.165 9.165 0 0 0 -9.166 9.166v16.2a9.166 9.166 0 0 0 9.166 9.166h127.065z" fill="#d2e8ff"/><path d="m203.344 294.233h-127.206a9.1 9.1 0 0 0 -9.025 9.166v16.2a9.1 9.1 0 0 0 9.025 9.166h127.206z" fill="#d2e8ff"/><g fill="#96aef4"><path d="m249.318 154.644a9.166 9.166 0 0 0 -9.166-9.166h-36.808v34.532h36.808a9.166 9.166 0 0 0 9.166-9.166z"/><path d="m249.318 303.4a9.166 9.166 0 0 0 -9.166-9.166h-36.808v34.532h36.808a9.166 9.166 0 0 0 9.166-9.166z"/><circle cx="90.295" cy="311.687" r="4.713"/><circle cx="158.215" cy="311.687" r="4.713"/><circle cx="90.295" cy="162.664" r="4.713"/><circle cx="158.215" cy="162.664" r="4.713"/></g><path d="m242.34 89.986c.491-4.513-.026-9.93-3.846-14-2.111 9.612-13.428 10.22-13.428 10.22h-97.574a13.9 13.9 0 0 0 -7.3 2.035c-7.64 4.712-14.061 3.178-18.055 1.115a2.952 2.952 0 0 0 -4.283 2.275c-.712 6.165-4.652 15.79-21.676 19.019-17.228 3.271-27.578-8.739-32.551-17.07a23.946 23.946 0 0 0 -.537 5s-2.532 23 24.023 27.784 37.857-19.407 37.857-19.407c9.618.113 15.412-3.735 18.9-8.374h108.817a9.688 9.688 0 0 0 9.653-8.597z" fill="#ffb94d"/><path d="m136.27 67.723a1.7 1.7 0 0 0 2.987 1.29c2.642-3.218 5.367-8.861 4.034-17.765a41.986 41.986 0 0 0 -9.069 2.268 25.7 25.7 0 0 1 2.048 14.207z" fill="#ffb94d"/></svg>