<svg id="icons" height="512" viewBox="0 0 340 340" width="512" xmlns="http://www.w3.org/2000/svg"><path d="m94.825 209.553s-34.263-6.244-64.642 25.366a25.332 25.332 0 0 0 -6.5 22.775c2.859 13.6 9.538 35.309 24.608 51.345 0 0-13.8 2.858-17.207 16.806a3.169 3.169 0 0 0 3.057 3.943h36.924a12.424 12.424 0 0 0 6.314-1.637 7.863 7.863 0 0 0 4.28-6.922s.213-10.98-7.652-13.7a34.576 34.576 0 0 1 2.709-10.41 19.119 19.119 0 0 0 2.056-8.511c-.071-4.275-1.428-10.258-6.58-17.077l36.3-.3h61.508v-27.831s-44.925 10.016-75.175-33.847z" fill="#ffc4b6"/><path d="m244.856 208.494s34.582-5.185 64.961 26.425a25.332 25.332 0 0 1 6.5 22.775c-2.859 13.6-9.538 35.309-24.608 51.345 0 0 14.5 3 17.441 17.867a2.4 2.4 0 0 1 -2.348 2.882h-37.867a12.424 12.424 0 0 1 -6.314-1.637 7.863 7.863 0 0 1 -4.28-6.922s-.213-10.98 7.652-13.7a34.576 34.576 0 0 0 -2.709-10.41 19.119 19.119 0 0 1 -2.056-8.511c.071-4.275 1.428-10.258 6.58-17.077l-36.3-.3h-61.508v-27.831s44.606 8.957 74.856-34.906z" fill="#ffc4b6"/><path d="m289.177 218.541a83.862 83.862 0 0 0 -34.908-11.332 52.178 52.178 0 0 0 -9.149-.112c-20.483 29.7-47.664 35.822-63.085 36.679l-1.29 10.021 5.18 12.937 2.192 4.5h10.193l39.1-23.771c5.462-5.407 8.631-10.538 11.468-14.356a18.014 18.014 0 0 1 12.843-6.469h.135s11.974-.754 21.5 6.6 16.641 1.582 16.641 1.582z" fill="#ea8b7f"/><path d="m94.88 207.094s-20.632-2.263-44.061 11.447l-10.819 16.272s7.119 5.772 16.641-1.582 21.5-6.6 21.5-6.6a24.651 24.651 0 0 1 7.013.951 6.811 6.811 0 0 1 1.127.493 8.35 8.35 0 0 1 2.894 3.106c4.913 7.909 7.21 11.023 11.381 14.971 11.573 9.2 24.836 15.205 47.188 22.219l22.256 2.855v-27.826s-44.869 7.558-75.12-36.306z" fill="#ea8b7f"/><path d="m227.852 236.223-57.852 9.959-57.852-9.959-2.089 40.677s15.265 22.081 59.941 22.081 59.941-22.081 59.941-22.081z" fill="#acb9d4"/><path d="m304.564 226.263c-2.475-10.655-11.584-18.378-11.584-18.378 8.092-24.816 8.014-48.9 7.125-61.833a25.1 25.1 0 0 0 -7.3-16.035l-2.539-2.538c-2.818-2.819-5.488-5.789-8.026-8.862-10.414-12.605-20.818-15.209-23.221-15.659-.869-.163-2.278-.471-3.132-.7-6.889-1.841-14.634-5.515-19.76-8.178a85.669 85.669 0 0 1 -8.749-5.349c-23.578-16.093-57.378-13.17-57.378-13.17s-33.795-2.923-57.383 13.171a85.669 85.669 0 0 1 -8.749 5.349c-5.126 2.663-12.87 6.337-19.76 8.178-.854.228-2.263.536-3.132.7-2.4.45-12.807 3.054-23.221 15.659-2.538 3.073-5.208 6.043-8.026 8.862l-2.539 2.538a25.1 25.1 0 0 0 -7.29 16.034c-.889 12.933-.967 37.017 7.125 61.833 0 0-9.109 7.723-11.584 18.378a7.305 7.305 0 0 0 12.07 7.057c4.249-4.012 11.785-9.611 21.839-11.057a9.51 9.51 0 0 0 5.209-16.274c-.454-.434-.947-.883-1.481-1.339a16.5 16.5 0 0 1 -5.778-13.908c.678-8.016 3.275-20.425 11.54-35.627a14.721 14.721 0 0 1 1.707.5 20.919 20.919 0 0 1 12.259 11.7c1.641 3.9 5.046 10.118 10.961 13.25a29.731 29.731 0 0 0 -1.968 5.333 19.815 19.815 0 0 0 3.482 17.27c7.829 10.212 26.6 27.25 64.718 27.25s56.889-17.038 64.718-27.25a19.815 19.815 0 0 0 3.482-17.27 29.731 29.731 0 0 0 -1.968-5.333c5.915-3.132 9.319-9.346 10.961-13.25a20.919 20.919 0 0 1 12.259-11.7 14.748 14.748 0 0 1 1.706-.5c8.266 15.2 10.863 27.611 11.541 35.627a16.5 16.5 0 0 1 -5.772 13.908c-.534.456-1.027.905-1.481 1.339a9.51 9.51 0 0 0 5.209 16.274c10.054 1.446 17.59 7.045 21.839 11.057a7.305 7.305 0 0 0 12.07-7.057z" fill="#ffc4b6"/><circle cx="170" cy="25.071" fill="#383a3d" r="15.348"/><path d="m210.36 52.785a10.67 10.67 0 0 0 -7.968-4.37c-.119-.008-.236-.017-.351-.029a9.284 9.284 0 0 1 -5.811-3l-10.89-11.692c-5.386-5.907-24.728-5.907-30.114 0l-10.891 11.691a9.284 9.284 0 0 1 -5.811 3c-.115.012-.232.021-.35.029a10.676 10.676 0 0 0 -8.307 16.446c2.588 3.961 7.346 7.934 15.976 7.578l24.44-18.685 24.439 18.685c8.631.356 13.388-3.617 15.976-7.578a10.647 10.647 0 0 0 -.338-12.075z" fill="#383a3d"/><path d="m162.208 258.48-8.118 11.413-5.736 11.479 13.053 8.887-9.438 14.362 11.839 7.759-5.641 8.257 15.247 9.64 14.884-22.428-13.629-8.322 9.946-14.385-13.834-8.458 2.143-3.741 4.096-10.56z" fill="#e9ebfc"/><path d="m108.997 233.176-8.442 12.976-8.827 16.769 13.096 8.823-9.368 14.408 10.873 9.188-6.942 10.035 15.294 9.565 15.599-23.43-12.148-10.563 10.786-15.766-6.847-4.667-7.601-4.771 7.386-13.273z" fill="#e9ebfc"/><path d="m229.297 286.479 11.975-12.744-12.421-10.422 10.726-13.549-2.167-2.309-11.427-9.642-4.29-5.393-11.006 12.678 5.509 6.995-8.663 12.685 1.888 3.023 8.141 7.541-11.471 12.797 10.554 9.434-6.808 7.327 13.643 11.8 18.056-19.963z" fill="#e9ebfc"/><path d="m63.026 273.63c4.467 1.968 10.706 5.39 15.234 10.538a31.936 31.936 0 0 0 -6.068-12.64h-8.716a1.1 1.1 0 0 0 -.45 2.102z" fill="#ea8b7f"/><path d="m276.521 271.528h-8.713a31.97 31.97 0 0 0 -6.068 12.635c4.529-5.145 10.765-8.566 15.231-10.533a1.1 1.1 0 0 0 -.45-2.102z" fill="#ea8b7f"/><path d="m100.555 246.152c3.076 3.381 11.224 9.884 21.516 14.362l-6.7-4.57 7.282-12.856-14.516-11.331z" fill="#acb9d4"/><path d="m222.134 230-12.252 14.08 5.578 7.765-9.483 12.77 3.444 3.19a75.13 75.13 0 0 0 27.989-20.346l-10.436-11.118z" fill="#acb9d4"/><path d="m238.488 187.12c-.082-.4-.174-.793-.282-1.186l-.006-.027a29.731 29.731 0 0 0 -1.968-5.333 64.143 64.143 0 0 1 -10.988 3.609c-8.7 1.894-17.679.39-25.8-3.255a34.858 34.858 0 0 0 -12.779-2.546 1.58 1.58 0 0 0 -.489 3.1 50.481 50.481 0 0 1 7.557 2.681 40.717 40.717 0 0 1 3.63 1.936 45.922 45.922 0 0 0 16.363 5.562l-.018.006a8.182 8.182 0 0 1 4.28 3.552 9.327 9.327 0 0 1 -2.381 12.19c-6.707 5.223-21.853 14.376-45.635 14.385-23.781-.009-38.927-9.162-45.635-14.385a9.327 9.327 0 0 1 -2.38-12.19 8.182 8.182 0 0 1 4.279-3.552 45.922 45.922 0 0 0 16.405-5.568 40.734 40.734 0 0 1 3.631-1.936 50.481 50.481 0 0 1 7.557-2.681 1.58 1.58 0 0 0 -.49-3.1 34.852 34.852 0 0 0 -12.778 2.546c-8.125 3.645-17.107 5.172-25.8 3.255a49.289 49.289 0 0 1 -10.987-3.609 29.779 29.779 0 0 0 -1.968 5.333l-.006.027c-.108.393-.2.788-.282 1.184a19.868 19.868 0 0 0 3.771 16.054c7.829 10.212 26.6 27.25 64.718 27.25s56.889-17.038 64.718-27.25a19.862 19.862 0 0 0 3.763-16.052z" fill="#ea8b7f"/><path d="m169.206 272.531c1.258.167 2.494.3 3.719.412l6.447-11.253-17.238-7.9-8.044 16.1c4.721 1.027 9.743 1.926 15.116 2.641z" fill="#acb9d4"/><path d="m246.784 198.644a14.115 14.115 0 0 0 -2.593-2.583c-3.555-2.712-9.246-2.4-11.467 1.478a58.6 58.6 0 0 1 -9.124 12.021 21.441 21.441 0 0 1 -6.365 5.634 70.639 70.639 0 0 1 -19.569 10.528 18.849 18.849 0 0 1 -7.7 2.294 85.227 85.227 0 0 1 -19.966 2.409 11.932 11.932 0 0 1 -7.967-.345 80.248 80.248 0 0 1 -25.958-6.719 12.7 12.7 0 0 1 -7.2-3.79 62.235 62.235 0 0 1 -13.888-11.325 19.152 19.152 0 0 1 -5.015-6.346q-1.432-2.1-2.691-4.361c-2.174-3.907-7.912-4.19-11.467-1.478a14.115 14.115 0 0 0 -2.593 2.583 16.209 16.209 0 0 0 -2.21 15.3 72.393 72.393 0 0 0 7.255 14.8l8.187 10.546a72.217 72.217 0 0 0 24 16.847l12.093 4.191a107.081 107.081 0 0 0 27.454 3.335h.285l10.059-.429a93.247 93.247 0 0 0 27.021-6.183l8.839-4.218a71.384 71.384 0 0 0 23.021-20.406 41.655 41.655 0 0 1 4.791-7.5 71.405 71.405 0 0 0 4.978-10.987 16.2 16.2 0 0 0 -2.21-15.296z" fill="#e9ebfc"/><path d="m98.268 228.737a72.657 72.657 0 0 0 8.188 10.543c-2.022-16.41 4.57-26.562 8.533-31.039a57.563 57.563 0 0 1 -5.016-6.345 44.252 44.252 0 0 0 -11.705 26.841z" fill="#acb9d4"/><path d="m136.077 223.356a69.99 69.99 0 0 1 -7.2-3.792c-1.984 6.222-5.49 21.521 1.582 36.558a83.1 83.1 0 0 0 12.09 4.2c-11.295-13.634-8.494-29.893-6.472-36.966z" fill="#acb9d4"/><path d="m151.36 114.44c13.684 5.385 26.818 5.576 39.363.219a2.066 2.066 0 0 1 2.773 2.529 36.733 36.733 0 0 1 -7.438 12.633 1.181 1.181 0 0 0 1.506 1.794c1.408-.953 2.344-1.686 2.344-1.686 27.1-21.292 18.436-45.116 15.789-50.84a114.873 114.873 0 0 0 -35.697-3.528 115.026 115.026 0 0 0 -35.34 3.439c-2.6 7.2-8.29 30.585 17.608 50.934 0 0 .937.733 2.344 1.686a1.181 1.181 0 0 0 1.506-1.794 36.571 36.571 0 0 1 -7.5-12.84 2.07 2.07 0 0 1 2.742-2.546z" fill="#ea8b7f"/><path d="m180.344 263.229a42.576 42.576 0 0 1 -7-9.759c-3.737-8.375-3.713-17.813-3.307-23.049-2.675.009-5.349-.108-8.008-.347-.462 6.178-.38 16.882 4.048 26.743.02.044.04.087.062.13a50.81 50.81 0 0 0 4.142 6.71q5.254-.012 10.063-.428z" fill="#acb9d4"/><path d="m197.661 225.718a79.7 79.7 0 0 1 -7.7 2.291c1.735 7.207 6.4 21.259 17.394 29.021a76.772 76.772 0 0 0 8.839-4.211c-12.034-5.027-16.92-20.306-18.533-27.101z" fill="#acb9d4"/><path d="m217.227 215.188c3.354 7.1 10.234 15.112 21.989 17.232a73.669 73.669 0 0 0 4.794-7.493c-13.45-.66-18.685-10.628-20.421-15.374a62.244 62.244 0 0 1 -6.362 5.635z" fill="#acb9d4"/><path d="m200.93 77.93a17.016 17.016 0 0 0 -5.237-9.53 134.256 134.256 0 0 0 -13.431-10.843 20.8 20.8 0 0 0 -11.979-3.8 20.807 20.807 0 0 0 -11.981 3.8 134.46 134.46 0 0 0 -13.476 10.886 16.9 16.9 0 0 0 -5.189 9.48 92.816 92.816 0 0 0 -1.415 13.6 16.224 16.224 0 0 0 6.408 13.424c4.838 3.651 12.9 7.386 25.653 7.386 12.653 0 20.692-3.678 25.541-7.3a16.292 16.292 0 0 0 6.521-13.447 92.809 92.809 0 0 0 -1.415-13.656z" fill="#ffc4b6"/><g fill="#ea8b7f"><path d="m179.03 98.757a3.361 3.361 0 0 1 -1.506-.357 14.939 14.939 0 0 0 -13.086-.057 3.373 3.373 0 0 1 -3.256-5.908 21.784 21.784 0 0 1 19.359-.069 3.374 3.374 0 0 1 -1.511 6.391z"/><path d="m179.213 79.974a2.8 2.8 0 0 1 -1.3-5.286 8.993 8.993 0 0 1 6.443-.888 2.8 2.8 0 1 1 -1.448 5.413 3.447 3.447 0 0 0 -2.4.443 2.789 2.789 0 0 1 -1.295.318z"/><path d="m162.638 79.974a2.789 2.789 0 0 1 -1.294-.318 3.447 3.447 0 0 0 -2.4-.443 2.8 2.8 0 1 1 -1.448-5.413 9 9 0 0 1 6.442.888 2.8 2.8 0 0 1 -1.3 5.286z"/><path d="m65.594 156.464a35.106 35.106 0 0 1 9.949 5.209c.988-2.124 2.074-4.306 3.3-6.558a83.3 83.3 0 0 0 -12.6-1.773 1.613 1.613 0 0 0 -.649 3.122z"/><path d="m274.4 156.464a1.613 1.613 0 0 0 -.65-3.122 83.121 83.121 0 0 0 -12.59 1.773c1.224 2.25 2.309 4.43 3.3 6.553a35.126 35.126 0 0 1 9.94-5.204z"/></g></svg>