<svg id="Flat" height="512" viewBox="0 0 340 340" width="512" xmlns="http://www.w3.org/2000/svg"><path d="m231.566 167.655s8.8 16.145 34.355 23.586c0 0-21.424 25.345-31.393 54.591 0 0 2.515 16.66 24.783 17.237 10.043.26 14.458-2.88 16.278-6.406a7.772 7.772 0 0 0 -4.074-10.663 21.819 21.819 0 0 1 -7.814-5 200.074 200.074 0 0 0 38.462-38.962 18.807 18.807 0 0 0 1.618-19.942c-5.642-10.805-17.479-30.641-36.451-46.966a37.352 37.352 0 0 0 -11.136-6.723 21.928 21.928 0 0 0 -10.831-1.559c-13.893 2.19-13.797 40.807-13.797 40.807z" fill="#d17e83"/><path d="m63.311 252.9s44.307 47.505 107.56-25.332c51.494-59.3 81.571-131.524 81.571-131.524l-15.55-14.214s-83.471 141.516-173.581 171.07z" fill="#d2e8ff"/><path d="m92.075 239.781c76.117 16.459 107.4-75.032 107.4-75.032l24.084-12.049a574.02 574.02 0 0 0 29.709-58.269l-16.376-12.597s-66.473 112.687-144.817 157.947z" fill="#96aef4"/><path d="m252.944 17.714h21.35a0 0 0 0 1 0 0v59.437a10.448 10.448 0 0 1 -10.448 10.449h-.454a10.448 10.448 0 0 1 -10.448-10.448v-59.438a0 0 0 0 1 0 0z" fill="#333353" transform="matrix(-.88 -.476 .476 -.88 470.426 224.409)"/><path d="m211.611 73.646 31.448 17.014v.009l26.17 14.158c6.526 3.678 18.1 5.583 23.435-6.128 0 0 2.535-8.087-2.517-12.386a13.562 13.562 0 0 0 -7.646-2.759 14.548 14.548 0 0 0 -10.075 4.195l-21.5-11.629v-.009l-30.776-16.65z" fill="#ffb664"/><path d="m245.092 181.424c2.367-30.9 15.672-41.594 15.672-41.594l-7.5-4.156a23.288 23.288 0 0 0 7.018-5.4 34.393 34.393 0 0 0 -4.092-1.868 21.93 21.93 0 0 0 -10.831-1.559c-13.893 2.189-13.8 40.806-13.8 40.806s3.777 6.91 13.533 13.771z" fill="#a34f5e"/><path d="m136.83 130.735s-20.621 14.582-24.123 45.091l-25.515-23.863-13.372 9.306s4.725 37.453 32.7 60.8a12.943 12.943 0 0 0 15.72.684c9.67-6.785 25.995-20.3 36.035-39.838.002.004-6.959-30.657-21.445-52.18z" fill="#d17e83"/><path d="m161.66 216.852-7.2 33.048a37.564 37.564 0 0 1 -3.265 9.119l-1.666 3.256a37.523 37.523 0 0 0 -3.866 12.705l-6.557 55.485h116.759l-3.743-39.065a51.274 51.274 0 0 0 -4.949-17.575l-.674-1.381s-8.053-37.908-10.774-63.491z" fill="#5b5b81"/><path d="m237.252 221.027c-.6-4.188-1.122-8.271-1.527-12.078l-74.065 7.9-2.134 9.8s55.687 8.777 77.726-5.622z" fill="#333353"/><path d="m158.277 182.919s-6.961-30.661-21.447-52.184a56.171 56.171 0 0 0 -11.779 12.518 184.064 184.064 0 0 0 12.623 26.215 30.991 30.991 0 0 1 4.311 13.552 176.492 176.492 0 0 1 .26 22.371 100.836 100.836 0 0 0 16.032-22.472z" fill="#a34f5e"/><path d="m193.37 101.549s-24.927 4.079-49.085 15.044a9.678 9.678 0 0 1 -7.4.243l-4.162-1.561a26.477 26.477 0 0 0 0 19.217c3.27 8.789 12.734 25.446 17.287 36.946a31.1 31.1 0 0 1 2.18 11.453v20.733a18.822 18.822 0 0 0 9.469 13.228s12.992 2.5 37.2 2.5c15.193 0 24.627-1.512 29.547-2.637a14.21 14.21 0 0 0 6.875-3.829l4.059-4.065a2.594 2.594 0 0 0 .374-3.193l-2.193-3.563a16.428 16.428 0 0 1 -2.379-9.99l1-11.921a93.046 93.046 0 0 1 4.156-20.819c2.083-6.44 5.082-13.911 8.973-19.1l-7.238-3.994s8.236-4.242 11.231-18.218c0 0-15.827-1.3-23.864-4.676a285.724 285.724 0 0 0 -36.03-11.798z" fill="#eae1e9"/><path d="m161.66 216.852-7.015 10.707a7.466 7.466 0 0 0 1.453 9.822c10.591 8.865 38.882 28.2 90.4 35.059l1.433-13.075a7.232 7.232 0 0 0 -5.889-7.913c-14.958-2.718-52.183-11.452-80.382-34.6z" fill="#333353"/><path d="m186.126 250.808 4.427-11.49a6.67 6.67 0 0 1 8.768-3.766l12.186 5.031a6.668 6.668 0 0 1 3.864 8.009l-3.255 11.308a7.553 7.553 0 0 1 -9.366 5.161 90.038 90.038 0 0 1 -12.763-4.685 7.56 7.56 0 0 1 -3.861-9.568z" fill="#ffb664"/><path d="m205.956 100.325v-16.58h-27.695v16.58a30.32 30.32 0 0 1 -10.069 7.359 96.56 96.56 0 0 0 23.917 38.816 87.578 87.578 0 0 0 24.574-37.966c-4.646-2.646-8.555-5.351-10.727-8.209z" fill="#d17e83"/><path d="m54.254 168.6 5.934 6.518a7.933 7.933 0 0 0 10.226 1.3c9.494-6.24 27.189-20.979 28.018-44.559a44.653 44.653 0 0 0 -11.185-30.69c-9.418-10.85-25.8-29.242-35.292-37.115l-8.062 6.475a10.432 10.432 0 0 0 -1.869 14.311l21.396 29.06a24.994 24.994 0 0 1 2.698 25.1 89.116 89.116 0 0 1 -12.169 19.269 7.934 7.934 0 0 0 .305 10.331z" fill="#703a45"/><path d="m34.531 52.638 35.369 46.617a10.818 10.818 0 0 0 15.452 1.845l1.078-.879s-26.2-34.169-42.613-55.466a2.148 2.148 0 0 0 -2.882-.487 29.308 29.308 0 0 0 -6.341 5.681 2.163 2.163 0 0 0 -.063 2.689z" fill="#dae5fc"/><path d="m53.34 140.521 10.189-10.695a6.713 6.713 0 0 1 9.363-.348l2.871 2.6a12.643 12.643 0 0 1 2.478 15.757 30.672 30.672 0 0 1 -5.541 6.905 12.606 12.606 0 0 1 -16.512.423c-.743-.6-1.5-1.239-2.261-1.9a8.826 8.826 0 0 1 -.587-12.742z" fill="#d17e83"/><path d="m202.231 330.465v-40.489l6.549-2.752a3.5 3.5 0 1 0 -2.71-6.453l-7.339 3.083-7.339-3.083a3.5 3.5 0 1 0 -2.711 6.453l6.55 2.752v40.489z" fill="#333353"/><path d="m197.175 166.643 3.082-2.523a3 3 0 1 0 -3.8-4.643l-4.018 3.289-4.019-3.289a3 3 0 0 0 -3.8 4.643l3.083 2.523-3.083 2.523a3 3 0 0 0 3.8 4.643l4.019-3.289 4.018 3.289a3 3 0 0 0 3.8-4.643z" fill="#aa878a"/><path d="m200.678 186.264a3 3 0 0 0 -4.222-.422l-4.018 3.289-4.019-3.289a3 3 0 0 0 -3.8 4.644l3.083 2.523-3.083 2.522a3 3 0 0 0 3.8 4.644l4.019-3.289 4.018 3.289a3 3 0 0 0 3.8-4.644l-3.082-2.522 3.082-2.523a3 3 0 0 0 .422-4.222z" fill="#aa878a"/><g fill="#a34f5e"><path d="m105.832 169.4c-.591 9.3 1.655 16.1 4.108 20.609a1.748 1.748 0 0 0 3.256-1.134 44.745 44.745 0 0 1 -.489-13.045z"/><path d="m282.491 189.751c-6.083 1.512-13.386 2.133-16.57 1.49s-2.045 2.421-5.157 6.615c11.819 1.533 19.111-2.215 23.066-5.51a1.5 1.5 0 0 0 -1.339-2.595z"/><path d="m205.956 83.056h-27.695v14.144c3.614 1.966 7.948 3.665 12.149 3.665 4.879 0 10.781-2.289 15.546-4.63z"/><path d="m159.756 48.346h-4.666a6.927 6.927 0 0 0 -6.927 6.927v3.576a14.917 14.917 0 0 0 3.27 9.483 14.636 14.636 0 0 0 12.705 5.46z"/><path d="m221.065 48.346h4.665a6.927 6.927 0 0 1 6.928 6.927v3.576a14.917 14.917 0 0 1 -3.27 9.483 14.637 14.637 0 0 1 -12.705 5.46z"/></g><path d="m190.41 9.535c-30.5 0-30.908 28.485-30.908 28.485a226.987 226.987 0 0 0 1.652 26.869 27.8 27.8 0 0 0 5.818 14.053 59.379 59.379 0 0 0 5.408 5.869 26.148 26.148 0 0 0 18.03 7.147 26.144 26.144 0 0 0 18.029-7.147 59.149 59.149 0 0 0 5.409-5.869 27.789 27.789 0 0 0 5.817-14.053 226.733 226.733 0 0 0 1.653-26.869s-.403-28.485-30.908-28.485z" fill="#d17e83"/><path d="m181.048 56.157a3.539 3.539 0 0 1 -.644-.059l-3.617-.673a3.5 3.5 0 0 1 1.28-6.882l3.617.673a3.5 3.5 0 0 1 -.636 6.941z" fill="#a34f5e"/><path d="m199.469 56.157a3.5 3.5 0 0 1 -.636-6.941l3.617-.673a3.5 3.5 0 1 1 1.28 6.882l-3.618.673a3.52 3.52 0 0 1 -.643.059z" fill="#a34f5e"/><path d="m193.063 254.186 15.027-6.841a1.88 1.88 0 0 1 2.57 2.282l-2.4 7.542a5.364 5.364 0 0 1 -6.927 3.419l-8.124-2.923a1.879 1.879 0 0 1 -.146-3.479z" fill="#e87b40"/><path d="m290.142 86.313a13.562 13.562 0 0 0 -7.646-2.759 14.545 14.545 0 0 0 -10.075 4.195l-6.23-3.37a42.8 42.8 0 0 1 -25.591 4.95l2.459 1.331v.009l26.17 14.158c6.526 3.678 18.1 5.583 23.435-6.128-.005.001 2.53-8.087-2.522-12.386z" fill="#e87b40"/><rect fill="#fff" height="14.095" rx="2.199" transform="matrix(.791 -.612 .612 .791 -26.997 43.816)" width="4.399" x="48.39" y="54.348"/><rect fill="#fff" height="7.294" rx="2.199" transform="matrix(.791 -.612 .612 .791 -32.853 52.702)" width="4.399" x="58.46" y="70.757"/><path d="m194.878 136.315a4.921 4.921 0 0 1 -5.447 0 63.764 63.764 0 0 1 -16.575-16.891 95.8 95.8 0 0 0 19.253 27.076 86.93 86.93 0 0 0 20.1-26.8 69.726 69.726 0 0 1 -17.331 16.615z" fill="#a34f5e"/></svg>