<svg id="icons" height="512" viewBox="0 0 340 340" width="512" xmlns="http://www.w3.org/2000/svg"><path d="m99.314 220.912s-13.484 35.639-67.986 44.972a14.342 14.342 0 0 0 -11.938 12.928s3.771 13.3 11.433 13.63c21.381.91 71-1.845 97.34-54.771l2.057-16.759z" fill="#ece7f2"/><path d="m87.881 237.711c4.6.151 22.606.621 40.341-.522l2-16.277h-30.908s-2.901 7.656-11.433 16.799z" fill="#a997c4"/><path d="m85.013 240.624a37.886 37.886 0 0 0 27.667 20.576q3.009-3.48 5.856-7.444c-12.371-.28-23.4-8.013-27.449-19.243-.039-.108-.069-.224-.107-.332a75.312 75.312 0 0 1 -5.967 6.443z" fill="#8766a5"/><path d="m69.086 252.623c-2.335 1.37-4.829 2.7-7.5 3.966a47.659 47.659 0 0 0 16.181 29.933c2.66-1.1 5.335-2.355 8.007-3.773-12.783-9.786-16.168-21.664-16.688-30.126z" fill="#8766a5"/><path d="m47.217 262.128q-4.218 1.3-8.865 2.359a45.212 45.212 0 0 0 3.762 29.713c2.738-.112 5.684-.336 8.785-.711-8.326-13.267-5.232-26.61-3.682-31.361z" fill="#8766a5"/><path d="m36.158 283.585a20.079 20.079 0 0 1 -11.938-1.377 15 15 0 0 1 -4.816-3.4c-.018.223-.044.444-.052.67 0 .134-.008.269-.011.4a14.172 14.172 0 0 0 13.659 14.322c21.381.91 68.822-3.6 95.161-56.524l2.057-16.759h-8.474c-5.197 10.127-30.073 52.683-85.586 62.668z" fill="#a997c4"/><path d="m46.063 281.383c-2.522.67-5.133 1.251-7.8 1.778a43.223 43.223 0 0 0 3.851 11.039c.63-.026 1.274-.059 1.926-.1l.286-.017q1.005-.062 2.04-.143h.011q2.2-.175 4.521-.454a35.825 35.825 0 0 1 -4.835-12.103z" fill="#62497f"/><path d="m74.25 269.853q-3.39 1.93-7.046 3.7a49.667 49.667 0 0 0 10.559 12.965q.992-.412 1.986-.851l.019-.009q3-1.325 6-2.913a43.728 43.728 0 0 1 -11.518-12.892z" fill="#62497f"/><path d="m118.532 253.753a30.58 30.58 0 0 1 -16.725-5.437c-1.8 1.876-3.728 3.767-5.786 5.652a38.487 38.487 0 0 0 16.659 7.232q.745-.862 1.482-1.755l.015-.018q2.226-2.7 4.359-5.671z" fill="#62497f"/><path d="m245.6 86.605 25.847-1.692s1.653-14.013 3.553-25.626a8.978 8.978 0 0 0 -4.221-9.142l-2.395-1.445a10.8 10.8 0 0 1 -5.121-7.721c-.278-1.937-.56-4.4-.764-7.352a7.725 7.725 0 0 1 3.139-6.754 2.6 2.6 0 0 1 3.937 1.2l1.876 4.927 1.025-.967a5.153 5.153 0 0 0 1.6-4.236l-1.642-17.29c.246-2.786 1.74-4.856 4.537-4.856 2.909.468 3.591 1.926 3.975 3.9a29.245 29.245 0 0 1 .4 2.978l1.024 11.5a78.641 78.641 0 0 1 7.98-12.375 8.746 8.746 0 0 1 12.933-.789 31.436 31.436 0 0 1 7.6 11.574 8.769 8.769 0 0 1 -1.1 8.166l-14.466 20.16a9.825 9.825 0 0 0 -1.823 6.339l2.112 33.946a13.135 13.135 0 0 1 -7.277 12.586l-38.7 19.185z" fill="#f2f2f2"/><path d="m254.518 86.1.029-.085-8.943.586 4.021 36.216 12.28-6.087c1.231-24.285-7.387-30.63-7.387-30.63z" fill="#c4c4c4"/><path d="m279.489 81.332-6.974-4.894c-.651 4.964-1.064 8.475-1.064 8.475l7.152-.443a1.727 1.727 0 0 0 .886-3.138z" fill="#c4c4c4"/><path d="m115.539 196.935-9.179 2.165c-13.667 2.464-25.539 1.929-33.462 0-16.788-4.086-28.262-21.446-25.215-38.454.1-.563.487-2.287.613-2.819 2.746-11.613 16.4-17.725 27.285-12.837 12.554 5.637 25.3 14.382 35.6 23.256a52.142 52.142 0 0 1 7.385-21.551c-3.863-5.366-20.454-26.7-46.325-36.278a33.849 33.849 0 0 0 -40.769 13.849c-5.067 8.344-9.609 20.453-11.752 37.99a74.087 74.087 0 0 0 2.141 29.58c4.284 14.8 14.565 32.872 39.239 34.365 0 0 16.539-.66 35.084-1.07 14.851-.329 30.071-1.434 40.4-3.554-.003-.003-13.391-9.277-21.045-24.642z" fill="#ece7f2"/><path d="m49.429 158.874a18.982 18.982 0 0 1 26.348-12.774c12.554 5.637 25.124 14.987 35.419 23.861a68.852 68.852 0 0 1 2.421-11.557l-.193.106s-17.588-18.546-40.079-24.625a25.8 25.8 0 0 0 -32.506 22.415c-.59 6.476.2 14.621 3.291 24.845 5.706 18.86-1.772 27.4-11.9 31.051 6.256 7.449 15.421 13.192 28.869 14 0 0 53.117 1.482 76.345-3.287 0 0-14.583-11.272-22.237-26.632l-9.076 1.523c-14.6 2.632-25.525 1.868-33.625-.393a32.614 32.614 0 0 1 -23.684-35.1 31.122 31.122 0 0 1 .607-3.433z" fill="#a997c4"/><g fill="#414151"><path d="m261.8 237.377a164.345 164.345 0 0 1 48.326 6.315 7.206 7.206 0 0 1 4.632 9.563 7.22 7.22 0 0 1 -8.552 4.329c-9.218-2.41-27.588-6.136-46.529-3.825z"/><path d="m251.337 236.493s-34.482-.4-49.293 2.459l.5 19.918s30.891-3.52 49.065-2.02z"/><path d="m255.622 225.128a6.624 6.624 0 0 1 6.568 6.779l-.619 26.423a6.624 6.624 0 0 1 -6.842 6.466l-.631-.021a6.626 6.626 0 0 1 -6.4-6.934l1.25-26.4a6.625 6.625 0 0 1 6.674-6.313z"/><path d="m258.752 189.253a163.36 163.36 0 0 1 47.608-10.677 7.232 7.232 0 0 1 7.7 7.4 7.219 7.219 0 0 1 -6.561 6.986c-9.487.881-28.026 3.645-45.042 12.281z"/><path d="m248.733 191.861s-32.547 11.393-45.495 19.13l7.264 18.553s27.836-13.849 45.431-18.64z"/><path d="m248.884 179.716a6.625 6.625 0 0 1 8.487 4.131l8.434 25.048a6.625 6.625 0 0 1 -4.226 8.413l-.6.195a6.624 6.624 0 0 1 -8.38-4.335l-7.833-25.243a6.624 6.624 0 0 1 4.118-8.209z"/></g><path d="m129.376 241.233s-25.505 26.2-55.277 41.6a49.915 49.915 0 0 0 -18 15.443 76.123 76.123 0 0 0 -12.873 31.475 3.953 3.953 0 0 0 3.892 4.6h85.313l181.638-2.089c2.742 0 3.251-2.128 2.266-4.687-2.913-7.569-6.07-20.4-23.46-32.339l-75.975-45.809z" fill="#f74f73"/><path d="m292.872 295.235-75.972-45.808-88.687-8.811a72.033 72.033 0 0 1 -11.989 12.812 93.543 93.543 0 0 0 24.92 15.894 15.314 15.314 0 0 1 7.793 7.649 15.146 15.146 0 0 1 -.758 14.019c-5.52 9.271-14.7 26.934-15.747 43.36h184.559a3.9 3.9 0 0 0 3.626-5.31c-2.917-7.569-10.354-21.865-27.745-33.805zm-88.044-4.993c-4.2-3.238-10.515-8.972-13.579-16.05l13.473-1.232a2.261 2.261 0 0 1 2.456 2.033l1.286 13.243a2.261 2.261 0 0 1 -3.636 2.006z" fill="#c12140"/><path d="m237.327 252.756 14.744 4.915c11.334 4.614 27.312 12.941 40.974 26.864 6.314 6.434 9.365 12.212 11.068 19.772.289 1.281.355 2.894.553 4.62a9.155 9.155 0 0 1 -13.419 9.107l-2.436-1.305s-.608.7-1.655 1.775a25.163 25.163 0 0 1 -4.108 2.913 12.3 12.3 0 0 1 -10.1-.867 27.476 27.476 0 0 1 -8.566-7.842 131.825 131.825 0 0 1 -7.12-14.858z" fill="#90abe2"/><path d="m248.356 111.391c13.123-3.369 28.873-9.542 32.119-20.14 4.347-14.2-2.08-26.636-5.489-31.879-.258 1.579-.512 3.2-.757 4.827a66.2 66.2 0 0 1 2.512 15.1 16.161 16.161 0 0 1 -8.741 15.349 64.91 64.91 0 0 1 -20.851 5.905z" fill="#f74f73"/><path d="m260.46 97.69a72.964 72.964 0 0 1 -13.307 2.863l1.2 10.838a103.482 103.482 0 0 0 13.5-4.391 53.513 53.513 0 0 0 -1.393-9.31z" fill="#c12140"/><path d="m125.616 214.9s-6.433 7.848-5.565 23.525a11.731 11.731 0 0 0 6.324 10.27c12.466 6.554 43.9 19.153 89.984 7.76l4.667-33-6-14.318z" fill="#90abe2"/><path d="m215.026 209.136-46.12 2.845-43.766 2.7s-6.491 8.022-5.623 23.7a12.827 12.827 0 0 0 6.831 10.652c9.114 4.792 28.391 12.622 56.1 12.042l-5.128-18.735a8.842 8.842 0 0 1 6.2-10.855 20.162 20.162 0 0 0 5.47 10.147 25.207 25.207 0 0 0 9.319 6.046l2.712 1.031a5.836 5.836 0 0 1 3.956 5.524 44.825 44.825 0 0 0 .313 4.556c3.594-.634 7.279-1.4 11.073-2.335l4.667-33z" fill="#4b64aa"/><path d="m156.9 214.68 3.3 10.448a79.73 79.73 0 0 0 4.249 13.441l6.3 19.946a90.175 90.175 0 0 0 3.658 11.573l.852 2.7a29.732 29.732 0 0 0 5.97 10.662 71.751 71.751 0 0 0 12.068 10.713s6.065 3.6 4.74 6.05a6.366 6.366 0 0 1 -7.937 2.888l-7.805-3.086 4.954 19.823c1.287 3.595 1.076 7.04-2.663 7.818-3.06.636-5.3-2.595-6.369-5.532l-5.4-11.051-1.616 10.308a8.843 8.843 0 0 1 -11.985 6.856 27.006 27.006 0 0 1 -7.318-4.2 11.029 11.029 0 0 1 -3.698-10.237 88.425 88.425 0 0 1 7.77-24.96 13.945 13.945 0 0 0 -.01-12.4l-7.833-15.84a173.575 173.575 0 0 0 -9.882-19.981l-12.826-25.939z" fill="#fff"/><path d="m156.9 214.68h-31.481l5.826 11.78a72.118 72.118 0 0 0 31 5.135z" fill="#d8d8d8"/><path d="m195.22 217.352a39.815 39.815 0 0 1 -2.67 5.849 36.611 36.611 0 0 0 -2.416 7.163 12.287 12.287 0 0 0 5.31 8.63 83.149 83.149 0 0 0 10.421 5.93 14.619 14.619 0 0 1 1.862.559 8.247 8.247 0 0 0 11.539-4.616l4.882-15.329s.721-11.206-8.064-18.344z" fill="#90abe2"/><path d="m223.16 216.461.031-.028a25.255 25.255 0 0 0 -7.107-9.33l-20.864 10.158a38.5 38.5 0 0 0 -3.649 5.466 12.31 12.31 0 0 0 -1.421 7.635 108.778 108.778 0 0 0 17.247-4.911 1.728 1.728 0 0 1 2.271 2.138 95.388 95.388 0 0 0 -3.8 17.332c.494.238.992.476 1.509.714a8.681 8.681 0 0 0 11.91-4.818l6.133-16.053a25.6 25.6 0 0 0 -2.26-8.303z" fill="#4b64aa"/><path d="m111.822 199.542s-5.822 13.87 8.322 17.758 38.81.051 38.81.051-6.631-20.86-47.132-17.809z" fill="#c12140"/><path d="m227.388 82.541h13.712a12.529 12.529 0 0 1 12.01 8.79c2.339 7.636 4.054 20-.686 36.089a16.962 16.962 0 0 1 -4.95 7.949 13.438 13.438 0 0 1 -11.732 3.44z" fill="#c12140"/><path d="m148.045 108.248a138.652 138.652 0 0 0 -41.014 41.527 21.856 21.856 0 0 0 -3.241 9.514 156.61 156.61 0 0 0 .231 33.831 8.753 8.753 0 0 0 2.108 4.682 8.694 8.694 0 0 0 7.4 2.886c9.24-.923 31.275-.973 45.429 16.659 0 0 13.477 8.021 43.961 0 0 0 26.645-9.256 28.277-30.914a11.742 11.742 0 0 0 -2.2-7.71l-6.5-9.06a11.537 11.537 0 0 1 -2.14-6.005l-.092-1.473a11.538 11.538 0 0 1 3.7-9.207l12.566-11.568a14.007 14.007 0 0 0 4.4-8.487c1.269-9.675 2.989-30.839-3.591-45.16a13.637 13.637 0 0 0 -10.854-7.84c-5.565-.637-13.717-.983-20.684 1.05z" fill="#f74f73"/><path d="m193.445 167.168-9.874-30.584c1.749 32.08 2.9 61.942 1.948 83.954a101.322 101.322 0 0 0 10.324-1.553z" fill="#c12140"/><path d="m219.382 124.612c11.518-11.519 13.555-27.439 11.136-43.559a13.68 13.68 0 0 0 -4.032-1.13c-5.564-.637-13.716-.983-20.683 1.05l-42.521 20.08-15.237 7.2-.054.032-.089.055-.095.059-.183.113-.084.054c-.277.174-.666.424-1.159.75l-.063.041c-.175.116-.36.24-.559.374l-.013.009c-.734.494-1.614 1.1-2.643 1.841v.006c-1.6 1.154-3.525 2.6-5.687 4.343 1.016 7.872 4.379 17.47 14.019 22.714 2.92 5.647 9.987 20.391 9.987 20.391l-.228 35.629s4.628 15.49-2.237 22.688a26.81 26.81 0 0 0 7.686 2.519c1.962-4.8 4.324-13.668 2.476-26.122 0 0 8.882-15.666 7.9-40.585a12.7 12.7 0 0 1 9.683-12.953c3.753-.879 7.787-2.031 12.126-3.491q1.264-.425 2.469-.883a7.538 7.538 0 0 1 9.758 4.433 95.226 95.226 0 0 1 4.945 19.958 6.166 6.166 0 0 0 4.432 4.23c-.036-.265-.062-.531-.079-.8l-.092-1.473a11.539 11.539 0 0 1 3.7-9.207l6.226-5.731-6.66-17.372a54.726 54.726 0 0 0 -4.145-5.263z" fill="#c12140"/><path d="m144.553 106.671-7.494 1.03a21.236 21.236 0 0 0 -5.633 3.216 17.046 17.046 0 0 0 -6.021 16.2 11.931 11.931 0 0 0 4.37 7.514 20.563 20.563 0 0 1 6.652 5.286 78.284 78.284 0 0 1 6.882 7.083 16.634 16.634 0 0 1 5 6.494 75.2 75.2 0 0 1 5.085 8.506 19.5 19.5 0 0 1 3.373 7.686 71.392 71.392 0 0 1 4.425 24.97 71.45 71.45 0 0 0 8.15-29.694l.014-8.009a69.94 69.94 0 0 0 -1.8-12.414l-2.437-8.062a76.679 76.679 0 0 0 -6.989-14.181z" fill="#ece7f2"/><path d="m167.027 142.488a74.825 74.825 0 0 0 -8.9-20.189l-13.671-16.264a24.792 24.792 0 0 0 -7.4 1.667c-.385 9.998 1.683 33.789 29.971 34.786z" fill="#a997c4"/><path d="m193.445 99.623a37.115 37.115 0 0 1 5.855 5.817 23.185 23.185 0 0 1 4.956 6.735 81.95 81.95 0 0 1 4.121 7.152 43.915 43.915 0 0 1 3.446 7.529c1.011 2.483 1.986 5.161 2.9 8.043a23.35 23.35 0 0 1 2.246 8.033 145.88 145.88 0 0 1 3.293 19.253s13.016-5.507 13.464-23.048l-.461-8.326a62.769 62.769 0 0 0 -2.445-10.977l-3.261-8.078a49.638 49.638 0 0 0 -7.511-11.142l-6.707-6.123a48.618 48.618 0 0 0 -11.7-6.394z" fill="#ece7f2"/><path d="m201.642 88.1-8.2 11.526a37.186 37.186 0 0 1 5.854 5.818 23.138 23.138 0 0 1 4.955 6.735 81.829 81.829 0 0 1 4.121 7.153 26.637 26.637 0 0 1 3.446 7.528q.6 1.464 1.174 3.018a39.83 39.83 0 0 0 14.772-17.684 49.86 49.86 0 0 0 -7.719-11.575l-6.706-6.124a48.54 48.54 0 0 0 -11.697-6.395z" fill="#a997c4"/><path d="m164.528 122.23 8.679 13.486 11.211.868 7.121-10.619-1.212-26.205z" fill="#b3b3b3"/><path d="m213.33 94.508a37.542 37.542 0 0 0 -14.03 10.935 66.933 66.933 0 0 1 4.954 6.735c2.376-3.354 7.591-9.332 15.8-11.562a45.879 45.879 0 0 0 -6.724-6.108z" fill="#62497f"/><path d="m209.346 118.544q-.5.4-.971.785c1.17 2.281 2.33 4.784 3.447 7.527.772-.645 1.63-1.351 2.527-2.069a23.007 23.007 0 0 1 16.467-4.951 57.716 57.716 0 0 0 -3.265-8.075 31.1 31.1 0 0 0 -18.205 6.783z" fill="#8766a5"/><path d="m214.716 134.9c.8 2.521 1.557 5.191 2.249 8.032 3.378-2.351 9.913-5.846 16.758-3.8.028-1.087.012-2.215-.063-3.4a43.688 43.688 0 0 0 -.4-4.928c-7.395-1.244-14.092 1.471-18.544 4.096z" fill="#8766a5"/><path d="m158.128 122.3-3.969-4.721a38.218 38.218 0 0 0 -7.545 1.786 28.089 28.089 0 0 0 -16.827 15.249c.176.138.339.282.528.414a54.511 54.511 0 0 1 6.111 4.888c1.454-5.777 6.29-10.712 12.83-13a31.3 31.3 0 0 1 10.6-1.7c-.546-.97-1.119-1.942-1.728-2.916z" fill="#8766a5"/><path d="m165.114 136.481c-.855.009-1.709.04-2.569.105-5.847.438-12.234 3.583-17.525 8.628-.613.584-1.182 1.183-1.716 1.785a78.458 78.458 0 0 1 5 6.494 22.812 22.812 0 0 1 2.236-2.493c3.917-3.735 8.629-6.142 12.6-6.441a31.346 31.346 0 0 1 4.41-.021q-.245-1.023-.523-2.055s-1.167-3.977-1.913-6.002z" fill="#8766a5"/><path d="m153.382 162.009a72.073 72.073 0 0 1 3.371 7.686c1.95-2.019 5.878-4.814 12.587-4.731a71.674 71.674 0 0 0 .013-8.008 24.787 24.787 0 0 0 -15.971 5.053z" fill="#8766a5"/><path d="m154.159 117.578a38.218 38.218 0 0 0 -7.545 1.786 30.345 30.345 0 0 0 -7.561 3.905 29.893 29.893 0 0 0 3.539 7.338 22.218 22.218 0 0 1 6.664-3.692 31.3 31.3 0 0 1 10.6-1.7c-.551-.97-1.124-1.942-1.733-2.917z" fill="#62497f"/><path d="m167.029 142.488q-.8-2.966-1.915-6.007c-.855.009-1.709.04-2.569.105a25.03 25.03 0 0 0 -9.516 2.869 36.215 36.215 0 0 0 14 3.033z" fill="#62497f"/><path d="m96.181 123.865c-2.193-1.682-4.529-3.336-7-4.923-9.631 7.4-11.791 19.2-11.886 27.868 2.728 1.289 5.453 2.739 8.15 4.32-.531-7.369.107-20.963 10.736-27.265z" fill="#8766a5"/><path d="m56.545 148.113a19.155 19.155 0 0 1 7.433-3.307q-1.864-2.67-3.657-5.445a34.419 34.419 0 0 1 -3.367-30.939 34.175 34.175 0 0 0 -9.025 2.117 42.623 42.623 0 0 0 5.671 33.161c.961 1.49 1.948 2.96 2.945 4.413z" fill="#8766a5"/><path d="m48.626 164.791a31.8 31.8 0 0 1 .462-4.274q.151-.844.341-1.643a19.281 19.281 0 0 1 .585-1.979 37.814 37.814 0 0 1 -26.22-14.821q-1.3 4.368-2.344 9.465a45.558 45.558 0 0 0 27.176 13.252z" fill="#8766a5"/><path d="m19.792 181.9a69.152 69.152 0 0 0 1.728 8.635 48.441 48.441 0 0 0 9.428.933 46.93 46.93 0 0 0 23.867-6.521 32.8 32.8 0 0 1 -3.893-7 39.371 39.371 0 0 1 -31.13 3.953z" fill="#8766a5"/><path d="m78.7 135.6a47.69 47.69 0 0 0 -1.406 11.211q.979.464 1.958.954l.18.091q.912.459 1.824.941l.383.205c.56.3 1.119.6 1.678.914.174.1.347.2.52.3.536.3 1.072.606 1.606.919a43.992 43.992 0 0 1 .76-12.314 76.514 76.514 0 0 0 -7.503-3.221z" fill="#62497f"/><path d="m72.9 197.5a33.783 33.783 0 0 1 -7.409-3.076 27.7 27.7 0 0 1 -6.822 11.194 30.28 30.28 0 0 1 -8.677 6.07 65.746 65.746 0 0 1 -13.358 5 37.342 37.342 0 0 0 8.732 5.685c2.868-1.074 5.685-2.324 8.066-3.457a38.249 38.249 0 0 0 10.952-7.695 35.669 35.669 0 0 0 8.516-13.721z" fill="#62497f"/><path d="m86.81 226.385a43.432 43.432 0 0 0 9.849-27.285c-2.839.258-5.505.369-8.018.363a35.8 35.8 0 0 1 -13.06 26.945c3.375.014 7.178.013 11.229-.023z" fill="#62497f"/><path d="m195.868 95.921s.831-.364 2.183-1.115a40.471 40.471 0 0 0 19.434-44.829c-3.331-14.028-12.72-32.449-39.065-32.449 0 0-29.833-.807-41.368 31.273a45.955 45.955 0 0 0 -2.068 24.684c1.5 7.34 5.236 15.544 14.039 20.285z" fill="#383a3d"/><path d="m189.893 85.166s7.409-3.346 9.8 4.3c0 0 2.629 11.95-12.19 17.686 0 0-.466.958-1.344 2.454l-4.092 6.043c-3.78 4.853-9.335 10.178-16.034 11.218a14.858 14.858 0 0 1 -2.692.138c-3.858-.1-13.316-1.182-17.934-8.96a16.137 16.137 0 0 1 -1.994-5.883c-.127-.854-.279-1.946-.437-3.248l-.785-8.52a158.23 158.23 0 0 1 .38-25.508 43.563 43.563 0 0 1 2.845-10.144l4.988-8.7a24.908 24.908 0 0 1 20.457-9.838 20.269 20.269 0 0 1 12.32 3.827l5.2 6.084c3.105 5.746 4.513 14.796 1.512 29.051z" fill="#fff"/><path d="m166.114 112.875a2.987 2.987 0 0 1 -1.682-.518c-4.539-3.082-9.389-.087-9.594.042a3 3 0 0 1 -3.258-5.039c.337-.219 8.342-5.314 16.221.032a3 3 0 0 1 -1.687 5.483z" fill="#f74f73"/><path d="m151.6 90.778a3 3 0 0 1 -.827-.117l-3.441-.985a3 3 0 1 1 1.653-5.768l3.44.985a3 3 0 0 1 -.825 5.885z" fill="#515456"/><path d="m167.575 91.179a3 3 0 0 1 -1.056-5.81l3.922-1.473a3 3 0 0 1 2.11 5.617l-3.922 1.473a2.981 2.981 0 0 1 -1.054.193z" fill="#515456"/><path d="m188.376 56.12a18.419 18.419 0 0 0 -5.2-6.083 48.767 48.767 0 0 0 -4.7 3.946 40.615 40.615 0 0 0 -10.66 24.317 2.12 2.12 0 0 0 4.1.947c2.767-7.676 7.721-16.865 16.46-23.127z" fill="#f74f73"/><path d="m145.418 64.745a126.889 126.889 0 0 1 3.439 12.938 1.83 1.83 0 0 0 3.612-.226 59.768 59.768 0 0 0 -2.058-21.4 36.652 36.652 0 0 0 -4.993 8.688z" fill="#f74f73"/><path d="m186.157 109.607a62.249 62.249 0 0 1 -12.957-13.221 1.932 1.932 0 0 0 -3.4 1.722 33.67 33.67 0 0 0 12.265 17.541 56.446 56.446 0 0 0 4.092-6.042z" fill="#f74f73"/><path d="m146.032 96.439a39.961 39.961 0 0 1 -3.841 3.957c.219 3.387.512 6.261.786 8.52a25.694 25.694 0 0 0 6.557-10.608 2.022 2.022 0 0 0 -3.502-1.869z" fill="#f74f73"/><path d="m293.92 63.955-.426-6.851c-.006-.094 0-.188-.005-.281-2.789 3.392-8.208 11.592-8.543 24.42a47.42 47.42 0 0 0 4.454 21.787 13.125 13.125 0 0 0 5.281-6.273c-3.192-6.78-6.1-18.176-.761-32.802z" fill="#f74f73"/><path d="m279.489 81.332-2.746-1.927a16.744 16.744 0 0 1 -.6 5.217l2.457-.152a1.727 1.727 0 0 0 .889-3.138z" fill="#c12140"/><path d="m173.207 135.716 20.238 31.452-1.906-41.2c-5.056 5.967-11.716 8.717-18.332 9.748z" fill="#4b64aa"/><path d="m256.95 298.415a56.053 56.053 0 0 0 7.441 14.289c4.547-27.751-6.638-47.227-12.32-55.033a104.4 104.4 0 0 0 -14.744-4.915z" fill="#4b64aa"/><path d="m218.6 257.37s-1.244 28.453 2.422 44.321c0 0 4.487 22.98 22.543 20.518 0 0 16.794-3.708 14.94-26.506a47.515 47.515 0 0 0 -3.365-13.845 193.558 193.558 0 0 0 -12.34-25.258s-6.052-8.866-9.391-13.145z" fill="#90abe2"/><path d="m224.148 252.16a94.808 94.808 0 0 1 14.344 32.15 22.778 22.778 0 0 1 .514 3.315c.1 1.19.2 2.837.192 4.616a3.434 3.434 0 0 1 -6.3 1.88 27.185 27.185 0 0 1 -2.641-5 .923.923 0 0 0 -1.765.5 49.1 49.1 0 0 0 4.834 14.581 15.1 15.1 0 0 0 1.539 2.466c2.672 3.382 8.142 1.864 8.957-2.369 4.278-22.227-7.439-47.221-13.384-58.055z" fill="#4b64aa"/><path d="m280.541 298.069c1.879 6.126 3.994 15.5 2.5 23.342a11.231 11.231 0 0 0 4.234-2.718 10.056 10.056 0 0 0 1.532-1.964s1.29-7.519-6.454-19.5a1.01 1.01 0 0 0 -1.812.84z" fill="#4b64aa"/><path d="m233.74 243.144-15.14 14.226s-.333 7.66-.144 17.243l24.344-18.013a125.78 125.78 0 0 0 -9.06-13.456z" fill="#4b64aa"/><path d="m164.455 238.569-2.205-6.969a28.054 28.054 0 0 1 -2.044-6.467c-2.416 4.369-6.928 15.825 1.214 30.688a37.319 37.319 0 0 0 13 14.272l-3.658-11.573c-6.585-5.153-6.835-14.459-6.307-19.951z" fill="#f74f73"/><path d="m227.761 112.206c-.073-.148-.136-.3-.21-.445a31.1 31.1 0 0 0 -18.2 6.783q-.5.4-.971.785c1.17 2.281 2.33 4.784 3.447 7.527.772-.645 1.63-1.351 2.527-2.069a22.992 22.992 0 0 1 8.624-4.29 38.956 38.956 0 0 0 4.783-8.291z" fill="#62497f"/><path d="m160.206 225.128a27.614 27.614 0 0 0 -2.561 6.588c1.5.01 3.037-.024 4.6-.121z" fill="#c12140"/><path d="m215.542 223.673a75.849 75.849 0 0 0 -6.121 30.865 8.307 8.307 0 0 0 6.411 8 8.3 8.3 0 0 0 8.454-3.008l10.966-14.2a9.828 9.828 0 0 0 1.9-7.84c-1.007-5.268-3.6-13.7-10.152-17.645a8.072 8.072 0 0 0 -11.458 3.828z" fill="#90abe2"/><path d="m53.6 143.7c.963 1.494 1.95 2.964 2.947 4.417a19.078 19.078 0 0 1 3.531-2.05 19.334 19.334 0 0 1 1.911-.731 19.186 19.186 0 0 1 1.985-.525q-1.864-2.67-3.657-5.445a35.238 35.238 0 0 1 -2.593-4.833 26.1 26.1 0 0 0 -7.036 3.86 43.047 43.047 0 0 0 2.912 5.307z" fill="#62497f"/><path d="m48.776 162.755c0-.049.009-.1.014-.146.012-.1.018-.2.03-.3.074-.61.163-1.2.267-1.78v-.011q.151-.844.341-1.643a19.281 19.281 0 0 1 .585-1.979 40.3 40.3 0 0 1 -8.991-2.118c-.075.5-.138 1.008-.184 1.52a48 48 0 0 0 -.091 6.829 48.781 48.781 0 0 0 7.876 1.665q.045-1.016.153-2.037z" fill="#62497f"/><path d="m50.871 177.976a40.974 40.974 0 0 1 -6.741 3.164 47.221 47.221 0 0 1 1.719 7.882 48.512 48.512 0 0 0 8.885-4.035 32.745 32.745 0 0 1 -3.863-7.011z" fill="#62497f"/><path d="m188.115 98.6c.084-2.419.628-6.3 3-9.2a3.086 3.086 0 0 1 4.008-.69l.047.031a5.806 5.806 0 0 1 .742.586.417.417 0 0 1 -.368.713c-1.274-.254-3.277-.133-4.179 2.706a.8.8 0 0 0 .721 1.051 2.389 2.389 0 0 1 2.375 1.872 3.684 3.684 0 0 1 -.461 2.863 7.517 7.517 0 0 1 -1.981 2.208 2.487 2.487 0 0 1 -3.904-2.14z" fill="#b3b3b3"/><path d="m164.857 307.345a2.057 2.057 0 0 0 -2.553 1.419 108.4 108.4 0 0 0 -3.35 19.35c.092.038.185.083.276.119a8.767 8.767 0 0 0 4.871.469c.379-4.7 1.117-12.6 2.222-19.037a2.054 2.054 0 0 0 -1.466-2.32z" fill="#d8d8d8"/><path d="m156.386 306.63a1.9 1.9 0 0 0 -2.478 1.065 95.712 95.712 0 0 0 -4.14 13.864 10.37 10.37 0 0 0 2.144 2.478 22.451 22.451 0 0 0 1.918 1.412c.809-4.34 2.158-11.062 3.686-16.551a1.9 1.9 0 0 0 -1.13-2.268z" fill="#d8d8d8"/><path d="m281.312 39.935a.8.8 0 0 0 1.44-.642 8.4 8.4 0 0 0 -2.086-4.149 7.511 7.511 0 0 0 -3.28-1.952l-.658-.2a4.336 4.336 0 0 1 -2.836-3.3 5.143 5.143 0 0 1 -1.416 2.34l-1.025.968.825 2.621s6.051-.276 9.036 4.314z" fill="#c4c4c4"/><path d="m307.474 15.865-12 15.939-3.839-3.07 11.174-18.273a8.732 8.732 0 0 0 -2.641-1.55l-12.413 16.718-1.086 1.362a1.8 1.8 0 0 0 .258 2.51l8.952 7.431a1.643 1.643 0 0 0 2.442-.393l1.026-1.641-.033-.027 9.828-16.247a30.975 30.975 0 0 0 -1.668-2.759z" fill="#c4c4c4"/><path d="m167.524 288.317c-4-21.3-17.636-37.851-29.279-47.7l9.882 19.981c6.736 7.177 11.089 15.516 14.064 22.289.357.876 2.716 7.016 1.268 12.888a1.2 1.2 0 0 0 2.095 1.028 9.834 9.834 0 0 0 2.1-4.942 11.1 11.1 0 0 0 -.13-3.544z" fill="#f74f73"/></svg>