<svg id="flat" height="512" viewBox="0 0 340 340" width="512" xmlns="http://www.w3.org/2000/svg"><path d="m301.37 18.845s30.365-1.168 28.877 32.952a8.22 8.22 0 0 1 -8.229 7.821h-77.618s11.245-42.15 56.97-40.773z" fill="#395787"/><path d="m286.24 91.98 41.4 219.759a7.973 7.973 0 0 1 -7.835 9.449h-75.281c5.048-61.837 27.191-142.437 41.716-229.208z" fill="#2f4a70"/><path d="m24.206 313.235 30.652-221.255h231.382l-30.387 219.34a11.437 11.437 0 0 1 -11.329 9.868h-213.391a6.994 6.994 0 0 1 -6.927-7.953z" fill="#63a7ea"/><path d="m9.856 295.413 37.231-168.3c75.227-3.729 148.818-3.481 227.718 0l-33.414 167.611a10.981 10.981 0 0 1 -10.722 8.608h-214.453a6.513 6.513 0 0 1 -6.36-7.919z" fill="#faffff"/><path d="m274.805 127.113c-78.9-3.481-152.491-3.729-227.718 0l-6.736 30.446c43.22 5.817 143.582 24.344 212.543 79.464z" fill="#e4ffff"/><path d="m278.468 127.113 7.772-35.133h-231.382z" fill="#63a7ea"/><path d="m47.087 127.113s-40.87-17.567-22.851-72.23c0 0 9.814-32.107 45.539-36.038h231.6c-35.725 3.931-45.539 36.038-45.539 36.038-18.019 54.663 18.974 72.23 18.974 72.23z" fill="#b7cdf9"/><path d="m232.07 210.218h-12.619l2.417-4.57a5.523 5.523 0 0 0 -1.016-6.523l-3.869-3.793-13.349 14.886h-11.418l2-9.885 14.884-13.348-3.793-3.869a5.52 5.52 0 0 0 -6.523-1.016l-4.569 2.416 1-13.153h-11.746l-1 12.619-4.57-2.416a5.52 5.52 0 0 0 -6.522 1.015l-3.793 3.87 14.885 13.349-2 10.419h-9.418l-13.351-14.887-3.869 3.793a5.523 5.523 0 0 0 -1.016 6.523l2.416 4.57h-12.616l-4 11.746h13.152l-2.416 4.57a5.523 5.523 0 0 0 1.016 6.523l3.869 3.793 13.349-14.886h10.884l-2 10.418-10.588 9.5a5.52 5.52 0 0 0 -.257 7.975l2.635 2.688 8.21-4.341-1 12.618h11.747l1-13.152 8.21 4.34 2.635-2.687a5.52 5.52 0 0 0 -.257-7.975l-10.588-9.5 2-9.884h8.884l13.349 14.886 3.869-3.793a5.523 5.523 0 0 0 1.016-6.523l-2.417-4.57h13.153z" fill="#7fa0e2"/><g fill="#9cbbef"><circle cx="149.211" cy="178.585" r="4.173"/><circle cx="225.506" cy="178.585" r="4.173"/><circle cx="142.864" cy="251.138" r="4.173"/><circle cx="219.159" cy="251.138" r="4.173"/></g><path d="m133.308 165.335h-55.491a15.368 15.368 0 0 0 -15.1 12.125l-17.017 76.95a15.464 15.464 0 0 0 15.1 18.8h63.514a3.5 3.5 0 0 0 0-7h-39.735l6.4-28.949h23.791a3.5 3.5 0 1 0 0-7h-22.239l5.841-26.408h20.128a3.5 3.5 0 0 0 0-7h-18.579l5.425-24.523h27.962a3.5 3.5 0 0 0 0-7zm-55.9 100.88h-16.614a8.465 8.465 0 0 1 -8.265-10.293l4.127-18.656h27.158zm7.952-35.949h-27.16l5.842-26.408h27.158zm7.39-33.408h-27.156l3.957-17.887a8.415 8.415 0 0 1 8.266-6.636h20.36z" fill="#60637c"/></svg>