<svg id="Flat" height="512" viewBox="0 0 340 340" width="512" xmlns="http://www.w3.org/2000/svg"><path d="m34.689 311.828s14.511-14.217 40.626-10.217c11.039 1.691 43.8 6.815 80.854-2.079l126.759-140.712a260.226 260.226 0 0 0 6.825-49.788c1.07-26.2.813-64.168-6.667-94.765 0 0-82.661-2.9-129.546 2.321s-123.494 23.212-138.003 125.359c0 0-5.483 34.284 10.807 79.087a161.516 161.516 0 0 1 8.407 35.186c1.992 15.948 3.303 37.169-.062 55.608z" fill="#c9d38c"/><path d="m86.18 234.732a3.5 3.5 0 0 1 -2.269-6.166c.14-.121 14.8-13 16.776-37.96 1.011-12.746-.731-32.614-8.653-50.156-9.8-21.693-18.37-52.737-18.73-54.048a3.5 3.5 0 0 1 6.75-1.855c.087.317 8.791 31.834 18.36 53.023 8.467 18.75 10.331 39.976 9.251 53.589-2.221 27.985-18.526 42.15-19.22 42.739a3.483 3.483 0 0 1 -2.265.834z" fill="#82936e"/><path d="m161.8 143.426a3.5 3.5 0 0 1 -2.736-5.679c.167-.213 17.086-22.01 12.041-49.542-2.717-14.829-8.853-36.91-8.915-37.131a3.5 3.5 0 0 1 6.744-1.879c.255.916 6.282 22.6 9.056 37.749 5.633 30.736-12.666 54.178-13.448 55.161a3.492 3.492 0 0 1 -2.742 1.321z" fill="#82936e"/><path d="m178.589 126.11a3.5 3.5 0 0 1 -1.439-6.693c30.908-13.909 78.008-2.91 80-2.434a3.5 3.5 0 0 1 -1.624 6.808c-.466-.111-46.787-10.916-75.5 2.009a3.489 3.489 0 0 1 -1.437.31z" fill="#82936e"/><path d="m8.6 326.537 16.008-1.293a20.472 20.472 0 0 0 15.544-9.293c7.047-10.9 20.389-31.327 36.818-55.475 0 0 101.381-139.091 162.684-197.753a15.452 15.452 0 0 0 4.369-14.6l-.3-1.3s-145.193 141.008-235.123 279.714z" fill="#82936e"/><path d="m272.264 192.515a242.946 242.946 0 0 0 10.851-34.53l-14.291-3.185s-13.9-2.206-19.692 7.842l-1.021-11.807-15.347-6.222a11.735 11.735 0 0 0 -1.06 1.35 5.788 5.788 0 0 0 1.407 7.944c.28.206.562.435.843.675-8.323.812-26.1 5.427-28.888 29.9a61.11 61.11 0 0 0 -8.781 4.725l-10.5-11.624 11.315-19.229-13.353-13.445c-1.427-1.306-5.162-.293-9.1 4.222a3.53 3.53 0 0 0 .22 4.944l9.606 8.789-10.932 13.811a3.5 3.5 0 0 0 .043 4.4l12.665 15.518a91.279 91.279 0 0 0 -9.884 9.769l-3.579-3.81-27.886 14.708-7.423-12.406a21.529 21.529 0 0 0 -1.9 1.531 11.394 11.394 0 0 0 -2.824 12.829l3.576 8.608a9.513 9.513 0 0 0 13.691 4.053l15.3-9.61c-6.5 11.924-11.313 27.146-11.809 46.307l-13.655 6 .662 6.537a5.958 5.958 0 0 0 7.263 5.207l6.319-1.453c.442 4.689 1.115 9.567 2.07 14.661 39.811-9.555 84.563-35.31 112.657-98.876z" fill="#82936e"/><g fill="#474756"><path d="m189.284 175.344 10.893-14.39a3.5 3.5 0 0 0 -.486-4.745l-12.246-10.725a3.5 3.5 0 0 0 -4.611 5.265l9.794 8.579-10.628 14.044a3.5 3.5 0 0 0 .138 4.395l20.978 24.39a3.5 3.5 0 1 0 5.307-4.565z"/><path d="m173.779 199.553a3.5 3.5 0 0 0 -4.3-.344l-22.747 15.036-4.491-8.043a3.5 3.5 0 0 0 -6.112 3.415l6.332 11.335a3.5 3.5 0 0 0 4.985 1.213l23.609-15.606 14.237 13.094a3.5 3.5 0 0 0 4.738-5.153z"/><path d="m174.986 238.666-20.2.576a3.5 3.5 0 0 0 -3.4 3.594l.709 25.865-9.45 1.784a3.5 3.5 0 0 0 .645 6.94 3.541 3.541 0 0 0 .652-.061l12.383-2.337a3.5 3.5 0 0 0 2.849-3.535l-.695-25.352 16.708-.476a3.5 3.5 0 0 0 -.2-7z"/><path d="m289.112 220.317a3.481 3.481 0 0 0 1-.146l18.01-5.339a3.5 3.5 0 0 0 2.5-3.62l-1.331-17.562 12.88-1.908a3.5 3.5 0 0 0 -1.025-6.924l-16.1 2.384a3.5 3.5 0 0 0 -2.977 3.727l1.364 18-15.3 4.536a3.5 3.5 0 0 0 .994 6.857z"/><path d="m330.99 261.787a3.5 3.5 0 0 0 -4.734-1.445l-8.132 4.329-10.978-24.96a3.514 3.514 0 0 0 -3.8-2.04l-23.368 4.044a3.5 3.5 0 0 0 1.193 6.9l20.67-3.578 11.4 25.907a3.5 3.5 0 0 0 4.849 1.68l11.461-6.1a3.5 3.5 0 0 0 1.439-4.737z"/><path d="m297.82 281.325-17.882-12.253a3.5 3.5 0 1 0 -3.957 5.775l15 10.276-14.315 20.936a3.5 3.5 0 0 0 .482 4.516l9.143 8.669a3.5 3.5 0 0 0 4.817-5.08l-6.979-6.617 14.6-21.359a3.5 3.5 0 0 0 -.909-4.863z"/><path d="m280.9 154.683-7.518-.361a14.549 14.549 0 0 0 -11.565 4.762 36.145 36.145 0 0 0 -2.337 3.12 51.463 51.463 0 0 1 -3.934 4.322 2.216 2.216 0 0 1 -3.794-1.386c-.128-1.728-.242-3.48-.261-4.414a31.938 31.938 0 0 0 -.183-3.5 14.536 14.536 0 0 0 -6.887-10.441l-6.524-3.992a3.5 3.5 0 0 0 -5.13 1.822 3.559 3.559 0 0 0 1.559 4.2l6.442 3.942a7.563 7.563 0 0 1 3.6 5.416c.078.575.1 1.6.12 2.69.072 3.615-.081 8.3 2.241 11.1 2.879 3.479 7.019 3.476 8.425 3.479a3.508 3.508 0 0 0 1.259-.233c3.141-1.205 5.841-4.785 8.793-8.991.7-1 1.421-2.025 1.81-2.458a7.55 7.55 0 0 1 6.026-2.454l7.64.367a3.5 3.5 0 0 0 3.62-4.08 3.584 3.584 0 0 0 -3.402-2.91z"/></g><path d="m283.016 267.163a68.815 68.815 0 0 0 2.208-12.764l-3.969-29.492a97.024 97.024 0 0 0 -6.584-14.933l-9.671-9.241-38.973-11.467-13.138 2.53a96.969 96.969 0 0 0 -13.622 8.988l-19.309 22.644a68.761 68.761 0 0 0 -5.055 11.926c-5.529 17.406-4.808 32.132-1.072 44.228l17.135 28.573a84.476 84.476 0 0 0 14.074 11.888 12.263 12.263 0 0 0 6.745 2 84.408 84.408 0 0 0 18.306-2.372l29.789-14.671c9.726-8.151 18.343-20.158 23.136-37.837z" fill="#f4737d"/><path d="m241.882 207.329a3.5 3.5 0 0 0 -4.346 2.37l-32.47 110.363c.773.514 1.424.925 1.926 1.231a5.026 5.026 0 0 0 2.5.737c.588.014 1.357.022 2.285.008l32.47-110.363a3.5 3.5 0 0 0 -2.365-4.346z" fill="#bf454f"/><path d="m199.265 200.786a73.674 73.674 0 0 0 -19.3 22.645 15.064 15.064 0 0 0 19.3-22.645z" fill="#474756"/><path d="m183.192 279.683a17.234 17.234 0 0 0 -9.363-.1 72.9 72.9 0 0 0 17.135 28.572 17.321 17.321 0 0 0 -7.772-28.47z" fill="#474756"/><circle cx="195.787" cy="256.013" fill="#474756" r="12.969"/><path d="m237.725 167.012c-22.646 5.057-24.84 24.784-24.84 24.784 9.449 12.9 27.076 22.061 27.076 22.061s19.779 1.847 34.71-3.883c0 0 8.838-17.772-7.461-34.288a31.7 31.7 0 0 0 -29.485-8.674z" fill="#474756"/><path d="m260.638 172.579c-.459 5.258-.209 20.248 16.418 26.2a16.931 16.931 0 0 0 2.37-19.2c-4.8-9.6-13-9.731-16.676-9.238a2.456 2.456 0 0 0 -2.112 2.238z" fill="#fff"/><path d="m281.252 224.908a73.664 73.664 0 0 1 3.966 29.491 15.063 15.063 0 0 1 -3.966-29.491z" fill="#474756"/><path d="m237.336 222.781a15.077 15.077 0 1 0 10.208 18.719 15.077 15.077 0 0 0 -10.208-18.719z" fill="#474756"/><path d="m252.038 299.938a17.238 17.238 0 0 1 7.926 4.985 72.888 72.888 0 0 1 -29.877 14.74 17.32 17.32 0 0 1 21.951-19.725z" fill="#474756"/><circle cx="254.267" cy="273.219" fill="#474756" r="12.969"/><path d="m245.041 167.978c-2.5 4.68-10.917 17.111-28.1 13.118a16.93 16.93 0 0 1 8.406-17.424c9.224-5.472 16.264-1.142 19.123 1.265a2.454 2.454 0 0 1 .571 3.041z" fill="#fff"/></svg>