<svg id="Flat" height="512" viewBox="0 0 340 340" width="512" xmlns="http://www.w3.org/2000/svg"><path d="m185.157 307.588h-.012a3 3 0 0 1 -2.988-3.012l.412-109.932a3 3 0 0 1 3-2.988h.012a3 3 0 0 1 2.989 3.012l-.413 109.932a3 3 0 0 1 -3 2.988z" fill="#474756"/><path d="m172.952 161a463.931 463.931 0 0 0 8.413 54.276 3.947 3.947 0 0 0 7.72-.083c2.782-13.9 6.5-33.861 8.277-49.6z" fill="#ea6e93"/><path d="m185.157 304.588v12.276a13 13 0 0 1 -13 13h-16.268a1.7 1.7 0 0 1 -1.287-2.82 25.6 25.6 0 0 1 12.894-7.806c14.071-3.738 17.661-14.65 17.661-14.65z" fill="#474756"/><path d="m188.157 304.6v12.23a13.03 13.03 0 0 1 -13.03 13.03h-8.614s15.644-11.013 15.644-25.283z" fill="#474756"/><path d="m152.562 149.226a65.905 65.905 0 0 0 19.179 21.657 19.946 19.946 0 0 0 8.266 3.421c1.9.315 4.371.636 7.381.84a11.711 11.711 0 0 0 11.228-6.361c2.121-4.182 4.216-10.536 4.489-19.557z" fill="#ea6e93"/><path d="m91.434 108.027s-3.83 43.987 64.787 47.1c18.428-4.47 59.3.944 62.754.96 7.105.032 13.535.012 18.423-.088a36.524 36.524 0 0 1 28.889 12.906 56.905 56.905 0 0 1 6.612 9.876 1.369 1.369 0 0 0 2.58-.5c1.248-14.071.264-57.958-52.361-97.216a50.6 50.6 0 0 0 -64.036 1.907 55.82 55.82 0 0 0 -14.031 18.589l-3.893 13.5c-12.718 5.99-21.894 3.475-26.072-11.041l2.04-7.515c.74-3.678 2.78-7.809 6.947-12.255a247.494 247.494 0 0 1 19.069-17.9 29.71 29.71 0 0 0 8.792-32.688q-.206-.559-.436-1.124a35.139 35.139 0 0 0 -22.3-20.006c-12.546-3.902-32.482-5.323-50.523 14.25l19.5 24.834s7.9-13.352 18.214-18.563a11.714 11.714 0 0 1 9.721-.446q.435.178.881.393a11.91 11.91 0 0 1 2.018 20.012c-4.165 3.3-10.136 7.949-16.288 12.441-22.352 16.32-21.287 42.574-21.287 42.574z" fill="#ffa4bf"/><path d="m95.865 32.539s7.175 9.423 2.309 19.077a37.607 37.607 0 0 1 -10.529 12.046l-11.219-4.684c2.014-9.587 7.226-19.978 19.439-26.439z" fill="#e87b3b"/><path d="m95.865 32.539s-11.2 8.155-16.6 26.53l-13.665 5.1a49.164 49.164 0 0 1 -.588-19.9 11.152 11.152 0 0 1 3.662-6.384 71.357 71.357 0 0 0 10.006-11.1s11.778.547 17.185 5.754z" fill="#ffb65f"/><g fill="#ea6e93"><path d="m117.137 103.222a16.634 16.634 0 0 1 0-6.709s-10.477 16.787 6.115 26.507c7.671 4.492 17.119-.463 19.652-7.732a43.263 43.263 0 0 0 2.147-13.723 30.606 30.606 0 0 1 -5.963 8.624c-7.377 7.142-19.857 3.085-21.951-6.967z"/><path d="m264.16 156.535a3 3 0 0 1 -2.655-1.6c-.07-.134-.143-.265-.215-.4a3 3 0 1 1 5.238-2.926c.095.171.19.343.282.518a3 3 0 0 1 -2.65 4.4z"/><path d="m242.5 123.1a14.328 14.328 0 0 1 -6.414-9.423c0-.02-.009-.038-.012-.058s0-.037 0-.056a23.847 23.847 0 0 1 -.178-4.333 3 3 0 1 0 -5.993-.284c-.033.71-.037 1.375-.026 1.99-13.19-1.039-14.933-9.725-15-10.091 0-.024-.013-.046-.018-.071s0-.042-.007-.064a19.7 19.7 0 0 1 -.165-6.5 3 3 0 1 0 -5.887-1.21 20.674 20.674 0 0 0 -.287 5.362c-12.5-.227-17.844-5.446-20.109-9.994a3 3 0 1 0 -5.37 2.676c2.551 5.121 9.385 13.448 26.722 13.334 1.728 4.17 6.837 11.982 20.981 12.622a20.506 20.506 0 0 0 8.536 11.162 3 3 0 0 0 3.227-5.062z"/><path d="m257.549 142.224a29.41 29.41 0 0 0 -12.24-3.744c-5.588-.518-7.194-2.834-7.427-3.225a2.715 2.715 0 0 0 -.317-.622 19.589 19.589 0 0 1 -1.211-3.094 3 3 0 0 0 -5.766 1.659c.066.23.139.451.21.673-5.3.267-9.5-.711-12.5-2.967a11.418 11.418 0 0 1 -4.413-7.026 3 3 0 0 0 -5.958.7 17.508 17.508 0 0 0 6.629 11.014c4.684 3.6 11.126 4.97 19.165 4.074 1.6 1.809 4.842 4.211 11.031 4.784a23.494 23.494 0 0 1 9.767 2.95 3 3 0 1 0 3.027-5.18z"/></g><circle cx="105.87" cy="23.469" fill="#474756" r="3.899"/><path d="m208.232 156.009c3.675.037 7.287.064 10.743.079-7.322-25.219-22.841-30.571-22.841-30.571 1.837-.624 3.6-1.131 5.027-1.511a2.034 2.034 0 0 0 .881-3.433 29.536 29.536 0 0 0 -10.415-6.477c-12.342-4.441-21.584 2.928-20.4 15.991l.785 8.7 4.935 13.229a84.766 84.766 0 0 1 31.285 3.993z" fill="#ea6e93"/><path d="m86.653 64.381c.341-.238.662-.483.986-.726-8.965-8.98-18.06-3.021-22.036.512a67.377 67.377 0 0 0 8.466 20.209 1.771 1.771 0 0 0 3.247-.654c1.024-5.899 3.772-15.445 9.337-19.341z" fill="#474756"/><path d="m187.306 151.567-19.842-19.638a8.884 8.884 0 0 0 -15.1 5.457c-.445 4.823.362 10.782 3.858 17.736 4.3.2 8.875.237 13.763.09 0 0 6.249.179 15.28.377z" fill="#ea6e93"/><path d="m155.943 229.073-.005-.011a3 3 0 0 1 1.741-3.869l50.215-18.161a3 3 0 0 1 3.865 1.729v.011a3 3 0 0 1 -1.74 3.87l-50.212 18.158a3 3 0 0 1 -3.864-1.727z" fill="#474756"/><path d="m166.389 224.427a26 26 0 0 0 -5.932 7.46s-6.049 21.048-26.445 20.534a2.237 2.237 0 0 1 -2.028-2.946c1.879-5.829 8.791-19.487 33.258-27.071a1.187 1.187 0 0 1 1.147 2.023z" fill="#474756"/><path d="m184.271 155.06s22.861 12.221 39.638 31.337a6.915 6.915 0 0 1 -1.169 10.223 162.621 162.621 0 0 1 -18.082 10.98 3.775 3.775 0 0 0 2.23 7.089l.527-.067c4.163-.521 7.915-2.017 12.108-1.857 5.859.223 17.518-.265 25.456-6.682a14.151 14.151 0 0 0 -2.144-23.462 36.575 36.575 0 0 0 -5.369-2.406c-18.587-6.672-27.931-26.908-27.931-26.908z" fill="#ffa4bf"/><path d="m159.829 145.294c7.707 10.247 23.389 22.526 49.706 8.012 0 0-2.883-16.837-24.378-28.061 1.24-2.843 4.688-3.782 8.518-4.392a26.641 26.641 0 0 0 -14.757-7.422 19.9 19.9 0 0 0 -21.85 12.938 20.018 20.018 0 0 0 2.761 18.925z" fill="#ffa4bf"/></svg>