<svg id="Flat" height="512" viewBox="0 0 340 340" width="512" xmlns="http://www.w3.org/2000/svg"><path d="m170 49.91-39.467 34.305 7.478 59.284h63.978l7.478-59.284z" fill="#e59b9d"/><path d="m150.736 92.595h38.528v50.904h-38.528z" fill="#ffebe1"/><path d="m124.085 285.221s39.235 4.292 47.535 40.748h-42.193s-7.759-7.3-9.412-15.947c0 0 9.92-.89 15.517 2.163a45.27 45.27 0 0 1 -11.447-26.964z" fill="#82936e"/><path d="m160.218 152.221h19.565v169.375h-19.565z" fill="#e59b9d"/><path d="m156.645 325.969s1.145-25.867 26.074-36.805c0 0 2.936 10.477 0 18.4 0 0 15.946-10.856 27.356-22.345 0 0 3.072 16.024-4.081 25.692l11.447-2.544s-.254 12.687-9.539 17.6z" fill="#c9d38c"/><path d="m179.782 182.064v-29.843h-19.564v21.148z" fill="#915362"/><path d="m130.533 84.215 1.659 13.154c10.783-5.675 25.6-15.326 37.808-30.09 12.208 14.764 27.025 24.415 37.808 30.09l1.659-13.154-39.467-34.305z" fill="#915362"/><g fill="#e59b9d"><path d="m179.726 25.94v-11.909h-19.452v11.909a26.471 26.471 0 0 1 -5.1 15.718c-16.806 22.8-45.7 35.7-45.7 35.7l3.89 14.482c34.157-11.24 56.636-41.93 56.636-41.93s22.479 30.69 56.629 41.932l3.89-14.482s-28.89-12.9-45.7-35.7a26.471 26.471 0 0 1 -5.093-15.72z"/><path d="m121.8 141.77.658 10.4a7.127 7.127 0 0 0 7.114 6.678h80.854a7.127 7.127 0 0 0 7.114-6.678l.658-10.4z"/><path d="m190.264 113.092h-16.764v-21.497h-7v21.497h-16.764v7h16.764v23.407h7v-23.407h16.764z"/></g></svg>