<svg id="flat" height="512" viewBox="0 0 500 500" width="512" xmlns="http://www.w3.org/2000/svg"><g fill="#4f424c"><path d="m129.8 123.532c-1.91 10.525 3.829 22.594 9.317 31.251 19.827 31.182 59.135 44.639 74.428 79.3 2.026 4.569 10.084 1.252 8.16-3.441-18.287-44.63-78.211-56.473-86.412-107.113-.817-2.441-4.955-2.964-5.493 0z"/><path d="m305.607 118s1.637 62.762-53.438 123.059l29.634-21.9s33.176-42.328 34.354-97.911z"/><path d="m270.666 129.824q-9.517 42.918-15.666 86.492c-1.817 12.882-3.41 26.009-1.33 38.851a45.667 45.667 0 0 1 -23.95-6.132 328.836 328.836 0 0 0 25.752-117.549z"/><path d="m86.173 135.256c22.214 62.764 90.287 54.756 133.216 90.627l2.522 46.024c-25.909-80.4-118.7-50.3-148.043-130.865z"/><path d="m283.327 207.509c50.639-31.944 129.909-10.919 159-76.117l13 1.548c-33.561 85.471-151.467 45.46-193.759 119.048z"/></g><path d="m227.093 214.432c2.49 9.909 7.884 41.16 16.935 32.118 17.941-21.961 34.786-46.451 54.228-67.39 5.8-2.488 10.534-1.578 14.938.373-23.155 26.721-43.313 61.019-62.037 98.942-8.308 20.308-5.992 120.148-7.129 142.06 0 0-22.679 9.1-21.919-12.317 3.006-84.673-.4-156.624-13.506-206.051-2.2-8.3 10.049-14.866 10.049-14.866s5.001 13.439 8.441 27.131z" fill="#ff9f9c"/><path d="m251.157 278.475c11.435-23.16 23.409-44.955 36.27-64.511-49.84 44.911-52.864 104.007-55.892 166.654-.489 8.025-2.6 17.382-9.215 21.27 0 0-2.141 49.968-3.668 72.851l28.265 14.489s-4.068-190.445 4.24-210.753z" fill="#e77c81"/><path d="m209.09 172.434c-3.269.374-5.963 2.481-7.929 6.778a206.311 206.311 0 0 1 7.437 22.956 82.946 82.946 0 0 1 10.876-9.375c-4.461-10.805-9.237-20.493-10.384-20.359z" fill="#e77c81"/><path d="m328.264 149.68a333.043 333.043 0 0 0 -30 29.491 13.558 13.558 0 0 1 12.122 6.879 294.115 294.115 0 0 1 29.972-28.06c1.917-9.081-3.153-11.639-12.094-8.31z" fill="#e77c81"/><path d="m366.425 122.976a225.429 225.429 0 0 0 -38.157 26.708c5.654 1.1 10.908 4.7 13.005 10.212 17.226-13.955 32.441-21.917 46.3-29.765z" fill="#4f424c"/><path d="m215.556 173.539a284.615 284.615 0 0 0 -17.692-35.349l-16.948 7.6c7.994 8.147 14.7 19.417 20.239 33.419a30.918 30.918 0 0 1 14.401-5.67z" fill="#4f424c"/><path d="m219.408 7.154a100.461 100.461 0 0 0 -52.208 17.336 11.8 11.8 0 0 1 -10.863 2.5c-19.27-2.827-39.648 3.814-54.2 17.662-5.619 6.282-9.811 6.733-17.83 6.641 0 0-20.68 17.1-5.01 48.878s94.675 23.071 105.122.653 31.34-44.617 53.54-50.928 8.953-30.253 8.953-30.253z" fill="#bfcc7f"/><path d="m298.269 63.785-15.178-45.262c-6.913 1.948-13.58.008-19.79-3.23a97.4 97.4 0 0 0 -43.892-8.128c12.645 6.947 23.753 17.609 13.773 29.375-20.734 18.16-46.982 2.827-59.882 44.702-6.274 23.79-46.819 32.479-47.991-2.537-.152-4.536 2.008-10.507 5.344-15.2a5.05 5.05 0 0 0 -5.356-7.772c-14.074 3.536-21.834 16.338-29.254 16.556-4.294.126-9.34-.986-10.908-4.985a24.4 24.4 0 0 1 -.818-16.017c-10.881 1.236-36.707-2.807-39.938 53.44-1.472 51.273 50.786 34.942 50.786 34.942l73.574 4.935z" fill="#919951"/><path d="m310.058 20.329c-7.5-5.758-17.871-3.59-26.967-1.807-1.164 26.515-28.92 29.872-49.555 34.422-13.516 3.483-34.136 15.448-42.752 47.756-11.086 41.559-62.635 36.377-79 31.766a35.306 35.306 0 0 1 -9.324-3.981c-3.386-2.132-6.155-4.737-10.14-5.819-10.33-2.806-19.21 5.187-29.762 2.654a9.251 9.251 0 0 1 -6.879-11.55c1.184-4.908 4.266-8.045 3.643-13.4-.681-5.856-2.57-10.523-2.255-16.526.684-13.035 6.057-25.366 16.783-31.6-12.867 1.7-26.244 10.109-28.328 23.915-13.773 1.541-23.075 15.279-30.512 27.727-3.645 6.1-7.207 14.444-2.8 19.891 1.146 1.417 2.744 2.44 3.582 4.083 1.934 3.793-1.053 8.216-1.848 12.464-1.444 7.695 5.056 14.96 12.225 16.751s14.657-.382 21.762-2.542l24.361-7.4c2.357-.716 4.8-1.44 7.22-1.1 3.522.5 6.373 3.116 9.437 5.011 17.453 10.8 39.591-2.3 59.731-.109 11.483 1.247 22.3 7.546 33.847 7.028 12.8-.573 23.849-9.325 33.988-17.7 10.148 8.016 24.366 5.246 36.727 2.115 14.6-3.7 29.394-7.474 42.59-15.111 5.777-3.344 11.235-7.421 17.413-9.813 8.288-3.209 17.331-3.183 25.93-5.244a58.2 58.2 0 0 0 32.457-21.54c31.521-38.47-22.595-89.144-61.574-70.341z" fill="#4f424c"/><path d="m272 57.517a75.664 75.664 0 0 1 46.752-16.812c6.722-.057 13.488.78 20.145-.118 7.088-.956 13.724-3.833 20.552-5.916 26.71-8.15 65.06-3.722 89.67 22.329 7.485 7.924-11.709 56.643-11.709 56.643l-81.78 5.557s-85.654-2.073-90.878-25.578 7.248-36.105 7.248-36.105z" fill="#bfcc7f"/><path d="m475.681 94.842a83.2 83.2 0 0 0 -8.632-7.815 82.676 82.676 0 0 0 -17.931-30.027c-2.612 10.288-14.71 8.073-26.518 8.712a2.127 2.127 0 0 0 -.8 4.052c8.529 3.879 18.007 11.983 7.056 25.153-5.582 6.712-17.185 4.253-25.606 1.948-8.36-2.287-15.855-7.392-24.406-8.809-7.852-1.3-15.827.627-23.634 2.173-13.53 3.218-31.757 2.67-35.414-13.564a4.6 4.6 0 0 0 -5.3-3.9c-13.928 2.226-48.866 8.779-42.488-15.233-6.027 5.624-8.884 6.747-17.17 5.928-7.745-.178-15.248 2.336-21.948 6.24 0 0-28.041 21.511 9.692 38.61s113.048 10.89 113.048 10.89l99.7 16.058s25.242 3.816 20.351-40.416z" fill="#919951"/><path d="m341.273 159.9a12.006 12.006 0 0 0 -.247-6.707c-13.745 11.167-67.281 57.447-90.835 118.719 0 0-6.083 9.858-6.768 36.523s-6.463 151.992-6.463 151.992 1.119 15.148-18.309 14.317q-.6 9.033-1.278 18.2h34.8s-9.587-22.984-3.109-147.812c1.137-21.912-1.57-44.336 4.836-65.322a140.555 140.555 0 0 1 15.288-33.217c27.703-44.423 51.351-69.902 72.085-86.693z" fill="#4f424c"/><path d="m231.979 246.316c2.549 11.983 12.049.234 12.049.234-1.663.921-5.75 1.583-7-3.327-2.516-9.9-5.637-19.621-8.127-29.529a284.813 284.813 0 0 0 -13.331-40.14l-.016-.015a13.667 13.667 0 0 0 -6.462-1.1c2.854 6.776 14.292 33.461 22.887 73.877z" fill="#4f424c"/><path d="m485.761 107.505a56.423 56.423 0 0 0 -10.083-12.66c2.052 13.662-10.137 27.167-23.737 27.71-8.978.462-17.522-2.664-26.231-4.3-8.633-1.617-16.652-.786-25.275.3-10.625 1.63-17.115.92-25.045-6.753-15.147-12.4-35.188-2.232-52.622-2.576-8.683.2-26.786 1.009-27.036-11.646-.317-11.006-30.775 13.912-54.925 1.173-6.6-3.385-11.629-9.294-11.9-16.937-.156-4.325-.224-8.186 4-12.118-10.041 5.961-20.867 15.7-20.812 27.879.166 11.066 10.229 20.087 21.11 23.093s22.445 1.389 33.633-.1c5.046-.966 9.083-.137 12.4 3.866 8.266 7.79 20.689 9.671 32.112 8.912s22.622-3.744 34.068-4.077c12.783-.807 7.61 14.869 37.095 11.29 18.608-3.026 24.275-4.5 42.143 3.077 16.893 4.944 52.119 6.768 62.138-9.807 4.832-7.858 3.467-18.242-1.033-26.326z" fill="#4f424c"/><path d="m138.643 71.472c1.531-2.385 2.37-5.191 3.886-7.624s3.358-4.649 4.828-7.1a2.066 2.066 0 0 0 -2.806-2.806c-4.929 3.107-9.511 10.665-9.293 16.611a1.832 1.832 0 0 0 3.385.916z" fill="#919951"/><path d="m151.854 66.025c1.514-.354 2.835-1.885 3.965-2.9a18.879 18.879 0 0 0 3.474-3.425c.979-1.512-.668-3.853-2.448-3.185a13.7 13.7 0 0 0 -4.251 3.078c-1.132 1.062-2.8 2.5-3.1 4.069a1.947 1.947 0 0 0 2.364 2.364z" fill="#919951"/><path d="m404.948 65.288c.709 3.515 2.14 7.9 4.325 10.778 1.046 1.38 4.075 1.239 3.8-1.029a28.763 28.763 0 0 0 -4.483-11.284 2 2 0 0 0 -3.641 1.535z" fill="#919951"/><path d="m394.264 64.717c.179 1.687.425 3.881 2.044 4.8a2.52 2.52 0 0 0 3.335-.875c.948-1.642.031-3.639-.711-5.189a2.525 2.525 0 0 0 -4.668 1.264z" fill="#919951"/><path d="m386.877 63.141.036-.048-1.349 1.037a2.6 2.6 0 0 0 -.6-5.12c-2.994-.068-3.531 4.527-.6 5.12l-1.349-1.037a2.241 2.241 0 0 0 3.862.048z" fill="#919951"/><path d="m274.444 226.518c-28.586 28.178-39.694 69.524-41.951 108.567-.18 2.7 3.911 2.632 4.172 0 2.6-28.652 7.584-57.924 23.166-82.659 5.143-8.45 11.5-15.874 17.208-23.906 1.117-1.57-1.282-3.259-2.595-2z" fill="#4f424c"/><path d="m231.015 362.675c-1.185 9.277-.943 18.882-1.176 28.23-.731 29.185-1.257 58.377-1.257 87.573 0 2.669 4.145 2.673 4.149 0 .037-29.2.612-58.388 1.365-87.573.241-9.343 1.013-18.906.341-28.23a1.712 1.712 0 0 0 -3.422 0z" fill="#4f424c"/><path d="m233.107 347.491a2.854 2.854 0 0 0 -1.157 1.5l1.82-1.386a.656.656 0 0 0 -.262.034 2.1 2.1 0 0 0 -1.744 2.39 1.911 1.911 0 0 0 1.22 1.6 1.02 1.02 0 0 0 .516.14c2.475.387 3.448-3.621 1.361-4.734a2.308 2.308 0 0 0 -2.689 3.712l-.351-.454a1.259 1.259 0 0 1 .121.207l-.218-.517a1.173 1.173 0 0 1 .067.231l-.074-.552a.83.83 0 0 1 .01.1l3.81-1.032a2.107 2.107 0 0 0 -1.028-.954.613.613 0 0 0 -.237-.1l1.386 1.82a1.129 1.129 0 0 1 0-.13l-.066.5a1.017 1.017 0 0 1 .052-.211l-.183.433a1.847 1.847 0 0 0 .292-1.29.889.889 0 0 0 -.122-.45 1.715 1.715 0 0 0 -1.864-1.063 1.334 1.334 0 0 0 -.663.211z" fill="#4f424c"/><path d="m228.663 228.664c1.7 12.044 4.533 23.718 5.295 35.922.391 4.356.209 10.7.6 14.187-.109 2.427 3.665 2.422 3.773 0 .715-3.69.165-10.691-.142-15.434-.905-11.74-2.162-24.494-6.3-35.566a1.677 1.677 0 0 0 -3.231.891z" fill="#4f424c"/></svg>