<svg id="Flat" height="512" viewBox="0 0 340 340" width="512" xmlns="http://www.w3.org/2000/svg"><path d="m77.468 311.431c-1.536-9.478-5.635-13.064-5.635-13.064-5.891 4.867-8.709 12.552-8.709 12.552-7.941-13.833-26.64-23.054-26.64-23.054a116.45 116.45 0 0 1 2.5 21.718c-16.284-11.115-30.519-7.373-30.519-7.373 10.535 10.931 14.187 26.273 14.187 26.273h63.948c-8.337-5.222-9.132-17.052-9.132-17.052z" fill="#82936e"/><path d="m119.3 24.845a57.034 57.034 0 0 1 -28.5 4.239c-18.7-2.024-50.8-1.669-67.481 20.621 0 0-9.778 11.334 0 28.223a46.665 46.665 0 0 0 -8.765 10.066c1.4 20.112 6.473 37.364 28.374 41.489l152.993 24.285c42.18 2.04 75.677-12.532 102.287-40.285 0 0 28.836-.547 32.92-18.844a19.227 19.227 0 0 0 -.937-10.9c-3.548-9.473-15.8-30.978-55.539-40.7 0 0-65.371-56.521-155.352-18.194z" fill="#80a2a5"/><path d="m158.573 263.588h110.437v19.352h-110.437z" fill="#915362" transform="matrix(0 1 -1 0 487.056 59.473)"/><path d="m249.232 263.588h110.437v19.352h-110.437z" fill="#915362" transform="matrix(0 1 -1 0 577.716 -31.186)"/><path d="m187.62 210.707h143.002v18.269h-143.002z" fill="#e59b9d"/><path d="m187.62 244.778h143.002v18.269h-143.002z" fill="#e59b9d"/><path d="m187.62 278.848h143.002v15.212h-143.002z" fill="#e59b9d"/><path d="m247.559 110.827c-117.315 51.173-156.944 4.259-156.944 4.259-55.438 14.226-71.796-15.163-76.056-27.086-4.941 7.609-9.07 18.936-3.24 31.931 10.666 23.777 38 21.111 38 21.111s-4.219 34.441 48.222 37.552c29.8 1.768 49.264-2.132 60.521-5.829a51.947 51.947 0 0 1 27.89-1.324c25.384 5.849 75.551 13.09 101.589-12.625 0 0 21.111-18 10.667-45.333-37.142 18.01-50.649-2.656-50.649-2.656z" fill="#5c797c"/><g fill="#474756"><path d="m86.043 120.742a31.3 31.3 0 0 0 -21.979-4.985c-19.854 2.287-26.434-6.407-26.757-6.857a3.5 3.5 0 0 0 -5.776 3.954c.35.518 8.871 12.672 33.335 9.853a24.326 24.326 0 0 1 17.293 3.855 3.5 3.5 0 1 0 3.884-5.824z"/><path d="m154.362 81.163a3.5 3.5 0 0 0 -4.913-.6c-15.427 12.043-32.336 7.69-41.042 4.024-.142-.06-.285-.111-.427-.168 14.869-7.721 19.68-20.177 19.9-20.777a3.5 3.5 0 0 0 -6.552-2.463c-.215.56-5.441 13.749-22.507 19.549-1.854.473-16.941 4.62-21.914 15.331-2.424 5.218-2.1 10.971.971 17.1a3.5 3.5 0 1 0 6.259-3.134c-2.091-4.175-2.382-7.775-.888-11 1.64-3.544 5.324-6.288 9-8.234a17.25 17.25 0 0 1 13.44.252 55.032 55.032 0 0 0 21.032 4.461 43.015 43.015 0 0 0 27.035-9.418 3.5 3.5 0 0 0 .606-4.923z"/><path d="m186.769 85.024a3.5 3.5 0 1 0 2.17-6.655c-17.321-5.649-16.445-22.846-16.4-23.614a3.5 3.5 0 0 0 -6.983-.489c-.573 8.059 3.12 24.857 21.213 30.758z"/><path d="m264.761 67.975a3.5 3.5 0 0 0 -4.948-.168c-11.52 10.765-32.584 10.073-44.113 8.7a23.035 23.035 0 0 0 -5.372 0c9.025-10.507 15.917-15.156 20.516-17.183a3.5 3.5 0 1 0 -2.823-6.405c-10.19 4.49-21.48 15.5-33.554 32.728-25.162 35.9-51.17 41.557-51.483 41.621a3.5 3.5 0 0 0 1.352 6.868c1.167-.228 28.884-6.02 55.816-44.406a16.03 16.03 0 0 1 14.72-6.265c15.556 1.846 36.812 1.518 49.719-10.54a3.5 3.5 0 0 0 .17-4.95z"/><path d="m258.344 141.139c-16.758 3.813-28.418.655-35.246-2.665-6.561-3.19-20.213-9.827-35.23-6.117a3.5 3.5 0 0 0 1.679 6.8c12.558-3.1 24.669 2.786 30.489 5.616a53.47 53.47 0 0 0 23.57 5.113 73.308 73.308 0 0 0 16.292-1.918 3.5 3.5 0 1 0 -1.554-6.825z"/></g><path d="m63.708 75.316a2.729 2.729 0 0 1 5.2.428c3.55 16.566 17.78 50.943 74.752 50.943 57.551 0 90.891-13.423 103.313-19.685a2.729 2.729 0 0 1 3.63 3.722c-5.485 10.335-25.972 29.128-102.24 33.323a30.819 30.819 0 0 0 -23.92 13.632c-14.677 21.935-36.847 82.2-15.667 170.8h-45.736s-16.9-119.018 28.516-179.46a12.025 12.025 0 0 0 -3.31-17.531c-14.841-8.951-35.853-27.409-24.538-56.172z" fill="#995c6b"/><path d="m143.175 313.992c6.4-9.477 2.049-19.932 2.049-19.932-10.246 13.879-26.9 18.14-26.9 18.14 3.587-10.759 0-21.517 0-21.517-33.264 13.845-38.163 37.8-38.163 37.8h70.951c15.625-5.489 16.906-16.8 16.906-16.8a58.932 58.932 0 0 0 -24.843 2.309z" fill="#c9d38c"/></svg>