<svg id="Flat" height="512" viewBox="0 0 340 340" width="512" xmlns="http://www.w3.org/2000/svg"><path d="m110.759 75.666v-4.166a58.463 58.463 0 0 1 58.463-58.463 58.418 58.418 0 0 1 18.327 2.93c14.747 12.821 21.693 33.284 23 59.275z" fill="#f9b6a5"/><path d="m227.686 75.243v-3.743a58.478 58.478 0 0 0 -40.141-55.519c6.662 8.215 13.244 24.032 13.244 54.491v4.868z" fill="#c4776c"/><path d="m210.5 168.874v67.956a26.392 26.392 0 0 1 -26.746 26.385c-4.336-.055-8.839-.182-13.213-.421 0 0-26.205.842-29.563 33.956a12.005 12.005 0 0 0 11.957 13.189h117.665a9.57 9.57 0 0 0 9.57-9.57v-131.5z" fill="#5f72ad"/><rect fill="#5f72ad" height="24.293" rx="7.241" width="84.008" x="203.474" y="147.016"/><path d="m200.79 70.468c-36.976-3.663-75.719 2.515-90.031 5.2v29.718h116.927z" fill="#ef73a4"/><path d="m111.6 207.722c-.718-18.832-3.857-43.341-14.468-56.916a1.172 1.172 0 0 0 -2.1.709v56.171a9.689 9.689 0 0 1 -13.513 8.874 12.61 12.61 0 0 1 -7.753-11.81v-35.426s1.252-14.068-7.386-21.68a1.151 1.151 0 0 0 -1.508 0c-8.638 7.612-7.386 21.68-7.386 21.68v35.426a12.609 12.609 0 0 1 -7.753 11.81 9.688 9.688 0 0 1 -13.512-8.874v-56.169a1.172 1.172 0 0 0 -2.1-.713c-10.611 13.573-13.751 38.081-14.469 56.913a24.843 24.843 0 0 0 24.807 25.826 14.408 14.408 0 0 1 14.408 14.408v13.984h13.52v-13.984a14.408 14.408 0 0 1 14.403-14.408 24.842 24.842 0 0 0 24.81-25.821z" fill="#e1ecfe"/><path d="m243.391 201.385v52.468a26.394 26.394 0 0 1 -26.746 26.385c-4.336-.055-8.839-.183-13.213-.421 0 0-26.2.842-29.563 33.956a12.005 12.005 0 0 0 11.956 13.189h117.667a9.57 9.57 0 0 0 9.571-9.57v-116.007c-21.539-3.733-44.885-3.464-69.672 0z" fill="#89b9f2"/><path d="m243.391 185.897h69.672v15.489h-69.672z" fill="#5f72ad"/><rect fill="#89b9f2" height="24.293" rx="7.241" width="84.008" x="236.363" y="164.039"/><path d="m58.186 243.59a14.38 14.38 0 0 1 .676 4.361v13.984h13.52v-13.984a14.322 14.322 0 0 1 2.715-8.395c-5.839 1.377-11.897 2.817-16.911 4.034z" fill="#aac3d6"/><path d="m52.64 313.8.013-1.018.674-49.86a9.2 9.2 0 0 1 9.2-9.067h3.5c10.072 5.945 10.025 40.451 0 59.517z" fill="#ffc180"/><path d="m227.686 75.243a164.529 164.529 0 0 0 -26.9-4.764v23.162a80.49 80.49 0 0 1 26.9 11.707z" fill="#c94585"/><path d="m43.056 118.007h198.166c-.5-12.715-16.572-19.921-40.433-24.367-9.7-.562-20.2-.879-31.567-.879 0 0-76.023-.4-126.908 21.618a1.89 1.89 0 0 0 .742 3.628z" fill="#f9b6a5"/><path d="m297.83 114.439c-11.51-5.939-40.63-17.522-97.03-20.795.229.045 25.662 5.082 40.42 24.363h55.746a1.888 1.888 0 0 0 .864-3.568z" fill="#c4776c"/><path d="m78.605 313.8-.687-50.878a9.2 9.2 0 0 0 -9.2-9.067h-2.7c1.4 1.3 2.894 3.871 2.894 8.973v30.072a18.038 18.038 0 0 1 -8.892 15.547l-7.371 4.336-.009 1.017a12.984 12.984 0 1 0 25.965 0z" fill="#e8905e"/></svg>