<svg id="Flat" height="512" viewBox="0 0 340 340" width="512" xmlns="http://www.w3.org/2000/svg"><path d="m208.225 150.633s16.5-1.594 16.5 30.583v20.323s-.446 16.08 13.325 21.447c0 0 5.022 2.015 5.022 12.582v46.768h29.637s7.186-45.958-20.038-77.474a40.1 40.1 0 0 1 -9.826-23.773c-.633-10.452-2.472-24.751-7.525-36.672-10.231-24.138-46.389-18.9-49.138 7.168q-.074.691-.126 1.406z" fill="#89b9f2"/><path d="m131.772 150.633s-16.5-1.594-16.5 30.583v20.323s.446 16.08-13.325 21.447c0 0-5.022 2.015-5.022 12.582v46.768h-29.642s-7.183-45.958 20.038-77.474a40.108 40.108 0 0 0 9.826-23.773c.632-10.452 2.472-24.751 7.525-36.672 10.231-24.138 46.388-18.9 49.138 7.168q.072.691.126 1.406z" fill="#89b9f2"/><path d="m132.174 174.982c1.268 6.94 5.574 16.488 19.392 19.161l13.777 1.908s21.006-3.434 24.347-23.618z" fill="#dce9ff"/><g fill="#5f72ad"><path d="m218.5 101.448a3.5 3.5 0 0 1 -3.362-3.441q-.014-.807-.039-1.588a3.5 3.5 0 0 1 7-.226q.027.837.04 1.7a3.5 3.5 0 0 1 -3.443 3.556c-.073.002-.137.001-.196-.001z"/><path d="m216.9 86.393a3.5 3.5 0 0 1 -3.282-2.748 39.111 39.111 0 0 0 -2.964-8.81 8.714 8.714 0 0 0 -4.167-4.112 3.5 3.5 0 1 1 2.959-6.343 15.638 15.638 0 0 1 7.492 7.371 46.05 46.05 0 0 1 3.517 10.393 3.5 3.5 0 0 1 -2.668 4.169 3.536 3.536 0 0 1 -.887.08z"/><path d="m191.418 76.379a3.5 3.5 0 0 1 -2.739-5.492q.658-.95 1.357-1.849a16.234 16.234 0 0 1 1.164-1.338 3.5 3.5 0 1 1 5.031 4.866 9.517 9.517 0 0 0 -.661.763q-.584.753-1.132 1.545a3.5 3.5 0 0 1 -3.02 1.505z"/><path d="m178.173 138.545a3.5 3.5 0 0 1 -3.36-3.368c-.041-1.118-.921-27.644 6.629-49.494a3.5 3.5 0 1 1 6.616 2.285c-7.115 20.593-6.259 46.692-6.249 46.952a3.5 3.5 0 0 1 -3.37 3.626c-.089.003-.178.003-.266-.001z"/><path d="m162.117 137.141c-.087.008-.175.013-.265.014a3.5 3.5 0 0 1 -3.55-3.449c-.234-16.195-2.851-29.645-7.778-39.974a7.776 7.776 0 0 0 -5.748-4.422 7.953 7.953 0 0 0 -6.945 2.019 3.5 3.5 0 0 1 -4.864-5.034 14.967 14.967 0 0 1 13.053-3.873 14.789 14.789 0 0 1 10.822 8.3c5.364 11.246 8.211 25.676 8.459 42.887a3.5 3.5 0 0 1 -3.184 3.532z"/><path d="m129.454 108.493a3.5 3.5 0 0 1 -3.786-3.926c.013-.1.138-1.043.487-2.627a3.5 3.5 0 1 1 6.836 1.507c-.281 1.271-.379 2.007-.38 2.014a3.507 3.507 0 0 1 -3.157 3.032z"/><path d="m166.772 86.068h-.153a3.5 3.5 0 0 1 -3.346-3.647c1.127-26.158 7.864-45.7 20.024-58.074a3.5 3.5 0 0 1 4.993 4.906c-10.756 10.947-16.99 29.434-18.024 53.466a3.5 3.5 0 0 1 -3.494 3.349z"/><path d="m203.858 19.687a3.5 3.5 0 0 1 -.761-6.916 19.108 19.108 0 0 1 2.369-.4 3.5 3.5 0 0 1 .608 6.974 14.125 14.125 0 0 0 -1.449.258 3.48 3.48 0 0 1 -.767.084z"/></g><path d="m208.416 167.34c0-.028-16.553-.89-16.553-.89l-21.863-1.19-38.226 2.08a28.666 28.666 0 0 0 .406 7.641h49.42a3.039 3.039 0 0 1 2.834 4.171c-2.873 6.94-10.831 16.294-32.871 14.991a13.467 13.467 0 0 1 11.02 13.169v1.327a15.662 15.662 0 0 1 -1.359 6.549 13.413 13.413 0 0 1 -10.39 7.8h38.326a13.413 13.413 0 0 1 -10.39-7.8 15.662 15.662 0 0 1 -1.359-6.549v-1.327a13.272 13.272 0 0 1 11.036-13.172c21.821-3.479 19.971-26.784 19.969-26.8z" fill="#9bb6d8"/><rect fill="#dce9ff" height="16.707" rx="8.354" width="93.16" x="123.419" y="150.633"/><path d="m111.2 245.641c2.338 5.037 7.825 10.073 20.416 10.073h15.11a11.152 11.152 0 0 1 11.152 11.153l28.9-11.29 10.96-12.292-78.291-1.8z" fill="#dce9ff"/><path d="m230.322 235.568h-120.647a19.216 19.216 0 0 0 1.564 10.142h77.227a1.488 1.488 0 0 1 .695 2.8c-7.8 4.171-21.039 8.24-42.431 7.2a11.152 11.152 0 0 1 11.152 11.153v2.518s1.079 11.152-12.951 12.951h50.135c-14.03-1.8-12.951-12.951-12.951-12.951v-2.518a11.152 11.152 0 0 1 11.152-11.153h15.11c25.183.004 21.945-20.142 21.945-20.142z" fill="#9bb6d8"/><rect fill="#dce9ff" height="16.707" rx="8.354" width="143.16" x="98.419" y="221.44"/><path d="m60.283 307.52a51.834 51.834 0 0 0 -2.479 9.672 9 9 0 0 0 8.877 10.45h144.819l26.391-24.285-115.591-.966z" fill="#dce9ff"/><path d="m282.2 317.219c-2.189-13.4-7.22-18.377-8.608-19.523l-.01-.008c-.147-.121-.252-.2-.307-.238l-.015-.01-.032-.023-62.064-3.109-41.164-2.062-103.228 5.171s-3.7 2.411-6.593 10.4h151.646a5.519 5.519 0 0 1 5.5 5.86 22.762 22.762 0 0 1 -5.827 13.97h61.816a8.993 8.993 0 0 0 8.886-10.428z" fill="#9bb6d8"/><rect fill="#dce9ff" height="16.707" rx="8.354" width="223.16" x="58.419" y="280.71"/></svg>