<svg id="Flat" height="512" viewBox="0 0 340 340" width="512" xmlns="http://www.w3.org/2000/svg"><g fill="#3e6869"><path d="m137.433 223.143a3.5 3.5 0 0 1 -3.5-3.5c0-22.051-12.645-27.408-13.183-27.625a3.5 3.5 0 0 1 2.524-6.528c.722.275 17.659 7.047 17.659 34.153a3.5 3.5 0 0 1 -3.5 3.5z"/><path d="m170.185 223.937a3.5 3.5 0 0 1 -3.5-3.5c0-16.083 7.847-29.821 22.691-39.729a76.079 76.079 0 0 1 22.268-10.057 3.5 3.5 0 0 1 1.62 6.81c-1.629.391-39.579 9.884-39.579 42.976a3.5 3.5 0 0 1 -3.5 3.5z"/><path d="m19.269 106.15s.5 17.232 17.368 22.673a28.991 28.991 0 0 1 16.739 14.27q.5.966 1.068 1.959a38.359 38.359 0 0 0 35.409 18.93c18.981-.946 54.8 3.946 57.675 53.672h14.492s10.421-95.5-85.885-96.776a24.957 24.957 0 0 1 -17.061-7.078c-6.337-6.168-18.656-13.158-39.805-7.65z"/><path d="m170.494 217.654s0-81.619 95.222-78.9a26.6 26.6 0 0 0 20.658-8.781 60.744 60.744 0 0 0 6.942-9.752 27.518 27.518 0 0 1 9.837-9.851c4.4-2.588 10.179-8.121 13.329-19.869 0 0 2.019-6.882 5.538-9.056 0 0-22.921-9.915-41.79 4.459a24.936 24.936 0 0 1 -13.736 4.9c-10.681.607-30.355 3.915-51.426 18.395a116.522 116.522 0 0 0 -41.946 53.173c-6.045 15.2-12.263 36-11.1 55.277z"/></g><path d="m241.95 10a87.867 87.867 0 0 1 1.455 15.223 64.9 64.9 0 0 1 -21.147 48.885q-.789.723-1.593 1.449a39.865 39.865 0 0 0 -13.209 27.069c-.764 12.518-5.11 31.748-20.986 54.256a109.247 109.247 0 0 0 -11.627 26.524l-12.381-72.323c-.009-.164-.018-.327-.028-.489a28.381 28.381 0 0 1 4.344-17.073c.21-.324.428-.646.655-.963a24.554 24.554 0 0 0 4.678-16.7l-.03-.309a54.121 54.121 0 0 1 26.546-51.86 103.677 103.677 0 0 1 43.323-13.689z" fill="#76a59d"/><path d="m170.494 217.654h-15.106c.011-.086 8.984-71.618 7.072-106.569 11.944 20.1 13.58 50.533 12.387 72.316-3.602 11.642-4.847 19.892-4.353 34.253z" fill="#3e6869"/><path d="m167.969 174.875c-.066 0-.133 0-.2 0a3.5 3.5 0 0 1 -3.3-3.691c4.211-74.9 42.933-125.549 44.579-127.668a3.5 3.5 0 0 1 5.532 4.284c-.39.5-39.036 51.134-43.12 123.768a3.5 3.5 0 0 1 -3.491 3.307z" fill="#3e6869"/><path d="m19.269 15.047s-8.206 30.362 16.788 42.26a27.522 27.522 0 0 1 14.206 16.372c3.565 10.947 14.771 26.68 48.471 37.195a51.333 51.333 0 0 1 22.89 14.7c13.972 15.553 34.836 46.29 34.121 90.617h10.718s10.394-82.23-19.151-111.813a49.113 49.113 0 0 1 -11.165-18.1c-5.247-14.453-18.674-37.514-51.766-43.423a34.773 34.773 0 0 1 -20.381-11.903c-7.288-8.619-21.171-18.931-44.731-15.905z" fill="#76a59d"/><path d="m157.242 217.309a3.5 3.5 0 0 1 -3.5-3.423c-1.732-78-32.993-116.54-58.912-135.134a3.5 3.5 0 1 1 4.08-5.688c27.215 19.523 60.034 59.776 61.83 140.667a3.5 3.5 0 0 1 -3.421 3.577z" fill="#3e6869"/><path d="m80.553 69.786a3.487 3.487 0 0 1 -1.444-.314c-1.607-.729-2.527-1.061-2.536-1.064a3.5 3.5 0 0 1 2.345-6.595c.117.041 1.2.433 3.084 1.285a3.5 3.5 0 0 1 -1.449 6.688z" fill="#3e6869"/><path d="m126.707 213.808h-40.178l23.441 108.258a10.065 10.065 0 0 0 9.837 7.934h12.45z" fill="#aac3d6"/><path d="m118.545 213.808 13.712 116.192h61.143a10.065 10.065 0 0 0 9.963-8.637l15.413-107.555z" fill="#e1ecfe"/></svg>