<svg id="Flat" height="512" viewBox="0 0 340 340" width="512" xmlns="http://www.w3.org/2000/svg"><path d="m176.435 265.889s-21.2 4.153-38.9-5.527a49.578 49.578 0 0 0 -22.963-6.063 36.757 36.757 0 0 1 -25.162-9.929c-7.41-6.978-8.91-15.814-8.335-23.423a36.358 36.358 0 0 0 -8.544-26.592 34.9 34.9 0 0 1 -8.438-24.355c.633-25.314 21.836-43.035 21.836-43.035s-13.084-33.436 19.261-53.879a44.4 44.4 0 0 0 18.66-23.406c2.92-8.806 9.968-18.661 26.635-21.766 0 0 9.178-17.914 23.1-17.914 11.936 0 33.176 18.747 43.781 40.248a45.471 45.471 0 0 0 13.6 16.274c10.337 7.735 24.894 24.894 19.2 58.228 0 0 24.051 13.291 25.633 34.81 0 0 2.532 25.749-15.823 35.026 0 0 11.709 26.366-3.8 41.556a40.062 40.062 0 0 1 -22.423 11.415 42.339 42.339 0 0 0 -18.371 7.138c-7.276 5.151-19.882 11.194-38.947 11.194z" fill="#80a2a5"/><path d="m259.979 194.586c-17.162 13.474-32.213 13.377-41.654 11.043a12.736 12.736 0 0 0 -14.015 5.751c-9.967 16.8-34.278 16.343-34.278 16.343-48.672 6.244-76.532-8.482-90.264-19.861a37.472 37.472 0 0 1 1.307 13.085c-.58 7.609.929 16.445 8.335 23.423a36.757 36.757 0 0 0 25.158 9.929 49.578 49.578 0 0 1 22.963 6.063c17.7 9.68 38.9 5.527 38.9 5.527 19.065 0 31.671-6.043 38.953-11.194a42.339 42.339 0 0 1 18.371-7.138 40.062 40.062 0 0 0 22.423-11.415c15.51-15.19 3.801-41.556 3.801-41.556z" fill="#5c797c"/><g fill="#474756"><path d="m148.843 210.39c-4.786-2.369-5.558-9.156-5.722-14.054-.863-25.835-16.431-39.284-17.093-39.844a3.5 3.5 0 0 0 -4.528 5.338 40.192 40.192 0 0 1 6.81 8.5c-9.872.844-17.4-1.587-22.4-7.271a3.5 3.5 0 1 0 -5.254 4.625c4.19 4.76 11.578 9.8 24.072 9.8a52.9 52.9 0 0 0 7.068-.5 53.527 53.527 0 0 1 4.333 19.579c.129 3.857.522 15.6 9.612 20.094a3.5 3.5 0 0 0 3.106-6.274z"/><path d="m100.411 151.639c-.109-.574-.153-.934-.16-1a3.5 3.5 0 0 0 -6.966.691c.011.107.072.69.251 1.626a3.5 3.5 0 0 0 3.434 2.844 3.555 3.555 0 0 0 .661-.063 3.5 3.5 0 0 0 2.78-4.098z"/><path d="m143.177 124.239a27.275 27.275 0 0 1 -3.313-1.193c10.286-19.543-.9-37.26-1.4-38.034a3.5 3.5 0 0 0 -5.876 3.8c.1.153 9.3 14.738 1.264 30.6a31.215 31.215 0 0 1 -10.262-16.808 3.5 3.5 0 0 0 -6.877 1.3c.162.863 4.213 21.218 24.528 27.053 19.834 5.7 19.8 16.436 19.792 16.832a3.5 3.5 0 0 0 3.286 3.7c.071 0 .141.006.211.006a3.5 3.5 0 0 0 3.491-3.292c.043-.664.695-16.63-24.844-23.964z"/><path d="m195.267 59.279a3.514 3.514 0 0 0 -3.693 3.289 44.032 44.032 0 0 1 -9.365 22.167c-.511.642-12.506 15.949-12.17 35.813a3.5 3.5 0 0 0 3.5 3.441h.06a3.5 3.5 0 0 0 3.44-3.558c-.292-17.292 10.542-31.2 10.656-31.346 10.037-12.7 10.839-25.586 10.869-26.128a3.5 3.5 0 0 0 -3.297-3.678z"/><path d="m253.427 175.856a3.5 3.5 0 0 0 -4.816 1.144c-.123.2-.25.4-.382.595a3.5 3.5 0 1 0 5.816 3.894q.272-.4.523-.813a3.5 3.5 0 0 0 -1.141-4.82z"/><path d="m239.32 183.792a14.548 14.548 0 0 1 -2.276.2h-.263c-9.159 0-13.139-5.714-14.679-9.032a41.04 41.04 0 0 0 19.5-17.025 3.5 3.5 0 1 0 -5.983-3.635c-5.066 8.34-15.182 18.045-34.642 16.875-1.219-.072-3.061-.183-4.192 1.62a3.5 3.5 0 0 0 3.329 5.341l.446.026q1.872.112 3.646.111a50.369 50.369 0 0 0 11.154-1.2c2.46 5.952 8.937 13.916 21.421 13.916h.351a21.463 21.463 0 0 0 3.38-.3 3.5 3.5 0 1 0 -1.189-6.9z"/></g><path d="m203.331 330h23.34s15.72-2.655 23.1-15.04c0 0-9.527 1.905-17.625 0a38.214 38.214 0 0 0 6.907-23.579s-12.385 9.527-21.912 12.385a28.931 28.931 0 0 0 3.573-19.213s-13.117 2.906-26.446 16.537c-1.259 13.269-1.044 23.567 9.063 28.91z" fill="#82936e"/><path d="m121.7 190.181c5.539 8.31 17.606 21.143 39.424 21.438 0 0-2.184-89.921 2.421-139.48a2.316 2.316 0 0 1 4.563-.308c4.75 20.752 13.326 62.93 12.867 95.234 0 0 20.122 0 22.693-30.664a9.653 9.653 0 0 1 8.406-8.793l2.341-.293s7.131 38.66-20.01 60.312a19.645 19.645 0 0 0 -7.44 14.837c-.7 27.035-.682 100.979 19.15 127.536h-26.026l-19.228-33.284c.378-19.861.336-43.54-1.485-55.831 0 0-43.681-19.656-49.8-54.6l.176-.065a10.143 10.143 0 0 1 11.948 3.961z" fill="#995c6b"/><path d="m149.019 284.553a182.066 182.066 0 0 0 19.71 19.049c13.206 10.582 11.36 26.4 11.36 26.4h-46.5s-11.778-1.786-16.652-17.016a22.731 22.731 0 0 1 15.023 1.414s-7.513-14.621-19.089-21.12a69.453 69.453 0 0 1 34.726 9.342s-2.031-9.54 1.422-18.069z" fill="#c9d38c"/></svg>