<svg id="Flat" height="512" viewBox="0 0 340 340" width="512" xmlns="http://www.w3.org/2000/svg"><path d="m39.647 143.143a3 3 0 0 1 -2.541-1.4l-3.734-5.928a3 3 0 1 1 5.076-3.2l3.734 5.929a3 3 0 0 1 -2.535 4.6z" fill="#3e6869"/><path d="m27.508 156.96a2.987 2.987 0 0 1 -.553-.051l-6.241-1.166a3 3 0 1 1 1.1-5.9l6.24 1.165a3 3 0 0 1 -.548 5.95z" fill="#3e6869"/><path d="m64.766 126.119a2.993 2.993 0 0 1 -2.114-.871l-5.982-5.941a3 3 0 0 1 4.228-4.258l5.982 5.941a3 3 0 0 1 -2.114 5.129z" fill="#76a59d"/><path d="m93.66 105.558a3 3 0 0 1 -2.8-1.92l-2.825-7.312a3 3 0 0 1 5.6-2.162l2.826 7.312a3 3 0 0 1 -2.8 4.082z" fill="#76a59d"/><path d="m117.17 109.614a3 3 0 0 1 -2.776-4.135l3.688-9.035a3 3 0 1 1 5.554 2.268l-3.687 9.034a3 3 0 0 1 -2.779 1.868z" fill="#76a59d"/><path d="m141.35 128.807a3 3 0 0 1 -1.88-5.339l7.756-6.225a3 3 0 0 1 3.756 4.68l-7.756 6.224a2.986 2.986 0 0 1 -1.876.66z" fill="#76a59d"/><path d="m158.555 146.809h-.055l-10.278-.171a3 3 0 1 1 .1-6l10.278.171a3 3 0 0 1 -.049 6z" fill="#76a59d"/><path d="m153.073 173.567a2.991 2.991 0 0 1 -1.47-.387l-7.85-4.422a3 3 0 1 1 2.946-5.227l7.849 4.421a3 3 0 0 1 -1.475 5.615z" fill="#76a59d"/><path d="m195.2 178.214h-9.879a3 3 0 0 0 0 6h9.879a3 3 0 0 0 0-6z" fill="#3e6869"/><path d="m193.021 155a3.137 3.137 0 0 0 .524.046 3 3 0 0 0 .517-5.955l-9.333-1.644a3 3 0 1 0 -1.041 5.909z" fill="#3e6869"/><path d="m201.621 121.88-6.248-4.814a3 3 0 0 0 -3.662 4.753l6.248 4.814a3 3 0 0 0 3.662-4.753z" fill="#3e6869"/><path d="m225.249 117.513s-30.362-13.449-34.234 25.064 5.909 63.985 5.909 63.985h31.789z" fill="#3e6869"/><path d="m219.723 79.992-7.667-.915a3 3 0 1 1 .71-5.958l7.668.915a3 3 0 0 1 -.711 5.958z" fill="#76a59d"/><path d="m220.107 109.014h-7.722a3 3 0 1 1 0-6h7.721a3 3 0 1 1 0 6z" fill="#76a59d"/><path d="m224.222 58.848a2.99 2.99 0 0 1 -1.44-.37l-6.577-3.608a3 3 0 0 1 2.886-5.261l6.578 3.609a3 3 0 0 1 -1.447 5.63z" fill="#76a59d"/><path d="m250.9 43.505a3 3 0 0 1 -2.98-2.687l-.915-8.742a3 3 0 1 1 5.967-.625l.915 8.742a3 3 0 0 1 -2.671 3.3 3.068 3.068 0 0 1 -.316.012z" fill="#76a59d"/><path d="m269.215 60.154a3 3 0 0 1 -1.045-5.813l7.555-2.81a3 3 0 0 1 2.092 5.625l-7.556 2.809a3 3 0 0 1 -1.046.189z" fill="#76a59d"/><path d="m272.989 84.728a3 3 0 0 1 -.288-5.986l8.778-.857a3 3 0 0 1 .584 5.972l-8.778.857c-.1.01-.199.014-.296.014z" fill="#76a59d"/><path d="m300.067 99.01a3 3 0 0 1 -2.831-2.01l-2.446-6.973a3 3 0 1 1 5.662-1.987l2.446 6.973a3 3 0 0 1 -2.831 4z" fill="#76a59d"/><path d="m311.115 103.014a3 3 0 0 1 -1.735-5.451l6.411-4.53a3 3 0 0 1 3.462 4.9l-6.41 4.53a2.992 2.992 0 0 1 -1.728.551z" fill="#76a59d"/><path d="m318.739 125.517a2.925 2.925 0 0 1 -.372-.023l-7.623-.943a3 3 0 1 1 .736-5.955l7.623.944a3 3 0 0 1 -.364 5.977z" fill="#76a59d"/><path d="m311.109 150.392a3 3 0 0 1 -1.647-.494l-7.428-4.888a3 3 0 1 1 3.3-5.012l7.428 4.887a3 3 0 0 1 -1.652 5.507z" fill="#76a59d"/><path d="m292.48 168.913a2.993 2.993 0 0 1 -2.247-1.01l-5.459-6.164a3 3 0 0 1 4.492-3.978l5.459 6.163a3 3 0 0 1 -2.245 4.989z" fill="#76a59d"/><path d="m302.725 93.07a11.478 11.478 0 0 0 -11.415 10.28l-2.25 21.434a23.992 23.992 0 0 1 -7.284 14.838l-6.613 6.322c1.17-22.392 1.891-46.539.861-62.809 0 0-.521-20.442-8.052-34.985-5.867-11.328-21.6-13.28-29.762-3.478q-.364.437-.716.9s-18.417-3.151-18.66 36.834 5.332 120.922 5.332 120.922h47.011s.072-.809.2-2.3a65.77 65.77 0 0 1 20.22-42.283q1.9-1.794 3.974-3.587a50.474 50.474 0 0 0 17.259-31.489 155.246 155.246 0 0 0 1.379-19.007 11.487 11.487 0 0 0 -11.484-11.592z" fill="#76a59d"/><path d="m59.54 137.388s-18.885-8.366-29.912 8.619 2.788 32.193 10.772 36.376h33.843z" fill="#3e6869"/><path d="m77.628 112.023s-22.262 6.242-23.3 29.96 16.226 40.987 16.226 40.987h61.585s10.936-4.593 16.95-18.378a42.119 42.119 0 0 0 -1.663-36.523c-3.735-7.023-9.84-14.044-19.656-16.046a28.312 28.312 0 0 0 -24.157-13.107c-16.83 0-25.985 13.107-25.985 13.107z" fill="#76a59d"/><path d="m38.213 201.042c3.586 50.181 5.774 104.339 24.946 110.194h57.441a12.542 12.542 0 0 0 12.5-11.475l8.618-101.05z" fill="#e1ecfe"/><g fill="#3e6869"><path d="m91.282 184.214c-4.341-5.14-8.537-14.906-11.217-23.644a1.206 1.206 0 0 0 -2.355.3c-.314 6.827.092 17.524 4.567 25.559z"/><path d="m76.576 151.3a3 3 0 0 1 -2.977-2.66l-.1-.919a3 3 0 1 1 5.966-.629l.1.866a3 3 0 0 1 -2.64 3.322 3.066 3.066 0 0 1 -.349.02z"/><path d="m73 133.087a1.427 1.427 0 0 0 2.822-.3 139.767 139.767 0 0 1 1.811-20.768 32.772 32.772 0 0 0 -6.579 2.929 77.668 77.668 0 0 0 1.946 18.139z"/><path d="m108.242 183.809c4.841-2.271 11.555-9 15.827-19.309a1.054 1.054 0 0 1 2.029.467c-.365 5.911-2.093 14.818-8.659 20.735z"/><path d="m127.774 152.562a3 3 0 0 1 -2.971-3.448l.056-.37a3 3 0 0 1 5.932.9l-.054.367a3 3 0 0 1 -2.963 2.551z"/><path d="m129.023 137.807h-.082a3 3 0 0 1 -2.919-3.079l.021-.855a3 3 0 1 1 6 .121l-.021.894a3 3 0 0 1 -2.999 2.919z"/><path d="m239.5 183.642a1.065 1.065 0 0 0 -2.113.022 147.683 147.683 0 0 0 -.6 19.666h5.552c-1.054-6.656-2.116-14.319-2.839-19.688z"/><path d="m237.1 174.891a3 3 0 0 1 -2.992-2.834l-.073-1.327a3 3 0 0 1 5.993-.318l.07 1.312a3 3 0 0 1 -2.829 3.162c-.062.003-.117.005-.169.005z"/><path d="m236.366 159.013a3 3 0 0 1 -3-2.89l-.036-.967a3 3 0 1 1 6-.217l.036.965a3 3 0 0 1 -2.888 3.107c-.037.002-.078.002-.112.002z"/><path d="m230.457 47.338c-3.129 35.164.808 74.133 3.55 94.9a1.126 1.126 0 1 0 2.246-.175c.19-50.5 1.241-96.484 1.241-96.484a11.035 11.035 0 0 0 -7.037 1.759z"/><path d="m262.253 201.6c1.269-45.123-1.994-90.358-4.446-116.6a1.879 1.879 0 0 0 -3.748.114c-1.435 41.923-.77 112.332-.711 118.213h1.688z"/><path d="m255.173 67.653a3 3 0 0 1 -2.99-2.791l-.065-.934a3 3 0 1 1 5.982-.428l.068.948a3 3 0 0 1 -2.785 3.2c-.069.003-.139.005-.21.005z"/></g><path d="m141.718 198.711h-110.718l8.618 101.05a12.542 12.542 0 0 0 12.5 11.475h11.041a35.309 35.309 0 0 1 -3.092-11.836l-2.906-55.4a20.145 20.145 0 0 1 20.117-21.2h62.385z" fill="#aac3d6"/><path d="m23.043 180.219h126.634a0 0 0 0 1 0 0v16.97a7.139 7.139 0 0 1 -7.139 7.139h-112.356a7.139 7.139 0 0 1 -7.139-7.139v-16.97a0 0 0 0 1 0 0z" fill="#e1ecfe"/><path d="m289.921 258.607c-.695-19.373-2.231-41.15-5.418-59.9h-80.088s-24.43 37.068-21.71 56.263c7.4 52.237 42.818 56.262 42.818 56.262h13.564a50.843 50.843 0 0 0 50.834-52.625z" fill="#e1ecfe"/><path d="m226.268 311.236c-38.277-20.353-24.93-97.247-21.853-112.525h-24.309c-3.186 18.746-4.722 40.523-5.417 59.9a50.843 50.843 0 0 0 50.834 52.629z" fill="#aac3d6"/></svg>