<svg id="Flat" height="512" viewBox="0 0 340 340" width="512" xmlns="http://www.w3.org/2000/svg"><path d="m214.167 46.773 14.99 6.336a13.444 13.444 0 0 1 8.148 13.742c-1.93 19.026-2.45 61.361 26.538 84.762a10.214 10.214 0 0 1 3 12.135l-2.149 4.787s-33.463-6.678-41.471-52.26a18.382 18.382 0 0 0 -5.036-9.884 15 15 0 0 0 -10.838-4.547v-16.926z" fill="#86abec"/><path d="m234.5 57.2a13.423 13.423 0 0 0 -5.342-4.093l-14.99-6.336-4.444 24.854c5.634-4.654 14.307-10.8 24.776-14.425z" fill="#4f71bc"/><path d="m179.591 73.8 27.755 11.115v16.926h-30.061a112 112 0 0 1 2.306-28.041z" fill="#5376b7"/><path d="m233.366 15.953h6.947a11.747 11.747 0 0 1 11.747 11.747 11.747 11.747 0 0 1 -11.747 11.747h-9.473z" fill="#5376b7"/><path d="m83.977 63.922s47.884-66.456 148.623-53.307a4.056 4.056 0 0 1 3.544 4.013v25.9a4.033 4.033 0 0 1 -2.693 3.809c-6.911 2.436-25.8 9.979-40.986 24.245q-21.93-35.7-61.743-15.817a80.857 80.857 0 0 0 -29.516 16z" fill="#86abec"/><path d="m74.513 61.315-2.235 10.056s42.085 6.331 61.451 28.677v-27.187s-27.56-11.546-59.216-11.546z" fill="#5376b7"/><path d="m175.508 42.511c-25.525-11.571-44.782 10.251-44.782 10.251v.006c13.912-4.143 24.433-3.326 24.433-3.326l21.4 40.55a70.564 70.564 0 0 1 15.9-21.407c-1.968-10.905-6.682-21.418-16.951-26.074z" fill="#5376b7"/><path d="m178.025 69.17a22.581 22.581 0 0 0 -22.433-20.184h-.868a22.58 22.58 0 0 0 -22.432 20.184c-2.324 21.438-1.374 45.957-1.374 45.957h48.482s.948-24.519-1.375-45.957z" fill="#86abec"/><path d="m223.231 208.474a54.518 54.518 0 0 0 -16.224-32.084c-12.272-11.757-25.531-29.4-27.609-61.263a169.53 169.53 0 0 0 -24.24-1.731l-17.146 26.122-38.524 79.333c-2.883 40.441 5.973 77.574 23.523 112.256h64.294a37.993 37.993 0 0 0 37.927-35.693c1.461-24.071 2.068-56.814-2.001-86.94z" fill="#dbf3ff"/><path d="m197.236 193.205c-23.8 1.232-48.519 2.3-69.249-3.616.3-.334.59-.668.894-1 12.634-13.565 19.617-31.117 23.151-42.8a73.559 73.559 0 0 0 3.126-21.3v-11.089a169.53 169.53 0 0 0 -24.24 1.731c-.192 28.746-15.341 49.512-27.613 61.268a54.164 54.164 0 0 0 -16.183 31.813c-4.108 30.191-3.5 63.053-2.038 87.194a38 38 0 0 0 37.927 35.705h9.97c-13.34-9.584-17.544-32.5-17.544-32.5-5.866-27.572-2.473-62.666.538-83.462l.017-.119a12.509 12.509 0 0 1 13.2-10.521c18.261 1.1 45.722.966 68.928-6.573a2.427 2.427 0 0 0 -.884-4.731z" fill="#a9c3f4"/></svg>