<svg id="Flat" height="512" viewBox="0 0 340 340" width="512" xmlns="http://www.w3.org/2000/svg"><path d="m153.71 46.659a13.842 13.842 0 0 0 -13.4 16.387l-6.121-32.709a14 14 0 0 0 -15.622-11.3 14 14 0 0 0 -11.937 16.244l-1.186-6.906a17.651 17.651 0 0 0 -34.976 4.57l.541 6.02a14.048 14.048 0 0 0 -27.909 2.545c.644 35.831 11.282 82.881 11.282 82.881l-1.436-5.839a16.092 16.092 0 0 0 -31.631 2.18c-1.936 20.046 4.713 41.6 10.073 55.141a38.265 38.265 0 0 0 14.319 17.9 57.884 57.884 0 0 1 11.823 10.658 42.762 42.762 0 0 1 9.418 19.439l11.079 55.659c13.359 4.645 75.07 5.415 125.016 7.128-7.907-71.821-27.128-174.87-27.128-174.87l-8.326-53.419a13.842 13.842 0 0 0 -13.879-11.709z" fill="#ef8a5c"/><path d="m122.145 202.741a3.5 3.5 0 1 0 -6.883 1.275q.237 1.283.445 2.6a3.5 3.5 0 0 0 3.453 2.958 3.644 3.644 0 0 0 .548-.043 3.5 3.5 0 0 0 2.914-4c-.148-.944-.307-1.873-.477-2.79z" fill="#ce5f38"/><path d="m116.093 182.884c-11.609-25.919-33.322-34.76-45.231-37.722a15.2 15.2 0 0 1 -11.331-11.969l-1.7-9.424a3.5 3.5 0 1 0 -6.888 1.244l1.7 9.424a22.212 22.212 0 0 0 16.53 17.518c13.039 3.244 30.656 11.739 40.532 33.791a3.5 3.5 0 0 0 6.389-2.862z" fill="#ce5f38"/><path d="m80.714 114.141a3.5 3.5 0 0 0 3.433 2.837 3.538 3.538 0 0 0 .667-.065 3.5 3.5 0 0 0 2.773-4.1c-5.948-30.795-13.053-73.983-13.124-74.413a3.5 3.5 0 1 0 -6.908 1.135c.072.431 7.192 43.713 13.159 74.606z" fill="#ce5f38"/><path d="m110.1 34.8a3.5 3.5 0 1 0 -6.935.953c.066.482 6.686 48.406 12.588 74.485a3.5 3.5 0 1 0 6.827-1.545c-5.838-25.781-12.416-73.411-12.48-73.893z" fill="#ce5f38"/><path d="m146.452 79.633c-1.006-6.357-2.674-17.024-2.681-17.071a3.5 3.5 0 1 0 -6.932.969c.006.046 1.682 10.772 2.7 17.2a3.5 3.5 0 0 0 3.453 2.954 3.58 3.58 0 0 0 .552-.044 3.5 3.5 0 0 0 2.908-4.008z" fill="#ce5f38"/><path d="m146.51 270.649c-16.593 3.587-54.974 7.549-68.483 8.88l4.713 23.681 97.184-13.372z" fill="#ce5f38"/><path d="m82.506 297.014 120.545-14.773a13.047 13.047 0 0 1 14.509 15.025c-.021.124-.043.249-.067.374a12.962 12.962 0 0 1 -10.231 10.236c-20.224 4.086-81.809 15.724-123.483 14.89a12.93 12.93 0 0 1 -12.511-10.454c-.019-.1-.037-.2-.055-.306a12.984 12.984 0 0 1 11.293-14.992z" fill="#ef8a5c"/><path d="m311.414 73.372a13.844 13.844 0 0 0 -19.471 8.314l9.727-31.823a14 14 0 0 0 -8.612-17.25 14 14 0 0 0 -18.1 8.868l2.147-6.67a17.651 17.651 0 0 0 -33.115-12.15l-2.308 5.586a14.047 14.047 0 0 0 -25.911-10.671c-16.027 32.054-28.392 78.68-28.392 78.68l1.432-5.841a16.092 16.092 0 0 0 -29.041-12.715c-11 16.868-15.093 39.052-16.614 53.535a38.268 38.268 0 0 0 4.4 22.493 57.862 57.862 0 0 1 5.538 14.924 42.752 42.752 0 0 1 -.657 21.59l-17.829 60.828c24.022 18.153 85.117 39.263 116.428 39.263 24.4-65.71 49.89-148.951 49.89-148.951l17.365-51.2a13.844 13.844 0 0 0 -6.877-16.81z" fill="#ffc180"/><g fill="#ef8a5c"><path d="m181.123 214.684a91.143 91.143 0 0 0 -6.285 16.943 8.978 8.978 0 0 0 5.045 10.373c9.837 4.391 29.511 12.688 48.519 17.833a8.99 8.99 0 0 0 10.134-4.077 82.614 82.614 0 0 0 7.3-16.638 8.98 8.98 0 0 0 -4.99-10.969c-10.259-4.434-30.066-12.589-49.117-18.146a8.974 8.974 0 0 0 -10.606 4.681z"/><path d="m188.424 92.914a3.5 3.5 0 0 0 -4.385 2.3l-8.784 28.115a3.5 3.5 0 1 0 6.681 2.087l8.785-28.116a3.5 3.5 0 0 0 -2.297-4.386z"/><path d="m242.78 24.924a3.5 3.5 0 0 0 -4.419 2.227c-.138.417-13.876 42.074-22.9 72.216a3.5 3.5 0 1 0 6.707 2.007c8.992-30.046 22.7-71.613 22.837-72.03a3.5 3.5 0 0 0 -2.225-4.42z"/><path d="m276.144 38.188a3.5 3.5 0 0 0 -4.478 2.11c-.164.457-16.5 46-23.344 71.842a3.5 3.5 0 1 0 6.766 1.793c6.772-25.555 23-70.813 23.166-71.268a3.5 3.5 0 0 0 -2.11-4.477z"/><path d="m293.12 78.39a3.5 3.5 0 0 0 -4.472 2.119c-.422 1.181-10.356 29.076-13.26 43.154a3.5 3.5 0 1 0 6.855 1.414c2.806-13.6 12.895-41.93 13-42.214a3.5 3.5 0 0 0 -2.123-4.473z"/><path d="m129.683 267.869 114.286 41.054c2.328-5.969 4.692-12.2 7.066-18.594-39.939-10.984-98.8-32.674-116.427-39.263z"/></g><path d="m132.345 262.269 113.676 42.744a13.047 13.047 0 0 1 5.9 20.037c-.076.1-.153.2-.232.3a12.961 12.961 0 0 1 -13.808 4.332c-19.817-5.746-79.787-23.958-116.335-44a12.932 12.932 0 0 1 -6.246-15.06l.093-.3a12.984 12.984 0 0 1 16.952-8.053z" fill="#ffc180"/></svg>