<svg id="Flat" height="512" viewBox="0 0 340 340" width="512" xmlns="http://www.w3.org/2000/svg"><path d="m157.334 212.189h26.222v79.998h-26.222z" fill="#474756"/><path d="m238.864 202.189h-19.17a15.459 15.459 0 0 0 -12.663 6.831c-2.366 3.415-6.739 6.83-14.77 6.83v-33.66h46.6z" fill="#ce5f38"/><path d="m246.641 171.75h28a12.222 12.222 0 0 1 12.222 12.222v19a7 7 0 0 1 -7 7h-38.446a7 7 0 0 1 -7-7v-19a12.222 12.222 0 0 1 12.224-12.222z" fill="#ffc180" transform="matrix(-1 0 0 -1 521.282 381.717)"/><path d="m103.256 202.189h19.17a15.459 15.459 0 0 1 12.663 6.831c2.366 3.415 6.739 6.83 14.77 6.83v-33.66h-46.6z" fill="#ce5f38"/><path d="m62.255 171.75h38.445a7 7 0 0 1 7 7v19a12.222 12.222 0 0 1 -12.222 12.222h-28a12.222 12.222 0 0 1 -12.222-12.222v-19a7 7 0 0 1 6.999-7z" fill="#ffc180"/><rect fill="#ef8a5c" height="45.568" rx="8.485" width="59.081" x="141.374" y="170.282"/><g fill="#89b9f2"><path d="m229.489 140.1a3.5 3.5 0 0 0 -5.965 3.662 75.63 75.63 0 0 1 7.565 16.224 3.5 3.5 0 1 0 6.661-2.155 82.659 82.659 0 0 0 -8.261-17.731z"/><path d="m221.045 128.365a3.5 3.5 0 1 0 -5.389 4.469l.576.7a3.5 3.5 0 1 0 5.427-4.42z"/><path d="m190.781 101.4a184.43 184.43 0 0 0 -45.847-22.507 284.345 284.345 0 0 1 -36.219-14.993 3.5 3.5 0 0 0 -3.118 6.268 291.319 291.319 0 0 0 37.113 15.36 177.422 177.422 0 0 1 44.11 21.641 156.433 156.433 0 0 1 19.462 15.656 3.5 3.5 0 0 0 4.833-5.064 163.546 163.546 0 0 0 -20.334-16.361z"/><path d="m92.24 55.006q-.948-.555-1.882-1.111a3.5 3.5 0 1 0 -3.584 6.013q.958.572 1.934 1.141a3.5 3.5 0 1 0 3.532-6.043z"/><path d="m70.8 49.656q1.033.716 2.094 1.433a3.5 3.5 0 0 0 3.922-5.8q-1.03-.7-2.038-1.393a3.5 3.5 0 1 0 -3.978 5.76z"/><path d="m58.627 31.8q-.882-.717-1.731-1.421a3.5 3.5 0 0 0 -4.462 5.4q.872.72 1.777 1.458a3.5 3.5 0 0 0 4.416-5.437z"/><path d="m38.063 17.954a3.5 3.5 0 0 0 .165-4.946c-2.039-2.18-3.092-3.454-3.114-3.48a3.5 3.5 0 0 0 -5.408 4.444c.047.057 1.186 1.44 3.41 3.817a3.5 3.5 0 0 0 4.947.165z"/><path d="m251.869 144.132a3.5 3.5 0 0 0 -6.7 2.043 73.434 73.434 0 0 1 2.743 13.124 3.5 3.5 0 0 0 3.473 3.1 3.386 3.386 0 0 0 .4-.022 3.5 3.5 0 0 0 3.082-3.872 80.553 80.553 0 0 0 -2.998-14.373z"/><path d="m182.017 67.646c-.038-.02-.076-.038-.114-.057a170.417 170.417 0 0 1 -19.191-10.616 3.5 3.5 0 0 0 -3.8 5.881 177.415 177.415 0 0 0 19.919 11.026c1.612.856 40.083 21.591 59.033 55.374a3.5 3.5 0 1 0 6.106-3.424c-20.303-36.193-60.262-57.303-61.953-58.184z"/><path d="m146.732 54.043c.313.253.627.508.946.762a3.5 3.5 0 0 0 4.357-5.481q-.451-.357-.892-.716a3.5 3.5 0 1 0 -4.411 5.435z"/><path d="m136.084 44.058a3.5 3.5 0 0 0 5.015-4.883l-.523-.541a3.5 3.5 0 1 0 -5.049 4.85z"/><path d="m126.2 31.776a3.5 3.5 0 1 0 5.87-3.813l-.381-.593a3.5 3.5 0 0 0 -5.909 3.752z"/><path d="m117.975 13.02a3.5 3.5 0 0 0 3.436 2.856 3.6 3.6 0 0 0 .649-.06 3.5 3.5 0 0 0 2.8-4.085c-.042-.228-.063-.368-.069-.413a3.5 3.5 0 0 0 -6.949.849s.028.295.133.853z"/><path d="m247.572 66.9a3.5 3.5 0 0 0 -5.752 3.99 111.083 111.083 0 0 1 15.633 32.437 147.764 147.764 0 0 1 5.08 55.246 3.5 3.5 0 0 0 3.153 3.817c.112.011.224.015.336.015a3.5 3.5 0 0 0 3.48-3.167 154.7 154.7 0 0 0 -5.325-57.854 118.056 118.056 0 0 0 -16.605-34.484z"/><path d="m227.62 51.746a3.5 3.5 0 1 0 5.862-3.826l-.3-.455a3.5 3.5 0 0 0 -5.867 3.818z"/><path d="m218.323 34.983.262.565a3.5 3.5 0 1 0 6.34-2.965l-.242-.522a3.5 3.5 0 1 0 -6.36 2.922z"/><path d="m213.573 23.028a3.5 3.5 0 0 0 6.639-2.216 70.473 70.473 0 0 1 -2.593-9.626 3.5 3.5 0 0 0 -6.909 1.124 75.141 75.141 0 0 0 2.863 10.718z"/><path d="m289.317 50.482a3.5 3.5 0 1 0 -6.922 1.035c3.321 22.206 5.146 58.735-5.03 106.661a3.5 3.5 0 1 0 6.848 1.453c8.343-39.297 10.061-76.02 5.104-109.149z"/><path d="m279.582 36.506.142.626a3.5 3.5 0 0 0 3.41 2.73 3.547 3.547 0 0 0 .775-.086 3.5 3.5 0 0 0 2.643-4.185l-.145-.64a3.5 3.5 0 0 0 -6.825 1.555z"/><path d="m279.67 23.143a3.5 3.5 0 0 0 2.179-4.444c-.458-1.34-.887-2.52-1.273-3.541a3.5 3.5 0 0 0 -6.547 2.479c.363.958.766 2.067 1.2 3.326a3.5 3.5 0 0 0 4.445 2.18z"/></g><path d="m120.087 118.587c-11.756 11.542-19.066 24.9-21.727 39.7a3.5 3.5 0 1 0 6.89 1.239c2.4-13.343 9.041-25.436 19.742-35.943a3.5 3.5 0 1 0 -4.905-4.994z" fill="#5f72ad"/><path d="m132.288 108.449-.452.321a3.5 3.5 0 0 0 4.064 5.7l.435-.309a3.5 3.5 0 0 0 -4.047-5.711z" fill="#5f72ad"/><path d="m151.108 97.93s-.748.285-2.069.877a3.5 3.5 0 1 0 2.86 6.388c1.042-.465 1.654-.707 1.72-.732a3.5 3.5 0 0 0 -2.511-6.533z" fill="#5f72ad"/><path d="m90.422 123.27a3.5 3.5 0 0 0 -4.647 1.7 83.169 83.169 0 0 0 -7.8 33.876 3.5 3.5 0 0 0 3.446 3.553h.054a3.5 3.5 0 0 0 3.5-3.446 76.227 76.227 0 0 1 7.149-31.042 3.5 3.5 0 0 0 -1.702-4.641z" fill="#5f72ad"/><path d="m100.716 113.362c1.8-2.477 3.762-4.917 5.832-7.252a3.5 3.5 0 0 0 -5.237-4.645c-2.221 2.5-4.327 5.123-6.259 7.784a3.5 3.5 0 1 0 5.664 4.113z" fill="#5f72ad"/><path d="m119.167 93.368a3.494 3.494 0 0 0 2.016-.64c.331-.235.522-.362.55-.38a3.5 3.5 0 0 0 -3.839-5.854s-.264.172-.749.515a3.5 3.5 0 0 0 2.022 6.359z" fill="#5f72ad"/><path d="m70.267 110.433a3.5 3.5 0 0 0 -4.267 2.515 123.678 123.678 0 0 0 -2.762 46.39 3.5 3.5 0 0 0 3.469 3.066 3.422 3.422 0 0 0 .438-.027 3.5 3.5 0 0 0 3.039-3.906 116.675 116.675 0 0 1 2.599-43.771 3.5 3.5 0 0 0 -2.516-4.267z" fill="#5f72ad"/><path d="m78.927 97.175q.264-.586.531-1.158a3.5 3.5 0 1 0 -6.344-2.959q-.287.612-.569 1.242a3.5 3.5 0 1 0 6.382 2.875z" fill="#5f72ad"/><path d="m86.772 71.345s-.319.343-.887 1.018a3.5 3.5 0 0 0 5.362 4.5c.395-.47.63-.728.662-.763a3.5 3.5 0 0 0 -5.137-4.755z" fill="#5f72ad"/><path d="m41.848 119.933a3.5 3.5 0 0 0 -6.909 1.125 122.155 122.155 0 0 0 13.627 39.617 3.5 3.5 0 0 0 6.126-3.389 115.143 115.143 0 0 1 -12.844-37.353z" fill="#5f72ad"/><path d="m36.983 108.59a3.5 3.5 0 0 0 3.344-3.649l-.03-.746a3.5 3.5 0 1 0 -6.995.251l.032.8a3.5 3.5 0 0 0 3.494 3.348z" fill="#5f72ad"/><path d="m33.748 86.817-.087 1.051a3.5 3.5 0 0 0 3.213 3.766c.094.007.188.011.28.011a3.5 3.5 0 0 0 3.486-3.224l.083-1.007a3.5 3.5 0 1 0 -6.975-.6z" fill="#5f72ad"/><path d="m38.322 77.615a3.442 3.442 0 0 0 .611.054 3.5 3.5 0 0 0 3.443-2.894 118.831 118.831 0 0 1 5.73-21.664 3.5 3.5 0 0 0 -6.486-2.635 123.352 123.352 0 0 0 -6.138 23.086 3.5 3.5 0 0 0 2.84 4.053z" fill="#5f72ad"/><path d="m137.015 297.177c2.868-15.614-1.115-25.97-1.115-25.97-19.119 4.3-27.085 16.411-27.085 16.411 8.922-20.075 1.434-42.381 1.434-42.381s-3.506 5.9-22.784 19.757-14.658 33.617-14.658 33.617c-18.8-32.343-56.241-42.539-56.241-42.539s5.735 4.779 8.763 20.712 11.312 24.376 11.312 24.376c-16.889-6.373-27.085-1.434-27.085-1.434 10.735 5.416 16.429 15.76 19.276 23.229a13.654 13.654 0 0 0 12.761 8.8h93.06c-2.153-17.462 2.362-34.578 2.362-34.578z" fill="#82936e"/><path d="m315.216 320.4c8.774-17.333 15.228-42.976 15.228-42.976-21.976.956-36.813 21.827-36.813 21.827 11.312-30.749-5.1-57.675-5.1-57.675-2.23 32.184-30.59 52.258-30.59 52.258 5.258-10.2 0-20.234 0-20.234a58.393 58.393 0 0 0 -21.362 15.614c9.07-13.224 0-29.426 0-29.426s-6.128 11.875-19.033 14.9c-17.607 4.13-24.131 11.815-24.131 11.815 10.993-13.7 7.574-38.158 7.574-38.158-4.987 4.834-13.264 10.5-26.853 15.057-29.952 10.037-37.122 33.776-37.122 33.776s-6.463 18.786-4.3 34.573h164.079a20.655 20.655 0 0 0 18.423-11.351z" fill="#c9d38c"/></svg>