<svg id="Flat" height="512" viewBox="0 0 340 340" width="512" xmlns="http://www.w3.org/2000/svg"><path d="m9.997 93.342h320v36.217h-320z" fill="#915362"/><path d="m9.997 173.649h320v36.217h-320z" fill="#915362"/><path d="m-56.548 148.524h219.285a0 0 0 0 1 0 0v41.29a0 0 0 0 1 0 0h-219.285a8.3 8.3 0 0 1 -8.3-8.3v-24.692a8.3 8.3 0 0 1 8.3-8.298z" fill="#e59b9d" transform="matrix(0 1 -1 0 218.114 120.224)"/><path d="m24.154 148.524h219.284a0 0 0 0 1 0 0v41.29a0 0 0 0 1 0 0h-219.284a8.3 8.3 0 0 1 -8.3-8.3v-24.692a8.3 8.3 0 0 1 8.3-8.298z" fill="#e59b9d" transform="matrix(0 1 -1 0 298.816 39.523)"/><path d="m104.855 148.524h219.284a0 0 0 0 1 0 0v41.29a0 0 0 0 1 0 0h-219.284a8.3 8.3 0 0 1 -8.3-8.3v-24.692a8.3 8.3 0 0 1 8.3-8.298z" fill="#e59b9d" transform="matrix(0 1 -1 0 379.517 -41.179)"/><path d="m185.556 148.524h219.284a0 0 0 0 1 0 0v41.29a0 0 0 0 1 0 0h-219.284a8.3 8.3 0 0 1 -8.3-8.3v-24.692a8.3 8.3 0 0 1 8.3-8.298z" fill="#e59b9d" transform="matrix(0 1 -1 0 460.218 -121.88)"/><g fill="#915362"><circle cx="48.945" cy="111.45" r="3.899"/><circle cx="48.945" cy="191.758" r="3.899"/><circle cx="129.647" cy="111.45" r="3.899"/><circle cx="129.647" cy="191.758" r="3.899"/><circle cx="210.348" cy="111.45" r="3.899"/><circle cx="210.348" cy="191.758" r="3.899"/><circle cx="291.049" cy="111.45" r="3.899"/><circle cx="291.049" cy="191.758" r="3.899"/><path d="m69.59 237.6a48.75 48.75 0 0 0 -6.5-2.939 9 9 0 0 0 -11.8 7.063 73.555 73.555 0 0 0 -22.993-8.2v46.1h41.293z"/><path d="m150.292 239.53a67.1 67.1 0 0 0 -6.213 4.5l-.431-3.962a9 9 0 0 0 -12.2-7.415 93.119 93.119 0 0 0 -22.448 12.606v34.363h41.291z"/><path d="m230.993 241.443a45.624 45.624 0 0 0 -6.673-2.285 9 9 0 0 0 -11.014 8.075 70.17 70.17 0 0 0 -23.6-11.618v44.007h41.29z"/><path d="m311.694 228.084a85.757 85.757 0 0 0 -29.538 17.91 9 9 0 0 0 -11.105-.328c-.22.162-.43.337-.647.5v33.453h41.29z"/></g><path d="m85.571 264.775s2.373-10.2 5.934-16.376c0 0 5.762 3.467 11.629 14.431a82.5 82.5 0 0 1 31.566-21.792l2.373 21.792s10.206-10.871 18.275-15.855c0 0 16.614 15.722 23.023 37.647h-88.416z" fill="#82936e"/><path d="m60.175 243.177c1.424 9.969-1.186 16.614-1.186 16.614-15.665-19.462-46.045-18.75-46.045-18.75 9.256 8.782 12.342 27.059 12.342 27.059-6.408-1.661-15.289 0-15.289 0 4.648 4.984 7.22 16.524 7.22 16.524h72.738c-.014-10.3-4.384-19.847-4.384-19.847-8.782-15.904-25.396-21.6-25.396-21.6z" fill="#c9d38c"/><path d="m172.913 284.622a81.388 81.388 0 0 0 -9.019-16.524 70.075 70.075 0 0 1 21.6 0s-3.56-16.614-12.342-26.107c0 0 29.668 0 46.994 25.4 0 0 2.61-11.867 2.136-19.462 0 0 26.819 6.229 37.737 36.7z" fill="#c9d38c"/><path d="m253.134 284.622s8.782-21.033 23.26-31.714l1.424 11.867s13.054-21.835 42.247-29.9l-5.222 27.96s8.473-5.175 15.154-5.65c0 0 .511 17.442-8.034 27.442z" fill="#82936e"/></svg>