<svg id="Flat" height="512" viewBox="0 0 340 340" width="512" xmlns="http://www.w3.org/2000/svg"><path d="m218.279 117.615c20.842.24 50.586 1.047 77.185 3.491a14.848 14.848 0 0 0 1.7.059c3.11 1.191 6.406-.655 9.754-3.362a48.18 48.18 0 0 1 7.232-2.739 6.088 6.088 0 0 1 7.8 5.711 19.141 19.141 0 0 1 -1.793 8.829 15.325 15.325 0 0 0 -1.665 9.111c1.18 8.287 2.481 23.8-2.393 33.144 0 0-70.934 15.1-124.637 3.962z" fill="#efafa8"/><path d="m250.288 148.348c-11.354 0-26.176-.242-34.838-1a3 3 0 0 1 .519-5.978c9.812.854 29.549 1.109 43.151.918a1.9 1.9 0 0 0 1.861-1.894v-.211a3 3 0 0 1 6 0v.211a7.923 7.923 0 0 1 -7.776 7.893c-2.505.04-5.559.061-8.917.061z" fill="#a06669"/><path d="m274.892 145.789a2.991 2.991 0 0 0 1.067-.2 41.038 41.038 0 0 0 8.444-4.843 73.856 73.856 0 0 0 22.514-22.942c-1.01.481-1.912.954-2.685 1.393a15.019 15.019 0 0 1 -7.07 1.955 64.828 64.828 0 0 1 -16.049 14.575c-.072.045-.145.094-.213.146a35.9 35.9 0 0 1 -7.076 4.109 3 3 0 0 0 1.068 5.8z" fill="#a06669"/><path d="m317.161 154.5a16.925 16.925 0 0 0 -5.217.827 76.024 76.024 0 0 0 -10.081 4.11 17.078 17.078 0 0 1 -7.5 1.709c-.31 0-.625-.008-.936-.024-15.865-.821-47.4-1.173-63.853-1.305a10.676 10.676 0 0 1 -10.586-10.593c-.092-11.152-.357-21.812-.709-31.613-16.043-.184-26.815-.033-26.815-.033l2.578 56.645c1 .207 122.059-2.368 122.059-2.368 2.464-4.723 3.347-11.023 3.468-17.171a16.514 16.514 0 0 0 -2.408-.184z" fill="#a06669"/><path d="m218.952 169.751c21.947-.01 51.986.225 73.958 1.362a27.956 27.956 0 0 0 4.419-.121c3.039.92 6.232-.331 9.514-2.853a65.774 65.774 0 0 1 8.178-3.293 6.906 6.906 0 0 1 8.785 8.4 31.112 31.112 0 0 1 -1.573 4.313 21.107 21.107 0 0 0 -1.7 10.616c.764 8.592 1.571 24.15-.984 36.529 0 0-32.451 25.272-128.083 9.19z" fill="#efafa8"/><path d="m320.374 209.53a16.8 16.8 0 0 0 -5.428.9 63.253 63.253 0 0 0 -15.278 7.7 15.11 15.11 0 0 1 -8.549 2.685 14.6 14.6 0 0 1 -1.464-.074c-19.248-1.941-42.929-2.621-62.442-2.8a9.724 9.724 0 0 1 -9.608-10.343c.774-12.626 1.193-25.392 1.347-37.851-16.844.008-28.924.16-28.924.16l1.436 63.98c1.892.318 19.908 2.9 23.563 3.3h.019c77.451 8.56 104.5-12.491 104.5-12.491a92.409 92.409 0 0 0 1.647-15.128c-.273-.009-.544-.038-.819-.038z" fill="#a06669"/><path d="m189.565 230.9 26.468-3.014c20.813.014 49.938.52 72.618 2.808a24.576 24.576 0 0 0 4.521.038c3.535.993 7.178-.649 10.872-3.53q.645-.389 1.269-.815a53.631 53.631 0 0 1 12.859-6.492 6.893 6.893 0 0 1 9.067 6.968 32.088 32.088 0 0 1 -3.151 12.517 23.292 23.292 0 0 0 -2.713 12.866 96.088 96.088 0 0 1 -.012 19.26 24.4 24.4 0 0 0 1.4 11.8c.1.261-20.774 6.853-24.479 7.141-13.91 1.082-47.9 3.43-75.109 2.224l-25.969-2.254s-34.177-23.586-7.641-59.517z" fill="#efafa8"/><g fill="#a06669"><path d="m212.718 201.284a3 3 0 0 1 -.227-5.991c4.981-.383 16.866-.515 25.014-.42a3 3 0 0 1 -.035 6h-.036c-8.026-.1-19.667.032-24.482.4-.078.008-.152.011-.234.011z"/><path d="m256.718 201.315h-.1l-3.329-.1a3 3 0 0 1 .085-6h.089l3.344.1a3 3 0 0 1 -.093 6z"/><path d="m274.887 201.844c.091 0 .182 0 .274-.012a20.69 20.69 0 0 0 14.665-8.182l2.456-3.275a69.032 69.032 0 0 0 5.6-8.7 91.165 91.165 0 0 1 8.966-13.534c-.19.091-.384.184-.567.274a26.723 26.723 0 0 1 -8.949 2.564c-1.606 2.4-3.214 5.02-4.737 7.859a62.856 62.856 0 0 1 -5.109 7.937l-2.456 3.275a14.677 14.677 0 0 1 -10.4 5.806 3 3 0 0 0 .265 5.988z"/><path d="m242.125 264.309c-.039 0-.079 0-.118 0-12.206-.473-34.109-.918-34.329-.923a3 3 0 0 1 .122-6c.22 0 22.178.451 34.439.927a3 3 0 0 1 -.114 6z"/><path d="m293.171 230.73a209.04 209.04 0 0 0 -15.165 21.432c-2.4 3.906-7.095 5.308-9.679 5.8a67.367 67.367 0 0 1 -8.454 1.038 1.71 1.71 0 0 1 -1.824-1.7 3 3 0 0 0 -6 0 7.708 7.708 0 0 0 7.723 7.7c.154 0 .308 0 .461-.013a73.688 73.688 0 0 0 9.208-1.139c6.142-1.161 11-4.2 13.676-8.549a206.963 206.963 0 0 1 20.916-28.118 25.153 25.153 0 0 1 -10.862 3.549z"/><path d="m325.209 289.54c-.673-1.942-1.418-3.806-2.125-5.454-.111-.258-.2-.522-.305-.784a65.225 65.225 0 0 1 -17.959-3.082 27.792 27.792 0 0 0 -13.641-.823c-21.832 4.206-43.864 4.567-59.3 4.037a17.057 17.057 0 0 1 -15.164-10.4q-1.856-4.413-4.231-9a6.841 6.841 0 0 1 -.71-4.315c1.8-10.087 3.2-20.809 4.263-31.838-15.632-.01-26.579.257-26.579.257-21.539 36.185 6.6 64.9 6.6 64.9 6.853 1.8 16.357 2.791 26.916 3.259 27.253 1.208 61.532-1.091 75.4-2.17a23.518 23.518 0 0 1 10.713 1.792 33.785 33.785 0 0 0 9.311 2.262 6.522 6.522 0 0 0 6.811-8.641z"/></g><path d="m16.764 41.771s11.751 1.678 21.714 8.3a20.607 20.607 0 0 0 14.149 3.316c20.282-2.713 72.724-8.323 113.377-.414a20.475 20.475 0 0 0 13.763-2.092 87.562 87.562 0 0 1 23.9-9.114s.268 11.261-4.889 20.643a28.617 28.617 0 0 0 -3.6 15.781c2.045 29.209 6.835 116.809-4.078 177.84a27.8 27.8 0 0 0 2.74 17.682c3.3 6.366 7.308 15.6 8.219 24.339 0 0-15.53-.41-25.521-5.406a23.589 23.589 0 0 0 -16.72-1.613c-18.378 4.984-58.866 12.55-103.76-.914a23.859 23.859 0 0 0 -17.358 1.516 63.049 63.049 0 0 1 -25.954 6.417 50.365 50.365 0 0 1 8.46-22.222 27.63 27.63 0 0 0 4.676-20.184c-4.564-29.809-13.953-106.506-2.646-175.346a28.1 28.1 0 0 0 -1.861-15.667c-2.49-5.795-5.31-14.464-4.611-22.862z" fill="#efafa8"/><path d="m83.681 140.26c2.208 1.384 5.944 2.936 11.715 3.105a32.236 32.236 0 0 1 13.506 3.2c6.025 3.013 12.82 8.844 15.905 20.122l-3.856 15.037s-31-6.322-39.151-40.106a1.256 1.256 0 0 1 1.881-1.358z" fill="#5f7072"/><path d="m154.813 138.269c-4.738.917-20.866 5.438-33.476 25.775a23.835 23.835 0 0 0 -3.179 8.148c-1.4 7.457-3.689 23.854-.96 41.4l5.217-6.707a18.16 18.16 0 0 0 3.855-11.057 61.485 61.485 0 0 1 .948-10.908 13.029 13.029 0 0 1 9.557-10.13c9.177-2.373 24.589-10.136 19.677-35.412a1.4 1.4 0 0 0 -1.639-1.109z" fill="#5f7072"/><path d="m42.571 269.6a3 3 0 0 1 -2.58-4.527c4.21-7.122 1.6-17.308 1.577-17.41-2.377-9.412-4.041-23.032-4.953-40.515a3 3 0 1 1 5.992-.312c.892 17.093 2.5 30.324 4.77 39.324.128.476 3.284 12.653-2.22 21.966a3 3 0 0 1 -2.586 1.474z" fill="#a06669"/><path d="m45.391 193.846h-1.271a8.259 8.259 0 0 1 -8.218-8.08c-.123-7.255-.149-14.98-.078-22.961a3 3 0 0 1 3-2.973h.027a3 3 0 0 1 2.974 3.027c-.07 7.929-.045 15.6.078 22.8a2.23 2.23 0 0 0 2.218 2.182h1.271a3 3 0 0 1 0 6z" fill="#a06669"/><path d="m39.074 150.367h-.074a3 3 0 0 1 -2.925-3.072l.049-2a3 3 0 0 1 3-2.924h.076a3 3 0 0 1 2.923 3.075l-.049 1.99a3 3 0 0 1 -3 2.931z" fill="#a06669"/><path d="m22.914 69.433a28.431 28.431 0 0 1 .323 10.867c-.024.144-.046.288-.069.431a93.075 93.075 0 0 1 13.749 42.278c-.033.663-.154 3.119-.3 6.934a3 3 0 0 0 2.881 3.115h.119a3 3 0 0 0 3-2.882c.174-4.449.308-7.028.309-7.039a3.037 3.037 0 0 0 0-.357 100.475 100.475 0 0 0 -20.012-53.347z" fill="#a06669"/></svg>