<svg id="Flat" height="512" viewBox="0 0 340 340" width="512" xmlns="http://www.w3.org/2000/svg"><path d="m286.587 47.505a24.97 24.97 0 0 0 -32.746-.616c-32.487 27.221-92.941 86.393-64.023 142.374 0 0 19.161-5.843 42.733-26.083a11.568 11.568 0 0 0 3.814-10.94l-3.318-17.4 18.377 9.648c14.628-16.613 29.466-38.963 41.512-68.813a25.155 25.155 0 0 0 -6.349-28.17z" fill="#76a59d"/><path d="m180.206 223.174a3.506 3.506 0 0 1 -3.407-4.317c18.934-79.026 75.538-141.792 76.107-142.417a3.5 3.5 0 0 1 5.174 4.716c-.558.612-55.971 62.1-74.473 139.332a3.5 3.5 0 0 1 -3.401 2.686z" fill="#3e6869"/><path d="m188.52 186.619c28.632-46.588 36.648-100.891 38.284-114.64-28.994 30.147-57.644 73.115-38.284 114.64z" fill="#3e6869"/><path d="m138.111 194.459s22.473-21.991-2.1-78.593c-17.983-41.431-41.8-55.535-60.957-58.412a25.3 25.3 0 0 0 -27.954 17.87c-4.311 14.724-3.363 37.711 24.844 64.489l17.42-5.913-4.219 12.869a14.31 14.31 0 0 0 1.584 12.265c6.734 10.359 23.684 31.076 51.382 35.425z" fill="#76a59d"/><path d="m143.962 221.114a3.5 3.5 0 0 1 -3.406-2.708c-15.156-65.118-63.874-125.413-64.364-126.015a3.5 3.5 0 0 1 5.424-4.423c.5.613 50.226 62.124 65.757 128.852a3.5 3.5 0 0 1 -3.411 4.294z" fill="#3e6869"/><path d="m136.014 115.866a153.613 153.613 0 0 0 -11.644-22.058c-3.14 13.938-10.131 57.885 13.764 100.628.766-.779 22.009-22.983-2.12-78.57z" fill="#3e6869"/><path d="m199.6 68.012 18.421-7.736a205.143 205.143 0 0 0 .74-24.458 24.2 24.2 0 0 0 -38.046-19.086c-26.911 18.8-39.11 51.435-39.11 51.435l14.975 17.825-19.3-1.347a163.168 163.168 0 0 0 -2.979 48.094 109.3 109.3 0 0 0 18.653 51.5 97.766 97.766 0 0 1 5.3 8.818c37.734-41.368 52.578-84.427 58-118.548z" fill="#76a59d"/><path d="m158.188 223.173a3.5 3.5 0 0 1 -3.49-3.277 380.7 380.7 0 0 1 16.171-137.196c10.273-32.723 21.311-51.28 21.776-52.054a3.5 3.5 0 0 1 6 3.6c-.442.736-44.029 74.875-36.963 185.2a3.5 3.5 0 0 1 -3.269 3.717c-.075.008-.15.01-.225.01z" fill="#3e6869"/><path d="m128.438 211.473h-32.016l23.441 108.257a10.065 10.065 0 0 0 9.837 7.935h12.45a920.01 920.01 0 0 0 -13.712-116.192z" fill="#aac3d6"/><path d="m128.438 211.473 13.712 116.192h61.142a10.066 10.066 0 0 0 9.963-8.637l15.413-107.555z" fill="#e1ecfe"/></svg>