<svg id="Flat" height="512" viewBox="0 0 340 340" width="512" xmlns="http://www.w3.org/2000/svg"><path d="m10.385 260.014h68.921v17.741h-68.921z" fill="#915362" transform="matrix(0 1 -1 0 313.729 224.04)"/><path d="m24.288 218.511h76.6a0 0 0 0 1 0 0v17.741a0 0 0 0 1 0 0h-69.28a7.32 7.32 0 0 1 -7.32-7.32v-10.421a0 0 0 0 1 0 0z" fill="#e59b9d"/><path d="m84.041 315.278s-1.676-21.43-18.715-34.278l-2.74 14.526s-13.461-20.954-43.07-20.673a105.685 105.685 0 0 1 10.894 20.21 39.462 39.462 0 0 0 -20.41-2.612s10.633 10.335 11.751 22.827z" fill="#c9d38c"/><path d="m80.889 218.51h19.995v17.741h-19.995z" fill="#915362"/><path d="m267 315.278s6.983-49.363 49.441-61.933c0 0-6.983 22.905-12.57 35.475a34.185 34.185 0 0 1 21.229-4.508s-1.955 10.932-8.38 16.8c0 0 10.913 4.168 13.278 14.168z" fill="#82936e"/><path d="m190.8 55.466-93.069 65.604v194.208h93.069 93.068v-194.208z" fill="#e59b9d"/><path d="m128.235 141.438h125.13v173.84h-125.13z" fill="#915362"/><path d="m97.842 120.992h185.915l-9.931-7h-166.053z" fill="#915362"/><path d="m97.731 121.07v26.755l94.143-68.555 91.994 67.059v-25.259l-93.068-65.604z" fill="#915362"/><path d="m190.8 24.722-129.594 99.923 14.388 18.277 115.206-87.456 115.205 87.456 14.388-18.277z" fill="#e59b9d"/><g fill="#915362"><path d="m97.731 156.57h186.137v7h-186.137z"/><path d="m97.731 196.793h186.137v7h-186.137z"/><path d="m97.731 241.403h186.137v7h-186.137z"/><path d="m97.731 283.336h186.137v7h-186.137z"/></g><path d="m190.8 153.57h-48.575v114.524l19.374 47.184h29.201 48.575v-104.956l-13.525-56.752z" fill="#e59b9d"/><path d="m172.158 151.333h7v163.945h-7z" fill="#915362"/><path d="m207.872 151.333h7v163.945h-7z" fill="#915362"/><path d="m214.967 153.57-72.742 114.524v17.135l19.374 30.049h11.203l66.573-104.956v-17.661l-13.525-39.091z" fill="#915362"/><path d="m142.225 285.229v30.049h19.374l77.776-122.617v-39.091h-13.525z" fill="#e59b9d"/><circle cx="191.874" cy="234.424" fill="#915362" r="3.899"/><circle cx="159.443" cy="288.836" fill="#915362" r="3.899"/><circle cx="220.965" cy="191.781" fill="#915362" r="3.899"/></svg>