<svg id="_01-Pressure" height="512" viewBox="0 0 64 64" width="512" xmlns="http://www.w3.org/2000/svg" data-name="01-Pressure"><path d="m32 57a4.535 4.535 0 0 1 -3.352-1.541l-5.87-6.4a3.2 3.2 0 0 1 -.534-3.323 2.915 2.915 0 0 1 2.556-1.736h1.2v-5h2v6a1 1 0 0 1 -1 1h-2.2a.951.951 0 0 0 -.705.491 1.2 1.2 0 0 0 .157 1.214l5.871 6.4a2.474 2.474 0 0 0 3.754 0l5.871-6.4a1.2 1.2 0 0 0 .152-1.215.949.949 0 0 0 -.7-.49h-2.2a1 1 0 0 1 -1-1v-6h2v5h1.2a2.913 2.913 0 0 1 2.555 1.732 3.2 3.2 0 0 1 -.533 3.324l-5.87 6.4a4.535 4.535 0 0 1 -3.352 1.544z"/><path d="m44.933 50.851a17.517 17.517 0 0 1 -1.558-1.07l1.249-1.563a15.177 15.177 0 0 0 1.362.932z"/><path d="m56.414 64a2.417 2.417 0 0 1 -2.414-2.414v-1.626c-6.038-.47-13.211-4.913-13.53-5.112l1.06-1.7c.077.052 7.831 4.852 13.47 4.852a1 1 0 0 1 1 1v2.586a.43.43 0 0 0 .707.293l5.172-5.172a.417.417 0 0 0 .121-.293v-.828a.417.417 0 0 0 -.121-.293l-5.172-5.172a.43.43 0 0 0 -.707.293v2.586a1 1 0 0 1 -1 1 18.964 18.964 0 0 1 -8.458-2.238l.916-1.778a17.657 17.657 0 0 0 6.542 1.976v-1.546a2.414 2.414 0 0 1 4.121-1.707l5.172 5.172a2.4 2.4 0 0 1 .707 1.707v.828a2.4 2.4 0 0 1 -.707 1.707l-5.172 5.172a2.4 2.4 0 0 1 -1.707.707z"/><path d="m19.067 50.851-1.053-1.7a15.177 15.177 0 0 0 1.362-.932l1.249 1.563a17.517 17.517 0 0 1 -1.558 1.069z"/><path d="m7.586 64a2.4 2.4 0 0 1 -1.707-.707l-5.172-5.172a2.4 2.4 0 0 1 -.707-1.707v-.828a2.4 2.4 0 0 1 .707-1.707l5.172-5.172a2.414 2.414 0 0 1 4.121 1.707v1.546a17.657 17.657 0 0 0 6.542-1.976l.916 1.778a18.964 18.964 0 0 1 -8.458 2.238 1 1 0 0 1 -1-1v-2.586a.43.43 0 0 0 -.707-.293l-5.172 5.172a.417.417 0 0 0 -.121.293v.828a.417.417 0 0 0 .121.293l5.172 5.172a.43.43 0 0 0 .707-.293v-2.586a1 1 0 0 1 1-1c5.648 0 13.393-4.8 13.47-4.848l1.06 1.7c-.319.2-7.492 4.642-13.53 5.112v1.626a2.417 2.417 0 0 1 -2.414 2.41z"/><path d="m29 45h2v6h-2z"/><path d="m33 45h2v6h-2z"/><path d="m30 47h4v2h-4z"/><path d="m32 31a12 12 0 1 1 12-12 12.013 12.013 0 0 1 -12 12zm0-22a10 10 0 1 0 10 10 10.011 10.011 0 0 0 -10-10z"/><path d="m46 18h4v2h-4z"/><path d="m14 18h4v2h-4z"/><path d="m46 18h4v2h-4z"/><path d="m14 18h4v2h-4z"/><path d="m31 1h2v4h-2z"/><path d="m31 33h2v3h-2z"/><path d="m31 1h2v4h-2z"/><path d="m31 33h2v4h-2z"/><path d="m42.314 28.314h2v4h-2z" transform="matrix(.707 -.707 .707 .707 -8.749 39.506)"/><path d="m19.686 5.686h2v4h-2z" transform="matrix(.707 -.707 .707 .707 .624 16.879)"/><path d="m42.314 28.314h2v4h-2z" transform="matrix(.707 -.707 .707 .707 -8.749 39.506)"/><path d="m19.686 5.686h2v4h-2z" transform="matrix(.707 -.707 .707 .707 .624 16.879)"/><path d="m18.686 29.314h4v2h-4z" transform="matrix(.707 -.707 .707 .707 -15.376 23.506)"/><path d="m41.314 6.686h4v2h-4z" transform="matrix(.707 -.707 .707 .707 7.251 32.879)"/><path d="m18.686 29.314h4v2h-4z" transform="matrix(.707 -.707 .707 .707 -15.376 23.506)"/><path d="m41.314 6.686h4v2h-4z" transform="matrix(.707 -.707 .707 .707 7.251 32.879)"/></svg>