<?xml version="1.0"?>
<svg xmlns="http://www.w3.org/2000/svg" viewBox="0 0 64 64" width="512" height="512"><g id="_02-Pressure" data-name="02-Pressure"><path d="M47,38H46V36h1a12,12,0,0,0,.1-23.995,1,1,0,0,1-.887-.554A16.906,16.906,0,0,0,31,2,17.091,17.091,0,0,0,14.406,15.339a1,1,0,0,1-.835.776A10.037,10.037,0,0,0,5,26c0,5.607,5.71,10,13,10h4v2H18C9.589,38,3,32.729,3,26a12.053,12.053,0,0,1,9.609-11.748A19.112,19.112,0,0,1,31,0,18.887,18.887,0,0,1,47.728,10.024,14,14,0,0,1,47,38Z"/><rect x="42" y="36" width="2" height="2"/><path d="M38,49H36V43a1,1,0,0,1,1-1h2.2a.951.951,0,0,0,.7-.491,1.2,1.2,0,0,0-.157-1.214l-5.871-6.4a2.474,2.474,0,0,0-3.754,0l-5.871,6.4A1.2,1.2,0,0,0,24.1,41.51a.949.949,0,0,0,.7.49H27a1,1,0,0,1,1,1v6H26V44H24.8a2.913,2.913,0,0,1-2.555-1.732,3.2,3.2,0,0,1,.533-3.324l5.87-6.4a4.416,4.416,0,0,1,6.7,0l5.87,6.4a3.2,3.2,0,0,1,.534,3.323A2.915,2.915,0,0,1,39.2,44H38Z"/><path d="M63,64H62c-6.5,0-12.24-4.257-14.653-6.333l-1.7,1.706A2.134,2.134,0,0,1,42,57.864v-8.6A3.27,3.27,0,0,1,45.267,46h8.6a2.134,2.134,0,0,1,1.509,3.642l-2.06,2.06C55.387,53.376,59.237,56,63,56v2c-5.017,0-9.94-3.833-11.824-5.482a1,1,0,0,1-.048-1.459l2.831-2.831a.134.134,0,0,0-.1-.228h-8.6A1.268,1.268,0,0,0,44,49.267v8.6a.119.119,0,0,0,.083.124.118.118,0,0,0,.145-.029L46.6,55.586a1,1,0,0,1,1.386-.027C49.149,56.635,55.284,62,62,62h1Z"/><path d="M2,64H1V62H2c6.718,0,12.851-5.365,14.012-6.441a1,1,0,0,1,1.387.027l2.373,2.373a.134.134,0,0,0,.228-.1v-8.6A1.268,1.268,0,0,0,18.733,48h-8.6a.119.119,0,0,0-.124.083.117.117,0,0,0,.03.144l2.83,2.832a1,1,0,0,1-.048,1.459C10.94,54.167,6.017,58,1,58V56c3.763,0,7.613-2.624,9.687-4.3l-2.06-2.06A2.134,2.134,0,0,1,10.136,46h8.6A3.27,3.27,0,0,1,22,49.267v8.6a2.134,2.134,0,0,1-3.642,1.51l-1.706-1.707C14.24,59.744,8.5,64,2,64Z"/><path d="M34,43H31a1,1,0,0,1-1-1V36h2v5h2Z"/></g></svg>
