<?xml version="1.0"?>
<svg xmlns="http://www.w3.org/2000/svg" viewBox="0 0 64 64" width="512" height="512"><g id="_03-windy" data-name="03-windy"><path d="M19,38H18C9.589,38,3,32.729,3,26a12.053,12.053,0,0,1,9.609-11.748A19.112,19.112,0,0,1,31,0,18.887,18.887,0,0,1,47.728,10.024,14,14,0,0,1,58.8,31.539l-1.684-1.078A12,12,0,0,0,47.1,12.005a1,1,0,0,1-.887-.554A16.906,16.906,0,0,0,31,2,17.091,17.091,0,0,0,14.406,15.339a1,1,0,0,1-.835.776A10.037,10.037,0,0,0,5,26c0,5.607,5.71,10,13,10h1Z"/><path d="M55.946,34.769l-1.278-1.538a12.148,12.148,0,0,0,1.563-1.563l1.538,1.278A14.017,14.017,0,0,1,55.946,34.769Z"/><path d="M63,47H37a4,4,0,0,1,0-8,3.941,3.941,0,0,1,4,3.919L39,43a1.94,1.94,0,0,0-1.919-2A2,2,0,1,0,37,45H63Z"/><path d="M63,38H25a6,6,0,0,1,0-12,5.943,5.943,0,0,1,6,5.919V34H29V31.919A3.923,3.923,0,0,0,25.081,28,4,4,0,1,0,25,36H63Z"/><path d="M63,51H5a5,5,0,1,1,5-5H8a3,3,0,1,0-3,3H63Z"/><path d="M12.081,61A4,4,0,1,1,12,53H55v2H12a2,2,0,0,0,0,4,1.94,1.94,0,0,0,2-1.919L16,57A3.941,3.941,0,0,1,12.081,61Z"/><rect x="57" y="53" width="2" height="2"/><path d="M15,64H11a7.008,7.008,0,0,1-7-7V55H6v2a5.006,5.006,0,0,0,5,5h4Z"/><path d="M40,51H38c-4.962,0-9-3.589-9-8a5.785,5.785,0,0,1,1.293-3.707l1.414,1.414A3.927,3.927,0,0,0,31,43c0,3.7,3.633,6,7,6h2Z"/></g></svg>
