<svg height="512" viewBox="0 0 64 64" width="512" xmlns="http://www.w3.org/2000/svg"><g id="_04-Damp" data-name="04-Damp"><path d="m12.722 37.27c-5.907-1.713-9.722-6.137-9.722-11.27a12.053 12.053 0 0 1 9.61-11.748 19.11 19.11 0 0 1 18.39-14.252 18.887 18.887 0 0 1 16.728 10.024 14 14 0 0 1 7.888 25.012l-1.232-1.577a12 12 0 0 0 -7.284-21.454 1 1 0 0 1 -.887-.554 16.907 16.907 0 0 0 -15.213-9.451 17.09 17.09 0 0 0 -16.594 13.339 1 1 0 0 1 -.835.776 10.037 10.037 0 0 0 -8.571 9.885c0 4.221 3.25 7.89 8.278 9.349z"/><path d="m51.308 37.325-.616-1.9a11.837 11.837 0 0 0 1.846-.773l.924 1.775a14.058 14.058 0 0 1 -2.154.898z"/><path d="m20 43a5.006 5.006 0 0 1 -5-5c0-2.486 3.225-7 5-7s5 4.514 5 7a5.006 5.006 0 0 1 -5 5zm0-9.948c-.849.537-3 3.339-3 4.948a3 3 0 0 0 6 0c0-1.609-2.151-4.411-3-4.948z"/><path d="m20 57a5.006 5.006 0 0 1 -5-5c0-2.486 3.225-7 5-7s5 4.514 5 7a5.006 5.006 0 0 1 -5 5zm0-9.948c-.849.537-3 3.339-3 4.948a3 3 0 0 0 6 0c0-1.609-2.151-4.411-3-4.948z"/><path d="m44 43a5.006 5.006 0 0 1 -5-5c0-2.486 3.225-7 5-7s5 4.514 5 7a5.006 5.006 0 0 1 -5 5zm0-9.948c-.849.537-3 3.339-3 4.948a3 3 0 0 0 6 0c0-1.609-2.151-4.411-3-4.948z"/><path d="m44 57a5.006 5.006 0 0 1 -5-5c0-2.486 3.225-7 5-7s5 4.514 5 7a5.006 5.006 0 0 1 -5 5zm0-9.948c-.849.537-3 3.339-3 4.948a3 3 0 0 0 6 0c0-1.609-2.151-4.411-3-4.948z"/><path d="m32 50a5.006 5.006 0 0 1 -5-5c0-2.486 3.225-7 5-7s5 4.514 5 7a5.006 5.006 0 0 1 -5 5zm0-9.948c-.849.537-3 3.339-3 4.948a3 3 0 0 0 6 0c0-1.609-2.151-4.411-3-4.948z"/><path d="m32 64a5.006 5.006 0 0 1 -5-5c0-2.486 3.225-7 5-7s5 4.514 5 7a5.006 5.006 0 0 1 -5 5zm0-9.948c-.849.537-3 3.339-3 4.948a3 3 0 0 0 6 0c0-1.609-2.151-4.411-3-4.948z"/></g></svg>