<?xml version="1.0"?>
<svg xmlns="http://www.w3.org/2000/svg" viewBox="0 0 64 64" width="512" height="512"><g id="_06-Pour" data-name="06-Pour"><path d="M19.42,38H18C9.589,38,3,32.729,3,26a12.065,12.065,0,0,1,9.609-11.752A19.106,19.106,0,0,1,31,0,18.893,18.893,0,0,1,47.729,10.028,14.037,14.037,0,0,1,61,24a13.847,13.847,0,0,1-2.967,8.616l-1.574-1.232A11.875,11.875,0,0,0,59,24,12.03,12.03,0,0,0,47.1,12.01a1,1,0,0,1-.887-.555A16.913,16.913,0,0,0,31,2,17.085,17.085,0,0,0,14.406,15.334a1,1,0,0,1-.834.776A10.05,10.05,0,0,0,5,26c0,5.607,5.71,10,13,10h1.42Z"/><path d="M54.46,35.846l-1.066-1.691a12.114,12.114,0,0,0,1.914-1.5L56.692,34.1A14.041,14.041,0,0,1,54.46,35.846Z"/><path d="M47,38H24.12V36H47a9.807,9.807,0,0,0,1.046-.055,11.91,11.91,0,0,0,3.569-.869l.77,1.846a13.874,13.874,0,0,1-4.149,1.014A11.758,11.758,0,0,1,47,38Z"/><path d="M44,61A3,3,0,0,1,41.5,56.336l8-12A3,3,0,0,1,54.5,47.665l-8,12A3,3,0,0,1,44,61Zm8-16a1,1,0,0,0-.834.445l-8,12a1,1,0,0,0,.277,1.387,1.023,1.023,0,0,0,1.387-.278l8-12A1,1,0,0,0,52,45Z"/><path d="M4,50A3,3,0,0,1,1.5,45.336l4-6A3,3,0,1,1,10.5,42.665l-4,6A3,3,0,0,1,4,50ZM8,40a.941.941,0,0,0-.2.02.989.989,0,0,0-.636.426l-4,6a1,1,0,0,0,.277,1.386,1.022,1.022,0,0,0,1.387-.278l4-6A1,1,0,0,0,8,40Z"/><path d="M31,64a3.035,3.035,0,0,1-1.567-.444,3,3,0,0,1-.984-4.131L42.568,36.476l1.7,1.048-14.12,22.95a1,1,0,0,0-.123.756.988.988,0,0,0,.448.619,1.011,1.011,0,0,0,1.369-.318l5.572-9.055,1.7,1.048-5.568,9.05A3,3,0,0,1,31,64Z"/><rect x="35.57" y="42.97" width="16.509" height="2" transform="matrix(0.524, -0.852, 0.852, 0.524, -16.59, 58.255)"/><path d="M19,64a3.035,3.035,0,0,1-1.567-.444,3,3,0,0,1-.984-4.131L30.568,36.476l1.7,1.048-14.12,22.95a1,1,0,0,0-.123.756.988.988,0,0,0,.448.619,1.011,1.011,0,0,0,1.369-.318L35.269,36.476l1.7,1.048-15.42,25.05A3,3,0,0,1,19,64Z"/><path d="M7,64a3.035,3.035,0,0,1-1.567-.444,3,3,0,0,1-.984-4.131L15.492,41.476l1.7,1.048L6.151,60.474a1,1,0,0,0-.123.756.988.988,0,0,0,.448.619,1.011,1.011,0,0,0,1.369-.318L22.33,38H19.979l-1.553,2.524-1.7-1.048,1.845-3A1,1,0,0,1,19.42,36h4.7a1,1,0,0,1,.852,1.524L9.552,62.574A3,3,0,0,1,7,64Z"/></g></svg>
