<?xml version="1.0"?>
<svg xmlns="http://www.w3.org/2000/svg" viewBox="0 0 64 64" width="512" height="512"><g id="_07-Storms" data-name="07-Storms"><path d="M47,38H40V36h7a12,12,0,0,0,.1-23.995,1,1,0,0,1-.887-.554A16.906,16.906,0,0,0,31,2,17.091,17.091,0,0,0,14.406,15.339a1,1,0,0,1-.835.776A10.037,10.037,0,0,0,5,26c0,5.607,5.71,10,13,10h3v2H18C9.589,38,3,32.729,3,26a12.053,12.053,0,0,1,9.609-11.748A19.112,19.112,0,0,1,31,0,18.887,18.887,0,0,1,47.728,10.024,14,14,0,0,1,47,38Z"/><rect x="36" y="36" width="2" height="2"/><path d="M28,64a1,1,0,0,1-.949-1.316L32.613,46H21a1,1,0,0,1-.832-1.555l16-24a1,1,0,0,1,1.776.886L31.41,40H43a1,1,0,0,1,.826,1.563l-15,22A1,1,0,0,1,28,64ZM22.869,44H34a1,1,0,0,1,.949,1.316L31.22,56.5,41.108,42H30a1,1,0,0,1-.944-1.331l4.385-12.528Z"/></g></svg>
