<svg height="512" viewBox="0 0 64 64" width="512" xmlns="http://www.w3.org/2000/svg"><g id="_09-Snow" data-name="09-Snow"><path d="m47 38v-2a12 12 0 0 0 .1-23.995 1 1 0 0 1 -.887-.554 16.906 16.906 0 0 0 -15.213-9.451 17.091 17.091 0 0 0 -16.594 13.339 1 1 0 0 1 -.835.776 10.037 10.037 0 0 0 -8.571 9.885c0 5.607 5.71 10 13 10h3v2h-3c-8.411 0-15-5.271-15-12a12.053 12.053 0 0 1 9.609-11.748 19.112 19.112 0 0 1 18.391-14.252 18.887 18.887 0 0 1 16.728 10.024 14 14 0 0 1 -.728 27.976z"/><path d="m43 36h2v2h-2z"/><path d="m32 41a4 4 0 1 1 4-4 4 4 0 0 1 -4 4zm0-6a2 2 0 1 0 2 2 2 2 0 0 0 -2-2z"/><path d="m31 28h2v6h-2z"/><path d="m31 40h2v6h-2z"/><path d="m35 36h6v2h-6z"/><path d="m23 36h6v2h-6z"/><path d="m34.536 38.535h2v4h-2z" transform="matrix(.707 -.707 .707 .707 -18.255 37)"/><path d="m27.465 31.464h2v4h-2z" transform="matrix(.707 -.707 .707 .707 -15.326 29.929)"/><path d="m26.464 39.536h4v2h-4z" transform="matrix(.707 -.707 .707 .707 -20.326 32)"/><path d="m33.535 32.465h4v2h-4z" transform="matrix(.707 -.707 .707 .707 -13.255 34.929)"/><path d="m43 49a3 3 0 1 1 3-3 3 3 0 0 1 -3 3zm0-4a1 1 0 1 0 1 1 1 1 0 0 0 -1-1z"/><path d="m32 55a3 3 0 1 1 3-3 3 3 0 0 1 -3 3zm0-4a1 1 0 1 0 1 1 1 1 0 0 0 -1-1z"/><path d="m21 49a3 3 0 1 1 3-3 3 3 0 0 1 -3 3zm0-4a1 1 0 1 0 1 1 1 1 0 0 0 -1-1z"/><path d="m18 59a3 3 0 1 1 3-3 3 3 0 0 1 -3 3zm0-4a1 1 0 1 0 1 1 1 1 0 0 0 -1-1z"/><path d="m46 59a3 3 0 1 1 3-3 3 3 0 0 1 -3 3zm0-4a1 1 0 1 0 1 1 1 1 0 0 0 -1-1z"/><path d="m32 64a3 3 0 1 1 3-3 3 3 0 0 1 -3 3zm0-4a1 1 0 1 0 1 1 1 1 0 0 0 -1-1z"/></g></svg>