<svg height="512" viewBox="0 0 64 64" width="512" xmlns="http://www.w3.org/2000/svg"><g id="_10-Sleet" data-name="10-Sleet"><path d="m19 36h2v2h-2z"/><path d="m16.948 37.973c-7.948-.415-13.948-5.562-13.948-11.973a12.053 12.053 0 0 1 9.61-11.748 19.11 19.11 0 0 1 18.39-14.252 18.887 18.887 0 0 1 16.728 10.024 14 14 0 0 1 1.424 27.811l-.3-1.976a12 12 0 0 0 -1.752-23.854 1 1 0 0 1 -.887-.554 16.907 16.907 0 0 0 -15.213-9.451 17.09 17.09 0 0 0 -16.594 13.339 1 1 0 0 1 -.835.776 10.037 10.037 0 0 0 -8.571 9.885c0 5.329 5.182 9.617 12.052 9.976z"/><path d="m40 33a4 4 0 1 1 4-4 4 4 0 0 1 -4 4zm0-6a2 2 0 1 0 2 2 2 2 0 0 0 -2-2z"/><path d="m39 20h2v6h-2z"/><path d="m39 32h2v6h-2z"/><path d="m43 28h6v2h-6z"/><path d="m31 28h6v2h-6z"/><path d="m42.536 30.535h2v4.001h-2z" transform="matrix(.707 -.707 .707 .707 -10.254 40.318)"/><path d="m35.464 23.464h2v4.001h-2z" transform="matrix(.707 -.707 .707 .707 -7.325 33.246)"/><path d="m34.464 31.536h4.001v2h-4.001z" transform="matrix(.707 -.707 .707 .707 -12.326 35.314)"/><path d="m41.535 24.465h4.001v2h-4.001z" transform="matrix(.707 -.707 .707 .707 -5.255 38.243)"/><path d="m28 45a4 4 0 1 1 4-4 4 4 0 0 1 -4 4zm0-6a2 2 0 1 0 2 2 2 2 0 0 0 -2-2z"/><path d="m27 32h2v6h-2z"/><path d="m27 44h2v6h-2z"/><path d="m31 40h6v2h-6z"/><path d="m19 40h6v2h-6z"/><path d="m30.536 42.535h2v4.001h-2z" transform="matrix(.707 -.707 .707 .707 -22.256 35.348)"/><path d="m23.464 35.464h2v4.001h-2z" transform="matrix(.707 -.707 .707 .707 -19.327 28.276)"/><path d="m22.464 43.536h4.001v2h-4.001z" transform="matrix(.707 -.707 .707 .707 -24.326 30.343)"/><path d="m29.535 36.465h4.001v2h-4.001z" transform="matrix(.707 -.707 .707 .707 -17.255 33.272)"/><path d="m3.991 58a3.016 3.016 0 0 1 -1.48-.387 2.932 2.932 0 0 1 -1.411-1.813 2.881 2.881 0 0 1 .31-2.231l1-1.684a3.038 3.038 0 0 1 4.08-1.073 2.936 2.936 0 0 1 1.41 1.808 2.882 2.882 0 0 1 -.308 2.232l-1 1.685a3.023 3.023 0 0 1 -2.601 1.463zm-.5-2.131a1.028 1.028 0 0 0 1.384-.351l1-1.684a.9.9 0 0 0 .1-.694.951.951 0 0 0 -.46-.581 1.023 1.023 0 0 0 -1.381.35l-1 1.685a.9.9 0 0 0 -.1.694.95.95 0 0 0 .458.581z"/><path d="m8.992 49.574a3.023 3.023 0 0 1 -1.482-.386 2.936 2.936 0 0 1 -1.41-1.808 2.882 2.882 0 0 1 .308-2.232l1-1.685a3.04 3.04 0 0 1 4.082-1.074 2.93 2.93 0 0 1 1.41 1.811 2.881 2.881 0 0 1 -.31 2.231l-1 1.684a3.02 3.02 0 0 1 -2.598 1.459zm1.008-5.574a1.008 1.008 0 0 0 -.872.485l-1 1.684a.9.9 0 0 0 -.1.694.951.951 0 0 0 .46.581 1.026 1.026 0 0 0 1.381-.35l1-1.685a.9.9 0 0 0 .1-.694.953.953 0 0 0 -.459-.582 1.045 1.045 0 0 0 -.51-.133z"/><path d="m11.991 64a3.016 3.016 0 0 1 -1.48-.387 2.932 2.932 0 0 1 -1.411-1.813 2.881 2.881 0 0 1 .31-2.231l1-1.684a3.039 3.039 0 0 1 4.082-1.075 2.936 2.936 0 0 1 1.408 1.81 2.882 2.882 0 0 1 -.308 2.232l-1 1.685a3.023 3.023 0 0 1 -2.601 1.463zm-.5-2.131a1.029 1.029 0 0 0 1.384-.351l1-1.684a.9.9 0 0 0 .1-.694.951.951 0 0 0 -.46-.581 1.023 1.023 0 0 0 -1.381.35l-1 1.685a.9.9 0 0 0 -.1.694.95.95 0 0 0 .458.581z"/><path d="m16.992 55.574a3.023 3.023 0 0 1 -1.482-.386 2.936 2.936 0 0 1 -1.41-1.808 2.882 2.882 0 0 1 .308-2.232l1-1.685a3.039 3.039 0 0 1 4.082-1.074 2.93 2.93 0 0 1 1.41 1.811 2.881 2.881 0 0 1 -.31 2.231l-1 1.684a3.02 3.02 0 0 1 -2.598 1.459zm1.008-5.574a1.008 1.008 0 0 0 -.872.485l-1 1.684a.9.9 0 0 0 -.1.694.951.951 0 0 0 .46.581 1.025 1.025 0 0 0 1.381-.35l1-1.685a.9.9 0 0 0 .1-.694.953.953 0 0 0 -.459-.582 1.045 1.045 0 0 0 -.51-.133z"/><path d="m39.991 58a3.016 3.016 0 0 1 -1.48-.387 2.932 2.932 0 0 1 -1.411-1.813 2.881 2.881 0 0 1 .31-2.231l1-1.684a3.038 3.038 0 0 1 4.082-1.075 2.936 2.936 0 0 1 1.408 1.81 2.882 2.882 0 0 1 -.308 2.232l-1 1.685a3.023 3.023 0 0 1 -2.601 1.463zm-.5-2.131a1.028 1.028 0 0 0 1.384-.351l1-1.684a.9.9 0 0 0 .1-.694.951.951 0 0 0 -.46-.581 1.023 1.023 0 0 0 -1.381.35l-1 1.685a.9.9 0 0 0 -.1.694.95.95 0 0 0 .458.581z"/><path d="m44.992 49.574a3.023 3.023 0 0 1 -1.482-.386 2.936 2.936 0 0 1 -1.41-1.808 2.882 2.882 0 0 1 .308-2.232l1-1.685a3.04 3.04 0 0 1 4.082-1.074 2.93 2.93 0 0 1 1.41 1.811 2.881 2.881 0 0 1 -.31 2.231l-1 1.684a3.02 3.02 0 0 1 -2.598 1.459zm1.008-5.574a1.008 1.008 0 0 0 -.872.485l-1 1.684a.9.9 0 0 0 -.1.694.951.951 0 0 0 .46.581 1.026 1.026 0 0 0 1.381-.35l1-1.685a.9.9 0 0 0 .1-.694.953.953 0 0 0 -.459-.582 1.045 1.045 0 0 0 -.51-.133z"/><path d="m26.991 64a3.016 3.016 0 0 1 -1.48-.387 2.932 2.932 0 0 1 -1.411-1.813 2.881 2.881 0 0 1 .31-2.231l1-1.684a3.039 3.039 0 0 1 4.082-1.075 2.936 2.936 0 0 1 1.408 1.81 2.882 2.882 0 0 1 -.308 2.232l-1 1.685a3.023 3.023 0 0 1 -2.601 1.463zm-.5-2.131a1.029 1.029 0 0 0 1.384-.351l1-1.684a.9.9 0 0 0 .1-.694.951.951 0 0 0 -.46-.581 1.023 1.023 0 0 0 -1.381.35l-1 1.685a.9.9 0 0 0 -.1.694.95.95 0 0 0 .458.581z"/><path d="m47.991 64a3.016 3.016 0 0 1 -1.48-.387 2.932 2.932 0 0 1 -1.411-1.813 2.881 2.881 0 0 1 .31-2.231l1-1.684a3.038 3.038 0 0 1 4.082-1.075 2.936 2.936 0 0 1 1.408 1.81 2.882 2.882 0 0 1 -.308 2.232l-1 1.685a3.023 3.023 0 0 1 -2.601 1.463zm-.5-2.131a1.029 1.029 0 0 0 1.384-.351l1-1.684a.9.9 0 0 0 .1-.694.951.951 0 0 0 -.46-.581 1.023 1.023 0 0 0 -1.381.35l-1 1.685a.9.9 0 0 0 -.1.694.95.95 0 0 0 .458.581z"/><path d="m52.992 55.574a3.023 3.023 0 0 1 -1.482-.386 2.936 2.936 0 0 1 -1.41-1.808 2.882 2.882 0 0 1 .308-2.232l1-1.685a3.039 3.039 0 0 1 4.082-1.074 2.93 2.93 0 0 1 1.41 1.811 2.881 2.881 0 0 1 -.31 2.231l-1 1.684a3.02 3.02 0 0 1 -2.598 1.459zm1.008-5.574a1.008 1.008 0 0 0 -.872.485l-1 1.684a.9.9 0 0 0 -.1.694.951.951 0 0 0 .46.581 1.025 1.025 0 0 0 1.381-.35l1-1.685a.9.9 0 0 0 .1-.694.953.953 0 0 0 -.459-.582 1.045 1.045 0 0 0 -.51-.133z"/></g></svg>