<svg height="512" viewBox="0 0 64 64" width="512" xmlns="http://www.w3.org/2000/svg"><g id="_11-Partly_Cloudy" data-name="11-Partly Cloudy"><path d="m19 36a12 12 0 1 1 12-12h-2a10 10 0 1 0 -10 10z"/><path d="m18 6h2v4h-2z"/><path d="m1 23h4v2h-4z"/><path d="m6.687 10.686h2v4h-2z" transform="matrix(.707 -.707 .707 .707 -6.719 9.15)"/><path d="m5.687 34.314h4v2h-4z" transform="matrix(.707 -.707 .707 .707 -22.719 15.778)"/><path d="m28.314 11.686h4v2h-4z" transform="matrix(.707 -.707 .707 .707 -.092 25.151)"/><path d="m24.837 35.366-1.861-.733a18 18 0 0 1 .994-2.118l1.75.97a15.8 15.8 0 0 0 -.883 1.881z"/><path d="" fill="none"/><path d="m51.393 59h-25.893c-7.822 0-13.5-4.626-13.5-11a11 11 0 0 1 22 0h-2a9 9 0 0 0 -18 0c0 5.3 4.729 9 11.5 9h25.893a10.553 10.553 0 1 0 .089-21.106 1 1 0 0 1 -.886-.553 15 15 0 0 0 -13.489-8.341 12.423 12.423 0 0 0 -10.152 4.62l-1.568-1.241a14.354 14.354 0 0 1 11.72-5.379 16.974 16.974 0 0 1 15 8.914 12.552 12.552 0 0 1 -.714 25.086z"/></g></svg>