<?xml version="1.0"?>
<svg xmlns="http://www.w3.org/2000/svg" viewBox="0 0 64 64" width="512" height="512"><g id="_12-Cloudy" data-name="12-Cloudy"><rect x="17" y="42" width="2" height="2"/><path d="M15,44C6.589,44,0,38.729,0,32A12.053,12.053,0,0,1,9.61,20.252,19.11,19.11,0,0,1,28,6,18.887,18.887,0,0,1,44.728,16.024a14,14,0,0,1,12.6,18.284l-1.9-.616A12.007,12.007,0,0,0,44.1,18.005a1,1,0,0,1-.887-.554A16.907,16.907,0,0,0,28,8,17.09,17.09,0,0,0,11.406,21.339a1,1,0,0,1-.835.776A10.037,10.037,0,0,0,2,32c0,5.607,5.71,10,13,10Z"/><path d="M53,58H29a9,9,0,1,1,1.311-17.9l-.29,1.98A7,7,0,1,0,29,56H53a9,9,0,0,0,0-18c-.125,0-.248.009-.371.018l-.17.01a.992.992,0,0,1-.925-.5,10.979,10.979,0,0,0-16.865-2.72l-1.338-1.488A12.979,12.979,0,0,1,52.944,36H53a11,11,0,0,1,0,22Z"/><path d="M32.013,38.416l-1.819-.832a12.989,12.989,0,0,1,1.26-2.168l1.623,1.168A11.011,11.011,0,0,0,32.013,38.416Z"/><path d="M38,49H36a7,7,0,0,0-14,0H20a9,9,0,0,1,18,0Z"/></g></svg>
