<svg height="512" viewBox="0 0 64 64" width="512" xmlns="http://www.w3.org/2000/svg"><g id="_13-Scattered_T-Storms" data-name="13-Scattered T-Storms"><path d="m42.102 51.31h10.486v2h-10.486z" transform="matrix(.447 -.894 .894 .447 -20.616 71.263)"/><path d="m51.412 50.689h10.486v2h-10.486z" transform="matrix(.447 -.894 .894 .447 -14.914 79.247)"/><path d="m7.102 51.31h10.486v2h-10.486z" transform="matrix(.447 -.894 .894 .447 -39.964 39.958)"/><path d="m16.412 50.689h10.486v2h-10.486z" transform="matrix(.447 -.894 .894 .447 -34.262 47.942)"/><path d="m30 64a1 1 0 0 1 -.949-1.316l2.562-7.684h-3.613a1 1 0 0 1 -.74-1.673l10-11a1 1 0 0 1 1.677 1.025l-2.494 6.648h3.557a1 1 0 0 1 .768 1.641l-10 12a1 1 0 0 1 -.768.359zm.261-11h2.739a1 1 0 0 1 .949 1.316l-1.324 3.972 5.24-6.288h-2.865a1 1 0 0 1 -.937-1.352l1.17-3.118z"/><path d="m24.837 17.365-1.861-.731a17.958 17.958 0 0 1 .993-2.118l1.75.968a15.913 15.913 0 0 0 -.882 1.881z"/><path d="m51.393 41h-25.893c-4.375 0-8.151-1.4-10.635-3.938a9.911 9.911 0 0 1 -2.865-7.308 11 11 0 0 1 22 .246h-2a9 9 0 0 0 -18-.2 7.958 7.958 0 0 0 2.292 5.866 12.852 12.852 0 0 0 9.208 3.334h25.893a10.553 10.553 0 1 0 .089-21.106 1 1 0 0 1 -.886-.553 15 15 0 0 0 -13.489-8.341 12.392 12.392 0 0 0 -10.307 4.826l-1.6-1.209a14.322 14.322 0 0 1 11.907-5.617 16.978 16.978 0 0 1 15 8.914 12.552 12.552 0 0 1 -.714 25.086z"/><path d="m1 15h4v2h-4z"/><path d="m9.714 23.777a10 10 0 1 1 14.063-14.063l-1.554 1.258a8 8 0 1 0 -11.251 11.251z"/><path d="m15 1h2v4h-2z"/><path d="m23.193 5.808h4v2h-4z" transform="matrix(.707 -.707 .707 .707 2.565 19.808)"/><path d="m4.808 24.192h4v2h-4z" transform="matrix(.707 -.707 .707 .707 -15.82 12.192)"/><path d="m5.808 4.808h2v4h-2z" transform="matrix(.707 -.707 .707 .707 -2.82 6.808)"/></g></svg>