<svg height="512" viewBox="0 0 64 64" width="512" xmlns="http://www.w3.org/2000/svg"><g id="_14-Isolated_T-Storms" data-name="14-Isolated T-Storms"><path d="m24.837 22.365-1.861-.731a17.958 17.958 0 0 1 .993-2.118l1.75.968a15.913 15.913 0 0 0 -.882 1.881z"/><path d="m51.393 46h-25.893c-4.375 0-8.151-1.4-10.635-3.938a9.916 9.916 0 0 1 -2.865-7.309 11 11 0 0 1 22 .247h-2a9 9 0 0 0 -18-.2 7.958 7.958 0 0 0 2.292 5.866 12.853 12.853 0 0 0 9.208 3.334h25.893a10.553 10.553 0 1 0 .089-21.106 1 1 0 0 1 -.886-.553 15 15 0 0 0 -13.489-8.341 12.392 12.392 0 0 0 -10.307 4.826l-1.6-1.209a14.322 14.322 0 0 1 11.907-5.617 16.978 16.978 0 0 1 15 8.914 12.552 12.552 0 0 1 -.714 25.086z"/><path d="m1 15h4v2h-4z"/><path d="m15 1h2v4h-2z"/><path d="m23.193 5.808h4v2h-4z" transform="matrix(.707 -.707 .707 .707 2.565 19.808)"/><path d="m4.808 24.192h4v2h-4z" transform="matrix(.707 -.707 .707 .707 -15.82 12.192)"/><path d="m45.71 58a2.674 2.674 0 0 1 -1.358-.372 2.761 2.761 0 0 1 -.992-3.728l2.572-4.52a2.7 2.7 0 0 1 3.716-1 2.761 2.761 0 0 1 .992 3.72l-2.572 4.52a2.713 2.713 0 0 1 -2.358 1.38zm2.577-8a.734.734 0 0 0 -.18.023.716.716 0 0 0 -.437.341l-2.57 4.52a.753.753 0 0 0 .264 1.02.7.7 0 0 0 .53.073.716.716 0 0 0 .437-.341l2.571-4.52a.753.753 0 0 0 -.264-1.02.689.689 0 0 0 -.351-.096z"/><path d="m25.71 58a2.674 2.674 0 0 1 -1.358-.372 2.761 2.761 0 0 1 -.992-3.728l2.572-4.52a2.7 2.7 0 0 1 3.716-1 2.761 2.761 0 0 1 .992 3.72l-2.572 4.52a2.713 2.713 0 0 1 -2.358 1.38zm2.577-8a.734.734 0 0 0 -.18.023.716.716 0 0 0 -.437.341l-2.57 4.52a.753.753 0 0 0 .264 1.02.7.7 0 0 0 .53.073.716.716 0 0 0 .437-.341l2.571-4.52a.753.753 0 0 0 -.264-1.02.689.689 0 0 0 -.351-.096z"/><path d="m31.692 64a2.8 2.8 0 0 1 -1.307-.324 2.624 2.624 0 0 1 -1.3-1.608 2.479 2.479 0 0 1 .284-1.961l6.611-10.83a2.776 2.776 0 0 1 3.635-.952 2.623 2.623 0 0 1 1.3 1.607 2.479 2.479 0 0 1 -.284 1.961l-6.611 10.83a2.73 2.73 0 0 1 -2.328 1.277zm6.615-14a.718.718 0 0 0 -.618.321l-6.612 10.829a.49.49 0 0 0 -.059.394.6.6 0 0 0 .307.366.783.783 0 0 0 .986-.23l6.612-10.83a.49.49 0 0 0 .059-.394.6.6 0 0 0 -.307-.366.777.777 0 0 0 -.368-.09z"/><path d="m14.89 25.939a10 10 0 1 1 11.049-11.049l-1.988.22a8 8 0 1 0 -8.841 8.841z"/><path d="m5.808 4.808h2v4h-2z" transform="matrix(.707 -.707 .707 .707 -2.82 6.808)"/></g></svg>