<svg height="512" viewBox="0 0 64 64" width="512" xmlns="http://www.w3.org/2000/svg"><g id="_15-Sun" data-name="15-Sun"><path d="m50.788 29.149a19.033 19.033 0 0 0 -.387-1.9l1.938-.5a20.994 20.994 0 0 1 .426 2.1z"/><path d="m11.961 38.3a21.006 21.006 0 0 1 39.716-13.65l-1.873.7a19.006 19.006 0 0 0 -35.934 12.35z"/><path d="m32 53a21.007 21.007 0 0 1 -19.252-12.6l1.833-.8a19 19 0 0 0 36.419-7.6q0-.478-.023-.951l2-.1c.016.347.025.7.025 1.049a21.024 21.024 0 0 1 -21.002 21.002z"/><path d="m31 1h2v8h-2z"/><path d="m31 55h2v8h-2z"/><path d="m55 31h8v2h-8z"/><path d="m1 31h8v2h-8z"/><path d="m50.092 47.092h2v7.999h-2z" transform="matrix(.707 -.707 .707 .707 -21.163 51.095)"/><path d="m11.908 8.908h2v8h-2z" transform="matrix(.707 -.707 .707 .707 -5.347 12.908)"/><path d="m8.908 50.092h7.999v2h-7.999z" transform="matrix(.707 -.707 .707 .707 -32.347 24.092)"/><path d="m47.092 11.908h8v2h-8z" transform="matrix(.707 -.707 .707 .707 5.837 39.908)"/></g></svg>