<svg height="512" viewBox="0 0 64 64" width="512" xmlns="http://www.w3.org/2000/svg"><g id="_16--fair_weather" data-name="16--fair weather"><g id="_16-fair_weather" data-name="16-fair weather"><path d="m32 53a21 21 0 1 1 17.541-32.551l-1.67 1.1a19 19 0 1 0 -1.432 22.8l1.52 1.3a20.983 20.983 0 0 1 -15.959 7.351z"/><path d="m49.541 43.55-1.67-1.1a19.271 19.271 0 0 0 1.1-1.9l1.785.9a21.115 21.115 0 0 1 -1.215 2.1z"/><path d="m31 1h2v8h-2z"/><path d="m31 55h2v8h-2z"/><path d="m1 31h8v2h-8z"/><path d="m50.092 47.092h2v7.999h-2z" transform="matrix(.707 -.707 .707 .707 -21.163 51.092)"/><path d="m11.908 8.908h2v7.999h-2z" transform="matrix(.707 -.707 .707 .707 -5.347 12.907)"/><path d="m47.092 11.908h7.999v2h-7.999z" transform="matrix(.707 -.707 .707 .707 5.837 39.908)"/><path d="m58 39h-12c-3.421 0-6-2.364-6-5.5a5.511 5.511 0 0 1 4.387-5.365 7.5 7.5 0 0 1 13.745-1.135 6 6 0 0 1 -.132 12zm-6.5-14a5.469 5.469 0 0 0 -5.353 4.258 1 1 0 0 1 -.9.773 3.5 3.5 0 0 0 -3.247 3.469c0 2.028 1.683 3.5 4 3.5h12a4 4 0 0 0 0-8 1.354 1.354 0 0 0 -.181.019l-.205.025a.992.992 0 0 1 -1.022-.618 5.481 5.481 0 0 0 -5.092-3.426z"/><path d="m51 33.5h-2a3.5 3.5 0 0 0 -3.5-3.5v-2a5.506 5.506 0 0 1 5.5 5.5z"/><path d="m15 60h-8a4 4 0 0 1 -.92-7.894 5 5 0 0 1 9.84 0 4 4 0 0 1 -.92 7.894zm-4-10a3 3 0 0 0 -3 3 1 1 0 0 1 -1 1 2 2 0 0 0 0 4h8a2 2 0 0 0 0-4 1 1 0 0 1 -1-1 3 3 0 0 0 -3-3z"/></g></g></svg>