<?xml version="1.0"?>
<svg xmlns="http://www.w3.org/2000/svg" viewBox="0 0 64 64" width="512" height="512"><g id="_17-fair_weather" data-name="17-fair weather"><path d="M43.067,55.93l-.134-2c.643-.043,1.294-.109,1.933-.2l.268,1.983C44.45,55.812,43.755,55.883,43.067,55.93Z"/><path d="M47.2,55.373l-.4-1.961C52.922,52.171,58.149,49.08,61.155,45H60A27.03,27.03,0,0,1,33,18,27.061,27.061,0,0,1,36.985,4.27,25.086,25.086,0,0,0,16.294,32.848l-1.977.3A27.1,27.1,0,0,1,38.913,2a1,1,0,0,1,.905,1.57A25.538,25.538,0,0,0,35,18,25.028,25.028,0,0,0,60,43h3a1,1,0,0,1,.868,1.5C60.79,49.883,54.714,53.848,47.2,55.373Z"/><path d="M32,62H9A9,9,0,0,1,9,44c.023,0,.142.005.165.007l0,2L9.024,46h0A7,7,0,1,0,9,60H32a7.995,7.995,0,0,0,.274-15.985,1,1,0,0,1-.909-.667,10.981,10.981,0,0,0-18.614-3.613l-1.5-1.32a12.981,12.981,0,0,1,21.766,3.646A10,10,0,0,1,32,62Z"/><path d="M10.64,43.333l-1.886-.666a13.042,13.042,0,0,1,1-2.167l1.732,1A10.977,10.977,0,0,0,10.64,43.333Z"/><path d="M18,53H16a7.009,7.009,0,0,0-7-7V44A9.01,9.01,0,0,1,18,53Z"/><path d="M58,34H46c-3.421,0-6-2.364-6-5.5a5.511,5.511,0,0,1,4.387-5.365A7.5,7.5,0,0,1,58.132,22,6,6,0,0,1,58,34ZM51.5,20a5.469,5.469,0,0,0-5.353,4.258,1,1,0,0,1-.9.773A3.5,3.5,0,0,0,42,28.5c0,2.028,1.683,3.5,4,3.5H58a4,4,0,0,0,0-8,1.354,1.354,0,0,0-.181.019l-.205.025a.989.989,0,0,1-1.022-.618A5.481,5.481,0,0,0,51.5,20Z"/><path d="M51,28.5H49A3.5,3.5,0,0,0,45.5,25V23A5.506,5.506,0,0,1,51,28.5Z"/></g></svg>
