<?xml version="1.0"?>
<svg xmlns="http://www.w3.org/2000/svg" viewBox="0 0 64 64" width="512" height="512"><g id="_18-Storms" data-name="18-Storms"><path d="M32,57H29V55h3a7.995,7.995,0,0,0,.274-15.985,1,1,0,0,1-.909-.667,10.981,10.981,0,0,0-18.614-3.613l-1.5-1.32a12.981,12.981,0,0,1,21.766,3.646A10,10,0,0,1,32,57Z"/><path d="M10.64,38.333l-1.886-.666a13.042,13.042,0,0,1,1-2.167l1.732,1A10.977,10.977,0,0,0,10.64,38.333Z"/><path d="M13,57H9A9,9,0,0,1,9,39c.023,0,.142.005.165.007l0,2L9.024,41h0A7,7,0,1,0,9,55h4Z"/><path d="M18,48H16a7.009,7.009,0,0,0-7-7V39A9.01,9.01,0,0,1,18,48Z"/><path d="M18,64a1,1,0,0,1-.947-1.316L19.612,55H16a1,1,0,0,1-.74-1.673l10-11a1,1,0,0,1,1.677,1.025L24.443,50H28a1,1,0,0,1,.769,1.641l-10,12A1.006,1.006,0,0,1,18,64Zm.262-11H21a1,1,0,0,1,.948,1.316l-1.323,3.972L25.865,52H23a1,1,0,0,1-.937-1.352l1.17-3.118Z"/><path d="M42.034,53.982l-.068-2C50.007,51.71,57.32,48.239,61.159,43H60A27.03,27.03,0,0,1,33,16,27.061,27.061,0,0,1,36.985,2.27,25.355,25.355,0,0,0,16,27H14A27.368,27.368,0,0,1,38.913,0a.983.983,0,0,1,.953.5,1,1,0,0,1-.048,1.074A25.538,25.538,0,0,0,35,16,25.028,25.028,0,0,0,60,41h3a1,1,0,0,1,.868,1.5C60.065,49.151,51.5,53.66,42.034,53.982Z"/></g></svg>
