<?xml version="1.0"?>
<svg xmlns="http://www.w3.org/2000/svg" viewBox="0 0 64 64" width="512" height="512"><g id="_19-Rain" data-name="19-Rain"><path d="M25.71,64a2.674,2.674,0,0,1-1.358-.372A2.761,2.761,0,0,1,23.36,59.9l2.572-4.52a2.7,2.7,0,0,1,3.716-1A2.761,2.761,0,0,1,30.64,58.1l-2.572,4.52A2.713,2.713,0,0,1,25.71,64Zm2.577-8a.734.734,0,0,0-.18.023.716.716,0,0,0-.437.341L25.1,60.884a.753.753,0,0,0,.264,1.02.7.7,0,0,0,.53.073.716.716,0,0,0,.437-.341l2.571-4.52a.753.753,0,0,0-.264-1.02A.689.689,0,0,0,28.287,56Z"/><path d="M19.71,62a2.674,2.674,0,0,1-1.358-.372A2.761,2.761,0,0,1,17.36,57.9l2.572-4.52a2.7,2.7,0,0,1,3.716-1A2.761,2.761,0,0,1,24.64,56.1l-2.572,4.52A2.713,2.713,0,0,1,19.71,62Zm2.577-8a.734.734,0,0,0-.18.023.716.716,0,0,0-.437.341L19.1,58.884a.753.753,0,0,0,.264,1.02.7.7,0,0,0,.53.073.716.716,0,0,0,.437-.341l2.571-4.52a.753.753,0,0,0-.264-1.02A.689.689,0,0,0,22.287,54Z"/><path d="M11.71,64a2.674,2.674,0,0,1-1.358-.372A2.761,2.761,0,0,1,9.36,59.9l2.572-4.52a2.7,2.7,0,0,1,3.716-1A2.761,2.761,0,0,1,16.64,58.1l-2.572,4.52A2.713,2.713,0,0,1,11.71,64Zm2.577-8a.734.734,0,0,0-.18.023.716.716,0,0,0-.437.341L11.1,60.884a.753.753,0,0,0,.264,1.02.7.7,0,0,0,.53.073.716.716,0,0,0,.437-.341l2.571-4.52a.753.753,0,0,0-.264-1.02A.689.689,0,0,0,14.287,56Z"/><path d="M42.035,53.982l-.07-2c.644-.023,1.29-.066,1.934-.131l.2,1.99C43.421,53.911,42.727,53.958,42.035,53.982Z"/><path d="M46.166,53.564l-.332-1.972C52.4,50.486,57.985,47.326,61.158,43H60A27.03,27.03,0,0,1,33,16,27.068,27.068,0,0,1,36.985,2.27,25.354,25.354,0,0,0,16,27H14A27.368,27.368,0,0,1,38.913,0a.985.985,0,0,1,.953.5,1,1,0,0,1-.047,1.074A25.53,25.53,0,0,0,35,16,25.028,25.028,0,0,0,60,41h3a1,1,0,0,1,.868,1.5C60.667,48.1,54.049,52.236,46.166,53.564Z"/><path d="M32,57V55a7.995,7.995,0,0,0,.274-15.985,1,1,0,0,1-.909-.667,10.981,10.981,0,0,0-18.614-3.613l-1.5-1.32a12.98,12.98,0,0,1,21.765,3.646A10,10,0,0,1,32,57Z"/><path d="M10.64,38.333l-1.886-.666a12.933,12.933,0,0,1,1-2.168l1.73,1A11.006,11.006,0,0,0,10.64,38.333Z"/><path d="M10,57H9A9,9,0,0,1,9,39c.023,0,.143.005.166.007l0,2L9.025,41h0A7,7,0,1,0,9,55h1Z"/><path d="M18,48H16a7.008,7.008,0,0,0-7-7V39A9.01,9.01,0,0,1,18,48Z"/></g></svg>
