<?xml version="1.0"?>
<svg xmlns="http://www.w3.org/2000/svg" viewBox="0 0 64 64" width="512" height="512"><g id="_22-Moon_Phase" data-name="22-Moon Phase"><path d="M32,64A32.036,32.036,0,0,1,0,32q0-1.04.065-2.063l2,.126C2.021,30.7,2,31.35,2,32a29.968,29.968,0,1,0,.968-7.587l-1.936-.5A32,32,0,1,1,32,64Z"/><path d="M2.248,28.128.264,27.872c.089-.688.2-1.383.335-2.064l1.963.384Q2.375,27.149,2.248,28.128Z"/><path d="M57.93,30.072c-.047-.637-.118-1.286-.213-1.926l1.978-.292c.1.688.179,1.386.229,2.074Z"/><path d="M32,60a27.755,27.755,0,0,1-5.188-.487,1,1,0,0,1,0-1.966,26,26,0,0,0,0-51.094,1,1,0,0,1,0-1.966,28,28,0,0,1,32.5,21.291l-1.952.444A25.848,25.848,0,0,0,32.416,6a28.01,28.01,0,0,1,0,51.994A26.032,26.032,0,0,0,58,32h2A28.032,28.032,0,0,1,32,60Z"/></g></svg>
