<?xml version="1.0"?>
<svg xmlns="http://www.w3.org/2000/svg" viewBox="0 0 64 64" width="512" height="512"><g id="_23-Humidity" data-name="23-Humidity"><rect x="20" y="36" width="2" height="2"/><path d="M32,60A18.953,18.953,0,0,1,13.487,36.778,1,1,0,0,1,14.462,36H18v2H15.277A16.814,16.814,0,0,0,15,41a17,17,0,0,0,34,0,16.814,16.814,0,0,0-.277-3H24V36H49.538a1,1,0,0,1,.975.778A18.953,18.953,0,0,1,32,60Z"/><rect x="23.515" y="46" width="16.971" height="2" transform="translate(-23.861 36.393) rotate(-45)"/><path d="M36,55a3,3,0,1,1,3-3A3,3,0,0,1,36,55Zm0-4a1,1,0,1,0,1,1A1,1,0,0,0,36,51Z"/><path d="M28,45a3,3,0,1,1,3-3A3,3,0,0,1,28,45Zm0-4a1,1,0,1,0,1,1A1,1,0,0,0,28,41Z"/><path d="M43.816,17.505q-.587-1-1.182-1.985l1.709-1.04q.6.995,1.2,2.015Z"/><path d="M32,64A22.985,22.985,0,0,1,9.379,45.181l1.967-.362A21,21,0,0,0,53,41c0-4.532-2.934-12.373-8.05-21.512l1.746-.976C49.8,24.052,55,34.341,55,41A23.025,23.025,0,0,1,32,64Z"/><path d="M9.094,43.09C9.031,42.4,9,41.7,9,41,9,30.373,22.763,7.659,29.519,1A3.653,3.653,0,0,1,34.48,1a70.879,70.879,0,0,1,8.612,11.461l-1.69,1.07a69.9,69.9,0,0,0-8.325-11.1,1.6,1.6,0,0,0-2.155,0C24.532,8.724,11,31.017,11,41c0,.638.029,1.28.086,1.91Z"/></g></svg>
