<svg height="512" viewBox="0 0 64 64" width="512" xmlns="http://www.w3.org/2000/svg"><g id="_26-Falen_Hein" data-name="26-Falen Hein"><path d="m11 13h2v2h-2z"/><path d="m18 64a13 13 0 0 1 -7-23.962v-23.038h2v23.6a1 1 0 0 1 -.5.865 11 11 0 1 0 11 0 1 1 0 0 1 -.5-.865v-33.6a5.009 5.009 0 0 0 -5-5 5.006 5.006 0 0 0 -5 5v4h-2v-4a7.008 7.008 0 0 1 7-7 7.008 7.008 0 0 1 7 7v33.038a13 13 0 0 1 -7 23.962z"/><path d="m18 11h6v2h-6z"/><path d="m18 17h6v2h-6z"/><path d="m18 23h6v2h-6z"/><path d="m18 29h6v2h-6z"/><path d="m18 35h6v2h-6z"/><path d="m27 51h-2a7.007 7.007 0 0 0 -3.61-6.125l.97-1.75a9.011 9.011 0 0 1 4.64 7.875z"/><path d="m25.8 55.5-1.731-1a6.965 6.965 0 0 0 .716-1.749l1.936.5a8.928 8.928 0 0 1 -.921 2.249z"/><path d="m55 8a4 4 0 1 1 4-4 4 4 0 0 1 -4 4zm0-6a2 2 0 1 0 2 2 2 2 0 0 0 -2-2z"/><path d="m34 40h-4a1 1 0 0 1 -1-1v-14h2v13h2v-16a1 1 0 0 1 1-1h11v-2h-11a1 1 0 0 1 -1-1v-6a1 1 0 0 1 1-1h13v-3h-15a1 1 0 0 0 -1 1v10h-2v-10a3 3 0 0 1 3-3h16a1 1 0 0 1 1 1v5a1 1 0 0 1 -1 1h-13v4h11a1 1 0 0 1 1 1v4a1 1 0 0 1 -1 1h-11v16a1 1 0 0 1 -1 1z"/><path d="m29 21h2v2h-2z"/></g></svg>