<svg height="512" viewBox="0 0 64 64" width="512" xmlns="http://www.w3.org/2000/svg"><g id="_27-Cold" data-name="27-Cold"><path d="m11 13h2v2h-2z"/><path d="m18 64a13 13 0 0 1 -7-23.962v-23.038h2v23.6a1 1 0 0 1 -.5.865 11 11 0 1 0 11 0 1 1 0 0 1 -.5-.865v-33.6a5.009 5.009 0 0 0 -5-5 5.006 5.006 0 0 0 -5 5v4h-2v-4a7.008 7.008 0 0 1 7-7 7.008 7.008 0 0 1 7 7v33.038a13 13 0 0 1 -7 23.962z"/><path d="m49 22a4 4 0 1 1 4-4 4 4 0 0 1 -4 4zm0-6a2 2 0 1 0 2 2 2 2 0 0 0 -2-2z"/><path d="m48 9h2v6h-2z"/><path d="m48 21h2v6h-2z"/><path d="m52 17h6v2h-6z"/><path d="m40 17h6v2h-6z"/><path d="m51.536 19.535h2v4.001h-2z" transform="matrix(.707 -.707 .707 .707 .157 43.451)"/><path d="m44.465 12.464h2v4.001h-2z" transform="matrix(.707 -.707 .707 .707 3.087 36.381)"/><path d="m43.464 20.536h4.001v2h-4.001z" transform="matrix(.707 -.707 .707 .707 -1.912 38.456)"/><path d="m50.535 13.464h4.001v2h-4.001z" transform="matrix(.707 -.707 .707 .707 5.159 41.385)"/><path d="m37 38a4 4 0 1 1 4-4 4 4 0 0 1 -4 4zm0-6a2 2 0 1 0 2 2 2 2 0 0 0 -2-2z"/><path d="m36 25h2v6h-2z"/><path d="m36 37h2v6h-2z"/><path d="m40 33h6v2h-6z"/><path d="m28 33h6v2h-6z"/><path d="m39.536 35.535h2v4.001h-2z" transform="matrix(.707 -.707 .707 .707 -14.669 39.652)"/><path d="m32.465 28.464h2v4.001h-2z" transform="matrix(.707 -.707 .707 .707 -11.74 32.582)"/><path d="m31.464 36.536h4.001v2h-4.001z" transform="matrix(.707 -.707 .707 .707 -16.74 34.657)"/><path d="m38.535 29.464h4.001v2h-4.001z" transform="matrix(.707 -.707 .707 .707 -9.669 37.586)"/><path d="m17.979 60a9.245 9.245 0 0 1 -1.023-.058 9 9 0 0 1 -2.956-17v-5.942a1 1 0 0 1 1.7-.717 3.478 3.478 0 0 0 2.3.717 3.452 3.452 0 0 0 2.3-.719 1.012 1.012 0 0 1 1.088-.192 1 1 0 0 1 .612.911v5.94a9 9 0 0 1 -4.021 17.06zm-1.979-21.314v4.9a1 1 0 0 1 -.625.927 7 7 0 0 0 1.8 13.439 6.938 6.938 0 0 0 5.481-1.73 7 7 0 0 0 -2.036-11.709 1 1 0 0 1 -.62-.926v-4.9a6.526 6.526 0 0 1 -4 0z"/><path d="m18 35a4.694 4.694 0 0 1 -3.895-2.553l1.787-.9a2.723 2.723 0 0 0 2.108 1.453 2.723 2.723 0 0 0 2.108-1.453l1.787.9a4.694 4.694 0 0 1 -3.895 2.553z"/><path d="m18 30a4.694 4.694 0 0 1 -3.895-2.553l1.787-.9a2.723 2.723 0 0 0 2.108 1.453 2.723 2.723 0 0 0 2.108-1.453l1.787.9a4.694 4.694 0 0 1 -3.895 2.553z"/></g></svg>