<svg height="512" viewBox="0 0 64 64" width="512" xmlns="http://www.w3.org/2000/svg"><g id="_28-Hot" data-name="28-Hot"><path d="m58 18h4v2h-4z"/><path d="m26 18h4v2h-4z"/><path d="m58 18h4v2h-4z"/><path d="m26 18h4v2h-4z"/><path d="m43 1h2v4h-2z"/><path d="m43 1h2v4h-2z"/><path d="m31.687 5.687h2v4h-2z" transform="matrix(.707 -.707 .707 .707 4.138 25.364)"/><path d="m31.687 5.687h2v4h-2z" transform="matrix(.707 -.707 .707 .707 4.138 25.364)"/><path d="m53.314 6.687h4v2h-4z" transform="matrix(.707 -.707 .707 .707 10.766 41.364)"/><path d="m53.314 6.687h4v2h-4z" transform="matrix(.707 -.707 .707 .707 10.766 41.364)"/><path d="m55.951 20.089-1.992-.178c.026-.3.041-.6.041-.911s-.015-.611-.041-.911l1.992-.178c.032.359.049.722.049 1.089s-.017.73-.049 1.089z"/><path d="m43.5 43a2.568 2.568 0 0 1 -2.5-2.625v-9.762a11.824 11.824 0 0 1 -2-.709v4.6a2.5 2.5 0 0 1 -5 0v-8.883a11.991 11.991 0 0 1 10-18.621 12.041 12.041 0 0 1 11.548 8.728l-1.924.544a10 10 0 0 0 -19.624 2.728 9.936 9.936 0 0 0 1.818 5.737 1 1 0 0 1 .182.575v9.188a.5.5 0 0 0 1 0v-6.287a1 1 0 0 1 1.546-.838 9.894 9.894 0 0 0 3.635 1.451 1 1 0 0 1 .819.984v10.565a.513.513 0 1 0 1 0v-10.426a1 1 0 0 1 .91-1 9.948 9.948 0 0 0 2.725-.645 1 1 0 0 1 1.365.93v5.266a.5.5 0 0 0 1 0v-7.015a1 1 0 0 1 .363-.771 9.959 9.959 0 0 0 3.261-4.986l1.924.544a11.926 11.926 0 0 1 -3.548 5.672v6.556a2.5 2.5 0 0 1 -5 0v-3.888c-.331.086-.664.159-1 .215v9.548a2.568 2.568 0 0 1 -2.5 2.625z"/><path d="m43.5 53a2.5 2.5 0 0 1 -2.5-2.5v-3a2.5 2.5 0 0 1 5 0v3a2.5 2.5 0 0 1 -2.5 2.5zm0-6a.5.5 0 0 0 -.5.5v3a.5.5 0 0 0 1 0v-3a.5.5 0 0 0 -.5-.5z"/><path d="m49.5 44a2.5 2.5 0 0 1 -2.5-2.5v-1a2.5 2.5 0 0 1 5 0v1a2.5 2.5 0 0 1 -2.5 2.5zm0-4a.5.5 0 0 0 -.5.5v1a.5.5 0 0 0 1 0v-1a.5.5 0 0 0 -.5-.5z"/><path d="m11 13h2v2h-2z"/><path d="m18 64a13 13 0 0 1 -7-23.962v-23.038h2v23.6a1 1 0 0 1 -.5.865 11 11 0 1 0 11 0 1 1 0 0 1 -.5-.865v-33.6a5.009 5.009 0 0 0 -5-5 5.006 5.006 0 0 0 -5 5v4h-2v-4a7.009 7.009 0 0 1 7-7 7.009 7.009 0 0 1 7 7v33.038a13 13 0 0 1 -7 23.962z"/><path d="m17.979 60a9.257 9.257 0 0 1 -1.023-.057 9 9 0 0 1 -2.956-17v-22.943a4 4 0 0 1 8 0v22.94a9 9 0 0 1 -4.021 17.06zm.021-42a2 2 0 0 0 -2 2v23.587a1 1 0 0 1 -.625.927 7 7 0 0 0 1.806 13.439 6.93 6.93 0 0 0 5.481-1.731 7 7 0 0 0 -2.038-11.708 1 1 0 0 1 -.624-.927v-23.587a2 2 0 0 0 -2-2z"/><path d="m20.108 9.453a2.723 2.723 0 0 0 -2.108-1.453 2.723 2.723 0 0 0 -2.108 1.453l-1.787-.9a4.693 4.693 0 0 1 3.895-2.553 4.693 4.693 0 0 1 3.9 2.553z"/><path d="m20.108 14.453a2.723 2.723 0 0 0 -2.108-1.453 2.723 2.723 0 0 0 -2.108 1.453l-1.787-.9a4.693 4.693 0 0 1 3.895-2.553 4.693 4.693 0 0 1 3.9 2.553z"/></g></svg>