<svg height="512" viewBox="0 0 64 64" width="512" xmlns="http://www.w3.org/2000/svg"><g id="_29-Snowflake" data-name="29-Snowflake"><path d="m31.855 45h-.011a1 1 0 0 1 -.935-.676l-1.86-5.436-5.219 2.4a1 1 0 0 1 -1.315-1.349l2.528-5.158-5.39-1.99a1 1 0 0 1 .023-1.885l5.436-1.86-2.4-5.219a1 1 0 0 1 1.349-1.315l5.158 2.528 1.99-5.39a1 1 0 0 1 .936-.65h.011a1 1 0 0 1 .935.676l1.86 5.436 5.219-2.4a1 1 0 0 1 1.315 1.349l-2.528 5.158 5.39 1.99a1 1 0 0 1 -.023 1.885l-5.436 1.86 2.4 5.219a1 1 0 0 1 -1.349 1.315l-5.158-2.528-1.99 5.39a1 1 0 0 1 -.936.65zm-2.218-8.484a1 1 0 0 1 .946.675l1.309 3.825 1.4-3.791a1 1 0 0 1 1.379-.551l3.629 1.778-1.691-3.671a1 1 0 0 1 .584-1.364l3.825-1.309-3.791-1.4a1 1 0 0 1 -.551-1.379l1.776-3.629-3.671 1.691a1 1 0 0 1 -1.364-.584l-1.309-3.825-1.4 3.791a1 1 0 0 1 -1.379.551l-3.629-1.776 1.691 3.671a1 1 0 0 1 -.584 1.364l-3.825 1.309 3.791 1.4a1 1 0 0 1 .551 1.379l-1.776 3.629 3.671-1.691a1 1 0 0 1 .418-.093z"/><path d="m31 1h2v19h-2z"/><path d="m32 10a1 1 0 0 1 -.769-.359l-5-6 1.538-1.282 4.231 5.079 4.231-5.079 1.538 1.282-5 6a1 1 0 0 1 -.769.359z"/><path d="m32 18a1 1 0 0 1 -.769-.359l-5-6 1.538-1.282 4.231 5.079 4.231-5.079 1.538 1.282-5 6a1 1 0 0 1 -.769.359z"/><path d="m31 44h2v19h-2z"/><path d="m36.231 61.641-4.231-5.079-4.231 5.079-1.538-1.282 5-6a1.037 1.037 0 0 1 1.538 0l5 6z"/><path d="m36.231 53.641-4.231-5.079-4.231 5.079-1.538-1.282 5-6a1.037 1.037 0 0 1 1.538 0l5 6z"/><path d="m44 31h19v2h-19z"/><path d="m60.359 37.769-6-5a1 1 0 0 1 0-1.538l6-5 1.282 1.538-5.079 4.231 5.079 4.231z"/><path d="m52.359 37.769-6-5a1 1 0 0 1 0-1.538l6-5 1.282 1.538-5.079 4.231 5.079 4.231z"/><path d="m1 31h19v2h-19z"/><path d="m3.641 37.769-1.282-1.538 5.078-4.231-5.078-4.231 1.282-1.538 6 5a1 1 0 0 1 0 1.538z"/><path d="m11.641 37.769-1.282-1.538 5.078-4.231-5.078-4.231 1.282-1.538 6 5a1 1 0 0 1 0 1.538z"/><path d="m46.203 37.703h2v18.999h-2z" transform="matrix(.707 -.707 .707 .707 -19.552 47.203)"/><path d="m47.975 56.133-.707-7.779a1 1 0 0 1 1.086-1.086l7.779.707-.182 1.992-6.583-.6.6 6.583z"/><path d="m42.317 50.476-.707-7.776a1 1 0 0 1 1.09-1.09l7.779.707-.182 1.993-6.583-.6.6 6.583z"/><path d="m15.797 7.298h2v18.999h-2z" transform="matrix(.707 -.707 .707 .707 -6.958 16.797)"/><path d="m15.736 16.736c-.03 0-.06 0-.09 0l-7.779-.707.182-1.992 6.583.6-.6-6.583 1.992-.182.707 7.779a1 1 0 0 1 -1 1.09z"/><path d="m21.394 22.394a.91.91 0 0 1 -.091 0l-7.779-.707.182-1.993 6.583.6-.6-6.583 1.993-.182.708 7.771a1 1 0 0 1 -1 1.091z"/><path d="m7.298 46.203h18.999v2h-18.999z" transform="matrix(.707 -.707 .707 .707 -28.457 25.703)"/><path d="m16.025 56.133-1.992-.182.6-6.583-6.583.6-.182-1.992 7.779-.707a1 1 0 0 1 1.086 1.086z"/><path d="m21.683 50.476-1.993-.182.6-6.583-6.583.6-.182-1.993 7.775-.708a1 1 0 0 1 1.09 1.09z"/><path d="m37.703 15.797h18.999v2h-18.999z" transform="matrix(.707 -.707 .707 .707 1.948 38.297)"/><path d="m48.264 16.736a1 1 0 0 1 -1-1.09l.707-7.779 1.992.182-.6 6.583 6.583-.6.182 1.992-7.779.707c-.025.004-.055.005-.085.005z"/><path d="m42.606 22.394a1 1 0 0 1 -1-1.091l.707-7.779 1.993.182-.6 6.583 6.583-.6.182 1.993-7.771.708a.91.91 0 0 1 -.094.004z"/><path d="m32 37a1 1 0 0 1 -.942-.665l-.395-1.108-1.061.5a1 1 0 0 1 -1.333-1.327l.5-1.061-1.108-.4a1 1 0 0 1 0-1.884l1.108-.395-.5-1.061a1 1 0 0 1 1.331-1.33l1.061.5.395-1.108a1 1 0 0 1 1.884 0l.4 1.108 1.061-.5a1 1 0 0 1 1.33 1.331l-.5 1.061 1.108.395a1 1 0 0 1 0 1.884l-1.108.4.5 1.061a1 1 0 0 1 -1.331 1.33l-1.061-.5-.4 1.108a1 1 0 0 1 -.939.661zm-.766-4.152a1 1 0 0 1 .383.076 1.01 1.01 0 0 1 .383.276 1.01 1.01 0 0 1 .383-.28.946.946 0 0 1 .469-.072.981.981 0 0 1 .072-.469 1.01 1.01 0 0 1 .276-.379 1.01 1.01 0 0 1 -.28-.383.981.981 0 0 1 -.072-.469.937.937 0 0 1 -.469-.072 1.01 1.01 0 0 1 -.379-.276 1.01 1.01 0 0 1 -.383.28.959.959 0 0 1 -.469.072.981.981 0 0 1 -.072.469 1.01 1.01 0 0 1 -.276.379 1.01 1.01 0 0 1 .28.383.981.981 0 0 1 .072.469.838.838 0 0 1 .082-.004z"/></g></svg>