<svg height="512" viewBox="0 0 64 64" width="512" xmlns="http://www.w3.org/2000/svg"><g id="_30-UV_Index" data-name="30-UV Index"><path d="m26 46h2v2h-2z"/><path d="m35 64a9.137 9.137 0 0 1 -9-9.25v-4.75h2v4.75a7 7 0 1 0 14 0v-12.75h-2v13a5 5 0 0 1 -10 0v-13h-2v2h-2v-3a1 1 0 0 1 1-1h4a1 1 0 0 1 1 1v14a3 3 0 0 0 6 0v-14a1 1 0 0 1 1-1h4a1 1 0 0 1 1 1v13.75a9.137 9.137 0 0 1 -9 9.25z"/><path d="m55 64a1 1 0 0 1 -.939-.658l-8-22a1 1 0 0 1 .939-1.342h4a1 1 0 0 1 .956.706l3.044 9.894 3.044-9.894a1 1 0 0 1 .956-.706h4a1 1 0 0 1 .939 1.342l-1.454 4-1.879-.684.966-2.658h-1.834l-3.782 12.294a1 1 0 0 1 -1.912 0l-3.782-12.294h-1.834l6.572 18.074 4.879-13.416 1.879.684-5.819 16a1 1 0 0 1 -.939.658z"/><path d="m52.579 36.2-1.959-.4a18.632 18.632 0 0 0 .286-1.9l1.99.2a20.6 20.6 0 0 1 -.317 2.1z"/><path d="m23.6 51.252a21 21 0 1 1 29.4-19.252h-2a19 19 0 1 0 -26.6 17.42z"/><path d="m31 1h2v8h-2z"/><path d="m55 31h8v2h-8z"/><path d="m1 31h8v2h-8z"/><path d="m11.908 8.909h2v7.999h-2z" transform="matrix(.707 -.707 .707 .707 -5.347 12.908)"/><path d="m8.909 50.092h7.999v2h-7.999z" transform="matrix(.707 -.707 .707 .707 -32.347 24.092)"/><path d="m47.092 11.908h7.999v2h-7.999z" transform="matrix(.707 -.707 .707 .707 5.837 39.908)"/></g></svg>