<svg id="Flat" height="512" viewBox="0 0 340 340" width="512" xmlns="http://www.w3.org/2000/svg"><path d="m311.743 288.5-8.162 10.7s4.6 8.9 17.115 11.782a6.474 6.474 0 0 0 6.745-10.058 36.388 36.388 0 0 0 -15.698-12.424z" fill="#ffb664"/><path d="m260.176 246.963-10.783 14.32s15.524 29.417 51.55 36.723c3.821.775 8.991-2.463 8.991-2.463a8.907 8.907 0 0 0 .254-10.4c-8.516-12.72-24.188-29.899-50.012-38.18z" fill="#e54c5b"/><g fill="#a02a39"><path d="m268.2 284.2c1.557-5.8 6.05-17.949 17.358-24.552q-3.053-2.171-6.439-4.185c-9.785 6.918-14.562 17.051-16.788 23.837 1.776 1.63 3.728 3.279 5.869 4.9z"/><path d="m295.919 268.191a40.868 40.868 0 0 0 -16.881 22.991c2.034 1.094 4.163 2.136 6.409 3.1 1.473-5.467 5.4-15.08 15.5-20.951-1.561-1.715-3.232-3.431-5.028-5.14z"/><path d="m309.93 295.54c-6.135-.532-20.722-3-35.99-14.306-15.746-11.661-6.822-24.632-2.217-29.7a93.156 93.156 0 0 0 -11.547-4.567l-11.836 15.714s16.423 29.066 52.45 36.373a8.98 8.98 0 0 0 9.14-3.514z"/></g><path d="m219.573 245.267c-44.957-32.34-154.264-113.131-191.488-160.131-22.617-28.557-18.885-57.562-8.825-80.065a133.537 133.537 0 0 0 5.413 21.852 146 146 0 0 0 34.152 56.029c22.567 23.216 80.565 79.2 165.752 135.55a38.594 38.594 0 0 1 -5.004 26.765z" fill="#d2e8ff"/><path d="m219.573 245.267c12.194 8.772 19.657 13.982 19.657 13.982l16.991-20.615q-16.39-10.018-31.643-20.134z" fill="#96aef4"/><path d="m251.359 307.445a34.3 34.3 0 0 1 -.524-40.791c1.975-2.745 4.05-5.581 6.166-8.4 3.437-4.586 7.051-9.038 10.887-13.295 7.48-8.3 26.9-32.158 15.7-50.592a15.048 15.048 0 0 0 -10.677-6.547c-8.453-1.28-16.608 4.461-17.3 12.982a14.336 14.336 0 0 0 4.134 11.326 10.431 10.431 0 0 1 2.854 4.742c.8 3.207.78 8.348-3.958 14.56l-26.539 33.68a40.883 40.883 0 0 0 -6.88 37.646c2.69 4.791 6.929 8.386 14.3 9.563z" fill="#ffb664"/><path d="m262.985 219.505c7.831.757 11.154-3.665 12.5-6.77a.679.679 0 0 0 -1.06-.792c-6.654 5.746-14.674.181-14.674.181a10.431 10.431 0 0 1 2.854 4.742 13.342 13.342 0 0 1 .38 2.639z" fill="#e87b40"/><path d="m285.087 321.891a54.9 54.9 0 0 1 -20.267-4.116 32.78 32.78 0 0 1 -13.457-10.333c-12.357 3.182-20.692-.118-26.131-4.691a39.423 39.423 0 0 0 16.068 21.218 70.344 70.344 0 0 0 26.639 10.341 36.31 36.31 0 0 0 18.722-1.387c.138-.05.277-.1.416-.154 5.823-2.206 4.231-10.777-1.99-10.878z" fill="#e87b40"/></svg>