<svg id="Flat" height="512" viewBox="0 0 340 340" width="512" xmlns="http://www.w3.org/2000/svg"><path d="m169.77 10.033a11.158 11.158 0 0 0 -10.716 11.281v5.625a10.844 10.844 0 0 0 2.8 7.291 10.288 10.288 0 0 1 2.567 6.906v12.65h11.1v-12.65a10.289 10.289 0 0 1 2.568-6.906 10.849 10.849 0 0 0 2.8-7.291v-5.987a10.921 10.921 0 0 0 -11.119-10.919z" fill="#7f3b4a"/><path d="m169.975 81.4a88.634 88.634 0 1 0 88.633 88.634 88.634 88.634 0 0 0 -88.633-88.634zm0 158.341a69.708 69.708 0 1 1 69.707-69.707 69.707 69.707 0 0 1 -69.707 69.703z" fill="#75212c"/><path d="m164.424 109.105h11.101v50.521h-11.101z" fill="#75212c"/><path d="m174.027 48.108h-8.1a5.816 5.816 0 0 0 -5.816 5.816v29.053a31.354 31.354 0 0 1 0 12.031v12.692a5.816 5.816 0 0 0 5.816 5.816h8.1a5.816 5.816 0 0 0 5.816-5.816v-12.692a25.25 25.25 0 0 1 0-13.067v-28.017a5.816 5.816 0 0 0 -5.816-5.816z" fill="#bc5e66"/><path d="m169.77 329.967a11.158 11.158 0 0 1 -10.716-11.281v-5.625a10.844 10.844 0 0 1 2.8-7.291 10.288 10.288 0 0 0 2.567-6.906v-12.65h11.1v12.65a10.289 10.289 0 0 0 2.568 6.906 10.849 10.849 0 0 1 2.8 7.291v5.987a10.921 10.921 0 0 1 -11.119 10.919z" fill="#7f3b4a"/><path d="m164.424 180.374h11.101v50.521h-11.101z" fill="#75212c"/><path d="m174.026 291.892h-8.105a5.816 5.816 0 0 1 -5.816-5.816v-24.454c.586-6.089.815-11.833 0-16.57v-12.752a5.816 5.816 0 0 1 5.816-5.816h8.105a5.816 5.816 0 0 1 5.816 5.816v12.748a35.309 35.309 0 0 0 0 15.525v25.5a5.816 5.816 0 0 1 -5.816 5.819z" fill="#bc5e66"/><path d="m307.347 88.034a11.16 11.16 0 0 0 -15.175-3.442l-4.833 2.876a10.852 10.852 0 0 0 -4.834 6.137 10.291 10.291 0 0 1 -4.622 5.738l-10.871 6.467 5.676 9.54 10.871-6.467a10.289 10.289 0 0 1 7.248-1.325 10.846 10.846 0 0 0 7.7-1.319l5.145-3.061a10.921 10.921 0 0 0 3.695-15.144z" fill="#7f3b4a"/><path d="m195.049 126.52h11.101v50.521h-11.101z" fill="#75212c" transform="matrix(.511 .859 -.859 .511 228.475 -98.22)"/><path d="m276.8 111.16-4.144-6.965a5.816 5.816 0 0 0 -7.972-2.025l-19.064 11.342c-5.279 4.527-10.626 8.384-16.236 9.66l-10.912 6.491a5.817 5.817 0 0 0 -2.024 7.973l4.143 6.965a5.817 5.817 0 0 0 7.973 2.024l10.94-6.509c3.432-4.078 9.565-6.771 15.81-9.406l19.461-11.578a5.816 5.816 0 0 0 2.025-7.972z" fill="#bc5e66"/><path d="m32.393 251.614a11.159 11.159 0 0 1 4.216-14.977l4.834-2.876a10.849 10.849 0 0 1 7.7-1.319 10.287 10.287 0 0 0 7.247-1.325l10.871-6.467 5.676 9.54-10.871 6.467a10.291 10.291 0 0 0 -4.622 5.738 10.85 10.85 0 0 1 -4.833 6.137l-5.145 3.061a10.921 10.921 0 0 1 -15.073-3.979z" fill="#7f3b4a"/><path d="m133.8 162.959h11.101v50.521h-11.101z" fill="#75212c" transform="matrix(.511 .859 -.859 .511 229.858 -27.774)"/><path d="m67.292 235.805-4.144-6.965a5.816 5.816 0 0 1 2.025-7.972l24.532-14.595a35.007 35.007 0 0 0 10.718-6.377l10.962-6.521a5.816 5.816 0 0 1 7.972 2.024l4.144 6.965a5.817 5.817 0 0 1 -2.025 7.973l-10.943 6.51a33.8 33.8 0 0 0 -10.266 6.108l-25 14.875a5.816 5.816 0 0 1 -7.975-2.025z" fill="#bc5e66"/><path d="m32.653 88.034a11.16 11.16 0 0 1 15.175-3.442l4.833 2.876a10.852 10.852 0 0 1 4.839 6.137 10.291 10.291 0 0 0 4.622 5.738l10.871 6.467-5.676 9.54-10.871-6.467a10.289 10.289 0 0 0 -7.248-1.325 10.846 10.846 0 0 1 -7.7-1.319l-5.145-3.061a10.921 10.921 0 0 1 -3.7-15.144z" fill="#7f3b4a"/><path d="m133.85 126.52h11.101v50.521h-11.101z" fill="#75212c" transform="matrix(-.511 .859 -.859 -.511 341.116 109.583)"/><path d="m63.2 111.16 4.144-6.965a5.816 5.816 0 0 1 7.972-2.025l23.677 14.087c2.579 2.7 6.743 4.905 11.589 6.894l10.946 6.512a5.817 5.817 0 0 1 2.024 7.973l-4.143 6.965a5.817 5.817 0 0 1 -7.973 2.024l-10.98-6.533c-2.371-3.157-6.765-5.36-12.025-7.154l-23.207-13.806a5.816 5.816 0 0 1 -2.024-7.972z" fill="#bc5e66"/><path d="m307.607 251.614a11.159 11.159 0 0 0 -4.216-14.977l-4.834-2.876a10.849 10.849 0 0 0 -7.7-1.319 10.287 10.287 0 0 1 -7.247-1.325l-10.871-6.467-5.676 9.54 10.871 6.467a10.291 10.291 0 0 1 4.622 5.738 10.85 10.85 0 0 0 4.833 6.137l5.145 3.061a10.921 10.921 0 0 0 15.073-3.979z" fill="#7f3b4a"/><path d="m195.1 162.959h11.101v50.521h-11.101z" fill="#75212c" transform="matrix(-.511 .859 -.859 -.511 464.998 112.016)"/><path d="m272.708 235.805 4.144-6.965a5.816 5.816 0 0 0 -2.025-7.972l-20.712-12.323c-4.208-.959-9.376-4.766-14.578-8.672l-10.922-6.5a5.816 5.816 0 0 0 -7.972 2.024l-4.144 6.965a5.817 5.817 0 0 0 2.025 7.973l10.909 6.49c5.108 1.085 9.971 4.368 14.713 8.753l20.59 12.25a5.816 5.816 0 0 0 7.972-2.023z" fill="#bc5e66"/><g fill="#7f3b4a"><path d="m160.106 75.063v19.945a73.886 73.886 0 0 1 19.737 0v-19.945a96.676 96.676 0 0 0 -19.737 0z"/><path d="m246.528 112.973-17.143 10.2a75.594 75.594 0 0 1 10.12 16.944l17.128-10.19a95.427 95.427 0 0 0 -10.105-16.954z"/><path d="m256.666 210.063-17.129-10.19a75.63 75.63 0 0 1 -10.1 16.954l17.14 10.2a95.378 95.378 0 0 0 10.089-16.964z"/><path d="m179.843 265v-19.948a74 74 0 0 1 -19.737 0v19.948a96.676 96.676 0 0 0 19.737 0z"/><path d="m93.391 227.045 17.142-10.2a75.588 75.588 0 0 1 -10.11-16.951l-17.129 10.193a95.491 95.491 0 0 0 10.097 16.958z"/><path d="m83.327 129.9 17.128 10.19a75.566 75.566 0 0 1 10.126-16.942l-17.144-10.2a95.4 95.4 0 0 0 -10.11 16.952z"/></g><path d="m169.975 62.042a107.988 107.988 0 1 0 107.988 107.988 107.988 107.988 0 0 0 -107.988-107.988zm0 193.593a85.606 85.606 0 1 1 85.605-85.6 85.606 85.606 0 0 1 -85.605 85.6z" fill="#bc5e66"/><circle cx="169.975" cy="170.03" fill="#75212c" r="17.73"/></svg>