<svg id="Flat" height="512" viewBox="0 0 340 340" width="512" xmlns="http://www.w3.org/2000/svg"><path d="m227 118.247-125.275 7.647s-1.163 23.961 3.468 45.529a17.67 17.67 0 0 0 6.577 10.321c4.428 3.379 10.92 8.426 15.581 12.443a17.959 17.959 0 0 1 6.072 11.223l2.151 16.056a7.664 7.664 0 0 0 6.111 6.5c.95.188 2.015.386 3.184.584a2.89 2.89 0 0 0 3.369-2.849v-3.047a5.854 5.854 0 0 1 5.522-5.933 5.7 5.7 0 0 1 5.871 5.694v5.072a2.889 2.889 0 0 0 2.77 2.89c2.379.1 4.875.142 7.469.11a2.9 2.9 0 0 0 2.871-2.892v-4.941a5.855 5.855 0 0 1 5.521-5.933 5.7 5.7 0 0 1 5.872 5.694v3.835a2.894 2.894 0 0 0 3.316 2.863q2.861-.42 5.788-.993a7.681 7.681 0 0 0 6.2-7.528v-12a18.116 18.116 0 0 1 5.8-13.313 126.183 126.183 0 0 1 13.737-11.117 17.435 17.435 0 0 0 6.353-8.025s.27-3.6.4-5.41c.159-2.169 1.277-7.151 1.277-7.151.841-13.776 1.55-33.114-.005-45.329z" fill="#d9e5fc"/><path d="m101.722 125.894s-.268 5.568-.03 13.742h126.215a168.012 168.012 0 0 0 -.91-21.389z" fill="#6c7ca2"/><path d="m165.869 121.978-18.723 1.143 14.12 11.935a14.62 14.62 0 0 1 5.058 12.7c-.826 8.018.261 20.615 13.4 26.616 11.317 5.169 19.186 2.676 23.905-.5a14.43 14.43 0 0 1 14.181-1.254l7.494 3.5a17.864 17.864 0 0 0 1.208-5.228c.158-2.167.327-4.643.491-7.325z" fill="#333353"/><path d="m148.674 147.393 1.449.777a12.507 12.507 0 0 1 6.6 11.021v10.83a12.5 12.5 0 0 1 -11.5 12.467 64.01 64.01 0 0 1 -10.4.077 12.479 12.479 0 0 1 -11.323-11.446l-.314-3.859a12.547 12.547 0 0 1 1.879-7.676 40.291 40.291 0 0 1 10.467-11.38 12.5 12.5 0 0 1 13.142-.811z" fill="#6c7ca2"/><path d="m275.163 222.277s.146-.089.415-.23a11.8 11.8 0 0 1 17.135 9.046 30.76 30.76 0 0 1 .26 4.12 11.767 11.767 0 0 1 -12.056 11.665c-3.274-.078-7.181-.124-11.217-.064a83.675 83.675 0 0 0 -31.322 6.633c-13.508 5.711-109.122 43.479-121.988 47.934a35.876 35.876 0 0 0 -16.2 11.28 55.612 55.612 0 0 0 -4.886 7.088 13.083 13.083 0 0 1 -8.674 6.359c-4.124.826-9.468.748-13.793-3.185a13.487 13.487 0 0 1 -4.175-11.823c.431-3.231 1.736-7.023 5.217-9.344 0 0-15.26.857-19.45-9.687a13.152 13.152 0 0 1 4.979-15.481c5.659-3.959 15.955-7.1 32.967.25a34.257 34.257 0 0 0 23.475 1.262c3.729-1.124 89.833-31.3 112.505-44.531a47.731 47.731 0 0 0 18.645-19.384c.658-1.293 1.273-2.642 1.813-4.031a14.188 14.188 0 0 1 9.571-8.7 15.375 15.375 0 0 1 8.417.117 13.9 13.9 0 0 1 9.581 11.2 17.963 17.963 0 0 1 -1.219 9.506z" fill="#97aace"/><path d="m160.092 204.613 3.047-2.876a2.444 2.444 0 0 1 3.3-.049l3.318 2.948a2.443 2.443 0 0 0 4.048-2.174c-.806-5.234-2.686-12.858-7.063-19.438a2.487 2.487 0 0 0 -4-.2c-3.969 4.949-6.275 10.782-6.781 19.844a2.457 2.457 0 0 0 4.131 1.945z" fill="#6c7ca2"/><path d="m227 87.206s27.758-15.534 56.554.652a2.323 2.323 0 0 1 .467 3.689c-6.929 6.733-30.369 25.025-57.021-4.341z" fill="#406bd0"/><path d="m220.673 80.5 3.384-19.019a35.409 35.409 0 0 1 14-16.945 1.642 1.642 0 0 1 2.494 1.252l.768 8.455s6.182-9.49 19.924-16.3c9.527-4.719 13.728-16.472 15.408-23.238a1.637 1.637 0 0 1 3.108-.205c6.007 15 19.668 60.8-30.47 74.624l-14.3 2.806z" fill="#56aafe"/><path d="m249.135 66.84a46.927 46.927 0 0 0 -23.383 17.716l9.234 7.377c1.058-.135 2.088-.286 3.105-.443 2.66-7.045 7.6-16.265 15.951-19.6 10.488-4.2 14.791-11.637 16.545-17.389a1.6 1.6 0 0 0 -2.812-1.418 38.437 38.437 0 0 1 -18.64 13.757z" fill="#406bd0"/><path d="m249.289 89.124c-6.659-1.78-11.173-5.334-13.885-10.876a68.126 68.126 0 0 0 -11.345-16.767 47.135 47.135 0 0 0 -3.385 19.019l14.312 11.434a102.994 102.994 0 0 0 14.303-2.81z" fill="#406bd0"/><path d="m279.565 120.34a28.925 28.925 0 0 0 -19.8-18.483l-3.79-1.061a50.455 50.455 0 0 1 -29.194-22.127 94.68 94.68 0 0 0 -25.271-27.231 64.278 64.278 0 0 0 -75.128 0l-.048.035a10.8 10.8 0 0 0 -4.413 9.489l1.059 16.049-12.332-11.251a98.348 98.348 0 0 0 -9.56 12.945 50.168 50.168 0 0 1 -29.023 22.05l-3.936 1.1a28.925 28.925 0 0 0 -19.8 18.487 22.8 22.8 0 0 0 -.949 11.456h233.135a22.8 22.8 0 0 0 -.95-11.458z" fill="#333353"/><path d="m170.262 69.239-7.605 7.605-7.604-7.605-9.464 9.464 7.605 7.604-7.605 7.605 9.463 9.464 7.605-7.605 7.605 7.605 9.464-9.464-7.605-7.605 7.605-7.605z" fill="#fff"/><path d="m71.376 222.277s-.146-.089-.415-.23a11.8 11.8 0 0 0 -17.134 9.046 30.754 30.754 0 0 0 -.261 4.12 11.767 11.767 0 0 0 12.056 11.665c3.274-.078 7.182-.124 11.218-.064a83.674 83.674 0 0 1 31.321 6.633c23.778 10.053 79.411 33.192 121.989 47.934a35.879 35.879 0 0 1 16.2 11.28 55.509 55.509 0 0 1 4.886 7.088 13.083 13.083 0 0 0 8.674 6.359c4.124.826 9.468.748 13.793-3.185a13.491 13.491 0 0 0 4.178-11.827c-.432-3.231-1.737-7.023-5.218-9.344 0 0 15.26.857 19.45-9.687a13.152 13.152 0 0 0 -4.979-15.481c-5.659-3.959-15.955-7.1-32.966.25a34.26 34.26 0 0 1 -23.476 1.269c-24.957-7.525-79.054-25.016-112.5-44.531a47.718 47.718 0 0 1 -18.641-19.387 44.059 44.059 0 0 1 -1.814-4.031 14.184 14.184 0 0 0 -9.571-8.7 15.375 15.375 0 0 0 -8.417.117 13.9 13.9 0 0 0 -9.581 11.2 17.963 17.963 0 0 0 1.208 9.506z" fill="#d9e5fc"/></svg>