<svg id="Flat" height="512" viewBox="0 0 340 340" width="512" xmlns="http://www.w3.org/2000/svg"><path d="m228.501 227.951-22.615 14.654 47.136 44.057 25.215-9.527 9.246-25.321-44.581-46.64z" fill="#5b5b81"/><path d="m278.237 277.135-13.037 11.358 35.882 31.707 11.829-8.777 8.644-11.926-32.106-35.526z" fill="#333353"/><path d="m318.742 294.445c-.2 1.084-1.569 6.856-8.737 14.105s-12.924 8.679-14.006 8.893a6.5 6.5 0 0 0 2.517 12.754c3.125-.617 11.4-3.07 20.733-12.506 9.331-9.436 11.692-17.739 12.274-20.87a6.5 6.5 0 1 0 -12.781-2.375z" fill="#e87b40"/><path d="m256.486 219.385-13.586-14.211-14.4 22.777-22.615 14.654 47.136 44.057 12.945-4.891-19.354-18a15.774 15.774 0 0 1 -1.536-21.61 58.757 58.757 0 0 0 11.41-22.776z" fill="#333353"/><path d="m175.502 175.54-31.668 20.296 50.151 46.484 34.516-14.369 13.982-34.675-47.041-49.628z" fill="#5b5b81"/><path d="m209.467 235.875-20.52-21.316a14.414 14.414 0 0 1 .9-20.951 62.791 62.791 0 0 0 20.7-34.026l-15.1-15.934-19.947 31.892-31.668 20.3 50.151 46.484z" fill="#333353"/><path d="m72.934 74.111c-27.512 27.821-49.5 24.645-49.5 24.645l104.485 92.717c19.728 10.89 47.579-15.933 47.579-15.933s26.509-28.148 15.4-47.753l-93.875-103.444s3.422 21.948-24.089 49.768z" fill="#5b5b81"/><path d="m100.033 120.561-.246-.2a24.935 24.935 0 0 1 -4.5-33.886c14.8-20.505 14.97-39.846 14.041-48.575l-12.305-13.557c-7.725 41.25-32.79 65.53-73.585 74.413l26.74 23.728 77.745 68.989c13.795 7.615 31.551-3.206 40.989-10.406-12.952-12.067-43.838-40.459-68.879-60.506z" fill="#333353"/><path d="m192.161 113.492a8 8 0 0 0 -4.928 10.122c.336 1.048 6.628 21.983-17.42 46.3s-45.052 18.26-46.1 17.936a8 8 0 0 0 -5.05 15.182c1.252.423 31.019 10 62.53-21.868 31.511-31.865 21.6-61.523 21.168-62.77a8 8 0 0 0 -10.2-4.902z" fill="#ffb664"/><path d="m126.542 142.572a3.5 3.5 0 0 1 .373-5.431 3.557 3.557 0 0 1 4.463.369l4.985 4.639a1.394 1.394 0 0 0 1.894.013c.92-.856 1.819-1.755 2.677-2.677a1.392 1.392 0 0 0 -.051-1.933l-4.679-4.647a3.633 3.633 0 0 1 -.287-4.952 3.5 3.5 0 0 1 5.083-.153l3.769 3.743a1.4 1.4 0 0 0 2.245-.387 13.956 13.956 0 0 0 1.108-2.868 7.663 7.663 0 0 0 -2.132-7.238l-2.765-2.734a10.367 10.367 0 0 1 -2.953-8.566c.488-4.332-.193-11.152-6.848-17.733-12.37-12.233-24.808-8.827-38.091 4.6s-16.549 25.907-4.179 38.14c6.641 6.568 13.454 7.183 17.782 6.652a10.407 10.407 0 0 1 8.625 2.854l2.76 2.737a7.665 7.665 0 0 0 7.262 2.052 12.857 12.857 0 0 0 2.219-.827 1.4 1.4 0 0 0 .355-2.29z" fill="#fff"/><path d="m130.569 100.21a17.065 17.065 0 0 1 4.119 6.733 7.826 7.826 0 0 1 -6.013 9.887 19.02 19.02 0 0 1 -12.161-1.381 7.785 7.785 0 0 1 -3.138-11.189 22.675 22.675 0 0 1 3.7-4.439 9.605 9.605 0 0 1 13.493.389z" fill="#5b5b81"/><path d="m97.7 132.72a17.08 17.08 0 0 0 7.029 3.591 7.826 7.826 0 0 0 9.4-6.753 19.021 19.021 0 0 0 -2.308-12.019 7.784 7.784 0 0 0 -11.4-2.272 22.653 22.653 0 0 0 -4.143 4.028 9.608 9.608 0 0 0 1.422 13.425z" fill="#5b5b81"/><path d="m123.688 129.631.162-1.734a1.015 1.015 0 0 1 1.017-.922l1.845.011a1.016 1.016 0 0 0 .667-1.79 20.543 20.543 0 0 0 -7.538-4.13 1.033 1.033 0 0 0 -1.3 1.036c.118 2.634 1 5.087 3.327 8.055a1.022 1.022 0 0 0 1.82-.526z" fill="#5b5b81"/><path d="m73.519 10.627s19.712 3.934 9.314 28.066c0 0-5.971 12.76-19.242 26.18s-25.963 19.533-25.963 19.533c-24.014 10.667-28.528-8.415-28.528-8.415s-4.95 20.381 10.835 26.309c28.05 10.531 58.946-22.305 58.946-22.305s32.489-31.263 21.645-59.195c-6.102-15.717-27.007-10.173-27.007-10.173z" fill="#ffb664"/><path d="m238.439 190.954c-.007.777-.339 16.442-15.361 31.633s-30.684 15.7-31.46 15.714a7.5 7.5 0 0 0 .082 15c.9 0 22.376-.278 42.043-20.166 19.668-19.889 19.7-41.362 19.7-42.267a7.5 7.5 0 0 0 -15 .086z" fill="#ffb664"/><path d="m284.867 251.16c-.18 1.661-1.6 10.47-11.837 20.825s-19.03 11.87-20.692 12.069a7 7 0 0 0 1.665 13.9c4.446-.532 16.169-3.169 28.981-16.125 12.812-12.957 15.318-24.709 15.8-29.159a7 7 0 0 0 -13.918-1.51z" fill="#ffb664"/><g fill="#e87b40"><path d="m9.1 75.991s-4.95 20.381 10.835 26.309c28.05 10.531 58.946-22.305 58.946-22.305-14.268-.876-15.29-15.12-15.29-15.12-13.27 13.42-25.963 19.533-25.963 19.533-24.014 10.665-28.528-8.417-28.528-8.417z"/><path d="m163.218 175.921c-21.175 17.235-38.554 12.224-39.508 11.93a8 8 0 0 0 -5.05 15.182c1.124.38 25.25 8.135 52.981-13.371a17.656 17.656 0 0 1 -8.423-13.741z"/><path d="m207.519 233.851c-8.712 4.22-15.4 4.44-15.9 4.45a7.5 7.5 0 0 0 .082 15c.747 0 15.557-.2 31.781-11.51-9.158-.398-15.963-7.94-15.963-7.94z"/><path d="m263.618 279.586h-.007c-5.823 3.6-10.159 4.336-11.273 4.47a7 7 0 0 0 1.665 13.9c3.908-.468 13.443-2.566 24.4-11.869a17.879 17.879 0 0 1 -14.785-6.501z"/></g><ellipse cx="48.67" cy="50.48" fill="#7fb8fe" rx="50.785" ry="23.962" transform="matrix(.703 -.711 .711 .703 -21.446 49.592)"/><path d="m44.83 42.549a4.819 4.819 0 0 0 -8.156-4.128l-.1.1c-14 14.157-19.934 30.988-13.254 37.594a9.327 9.327 0 0 0 5.3 2.5 10.941 10.941 0 0 0 12.332-9.341z" fill="#fff"/></svg>