<svg id="Flat" height="512" viewBox="0 0 340 340" width="512" xmlns="http://www.w3.org/2000/svg"><path d="m215.731 121.639h-76.843a8.957 8.957 0 0 1 -6.764-3.011 13.615 13.615 0 0 0 -11.583-4.623 13.672 13.672 0 0 0 1.3 27.282 13.6 13.6 0 0 0 10.185-4.572 8.963 8.963 0 0 1 6.66-3.122h77.045z" fill="#96aef4"/><path d="m142.551 133.593h73.18v-11.954h-68.166z" fill="#5a75be"/><path d="m170.442 138.285s-54.686 22.451-62.273 53.715c-8.773 36.152 29.122 54.772 48.766 59.922v-26.222a30.877 30.877 0 0 1 -11.963-5.117c-14.2-10-13.964-31.14.06-41.393 5.218-3.815 13.156-8.388 25.928-14.785z" fill="#bc5e66"/><path d="m129.991 213.484a32.65 32.65 0 0 1 4.971 11.414 37.614 37.614 0 0 1 -.325 17.824 94.318 94.318 0 0 0 22.3 9.2v-26.222a30.877 30.877 0 0 1 -11.963-5.117c-14.2-10-13.964-31.14.06-41.393 5.218-3.815 13.156-8.388 25.928-14.785l-.181-9.149c-12.537 5.379-25.669 12.47-34.936 21.243-.002.001-18.845 17.457-5.854 36.985z" fill="#75212c"/><path d="m133.276 8.2h11.647a10.894 10.894 0 0 1 9.982 6.41c2.917 6.569 11.158 14.738 34.073 16.4 18.965 1.374 31.269 4.821 40.659 9.42 11.137 5.456 22.065 19.411 24.06 31.651 3.071 18.842 4.109 44.234-35.541 64.982 0 0-31.839 17.592-44.611 27.348l-1.645-27.747a414.64 414.64 0 0 0 37.831-18.912c15.973-9.029 22.309-21.561 21.479-37.887-.446-8.75-7.72-18.939-15.85-22.2-7.171-2.88-15.6-6.181-27.271-6.786.002-.005-51.975-2.69-54.813-42.679z" fill="#bc5e66"/><path d="m96.217 263.326a51.88 51.88 0 0 1 -17.317-24.126 4.4 4.4 0 0 1 1.175-4.6l3.53-3.311a2.814 2.814 0 0 0 -.267-4.329c-5.663-4.128-18.211-15.245-23.57-35.707a2.809 2.809 0 0 0 -5.115-.743c-5.388 8.808-14.091 28.365-9.241 57.608a2.824 2.824 0 0 0 3.96 2.1l3.846-1.765a4.4 4.4 0 0 1 5.88 2.252c4.114 9.477 17.335 32.692 52.15 46.535a196.17 196.17 0 0 1 23.857 11.215c9.9 5.578 22.585 13.594 33.7 23.345v-56.014s-34.271 3.194-72.588-12.46z" fill="#d2e8ff"/><path d="m168.806 81.4v194.386s-35.111 22.077-72.589-12.46a112.077 112.077 0 0 0 12.757 2.328c17.962 2.426 35.126-9.094 39.026-26.794q.16-.728.3-1.478a551.686 551.686 0 0 0 9.409-118.667 76.76 76.76 0 0 0 -14.349-42.415l-.206-.284z" fill="#96aef4"/><path d="m218.156 137.058a104.47 104.47 0 0 0 14.231-8.857c-16.873 5.941-37.175 14.736-37.175 14.736l-22.285 11.03.618 10.439c12.772-9.756 44.611-27.348 44.611-27.348z" fill="#75212c"/><path d="m192.133 31.261c-1.033-.091-2.08-.178-3.155-.256-21.123-1.529-29.773-8.589-33.282-14.83a22.531 22.531 0 0 1 -14.479 13.377c10.793 13.922 29.756 18.815 39.941 20.487.5-.47 1.055-1 1.676-1.6 4.356-4.199 7.338-11.005 9.299-17.178z" fill="#75212c"/><path d="m241.4 263.326a51.88 51.88 0 0 0 17.31-24.126 4.4 4.4 0 0 0 -1.175-4.6l-3.53-3.311a2.814 2.814 0 0 1 .267-4.329c5.663-4.128 18.211-15.245 23.57-35.707a2.809 2.809 0 0 1 5.114-.743c5.388 8.808 14.091 28.365 9.241 57.608a2.823 2.823 0 0 1 -3.959 2.1l-3.846-1.765a4.4 4.4 0 0 0 -5.88 2.252c-4.114 9.477-17.336 32.692-52.15 46.535a196.17 196.17 0 0 0 -23.857 11.215c-9.9 5.578-22.586 13.594-33.7 23.345v-56.014s34.273 3.194 72.595-12.46z" fill="#4463ac"/><path d="m168.806 81.4v194.386s35.112 22.077 72.59-12.46a112.077 112.077 0 0 1 -12.757 2.328c-17.962 2.426-35.124-9.094-39.03-26.794q-.16-.728-.3-1.478a551.686 551.686 0 0 1 -9.409-118.667 76.76 76.76 0 0 1 14.353-42.415l.205-.284z" fill="#4463ac"/><path d="m143.154 76.018.206.284a75.74 75.74 0 0 1 9.74 18.452 40.135 40.135 0 0 0 15.711 3.181v-16.535z" fill="#4463ac"/><path d="m168.806 26.109a31.551 31.551 0 0 0 0 63.1c15.18-4.125 25.5-14.917 31.551-31.551a31.551 31.551 0 0 0 -31.551-31.549zm0 43.423a11.872 11.872 0 1 1 11.872-11.872 11.871 11.871 0 0 1 -11.872 11.872z" fill="#96aef4"/><path d="m189.308 237.382s2.674 25.036 26.423 33.616c23.853 8.617 39.675 30.358 47.787 44.417a25.567 25.567 0 0 0 22.153 12.785h10.329s-13-29.906-38.065-54.915a122.012 122.012 0 0 0 -40.417-26.49c-8.903-3.615-20.04-7.735-28.21-9.413z" fill="#bc5e66"/><g fill="#75212c"><path d="m215.362 57.66c.316.127.627.283.94.43a29.246 29.246 0 0 1 14.58-17c-.415-.227-.829-.466-1.245-.67-2.019-.989-4.182-1.92-6.507-2.793a35.8 35.8 0 0 0 -13.33 17.873c1.949.715 3.794 1.45 5.562 2.16z"/><path d="m229.663 73.1a21.719 21.719 0 0 1 1.549 6.766c0 .08 0 .158.005.238a30.923 30.923 0 0 1 23.361-1.651c-.236-2.193-.547-4.323-.881-6.376-.063-.388-.161-.781-.242-1.172a37.72 37.72 0 0 0 -23.792 2.195z"/><path d="m245.716 115.115c-5.137-8.3-12.958-13.488-17.7-16.062a34.334 34.334 0 0 1 -3.539 6.06c4.353 2.352 12.2 7.486 16.41 15.669a56.341 56.341 0 0 0 4.829-5.667z"/><path d="m198.616 123.805c-2.381 1.25-4.669 2.423-6.837 3.513a31.279 31.279 0 0 1 12.17 17.821c2.269-1.319 4.39-2.538 6.267-3.608a38.452 38.452 0 0 0 -11.6-17.726z"/><path d="m131.737 160.849c-1.919 1.508-3.8 3.077-5.613 4.705 3.695 2.306 11.844 8.22 15.032 17.122a26.054 26.054 0 0 1 3.876-3.485c.552-.4 1.143-.818 1.759-1.241-3.752-8.3-10.577-14.032-15.054-17.101z"/><path d="m134.754 204.251a42.538 42.538 0 0 0 -24.348 14.2 42.122 42.122 0 0 0 3.794 6.518 35.5 35.5 0 0 1 22.653-13.986 25.11 25.11 0 0 1 -2.099-6.732z"/><path d="m210.533 268.684a29.036 29.036 0 0 1 13.558-19q-3.243-1.53-6.569-2.888l-.95-.382a35.472 35.472 0 0 0 -12.229 18.186 38.064 38.064 0 0 0 6.19 4.084z"/><path d="m268.272 284.6a33.447 33.447 0 0 0 -18.467 11.283c1.585 1.854 3.071 3.716 4.467 5.561 3.077-3.894 9.421-10 19.13-10.423q-2.437-3.184-5.13-6.421z"/><path d="m230.287 103.555c9.45-10.585 11.84-25.846 5.2-38.388-6.271-11.854-16.978-17.655-19.914-18.637a16.611 16.611 0 0 1 -10.261-9.814c-.561-1.465-1.152-2.809-1.751-4.059-4.39-.7-9.213-1.262-14.588-1.652a77.1 77.1 0 0 1 -14.259-2.255l-3.7 19.029a85.765 85.765 0 0 0 17.072 3.095c11.672.6 20.1 3.907 27.276 6.788 8.169 3.281 15.344 13.153 15.831 21.943.818 14.771-4.215 26.439-16.865 35.24l.019.009c6.512-2.263 11.853-6.721 15.94-11.299z"/></g><path d="m200.357 57.66a31.545 31.545 0 0 0 -50.7-25.072 41.653 41.653 0 0 0 8.682 19.465 11.87 11.87 0 1 1 19.53 13.263c4.422 17.591-9.067 23.895-9.067 23.895a31.551 31.551 0 0 0 31.555-31.551z" fill="#4463ac"/><path d="m166.657 18.2a7.5 7.5 0 0 1 7.648 8.658l-3.526 22.522a4.579 4.579 0 0 1 -4.979 3.848 4.568 4.568 0 0 1 -4.037-3.67 134.656 134.656 0 0 1 -2.374-23.818 7.5 7.5 0 0 1 7.268-7.54z" fill="#bc5e66"/><path d="m174.141 27.908c-1.248 7.966-2.9 18.545-3.645 23.278a4.44 4.44 0 0 0 1.533 4.088 4.45 4.45 0 0 0 6.478-.81l13.734-19.118a10.066 10.066 0 0 0 -4.641-15.337c-.107-.039-.214-.078-.323-.116a10.043 10.043 0 0 0 -13.136 8.015z" fill="#bc5e66"/><path d="m284.792 328.169a62.951 62.951 0 0 1 -13.661-14.8s-23.125-40.154-45.83-48.353c-15.841-5.72-19.776-16.9-20.709-23.148a123.56 123.56 0 0 0 -15.284-4.487s2.674 25.036 26.423 33.616c23.853 8.617 39.675 30.358 47.787 44.417a25.554 25.554 0 0 0 21.274 12.755z" fill="#75212c"/><path d="m170.779 49.38 3.526-22.518a7.5 7.5 0 0 0 -5.323-8.361c.666 1.573 1.27 4.435.335 9.166l-1.186 11.009a4.794 4.794 0 0 1 -2.225 3.66 6.211 6.211 0 0 1 -5.288.221c.389 2.861.805 5.248 1.145 7a4.579 4.579 0 0 0 9.016-.178z" fill="#75212c"/><path d="m187.8 20.094c1.2 2.06 1.945 5.651-.88 11.357l-4.277 7.974a8.125 8.125 0 0 1 -10.843 3.421c-.53 3.384-1 6.371-1.306 8.34a4.45 4.45 0 0 0 8.011 3.278l13.734-19.118a10.062 10.062 0 0 0 -4.439-15.252z" fill="#75212c"/></svg>