<svg id="Flat" height="512" viewBox="0 0 340 340" width="512" xmlns="http://www.w3.org/2000/svg"><path d="m272.732 24.582h-205.464c-61.26 8.868-33.765 169.49-33.53 269.5h272.524c.238-100.01 24.924-259.114-33.53-269.5z" fill="#bc5e66"/><path d="m104.178 138.913a6 6 0 0 0 -6 6v149.164h12v-149.164a6 6 0 0 0 -6-6z" fill="#75212c"/><path d="m241.822 294.077v-151.6a6 6 0 1 0 -12 0v151.6z" fill="#75212c"/><path d="m39.09 280.029h261.82v28.097h-261.82z" fill="#d2e8ff"/><path d="m34.7 59.7h270.6q-1.132-6.358-2.6-12h-265.406q-1.47 5.633-2.594 12z" fill="#75212c"/><path d="m30.829 185.931h278.342c.261-8.515.49-16.96.657-25.271h-279.656c.167 8.311.396 16.756.657 25.271z" fill="#75212c"/><path d="m44.284 280.029h19.029v28.097h-19.029z" fill="#96aef4"/><path d="m276.687 280.029h19.029v28.097h-19.029z" fill="#96aef4"/><path d="m31.13 90.762h277.74q-.414-6.177-.99-12h-275.76q-.579 5.819-.99 12z" fill="#75212c"/><path d="m17.538 166.347v140.928a8.143 8.143 0 0 0 8.143 8.143h10.461a8.142 8.142 0 0 0 8.142-8.143v-140.928z" fill="#d2e8ff"/><path d="m128.167 182.571h83.665a0 0 0 0 1 0 0v54.1a32.363 32.363 0 0 1 -32.363 32.363h-18.938a32.363 32.363 0 0 1 -32.363-32.363v-54.1a0 0 0 0 1 -.001 0z" fill="#75212c"/><path d="m17.538 170.94h26.746v14.991h-26.746z" fill="#96aef4"/><path d="m44.284 56.119v63.144h-26.746v-63.144s-1.928-21.9 16.084-29.739a22.312 22.312 0 0 1 8.909-1.8h24.737s-22.984 6.31-22.984 31.539z" fill="#d2e8ff"/><path d="m322.462 166.347v140.928a8.143 8.143 0 0 1 -8.143 8.143h-10.461a8.142 8.142 0 0 1 -8.142-8.143v-140.928z" fill="#d2e8ff"/><path d="m295.716 56.119v63.144h26.746v-63.144s1.928-21.9-16.084-29.739a22.312 22.312 0 0 0 -8.909-1.8h-24.737s22.984 6.31 22.984 31.539z" fill="#d2e8ff"/><path d="m17.538 100.83h26.746v21.644h-26.746z" fill="#96aef4"/><path d="m295.715 100.83h26.746v21.644h-26.746z" fill="#96aef4"/><path d="m10 143.381h320a0 0 0 0 1 0 0v19.832a7.728 7.728 0 0 1 -7.728 7.728h-306.215a6.057 6.057 0 0 1 -6.057-6.058v-21.5a0 0 0 0 1 0 0z" fill="#d2e8ff"/><path d="m16.057 115.821h306.215a7.728 7.728 0 0 1 7.728 7.728v19.832a0 0 0 0 1 0 0h-320a0 0 0 0 1 0 0v-21.5a6.057 6.057 0 0 1 6.057-6.06z" fill="#d2e8ff"/><path d="m135.326 143.38h69.349v27.559h-69.349z" fill="#96aef4"/><path d="m135.326 115.821h69.349v27.559h-69.349z" fill="#96aef4"/><path d="m148.834 143.38v-27.6a7.162 7.162 0 0 1 7.166-7.162h28a7.161 7.161 0 0 1 7.162 7.162v27.6z" fill="#d2e8ff"/><g fill="#96aef4"><circle cx="30.911" cy="294.077" r="3.5"/><circle cx="104.178" cy="294.077" r="3.5"/><circle cx="30.911" cy="226.562" r="3.5"/><circle cx="30.911" cy="157.16" r="3.5"/><circle cx="30.911" cy="129.601" r="3.5"/><circle cx="104.178" cy="157.16" r="3.5"/><circle cx="104.178" cy="129.601" r="3.5"/><circle cx="32.326" cy="84.762" r="3.5"/><circle cx="32.326" cy="54.233" r="3.5"/><circle cx="309.089" cy="294.077" r="3.5"/><circle cx="235.822" cy="294.077" r="3.5"/><circle cx="170" cy="294.077" r="3.5"/><circle cx="309.089" cy="226.562" r="3.5"/><circle cx="309.089" cy="157.16" r="3.5"/><circle cx="309.089" cy="129.601" r="3.5"/><circle cx="235.822" cy="157.16" r="3.5"/><circle cx="235.822" cy="129.601" r="3.5"/><circle cx="307.674" cy="84.762" r="3.5"/><circle cx="307.674" cy="54.233" r="3.5"/><path d="m148.834 143.38h42.332v27.559h-42.332z"/></g><path d="m170 164.771a23.359 23.359 0 0 0 -23.359 23.359v26.3h12.873v-25.491a10.486 10.486 0 1 1 20.972 0v25.486h12.873v-26.3a23.359 23.359 0 0 0 -23.359-23.354z" fill="#d2e8ff"/><rect fill="#96aef4" height="33.292" rx="7.453" width="14.905" x="162.547" y="156.16"/><path d="m146.641 197.823h12.873v16.603h-12.873z" fill="#96aef4"/><path d="m180.486 197.823h12.873v16.603h-12.873z" fill="#96aef4"/><path d="m146.641 208.341h46.718a7.763 7.763 0 0 1 7.763 7.763v16.82a24.756 24.756 0 0 1 -24.756 24.756h-12.732a24.756 24.756 0 0 1 -24.756-24.756v-16.824a7.763 7.763 0 0 1 7.763-7.759z" fill="#ffb664"/><path d="m170 239.162a4.5 4.5 0 0 1 -4.5-4.5v-6.162a4.5 4.5 0 0 1 9 0v6.167a4.5 4.5 0 0 1 -4.5 4.495z" fill="#e87b40"/><path d="m295.716 170.94h26.746v14.991h-26.746z" fill="#96aef4"/><path d="m10 138.913h320v8.934h-320z" fill="#96aef4"/></svg>