<svg id="Flat" height="512" viewBox="0 0 340 340" width="512" xmlns="http://www.w3.org/2000/svg"><path d="m269.733 249.345h14.586v18.38h-14.586z" fill="#333353"/><path d="m28.373 178.8s-22.258 2.73-17.08 22.727c4.853 18.738 26.679 9 26.679 9z" fill="#333353"/><path d="m46.109 147.141s-14.479 6.534-19.873 22.809c.568 20.009 13.107 36.523 33.888 50.631l90.259-34.758s111.842-52.7 156.971-79.607l-24.386-55.216s-134.268 45.966-236.859 96.141z" fill="#5b5b81"/><path d="m307.4 106.974-9.86-22.982a75.127 75.127 0 0 1 -12.015 7.471l-142.684 64.789a28.561 28.561 0 0 1 -17.522 1.933c-12.766-2.6-38.27-4.288-61.991 15.1-21.814 17.829-32.383 6.589-37.089-3.333-2.585 7.8-3.087 17.827 1.09 30.448 0 0 6.727 22.144 32.8 20.182l91.323-34.582s110.814-52.116 155.948-79.026z" fill="#333353"/><path d="m42.97 139.516 8.875-3.213a5.05 5.05 0 0 1 6.688 3.816c1.953 10.426 7.338 32.673 19.938 50.156l-20.038 16.84s-16.833-26.248-21.646-57.06a9.6 9.6 0 0 1 6.183-10.539z" fill="#ffb664"/><path d="m46.058 182.4a167.045 167.045 0 0 0 12.375 24.715l20.038-16.84c-12.6-17.483-17.985-39.73-19.938-50.156a5.047 5.047 0 0 0 -5.436-4.093 121.471 121.471 0 0 0 5.881 31.46 10.193 10.193 0 0 1 -5.015 12.261 28.828 28.828 0 0 1 -7.905 2.653z" fill="#e87b40"/><path d="m130.279 107.6c2.543 15.134 10.7 53.809 30.571 77.737a8.857 8.857 0 0 0 10.975 2.187l9.136-4.86a6.148 6.148 0 0 0 2.367-8.624c-7.264-11.964-23.754-41.878-28.867-74.433a6.153 6.153 0 0 0 -8.271-4.818l-10.977 4.2a7.831 7.831 0 0 0 -4.934 8.611z" fill="#ffb664"/><path d="m154.461 99.61a6.155 6.155 0 0 0 -7.118-5.128c.026 4.286.736 23.89 10.97 47.354a6.766 6.766 0 0 1 -3.12 8.74c-2.715 1.386-6.47 3.172-11.413 5.25 4.385 10.555 9.3 20.963 16.391 29.5a9.825 9.825 0 0 0 11.654 2.2l9.136-4.86a6.148 6.148 0 0 0 2.367-8.624c-7.264-11.963-23.754-41.877-28.867-74.432z" fill="#e87b40"/><circle cx="278.756" cy="228.015" fill="#333353" r="26.223"/><path d="m103.218 265.894 15.829-15.829 23.146 15.829h57.567a8.7 8.7 0 0 0 8.681-8.571c.028-8.912-1.993-22.748-13.326-31.428a38.547 38.547 0 0 1 -11.135-13.836c-6.773-13.956-26.208-41.341-67.108-41.341-52.695 0-78.79 44.141-82.245 79.709a14.062 14.062 0 0 0 13.973 15.467z" fill="#f9e8de"/><path d="m208.441 257.251c.017-8.913-2.023-22.7-13.326-31.356a38.347 38.347 0 0 1 -10.673-12.946 25.921 25.921 0 0 1 -1.976 9.252c-4.15 9.37-17.325 9.888-22.618 1.112-5.728-9.5-18.209-23.289-42.39-23.289-36.883 0-43.451 41.78-43.451 41.78h-22.06a11.868 11.868 0 0 0 -10.3 5.829 30.078 30.078 0 0 0 -4.033 12.93 13.944 13.944 0 0 0 10.986 5.331h50.443l19.593-10.839 19.614 10.839h61.51a8.7 8.7 0 0 0 8.681-8.643z" fill="#d3a1a7"/><path d="m154.583 268.163-22.859-22.859 22.859-22.86-13.088-13.087-22.859 22.859-22.86-22.859-13.087 13.087 22.859 22.86-22.859 22.859 13.087 13.088 22.86-22.859 22.859 22.859z" fill="#75212c"/><path d="m118.636 192.935a52.369 52.369 0 1 0 52.369 52.365 52.368 52.368 0 0 0 -52.369-52.365zm0 89.479a37.111 37.111 0 1 1 37.111-37.11 37.111 37.111 0 0 1 -37.111 37.11z" fill="#bc5e66"/><circle cx="252.533" cy="271.45" fill="#333353" r="26.223"/><circle cx="303.265" cy="271.45" fill="#333353" r="26.223"/><path d="m216.141 74.715c2.431 13.694 10.183 46.821 30.645 66.946a7.469 7.469 0 0 0 8.762 1.227l7.135-3.824a5.65 5.65 0 0 0 1.981-8.2c-7.7-11.081-24.744-38.386-26.095-64.871a4.423 4.423 0 0 0 -5.953-3.892l-11.68 4.283a7.479 7.479 0 0 0 -4.795 8.331z" fill="#ffb664"/><path d="m274.173 54.1 26.717 56.874a6.41 6.41 0 0 0 8.7 2.991l5.341-2.711a11.515 11.515 0 0 0 5.777-13.683c-3.483-11.259-10.678-30.976-22.991-50.047a11.467 11.467 0 0 0 -13.559-4.5l-6.38 2.325a6.409 6.409 0 0 0 -3.605 8.751z" fill="#ffb664"/><g fill="#fff"><path d="m262.252 231.123a3.106 3.106 0 0 1 -3.3-2.9 16.031 16.031 0 0 1 7.1-14.324 3.105 3.105 0 0 1 3.443 5.169 9.8 9.8 0 0 0 -4.34 8.758 3.107 3.107 0 0 1 -2.903 3.297z"/><circle cx="276.771" cy="211.802" r="3.105"/><path d="m236.451 273.558a3.105 3.105 0 0 1 -3.3-2.9 16.03 16.03 0 0 1 7.1-14.324 3.105 3.105 0 1 1 3.442 5.169 9.8 9.8 0 0 0 -4.34 8.758 3.105 3.105 0 0 1 -2.902 3.297z"/><circle cx="250.97" cy="254.238" r="3.105"/><path d="m288.855 274.375a3.106 3.106 0 0 1 -3.3-2.9 16.029 16.029 0 0 1 7.1-14.324 3.105 3.105 0 0 1 3.442 5.17 9.8 9.8 0 0 0 -4.34 8.758 3.105 3.105 0 0 1 -2.902 3.296z"/><circle cx="303.374" cy="255.055" r="3.105"/></g><path d="m240.723 104.1a7.113 7.113 0 0 1 -3.475 9.064l-7.712 3.725c4.382 8.928 10.02 17.664 17.25 24.775a7.469 7.469 0 0 0 8.762 1.227l7.135-3.824a5.65 5.65 0 0 0 1.981-8.2c-7.7-11.081-24.744-38.386-26.095-64.871a4.423 4.423 0 0 0 -5.953-3.892 113.648 113.648 0 0 0 8.107 41.996z" fill="#e87b40"/><path d="m290.46 88.771 10.43 22.2a6.41 6.41 0 0 0 8.7 2.991l5.341-2.711a11.465 11.465 0 0 0 3.53-2.789c-1.133-7.8-4.458-16.127-6.994-21.638a7.005 7.005 0 0 0 -9.294-3.443z" fill="#e87b40"/><path d="m280.706 49.216 1.326-.537a4.288 4.288 0 0 1 5.562 2.307l4.412 10.452a2.742 2.742 0 0 1 -1.623 3.654l-2.305.8a3 3 0 0 1 -3.553-1.271 57.966 57.966 0 0 1 -5.5-11.751 2.95 2.95 0 0 1 1.681-3.654z" fill="#fff"/></svg>