<svg id="Flat" height="512" viewBox="0 0 340 340" width="512" xmlns="http://www.w3.org/2000/svg"><path d="m73.5 212.63a3.5 3.5 0 0 1 -3.163-5c11.44-24.23 55.184-110.563 55.624-111.43a3.5 3.5 0 0 1 6.245 3.164c-.441.868-44.141 87.117-55.539 111.261a3.5 3.5 0 0 1 -3.167 2.005z" fill="#ffc99e"/><path d="m130.666 94.658a3.5 3.5 0 0 0 -4.7 1.54c-.247.488-14.115 27.859-28.266 56.08l2.232 11.173c15.406-30.789 32.008-63.555 32.279-64.089a3.5 3.5 0 0 0 -1.545-4.704z" fill="#e8a27c"/><path d="m270.6 16.993h39.358a122.848 122.848 0 0 0 -5.648 17.9 11.922 11.922 0 0 1 -11.61 9.289h-24.566z" fill="#333353"/><path d="m263.947 16.993h6.653a0 0 0 0 1 0 0v65.025a0 0 0 0 1 0 0h-12.357a0 0 0 0 1 0 0v-59.318a5.7 5.7 0 0 1 5.704-5.707z" fill="#bc5e66"/><path d="m258.243 61.272h12.359v20.746h-12.359z" fill="#75212c"/><path d="m273.176 132.936v45.561l-26.801-42.823z" fill="#75212c"/><path d="m251.171 138.606v63.247h22.005v-65.07z" fill="#75212c"/><path d="m303.031 131.194h-22.019l8.234 8.22h13.785a4.11 4.11 0 0 0 4.11-4.11 4.11 4.11 0 0 0 -4.11-4.11z" fill="#bc5e66"/><path d="m291.6 71.425s-20.808 22.575 1.627 67.989h-44.182l-16.145-26.143c.9-11.008 4.059-23.994 12.361-35.862a13.841 13.841 0 0 1 11.339-5.984z" fill="#5b5b81"/><path d="m245.813 113.375-9.86-16.535a79.951 79.951 0 0 0 -3.05 16.431l16.142 26.143h44.182c-8.048-16.293-10.531-29.645-10.406-40.07a59.656 59.656 0 0 1 -26.971 17.868 8.659 8.659 0 0 1 -10.037-3.837z" fill="#333353"/><path d="m205.031 10h9.818a5.552 5.552 0 0 1 5.552 5.552 5.552 5.552 0 0 1 -5.552 5.552h-27.4z" fill="#bc5e66"/><path d="m205.031 10s-16.8 22.143-3.351 63.9h-53.621s-8.89-32.043 10.634-58.271a14.113 14.113 0 0 1 11.335-5.629z" fill="#5b5b81"/><path d="m146.067 58.086a71.744 71.744 0 0 0 1.992 15.814h53.621c-4.915-15.254-5.783-27.878-4.916-37.774-9.806 11.974-26.211 24.652-50.697 21.96z" fill="#333353"/><path d="m153.562 134.252h19.726v114.656h-19.726z" fill="#bc5e66"/><path d="m153.563 179.416 19.725 10.15v-55.314h-19.725z" fill="#75212c"/><path d="m153.563 232.551h19.726v16.356h-19.726z" fill="#75212c"/><path d="m121.392 167.38c.6 22.752 13.488 40.708 13.488 40.708l-4.44 1.821c-8.871-9.98-13.506-32.727-13.506-32.727z" fill="#e8a27c"/><path d="m221.536 222.031c-26.784-14.932-34.814-49.039-34.814-49.039l-7.371-11.135s.486 44.9 40.831 65.793z" fill="#e8a27c"/><path d="m288.61 197.731-63.275-101.179-12.121-19.382a3 3 0 1 0 -5.087 3.182l10.89 17.413a8.962 8.962 0 0 1 -8.633 1.7l-8.8-19.11a3 3 0 0 0 -5.45 2.509l8.388 18.214a12.881 12.881 0 0 1 -8.454 2.357c-5.155-13.635-8.685-22.644-8.794-22.922a3 3 0 1 0 -5.585 2.193c.111.283 3.783 9.653 9.1 23.742a2.981 2.981 0 0 0 .537 1.423c2.385 6.326 5.075 13.533 7.911 21.257a2.983 2.983 0 0 0 .219.595c5.691 15.513 11.943 33.044 17.461 49.635a3.026 3.026 0 0 0 .28.844c4.34 13.084 8.209 25.549 10.962 35.928a3 3 0 0 0 5.8-1.539c-2.5-9.428-5.909-20.55-9.753-32.291a17.475 17.475 0 0 0 13.982-8.117l12.451 27.036a3 3 0 0 0 5.45-2.51l-12.168-26.421a24.577 24.577 0 0 0 19.273-3.875l20.327 32.5a3 3 0 1 0 5.087-3.182zm-82.268-66.659a16.6 16.6 0 0 0 9.386-5.665l6.949 15.089c-2.448 6.286-6.763 8.838-9.407 9.828-2.33-6.578-4.665-13.054-6.928-19.252zm15.609-6.5c3.981.759 8.452.338 12.025-2.891l10.339 16.533a17.325 17.325 0 0 1 -15.8.612zm.286-21.662 8.467 13.539c-3.8 4.457-10.006 1.769-12.225.584l-5.146-11.173a14.27 14.27 0 0 0 8.904-2.946zm-15.166 3.7 5.745 12.475c-2.681 4.777-6.409 5.988-8.572 6.264-2.083-5.663-4.08-11.024-5.926-15.943a18.506 18.506 0 0 0 8.753-2.796zm15.129 69.613c-2.229-6.678-4.57-13.49-6.94-20.252a21.47 21.47 0 0 0 10.6-8.562l9.2 19.986c-3.751 8.775-9.974 9.178-12.86 8.828zm18.394-11.169-8.727-18.95a23.17 23.17 0 0 0 15.632-2.8l12.508 20c-7.999 5.784-16.681 2.905-19.414 1.75z" fill="#ffc99e"/><path d="m83.988 213.684h12.924v34.032h-12.924z" fill="#75212c"/><path d="m112.707 213.684h12.924v34.032h-12.924z" fill="#75212c"/><path d="m242.614 124.182a64.6 64.6 0 0 1 -1.663 8.655l3.364 5.381a18.319 18.319 0 0 1 -5.867 2.005 52.1 52.1 0 0 1 -3.107 6.225 23.507 23.507 0 0 0 12.157-3.14l12.508 20c-8 5.781-16.68 2.9-19.413 1.747l-7.176-15.581a48.5 48.5 0 0 1 -4.18 5.268l5.828 12.654c-3.756 8.775-9.979 9.178-12.866 8.828-1.359-4.071-2.767-8.193-4.19-12.323a58.521 58.521 0 0 1 -5.347 2.875c1.452 4.221 2.878 8.429 4.258 12.579a3.026 3.026 0 0 0 .28.844c4.34 13.084 8.209 25.549 10.962 35.928a3 3 0 0 0 5.8-1.539c-2.5-9.428-5.909-20.55-9.753-32.291a17.475 17.475 0 0 0 13.982-8.117l12.451 27.036a3 3 0 0 0 5.45-2.51l-12.168-26.421a24.577 24.577 0 0 0 19.273-3.875l20.327 32.5a3 3 0 1 0 5.087-3.182z" fill="#e8a27c"/><path d="m50.53 205.174h78.762a6.821 6.821 0 0 1 6.821 6.821 6.821 6.821 0 0 1 -6.821 6.821h-78.762a0 0 0 0 1 0 0v-13.642a0 0 0 0 1 0 0z" fill="#bc5e66"/><path d="m317.565 195.194h-60.982a29.628 29.628 0 0 0 -23.621 11.744l-19 25.1a24.966 24.966 0 0 1 -19.9 9.9h-2.186v24.275h113.813s19.547-32.913 11.876-71.019z" fill="#bc5e66"/><path d="m213.547 232.551a24.96 24.96 0 0 1 -19.489 9.38h-2.186v24.275h113.817a112.76 112.76 0 0 0 11.842-33.655z" fill="#75212c"/><path d="m263.913 211.31a14.788 14.788 0 0 1 14.787 14.79v27.695a0 0 0 0 1 0 0h-29.576a0 0 0 0 1 0 0v-27.695a14.788 14.788 0 0 1 14.789-14.79z" fill="#75212c"/><path d="m67.524 241.931h242.431l-34.155 77.412h-169.7s-39.678-36.643-38.576-77.412z" fill="#bc5e66"/><g fill="#75212c"><path d="m288.757 289.969 3.972-9h-215.268c1.6 3.137 3.3 6.144 5.06 9z"/><path d="m104.113 319.343h173.787l3.621-8.82a13.271 13.271 0 0 1 -7.788-3.075l-10.427-9.3a4.791 4.791 0 0 0 -6.38 0l-10.427 9.3a14.606 14.606 0 0 1 -18.058 0l-10.426-9.3a4.792 4.792 0 0 0 -6.381 0l-10.423 9.3a14.6 14.6 0 0 1 -18.058 0l-10.423-9.3a4.791 4.791 0 0 0 -6.382 0l-10.42 9.3a14.6 14.6 0 0 1 -18.059 0l-10.423-9.3a4.79 4.79 0 0 0 -6.381 0l-10.419 9.3a13.657 13.657 0 0 1 -9.03 3.126 14.8 14.8 0 0 1 -6.492-1.453 135.884 135.884 0 0 0 8.989 10.222z"/><path d="m324.264 183.538h5.736s-3.039 109.842-47.453 137.148c-7.4 2.62-12.028.323-14.413-6.5 0 0 43.354-45.279 45.9-120.677a10.263 10.263 0 0 1 10.23-9.971z"/><path d="m14.039 189.565 2.943-2.944a10.464 10.464 0 0 1 13.481-1.143 114.532 114.532 0 0 1 34.626 40.345 110.113 110.113 0 0 1 8.6 23.194c4.028 15.786 18.817 62.047 54.349 64.992-9.626 10.343-23.577 10.491-39.778 5.334 0 0-17.789-10.977-26.3-58.427a108.342 108.342 0 0 0 -23.092-50.545 87.022 87.022 0 0 0 -24.829-20.806z"/></g><path d="m324.774 317.378a19.93 19.93 0 0 1 -12.648-4.222l-9.976-7.86-8.959 7.857c-6.783 5.631-18.515 5.631-25.3 0l-9.465-7.857-9.465 7.857c-6.782 5.631-18.515 5.631-25.3 0l-9.461-7.853-9.46 7.855c-6.783 5.631-18.517 5.631-25.3 0l-9.46-7.855-9.458 7.854c-6.783 5.632-18.517 5.632-25.3 0l-9.461-7.855-9.457 7.853c-6.783 5.632-18.519 5.632-25.3 0l-9.455-7.852-9.459 7.85c-6.783 5.632-18.517 5.632-25.3 0l-9.46-7.85-9.46 7.854a19.923 19.923 0 0 1 -12.65 4.224h-5.22v12.622h320v-12.606z" fill="#74a9f7"/><circle cx="116.934" cy="266.206" fill="#75212c" r="9.435"/><circle cx="186.722" cy="266.206" fill="#75212c" r="9.435"/><circle cx="256.51" cy="266.206" fill="#75212c" r="9.435"/><path d="m190.873 73.9h17.818a5.552 5.552 0 0 1 5.552 5.552 5.552 5.552 0 0 1 -5.552 5.548h-35.4z" fill="#bc5e66"/><path d="m190.873 73.9s-15.215 35.2-4.151 99.1c0 0-15.143-20.2-36.513-20.2s-33.275 24.393-33.275 24.393-11.158-51.88 13.4-94.4a17.674 17.674 0 0 1 15.285-8.893z" fill="#5b5b81"/><path d="m186.722 172.992c-4.888-28.229-4.644-50.846-2.852-67.311-10.2 12.314-32.11 31.984-69.256 34.5a157.139 157.139 0 0 0 2.32 37s11.905-24.393 33.275-24.393 36.513 20.204 36.513 20.204z" fill="#333353"/></svg>