<svg id="Flat" height="512" viewBox="0 0 340 340" width="512" xmlns="http://www.w3.org/2000/svg"><path d="m65.241 205.34 11.281-5.715s0-17.485-23.116-29.236c0 0-13.87-6.657-9.431-19.6 4.567-13.323 17.753-12.761 17.753-12.761a14.606 14.606 0 0 1 13.324 8.322s3.455-11.21-7.23-17.548a24.115 24.115 0 0 0 -14.737-3.313c-6.581.672-15.77 3.277-22.066 13.083a27.7 27.7 0 0 0 -3.973 18.346c.909 7.392 4.3 17.7 15.506 23.557a36.673 36.673 0 0 1 5.63 3.538c5.209 4.068 14.991 12.676 17.059 21.327z" fill="#ffb664"/><path d="m76.522 199.625s-.011-7.857-6.973-16.576c-11.369 3.89-27-2.576-27-2.576a36.673 36.673 0 0 1 5.63 3.538c5.209 4.07 14.991 12.678 17.059 21.329z" fill="#e87b40"/><path d="m227.323 65.556s8.193 11.731 8.193 33.332c0 0-.456 21.806 4.963 42.626 4.7 18.057 2 30.184 2 30.184h-55.751v-104.28z" fill="#ffb664"/><path d="m202.987 119.525-5.676 26.558h12.737s4.461-10.922 1.15-26.6a4.2 4.2 0 0 0 -8.211.042z" fill="#e87b40"/><path d="m61 224.332s-13.045-21.041 4.42-31.539c17.838-10.724 29.48 10.247 29.48 10.247z" fill="#e87b40"/><path d="m138.29 171.7s-13.947 47.717-21.979 68.121l-11.794-17.568-31.061 18.47s22.713 40.744 36.036 50.354 26.863-2.184 26.863-2.184 16.101-77.58 1.935-117.193z" fill="#5b5b81"/><g fill="#333353"><path d="m75.406 245.193 31.527-19.351a7.783 7.783 0 0 0 3.03-9.8 73.5 73.5 0 0 0 -6.755-12.192 7.782 7.782 0 0 0 -10.275-2.261c-7.926 4.611-22.515 13.311-32.643 20.589a7.74 7.74 0 0 0 -2.584 9.374 44.745 44.745 0 0 0 7.875 12.248 7.8 7.8 0 0 0 9.825 1.393z"/><path d="m120.241 229.093c-1.4 4.017-2.73 7.678-3.93 10.726l4.97 6.561a1.511 1.511 0 0 0 2.676-1.254z"/><path d="m137.4 209.062c-4.919 50.984-17.1 77.31-21.346 85.166 10.867 2.872 20.3-5.335 20.3-5.335s8.635-41.612 7.692-79.447c-.069-.28-.138-.563-.206-.841a3.277 3.277 0 0 0 -6.44.457z"/><path d="m231.794 289.516h-80.695l4.897 40.548h69.653z"/></g><path d="m186.728 67.418v13.759l1.636.042a349.21 349.21 0 0 0 44.526-2.487c-2.4-8.633-5.567-13.176-5.567-13.176z" fill="#e87b40"/><path d="m158.536 158.831 30.586-21.831 20.927 9.077q2.773 1.425 5.9 3.133l15.845 134.19h-82.54s.053-73.776 9.282-124.569z" fill="#fff"/><path d="m215.952 149.214q-3.127-1.712-5.9-3.133l-5.924-2.57-1.951 8.845 7.874 3.923s-1.126 55.981 3.928 127.124h17.818z" fill="#dae5fc"/><path d="m149.254 283.4h15.562c-.357-14.573-.508-32.256.29-45.364l11.115 13.335a8.487 8.487 0 0 0 5.077 2.93 8.474 8.474 0 0 1 5.324 3.243c3.994 5.281 13.8 17.319 26.091 25.856h19.081l-.267-2.255-75.779-104.361c-6.448 48.567-6.494 106.616-6.494 106.616z" fill="#dae5fc"/><path d="m210.048 146.083c-13.734-7.058-20.926-9.083-20.926-9.083l6.766 28.581s8.587-5.208 14.16-19.498z" fill="#dae5fc"/><path d="m149.254 278.323h80.024v18.485h-80.024z" fill="#333353"/><path d="m174.456 278.323h20.451v18.485h-20.451z" fill="#fca751"/><path d="m189.122 137-30.586 21.827c-.38 2.091-.742 4.224-1.092 6.385 9.468 21.34 24.911 31.8 24.911 31.8 15.6-17.448 21.584-40.748 23.756-52.912-11.158-5.452-16.989-7.1-16.989-7.1z" fill="#ffcacf"/><path d="m165.773 151.382s-13.213 88.874-9.773 178.682h-33.83s4.685-24.717 11.81-53.687c8.06-32.768 4.31-104.679 4.31-104.679s14.534-12.653 27.483-20.316z" fill="#5b5b81"/><path d="m158.536 158.831c-.136.752-.268 1.515-.4 2.277a43.79 43.79 0 0 0 17.462 9.959 58.173 58.173 0 0 0 11.9-9.1 43.573 43.573 0 0 0 8.4 3.616 29.245 29.245 0 0 0 6.553-6.2 134.973 134.973 0 0 0 3.67-15.278c-11.168-5.457-16.999-7.105-16.999-7.105z" fill="#e5838b"/><path d="m142.919 167.822s22.854 70.863 83.524 118.917l-.99-32.014s-43.369-53.494-63.622-104.074z" fill="#333353"/><path d="m206.153 104.408s-3.462-10.512-9.807-17.761a40.137 40.137 0 0 1 -3.915-5.416l-14.451-12.345h-28.726l.4 48.086 47.009 6.052s9.473-4.872 9.49-18.616z" fill="#ffcacf"/><path d="m181.219 117.849s17.922-.974 24.934-13.441c0 0 9.869 26.762-7.513 49.006a7.094 7.094 0 0 1 -10.277.876c-.382-.337-.763-.7-1.137-1.076a52.908 52.908 0 0 1 -7.836 7.828 9.373 9.373 0 0 1 -10.648.676c-8.4-5.084-23.71-17.911-21.222-42.895l18.116-3.9z" fill="#ffb664"/><path d="m196.346 86.647a40.137 40.137 0 0 1 -3.915-5.416 72.022 72.022 0 0 1 -5.893-12.344h-37.284l.094 11.35 31.152.785a9.712 9.712 0 0 1 7.266 3.551 32.67 32.67 0 0 0 8.866 7.48 26.9 26.9 0 0 1 6.847 5.879 50.263 50.263 0 0 0 -7.133-11.285z" fill="#e5838b"/><path d="m215.952 149.214s.856 46.2 3.708 73.581 5.989 107.269 5.989 107.269h20.536s4.758-71.334 1.808-107.554a546.3 546.3 0 0 1 1.772-58.1 250.244 250.244 0 0 1 -33.813-15.196z" fill="#5b5b81"/><path d="m249.765 164.405s-7.955 29.726-1.772 58.1c0 0 13.716 13.338 21.608 24.211a7.993 7.993 0 0 1 .051 9.333l-5.678 7.98 17.924 22.7s15.566-10.752 27.368-23.84a15.334 15.334 0 0 0 1.7-18.164 470.763 470.763 0 0 0 -61.201-80.32z" fill="#5b5b81"/><path d="m249.765 273.168-5.634 6.333a22.21 22.21 0 0 0 -5.515 16.881l3.225 33.682h5.335a8.351 8.351 0 0 0 8.309-7.513l1.254-12.427a6.413 6.413 0 0 1 2.234-4.25l6.892-5.843a226.378 226.378 0 0 0 -16.1-26.863z" fill="#ffcacf"/><path d="m206.267 224.494a86 86 0 0 0 -8.3-11.659 9.255 9.255 0 0 0 -11.151-2.456c-6.246 3.057-11.473 7.945-14.912 11.724a9.256 9.256 0 0 0 -.886 11.336 91.284 91.284 0 0 0 9.234 11.636 9.241 9.241 0 0 0 11.363 1.7 51.778 51.778 0 0 0 13.785-11.84 9.218 9.218 0 0 0 .867-10.441zm-11.834 7.469a38.468 38.468 0 0 1 -3.362 2.731 4.412 4.412 0 0 1 -5.949-.8 27.677 27.677 0 0 1 -2.094-2.839 4.355 4.355 0 0 1 .877-5.647q1.573-1.341 3.315-2.573a4.409 4.409 0 0 1 5.925.783 30.594 30.594 0 0 1 2 2.639 4.4 4.4 0 0 1 -.712 5.706z" fill="#fca751"/><path d="m183.148 133.16c12.239-2.359 16.691-15.509 17.06-22.053-8.121 6.149-18.989 6.742-18.989 6.742l-15.583-2.922-18.116 3.9a48.685 48.685 0 0 0 .527 13.95c5.438.045 11.959-1.114 15.706-6.121a19.84 19.84 0 0 0 19.395 6.504z" fill="#e87b40"/><path d="m180.679 109.324c-9.654-5.18-16.125.905-16.125.905s-6.566-7.019-14.979 0-15.595-1.56-15.595-1.56.886 17.6 16.1 17.6c0 0 10.325.059 14.474-6.6 4.149 6.662 14.473 6.6 14.473 6.6 15.215 0 14.68-18.5 14.68-18.5s-5.953 5.351-13.028 1.555z" fill="#ffb664"/><path d="m159.352 93.39a3.506 3.506 0 0 1 -.832-.1l-2.829-.689a3.5 3.5 0 0 1 1.657-6.8l2.829.689a3.5 3.5 0 0 1 -.825 6.9z" fill="#e8808f"/><path d="m173.445 93.5a3.5 3.5 0 0 1 -1.153-6.806l2.652-.925a3.5 3.5 0 1 1 2.306 6.609l-2.651.925a3.5 3.5 0 0 1 -1.154.197z" fill="#e8808f"/><path d="m124.875 59.754a7.322 7.322 0 0 0 3.8 9.764c3.394 1.416 8.47 2.592 16 2.659 16.509.146 74.476 2.526 103.768-4.355a7.61 7.61 0 0 0 2.31-13.835 64.745 64.745 0 0 0 -17.453-7.528 78.861 78.861 0 0 1 -32.116-17.531c-3.6-3.289-7.375-6.944-10.943-10.762a6.965 6.965 0 0 0 -10.973.97 176.925 176.925 0 0 0 -12.22 22.227 5.558 5.558 0 0 1 -9.6.995 176.613 176.613 0 0 1 -12-18.876 5.558 5.558 0 0 0 -9.776-.086 54.38 54.38 0 0 0 -6.656 19.55 58.433 58.433 0 0 1 -4.141 16.808z" fill="#69698e"/><path d="m32.085 148.12a2.1 2.1 0 0 0 2.633-1.169 20.721 20.721 0 0 1 8.032-9.607 2.515 2.515 0 0 0 .835-3.519 2.5 2.5 0 0 0 -3.4-.788c-2.607 1.607-6.929 5.222-9.392 12.447a2.1 2.1 0 0 0 1.292 2.636z" fill="#fff"/><circle cx="49.349" cy="131.285" fill="#fff" r="2.699"/><path d="m263.974 264.034 6.873 8.706 7.944-13.36a17.62 17.62 0 0 0 -2.273-21.039l-17.489-18.708a45.178 45.178 0 0 1 -11.456-22.233q-.1-.534-.2-1.065a.862.862 0 0 0 -1.71.135 113.318 113.318 0 0 0 2.329 26.044s13.716 13.338 21.608 24.211a7.993 7.993 0 0 1 .051 9.333z" fill="#333353"/><path d="m249.258 264.843c1.728-1.246 3.844-2.655 6.37-4.142a8.429 8.429 0 0 1 10.394 1.415c5.484 5.761 14.745 15.966 20.64 25.039a8.4 8.4 0 0 1 -1.193 10.572 101.508 101.508 0 0 1 -9.145 7.983 7.5 7.5 0 0 1 -11.142-2.249c-4.233-7.58-11.21-19.574-17.534-28.141a7.464 7.464 0 0 1 1.61-10.477z" fill="#333353"/><path d="m182.684 294.428h7.357a1.779 1.779 0 0 0 1.78-1.779v-6.777a1.267 1.267 0 0 0 -2.127-.929l-7.87 7.29a1.266 1.266 0 0 0 .86 2.195z" fill="#e87b40"/><path d="m206.267 224.494a86 86 0 0 0 -8.3-11.659 9.4 9.4 0 0 0 -2.585-2.152l-.189.691a10.346 10.346 0 0 0 1.663 8.883c.98 1.328 2.094 2.892 3.178 4.527a7.7 7.7 0 0 1 -1.2 9.917 41.725 41.725 0 0 1 -6.7 5.114 10.431 10.431 0 0 0 -4.779 6.419l-.434 1.766a9.148 9.148 0 0 0 4.694-1.228 51.778 51.778 0 0 0 13.785-11.837 9.218 9.218 0 0 0 .867-10.441z" fill="#e87b40"/><path d="m174.837 233.668c-1.627-1.867-3.806-5.617-.36-9.95a2.015 2.015 0 0 1 3.075-.033l.126.144a2.058 2.058 0 0 1 .169 2.46 3.785 3.785 0 0 0 .229 4.609 2.055 2.055 0 0 1 -.4 2.982l-.176.12a2.02 2.02 0 0 1 -2.663-.332z" fill="#fff"/><path d="m244.362 23.91c-.166-3.567-1.888-9-3.792-13.124a1.457 1.457 0 0 0 -2.7.135c-1.955 5.562-7.7 16.559-23.765 23.6a11.766 11.766 0 0 0 .6-5.535.856.856 0 0 0 -1.427-.559 71.815 71.815 0 0 1 -15.568 10.618c-7.468 3.864-10.648 7.764-11.866 10.921a9.708 9.708 0 0 1 -3.6 4.541 42.347 42.347 0 0 0 -6.526 5.353 2.975 2.975 0 0 0 4.194 4.207s4.4-3.421 5.329-4.03l2.539-1.821a11.328 11.328 0 0 1 6.8-2.167c3.13.06 6.315.686 9.355 1.05 14.385 1.725 21.9-1.309 27.856-4.449a1.038 1.038 0 0 0 -.129-1.9 10.329 10.329 0 0 1 -3.678-2.109c14.039-4.551 16.758-16.568 16.378-24.731z" fill="#333353"/></svg>