<svg id="Flat" height="512" viewBox="0 0 340 340" width="512" xmlns="http://www.w3.org/2000/svg"><path d="m303.755 97.726-63.777-1.91-63.778 1.91c-58.43 97.383-1.528 187.128-1.528 187.128h130.61s56.903-89.745-1.527-187.128z" fill="#bc5e66"/><g fill="#75212c"><path d="m246.4 180.093a64.334 64.334 0 0 0 -.02-21.477 16.481 16.481 0 0 0 -7.292-11.254 223.4 223.4 0 0 0 -11.059-51.188l-51.829 1.552c-58.43 97.383-1.528 187.128-1.528 187.128h46a17 17 0 0 0 -1.891-15.344c-.147-.218-.3-.433-.457-.644a250.166 250.166 0 0 0 20.506-76.041 21.148 21.148 0 0 0 7.57-12.732z"/><path d="m267.079 157.167a272.2 272.2 0 0 0 -16.426-61.031l-10.675-.32-.312.01a261.12 261.12 0 0 1 17.562 63.084c4.938 33.876 4.553 83.005-24.748 125.944h11.945c21.939-35.327 29.775-79.254 22.654-127.687z"/><path d="m280.178 284.854c25.145-34.378 33.895-77.97 25.287-126.778a254.585 254.585 0 0 0 -19.038-60.869l-11.259-.337a245.114 245.114 0 0 1 20.5 63.232c8.657 49.476-.816 91.432-28.132 124.752z"/><path d="m335.436 184.048a4.632 4.632 0 0 0 -5.914-3.674c-9.722 2.926-35.591 8.626-89.544 8.626s-79.823-5.7-89.544-8.625a4.632 4.632 0 0 0 -5.914 3.674 43.934 43.934 0 0 0 -.046 14.708 8.375 8.375 0 0 0 4.8 6.159c27.232 12.275 90.7 12.271 90.7 12.271s63.468 0 90.7-12.271a8.379 8.379 0 0 0 4.805-6.159 43.913 43.913 0 0 0 -.043-14.709z"/><path d="m312.869 100.93a22.922 22.922 0 0 0 -5.864-11.113 10.2 10.2 0 0 0 -7.394-3.166h-119.266a10.194 10.194 0 0 0 -7.393 3.166 22.916 22.916 0 0 0 -5.865 11.113 4.332 4.332 0 0 0 4.259 5.2h137.264a4.332 4.332 0 0 0 4.259-5.2z"/><path d="m313.213 273h-158.163c-4 0-6.758 4.323-5.264 8.294a42.622 42.622 0 0 0 6.858 12.327 10.639 10.639 0 0 0 8.136 3.778h138.7a10.639 10.639 0 0 0 8.136-3.778 42.6 42.6 0 0 0 6.858-12.327c1.497-3.973-1.257-8.294-5.261-8.294z"/><path d="m224.537 86.651h-44.192a10.194 10.194 0 0 0 -7.393 3.166 22.908 22.908 0 0 0 -5.865 11.113 4.332 4.332 0 0 0 4.259 5.2h59.83q-2.863-9.84-6.639-19.479z"/><path d="m242.519 188.99c-.847 0-1.68.009-2.541.009-53.953 0-79.823-5.7-89.544-8.625a4.632 4.632 0 0 0 -5.914 3.674 43.934 43.934 0 0 0 -.046 14.708 8.375 8.375 0 0 0 4.8 6.159c22.649 10.209 70.358 11.924 85.777 12.212a243.756 243.756 0 0 0 3.778-24.3 21.109 21.109 0 0 0 3.69-3.837z"/><path d="m149.786 281.292a42.622 42.622 0 0 0 6.858 12.327 10.639 10.639 0 0 0 8.136 3.778h49.213a56.391 56.391 0 0 0 6.483-12 17 17 0 0 0 .114-12.4h-65.54c-4.004.003-6.758 4.324-5.264 8.295z"/></g><path d="m197.213 55.992-77.106-2.308-77.107 2.308c-70.642 117.738-1.846 226.241-1.846 226.241h157.906s68.796-108.503-1.847-226.241z" fill="#db8767"/><path d="m72 55.124-10.736.322a395.764 395.764 0 0 0 -17.064 72.27c-5.639 40.019-7.334 97.874 13.863 154.517h10.7c-21.844-55.695-20.248-113.256-14.7-152.846a384.761 384.761 0 0 1 17.937-74.263z" fill="#aa5148"/><path d="m109.123 54.013-10.335.309a589.4 589.4 0 0 0 -12.008 74.694c-3.935 41.476-4.6 99.267 11.317 153.217h10.432c-16.329-53.145-15.71-110.833-11.813-152.068a576.871 576.871 0 0 1 12.407-76.152z" fill="#aa5148"/><path d="m182.428 282.233c21.2-56.643 19.5-114.5 13.863-154.517a395.851 395.851 0 0 0 -17.06-72.262l-10.731-.322a384.776 384.776 0 0 1 17.932 74.255c5.551 39.59 7.147 97.151-14.7 152.846z" fill="#aa5148"/><path d="m142.392 282.233c15.92-53.95 15.253-111.741 11.318-153.217a589.515 589.515 0 0 0 -12.01-74.686l-10.334-.309a577.179 577.179 0 0 1 12.405 76.144c3.9 41.233 4.52 98.923-11.814 152.068z" fill="#aa5148"/><path d="m235.516 160.356a5.6 5.6 0 0 0 -7.149-4.441c-11.753 3.535-43.031 10.427-108.26 10.427s-96.507-6.892-108.26-10.427a5.6 5.6 0 0 0 -7.15 4.441 53.113 53.113 0 0 0 -.056 17.783 10.133 10.133 0 0 0 5.808 7.447c32.924 14.84 109.658 14.835 109.658 14.835s76.734 0 109.657-14.835a10.132 10.132 0 0 0 5.809-7.447 53.092 53.092 0 0 0 -.057-17.783z" fill="#aa5148"/><path d="m208.233 59.866a27.712 27.712 0 0 0 -7.09-13.435 12.327 12.327 0 0 0 -8.943-3.831h-144.19a12.325 12.325 0 0 0 -8.939 3.828 27.7 27.7 0 0 0 -7.09 13.435 5.237 5.237 0 0 0 5.149 6.287h165.954a5.238 5.238 0 0 0 5.149-6.284z" fill="#aa5148"/><path d="m204.644 273h-169.074a6.05 6.05 0 0 0 -5.627 8.294 41.9 41.9 0 0 0 7.331 12.327 11.711 11.711 0 0 0 8.7 3.778h148.269a11.711 11.711 0 0 0 8.7-3.778 41.921 41.921 0 0 0 7.331-12.327 6.051 6.051 0 0 0 -5.63-8.294z" fill="#aa5148"/></svg>