<svg id="Flat" height="512" viewBox="0 0 340 340" width="512" xmlns="http://www.w3.org/2000/svg"><path d="m59.722 87.224 40.825 31.789a29.9 29.9 0 0 1 10.881 17.11 97.708 97.708 0 0 0 30.658 51.584s56.463 50.817 103.768 77.285a23.932 23.932 0 0 0 28.643-3.979c9.9-9.949 23.535-25.529 33.767-44.486a23.88 23.88 0 0 0 -5.694-29.521c-23.276-19.7-71.184-58.673-104.065-74.661 0 0-24.095-12.8-57.41-10.814a29.757 29.757 0 0 1 -18.244-5.031l-49.127-32.75z" fill="#91b2a8"/><path d="m330 163.364c-26.669 0-26.669 10-53.338 10s-26.67-10-53.339-10-26.665 10-53.331 10-26.666-10-53.332-10-26.666 10-53.331 10-26.664-10-53.329-10v139.03h320z" fill="#74a9f7"/><path d="m223.323 163.363c-26.665 0-26.665 10-53.331 10-24.654 0-26.53-8.541-47.744-9.831a100.027 100.027 0 0 0 19.838 24.175s56.463 50.817 103.768 77.285a23.932 23.932 0 0 0 28.643-3.979c9.9-9.949 23.535-25.529 33.767-44.486a23.879 23.879 0 0 0 -5.694-29.52c-4.739-4.013-10.512-8.831-16.96-14.084a84.578 84.578 0 0 1 -8.948.44c-26.67 0-26.67-10-53.339-10z" fill="#5b7a8e"/><path d="m234.288 184.29c8.338.29 27.107 1.449 44.042 6.076a5.277 5.277 0 0 1 3.824 4.264c.993 6.2 2.057 19.878-4.988 31.312l-49.1-14.226s5.942-9.337 2.9-23.5a3.268 3.268 0 0 1 3.322-3.926z" fill="#c494bb"/><path d="m212.393 217.384a22.011 22.011 0 0 1 -.9-4.035 10.23 10.23 0 0 1 11.244-11.286l45.807 4.621a10.212 10.212 0 0 1 8.656 6.816 18.412 18.412 0 0 1 .452 11.15 10.386 10.386 0 0 1 -11.676 7.162l-45.236-7.262a10.506 10.506 0 0 1 -8.347-7.166z" fill="#efcde2"/><path d="m190.4 131.165a3.482 3.482 0 0 1 -1.839-.524q-.919-.567-1.846-1.095a3.5 3.5 0 1 1 3.463-6.084q1.038.591 2.066 1.227a3.5 3.5 0 0 1 -1.844 6.476z" fill="#fff"/><path d="m173.78 123.846a3.475 3.475 0 0 1 -1-.146 87.217 87.217 0 0 0 -28.747-3.337 3.5 3.5 0 0 1 -.612-6.972 92.689 92.689 0 0 1 31.347 3.6 3.5 3.5 0 0 1 -.993 6.857z" fill="#fff"/><path d="m96.849 79.167-23.125-15.417-14.002 23.474 32.27 25.128z" fill="#67867c"/><path d="m51.724 59.534a78.517 78.517 0 0 1 8.9-7.468 15.361 15.361 0 0 1 16.085-1.139c12.471 8.092 5.677 24.25-.648 32.156a31.348 31.348 0 0 1 -12.66 10.228 15.418 15.418 0 0 1 -21.253-17.59 28.634 28.634 0 0 1 1.412-4.384 35.189 35.189 0 0 1 8.164-11.803z" fill="#91b2a8"/><ellipse cx="269.571" cy="219.388" fill="#c494bb" rx="5.095" ry="7.451"/><path d="m76.065 83.083c.546-.682 1.094-1.429 1.634-2.223-12.211 1-11.8-9.88-11.8-9.88a105.931 105.931 0 0 0 -15.699-9.872 34.4 34.4 0 0 0 -6.634 10.229 28.634 28.634 0 0 0 -1.412 4.384 15.418 15.418 0 0 0 21.253 17.59 31.348 31.348 0 0 0 12.658-10.228z" fill="#67867c"/><path d="m43.162 39.049 20.247 19.286a11.118 11.118 0 0 1 2.491 12.645q-.057.126-.117.252a11.083 11.083 0 0 1 -16.034 4.306l-23.888-15.516z" fill="#db8767"/><g fill="#aa5148"><path d="m65.786 71.232c.041-.084.08-.168.118-.252a10.923 10.923 0 0 0 .978-4.133c-4.8 6.356-11.443 2.586-11.443 2.586l-19.093-13.789s-2.695-.248-6.543-.4l-3.942 4.779 23.892 15.515a11.081 11.081 0 0 0 16.033-4.306z"/><path d="m43.162 39.049s5.879 5.6-2.243 16.169c-7.5 9.763-15.058 4.8-15.058 4.8s-7.966-4.283.878-15.882c0 .004 7.282-10.225 16.423-5.087z"/></g></svg>