<svg id="flat" height="512" viewBox="0 0 500 500" width="512" xmlns="http://www.w3.org/2000/svg"><path d="m204.5 371.607c7.926-6.049 18.558-8.226 28.047-10.577 41.9-8.333 81.888-4.025 107.479-45.889 2.353-3.695-3.481-7.061-5.852-3.42-24.329 40.073-67.892 34.828-107.623 44.061-8.631 2.317-19.839 4.868-25.378 12.5-1.39 1.914 1.412 4.789 3.327 3.328z" fill="#4f424c"/><path d="m206.343 125.453c7.514 2.362 22 7.535 24.906 15.3 1.092 3.381-.92 7.894-4.469 8.058 8 .713 18.193 2.769 20.98 11.383 1.225 4.045-.449 9.062-4.321 10.755 5.412 9.091 12.483 21.874 6.366 30.506-48.184 67.994-66.514 91.536-66.514 91.536-16.391 1.48-87.022-21.65-102.3-27.774-9.89-3.966-14.378-8-19.693-17.073-9.094 3.171-20.658-1.432-9.465-19.412-5.109 2.941-14.109 5.049-16.8-1.848-1.062-6.99 2.817-14.184 7.127-19.484-6.357-1.15-13.131-5.366-8.795-11.69a37.717 37.717 0 0 1 20.6-16.634c-4.02-.5-6.7-5.565-4.848-9.171 3.616-6.477 12.723-3.815 18.476-6.575-2.887-2.3-8.2-8.631-7.636-12.43a2.74 2.74 0 0 1 2.043-1.125 93.945 93.945 0 0 1 22.682-1.811c-4.976-3.948-7.854-8.9-1.975-13.092 9.394-9.53 21.62-6.963 21.62-6.963s40.208-19.727 102.016-2.456z" fill="#4f424c"/><path d="m158.769 192.414c6.109-30.411 49.884-31.085 50.748-61.632 0-4.539-7.086-4.547-7.054 0-.184 24.92-42.747 25.6-50.184 59.845-.991 4.209 5.464 6.006 6.49 1.788z" fill="#4f424c"/><path d="m198.333 363.1c-13.559 10.2-26.486 21.521-36.1 35.029l-5.882-52.127c-13.613-.024-11.232 4.294-11.232 4.294-1.822 41.866-6.141 113.056-6.7 116.8.835 14.359 7.2 19.86 18.221 17.709-2.331-63.792 16.926-79.463 49.276-112.473.371-6.485-1.87-9.898-7.583-9.232z" fill="#bf7b85"/><path d="m153.166 347.68c-10.1-.262-10.673 2.417-10.673 2.417-2.415 48.017-3.989 81.911-7.46 116.846.835 14.359 10.577 20.02 21.6 17.869a175.461 175.461 0 0 1 1.564-36.444c-29.048 22.068-5.031-100.688-5.031-100.688z" fill="#8c5761"/><path d="m244.008 329.56c-14.615 12.317-30.762 22.3-45.672 33.547a19.3 19.3 0 0 1 7.59 9.25c11.213-10.457 23.762-19.121 35.935-28.5 3.748-5.34 4.724-10.157 2.147-14.297z" fill="#8c5761"/><path d="m277.971 305.01-9.466-6.5c-3.825 11.2-13.2 21.5-24.5 31.048a36.618 36.618 0 0 1 -2.145 14.3c14.332-11.082 27.787-22.989 36.111-38.848z" fill="#4f424c"/><path d="m167.463 488.839c-8.451-10.917-12.208-61.943 13.29-89.3-18.5 13.951-28.671 32.914-27.559 56.305.1 6.122 3.312 21.359-5.181 23.19-7.5 1.616-11.209-5.6-12.984-12.1-1.164 7.775-3.234 15.762-7.163 21.9a2.156 2.156 0 0 0 1.833 3.3h35.93a2.157 2.157 0 0 0 1.834-3.295z" fill="#4f424c"/><path d="m159.144 183.668c-.149-9.376-.309-18.791-.482-28.049a10 10 0 0 0 -9.353-5.221c-4.285 4.7-4.832 14.307-3.652 26.186 4.537 7.516 9.028 9.436 13.487 7.084z" fill="#bf7b85"/><path d="m243.7 240.652-6.835-7.652c-35.824 26.077-76.245 75.189-76.245 75.189s-.239-30.938-.736-71.468a187.063 187.063 0 0 0 -14.967 16.472v.012c-.16 34.206-1.115 66.928-2.42 96.9 20.814.258 15.745 39.391 14.108 53.041a1.044 1.044 0 0 0 1.9.722l4.818-7.222c4.024-78.78 24.537-104.119 80.377-155.994z" fill="#4f424c"/><path d="m159.144 183.668c-6.737-.781-9.572-5.955-9.394-12.285q-.3-6.566-.39-13.141c.465-5.623 6.195-3.136 9.3-2.623-.35-18.791-.749-36.937-1.2-52.8l-18.16-3.048c1.543 18.061 5.546 110.324 5.622 137.466a77.657 77.657 0 0 0 14.917-3.807c-.191-15.669-.423-32.649-.695-49.762z" fill="#8c5761"/><path d="m394.888 253.57c-3.5-.569-9.365-1.708-13.122-.543l2.5-2.753a1.713 1.713 0 0 0 -.335-2.592l-29.763 2.039c-12.538-13.035-21.054-4.658-29.24-9.745-4.831-1.948-4 5.131-3.336 8.084-4.854-2.2-10.272-2.246-15.629-1.331 0 0-22.747 6.359-20.194 30.472.322 52.085 115.939 46.256 118.862 1.419.004-.001 3.469-17.998-9.743-25.05z" fill="#ffc7db"/><path d="m416.675 270.155a12.734 12.734 0 0 0 5.651-3.987 1.583 1.583 0 0 0 -1.412-2.579c-14.124 1.331-15.526-7.839-26.027-10.015 1.526 1.174 8.386 9.058 3.136 8.711-4.331-1.605-9.312-2.115-9.968 2.591a8.365 8.365 0 0 0 .554 4.1 2.043 2.043 0 0 1 -1.839 2.8 34.021 34.021 0 0 1 -10.268-1.424c-3.777-1.11-6.1 4.19-2.68 6.036 2.351.945 3.482 6.06.127 5.828-3.031-.691-9.666-1.57-11.006 3.367a1.219 1.219 0 0 1 -1.309.9c-4.93-.754-9.789-2.525-14.687-3.2-3.159-.433-5.711 2.806-3.246 5.3 4.165 4.2-7.931 7.034-9.469 7.018-4.133-.044-9.633-3.164-7.352-7.883a3.27 3.27 0 0 0 -4.547-4.317c-1.142.557-21.541 9.883-19.222 3.916 3.566-5.817 1.511-9.64-4.811-9.384a1.4 1.4 0 0 1 -.972-2.422 68.444 68.444 0 0 1 8.554-6.957 2.85 2.85 0 0 0 -1.514-5.307c-7.864.188-16.052.908-6.356-8.247q3.8-4.3 7.957-8.262c-14.805 3.479-23.9 8-34.808 2.167-3.836-1.5-3.116 7.117-1.532 9.132-9.036.542-11.941 6.379-17.813 12.48 0 0-7.019 30.525 17.18 40.314s69.604 10.35 69.604 10.35l53.02-6.281s28.7-10.06 31.072-25.83-6.017-18.915-6.017-18.915z" fill="#ea84a8"/><path d="m350.259 267.649c6.663-7.028 16.234-17.329 33.673-19.962-11.025-6.522-24.654-2-29.759 2.034-.8-.835-1.59-1.58-2.362-2.249-6.9 6.627-12.979 14.14-16.2 22.063-.001 0 7.241 5.928 14.648-1.886z" fill="#4f424c"/><path d="m359.431 232.4a129.243 129.243 0 0 0 5.761-17.239c-2-3.013-4.345-3.261-7.039-.795a131.313 131.313 0 0 1 -7.894 21.783c3.221.184 6.285-1.005 9.172-3.749z" fill="#bf7b85"/><path d="m387.3 236.616c6.953-2.874 13.878-6.312 19.353-11.54a18.473 18.473 0 0 0 -9-2.014c-13.028 8.942-30.456 11.98-43.28 20.457 1.812-3.646 3.5-7.361 5.049-11.125a68.583 68.583 0 0 1 -9.173 3.748 245.3 245.3 0 0 1 -16.03 28.9c-2.306 3.638 3.375 7.524 6.82 2.034 10.319-18.402 27.88-23.382 46.261-30.46z" fill="#8c5761"/><path d="m252.479 24.875a34.1 34.1 0 0 0 -19.487-.726 15.591 15.591 0 0 0 4.42-4.1 3.7 3.7 0 0 0 -3.162-5.816c-1.534.026-3.094-.087-4.612-.168a87.3 87.3 0 0 0 -40.426 7.587 53.5 53.5 0 0 0 6.047-7.5c4.049-9.632-15.052-5.977-19.595-3.566a76.531 76.531 0 0 0 -20.837 12.638c-6.691-4.566-14.148-8.21-22.126-9.436a32.814 32.814 0 0 0 -20.238 3.06c-5.066 3.312 1.021 9.1 4.437 11.028a23.26 23.26 0 0 0 -16.861 2.314 17.5 17.5 0 0 1 -4.665 2.269c-2.456.538-4.957-.419-7.354-1.18a49.841 49.841 0 0 0 -28.5-.444c-4.187 1.187-9.1 4.988-7.161 8.929 1.486 3.025 6.321 3.678 6.882 7.009-3.966-.154-17.52-.965-13.126 14.293 4.361 13.317 30.6 18.067 30.6 18.067 59.139 43.691 165.765 57.745 189.4-45.282.009-.001-6.857-6.851-13.636-8.976z" fill="#ffc7db"/><path d="m287.03 52.117a35.445 35.445 0 0 0 -15.03-5.803 16.384 16.384 0 0 0 10.691-10.414 3.689 3.689 0 0 0 -3.7-4.9c-9.341.49-17.643-3.651-26.511-6.124 16.757 8.595-1.632 17.553-12.144 15.5-3.519-.423-4.084 4.51-1.662 6.135 10.4 6.639 5.2 10.2-4.458 10.007a70.54 70.54 0 0 1 -20.049-1.718 3.327 3.327 0 0 0 -3.71 4.825c1.177 2.265 3.509 8.163 5.235 12.647a2.883 2.883 0 0 1 -3.5 3.8c-5.146-1.478-12.455-3.1-15.807-1.573-5.984 2.721-2.96 12.913-3.133 13.8-.707 3.607-8.109-1.128-9.7-2.316a23.226 23.226 0 0 1 -7.1-9.116 2.955 2.955 0 0 0 -4.625-.6 28.547 28.547 0 0 1 -9.945 8.036 5.857 5.857 0 0 1 -8.295-4.648 12.412 12.412 0 0 0 -8.322-10.346 13.937 13.937 0 0 0 -17.311 6.53c-5.389 7.764-12.713-.918-14.916-6.909-.768-1.925-3.161-2.951-4.8-1.268q-3.115 3.189-6.229 6.38a5.983 5.983 0 0 1 -9.953-2.256 24.007 24.007 0 0 1 -1.034-9.863c.2-2.1-2.525-3.49-4.2-2.411-9.842 6.988-31.822 10.377-38.763-1.82-1.737-3.968.092-9.27 4.524-10.139a2.4 2.4 0 0 0 1.339-.7 47.292 47.292 0 0 0 -29.989 13.847c-4.153 4.757 5.608 10.985 9.667 11.82a9.359 9.359 0 0 0 -2.517.662s-5.557 6.3 2.22 13.01 42.17 27.043 42.17 27.043 40.933 14.46 106.921 14.46 86.331-29.551 86.331-29.551l22.17-35.472z" fill="#ea84a8"/><path d="m170.2 185.516s8.459-2.254 15.085.722a28.018 28.018 0 0 1 -1.339-4.739 3.243 3.243 0 0 1 3.69-3.774c5.458.813 11.032-.557 16.195-3.473 11.244-6.5 22.071-.779 29.188 8.906 6.434-6.125 18.492-8.048 27.508-8.12a6.611 6.611 0 0 1 6.525 7.943c-.7 3.362-1.951 6.92-4.162 8.5 1.633-.32 3.657-.765 5.908-1.211 40.87 10.331-11.394 41.856-17.925 47.529 0 0-63.638 5.512-82.406-13.378s-18.267-32.255 1.733-38.905z" fill="#ffc7db"/><path d="m303.816 205.136a56.213 56.213 0 0 0 -9.955-2.636s5.777-4.567 2.966-8.688c-5-7.336-18.53-5.422-28.032-3.537a10.074 10.074 0 0 0 1.111 4.2c.691 1.283 3.269 3.067 3.278 4.5.014 2.122-5.3 4.332-6.706 4.7a13 13 0 0 1 -7.815-.491c-2.349-.818-4.411 1.68-3.865 3.866a74.979 74.979 0 0 1 1.262 13.806 5.49 5.49 0 0 1 -7.671 5.022c-2.656-.926-5.756-2.419-5.841-5.687-.3-7.605-5.584-7.93-8.73-1.252-7.135 9.366-12.739-7.355-18.545-4.48-2.355 1.163-1.876 3.948-.919 5.932a2.724 2.724 0 0 1 -4.382 2.954c-4.441-3.979-9.047-9.867-13.736-12.939-1.688-1.105-3.9.936-3.92 2.987-.007.778-.849 4.474-1.656 7.84a1.992 1.992 0 0 1 -3.776.3c-1.465-3.331-2.211-7.356-6.038-4.818-1.148.992-3.16 2.483-5.115 3.814a1.915 1.915 0 0 1 -2.953-1.928c.686-4.066.7-9.2-3.6-8.482-11.051 1.842-10.07-11.212-8.181-14.9a26.26 26.26 0 0 1 9.206-9.7c-10.092 1.491-20.854 5.512-30.867 2.677-6.809-.692-2.439 8.661-.365 11.518a43.806 43.806 0 0 0 -9.482 3.094c-4.5 2.782 1.8 8.235 4.075 10.513-6.939 3.194-19.764 14 15.424 19.673 0 0-6.8 10.706 24.655 9.353l30.442 5.75 28.412-4.735 38.193 7.441s23.367-13.58 22.691-25.731l.338-7.078s12.758-3.054 10.097-12.858z" fill="#ea84a8"/><path d="m267.543 260.272c2.225-.834 4.564-3.181 3.39-5.248 15.915 4.5 33.555-4.349 19.191-14.555 3.445-.049 10.32-4.559 10.63-10.886.15-3.073-2.4-6.824-4.8-8.749 8.156-2.405 15.269-11.273 7.86-15.692-1.491 10.357-14.752 13.552-25.842 11.931-7.286-1.065-6.269 6.927-2.7 8.557 2.474 1.129 10.732 4.98 5.4 8.255-1.812 1.114-6.805-.642-8.468 1.136-1.941 2.076-1.9 4.9-1.341 7.245-.042 8.636-11.466.043-15.214-2.783-7.02-4.494-7.5 8.136-17.145.191a43.985 43.985 0 0 0 3.757-6.894 2 2 0 0 0 -3.054-2.332c-11.748 8.138-24.636 2.885-30.836-.62a1.989 1.989 0 0 0 -2.9 2.386 24.4 24.4 0 0 0 7.672 9.148c-4.684 5.247-12.951 2.907-15.151-3.209a2.641 2.641 0 0 0 -4.3-1.1c-5.977 6.17-11.747 7.187-13.058-2.889-.327-1.692-2.744-2.14-3.893-.995-4.026 4.051-9.829 6.876-15.687 6.426-5.969-1.124-3.668-4.981-1.319-7.308 1.624-1.609-.044-4.011-2.164-3.6-7.169 1.384-31.14.153-30.75-10.49-1.562 1.642-4.479 4.031-2.528 6.431a23.2 23.2 0 0 0 14.785 8.075c-2.479 5.271-6.265 18.723 3.972 16.693 8.637-1.818 17.032-5.722 26.085-4.527 1.361 6.225 2.757 15.743 9.205 14.359 4.856-1.169 13.179-3.967 17.676-10.021 3.632 7.317 19.417 13.3 26.387-2.519 2.369 5.237 5.186 10.692 10.4 13.325 5.469 2.851 8.544-3.008 8.748-8.03 6.765 6.417 16.626 11.74 25.992 8.289z" fill="#4f424c"/><path d="m411.918 194.99c-.842 10.94-5 21.628-14.266 28.067 2.977.744 5.979 1.469 9 2.016 8.338-7.877 11.724-18.908 12.574-30.083.374-4.69-6.912-4.653-7.308 0z" fill="#4f424c"/><path d="m365.183 215.156a92.753 92.753 0 0 0 2.98-21.53c.062-4.585-7.074-4.589-7.123 0a86.776 86.776 0 0 1 -2.891 20.736 51.3 51.3 0 0 1 7.034.794z" fill="#4f424c"/><path d="m451.287 120.048c-7.674-2.077-16.008.962-16.008.962-6.241-8.942-22.448-15.485-26.751-13.354-4.374 2.166-1.668 8.494-.1 9.776-10.278-3.066-21.244-6.077-31.448-2.733a101.031 101.031 0 0 1 -12.445 3.61c-1.4.307-4.862-.105-7.625-.525a2.378 2.378 0 0 0 -2.605 3.145c1.276 3.579 3.267 8.488 4.792 9.18a25.5 25.5 0 0 0 -11-.832s-19.4 4.748-11.1 23.084 27.988 26.178 50.362 26.055 66.952 3.984 73.714-20.292 2.121-34.852-9.786-38.076z" fill="#ffc7db"/><path d="m477.194 146.3-12.532-11.682c2.819-.729 10.963-2.287 10.952-5.875-.258-.949-1.4-1.142-2.322-1.236-7.652-.91-14.237-6.478-22.006-7.454 6.474 7.424 3.89 10.332.762 11.471a2.266 2.266 0 0 0 -.678 3.844c3.135 2.711 7.181 6.553 7.82 8.828a2.033 2.033 0 0 1 -2.615 2.453c-3.38-1.13-8.679-2.235-11.63.542-4.036 3.8-4.233 11.749-8.258 10.718-5.335-1.367-10.057-13.125-15.5-11.583-1.883.533-1.414 8.362.141 11.19.524.954-.862 2.368-1.675 1.645-6.032-5.356-11.209-7.782-18.935-6.6-1.453.222-2.2 2.041-1.876 3.305.354 1.375.718 2.746 1.077 4.119a1.868 1.868 0 0 1 -2.678 2.12 20.1 20.1 0 0 1 -8.643-8.773 2.444 2.444 0 0 0 -3.818-.491 53.081 53.081 0 0 1 -7.483 7.6 2.067 2.067 0 0 1 -3.314-1.2c-1.7-9.215-9.194-7.45-14.356-1.687a2.069 2.069 0 0 1 -3.551-1.524 27.85 27.85 0 0 1 .9-6.351 2.17 2.17 0 0 0 -2.647-2.647c-12.932 3.727-18.188-11.874-6.241-17.742a35.182 35.182 0 0 0 -8.979 2.489c-3.776 1.587-10.165.839-13.894.191a2.372 2.372 0 0 0 -2.763 2.639c.446 3.576 1.918 9.13 6.694 11.4-1.017 1.476-3.086 1.29-4.772.985a28.6 28.6 0 0 0 -8.1-.568s-8.056 5.024-9.354 8.111l9.354 13.376c4.479 11.575 33.334 16.977 33.334 16.977l42.442 3.858c27.267 8.746 43.987-7.459 43.987-7.459s25.463 7.711 34.727-5.921 6.43-29.068 6.43-29.068z" fill="#ea84a8"/><path d="m300.255 67.651a37.585 37.585 0 0 0 -13.227-15.53c3.408 14.243-14.227 14.978-25.1 13.611-3.917-.492-4.866 4.393-1.905 6.379a3.155 3.155 0 0 1 -1.1 5.684 27.948 27.948 0 0 0 -17 11.884 3.45 3.45 0 0 0 3.25 5.137c4.251-.369 7.069 2.948 6.344 6.674-3.447 10.591-18.946 11.2-26.752 5.282-1.706-1.165-4.068-.139-5.117 1.217a48.211 48.211 0 0 1 -8.377 8.417 6.692 6.692 0 0 1 -10.54-3.553 30.678 30.678 0 0 0 -1.032-3.01c-4.2-10.874-28.251 24.446-62.374-5.679-1.481-1.316-4.035.676-4.368 2.25-3.458 16.346-23.193 15.676-38.129-2.726-5.564-6.863-14.828-4.488-20.799 1.051a3.19 3.19 0 0 1 -4.729-.339 33.522 33.522 0 0 1 -6.828-18.2 3.422 3.422 0 0 0 -4.186-2.893c-21.939 4.893-25.826-3.5-26.346-8.291a3.136 3.136 0 0 0 -.853-1.821 11.2 11.2 0 0 0 -6.744 11.305c.9 7.044 8.066 11.189 14.4 14.238.071 6.812 2.739 23.222 11.567 22.828 3.668-.526 5.893-5 9.579-5.367 6.422 9.911 20.036 26.1 38.882 15.8 4.894 4.924 11.977 9.426 18.766 10.676s14.988-2.953 15.523-9.917c11.758 7.223 27.011 11.606 39.059 4.892 4.591-2.559 8.941-6.727 14.154-6.186l.375 6.086a3.271 3.271 0 0 0 .515 1.892 2.845 2.845 0 0 0 2.286.782c6.5 0 11.865-4.873 16.539-9.442 12.6 5.968 29.006 3.871 40.634-3.686 5.091-3.737 8.894-9.543 14.87-11.522a12.908 12.908 0 0 1 3.392 4.441 3.7 3.7 0 0 0 5.233 1.536 34.439 34.439 0 0 0 16.483-25.532 42.612 42.612 0 0 1 4.744.836 3.711 3.711 0 0 0 4.607-3.614c-.094-6.4-2.15-13.049-6.332-17.559a63.818 63.818 0 0 1 8.208-2.993 3.7 3.7 0 0 0 2.428-5.038z" fill="#4f424c"/><path d="m490.041 181.338c2.466-7.3 1.163-16.554-4.384-21.325 3.741-.829 10.42-6.094 5.159-9.433a18.723 18.723 0 0 1 -4.479-3.384c-7-8.322-11.647-9.589-21.675-12.577 9.729 11.121 2.067 20.776-3.615 22.524a2.483 2.483 0 0 0 -.966 3.849c.535.671 2.7.614 4.784.38a2.921 2.921 0 0 1 3.03 4.038c-2.783 6.2-9.572 10.561-15.572 11.986a2.955 2.955 0 0 1 -3.59-3.436c.686-3.147.184-10-3.135-7.434-4.541 5.768-16.437 18.047-30.131 9.493-.784-.49-1.656.887-1.712 1.953a6.432 6.432 0 0 0 1.436 4.473 1.37 1.37 0 0 1 -.537 2.13 28.95 28.95 0 0 1 -28.468-7.234c-2.17-2.113-4.844-1.134-5.881 1.795a24.126 24.126 0 0 1 -2.619 5.269 2.073 2.073 0 0 1 -3.3.39 110.036 110.036 0 0 0 -10.423-8.777 2.2 2.2 0 0 0 -3.3.73c-1.714 2.93-5.074 6.89-8.437.721-9.642-17.515-3.73-14.746-24.281-4.683-1.286.679-2.673-.673-2.331-2.258a19.923 19.923 0 0 1 2.7-6.483c1.579-2.5-.152-5.964-2.814-5.647-3.857.461-8.907 2.165-11.37-1.09-3.653-4.827-.616-8.676 2.144-10.87-6.344 1.011-12.3 5.607-16.5 10.87a2.641 2.641 0 0 0 1.419 4.052 58.418 58.418 0 0 1 6.624 2.324c-3.386 1.133-5.131 5.533-6.031 9.695-.859 3.977 2.33 7.6 6.067 6.838l7.727-1.579s1.373 11.613 3.706 12.784c3.1 1.555 9.277-4.962 10.686-5.764 2.114 4.484 3.331 9.17 7.938 10.074 5.241 1.028 9.7-3.74 14.447-6.344.942-.633 1.775-.205 1.9.9 2.08 11.955 12.727 10.393 20.67 4.849l-.9 8.152c7.527 1.358 13.452-5.176 19.683-8.273 3.61 6.746 12.164 11.592 19.286 8.838 2.435-1.875 2.57-8.868 2.57-8.868 3.539 6.218 11.775 5.923 16.953 1.813 3.242-2.372 5.782-5.67 8.275-8.922-1.041 1.186-1.349 5.569.138 8.865a2.892 2.892 0 0 0 2.945 1.722 15.97 15.97 0 0 0 11.951-8.628 11.612 11.612 0 0 0 19.367.333c2.091-2.336-.223-4.78-.83-7.256 3.187-2.42 8.1-.059 11.637.584a3.4 3.4 0 0 0 4.039-2.159z" fill="#4f424c"/><path d="m440.242 282.97c1.874-3.1-1.559-6.025-4.28-7.137-6.12-2.965-12.431-5.63-19.287-5.678-5.735 1.425-11.028 4.794-16.018 8.9-1.932 1.593-3.067 4.8-.658 5.01 18.48 1.6 17.468 12.044 6.779 8.859-3.733-1.112-5.656 4.081-2.569 6.093 3.106 2.026-.06 4.16-2.112 4.526-1.815.325-4.1-.392-5.868-.831a32.882 32.882 0 0 1 -11.124-5.257c-3.153-2.222-6.39 2.519-3.97 5.146 2.921 3.172-3.989 4.735-5.915 4.68-10.247-1.2-20.375-3.715-30.59-5.268-2.568-.453-5.168 2.13-3.592 4.673 3.678 5.936-4.562 9.254-9.08 9.207a27.821 27.821 0 0 1 -7.028-1.073c-1.4-.387-8.814-3.683-4.564-6.038 2.142-1.187 1.909-5.112-.727-5.561a48.674 48.674 0 0 0 -18.938.238c-3.214.72-6.977 2.861-10.316 2.707-4.868-.224-5.23-4.949-5.37-8.724a2.756 2.756 0 0 0 -4.109-2.358c-5.517 3.5-19.981 10.348-20.37-1.916-.25-7.875 7.283-13.411 11.914-18.817a2.739 2.739 0 0 0 -2.642-4.538 98.043 98.043 0 0 1 -12.126 1.992c-1.776.242-5.355 1.1-5.863-1.3-2.392 2.707-4.676 5.833-7.67 7.5a2.046 2.046 0 0 0 -.052 3.5l5.383 3.448a21.158 21.158 0 0 0 -9.819 11.7 2.064 2.064 0 0 0 1.638 2.7 12.869 12.869 0 0 1 5.93 2.583l-3.9 8.441a2.055 2.055 0 0 0 1.783 2.916c4.913.2 12.038.61 12.038.61.77 4.426 3.268 8.245 6.586 11.775a3.244 3.244 0 0 0 4.42.331c3.09-2.518 8.5-6.841 10.511-7.914 1.363 4.784 4.223 12.589 9.094 12.3 2.972-.581 10.282-2.628 14.384-9.131 4.95 11.28 20.837 17.3 27.987 4.835 2.669 4.446 8.085 9.784 13.561 6.831 2.57-1.764 4.015-4.7 6-7.041.82 3.366 8.835 6.531 12.7 7.877 3.774 1.068 5.508-3.7 6.416-7.09 2.528 3.319 8.629 6.174 11.722 7.469 4.033 1.511 7.065-4.9 6.725-9.771 3.78 7.175 20 9.96 14.386-2.619 6.194 1.63 13.94 2.384 19.524-1.255 3.693-3.272 1.324-6.929-2.692-8.32 7.22-.7 15.508-.857 21.1-5.525.618-3.9-8.555-9.586-11.748-11.157 3.506.17 12.962 1.7 12.775-4.391-.087-2.831-4.423-3.88-7.156-5.037 2.114-1.38 5.398-1.07 6.797-3.1z" fill="#4f424c"/><path d="m179.615 258.664a28.634 28.634 0 0 0 -18.967-1.626c-.013-1.2 3.47-22.294-9.593-14.42-4.885 2.945-7.8 6.279-11.258 9.1a3.345 3.345 0 0 1 -5.234-1.4 22.159 22.159 0 0 0 -8.3-10.266c-5.746-3.051-7.455 5.882-9.183 9.6a3.314 3.314 0 0 1 -5.254 1.484 41.844 41.844 0 0 0 -16.959-8.469c-7.565-.975-5.166 10.6-3.306 14.734a33.011 33.011 0 0 0 -29.226-3.179s-24.835 12.53-20.508 32.178 50.424 28.685 50.424 28.685 83.335 10.567 91.789-17.815l14.3-18.116s-7.148-13.205-18.725-20.49z" fill="#ffc7db"/><path d="m210.962 273.476c-12.166 1.041-20.575-9.564-31.351-14.805 4.718 4.941 11.142 10.3 11.339 17.624-.3 3.971-4.246 6.791-6.763 2.439-1.556-2.692-6.4-1.691-6.136 1.662.276 3.469-.471 9.057-4.84 9.808-3.817.656-3.411-4.87-3.271-7.5.133-2.493-3.577-4.271-5.239-2.17-5.2 6.578-11.032 9.479-19.451 7.932-2.189-.4-4.543 1.876-3.118 4.056l3.217 4.923a21.417 21.417 0 0 1 -19.49-4.75c-3.977-3.532-7.649-6.8-13.285-4.371-2.905 1.251-4.532 3.987-7.14 5.673-5.408 3.5-7.8-.983-11.547-3.835-4.277-3.257-9.2-2.081-12.66 1.637-2.941 3.165-6.431 6.666-11.193 6.291a6.691 6.691 0 0 1 -6.319-5.933c-.21-2.073.848-3.83.857-5.841.022-4.938-3.478-7.293-7.86-8-13.723-2.374-1.024-20.143 5.62-24.094-10.522 4.608-20.393 7.874-30.742.733a2.143 2.143 0 0 0 -3.035.548 14.874 14.874 0 0 0 .706 16.947 22.876 22.876 0 0 0 -10.727 3.063s-11.85 10.371 2.822 17.707c0 0-3.815 21.715 18.194 19.074l22.007 8.881c35.2 2.882 84.793 2.736 120.016 1.389l14.673-16.219s5.868-3.5 7.119-5.612c2.677-4.524 1-13.477 1-13.477 6.691-3.445 13.662-13.041 6.597-13.78z" fill="#ea84a8"/><path d="m197.842 308.027a19.329 19.329 0 0 1 6.447.112 2.13 2.13 0 0 0 2.5-2.042 60.007 60.007 0 0 0 -2.415-18.835s1.349 16.213-12.492 10.44a2.281 2.281 0 0 0 -3.129 2.407c.986 7.722.018 12.883-8.442 12.514a2.758 2.758 0 0 1 -2.311-4.131 15.453 15.453 0 0 0 2.087-8.237 1.77 1.77 0 0 0 -3.246-.916c-6.044 8.737-18.327 9.173-24.9 8.7a1.751 1.751 0 0 0 -1.367 2.994 23.2 23.2 0 0 0 2.838 2.347c2.709 1.893.488 6.183-2.579 4.953-3.235-1.37-6.621-1.606-8.432.154-2.915 2.8-13.476 8.286-13.626-8.4-.018-2.044-.945-4.56-3.395-4.354-3.892.328-7.046 5.847-10.286 9.88-5.762 6.274-11.879-2.794-13.15-7.745a3.741 3.741 0 0 0 -6.962-.612 12.157 12.157 0 0 0 -1.151 4.12c-.273 2.8 1.143 6.962-2.725 7.582-3.347.537-6.414-4.451-7.919-6.631-1.391-2.015-5.163-2.032-5.738.733-.514 2.471-1.389 5.295-3.728 6.711-3.059 1.851-8.177.081-6.406-4.041.99-2.305-2.194-4.2-4.125-3.1-1.535.88-7.487 1.507-11.437 1.836a2.283 2.283 0 0 1 -2.339-3.039 10.432 10.432 0 0 0 .824-3.747c-.3-1.868-2.647-2.3-4.085-1.624-4.523 2.137-10.592 5.155-15.624 2.643-6.63-3.31-2.379-10.417.548-14.769 1.069-1.589-.307-4.362-2.406-4.1-11.524 2.141-14.668-2.905-10.3-14.216a23.6 23.6 0 0 0 -11.057 14.066 2.136 2.136 0 0 0 1.726 2.682c2.829.428 5.95.933 8.566 1.3-3.225 6.56-6.585 25.326 5.59 22.809a82.032 82.032 0 0 1 10.045-2.689c-.766 2.97-.261 5.17-.056 8.333a8.439 8.439 0 0 0 2.464 5.661c5.474 4.556 11.912-2.976 16.014-6.4-1.063 12.161 10.988 13.271 18.225 7.857a6.348 6.348 0 0 1 8.379 1.183c6.595 8.42 18.378 4.7 24.764-3.6 4.71 13.675 15.519 9.133 17.752.717 12.792 23.595 25.963 4.444 25.963 4.444a11.505 11.505 0 0 0 20.164-.464 4.018 4.018 0 0 1 1.378-1.7 2.635 2.635 0 0 1 2.047.053c22.782 7.939 28.731-16.255 27.507-21.839z" fill="#4f424c"/><g fill="#ea84a8"><path d="m208.079 40.329c2.056 1.63 5.33 2.9 7.844 1.73a1.921 1.921 0 0 0 .387-3c-1.791-1.328-4.126-1.524-6.19-2.232-1.852-.42-3.805 2.108-2.041 3.507z"/><path d="m216.471 34.644a19.4 19.4 0 0 0 6.743 2.676c2.15.088 2.808-2.492 1.622-3.916a9.824 9.824 0 0 0 -7.414-2.362 2.17 2.17 0 0 0 -.951 3.6z"/><path d="m179.309 203.927c2.761.035 6.38-4.759 7.292-7.174.492-1.514-1.171-3.408-2.765-2.765-2.356 1.032-6.941 4.9-6.821 7.645a2.378 2.378 0 0 0 2.294 2.294z"/><path d="m196.346 201.994c.216-.2.354-.465.56-.675-.122.125-.28.338-.062.09a8 8 0 0 0 1.437-1.967c.3-.8-.119.46.167-.307a2.179 2.179 0 0 0 -2.617-2.994 11.682 11.682 0 0 0 -3.288 2.05c-2.478 2.477 1.282 6.235 3.8 3.8z"/><path d="m371.342 137.833c2.564-1.888 5.412-3.9 6.841-6.812.766-1.973-1.42-3.373-3.091-3.091-2.82.88-5.255 3.178-7.441 5.118-2.4 2.379.75 6.741 3.691 4.785z"/><path d="m382.887 141.36a6.594 6.594 0 0 0 1.943-1.861 2.7 2.7 0 0 0 -3.031-3.941c-1.42.57-3.077 1.543-3.632 3.055-.819 2.689 2.763 4.739 4.72 2.747z"/><path d="m422.866 132.7c1.487 2.2 2.6 5.547 5.293 6.439a2.631 2.631 0 0 0 3.134-1.779c.595-1.578-.4-3.351-1.28-4.647-1.4-1.912-3.808-5.358-6.456-3.476a2.706 2.706 0 0 0 -.691 3.463z"/><path d="m433.8 128.372c.658 1.645 2.25 3.437 4.1 3.6a2.7 2.7 0 0 0 1.892-4.566c-.875-.835-1.656-1.85-2.89-2.143a2.542 2.542 0 0 0 -3.105 3.105z"/><path d="m312.51 259.992c1.577.719 2.932.158 4.553-.18a38.393 38.393 0 0 0 4.66-.919 2.071 2.071 0 0 0 0-3.956c-2.9-1.1-8.866-.266-10.065 2.96a1.853 1.853 0 0 0 .852 2.1z"/><path d="m319.313 272.87c1.667-1.19 3.736-1.4 5.372-2.609a2.333 2.333 0 0 0 -1.022-3.872c-2.242-.6-5.067.927-6.888 2.139-2.672 1.778-.263 6.025 2.538 4.342z"/><path d="m71.268 270.111a34.921 34.921 0 0 0 7.642-4.161c1.072-1.07.692-3.332-.957-3.622-3.162-.558-7.651 1.664-9.224 4.482a2.274 2.274 0 0 0 2.539 3.3z"/><path d="m76.774 281.425c2.464-3.254 6.121-5.28 9.134-7.889 1.273-1.351.48-4.233-1.663-4.015-4.867.5-8.962 4.955-11.446 8.838-1.522 2.379 2.109 5.293 3.975 3.066z"/><path d="m92.241 281.927a2.669 2.669 0 0 0 1.542-2.413l-.317 1.175c3.06-3.684-.748-6.5-3.655-2.82l1.027-.6a2.6 2.6 0 0 0 -1.838 1.839l.239-.564a2.325 2.325 0 0 0 3.007 3.383z"/><path d="m101.251 48.656a22.472 22.472 0 0 0 5.969-4.923 1.83 1.83 0 0 0 -2.206-2.86 22.557 22.557 0 0 0 -6.223 5.327c-1.139 1.624 1 3.13 2.46 2.46z"/><path d="m113.481 54.787c1.315-1.052 2.186-2.8 3.176-4.156a25.949 25.949 0 0 0 2.815-4.213 2.2 2.2 0 0 0 -2.98-2.98 16.648 16.648 0 0 0 -6.98 9.038 2.4 2.4 0 0 0 3.969 2.311z"/><path d="m126.508 51.542c3.3-.012 3.3-5.035 0-5.056-3.303.014-3.295 5.035 0 5.056z"/></g></svg>