<svg id="FLAT" height="512" viewBox="0 0 500 500" width="512" xmlns="http://www.w3.org/2000/svg"><path d="m448.606 91.9c3.3 62.424-84.5 76.081-84.5 76.081l-44.957 39.77-24.077-33.757s47.22-33.113 92.164-52.776c55.91-24.46 13.541-69.022 13.541-69.022s44.581-21.685 47.829 39.704z" fill="#8e3329"/><path d="m378.449 47.5s-34.656-14-52.059 18.318-10.993 51.316-50.043 82.333l12.167 25.834s40.595-29.629 58.735-75.715 31.2-50.77 31.2-50.77z" fill="#8e3329"/><path d="m430.322 111.539s15.274-30.145-4.514-45.89c0 0-29.488-26.935-57.929 39.075a147.927 147.927 0 0 1 -37.741 51.739c-11.378-6.682-13.438-20.073-7.158-31.229a139.981 139.981 0 0 0 24.543-43.434c17.284-50.644 50.845-56.244 80.168-45.387 42.243 15.643 38.853 50.469 28.839 81.311z" fill="#d87155"/><path d="m463.866 115.358c-21.33-5.958-46.116-11.61-65.4-15.74a27.13 27.13 0 0 0 -32.817 26.2l-1.468 120.1a71.627 71.627 0 0 1 -5.246 26.457c-20.716 50.217 23.115 77.091 59.706 62.048 25.359-10.43 26.559-39.164 24.283-58.023a74.1 74.1 0 0 1 5.5-38.235l35.187-81.565a30.343 30.343 0 0 0 -19.745-41.242zm-5.409 39.224-33.685 83.149a77.185 77.185 0 0 0 -4.334 41.892c3.047 18.049.011 37.558-26.259 32.06-24.663-5.162-18.876-28.867-12.665-43.482a77.629 77.629 0 0 0 6.143-29.417l1.22-98.254a15.757 15.757 0 0 1 19.47-15.118l39.635 9.611a14.437 14.437 0 0 1 10.475 19.559z" fill="#cfdde2"/><path d="m388.605 162.427-23.49 7.021-.388 31.702 23.159 19.164z" fill="#9eaeb7"/><path d="m441.8 195.711-17.023 42.02a73.825 73.825 0 0 0 -3.325 10.352l20.977 17.358a73.877 73.877 0 0 1 6-27.271l10.671-24.762z" fill="#9eaeb7"/><path d="m336.091 173.939c10.5-8.021 25.857-16.411 47.7-21.658 20.776-4.989 28.224-9.882 37.758-23.667l22.79 5.527s-8.426 30.482-56.6 38.984c-17.037 3.006-30.374 12.192-40.5 22.81-9.608-2.27-14.713-12.2-11.148-21.996z" fill="#d87155"/><path d="m447.917 184.831 15.685 7.53c14.068 32.566-26.913 38.4-39.609 16.335a75.257 75.257 0 0 1 10.143-20.346 11.037 11.037 0 0 1 13.781-3.519z" fill="#9eaeb7"/><path d="m286.027 158.164 8.5 22.194s16.877-7.194 35.609-23.9a284.517 284.517 0 0 1 -7.157-31.229c-17.956 21.882-36.952 32.935-36.952 32.935z" fill="#8e3329"/><path d="m333.739 213.384a112.833 112.833 0 0 1 13.505-17.447 121.174 121.174 0 0 1 -11.147-21.99c-14.786 11.3-19.926 21.873-19.926 21.873z" fill="#8e3329"/><path d="m51.22 418.973s-11.522-35.622 39.586-54.3c42.67-15.591 60.677-22.953 88.688-60.3l-23.908-17.455-45.383 32.2s-94.857 21.718-58.983 99.855z" fill="#8e3329"/><path d="m59.4 454.137s41.075 30.189 80.881 2.178c19.2-13.508 28.56-39.179 33.648-62.033a90.724 90.724 0 0 1 17.461-36.5l13.963-17.661-24.409-18.911s-21.294 14-32.1 47.905-39.813 79.124-89.444 85.022z" fill="#8e3329"/><path d="m142.988 340.042a113.905 113.905 0 0 0 -17.521 39.76c-5.125 22.447-18.454 50.183-53.009 51.015 0 0-37.921-2.809-22.471-49.157 9.791-29.375 34.535-41.223 51.343-45.962a93.906 93.906 0 0 0 34.119-17.809 41.717 41.717 0 0 0 -8.956-26.287 95.938 95.938 0 0 1 -33.276 15.744c-23.31 6-62.718 24.192-76.236 79.23-19.662 80.056 61.095 78.651 61.095 78.651s55.229 5.729 70.774-67.838a117.156 117.156 0 0 1 6.522-20.967c5.787-16.928-1.527-33.596-12.384-36.38z" fill="#d87155"/><path d="m136.553 316.968 22.281-18.874-7.725-26.57-21.009 17.262c-1.181.97-2.388 1.9-3.612 2.811l8.955 26.286c.371-.305.744-.605 1.11-.915z" fill="#8e3329"/><path d="m177.893 342 11.84-12.305-20.365-18.259-13.114 12.888a110.807 110.807 0 0 0 -13.26 15.722l12.394 36.383a111.663 111.663 0 0 1 22.505-34.429z" fill="#8e3329"/><path d="m163.325 246.592s-15.106-7.552-20.392 15.1c-4.033 17.285 3.361 54.346 38.61 76.988 53.7 8.766 147.97-114.162 134.952-151.411-10.824-12.655-22.535-30.29-28.974-52.338a11.339 11.339 0 0 0 -11.5-8.182c-7.534.43-17.154 4.248-19.8 20.145 0 0-20.392-3.021-22.658 23.412 0 0-22.067 2.251-25.088 26.2 0 0-21.1-3.837-22.493 24.365 0 .003-21.902-4.489-22.657 25.721z" fill="#d87155"/><g fill="#8e3329"><path d="m337.321 207.556a155.87 155.87 0 0 1 -20.821-20.282c-2.021 28.2-28.793 28.793-28.793 28.793 1.879 23.019-22.53 22.549-22.53 22.549.959 24.428-21.629 25.368-21.629 25.368 2.349 23.958-20.67 24.428-20.67 24.428.94 22.549-21.609 26.777-21.609 26.777.628 18.553-11.576 22.745-19.719 23.492 10.959 7.04 24.606 12.689 41.444 15.913 0 0 16.952-.755 12.63-17.371 0 0 23.622 4.278 21.356-24.3 0 0 21.9-5.16 18.882-26.307 0 0 24.923-1.511 21.9-25.679 0 0 24.168-2.266 22.658-24.923 0 0 20.991-1.253 21.171-19.732a11.1 11.1 0 0 0 -4.27-8.726z"/><path d="m232.656 333.691c-30.142-21.482-50.261-40.489-66.094-78.777a2.321 2.321 0 0 0 -4.432 1.281c4.458 25.215 19.285 68.887 68.592 81.64a2.327 2.327 0 0 0 1.934-4.144z"/><path d="m191.519 229.111c4.08 13.473 30.18 64.8 63.8 78.836 2.591 1.082 1.35 5.056-1.429 4.652-16.209-2.356-33.586-12.913-48-33.851-12.857-18.68-18.2-33.982-19.185-48.765a2.463 2.463 0 0 1 4.814-.872z"/><path d="m214.8 204.359c3.351 12.85 26.065 62.189 57.236 76.657 2.4 1.115 1.087 4.816-1.518 4.333-15.191-2.818-31.183-13.408-44-33.674-11.432-18.081-15.907-32.7-16.29-46.671a2.323 2.323 0 0 1 4.572-.645z"/><path d="m238.209 179.145c3.351 12.85 26.065 62.189 57.236 76.657 2.4 1.115 1.087 4.816-1.518 4.333-15.192-2.818-31.183-13.408-44-33.674-11.432-18.081-15.908-32.7-16.291-46.671a2.323 2.323 0 0 1 4.573-.645z"/><path d="m259.063 154.621c3.351 12.85 26.065 62.189 57.236 76.657 2.4 1.115 1.087 4.816-1.518 4.333-15.192-2.818-31.183-13.408-44-33.674-11.432-18.081-15.908-32.7-16.29-46.671a2.323 2.323 0 0 1 4.572-.645z"/></g><path d="m464.929 228.911a92.583 92.583 0 0 0 8.942-21.8 11.012 11.012 0 0 0 -5.945-12.674l-4.324-2.076c.9 2.748 1.165 6.8-1.177 12.224l-2.669 5.933a13 13 0 0 1 -17.18 6.523l-18.576-8.341c-.2.618-.387 1.223-.558 1.8a11.075 11.075 0 0 0 5.977 13.187l21.249 9.8a11.054 11.054 0 0 0 14.261-4.576z" fill="#65777f"/></svg>