<svg id="icon" height="512" viewBox="0 0 340 340" width="512" xmlns="http://www.w3.org/2000/svg"><path d="m176.635 145.637h50.2l-9.562 139.685s-45.8 7.462-64.549-6.684c.004 0 3.761-88.261 23.911-133.001z" fill="#f2f2f2"/><path d="m152.728 278.638s27.787 13.211 64.781 3.288v48.786h-71.953z" fill="#748baf"/><path d="m176.635 145.637c-20.15 44.74-23.907 133-23.907 133 5.168 3.9 12.393 6.155 20.147 7.379 2.779-60.039 15.521-131.588 17.773-132.417l1.131-7.963z" fill="#bfbfbf"/><path d="m217.509 281.926c-36.994 9.923-64.781-3.288-64.781-3.288l-7.172 52.074h23.273l.83-12.37a12.027 12.027 0 0 1 12.7-11.211 143.041 143.041 0 0 0 28.42-.93 38.544 38.544 0 0 0 6.729-1.626z" fill="#405d7f"/><path d="m145.556 267.221s28.347 20.15 76.5 6.489v18.442s-53.961 14-76.5-7.513z" fill="#373d4c"/><path d="m182.288 142.563s-2.3 15.356 11.722 17.76c18.456 3.163 28.048-21.571 28.048-21.571v-12.241l-28.048-4.1-11.722 8.88z" fill="#ea8f8b"/><path d="m88.371 229.8-11.226-7.9s-13.965 2.461-22.9-11.682l17.303-23.168 28.527 18.784z" fill="#ffd0b0"/><path d="m161.06 151.98s-25.889 28.115-36.745 66.252l-21.254-17.925a2.469 2.469 0 0 0 -3.488.3c-3.676 4.388-12.46 16.138-14.9 30.8a2.464 2.464 0 0 0 .457 1.871c3.655 4.929 23.185 30.3 48.655 45.365-.005-.005 27.275-108.843 27.275-126.663z" fill="#d37667"/><path d="m190.648 131.073s-20.612 35.209-31.128 199.639h-30.62s2.871-105.4 27.329-172.009a22.193 22.193 0 0 0 -.6-16.918l-11.939-26.014a2.365 2.365 0 0 1 2.079-3.35l29.181-.869z" fill="#893131"/><path d="m164.272 85.644s-.222 17.554 6.236 32.565a34.241 34.241 0 0 0 32.149 20.539c13.988-.226 35.923-4.426 48.275-26.348l-13.679-50.161-53.253 9.406z" fill="#ffd0b0"/><path d="m237.252 62.239-53.252 9.406-19.722 14s-.192 15.28 5.027 29.519c37.541 2.231 44.534-37.542 44.534-37.542h21.982a48.691 48.691 0 0 0 5.547-.311z" fill="#ea8f8b"/><path d="m209.793 69.068s-2.744 15.887 9.36 24.163a21.869 21.869 0 0 1 8.128 10.286 23.045 23.045 0 0 0 15.137 14.393s19.7-6.2 19.689-36.215c-.013-30.341-17.263-36.215-17.263-36.215z" fill="#fb3"/><path d="m261.035 69.568c-3.762-19.845-16.191-24.088-16.191-24.088l-35.051 23.588a29.45 29.45 0 0 0 2.1 15.5c.324-.924.6-1.783.835-2.56a6.135 6.135 0 0 1 5.872-4.384h17.217c12.532-.003 20.732-4.533 25.218-8.056z" fill="#f79043"/><path d="m157.8 64.375c.646 8.291 9.087 5.379 17.376 6.042 17.261 1.378 50.872 2.893 75.225-3.328 0 0 9.843-2.756 13.6-12.642a20.538 20.538 0 0 0 1.233-7.749c-.216-10.1-5.026-37.41-50.714-37.41 0 0-43.685 1.39-54.462 40.05-3.594 12.901-2.265 14.983-2.258 15.037z" fill="#899997"/><path d="m254.171 110.566a101.964 101.964 0 0 1 -43.77 12.6 2.96 2.96 0 0 0 -2.654 3.964l5.559 15.253a21.22 21.22 0 0 1 .349 13.546c-5.619 18.122-19.861 74.473-17.72 174.783h79.28v-116.639l-17.938-55.807s4.392-15.683 4.841-42.953a5.345 5.345 0 0 0 -7.947-4.747z" fill="#d37667"/><g fill="#373d4c"><rect height="56.883" rx="5.949" transform="matrix(.84 .542 -.542 .84 111.836 -13.628)" width="11.899" x="73.096" y="154.533"/><path d="m192.384 102.33a2.946 2.946 0 0 1 -.535-5.842l2.685-.5a2.946 2.946 0 1 1 1.077 5.793l-2.684.5a2.958 2.958 0 0 1 -.543.049z"/><path d="m174.811 102.33a2.961 2.961 0 0 1 -.475-.038l-2.351-.372a3.009 3.009 0 0 1 .943-5.944l2.351.373a3.009 3.009 0 0 1 -.468 5.981z"/></g><path d="m71.548 187.05-17.307 23.175a26.352 26.352 0 0 0 7.238 7.711c.255-.036.5-.081.749-.133a12.235 12.235 0 0 0 7.758-5.611l3.339-5.37a2.05 2.05 0 0 1 2.833-.684c3.94 2.579 9.427 1.5 9.427 1.5l.809-10.814z" fill="#ea8f8b"/><path d="m77.052 194.459-10.036 13.641c-6.293 8.55-19.673 6.928-23.487-2.98a21.1 21.1 0 0 1 -1.231-8.908 17.447 17.447 0 0 1 .8-4.278 33.128 33.128 0 0 1 8.634-13.958 17.883 17.883 0 0 1 17.619-4.181 16.434 16.434 0 0 1 6.824 4.287 12.313 12.313 0 0 1 3.366 9.014c-.012.314-.031.641-.058.983a12.444 12.444 0 0 1 -2.431 6.38z" fill="#ffd0b0"/><path d="m66.587 207.3c.359 0 .71-.039 1.064-.063l9.4-12.773a12.444 12.444 0 0 0 2.429-6.384c.027-.342.046-.669.058-.983a12.313 12.313 0 0 0 -3.366-9.014 16.524 16.524 0 0 0 -3.637-2.857 14.986 14.986 0 0 0 -11.521 6.542l-7.342 11.122a7.452 7.452 0 0 0 1.963 10.268l1.792 1.251a15.921 15.921 0 0 0 9.16 2.891z" fill="#ea8f8b"/><path d="m65.188 184.517-7.342 11.127a2.491 2.491 0 0 0 .653 3.415l1.791 1.251a11.011 11.011 0 0 0 15.022-2.3l1.051-1.361a13.211 13.211 0 0 0 3.873 9.008 7.465 7.465 0 0 0 10.712-.61l.012-.013a7.544 7.544 0 0 0 1.257-8.042 32.172 32.172 0 0 0 -14.747-15.872 9.9 9.9 0 0 0 -12.282 3.397z" fill="#ffd0b0"/><path d="m112.377 113.708 5.878 3.219c6.861 3.5 11.756 12.629 11.6 21.381-.341 18.8-11.822 28.5-20.606 32.337a20.665 20.665 0 0 1 -17.788-.745 53.691 53.691 0 0 1 -6.41-3.635z" fill="#373d4c"/><ellipse cx="98.713" cy="139.987" fill="#d3e8ef" rx="29.619" ry="23.503" transform="matrix(.461 -.887 .887 .461 -71.027 162.985)"/><ellipse cx="100.075" cy="140.695" fill="#fff" rx="22.242" ry="17.649" transform="matrix(.461 -.887 .887 .461 -70.922 164.575)"/><path d="m257.277 158.266s4.392-15.683 4.841-42.953a5.345 5.345 0 0 0 -7.947-4.747 103.747 103.747 0 0 1 -16.206 7.194c1.852 4.261 1.329 19.651.865 28.269a13.65 13.65 0 0 1 -4.136 8.989c-5.56 5.465-14.269 18.63-4.09 42.119l14.562 32.234a30.838 30.838 0 0 1 2.284 18.108c-1.541 8.645-4.614 21.169-10.4 30.334a3.742 3.742 0 0 1 -5.991.484l-2.961-3.4a1.016 1.016 0 0 0 -1.693 1.084l7.2 16.03.763 1.694a62.128 62.128 0 0 1 5.442 20.707 56.909 56.909 0 0 1 -1.012 16.3h36.41v-116.639z" fill="#893131"/><path d="m233.3 166.584a26.341 26.341 0 0 0 .286 18.905c.173.467.37.925.578 1.378 1.861 4.047 11.639 25.015 21.405 40.214a20.04 20.04 0 0 1 2.236 17.106c-3.488 10.593-10.09 27.915-19.71 41.866l-3.944 6.335s7.232 19.573 20.2 30.651l5.257-6.368c9.708-13.723 30.131-44.974 37.274-74.254a31.508 31.508 0 0 0 -1.674-19.728l-23.922-56.525a20.268 20.268 0 0 0 -6.228-8.158q-.186-.144-.378-.288c-10.786-8.111-26.641-3.765-31.38 8.866z" fill="#d37667"/><path d="m233.612 292.009s7.778 20.742 20.742 31.821c0 0 2.039-2.623 5.249-7.159-9.177-9.168-16.784-21.678-21.509-30.618-1.203 1.696-3.188 4.389-4.482 5.956z" fill="#893131"/><path d="m128.9 330.712h10.413c.133-69.185 17.236-142.179 24.665-170.642a34.2 34.2 0 0 0 -2.626-24.166l-6.872-13.491c-2.554-6.243.429-9.2 2.128-10.315l-10.842.323a2.365 2.365 0 0 0 -2.079 3.35l11.937 26.014a21.61 21.61 0 0 1 .6 16.918c-26.368 66.753-27.324 172.009-27.324 172.009z" fill="#d37667"/><path d="m119.338 236.426a1.385 1.385 0 0 0 2.741-.172c.73-9.92 2.236-18.022 2.236-18.022l-6.307-5.319a84.03 84.03 0 0 0 1.33 23.513z" fill="#893131"/><path d="m207.7 71.633s-13.932-17.065-49.991-8.1a33.313 33.313 0 0 0 -12.25 6.811 10.291 10.291 0 0 0 4.1 17.361c7.655 2.344 21.108 2.709 44.183-5.453a30.187 30.187 0 0 0 8.508-4.551 20.685 20.685 0 0 0 5.45-6.068z" fill="#566d6a"/><path d="m161.06 89.162s36.44 3.038 52.94-17.517a57.366 57.366 0 0 0 -37.661-10.7z" fill="#566d6a"/><path d="m253.862 28.273a3.943 3.943 0 0 0 .389-.7 25.245 25.245 0 0 0 1.43-4.744 36.174 36.174 0 0 0 -7.906-6.176c.716 2.2.118 5.4-.9 7.824a20.043 20.043 0 0 1 -4.576 5.968 51.171 51.171 0 0 0 -20.533-20.907q-1.7-.119-3.482-.183h-.149c-1.175-.04-2.377-.063-3.613-.063a71.949 71.949 0 0 0 -21.772 4.95c-.079.062-.158.123-.237.189-5.456 4.6-11.618 12.23-15.133 24.543-2.034-.548-3.983-1.149-5.8-1.813a24.464 24.464 0 0 1 -4.934-2.467 49.988 49.988 0 0 0 -3.845 7.041 32.582 32.582 0 0 0 6.037 2.941c2.137.78 4.422 1.482 6.8 2.114a88.86 88.86 0 0 0 -1.13 14.155v9.393c.221.026.439.065.663.083 2.2.175 4.663.353 7.337.516v-9.982c.106-29.965 13.836-41.133 22.555-45.21a131.614 131.614 0 0 0 -4.333 26.463c-1.831-.054-3.646-.135-5.423-.269a4 4 0 0 0 -.6 7.978c1.839.138 3.713.225 5.6.283-.184 5.588-.172 11.771.123 18.6v2.816q1.936.027 3.921.03h.058q1.992 0 4.021-.019v-2.916c0-.059 0-.117 0-.174-.294-6.76-.3-12.857-.108-18.332 2.121-.059 4.256-.148 6.413-.3a56.6 56.6 0 0 0 24-7.189c.138.455.276.91.4 1.378a53.676 53.676 0 0 1 1.788 14.16v10.813q1.977-.333 3.9-.722l.245-.048q1.956-.4 3.854-.85v-9.195a61.642 61.642 0 0 0 -2.073-16.274c-.382-1.4-.81-2.728-1.268-4.018a36.878 36.878 0 0 0 8.281-9.687zm-39.7 13.651c-1.815.129-3.612.214-5.4.272 1.108-14.306 3.558-23.258 5.065-27.626a43.765 43.765 0 0 1 21.913 20.63 48.471 48.471 0 0 1 -21.575 6.724z" fill="#566d6a"/></svg>