<svg id="Flat" height="512" viewBox="0 0 340 340" width="512" xmlns="http://www.w3.org/2000/svg"><path d="m100.671 135.791c11 2.715 42.746 13.956 43.853 53.42a67.846 67.846 0 0 1 -6.85 31.055 75.3 75.3 0 0 0 -6.929 22.937l-20.484 21.991-16.1-33.241-9.03-28.327c-.323-10.121 2.086-22.36 10.549-35.721a33.975 33.975 0 0 0 4.9-12.293c.876-5.023 1.025-11.487-1.8-17.439a1.675 1.675 0 0 1 1.891-2.382z" fill="#9ee5fe"/><path d="m132.306 263.1a47.769 47.769 0 0 1 -1.557-19.892c-13.024-2.106-23.517-14.274-26.914-18.645a146.593 146.593 0 0 0 -18.7-20.933c.986 30.665 25.123 61.569 25.123 61.569l13.442-1.28z" fill="#4db7d5"/><path d="m168.361 171.475s31.247 11.968 51.066-5.884l-24.34-27.481-22.687 22.907z" fill="#e87b40"/><path d="m219.2 114.659a30.113 30.113 0 0 1 10.184 2.263 15.027 15.027 0 0 0 13.011-.758 98.363 98.363 0 0 0 17.805-12.976 174.942 174.942 0 0 0 -19.54-20.606l2.055-16.933s19.628 13.323 35.1 29.717a11.116 11.116 0 0 1 -.037 15.336c-8.26 8.607-23.152 22.779-40.034 32.568 0 0-27.037-4.819-18.544-28.611z" fill="#f2919e"/><path d="m178.768 200.6s-8.489 13.66-9.755 26.635c-1.48 15.172.123 28.734 12.255 37.964l15.033 8.745a125.306 125.306 0 0 1 -44.722-6.008s-3.68 43.426 68.815 50.752c56.582 5.718 82.967-13.031 95.767-29.43 8.274-10.6 10.346-35.035 10.346-35.035a43.006 43.006 0 0 0 -16.393-26.623 62.816 62.816 0 0 0 -21.614-10.179 73.779 73.779 0 0 0 -21.372-2.41c-10.483.271-30.323-.739-36-11.674z" fill="#a6e2d0"/><path d="m209.467 241.558a18.118 18.118 0 0 0 9.2-11.933c2.267-8.892-3.414-13.774-3.414-13.774a128.141 128.141 0 0 1 -14.288-14.094l-19.7-1.031z" fill="#6bac97"/><path d="m272.764 259.708c-8.338-1.3-20.559-1.832-37.445.516-10.118 1.407-18.543 2.62-25.746 3.46a23.829 23.829 0 0 1 -15.5-3.352c-3.323-2.1-7.656-6.408-7.131-10.477 1.032-8 7.036-9.978 12.284-8.246 5 1.649 10.444 1.393 13.759-2.86a11.065 11.065 0 0 0 -1.1-14.5l-7.027-7.094-26.805-16.09a41.625 41.625 0 0 0 -9.127 12.787l-.01.014a41.618 41.618 0 0 0 -3.811 12.73c-3.44 28.292 13.72 38.7 15.49 40.046a40.58 40.58 0 0 0 15.711 7.3s22.693 1.409 41.443-5.506c12-4.425 25.061-5.417 34.771-5.358a1.693 1.693 0 0 0 .244-3.37z" fill="#6bac97"/><path d="m242.715 65.649s10.075-3.932 10.075-21.132c0-9.639-4.554-15.42-8.557-18.64a13.666 13.666 0 0 0 -13.48-2.257 15.349 15.349 0 0 0 -3.272 1.731s-4.836-7.053-18-7.053c0 0-29.544 1.771-31.45 38.258v24.8s.487 14.276-12 21.074c0 0-28.023 17.508-20.128 47.006 6.914 25.828 35.629 23.478 35.629 23.478l37.6-92.034z" fill="#ffb664"/><path d="m202.854 65.74-.922.39a8.353 8.353 0 0 0 -5.085 8.2 82.676 82.676 0 0 1 -3.171 27.824 7.434 7.434 0 0 1 -5.938 5.275c-6.662 1.057-19.133 5.744-23.109 25.746-3.153 15.859-12.024 16.893-19.053 14.864.108.466.2.927.326 1.4 6.914 25.828 35.629 23.478 35.629 23.478l34.169-83.649z" fill="#e87b40"/><path d="m188.11 147.439 3.662 18.81.805 2.918a18.332 18.332 0 0 1 -1.1 12.717l-7.89 16.669 27.522 13.674h.334a25.445 25.445 0 0 0 19.686-8.891s-6.307-13.839-1.044-28.189c0 0 7.661 1.158 13.349-6.564a18.619 18.619 0 0 0 2.993-15.205 23.046 23.046 0 0 0 -9.889-13.945 67.418 67.418 0 0 1 -10.25-8.454 17.367 17.367 0 0 1 -4.832-11.435 95.954 95.954 0 0 1 2.277-25.094l-20.877-20.14s3.608 22.711-6.674 39.676z" fill="#ffcacf"/><path d="m189.163 186.769-5.578 11.784s5.2 13.532 27.522 13.669a168.306 168.306 0 0 1 -21.944-25.453z" fill="#f2919e"/><path d="m223.731 94.451-20.877-20.14a75.572 75.572 0 0 1 -.174 20.552 36.6 36.6 0 0 0 19.062 12.293 88.676 88.676 0 0 1 1.989-12.705z" fill="#f2919e"/><path d="m227.609 40.618s2.934 6.914 12.912 16.071a12.789 12.789 0 0 1 4.087 9.56c-.075 8.2-1.192 22.556-7.607 29.936a9.847 9.847 0 0 1 -8.424 3.269 37.113 37.113 0 0 1 -14.432-4.595 23.231 23.231 0 0 1 -11.291-20.124v-2.735l.85-5.923s17.55-8.617 23.905-25.459z" fill="#ffcacf"/><path d="m226.454 143.228a50.269 50.269 0 0 1 2.242 14.216l4.343-1.2s.511-8.7-5.047-14.633c-.839-.897-1.959.289-1.538 1.617z" fill="#f2919e"/><path d="m230.083 175.148s7.661 1.158 13.349-6.564a17.744 17.744 0 0 0 2.768-5.72l-2.924-.622h-41.946s2.774 21.116 26.848 21.325a34.257 34.257 0 0 1 1.905-8.419z" fill="#f2919e"/><path d="m227.628 150.683a41.591 41.591 0 0 0 15.563-2.854 5.578 5.578 0 0 1 7.592 4.45c.663 5.426.118 12.448-5.934 15.946a12.97 12.97 0 0 1 -8.588 1.436c-3.558-.583-8.472-2.412-10.779-7.907z" fill="#a6acf7"/><path d="m223.78 73.236a3.015 3.015 0 0 1 -.462-.036l-2.261-.349a3 3 0 1 1 .916-5.93l2.261.35a3 3 0 0 1 -.454 5.965z" fill="#e8808f"/><path d="m235.562 73.236a3 3 0 0 1 -.454-5.965l1.771-.35a3 3 0 1 1 .916 5.93l-1.771.349a3.035 3.035 0 0 1 -.462.036z" fill="#e8808f"/><path d="m217.894 198.583a2.5 2.5 0 0 1 -2.5-2.5v-1.631a2.5 2.5 0 0 1 5 0v1.631a2.5 2.5 0 0 1 -2.5 2.5z" fill="#f2919e"/><path d="m200.215 232.592a8.221 8.221 0 0 0 11.159-1.074l.135-.154a8.356 8.356 0 0 0 .344-10.587s-8.127-7.245-15.8-15.51a70.222 70.222 0 0 1 -12.915-15.9 11.806 11.806 0 0 1 -1.266-8.836c1.4-5.572 4.111-15.811 7.867-27.294a75.124 75.124 0 0 0 3.092-13.6l3.351-25.648s-19.16-4.164-23.776 18.77c0 0-5.051 27.655-7.526 46.49a28.973 28.973 0 0 0 4.249 19.322 134.364 134.364 0 0 0 31.086 34.021z" fill="#ffcacf"/><path d="m241.031 164.611c-7.514-1.429-8.583-14.162-8.583-14.162a33.328 33.328 0 0 1 -4.82.234l-2.146 11.071a11.62 11.62 0 0 0 5.066 5.876 16.174 16.174 0 0 0 5.712 2.034 12.97 12.97 0 0 0 8.588-1.436 11.907 11.907 0 0 0 5.682-8.055c-1.93 2.765-4.96 5.302-9.499 4.438z" fill="#6b73c1"/><path d="m208.045 150.533a53.756 53.756 0 0 0 15.948-1.405 5.968 5.968 0 0 1 7.363 6.122 34.2 34.2 0 0 1 -.673 5.125c-2.168 4.063-3.122 8.429-14.353 10.236a18.75 18.75 0 0 1 -15.544-10.132q-.079-.431-.14-.876-.109-.827-.172-1.713a7.006 7.006 0 0 1 7.571-7.357z" fill="#a6acf7"/><path d="m230.73 160.15c-1.023 3.156-4.98 7.609-13.783 7.48a21.677 21.677 0 0 1 -16.145-7.154c2.984 16.142 28.256 16.024 29.928-.326z" fill="#6b73c1"/><path d="m202.051 162.237a51.954 51.954 0 0 0 18.956-.693.61.61 0 0 1 .405 1.146 35.4 35.4 0 0 1 -13.963 3.3 8.991 8.991 0 0 1 -5.398-3.753z" fill="#6b73c1"/><path d="m233.554 157.839a57.3 57.3 0 0 0 11.627-2.183.546.546 0 0 1 .472.972 23.719 23.719 0 0 1 -10.9 4.024z" fill="#6b73c1"/><path d="m197.34 140.136a13.337 13.337 0 0 0 -.285-6.432.9.9 0 0 0 -1.77.163 39.234 39.234 0 0 1 -.883 5.045l-5.5 16.922 2.873 10.415c1.562-7.407 4.662-22.049 5.565-26.113z" fill="#f2919e"/><path d="m244.049 61.919a12.583 12.583 0 0 0 -3.528-5.654c-9.978-9.156-12.912-16.071-12.912-16.071-6.774 18.1-24.755 25.546-24.755 25.546v5.832a42.786 42.786 0 0 0 23.408-19.942 2.639 2.639 0 0 1 4.213-.64 40.825 40.825 0 0 0 4.61 3.971c3.703 2.77 6.973 4.594 8.964 6.958z" fill="#f2919e"/><path d="m97.844 225.582s-9.366-22.706 2.453-42.015a60.236 60.236 0 0 0 8.154-20.035 1.335 1.335 0 0 1 2.645.225 48.3 48.3 0 0 1 -4.778 21.909c-9.143 19.624 2.4 48.744 2.4 48.744z" fill="#4db7d5"/><path d="m114.815 244.76s-6.936-29.692.868-46.177a67.626 67.626 0 0 0 5.8-17.555 1.335 1.335 0 0 1 2.638.012 44.807 44.807 0 0 1 -.854 19.07 84.13 84.13 0 0 0 -.669 44.65z" fill="#4db7d5"/><path d="m231.367 308.549c-49.278 1.025-71.887-27.276-79.787-40.62a109.771 109.771 0 0 1 -24.943-11.59 8.3 8.3 0 0 0 -8.746-.142l-.4.242a8.243 8.243 0 0 0 -2.895 11.1c8.089 14.446 33.756 45.829 106.251 53.155 56.582 5.718 83.984-14.014 96.784-30.413a45.194 45.194 0 0 0 8.864-36.06c-5.695 30.172-34.166 53.059-95.128 54.328z" fill="#6bac97"/><path d="m13.808 203.315a1.679 1.679 0 0 0 -.324 2.943 33.729 33.729 0 0 1 14.243 20.849c2.3 10.742 4.093 32.719 17.186 48.086 0 0 16.907 11.642 30.687 13.762 41.211 6.34 57.437.862 57.437.862a95.147 95.147 0 0 1 -21.923-31.809c-1.127-2.68-3.616-11.391-3.616-11.391-12.526-23.952-42.466-64.072-93.69-43.302z" fill="#9ee5fe"/><g fill="#4db7d5"><path d="m44.916 275.189c6.578 7.721 16 13.775 29.785 15.895 41.211 6.34 61.358.427 61.358.427s-15.536-15.124-23.893-35.009c-1.127-2.679-2.681-6.079-4.67-9.884-6.936 33.034-43.864 31.566-62.58 28.571z"/><path d="m44.349 231.454c1.5 15.331 8.562 37.13 34.263 51.649l10.725-4.322s-25.173-6.726-39.667-48.462a2.739 2.739 0 0 0 -5.321 1.135z"/><path d="m67.878 236.53c3.98 9.135 11.856 22.294 27.09 34.872l4.714-7.43a232.774 232.774 0 0 1 -28.511-29.4 1.931 1.931 0 0 0 -3.293 1.958z"/></g></svg>