<svg id="flat" height="512" viewBox="0 0 340 340" width="512" xmlns="http://www.w3.org/2000/svg"><path d="m70.346 207.4s59.968 26.645 70.405 77.332l-6.551 14.076s3.46-19.649-18.986-26.561a26.036 26.036 0 0 0 -4.33-.891c-8.998-1.156-49.732-9.446-40.538-63.956z" fill="#4d6d38"/><path d="m181.579 269.568s6.466-42.684 58.558-46.9c20.973-1.7 34.378-3.759 42.91-5.618 0 .003-2.029 81.267-101.468 52.518z" fill="#88a873"/><path d="m142.4 304.34a3.5 3.5 0 0 1 -2.488-5.962c47.337-47.842 106.342-64.843 108.83-65.543a3.5 3.5 0 0 1 1.9 6.738c-.592.167-59.76 17.247-105.751 63.729a3.489 3.489 0 0 1 -2.491 1.038z" fill="#4d6d38"/><path d="m110.225 322.779h19.575c36.43-40.018 46.729-85.079 48.674-117.224 2.327-38.442-6.288-66.539-6.656-67.716a7 7 0 0 0 -13.365 4.168c.083.268 8.286 27.226 6.015 63.217-2.938 46.626-21.19 86.155-54.243 117.555z" fill="#88a873"/><g fill="#f48d40"><path d="m172.585 104.989s16.182-49.67 59.261-52.4a15.863 15.863 0 0 1 14.554 24.077c-10.335 16.813-30.449 38.187-66.938 41.892z"/><path d="m140.147 127.085s-52.235.741-67.6 41.078a15.863 15.863 0 0 0 18.68 21.037c19.121-4.891 45.494-17.77 59.842-51.523z"/><path d="m176.818 134.2s48.873 18.451 49.618 61.61a15.863 15.863 0 0 1 -24.721 13.431c-16.32-11.1-36.745-32.174-38.767-68.795z"/><path d="m156.381 103.693s2.343-53.324-37.889-71.395a16.208 16.208 0 0 0 -22.564 17.81c3.854 19.793 15.426 47.459 49 64.1z"/></g><path d="m156.805 101.229s-22.787-47.008 6.357-78.85a15.863 15.863 0 0 1 27.183 7.253c4.213 19.281 4.544 48.629-19.175 76.6z" fill="#ffb655"/><path d="m151.462 137.226s-40 33.6-26.4 74.57a15.862 15.862 0 0 0 27.774 4.481c11.72-15.879 24.008-42.533 13.78-77.754z" fill="#ffb655"/><path d="m179.24 118.13s47.008-22.786 78.849 6.358a15.862 15.862 0 0 1 -7.253 27.182c-19.281 4.213-48.628 4.545-76.6-19.175z" fill="#ffb655"/><path d="m142.4 114.775s-33.6-40-74.571-26.4a15.863 15.863 0 0 0 -4.48 27.775c15.879 11.72 42.533 24.007 77.754 13.78z" fill="#ffb655"/><circle cx="158.793" cy="120.935" fill="#fff" r="24.594"/><circle cx="158.793" cy="120.935" fill="#fff" r="29.966"/></svg>