<svg id="icon" height="512" viewBox="0 0 340 340" width="512" xmlns="http://www.w3.org/2000/svg"><path d="m207.915 245.556s-33.822 28.974-62.3 31.67v24.715h58.253z" fill="#274f89"/><path d="m142.555 235.111s-2.437 13.478-3.747 23.723a11.241 11.241 0 0 0 5.29 11.053c9.457 5.739 27.237 18.2 32.894 33.623l-30.875 4.037-57.949-23.987-22.562-48.449 19.238-6.887 52.961-3.088z" fill="#fc6565"/><path d="m137.805 225.136-52.961 3.088-13.134 5.385.757 3.948a44.654 44.654 0 0 0 -4.79 2l20.492 44 1.42.588c-.033-9.534-.031-19.91.106-23.875.278-8.072 6.556-9.365 6.556-9.365a38.684 38.684 0 0 0 17.2-7.235 3.436 3.436 0 0 1 3.818-.3 27.7 27.7 0 0 0 23.58 1.751c.921-5.646 1.71-10.008 1.71-10.008z" fill="#c14040"/><path d="m140.708 44.031s4.71 4.02 3.936 35.141a14.707 14.707 0 0 0 2.807 9.031 33.727 33.727 0 0 0 4.572 5.121 5.89 5.89 0 0 1 1.595 6.186c-1.556 4.815-4.237 13.647-6.556 23.969a11.05 11.05 0 0 1 -12.91 8.407l-23.616-3.234s-.551 10.468 2.723 26.926a24.783 24.783 0 0 0 10.421-3.019s10.986-6.517 21.692-2.483a16.427 16.427 0 0 1 4.188 2.423c4.027 3.1 17.359 12.026 37.5 12.026 24.375 0 59.323-.614 59.323-.614l-22.445 25.425s-43.6 5.728-79.592-4.313c0 0 6.618 9.8 6.841 21.406l-38.138 19.7-36.789 6.424.9 19.551a20.142 20.142 0 0 0 8.272 15.346 202.715 202.715 0 0 0 37.868 21.805 33.013 33.013 0 0 0 12.267 2.682c7.28.187 19.947 1.179 28.222 5.543l-1.794 20.714a5.009 5.009 0 0 1 -7.195 4.071c-7.146-3.514-18.892-8.856-28.81-11.318-3.124-.775-6.22-1.619-9.28-2.618-13.591-4.439-44.754-16.07-57.9-33.06a23.873 23.873 0 0 1 -4.477-10.1c-2.524-13.006-9.592-52.635-9.468-87.99a15.594 15.594 0 0 1 15.8-15.552l15.318-.7a6.377 6.377 0 0 0 6.092-6.126c.192-5.383 1.466-14.906-.734-29.425l-7.076-44.834s24.819-29.472 26.813-31.242 39.63-5.269 39.63-5.269z" fill="#ffe1d2"/><g fill="#f7a392"><path d="m76.906 246.548-.646-14 3.008-.525-14.653-12.888c-.458 18.653 12.291 27.413 12.291 27.413z"/><path d="m109.566 198.185a110.293 110.293 0 0 1 -1.213 20.247l4.735 4.912 3.242-7s.707-8.509-4.9-18.8a1 1 0 0 0 -1.864.641z"/><path d="m74.269 194.085a31.6 31.6 0 0 0 -2.439 15.231l-6.224 2.867s-1.077-11 6.8-19.367a1.142 1.142 0 0 1 1.863 1.269z"/></g><path d="m76.963 202.405c11.134.877 28.356 4.082 35.881 15.236a51.245 51.245 0 0 1 28.323-24.34 10.436 10.436 0 0 1 12.7 4.962 40.832 40.832 0 0 1 4.907 17.485c.479 21.918-25.737 34.28-42.485 20.133a22.576 22.576 0 0 1 -2-1.906s-13.108 16.457-32.355 10.135a24.571 24.571 0 0 1 -15.85-17.04 45.631 45.631 0 0 1 -1.648-13.6 11.622 11.622 0 0 1 12.527-11.065z" fill="#fc6565"/><path d="m139.114 118.477c-6.427 0-10.293-4.949-11.565-7.879a3.5 3.5 0 0 1 6.41-2.813c.094.2 1.757 3.692 5.157 3.692a.176.176 0 0 1 .023 0 3.5 3.5 0 0 1 .01 7z" fill="#f7a392"/><path d="m100.154 127.169a1.246 1.246 0 0 0 -1.007 2.162l4.046 3.619a6.374 6.374 0 0 1 2.078 3.983l2.046 16.88a2.379 2.379 0 0 0 2.583 2.087l3.356-.317c-3.274-16.458-2.723-26.926-2.723-26.926z" fill="#f7a392"/><path d="m113.259 64.258s-5.133 12-1.158 15.564a12.586 12.586 0 0 0 2.771 1.875 14.2 14.2 0 0 0 10.035.821 41.724 41.724 0 0 0 19.816-11.618c-.172-23.581-4.015-26.868-4.015-26.868s-4.541.421-10.548 1.046l-5.175 2.159z" fill="#f7a392"/><path d="m144.47 62.374c-2.616 6.563-9.644 12.712-21.489 18.048-3.112 1.4-8.126 1.417-10.88-.6-2.849-2.086-7-3.751-11.572-1.087 0 0-7 5.095-3.737 15.89a8.467 8.467 0 0 0 3.328 4.616c.149.1.3.2.465.29a4.283 4.283 0 0 1 -.622 7.623c-3.74 1.511-9.114 2.134-16.65.041 0 0 4.947 10.568-1.889 19.653a18.6 18.6 0 0 1 -16.176 7.112 30.513 30.513 0 0 1 -9.72-2.307 18.615 18.615 0 0 1 -11.256-21.053q.12-.531.269-1.077a17.7 17.7 0 0 1 20.169-12.578c.11.019.221.04.333.061 0 0-26.351-30.919 0-60.081 0 0 17.448-21.825 47.313-16.906 0 0 16.255 2.748 25.342 11.628a27.991 27.991 0 0 1 6.772 30.727z" fill="#373d4c"/><path d="m223.933 189.336 5.6-6.149c-.911.132-1.838.276-2.8.44-34.366 5.871-71.206-.332-78.8-2a8.384 8.384 0 0 1 -2.681-1.1l-2.842-1.793a.7.7 0 0 0 -1.015.881 55.476 55.476 0 0 0 2.948 5.406c35.988 10.043 79.59 4.315 79.59 4.315z" fill="#f7a392"/><path d="m224.466 118.487s9.337 19.14 8.4 39.214l26.376-27.176-3.923-16.932-1.909-20.548s-17.273 5.368-28.944 25.442z" fill="#ffd0b0"/><path d="m276.933 138.54-6.575-16.24a5.951 5.951 0 0 0 -9.019-2.574c-12.492 9.059-39.963 33.991-49.449 83.15l3.933 1.689z" fill="#274f89"/><path d="m274.43 135.3c-19.265 10.215-76.028 47.9-77.64 138.007l.482 19.373 57.018-38.739 37.152-96.241-8.064-19.189a6.443 6.443 0 0 0 -8.948-3.211z" fill="#4781c6"/><path d="m137.464 300.36a34.961 34.961 0 0 0 -1.309 13.792c6.991 2.581 13.852 5.757 18.644 8.113a5.009 5.009 0 0 0 7.195-4.071l1.794-20.714c-5.277-2.783-12.336-4.191-18.65-4.9a12.339 12.339 0 0 0 -7.674 7.78z" fill="#f7a392"/><path d="m185.647 290.743a33.2 33.2 0 0 0 -15.227-5.043 9.069 9.069 0 0 0 -7.988 3.944l-.057.082a9.345 9.345 0 0 1 -5.489 3.8l-6.364 1.554a11.529 11.529 0 0 0 -8.773 11.917l.192 3.081a20.015 20.015 0 0 0 21.1 18.74c7.561-.427 15.945-1.3 22.6-3.019z" fill="#ffd0b0"/><path d="m224.466 118.487a90.03 90.03 0 0 1 4.554 12.086l11.828-6.946a13.6 13.6 0 0 0 6.063-7.573l.81-2.527a13.607 13.607 0 0 1 5.638-7.313l1.2-.768-1.154-12.4s-17.268 5.367-28.939 25.441z" fill="#ea8f8b"/><path d="m194.968 53.239a183.912 183.912 0 0 0 .747 26.594 14.443 14.443 0 0 1 -2.46 9.668l-5.375 7.815a6.05 6.05 0 0 0 -.239 6.477 94.46 94.46 0 0 1 8.974 20.836 8.219 8.219 0 0 0 11.312 5.152l27.238-12.369a13.263 13.263 0 0 0 6.468-6.328l1.935-4.025a11.511 11.511 0 0 1 4.708-5 29.767 29.767 0 0 0 8.468-6.278l7.951-8.7-11.888-50.98-50.98 6.858z" fill="#ffd0b0"/><path d="m201.291 115.383c6.424-.226 10.112-5.309 11.281-8.281a3.5 3.5 0 0 0 -6.5-2.586c-.087.207-1.626 3.752-5.024 3.871h-.023a3.5 3.5 0 0 0 .236 7z" fill="#ea8f8b"/><path d="m194.968 53.239s-.336 5.643-.09 13.755a20.985 20.985 0 0 0 9.639-5.837c6.446-6.718 8.646-16.471 22.2-15.764s12.083-6.012 12.083-6.012l-1.227-1.238-35.749 4.809z" fill="#ea8f8b"/><path d="m219.312 46.086c-6.82 1.38-15.08 4.713-20.4 12.569a7.056 7.056 0 0 1 -12.812-2.9c-.028-.19-.056-.381-.082-.574-2.346-17.092 7.067-31.485 22.6-38.983a52.739 52.739 0 0 1 25.217-5s25.405-.046 33.141 21.7c0 0 18.927 5.771 23.483 28.223a39.947 39.947 0 0 1 -.847 19.224c-3.175 10.768-11.712 27.965-34.3 33.253l-2.684-14.176a23.414 23.414 0 0 0 4.141-4.227c4.928-6.848-1.844-18.514-13.183-15.6a6.611 6.611 0 0 1 -1.641.231c-2.249 0-7.663-.737-10.625-7.38a11.486 11.486 0 0 1 -.89-3.5 107.475 107.475 0 0 1 -.558-13.917 8.839 8.839 0 0 0 -10.56-8.943z" fill="#fc8860"/><path d="m289.617 80.34a39.947 39.947 0 0 0 .847-19.224 38.943 38.943 0 0 0 -6.886-15.723c-3.561 12.207-14.828 25.578-31.627 26.922-20.833 1.667-22.085-18.153-22.085-18.153h-.006c.018.283.032.568.022.859a107.475 107.475 0 0 0 .558 13.917 11.486 11.486 0 0 0 .89 3.5c2.962 6.643 8.376 7.379 10.625 7.38a6.6 6.6 0 0 0 1.641-.231c11.339-2.91 18.111 8.756 13.183 15.6a23.414 23.414 0 0 1 -4.141 4.227l2.684 14.176c22.578-5.285 31.12-22.482 34.295-33.25z" fill="#ed6845"/><path d="m280.893 185.028c-4.431-16.368-8.007-29.122-8.007-29.122s-21.34 5.664-31.981 46.412l-7.03 34.413a23.453 23.453 0 0 1 -6.1 11.612c-6.2 6.414-17.774 17.383-30.977 24.962-.111 6.208.035 12.659.477 19.373l57.018-38.739z" fill="#274f89"/><path d="m296.136 163.881a11.944 11.944 0 0 0 -14.179-11.537c-9.422 1.839-21.574 9.468-29.158 34.255 0 0-8.59 31.332-10.563 52.763a20.026 20.026 0 0 1 -5.168 11.74 203.947 203.947 0 0 1 -51.421 39.641v35.057s56.838-16.082 85.264-56.788a48.767 48.767 0 0 0 4.807-8.739c5.656-13.211 21.175-53.495 20.418-96.392z" fill="#4781c6"/></svg>