<svg id="flat" height="512" viewBox="0 0 500 500" width="512" xmlns="http://www.w3.org/2000/svg"><path d="m367.66 257.355c1.067-24.048-26.231-36.213-29.371-58.415l-10.122 3.737c2.08 24.34 37.965 43.733 22.11 69.764z" fill="#4f424c"/><path d="m375.189 266.52c-13.47 14.135-28.857 23.463-44.665 32.484 0 0-3.792 2.9-5.654-2.418s4.6-11.656 4.6-11.656c19.485-10.357 33.642-23.279 43.292-36.7 0 0 5.9.023 8.425 5.063s-5.998 13.227-5.998 13.227z" fill="#e57e80"/><path d="m330.523 299c-5.182-2-3.215-9.391-1.056-14.076-8.43 4.44-16.522 7.832-26.18 12.614 0 0-8.506 3.752-2.6 15.27a243.958 243.958 0 0 0 29.836-13.808z" fill="#bc5b65"/><path d="m377.758 254.393c1.06 4.055-.54 8.308-2.575 12.121a75.846 75.846 0 0 0 18.563-33.207c-3.637-2.313-7.61-2.807-12.233.229a97.583 97.583 0 0 1 -8.753 14.69 10.347 10.347 0 0 1 4.998 6.167z" fill="#bc5b65"/><path d="m401.88 199.1-12.6-2.274c.863 10.756-1.485 23.617-7.771 36.708 4.964-1.484 9.859 3.109 7.723 8.125-14.4 34.114-56.679 54.431-65.99 59.51-3.687 2.011-15.335 9.19-19.556 6.787-2.776-1.58-3.213-6.519-.395-10.414-17.391 8.558-35.62 19.258-42.481 33.611-17.24 36.072 4.781 53.556 4.781 53.556.979-39.046 47.638-73.73 72.244-86.761 51.665-27.362 65.84-68.636 64.045-98.848z" fill="#4f424c"/><path d="m177.251 287.119c5.494 55.744 35.174 74.225 48.944 81.026l-5.495 40.467c-36.366-43.875-51.515-72.03-52.561-119.566z" fill="#4f424c"/><path d="m241.644 468.044c6.56-31.32-28.892-53.934-31.223-84.365-1.314-42.4 43.5-59.522 43.775-115.981 0 0 21.427-9.377 30.409 12.734 0 0 .716 36.7-18.2 66.7s24.71 79.368 24.71 79.368 24.38 30.433 18.027 52.7c0 0-38.037 11.5-62.462 2.226z" fill="#e57e80"/><path d="m282.212 296.061 2.393-15.629c-8.982-22.111-30.405-12.732-30.405-12.732-.12 25.193-10.953 48.476-25.786 68.335 3.562 4.765 10.648 3.623 14.856.163 12.081-8.942 17.209-47.41 38.942-40.137z" fill="#bc5b65"/><path d="m266.407 347.137a101.762 101.762 0 0 0 6.8-12.812l-3.811.119c-19.248 19.306-22.289 48.793-12.044 74.055 9.86 24.825 2.229 44.872-15.467 45.365a38.18 38.18 0 0 1 -.245 14.18l5.036 13.384c24.425 9.279 62.462-2.226 62.462-2.226 6.353-22.268-18.027-52.7-18.027-52.7s-43.619-49.361-24.704-79.365z" fill="#bc5b65"/><path d="m270.079 381.83c-8.384-32.5 16.061-61.567 22.828-92.073 1.818-8.23 2.033-16.7 2.529-25.113a151.521 151.521 0 0 0 -4.206-44.084c-29.372-16.656-44.6 5-44.6 5a105.043 105.043 0 0 1 7.564 42.139c36.826 1.669 25.43 33.915 15.233 55.8-7.566 17.29-14.9 35.645-12.424 54.9 2.811 21.868 18.63 35.486 30.392 52.782 21.805 32.064 6.7 40.5-2.079 32.732a5.121 5.121 0 0 0 -4.327-1.272 5.05 5.05 0 0 0 -4.407 3.678c-3.978 14.925-30.536 14.142-34.95 1.726-1.632 7.816-5.636 15.092-10.789 21.366a2.72 2.72 0 0 0 2.121 4.431h79.5a3.553 3.553 0 0 0 3.528-3.175c5.334-64.205-30.309-65.431-45.913-108.837z" fill="#4f424c"/><path d="m106.976 136.617h305.936c9.231-57.08-24.95-78.168-24.95-78.168a51.894 51.894 0 0 0 -31.484-5.114c4.183-1.452 4.9-7.679 2.147-11.149-6.134-7.327-17-3.524-25.2-5.294 2.991-4.192.394-10.514-4.055-13.109s-9.947-2.414-15.058-1.783-10.348 1.616-15.35.39c-5.206-1.275-9.515-4.79-14.1-7.562a54.913 54.913 0 0 0 -45.072-5.046c-13.371-5.492-30.509-5-42.308 3.352a25.177 25.177 0 0 1 -5.38 3.344c-4.173 1.583-8.839.154-13.29.479s-9.482 4.27-7.791 8.4a83.049 83.049 0 0 0 -19.6 9.619s-49.179 48.236-44.445 101.641z" fill="#8fad96"/><path d="m462.889 146a19.365 19.365 0 0 0 -7.619-13.863c-.842-12.7-10.326-23.866-22.079-28.757-5.485-2.282-11.851-3.671-15.414-8.424-1.788-2.385-2.614-5.329-3.648-8.124-4.59-12.409-14.361-22.466-26.172-28.369 17.643 22.439 2.37 30 10.694 41.721 5.492 7.313 11.4 20.436-7.03 29.538-5.965 2.947-17.073-4.027-23.131-5.782-4.993-1.446-10.253-.817-15.356-.6-7.427.57-10.813-.233-13.267-7.67-2.176-4.746-6-6.885-11.159-6.71-4.847.164-11.111 3.183-14.171-2.1-4.547-7.851-2.019-18.144-10.87-23.557-2.7-1.654-5.475 1-5.067 3.753a11.128 11.128 0 0 1 -1.035 7.172c-3.317 5.874-7.806 5.612-12.859 6.159a21.633 21.633 0 0 0 -14.076 7.33c-4.089 4.377-8.216 12-14.961 12.33-9.29-.48-6.584-14.843-27.707-6.664-7 2.8-10.924 3.189-15.284-3.843-6.365-10.34-27.778-14.94-25.432-28.77.781-3.618-4.091-5.914-6.09-2.568-4.641 7.768-4.89 18.384-13.015 22.381-12.321 6.061-57.165-3.063-16.714-65.6a83.609 83.609 0 0 0 -21.727 20.956c-1.519 2.529-3.5 3.559-6.408 2.921-3.708-.395-7.739.168-10.554 2.615s-3.823 7.14-1.419 9.992c-4.735.4-9.728.895-13.585 3.67s-5.887 8.677-2.934 12.4c-6.793.472-59.943 31.266-6.709 103.513 0 0 66.113 25.6 160.107 25.6s113.855-32.66 113.855-32.66l68.427 35.449c15.308-28.602 30.826-57.396 32.409-73.439z" fill="#617a68"/><path d="m279.28 271.484c1.767 19.761-5.16 38.412-14.154 55.694-19.71 37.342-23.465 60.269-2.991 98.514 8.622 17.609 16.566 34.383 16.334 54.423-.054 4.7 6.667 4.472 7.148 0 3.1-38.26-34.84-66.848-31.273-105.3 3.046-35.943 37.452-66.4 28.482-103.8-.565-1.895-3.638-1.615-3.546.479z" fill="#4f424c"/><path d="m266.771 257.355c-.585 29.127-5.476 47.272-21.307 71.97-4.938 7.986-10.139 15.874-13.78 24.565-3.436 8.2-6.346 18.71-3.606 27.494.794 2.546 4.071 1.808 4.374-.592.274-23.089 9.121-34.021 20.586-52.81 12.5-20.9 21.871-46.412 17.554-71.144-.4-2.294-3.654-1.525-3.821.517z" fill="#4f424c"/><path d="m232.6 399.533c4.122-.014 4.112-6.282 0-6.308-4.118.014-4.109 6.282 0 6.308z" fill="#4f424c"/><path d="m236.656 410.663c1.331 5.682 5.667 11.02 8.242 16.26 8.526 16.689 12.707 35.9 7.887 54.325-.906 3.659 4.63 5.195 5.651 1.558 5.619-19.208 1.49-39.758-7.832-57.129-2.971-5.674-6.28-13.011-11.5-16.894-1.244-.925-2.744.6-2.444 1.88z" fill="#4f424c"/><g fill="#617a68"><path d="m198.459 71.292c-3.259 4.152-.018 14.4 4.447 16.845a2.539 2.539 0 0 0 3.684-2.832c-.556-2.353-2.15-4.4-2.913-6.705-.716-2.171-.429-5.018-1.739-6.86-.758-1.065-2.479-1.625-3.479-.448z"/><path d="m209.107 70.971c-.284 2.215-.2 5.377 1.953 6.641 4.834 1.823 4.95-4.452 3.208-7.315a2.858 2.858 0 0 0 -5.161.674z"/><path d="m225.319 69.359a2.66 2.66 0 0 0 -4.426-1.169 2.468 2.468 0 0 0 -.729 1.521 2.624 2.624 0 0 0 3.622 2.772 1.323 1.323 0 0 0 .584-.34 2.606 2.606 0 0 0 .949-2.784z"/><path d="m380.347 96.187a14.445 14.445 0 0 1 4.741 9.141c.345 3.2-1.236 6.04-1.032 9.122.108 1.633 1.971 3.129 3.544 2.034 7.1-6.007 2.331-19.3-4.9-23.352a1.954 1.954 0 0 0 -2.358 3.055z"/><path d="m368.738 96.8c1.9 2.12 2.342 5.217 4.537 7.026a2.349 2.349 0 0 0 3.426-1.394c.827-3.226-2.709-6.807-5.061-8.534-1.694-1.244-4.1 1.211-2.9 2.9z"/><path d="m361.107 95.366c-.815-3.186-5.653-1.914-4.816 1.265.868 3.1 5.6 1.86 4.816-1.265z"/></g><path d="m462.94 146.507c-5.867 24.162-20.394 15.9-22.988 34.014-4.149 28.961-28.964 3.4-28.964 3.4-8.432-6.5-14.305-8.3-32.477-8.765-4.817-.123-9.279.287-13.8-1.87-7.066-4.494-9.3-7.9-17.419-2.409-3.975 2.432-8.55 4.1-11.895 7.344-10.864 10.539-36.8 8.585-34.149-8.558 2.823-18.292 7.534-34.332 1.881-48.936-1.421-3.671-6.5-2.577-6.446.873.285 17.5-4.558 36.566-20.762 42.924-4.262 1.673-6.14 6.584-7.282 9.289-7.647 18.111-18.61 16.052-26.036 11.821-12.012-6.2-23.183-5.185-26.654-21.255-4.324-14.04-24.277-2.025-32.477-34.7a2.94 2.94 0 0 0 -5.632-.283c-6.508 24.688 14.45 33.019 22.591 37.482 3.793 3.45-5.5 15.043-10.277 17.431-9.075 4.532-14.607-7.211-22.939-7.929-4.122-.355-7.31 2.382-11.321 2.664-4.1.288-8.245-.387-12.129 1.318-1.95.856-3.134 2.177-4.848 3.332-3.358 2.261-4.753 1.145-7.519-.9a56.6 56.6 0 0 0 -12.313-7.412 48.161 48.161 0 0 0 -12.062-3.125c-5.216-.689-16.7 8.162-25.04-15.216-3.253-9.114-11.963-4.6-6.911-23.832a12.95 12.95 0 0 0 -1.8-11.275c-9.56-15.785 10.937-26.528 14.828-32.028-38.917 15.2-57.733 73.385-20.089 100.918l138.809 34.069c3.739 16.054 26.966 21.969 41.4 17.37 2.2-.7 4.476-1.637 6.753-1.229a13.28 13.28 0 0 1 4.036 1.772 42.1 42.1 0 0 0 19.432 5.8c4.874.113 9.368-2.524 14.2-3.289 12.258-1.945 14.539 9.557 15.8 18.186a1.4 1.4 0 0 0 2.748.064c1.182-5.941 2.772-14.219 3.5-19.265 2.166-16.2 3.461-25.206 20.3-28.344 10.091-3.868 16.371-17.433 27.106-16.188 6.321.733 10.609 6.5 15.642 10.4a29.671 29.671 0 0 0 17.128 6.147c4.4.133 8.833-.717 13.175-.01 6.568.712 8.678 7.745 6.535 13.143-2.309 5.958-.13 12.04 1.173 18 1.669 7.63 3.991 15.855 4.228 23.662l1.891 33.513a1.511 1.511 0 0 0 3 .157c2.062-13.039 5.162-30.96 7.364-36.148 9.04-21.31-.828-31.565 10.1-44.919 4.309-5.267 9.921-10.142 11-16.861.874-5.46-1.509-10.909-1.66-16.438-.282-10.329 7.066-19.2 9.731-29.183a42.326 42.326 0 0 0 1.538-14.726z" fill="#4f424c"/><path d="m210.639 188.706c-7.071-6.361-16.731-7.906-25.09-11.883-19-10.582-28.321-25.8-52.589-14.461-8.061-3.531-17.43-3.315-25.83-.688-10.507 3.207-19.347 10.116-27.685 17.1 0 0-28.168 23.79-5.65 46.733s92.62 21.243 92.62 21.243l47.749-36.963z" fill="#8fad96"/><path d="m226.743 219.463c-4.816-11.332-5.666-22.382-16.108-30.752-3.47 15.056-20.742 15.328-30.4 5.755-4.433-3.955-9.68-8.749-16.148-7.044-5.6 1.478-8.673 7.152-9.308 12.547-.976 8.286 4.261 21.22-5.449 26.154-4.221 2.146-6.961-.859-11.071-1.2s-7.756 2.826-11.788 1.356c-5.742-2.094-9.148-8.511-14.73-11.162-6.651-3.158-13.809-1.033-20.736-.378-10.228.966-17.86-4.881-18.611-15.4-.526-7.372 2.927-14.377 7.051-20.576-5.072 4.59-11.639 6.048-17.934 8.11-7.066 2.846-18.334 12.37-18.826 20.39-.036 3.5 3.071 7.184 6.5 6.449-3.953 3.012-7.695 6.58-10.025 10.914 0 0-4.837 12.3 8.131 18.932l1.909 11.877c4.054 24.407 25.8 5.448 25.8 5.448 20.271 12.615 54.548 4.84 54.548 4.84l14 15.432 75.552-14.482 9.2-10.861c1.687-4.493 3.393-7.615 3.8-8.915 4.11-10.761-.054-18.297-5.357-27.434z" fill="#617a68"/><path d="m228.31 255.814c-9.671 6.37-32.3 14.636-32.964-9.218a59.667 59.667 0 0 0 -17.381-42.715c-2.315-2.355-6.877.028-5.738 3.34 5.65 16.414 12.162 36 2.075 52.1-4.595 7.333-13.94 12.809-22.827 11.678-7.266-.924-9.195-9.412-12.911-13.792a16.848 16.848 0 0 1 -3.6-6.847c-.873-3.547-4.728-3.392-6.316-1.1-5.8 9.374-16.933 21.706-28.181 12.42-7.126-6.191-8.854-3.923-16.881-4.559-3.048-.673-5.617-2.3-8.833-2.474-4.388-.24-8.461 1.251-12.233 3.36a4.866 4.866 0 0 1 -6.732-2.038c-2.129-4.216-1.1-9.2.249-12.8a3.025 3.025 0 0 0 -2.921-4.092c-5.577.205-13.6-1.73-13.965-14.446-3.614 6.248-3.107 15.594 2.942 19.9 5.738 3.143 2.477 5.416 2.062 10.237-1.616 6.1-2.674 12.312-1.687 18.484.61 3.821 1.991 7.491 2.546 11.32.9 8.509-.808 17.161.464 25.7l2.786 32.474a1.578 1.578 0 0 0 3.143.011c1.324-10.371 1.007-23.045 5.166-32.69 2.005-4.6 5.16-8.95 5.3-13.97.093-3.308-1.162-6.588-.763-9.874 1.088-6.673 6.891-12.048 13.43-13.421 6.709-2.655 14.449.738 14.854 8.424l2.765 30.33a1.138 1.138 0 0 0 2.263.042c1.021-8.071 2.352-16.5 3.891-23.187a7.814 7.814 0 0 1 1.943-3.734c3.771-3.871 8.261-.575 12.552.443a14.2 14.2 0 0 0 14.457-6.753 1.1 1.1 0 0 1 2.059.5c.077 5.669.405 13.292 1.516 18.07a89.663 89.663 0 0 1 1.794 11.429 1.136 1.136 0 0 0 2.262 0 36.816 36.816 0 0 1 .91-5.578c1.422-6.278 8.348-12.271 14.008-7.617 4.108 3.482 2.868 9.925 3.446 15.279.663 6.149 4.025 21.6 6.459 32.347a2.679 2.679 0 0 0 5.222.019l5.141-21.984c2.009-14.253 11.478-28.663 13.932-29.015a30.262 30.262 0 0 0 19.145-10.95c2.57-3.909 6.851-7.1 10.721-2.7 3.411 4.677 2.272 9.571 4.727 15.193a1.375 1.375 0 0 0 2.676-.291c1-9.554 2.759-15.617 3.577-23.16a57.852 57.852 0 0 1 3.45-14.095z" fill="#4f424c"/><path d="m87.793 182.7c-5.428 1.073-7.706 8.417-7.445 13.264.306 5.657 4.4 10.559 10.34 9.718 2.775-.393 2-4.088 0-4.882-6.225-2.477-5.069-10.94-1.048-14.927a1.914 1.914 0 0 0 -1.847-3.173z" fill="#617a68"/><path d="m100.4 183.263c-3.639 2.151-4.437 9.409-.056 11.173a2.742 2.742 0 0 0 3.11-1.265c.753-1.485.278-2.642.2-4.256-.02-1.195.412-2.257.492-3.5.126-1.967-2.186-2.993-3.747-2.15z" fill="#617a68"/><path d="m115.915 186.805c3.768-.013 3.759-5.742 0-5.766-3.768.013-3.759 5.742 0 5.766z" fill="#617a68"/><path d="m452.278 134.476c6.275 11.573 6.071 21.443-4.246 30.535-3.725 3.422-6.3 6.352-7.18 11.5a52.97 52.97 0 0 0 -.213 17.859c.446 2.48 4.752 2.576 5.108 0 .971-7.024-.8-16.577 4.238-22.187 4-4.465 8.515-7.595 11-13.3 3.765-8.651 2.873-21.842-5.388-27.725-2.2-1.57-4.183 1.368-3.319 3.319z" fill="#4f424c"/></svg>