<svg id="flat" height="512" viewBox="0 0 340 340" width="512" xmlns="http://www.w3.org/2000/svg"><path d="m196.544 197.118s2.093-21.669 28.967-22.326a121.306 121.306 0 0 0 21.453-2.085s-2.933 39.647-50.42 24.411z" fill="#88a873"/><path d="m175.126 218.873a3 3 0 0 1 -2.5-4.657c.7-1.057 17.565-25.951 54.279-31.733a3 3 0 0 1 .934 5.927c-34.132 5.375-50.053 28.882-50.211 29.119a3 3 0 0 1 -2.502 1.344z" fill="#4d6d38"/><path d="m166.162 133.464s18.4 60.259-7.937 93.124h16.242s22.418-39.394 1.349-95.757z" fill="#88a873"/><path d="m221.055 110.541c-10.41 8.775-27.138 16.839-50.952 10.961l-3.941-8.877s18.724-26.312 47.87-24a12.428 12.428 0 0 1 7.023 21.916z" fill="#f48d40"/><path d="m106.415 128.919c10.409-8.775 27.137-16.839 50.952-10.961l3.941 8.878s-18.725 26.311-47.87 24a12.428 12.428 0 0 1 -7.023-21.917z" fill="#f48d40"/><path d="m125.646 246.216 7.883 81.726h73.143l7.883-81.726z" fill="#f29251"/><g fill="#ffb655"><path d="m130.493 72.138c12.433 5.547 26.979 17.091 32.063 41.088l-6.274 7.415s-31.841-5.392-42.454-32.636a12.428 12.428 0 0 1 16.665-15.867z"/><path d="m196.976 167.323c-12.433-5.548-26.979-17.092-32.063-41.089l6.275-7.415s31.841 5.393 42.453 32.636a12.429 12.429 0 0 1 -16.665 15.868z"/><path d="m186.741 66.431c1.818 13.493-.354 31.936-18.093 48.877l-9.607-1.439s-12.153-29.92 5.441-53.271a12.428 12.428 0 0 1 22.259 5.833z"/><path d="m140.728 173.029c-1.818-13.493.355-31.936 18.094-48.877l9.606 1.439s12.154 29.92-5.44 53.271a12.429 12.429 0 0 1 -22.26-5.833z"/></g><circle cx="163.59" cy="119.73" fill="#fff" r="16.791"/><path d="m94.153 34.92c-14.027-2.126-28.053 11.697-28.053 11.697.085-13.329-4.829-22.031-10.582-27.646-10.093-9.853-26.95-2.42-26.407 11.674a39.223 39.223 0 0 0 6.5 19.225 25.675 25.675 0 0 0 -22.059 12.838 13.767 13.767 0 0 0 11.274 20.8c7.568.232 14.921-2.4 25.612-10.293-.333 12.51 4.684 19.027 9.962 24.695 9.6 10.326 26.8 3.712 26.933-10.392a39.212 39.212 0 0 0 -5.565-19.518 25.677 25.677 0 0 0 22.646-11.764c5.772-8.645.018-19.758-10.261-21.316z" fill="#aa98d8"/><path d="m270.284 85.514c-5.211 12.471 4.319 28.633 4.319 28.633-12.3-3.163-21.479-.635-28 3.382a14.784 14.784 0 0 0 4.678 27.107 37.361 37.361 0 0 0 19.271-1.555 24.463 24.463 0 0 0 6.761 23.354 13.116 13.116 0 0 0 21.834-5.606c1.965-6.94 1.235-14.345-3.586-26.051 11.483 3.2 18.667.074 25.125-3.489a14.784 14.784 0 0 0 -3.369-27.3 37.366 37.366 0 0 0 -19.324.626 24.462 24.462 0 0 0 -5.631-23.651c-6.656-7.336-18.262-4.59-22.078 4.55z" fill="#bddeff"/><path d="m214.555 246.216h-88.909l1.516 15.71 84.631 12.919z" fill="#cc4729"/><path d="m219.535 249.764h-97.064a6.4 6.4 0 0 1 -6.359-5.648l-2.329-19.6h114.44l-2.329 19.6a6.4 6.4 0 0 1 -6.359 5.648z" fill="#f29251"/><path d="m89.208 25.3a3.5 3.5 0 0 0 -4.47-2.125 32.842 32.842 0 0 0 -13.061 8.948 127.21 127.21 0 0 0 -.06-16.861 3.5 3.5 0 0 0 -6.976.583c.014.164 3.534 33.731-16.582 54.8a3.581 3.581 0 0 0 -.191 4.944 3.5 3.5 0 0 0 4.945.194 64.231 64.231 0 0 0 15.6-24.576c5.551-14.849 14.081-19.8 18.672-21.437a3.5 3.5 0 0 0 2.123-4.47z" fill="#6858a0"/><path d="m263.417 88.557a3.5 3.5 0 0 0 -3.227 3.753 32.849 32.849 0 0 0 5.192 14.957 126.944 126.944 0 0 0 -16.282-4.383 3.5 3.5 0 0 0 -1.274 6.883c.161.029 33.47 5.475 48.5 30.43a3.583 3.583 0 0 0 4.719 1.487 3.5 3.5 0 0 0 1.49-4.721 64.256 64.256 0 0 0 -19.6-21.52c-12.861-9.266-15.4-18.8-15.761-23.659a3.5 3.5 0 0 0 -3.757-3.227z" fill="#7aaeed"/></svg>