<svg id="Flat" height="512" viewBox="0 0 340 340" width="512" xmlns="http://www.w3.org/2000/svg"><path d="m20.758 50.651h234.198v155.363h-234.198z" fill="#f7f7f7" transform="matrix(.985 -.173 .173 .985 -20.164 25.847)"/><path d="m52.308 117.916v17 87.355l214.344-37.738-11.729-66.617h-185.615z" fill="#e6e6e6"/><path d="m45.833 70.609h184.046v115.447h-184.046z" fill="#bbd8fc" transform="matrix(.985 -.173 .173 .985 -20.164 25.847)"/><path d="m52.308 117.916v17 38.23l4.928 27.992 181.259-31.912-9.034-51.31h-160.153z" fill="#97bee8"/><path d="m69.308 134.916h261.63v173.561h-261.63z" fill="#fff"/><path d="m97.321 157.211h205.604v55.568h-205.604z" fill="#e9f4ff"/><path d="m97.321 209.278v16.349l65.02 19.58 108.501 40.974h32.083v-76.903z" fill="#95bcf4"/><path d="m192.314 248.214a52.088 52.088 0 0 1 -21.612-6.739l-12.522-7.224a51.536 51.536 0 0 0 -19.839-6.567 378.47 378.47 0 0 0 -41.02-2.057v19.6l30.518 16.88 87.638 24.078h55.365c-20.255-29.397-59.548-36.35-78.528-37.971z" fill="#fff"/><path d="m176.1 265.75a78.885 78.885 0 0 1 -24.881-8.032c-21.3-11.236-42.632-12.687-53.894-12.5v40.958h118.152c-10.172-13.551-27.353-18.576-39.377-20.426z" fill="#ffca8a"/><path d="m239.285 174.47a34.808 34.808 0 0 0 -34.808 34.808h69.616a34.808 34.808 0 0 0 -34.808-34.808z" fill="#ff7a4e"/><path d="m113.128 266.106a4.031 4.031 0 0 1 -2.83-1.18 3.639 3.639 0 0 1 -.49-.61 3.256 3.256 0 0 1 -.37-.69 3.832 3.832 0 0 1 -.23-.75 4.047 4.047 0 0 1 -.08-.78 4.121 4.121 0 0 1 .08-.78 4.053 4.053 0 0 1 .23-.75 4.524 4.524 0 0 1 .36-.69 4.188 4.188 0 0 1 .5-.6 3.558 3.558 0 0 1 .61-.5 4.033 4.033 0 0 1 1.44-.6 4.093 4.093 0 0 1 1.56 0 4.033 4.033 0 0 1 1.44.6 3.558 3.558 0 0 1 .61.5 4 4 0 0 1 0 5.65 4.161 4.161 0 0 1 -.61.5 4.485 4.485 0 0 1 -.69.369 4.563 4.563 0 0 1 -.75.231 4.129 4.129 0 0 1 -.78.08z" fill="#ec924e"/><path d="m121.908 276.156a4.129 4.129 0 0 1 -.78-.08 4.033 4.033 0 0 1 -1.44-.6 4.158 4.158 0 0 1 -.61-.49 4.994 4.994 0 0 1 -.5-.61 4.524 4.524 0 0 1 -.36-.69 3.832 3.832 0 0 1 -.23-.75 4.129 4.129 0 0 1 -.08-.78 3.992 3.992 0 0 1 4.78-3.92 3.809 3.809 0 0 1 .75.22 4.579 4.579 0 0 1 .69.37 4.919 4.919 0 0 1 .61.5 4.065 4.065 0 0 1 1.17 2.83 4.129 4.129 0 0 1 -.08.78 4.033 4.033 0 0 1 -.6 1.44 3.607 3.607 0 0 1 -1.1 1.1 4.033 4.033 0 0 1 -1.44.6 4.129 4.129 0 0 1 -.78.08z" fill="#ec924e"/><path d="m131.568 267.536a4.129 4.129 0 0 1 -.78-.08 4.053 4.053 0 0 1 -.75-.23 3.828 3.828 0 0 1 -.69-.37 3.654 3.654 0 0 1 -.61-.5 4.013 4.013 0 0 1 -.49-.6 3.828 3.828 0 0 1 -.37-.69 4.3 4.3 0 0 1 -.23-.75 4.138 4.138 0 0 1 -.08-.78 4.029 4.029 0 0 1 1.17-2.83 4.161 4.161 0 0 1 .61-.5 4.677 4.677 0 0 1 .69-.371 4.092 4.092 0 0 1 .75-.219 4.01 4.01 0 0 1 3.61 1.09 3.694 3.694 0 0 1 .5.61 3.782 3.782 0 0 1 .37.69 3.922 3.922 0 0 1 .22.74 3.532 3.532 0 0 1 .08.79 3.45 3.45 0 0 1 -.08.78 4.252 4.252 0 0 1 -.22.75 4.579 4.579 0 0 1 -.37.69 4.82 4.82 0 0 1 -.5.6 4 4 0 0 1 -2.83 1.18z" fill="#ec924e"/><path d="m190.6 197.1c-.138 0-.276-.007-.416-.021l-20.062-2.082a4 4 0 0 1 .821-7.957l20.057 2.077a4 4 0 0 1 -.406 7.978z" fill="#ff7a4e"/><path d="m204.769 170.1a4 4 0 1 0 5.307-5.986l-7.724-6.9h-12.006z" fill="#ff7a4e"/><path d="m276.176 157.211-7.264 6.992a4 4 0 0 0 5.506 5.8l13.294-12.8z" fill="#ff7a4e"/><path d="m302.925 184.694-15.108 3.275a4 4 0 1 0 1.738 7.809l13.37-2.9z" fill="#ff7a4e"/><g fill="#fff"><path d="m245.455 225.135h-18.4a3.1 3.1 0 0 1 0-6.191h18.4a3.1 3.1 0 1 1 0 6.191z"/><path d="m286.489 225.135h-9.889a3.1 3.1 0 0 1 0-6.191h9.888a3.1 3.1 0 0 1 0 6.191z"/><path d="m249.673 248.524h-14.531a3.1 3.1 0 0 1 0-6.191h14.531a3.1 3.1 0 0 1 0 6.191z"/><path d="m205.982 225.135h-9.888a3.1 3.1 0 0 1 0-6.191h9.888a3.1 3.1 0 0 1 0 6.191z"/><path d="m225.911 237.49h-13.757a3.095 3.095 0 1 1 0-6.19h13.757a3.1 3.1 0 1 1 0 6.19z"/><path d="m262.835 237.49h-2.149a3.1 3.1 0 1 1 0-6.19h2.149a3.1 3.1 0 1 1 0 6.19z"/></g></svg>