<svg id="flat" height="512" viewBox="0 0 340 340" width="512" xmlns="http://www.w3.org/2000/svg"><path d="m298.088 89.56h-.006c-3.8-3.487-11.512-8.955-16.713-12.534a3.358 3.358 0 0 0 -5.262 2.77c0 9.889.01 27.867.01 27.867h-21.877v-37.237l-96.429-13.371 42.563 83.005c41.065 33.007 83.473 32.446 126.934 5.743-1.355-15.335-7.755-36.567-29.22-56.243z" fill="#b4726f"/><path d="m325.987 167.55s2.467-8.76 1.319-21.746a108.924 108.924 0 0 1 -51.354-8.367 9.637 9.637 0 0 1 -3.052-15.622 38.817 38.817 0 0 0 4.881-6.08l-118.634-40.147-14.412-20.857a118.8 118.8 0 0 1 -26.665-9.19 45.6 45.6 0 0 0 -23.876-5.031 41.486 41.486 0 0 0 -23.206 8.9 24.391 24.391 0 0 0 -8.677 23.5 68.433 68.433 0 0 0 12.45 28l148.145 93.22 4.459 2.806s81.752 21.417 98.622-29.386z" fill="#813f40"/><path d="m210.034 286.526h11.3a17.836 17.836 0 0 0 17.446-14.179 42.341 42.341 0 0 0 .922-8.732l-9.93-4.665a82.364 82.364 0 0 1 -.523 10.261 11.43 11.43 0 0 1 -10.349 10.043c-6.91.61-17.006.933-25.706-1.02.006 0 4.281 8.292 16.84 8.292z" fill="#6882ad"/><path d="m168.038 245.342s10.867 4.781 10.867 16.424v8.978a15.782 15.782 0 0 0 15.782 15.782h15.347s-19.722-4.635-19.722-21.434c0 0 .18-16.8 13.277-16.8 0 .002-14.761-8.356-35.551-2.95z" fill="#acc7e5"/><path d="m52 165.2h-14.269a8.962 8.962 0 0 0 -8.362 5.736l-3.653 9.469h26.284z" fill="#6882ad"/><path d="m10.023 201.372h104.477q9.67-11.693 12.2-23.385h-116.677z" fill="#acc7e5"/><path d="m25.716 201.372h116.673a0 0 0 0 1 0 0v15.251a0 0 0 0 1 0 0h-108.967a7.707 7.707 0 0 1 -7.707-7.707v-7.545a0 0 0 0 1 .001.001z" fill="#6882ad"/><path d="m114.498 201.372h27.891v-23.385h-15.691z" fill="#6882ad"/><path d="m182.726 18.9s10.7 8.565 31.693 2.336c0 0 50.381-11.432 50.381 17.942l-5.782 13.2s-36.584 16.875-76.292-33.478z" fill="#813f40"/><path d="m74.761 100.916s10.9 8.305 34.777 10.9c0 0 68 1.3 90.836 64.623h-45.674s-48.795-28.029-79.939-75.523z" fill="#f7b9a9"/><path d="m210.8 245.553c8.126 7.326 7.072 16.922 5.387 22.653a1.58 1.58 0 0 0 2.581 1.625c4.379-4.056 9.855-11.941 6.135-24.278z" fill="#6882ad"/><path d="m255.594 188.021a1.774 1.774 0 0 0 1.2-2.378c-3.057-7.4-11.471-5.744-11.471-5.744-12.749 1.889-16.641 10.329-16.641 10.329l8.68 20.188s-1.254-17.306 18.232-22.395z" fill="#6882ad"/><path d="m250.965 263.615h-11.265a12.9 12.9 0 0 1 -9.93-4.665l-3.338-4.024a18.345 18.345 0 0 0 -14.119-6.632h-49.178a10.53 10.53 0 0 1 -10.184-7.841c-1.525-5.775-4.682-13.35-11.132-17.7a6.584 6.584 0 0 1 -2.989-5.434v-35.241a7.753 7.753 0 0 1 7.753-7.753h68.378a20.944 20.944 0 0 1 13.453 4.818c7.069 5.912 15.7 17.957 10.567 39.827-.887 4.781.483 7.829 4.274 9.019a16.08 16.08 0 0 0 7.71 5.21c3.935 11.001 4.773 21.328 0 30.416z" fill="#acc7e5"/><path d="m250.965 233.2v30.416s27.27 11.929 18.435 43.384a48.293 48.293 0 0 1 -4.232 10.228 18.229 18.229 0 0 0 -2.192 7.283 2.821 2.821 0 0 0 2.811 3.039h61.371a2.809 2.809 0 0 0 2.814-2.91c-.559-14.99-7.078-83.119-79.007-91.44z" fill="#acc7e5"/><path d="m201.391 235.624h-35.191v-7.686a19.639 19.639 0 0 0 0-11.809v-7.569c1.339-4.4 1.775-8.49 0-11.81v-7.686h35.187a13.028 13.028 0 0 1 13.028 13.028v20.5a13.028 13.028 0 0 1 -13.024 13.032z" fill="#6882ad"/><path d="m166.2 196.75h19.5a5.9 5.9 0 0 1 5.9 5.9 5.9 5.9 0 0 1 -5.9 5.9h-19.5a0 0 0 0 1 0 0v-11.8a0 0 0 0 1 0 0z" fill="#acc7e5"/><path d="m166.2 216.129h19.5a5.9 5.9 0 0 1 5.9 5.9 5.9 5.9 0 0 1 -5.9 5.9h-19.5a0 0 0 0 1 0 0v-11.81a0 0 0 0 1 0 0z" fill="#acc7e5"/><path d="m173.978 13.076c9.612 1.7 21.143 7.153 33.922 19.843 26.045 25.861 46.9 14.911 56.9 6.263v68.482s-14.675 10.871-41.044 10.948c-48.128-7.631-73.175-29.029-71.785-66.195-4.303-28.912 5.987-38.017 22.007-39.341z" fill="#b4726f"/><path d="m243.256 227.988a21.281 21.281 0 0 1 -4.275-9.018s-1.856 7.629-8.2 10.756a1.17 1.17 0 0 0 .359 2.218 14.12 14.12 0 0 0 12.116-3.956z" fill="#6882ad"/><path d="m223.756 118.606c-23.687-7.907-38.942-16.844-48.573-24.315a39.7 39.7 0 0 1 -15.238-31.4v-24.16c0-16.314 6.843-23.06 14.032-25.648a38.305 38.305 0 0 0 -19.218 1.362 16.081 16.081 0 0 0 -10.754 14.212l-3.842 58.763c34.263 24.49 62.623 31.249 83.593 31.186z" fill="#813f40"/><path d="m185.177 103.055a142.807 142.807 0 0 0 31.5 7.723c21.61 2.675 39.247-3.238 50.484-10.058a9.04 9.04 0 0 1 11.973 2.079c-3.357 8.924-9.831 15.493-19.644 19.538-25.509 3.867-49.223 4.086-69.7-2.277-7.072-5.391-8.54-11.06-4.613-17.005z" fill="#8484a5"/><path d="m280.093 104.264-.084-.154a9.1 9.1 0 0 0 -.877-1.311 66.824 66.824 0 0 1 -17.669 11.4 4.954 4.954 0 0 1 -6.75-3.027 34.279 34.279 0 0 1 -1-4.177c-2.144.75-4.4 1.428-6.753 2.018a39.144 39.144 0 0 0 2.988 9.222 97.96 97.96 0 0 1 -25.709 3.03 4.687 4.687 0 0 1 -4.6-4.068 39.766 39.766 0 0 1 -.321-6.155c-.878-.082-1.752-.155-2.644-.266-1.462-.181-2.906-.393-4.341-.62a45.362 45.362 0 0 0 .782 10.515 145.529 145.529 0 0 1 -23.548-4.3c-2.261-.611-7.6-3.735-4.389-13.325-1.821-.667-3.595-1.361-5.339-2.071a173.848 173.848 0 0 1 -37.589-21.211 8.77 8.77 0 0 0 -12.927 2.761 8.742 8.742 0 0 0 1.323 10.293s18.781 18.484 51.21 29.391l.028.01q2.091.7 4.257 1.362a148.686 148.686 0 0 0 29.952 5.826c1.287.115 2.575.23 3.887.313.857.054 1.7.1 2.534.133 16.107.727 28.412-1.506 37.6-4.695l.255-.091q.87-.3 1.7-.622l.25-.095a58.321 58.321 0 0 0 15.457-8.619 9.107 9.107 0 0 0 2.317-11.467z" fill="#48485b"/><path d="m271.206 251.836-3.5 5.887a6.088 6.088 0 0 0 1.022 7.479c5.714 5.555 15.693 18.811 11.3 40.849a7.079 7.079 0 0 0 6.961 8.433h26.436a6.322 6.322 0 0 0 6.166-7.76c-3.267-13.881-13.138-42.847-40.385-57.187a6.054 6.054 0 0 0 -8 2.299z" fill="#6882ad"/><circle cx="294.121" cy="286.526" fill="#3c3c4f" r="3.831"/></svg>