<svg id="Flat" height="512" viewBox="0 0 340 340" width="512" xmlns="http://www.w3.org/2000/svg"><path d="m240.46 186.106c-4.163-9.969-1.5-22.332-1.5-22.332.209-.851.316-1.326.316-1.326 5.925-29.233-12.247-35.752-12.247-35.752a13.616 13.616 0 0 0 -5.642-1.306 18.653 18.653 0 0 0 -12.012 4.073c-13.565 10.584-26.069 23.062-35.7 33.561-.923-4.483-.23-10.4.761-16.578.239-7.336.344-14.2.383-19.963l5.29 1.767-6.9-19.76v.008q-.657-3.2-1.57-6.321h6.891l-17.8-22.843v.008a77.738 77.738 0 0 0 -14.545-15.756c-2.26-1.853-3.687-2.814-3.687-2.814l-34.875 140.934 63.159 34.836 26.766-2.529c6.345-2.217 16.815-13.1 16.815-13.1a103.447 103.447 0 0 0 8.851-17.638 61.344 61.344 0 0 1 3.83-8.036q.5-.876.978-1.775l5.591 4.418c-1.484-6.374-.683-12.931.219-17.222z" fill="#5f6384"/><path d="m197.548 230.63c8.611 25.826 25.784 30.07 46.366 25.721a55.468 55.468 0 0 0 30.826-14.314c12.622-11.532 27.853-34.652 29.346-72.6.615-15.641-3.119-31.242-11.6-44.4-8.99-13.953-24.779-27.928-52.284-30.307-15.074-1.3-17.921-22.362-3.663-27.423.211-.075.426-.149.643-.221a14 14 0 0 1 6.33-.56c14.234 1.984 73.791 14.439 83.785 84.67a92.726 92.726 0 0 1 .963 11.029s-4.137 75.09-58.209 104.527c0 0-49.969 27.946-85.167-15.646v-14.564z" fill="#5f6384"/><path d="m328.261 162.224a10.323 10.323 0 0 0 -7.676 9.365c-3.395 62.523-46.509 87.3-57.127 92.48a14.356 14.356 0 0 1 -6.776 1.531c-6.784-.245-10.687-5.173-12.769-9.26-.269.032-.536.072-.806.1-33.358 3.391-43.6-26.725-43.6-26.725l-14.621 6.827v14.563c35.2 43.592 85.83 17.6 85.83 17.6 54.084-29.441 58.399-83.347 57.545-106.481z" fill="#313049"/><path d="m207.328 225.821a10.883 10.883 0 0 1 -12.939-3.257 23.289 23.289 0 0 0 -13.208-8.656l-.232-.051a13.671 13.671 0 0 1 -9.1-19.269 12.868 12.868 0 0 1 .937-1.7c6.308-9.16 17.211-22.165 26.143-32.45a1.343 1.343 0 0 0 -1.921-1.87q-18 16.584-35.436 35.968a9.78 9.78 0 0 1 -9.915 2.052 31.586 31.586 0 0 1 -14.115-10.478l-10.812 21.164 3.62 6.967 6.766 3.732 33.666 18.569 27.6-.814c6.345-2.217 11.741-8.252 15.975-14.816a24.9 24.9 0 0 1 -7.029 4.909z" fill="#313049"/><path d="m140.692 73.019-3.444 8.928-29.625 119.759 18.452 10.177c16.58-21.543 30.193-50.878 30.193-50.878h-11.144c5.599-39.86-4.432-87.986-4.432-87.986z" fill="#313049"/><path d="m262.536 314.229-58.706-57.774c-4.133-2.512-11.749-10.944-18.918-18.618a57.342 57.342 0 0 0 -13-9.595l-16.2-8.734a57.329 57.329 0 0 1 -14.41-11.038l-25.228-26.643a20.136 20.136 0 0 0 -15.412-6.276l-35.242 1.384a20.09 20.09 0 0 0 -15.92 8.878c-9.732 14.53-27.106 46.37-24.241 85.165a24.471 24.471 0 0 0 4.5 12.368l6.894 9.684a24.638 24.638 0 0 1 4.54 13.148l.372 8.051z" fill="#ce6581"/><path d="m211.364 306.117-16.758-2.111a23.758 23.758 0 0 1 -11.561-4.773l-28.951-22.37a5.6 5.6 0 0 0 -3.778-1.156l-.573.036a5.3 5.3 0 0 0 -3.794 8.6 4.129 4.129 0 0 1 -3.223 6.711h-4.558a15.5 15.5 0 0 1 -10.718-4.3l-9.776-9.989a34.73 34.73 0 0 1 -7.289-37.673 189.181 189.181 0 0 1 9.78-20.025 164.576 164.576 0 0 0 13.935-18.474l-19.446-20.536a20.127 20.127 0 0 0 -12.859-6.208l-18.252 47.31-14.955 63.911a39.753 39.753 0 0 1 -38.056-1.77q-.686-.421-1.38-.875c.2.308.394.618.607.917l6.9 9.685a24.639 24.639 0 0 1 4.539 13.147l.372 8.051h191.857a52.257 52.257 0 0 0 -22.063-8.108z" fill="#824561"/><path d="m111.879 49.477 15.631 3.3a92.387 92.387 0 0 1 14.976 8s5.605 53.808-6.077 107.058h7.332s-10.909 23.788-25.887 41.633a108.986 108.986 0 0 0 -9.727 13.577c-5.07 8.369-14.033 21.665-24.135 29.843a11.153 11.153 0 0 0 -4.094 8.681v10.864s.754 13.018-15.863 16.012a8.3 8.3 0 0 1 -9.707-8.2v-1.291s.742-4.93-.753-6.641c-1.069-1.224-4.606-4.749-4.606-4.749-1.779-4.88-1.589-12.089 6.46-21.283a62.414 62.414 0 0 0 7.081-10.05c7.543-13.122 23.079-42.016 24.837-60.243l-27.372 3.8s-20.36 26-24.265 54.15a28.778 28.778 0 0 0 -.27 4.855c.117 3.778-.172 13.113-5.26 19.512a34.786 34.786 0 0 0 -4.429 15.769s-12.381-1.279-9.406-20.813a25.184 25.184 0 0 1 1.2-5.8c.737-1.78.434-4.8 1.567-8.233 2.054-6.224 4.2-14.471 4.411-22.224 0 0 2.847-22.55 0-35.047l-5.02 1.9a185.646 185.646 0 0 1 .06-50.225s4.749-18.38 8.261-27.665z" fill="#5f6384"/><path d="m123.658 106.659a3.442 3.442 0 0 0 3.8-3.366l.1-6.058a103.855 103.855 0 0 0 -4.849-29.778 30.28 30.28 0 0 0 4.391-11.085 28.269 28.269 0 0 0 .409-3.6 75.6 75.6 0 0 0 -15.01-4.756l-86.938 57.55a132.321 132.321 0 0 0 -7 28.067 68.382 68.382 0 0 0 9.078 14.513l2.876 3.522a3.444 3.444 0 0 0 4.274.867l4.021-2.123 3.592-1.895c4.846 4.772 12.846 11.217 23.194 14.475l2.442.769a3.444 3.444 0 0 0 2.862-.361l2.171-1.357a112.658 112.658 0 0 0 20.829-17.31l1.29.712 4.338 2.393a3.442 3.442 0 0 0 4.472-1.018l2.874-4.035a79.612 79.612 0 0 0 12.707-36.548z" fill="#313049"/><path d="m42.323 38.051a31.591 31.591 0 0 0 -12.591-2.6 18.226 18.226 0 0 0 -17.638 22.331 22.7 22.7 0 0 0 8.169 12.849z" fill="#313049"/><path d="m87.347 36.1a31.594 31.594 0 0 1 12.493-3.044 18.226 18.226 0 0 1 18.406 21.705 22.7 22.7 0 0 1 -7.715 13.125z" fill="#313049"/><path d="m62.862 30.249a9.273 9.273 0 0 0 -5.821-2.584 12.534 12.534 0 0 0 -8.185 2.157c-6.929 4.614-27.29 19.826-32.451 42.267 0 0-3.8 19.018-4.076 36.405h8.971a58.829 58.829 0 0 0 13.312 33.961l9.781-5.162s9.237 12.5 23.908 17.116c0 0 15.214-9.509 23.365-21.191l7.879 4.346s12.769-17.931 11.139-41.295l7.879.815s.751-44.092-33.109-67.8a18.712 18.712 0 0 0 -15.654-2.878 16.583 16.583 0 0 0 -6.938 3.843z" fill="#5f6384"/><path d="m96.577 75.4c-.667-4.538-2.151-10.313-5.427-14.879a16.464 16.464 0 0 0 -11.029-6.595l-5.642-.826s-6.863-1.3-10.282-7.22a1.119 1.119 0 0 0 -1.973.012 14.962 14.962 0 0 1 -9.224 7.665h-.658a16.743 16.743 0 0 0 -14.542 8.437 47.469 47.469 0 0 0 -4.094 9.352 13.723 13.723 0 0 0 2.994 13.274l2.784 3.073a16.458 16.458 0 0 1 7.586-3.883 1.187 1.187 0 0 1 1.093 2.009 15.285 15.285 0 0 0 -4.723 10.411l1.643 20.47a15.86 15.86 0 0 0 6.8 11.828l.224.153a22.775 22.775 0 0 0 26.424-.468 33.013 33.013 0 0 0 3.335-2.844 15.675 15.675 0 0 0 4.622-11.234v-15.335s-.307-7.8-5.29-12.746a1.186 1.186 0 0 1 1.123-2c2.779.752 6 2.353 7.609 5.755l-.008.021c.235-.263.471-.525.728-.77l1.8-1.725a13.77 13.77 0 0 0 4.127-11.935z" fill="#989caf"/><path d="m158.765 238.884c4.325-.16 12.645.783 11.519 10.609l3.384 1.776 5.8-12 1.6-5.426a57.334 57.334 0 0 0 -10.589-7.37l-7.941-4.283-8.286 1.8s-3.5 4.326-2.857 8.831a7.159 7.159 0 0 0 7.37 6.063z" fill="#3b3b59"/><path d="m164.289 271.8s19.238 12.29 33.259-3.47a27.983 27.983 0 0 0 6.282-11.876l-13.984-13.762c-9.38 8.948-23.449 19.714-37.423 20.4 0 .002 2.034 9.287 11.866 8.708z" fill="#824561"/><path d="m67.357 90.224a13.722 13.722 0 0 0 -3.826 0 11.109 11.109 0 0 0 -9.375 11.905l.877 11.743a10.088 10.088 0 0 0 7.177 8.917 11.3 11.3 0 0 0 6.468 0 10.089 10.089 0 0 0 7.178-8.917l.876-11.743a11.109 11.109 0 0 0 -9.375-11.905z" fill="#3b3b59"/><path d="m174.027 218.383a13.989 13.989 0 0 0 -10.084-2.778c-4.024.519-8.715 2.84-11.382 10.049a16.829 16.829 0 0 0 -.535 1.725 5.628 5.628 0 0 0 6.751 6.888c.558-.136 1.139-.258 1.735-.36 8.687-1.479 15.015 8.5 9.772 15.586a16.1 16.1 0 0 1 -2.984 3.024 23.258 23.258 0 0 1 -10.335 3.874 5.36 5.36 0 0 0 -4.542 6.7l.032.118a5.475 5.475 0 0 0 4.58 4.032 22.317 22.317 0 0 0 10.094-.7s4 5.512 12.48 4.557a19.188 19.188 0 0 0 11.8-6.01c4.614-4.93 9.831-14.457 2.465-28.922a24.059 24.059 0 0 0 -7.13-8.313z" fill="#5f6384"/><path d="m174.428 146.446c-6.828 9.952-12.313 22.1-15.892 31.1a1.711 1.711 0 0 0 2.987 1.619c3.907-5.5 8.326-11.431 12.145-16.143.341-5.601.585-11.209.76-16.576z" fill="#313049"/><path d="m88.532 166.669a1.933 1.933 0 0 0 -3.177-1.705c-9.32 7.776-19.936 5.938-23.926 4.847a2.876 2.876 0 0 0 -2.919.869c-3.61 4.072-14.11 17.156-22.088 39.81-5.422 15.395-11.328 24.486-17.322 28.738-1.133 3.432-2.239 6.26-2.975 8.038a23.89 23.89 0 0 0 -1.553 5.542c-2.983 19.547 11.175 21.262 11.175 21.262a34.786 34.786 0 0 1 4.433-15.77c5.088-6.4 5.377-15.734 5.26-19.512a28.778 28.778 0 0 1 .27-4.855c3.905-28.153 24.265-54.15 24.265-54.15l8.867-1.232 18.5-2.571z" fill="#313049"/><g fill="#3b3b59"><path d="m60.231 262.252c-5.265 6.383-11.282 5.242-11.284 5.242a16.548 16.548 0 0 0 3.115 5.243 9.425 9.425 0 0 1 2.266 6.21 24.405 24.405 0 0 0 8.464-15.633 1.446 1.446 0 0 0 -2.561-1.062z"/><path d="m173.161 270.522c7.861-3.071 9.942-9.85 10.2-15.377a1.229 1.229 0 0 0 -2.365-.514c-3.907 9.068-13.867 11.91-13.867 11.91l.457.535a13.13 13.13 0 0 0 5.575 3.446z"/><path d="m51.149 65.428 9.7.59a.906.906 0 0 1 .843.988 4.654 4.654 0 0 1 -3.167 4 6.187 6.187 0 0 1 -7.7-2.608 8.339 8.339 0 0 1 -.725-1.698 1.01 1.01 0 0 1 1.049-1.272z"/><path d="m78.647 65.378-9.69.688a.9.9 0 0 0 -.832 1 4.65 4.65 0 0 0 3.207 3.963 6.185 6.185 0 0 0 7.668-2.69 8.361 8.361 0 0 0 .706-1.7 1.01 1.01 0 0 0 -1.059-1.261z"/><path d="m60.382 79.121 1.134-2.029a1.224 1.224 0 0 1 2.291.653l-.192 4.255a2.184 2.184 0 0 1 -2.43 2.071 2.183 2.183 0 0 1 -1.7-3.149z"/><path d="m70.438 79.09-1.185-2a1.224 1.224 0 0 0 -2.274.709l.3 4.244a2.183 2.183 0 0 0 2.48 2.01 2.184 2.184 0 0 0 1.626-3.19z"/></g></svg>