<svg id="icon" height="512" viewBox="0 0 340 340" width="512" xmlns="http://www.w3.org/2000/svg"><path d="m28.927 155.6a60.129 60.129 0 0 0 -9.549 15.582 22.141 22.141 0 0 0 .353 18.386c3.143 6.552 7.839 15.521 12.536 21.438l22.268-29.426z" fill="#343a3f"/><path d="m54.164 96.6a135.141 135.141 0 0 0 -29.279 29.2 27.261 27.261 0 0 0 -1.257 29.894 155.8 155.8 0 0 0 22 28.856l40.825-38.291z" fill="#343a3f"/><path d="m242.266 249.839s6.908 13.79 4.719 28.73c-.771 5.262-4.06 9.466-7.7 13.345-11.757 12.54-55.389 33.851-111.5 30.356-6.571-.409-15.389 4.185-21.144.987a34.092 34.092 0 0 1 -13.593-13.3l9.542-14.774z" fill="#484e55"/><path d="m139.616 288.563-8.358 28.478c-.737 7.355-7.43 11.425-17.81 10.966-9.17-.405-18.918-4.943-22.931-16.2l22.931-16.917z" fill="#d15d54"/><path d="m304.716 72.025 17.969-12.872 1.328 10.619a6.323 6.323 0 0 1 -2.313 5.715l-26.266 21.113z" fill="#c1c1c1"/><path d="m239.288 291.914c3.637-3.879 6.926-8.083 7.7-13.345 2.189-14.94-4.719-28.73-4.719-28.73l-16.526 5.361-10.055 17.833 7.256 23.226a10.617 10.617 0 0 0 4.033 4.918 57.521 57.521 0 0 0 12.311-9.263z" fill="#343a3f"/><path d="m71.734 140.08s-6.9 7.812-14.769 16.764c-7.79 8.858-19.339 29.386-19.339 29.386q-1.44 3.037-2.721 6.154a280.665 280.665 0 0 0 -16.43 56.05s-14.692 59.136 26.63 72.359c0 0 26.3 8.749 64.445-16.339l26.829-13.413s75.174 2.279 105.887-41.2l-22.877-53.194s11.7 14.713 29.7 23.609c24.259 12 51.777-9.775 45.421-36.081q-.387-1.6-.888-3.263a63.5 63.5 0 0 0 -7.943-16.653c-9.784-14.775-39.641-56.5-84.043-88.34a58.009 58.009 0 0 0 -43.812-9.954c-16.057 2.816-37.014 10.623-57.492 30.409z" fill="#97a59e"/><g fill="#636a72"><path d="m122.466 87.37 26.309 19.419s20.375-1.389 25.925-19.419a52.8 52.8 0 0 0 2.147-21.57 58.153 58.153 0 0 0 -19.026.162 103.95 103.95 0 0 0 -37.121 14.409z"/><path d="m225.653 211.21-21.881-17.531-6.15 3.534-8.529-24.907-9.446-21.35s-15.213-1.726-14.806 0-32.468 40.137-36.614 41.567-41.774 0-41.774 0l-5.353 18.483 30.495 41.369s1.073 32.724 12.959 44.579l11.826-5.913a166.705 166.705 0 0 0 18.54-.814c15.231-14.38 3.05-30.729 17.3-44.993 10.742-10.75 14.912-20.889 15.017-28.223a11.533 11.533 0 0 1 1.888-6.157 350.992 350.992 0 0 1 26.56 62.182c10.227-5.729 19.564-13.266 26.578-23.2z"/><path d="m58.625 270.839a333.907 333.907 0 0 1 38.44-8.941l11.063-13.852a112.419 112.419 0 0 0 -51.448 18.7 2.291 2.291 0 0 0 1.945 4.093z"/></g><path d="m63.915 148.948a86.545 86.545 0 0 0 -7.265 7.452c-7.79 8.858-13.96 19.2-19 29.836 6.779 16.674 30.055 56.164 67.192 80.225l17.628-22.9s-36.208-43.402-58.555-94.613z" fill="#484e55"/><path d="m166.836 74.6s36.742 21.147 30.511 74.927l-8.308 3.555z" fill="#636a72"/><path d="m163.814 160.543c13.638 20.7 49.862 63.879 67.019 129.885a7.962 7.962 0 0 0 11.783 4.7 35.5 35.5 0 0 0 8.975-7.716 18.623 18.623 0 0 0 3.268-17.793c-7.254-21.965-30.106-83.492-75.668-143.864l-10.983 13.129c-4.094 4.893-7.908 16.33-4.394 21.659z" fill="#484e55"/><path d="m74.976 171.794-14.955-5.755s3.678 43.548 38.406 69.272a1.126 1.126 0 0 0 1.736-.57l1.175-3.735a1.119 1.119 0 0 1 2.043-.212l4.982 8.879a2.828 2.828 0 0 1 -.828 3.686 58.375 58.375 0 0 1 -21.067 9.1 157.243 157.243 0 0 0 18.37 14l17.628-22.9a465.245 465.245 0 0 1 -47.49-71.765z" fill="#343a3f"/><path d="m179.191 125.754-10.983 13.129c-4.094 4.894-7.9 16.331-4.394 21.66 6.278 9.529 17.344 23.834 29.131 42.924l8.048-5.907a23.319 23.319 0 0 0 17.086 10.146l15.413 8.816a513.363 513.363 0 0 0 -54.301-90.768z" fill="#343a3f"/><path d="m138.968 205.136 31.265-26.3c-5.873-37.646 10.223-37.4 16.425-36a2.466 2.466 0 0 0 2.985-2.042 101.3 101.3 0 0 0 .67-12.23c.025-10.079-1.45-17.632-4.493-25.333 0 0-4.261-7.9-6.93-12.726a58.022 58.022 0 0 0 -21.806-22.41c-14.684 5.81-44.535 27.405-68.262 45.865l-17.088 26.12s-3.243 3.674-7.819 8.868a18.256 18.256 0 0 0 -3.894 17.091c9.105 31.613 25.208 48.529 32.825 55.1a2.5 2.5 0 0 0 4.12-1.854q.018-.752.056-1.453a15.034 15.034 0 0 1 13.551-14.1 105.938 105.938 0 0 1 28.395 1.404z" fill="#97a59e"/><path d="m179.287 89.8a52.688 52.688 0 0 0 -22.2-21.708c-14.687 5.813-44.538 27.408-68.265 45.868l-11.852 18.117-5.236 8s-3.243 3.674-7.819 8.868a18.443 18.443 0 0 0 -2.889 4.443s13.474 30.206 49.439 30.5l-9.476-19.888c27.824-2.08 52.011-19.079 52.011-19.079 21.131-10.909 29.955-26.546 32.809-41.688a115.715 115.715 0 0 0 -6.522-13.433z" fill="#636a72"/><path d="m114.926 301.766-1.7-11.908-50.1 14.6s-30.326 7.807-45.436-15.688c3.006 13.562 10.537 26.622 27.415 32.023 0 0 26.3 8.749 64.445-16.339z" fill="#636a72"/><path d="m82.631 164.786s28.89 30.055 69.519 27.593a156.118 156.118 0 0 0 0-63.816l-17.545 4.32z" fill="#636a72"/><path d="m157.647 69.42s8.689 24.106 2.523 46.53l-20.182 12.613-15.136-45.408z" fill="#373d4c"/><path d="m51.179 111.126s12.305 46.681 42.205 60.536a38.655 38.655 0 0 0 14.98 3.579l21.164-5.451a39.79 39.79 0 0 0 10.172-8.649c5.293-6.3 9.78-15.35 10.588-28.162 0 0 19.083.308 17.544-18.16 0 0-1.231-11.7-13.235-9.234 0 0-7.079 2.463-8.31 9.542a70.306 70.306 0 0 0 -11.7-24.623z" fill="#ffd0b0"/><path d="m146.287 115.127-.894-3.3a73.868 73.868 0 0 0 -10.8-21.324l-83.414 20.623a140.3 140.3 0 0 0 8.834 22.948c15.201 7.19 53.122 14.095 86.274-18.947z" fill="#ea8f8b"/><path d="m147.654 245.539a28.073 28.073 0 0 1 -4.708-.382 4 4 0 1 1 1.341-7.887 28.415 28.415 0 0 0 12.258-1.124 18.771 18.771 0 0 0 6.8-3.551l.222-.188a22.682 22.682 0 0 0 7.655-19.151l-.636-7.61a20.689 20.689 0 0 1 8.086-18.238 4 4 0 1 1 4.86 6.355 12.722 12.722 0 0 0 -4.973 11.217l.636 7.61a30.7 30.7 0 0 1 -10.426 25.9l-.291.246a26.7 26.7 0 0 1 -9.674 5.089 40.258 40.258 0 0 1 -11.15 1.714z" fill="#c1c1c1"/><path d="m258.33 149.3 10.329-8.381c-3.558-4.491-7.568-9.331-11.979-14.371l-32.592 23.643 8.634 12.916h14.692l22.6 16.531a1.48 1.48 0 0 0 2.076-2.057l-14.79-20.614a5.642 5.642 0 0 1 1.03-7.667z" fill="#636a72"/><path d="m152.086 216.062a26.9 26.9 0 0 0 12.561 4.55 1.244 1.244 0 0 1 .291 2.415 26.7 26.7 0 0 1 -14.779.668z" fill="#c1c1c1"/><path d="m139.118 193.474a63.833 63.833 0 0 1 -21.718 13.653v.692a3.39 3.39 0 0 0 3.914 3.35 3.561 3.561 0 0 1 4.076 2.946 34.968 34.968 0 0 1 -.789 14.423s13.117-20.17 14.517-35.064z" fill="#e6e6e6"/><path d="m42.079 92.52s-9.983 9.075 0 18.151c0 0 36.816 20.6 81.225-2.723 45.2-23.741 39.478-43.562 39.478-43.562s-1.361-5.9-9.075-6.353c0 0-8.365-44.164-52.1-46.017-18.246-.773-36.162 6.158-48.355 19.755-10.833 12.082-19.568 31.48-11.173 60.749z" fill="#97a59e"/><path d="m100.329 261.3s25.351-22.151 33.169-59.482a22.285 22.285 0 0 1 8.876-13.5l162.342-116.293v17.09a24.671 24.671 0 0 1 -9.686 19.6l-128.761 98.443a40.442 40.442 0 0 0 -14.981 22.885 60.215 60.215 0 0 0 -.907 20.982c.549 4.5-1.2 8.707-2.516 13.046-2.42 7.992-8.249 24.492-8.249 24.492z" fill="#ed7c70"/><path d="m141.96 240.567a14.41 14.41 0 0 1 -2.6 5.722 11.778 11.778 0 0 1 -8.844 4.643 138.7 138.7 0 0 0 -22.432 2.189 83.825 83.825 0 0 1 -7.755 8.174l39.287 27.268s5.829-16.5 8.249-24.492c1.313-4.339 3.065-8.545 2.516-13.046a60.215 60.215 0 0 1 .907-20.982 40.446 40.446 0 0 1 14.98-22.885s-18.434 7.653-24.308 33.409z" fill="#d15d54"/><path d="m97.065 261.9s16.392 21.443 12.485 42.556c0 0 13.6-4.3 26.623-9.91a19.288 19.288 0 0 0 10.1-25.356c-.06-.136-.12-.273-.182-.409a19.184 19.184 0 0 0 -19.291-11.081c-7.325.68-17.886 1.933-29.735 4.2z" fill="#ffd0b0"/><path d="m128.658 152.055c-4.777-10.36-15.692-8.365-15.692-8.365a13.917 13.917 0 0 0 -9.947 5 15.29 15.29 0 0 0 -3.168 11.893 21.845 21.845 0 0 0 4.565 10.693s3.027 2.565 4.256 3.548a36.581 36.581 0 0 0 20.476-5.364c1.375-4.113-.49-17.405-.49-17.405z" fill="#373d4c"/><path d="m144.894 37a25.944 25.944 0 0 1 -9.264 3.3 30.43 30.43 0 0 1 -11.177-.193 4 4 0 0 0 -1.8 7.794 34.066 34.066 0 0 0 7.64.824 42.942 42.942 0 0 0 6.567-.519 34 34 0 0 0 11.917-4.2 67.334 67.334 0 0 0 -3.883-7.006z" fill="#636a72"/><path d="m162.047 72.438c-4.438.406-8.779.615-12.953.615h-.061q-6.2 0-12.212-.383a40.265 40.265 0 0 1 3.6-9.206 4 4 0 0 0 -6.8-4.217 47.972 47.972 0 0 0 -4.921 12.721 163.917 163.917 0 0 1 -23.679-4.263 84.433 84.433 0 0 1 15.116-37.855 64.612 64.612 0 0 1 8.474-9.591 49.194 49.194 0 0 0 -7.411-3.959 71.956 71.956 0 0 0 -7.559 8.891 94.819 94.819 0 0 0 -6.584 10.609 66.022 66.022 0 0 1 -22.642-11.66 44.119 44.119 0 0 1 16.167-11.47l1.516-.626c-.165-.008-.324-.021-.49-.028a64.254 64.254 0 0 0 -18.032 1.8 51.248 51.248 0 0 0 -7.264 7.584c-.08.065-.167.115-.242.186a3.956 3.956 0 0 0 -.963 1.433 49.307 49.307 0 0 0 -3.091 4.9 82.047 82.047 0 0 0 -7.916 21.475c-.332-.232-.675-.457-1-.693a41.712 41.712 0 0 1 -12.354-13.938 56.9 56.9 0 0 0 -4.908 7.337 49.91 49.91 0 0 0 12.6 13.1c1.334.956 2.709 1.881 4.1 2.79a131.062 131.062 0 0 0 -1.118 22.242c-13.42-8.493-18.941-17.532-18.996-17.626a4.107 4.107 0 0 0 -.252-.376 37.753 37.753 0 0 1 -2.331-3.718 61.469 61.469 0 0 0 -1.1 12.572 79.3 79.3 0 0 0 23.274 18.781c.153 1.7.328 3.436.54 5.21-2.995 3.077-8.668 10.391-7.444 20.618 2.5.709 5.314 1.385 8.406 1.944l-.251-1.515c-.006-.041-.014-.081-.022-.12-1.906-9.684 5.717-16.024 6.025-16.275a4 4 0 0 0 1.474-3.647 141.722 141.722 0 0 1 -.709-33.587 133.955 133.955 0 0 0 16.824 7.822 4 4 0 1 0 2.868-7.468 124.207 124.207 0 0 1 -18.426-8.838 75.955 75.955 0 0 1 7.729-22.24c.211-.386.436-.764.66-1.142a73.371 73.371 0 0 0 23.872 12.473 88.746 88.746 0 0 0 -6.85 26.959 3.863 3.863 0 0 0 -.052.613 87.554 87.554 0 0 0 1.146 22.882 110.374 110.374 0 0 1 -15.489-3.7 4 4 0 0 0 -2.433 7.621 117.591 117.591 0 0 0 15.211 3.725 25.961 25.961 0 0 0 1.289 16.268c2.6-.5 5.25-1.12 7.955-1.889l-.378-.685c-2.207-5.477-1.789-9.711-.881-12.532a149.969 149.969 0 0 0 17.2.977c2.378 0 4.795-.071 7.229-.175.039.262.071.517.112.78l.018.1.259 1.4q3.988-2.244 7.394-4.429a74.488 74.488 0 0 1 -.093-20.445q6.805.465 13.829.479h.065c2.855 0 5.784-.1 8.76-.277a32.043 32.043 0 0 0 4.195-8.334zm-35.371 22.762a149.014 149.014 0 0 1 -20.512-.548 80.6 80.6 0 0 1 -1.774-18.842 172.433 172.433 0 0 0 22.8 4.036 80.036 80.036 0 0 0 -.514 15.354z" fill="#636a72"/><path d="m86.772 135.35a3.743 3.743 0 0 1 -.5-.035l-5.363-.742a3.638 3.638 0 0 1 1-7.207l5.363.743a3.638 3.638 0 0 1 -.495 7.241z" fill="#373d4c"/><path d="m115.126 128.2a3.638 3.638 0 0 1 -1.97-6.7l4.555-2.927a3.638 3.638 0 0 1 3.932 6.121l-4.555 2.927a3.625 3.625 0 0 1 -1.962.579z" fill="#373d4c"/><path d="m207.432 301.253-2.649-13.316a4.149 4.149 0 0 0 -.109-.422c-2.545-8.068-9.4-9.468-13.362-8.444l-18.306 4.573-.11.029c-4.256 1.195-11.792 6.232-9.923 16.756l1.764 12.128q.011.07.024.141a12.718 12.718 0 0 0 12.88 10.25c.159 0 .32 0 .483-.007a4.036 4.036 0 0 0 .75-.092c.63-.14 15.523-3.433 22.616-5.968 7.921-2.832 6.184-14.239 5.942-15.628zm-9.961 8.546c-5.723 1.867-15.366 4.114-18.936 4.926a5.355 5.355 0 0 1 -2.644-.008 4.58 4.58 0 0 1 -3.253-3.42l-1.758-12.085c-.007-.046-.013-.092-.022-.137-1.013-5.587 2.93-7.3 4.171-7.69l18.253-4.56c.423-.11 2.556-.469 3.7 2.907l.89 4.471-7.309 2.009a4.1 4.1 0 0 0 -3.065 4.339 4 4 0 0 0 5.037 3.415l6.9-1.9.13.649a11.517 11.517 0 0 1 .336 4.251 3.539 3.539 0 0 1 -2.43 2.834z" fill="#c1c1c1"/><path d="m299.878 75.49q0 .833-.008 1.636a43.294 43.294 0 0 1 -17.911 34.261l-39.74 29a14.974 14.974 0 0 1 -8.5 2.878 33.175 33.175 0 0 0 -8.288.9c-33.815 9.544-29.887 32.223-29.887 32.223l-32.863 24.612s-18.963 14.345-20.721 39.567l7.977 4.956a57.918 57.918 0 0 1 1.351-15.48 40.446 40.446 0 0 1 14.98-22.885l55.738-42.614 23.981-18.335 49.043-37.5a24.671 24.671 0 0 0 9.686-19.6v-17.084z" fill="#d15d54"/><path d="m104.284 169.138a18.276 18.276 0 0 0 .135 2.131 24.721 24.721 0 0 0 3.945 3.964 38.932 38.932 0 0 0 21.161-5.448c1.375-4.109 1.034-9.262.655-12.209a18.955 18.955 0 0 0 -1.385-5.216c-.046-.105-.1-.2-.144-.3a18.141 18.141 0 0 0 -24.367 17.08z" fill="#ea645e"/><path d="m257.861 167.1-4.938-1.65-35.548 4.284s-2.354 3.232-5.2 8l7.212 18.919 5.726 6.191a102.568 102.568 0 0 0 12.5 10.516c34.049-11.719 20.248-46.26 20.248-46.26z" fill="#636a72"/><path d="m208.824 159.628a51.472 51.472 0 0 1 11.448-7.68 23.468 23.468 0 0 1 26.059 3.595 23.388 23.388 0 0 1 7.426 21.968c-1.825 9.111-7.627 19.556-24.006 22.967a23.631 23.631 0 0 1 -20.785-5.461c-.7-.639-1.405-1.336-2.1-2.093a23.482 23.482 0 0 1 1.958-33.296z" fill="#ffd0b0"/><path d="m229.751 200.478c16.379-3.411 22.181-13.856 24.006-22.967a23.33 23.33 0 0 0 -5.933-20.493c1.5 7.554 1.246 18.847-10.044 26.87-15.261 10.844-28.473 7.123-33.347 5.842a22.966 22.966 0 0 0 2.436 3.194c.692.757 1.394 1.454 2.1 2.093a23.631 23.631 0 0 0 20.782 5.461z" fill="#ea8f8b"/><path d="m146.092 268.779a18.6 18.6 0 0 0 -2.512-4.065c.521 4.718-.017 14.961-13.064 20.109l-20.916 6.092a40.212 40.212 0 0 1 -.053 13.539s13.6-4.3 26.623-9.91a19.288 19.288 0 0 0 10.1-25.356c-.056-.136-.116-.273-.178-.409z" fill="#ea8f8b"/></svg>