<svg id="Flat" height="512" viewBox="0 0 340 340" width="512" xmlns="http://www.w3.org/2000/svg"><path d="m236.441 253.2 63.543 42.59 9-16.84-61.884-47.075s-5.053 3.945-10.659 21.325z" fill="#5b5b81"/><path d="m303.178 289.812c-9.91-6.465-23.5-15.429-35.68-23.816-15.923-10.962-14.908-22.589-12.952-28.458l-7.444-5.663s-5.886 5.606-11.492 22.985l63.628 42.325z" fill="#333353"/><path d="m27.278 26.6 20.944 3.228a247.774 247.774 0 0 0 53.231 12.446s23.261 92.726 137.337 178.757l-12.757 22.82s-160.199-71.315-198.755-217.251z" fill="#96aef4"/><path d="m48.223 29.82c-20.646-7.251-33.442-14.636-33.442-14.636 29.712 112.467 137.012 189.736 184.671 219.265l8.1-5.178-4.743-12.779c-117.753-76.22-149.967-171.117-154.586-186.672z" fill="#d2e8ff"/><path d="m202.812 216.481-3.359 17.967c14.182 8.787 23.086 13.35 23.086 13.35l7.782-12.817.184-1.841q-14.587-8.133-27.693-16.659z" fill="#96aef4"/><path d="m302.861 299.8 8.128-18.22 10.712 8.466a9.26 9.26 0 0 1 1.988 12.363 9.259 9.259 0 0 1 -12.8 2.647z" fill="#333353"/><path d="m246.9 204.956 3.811 2.772a13.939 13.939 0 0 1 2.9 19.675c-7.068 9.39-15.829 24.14-17.435 41.109-1.448 15.288 5.772 30.3 19.087 37.949.188.108.377.215.569.322a27.241 27.241 0 0 0 21.5 2.131s-23.262 23.953-46.834-2.343c-9.328-10.407-14.454-32.635-14.454-32.635q-.063-2.355.058-4.719c.805-15.581 6.346-41.201 30.798-64.261z" fill="#ffb664"/><path d="m308.315 296.271a59.047 59.047 0 0 0 4.4-22.866 1.74 1.74 0 0 0 -3.357-.626 76.83 76.83 0 0 1 -23.275 31.49 27.541 27.541 0 0 1 -8.742 4.639s-37.4 14.388-61.277-34.976a55.431 55.431 0 0 0 7.125 26.118 54.006 54.006 0 0 0 5.164 7.5c22.432 27.27 66.322 21.294 79.962-11.279z" fill="#e87b40"/></svg>