<svg id="flat" height="512" viewBox="0 0 500 500" width="512" xmlns="http://www.w3.org/2000/svg"><path d="m262.839 467.623s-.418-28.411-.51-45.235c-12.477-6.467-19.376 3.75-27.73 23.4-.158 10.25-.113 17.478-.5 25.809.001-.003 16.848 12.081 28.74-3.974z" fill="#e57e80"/><path d="m255.693 424.165c-9.189 4.545-13.141 15.714-21.094 21.62.128-12.354.2-26.336.249-39.01l19.213-.923z" fill="#bc5b65"/><path d="m270.351 483.013c-4.2-4.022-4.54-10.223-4.621-15.719-.69-29.8-.641-99.4-.641-99.4h-30.178s.013 17.6-.063 38.883c16.818 4.634 23.039 13.6 21.622 30.585-.155 6.809-.351 13.617-.527 20.424-.088 3.425.449 7.4-2.714 9.635-5.718 3.342-12.855 2.724-19.138 4.174-.266 4.119-1.368 8.5-4.442 11.42a1.13 1.13 0 0 0 .75 1.969h39.2a1.13 1.13 0 0 0 .752-1.971z" fill="#4f424c"/><path d="m174.627 369.419 33.395 5.611h114.17l28.542-16.055-19.92-46.975 9.811-24.38c-10.108-8.325-36.57-49.005-36.57-49.005l18.137-17.892-31.219-55.9 10.109-24.38c-13.379-19.326-32.31-67.4-32.31-67.4-10.759-23.907-11.824-36.537-18.581-54.4a5.634 5.634 0 0 0 -10.657.382 426.526 426.526 0 0 1 -37.943 89.441s-11.826 21.921-5.134 47.51l-17.321 67.324 13.778 9.842s-19.035 54.729-24.8 88.971c-6.305 37.426 6.513 47.306 6.513 47.306z" fill="#7bb7b7"/><path d="m322.192 375.03 28.542-16.055-19.92-46.975 9.811-24.38c-10.108-8.325-36.57-49.005-36.57-49.005l18.137-17.892-31.219-55.9 10.109-24.38c-7.266-10.5-16.169-29.47-22.788-44.619.61 5.687 7.159 61.365-8.44 51.36-6.333-4.062-10.752-2.969-13.148.086-2.27 2.9-5.605 9.114-9.608 9.369-6.391.408-8.59-5.845-7.344-15.313.34-2.578-4.127-4.223-5.346-1.448-1.153 2.623-7.315 7.38-9.442 2.254-11.729-28.268-12.29 8.484-21.618.538-1.969-1.678-6.765-14.86-7.409-17.475a67.45 67.45 0 0 0 .518 30.778l-3.775 14.675c7.945-2.836 14.665 2.728 18.35 9.115 2.1 3.605 3.718 8.811 8.334 9.881 5.4 1.251 9.2-3.125 13.049-6 14.04-10.494 8.857 17.116 22.647 17.175 3.49.015 5.022-11.54 12.561-11.324 22.4.64 22.831 20.462 18.954 31.016-3.69 10.047-12.312 2.584-15.5 1.071-17.472-8.3-10.323 19.031-22.81 19.328-9.2-1.058-17.4-16.4-19.677-19.281-3.512-4.444-9.833-2.222-10.8-.439-6.906 12.7-24.876 11.945-24.876 11.945s-2.041 5.871-4.99 14.968c28.916-10.718 43.21.52 49.194 8.251a8.768 8.768 0 0 0 10.5 2.656c4.483-2 10.143-4.148 13.731-4.148 68.481 0 55.5 84.187 11.235 29.087-1.33-1.656-4.522-.137-4.715 1.918-1.354 14.446-19.594 22.617-28.228 1.281-.725-1.792-4.163-1.208-5.037.649-17.49 37.159-54.653 8.9-52.455-21.267-9.761 30.592-25.131 87.827-7.517 102.887l33.395 5.611z" fill="#4d8489"/><path d="m368.158 358.359a482.439 482.439 0 0 1 -29.975-47.421c3.066-1.889 5.172-5.769 4.259-11.69 3.744 3.458 7.572 4.886 10.851 3.911 4.85-1.441 6.3-8.724 2.526-12.531-13.654-13.791-36.964-44.769-39.312-61.018 5.384 5.1 20.281 6.027 21.3-2.667a8.772 8.772 0 0 0 -2.113-6.781c-14.443-17.037-27.637-34.15-36.66-55.307 3.229-1.631 5.579-5.028 4.481-8.39 2.247 2.073 7.934 5.07 13.143 6.034a5.287 5.287 0 0 0 5-8.64c-8.295-9.623-25.756-30.721-37.013-50.254a343.992 343.992 0 0 1 -15.862-30.563c5.91 23 32.766 71.792 15.349 85.785a6.017 6.017 0 0 0 -2.687 3.627c-1 3.979-4.223 10.475-14.422 3.1a2.271 2.271 0 0 0 -3.489 1.144c-1.014 3.1-3.639 7.286-10.438 8.036a1.516 1.516 0 0 0 -.663 2.8c3.109 1.855 8.092 3.27 13.8-.988a3.728 3.728 0 0 1 3.987-.284c2.521 1.345 6.958 3.164 11.514 2.429a9.616 9.616 0 0 1 8.73 3.036c37.371 41.875 12.267 47.777 2.93 48.584a3.089 3.089 0 0 0 -2.806 3.171c.387 12.752-11.447 5.617-17.028 1.562a1.29 1.29 0 0 0 -2.007 1.383c2.088 7.411 8.675 23.106 25.851 15.3a8.044 8.044 0 0 1 10.812 4.212c2.88 6.985 7.516 16.327 13.177 20.921a25.821 25.821 0 0 1 8.46 12.05c1.9 5.925.449 17.318-10.794 16.245a3.759 3.759 0 0 0 -4.112 3.2c-1.648 12.261-15.273 10.493-23.895-1.819-1.291-1.844-4.405-.757-5.033 1.4 3.268 22 30.023 25.111 34.467 16.084a7.286 7.286 0 0 1 5.826-4c22.85 29.952 8.914 42.324 3.82 44.967-7.62 4.01-15.68-1.114-20.918-6.77a2.278 2.278 0 0 0 -3.737.759c-2.71 6.371-11.086 10.051-18.308 8.953-7.615-1.158-14.043-5.92-20-10.919a2.26 2.26 0 0 0 -3.457.695c-3.388 6.463-9.417 14.938-15.655 14.5-8.945-.631-14.05-7.126-16.434-11.314a2.242 2.242 0 0 0 -3.794-.143c-4.477 6.5-15.149 18.373-23.06-1.767a2.3 2.3 0 0 0 -3.548-.938c-23.385 16.985-44.874-5.24-22.8-37.721 2.177-3.2 9.741-1.914 13.438.338 6.833 4.162 18.092 7.945 23.954-7a1.613 1.613 0 0 0 -2.477-1.868c-8.087 6.58-15.535-.051-18.135-8.366a4.372 4.372 0 0 0 -6.045-2.4c-4.465 2.161-11.845.745-10.617-11.785 1.249-12.741 9.963-29.939 14.419-39.06 7.208-14.755 24.642 9.048 29.4-14.837a1.622 1.622 0 0 0 -2.451-1.77c-9.929 6.524-13.986 2.277-15.642-2.443-1.184-3.374-4.328-5.285-7.873-5.739-21.983-2.817 2.824-61.772 13.306-60.9 4.689.393 6.55 4.028 10.982 5.129a1.478 1.478 0 0 0 1.461-2.414 32.674 32.674 0 0 1 -7.96-17.087 2.438 2.438 0 0 0 -4.129-1.376c-21.211 21.154-10-27.374-8.46-40.286q-2.95 5.157-6.161 10.4l-.023.073.015-.077c-6.275 10.215-14.912 19.59-21.27 31.034-15.468 27.843 16.832 7.62 16.832 7.62s-2.1 26.381-28.334 68.038c-1.652 3.319-.776 13.582 18.117 3.876-12.477 26.746-23.391 44.347-33.731 62.115-2.883 4.954 1.619 11.155 6.417 8.877a74.16 74.16 0 0 0 12.988-7.9c-3.675 16.145-30.584 59.735-34.6 65.347-4.494 6.285-.018 15.695 6.962 14.569a40.032 40.032 0 0 0 14.488-5.363c-2.238 7.428-3.051 18.066 5.746 20.523 8.936 1.794 16.578-5.746 21.726-12.388-.062 9.632 5.546 20.882 15.8 12.355 2.562-2.127 4.763-4.844 7.51-6.635 2.309 11.871 10.413 18.965 22.238 13.575 5.544-2.692 9.975-7.68 14.264-12.557 1.1 5.523 5.21 10.076 10.024 11.1s9.286-3.193 11.371-13.3c2.108 7.168 4.392 14.671 10.292 18.877a9.436 9.436 0 0 0 9.874 1.088c6-3.075 6.629-11.512 6.253-18.6 2.416 4.7 6.475 8.749 11.2 8.862s9.449-5.224 8.164-10.485c3.966 6.24 10.312 9.942 16.784 11.914 16.535 5.7 21.643-9.139 22.957-23.354a34.659 34.659 0 0 0 13.953 4.912c6.886.854 11.132-8.427 6.71-14.595z" fill="#4f424c"/><path d="m243 406.321c-.216 23.192-.182 46.384-.077 69.577.012 2.684 4.17 2.689 4.172 0 .015-23.193-.04-46.385-.345-69.577a1.876 1.876 0 0 0 -3.75 0z" fill="#4f424c"/><g fill="#4d8489"><path d="m265.663 102.93c3.022 7.9 1.772 15.858-.3 23.767-.343 1.949 2.234 3.3 3.342 1.409 4.4-7.529 3.186-18.267.352-26.111-.759-2.1-4.1-1.237-3.39.935z"/><path d="m257.678 120.565c-.392 2.414-1.135 5.04-1 7.488a1.779 1.779 0 0 0 3.476.47c.8-2.155.848-4.684 1.16-6.955a1.956 1.956 0 0 0 -1.314-2.321 1.9 1.9 0 0 0 -2.321 1.318z"/><path d="m248.27 125.318a1.7 1.7 0 1 0 3.375.305 1.7 1.7 0 1 0 -3.375-.305z"/><path d="m194.252 271.023c-1.927 6.066-1.924 12.956 1.492 18.5 1.073 1.741 4.157.633 3.427-1.444-1.891-5.387-3-10.471-1.574-16.133a1.736 1.736 0 0 0 -3.345-.922z"/><path d="m203.562 282a13.166 13.166 0 0 0 2.854 10.728c1.233 1.368 3.828-.062 3.173-1.847a31.074 31.074 0 0 1 -2.659-8.881 1.76 1.76 0 0 0 -3.368 0z"/><path d="m215.917 292.705c2.9 0 2.9-4.5 0-4.5s-2.901 4.5 0 4.5z"/></g></svg>