<svg id="Flat" height="512" viewBox="0 0 340 340" width="512" xmlns="http://www.w3.org/2000/svg"><circle cx="170" cy="107.485" fill="#ff7a4e" r="39.877"/><path d="m10 179.027h320v124.599h-320z" fill="#fff"/><path d="m10 198.63a243.636 243.636 0 0 1 28.109-2.176 175.9 175.9 0 0 1 53.417 7.513c17.555 5.231 48.181 13.151 78.915 15.351a145.052 145.052 0 0 0 68.248-11.8c18.477-8.046 51.58-19.364 91.311-19.268v-32.223h-320z" fill="#6997e0"/><path d="m10 169.857a242.628 242.628 0 0 1 68.693 3.3s78.789 14.219 155.15-2.914a229.74 229.74 0 0 1 44.9-5.548 381.338 381.338 0 0 1 51.257 1.984v-31.652h-320z" fill="#95bcf4"/><path d="m10 116.027h320v20.465h-320z" fill="#cce3ff"/><path d="m330 232.157c-42.834-5.587-79.13 4.595-105.671 17.072a120.58 120.58 0 0 1 -99.542 1.3c-50.294-21.949-90.165-17-114.787-8.973v62.073h320z" fill="#ffca8a"/><path d="m10 116.027v-58.475s11.427-13.252 27.97-12.008c15.589 1.171 26.8 16.005 22.535 31.047a24.89 24.89 0 0 1 -2.31 5.528s21.542-5.466 27.656 17.516a24.314 24.314 0 0 0 7.225 12.122 13.677 13.677 0 0 0 8.912 3.83z" fill="#e9f4ff"/><path d="m330 50.075a28.3 28.3 0 0 0 -2.788-4.148c-16.452-20.771-49.81-4.9-44.488 21.058q.063.309.133.623s-28.474-5.2-35.988 29.442a24.974 24.974 0 0 1 -11.758 16.42 17.792 17.792 0 0 1 -8.865 2.557h103.754z" fill="#e9f4ff"/><path d="m44.08 272.817a4.213 4.213 0 0 1 -.78-.08 3.956 3.956 0 0 1 -.74-.23 3.813 3.813 0 0 1 -.69-.36 4.348 4.348 0 0 1 -.61-.5 3.984 3.984 0 0 1 0-5.66 4.279 4.279 0 0 1 .61-.5 3.69 3.69 0 0 1 .69-.36 3.956 3.956 0 0 1 .74-.23 4.146 4.146 0 0 1 1.57 0 3.956 3.956 0 0 1 .74.23 4.125 4.125 0 0 1 .7.36 4.82 4.82 0 0 1 .6.5 3.605 3.605 0 0 1 .5.61 4.018 4.018 0 0 1 .6 1.439 4.132 4.132 0 0 1 .07.781 3.987 3.987 0 0 1 -1.17 2.83 4.029 4.029 0 0 1 -2.83 1.17z" fill="#ec924e"/><path d="m31 284.027a3.445 3.445 0 0 1 -.78-.08 4.174 4.174 0 0 1 -.75-.221 4.574 4.574 0 0 1 -.69-.369 3.669 3.669 0 0 1 -.6-.5 3.984 3.984 0 0 1 0-5.66 3.57 3.57 0 0 1 .6-.491 3.887 3.887 0 0 1 .69-.369 4.3 4.3 0 0 1 .75-.23 4.065 4.065 0 0 1 3.61 1.09 4 4 0 0 1 -2.83 6.83z" fill="#ec924e"/><path d="m55.99 284.027a4.012 4.012 0 0 1 -4-4 4.14 4.14 0 0 1 .08-.781 4.076 4.076 0 0 1 .23-.75 3.854 3.854 0 0 1 .37-.689 3.605 3.605 0 0 1 .5-.61 4.037 4.037 0 0 1 3.6-1.09 3.832 3.832 0 0 1 .75.23 3.3 3.3 0 0 1 .69.369 3.645 3.645 0 0 1 .61.491 4.161 4.161 0 0 1 .5.61 4.618 4.618 0 0 1 .37.689 5.025 5.025 0 0 1 .23.75 4.125 4.125 0 0 1 .07.781 3.987 3.987 0 0 1 -1.17 2.83 3.894 3.894 0 0 1 -2.05 1.09 3.387 3.387 0 0 1 -.78.08z" fill="#ec924e"/><path d="m228 294.027a3.439 3.439 0 0 1 -.78-.08 4.174 4.174 0 0 1 -.75-.221 4.526 4.526 0 0 1 -.69-.369 4.266 4.266 0 0 1 -.6-.5 3.188 3.188 0 0 1 -.5-.611 3.511 3.511 0 0 1 -.37-.689 3.832 3.832 0 0 1 -.23-.75 3.956 3.956 0 0 1 1.1-3.61 3.53 3.53 0 0 1 .6-.491 3.852 3.852 0 0 1 .69-.369 4.3 4.3 0 0 1 .75-.23 4.066 4.066 0 0 1 3.61 1.09 4.02 4.02 0 0 1 1.17 2.83 3.449 3.449 0 0 1 -.08.78 3.809 3.809 0 0 1 -.22.75 4.133 4.133 0 0 1 -.37.689 3.661 3.661 0 0 1 -.5.611 3.987 3.987 0 0 1 -2.83 1.17z" fill="#ec924e"/><path d="m246.99 294.027a3.439 3.439 0 0 1 -.78-.08 3.948 3.948 0 0 1 -.75-.221 4.574 4.574 0 0 1 -.69-.369 4.324 4.324 0 0 1 -.6-.5 3.188 3.188 0 0 1 -.5-.611 3.459 3.459 0 0 1 -.37-.689 3.9 3.9 0 0 1 -.231-.75 4.135 4.135 0 0 1 -.079-.78 4.222 4.222 0 0 1 .079-.781 4.158 4.158 0 0 1 .231-.75 3.791 3.791 0 0 1 .37-.689 3.949 3.949 0 0 1 1.1-1.1 3.887 3.887 0 0 1 .69-.369 3.991 3.991 0 0 1 4.859 1.47 4.441 4.441 0 0 1 .37.689 5.03 5.03 0 0 1 .231.75 4.125 4.125 0 0 1 .07.781 4.022 4.022 0 0 1 -1.171 2.83 4.351 4.351 0 0 1 -.609.5 3.831 3.831 0 0 1 -1.44.59 3.387 3.387 0 0 1 -.78.079z" fill="#ec924e"/><g fill="#fff"><path d="m190.056 129.677h-14.334a3.418 3.418 0 1 1 0-6.835h14.334a3.418 3.418 0 1 1 0 6.835z"/><path d="m158.3 129.677h-8.354a3.418 3.418 0 1 1 0-6.835h8.354a3.418 3.418 0 0 1 0 6.835z"/><path d="m140.309 159.024h-15.36a3.663 3.663 0 0 1 0-7.325h15.36a3.663 3.663 0 0 1 0 7.325z"/><path d="m205.337 159.024h-19.022a3.663 3.663 0 0 1 0-7.325h19.022a3.663 3.663 0 0 1 0 7.325z"/><path d="m163.85 159.024h-4.374a3.663 3.663 0 0 1 0-7.325h4.374a3.663 3.663 0 0 1 0 7.325z"/><path d="m174.222 199.474h31.778a4 4 0 0 0 0-8h-31.778a4 4 0 0 0 0 8z"/><path d="m106.287 199.474h15.777a4 4 0 1 0 0-8h-15.777a4 4 0 1 0 0 8z"/><path d="m144.415 199.474h8.777a4 4 0 0 0 0-8h-8.777a4 4 0 0 0 0 8z"/><path d="m228.027 199.724h-1.777a4 4 0 0 1 0-8h1.777a4 4 0 0 1 0 8z"/></g></svg>