<svg id="Flat" viewBox="0 0 340 340" xmlns="http://www.w3.org/2000/svg"><path d="m108.215 110.587s-15.247 25.513-44.915 23.913a18.718 18.718 0 0 0 -9.863 2.126c-6.693 3.581-19.557 9.642-31.951 10.879l16.534 15.32s16.416-2.318 28.121-6.517a26.732 26.732 0 0 1 13.523-1.149c14.518 2.475 46.641 5.825 63.08-9.018 21.654-19.55 8.755-33.257 4.054-36.536s-38.583.982-38.583.982z" fill="#473946"/><path d="m266.4 202.833a453.237 453.237 0 0 0 2.079 46.882 43.544 43.544 0 0 0 13.879 27.9q.594.534 1.222 1.062l15.5 2.724a162.48 162.48 0 0 0 -8.69-20.377 32.705 32.705 0 0 1 -3.557-15.2l.356-26.267z" fill="#6b5f6e"/><path d="m10 134.1s23.166 16.323 48.358 36.149a358.311 358.311 0 0 0 83.1 46.451 168.1 168.1 0 0 1 17.865 8.093c7.736 4.1 19.088 10.384 31.261 18.014a182.829 182.829 0 0 0 53.934 22.679 251.907 251.907 0 0 0 36.049 6.377c31.438 2.76 49.433 9.537 49.433 9.537v48.849h-38.356s-21.544-9.749-60.144-15.415a144.378 144.378 0 0 1 -29.756-7.671c-15.368-5.763-37.739-15.279-54.554-27.141a121.513 121.513 0 0 0 -14.027-8.65 152.358 152.358 0 0 0 -21.692-9.228 132.108 132.108 0 0 1 -36.94-19.044l-64.531-47.849z" fill="#ce6581"/><path d="m301.037 290.893a2.706 2.706 0 0 0 -2.206 4.74l5.469 4.567a2.178 2.178 0 0 1 -1.984 3.769l-34.666-9.689a5.339 5.339 0 0 0 -6.478 3.633c-1.824 5.579-11.872 11.436-55.741-3.628-41.724-14.327-52.371-25.785-54.576-32.252a13.739 13.739 0 0 0 -8.478-8.559c-28.2-9.848-58.206-29.007-70.24-37.1a1.217 1.217 0 0 1 .971-2.191l9.217 2.24a1.788 1.788 0 0 0 1.328-3.281c-29.382-17.194-61.409-42.179-73.653-51.988v34.1l64.531 47.846a132.108 132.108 0 0 0 36.94 19.049 152.358 152.358 0 0 1 21.692 9.228 121.513 121.513 0 0 1 14.027 8.65c16.815 11.862 39.186 21.378 54.554 27.141a144.378 144.378 0 0 0 29.756 7.671c38.6 5.662 60.144 15.414 60.144 15.414h38.356v-34.253z" fill="#824561"/><path d="m238.109 279.006c-1.169-6.343-4.177-11.659-7.024-17.33a183.317 183.317 0 0 1 -21.779-8.633l21.821 39.062s9.238-.849 6.982-13.099z" fill="#824561"/><path d="m138.511 215.528c-6.237-2.5-12.25-5.144-17.979-7.853l-12.317 35.9a22.856 22.856 0 0 0 23.9-11.4c3.096-5.234 6.13-11.457 6.396-16.647z" fill="#824561"/><path d="m191.1 191.223-6.248 21.617a25.929 25.929 0 0 0 2.413 20.094c4.949 8.639 11.931 21.39 15.233 30.046 0 0 3.738 14.575 11.96 20.368l11.915 8.118a5.356 5.356 0 0 0 8.352-3.857c.281-2.836-.376-6.343-3.262-10.241l-6.3-8.223a92.174 92.174 0 0 1 -14.738-27.855 68.153 68.153 0 0 1 -3.531-24l1.378-4.954z" fill="#6b5f6e"/><path d="m104.173 86.971s-23.757 4.229-42.616-1.532c-12.189-3.724-21.344-14.175-22.45-26.872a25.108 25.108 0 0 1 2.361-13.414 23.933 23.933 0 0 1 15.158-12.3 27.573 27.573 0 0 1 16.736.4 10.725 10.725 0 0 1 7.187 8.824 9.367 9.367 0 0 1 -2.241 7.176 10.418 10.418 0 0 1 -4.24 3.6s2.838 13.047 3.721 12.879c1.58-.3 7.414-1.976 7.414-1.976 7.966-3.671 17.817-12.273 13.438-32.011 0 0-6.471-25.863-40.119-21.5 0 0-25.265 3.053-37.15 26.92a54.867 54.867 0 0 0 17.141 68.735c13.234 9.484 33.829 16.1 65.66 11.469z" fill="#6b5f6e"/><path d="m220.577 86.971s-27.461-18.952-63.879-16.6a72.628 72.628 0 0 0 -27.757 6.966c-6.367 2.98-16.46 7.507-23.985 9.428 0 0-3.951 10.966-3.91 29.66.043 20.071 12.827 37.92 32.325 42.683q.763.186 1.55.355a191.449 191.449 0 0 0 -22.217 5.5 13.012 13.012 0 0 0 -8.952 13.394 120.923 120.923 0 0 0 4.539 23.924s6.787 19.046-5.836 29.964a6.567 6.567 0 0 0 -.92 9.109 6.462 6.462 0 0 0 6.68 2.224c8.785-2.355 27.43-12.55 21.49-56.671 0 0 49.417 1.647 52.711-20.591l20.042.55z" fill="#6b5f6e"/><path d="m220.577 86.971a93.9 93.9 0 0 0 -15.641-8.112c-.418.065-.841.118-1.256.191a14.073 14.073 0 0 0 -9.705 6.728 14.228 14.228 0 0 0 -1.193 11.881q.19.553.4 1.1a11.154 11.154 0 0 0 -4.753 4.772c-1.914 3.687-1.7 7.024 1.483 12.46a10.908 10.908 0 0 0 -.256 13.6q.332.429.662.844a14.119 14.119 0 0 0 -1.473 2.421 13.934 13.934 0 0 0 -.88 9.769 9.266 9.266 0 0 1 -8.856-3.327c-.062-.077-.121-.16-.184-.236l-.031-.044a59.624 59.624 0 0 0 -20.417-15.64 1.216 1.216 0 0 0 -1.2 2.106c11.594 7.839 27.583 22.224 25.146 40.823l6.665.183 13.377.367 2.241-9.885z" fill="#473946"/><path d="m247.169 91.669a68.783 68.783 0 0 0 -42.459-6.708 8.171 8.171 0 0 0 -6.257 10.739 33.2 33.2 0 0 0 3.9 7.8h-4.02a5.133 5.133 0 0 0 -4.245 8.043 34.288 34.288 0 0 0 5.495 6.055l-2.442.594a4.9 4.9 0 0 0 -2.74 7.736 46.481 46.481 0 0 0 4.679 5.265 8.139 8.139 0 0 0 -5.1 10.577 42.064 42.064 0 0 1 2.835 17.689s-4.348 19.23-7.474 33.372a17.066 17.066 0 0 0 2.722 13.667 28.18 28.18 0 0 0 14.822 10.794 91 91 0 0 1 14.35-21.9c6.322-7.006 10.574-23.162 10.574-23.162s.2 4.853 6.224 10.391a2.868 2.868 0 0 0 4.169-.347l3.2-4s1.763 6.042 11.329 9.063c0 0 3.525 26.686 30.462 32.225 0 0-1.259-23.917 0-42.295s-10.573-30.9-10.573-30.9z" fill="#ffc19d"/><path d="m247.168 91.669a58.8 58.8 0 0 0 -11.093-4.527 22.871 22.871 0 0 0 -12.775 10.319l-4.782.63-6.087.8v6.139a19.342 19.342 0 0 0 2.6 9.18l-3.39 1.638.889 5.192c.692 4.044 3.575 10.929 10.107 14.621 1.977 7.368 8.278 22.224 27.633 29.058a31.691 31.691 0 0 0 10.584 1.74c7.558 0 17.235-4.932 21.63-11.339a40.937 40.937 0 0 0 -5.859-8.761z" fill="#c47c6e"/><path d="m254.47 83.048s-16.324.653-26.771 20.895l-8.271 1.088s0 8.333 8.259 10.839l-8.259 3.99s1.478 8.628 9.313 10.8c0 0 2.007 19.74 23.858 27.456a24.78 24.78 0 0 0 8.254 1.34c13.289 0 27.1-10.65 28.442-23.871q.142-1.4.216-2.917a23.866 23.866 0 0 0 9.577-15.235l-7.4-1.741s7.618-5.877 5.224-15.671l-9.577.435s-6.965-20.237-32.865-17.408z" fill="#ffc19d"/><path d="m282.477 114.558c-4.393-21.281-21.446-18.38-21.446-18.38l-8.125.868s-17.281.766-17.08 22.495c0 0 1.1 9.37 7.588 14.035a2.229 2.229 0 0 0 3.392-1.043 22.036 22.036 0 0 1 1.019-2.376.882.882 0 0 1 1.671.409c-.087 4.778-.014 12.542 5.394 16.788a7.664 7.664 0 0 0 5.557 1.488l2.4-.256a12.428 12.428 0 0 0 6.464-2.561 7.132 7.132 0 0 0 2.971-5.08s1.061-5.8-2.308-13.16c-.372-.811.724-1.536 1.4-.956a17.935 17.935 0 0 1 2.879 3.091 2.415 2.415 0 0 0 3.674.244c5.753-5.855 4.55-15.606 4.55-15.606z" fill="#ffe6ff"/><path d="m231.619 164.17a24.919 24.919 0 0 1 .193 8.059s.191 4.188 5.038 9.219c1.371-8.845-1.311-14.707-3.678-17.977a.871.871 0 0 0 -1.553.699z" fill="#c47c6e"/><g fill="#473946"><path d="m108.215 110.587a36.282 36.282 0 0 1 11.028-28.963 119.4 119.4 0 0 1 -15.07 5.347s-3.99 10.842-3.949 29.536a43.87 43.87 0 0 0 33.147 42.6q.763.186 1.55.355s3.294-.316 6.676-.722a1.3 1.3 0 0 0 .452-2.439c-9.243-4.849-31.949-19.362-33.834-45.714z"/><path d="m104.173 117.37v-30.4a117 117 0 0 1 -14.155 1.391c-12.693 7.363-45.67 21.882-70.766-7.666a54.456 54.456 0 0 0 19.261 25.205c13.234 9.485 33.829 16.1 65.66 11.47z"/><path d="m48.94 36.489a25.079 25.079 0 0 1 7.686-3.636 27.573 27.573 0 0 1 16.736.4 10.725 10.725 0 0 1 7.187 8.824 9.367 9.367 0 0 1 -2.241 7.176 12.291 12.291 0 0 1 -4.925 3.523 8.237 8.237 0 0 0 -.775.347c-5.691 3.09-5.095 11.363 1.842 12.916q.289.064.592.123a7.089 7.089 0 0 0 2.673 0 33.121 33.121 0 0 0 7.485-2.407 11.745 11.745 0 0 1 -2.861-.282 5.149 5.149 0 0 1 -1.77-9.273l.141-.091c4.78-3.027 14.977-15.136 0-23.1s-31.77 5.485-31.77 5.485z"/></g><path d="m252.9 137.458c-.7.234-1.31-.371-.814-.8a14.678 14.678 0 0 1 8.447-3.825c4.639-.292 7.466.916 9.425 2.377.507.378-.02 1.028-.723.885a28.34 28.34 0 0 0 -16.335 1.366z" fill="#ff849d"/><path d="m257.925 122.115a2.41 2.41 0 0 1 2.119 2.557l-.006.082a1.087 1.087 0 0 1 -1.8.736 5.744 5.744 0 0 1 -1.435-1.869 1.08 1.08 0 0 1 1.122-1.506z" fill="#ff849d"/><path d="m264.174 121.82a2.409 2.409 0 0 0 -2.183 2.5v.081a1.087 1.087 0 0 0 1.784.782 5.724 5.724 0 0 0 1.482-1.832 1.08 1.08 0 0 0 -1.083-1.531z" fill="#ff849d"/><circle cx="251.114" cy="114.005" fill="#3b3b59" r="4.4"/><circle cx="268.039" cy="112.413" fill="#3b3b59" r="4.4"/></svg>