<svg id="FLAT" height="512" viewBox="0 0 500 500" width="512" xmlns="http://www.w3.org/2000/svg"><path d="m386.993 150.808c-32.176 0-58.26-25.45-58.26-56.843s26.084-56.843 58.26-56.843a59.8 59.8 0 0 1 12.565 1.341 75.671 75.671 0 1 0 4.18 109.95 59.585 59.585 0 0 1 -16.745 2.395z" fill="#ffa757"/><path d="m158.614 351.055-40.615-63.186h27.719l-45.793-71.241-45.793 71.241h27.72l-40.616 63.186z" fill="#5d7c46"/><path d="m458.764 351.055-40.616-63.186h27.72l-45.793-71.241-45.793 71.241h27.719l-40.615 63.186z" fill="#5d7c46"/><path d="m341.386 386.675-63.243-74.854h43.162l-52.465-62.097h37.084l-55.924-66.192-55.924 66.192h37.084l-52.465 62.097h43.162l-63.243 74.854z" fill="#87a574"/><path d="m99.925 266.228a5.5 5.5 0 0 0 -5.5 5.5v53.83c-.415-.332-.837-.658-1.271-.968l-4.1-2.929a5.5 5.5 0 0 0 -6.4 8.949l4.1 2.928a18.366 18.366 0 0 1 7.669 14.91v82.422a5.5 5.5 0 0 0 11 0v-159.142a5.5 5.5 0 0 0 -5.498-5.5z" fill="#8e3329"/><path d="m400.074 266.228a5.5 5.5 0 0 0 -5.5 5.5v53.83c-.414-.333-.836-.658-1.271-.969l-4.1-2.928a5.5 5.5 0 1 0 -6.4 8.949l4.1 2.928a18.367 18.367 0 0 1 7.668 14.91v82.422a5.5 5.5 0 0 0 11 0v-159.142a5.5 5.5 0 0 0 -5.497-5.5z" fill="#8e3329"/><path d="m264.63 280.083-6.366 6.8c-.972 1.039-1.888 2.119-2.764 3.224v-25.67a5.5 5.5 0 0 0 -11 0v76.435c-.37-.315-.742-.627-1.128-.925l-6.54-5.046a5.5 5.5 0 1 0 -6.72 8.708l6.54 5.046a20.307 20.307 0 0 1 7.848 15.972v110.143a5.5 5.5 0 0 0 11 0v-153.032a39.873 39.873 0 0 1 10.8-27.338l6.366-6.8a5.5 5.5 0 1 0 -8.031-7.516z" fill="#d87155"/></svg>