<svg id="Flat" height="512" viewBox="0 0 340 340" width="512" xmlns="http://www.w3.org/2000/svg"><path d="m104.735 246.52s-55.022-25.677-55.022-70.509c0-17.839 3.42-31.031 7.538-40.451 3.526-8.063 14.861-7.939 18.57.042 3.586 7.717 10.023 14.732 21.578 14.732 0 0 18.565-1.2 23.869-22.33a39.613 39.613 0 0 0 .3-17.326c-2.89-14.612-9.147-57.935 10.959-86.56 6.982-9.94 22.522-5.007 22.516 7.14-.014 27.769 7.143 67.924 47.1 76.281 0 0 16.667 2.488 21.043-14.692 1.883-7.389 11.634-9.043 15.6-2.528 8.286 13.629 13.885 35.239-2 64.09 0 0-4.6 7.523-5.4 15.727-1.085 11.047 9.887 19.751 20.221 15.7a14.7 14.7 0 0 0 5.987-4.307 9.745 9.745 0 0 1 16.681 3.055q.213.626.407 1.273a31.909 31.909 0 0 1 -2.7 24.077c-7.012 13.157-24.722 39.24-55.169 39.849l-41.164 17.526z" fill="#f96262"/><path d="m94.95 281.356-23.966 6.822 13.127 33.022 46.981-13.148c-5.292-15.214-16.805-24.252-36.142-26.696z" fill="#966"/><path d="m155.187 301.3 99.577-27.868a12.907 12.907 0 0 0 9.477-12.88c-.216-5.342-1.553-11.867-5.838-17.431a12.781 12.781 0 0 0 -11.8-4.784 13.178 13.178 0 0 0 -1.9.393c-19.962 8.488-40.109 14.954-60.639 17.26l-64.173 18.266z" fill="#7f4c4c"/><path d="m140.24 268.465-46.112 13.126c9.869.373 32.185 10.828 36.964 26.456l66.794-18.694c-5.029-1.827-39.301-14.273-57.646-20.888z" fill="#7f4c4c"/><path d="m70.984 288.178s4.8-.417 10.069 6.045a25.553 25.553 0 0 1 5.847 18.477 18.878 18.878 0 0 1 -2.785 8.494c-13.29-1.294-19.527-21.426-13.131-33.016z" fill="#7f4c4c"/><path d="m73.125 260.555c.217-5.342 1.554-11.867 5.838-17.431a12.852 12.852 0 0 1 13.705-4.391l1.658.472c47.555 18.257 100.716 32.641 157.186 44.74l14.871 4.233-13.127 33.022-170.656-47.765a12.909 12.909 0 0 1 -9.475-12.88z" fill="#966"/><path d="m266.383 288.178s-4.795-.417-10.07 6.045a25.552 25.552 0 0 0 -5.842 18.478 18.878 18.878 0 0 0 2.785 8.494c13.286-1.295 19.523-21.427 13.127-33.017z" fill="#7f4c4c"/><path d="m166.789 238.23s-36.547 1.361-54.244-30.565a13.751 13.751 0 0 1 8.455-19.948 73.44 73.44 0 0 0 7.692-2.464 25.6 25.6 0 0 0 15.984-20.382c.11-.773.23-1.569.36-2.382 2.5-15.575 23.1-19.445 31.1-5.855a55.131 55.131 0 0 1 5.248 11.982 26.907 26.907 0 0 0 19.388 18.044 54.4 54.4 0 0 1 15.391 6.375 17.91 17.91 0 0 1 4.96 26.038c-7.251 9.427-22.456 19.502-54.334 19.157z" fill="#f9df8a"/><g fill="#f96262"><path d="m84.412 66.9a42.764 42.764 0 0 1 3.717 13.739 18.258 18.258 0 0 1 -9.048 17.861q-.54.3-1.12.566a9.376 9.376 0 0 1 -13.072-6.739 44.675 44.675 0 0 1 2.156-24.909 9.44 9.44 0 0 1 17.367-.518z"/><path d="m278.893 116.338a42.792 42.792 0 0 0 -2.877 13.94 18.259 18.259 0 0 0 10.116 17.275q.556.263 1.152.5a9.377 9.377 0 0 0 12.639-7.52 44.67 44.67 0 0 0 -3.665-24.733 9.44 9.44 0 0 0 -17.365.538z"/><path d="m206.035 37.827a4.228 4.228 0 0 1 -.79-.069 4.99 4.99 0 0 1 -.74-.231 4.166 4.166 0 0 1 -.7-.37 4.02 4.02 0 0 1 -.6-.5 3.728 3.728 0 0 1 -.5-.609 4.1 4.1 0 0 1 -.37-.681 5.371 5.371 0 0 1 -.23-.75 4.129 4.129 0 0 1 -.08-.78 3.992 3.992 0 0 1 1.18-2.829 3.448 3.448 0 0 1 .6-.5 3.55 3.55 0 0 1 .7-.371 3.956 3.956 0 0 1 .74-.23 4.021 4.021 0 0 1 4.79 3.93 4.129 4.129 0 0 1 -.08.78 4.3 4.3 0 0 1 -.23.75 3.476 3.476 0 0 1 -.37.681 3.277 3.277 0 0 1 -.5.609 3.981 3.981 0 0 1 -2.82 1.17z"/><path d="m49.718 35.846a4 4 0 0 1 -2.166-7.366l3.865-2.48a4 4 0 0 1 4.324 6.73l-3.865 2.484a3.988 3.988 0 0 1 -2.158.632z"/><path d="m39.675 232a4 4 0 0 1 -4-4v-3.973a4 4 0 0 1 8 0v3.973a4 4 0 0 1 -4 4z"/><path d="m300.325 244.407a3.445 3.445 0 0 1 -.78-.08 4.019 4.019 0 0 1 -.75-.22 4.491 4.491 0 0 1 -.69-.37 4.161 4.161 0 0 1 -.61-.5 4.027 4.027 0 0 1 -1.17-2.83 4.129 4.129 0 0 1 .08-.78 4.053 4.053 0 0 1 .23-.75 3.828 3.828 0 0 1 .37-.69 4.211 4.211 0 0 1 .49-.61 4.093 4.093 0 0 1 .61-.49 3.761 3.761 0 0 1 .69-.369 3.982 3.982 0 0 1 .75-.231 4.065 4.065 0 0 1 3.61 1.09 4.214 4.214 0 0 1 .5.61 4.579 4.579 0 0 1 .37.69 4.019 4.019 0 0 1 .22.75 3.445 3.445 0 0 1 .08.78 3.995 3.995 0 0 1 -4 4z"/></g><path d="m244.7 238.733-60.639 17.26-18.695 5.321 18.695 7.151 24.871-7.586.17-.052 23.237-6.2c9.826-3.037 13.16-10.5 14.225-16.281a13.158 13.158 0 0 0 -1.864.387z" fill="#966"/><path d="m87.005 182.338a3.993 3.993 0 0 1 -3.253-1.668l-2.138-2.98a4 4 0 0 1 6.5-4.664l2.138 2.98a4 4 0 0 1 -3.247 6.332z" fill="#f9df8a"/><path d="m209.011 149.563a4 4 0 0 1 -4-4v-2.508a4 4 0 0 1 8 0v2.508a4 4 0 0 1 -4 4z" fill="#f9df8a"/><path d="m94.326 239.205c-1.2 4.86-1.524 14.587 14.092 16.972 21.039 3.215 98.185 28.345 98.185 28.345s31 12.8 44.909-.577z" fill="#bc9191"/></svg>