<svg id="flat" height="512" viewBox="0 0 500 500" width="512" xmlns="http://www.w3.org/2000/svg"><path d="m262.589 490.577-23.693.867-1.875-45.432a25.077 25.077 0 0 1 15.14-2.087c5.665 3.918 8.184 24.556 10.428 46.652z" fill="#e57e80"/><path d="m253.171 455.4c.118 7.468 1 15.854-.559 23.207-1.572 7.406-7.61 9.809-13.716 12.834l.112 2.716h26.61s.62-21.813 1.684-42.7q-7.35-6-14.7-7.441a97.529 97.529 0 0 1 .569 11.384z" fill="#bc5b65"/><path d="m237.021 446.012a133.389 133.389 0 0 0 30.282 5.45c.713-14.006 1.626-27.595 2.685-33.906l-34.112.736z" fill="#4f424c"/><path d="m291.311 76.491a3.925 3.925 0 0 1 -2.4-3.473c-1.156-8.034-3.528-17.534-11.518-21.251.736-11.186-4.063-33.455-16.452-36.664-.415-7.361-5.444-10.322-10.108-8.929s-7.3 6.213-9.27 10.664c0 0-7.847 30.164-7.424 41.923l-21.587 50.4-25.252 84.293s-36.146 89.423 22.5 164.262c0 0-7.576 43.654 50.686 43.654s62.88-61.113 62.88-61.113l-7.695-108.87-11.613-90.826-9.992-55.646z" fill="#bfcc7f"/><path d="m357.785 297.259c-2.828-7.352-9.457-12.788-19.65-13.322a24.859 24.859 0 0 1 2.659-14.01c.331-7.44 3.662-25.745-6.306-27.6 1.166-6.7 2.328-13.618.806-20.247s-6.789-12.98-13.513-14.009l2.841-14.538c-.08-6.364-.687-15.781-7.49-18.279 2.46-8.548 7.806-25.586-3.051-30.088l1.337-15.108c-.925-7.207-4.607-14.222-14.959-14.464 1.352-12.788 2.862-31.18-9.148-39.1 1.531 13.137-1.721 25.636-5.445 38.069-2.639 9.343 7.142 14.621 7.752 23.648.694 10.279-8.165 30.432-8.165 30.432s37.913-4.948 7.67 60.124c-8.32 7.184-14.177 15.207-16.33 24.494 23.236-15.27 44.94 12.375 16.388 50.939a15.589 15.589 0 0 0 -1.509 15.945c7.913 16.738 26.95 53.918-16.724 65.027a77.191 77.191 0 0 1 -25.623-1.079c-17.137-3.333-17.607-22.6-2.313-29.171 2.151-.96 2.64-5.243.687-5.334-64.149-3-63.732-67.1-63.732-67.1l-11.857 14.046 10.912 81.638c37.7 48.119 81.456 56.716 130.417 31.347 19.974-15.151 38.632-41.938 45.235-88.931 1.096-7.801 1.94-15.977-.889-23.329z" fill="#919951"/><g fill="#4f424c"><path d="m187.576 247.922c1.576-3.291 4.521-7.123 9.7-7.144 6.018-.025 8.272 7.673 9.108 12.87a2.648 2.648 0 0 0 3.993 1.842c3.674-2.233 9.238-3.458 11.64 7.135 3.251 10.178 13.16-2.146 20 19.761a1.333 1.333 0 0 0 2.6-.288c.639-8.353-.345-21.589-12.23-24.905a4.661 4.661 0 0 1 -3.381-3.606c-1.022-5.549-4.325-16.464-14.236-12.626a3.555 3.555 0 0 1 -4.633-2.142c-2.071-5.942-7.439-15.769-19.195-9.22a3.831 3.831 0 0 1 -5.337-1.774z"/><path d="m324.61 193.534c-25.643-1.632-30.961 22.145-32.043 30.758a5.626 5.626 0 0 1 -2.964 4.285c-12.672 6.655-15.648 21.021-15.89 32.017a1.433 1.433 0 0 0 2.823.381c4.12-17.232 14.549-22.485 18.972-23.65a4.582 4.582 0 0 0 3.375-3.63c5.342-30.948 22.9-25.623 22.9-25.623a41.83 41.83 0 0 0 2.827-14.538z"/><path d="m340.783 269.925c-23.047 3.591-32.823 23.676-34.815 36.263a1.315 1.315 0 0 0 2.5.747c10.5-22.045 29.672-23 29.672-23a99.93 99.93 0 0 0 2.643-14.01z"/><path d="m198.606 361.221c4.006-2.733 11.854-5.975 23.228-1.235 1.456.607 3.079-.57 2.229-1.633-3.861-4.827-12.312-11.76-27.19-7.425-11.584 2.674-15.907-13.136-32.414-3.613 5.72 6.653 8.736 10.5 8.736 10.5s4.833-5.579 18.83 3.531a6.266 6.266 0 0 0 6.581-.125z"/><path d="m247.515 183.586a3.816 3.816 0 0 1 -3.632-3.511c-.588-6.356-3.181-18.381-14.424-17.376a4.041 4.041 0 0 1 -4.3-3.469c-1.411-9.475-2.257-29.407-21.314-36.42-1.08 7.84-1.452 14.754-1.172 18.405 0 0 11.868 2.826 15.192 28.661a4.342 4.342 0 0 0 4.52 3.762c5.021-.207 13.042 1.628 14.483 15a3.771 3.771 0 0 0 3.827 3.348c4.367-.078 11.58 1.473 15.152 11.6a1.341 1.341 0 0 0 2.6-.343c.505-7.902-.567-19.376-10.932-19.657z"/><path d="m282.106 172.586a1.185 1.185 0 0 0 2.258.615c4.049-9.209 10.032-13.091 13.012-14.529a5.055 5.055 0 0 0 2.527-2.825c5.263-14.276 14.178-10.68 14.178-10.68a37.147 37.147 0 0 0 1.334-15.107c-13.515 1.466-18.315 13.482-19.745 18.547a4.924 4.924 0 0 1 -2.441 3.063c-7.729 3.992-10.301 13.739-11.123 20.916z"/><path d="m248.086 64.448a4.758 4.758 0 0 1 -2.8-3.372c-.986-4.872-2.122-14.561-11.157-15.4a100.877 100.877 0 0 0 -1.688 11.124s6.337-3.594 8.366 8.936a4.651 4.651 0 0 0 3.374 3.779 11.768 11.768 0 0 1 7.9 6.3 1.149 1.149 0 0 0 2.2-.486c-.059-3.987-1.281-8.712-6.195-10.881z"/><path d="m260.4 413.749c-37.1-6.876-56.27-28.609-67.526-63.454-5.839-16.613-11.448-33.694-13.5-51.218.029-2.391 1.418-8.063 5.2-6.249a3.285 3.285 0 0 0 4.87-2.794c.993-7.51-4.55-14.39-2.834-21.784.809-2.388 3.678-4.914 5.923-2.285 2.2 2.581 5.945-.232 5.32-3.1a225.029 225.029 0 0 1 -4.64-31.464c-.037-3.742-2.907-34.008 3.409-31.106 2.53 1.565 5.015-1.009 4.6-3.534-1.213-7.328-2.738-22.862-.109-32.941 4.549-17.435 14.076-6.312 14.076-6.312s-5.265-54.593 15.283-62.663c5.494-2.158-1.241-15.871 7.141-32.226a25.242 25.242 0 0 0 2.359-7.29c.493-13.364-.733-27.044 2.386-40.219-6 13.067-10.56 26.961-11.907 41.281a27.357 27.357 0 0 0 -9.058 23.864c-18.457-10.155-24.061 47.016-23.2 58.259-20.263-7.244-23.482 33.409-21.553 45.314-15.33-.087-8.976 38.248-5.714 47.482-5.664-3.761-12.119 1.92-13.536 7.586-2.713 8.248-.7 17.219 1.328 25.662-9.538.76-5.707 18.74-1.91 24.1-3.557-3.9-10.86-1.784-13.845 2.568s-2.947 10.064-2.333 15.305a90.537 90.537 0 0 0 24.905 52.24c-2.69 3.21-2.521 8.119-1 12.02 27.752 67.738 108.06 69.926 148.9 38.721a99.7 99.7 0 0 1 -53.035 4.237z"/></g><path d="m217.037 220.544c-.963-7.7-1.793-14.993-1.535-22.775.086-2.582-3.792-3.061-4.465-.605-2.192 7.993-1.823 17.006 1.807 24.516.935 1.933 4.47 1.079 4.193-1.136z" fill="#919951"/><path d="m227.045 224.326c-.423-4.546-.4-9.272-1.154-13.757-.511-1.706-3.373-2.469-4.2-.549-1.923 4.472-.867 11.152 1.291 15.406.996 1.962 4.083.991 4.063-1.1z" fill="#919951"/><path d="m232.357 228.866c.78 1.461 3.49 1.288 3.77-.493.077-2.38.2-5.147-1.376-7.1-1.165-1.285-2.909-.411-3.468.915-.64 2.187.317 4.627 1.074 6.678z" fill="#919951"/><path d="m212.667 311.18a1.9 1.9 0 0 0 -3.706.5c.209 8.337 4.222 17.617 10.893 22.821a2.24 2.24 0 0 0 3.166-3.166c-5.143-6.318-8.454-12.163-10.353-20.155z" fill="#919951"/><path d="m239.031 334.15a52.35 52.35 0 0 1 -6.508-5.646c-1.9-2.092-3-4.969-5.032-6.867a1.709 1.709 0 0 0 -2.881 1.193c.25 6.286 6.745 12.688 12.493 14.631 1.797.573 3.503-2.061 1.928-3.311z" fill="#919951"/><path d="m278.283 75.357c-.861-1.774-3.739-.529-3.17 1.336 3.025 9.913-.672 21.35-1.7 31.337-.255 2.47 3.172 2.429 3.959.536 3.861-9.286 5.428-23.911.911-33.209z" fill="#919951"/><path d="m265.575 95.5a51.755 51.755 0 0 1 -3.149 12.277c-.79 2.137 2.65 3.578 3.684 1.553a27.649 27.649 0 0 0 2.91-13.83 1.724 1.724 0 0 0 -3.445 0z" fill="#919951"/><path d="m254.276 103.97c-2.4-1.212-4.06 2.354-2.822 4.174 1.408 1.829 3.427.609 3.506-1.449l-.112.265v-.026a2.155 2.155 0 0 0 -.572-2.964zm.561 3v.027l-.072.172c.028-.069.046-.135.072-.202z" fill="#919951"/><path d="m355.869 323.129c-6.278 45.926-25.679 87.813-76.935 92.435-2.8.5-1.871 4.473.633 4.674 50.957 2.288 77.79-52.316 80.1-96.6.207-2.145-3.5-2.675-3.8-.514z" fill="#4f424c"/></svg>