<svg id="flat" height="512" viewBox="0 0 500 500" width="512" xmlns="http://www.w3.org/2000/svg"><path d="m278.579 267.518a143.833 143.833 0 0 1 13.406-67.881c1.851-3.94 5.769-8.486 9.643-6.5a210.449 210.449 0 0 1 10.659-36.719c1.918-4.894 4.462-10.167 9.33-12.147 1.389-.566 2.952-.853 4.063-1.86a7.836 7.836 0 0 0 1.913-3.778c5.448-18.141 9.258-38.823 24.37-50.861 4.421-2.134 7.445 2.117 9.156 5.775a134.953 134.953 0 0 1 12.581 51.91c2.748-1.112 5.678 1.1 7.56 3.392 6.94 8.445 9.448 19.709 10.382 30.574a24.531 24.531 0 0 0 1.378 6.322c.77 2.107 1.607 4.5 3.6 5.247 13.964 5.205 15.86 37.927 15.756 56.881.429 24.024 20.252 20.914 16.124 57.126 6.213.749 11.67 9.138 10.628 15.31s-4.337 11.923-4.451 18.18c5.61 28.759-1.1 43.6-14.9 69.372 4.187-2.649 10.079 1.02 11.41 5.793s-.5 9.819-2.582 14.313c-9.887 22.555-28.123 39.515-47.566 53.879-2.974 4.245-5.413 8.078-10.683 10.183a33.431 33.431 0 0 1 -14.267 3.078h-108.536z" fill="#4f424c"/><path d="m228.017 50.3a3.456 3.456 0 0 0 -3.437.1c.259-8.77-2.776-22.218-14.089-19.931-16.563-60.094-36.289.131-42.533 31.714-3.887-5.314-10.715-9.8-15.374-3.2a68.551 68.551 0 0 0 -12.8 46.781c-19.355 8.712-13.737 61.418-13.737 61.418s-15.264 2.8-5.526 44.669a29.565 29.565 0 0 0 -7.375 1.063s-5.469 23.36 1.959 41.243c0 0-23.456 24.139-17.592 50.332s23.063 137.601 23.063 137.601h131.358l39.485-114.156-12.982-106.334-15.166-45.924-20.72-81.776z" fill="#ffb38a"/><path d="m295.675 332.479 10.855-35.879c2.339-9.323 6.129-32.734-9.349-30.9.178-6.092 6.343-14.489.042-19.239-2.958-1.912-7.427-.971-9.107 2.125 3.482-12.349 6.205-55.739-15.175-55.658 1.055-18.274 2.58-71.64-15.895-80.1-.5-9.8-6.509-40.132-19.285-39-.053-7.583-2.9-19.369-9.745-23.531a88.4 88.4 0 0 1 -1.74 38.347 3.014 3.014 0 0 0 1.352 3.324c12.268 7.611 17.223 24.281 10.732 37.267-1.1 2.2.786 5.738 3.569 4.642 21.869-8.419 12.233 60.281 9.927 70.936-.523 2.629 2.318 5.56 4.925 3.787 5.16-3.51 9.154 2.758 9.968 7.257 1.815 15.946-1.607 32.254-6.991 47.239-1 2.683 2.644 5.564 5 3.847 4.561-3.319 9.855.46 11.587 5.078 2.011 5.361 1.1 11.7.757 17.27-.679 11.052-1.625 22.247-5.457 32.727-3.688 10.081-10.062 18.442-11.195 29.414-1.141 11.036 1.622 22.03.837 33.072-1.323 18.619-14.849 34.008-30.894 42.289-29.949 14.979-66.3 4.637-92.995-12.731-3.549-2.474-9.546-7.37-8.247-12.485.656-2.585 5.067-5.848 7.4-4.086q.687.891 1.389 1.764c2.61 3.229 7.091-.883 5.451-4.207a8.991 8.991 0 0 0 -2.322-3c-6.8-9.219-12.008-20.06-13.653-31.461-.309-3.225 1.208-10.8 6.1-8.115 3.941 2.166 7.276-3.593 3.512-6.008-15.393-9.591-33.738-31.813-33.006-50.757.66-5.838 7.94-13.816 13.8-8.178 2.39 2.3 7.2.032 5.922-3.447-1.745-4.746-3.917-10.063-2.983-15.2.709-3.9 4.787-9 9.28-6.824 3.374 1.633 7.429-2.7 4.26-5.521a62.985 62.985 0 0 1 -21.058-43.668c-4.569 1.084-7.015 5.18-6.98 9.681a74.974 74.974 0 0 0 1.683 22.366c-14.51.233-14.765 23.059-12.469 33.77-1.023-4.78-8.057-5.372-11.706-2.119-5.85 5.645-4.719 15.26-4.705 22.824l9.494 44.761s-7.5 19.957-2.694 64.767 47.138 66.94 47.138 66.94h128c38.28-40.038 50.696-93.369 34.671-143.38z" fill="#d37569"/><path d="m260.5 364.89c-10.972 3.284-23.232 2.6-33.828 7.43-10.253 4.9-16.419 19.55-20.909 29.53-3.108 7.76-4.473 15.6-5.8 23.595.038 2.848.067 5.7.072 8.546a8.693 8.693 0 0 1 -7.169-.213c0-19.231-.7-38.454-1.423-57.665-5.983-25.3-29.043-41.443-50.461-53.439-4.976-1.249-20.825-14.193-26.164-20.644-2.644-3.193-3.249-2.849-3.841-7.159-.258-1.882 1.328-3.337 3.108-2.448 4.341 2.166 4.093 3.417 7.874 6.565 4.21 3.506 10.178 9.44 14.831 12.285 3.559 2.176 7.18 4.253 10.792 6.346-7.5-11.484-11.935-27.5-12.249-41.19.146-3.5 4.533-3.827 5.684-.788 2.068 5.461 2.531 11.65 3.981 17.329a74.2 74.2 0 0 0 14.66 29.23c3.428 3.906 26.788 23.75 31.507 34.732-.455-49.424-.059-98.872.194-148.3-1.61-10.286-5.977-23.585-23.061-30.185-3.733-1.252-27.04 1.948-30.2.489-3.759-1.734-.8-6.764 2.565-6.234 0 0 16.562-1.23 26.405-2.177-3.886-3.79-5.821-5.593-11.226-10.674-3.62-3.6 1.521-9.077 5.294-5.408 10.407 10.54 22.007 19.987 30.335 32.38q.268-56.6.655-113.2c.032-4.878 7.419-4.872 7.388 0q-.056 8.7-.094 17.4c3.95-4.758 7.439-10.693 12.754-13.967a2.4 2.4 0 0 1 3.461 2.726c-5.129 12.481-14.107 13.4-16.32 30.659q-.382 71.589-.658 143.181c8.43-14.085 23.626-21.8 33.7-34.514 6.257-7.782 5.581-16.742 9.8-25.681 1.546-3.277 5.912-.792 5.351 2.312-2.164 11.971-5.189 23.166-13.478 32.348 6.77-.735 13.342-3.062 19.92-4.384 2.811-.387 5.83 3.066 3.126 5.5-5.249 4.734-13.681 4.885-20.334 5.78a39.607 39.607 0 0 0 -13.981 4.109c-6.116 5.369-12.865 10.363-17.281 17.325-8.5 13.4-6.93 43.531-6.936 55.056-.031 29.21-.159 58.437.8 87.636a116.945 116.945 0 0 1 15.982-28.471c7.77-10.3 17.478-18.6 25.8-28.369 5.8-6.809 8.7-15.465 12.457-23.588a3.35 3.35 0 0 1 6.329 2.033c-2.607 16.574-15 29.678-27.991 42.125 9.051-2.823 19.172-2.993 28.261-6.086 1.674 2.311 1.404 5.117.318 8.137z" fill="#ffe"/><path d="m200.04 434.524c0-.177 0-.355 0-.533q-3.581.045-7.169-.213c.03 15.92.072 24.282.4 42.084h7.074c.042-15.95-.3-33.179-.305-41.338z" fill="#ffc3ad"/><path d="m271.418 350.362a31.207 31.207 0 0 1 -11.235 6.4c-.019 2.709.12 5.417.317 8.124a40.66 40.66 0 0 0 16.627-8.671c3.916-3.498-1.827-9.392-5.709-5.853z" fill="#ffc3ad"/><path d="m310.973 361.084c3.531-8.328 6.075-21.238-3.581-26.231-1.568-.731-3.366-1.072-4.664-2.215-1.9-1.675-1.407-4.662-1.083-7.174 1.858-14.4 4.883-28.865 4.883-28.865s-5.621 13.771-8.988 19.875c-2.811 5.1-8.183 10.676-9.131 16.5-.819 5.031 3.2 8.124 5.416 12.11a28.81 28.81 0 0 1 3.451 14.431c-.149 10.614-5.451 20.852-14.747 26.183-2.755 1.58-1.711 6.507 1.691 6.246 6.532-.5 7 6.958 5.7 11.583-1.139 4.05-10.887 22.065-17.347 28.044-2.034 1.884-.551 6.022 2.385 5.756 6.116-.555-.439 29.5-63.461 29.5-86.439 0-109.231-23.9-113.454-44.77-.387-1.91 2.329-7.978 5.519-5.422 2.754 2.2 6.584-.472 4.94-3.812-4.534-9.791-15.545-17.207-15.3-28.775.455-4.248 4.294-8.975 8.987-8.115 2.711.5 5.591-2.309 3.847-5-15.519-22.865-4.8-40.288-14.365-52.731a71.281 71.281 0 0 1 -12.6-18.8c-.021 8.923 3.151 17.478 3.66 26.287-.1 4.378-1.773 8.54-2.913 12.767a53.248 53.248 0 0 0 .3 28.628l-4.636-1.4a3.767 3.767 0 0 0 -4.815 3 36.716 36.716 0 0 0 6.333 26.762c-5.742 3.112-6.38 12.553-1.109 16.41-8.014-2.839-15.968 6.691-15.091 15.144s7.165 15.2 13.116 21.273c-3.228 13.4 8.467 28.236 22.249 28.226 2.151 0 4.5-.256 6.267.968 1.391.962 2.083 2.618 2.94 4.075 5.434 9.24 17.829 10.974 28.523 11.71 18.547 2.625 93.728 1.772 113.654 1.854a81.381 81.381 0 0 0 26.431-4.268c11.463-3.934 25.057-11.6 32.156-28 5.056-11.68-5.573-16.939-5.573-16.939.933-1.523 27.859-39.453 9.47-47.266 5.771-8.13 15.123-22.115 11.964-32.3-1.657-4.648-6.937-8.026-11.024-5.249z" fill="#4f424c"/><g fill="#d37569"><path d="m145.733 251.842c-1.358-3.183-3.788-5.892-5.62-8.82-1.6-2.557-2.695-5.5-4.427-7.949a1.842 1.842 0 0 0 -1.51-1.278c-6.4-.22-.515 10.076.982 12.766 1.832 3.21 4.2 6.576 7.545 8.311 2.104 1.09 3.878-1.045 3.03-3.03z"/><path d="m158.023 254.135c1.946.184 2.6-2.051 1.994-3.474-.77-1.8-2.564-3.272-3.8-4.761-1.256-1.514-2.14-3.367-3.533-4.754-1.524-1.519-4.645-.477-4.481 1.856.326 4.624 5.02 10.679 9.82 11.133z"/><path d="m252.521 249.06c-2.311 7.464-7.221 13.074-11.3 19.535-1.117 1.768 1.134 4.1 2.918 2.918 7.176-4.747 10.521-13.321 12.338-21.362a2.053 2.053 0 0 0 -3.956-1.091z"/><path d="m237.16 257.6a8.606 8.606 0 0 0 -2.715 2.61 5.953 5.953 0 0 0 -1.654 3.427 2.339 2.339 0 0 0 3.491 2c1.051-.644 1.5-1.765 2.176-2.749a15.273 15.273 0 0 0 1.588-2.406 2.129 2.129 0 0 0 -2.886-2.882z"/><path d="m152.356 387.675c-2.235-3.431-4.077-7.093-6.173-10.606-1.292-2.166-5.157-.751-4.219 1.779 2.935 7.915 7.573 18.309 15.791 21.975a2.249 2.249 0 0 0 2.712-3.516c-2.833-3.174-5.767-6.027-8.111-9.632z"/><path d="m167.418 392.04a30.97 30.97 0 0 1 -3.617-4.793c-1.165-1.962-4.445-.687-3.749 1.581 1.3 4.24 4.23 9.75 8.965 10.908a2.228 2.228 0 0 0 2.488-3.236c-1.065-1.686-2.757-2.983-4.087-4.46z"/><path d="m181.57 393.4a2.8 2.8 0 0 0 -2.8-.7c-2.735.8-1.663 4.822.921 4.892a2.308 2.308 0 0 0 1.879-4.192z"/><path d="m235.057 113.241a1.97 1.97 0 0 0 -3.938 0c-.318 8.172-3.741 14.1-7.958 20.8-1.448 2.3 1.8 4.69 3.7 2.854 6.161-5.963 8.395-15.346 8.196-23.654z"/><path d="m217.547 123.748a95.555 95.555 0 0 1 -7.258 10.9c-1.519 1.972 1.615 4.04 3.294 2.542a33.078 33.078 0 0 0 8.133-11.007c1.271-2.77-2.599-5.183-4.169-2.435z"/></g><path d="m97.846 279.236c-5.2-12.019-15.464-6.376-18.662 3.539-3.644 11.371 1.339 28.414 4.89 39.635a1.924 1.924 0 0 0 3.707-1.022c-2.016-11.815-5.893-24.332-2.966-36.266.559-1.675 1.57-4.008 3-5.2 3.385-2.819 4.888-.566 6.972 1.673 1.614 1.734 3.9-.468 3.055-2.358z" fill="#4f424c"/></svg>