<svg id="Flat" height="512" viewBox="0 0 340 340" width="512" xmlns="http://www.w3.org/2000/svg"><path d="m182.373 252.578 100.259 2.6-5.408 43.938s19.27-14.824 32.04-21.03l2.258 7.9 1.866 16.176a140.4 140.4 0 0 0 -37.516 30.93h-21.414a27.6 27.6 0 0 0 -11.741 0h-20.817a16.345 16.345 0 0 0 -10.037 0h-15.905c-4.365-1.1-9.5-1-15.211 0h-26.888l7.248-23.682z" fill="#ce6581"/><g fill="#824561"><path d="m161.107 309.41 27.418-35.085a19.529 19.529 0 0 1 11.107-7.029l14.29-3.211a8.9 8.9 0 0 1 6.652 1.124 4.2 4.2 0 0 0 3.6.415 4.909 4.909 0 0 0 3.588-5.15l-1.739-6.763-47.488-1.233z"/><path d="m192.433 282.259-11.686 50.833h15.211l1.748-50.142a2.671 2.671 0 0 0 -5.273-.691z"/><path d="m311.522 285.986-1.175-10.186c-12.77 6.206-24.234 13.6-33.123 23.321l-1.571 12.866a1.884 1.884 0 0 0 3.433 1.28c5.484-8.06 16.097-20.531 32.436-27.281z"/><path d="m218.164 305.689-6.3 27.4h10.036l.934-26.791a2.366 2.366 0 0 0 -4.67-.609z"/><path d="m252.42 292.673-9.7 40.419h11.741l2.539-39.728a2.324 2.324 0 0 0 -4.58-.691z"/><path d="m220.979 282.169-1.1 3.59a9.463 9.463 0 0 0 .113 5.889l.029.083a2.317 2.317 0 0 0 4.255.281l.917-1.817a9.463 9.463 0 0 0 .09-8.347 2.316 2.316 0 0 0 -4.304.321z"/></g><path d="m142.612 217.884a41.069 41.069 0 0 1 11.807 10.92c4.684 4.651 10.4 10.675 16.448 17.856 0 0-12.564 11.541-8.2 33.359a4.555 4.555 0 0 0 3.432 3.509 4.6 4.6 0 0 0 5.56-3.538c1.558-7.438 5.774-21.141 15.7-21.141l29.921-.657a11.321 11.321 0 0 1 7.12 2.208 9.269 9.269 0 0 1 .878.753 1.47 1.47 0 0 0 2.485-.683c.8-3.415 1.215-9.048-2.888-13.361a12.719 12.719 0 0 0 -8.818-3.789l-24.2-.825a13.921 13.921 0 0 1 -8.5-3.255 46.351 46.351 0 0 1 -10.281-12.467c-3.692-2.108-5.32-7.718-5.479-13.816.003.004-15.664-4.752-24.985 4.927z" fill="#91a7cb"/><path d="m167.6 212.961s-15.665-4.756-24.986 4.923c0 0 4.73 3.894 11.807 10.921 7.66-1.019 14.448-1.671 18.66-2.029a53.755 53.755 0 0 1 -5.481-13.815z" fill="#596e8e"/><path d="m103.041 206.871-17.241 12.467c-21.077 20.1-57.233 59.623-74.047 107.794a4.168 4.168 0 0 0 4.395 5.5c5.545-.622 13.607-2.084 19.531-5.513a11.148 11.148 0 0 0 2.234 1.6 18.711 18.711 0 0 0 25.343-6.682c4.214-7.017 9.307-18.009 13.744-34.667 9.677-36.352 40.628-68.259 40.628-68.259l4.355-8.63z" fill="#5f6384"/><path d="m121.98 210.481-20.018-5.492s-6.5 5.132-16.164 14.349l7.057.419a4.8 4.8 0 0 1 3.619 7.586c-9.059 12.559-26.843 41.374-33.9 82.067-1.713 9.87-5.794 16.711-11.337 21.306a18.858 18.858 0 0 0 12.02-8.675c4.213-7.021 9.306-18.013 13.743-34.671 9.677-36.352 40.628-68.259 40.628-68.259z" fill="#313049"/><path d="m153.085 214.67a68.086 68.086 0 0 1 -42.114 9.636 2.253 2.253 0 0 1 -1.8-3.187 55.885 55.885 0 0 1 4.832-8.326l-16.643-1.156a2.246 2.246 0 0 1 -1.638-3.6c5.663-7.438 22.939-25.369 62.2-33.177z" fill="#313049"/><path d="m328.479 89.3a107.167 107.167 0 0 0 -2.561-20.829c-6.542-28.637-30.918-49.629-60.106-52.949-1.185-.135-2.361-.246-3.53-.345a17.651 17.651 0 0 0 .729-7.116.615.615 0 0 0 -1.132-.256c-2.277 3.4-5.943 5.406-9.16 6.58a17.74 17.74 0 0 0 .671-6.935.615.615 0 0 0 -1.132-.256c-4.4 6.565-13.986 7.952-15.492 8.132a137.848 137.848 0 0 0 -18.93 2.9l28.789 82.192-92.162 71c-4.974 3.832-8.557 8.441-12.361 13.436a76.871 76.871 0 0 0 -5.206 7.213 28.582 28.582 0 0 0 -1.741 4.654 7.893 7.893 0 0 0 4.14 6.28l4.941 2.661c0 1.9-1.212 3.471-2.817 4.935-.3.73-.563 1.462-.791 2.183a6.549 6.549 0 0 0 6.832 8.529c5.063-.493 9.5-1.145 13.042-1.764a96.99 96.99 0 0 1 17.673-1.514c49.1.517 94.983-27.77 94.983-27.77 57.033-33.939 55.321-100.961 55.321-100.961z" fill="#5f6384"/><path d="m244.567 122.078-12.761-5.5-.552-4.314-76.791 59.156a71.4 71.4 0 0 0 -13.26 13.272 70.05 70.05 0 0 0 -5.031 7.458 7.8 7.8 0 0 0 -1.019 4.514 327.4 327.4 0 0 0 69.547-23.572c50.351-24.046 39.867-51.014 39.867-51.014z" fill="#313049"/><path d="m238.5 36.392 14.422-.816c10.766-1.75 29.556 6.211 29.556 6.211a49.821 49.821 0 0 1 23.722 36.244 71.525 71.525 0 0 1 .451 12.643s.249 38.795-35.355 45.8a21.039 21.039 0 0 1 -17.322-4.133c-4.155-3.345-8.371-8.425-9.068-15.536-1.439-14.643-11.112-19.605-11.112-19.605l-1.988-19.584z" fill="#f3f9ff"/><path d="m245.239 108.271c1.385 11.987-1.224 33.813-32.709 49.327 0 0-54.98 31.7-103.637 32.755a6.838 6.838 0 0 1 -5.731-10.705c13.743-20.215 49.639-64.527 108.708-80.111 0 0 11.389-3.227 21.928-2.338a12.593 12.593 0 0 1 11.441 11.072z" fill="#5f6384"/><path d="m235.821 70.986c16.579 1.178 42.452-1.582 46.656-29.2a51.085 51.085 0 0 0 -29.471-7.359l-14.422.816z" fill="#ff8569"/><path d="m241.471 49.578-.075 23.19s-1 6.539-6.666 9.255a10.581 10.581 0 0 1 -5.288.933c-10.8-.718-72.3-4.006-102.937 11.839 0 .005 33.086-53.451 114.966-45.217z" fill="#f94e58"/><path d="m235.277 25.461c.728.8 1.451 1.67 2.146 2.6a20.094 20.094 0 0 1 3.977 12.052v9.279a6.882 6.882 0 0 1 -7.38 6.873c-15.953-1.174-54.867-.952-87.785 23.839 0 0-15.131 8.6-24.142 17.942l3.864-29.174c9.719-23 33.729-48.041 91.881-50.642a22.21 22.21 0 0 1 17.439 7.231z" fill="#ffb53d"/><path d="m230.106 128.406a4.5 4.5 0 0 0 -6.365.229l-.032.034a31.268 31.268 0 0 1 -8.468 6.538 31.917 31.917 0 0 1 -5.038 2.166 37.64 37.64 0 0 1 -5.408 1.417 49 49 0 0 1 -9.562.815 36.268 36.268 0 0 0 10.034-7.441l.035-.037c.062-.067.122-.135.18-.206a4.5 4.5 0 0 0 -6.966-5.709 29.44 29.44 0 0 1 -9.748 7.446 54.475 54.475 0 0 1 -12.484 4.26 92.236 92.236 0 0 1 -13.5 1.886 121.33 121.33 0 0 1 -13.808.147h-.017a2.769 2.769 0 0 0 -.414 5.519 127.28 127.28 0 0 0 14.479.731 98.879 98.879 0 0 0 14.615-1.142c1.8-.284 3.605-.632 5.4-1.058 1.174.323 2.334.6 3.531.863q3.132.661 6.327 1.024a57.008 57.008 0 0 0 12.967.042 44.98 44.98 0 0 0 6.516-1.208 40.542 40.542 0 0 0 17.729-9.722c.074-.069.155-.15.225-.225a4.5 4.5 0 0 0 -.228-6.369z" fill="#313049"/><path d="m175.759 152.725a55.954 55.954 0 0 1 -11.034 8.547 60.043 60.043 0 0 1 -12.9 5.711c-2.265.713-5.258 1.556-7.6 2.037-2.346.442-7.108.98-11.024-.237-1.406-.437-1.627-2.52-1.309-4.037l.013-.062a2.883 2.883 0 0 0 -5.6-1.349 10.162 10.162 0 0 0 -.029 5.229 10.446 10.446 0 0 0 2.581 4.6c1.236 1.281 5.749 4.733 17.184 2.453 2.581-.515 5.2-.864 7.767-1.52a66.3 66.3 0 0 0 28.126-14.82l.032-.029c.054-.049.107-.1.159-.151a4.5 4.5 0 1 0 -6.364-6.369z" fill="#313049"/><path d="m157.793 208.6a57.672 57.672 0 0 1 -13.557-2.932 20.863 20.863 0 0 0 -2.8 4.94c5.6 1.523 11.88.831 16.492-.139a.947.947 0 0 0 -.135-1.869z" fill="#313049"/><path d="m195.1 20.631c-41.928 7.274-60.8 28.507-69.138 48.243l-1.852 11.748s3.624-.086 7.682-8.867c14.329-31.017 43.928-45.049 63.308-51.124z" fill="#f94e58"/><path d="m139.905 67.179c-6.252-1.8-10.777-.492-13.946 1.695a83.717 83.717 0 0 0 -6.318 34.9 1.545 1.545 0 0 0 2.81.823 111.967 111.967 0 0 1 23.786-24.486c.892-5.882-.256-11.183-6.332-12.932z" fill="#363a4e"/><circle cx="256.544" cy="51.731" fill="#3b3b59" r="4"/></svg>