<svg id="Flat" height="512" viewBox="0 0 340 340" width="512" xmlns="http://www.w3.org/2000/svg"><circle cx="115.671" cy="92.893" fill="#f5ffb0" r="62.257"/><circle cx="115.671" cy="92.893" fill="#d8db5e" r="52.787"/><path d="m192.613 94.075h-78.789l11.138 221.361a11.191 11.191 0 0 0 11.178 10.629h112.947a11.192 11.192 0 0 0 11.178-10.629l11.135-221.361z" fill="#ffd89f"/><path d="m241.476 46.481 34.749-32.546 10.361 13.934-33.229 32.424a39.632 39.632 0 0 0 -11.9 26.256l-4.537 85.3h-16.073l3.724-88.517a53.587 53.587 0 0 1 16.905-36.851z" fill="#72645a"/><path d="m224.12 94.075-3.273 77.776h16.078l4.137-77.776z" fill="#96877d"/><path d="m224.37 160.637c-6.251.882-12.232 2.127-17.212 3.32a153.708 153.708 0 0 0 -18.186 5.565c-11.315 4.247-20.219 6.6-26.637 7.627-2.521.4-5.059.641-7.605.826-18.43 1.337-18.43 12.741-18.43 12.741l5 106.583a8.69 8.69 0 0 0 8.681 8.283h85.263a8.691 8.691 0 0 0 8.681-8.283l5-106.583.409-6.944a22.011 22.011 0 0 0 -24.964-23.135z" fill="#f4c356"/><path d="m172.024 153.861c7.621 2.112 17.647 7.128 21.173 19.028a16.53 16.53 0 0 1 -1.7 13.375c-3.564 5.787-10.837 13.079-24.178 10.426a16.384 16.384 0 0 1 -13.134-17.011 61.745 61.745 0 0 1 3.988-18.967 11.608 11.608 0 0 1 13.851-6.851z" fill="#fffff5"/><path d="m220.267 192.027h-5.026a10.5 10.5 0 0 0 -6.618 2.338 66.109 66.109 0 0 0 -8.783 8.459 10.591 10.591 0 0 0 1.072 14.771 35.061 35.061 0 0 0 12.5 7.329 10.305 10.305 0 0 0 10.733-2.961c3.158-3.543 6.641-9.687 6.651-19.558a10.474 10.474 0 0 0 -10.529-10.378z" fill="#fffff5"/><path d="m138.5 237.653.972 20.7 19.821 13.18a18.484 18.484 0 0 0 19.953.38 55.229 55.229 0 0 0 17.045-16.189 16.8 16.8 0 0 0 -.765-19.645 78.227 78.227 0 0 0 -13.361-13.353 23.309 23.309 0 0 0 -26.645-1.3 59.687 59.687 0 0 0 -17.02 16.227z" fill="#fffff5"/><path d="m162.8 289.075-2.929-2.64a9.985 9.985 0 0 0 -12.148-.94l-6.765 4.421.347 7.383a8.69 8.69 0 0 0 8.681 8.283h14.1l1.7-6.6a9.988 9.988 0 0 0 -2.986-9.907z" fill="#fce6c0"/><path d="m230.8 266.288a21.561 21.561 0 0 0 -24.725 3.083 48.144 48.144 0 0 0 -10.731 15.5 18.512 18.512 0 0 0 .092 15.938 22.88 22.88 0 0 0 3.12 4.768h36.694a8.691 8.691 0 0 0 8.681-8.283l.813-17.335a37.483 37.483 0 0 0 -13.944-13.671z" fill="#fffff5"/><g fill="#fce6c0"><path d="m179.247 271.914a55.229 55.229 0 0 0 17.045-16.189 16.8 16.8 0 0 0 -.765-19.645 80.442 80.442 0 0 0 -8.162-8.9c.985 6.085-.2 13.818-8.391 21.125-14.851 13.251-29.7-2.97-29.7-2.97a23.911 23.911 0 0 1 -5.912-13.72 63.031 63.031 0 0 0 -4.859 6.035l.972 20.7 19.821 13.18a18.484 18.484 0 0 0 19.951.384z"/><path d="m214.068 210.07a18.351 18.351 0 0 0 -2.212 14.305c.512.193 1.027.382 1.558.549a10.305 10.305 0 0 0 10.733-2.961c3.158-3.543 6.641-9.687 6.651-19.558 0-.086-.011-.169-.013-.254-4.885-.372-12.212.531-16.717 7.919z"/><path d="m243.926 297.3.334-7.11c-7.732 4.034-22.772 9.476-34.812-.823-6.553-5.6-7.762-11.39-6.79-16.385a53.46 53.46 0 0 0 -7.319 11.895 18.512 18.512 0 0 0 .092 15.938 22.88 22.88 0 0 0 3.12 4.768h36.694a8.691 8.691 0 0 0 8.681-8.283z"/><path d="m193.2 172.889a26.5 26.5 0 0 0 -1.68-4.277c-.849.3-1.7.593-2.545.91-11.315 4.247-20.219 6.6-26.637 7.627-2.521.4-5.059.641-7.605.826-.145.01-.279.027-.423.039-.046.562-.091 1.124-.123 1.665a16.384 16.384 0 0 0 13.134 17.011c13.341 2.653 20.614-4.639 24.178-10.426a16.53 16.53 0 0 0 1.701-13.375z"/></g><path d="m177.9 94.075h-64.076l24.914 44.718a10.252 10.252 0 0 0 15.241 3.139 62.1 62.1 0 0 0 23.921-47.857z" fill="#fcffd7"/><path d="m106.471 52.76a7.291 7.291 0 0 1 8.32 8.042 122.183 122.183 0 0 1 -3.291 17.398 61.339 61.339 0 0 1 -10.522-15.04 7.293 7.293 0 0 1 5.493-10.4z" fill="#fff"/><path d="m168.428 94.075h-54.6l24.914 44.718a10.243 10.243 0 0 0 .775 1.192 52.769 52.769 0 0 0 28.911-45.91z" fill="#eaea88"/><path d="m150.806 66.257a7.291 7.291 0 0 1 -3.593 11 122.093 122.093 0 0 1 -17.082 4.643 61.335 61.335 0 0 1 8.921-16.039 7.291 7.291 0 0 1 11.754.396z" fill="#fff"/><path d="m152.7 119.573a6.225 6.225 0 0 1 -9.853-.73 104.409 104.409 0 0 1 -7.345-13.211 52.371 52.371 0 0 1 15.121 4.116 6.226 6.226 0 0 1 2.077 9.825z" fill="#fff"/><path d="m89.307 130.407a6.225 6.225 0 0 1 .89-9.84 104.353 104.353 0 0 1 13.328-7.13 52.393 52.393 0 0 1 -4.361 15.052 6.226 6.226 0 0 1 -9.857 1.918z" fill="#fff"/><path d="m74.317 88.89a6.984 6.984 0 0 1 10.471-3.636 116.972 116.972 0 0 1 13.447 10.331 58.762 58.762 0 0 1 -17.4 2.5 6.986 6.986 0 0 1 -6.518-9.195z" fill="#fff"/></svg>