<svg id="fill" height="512" viewBox="0 0 340 340" width="512" xmlns="http://www.w3.org/2000/svg"><path d="m192.478 324.774a13.577 13.577 0 0 0 -13.053-9.839h-2.19a17.375 17.375 0 0 1 -15.435-9.4l-16.2-31.335-14.965 6.1 21.147 36.772c-4.162 1.214-11.683 4.291-16.233 11.418h58z" fill="#ffb345"/><path d="m262.038 324.774a13.577 13.577 0 0 0 -13.053-9.839h-2.185a17.376 17.376 0 0 1 -15.435-9.4l-16.21-31.335-14.965 6.1 21.147 36.772c-4.162 1.214-11.683 4.291-16.233 11.418h58z" fill="#f29040"/><path d="m274.8 30.636s20.811 25.038 44.732 29.093a6.765 6.765 0 0 1 4.578 10.291c-4.131 6.319-14.2 12.763-38.644 9.208 0 0-22.123-3.5-35.95 1.014z" fill="#ffb345"/><path d="m107.884 156.057a139.474 139.474 0 0 1 -14.577-12.573c-11.141-10.89-29.641-.991-26.877 14.341a48.39 48.39 0 0 0 2.195 8.41c-13.134-3.784-23.4-12.476-30.673-20.77-7.907-9.023-22.806-3.655-23.12 8.338-.64 24.374 19.865 42.483 19.865 42.483-4.544 19.993 1.068 38.214 9.858 53.18 17.2 29.292 48.045 47.759 81.89 50.668 65.064 5.591 115.353-28.117 115.353-28.117 92.433-66.517 28.912-159.009 28.912-159.009a68.879 68.879 0 0 1 -9.6-23.041 17.071 17.071 0 0 1 4.553-15.15c5.438-5.63 13.405-15.845 15.5-29a27.748 27.748 0 0 0 -9.727-25.95 34.859 34.859 0 0 0 -26.621-8.1 39.626 39.626 0 0 0 -21.493 9.808c-14.173 12.456-37.462 44.889-4.28 108.776-.001-.008-67.269-9.237-111.158 25.706z" fill="#dbeefc"/><g fill="#a7cad8"><path d="m144.968 254.887c-13.611-7.892-20.791-20.974-24.174-29.261a88.43 88.43 0 0 0 9.582 2.6 14.023 14.023 0 0 0 3.2.308c2.835-.051 8.172-.551 12.025-3.338a1.681 1.681 0 0 0 -.905-3.022 82.722 82.722 0 0 1 -28.626-6.914 4.018 4.018 0 0 0 -.4-.179 76.635 76.635 0 0 1 -27.77-21.725 87.061 87.061 0 0 1 -15.417-28.18c-.02-.072-.056-.135-.079-.2s-.03-.134-.056-.2a45.579 45.579 0 0 1 -1.982-7.655 11.988 11.988 0 0 1 20.145-10.771 144.889 144.889 0 0 0 14.9 12.86c1.449 1.215 12.154 9.784 30.541 14.39a34.358 34.358 0 0 0 17.611-.035 27.419 27.419 0 0 0 4.471-1.663 1.808 1.808 0 0 0 -.773-3.425c-29.337-.856-46.525-15.239-46.77-15.448-.046-.04-.1-.066-.148-.1s-.082-.081-.13-.115a136.942 136.942 0 0 1 -13.771-11.85 20.388 20.388 0 0 0 -24.025-3.471 19.725 19.725 0 0 0 -9.925 21.05 54.471 54.471 0 0 0 2.33 8.953 94.011 94.011 0 0 0 16.662 30.659c.475.588.973 1.182 1.481 1.778a77.459 77.459 0 0 0 .974 22.784c2.278 11.62 7.247 21.391 14.6 28.924a14.178 14.178 0 0 0 9.366 4.337 19.66 19.66 0 0 0 4-.2 1.685 1.685 0 0 0 .611-3.1c-19.346-11.978-22.116-33.171-22.023-44.932a84.194 84.194 0 0 0 20.415 13.871c1.852 6.551 9.322 28.127 29.966 40.143a61.319 61.319 0 0 0 31.39 8.047 85.983 85.983 0 0 0 13.743-1.158 14.4 14.4 0 0 0 7.479-3.575 23.411 23.411 0 0 0 3.466-4.011 1.687 1.687 0 0 0 -1.852-2.563c-19.853 5.383-36.7 4.173-50.132-3.613z"/><path d="m125.708 292.949a2.072 2.072 0 0 0 -1.9 3.56c5.146 4.484 13.789 9.564 27.719 7.575 15.831-2.261 21.237-9.2 23.234-16.5a2.07 2.07 0 0 0 -3.467-1.991 33.725 33.725 0 0 1 -21.718 10.024 75.906 75.906 0 0 1 -23.868-2.668z"/><path d="m241.966 132.7c-6.273-7.073-16.435-15.62-30.344-18.336 2.077 5.094 4.529 10.414 7.419 15.978a80.569 80.569 0 0 1 20.218 5.916 2.282 2.282 0 0 0 2.707-3.558z"/></g><path d="m256.2 41.3a4.14 4.14 0 0 1 -.781-.08 3.875 3.875 0 0 1 -.75-.23 4.513 4.513 0 0 1 -.689-.36 4.847 4.847 0 0 1 -.61-.5 3.7 3.7 0 0 1 -.491-.61 3.958 3.958 0 0 1 -.37-.69 3.83 3.83 0 0 1 -.229-.75 3.843 3.843 0 0 1 0-1.56 3.83 3.83 0 0 1 .229-.75 3.958 3.958 0 0 1 .37-.69 4.164 4.164 0 0 1 .491-.61 4.043 4.043 0 0 1 .61-.49 3.82 3.82 0 0 1 .689-.37 3.875 3.875 0 0 1 .75-.23 3.733 3.733 0 0 1 1.561 0 4.018 4.018 0 0 1 1.439.6 4.1 4.1 0 0 1 .611.49 5.106 5.106 0 0 1 .5.61 3.907 3.907 0 0 1 .36.69 3.306 3.306 0 0 1 .23.75 3.842 3.842 0 0 1 0 1.56 3.306 3.306 0 0 1 -.23.75 3.588 3.588 0 0 1 -.36.69 4.419 4.419 0 0 1 -.5.61 4.929 4.929 0 0 1 -.611.5 4.513 4.513 0 0 1 -.689.36 3.832 3.832 0 0 1 -.75.23 4.146 4.146 0 0 1 -.78.08z" fill="#2b313f"/></svg>