<svg id="flat" height="512" viewBox="0 0 340 340" width="512" xmlns="http://www.w3.org/2000/svg"><path d="m14.994 21.405h113.416a5.431 5.431 0 0 1 5.412 5.95 203.273 203.273 0 0 0 -.843 23.66c-1.77 6.079-1.441 11.651 1.082 16.693 2.369 21.576 9.086 46.467 25.821 64.8-49.05 5.324-99.042 5.133-149.882-.008v-67.849c1.258-4.834 1.645-9.468 0-13.636v-24.615a4.994 4.994 0 0 1 4.994-4.995z" fill="#e86554"/><path d="m10 154.788 120.227 9.792h66.021v-9.792a77.5 77.5 0 0 1 -36.358-22.288h-149.89z" fill="#b73e35"/><path d="m326.377 77.367h-46.37a3.623 3.623 0 0 0 -3.623 3.623v30.181c1.641 3.963 1.876 7.727 0 11.192v39.894c0 9.3-4.267 15.536-13.615 15.536l-14.856 9.835 82.087-9.835v-54.306c-2.049-4.293-2.513-8.44 0-12.316v-30.181a3.623 3.623 0 0 0 -3.623-3.623z" fill="#b73e35"/><path d="m330 177.793h-119.359l-31.059 106.12c71.265 4.442 132.711-3.821 150.418-68.683z" fill="#b73e35"/><path d="m61.423 240.244 35.5-85.456h120.14a4.988 4.988 0 0 1 4.988 5.212c-.51 10.758-.622 36.225 7.691 57.955l5.09 93.961-173.409-1.738z" fill="#e86554"/><path d="m229.752 217.954s2.772 19.074-11.4 29.835c-6.437 4.888-20.465 4.9-28.548 4.9a10.14 10.14 0 0 0 -10.083 9.343c-1.141 13.584-8.77 37.251-47.991 37.86h-38.382v-145.1h-83.348v9.608c2.594 8.36 2.217 17.267 0 26.513v127.49h31.423c18.776-4.488 44.893-2.932 72.682 0h41.886c44.838-3.265 72.421-32.612 91.922-74.173-8.481-6.646-14.249-16.049-18.161-26.276z" fill="#b73e35"/><path d="m330 215.23h-77.809a4.612 4.612 0 0 0 -4.591 4.083c-.794 7.017-3.586 21.73-13.362 33.375 35.895 2.238 68.933 2.866 95.762 0z" fill="#e86554"/><path d="m10 64.651c3.974-.306 7.786-.371 11.163-.31a57.144 57.144 0 0 1 18.637 3.409c12.1 4.436 23.686 2.237 30.534.038a60.53 60.53 0 0 1 17.366-2.994 305.069 305.069 0 0 1 46.363 2.914c-.646-5.879-.968-11.506-1.083-16.693h-122.98z" fill="#fcd6be"/><circle cx="212.336" cy="49.076" fill="#f45b5b" r="24.08"/><path d="m330 111.171h-53.616v11.192a51.846 51.846 0 0 1 20.281.043 32.727 32.727 0 0 0 11.655.2 57.118 57.118 0 0 1 21.68.884z" fill="#e09f90"/><path d="m234.235 252.685a44.143 44.143 0 0 1 -18.635 13.162v10.407l114.4-10.407v-13.162z" fill="#b73e35"/><path d="m330 265.847h-130.734a5.947 5.947 0 0 0 -5.939 5.6c-.7 11.892-5.8 39.2-37.336 46.956h174.009z" fill="#e86554"/><g fill="#93d891"><path d="m30.833 151.954a3 3 0 0 0 3-3v-9.527a3 3 0 0 0 -6 0v9.527a3 3 0 0 0 3 3z"/><path d="m67.831 135.5h5.391a3 3 0 0 0 0-6h-5.391a3 3 0 0 0 0 6z"/><path d="m86.425 111.484-3.525-5.084a3 3 0 1 0 -4.929 3.42l3.529 5.08a3 3 0 1 0 4.929-3.42z"/><path d="m107.963 106.3a3 3 0 0 0 -4.18.723l-3.583 5.079a3 3 0 1 0 4.9 3.458l3.583-5.079a3 3 0 0 0 -.72-4.181z"/><path d="m113.458 133.559h6.324a3 3 0 1 0 0-6h-6.324a3 3 0 0 0 0 6z"/><path d="m111.989 167.58h5.86a3 3 0 1 0 0-6h-5.86a3 3 0 0 0 0 6z"/><path d="m118.5 201.667a3 3 0 0 0 0-6h-5.86a3 3 0 1 0 0 6z"/><path d="m148.678 193.216a3 3 0 0 0 3-3v-8.816a3 3 0 0 0 -6 0v8.814a3 3 0 0 0 3 3.002z"/><path d="m162.705 202.77h8.2a3 3 0 0 0 0-6h-8.2a3 3 0 0 0 0 6z"/><path d="m170.91 223.07h-8.2a3 3 0 1 0 0 6h8.2a3 3 0 1 0 0-6z"/><path d="m169.289 254.234-7.729-4.462a3 3 0 1 0 -3 5.2l7.729 4.462a3 3 0 1 0 3-5.2z"/><path d="m37.289 220.713a3 3 0 0 0 -3.833 1.819l-2.156 5.427a3 3 0 1 0 5.653 2.014l2.154-5.427a3 3 0 0 0 -1.818-3.833z"/><path d="m67.831 172.957h5.391a3 3 0 0 0 0-6h-5.391a3 3 0 0 0 0 6z"/><path d="m150.172 185.828c-8.431.4-14.918 7.659-14.918 16.1v26.221a8.448 8.448 0 0 1 -8.448 8.448h-12.7v-105.962a21.036 21.036 0 0 0 -21.037-21.035 21.036 21.036 0 0 0 -21.036 21.036v61.764h-14a9.553 9.553 0 0 1 -9.552-9.552v-18.448a19.238 19.238 0 0 0 -19.239-19.239 19.239 19.239 0 0 0 -19.242 19.239v26.513a35.54 35.54 0 0 0 35.54 35.54h7.9a18.592 18.592 0 0 1 18.592 18.592v64.48l42.073.678v-14.946a27.309 27.309 0 0 1 27.309-27.309 25.192 25.192 0 0 0 25.192-25.192v-41.271a15.676 15.676 0 0 0 -16.434-15.657z"/></g><path d="m96.922 146.634a3 3 0 0 0 0-6h-5.622v-8.134a3 3 0 0 0 -6 0v131.97a3 3 0 0 0 6 0v-17h5.619a3 3 0 0 0 0-6h-5.619v-27.654h5.619a3 3 0 0 0 0-6h-5.619v-27.023h5.619a3 3 0 1 0 0-6h-5.619v-28.159z" fill="#5da058"/><path d="m76.581 207.816h-22.734a19.269 19.269 0 0 1 -19.247-19.248v-23.988a3 3 0 0 0 -6 0v6.128h-3.792a3 3 0 1 0 0 6h3.792v11.86a25.173 25.173 0 0 0 1 7.039l-4.36 2.257a3 3 0 1 0 2.76 5.328l3.965-2.052a25.255 25.255 0 0 0 21.88 12.676h22.736a3 3 0 0 0 0-6z" fill="#5da058"/><path d="m149.355 201.14a3 3 0 0 0 -3 3v33.574a13.44 13.44 0 0 1 -13.425 13.425h-2.478a19.345 19.345 0 0 0 -19.323 19.323 3 3 0 0 0 6 0 13.337 13.337 0 0 1 13.323-13.323h2.478a19.447 19.447 0 0 0 19.425-19.425v-33.574a3 3 0 0 0 -3-3z" fill="#5da058"/><path d="m114.105 295.257c0-.318.013-.634.024-.95a26.563 26.563 0 0 0 -7.422-.613c3.627-13.866-9.785-13.029-9.785-13.029s7.137-10.479-1.926-18.126c-7.35-6.2-18.87-.17-22.964 2.333v48.048l13.162 5.486h28.911z" fill="#5da058"/><path d="m41.423 318.406s-10.054 1.37-19.891-8.665a6.355 6.355 0 0 1 4.748-10.771c1.968.055 4.228-.827 6.853-.183 0 0-4.539-1.283-7.254-7.655a6.361 6.361 0 0 1 8.68-8.169 23.884 23.884 0 0 1 5.161 3.379 21.673 21.673 0 0 1 -1.59-10.868 6.355 6.355 0 0 1 11.092-3.365 25.284 25.284 0 0 1 4.116 6.694 22.207 22.207 0 0 1 5.56-10.067 6.341 6.341 0 0 1 10.81 3.329 35.468 35.468 0 0 1 .409 6.5 20.7 20.7 0 0 1 11.583-6.948 6.354 6.354 0 0 1 7.8 6.6 14.552 14.552 0 0 1 -5.522 10.31 17.982 17.982 0 0 1 8.113-1.09 6.355 6.355 0 0 1 4.742 9.886 28.178 28.178 0 0 1 -5.073 5.552 14 14 0 0 1 4.8-.958 6.362 6.362 0 0 1 4.02 11.448c-3.152 2.431-7.99 4.556-15.388 5.038z" fill="#efbf9e"/></svg>