<svg id="flat" height="512" viewBox="0 0 340 340" width="512" xmlns="http://www.w3.org/2000/svg"><path d="m117.05 144.258h16.505v111.223h-16.505z" fill="#d65238"/><path d="m233.4 139.169c-17.743-15.163-52.852-41.824-98.868-60.24a24.832 24.832 0 0 0 -18.452 0c-46.016 18.416-81.125 45.077-98.868 60.24a6.653 6.653 0 0 0 4.329 11.709h207.53a6.653 6.653 0 0 0 4.329-11.709z" fill="#f78659"/><path d="m47.379 291.116h21.968l-21.194 32.071a11.165 11.165 0 0 1 -9.288 5.128h-17.9z" fill="#d65238"/><path d="m165.851 291.116h-21.968l21.195 32.071a11.163 11.163 0 0 0 9.288 5.128h17.9z" fill="#d65238"/><path d="m10.611 271.771h193.478a0 0 0 0 1 0 0v10.85a10.667 10.667 0 0 1 -10.667 10.667h-172.144a10.667 10.667 0 0 1 -10.667-10.667v-10.85a0 0 0 0 1 0 0z" fill="#f78659"/><path d="m188.468 250.253h-101.74a22.292 22.292 0 0 1 -16.889-7.74l-21.883-25.392a15.62 15.62 0 0 0 -22.03-1.635l-4.468 3.85 45.19 52.435h137.441v-5.9a15.621 15.621 0 0 0 -15.621-15.618z" fill="#91a5e2"/><circle cx="270.404" cy="70.669" fill="#f74f73" r="31.761"/><path d="m63.556 154.379a3.5 3.5 0 0 1 -2.991-5.313c12.863-21.252 37.38-44.366 49.163-55.466 2.44-2.3 4.367-4.117 5.5-5.262a3.5 3.5 0 0 1 4.981 4.918c-1.218 1.234-3.186 3.089-5.677 5.437-11.557 10.894-35.606 33.564-47.976 54a3.5 3.5 0 0 1 -3 1.686z" fill="#d65238"/><path d="m186.057 155.262a3.5 3.5 0 0 1 -3-1.688c-9.66-15.96-26.382-36.01-49.7-59.592l-.721-.729a3.5 3.5 0 0 1 4.981-4.918l.717.726c23.7 23.972 40.766 44.458 50.71 60.888a3.5 3.5 0 0 1 -2.991 5.313z" fill="#d65238"/><g fill="#ff9fb8"><path d="m270.4 25.037a3.5 3.5 0 0 1 -3.5-3.5v-6.352a3.5 3.5 0 0 1 7 0v6.352a3.5 3.5 0 0 1 -3.5 3.5z"/><path d="m270.4 129.654a3.5 3.5 0 0 1 -3.5-3.5v-6.354a3.5 3.5 0 1 1 7 0v6.353a3.5 3.5 0 0 1 -3.5 3.501z"/><path d="m325.889 74.169h-6.353a3.5 3.5 0 0 1 0-7h6.353a3.5 3.5 0 0 1 0 7z"/><path d="m221.272 74.169h-6.352a3.5 3.5 0 0 1 0-7h6.352a3.5 3.5 0 0 1 0 7z"/><path d="m305.146 39.428a3.5 3.5 0 0 1 -2.475-5.975l4.492-4.493a3.5 3.5 0 1 1 4.95 4.951l-4.492 4.489a3.493 3.493 0 0 1 -2.475 1.028z"/><path d="m231.171 113.4a3.5 3.5 0 0 1 -2.475-5.975l4.492-4.492a3.5 3.5 0 1 1 4.95 4.95l-4.492 4.492a3.493 3.493 0 0 1 -2.475 1.025z"/><path d="m309.638 113.4a3.49 3.49 0 0 1 -2.475-1.025l-4.492-4.492a3.5 3.5 0 1 1 4.95-4.95l4.492 4.492a3.5 3.5 0 0 1 -2.475 5.975z"/><path d="m235.663 39.428a3.49 3.49 0 0 1 -2.475-1.025l-4.488-4.492a3.5 3.5 0 0 1 4.95-4.951l4.492 4.493a3.5 3.5 0 0 1 -2.475 5.975z"/></g></svg>