<svg id="fill" height="512" viewBox="0 0 340 340" width="512" xmlns="http://www.w3.org/2000/svg"><path d="m56.71 137.58c35.519-3.639 87.859-9.038 232.58 0l.247 6.247v30.25l-117.882 14.977-112.489-14.977-9.879-28.361z" fill="#e88f36"/><path d="m246.884 182.383c-18.318 10.382-41.572 2.177-50.291-16.987-5.678-12.479-7.607-30.654 10.244-51.206a126.259 126.259 0 0 1 41.175-31.51 26.545 26.545 0 0 1 37.917 25.469c-.772 13.575-4.487 30.362-14.51 49.088 0 0-9.138 16.419-24.535 25.146z" fill="#f29e66"/><path d="m157.749 163.5c3.273 20.671-12.342 39.428-33.208 41.043-13.695 1.06-31.5-3.356-44.668-27.308a126.272 126.272 0 0 1 -15.326-49.531 26.546 26.546 0 0 1 37.012-26.77c12.47 5.42 26.935 14.711 41.039 30.591.002.004 12.367 14.397 15.151 31.975z" fill="#f29e66"/><path d="m206.837 114.191c-17.851 20.551-15.922 38.726-10.245 51.2a36.748 36.748 0 0 0 19.833 18.938 45.693 45.693 0 0 0 3.162-4.641c10.334-17.441 10.2-38.355 10.185-39.237 0-.055 0-.109 0-.164a133.8 133.8 0 0 0 -7.437-41.232 130.532 130.532 0 0 0 -15.498 15.136z" fill="#cc7752"/><path d="m157.749 163.5c-2.784-17.582-15.151-31.975-15.151-31.975-2.573-2.9-5.159-5.571-7.743-8.047q-1.329 4.882-2.328 9.913c-2.786 14.107-1.865 26.762 2.735 37.614a51.145 51.145 0 0 0 15.13 19.911 34.868 34.868 0 0 0 7.357-27.416z" fill="#cc7752"/><path d="m210.984 174.6c-10.733 18.109-34.984 22.549-52.084 10.255-11.13-8.006-21.838-22.817-16.564-49.523a126.266 126.266 0 0 1 20.064-47.809 26.541 26.541 0 0 1 45.543 3.212c6.087 12.168 11.218 28.592 11.83 49.845 0 0 .233 18.789-8.789 34.02z" fill="#f29e66"/><path d="m310.522 190.506h-280.309a98.857 98.857 0 0 0 1.028 13.646 69.057 69.057 0 0 0 68.449 59.754h141.355a69.057 69.057 0 0 0 68.449-59.754 98.857 98.857 0 0 0 1.028-13.646z" fill="#f9cb7a"/><path d="m213.852 168.371q-2.054.179-4.145.339l-.945.071q-2.084.154-4.2.294c-.267.018-.538.033-.806.05q-1.8.114-3.623.214c-.4.022-.8.045-1.2.066-8.315.438-16.954.669-25.778.669-6.78 0-13.447-.14-19.95-.4-.536-.021-1.073-.042-1.607-.065q-2.613-.113-5.186-.255c-32.334-1.757-59.649-6.645-73.194-13.434a13.839 13.839 0 0 1 -3.7-3.092 129.659 129.659 0 0 0 10.354 24.411c13.163 23.952 30.973 28.368 44.668 27.308a36.568 36.568 0 0 0 31-22.358c1.1.959 2.227 1.853 3.356 2.666 15.5 11.147 36.884 8.536 48.74-5.55a35.489 35.489 0 0 0 39.242 3.078c15.4-8.727 24.535-25.146 24.535-25.146.151-.282.287-.56.435-.841-11.675 5.547-32.662 9.772-57.996 11.975z" fill="#cc7752"/><path d="m310.522 190.506h-280.309a98.857 98.857 0 0 0 1.028 13.646c.263 1.945.616 3.858 1.035 5.743a61.714 61.714 0 0 0 15.574 3.123 35.4 35.4 0 0 0 20.073 6.636 31.955 31.955 0 0 0 12.042-2.36c1.289.1 2.774.165 4.408.165a53.018 53.018 0 0 0 20.1-3.815 139.542 139.542 0 0 0 32.371 3.9 118.989 118.989 0 0 0 20.033-1.656 55.963 55.963 0 0 0 11.28 1.166c.613 0 1.229-.011 1.839-.033.609.022 1.225.033 1.839.033a55.982 55.982 0 0 0 11.281-1.166 118.969 118.969 0 0 0 20.032 1.656 139.487 139.487 0 0 0 32.371-3.9 53.038 53.038 0 0 0 20.1 3.815c1.634 0 3.119-.068 4.408-.165a31.951 31.951 0 0 0 12.042 2.36 35.4 35.4 0 0 0 20.074-6.636 61.341 61.341 0 0 0 16.367-3.408c.391-1.794.726-3.61.976-5.458a98.857 98.857 0 0 0 1.036-13.646z" fill="#e88f36"/><path d="m324.526 163.657c-7.338-25.709-35.236-26.077-35.236-26.077v6a22.8 22.8 0 0 1 -12.46 20.412c-40.095 20.147-167.526 20.083-207.644-.025a22.8 22.8 0 0 1 -12.476-20.422v-5.965s-33.9.368-41.236 26.077a23.368 23.368 0 0 0 3.618 20.243c5.192 7.032 15.262 15.3 33.911 15.3 0 0 11.12 11.583 24.557 3.706 0 0 13.9 2.78 25.483-4.17 0 0 26 8.558 54.241 2.834a40.4 40.4 0 0 0 12.716 1.44 40.4 40.4 0 0 0 12.716-1.437c28.238 5.724 54.241-2.834 54.241-2.834 11.583 6.95 25.483 4.17 25.483 4.17 13.437 7.877 24.56-3.709 24.56-3.709 18.649 0 28.719-8.272 33.911-15.3a23.368 23.368 0 0 0 3.615-20.243z" fill="#f9cb7a"/><path d="m95.563 158.143a4 4 0 0 1 -3.24-1.65 65.979 65.979 0 0 1 -7.1-12.612 4 4 0 0 1 7.344-3.171 58.075 58.075 0 0 0 6.233 11.082 4 4 0 0 1 -3.233 6.351z" fill="#fff"/><path d="m84.367 135.062a4 4 0 0 1 -3.914-3.2c-.239-1.158-.337-1.811-.337-1.811a4 4 0 0 1 7.909-1.208c.01.064.09.564.264 1.408a4.005 4.005 0 0 1 -3.922 4.807z" fill="#fff"/><path d="m233.391 117.939a4 4 0 0 1 -3.1-6.521 56.149 56.149 0 0 1 4.9-5.266 4 4 0 0 1 5.512 5.8 47.953 47.953 0 0 0 -4.2 4.508 4 4 0 0 1 -3.112 1.479z" fill="#fff"/><path d="m250.139 103.7a4 4 0 0 1 -2.12-7.395c1.208-.753 1.93-1.154 1.93-1.154a4 4 0 0 1 3.9 6.984c-.043.024-.635.357-1.6.96a4 4 0 0 1 -2.11.605z" fill="#fff"/><path d="m162.636 162.256a4 4 0 0 1 -3.981-3.655 97.422 97.422 0 0 1 5.265-39.867 4 4 0 0 1 7.559 2.617 89.9 89.9 0 0 0 -4.853 36.561 4 4 0 0 1 -3.641 4.33c-.117.01-.233.014-.349.014z" fill="#fff"/><path d="m174.216 112.15a4 4 0 0 1 -3.483-5.962c.592-1.051.945-1.606.945-1.606a4 4 0 0 1 6.762 4.276c-.029.046-.3.476-.734 1.252a4 4 0 0 1 -3.49 2.04z" fill="#fff"/><g fill="#e88f36"><path d="m207.862 241.086a3.995 3.995 0 0 1 -4-4 4.114 4.114 0 0 1 .07-.78 4.3 4.3 0 0 1 .23-.75 3.828 3.828 0 0 1 .37-.69 3.188 3.188 0 0 1 .5-.6 4.026 4.026 0 0 1 3.61-1.1 3.956 3.956 0 0 1 .74.23 4.049 4.049 0 0 1 1.3.87 3.62 3.62 0 0 1 .5.6 4.579 4.579 0 0 1 .37.69 5.371 5.371 0 0 1 .23.75 4.114 4.114 0 0 1 .07.78 3.987 3.987 0 0 1 -1.17 2.83 3.694 3.694 0 0 1 -.61.5 3.782 3.782 0 0 1 -.69.37 4.87 4.87 0 0 1 -.74.23 4.114 4.114 0 0 1 -.78.07z"/><path d="m69.547 213.916s-1.637 20.184 18.153 23.156a1.373 1.373 0 0 0 1.078-2.405c-4.4-3.746-10.655-11.146-7.619-21.3z"/><path d="m88.513 211.891s-1.637 20.183 18.155 23.156a1.373 1.373 0 0 0 1.078-2.405c-4.4-3.746-10.655-11.146-7.619-21.3z"/><path d="m118.778 231.637c1.1 6.205 4.927 15.366 17.758 17.293a1.373 1.373 0 0 0 1.078-2.405c-3.583-3.05-8.394-8.523-8.42-15.93a5.194 5.194 0 0 0 -5.488-5.07 5.231 5.231 0 0 0 -4.928 6.112z"/><path d="m257 231.637c-1.1 6.205-4.927 15.366-17.758 17.293a1.373 1.373 0 0 1 -1.078-2.405c3.583-3.05 8.394-8.523 8.42-15.93a5.194 5.194 0 0 1 5.488-5.07 5.231 5.231 0 0 1 4.928 6.112z"/><path d="m237.594 231.637c-1.1 6.205-4.928 15.366-17.759 17.293a1.373 1.373 0 0 1 -1.078-2.405c3.583-3.05 8.394-8.523 8.42-15.93a5.194 5.194 0 0 1 5.488-5.07 5.233 5.233 0 0 1 4.929 6.112z"/><path d="m46.334 166.112a19.3 19.3 0 0 0 -8.934 10.138 1.39 1.39 0 0 1 -2.684-.359 21.827 21.827 0 0 1 6.034-17.2 4.724 4.724 0 0 1 7.376.6 4.734 4.734 0 0 1 -1.792 6.821z"/><path d="m53.808 174.221a15.271 15.271 0 0 0 -7.063 8.016 1.1 1.1 0 0 1 -2.122-.283 17.259 17.259 0 0 1 4.771-13.6 3.736 3.736 0 0 1 5.833.477 3.743 3.743 0 0 1 -1.419 5.39z"/><path d="m296.675 174.735a3.995 3.995 0 0 1 -4-4 3.774 3.774 0 0 1 .3-1.53 3.828 3.828 0 0 1 .37-.69 3.188 3.188 0 0 1 .5-.6 4.026 4.026 0 0 1 3.61-1.1 3.956 3.956 0 0 1 .74.23 3.256 3.256 0 0 1 .69.37 3.316 3.316 0 0 1 .61.5 3.62 3.62 0 0 1 .5.6 4.579 4.579 0 0 1 .37.69 5.371 5.371 0 0 1 .23.75 4.2 4.2 0 0 1 .07.78 3.987 3.987 0 0 1 -1.17 2.83 4.049 4.049 0 0 1 -1.3.87 4.87 4.87 0 0 1 -.74.23 4.114 4.114 0 0 1 -.78.07z"/><path d="m302.193 153.719c4.321 1.936 10.3 6.4 9.365 16.1a1.032 1.032 0 0 1 -1.95.347c-1.569-3.168-4.68-7.673-10.074-9.043a3.9 3.9 0 0 1 -2.695-4.924 3.931 3.931 0 0 1 5.354-2.48z"/></g></svg>