<svg id="flat" height="512" viewBox="0 0 340 340" width="512" xmlns="http://www.w3.org/2000/svg"><path d="m323.154 138.473v75.764s-17.3 23.479-26.017 49.414l-24.028-79.506 30.316-34.583z" fill="#9e594a"/><path d="m247.733 321.13 27.397-8.533 25.151-43.543-4.075-62.883-36.796 11.21-13.474 40.422z" fill="#d38c73"/><path d="m221.683 292.386 26.05 28.744 2.661-65.559-4.458-16.183-43.565-16.168z" fill="#9e594a"/><path d="m16.846 162.152v32.772s29.227 39.976 40.454 71.861l26.947 4.941 28.3-43.1-80.4-71.875z" fill="#d38c73"/><path d="m58.616 208.412v58.373l.01.243 25.623 4.698 28.296-43.103-53.929-48.214z" fill="#9e594a"/><path d="m73.886 228.623v55.677s13.956 10.78 24.286 22.457a296.2 296.2 0 0 1 37.728 16.61h89.827l-1.382-59.267z" fill="#d38c73"/><path d="m16.846 143.288v18.864l11.031 12.217c3.289 2.131 5.924 4.614 7.11 7.874l23.629 26.169 15.27 7.175c8.607 2.707 16.054 6.089 22.007 10.341l-22.007 2.695 26.5 28.744a181.516 181.516 0 0 1 35.032 11.678s48.955.449 88.928-4.941l-13.923-30.541 39.972 22.008 21.11-1.8 24.7-47.6-6.781-8.089a18.352 18.352 0 0 1 5.265-9.3l28.464-50.3s-6.737-33.361-9.432-60.758c0 0-25.456-11.77-48.161-24.839-7.288-1.967-13.574-5.233-17.861-11.091 0 0-48.507-21.559-71.412-25.152h-48.505s-82.64 78.589-110.936 126.646z" fill="#fce2cb"/><path d="m202.332 46.9a123.066 123.066 0 0 0 -68.354 3.491c-22.637 8-47.935 24.536-62.964 58.432 0 0-21.21 46.06 14.566 92.236 0 0 28.811 34.669 89.227 31.445 54.936-2.931 69.853-50.264 69.853-50.264s4.367-15.127 3.073-28.294h40.291c12.067 1.611 16.035-12.247 14.469-18.63-5.687-23.179-24.433-71.155-100.161-88.416z" fill="#d38c73"/><path d="m247.7 41.785-.408-.181-14.8 37.532 8.891 4.28 24.177-30.54c-6.379-3.676-12.541-7.446-17.86-11.091z" fill="#d38c73"/><path d="m175.076 245.778a10.917 10.917 0 0 1 -4.1-9.262l.276-4.234a13.1 13.1 0 0 0 -8.309-13.056l-2.644-1.032 22.492-3.023s3.342 6.556-1.869 21.154c-.932 4.712 3.615 9.673 9.4 12.752a1.374 1.374 0 0 1 -.856 2.569c-5.638-.793-11.353-3.239-14.39-5.868z" fill="#d38c73"/><path d="m63.961 164.656-10.423-5.936a5.9 5.9 0 0 0 -6.582.5l-19.079 15.149 7.11 7.874 17.283-13.743 7.56 5.039a6.607 6.607 0 0 0 6.607.42l35.884-17.83-12.84-21.289z" fill="#d38c73"/><path d="m231.105 136.286s4.179 7.253 18.862 6.314c10.069-.644 22.653-.437 31.023-.222a8.237 8.237 0 0 0 8.337-9.509c-.614-3.994-1.7-8.359-3.606-11.329 0 0-6.071-13.528-20.152-28.264a38.308 38.308 0 0 1 -7.061-6.831 120.2 120.2 0 0 0 -12.037-9.455 44.833 44.833 0 0 1 -10.583-6.468 118.228 118.228 0 0 0 -43.645-13.428 44.252 44.252 0 0 1 -11.616-.921 111.758 111.758 0 0 0 -18.741.187q-1.9.172-3.772.408l-11.09 1.975a100.931 100.931 0 0 0 -23.595 8.642l-7 4.016a88.422 88.422 0 0 0 -14.109 11.054l-5 5.263a81.1 81.1 0 0 0 -10.158 14.614q-1.545 2.849-2.831 5.751l-3.662 10.022a80.374 80.374 0 0 0 8.921 64.311l5.294 7.632a80.243 80.243 0 0 0 15.149 14.852l12.294 7.548a79.827 79.827 0 0 0 18.991 6.552 62.846 62.846 0 0 1 9.051 1.446 86.868 86.868 0 0 0 50.507-9.234l8.882-5.506c10.319-7.377 20.025-18.2 23.551-33.729l1.316-9.618a76.968 76.968 0 0 0 -3.52-26.073z" fill="#fce2cb"/><g fill="#d38c73"><path d="m288.777 184.025-1.747-13.955-14.314-5.977a1.444 1.444 0 0 0 -1.481 2.443l8.218 6.842v6.25l-13.107 1.484-8.645 8.34a19.81 19.81 0 0 1 -12.474 5.512l-3 .195a1.78 1.78 0 0 0 -.466 3.458l6.188 2.137a10.822 10.822 0 0 0 12.806-4.649 17.325 17.325 0 0 1 11.016-6.991l7.68-1.394 9.972 10.362 5.265-9.3z"/><path d="m52.113 117.656a7.821 7.821 0 0 0 6.428-3.184l9.138-12.421a1.281 1.281 0 0 0 -1.866-1.732l-8.8 7.544a9.653 9.653 0 0 1 -7.861 2.592l-8.012-1.147q-3.276 4.06-6.361 8.059z"/><path d="m118.52 239.779-.664-1.431c-5.311-15.128-21.963-12.42-21.963-12.42l-22.007-10.341h43.866l11.048 18.577a9.156 9.156 0 0 0 5.225 4.085l11.664 3.516a1.567 1.567 0 0 1 -.358 3.064l-16.653 1.011a10.5 10.5 0 0 1 -10.158-6.061z"/><path d="m201.14 91.4 4.66-1.73a13.05 13.05 0 0 1 5.189-.8l18.615.932a11.169 11.169 0 0 0 8.958-3.792l7.911-9.022a122.492 122.492 0 0 0 -10.578-6.477l-2.365 6.727a9.142 9.142 0 0 1 -8.49 5.75h-10.591a20.234 20.234 0 0 0 -14.637 6.263l-.048.05a1.285 1.285 0 0 0 1.376 2.099z"/><path d="m246.507 101.569c5.584-1.4 13.108-3.932 19.058-8.289-2.163-2.264-4.509-4.556-7.058-6.832-2.877 4.593-8.136 8.985-13.191 12.459a1.481 1.481 0 0 0 1.191 2.662z"/><path d="m257.727 114.889c-12.07 2.079-26.854 4.34-35.164 4.175a68.675 68.675 0 0 0 -6.078-7.8l11.573-4.069a1.511 1.511 0 0 0 -.439-2.935c-5.584-.253-13.044.76-16.935 1.375a55.1 55.1 0 0 0 -24.527-12.058c9.237-14.618 7.135-31.054 6.084-36.471-3.043-.335-6.159-.582-9.374-.708 0 0-.8-.107-2.241-.225a47.567 47.567 0 0 1 -.318 36.461 68.274 68.274 0 0 0 -11.868-.251 47.522 47.522 0 0 0 -4.807.938c5.441-22.559-5.471-36.486-5.518-36.546a108.39 108.39 0 0 0 -11.091 1.967c10.88 10.721 10.578 28.332 9.719 36.6-10.422 3.625-25.353 11.41-34.2 27.591-12.667-10.591-33.267-14.134-38.2-14.852a79.318 79.318 0 0 0 -3.67 10.018c.009 0 22.232 1.838 38.1 13.365a63.478 63.478 0 0 0 -2.728 11.1 45.328 45.328 0 0 0 -15.9-1.036 1.691 1.691 0 0 0 -.336 3.3 109.268 109.268 0 0 1 15.424 5.969v.037s.425 17.962 13.827 29.806c-4.381 11.1-11.215 18.412-19.01 24.247a78.869 78.869 0 0 0 12.293 7.548 30.8 30.8 0 0 0 11.1-28.478c7.759 5.01 18.816 8.047 34.592 6.407a39.321 39.321 0 0 0 6.536-1.433 71.41 71.41 0 0 1 2.366 14.05 1.355 1.355 0 0 0 2.66.275 37.675 37.675 0 0 0 .479-16.353c7.693-3.391 16.873-9.981 20.491-22.6 6.435 3.733 18.285 8.948 32.741 7.667a56.618 56.618 0 0 0 1.327-9.615c-13.533 2.792-26-1.465-32.8-4.609.164-1.454.284-2.951.309-4.536a33.857 33.857 0 0 0 -.356-5.41c3.755-1.645 8.279-4.492 11.069-9.264a1.533 1.533 0 0 0 -2.208-2.014 48.98 48.98 0 0 1 -10.347 5.188 32.416 32.416 0 0 0 -7.1-11.795 32.162 32.162 0 0 0 3.659-23.73c12.337 4.393 21.138 12.482 26.754 19.264l.448.685c13.02-.514 24.858-2.637 34.936-7.156a2.158 2.158 0 0 0 -1.272-4.089zm-130.858 47.548a49.418 49.418 0 0 0 15.608-2.341 27.612 27.612 0 0 0 3.334 4.911 17.693 17.693 0 0 0 12.594 6.392 49.6 49.6 0 0 1 -.624 10.779 42.229 42.229 0 0 1 -13.872-3.1 31.479 31.479 0 0 1 -17.04-16.641zm66.73-8.721c-.185 8.512-3.2 21.21-18.546 26.093a51.985 51.985 0 0 1 -9.211 2.061 30.3 30.3 0 0 0 -.865-11.21 27.735 27.735 0 0 0 4.785-1.8c7.122-3.433 9.68-9.2 8.218-13.109a4.511 4.511 0 0 0 -6.924-1.921l-.084.063a4.835 4.835 0 0 0 -1.586 2.2 7.511 7.511 0 0 1 -4.786 4.507 10.634 10.634 0 0 1 -10.206-1.985 12.571 12.571 0 0 1 -3.936-5.815 10.934 10.934 0 0 1 -.19-5.9 20.471 20.471 0 0 1 10.368-14.015 22.267 22.267 0 0 1 17.678-1.247q.526.175 1.03.368a22.584 22.584 0 0 1 14.256 21.71zm-5.2-27.9a30.128 30.128 0 0 0 -7.461-3.788c-7.121-2.427-15.952-2.6-26.014 2.991a23.675 23.675 0 0 0 -5.151 3.9 22.766 22.766 0 0 0 -6.73-2.893 1.766 1.766 0 0 0 -1.812 2.8 18.716 18.716 0 0 0 4.97 4.3c-3.483 4.738-7.132 11.78-6.1 19.626a38.551 38.551 0 0 1 -15.589.2c-.082-1-.133-2-.115-3.021q.015-.807.056-1.6c1.044-19.983 15.778-35.189 34.55-42.117a50.964 50.964 0 0 1 11.61-2.82 31.34 31.34 0 0 1 2.658 9.511 1.466 1.466 0 0 0 2.821.377 26.689 26.689 0 0 0 1.751-10.316 57.461 57.461 0 0 1 12.686 1.391c.95 4.004 2.192 12.743-2.129 21.457z"/><path d="m194.985 186.767a72.916 72.916 0 0 1 5.881 24.427c1.511-.8 3.007-1.643 4.472-2.549s2.95-1.9 4.416-2.946a42.9 42.9 0 0 0 -10.068-21.812 2.788 2.788 0 0 0 -4.701 2.88z"/><path d="m152.237 202.441a45.96 45.96 0 0 1 -10.919 16.559q4.165.874 8.68 1.4c3.992-5.953 4.828-12.678 4.769-17.5a1.31 1.31 0 0 0 -2.53-.459z"/><path d="m107.935 173.743a112.152 112.152 0 0 1 -18.346 8.671 81.661 81.661 0 0 0 5.392 7.753c5.559-2.917 11.111-10.03 14.442-14.873a1.1 1.1 0 0 0 -1.488-1.551z"/><path d="m116.317 96.69a2.509 2.509 0 0 0 -.08-3.348 55.07 55.07 0 0 0 -13.916-10.885q-2.618 2.524-5 5.27a58.371 58.371 0 0 1 15.537 9.273 2.49 2.49 0 0 0 3.459-.31z"/><path d="m131.328 87.475a2.639 2.639 0 0 0 4.35.324 2.667 2.667 0 0 0 .26-2.932 80.958 80.958 0 0 0 -12.5-17.474q-3.6 1.868-7 4.018c2.962 2.261 10.668 8.567 14.89 16.064z"/><path d="m122.252 99.684c-1.431-.7-3.3.876-2.769 2.33a8.261 8.261 0 0 0 1.467 2.617 6.163 6.163 0 0 0 2.141 1.537 2.053 2.053 0 0 0 2.723-2.311 7.461 7.461 0 0 0 -1.343-2.44 6.573 6.573 0 0 0 -2.219-1.733z"/></g></svg>