<svg id="Flat" viewBox="0 0 340 340" xmlns="http://www.w3.org/2000/svg"><path d="m313.3 70.105c-10.754 8.107-30.654 27.206-38.261 61.606h-7.727v-56.884s17.195-24.3 53.129-29.1v10.1a17.878 17.878 0 0 1 -7.141 14.278z" fill="#ce6581"/><path d="m313.3 70.105a17.879 17.879 0 0 0 7.141-14.277v-1.378a29.729 29.729 0 0 1 -8.6 6.884 87.462 87.462 0 0 0 -32.714 31.434l-2.917-8.22a2.244 2.244 0 0 0 -4.264.1l-4.635 15.338v31.723h7.727c7.609-34.398 27.509-53.497 38.262-61.604z" fill="#824561"/><path d="m288.535 171.572s21.352 1.731 20.19 23.582a21.186 21.186 0 0 1 -6.148 15.3s-11.294 6.633-22.993 7.165l-9.646-.094v-45.953z" fill="#96859b"/><path d="m302.572 210.45c-8.925 2.059-13.662-2.888-16.035-7.232a5.313 5.313 0 0 1 2.453-7.266 14.57 14.57 0 0 0 5.975-5.194 3.031 3.031 0 0 0 -2.195-4.639 186.027 186.027 0 0 0 -22.832-1.423v34.04h9.762c11.7-.536 18.692-4.09 22.872-8.286z" fill="#4e405f"/><path d="m68.288 301.62s27.682 9.432 41.325-7.447a1.648 1.648 0 0 1 2.757.353c1.991 4.15 4.97 12.97-1.288 19.824l-14.153 4.764-25.793-1.669z" fill="#af8d87"/><path d="m66.207 311.512s31.871 15.019 54.761-5.028a.57.57 0 0 1 .943.309 19.8 19.8 0 0 1 -6.157 18.656 23.476 23.476 0 0 1 -10.212 5.215c-8.01 1.935-26.543 4.584-42.4-6.771z" fill="#e7d3d8"/><path d="m270.693 24.133 2.553 18.467c.5 26.764 1.478 77.63 2.572 122.977a179.061 179.061 0 0 0 .914 35.353c.275 9.784.551 18.757.821 26.491l4.959 102.088h-63.536l8.678-125.659-.792-15.345s1.835-57.451 1.816-101.417c0 0 .8-32.435.06-41.357 0-.002 16.85-18.189 41.955-21.598z" fill="#ce6581"/><path d="m253.918 268.731c8.2-6.126 19.606-8.206 25.211-8.886l-.622-12.8c-1.434-1.745-2.677-2.932-3.1-2.434-1.2 1.416-21.146-1.126-25.789 0a76.12 76.12 0 0 0 -7.483 3.026l-2.048-73.231c-.567-20.293-.221-66.659-.221-66.659l.01-38.029a102.213 102.213 0 0 1 33.37-27.118c-.217-11.7-.342-18.807-.342-18.807-13.065 1.775-24.779 7.913-33.017 13.393v-.689a72.2 72.2 0 0 0 -11.149 9.234c-.7.628-1.084 1-1.084 1 .743 8.922 1.016 23.672 1.023 40.36.019 43.966-1.816 101.417-1.816 101.417v15.374l-3.276 52.189-.968 15.425-3.642 58.016h31.816c-6.264-7.965-6.959-21.185-6.959-21.185l-.809-28.942c3.404-3.696 6.556-7.412 10.895-10.654z" fill="#824561"/><path d="m263.125 182.018-9.207 5.906s15.779 2.816 22.814 13c-.259-9.228-.518-19.181-.771-29.49-4.707-.152-15.573.067-25.217 4.451 4.483 1.366 9.033 2.598 12.381 6.133z" fill="#824561"/><path d="m288.428 219.566a40.108 40.108 0 0 0 -11.334-7.18c-8.559-3.674-26.166-9.491-50.232-8.509l-.761-15.4-8-.262a19.981 19.981 0 0 1 -9.964-3.049c-5.448-3.417-15.488-9.041-26.685-12.038l.473-13.008c1.578-3.413 4.384-5.849 7.647-7.922a100.439 100.439 0 0 1 17.3-13.149 1.743 1.743 0 0 0 -.077-3.056 23.6 23.6 0 0 0 -6.9-2.229s10-10.477 14.46-21.577a1.571 1.571 0 0 0 -1.2-2.132l-3.173-.532a1.565 1.565 0 0 1 -1.306-1.615c.371-8.525 4.963-53.952 60.415-72.5a13.768 13.768 0 0 0 7.346-20.3 18.355 18.355 0 0 0 -1.2-1.671 13.6 13.6 0 0 0 -8.245-4.837 71.376 71.376 0 0 0 -50.3 10.25 73.823 73.823 0 0 0 -22.252 22.558c-4.2 6.564-11.911 17.383-21.982 26.233-15.61 13.718-28.146 14.191-28.146 14.191l-94.856 41.768s4.436 13.234 3.733 25.751c-.144 2.58-4.577 5.454-4.577 5.454-4.444 4.013-12.977 14.108-16.183 34.351a29.816 29.816 0 0 1 -5.65 13.463 59.894 59.894 0 0 1 -6.947 7.588.888.888 0 0 0 .617 1.544 28.9 28.9 0 0 0 9.461-1.814 8.2 8.2 0 0 1 -1.455 4.615 41.832 41.832 0 0 1 -7.242 7.866.891.891 0 0 0 .61 1.552 30.323 30.323 0 0 0 7.012-.957c-1.959 30.127-1.421 77.277 18.206 97.22 0 0 14.489 15.939 26.564 0 0 0 7.337-10.6-1.955-22.432a13.317 13.317 0 0 1 -2.9-8.451 129.433 129.433 0 0 1 2.009-20.9s8.752 1.183 7.333-17.739c0 0 5.2 4.021 9.7-2.129 0 0 8.609 13.873 33.917 25.463 0 0 12.046 5.49 18.93 15.187a22.788 22.788 0 0 0 4.92-10.588s9.894 9.817 28.343 10.053l.962-9.2s7.806 6.952 24.6 6.952l.321-7.165a58.864 58.864 0 0 0 36.169-14.036c12.494-10.734 35.823-14.432 46.563-15.671 5.273-.609 8.863-2.344 11.215-7.1a78.829 78.829 0 0 0 2.865-7.815c-.134-4.505-2.239-9.662-8.169-15.096z" fill="#96859b"/><path d="m115.55 159.035c-18.27-.356-46.722-5.138-63.35-29.027l-1.349.8a85.449 85.449 0 0 1 .973 17.263 9.825 9.825 0 0 1 -3.212 6.74s30.806 27.1 68.364 12.035a4.053 4.053 0 0 0 -1.426-7.811z" fill="#4e405f"/><path d="m159.368 133.868c16.884-22.929 9.28-53.323 6.854-61.292a55.7 55.7 0 0 1 -15.746 7.989c12.1 15.912 8.354 37.6 4.177 50.946a2.672 2.672 0 0 0 4.715 2.357z" fill="#4e405f"/><path d="m89.872 164.205a63.743 63.743 0 0 0 30.248-.962 58.957 58.957 0 0 0 42.89-60.666c-.025-.361-.051-.718-.08-1.073a49.632 49.632 0 0 0 -34.739-43.629 50.814 50.814 0 0 0 -11.084-2.192 13.211 13.211 0 0 0 .965-7.3 1.789 1.789 0 0 0 -2.986-1.042c-7.366 6.667-18.51 6.667-18.51 6.667a10.342 10.342 0 0 0 -3.042-9.261 1.775 1.775 0 0 0 -2.849.47c-2.919 5.783-9.612 10.466-9.612 10.466-50.281 24.302-34.773 68.717-34.773 68.717s8.337 32.528 43.572 39.805z" fill="#96859b"/><path d="m65.214 113.573c-1.469-11.331 1.966-22.9 10.024-31 5.473-5.502 13.762-10.325 26.262-11.673 13.334-1.439 22.486 2.111 28.668 6.888a32 32 0 0 1 9.932 13.084s-1.384 21.986-3.066 28.069c-5.712 20.663-23.722 30.51-44.151 24.012-10.665-3.392-26.675-24.027-26.675-24.027a49.035 49.035 0 0 1 -.994-5.353z" fill="#feefff"/><path d="m91.787 142.55 6.224-25.85c.5-6.57-1.86-10.4-4.785-12.645a13.135 13.135 0 0 0 -14.888-.465 30.283 30.283 0 0 0 -12.131 15.336 35.686 35.686 0 0 0 17.074 23.22z" fill="#64639b"/><path d="m123.154 90.385a13.489 13.489 0 0 0 -11.972 14.894c.523 4.242 2.767 8.95 8.65 13.091l21.016 1.988a61.224 61.224 0 0 0 1.94-16.252 35.377 35.377 0 0 0 -2.7-13.231 66.654 66.654 0 0 0 -16.934-.49z" fill="#64639b"/><path d="m140.743 120.776s-7.927-9.435-20.6-10.343l-27.262 10.556c-8.478 7.454-9.858 15.753-9.6 21.155a45.6 45.6 0 0 0 9.191 4.041c20.428 6.498 42.559-4.747 48.271-25.409z" fill="#f9eff9"/><path d="m286.28 163.88a38.661 38.661 0 0 0 -35.536 12.009s16.378-2.662 30.3 2.917a13.424 13.424 0 0 0 4.907 1.064c2.763.014 6.318-.887 7.469-5.291a8.443 8.443 0 0 0 -.139-4.946 8.963 8.963 0 0 0 -7.001-5.753z" fill="#e7d3d8"/><path d="m116.139 125.549a2.666 2.666 0 0 1 .384-2.845 12.424 12.424 0 0 0 1.794-2.959 23.374 23.374 0 0 0 1.821-9.3 29.408 29.408 0 0 0 -13.512 2.322 49.009 49.009 0 0 0 -13.744 8.226 22.415 22.415 0 0 0 9.61 5.924 12.89 12.89 0 0 0 3.969.59 2.677 2.677 0 0 1 2.458 1.493l2.753 5.724a3.655 3.655 0 0 0 3.608 2.268 4.3 4.3 0 0 0 3.543-5.858z" fill="#3b3b59"/><g fill="#4e405f"><path d="m226.862 188.5-8.763-.287a19.967 19.967 0 0 1 -9.394-2.717c-.338 6.644-5.183 12.936-13.523 16.09a108.111 108.111 0 0 0 -23.911 12.522c-2.452 1.719-.21 5.616 2.457 4.255a136.608 136.608 0 0 1 53.134-14.489z"/><path d="m163.322 163.357a1.676 1.676 0 0 0 -2.114-1.063 1.449 1.449 0 0 0 -1.133 1.332v.074c-.064 2.785-.568 17.209-9.86 23.5-1.068.724-2.659.342-2.779-.84-.258-2.536-.627-4.955-.987-6.99-.3-1.686-2.884-2.225-4.011-.819-3.575 4.462-8.477 8.808-17.3 11.593a1.286 1.286 0 0 1 -1.789-1.1 26.055 26.055 0 0 0 -.266-3.628 3.772 3.772 0 0 0 -4.669-2.321 29.216 29.216 0 0 1 -16.22.213 1.607 1.607 0 0 0 -1.268.207 1.078 1.078 0 0 0 -.248 1.7c4.616 4.441 12.468 4.805 14.163 4.856h.035c-.04.127-.071.254-.117.38a14.291 14.291 0 0 1 -2.064 3.571 3.194 3.194 0 0 0 -.426 3.187 4.347 4.347 0 0 0 4.372 2.373h.073a43.627 43.627 0 0 0 8.13-1.266 42.053 42.053 0 0 0 7.595-2.727 81.974 81.974 0 0 0 7.316-4.44s2.692 8.108 7.761 6.124c7.832-3.064 15.028-8.272 16.476-24.528a29.27 29.27 0 0 0 -.67-9.388z"/><path d="m136.778 155.332.055-.109a11.677 11.677 0 0 1 7.453-6.084l.022-.006a1.9 1.9 0 0 1 2.054 2.923 16.679 16.679 0 0 1 -7.17 5.892 1.9 1.9 0 0 1 -2.414-2.616z"/><path d="m181.923 160.121a97.7 97.7 0 0 1 7.648-7.922 24.205 24.205 0 0 0 -6.629-12.479 1.215 1.215 0 0 0 -2.024 1.223 39.243 39.243 0 0 1 1.005 19.178z"/><path d="m271.515 242.045a51.36 51.36 0 0 0 -17.253 2.042c-9.7 2.979-17.87 8.392-30.894 15.445a34.74 34.74 0 0 1 -31.634 1.149 1.513 1.513 0 0 0 -2.163 1.365v9.311a2.783 2.783 0 0 1 -3.484 2.681 42.959 42.959 0 0 1 -19.46-10.349 1.509 1.509 0 0 0 -2.557 1.091v6.363a2.767 2.767 0 0 1 -3.64 2.636c-9.075-3.111-17.324-10.049-21.321-13.786a1.509 1.509 0 0 0 -2.537 1.111v1.012a2.771 2.771 0 0 1 -3.492 2.679c-10.743-2.957-18.194-6.915-23.359-10.927a24.886 24.886 0 0 1 -9.3-17.144 39.568 39.568 0 0 0 -10.361-22.337 1.775 1.775 0 0 0 -2.951 1.888c6.816 16.625.679 32.3.679 32.3a36.057 36.057 0 0 0 3.679 5.439l.138.17a66.273 66.273 0 0 0 29.534 22.06s12.721 5.44 19.606 15.138a22.884 22.884 0 0 0 4.992-10.644s11.117 9.7 29.566 9.934v-9.461s8.278 6.859 25.071 6.859v-6.622a60.839 60.839 0 0 0 36.187-14.428c12.494-10.734 35.068-14.529 45.808-15.769a15.72 15.72 0 0 0 12.35-8.5 17.117 17.117 0 0 0 1.873-8.1c-6.078 7.149-18.546 7.668-25.077 7.394z"/></g><path d="m293.424 174.579a8.443 8.443 0 0 0 -.139-4.946 8.27 8.27 0 0 0 -2.42-3.552c-.582 1.58-2.36 3.27-7.264 3.426-6.776.215-14.105 3.921-17.668 5.972a52.178 52.178 0 0 1 15.115 3.327 13.424 13.424 0 0 0 4.907 1.064c2.763.014 6.318-.887 7.469-5.291z" fill="#af8d87"/><path d="m289.453 175.916a38.657 38.657 0 0 0 -35.535 12.008s16.378-2.661 30.3 2.918a13.418 13.418 0 0 0 4.906 1.063c2.763.015 6.319-.886 7.47-5.291a8.443 8.443 0 0 0 -.14-4.946 8.96 8.96 0 0 0 -7.001-5.752z" fill="#e7d3d8"/><circle cx="84.181" cy="114.309" fill="#3b3b59" r="4"/><circle cx="124.716" cy="100.657" fill="#3b3b59" r="4"/></svg>