<svg id="flat" height="512" viewBox="0 0 340 340" width="512" xmlns="http://www.w3.org/2000/svg"><path d="m283.363 275.229s1.833-15.713-5.563-30.26a2.2 2.2 0 0 0 -4.176 1.046c.293 7.747-.428 18.953-5.886 26.446z" fill="#d2dfff"/><path d="m232.015 267.79s5.8-10.32 4.893-22.5a1.649 1.649 0 0 0 -3.185-.483c-2.033 5.434-5.766 12.963-11.7 16.561z" fill="#6f85d3"/><path d="m248.962 273.771a39.225 39.225 0 0 0 1.508-20.323 1.46 1.46 0 0 0 -2.851-.029c-1.111 5.013-3.451 12.073-8.205 15.959z" fill="#d2dfff"/><path d="m264 275.009a39.216 39.216 0 0 0 -.891-20.359 1.459 1.459 0 0 0 -2.834.306c-.514 5.109-2.009 12.4-6.273 16.812z" fill="#d2dfff"/><path d="m296.485 273.4a39.223 39.223 0 0 0 -4.072-19.968 1.46 1.46 0 0 0 -2.752.747c.294 5.126-.04 12.556-3.559 17.588z" fill="#d2dfff"/><path d="m309.544 273.292a39.223 39.223 0 0 0 -4.854-19.792 1.46 1.46 0 0 0 -2.72.854c.495 5.111.453 12.549-2.865 17.715z" fill="#d2dfff"/><path d="m201.953 242.654a37.753 37.753 0 0 0 8.488-17.678 1.405 1.405 0 0 0 -2.544-1.028c-2.756 4.1-7.332 9.6-12.956 11.417z" fill="#6f85d3"/><path d="m191.576 229.525a37.745 37.745 0 0 0 9.4-17.212 1.4 1.4 0 0 0 -2.487-1.159c-2.965 3.953-7.821 9.21-13.531 10.727z" fill="#6f85d3"/><path d="m216.167 258.592s8.281-13.479 7.7-29.788a2.2 2.2 0 0 0 -4.228-.811c-3 7.15-8.372 17.01-16.479 21.506z" fill="#6f85d3"/><path d="m330.046 124.746c3.384-10.274-2.967-25.549-2.967-25.549l-8.647 6.812c4.553 4.4 7.462 10.677 8.947 18.586a1.382 1.382 0 0 0 2.667.151z" fill="#d2dfff"/><path d="m314.444 133.86a50.979 50.979 0 0 0 -10.246-15.5l12.449-5.631a70.7 70.7 0 0 1 .867 20.655 1.606 1.606 0 0 1 -3.07.476z" fill="#d2dfff"/><path d="m300.758 120.175a74.089 74.089 0 0 1 2.113 19.005 2.3 2.3 0 0 1 -4.395.838c-2.319-5.391-5.827-11.741-10.22-14.206z" fill="#d2dfff"/><path d="m285.754 126.757s5.758 13 3.281 27.465a1.981 1.981 0 0 1 -3.864.214c-1.812-6.731-5.415-16.162-12.1-21.142z" fill="#d2dfff"/><path d="m268.639 134.83s4.024 11.1 1.145 22.927a1.644 1.644 0 0 1 -3.211-.044c-1.115-5.676-3.559-13.69-8.807-18.2z" fill="#d2dfff"/><path d="m255.748 139.249s2.622 14.559-3.437 28.565a2.061 2.061 0 0 1 -3.958-.734c-.176-7.248-1.5-17.665-7.028-24.341z" fill="#d2dfff"/><path d="m239.306 146.38a37.747 37.747 0 0 1 -5 18.961 1.4 1.4 0 0 1 -2.6-.867c.562-4.91.646-12.066-2.46-17.092z" fill="#6f85d3"/><path d="m225.269 146.417a39.174 39.174 0 0 1 -5.191 19.682 1.458 1.458 0 0 1 -2.7-.9c.582-5.1.67-12.524-2.554-17.741z" fill="#6f85d3"/><path d="m211.5 146.36a37.011 37.011 0 0 1 -4.9 18.589 1.377 1.377 0 0 1 -2.552-.85c.55-4.813.633-11.829-2.413-16.756z" fill="#6f85d3"/><path d="m41.521 211.034s-1.848 8.516 12.046 23.379a124.431 124.431 0 0 0 59.947 36.187c2.886.764 5.814 1.352 8.759 1.845a254.427 254.427 0 0 1 27.855 6.114 106.569 106.569 0 0 0 21.172 4.141 328.133 328.133 0 0 0 35.785 1.113 101.552 101.552 0 0 1 21.828 1.943c11.195 2.21 27.544 6.177 40.881 12.405a29.618 29.618 0 0 0 18.266 2.209c10.729-2.125 26.222-8.866 26.23-28.593a2.98 2.98 0 0 0 -3.3-2.962c-12.443 1.35-58.293 5.6-76.714-2.739-21.409-9.694-35.626-35.221-35.626-35.221s-15.59-27.686-40.641-40.645l-56.3-12.671z" fill="#d2dfff"/><path d="m150.505 186.914c-29.919-10.85-48.792-9.371-48.792-9.371-13.4 6.044-27.263 12.1-38.279 18.094-4.393 2.392-1.806 9.1 3.061 7.941 21.418-5.081 55.927-11.911 91.511-13.356a63.5 63.5 0 0 0 -7.501-3.308z" fill="#6f85d3"/><path d="m51.874 70.817.336-.048a11.1 11.1 0 0 0 7.073-4.092 26.15 26.15 0 0 1 6.29-5.709 10.772 10.772 0 0 1 8.534-1.25l6.2 1.652a10.928 10.928 0 0 0 4.542.23l12.171-1.948a14.668 14.668 0 0 1 10.687 2.448 14.664 14.664 0 0 0 9.925 2.544l9.76-1.039a10.781 10.781 0 0 1 6.3 1.222c2.47 1.343 7.01 3.1 14.361 3.557a11 11 0 0 0 3.467-.33c2.834-.744 9.328-2.344 17.475-3.7a107.544 107.544 0 0 0 20.255-5.376 74.418 74.418 0 0 1 19.15-4.478 120.718 120.718 0 0 0 25.441-4.924c5.883-1.859 12.994-4.4 21.072-7.847a32.086 32.086 0 0 1 29.567 2.034 61.549 61.549 0 0 1 17.4 16.986l18.29 23.467a14.376 14.376 0 0 1 -1.2 19.148q-.49.474-1.043.944a13.855 13.855 0 0 1 -2.669 1.758l-32.873 16.828-45.491 18.278-44.276 8.528-26.4 15.435s-14.622 13-45.085 16.247-79.61 29.651-79.61 29.651-11.779-6.5 0-17.872a16.436 16.436 0 0 0 1.516-2.075 21.34 21.34 0 0 0 -2.771-26.086 56.261 56.261 0 0 0 -6.464-5.882 16.7 16.7 0 0 1 -2.714 5.784 6.574 6.574 0 0 1 -10.624-.444l-6.087-9.027a31.476 31.476 0 0 1 -5.35-15.691c-.007-.118-.014-.236-.02-.355a34.331 34.331 0 0 1 9.624-25.513c6.707-7.007 17.6-19.967 24.721-36.5a10.982 10.982 0 0 1 8.52-6.555z" fill="#d2dfff"/><g fill="#6f85d3"><path d="m65.845 104c2.281 9.037 7.488 25.681 17.08 37.449a12.327 12.327 0 0 1 2.061 3.519 37.255 37.255 0 0 1 1.561 5.511 9.161 9.161 0 0 1 -5.13 10.049l-1.552.728a61.465 61.465 0 0 0 -5.765 3.169 16.091 16.091 0 0 1 -11.749 1.692s10.613-8.844 5.379-25.127a12.848 12.848 0 0 0 -9.512-8.779c-4.706-.947-11.2.575-18.667 10.074a5.415 5.415 0 0 1 -3.6 2.035 5.377 5.377 0 0 1 -6.01-4.878c-.579-6.954.46-19.016 12.4-27.175a27.921 27.921 0 0 0 12.072-10.094 6.442 6.442 0 0 1 3.515-2.673 6.3 6.3 0 0 1 7.917 4.5z"/><path d="m94.222 95.873a13.6 13.6 0 0 0 -.573 5.516 13.334 13.334 0 0 0 11.091 11.436 38.332 38.332 0 0 0 13.227-.26s5.3-.882 7.945 9.711c0 0 2.06 5.591-4.708 7.356a51.431 51.431 0 0 1 11.77 10.888s8.441 11.2 15.89 5.3c8.534-6.768 0-14.419 0-14.419s-3.753-3.519-4.348-13.07a17.916 17.916 0 0 0 -2.8-8.457c-5.679-8.96-19.909-26.966-39.838-21.322a11.151 11.151 0 0 0 -7.656 7.321z"/><path d="m216.568 85.833c4.517 3.789 10.927 9.8 15.2 16.482a15.1 15.1 0 0 1 2.428 9.7c-.009.082-.019.164-.029.247-1.037 8.229-12.527 9-14.895 1.047q-.06-.2-.114-.405a7.015 7.015 0 0 0 -6.986-5.166h-.131a7.282 7.282 0 0 0 -6.854 5.406 27.648 27.648 0 0 0 -.851 5.567 7.149 7.149 0 0 1 -7.49 6.715c-4.963-.257-11.111-1.633-14.44-6.389 0 0-7.945-21.775-25.012-27.366 0 0-3.474-6.474 8.709-7.945 10.461-1.264 23.655-4.046 37.98-2.944a22.02 22.02 0 0 1 12.485 5.051z"/><path d="m257.586 75.224a80.769 80.769 0 0 1 7.514 9.564 7.127 7.127 0 0 1 -2.818 10.262 14.4 14.4 0 0 1 -3.943 1.258 11.927 11.927 0 0 1 -9.9-3.014c-2.961-2.676-6.535-7.134-6.007-12.763a9.39 9.39 0 0 1 2.166-5.4 8.707 8.707 0 0 1 12.988.093z"/><path d="m281.531 58.869a94.56 94.56 0 0 1 22.193 25.045s-8.751-6.314-16.31-8.5-13.438-2.187-15.626-8.553a8.7 8.7 0 0 1 -.449-3.529 6.33 6.33 0 0 1 10.192-4.463z"/><path d="m166.216 165.136s.5-1.052 1.535-2.727a46.069 46.069 0 0 1 33.681-21.4l27.183-3.327a46.355 46.355 0 0 0 11.148-2.8c15.349-5.959 58.464-23.2 71.506-33.762 0 0 9.075-6.67 8.9-16.906a20.033 20.033 0 0 1 6.144 4.014 12.079 12.079 0 0 1 -.8 17.988 146.254 146.254 0 0 1 -28.135 18.458c-12.676 6.142-33.361 15.67-45.422 21.192a58.245 58.245 0 0 1 -19.151 5.079c-16.063 1.414-48.428 5.246-66.589 14.191z"/><path d="m140.4 203.668c6.926 2.364 20.882 8.8 34.016 24.929a23.678 23.678 0 0 0 -10.5 13.943 23.915 23.915 0 0 1 -6.183 11.019c-4.322 4.2-11.592 8-23.386 6.381-23.588-3.231-33.6-20.733-33.6-20.733s-8.078-12.549 3.231-25.474c8.066-9.218 20.9-11.04 27.6-11.327a24.1 24.1 0 0 1 8.822 1.262z"/><path d="m65.845 104a42.358 42.358 0 0 1 -.757-11.689 1.819 1.819 0 0 0 -3.138-1.411 42.693 42.693 0 0 0 -7.536 11.275z"/><path d="m62.351 166.121a39.738 39.738 0 0 0 -9.108 5.946 2.041 2.041 0 0 0 2.126 3.434c4.532-1.948 9.95-3.729 14.268-3.517 9.195.453 19.65-5.617 16.91-21.5 0-.001-8.568 12.637-24.196 15.637z"/><path d="m163.3 84.216s-12.882 2.186-9.108 16.715a28 28 0 0 0 2.2 5.637c.211.415.447.865.705 1.339a.92.92 0 0 0 1.712-.619c-1.271-5.908-1.754-13.948 5.7-12.108z"/><path d="m260.8 78.968-2.632-2.9a16.525 16.525 0 0 0 -10.864-5.4c-5.158-.427-14.053-.633-21.828-.687a1.525 1.525 0 0 0 -.393 3c7.714 1.99 17.115 4.917 23 8.514 11.386 6.957 12.717-2.527 12.717-2.527z"/><path d="m303.724 83.914s4.626 6.267-6.28 12.062a1.783 1.783 0 0 1 -2.117-2.812c4.049-4.289 6.3-9.928-1.336-15.089l1.684-1.066z"/><path d="m104.688 244.4c-7.1-6.452-13.773-12.512-23.271-15.134a38.361 38.361 0 0 1 -13.935-7.173 2.533 2.533 0 0 1 2.533-4.322c4.557 1.8 9.842 3.412 14.433 3.594 15.227.605 28.74 8.169 28.74 8.169z"/><path d="m174.416 228.6s14.169 16.547 46.971 29.117q1.918.735 3.78 1.6a68.67 68.67 0 0 1 15.974 10.427l5.229 4.5a43.1 43.1 0 0 0 12.669 5.386 114.3 114.3 0 0 0 16.078 2.786 2.346 2.346 0 0 1 -.132 4.68c-9.044.382-20.781-1.407-34.589-8.567a85.035 85.035 0 0 0 -25.8-11.653c-14.774-3.745-47.977-20.914-51.3-31.318s11.12-6.958 11.12-6.958z"/><path d="m286.306 101.95a1.914 1.914 0 0 0 -1.7-3.153 10.54 10.54 0 0 0 -3.185.939 8.95 8.95 0 0 0 -2.681 1.948 1.916 1.916 0 0 0 1.7 3.2 11.694 11.694 0 0 0 3.425-1.035 8.293 8.293 0 0 0 2.441-1.899z"/><path d="m157.735 253.559s9.658-6.932 31.474 2.665l1.917-3.536-26.465-18.916-6.655 9.207z"/></g></svg>