<svg id="flat" height="512" viewBox="0 0 340 340" width="512" xmlns="http://www.w3.org/2000/svg"><path d="m20.79 166.347s-15.376 14-9.61 41.184 29.1 51.618 86.213 43.656l-18.122-19.769s-27.85 12.148-44.528-10.256a17.262 17.262 0 0 1 -1.873-17.488c1.688-3.644 2.935-9.159 1.648-17.01-2.746-16.748-13.728-20.317-13.728-20.317z" fill="#753662"/><path d="m55.2 263.2a97.342 97.342 0 0 1 -9.282 3.367 10.155 10.155 0 0 0 -7 11.342 100.016 100.016 0 0 1 .81 22.571 9.317 9.317 0 0 0 6.212 9.444c5.178 1.833 12.583 6.036 20.013 15.666a1.425 1.425 0 0 0 2.315-.085c1.512-2.279 3.632-7.242 1.643-15.606 0 0 6.968 5.333 19.032 3.632a1.433 1.433 0 0 0 .786-2.466 45.045 45.045 0 0 1 -7.293-8.718 17.429 17.429 0 0 0 -14.3-8.227c-2.957-.068-6.312-.032-9.776.221 0 0-1.707-15.519 18.388-25.793-5.148-4.34-12.616-5.765-21.548-5.348z" fill="#aa6162"/><path d="m88.282 240.535s-11.834 13.716-33.082 22.659 11.669 1.272 21.55 5.351c6.038-3.087 14.04-5.7 24.655-7.279z" fill="#753662"/><path d="m322.057 101.318c4.411-4.634 4.885-14.408 4.885-14.408l-6.348 1.451c1.32 3.5 1.285 7.6.075 12.2a.818.818 0 0 0 1.388.757z" fill="#d9e6f7"/><path d="m312.608 100.261c3.5-3.674 3.873-11.422 3.873-11.422l-5.032 1.15a15.827 15.827 0 0 1 .059 9.673.648.648 0 0 0 1.1.599z" fill="#d9e6f7"/><path d="m301.527 102.248c3.5-3.675 3.873-11.423 3.873-11.423l-5.032 1.15a15.827 15.827 0 0 1 .059 9.673.648.648 0 0 0 1.1.6z" fill="#a0b1f7"/><path d="m290.446 104.153c3.5-3.674 3.873-11.423 3.873-11.423l-5.033 1.151a15.815 15.815 0 0 1 .06 9.672.648.648 0 0 0 1.1.6z" fill="#a0b1f7"/><path d="m314.482 117.364c2.355 4.492.59 12.047.59 12.047l-4.524-2.488a15.821 15.821 0 0 0 2.712-9.285.648.648 0 0 1 1.222-.274z" fill="#d9e6f7"/><path d="m302.877 116.81c2.608 4.351 1.277 11.994 1.277 11.994l-4.658-2.225a15.821 15.821 0 0 0 2.177-9.425.648.648 0 0 1 1.204-.344z" fill="#a0b1f7"/><path d="m291.454 116.021c2.366 4.487.619 12.046.619 12.046l-4.529-2.476a15.819 15.819 0 0 0 2.688-9.292.649.649 0 0 1 1.222-.278z" fill="#a0b1f7"/><path d="m287.2 91.035s-12.93 21.3-.951 34.226c0 0-20.345 1.9-36.127-19.585.004 0 11.983-10.458 37.078-14.641z" fill="#753662"/><path d="m124.8 15.086c2.2 11.881 7.72 33.053 21.293 57.78a76.656 76.656 0 0 0 13.333 17.534c7.743 7.666 19.666 19.941 24.536 27.467 0 0 43.962 37.94 64.481 59.726a24.061 24.061 0 0 1 5.615 9.8 89.909 89.909 0 0 1 3.423 23.055s.99 37.352 18.361 59l-7.469 3.629-131.255-124.461s-38.804-66.026-17.318-133.839a2.583 2.583 0 0 1 5 .309z" fill="#753662"/><path d="m210.851 193.773s26.273 41.6 57.831 72.027a13.891 13.891 0 0 0 9.648 3.875h4.305a10.355 10.355 0 0 1 9.473 6.241 30.427 30.427 0 0 0 14.386 15.2s-8.86 4.169-18.828-3a15.435 15.435 0 0 0 -14.561-2.116q-.452.174-.907.374a8.36 8.36 0 0 1 -9.431-2.023 64.453 64.453 0 0 1 -6.736-8.509 106.447 106.447 0 0 0 -9.186-12.181c-12.9-14.579-42.615-47.928-57.1-62.4z" fill="#753662"/><path d="m251.018 58.394 1.1.092a32.368 32.368 0 0 1 14.06 4.557 32.456 32.456 0 0 0 15.889 4.657c5.174.146 12.457.2 21.466-.13a22.6 22.6 0 0 1 15.634 5.418 39.356 39.356 0 0 1 10.853 15.173 1.269 1.269 0 0 1 -1.085 1.747c-7.809.509-40.922 3.29-66.237 15.035a3.087 3.087 0 0 0 -.845 5.009 48.732 48.732 0 0 0 10.29 7.457 67.3 67.3 0 0 0 33.887 8.41 73.645 73.645 0 0 0 9.818-.768 1.757 1.757 0 0 1 1.928 2.324 25.675 25.675 0 0 1 -4.36 7.639 14.793 14.793 0 0 1 -11.119 5.237c-10.011.2-31.72-1.076-51.379-13.8a34.639 34.639 0 0 0 -11.765 9.085 16.374 16.374 0 0 1 -8.16 5.46 45.266 45.266 0 0 1 -13.588 2.054c-14.812 9.7-15.4 44.249-22.551 70.158 0 0-55.123 11.275-77.987-40.09a170.209 170.209 0 0 1 10.165-14 86.623 86.623 0 0 1 19.368-17.624c7.241-4.852 18.147-13.2 25.877-23.809 0 0 12.242-23.49 32.913-32.26 18.342-7.781 26.573-11.124 35.854-22.719a11.555 11.555 0 0 1 9.974-4.312z" fill="#aa6162"/><path d="m129.51 192.777 22.578 7.525 10.949-13s-24.677-7.66-35.806-28.422c-.065.081-.135.158-.2.238a170.324 170.324 0 0 0 -10.164 14 72.722 72.722 0 0 0 12.643 19.659z" fill="#753662"/><path d="m194.854 213.212c37.271-16.913 22.551-56.69 22.551-56.69-2.506-9.083 0-13.468 0-13.468-13.214-4.224-19.619 11.25-19.619 11.25l-4.125 9.572c-2.835 6.578.85 20.408.85 20.408s-1.783 18.817-2.524 29.37c1.833-.232 2.867-.442 2.867-.442z" fill="#fce2cb"/><path d="m59.563 30.311c-.2 3.035-.34 6.446-.333 10.07a99.056 99.056 0 0 0 4.924 30.509c8.53 26.157 35.255 94.437 89.251 123.3l9.632-6.889c6.813-4.47 16.43-10 26.138-13.017a118.87 118.87 0 0 0 8.241 14.611 21.1 21.1 0 0 1 3.627 12.454c-.421 12.534-1.127 38.774-.372 56.182a26.913 26.913 0 0 0 5.857 15.659 27.322 27.322 0 0 1 4.655 8.752c2.252 7.03 8.288 20.751 22.471 27.955l-26.75-1.866-112.6-64.385-42.924-74.99s-16.98-61.268-11.313-89.895c4.608-23.289 9.512-38.62 14.573-49.689a2.58 2.58 0 0 1 4.923 1.239z" fill="#aa6162"/><path d="m212.7 286.085c-6.311.889-13.715-4.51-13.715-4.51s-20.735-15.223-72.178-42.258c-22.433-11.788-39.286-30.727-51.16-48.338-5.256-7.794-17.284-1.706-14.259 7.195 5.843 17.191 15.784 32.757 32.916 45.472l112.6 64.386 26.75 1.866c-11.754-5.971-17.903-16.408-20.954-23.813z" fill="#753662"/><path d="m40.067 78.761s-10.144 40.781 5.1 99.256c0 0 15.552 46.034 42.612 72.472a93.206 93.206 0 0 0 35.147 24.884s41.6 20.542 80.8 46.915a15.54 15.54 0 0 0 14.064 1.712 72.083 72.083 0 0 1 14.143-3.756 25.026 25.026 0 0 1 13.274 1.711l6.959 2.914a27.645 27.645 0 0 0 10.684 2.148h14.971s-15.989-6.861-22.716-18.415a9.717 9.717 0 0 0 -9.617-4.781c-11.039 1.379-33.594 1.269-58.49-15.7a501.568 501.568 0 0 0 -49.527-29.274 145.406 145.406 0 0 1 -55.289-50.384 270.593 270.593 0 0 1 -42.115-129.702z" fill="#aa6162"/><g fill="#753662"><path d="m177.812 201.868a1.215 1.215 0 0 0 1.807-1.536 23.013 23.013 0 0 0 -7.342-8.6 57.116 57.116 0 0 0 -9.24-4.426c-5.846 3.835-9.632 6.888-9.632 6.888s15.415.955 24.407 7.674z"/><path d="m250.918 126.455a40.974 40.974 0 0 1 -9.918-11.309 1.341 1.341 0 0 0 -2.481.824 39.2 39.2 0 0 0 5.021 15.181 34.959 34.959 0 0 1 7.378-4.696z"/><path d="m256.7 77.519c-.385 0-3.471-1.021-3.471-1.021a3.464 3.464 0 1 1 2.318-6.529l2.312.821a3.464 3.464 0 0 1 -1.159 6.729z"/><circle cx="306.237" cy="80.413" r="3.439"/></g></svg>