<svg id="Flat" height="512" viewBox="0 0 340 340" width="512" xmlns="http://www.w3.org/2000/svg"><path d="m108.648 149.728s-13.355-12.928-36.618-12.928-28.43 24.99-28.43 24.99-32.743-1.29-30.158 40.926a24.222 24.222 0 0 0 -.788 27.33 17.321 17.321 0 0 1 2.522 10.42c-.779 10.078.946 29.805 25.837 32.039 0 0 7.324 11.655 34.033 11.655h80.99z" fill="#82936e"/><path d="m31.105 144.559s-9.477 30.515 16.608 37.268c0 0 15.472-26.752-16.608-37.268z" fill="#c9d38c"/><path d="m156.036 284.16s-53.462 3.959-54.062-31.3a32.918 32.918 0 0 0 -8.8-21.93c-7.51-8.045-14.554-21.177-4.293-37.4 0 0-18.618-29.141 14.975-50.592 0 0-12.547-26.309 18.618-39.26 0 0 15.785-39.665 65.164-32.785 0 0 19.508-15.074 40.085-3.8a47.19 47.19 0 0 0 25.209 5.691c16.562-.9 41.876 4.4 47.224 43.439 0 0 24.69 4.047 21.452 42.9 0 0 18.618 17.4 4.047 45.331 0 0 17.46 39.771-16.112 52.265a32.122 32.122 0 0 0 -16.82 14.448 23.993 23.993 0 0 1 -10.364 9.575 32.164 32.164 0 0 1 -14.709 3.421z" fill="#c9d38c"/><path d="m149.17 55.707s-13.3 24.837 15.3 39.639c.004 0 13.803-33.116-15.3-39.639z" fill="#82936e"/><path d="m323.14 109.663s-11.888-21.566-51.148-3.042c0 0 24.054 27.648 51.148 3.042z" fill="#82936e"/><path d="m300.7 148.533s-19.066 8.781-15.805 32.614c.005 0 25.592 2.007 15.805-32.614z" fill="#82936e"/><path d="m280.381 234.334s-16.809 5.77-13.3 27.346c.003 0 24.841 1.756 13.3-27.346z" fill="#82936e"/><path d="m118.563 163.193s-9.283 21.717 14.049 30.247c0 0 10.288-25.622-14.049-30.247z" fill="#82936e"/><g fill="#474756"><path d="m176.622 137.755a3.5 3.5 0 0 0 4.606-1.815c.42-.965.721-1.523.736-1.551a3.5 3.5 0 0 0 -6.127-3.389c-.046.082-.464.845-1.029 2.146a3.5 3.5 0 0 0 1.814 4.609z"/><path d="m299.73 198.374a3.5 3.5 0 0 0 -4.914.588l-1.382 1.757a11.873 11.873 0 0 1 -8.858 4.556c-17.43.695-26.874 9.773-31.725 17.266a22.652 22.652 0 0 1 -15.785 10.126c-13.827 1.985-19.947 9.942-20.2 10.279a3.5 3.5 0 0 0 2.8 5.586 3.525 3.525 0 0 0 2.782-1.357c.19-.245 4.808-6.027 15.616-7.579a29.652 29.652 0 0 0 20.666-13.25c5.749-8.878 14.54-13.614 26.13-14.076a18.868 18.868 0 0 0 14.08-7.223l1.382-1.757a3.5 3.5 0 0 0 -.592-4.916z"/><path d="m229.493 196.213a3.5 3.5 0 0 0 4.91-.637l2.8-3.641a25.71 25.71 0 0 1 9.214-7.4c16.562-8.095 21.2-20.874 22.176-30.169a3.5 3.5 0 1 0 -6.961-.731c-1.15 10.962-7.3 19.242-18.289 24.611a32.663 32.663 0 0 0 -11.687 9.413l-2.8 3.641a3.5 3.5 0 0 0 .637 4.913z"/><path d="m260.041 137.808a3.5 3.5 0 0 0 6.707-2.007c-.465-1.554-.834-2.473-.874-2.573a3.5 3.5 0 0 0 -6.488 2.627c.002.007.287.721.655 1.953z"/><path d="m209.858 182.881c-.017-.008-.03-.021-.047-.029l-.042-.021a33.272 33.272 0 0 0 -6.133-2.622c-15.2-6.118-23.657-15.084-25.142-26.649a3.5 3.5 0 1 0 -6.943.892c1.128 8.779 6.17 20.545 23.016 29.29a31.476 31.476 0 0 0 -8.093 5.711c-10.637 10.088-22.847 3.432-23.391 3.127a3.5 3.5 0 0 0 -3.472 6.078 27.861 27.861 0 0 0 13.316 3.329 26.129 26.129 0 0 0 18.364-7.455c8.175-7.756 14.3-5.845 15.242-5.482a19.819 19.819 0 0 1 7.888 7.379c2.023 3.668 2.278 8.052.76 13.032a112.418 112.418 0 0 1 -5.106 13.251c-3.783 8.608-7.4 16.863-8.874 36.91-7.6-12.573-19.384-15.015-19.619-15.059-36.095-5.917-37.874-22.088-37.909-22.485a3.5 3.5 0 0 0 -6.994.276c.028.9 1.185 22.136 43.68 29.1.186.035 17.285 2.685 19.838 32.838h7.293c.147-33.9 4.264-48 8.993-58.764a117.937 117.937 0 0 0 5.393-14.026c2.091-6.858 1.645-13.067-1.325-18.454a26.75 26.75 0 0 0 -10.693-10.167z"/><path d="m89.2 269.666a34.5 34.5 0 0 0 -17.527-12.481c-.2-.1-.4-.2-.594-.309a8.7 8.7 0 0 1 -4.137-5.383 9.875 9.875 0 0 1 1.043-7.538c9.628-16.331.4-33.457 0-34.178a3.5 3.5 0 0 0 -6.134 3.372c.077.142 7.674 14.41.1 27.251a16.929 16.929 0 0 0 -1.964 12.017c-15.351-8.038-16.033-17.591-16.059-18.162a3.535 3.535 0 0 0 -3.534-3.421 3.5 3.5 0 0 0 -3.465 3.535c.008.782.558 19.263 32.269 29.361a28.406 28.406 0 0 1 14.343 10.061c1.675 2.3 2.933 6.7 3.759 10.5h7.26c-.646-4.375-1.637-9.441-5.36-14.625z"/><path d="m42.069 215.4v-1.189a3.5 3.5 0 0 0 -7 0v1.189a3.5 3.5 0 0 0 7 0z"/></g></svg>