<svg id="Flat" height="512" viewBox="0 0 340 340" width="512" xmlns="http://www.w3.org/2000/svg"><path d="m115.262 51.151a42.19 42.19 0 0 0 -6.354 5.553l5.54 7.3a1.078 1.078 0 0 1 -1.144 1.691l-9.873-2.715a106.871 106.871 0 0 0 -10.492 16.32 82.321 82.321 0 0 0 -8.667 25.313v.016a2.133 2.133 0 0 1 -1.723 1.786 28.645 28.645 0 0 0 -10.86 4.275 2.127 2.127 0 0 0 1.211 3.91c9.4-.195 15.216 4 15.245 4.019 5.016 4.231 12.188 13.154 11.591 29.326l7.305 3.246 71.1-100.035s-32.153 6.784-62.879-.005z" fill="#7297d8"/><path d="m105.135 220.567-14.192-14.721a258.017 258.017 0 0 0 -67.984-.434 2.279 2.279 0 0 0 -1.866 3 26.105 26.105 0 0 1 1.363 6.732l11.059.768a1.819 1.819 0 0 1 .69 3.441l-11.163 5.6c1.767 12.211 7.748 18.241 12.97 21.186a22.532 22.532 0 0 0 11.274 2.722c20.047-.145 21.16 12.546 21.042 16.364a34.755 34.755 0 0 0 .145 5.051 31.737 31.737 0 0 0 9.954 19.652 27.723 27.723 0 0 0 14.826 7.111h.031a2.818 2.818 0 0 0 3.282-2.524 56.166 56.166 0 0 0 .01-8.237 1.053 1.053 0 0 1 2.026-.473c2.386 6.1 3.128 17.168 3.128 17.168.092 1.3.118 2.571.089 3.767a2.553 2.553 0 0 0 4.869 1.108 21.537 21.537 0 0 0 1.6-4.658c.949-4.744 1.7-9.295 2.3-13.651 6.075-44.867-5.453-68.972-5.453-68.972z" fill="#7297d8"/><path d="m142.208 214.394a63.714 63.714 0 0 1 -6.937 27.477 1.386 1.386 0 0 0 .963 1.977c2.822.589 8.794 1.769 16.6 2.964 1.54-2.179 3.228-4.694 4.714-7.2a1.041 1.041 0 0 1 1.934.619c-.191 2.132-.476 4.756-.888 7.411 14.376 1.958 33.053 3.574 49.983 2.163a49.8 49.8 0 0 1 1.35-7.27.64.64 0 0 1 1.257.128q.063.954.152 1.81a26.138 26.138 0 0 0 4.346 12.243c.045.066.091.131.136.195a2.18 2.18 0 0 0 3.928-1.579 44.877 44.877 0 0 1 .254-13.388c2.025-9.306 7.068-26.121 18.2-34.648 0 .004-51.039 10.816-95.992 7.098z" fill="#c95c68"/><path d="m287.422 43.967a41.182 41.182 0 0 1 6.108 1.618 17.414 17.414 0 0 1 5.308 2.91l.066.057a1.739 1.739 0 0 0 2.613-2.218 21.8 21.8 0 0 0 -5.076-5.674 47.524 47.524 0 0 0 -6.13-4.154l-.075-.044a4.063 4.063 0 1 0 -2.814 7.5z" fill="#d3e0f9"/><path d="m297.4 60.884a24.664 24.664 0 0 0 -4.786-6.064 44.868 44.868 0 0 0 -6.041-4.7l-.078-.053a4.021 4.021 0 0 0 -1.229-.542 4.063 4.063 0 0 0 -2.012 7.874c4.263 1.089 8.326 2.565 11.566 5.465l.039.036a1.645 1.645 0 0 0 2.541-2.013z" fill="#d3e0f9"/><path d="m316.813 76.731-.014-.047a62.4 62.4 0 0 0 -2-6.051 21.068 21.068 0 0 0 -3.325-5.879 1.849 1.849 0 0 0 -3.159 1.794l.056.166a17.068 17.068 0 0 1 .726 5.157c.026 1.832-.09 3.718-.254 5.626a4.13 4.13 0 0 0 .141 1.465 4.071 4.071 0 1 0 7.831-2.231z" fill="#d3e0f9"/><path d="m305.409 86a30.3 30.3 0 0 0 -1.325-6.424 14.063 14.063 0 0 0 -3.635-5.916 2.025 2.025 0 0 0 -3.187 2.383l.084.173c1.313 2.691.874 6.03.072 9.386a4.142 4.142 0 0 0 -.086 1.398 4.069 4.069 0 0 0 8.088-.9z" fill="#d3e0f9"/><path d="m97.193 165.9s-14.293-1.723-19.906 10.449a18.473 18.473 0 0 0 -1.221 11.1c.671 3.63 1.391 9.364.424 14.018l3.189 4.38s30.972-15.685 17.514-39.947z" fill="#7297d8"/><path d="m254.13 30.927s-72.932-7.344-127.5 56.379c0 0-25.77 27.945-29.691 81.661a40.173 40.173 0 0 1 -17.057 30.363q-1.6 1.1-3.392 2.136a16.521 16.521 0 0 0 -8.163 15.9c.836 8.5 4.277 19.069 15.569 23.33 0 0 11.966 3.907 19.292-2.54a13.234 13.234 0 0 0 4.23-9.5c.007-.17.017-.346.031-.529a11.092 11.092 0 0 1 14.464-9.57c11.028 3.528 35.767 9.615 68.962 6.853 0 0 19.008-6.469 27.941-16.008z" fill="#92d3ff"/><path d="m219.051 90.617s-8.44 17.515-1.989 56.357c0 0 4.708 55.2-26.187 78.444a137.8 137.8 0 0 0 27.9-4.113 122.076 122.076 0 0 0 80.8-65.584c6.543-13.633 11.564-29.771 11.354-47z" fill="#f77b84"/><path d="m254.13 30.927a89.556 89.556 0 0 1 18.24.93 28.373 28.373 0 0 0 10.248-.073c3.1-.621 7.252-.8 10.622 1.365 0 0-7.111 38.666-5.333 62.221l29.38-28.529a1.184 1.184 0 0 1 1.942.443 71.666 71.666 0 0 1 4.046 21.895c.341 13.6-8.688 31.181-19.984 38.754a57.215 57.215 0 0 1 -18.554 7.961c-8.237 2.053-16.548 1.556-24.944.3a51.791 51.791 0 0 1 -22.3-8.573c-6.086-4.791-10.666-10.862-14.556-17.518a46.443 46.443 0 0 1 -3.9-23.786c.84-8.729 3.07-20.639 8.87-29.612 11.999-18.56 26.223-25.778 26.223-25.778z" fill="#7297d8"/><path d="m257.4 155.87c2.508 5.341 6.121 16.649-.375 28.852a12.681 12.681 0 0 1 -8.739 6.447 20.566 20.566 0 0 1 -6.7.272 7.308 7.308 0 0 1 -4.215-12.332c5.064-5.241 12.18-13.6 16.822-23.24a1.769 1.769 0 0 1 3.207.001z" fill="#c95c68"/><circle cx="257.631" cy="61.873" fill="#3b3b59" r="7.222"/><g fill="#7297d8"><path d="m173.429 69.4a1.075 1.075 0 0 0 -2.091-.274 11.053 11.053 0 0 0 .891 8.987s1.643 3.566 7.969 4.274c0 0-.179 3.805 1.912 6.211a9.206 9.206 0 0 1 -5.51 1.402 5.966 5.966 0 0 1 -4.949-4.259 15.209 15.209 0 0 1 -.486-2.024 1.566 1.566 0 0 0 -2.989-.317 9.024 9.024 0 0 0 6.206 12.208c2.831.607 6.768.119 11.2-4.264a14.1 14.1 0 0 0 7.545.518 1.112 1.112 0 0 0 -.088-2.187 14.459 14.459 0 0 1 -5.31-1.708 5.417 5.417 0 0 1 -2.8-4.4 9.674 9.674 0 0 1 .716-3.953 1.523 1.523 0 0 0 -1.584-2.081c-2.572.274-6.219.14-8.327-2.263a9.913 9.913 0 0 1 -2.305-5.87z"/><path d="m178.382 121.1a1.217 1.217 0 0 0 -2.368-.31 12.521 12.521 0 0 0 1.009 10.177s1.861 4.038 9.024 4.839c0 0-.2 4.31 2.166 7.034a10.42 10.42 0 0 1 -6.24 1.587 6.755 6.755 0 0 1 -5.6-4.822 17.319 17.319 0 0 1 -.55-2.292 1.774 1.774 0 0 0 -3.385-.359 10.217 10.217 0 0 0 7.028 13.824c3.205.688 7.664.135 12.678-4.828a15.967 15.967 0 0 0 8.543.587 1.259 1.259 0 0 0 -.1-2.477 16.369 16.369 0 0 1 -6.013-1.935 6.132 6.132 0 0 1 -3.166-4.981 10.948 10.948 0 0 1 .811-4.476 1.725 1.725 0 0 0 -1.794-2.357c-2.913.31-7.042.158-9.429-2.562a11.23 11.23 0 0 1 -2.614-6.649z"/><path d="m153.873 175.122a1.076 1.076 0 0 0 -2.093-.273 11.06 11.06 0 0 0 .892 8.993s1.644 3.569 7.975 4.277c0 0-.18 3.809 1.914 6.216a9.208 9.208 0 0 1 -5.515 1.4 5.969 5.969 0 0 1 -4.952-4.262 15.242 15.242 0 0 1 -.486-2.026 1.568 1.568 0 0 0 -2.992-.317 9.029 9.029 0 0 0 6.211 12.217c2.832.608 6.773.119 11.2-4.267a14.111 14.111 0 0 0 7.55.519 1.113 1.113 0 0 0 -.088-2.189 14.462 14.462 0 0 1 -5.313-1.709 5.423 5.423 0 0 1 -2.8-4.4 9.674 9.674 0 0 1 .718-3.956 1.526 1.526 0 0 0 -1.586-2.084c-2.574.275-6.224.141-8.333-2.264a9.921 9.921 0 0 1 -2.302-5.875z"/><path d="m129.675 120.582a1.217 1.217 0 0 0 -2.368-.31 12.518 12.518 0 0 0 1.01 10.177s1.86 4.038 9.024 4.84c0 0-.2 4.309 2.165 7.034a10.42 10.42 0 0 1 -6.24 1.587 6.755 6.755 0 0 1 -5.6-4.822 17.494 17.494 0 0 1 -.55-2.293 1.774 1.774 0 0 0 -3.385-.359 10.216 10.216 0 0 0 7.028 13.824c3.205.688 7.664.136 12.678-4.827a15.964 15.964 0 0 0 8.544.586 1.259 1.259 0 0 0 -.1-2.477 16.354 16.354 0 0 1 -6.013-1.934 6.134 6.134 0 0 1 -3.166-4.981 10.949 10.949 0 0 1 .812-4.476 1.727 1.727 0 0 0 -1.795-2.358c-2.912.311-7.042.159-9.429-2.562a11.228 11.228 0 0 1 -2.615-6.649z"/></g></svg>