<svg id="icon" height="512" viewBox="0 0 340 340" width="512" xmlns="http://www.w3.org/2000/svg"><path d="m41.636 263.925a3.5 3.5 0 0 1 -2.467-5.982l207.29-205.631a3.5 3.5 0 1 1 4.936 4.964l-207.295 205.632a3.492 3.492 0 0 1 -2.464 1.017z" fill="#342a35"/><path d="m253.529 143.537c10.693 2.528 19.48 1.388 26.943-4.626l18.1-18.1-18.55-3.765-3.766-18.55-18.1 18.1c-6.014 7.461-7.156 16.248-4.627 26.941z" fill="#bc446b"/><path d="m233.979 165.569a3.5 3.5 0 0 1 -2.409-6.04l33.84-32.076a3.5 3.5 0 0 1 4.816 5.08l-33.84 32.076a3.487 3.487 0 0 1 -2.407.96z" fill="#342a35"/><path d="m244.494 173.5a3.5 3.5 0 0 1 -2.4-6.051l13.506-12.69a3.5 3.5 0 0 1 4.793 5.1l-13.506 12.69a3.487 3.487 0 0 1 -2.393.951z" fill="#342a35"/><path d="m250.91 114.417c10.693 2.527 19.48 1.387 26.942-4.627l15.326-15.326a2.108 2.108 0 0 0 -1.072-3.557l-14.7-2.984-2.984-14.7a2.109 2.109 0 0 0 -3.558-1.072l-15.328 15.324c-6.014 7.462-7.154 16.249-4.626 26.942z" fill="#fe5d77"/><path d="m283.866 150.511c10.693 2.528 19.48 1.388 26.942-4.626l15.326-15.326a2.109 2.109 0 0 0 -1.071-3.559l-14.7-2.984-2.984-14.7a2.109 2.109 0 0 0 -3.558-1.071l-15.326 15.326c-6.017 7.46-7.157 16.247-4.629 26.94z" fill="#fe5d77"/><path d="m217.955 150.76a3.5 3.5 0 0 1 -2.471-5.979l48.933-48.767a3.5 3.5 0 1 1 4.942 4.958l-48.934 48.767a3.486 3.486 0 0 1 -2.47 1.021z" fill="#342a35"/><path d="m249.649 187.114a3.5 3.5 0 0 1 -2.446-6l50.1-48.964a3.5 3.5 0 0 1 4.893 5.007l-50.1 48.964a3.488 3.488 0 0 1 -2.447.993z" fill="#342a35"/><path d="m224.715 312.02a30.83 30.83 0 0 1 -11.121-2.16 3.5 3.5 0 1 1 2.514-6.533c12.358 4.755 20.329-2.066 20.661-2.359l13.716-11.968a50.427 50.427 0 0 1 24.243-11.8 61.078 61.078 0 0 0 14.95-4.627c21.78-10.073 14.342-32.99 14.015-33.961-.025-.071-.046-.144-.066-.217-2.785-10.458-23.354-30.131-38.374-44.495-4.689-4.485-9.119-8.721-12.6-12.271a3.5 3.5 0 1 1 5-4.9c3.4 3.47 7.794 7.669 12.442 12.114 17.294 16.54 36.89 35.282 40.269 47.64 3.436 10.327 4.117 32.334-17.745 42.445a68.023 68.023 0 0 1 -16.663 5.166 43.442 43.442 0 0 0 -20.867 10.187l-13.689 11.936a26.187 26.187 0 0 1 -16.685 5.803z" fill="#7f4242"/><path d="m142.025 309.33s14.072-16.943 39.344-7.179 41.942 16.069 57.73 1.429c0 0-12.068 4.6-29.586-5.45s-31.877-19.815-51.118-10.913z" fill="#7f4242"/><path d="m44.832 246.364c-.511-11.206-.967-23.869-.409-38.26 2.532-65.299 53.377-113.552 53.377-113.552s48.254-50.844 113.553-53.375c14.39-.558 27.053-.1 38.26.408 11.159-3.144 22.695-2.877 34.565.417 15.433-1.412 26.768-6.8 35.886-22.808a6.155 6.155 0 0 0 -1.01-7.388 6.149 6.149 0 0 0 -8.792.088c-3.841 4.01-12.939 10.011-27.336 11.671-9.475 2.1-18.5 2.5-26.3-1.717 0 0-2.751-.623-7.692-1.275-24.358-3.213-103.9-9.08-167.622 57.485-66.572 63.718-60.705 143.265-57.492 167.623.652 4.941 1.274 7.691 1.274 7.691 4.22 7.8 3.819 16.83 1.718 26.306-1.661 14.4-7.662 23.5-11.672 27.336a6.15 6.15 0 0 0 -.088 8.792 6.156 6.156 0 0 0 7.389 1.01c16-9.119 21.4-20.453 22.807-35.887-3.293-11.869-3.561-23.405-.416-34.565z" fill="#d07a76"/><path d="m248.927 20.574.684 21.011c13.466.614 24.831 1.3 34.564.413l-1.251-18.437a78.69 78.69 0 0 1 -26.3-1.713s-2.762-.622-7.697-1.274z" fill="#342a35"/><path d="m23.821 245.681 21.011.683c.613 13.466 1.3 24.831.413 34.565l-18.438-1.252a78.665 78.665 0 0 0 -1.713-26.305s-.622-2.756-1.273-7.691z" fill="#342a35"/><path d="m228.038 145.5 29.962 29.955a10.946 10.946 0 0 1 .225 15.249l-127.762 135.518a12.051 12.051 0 0 1 -15.9 1.438c-9.621-7.044-24.382-20.644-31.481-41.507a19.578 19.578 0 0 1 5.053-20.308l124.553-120.478a10.946 10.946 0 0 1 15.35.133z" fill="#d07a76"/><g fill="#7f4242"><path d="m222.5 177.643h-5.029v-5.03a3.5 3.5 0 0 0 -7 0v5.03h-5.029a3.5 3.5 0 0 0 0 7h5.029v5.028a3.5 3.5 0 0 0 7 0v-5.028h5.029a3.5 3.5 0 0 0 0-7z"/><path d="m203.608 196.9h-5.029v-5.029a3.5 3.5 0 0 0 -7 0v5.029h-5.03a3.5 3.5 0 0 0 0 7h5.03v5.029a3.5 3.5 0 0 0 7 0v-5.029h5.029a3.5 3.5 0 0 0 0-7z"/><path d="m184.113 216.449h-5.03v-5.03a3.5 3.5 0 0 0 -7 0v5.03h-5.029a3.5 3.5 0 0 0 0 7h5.029v5.029a3.5 3.5 0 0 0 7 0v-5.029h5.03a3.5 3.5 0 0 0 0-7z"/></g></svg>