<svg id="flat" height="512" viewBox="0 0 500 500" width="512" xmlns="http://www.w3.org/2000/svg"><path d="m396.267 68.5c-7.633-10.662-20.823-17.025-34.623-17.829-.62-25.369-29.982-38.344-52.209-29.44-23.161-22.342-70.641-24.383-89.2 4.958-16.73-9.589-41.648-1.989-50.91 13.342-24.677-2.41-50.974 16.07-50.72 41.488-29.2 8.433-47.554 36.235-37.9 63.11a55.276 55.276 0 0 0 -19.741 11.1s-16.27 19.71 18.014 46.581 47.719 80.614 188.1 80.614 148.246-151.031 148.246-151.031l-17.188-21.775s5.018-21.079-1.869-41.118z" fill="#8fad96"/><path d="m436.636 232.391c17.711-9.681 28.357-26.517 25.481-45.4-.969-6.359 1.291-11.008-2.344-16.338-5.913-11.322-17.925-17.64-30.034-21.456 9.605-21.924-7.864-43.358-30.507-45.888a34.578 34.578 0 0 0 -2.7-34.406c2.412 20.567-1.882 32.684-5.967 39.268a9.417 9.417 0 0 0 1.672 12.066c6.586 5.817 13.931 16.105 6.116 29.53-10.757 18.478-27.6 17.446-38.51 14.2a7.611 7.611 0 0 0 -9.8 6.884c-.982 19.947-16.511 28.051-31.9 31a4.769 4.769 0 0 1 -5.667-4.859c.3-8.679-1.725-19.7-5.423-27.561a2.958 2.958 0 0 0 -5.12-.118c-10.942 19.685-31.607 34.718-55.057 40.452a2.564 2.564 0 0 0 .143 5.016q7.424 1.3 14.949 2.028c3.128.3 4.732 3.54 2.881 5.846-14.746 18.369-39.395 25.827-64.206 22.1-23.455-3.526-45.875-16.546-54.315-36.6-1.706-4.055 1.894-8.29 6.657-7.853a56.133 56.133 0 0 0 15.651-.771c4.92-.943 5.4-7.185.643-8.654-19.561-6.039-36.836-18.188-48.079-33.911-2.6-3.631-8.854-2.2-9.121 2.119-.474 7.667 2.622 14.9 5.252 19.557 1.765 3.125-.095 6.451-3.553 8.113-16.978 8.145-54.891 3.631-52.815-31.519-16.533 14.142-12.831 36.036.045 51.583-19.485 9.864-26.508 32.789-15.393 46.091s93.586 54.655 217.749 54.655 173.272-75.174 173.272-75.174z" fill="#617a68"/><path d="m276.943 475.49a84.616 84.616 0 0 1 -1.582-9.7c-.432-3.74-1.787-84.58-1.766-97.9-4.561-16.108-23.623-21.842-35.958-25.394l-4.151 125.004c17.192 20.614 36.136 25.656 43.457 7.99z" fill="#e57e80"/><path d="m265.2 449.347c-4.371-2.515-4.717-9.876-5.093-14.165-.506-5.772-.743-11.575-1-17.363-.362-8.2 1.162-22.206-7.873-25.61-4.948-1.864-10.18-1.736-15.144-3.314l-2.604 78.605c17.192 20.612 36.136 25.654 43.457 7.988a84.6 84.6 0 0 1 -1.582-9.7c-.114-.994-.294-7.412-.5-16.559-3.117.397-6.681 1.707-9.661.118z" fill="#bc5b65"/><path d="m253.385 328.129c-.384 28.871.868 57.878 1.886 86.747a1.771 1.771 0 0 0 3.54 0c.242-14.449-.235-28.928-.545-43.374-.308-14.393.036-29.027-1.225-43.373a1.829 1.829 0 0 0 -3.656 0z" fill="#4f424c"/><path d="m255.406 425.1a7.838 7.838 0 0 0 .018 2.418 1.829 1.829 0 0 0 3.5 0c.228-1.456.317-4.162-1.752-4.187a1.808 1.808 0 0 0 -1.769 1.77z" fill="#4f424c"/><path d="m260.448 439.906a1.818 1.818 0 1 0 -3.633 0c.133 14.918.99 39.485 2.581 55.54l4.336-.026c-1.485-16.075-2.583-40.613-3.284-55.514z" fill="#4f424c"/><path d="m286.187 489.834c-3.305-2.117-6.942-5.855-9.244-14.344-5.768 2.156-12.633-3.661-15.119-10.347-.594-1.6-4.735-11.112-4.735-11.112-.862 7.839-5.142 12.985-13.486 7.525-4.916-3.218-3.55-15.9-3.532-21.576.039-12.135-.21-94.71-.21-94.71-7.027-1.877-14.774 4.678-15.992 4.922.031 5.549.865 113.467.824 113.393.336 10-.051 21.072-7.463 27.082-2.044 1.657-.3 5.033 2.079 5.019l65.4-.391a2.955 2.955 0 0 0 1.478-5.461z" fill="#4f424c"/><path d="m465.315 183.57c-.968-6.625-5.549-17.335-11.5-21.175 3.566 20.465-19.35 20.719-28.736 19.62a8.2 8.2 0 0 0 -9.03 8.66c1.131 27.757-17.658 53.687-43.812 51.372a4.268 4.268 0 0 1 -3.432-5.818c3.015-7.87 2.638-17.344 1.876-25.817a3.426 3.426 0 0 0 -3.691-3.376 2.557 2.557 0 0 0 -3.334.609c-6.048 7.113-10.881 15.139-17.884 21.373a45.171 45.171 0 0 1 -11.16 7.408c-2.89 1.576-11.971 1.926-11.142 6.394-.258 5.805 15.848 9.944 20.535 9.5a4.3 4.3 0 0 1 3.5 6.59c-13.681 23.278-44.686 20.989-65.92 9.626a4.453 4.453 0 0 1 -2.1-5.905 69.6 69.6 0 0 0 4.56-14.848c.655-3.268-3.2-6.129-5.649-3.426-2.6 2.868-10.447 23-39.923 17.627-9.3-1.7-10.088 3.231-9.289 4.865a23.56 23.56 0 0 0 10.752 10.488c3.337 1.7 2.945 6.264-.069 8.133-15.444 13.187-37.846 13-57.207 7.912-12.044-3.165-23.926-8.1-33.323-16.564q-1.227-1.105-2.387-2.3c-2.9-2.985-1.071-8.141 3-8.333 2.924-.138 5.807-.587 7.538-1.668l.033-.009a3.018 3.018 0 0 0 3.236-3.3 2.981 2.981 0 0 0 -1.748-4.368c-5.514-1.5-11.054-2.039-16.479-4.071a68.74 68.74 0 0 1 -28.193-20.3c-4.109-4.9-6.822-10.578-10.461-15.787a2.467 2.467 0 0 0 -1.636-1.052 2.44 2.44 0 0 0 -4.379-.3c-2.505 4.58-1.308 9.863-.1 14.733a79.118 79.118 0 0 0 5.9 16.562c1.69 3.234-.809 5.73-4 7.219-14.238 6.668-47.361-6.175-43.628-44.029-46.53 30.837-11.488 95.512 37.667 92.534 5.359 8.663 15.435 13.572 26.21 13.817 7.4.168 13.737-2.669 20.557-4.942 3.864-1.287 7.879-2.3 11.96-1.3 3.877.95 7.177 3.41 10.273 5.7 12.036 8.926 25.3 14.128 40.883 11.927 8-1.131 15.231-4.635 23.026-6.486 8.979-2.131 15.732.855 23.908 3.914 14.227 5.322 31.066 3.035 43.729-4.915 27.166 14.129 60.135 8.444 77.743-16.587 44.347 13.621 85.9-28.008 68.823-71.641 17.701-10.084 27.38-28.589 24.503-48.266z" fill="#4f424c"/><path d="m270.835 309.491c-14.65-.7-29.307-1.222-43.957-1.923a3.215 3.215 0 0 0 -3.179 3.179q.054 19.722.173 39.445c16.849-4.383 37.347-.035 49.72 17.7.03-17.781.118-35.561.122-53.342a3.485 3.485 0 0 0 -2.879-5.059z" fill="#4f424c"/><g fill="#617a68"><path d="m195.8 207.159c5.742-.094 5.727-8.633 0-8.742-5.743.094-5.728 8.632 0 8.742z"/><path d="m317.66 151.277a3.179 3.179 0 0 0 -.761 3.753 26.1 26.1 0 0 1 2.9 8.609c.341 2.9-.14 5.755.174 8.653.254 2.354 3.366 2.423 4.545.852 4.557-6.071 1.751-16.166-2.608-21.575a3.12 3.12 0 0 0 -4.25-.292z"/><path d="m329.007 142.554c.483 3.154 1.987 6.178 2.325 9.409.416 2.25 4.1 2.827 4.7.368.906-3.719.815-9.279-2.2-12.1a2.806 2.806 0 0 0 -4.825 2.325z"/><path d="m138.084 152.6c-4.064-3.949-5.7-9.3-7.053-14.62-.763-2.164-4.5-2.724-4.972 0-1.243 7.17 3.434 14.475 8.9 18.669 2.415 1.854 5-1.99 3.124-4.049z"/><path d="m145.065 141.158c-.666-2.494-.082-5.093-.967-7.518-.715-1.652-3.184-1.687-4.307-.555-1.42 1.433-1.5 3.689-1.223 5.594a8.577 8.577 0 0 0 2.325 4.908 2.514 2.514 0 0 0 4.172-2.429z"/><path d="m156.257 138.364.125-.288-.415.537c2.519-2.493-.551-7.636-3.69-4.9a3.635 3.635 0 0 0 -.061 4.9l-.415-.537a2.507 2.507 0 0 0 4.456.288z"/></g></svg>