<svg id="flat" height="512" viewBox="0 0 340 340" width="512" xmlns="http://www.w3.org/2000/svg"><path d="m165.578 40.421a71.2 71.2 0 0 1 6.5-19.482c4.5-8.953 15.967-12.219 24.787-7.127l1.565.9a18.064 18.064 0 0 0 16.767.645 19.175 19.175 0 0 1 10.525-1.543c5.739 4.63 8.487 14.953 7.811 33.508-.005.004-54.372-2.11-67.955-6.901z" fill="#aa635b"/><path d="m228.922 47.326a134.009 134.009 0 0 0 16.937-3.437 83.012 83.012 0 0 0 -7.086-20.711 17.4 17.4 0 0 0 -13.056-9.36 99.4 99.4 0 0 1 3.205 33.508z" fill="#8c443e"/><path d="m164.579 55.343c24.187 15.583 82.29 13.486 82.29 13.486l-17.754-25.218c-28.572-.717-54.216-2.491-63.533-3.189a64.745 64.745 0 0 0 -1.003 14.921z" fill="#5f5f77"/><path d="m229.154 62.507.637 6.255c10.11.318 17.078.067 17.078.067a80.372 80.372 0 0 0 -1.023-24.938c-5.622-.044-11.229-.143-16.73-.281s.458 7.89.038 18.897z" fill="#3c3c4f"/><path d="m245.863 136.127s9.856-20.662 37.26-12.994a1.706 1.706 0 0 1 1.182 2.158c-1.848 5.817-9.846 24.436-34.947 16.966z" fill="#8c443e"/><path d="m237.282 137.475s-4.921-13.8 10.292-20.575c7.964-3.548 11.781-7.137 13.611-9.751a1.691 1.691 0 0 1 3.029.589c2 8.528 3.56 26.566-16.927 31.917z" fill="#8c443e"/><path d="m183.7 286.43s-2.961 18.87-12.035 36.519a3.863 3.863 0 0 0 3.42 5.647h111.025a7.437 7.437 0 0 0 7.348-6.23 198.044 198.044 0 0 0 1.7-49.8z" fill="#3c3c4f"/><path d="m196.663 286.43h55.523l-6.323-106.967-49.2 3.66z" fill="#dfdaea"/><path d="m245.863 179.463-49.2 3.66v103.307h21.337a610.408 610.408 0 0 1 -3.039-70.294 6.113 6.113 0 0 1 7.834-5.795 65.625 65.625 0 0 0 12.96 2.507 16.617 16.617 0 0 0 7.688-1.188c1.192-.478 2.616-1.086 4.216-1.837z" fill="#a8a0ba"/><path d="m202.9 275.459s25.406 4.659 50.706.506l3.167 17.242s-33.608 3.781-54.377-1.76z" fill="#aa635b"/><path d="m173.328 159.7a29.208 29.208 0 0 0 -4.436 2.9 37.124 37.124 0 0 0 -14.226 29.42v47.508a23.6 23.6 0 0 1 -17.072 22.675s-2.1 7.478 1.864 18.174a108.458 108.458 0 0 0 10.664 20.48 38.887 38.887 0 0 0 33.574-38.52v-93.737z" fill="#dfdaea"/><path d="m177.9 167.186s5.657 50.846-2.311 113.825a11.119 11.119 0 0 0 5.341 11c4.645 2.722 12.288 5.76 24.122 6.807a2.747 2.747 0 0 0 2.983-2.862c-.557-11.808-2.365-55.33-.765-92.5z" fill="#f9ac5f"/><path d="m190.209 175.621-4.6 8.37a73.906 73.906 0 0 0 21.654 19.471c.23-5.346.531-10.561.916-15.53z" fill="#ea7f50"/><path d="m286.221 173.063c8.894 37.659 9.891 74.1 1.428 109.1l-38.189-2.385c-.188-14.754-1.974-40.681-5.426-68.362a108.52 108.52 0 0 1 42.187-38.353z" fill="#f9ac5f"/><path d="m286.252 173.2q-1.917-8.138-4.321-16.348c-19.862-9.673-31.012-12.852-31.012-12.852l-12.307 31.275c2.123 11.87 3.927 24.172 5.42 36.148 9.282-3.818 30.576-14.751 42.22-38.223z" fill="#ea7f50"/><path d="m188.343 140.949a64.245 64.245 0 0 0 -12.953 5.951c-6.52 4.018-8.729 11.874-5.239 18.334 5.3 9.8 17.04 24.44 42.373 34.7a20.277 20.277 0 0 0 18.434-1.656 70.718 70.718 0 0 0 13.772-11.513s5.745-24.428-4.53-35.765-51.857-10.051-51.857-10.051z" fill="#aa635b"/><path d="m264.949 260.169c-2.37 1.563-5.759 3.886-10.3 7.192a18.207 18.207 0 0 0 -6.847 19.4l.082.307a16.24 16.24 0 0 0 7.967 10.2s17.922 2.973 19.839-15.1-10.741-21.999-10.741-21.999z" fill="#ffcac0"/><path d="m245.242 148.438a3.192 3.192 0 0 0 -3.891 1.487l-.019.032c-5.844 8.838-18.169 22.493-23.083 27.832a4.649 4.649 0 0 1 -5.087 1.273c-1.4-.528-9.834-4.151-20.451-12.664-2.582-2.07-5.139-4.276-7.528-6.534l-.036-.034a1.8 1.8 0 0 0 -2.784.387 2.208 2.208 0 0 0 .282 2.627c2.364 2.566 4.776 4.938 7.282 7.278 2.53 2.341 14.122 12.334 21.819 15.3a9.74 9.74 0 0 0 9.311-1.037c9.326-6.709 19.721-20.964 25.819-30.771a3.6 3.6 0 0 0 -1.634-5.176z" fill="#8c443e"/><path d="m244.726 186.767a60.211 60.211 0 0 0 15.741-33.756c.993-7.847-5.05-14.98-13.584-15.969a191.417 191.417 0 0 0 -36.658-.7 96.8 96.8 0 0 0 -21.881 4.608c.721 3.771 3.738 14.9 14.927 21.494a15.934 15.934 0 0 0 15.531.349q.544-.288 1.109-.617a15.424 15.424 0 0 1 21.612 6.731 36.974 36.974 0 0 1 3.203 17.86z" fill="#8c443e"/><path d="m196.663 108.007h29a0 0 0 0 1 0 0v32.934a14.5 14.5 0 0 1 -14.5 14.5 14.5 14.5 0 0 1 -14.5-14.5v-32.934a0 0 0 0 1 0 0z" fill="#ffcac0"/><path d="m225.664 108.007h-29v30.565c15.357-.3 24.116-4.535 29-8.547z" fill="#ef9292"/><path d="m245.847 90.977c-2.651 11.405-9.8 25.688-29.06 23.668v-42.064z" fill="#fcac4c"/><path d="m221.212 91.961h4.737a12.663 12.663 0 0 1 12.663 12.664 12.663 12.663 0 0 1 -12.663 12.663h-8.259z" fill="#ffcac0"/><path d="m169.689 83.441v18.476a30.077 30.077 0 0 0 6.333 19.076 25.123 25.123 0 0 0 19.881 9.523h.107a25.334 25.334 0 0 0 17.4-6.872 32.028 32.028 0 0 0 10.147-20.371 23.057 23.057 0 0 0 .1-2.38v-32.333z" fill="#ffcac0"/><path d="m185.138 95.426a3.006 3.006 0 0 1 -.924-.146l-2.873-.929a3 3 0 1 1 1.847-5.709l2.873.929a3 3 0 0 1 -.923 5.855z" fill="#e58585"/><path d="m229.55 86.358a96.161 96.161 0 0 1 16.3 4.619 59.841 59.841 0 0 0 1.55-13.331l-30.612-5.065v12.2a95.279 95.279 0 0 1 12.762 1.577z" fill="#e87f31"/><path d="m201.654 95.426a3 3 0 0 1 -.923-5.855l2.873-.929a3 3 0 1 1 1.847 5.709l-2.873.929a3.006 3.006 0 0 1 -.924.146z" fill="#e58585"/><path d="m169.689 83.441a142.285 142.285 0 0 0 32.892 1.5 101.522 101.522 0 0 1 21.08.473v-16.854l-53.972-2.848z" fill="#ef9292"/><path d="m124.862 33.039a9.128 9.128 0 0 0 -3.457 13.038c7.317 11.264 26.621 29.069 75.544 29.069 10.48 0 18.621.351 26.712 1.12 0 0 9.967-5.389 5.494-13.762a244.78 244.78 0 0 0 -30.248-1.777s-42.532 1.184-62.529-25.117a9.139 9.139 0 0 0 -11.516-2.571z" fill="#aa635b"/><path d="m223.661 76.266c20.529 2.261 37.826 7.055 45.717 11.068a6.342 6.342 0 0 0 7.279-1.127l.122-.118a6.655 6.655 0 0 0 -1.555-10.708c-8.069-4.161-22.855-9.981-46.07-12.874.029.059 1.156 10.074-5.493 13.759z" fill="#8c443e"/><path d="m228.33 297.9c-2.245 0-4.49-.105-6.719-.316a6.4 6.4 0 0 1 -5.82-6.4v-9.991a6.35 6.35 0 0 1 2-4.654 6.5 6.5 0 0 1 4.81-1.755 103.7 103.7 0 0 0 11.477-.052 6.429 6.429 0 0 1 6.789 6.411v10.041a6.4 6.4 0 0 1 -5.821 6.4c-2.226.209-4.471.316-6.716.316zm-6.091-17.467a.8.8 0 0 0 -.552.217.724.724 0 0 0 -.232.539v9.991a.77.77 0 0 0 .688.765 66.087 66.087 0 0 0 12.374 0 .77.77 0 0 0 .687-.765v-10.043a.735.735 0 0 0 -.234-.544.78.78 0 0 0 -.58-.21 108.826 108.826 0 0 1 -12.1.05z" fill="#fff"/><path d="m269.311 257.431s-1.37.765-4.362 2.738c5.615 6.757 16.736 24.592-9.091 37.09a19.015 19.015 0 0 0 16.933.3c12.867-5.846 18.613-12.978 18.613-12.978s-5.453-21.375-22.093-27.15z" fill="#ef9292"/><path d="m279.446 184.291a88.285 88.285 0 0 0 4.153 12c17.027 40.307-14.288 61.137-14.288 61.137a142.461 142.461 0 0 1 13.744 14.7s28.987-6.44 28.987-44.513-21.348-65.6-21.348-65.6z" fill="#dfdaea"/><path d="m317.36 201.417c-7.421-21.814-18.814-33.539-26.666-39.4v.009a39.03 39.03 0 0 0 -8.76-5.168s-7.758 7.231-2.48 27.44q.678-.912 1.337-1.861a7.4 7.4 0 0 1 12.482.4c13.419 22.982 25.49 60.027-10.216 89.305a76.389 76.389 0 0 1 8.35 12.456s41.969-36.109 25.953-83.181z" fill="#a8a0ba"/><path d="m137.592 262.2a23.559 23.559 0 0 1 -6.512.918h-24.364l9.805 38.1h28.3a39.137 39.137 0 0 0 5.3-.37z" fill="#a8a0ba"/><path d="m35.6 231.863v6.469a7.5 7.5 0 0 0 7.5 7.5h32.739l-.945-13.966z" fill="#6882ad"/><path d="m60.814 217.9h-41.814v15.05h35.5c4.41-4.693 6.677-9.687 6.314-15.05z" fill="#acc7e5"/><g fill="#6882ad"><path d="m60.814 217.897-6.32 15.05h15.526l-3.109-15.05z"/><path d="m93.429 226.715a13.485 13.485 0 0 0 11.476-5.644 7.688 7.688 0 0 1 6.134-3.174h5.482s-1.2 17.611-13.547 20.273z"/><path d="m80.877 244.415s6.364 3.889 6.364 15.91h27.883l-1.434-14.043a9.526 9.526 0 0 0 -3.786-6.7 49.962 49.962 0 0 1 -16.475-21.682z"/></g><path d="m66.911 217.9h26.518v19.1a8.83 8.83 0 0 1 -8.83 8.83h-8.76a8.928 8.928 0 0 1 -8.928-8.928z" fill="#acc7e5"/><path d="m123.659 279h-11.9l-5.047-22.7 16.944-.063a7.966 7.966 0 0 1 7.966 7.966v6.829a7.966 7.966 0 0 1 -7.963 7.968z" fill="#ef9292"/><path d="m91.008 256.237h14.546a10.966 10.966 0 0 1 10.967 10.963v34.017a0 0 0 0 1 0 0h-25.513a8.835 8.835 0 0 1 -8.835-8.835v-27.309a8.835 8.835 0 0 1 8.835-8.835z" fill="#ffcac0"/><path d="m72.306 223.5h14.142a2.61 2.61 0 0 1 2.61 2.61v5.59a7.151 7.151 0 0 1 -7.151 7.151h-6.991a2.61 2.61 0 0 1 -2.61-2.61v-12.741a0 0 0 0 1 0 0z" fill="#6882ad"/><path d="m71.246 232.549h9.367a1.608 1.608 0 0 1 1.608 1.608 1.608 1.608 0 0 1 -1.608 1.608h-9.367a0 0 0 0 1 0 0v-3.215a0 0 0 0 1 0 0z" fill="#acc7e5"/><path d="m71.283 226.556h9.367a1.608 1.608 0 0 1 1.608 1.608 1.608 1.608 0 0 1 -1.608 1.608h-9.367a0 0 0 0 1 0 0v-3.215a0 0 0 0 1 0 0z" fill="#acc7e5"/></svg>