<svg id="FLAT" height="512" viewBox="0 0 500 500" width="512" xmlns="http://www.w3.org/2000/svg"><path d="m282.9 290.922a5.478 5.478 0 0 1 -1.368-.174c-4.953-1.268-16.544-4.236-48.041-4.243a166.556 166.556 0 0 0 -28.158 3.322 5.5 5.5 0 1 1 -2.324-10.751 177.767 177.767 0 0 1 30.171-3.567h.207c29.046 0 42.016 2.319 50.874 4.587a5.5 5.5 0 0 1 -1.361 10.83z" fill="#ffa757"/><path d="m420.4 115.745h-15.03a14.3 14.3 0 0 0 0-28.6h-57.819c16.842-6.589 14.312-28.609 14.312-28.609h-60.5a49.59 49.59 0 0 0 -37.29 16.9l-8.03 9.16c-3.248 3.7-6.992 9.61-11.089 12.16-7.784 4.843-16.844 4.739-26.2 4.739h-140.054v100.04h311.237a14.3 14.3 0 0 0 0-28.6h15.433a14.3 14.3 0 0 0 14.3-14.3 14.3 14.3 0 0 0 -14.3-14.3h15.03a14.3 14.3 0 0 0 14.3-14.3 14.3 14.3 0 0 0 -14.3-14.29z" fill="#e88b89"/><path d="m14.706 401.182 129 3.647 62.8-1.043c28.342 3.819 55.652 3.76 81.616-1.356l75.168-1.248 122 1.823v81.047l-470.584 2.484z" fill="#d87155"/><path d="m226.369 425.055h11.791c7.635-2.213 14.9-2.514 21.622 0h8.483a19.86 19.86 0 0 0 19.86-19.859v-2.766l-81.616 1.356v1.41a19.86 19.86 0 0 0 19.86 19.859z" fill="#2b2b38"/><path d="m232.263 13.464v237.96l5.897 69.453v104.179h21.622v-115.973l-7.207-77.971v-217.648z" fill="#8e3329"/><path d="m339.284 157.8h-15.027a14.3 14.3 0 1 0 0-28.6h-57.818c16.842-6.589 14.312-28.609 14.312-28.609h-60.5a49.592 49.592 0 0 0 -37.29 16.9l-8.031 9.16a49.592 49.592 0 0 1 -37.29 16.9h-58.94v100.049h230.124a14.3 14.3 0 1 0 0-28.6h15.433a14.3 14.3 0 0 0 14.3-14.3 14.3 14.3 0 0 0 -14.3-14.3h15.027a14.3 14.3 0 0 0 14.3-14.3 14.3 14.3 0 0 0 -14.3-14.3z" fill="#ffcec7"/><path d="m92.152 269.971q-.045.6-.1 1.208s36.59-9.148 43.3 18.905a58.068 58.068 0 0 1 1.506 17.832c-1.176 16.056 6.134 31.6 19.742 40.2q2.242 1.417 4.8 2.775a3.208 3.208 0 0 1 -1.865 6.014c-18.548-1.983-47.073-8.106-69.309-26.573 0 0-63.193 18.343-67.881-36.871-1.959-23.057 4.983-38.081 13.734-47.76 20.621-22.816 58.366-6.401 56.073 24.27z" fill="#9b8181"/><path d="m423.682 248.758s-37.35-13.374-45.077 18.823a57.1 57.1 0 0 0 3.929 38.261 43.037 43.037 0 0 1 -2.646 41.4 103.356 103.356 0 0 1 -13.772 17.48 3.206 3.206 0 0 0 3.176 5.352c13.5-4.142 34.955-13.386 52.9-33.171a100.256 100.256 0 0 1 20.088-16.911c16-10.291 43.013-34.51 43.013-80.741 0-63.108-41.649-41.213-41.649-41.213s-26.402 13.862-19.962 50.72z" fill="#9b8181"/><path d="m14.706 468.549v17.987l470.588-2.484v-15.503z" fill="#8e3329"/><path d="m241.479 323.974c-33.19 0-68.912-7.607-68.912-24.31 0-9.164 10.527-16.283 30.444-20.588a5.5 5.5 0 1 1 2.324 10.751c-17.984 3.888-21.768 8.993-21.768 9.837 0 .731 2.6 4.458 14.637 8.028 11.484 3.406 26.852 5.282 43.275 5.282q1.7 0 3.386-.027a5.5 5.5 0 1 1 .177 11q-1.768.027-3.563.027z" fill="#ffa757"/><path d="m245.412 351.557a228.925 228.925 0 0 1 -27.242-1.572 5.5 5.5 0 0 1 1.316-10.921 217.794 217.794 0 0 0 25.926 1.493c43.036 0 65.229-10.851 65.229-15.481 0-1.189-3.082-5.5-16.78-9.562a5.5 5.5 0 1 1 3.128-10.546c16.358 4.852 24.652 11.617 24.652 20.108 0 18.194-39.515 26.481-76.229 26.481z" fill="#ffa757"/><path d="m293.622 371.7a5.5 5.5 0 0 1 -.823-10.938c32.888-5.014 52.227-21.758 54.334-35.706 1.351-8.947-4.47-17.055-16.391-22.83a5.5 5.5 0 1 1 4.8-9.9c16.381 7.936 24.572 20.464 22.472 34.373-3.208 21.242-29.342 39.721-63.552 44.937a5.532 5.532 0 0 1 -.84.064z" fill="#ffa757"/><path d="m266.439 129.206h-29.528" fill="none" stroke="#e88b89" stroke-linecap="round" stroke-linejoin="round" stroke-width="11"/><path d="m324.257 157.803h-64.475" fill="none" stroke="#e88b89" stroke-linecap="round" stroke-linejoin="round" stroke-width="11"/><path d="m324.257 186.4h-64.475" fill="none" stroke="#e88b89" stroke-linecap="round" stroke-linejoin="round" stroke-width="11"/><path d="m308.824 214.998h-49.042" fill="none" stroke="#e88b89" stroke-linecap="round" stroke-linejoin="round" stroke-width="11"/><g fill="#8e3329"><path d="m14.706 433.135c11.044.95 26.964 1.973 44.344 1.973a329.619 329.619 0 0 0 42.347-2.474 97.539 97.539 0 0 0 39.082-14.253c1.486-.94 3.23-2.077 5.174-3.345 4.494-2.931 10.461-6.822 16.8-10.518l-18.747.311-2.43-.068-1.631 1.061c-1.9 1.237-3.6 2.346-5.045 3.263a86.457 86.457 0 0 1 -34.64 12.643c-30.546 4.029-66.076 2-85.253.338z"/><path d="m14.706 461.468c43.026-2.127 87-4.156 119.043-1.5a5.5 5.5 0 0 0 .909-10.962c-32.616-2.7-76.741-.687-119.952 1.447z"/><path d="m485.294 446.523-6.259.321c-2.723 0-5.544.031-8.426.061-12.911.137-27.543.294-39.279-2.3l-24.938-5.511a218.631 218.631 0 0 0 -44.738-5.119c-97.748-1.041-179.25 3.716-180.062 3.764a5.5 5.5 0 1 0 .651 10.98c.808-.048 81.939-4.774 179.294-3.745a207.587 207.587 0 0 1 42.482 4.861l24.937 5.511c10.067 2.225 21.541 2.624 32.486 2.624 3.154 0 6.264-.033 9.284-.065 2.892-.031 5.721-.061 8.449-.061.094 0 .188 0 .282-.008l5.837-.3z"/><path d="m485.294 413.59c-38.245.479-105.691-.951-146.88-2.9a5.5 5.5 0 0 0 -.521 10.988c35.878 1.7 91.64 3 130.956 3 5.9 0 11.412-.03 16.445-.092z"/></g><path d="m308.824 215h15.433a14.3 14.3 0 0 0 14.3-14.3 14.3 14.3 0 0 0 -14.3-14.3h15.027a14.3 14.3 0 0 0 14.3-14.3 14.3 14.3 0 0 0 -14.3-14.3h-15.027a14.3 14.3 0 1 0 0-28.6h-57.818" fill="none" stroke="#e88b89" stroke-linecap="round" stroke-linejoin="round" stroke-width="11"/><path d="m285.164 480.151a5.5 5.5 0 0 1 -3.964-9.313l6.257-6.507a40.6 40.6 0 0 1 27.367-12.452l19.732-.97a5.5 5.5 0 0 1 .54 10.986l-19.732.971a29.639 29.639 0 0 0 -19.979 9.09l-6.257 6.507a5.481 5.481 0 0 1 -3.964 1.688z" fill="#8e3329"/></svg>