<svg id="Flat" height="512" viewBox="0 0 340 340" width="512" xmlns="http://www.w3.org/2000/svg"><path d="m65.338 213.987s-15.538 18.754-25.83 37.475a18.623 18.623 0 0 0 4.836 23.646l11.116 8.692 19.082-21.55-3.817-4.939 18.633-21.326z" fill="#f7c6c9"/><path d="m74.542 262.252a150.843 150.843 0 0 0 -24.376 22.674 3.829 3.829 0 0 0 .382 5.376l22.343 19.525.729 6.683a13.051 13.051 0 0 0 10.761 11.447l8.121 1.4-.155-47.02a164.1 164.1 0 0 0 -17.805-20.085z" fill="#ffc180"/><path d="m65.338 213.987s-3.775 4.558-8.833 11.418l20.495 24.724 12.357-14.142z" fill="#d67c86"/><path d="m140.591 161.445a263.893 263.893 0 0 0 -31.913 6.21c-10.389 2.8-38.851 20.965-51.959 44.873l37.633 29.626 119.185-1.614-5.308-46.955a65.394 65.394 0 0 0 -21.1-24 42.7 42.7 0 0 0 -22.953-7.411z" fill="#f2e8ee"/><path d="m208.225 193.587a89.522 89.522 0 0 0 -7.276 17.478 65.631 65.631 0 0 0 -24.741-7.738l3 34.052s1.955 2.03 4.829 4.775l29.5-.6s6.702-24.815-5.312-47.967z" fill="#c9b1b1"/><path d="m125.584 146.923c-.32 6.4-.654 14.1-.74 19.823a21.129 21.129 0 0 0 2.385 10.317c2.411 4.5 7.2 9.3 16.641 9.3 11.093 0 15.646-6.273 17.474-12.176a22 22 0 0 0 -.627-14.337 91.365 91.365 0 0 1 -3.438-11.111z" fill="#f7c6c9"/><path d="m125.107 157.6a94.382 94.382 0 0 0 -14.926 6.069 9.131 9.131 0 0 0 -4.983 8.9c1.149 12.989 1.984 45.35-14.941 66.355l2.243 90.43h107.351l-11.887-123.684c-2.14-14.652-4.583-28.432-7.338-39.863a9.022 9.022 0 0 0 -5.409-6.253c-4.074-1.634-10.384-3.773-16.02-4.028 0 0 7.547 38.206 5.289 67.3h-38.625s2.254-47.426-.754-65.226z" fill="#89b9f2"/><path d="m187.963 205.67c-7.787-1.419-11.864-.109-11.864-.109 4.639 14.728 3.112 31.818 3.112 31.818a175.066 175.066 0 0 0 14.248 13.1c-1.618-15.579-3.23-29.609-5.496-44.809z" fill="#5f72ad"/><path d="m152.485 233.723s2.167 3.307 5.287 8.275a20.944 20.944 0 0 1 3.206 11.14v52.991s-.4 19.636 16.592 23.225h22.281a759.843 759.843 0 0 0 -4.79-95.433c-5.369-2.821-22.429-9.284-42.576-.198z" fill="#5f72ad"/><path d="m125.585 146.923c6.455 2.835 17.451 5.672 31.7 1.816a72.615 72.615 0 0 1 -2.143-17.457l-28.89 3.492s-.327 5.35-.667 12.149z" fill="#d67c86"/><path d="m177.85 92.688c-1.556-3.147-4.78-6.776-11.316-6.406l-1.548-20.749c-21.75.351-42.775 6.051-62.549 14.485l3.58 17.122c-10.731 1.162-13.628 14.089-5.069 21.587 3.464 3.034 10.083 1.552 10.083 1.552s8.372 24.9 34.131 20.178c17.655-3.237 21.874-20.047 22.874-28.635v.025s8.245-2.022 10.606-9.586a12.971 12.971 0 0 0 -.792-9.573z" fill="#f7c6c9"/><path d="m164.986 65.533c-21.75.351-42.775 6.051-62.549 14.485l3.581 17.122a279.991 279.991 0 0 1 60-17.769z" fill="#d67c86"/><path d="m106.017 97.14s-14.783 3.35-20.083-12.9l21.084-6.7s4.471 12.203-1.001 19.6z" fill="#474756"/><path d="m166.534 86.282s-13.454-1.506-17.454-19.113a97.329 97.329 0 0 1 22.727-5.127s5.967 14.54-5.273 24.24z" fill="#474756"/><path d="m83.1 36.933c.553 4.642 1.3 10.4 2.218 16.261l79.2-17.746c-1.313-4.985-2.92-10.367-4.829-15.556a14.13 14.13 0 0 0 -12.782-9.192c-11.068-.387-31.084.927-55.4 11.533a14.2 14.2 0 0 0 -8.407 14.7z" fill="#f9b6a5"/><path d="m85.321 53.194c.961 6.147 2.106 12.4 3.4 17.568l80.294-14.424s-1.466-9.387-4.5-20.89c-34.295-3.006-65.33 10.492-79.194 17.746z" fill="#ef73a4"/><path d="m63.758 92.9c29.909-8.544 84.749-22.963 136.183-29.89 5.283-.712 5.3-8.367.012-9.075-32.967-4.417-88.953-4.535-140.035 30.772a4.584 4.584 0 0 0 3.84 8.193z" fill="#f9b6a5"/><g fill="#d67c86"><path d="m136.8 124.772a24.909 24.909 0 0 1 -8.335-1.376 3 3 0 0 1 2.152-5.6c.485.182 11 3.975 19.226-4.733a3 3 0 0 1 4.362 4.12 23.321 23.321 0 0 1 -17.405 7.589z"/><circle cx="126.824" cy="101.824" r="3.899"/><circle cx="146.861" cy="97.925" r="3.899"/></g><path d="m259.064 156.551c-47.6 21.283-53.091 84.2-53.091 84.2h11.362c3.972-52.189 45.02-75.527 45.02-75.527z" fill="#474756"/><path d="m276.939 173.706a36.626 36.626 0 0 0 -9.447-13.309h-13.582a36.638 36.638 0 0 0 -9.447 13.309c-4.531 10.649 2.158 23.156 12.32 23.156h7.836c10.162 0 16.851-12.507 12.32-23.156z" fill="#dd6698"/><path d="m276.939 135.818a36.626 36.626 0 0 1 -9.447 13.309h-13.582a36.638 36.638 0 0 1 -9.447-13.309c-4.531-10.649 2.158-23.155 12.32-23.155h7.836c10.162 0 16.851 12.506 12.32 23.155z" fill="#dd6698"/><path d="m241.757 171.109a36.626 36.626 0 0 0 13.309-9.447v-13.582a36.638 36.638 0 0 0 -13.309-9.447c-10.649-4.531-23.156 2.158-23.156 12.32v7.836c-.001 10.162 12.507 16.851 23.156 12.32z" fill="#f78db5"/><path d="m279.645 171.109a36.626 36.626 0 0 1 -13.309-9.447v-13.582a36.638 36.638 0 0 1 13.309-9.447c10.649-4.531 23.156 2.158 23.156 12.32v7.836c-.001 10.162-12.507 16.851-23.156 12.32z" fill="#f78db5"/><circle cx="260.701" cy="154.871" fill="#fff" r="12.548"/><path d="m165.077 237.81s7.826.637 13.436 8.817l9.011 9.775h42.534s11.71-4.546 20.553-22.39a41.961 41.961 0 0 0 -13.646-1.47s4.183-10.69 13.788-16.732c0 0-24.169-.62-39.2 19.521 0 0-8.521-15.342-26.8-19.523l2.169 18.284a33.369 33.369 0 0 0 -21.845 3.718z" fill="#c9d38c"/><path d="m236.965 232.543s-8.238 14.088-27.537 14.088h-30.922a29.684 29.684 0 0 1 4.233 9.771h49.113s13.479-4.648 20.451-23.859a33.837 33.837 0 0 0 -15.338 0z" fill="#82936e"/><path d="m176.577 318.155a28.257 28.257 0 0 1 -5.791-17.184v-45.378a2.6 2.6 0 0 1 2.6-2.6h47.588l19.222 3.407c1.492 52.6-19.089 74.064-63.619 61.755z" fill="#e1ecfe"/><path d="m183.429 318.254c-2.16.078-4.44.049-6.848-.1a28.333 28.333 0 0 0 22.588 11.2h18.244a28.383 28.383 0 0 0 28.387-28.383v-45.378a2.6 2.6 0 0 0 -2.6-2.6h-22.229v25.818c0 21.054-16.504 38.678-37.542 39.443z" fill="#aac3d6"/><path d="m264.194 288.628h-29.694v-3.191a10.084 10.084 0 0 0 -9.2-10.177 9.861 9.861 0 0 0 -10.517 9.839v4.034a19.721 19.721 0 0 0 -19.722 19.721v.779a19.721 19.721 0 0 0 19.722 19.721h49.411a8.183 8.183 0 0 0 8.183-8.183v-24.36a8.183 8.183 0 0 0 -8.183-8.183z" fill="#ffc180"/></svg>