<svg id="Flat" height="512" viewBox="0 0 340 340" width="512" xmlns="http://www.w3.org/2000/svg"><path d="m68.401 107.366h22.072v44.691h-22.072z" fill="#f14f2a"/><path d="m100.367 76.19s11.873-3.751 11.873-21.713c0 0-1.523-20.093-20.093-21.311 0 0-18.559-17.012-41.658-10.366-12.857 3.7-22.744 13.916-26.843 26.651a64.862 64.862 0 0 0 -3.046 19.943v92.244h41.1v-63.005z" fill="#ff7a4e"/><path d="m61.7 99.107-21.612-7.793v28.094s.451 16.192-19.488 16.032v26.2h41.1z" fill="#f14f2a"/><path d="m74.871 140.629a1.652 1.652 0 0 1 .81-.323c14.073-2.255 27.7 3.89 34.82 16.834 3.366 6.118 4.913 10.7 7.444 19.122 3.187 10.608 4.612 18.652.71 26.808-2.714 5.674-7.719 16.889-11.517 26.007a6.259 6.259 0 0 0 3.274 8.142c1.44.631 3.225 1.385 5.449 2.415a7.808 7.808 0 0 1 -.108 14.2c-3.6 1.643-6.915 2.288-14.278 2.288l-13.655-17.656s1.839-13.159 11.17-33.318a25.028 25.028 0 0 0 .755-18.981 44.073 44.073 0 0 0 -3.913-8.185s-20.155-29.56-20.961-30.635 0-6.718 0-6.718z" fill="#ffccc0"/><path d="m82.436 227.154a37 37 0 0 1 13.564 9.701 26.61 26.61 0 0 1 6.369 21.172l-.763 5.836a94.684 94.684 0 0 0 -.453 20.277c.97 11.411 2.873 29.071 5.933 38.584h-91.938l10.42-95.57z" fill="#c7ef78"/><path d="m86.278 234.944s-12.968-5.491-17.944-7.79h-42.05c-.534 2.888-1.3 7.26-2.074 12.458l-2.667 24.458c-.7 11.745-.332 23.152 2.641 29.709 3.4 7.5 7.714 9.825 11.553 10.027a7.9 7.9 0 0 0 7.928-9.657c-3.513-16.312-3.353-34.722-2.931-44.421a50.416 50.416 0 0 0 26.687 9.627 1.081 1.081 0 0 1 .55 1.946 81.085 81.085 0 0 1 -8.5 5.408 1.649 1.649 0 0 0 1.194 3.037c8.722-1.981 20.909-6.148 27.829-14.642 11.614-14.257-2.216-20.16-2.216-20.16z" fill="#a7d353"/><path d="m88.494 191.643s-4.589 29.348 0 50.359a19.523 19.523 0 0 1 -19.015 14.111 27.755 27.755 0 0 1 -12.044-2.61c-6.67-3.038-18.961-9.972-25.005-21.867v-43.912z" fill="#ffccc0"/><path d="m53.869 203.439c14.289-2.207 27.435-3.289 33.728-4.6.465-4.428.9-7.193.9-7.193l-56.065-3.919v43.912c.34.669.706 1.316 1.083 1.953.109.186.223.368.336.551q.439.714.907 1.4c.111.163.22.328.333.488.414.589.84 1.166 1.281 1.725.077.1.157.19.235.286q.561.7 1.147 1.367c.151.173.3.343.457.512q.528.584 1.071 1.142c.135.14.268.283.4.42q.708.711 1.435 1.384c.167.154.337.3.505.453q.5.455 1.014.89c.213.182.425.361.639.538.315.26.63.513.947.762.267.211.534.421.8.625.39.3.779.587 1.169.867.282.2.561.4.842.594.212.147.423.293.634.436.306.207.609.41.912.608.131.086.261.167.391.25a68.243 68.243 0 0 0 8.462 4.614 27.755 27.755 0 0 0 12.044 2.61c10.128-.21 15.1-6.045 17.359-10.145a20.174 20.174 0 0 1 -13.078 5.875c-18.573 1.382-26.791-8.6-30.259-15.685a8.791 8.791 0 0 1 -.628-5.894l.585-2.466a19.183 19.183 0 0 0 .432-6.25l-.1-6.212a11.86 11.86 0 0 1 10.082-11.898z" fill="#f29086"/><path d="m49.578 138.137s-33.173-3.077-32.883 27.6l.988 57.127a123.733 123.733 0 0 1 -.929 17.572 192.785 192.785 0 0 0 -1.6 24.086 65.972 65.972 0 0 0 9.867 34.8c.061.1.122.194.184.29a6.285 6.285 0 0 0 11.464-2.219 32.146 32.146 0 0 0 -.5-12.322 73.778 73.778 0 0 1 -1.412-11.4 271.951 271.951 0 0 1 .505-36.943c2.03-22.042 4.832-52.494 4.832-52.494z" fill="#ffccc0"/><path d="m52.266 98.633v31.967a11.912 11.912 0 0 1 -2.688 7.536 26.457 26.457 0 0 0 -4.907 9.323l-4.583 15.7a29.578 29.578 0 0 0 -6.514 10.241c-3.891 10.661 2.507 22.537 13.646 24.708 5.539 1.08 13.074.409 23.007-4.5 0 0 14.48 6.315 25.3-2.076a17.271 17.271 0 0 0 6.443-11.134c.924-6.188.272-16.222-10.129-24.99l-12.32-12.22a15.976 15.976 0 0 1 -4.727-11.344v-33.211z" fill="#ffccc0"/><path d="m249.61 115.806v13.005a7.194 7.194 0 0 1 -4.044 6.467l-8.938 4.351a28.292 28.292 0 0 0 -13.309 13.59l-17.052 36.974-15.979-17.593a23.424 23.424 0 0 0 -16.313-7.685 46.75 46.75 0 0 0 -11.194.774 8.6 8.6 0 0 0 -6.835 8.445v.2a8.943 8.943 0 0 0 8.945 8.951h.239a17.954 17.954 0 0 1 14.572 7.651l20.758 29.511a9.019 9.019 0 0 0 14.768-.02l15.3-21.882v29.039h55.69v-56.084l16.921 19.936s-9.17 12.65-14.8 21.052c-2.488 3.714-2.748 8.563-1.532 12.865 1.313 4.642 4.843 9.595 13.93 9.595h7.563a9.746 9.746 0 0 0 9.745-9.746 7.359 7.359 0 0 0 -7.359-7.359l11.014-15.129a16.4 16.4 0 0 0 1.688-16.442c-4.588-10.072-13.076-26.931-24.188-41.072a30.334 30.334 0 0 0 -15.324-10.275l-4.485-1.32a9.878 9.878 0 0 1 -7.089-9.476v-20.257z" fill="#f9beac"/><path d="m268.142 78.522h12.817a11.616 11.616 0 0 1 11.616 11.616 11.616 11.616 0 0 1 -11.616 11.616h-12.817a0 0 0 0 1 0 0v-23.232a0 0 0 0 1 0 0z" fill="#f9beac"/><path d="m249.61 115.806v7.654l23.086 3.415a9.864 9.864 0 0 1 -.4-2.746v-20.257z" fill="#e5897a"/><path d="m223.365 55.469s-13.8-2.247-13.8-20.065a29.842 29.842 0 0 1 2.282-12.232 6.508 6.508 0 0 1 11.89.052 36.167 36.167 0 0 0 4.127 7.2 36.271 36.271 0 0 1 5.083-10.394 6.578 6.578 0 0 1 11.487 1.444l.093.244a13.19 13.19 0 0 0 12.3 8.385h16.246a16.653 16.653 0 0 1 16.611 17.829l-.022.309s9.632 7.224 4.174 20.387-23.276 13.323-23.276 13.323z" fill="#ff9d45"/><path d="m223.365 55.469v39.087a26.246 26.246 0 0 0 26.245 26.244 26.246 26.246 0 0 0 26.246-26.245v-21.349a17.738 17.738 0 0 0 -17.738-17.737z" fill="#f9beac"/><path d="m223.365 84.741v5.4c0 6.736 6.272 9.653 10.95 9.653 6.008 0 10.492-2.809 12.947-8.168.1-.216.195-.436.287-.658a1.845 1.845 0 0 1 1.708-1.132 1.841 1.841 0 0 1 1.7 1.111c.105.246.213.488.326.726 2.566 5.412 8.111 8.2 14.345 8.2 3.844 0 10.07-2.428 10.134-9.735.057-.709.095-5.4.095-5.4z" fill="#e5897a"/><path d="m223.365 80.358h21.826a19.946 19.946 0 0 1 -1.566 9.6 11.3 11.3 0 0 1 -19.05 2.241 9.114 9.114 0 0 1 -1.21-2.06z" fill="#313847"/><path d="m111.736 60.521c-1.323 4.848-12.4 12.194-32.37-12.589a2.757 2.757 0 0 0 -4.356.365c-4.722 6.936-17.719 23.4-34.872 23.74a1.324 1.324 0 0 0 -.8 2.379 30.066 30.066 0 0 0 12.318 5.329c10.258 2-4.29 37.156-4.29 37.156l14.336.32v-18.588l38.664-22.443s9.111-2.88 11.37-15.669z" fill="#f14f2a"/><path d="m275.856 80.358h-22.578a19.347 19.347 0 0 0 1.619 9.6c3.572 7.536 14.463 8.8 19.708 2.241a9.109 9.109 0 0 0 1.251-2.06z" fill="#313847"/><path d="m74.794 125.516v-7.108-19.775h-22.528v30.244z" fill="#f29086"/><path d="m43.38 168.244-6.414-1.1s-10.677 12.738-5.09 25.8a16.246 16.246 0 0 0 6.724 7.456c.867-9.426 1.487-16.161 1.487-16.161z" fill="#f29086"/><path d="m99.084 164.511-4.978 10.94 1.726 2.531a44.073 44.073 0 0 1 3.913 8.185 25.444 25.444 0 0 1 1.407 6.414c10.211-16.608-2.068-28.07-2.068-28.07z" fill="#f29086"/><path d="m230.532 227.585h55.69l5.04 52.266a5.849 5.849 0 0 1 -5.822 6.411h-53.151a5.849 5.849 0 0 1 -5.831-6.3z" fill="#88b5ea"/><path d="m232.289 286.262-1.063 36.462h56.109l-1.895-36.462z" fill="#f9beac"/><path d="m169.948 108.682c-.627.7-.969 1.165-.969 1.165s-.343-.461-.97-1.165c-9.8-11.011-27.883-1.565-24.227 12.716.037.144.076.289.116.434a13.19 13.19 0 0 0 2.074 4.186 74.375 74.375 0 0 0 23.007 20.5 74.38 74.38 0 0 0 23.006-20.5 13.19 13.19 0 0 0 2.074-4.186c.04-.145.079-.29.116-.434 3.656-14.281-14.425-23.727-24.227-12.716z" fill="#ff6161"/><path d="m78.752 54.477s-9.133 16.744-25.269 25.268h-1.826a11.569 11.569 0 0 0 -11.569 11.569 11.569 11.569 0 0 0 11.569 11.568h1.826s2.07 10.03 11.275 15.584a23.706 23.706 0 0 0 25.924-1.1 23.222 23.222 0 0 0 6.625-7.3 23.952 23.952 0 0 0 3.06-12v-21.876s-13.7-10.145-21.615-21.713z" fill="#ffccc0"/><path d="m73.83 179.833a14.427 14.427 0 0 1 1.442-14.659.694.694 0 0 0 -.919-1.006c-1.7 1.037-3.9 3.125-5.541 7.319a.962.962 0 0 1 -1.7.168 17.541 17.541 0 0 0 -6.4-5.879.62.62 0 0 0 -.794.922c2.645 3.287 6.739 10.056 3.614 17.742-2.841 6.987-11.636 3.925-16.638 1.771a.872.872 0 0 0 -.918 1.457 38.892 38.892 0 0 0 10.9 7.012l25.09-2.639a14.48 14.48 0 0 0 5.7-8.314s-8 5.752-13.836-3.894z" fill="#f29086"/><path d="m40.088 163.16a29.576 29.576 0 0 0 -6.514 10.24c-3.891 10.66 2.507 22.536 13.646 24.707 5.539 1.08 13.074.409 23.007-4.5-22.027-3.348-30.139-30.447-30.139-30.447z" fill="#fff"/><path d="m95.528 191.528a17.271 17.271 0 0 0 6.443-11.134c.821-5.5.864-14.269-7.084-21.792-.645-.61-1.241-1.06-2.144-1.962-1.22 27.526-22.516 36.96-22.516 36.96s14.48 6.319 25.301-2.072z" fill="#fff"/><path d="m223.365 80.358h52.49v5.475h-52.49z" fill="#313847"/><g fill="#e5897a"><path d="m250.013 182.476h-4.748a4 4 0 0 1 0-8h4.748a2.39 2.39 0 0 0 2.387-2.387v-12.773a4 4 0 0 1 8 0v12.773a10.4 10.4 0 0 1 -10.387 10.387z"/><path d="m273.43 182.476h-6.741a4 4 0 0 1 0-8h6.741a4 4 0 0 1 0 8z"/><path d="m249.611 203.941a4 4 0 0 1 0-8 25.357 25.357 0 0 0 3.032-.2 2.786 2.786 0 0 0 2.418-2.787v-3.477a4 4 0 0 1 8 0v3.477a10.8 10.8 0 0 1 -9.448 10.728 33.409 33.409 0 0 1 -4.002.259z"/><path d="m260.219 217.026a4 4 0 0 1 -4-4v-3.463a4 4 0 0 1 8 0v3.463a4 4 0 0 1 -4 4z"/><path d="m256.219 286.262h8v36.462h-8z"/></g><path d="m266.689 247.014h-13.873a4 4 0 0 0 0 8h3.4v31.248h8v-31.248h2.47a4 4 0 0 0 0-8z" fill="#3e7bad"/><path d="m71.959 91.273a3.993 3.993 0 0 1 -4-4 4.1 4.1 0 0 1 .07-.779 4.033 4.033 0 0 1 .6-1.44 4.169 4.169 0 0 1 .5-.611 4 4 0 0 1 5.65 0 3.612 3.612 0 0 1 .5.611 4.033 4.033 0 0 1 .6 1.44 4.1 4.1 0 0 1 .069.779 3.991 3.991 0 0 1 -3.989 4z" fill="#313847"/><path d="m86.249 91.273a4.066 4.066 0 0 1 -2.83-1.169 4.994 4.994 0 0 1 -.5-.61 4.268 4.268 0 0 1 -.59-1.44 3.842 3.842 0 0 1 0-1.56 3.791 3.791 0 0 1 .23-.75 3.452 3.452 0 0 1 .36-.69 3.985 3.985 0 0 1 1.11-1.111 4.671 4.671 0 0 1 .69-.37 3.806 3.806 0 0 1 .75-.219 3.728 3.728 0 0 1 1.56 0 3.806 3.806 0 0 1 .75.219 4.671 4.671 0 0 1 .69.37 5.011 5.011 0 0 1 .61.5 4 4 0 0 1 -2.83 6.83z" fill="#313847"/><path d="m68.4 233.793a1.979 1.979 0 0 1 -1.979-1.979v-.89a1.98 1.98 0 0 1 3.959 0v.89a1.98 1.98 0 0 1 -1.98 1.979z" fill="#f29086"/><path d="m272.187 196.472a3.175 3.175 0 0 1 -1.7-.453c-2.312-1.784-4.9.863-4.9.863-.024.027-.047.055-.07.082a4.054 4.054 0 0 0 1.219 6.109 11.466 11.466 0 0 0 5.561 1.4 4 4 0 0 0 3.96-4.577 4.132 4.132 0 0 0 -4.07-3.424z" fill="#e5897a"/><path d="m230.532 198.546v-17.665a1.1 1.1 0 0 0 -2.183-.237l-6.723 30.636z" fill="#e5897a"/><path d="m285.831 293.779-.391-7.517h-53.151l-.219 7.517z" fill="#e5897a"/><path d="m50.4 137.754-7.478 32.731c-1.66-2.03-2.973-4.258-2.831-7.325 3.364-7.743 5.172-14.82 7.187-24.349a3.124 3.124 0 0 1 1.722-2.183 1 1 0 0 1 1.4 1.126z" fill="#fff"/><path d="m79.405 139.18c1.7 2.876 7.929 12.97 15.482 19.422l-1.852 4.122s-10.475-9.717-15.976-22.319a1.33 1.33 0 0 1 .976-1.85 1.317 1.317 0 0 1 1.37.625z" fill="#fff"/><path d="m78.752 54.477s-9.133 16.744-25.269 25.268h-1.826a11.505 11.505 0 0 0 -7.068 2.424 10.334 10.334 0 0 1 7.837 1.591 5.018 5.018 0 0 0 4.8.384c16.816-7.477 22.611-21.274 22.611-21.274 6.925 8.772 20.529 13.32 20.529 13.32s-13.699-10.145-21.614-21.713z" fill="#f29086"/><path d="m61.105 192.215 16.745-1.778-4.64 4.184-7.073.826z" fill="#fff"/><path d="m36.774 322.724h70.315c-3.06-9.513-4.963-27.173-5.933-38.584-.255-3.01-.359-6.026-.328-9.041-9.154 16.094-29.034 42.059-64.054 47.625z" fill="#a7d353"/><circle cx="154.104" cy="117.221" fill="#fff" r="4.508"/></svg>