<svg id="flat" height="512" viewBox="0 0 340 340" width="512" xmlns="http://www.w3.org/2000/svg"><path d="m201.068 76.854s-2.41-6.105-1.131-15.2a1.015 1.015 0 0 1 1.954-.211c1.463 3.873 4.307 9.894 8.813 13.433z" fill="#d9e6f7"/><path d="m212.446 76.223a25.694 25.694 0 0 1 .82-12.021.8.8 0 0 1 1.552.054c.711 3.195 2.261 8.225 5.39 11.5z" fill="#d9e6f7"/><path d="m223.19 77.207a25.71 25.71 0 0 1 .82-12.021.8.8 0 0 1 1.553.054c.71 3.2 2.261 8.225 5.389 11.5z" fill="#a0b1f7"/><path d="m212.087 38.4a27.775 27.775 0 0 0 -2.007 10.42 1.175 1.175 0 0 0 2.191.594c1.677-2.89 4.415-6.935 7.362-8.524z" fill="#d9e6f7"/><path d="m222.107 42.849a21.891 21.891 0 0 0 -.531 8.6.992.992 0 0 0 1.887.227c1.079-2.515 2.914-6.078 5.191-7.692z" fill="#a0b1f7"/><path d="m232.876 46.352a20.247 20.247 0 0 0 -.491 7.955.917.917 0 0 0 1.745.21c1-2.325 2.694-5.62 4.8-7.113z" fill="#a0b1f7"/><path d="m202.127 30.14a49.173 49.173 0 0 0 -2.227 15.348 1.174 1.174 0 0 0 2.129.678c1.82-2.575 4.645-6.125 7.293-7.627z" fill="#d9e6f7"/><path d="m299.292 136.215s.35 4.585 5.179 10.295a29 29 0 0 0 7.461 6.145c4.936 2.919 15.483 10.805 13.151 23.86a10.383 10.383 0 0 1 -13.218 8.262 18.542 18.542 0 0 1 -8.965-6.32l-17.437-19.122z" fill="#9b5054"/><path d="m126.429 287.2a32.23 32.23 0 0 1 -6.97 10.274 8.192 8.192 0 0 0 -2.422 5.792 8.249 8.249 0 0 0 4.258 7.165 23.776 23.776 0 0 1 8.6 8.306 8.094 8.094 0 0 0 9.346 3.6 27.5 27.5 0 0 1 19.565.874 6.579 6.579 0 0 0 7.478-1.625 6.594 6.594 0 0 0 -.813-9.61 32.378 32.378 0 0 0 -10.546-5.425 7.333 7.333 0 0 1 -3.387-11.775 50.747 50.747 0 0 1 8.309-7.58z" fill="#9b5054"/><path d="m69.141 221.441s-18.544-44.315 39.15-56.854c0 0 49.049-11.117 22.1-55.377a1.374 1.374 0 0 0 -2.536.919c1.187 7.706 1.216 19.679-7.96 26.2-4.407 3.13-16.087 5.823-21.492 5.781a106.785 106.785 0 0 0 -30.605 4.2l-13.798 10.016s-24.293 42.968 15.141 65.115z" fill="#9b5054"/><path d="m252.063 96.774a52.484 52.484 0 0 1 -11.7-3.167c-10.027-3.916-25.321-3.622-28.848-3.786a16.358 16.358 0 0 1 -2.073-.2c-8.767-1.537-12.013-9.125-13.207-14.105a3.443 3.443 0 0 1 3.545-4.216l23.056 1.2a18.784 18.784 0 0 0 8.508-1.919 18.374 18.374 0 0 0 7.535-7.13 11.28 11.28 0 0 0 2.952-8.644s-3.148-7.077-16.725-9.97a60.031 60.031 0 0 1 -20.714-8.982 7.542 7.542 0 0 1 -2.154-10.608 43.059 43.059 0 0 1 5.108-6.138 17.078 17.078 0 0 1 17.254-4.024l16.316 5.271a26.881 26.881 0 0 0 10.558 1.2l4.662-.4a20.725 20.725 0 0 1 10.864 2.03l.734.359a25.579 25.579 0 0 0 7 2.207c8.6 1.444 31.7 8.847 33.533 46.745a79.274 79.274 0 0 1 2.827 19.24s-.915 29.772-13.11 57.1c0 0-91.423 154.743-213.524 138.4-16.488-4.317-35.695-12.195-50.016-26.563a68.5 68.5 0 0 1 -15.756-71.57c5.953-16.356 19.45-34 49.11-42.8 0 0-25.27 39.374 1.031 74.716a37.071 37.071 0 0 0 42.247 12.513c10.129-3.619 23.839-10.45 29.075-30.9 0 0 14.341-61.372 84.543-77.71-.001 0 22.645-2.723 27.369-28.149z" fill="#f29d88"/><path d="m92.147 272.582a3.469 3.469 0 0 1 -3.328-4.432l.253-.873a9.518 9.518 0 0 1 10.438-6.708c31.585 4.5 54.321-17.045 54.547-17.264a3.464 3.464 0 0 1 4.822 4.975c-1.017.987-25.322 24.139-60.346 19.148a2.525 2.525 0 0 0 -2.808 1.783l-.253.872a3.466 3.466 0 0 1 -3.325 2.499z" fill="#9b5054"/><path d="m246.7 169.893-7.046-8.424a3.521 3.521 0 0 0 -4.337-.912 3.468 3.468 0 0 0 -1.036 5.287l.786.94c-38.962 16.5-50.129 35.141-50.516 35.818a3.461 3.461 0 0 0 3 5.167 3.489 3.489 0 0 0 3-1.705c.087-.147 10.678-17.259 46.556-32.619a3.791 3.791 0 0 1 4.4 1.042 3.465 3.465 0 0 0 4.851.458 3.634 3.634 0 0 0 .342-5.052z" fill="#9b5054"/><path d="m219.991 201.079c8.85.187 20.287 2.2 28.678 9.989l-11.7 11.938-19.676-13.456a4.64 4.64 0 0 1 2.698-8.471z" fill="#9b5054"/><path d="m310.992 91.745c-3.716 40.5-27.325 62.143-27.325 62.143l-9.8 4.133a15.45 15.45 0 0 0 -10.325 21.046q.133.3.269.581a7.266 7.266 0 0 1 -.477 7.053c-15.856 24.861-31.4 30.371-31.4 30.371l-52.4 35.088-8.268-8.552c-7.2-7.443-21.66.2-19.421 10.3a29.6 29.6 0 0 0 1.218 4.007 12.076 12.076 0 0 1 -6.22 15.314c-12.762 5.829-35.427 13.983-62.388 14.007a160.945 160.945 0 0 0 34.545 5.229c93.383.778 137.436-56.135 147.5-80.857 0 0 6.821-12.14 10.61-17.98 12.182-18.777 23.239-44.331 23.239-44.331 9.592-24.067 11.294-44.024 10.748-57.56-.007-.065-.097-.056-.105.008z" fill="#9b5054"/><path d="m275.629 147.694a21.707 21.707 0 0 1 17.57-1.717l-5.979 10s-3.552-2.327-10.254-2.7a2.994 2.994 0 0 1 -1.337-5.583z" fill="#9b5054"/><path d="m161.231 254.559a31.619 31.619 0 0 1 2.145-41.037c6.453-6.722 17.435-12.62 36.125-13.12 32.946-.883 45.623 22.967 50.048 35.789a41.062 41.062 0 0 1 2.2 12.8l.06 4.055a24.515 24.515 0 0 1 -8.342 18.826c-5.952 5.2-13.646 12.914-18.337 21.411a16.466 16.466 0 0 0 1.514 3.355 17.8 17.8 0 0 0 13.581 8.615c5.472.607 14.851 3.3 17.064 14.464a5.067 5.067 0 0 1 -3.627 5.854 5.1 5.1 0 0 1 -3.838-.47 24.477 24.477 0 0 0 -18.607-2.147 10.344 10.344 0 0 1 -11.617-4.148 38.051 38.051 0 0 0 -19.8-15.5 7.654 7.654 0 0 1 -4.958-5.657 7.773 7.773 0 0 1 2.748-7.684c4.294-3.465 10.813-10.255 11.929-20.181-8.565-.067-16.76-.208-22.015-.934-9.362-1.75-19.629-5.712-26.273-14.291z" fill="#f29d88"/><path d="m263.216 163.562a14.716 14.716 0 0 0 .878 6.046 15.958 15.958 0 0 0 13.787 10.231 35.734 35.734 0 0 0 8.084-.305 21.154 21.154 0 0 1 9.224.612 11.539 11.539 0 0 1 8.295 12.892c-.013.081-.028.162-.043.243a4.906 4.906 0 0 0 8.266 4.452 16.965 16.965 0 0 0 4.5-8.826 24.235 24.235 0 0 0 -8.216-23.118 32.9 32.9 0 0 0 -11.2-6.563 16.163 16.163 0 0 1 -6.779-4.257 16.224 16.224 0 0 0 -6.6-4.175c-9.356-3.16-19.542 2.906-20.196 12.768z" fill="#f29d88"/><g fill="#9b5054"><path d="m254.584 163.861a3.459 3.459 0 0 1 -2.672-1.256l-2.518-3.046a3.464 3.464 0 0 1 5.339-4.415l2.518 3.045a3.464 3.464 0 0 1 -2.667 5.672z"/><path d="m293.307 83.462a25.466 25.466 0 0 0 -7.986-7.527 4.348 4.348 0 0 0 -6.631 3.624 25.169 25.169 0 0 1 -.19 2.58 18.294 18.294 0 0 1 -21.092 15.475l-5.345-.84a38.878 38.878 0 0 1 -3.626 10.808q1.137.062 2.224.091a9.193 9.193 0 0 1 8.7 6.933c2.128 8.539 4.021 21.385-.24 32.066a3.464 3.464 0 0 0 3.2 4.792 3.564 3.564 0 0 0 3.211-2.164c7.127-15.6 1.607-34.314-1.23-42.744 16.639-3.667 19.435-15.26 19.745-21.081a2.52 2.52 0 0 1 3.522-2.168 26 26 0 0 1 3.775 2.075 1.4 1.4 0 0 0 1.963-1.92z"/><path d="m263.184 71.755a16.192 16.192 0 0 0 8.983-12.245 1.309 1.309 0 0 0 -2.436-.843l-.006.011c-5.441 9.311-18.922 9.428-24.952.488l-2.942-4.366a22.372 22.372 0 0 1 -2.919 8.586c3.413 6.572 14.047 13.514 24.272 8.369z"/><path d="m258.917 40.7h-2.325a3.465 3.465 0 1 1 0-6.929h2.325a3.465 3.465 0 0 1 0 6.929z"/><path d="m187.5 268.851a80.529 80.529 0 0 0 22.014.939 34.5 34.5 0 0 0 -2.42-15.214 1.979 1.979 0 0 0 -3.771.525c-.857 6.154-4.18 14.319-15.823 13.75z"/><circle cx="79.945" cy="259.518" r="3.439"/><circle cx="67.861" cy="254.777" r="3.439"/><circle cx="216.769" cy="27.26" r="3.439"/></g></svg>