<svg id="Flat" height="512" viewBox="0 0 340 340" width="512" xmlns="http://www.w3.org/2000/svg"><path d="m127.222 47.731s-12-19.145-30.887-22.463v7.147s-13.784-6.637-31.908 1.021-27.827 6.382-27.827 6.382 5.616 21.7 45.31 18.89c0 0 .383 2.807-3.7 6.636 0 0 9.445 10.211 32.93 6.382z" fill="#56aafe"/><path d="m127.222 47.731a61.65 61.65 0 0 0 -11.377-12.719c-.7 1.136-2.571 4.659-4.352 8a8.682 8.682 0 0 1 -10.337 4.145c-9.3-2.962-20.78-3.956-31.247-3.757a1.68 1.68 0 0 0 -1.575 1.559 1.724 1.724 0 0 0 1.557 1.875l.106.01c2.268.21 24.129 2.907 31.895 10.121a40.514 40.514 0 0 1 -3.7 3.172 54.35 54.35 0 0 0 -10.72 10.409c5.3 1.769 13.045 2.912 23.669 1.18l2.643-3.944c.661.8 1.025 1.286 1.025 1.286l8.595-9.51s-.978-.845-2.692-2.113z" fill="#406bd0"/><path d="m118.093 153.554h114.331s24.273 88.385 15.666 138.7h-130z" fill="#fff"/><path d="m235.27 164.751-2.846-11.2h-114.331v138.7h19.395c.679-17.438 2.273-37.861 5.332-50.567 1.57-6.519 3.361-16.746 5.046-29.3 19.815 25.475 47.182 52.119 81.77 66.165.094 4.562.109 9.14.031 13.7h18.423c.661-3.855-8.424-109.335-12.82-127.498zm-72.634 7.668a69.378 69.378 0 0 0 39.985 12.025s4.816-1.842 11.5-7.308a2.133 2.133 0 0 1 3.448 1.193c2.106 9.987 6.342 31.807 9.213 58.027-18.577-15.518-43.097-37.996-64.146-63.937z" fill="#dae5fc"/><path d="m159.937 153.554c11.056 44.953 39.568 59.567 39.568 59.567 11.563-15.012 14.386-39.98 14.564-59.567z" fill="#ffcacf"/><path d="m167.569 175.464a68.842 68.842 0 0 0 35.052 8.98 43.591 43.591 0 0 0 9.571-5.774 179.555 179.555 0 0 0 1.877-25.116h-54.132a119.506 119.506 0 0 0 7.632 21.91z" fill="#e5838b"/><path d="m255.675 144.28s43.756 45.045 63.49 91.493a35.565 35.565 0 0 1 -.489 29.134c-5.824 12.3-16.49 29.77-33.941 42.062l-26.567-43.59s10.766-13.079 18.5-23.138c0 0-15.924-23.678-28.562-36.638l-8.153-45.974z" fill="#e54c5b"/><path d="m264.844 203.268a68.825 68.825 0 0 0 -7.155-13.929 3.305 3.305 0 0 0 -6.038 1.811l-.088 5.527-3.454 6.926c12.638 12.96 28.562 36.638 28.562 36.638-7.737 10.059-18.5 23.138-18.5 23.138l4.973 6.068 26.379-28.7s-22.05-30.512-24.679-37.479z" fill="#a02a39"/><path d="m261.135 266.249s.315.015.877.074a26.96 26.96 0 0 1 24.037 26.866v18.517a28.7 28.7 0 0 1 -1.683 9.923c-2.132 5.789-6.9 12.914-17.437 12.914h-5.794z" fill="#ffcacf"/><path d="m124.528 282.328s69.873 2.715 124.831 0l-10.833 52.215h-111.3s-10.253-18.043-2.698-52.215z" fill="#5b5b81"/><g fill="#333353"><path d="m179.56 298.962c5.286-.317 10.593-.915 15.871-1.631q3.96-.543 7.893-1.195c2.611-.436 5.231-.91 7.718-1.448a5.774 5.774 0 1 1 2.445 11.287 5.882 5.882 0 0 1 -1.02.129h-.054c-2.863.085-5.611.069-8.372.022s-5.5-.142-8.241-.271c-5.483-.266-10.956-.652-16.438-1.331a2.794 2.794 0 0 1 .175-5.561z"/><path d="m167.048 304.32h-.042l-2.193-.032a3 3 0 0 1 .047-6h.048l2.179.032a3 3 0 0 1 -.039 6z"/><path d="m185.555 334.543h20.7v-51.066c-7.053.061-14.006.07-20.7.044z"/><path d="m122.314 304.033c3.319.131 6.617.2 9.914.238 6.6.059 13.163.016 19.8-.322a3.124 3.124 0 0 0 .025-6.238h-.025c-6.393-.375-12.85-1.038-19.258-1.8-3.2-.388-6.4-.809-9.573-1.285l-.737-.116c-.393 3.378-.6 6.541-.675 9.5z"/><path d="m217.6 314.136h-.033c-9.112.478-18.335.538-27.544.477s-18.439-.294-27.655-.649-18.427-.824-27.606-1.455c-4.291-.3-8.59-.635-12.863-1.028a77.929 77.929 0 0 0 1.265 10.37q5.55.292 11.088.493c9.321.321 18.626.476 27.931.516s18.607-.052 27.916-.3 18.618-.632 27.987-1.446a3.5 3.5 0 0 0 -.486-6.982z"/></g><path d="m216.282 332.027-22.808.458-.919-7.093v-42.9a7.83 7.83 0 0 1 7.83-7.829h8.068a7.829 7.829 0 0 1 7.829 7.829z" fill="#5b5b81"/><path d="m240.009 331.424-23.727-.3v-48.634a7.829 7.829 0 0 1 7.829-7.829h18.789z" fill="#5b5b81"/><path d="m88.227 108.9a11.411 11.411 0 0 0 14.133 10.4c35.02-8.684 78.04-26.928 119.64-34.607a128.692 128.692 0 0 0 36.717-15.916 10.083 10.083 0 0 0 -1.305-17.621 144.442 144.442 0 0 1 -40.712-28.629 60.008 60.008 0 0 0 -22.956-14.336c-9.919-3.342-22.584-4.691-34.844 2.291 0 0-25.319 11.508-39.1 40.2a58.267 58.267 0 0 1 -14.2 18.369c-13.694 12.049-18.334 24.168-17.373 39.849z" fill="#e54c5b"/><path d="m207.009 68.271-3.461 20.444c6.16-1.525 12.32-2.891 18.448-4.022a126.115 126.115 0 0 0 25.553-9.593c6.47-9.629-40.54-6.829-40.54-6.829z" fill="#a02a39"/><path d="m127.955 96.991s-25.455 14.409-21.143 56.563l61.974-1.59s-6.597-37.584-40.831-54.973z" fill="#333353"/><path d="m173.809 74.8 33.2-6.531s14.507 29.275 13.26 55.98l-17.706 5.623-51.019-2.752s-12.205-33.296 22.265-52.32z" fill="#ffcacf"/><path d="m137.939 282.756c-5.827-.175-13.411-.428-13.411-.428-7.555 34.176 2.694 52.215 2.694 52.215h13.9c-4.777-17.038-3.386-45.524-3.183-51.787z" fill="#333353"/><path d="m233.115 315.946a9.855 9.855 0 0 1 -9.858 9.538h-6.975v9.059h23.727l2.891-59.882h-10.122c.581 13.777.755 27.539.337 41.285z" fill="#333353"/><path d="m84.823 148.312a224.211 224.211 0 0 1 53.136-10.365s4.064 38.488-4.806 79.968-5.931 116.628-5.931 116.628h-29.7s-17.282-61.815 0-113.665z" fill="#e54c5b"/><path d="m118.093 140.287s39.507 94.676 127.134 134.374v-32.516s-59.47-35.327-91.986-109.048a298.773 298.773 0 0 0 -35.148 7.19z" fill="#333353"/><path d="m212.534 153.39s32.155 30.575 25.992 181.153h28.4s4.521-92.945-15.131-152.6a39.74 39.74 0 0 1 -1.723-16.5 66.834 66.834 0 0 1 5.6-21.161s-21.152-9.2-40.185-8.889z" fill="#e54c5b"/><path d="m207.009 68.271c-14.608.211-33.2 6.531-33.2 6.531-9.481 5.232-15.425 11.544-19.069 17.945 4.21-1.932 8.785-3.844 13.716-5.664a25.232 25.232 0 0 1 17.185-.168c3.044 1.081 6.488 2.441 10.007 4.1 0 0-.7 6.5 7.461 10.007 5.991 2.577 11.79 5.432 15.807 4.343-2.48-18.428-11.907-37.094-11.907-37.094z" fill="#e5838b"/><path d="m97.519 264.515 3.067 2.952a20.311 20.311 0 0 1 6.156 16.316l-3.671 44.247a7.1 7.1 0 0 1 -7.077 6.513 17 17 0 0 1 -16.225-11.984c-2.872-9.226-5.433-23.455-2.882-41.54z" fill="#ffcacf"/><path d="m84.823 148.312s25.821 39.139 12.7 72.566l-21.638 20.834 21.634 22.8s-6.659 25.866-28.781 38.459c0 0-31.168-17-48.519-52.294a22.556 22.556 0 0 1 .493-20.649c9.188-17.028 30.798-52.678 64.111-81.716z" fill="#e54c5b"/><path d="m213.554 211.149a97.749 97.749 0 0 0 -11.272-11.749 10.529 10.529 0 0 0 -12.957-.918c-6.522 4.476-11.6 10.842-14.841 15.664a10.53 10.53 0 0 0 .881 12.905 103.789 103.789 0 0 0 12.319 11.567 10.512 10.512 0 0 0 13.069.029 58.885 58.885 0 0 0 13.558-15.606 10.485 10.485 0 0 0 -.757-11.892zm-12.081 10.365a43.653 43.653 0 0 1 -3.332 3.63 5.019 5.019 0 0 1 -6.828.082 31.407 31.407 0 0 1 -2.827-2.849 4.952 4.952 0 0 1 .052-6.5c1.032-1.18 2.138-2.326 3.3-3.445a5.016 5.016 0 0 1 6.8-.1 34.454 34.454 0 0 1 2.691 2.639 5.007 5.007 0 0 1 .144 6.543z" fill="#fca751"/><path d="m193.464 40.225c-2.156-1.433-4.289-2.676-6.334-3.758 2.065-2.324 3.576-3.809 3.609-3.842a3.5 3.5 0 0 0 -4.889-5.009c-.176.172-2.458 2.416-5.311 5.755a70 70 0 0 0 -7.874-2.75 3.5 3.5 0 0 0 -1.871 6.745c1.126.312 2.949.869 5.22 1.733a63.723 63.723 0 0 0 -3.543 5.4 3.5 3.5 0 1 0 6.056 3.51 59.955 59.955 0 0 1 4.053-6.015 67.3 67.3 0 0 1 7.008 4.06 3.5 3.5 0 0 0 3.876-5.829z" fill="#fff"/><path d="m205.367 83.038a214.152 214.152 0 0 0 -25.977-9.945c-3.422.975-5.581 1.709-5.581 1.709-1.564.863-3.028 1.756-4.405 2.672a217.087 217.087 0 0 1 33.006 11.909 3.5 3.5 0 0 0 2.957-6.345z" fill="#333353"/><path d="m180.454 96.928a3.482 3.482 0 0 1 -.59-.05l-3.1-.526a3.5 3.5 0 1 1 1.172-6.9l3.1.526a3.5 3.5 0 0 1 -.582 6.951z" fill="#e8808f"/><path d="m123.006 198.251a3.5 3.5 0 0 1 -.616-.055l-2.37-.42a3.5 3.5 0 0 1 1.224-6.893l2.37.421a3.5 3.5 0 0 1 -.608 6.947z" fill="#a02a39"/><path d="m118.753 224.678a3.587 3.587 0 0 1 -.616-.054l-2.37-.421a3.5 3.5 0 0 1 1.223-6.893l2.371.421a3.5 3.5 0 0 1 -.608 6.947z" fill="#a02a39"/><path d="m115.436 252.485a3.616 3.616 0 0 1 -.617-.054l-2.369-.421a3.5 3.5 0 0 1 1.224-6.893l2.37.421a3.5 3.5 0 0 1 -.608 6.947z" fill="#a02a39"/><path d="m205.184 77.33a18.8 18.8 0 0 0 -2.511 1.759 9.961 9.961 0 0 0 .819 15.921 30.427 30.427 0 0 0 10.331 4.4 5.2 5.2 0 0 0 6.215-6.179 59.8 59.8 0 0 0 -4.215-12.6 7.512 7.512 0 0 0 -10.639-3.301z" fill="#333353"/><path d="m173.809 74.8s-24.363 21-5.023 49.871l51.483-.422s9.305 32.15-16.562 48.249a15.3 15.3 0 0 1 -7.99 2.277c-9.689.067-33.074-2.4-43.743-26.465l-7.331-2.817c-8.326-4.1-21.039-13.419-23.2-32.648l6.507-15.856a174.873 174.873 0 0 1 45.859-22.189z" fill="#5b5b81"/><path d="m173.809 74.8a174.873 174.873 0 0 0 -45.854 22.189c-4.575 3.174-7.689 11.3-6.718 19.01 4.865-3.979 19.618-18.039 42.881-27.263a40.939 40.939 0 0 1 9.691-13.936z" fill="#333353"/><path d="m145.112 134.6a46.008 46.008 0 0 0 -.468 10.9 38.9 38.9 0 0 0 7.329 2.82 110.2 110.2 0 0 1 -3.314-13.719 1.8 1.8 0 0 0 -3.547-.001z" fill="#333353"/><path d="m208.453 274.661h-.97c1.422 1.674 3.918 6.23 3.918 17.595v25.534a7.6 7.6 0 0 1 -7.6 7.6h-11.246v9.151h23.727v-52.051a7.829 7.829 0 0 0 -7.829-7.829z" fill="#333353"/><path d="m173.859 124.631-2.186.641s-7.29 3.313-14.194 3.313c0 0 .408 10.74 12.243 15.053a26.758 26.758 0 0 0 16.629.452c4.065-1.188 8.762-3.49 11.236-7.944 0 0 10.678 8.278 24.217 4.641a54.136 54.136 0 0 0 -1.535-16.536z" fill="#333353"/><path d="m214.559 114.02c-10.677-7.09-18.379 2.446-18.379 2.446s-8.952-8.375-18.541.128-16.827 8.656-16.827 8.656 3.665 13.7 18.872 12.638 17.369-8.9 17.369-8.9 3.23 7.464 18.437 6.4 16.934-15.135 16.934-15.135-7.188.856-17.865-6.233z" fill="#5b5b81"/><path d="m278.37 245.211a48.287 48.287 0 0 1 18.115-2.555 1.464 1.464 0 0 0 .767-2.766 25.666 25.666 0 0 0 -16.763-2.372z" fill="#a02a39"/><path d="m100.346 188.946a2.026 2.026 0 0 0 -4.026.223c-.076 1.839-.2 3.562-.349 5.135a28.912 28.912 0 0 1 -6.477 15.696l-15.834 19.189a5.279 5.279 0 0 1 -4.581 1.925 40.779 40.779 0 0 0 -12.195.682 1.649 1.649 0 0 0 .192 3.259 36.606 36.606 0 0 1 18.809 6.657l21.634-20.834c4.141-10.545 4.405-21.658 2.827-31.932z" fill="#a02a39"/><path d="m177.894 224.939c-1.627-1.868-3.805-5.618-.36-9.95a2.014 2.014 0 0 1 3.075-.033l.126.143a2.06 2.06 0 0 1 .169 2.461 3.785 3.785 0 0 0 .229 4.609 2.054 2.054 0 0 1 -.4 2.981l-.168.116a2.021 2.021 0 0 1 -2.671-.327z" fill="#fff"/><path d="m202.282 199.4a10.669 10.669 0 0 0 -7.107-2.721l.264 2.607a10.6 10.6 0 0 0 3.917 7.194 73.758 73.758 0 0 1 5.959 5.335 8.64 8.64 0 0 1 .721 11.436 53.23 53.23 0 0 1 -7.535 7.864 10.433 10.433 0 0 0 -3.645 7.779l-.04 1.993a10.424 10.424 0 0 0 5.937-2.24 58.885 58.885 0 0 0 13.558-15.606 10.485 10.485 0 0 0 -.757-11.893 97.749 97.749 0 0 0 -11.272-11.748z" fill="#e87b40"/></svg>