<svg id="icon" height="512" viewBox="0 0 340 340" width="512" xmlns="http://www.w3.org/2000/svg"><path d="m134.317 287.6s165.869 22.04 176.631-82.6a.49.49 0 0 0 -.922-.283c-5.877 11.49-35.547 57.756-125.619 40.368z" fill="#373d4c"/><circle cx="126.883" cy="214.93" fill="#373d4c" r="72.671"/><path d="m126.883 101.717a113.213 113.213 0 1 0 113.217 113.213 113.213 113.213 0 0 0 -113.217-113.213zm-87.883 134.173a92.909 92.909 0 0 1 -1.491-37.39 9.622 9.622 0 0 1 12.177-7.64l31.3 9.057a15.3 15.3 0 0 1 11.047 14.379v.114q.018.8.07 1.59a14.779 14.779 0 0 1 -9.384 14.939l-30.945 11.7a9.658 9.658 0 0 1 -12.774-6.749zm78.365 26.21-6.617 32.417a9.656 9.656 0 0 1 -12.528 7.2 92.91 92.91 0 0 1 -32.42-18.691 9.623 9.623 0 0 1 .038-14.376l24.362-21.639a15.305 15.305 0 0 1 18.057-1.669l.1.059q.685.411 1.382.789a14.778 14.778 0 0 1 7.626 15.91zm-6.608-79.261-.1.059q-.684.414-1.343.855a14.778 14.778 0 0 1 -17.629-.668l-25.6-20.963a9.657 9.657 0 0 1 -.533-14.441 92.915 92.915 0 0 1 31.648-19.972 9.622 9.622 0 0 1 12.7 6.734l7.788 31.643a15.3 15.3 0 0 1 -6.931 16.751zm27.947-16.66 7.628-31.682a9.622 9.622 0 0 1 12.668-6.797 92.9 92.9 0 0 1 31.749 19.811 9.656 9.656 0 0 1 -.459 14.443l-25.49 21.089a14.778 14.778 0 0 1 -17.625.758q-.661-.436-1.347-.848l-.1-.059a15.3 15.3 0 0 1 -7.028-16.717zm52.489 116.384a92.93 92.93 0 0 1 -32.325 18.856 9.657 9.657 0 0 1 -12.564-7.139l-6.781-32.38a14.777 14.777 0 0 1 7.544-15.947q.695-.381 1.379-.8l.1-.059a15.3 15.3 0 0 1 18.065 1.576l24.475 21.516a9.621 9.621 0 0 1 .107 14.375zm15.145-43.4-31.441-10.3a14.777 14.777 0 0 1 -10.048-14.5q.017-.792 0-1.592v-.113a15.3 15.3 0 0 1 10.389-14.863l30.862-10.462a9.622 9.622 0 0 1 12.51 7.083 92.888 92.888 0 0 1 .19 37.422 9.656 9.656 0 0 1 -12.462 7.32z" fill="#afb7d3"/><circle cx="127.091" cy="213.229" fill="#fff" r="14.74"/><path d="m22.614 19.032v39.81a7.172 7.172 0 0 0 7.173 7.173h153.282a137.231 137.231 0 0 1 71.467 19.665c30.064 18.32 60.49 53.108 55.764 118.362a.391.391 0 0 0 .735.219c5.288-10.357 31.674-67.679-.122-129.182 0 0-35.9-63.221-109.158-63.221h-171.968a7.173 7.173 0 0 0 -7.173 7.174z" fill="#626a7a"/><g fill="#d7dcf2"><rect height="33.849" rx="6.572" width="38.052" x="33.743" y="22.012"/><rect height="33.841" rx="6.572" width="39.154" x="86.702" y="22.016"/><path d="m171.834 55.861h-24.434a6.572 6.572 0 0 1 -6.572-6.572v-20.7a6.572 6.572 0 0 1 6.572-6.573h25.309a6.572 6.572 0 0 1 6.566 6.849l-.87 20.7a6.572 6.572 0 0 1 -6.571 6.296z"/><path d="m200.353 22.052c6.448.151 16.73.841 26.06 3.444a6.578 6.578 0 0 1 4.635 7.893c-1.461 5.983-3.82 15.338-5.889 22.154a6.577 6.577 0 0 1 -7.894 4.463 120.11 120.11 0 0 0 -18.517-3.053 6.574 6.574 0 0 1 -6.008-6.822l.916-21.784a6.565 6.565 0 0 1 6.697-6.295z"/><path d="m251.776 34.457a142.087 142.087 0 0 1 21.716 12.923 6.593 6.593 0 0 1 2.2 7.884c-1.934 4.567-5.156 11.891-8.921 19.305a6.572 6.572 0 0 1 -9.528 2.5 105.778 105.778 0 0 0 -16.783-9.316 6.6 6.6 0 0 1 -3.79-7.869c1.545-5.4 3.9-13.722 5.887-21.2a6.572 6.572 0 0 1 9.219-4.227z"/><path d="m277.073 91.177a123.407 123.407 0 0 1 10.161 11.143 6.568 6.568 0 0 0 10.628-.5c2.369-3.611 5.223-7.984 7.885-12.119a6.561 6.561 0 0 0 .056-7.03 123.8 123.8 0 0 0 -11.83-15.971 6.563 6.563 0 0 0 -10.873 1.643c-1.884 4.122-4.38 9.392-7.307 15.125a6.586 6.586 0 0 0 1.28 7.709z"/><path d="m301.613 122.023a158.713 158.713 0 0 1 6.126 17.851 3.289 3.289 0 0 0 5.592 1.389c2.2-2.372 4.8-5.229 6.647-7.41a3.273 3.273 0 0 0 .746-2.523c-.491-3.971-2.049-15.455-4.622-24.143a3.291 3.291 0 0 0 -5.9-.859c-2.408 3.653-5.622 8.542-8.3 12.664a3.276 3.276 0 0 0 -.289 3.031z"/><path d="m313.4 163.138c.236 1.707 1.018 7.644 1.327 13.244a1.054 1.054 0 0 0 2.057.268 103 103 0 0 0 4.234-19.587 1.057 1.057 0 0 0 -1.832-.817l-5.519 6.042a1.049 1.049 0 0 0 -.267.85z"/></g></svg>