<svg id="Flat" height="512" viewBox="0 0 340 340" width="512" xmlns="http://www.w3.org/2000/svg"><path d="m179.714 167.454h-64.374l5.595 16.755a8.936 8.936 0 0 0 8.474 6.1h100.609a8.934 8.934 0 0 0 8.474-6.1l5.6-16.755z" fill="#f7c9a9"/><path d="m179.714 190.314h-50.305l19.774 133.1a4.736 4.736 0 0 0 4.684 4.04h51.693a4.736 4.736 0 0 0 4.684-4.04l19.774-133.1z" fill="#f7c9a9"/><path d="m234.419 121.424s19.061 21.423 2.99 46.03h-79.233l42.838-46.03z" fill="#ffaeda"/><path d="m115.34 167.454 5.595 16.755a8.936 8.936 0 0 0 8.474 6.1h20.691c3.019-3.671 5.921-5.088 10.036-6.322 17.525-5.253 20.317-11.237 23.654-16.538z" fill="#e29866"/><path d="m230.018 190.314h-100.609l1.154 7.767 2.1 14.154a37.41 37.41 0 0 0 4.412-7.35 7.228 7.228 0 0 1 6.54-4.151h84.855z" fill="#e29866"/><path d="m127.652 76.379 119.716 28.382a65.987 65.987 0 1 0 -125.6-37.332s5.313 2.961 5.884 8.95z" fill="#dde279"/><path d="m234.419 121.424h-33.4l-42.838 46.03h25.617c8.795-14.76 21.693-19.426 21.693-19.426 12.978 5.817 22.152-2.8 25.928-7.468a13.1 13.1 0 0 1 5.166-3.847 27.9 27.9 0 0 0 4.966-2.634 42.283 42.283 0 0 0 -7.132-12.655z" fill="#e57fbc"/><path d="m98.388 108.222s-1.095 25.162-10.579 43.12c0 0-8.576 20.229 4.135 27.014a15.771 15.771 0 0 1 8.25 13.008c.649 10.648 3.632 25.1 15.146 23.825 6.791-.75 10.772-6.123 13.1-12.538 4.422-12.207 13.913-21.17 25.6-24.144a35.923 35.923 0 0 0 22.412-16.762 47.019 47.019 0 0 1 17.615-16.229c11.354-5.894 16.012-21.12 9.468-32.857q-.3-.535-.624-1.076z" fill="#ffbc5a"/><path d="m136.385 63.044s-36.962 7.256-40.023 48.716c-1.526 20.665 13.314 39.275 33.925 41.407q.942.1 1.918.16a38.314 38.314 0 0 0 22.311-5.659 81.3 81.3 0 0 0 11.448-8.371 35.985 35.985 0 0 1 17.483-8.635c7.82-1.383 17.765-5.835 19.463-19.368z" fill="#ffbc5a"/><path d="m239.313 91.137s-11-17-32.788-18.668a43.631 43.631 0 0 1 -32.215-18.334c-9.617-15.889-5.86-30.988-1.722-40.041a66.039 66.039 0 0 0 -50.817 53.335s5.311 2.961 5.881 8.95l113.915 27.007z" fill="#bcbc50"/><path d="m200.733 109.715-64.348-46.671a53.51 53.51 0 0 0 -19.78 9.509c1.822.885 12.793 6.606 17.1 17.92a40.212 40.212 0 0 0 7.408 12.852l.011.012c.065.078.145.15.2.233a61.636 61.636 0 0 1 4.349 7.218c10.992 21.637-11.114 45.4-33.27 35.491l-.323-.146a37.081 37.081 0 0 0 18.2 7.034q.942.1 1.918.16a38.308 38.308 0 0 0 22.311-5.66 81.243 81.243 0 0 0 11.447-8.369 37.356 37.356 0 0 1 17.843-8.7 31.722 31.722 0 0 0 4.9-1.333c.121-.044.241-.087.362-.133q.476-.18.947-.38c.154-.065.307-.133.461-.2.3-.133.6-.269.893-.415.126-.062.251-.129.375-.2.486-.258.968-.524 1.438-.811.253-.154.508-.3.756-.47.21-.14.412-.3.618-.444.234-.168.467-.335.695-.515.2-.155.389-.32.582-.484q.346-.294.681-.605c.181-.168.358-.339.534-.516.234-.236.461-.483.686-.734.153-.171.307-.337.455-.515.278-.335.545-.689.806-1.052.082-.112.169-.216.249-.332.331-.481.643-.989.939-1.517.092-.164.175-.341.263-.51.2-.386.4-.78.582-1.192.1-.216.185-.44.275-.663q.242-.594.453-1.222c.081-.238.16-.477.234-.723.138-.455.259-.928.374-1.409.054-.227.114-.447.162-.68.152-.722.284-1.467.382-2.25z" fill="#e88f36"/><path d="m125.1 50.941a20.272 20.272 0 0 1 9.135-.922 28.626 28.626 0 0 1 19.178 11 54.6 54.6 0 0 0 14.215 12.564 60.407 60.407 0 0 0 33.147 8.791c4.511-.095 9.939-.322 15.113-.827a34.366 34.366 0 0 1 22.245 5.422 26.245 26.245 0 0 0 8.327 3.693 10.837 10.837 0 0 1 8.46 9.57c.74 9.289-1.992 23.3-22.7 29.909a18.126 18.126 0 0 0 -9.028 6.44 12.926 12.926 0 0 1 -17.241 3.232l-.778-.488a13.874 13.874 0 0 1 -6.5-11.056c-.015-.3-.031-.606-.05-.917a19.818 19.818 0 0 0 -17.974-18.424 51.039 51.039 0 0 1 -38.684-23.522 48.918 48.918 0 0 0 -18.3-16.521 9.774 9.774 0 0 1 -4.521-4.7 9.922 9.922 0 0 1 5.956-13.244z" fill="#dde279"/><g fill="#e29866"><path d="m201.847 193.99a4 4 0 0 0 -5.551 1.087l-8.381 12.623-25.71-15.315a4 4 0 1 0 -4.129 6.851l25.378 15.115-17.65 26.31-31.735-18.987 1.52 10.231 25.753 15.408-19.21 28.637 1.747 11.757 59.055-88.166a4 4 0 0 0 -1.087-5.551z"/><path d="m208.189 270.858a4 4 0 0 0 1.362 5.49l7.07 4.139 1.267-8.527-4.209-2.463a4 4 0 0 0 -5.49 1.361z"/><path d="m190.78 301.632a4 4 0 0 0 1.361 5.49l18.87 11.13 1.268-8.539-16.009-9.443a4 4 0 0 0 -5.49 1.362z"/><path d="m223.489 234.263.747-5.03-20.509-12.314a4 4 0 0 0 -4.129 6.851l18.814 11.3-17.871 26.51-18.763-11.307a4 4 0 0 0 -4.129 6.852l18.415 11.1-15.3 22.7-17.243-10.391a4 4 0 0 0 -4.129 6.851l16.9 10.182-20.146 29.887h9.648l56.249-83.454.92-6.195.011-.071.515-3.466z"/><path d="m145.52 216.98a4 4 0 0 0 5.552-1.087l17.247-25.579h-9.649l-14.237 21.114a4 4 0 0 0 1.087 5.552z"/><path d="m168.319 198.165 21.002 14.07 10.242-14.07z"/><path d="m186.838 198.165-3.384 16.187 34.958 20.715 4.713 1.639 6.627-44.605z"/></g></svg>