<svg id="Flat" height="512" viewBox="0 0 340 340" width="512" xmlns="http://www.w3.org/2000/svg"><path d="m312.164 212.141 9.04-5.109a10.468 10.468 0 0 0 5.309-8.785c.508-16.414-.567-29.558-1.032-45.286 0 0-5.726-12.562-5.49-21.2l-102.641-63.694h-132.216c-25.32 21.164-50.612 40.255-75.868 56.611v49.781a13.922 13.922 0 0 0 2.074 7.212 24.444 24.444 0 0 1 1.16 22.285 39.688 39.688 0 0 0 -3.234 16.144v107.949h78.264a14.757 14.757 0 0 0 11.128-4.937 21.9 21.9 0 0 1 17.077-7.473c7.452 0 12.928 3.792 16.58 7.67a14.746 14.746 0 0 0 10.711 4.74h175.589a7.651 7.651 0 0 0 7.651-7.65v-84.144a16.828 16.828 0 0 0 -7.3-13.872l-7.037-4.833a3.192 3.192 0 0 1 .235-5.409z" fill="#d3a1a7"/><path d="m208.885 88.787a15.316 15.316 0 0 0 8.283-2.945l5.973 43.114 54.022 4.415s4.2-11.184 8.487-22.921l-68.3-42.383h-18.231c-1.362 3.3-3.863 11.238.759 16.83a11.007 11.007 0 0 0 9.007 3.89z" fill="#a3646c"/><path d="m274.007 163.387a90.8 90.8 0 0 1 1.8 13.058 68.18 68.18 0 0 0 3.574 17.359c3.972 11.793 5.833 34.194-28.843 48.037 0 0-14.37 4.614-24.585 4.489a40.527 40.527 0 0 0 -8.123.609 54.2 54.2 0 0 0 -35.042 23.212s-21.693 34.566-72.108 16.723-19.826-86.74-19.826-86.74z" fill="#a3646c"/><path d="m325.422 129.67-67.754-38.621-52.194 83.8 11.354 8.392 108.653-30.276c-.209-7.065-.295-14.655-.059-23.295z" fill="#a3646c"/><path d="m201.583 131.76c-16.384.909-43.672 5.807-65.043 26.463a88.383 88.383 0 0 1 -26.559 17.289c-11.041 4.773-24.387 17.156-24.847 49.1 0 0-2.6 55.058 43.681 57.175 0 0 29.041 2.118 44.167-15.731 13.81-16.3 28.795-28.305 55.86-30.27a44.543 44.543 0 0 0 37.34-25.646c.122-.266.243-.534.363-.806a21.417 21.417 0 0 0 .389-16.34 21.711 21.711 0 0 1 -1.421-8.235 52.8 52.8 0 0 0 -1.8-14.584s-14.31-23.584-34.349-31.741c-9.817-4.003-27.781-6.674-27.781-6.674z" fill="#f9e8de"/><path d="m232.628 136.7c-.908-.37-1.825-.711-2.746-1.039l-24.408 39.187 11.354 8.392 46.889-13.066c-3.066-11.383-11.05-25.319-31.089-33.474z" fill="#d1bcb0"/><path d="m234.128 80.608s3.226 13.488-14.661 32.255-31.667 24.337-32.841 70.374h27.356s2.4-24.216 22.929-34.772 30.909-25.5 34.721-37.523z" fill="#fff"/><path d="m274.007 112.863-18.665-15.1c-3.7 12.118-12.766 24.712-34.7 40.663-19.564 14.225-21.061 36.067-20.8 44.807h16.988s.879-22.285 21.405-32.842 31.965-25.506 35.772-37.528z" fill="#96aef4"/><path d="m138.93 244.892-8.342-8.343 8.342-8.342-9.353-9.354-8.343 8.343-8.343-8.343-9.353 9.354 8.342 8.342-8.342 8.343 9.354 9.354 8.342-8.343 8.343 8.343z" fill="#e54c5b"/><path d="m180.314 228.928a3.507 3.507 0 0 1 -.406-.024l-.835-.1a20.193 20.193 0 0 1 -8.145-2.9 3.5 3.5 0 0 1 3.72-5.93 13.163 13.163 0 0 0 5.3 1.89l.762.092a3.5 3.5 0 0 1 -.4 6.977zm14.838-1.034a3.5 3.5 0 0 1 -1.134-6.812 15.168 15.168 0 0 0 5.565-3.292 3.5 3.5 0 0 1 4.781 5.113 22.315 22.315 0 0 1 -8.078 4.8 3.487 3.487 0 0 1 -1.134.191zm-30.489-13.6a3.5 3.5 0 0 1 -3.4-2.7 35.537 35.537 0 0 1 -.884-8.106c0-.219 0-.457.006-.7a3.5 3.5 0 0 1 3.5-3.435h.065a3.5 3.5 0 0 1 3.435 3.564v.552a28.5 28.5 0 0 0 .7 6.518 3.5 3.5 0 0 1 -2.605 4.209 3.536 3.536 0 0 1 -.817.104zm44.177-3.521a3.5 3.5 0 0 1 -3.411-4.3 49.409 49.409 0 0 0 1.093-7.373 3.5 3.5 0 1 1 6.979.54 56.2 56.2 0 0 1 -1.256 8.428 3.5 3.5 0 0 1 -3.405 2.707zm-85.965-3.173a3.493 3.493 0 0 1 -3.471-3.1 21.014 21.014 0 0 1 -.1-2.194 29.871 29.871 0 0 1 .833-6.977 3.5 3.5 0 0 1 6.8 1.662 22.789 22.789 0 0 0 -.633 5.315c0 .876.055 1.409.055 1.415a3.5 3.5 0 0 1 -3.1 3.855 3.635 3.635 0 0 1 -.384.024zm36.754-15.426a3.5 3.5 0 0 1 -2.939-1.594 12.263 12.263 0 0 0 -2.295-2.72 14.894 14.894 0 0 0 -2.25-1.545 3.5 3.5 0 0 1 3.418-6.108 21.766 21.766 0 0 1 3.309 2.272 18.994 18.994 0 0 1 3.689 4.288 3.5 3.5 0 0 1 -2.932 5.407zm-27.713-4.474a3.5 3.5 0 0 1 -1.866-6.463 26.189 26.189 0 0 1 8.548-3.408 3.5 3.5 0 0 1 1.418 6.855 19.116 19.116 0 0 0 -6.24 2.478 3.484 3.484 0 0 1 -1.86.538z" fill="#333353"/><path d="m241.64 130.894 19.209-1.01a55.815 55.815 0 0 0 10.783-18.942l-37.5-30.334s1.8 7.537-4.76 19.179z" fill="#96aef4"/><path d="m250.15 79.844 36-47.09 27.024 22.046-36.649 45.523a43.306 43.306 0 0 1 -26.375-20.479z" fill="#5b5b81"/><path d="m276.435 45.46 5.193 10a11.76 11.76 0 0 1 -.992 12.428l-18.751 25.267a40.7 40.7 0 0 0 14.64 7.169l36.649-45.524-27.025-22.046z" fill="#333353"/><path d="m219.838 54.607 84.5 61.947a13.52 13.52 0 0 1 13.628-3.291c3.266.988 3.791 3.893 5.346 6.93l-3.319 11.567c-7.063 7.491-14.453 3.61-20 0a88.161 88.161 0 0 0 -11.249-6.254l-30.592-13.792c-2.473-1.154-7.623-3.145-7.623-3.145a30.689 30.689 0 0 1 -4.561-4.788l-12.897-16.847a67.673 67.673 0 0 0 -15.147-14.463l-1.075-.747s-6.854 7.017-15 5.242a12.309 12.309 0 0 1 -9.575-11.87c-.026-3.5 1.3-7.755 6.1-11.848 9.237-7.879 21.464 1.359 21.464 1.359z" fill="#ffb664"/><path d="m317.813 110.842c-8.373-2.534-13.477 5.712-13.477 5.712l-39.657-20.387a4.9 4.9 0 0 0 -6.2 1.475l-7.944 10.917a30.715 30.715 0 0 0 6.831 4.387l30.334 14.154a95.939 95.939 0 0 1 11.707 6.575c5.55 3.61 15.548 8.224 22.611.732 6.551-6.948 5.327-13.254 3.362-17.13a12.7 12.7 0 0 0 -7.567-6.435z" fill="#e87b40"/><path d="m283.144 39.8 5.678 7.293a24.115 24.115 0 0 0 11.985 8.251l8.845 2.7a8.366 8.366 0 0 0 9.131-2.97l10.027-13.317a9.557 9.557 0 0 0 -.794-12.428 76.789 76.789 0 0 0 -23.339-16.589 9.493 9.493 0 0 0 -11.159 2.743c-2.793 3.434-6.634 8.422-10.734 14.538a8.351 8.351 0 0 0 .36 9.779z" fill="#ffb664"/><path d="m318.783 55.075 10.027-13.318a9.553 9.553 0 0 0 1.05-9.734l-13.994-3.935a7.126 7.126 0 0 0 -7.713 2.7l-14.872 20.684a24.112 24.112 0 0 0 7.526 3.869l8.845 2.7a8.368 8.368 0 0 0 9.131-2.966z" fill="#e87b40"/><path d="m231.646 260.932s12.589 17.119-9.384 24.934c-13.228 4.7-20.245-.39-23.735-5.191a9.223 9.223 0 0 1 4.954-14.252 32.009 32.009 0 0 1 4.331-.881z" fill="#a3646c"/><path d="m200.6 266.134a41.894 41.894 0 0 1 14.611-9.367 15.168 15.168 0 0 1 14.213 2.025l.176.127a9.514 9.514 0 0 1 1.6 14.027c-5.069 5.657-14.067 10.669-28.725 4.05a6.692 6.692 0 0 1 -1.875-10.862z" fill="#f9e8de"/><g fill="#a3646c"><path d="m67.1 179.455a11.974 11.974 0 0 1 -6.911-2.037 6.774 6.774 0 0 0 -7.649 0 12.731 12.731 0 0 1 -13.817 0 6.207 6.207 0 0 0 -3.82-1.182 3 3 0 1 1 0-6 11.959 11.959 0 0 1 6.907 2.037 6.765 6.765 0 0 0 7.644 0 12.74 12.74 0 0 1 13.821 0 6.223 6.223 0 0 0 3.825 1.183 3 3 0 0 1 0 6z"/><path d="m67.1 194.172a11.966 11.966 0 0 1 -6.911-2.037 6.778 6.778 0 0 0 -7.649 0 11.965 11.965 0 0 1 -6.91 2.037 11.952 11.952 0 0 1 -6.907-2.037 6.207 6.207 0 0 0 -3.82-1.182 3 3 0 1 1 0-6 11.959 11.959 0 0 1 6.907 2.037 6.77 6.77 0 0 0 7.644 0 12.74 12.74 0 0 1 13.821 0 6.222 6.222 0 0 0 3.825 1.182 3 3 0 0 1 0 6z"/><path d="m150.755 104.934a11.968 11.968 0 0 1 -6.91-2.037 6.774 6.774 0 0 0 -7.649 0 12.733 12.733 0 0 1 -13.818 0 6.206 6.206 0 0 0 -3.819-1.182 3 3 0 0 1 0-6 11.967 11.967 0 0 1 6.907 2.037 6.765 6.765 0 0 0 7.644 0 12.74 12.74 0 0 1 13.821 0 6.217 6.217 0 0 0 3.824 1.183 3 3 0 0 1 0 6z"/><path d="m150.755 119.651a11.96 11.96 0 0 1 -6.91-2.037 6.778 6.778 0 0 0 -7.649 0 12.735 12.735 0 0 1 -13.818 0 6.206 6.206 0 0 0 -3.819-1.182 3 3 0 0 1 0-6 11.967 11.967 0 0 1 6.907 2.037 6.77 6.77 0 0 0 7.644 0 12.74 12.74 0 0 1 13.821 0 6.217 6.217 0 0 0 3.824 1.182 3 3 0 0 1 0 6z"/><path d="m299.367 255.434a11.97 11.97 0 0 1 -6.91-2.037 6.772 6.772 0 0 0 -7.648 0 12.734 12.734 0 0 1 -13.819 0 6.2 6.2 0 0 0 -3.819-1.182 3 3 0 0 1 0-6 11.964 11.964 0 0 1 6.907 2.037 6.767 6.767 0 0 0 7.645 0 12.739 12.739 0 0 1 13.82 0 6.22 6.22 0 0 0 3.824 1.183 3 3 0 0 1 0 6z"/><path d="m299.367 270.151a11.963 11.963 0 0 1 -6.91-2.037 6.777 6.777 0 0 0 -7.648 0 12.737 12.737 0 0 1 -13.819 0 6.2 6.2 0 0 0 -3.819-1.182 3 3 0 0 1 0-6 11.964 11.964 0 0 1 6.907 2.037 6.772 6.772 0 0 0 7.645 0 12.739 12.739 0 0 1 13.82 0 6.219 6.219 0 0 0 3.824 1.182 3 3 0 0 1 0 6z"/><path d="m198.881 299.328a11.971 11.971 0 0 1 -6.91-2.036 6.778 6.778 0 0 0 -7.65 0 12.734 12.734 0 0 1 -13.817 0 6.207 6.207 0 0 0 -3.82-1.182 3 3 0 0 1 0-6 11.96 11.96 0 0 1 6.908 2.038 6.771 6.771 0 0 0 7.643 0 12.742 12.742 0 0 1 13.822 0 6.217 6.217 0 0 0 3.824 1.182 3 3 0 0 1 0 6z"/><path d="m198.881 314.046a11.96 11.96 0 0 1 -6.91-2.037 6.78 6.78 0 0 0 -7.65 0 12.734 12.734 0 0 1 -13.817 0 6.207 6.207 0 0 0 -3.82-1.182 3 3 0 1 1 0-6 11.965 11.965 0 0 1 6.908 2.037 6.769 6.769 0 0 0 7.643 0 12.742 12.742 0 0 1 13.822 0 6.217 6.217 0 0 0 3.824 1.182 3 3 0 1 1 0 6z"/><path d="m44.751 249.328s-15.547 1.946-15.772 18.66 5.567 27.125 13.97 35.074c10.364 9.805 27.151 10.038 27.151 10.038s22.441-.028 18.825-18.38c0-.001-36.963-3.033-44.174-45.392z"/></g><path d="m54.591 240.406c6.131.5 11.022 5.311 11.3 11.142.5 10.557 3.583 26.669 16.757 35.168 10.327 6.663 6.31 11.16-.288 13.99-9.869 4.234-21.586 2.617-30.508-3.69-12.255-8.664-25.176-25.1-8.111-51.533a11.7 11.7 0 0 1 10.85-5.077z" fill="#f9e8de"/><path d="m9.266 140.5 70.575-1.621a16.437 16.437 0 0 0 15.728-19.723l-10.435-51.089c-25.32 21.164-50.612 40.255-75.868 56.611z" fill="#a3646c"/><path d="m9.266 124.678v6.216l63.965-2.216c6.574 0 13.534-5.19 11.9-15.9v-44.711z" fill="#f9e8de"/></svg>