<svg id="Flat" height="512" viewBox="0 0 340 340" width="512" xmlns="http://www.w3.org/2000/svg"><path d="m66.593 70.281c-5.808.886-13.045 4.179-17.65 14.155l-18.96 22.273 77.2 29.227 160.672-2.6c33.73 4.318 47.9-6.98 45.707-31.35a21.283 21.283 0 0 0 -11.758-8.47c-.428-.124-.864-.244-1.311-.357 0 0 21.447-33.807-53.8-45.076 0 0-10.178-23.265-41.8-16.358 0 0-5.792-25.9-67.191-11.05a66.141 66.141 0 0 0 -20.826 8.9c-6.625 4.356-13.584 10.719-16.311 19.239 0 0-15.445-1.832-22.121 12.5a15.791 15.791 0 0 1 -11.851 8.967z" fill="#80a2a5"/><path d="m22.771 105.52s-5.09 23.265 34.533 21.811c0 0-9.451 23.265 75.611 20.72 0 0 79.609-4.726 111.234 2.181a20.024 20.024 0 0 0 14.263-3.527 32.4 32.4 0 0 1 19.83-5.49c9.055.344 21.241-1.169 31.183-9.443a22.358 22.358 0 0 0 4.13-29.779c-5.255 23.7-29.307 23.592-29.307 23.592-58.088 14.015-58.088-14.532-58.088-14.532-24.161-10.8-47.435 4.838-47.435 4.838l-52.292-9.182c-23.558 20.027-43.033 11.584-52.333 5.026a29.356 29.356 0 0 0 -13.845-5.159c-22.106-2.363-11.311-22.14-11.311-22.14s-22.902-.727-26.173 21.084z" fill="#5c797c"/><g fill="#474756"><path d="m136.291 109.391a141.164 141.164 0 0 0 -25.185 1.486c-25.466 3.438-30.974-12.611-31.214-13.355a3.5 3.5 0 0 0 -6.692 2.061c.062.206 6.037 18.774 31.109 18.774a57.845 57.845 0 0 0 7.729-.542 134.9 134.9 0 0 1 23.905-1.433 3.5 3.5 0 1 0 .345-6.991z"/><path d="m165.58 70.088c-4.607 4.467-10.8 6.792-18.406 6.908-10.581.162-23.626 4.512-28.508 16.237a3.5 3.5 0 1 0 6.463 2.69c4.622-11.1 19.264-11.883 22.153-11.928 9.313-.142 17.326-3.214 23.171-8.882a3.5 3.5 0 1 0 -4.873-5.025z"/><path d="m218.833 115.167a3.5 3.5 0 0 0 2.677 4.163 3.541 3.541 0 0 0 .746.081 3.5 3.5 0 0 0 3.417-2.759c2.32-10.68-1.907-17.344-12.563-19.809-12.823-2.967-12.6-12.238-12.527-13.314a3.5 3.5 0 0 0 -6.976-.577c-.486 5.617 2.634 17.173 17.925 20.711 5.105 1.181 9.178 2.861 7.301 11.504z"/><path d="m268.215 83.766a3.506 3.506 0 0 0 -3.776 3.2q-.056.671-.131 1.321a3.5 3.5 0 0 0 3.079 3.875 3.671 3.671 0 0 0 .4.023 3.5 3.5 0 0 0 3.473-3.1c.058-.506.11-1.018.152-1.54a3.5 3.5 0 0 0 -3.197-3.779z"/><path d="m264.334 101.332a3.5 3.5 0 0 0 -4.865.911c-5.02 7.333-12.862 10.086-18.557 11.1-4.98.89-16.641 2.974-23.628 12.087a3.5 3.5 0 1 0 5.554 4.26c5.336-6.959 14.771-8.645 19.306-9.456 7.011-1.253 16.711-4.706 23.1-14.04a3.5 3.5 0 0 0 -.91-4.862z"/></g><path d="m233.034 90.777c3.533 17.706-.5 46.706-48.786 73.139l17.209-33.093s21.593-10.184 23.063-40.072c.232-4.722 7.589-4.61 8.514.026z" fill="#6d455a"/><path d="m145.273 211.29s-.279-8.444-8.854-19.883c-.731-.975-1.513-1.914-2.29-2.854-2.742-3.313-14.562-19.836 11.188-31.739 12.384-5.725 21-9.723 27.21-13.128a12.492 12.492 0 0 0 -1.792-22.717 74.032 74.032 0 0 0 -28.413-4.016s-44.438 2.579-33.366-33.7a36.266 36.266 0 0 1 1.633-4.336c4.281-9.482 18.918-3.761 15.515 6.07a17.5 17.5 0 0 1 -.761 1.849s-8.094 16.461 22.145 13.729c0 0 22.376-.215 43.435 8.8a25.808 25.808 0 0 1 8.608 41.382 92.977 92.977 0 0 1 -15.283 13.166s-17.314 10.061-.985 21.024c11.731 7.878 15.6 28.413 15.6 28.413z" fill="#b5798d"/><path d="m183.263 184.94c-4.684-3.144-6.592-6.213-6.942-8.994-5.44-3.187-10.668-7.57-8.883-12.03 2.541-6.351 7.449-9.22 11.013-11.367a.6.6 0 0 0 -.49-1.076c-5.65 1.855-16.323 6.255-19.85 13.877-5.328 11.511 23.456 23.024 31.18 25.448a25.752 25.752 0 0 0 -6.028-5.858z" fill="#6d455a"/><path d="m128.61 207.724h-32.016l23.442 108.257a10.064 10.064 0 0 0 9.836 7.935h12.45a1162.761 1162.761 0 0 0 -13.712-116.192z" fill="#aac3d6"/><path d="m128.61 207.724 13.712 116.192h61.142a10.065 10.065 0 0 0 9.963-8.637l15.413-107.555z" fill="#e1ecfe"/></svg>