<svg id="icons" height="512" viewBox="0 0 340 340" width="512" xmlns="http://www.w3.org/2000/svg"><path d="m97.175 280.365-18.051-13.265 14.376-10.88a3.628 3.628 0 0 0 2.027-4.523 3.5 3.5 0 0 0 -4.692-1.953l-19.386 13.106h-30.318a521.458 521.458 0 0 0 7.729-71.194l.269-11.379h6.646a8.859 8.859 0 0 1 4.246 1.084l31.513 17.2a3.5 3.5 0 0 0 4.98-1.911 3.587 3.587 0 0 0 -1.741-4.3l-22.125-12.073h21.818a3.557 3.557 0 0 0 3.518-2.77 3.5 3.5 0 0 0 -3.426-4.23h-19.641c.352-.242.7-.486 1.065-.74l16.753-11.051a3.558 3.558 0 0 0 1.411-4.252 3.5 3.5 0 0 0 -5.189-1.642l-16.875 11.132c-.03.02-.061.04-.091.062-6.963 4.914-10.9 6.491-16.216 6.491h-6.54a546.657 546.657 0 0 0 -10.955-108.677h14.162c3.357 0 5.923 1.172 9.22 3.193.784.48 1.548 1 2.27 1.545l21.6 16.288a3.5 3.5 0 1 0 4.215-5.59l-20.471-15.436h19.024a3.556 3.556 0 0 0 3.518-2.77 3.5 3.5 0 0 0 -3.426-4.23h-24.518l23.693-16a3.5 3.5 0 0 0 -3.918-5.8l-28.578 19.3a14.613 14.613 0 0 1 -8.18 2.5h-10.07c-5.467-25.4-11.373-37.832-11.485-38.16a3.5 3.5 0 0 0 -6.622 2.27c.238.7 24.3 58.091 23.5 154.974v.011l-.348 14.751c-1.321 36.093-7.906 88.135-22.427 125.95a3.5 3.5 0 1 0 6.535 2.509c5.8-15.1 10.353-32.4 13.835-50.055h31.235l22.117 16.25a3.5 3.5 0 0 0 5.12-1.1 3.611 3.611 0 0 0 -1.106-4.635z" fill="#373d4c"/><path d="m18.44 10h.17a8.44 8.44 0 0 1 8.44 8.44v308.34a3.22 3.22 0 0 1 -3.22 3.22h-10.61a3.22 3.22 0 0 1 -3.22-3.22v-308.34a8.44 8.44 0 0 1 8.44-8.44z" fill="#ff9483"/><path d="m82.992 33.173v48.148a10.1 10.1 0 0 0 6.682 9.446c17.006 6.276 66.156 20.025 143.726 6.171 0 0 49.308-8.935 93.643-2.031 0 0 7.872-14.621-2.072-34.522 0 0 8.287-18.277.829-36.147 0 0-22.375 13.809-87.842 4.873 0 0-53.5-15.248-102.766-1.97a134.446 134.446 0 0 1 -18.68 3.632 294.379 294.379 0 0 1 -33.52 2.4z" fill="#e9ebfc"/><path d="m262.78 74.134c13.508 2.955 24.48 5.024 33.976 6.015 0 0 17.185-.256 27.275-3.372-.356-5.02-.367-9.046-3.587-15.489a38.937 38.937 0 0 0 1.305-32.773l-25.391 2.818c-13.67 1.289-32.72 1.283-58.4-2.222 0 0-53.5-15.248-102.766-1.97a134.446 134.446 0 0 1 -18.68 3.632c-3.708.453-8.037.931-12.624 1.34v28.787a16.3 16.3 0 0 0 9.032 14.644c7.468 3.683 21.014 6.1 45.478 1.718 0 0 22.326 17.621 42.333 5.4a19.03 19.03 0 0 0 -9.431-11.086s36.4-5.115 71.48 2.558z" fill="#f96990"/><path d="m327.085 65.228-30.329 14.917s-.959 8.166-10.23 12.165a249.04 249.04 0 0 1 40.517 2.6s6.608-12.299.042-29.682z" fill="#acb9d4"/><g fill="#c12140"><path d="m329.892 77.732a45.878 45.878 0 0 0 -4.921-17.347s8.287-18.277.829-36.147c0 0-8.266 5.1-29.442 7.095.7 5.19 1.1 14.993-4.364 21.381 0 0 7.825 11.019 4.762 27.431 12.88 1.342 23.044.703 33.136-2.413z"/><ellipse cx="131.163" cy="47.255" rx="6.633" ry="6.502"/><path d="m188.078 41.955a4.8 4.8 0 0 0 -.778 3.252c.227 1.146 1.175 1.845 1.963 2.708 2.109 2.309 6.27 7.589 2.04 23.661 0 0 3.712-.245 8.532-.668 2.874-7.85 4.332-15.6-1.343-24.473a4.153 4.153 0 0 1 -.537-3.369c1.776-6.237 1.162-16.663-.925-20.669-2.725-.21-5.538-.379-8.422-.5 1.467 4.989 2.815 14.027-.53 20.058z"/><path d="m222.6 69.913a29.954 29.954 0 0 0 .2-19.623 6.957 6.957 0 0 1 .524-5.482c3.29-6.113 2.834-13 1.111-18.753-2.726-.52-5.8-1.058-9.175-1.57 2.166 4.6 4.944 13.333-1.2 19.486a4 4 0 0 0 -.535 4.991 22.273 22.273 0 0 1 .321 21.063c2.714-.087 5.642-.133 8.754-.112z"/><path d="m165.366 81.607c2.581-3.993 2.02-9.789 1.56-13.464a5.862 5.862 0 0 1 .919-3.859c4.724-7.461 2.916-16.252 1.223-21.214a5.778 5.778 0 0 1 .059-3.929 27.722 27.722 0 0 0 1.125-17.218q-2 .092-4.015.226l-.094.006q-2.026.138-4.068.319c1.191 3.336 2.137 9.281-1.717 16.684a4 4 0 0 0 0 3.69c.062.119 6.1 11.993-.759 19.034a4 4 0 0 0 -1.06 3.57 28.883 28.883 0 0 1 -.137 11.809 48.685 48.685 0 0 0 6.964 4.346z"/><path d="m240.75 45.079a4.015 4.015 0 0 0 -.319 4.291c.066.123 6.358 12.138.76 21.46 2.765.259 5.584.578 8.448.975 3.359-8.1 1.565-16.515-.188-21.572a6.773 6.773 0 0 1 0-4.612c1.843-4.876 1.826-10.545 1.351-14.986q-3.976-.4-8.2-.922c.684 4.849.898 11.687-1.852 15.366z"/><path d="m272.1 76.107a34.28 34.28 0 0 0 1.983-22.954 7.221 7.221 0 0 1 .205-4.3c2.027-5.8 1.467-12.1.482-16.766q-3.961-.064-8.286-.273c1.167 4.35 2.334 11.633-.9 16.838a4 4 0 0 0 -.147 3.97c.049.1 4.8 9.467-1.36 21.789q4.16.908 8.023 1.696z"/></g><path d="m87.57 153.466v40.739a8.548 8.548 0 0 0 5.653 7.993c14.39 5.311 55.977 16.944 121.612 5.222 0 0 41.721-7.561 79.234-1.718 0 0 6.662-12.372-1.753-29.211 0 0 7.012-15.465.7-30.586 0 0-18.933 11.685-74.326 4.124 0 0-45.268-12.9-86.955-1.667a113.68 113.68 0 0 1 -15.8 3.073 248.942 248.942 0 0 1 -28.365 2.031z" fill="#e9ebfc"/><path d="m239.694 188.125a269.815 269.815 0 0 0 28.748 5.089s12.63-.3 21.168-2.933c-.3-4.247-3.822-8.459-6.546-13.911 0 0 9.772-7.909 3.462-23.03l-18.42-1.43c-11.567 1.09-27.685 1.09-49.414-1.881 0 0-45.268-12.9-86.955-1.667a113.68 113.68 0 0 1 -15.8 3.073c-3.138.384-6.8.788-10.682 1.134v24.357a13.8 13.8 0 0 0 7.642 12.391c6.32 3.116 17.781 5.163 38.481 1.453 0 0 18.891 14.91 35.819 4.569a16.1 16.1 0 0 0 -7.977-9.378s30.789-4.329 60.474 2.164z" fill="#90abe2"/><path d="m294.106 180.589-25.663 12.622s-.812 6.909-8.656 10.293a210.621 210.621 0 0 1 34.282 2.2s5.592-10.404.037-25.115z" fill="#acb9d4"/><path d="m296.481 191.169a38.83 38.83 0 0 0 -4.165-14.678s7.012-15.465.7-30.586c0 0-6.994 4.315-24.912 6 .591 4.392.928 12.686-3.692 18.091 0 0 6.621 9.324 4.029 23.211 10.9 1.14 19.503.598 28.04-2.038z" fill="#4b64aa"/><ellipse cx="125.043" cy="163.861" fill="#4b64aa" rx="5.149" ry="5.047"/><path d="m176.486 160.9a4.061 4.061 0 0 0 -.658 2.752c.192.969.994 1.561 1.661 2.29 1.785 1.954 5.305 6.422 1.726 20.022 0 0 3.141-.208 7.219-.566 2.432-6.642 3.666-13.2-1.136-20.708a3.517 3.517 0 0 1 -.455-2.85c1.5-5.278.984-14.1-.782-17.489-2.306-.178-4.686-.321-7.126-.421 1.241 4.216 2.382 11.863-.449 16.97z" fill="#4b64aa"/><path d="m205.7 184.553a25.343 25.343 0 0 0 .172-16.6 5.88 5.88 0 0 1 .444-4.638c2.784-5.172 2.4-11 .94-15.868-2.307-.44-4.908-.9-7.763-1.328 1.832 3.9 4.182 11.282-1.019 16.488a3.386 3.386 0 0 0 -.452 4.223 18.845 18.845 0 0 1 .271 17.822c2.293-.078 4.77-.116 7.407-.099z" fill="#4b64aa"/><path d="m157.269 194.448c2.184-3.378 1.709-8.283 1.32-11.392a4.955 4.955 0 0 1 .778-3.265c4-6.314 2.467-13.752 1.034-17.951a4.886 4.886 0 0 1 .05-3.324 23.449 23.449 0 0 0 .952-14.569q-1.689.076-3.4.191l-.08.006q-1.713.115-3.441.269c1.007 2.823 1.808 7.854-1.453 14.117a3.385 3.385 0 0 0 0 3.122c.053.1 5.165 10.148-.642 16.106a3.384 3.384 0 0 0 -.9 3.021 24.44 24.44 0 0 1 -.116 9.991 41.093 41.093 0 0 0 5.898 3.678z" fill="#4b64aa"/><path d="m221.054 163.54a3.4 3.4 0 0 0 -.27 3.631c.056.1 5.38 10.27.643 18.158 2.34.219 4.725.489 7.148.825 2.842-6.85 1.324-13.974-.159-18.253a5.73 5.73 0 0 1 0-3.9c1.559-4.126 1.544-8.923 1.143-12.68q-3.366-.339-6.942-.781c.583 4.102.762 9.89-1.563 13z" fill="#4b64aa"/><path d="m247.576 189.794a29.009 29.009 0 0 0 1.678-19.422 6.1 6.1 0 0 1 .174-3.637c1.715-4.9 1.24-10.235.407-14.186q-3.353-.054-7.011-.231c.987 3.68 1.975 9.843-.765 14.247a3.381 3.381 0 0 0 -.125 3.359c.042.081 4.065 8.011-1.151 18.437q3.53.767 6.793 1.433z" fill="#4b64aa"/><path d="m90.3 247.927v33.939a7.12 7.12 0 0 0 4.709 6.658c11.988 4.425 46.633 14.115 101.31 4.35 0 0 34.756-6.3 66.007-1.431 0 0 5.549-10.307-1.46-24.335 0 0 5.841-12.882.584-25.479 0 0-15.772 9.734-61.918 3.435 0 0-37.71-10.748-72.438-1.388a94.917 94.917 0 0 1 -13.167 2.56 207.485 207.485 0 0 1 -23.627 1.691z" fill="#e9ebfc"/><path d="m217.032 276.8a224.619 224.619 0 0 0 23.948 4.24s12.472-.653 19.584-2.849c-.251-3.538-4.808-6.461-7.078-11 0 0 7.174-7.62 1.917-20.217l-14.7-.34c-9.635.908-23.063.9-41.165-1.567 0 0-37.71-10.748-72.438-1.388a94.917 94.917 0 0 1 -13.167 2.56c-2.614.319-5.665.656-8.9.944v20.291a11.492 11.492 0 0 0 6.367 10.322c5.264 2.6 14.812 4.3 32.057 1.211 0 0 15.737 12.421 29.839 3.806a13.411 13.411 0 0 0 -6.647-7.813s25.651-3.609 50.383 1.8z" fill="#afd182"/><path d="m262.359 270.522-21.378 10.515a11.6 11.6 0 0 1 -7.211 8.575 175.4 175.4 0 0 1 28.559 1.831s4.658-8.667.03-20.921z" fill="#acb9d4"/><path d="m264.338 279.336a32.357 32.357 0 0 0 -3.469-12.228s5.841-12.882.584-25.479c0 0-5.826 3.594-20.753 5 .493 3.659.773 10.569-3.076 15.071a26.8 26.8 0 0 1 3.357 19.336c9.078.947 16.245.497 23.357-1.7z" fill="#76933e"/><ellipse cx="122.743" cy="256.932" fill="#76933e" rx="4.184" ry="4.101"/><path d="m164.376 254.118a3.376 3.376 0 0 0 -.549 2.292c.16.808.828 1.3 1.384 1.909 1.487 1.627 4.42 5.349 1.438 16.678 0 0 2.617-.173 6.014-.471 2.025-5.533 3.054-11-.947-17.251a2.931 2.931 0 0 1 -.379-2.374c1.253-4.4.82-11.746-.651-14.569-1.921-.148-3.9-.268-5.937-.351 1.034 3.519 1.985 9.885-.373 14.137z" fill="#76933e"/><path d="m188.709 273.825a21.116 21.116 0 0 0 .144-13.832 4.9 4.9 0 0 1 .369-3.864c2.319-4.309 2-9.167.783-13.219-1.921-.367-4.088-.745-6.467-1.107 1.527 3.246 3.484 9.4-.848 13.736a2.82 2.82 0 0 0 -.377 3.518 15.7 15.7 0 0 1 .226 14.847c1.913-.062 3.977-.094 6.17-.079z" fill="#76933e"/><path d="m148.366 282.068c1.82-2.815 1.424-6.9 1.1-9.491a4.135 4.135 0 0 1 .648-2.72c3.33-5.259 2.055-11.456.862-14.953a4.069 4.069 0 0 1 .041-2.77 19.538 19.538 0 0 0 .793-12.134q-1.408.064-2.83.16h-.067q-1.427.1-2.867.225c.839 2.352 1.506 6.542-1.21 11.76a2.821 2.821 0 0 0 0 2.6c.043.084 4.3 8.454-.536 13.417a2.821 2.821 0 0 0 -.747 2.516 20.358 20.358 0 0 1 -.1 8.324 34.281 34.281 0 0 0 4.913 3.066z" fill="#76933e"/><path d="m201.5 256.319a2.832 2.832 0 0 0 -.225 3.025c.047.087 4.482 8.556.536 15.127 1.949.183 3.936.407 5.955.687 2.367-5.706 1.1-11.64-.133-15.205a4.778 4.778 0 0 1 0-3.251 23.713 23.713 0 0 0 .952-10.563q-2.8-.282-5.783-.651c.489 3.419.638 8.241-1.302 10.831z" fill="#76933e"/><path d="m223.6 278.191a24.157 24.157 0 0 0 1.4-16.18 5.092 5.092 0 0 1 .145-3.03 22.514 22.514 0 0 0 .339-11.818q-2.792-.045-5.84-.192c.822 3.066 1.645 8.2-.638 11.869a2.819 2.819 0 0 0 -.1 2.8c.035.068 3.387 6.673-.958 15.359q2.931.636 5.652 1.192z" fill="#76933e"/></svg>