<svg id="FLAT" height="512" viewBox="0 0 500 500" width="512" xmlns="http://www.w3.org/2000/svg"><path d="m26.855 247.31c15.3-28.079 43.219-73.785 74.731-98.91h99.324s28.687 25.565 40.415 94.323v84.254h-225.84l-.554-31.083a97.9 97.9 0 0 1 11.924-48.584z" fill="#d5c963"/><path d="m64.978 187.421s16.59-17.086 44.158-22.757a21.741 21.741 0 0 1 16.746 3.49l11.647 8.077a21.9 21.9 0 0 0 25.665-.5l15.126-11.4a21.9 21.9 0 0 1 20.9-3.006l16.177 6.2s-12.682-33.084-36.386-56.047a34.882 34.882 0 0 0 -45.685-2.2c-18.814 14.679-46.594 40.513-68.348 78.143z" fill="#968c42"/><path d="m155.33 290.208h85.995v-47.485c-10.269-60.2-33.536-87.289-39.17-93.1-17.102 24.828-46.879 77.169-46.825 140.585z" fill="#968c42"/><path d="m464.171 181.654c-22.123-34.424-47.032-71.834-47.032-71.834l-26.434-16.62-111.778-2.261-32.476 38.518s-62.994 114.2-76.994 163.537c0 0 10 34 74 34h241.627v-74.155a131.666 131.666 0 0 0 -20.913-71.185z" fill="#d5c963"/><path d="m215 360.177c10.6 4.839 21.714 9.167 32.5 13.276 36.138 13.765 50.571 50.841 31.99 80.311a111.544 111.544 0 0 1 -12.409 16.191h167.824s2.7-90.531-124.115-129.384c-56.06-17.176-87.85-28.315-104.78-40.718-26.083 2.131-30.37 36.11 8.99 60.324z" fill="#94aadf"/><path d="m141.627 405.876-40.615-63.186h27.719l-45.793-71.241-45.793 71.241h27.719l-40.615 63.186z" fill="#5d7c46"/><path d="m465.632 299.385-40.616-63.186h27.72l-45.793-71.241-45.793 71.241h27.719l-40.615 63.186z" fill="#5d7c46"/><path d="m246.451 129.457s10.533-10.982 31.5-19.148a31.408 31.408 0 0 1 28.349 2.831 31.381 31.381 0 0 0 34.229-.213l.118-.078a31.532 31.532 0 0 1 32.973-.975c11.51 6.54 28.119 11.2 43.516-2.054 0 0-32.2-46.511-64.644-73.1a29.8 29.8 0 0 0 -39.023 1.245c-17.745 16.32-45.114 46.284-67.018 91.492z" fill="#968c42"/><path d="m424.05 260.394a5.5 5.5 0 0 0 -7.756.591l-3.852 4.486v-36.579a5.5 5.5 0 0 0 -11 0v129.265a5.5 5.5 0 0 0 11 0v-62.993a34.6 34.6 0 0 1 8.343-22.525l3.855-4.489a5.5 5.5 0 0 0 -.59-7.756z" fill="#8e3329"/><path d="m82.4 315.155a5.659 5.659 0 0 0 -4.958 5.711v49.434l-2.864-3.435a5.66 5.66 0 0 0 -7.466-1.213 5.5 5.5 0 0 0 -1.136 8.073l3.963 4.755a32.444 32.444 0 0 1 7.5 20.724v65.251a5.5 5.5 0 0 0 5.5 5.5 5.5 5.5 0 0 0 5.5-5.5v-143.826a5.5 5.5 0 0 0 -6.039-5.474z" fill="#8e3329"/><g fill="#5c73b4"><path d="m198.327 311.647a33.975 33.975 0 0 1 7.688-11.8c-21.36-15.653-19.068-33.32-12.016-67.675 0 0-46.114 20.831-37.639 71.029 4.516 26.75 29.694 43.761 58.64 56.971-13.323-12.972-23.8-30.007-16.673-48.525z"/><path d="m323.745 469.955c8.679-21.828 9.455-41.937 2.267-60-16.357-41.108-67.819-56.225-72.023-57.4-15.98-5.592-55.5-23.032-65.569-42.292-2.392 4.373-3.126 9.815-1.9 15.754q10.3 10.927 29.729 21.567a253.356 253.356 0 0 0 34.292 15.416c.119.042.244.08.365.113.5.137 50.283 14.112 64.9 50.949 6.512 16.407 5.154 35.151-4 55.892z"/><path d="m394.736 469.955a95.862 95.862 0 0 0 -7.086-48.708c-20.8-48.3-76-67.83-78.335-68.638a5.5 5.5 0 0 0 -3.595 10.4c.528.183 53.03 18.844 71.855 62.657 5.89 13.707 7.909 28.518 6.072 44.293z"/></g></svg>