<svg id="flat" height="512" viewBox="0 0 340 340" width="512" xmlns="http://www.w3.org/2000/svg"><path d="m251.477 23.16a47.027 47.027 0 0 1 14.265 6.28 1.269 1.269 0 0 1 -.906 2.3c-3.8-.584-9.04-1.043-12.608.053z" fill="#d9e6f7"/><path d="m251.943 37.086a38.277 38.277 0 0 1 10.8 6.659 1.033 1.033 0 0 1 -.988 1.754c-3-.9-7.171-1.852-10.17-1.368z" fill="#d9e6f7"/><path d="m251.148 51.044a38.277 38.277 0 0 1 9.765 8.1 1.033 1.033 0 0 1 -1.223 1.6c-2.841-1.3-6.843-2.833-9.88-2.771z" fill="#a0b1f7"/><path d="m247.722 63.918a32.261 32.261 0 0 1 6.744 8.294.871.871 0 0 1 -1.273 1.121c-2.135-1.544-5.192-3.463-7.712-3.91z" fill="#a0b1f7"/><path d="m324.48 113.3a47.048 47.048 0 0 0 -9.963-11.986 1.27 1.27 0 0 0 -1.964 1.5c1.607 3.489 3.491 8.4 3.42 12.136z" fill="#d9e6f7"/><path d="m313.434 115.814a41.721 41.721 0 0 0 -8.839-10.633 1.126 1.126 0 0 0 -1.742 1.335c1.425 3.095 3.1 7.455 3.034 10.766z" fill="#d9e6f7"/><path d="m298.87 118.446a41.741 41.741 0 0 0 -6.459-12.226 1.126 1.126 0 0 0 -1.979.947c.756 3.323 1.494 7.933.75 11.16z" fill="#a0b1f7"/><path d="m285.534 118.52a41.723 41.723 0 0 0 -6.208-12.356 1.126 1.126 0 0 0 -2 .907c.689 3.337 1.332 7.962.522 11.173z" fill="#a0b1f7"/><path d="m245.857 68.71a67.969 67.969 0 0 0 -1.637 15.219 30.639 30.639 0 0 0 15.359 26.665 81.337 81.337 0 0 0 16.859 7.062s-30.939 8.68-50.252-7.019 19.671-41.927 19.671-41.927z" fill="#f96e7d"/><path d="m135.673 270.831s-16.07 8.131-15.709 25.227c.238 11.239-3.811 17.669-6.612 20.756a1.4 1.4 0 0 0 1.1 2.342c10.388-.409 38.918-5.213 35.118-45.981z" fill="#485a75"/><path d="m242.668 169.829s27.684.515 42.99 30.427a2.15 2.15 0 0 1 -2.006 3.112 75.346 75.346 0 0 0 -9.857.285c-8.3.761-33.2 4.911-44.615-8.923s13.488-24.901 13.488-24.901z" fill="#485a75"/><path d="m24.6 204.91s-3.646-15.326-12.209-24.362l9.776-4.784s-8.5-9.036-5.049-24.451a10.529 10.529 0 0 1 7.482 1.063s-.838-14.883 3.68-22.856c0 0 5.581-.266 9.567 2.126 0 0 6.379-9.833 0-26.577 0 0 7.708-2.126 15.681 4.784 0 0-5.847-14.351-2.658-28.969 0 0 11.694 3.455 17.009 12.757l6.379-5.847a55.833 55.833 0 0 1 -3.189-28.437s10.9 4.518 17.806 18.6l28.167-21.257s22.937 42.733-23.467 68.831a41.677 41.677 0 0 1 -12.158 4.433c-8.133 1.655-24.354 7.015-30.619 23.893a30.4 30.4 0 0 0 -1.784 8.592c-.759 11.493 1.045 41.861 39.06 53.18l-6.645 31.892s-39.516-9.479-56.829-42.611z" fill="#485a75"/><path d="m252.771 22.311c1.834 8.592 4.716 33.673-14.3 63.865 0 0-4.129 5.015-4.8 16.09a6.823 6.823 0 0 0 3.988 6.663c6.922 3.111 23.169 8.393 52.319 7.4a91.96 91.96 0 0 0 20.78-3.031c3.741-1.007 8.514-1.9 12.563-1.424a4.827 4.827 0 0 1 4.273 4.505c.209 3.7-1.023 9.426-9.286 13.236a27.912 27.912 0 0 1 -7.5 2.175c-5.945.909-22.548 4.226-32.262 13.94a21.694 21.694 0 0 1 -10.113 4.12s-9.464 14.172-22.573 22.037a15.781 15.781 0 0 0 -1.833 2.172c-5.794 1.738-5.678 9.716-4.06 19.239l-30.341 32.212s-19.852 30.713-48.692 36.706-55.809 8.615-55.809 8.615-66.484 0-80.529-65.921c3.3 6.6 9.022 10.994 16.521 13.765a50.585 50.585 0 0 0 34.793 5.337s-1.873-3-.374-8.99c0 0 12.36-2.247 22.847-1.872a25.243 25.243 0 0 1 -1.183-9.25s13.83-6.883 25.066-5.759c0 0-4.2-4.749-4.573-9.993a87.472 87.472 0 0 1 22.526-6.775s-3.42-6.032-3.218-10.331c0 0 6.564-4.43 21.172-8.977 0 0-3.459-6.345-2.71-10.839 0 0 6.306-5.427 18.292-10.67 0 0-4.052-2.333-5.251-9.824a116.723 116.723 0 0 1 19.327-10.069 20.783 20.783 0 0 0 11.644-11.838 56.819 56.819 0 0 0 2.879-11.464 20.981 20.981 0 0 1 .523-2.483c1.964-7.054 12.423-39.445 46.761-73.486a1.858 1.858 0 0 1 3.133.919z" fill="#798eb7"/><path d="m108.272 252.523s-11.344 5.161-22.589 3.544c-8.98-1.292-31.65-7.237-44.563-37.4a54.994 54.994 0 0 1 -16.52-13.757c10.887 51.1 53.276 62.586 71.791 65.169z" fill="#485a75"/><path d="m116.858 269.474c.317-3.925.282-14.622-2.8-22.535a.9.9 0 0 0 -1.7.1l-5.97 23.661c1.805-.188 5.479-.592 10.47-1.226z" fill="#485a75"/><path d="m214.653 191.554c-3.243 4.881-5.887 13.2-2.376 26.466a22.034 22.034 0 0 0 -.564 5.274l17.464-18.542-5.392-12.331a5.236 5.236 0 0 0 -9.132-.867z" fill="#40486f"/><path d="m214.167 220.688 1.109-4.009-1.629-19.844s-28.064 58.456-97.974 55.634l-1.859 12.845 15.487 2.453c9.239-1.36 20.287-3.193 31.633-5.551 28.84-5.993 48.692-36.706 48.692-36.706z" fill="#485a75"/><path d="m220.312 209.919-8.778 4.873a109.741 109.741 0 0 1 -44.434 37.627 84.659 84.659 0 0 1 -40.053 7.31 84.865 84.865 0 0 0 -11.017.03s-17.723 3.2-20.168 10.246c0 0 12.96 6.523 42.2 6.283a96.554 96.554 0 0 0 54.028-16.564 85.186 85.186 0 0 0 34.737-49.091z" fill="#d2dfff"/><g fill="#485a75"><path d="m199.477 108.819a19.881 19.881 0 0 1 -.983 2.179 12.732 12.732 0 0 0 4.527 2.3c7.16 2.055 11.068-.413 13.159-3.184a1.629 1.629 0 0 0 -1.958-2.485l-.044.019a8.479 8.479 0 0 1 -11.684-6.419 13.92 13.92 0 0 1 -.143-3.839 56.806 56.806 0 0 1 -2.874 11.429z"/><path d="m218.541 163.2c-13.81 2.713-17.223 14.063-17.618 22.664a1.219 1.219 0 0 0 2.4.328 21.139 21.139 0 0 1 4.186-8.243c10.512-13.875 29.187-7.205 31.809 10.474l.889.57c.713-7.575 2.745-11.817 4.35-14.06-3.852-6.708-13.623-14.169-26.016-11.733z"/><path d="m224.14 79.639a3.464 3.464 0 0 1 -2.383-5.979l1.554-1.472a3.464 3.464 0 1 1 4.764 5.03l-1.554 1.472a3.453 3.453 0 0 1 -2.381.949z"/><path d="m85.65 246.029h-2.074a3.464 3.464 0 1 1 0-6.928h2.074a3.464 3.464 0 1 1 0 6.928z"/><path d="m98.792 230.583a3.465 3.465 0 0 1 -1.038-6.77l2.143-.674a3.464 3.464 0 1 1 2.077 6.61l-2.143.673a3.445 3.445 0 0 1 -1.039.161z"/><path d="m117.281 237.4a3.465 3.465 0 0 1 -1.479-6.6l1.654-.779a3.464 3.464 0 1 1 2.953 6.267l-1.654.779a3.447 3.447 0 0 1 -1.474.333z"/><path d="m123.992 216.679a3.464 3.464 0 0 1 -1.389-6.639l1.557-.681a3.464 3.464 0 0 1 2.775 6.349l-1.557.68a3.46 3.46 0 0 1 -1.386.291z"/><path d="m144.129 219.7a3.465 3.465 0 0 1 -1.365-6.65l1.362-.583a3.464 3.464 0 1 1 2.726 6.369l-1.362.583a3.439 3.439 0 0 1 -1.361.281z"/><path d="m146.754 196.835a3.465 3.465 0 0 1 -1.165-6.728l1.362-.486a3.464 3.464 0 1 1 2.329 6.524l-1.362.487a3.464 3.464 0 0 1 -1.164.203z"/><path d="m166.988 198.78a3.464 3.464 0 0 1 -1.288-6.68l1.459-.584a3.464 3.464 0 1 1 2.573 6.433l-1.459.584a3.473 3.473 0 0 1 -1.285.247z"/><path d="m169.224 176.5a3.465 3.465 0 0 1 -1.053-6.765l1.522-.486a3.464 3.464 0 0 1 2.108 6.6l-1.522.486a3.465 3.465 0 0 1 -1.055.165z"/><path d="m188.193 169.228a3.465 3.465 0 0 1 -1.014-6.777l1.654-.507a3.464 3.464 0 0 1 2.029 6.625l-1.654.506a3.444 3.444 0 0 1 -1.015.153z"/><path d="m182.551 153.255a3.464 3.464 0 0 1 -1.164-6.727l1.362-.487a3.464 3.464 0 0 1 2.329 6.525l-1.362.486a3.47 3.47 0 0 1 -1.165.203z"/><path d="m192.379 136.523a3.465 3.465 0 0 1 -1.552-6.564l1.168-.584a3.465 3.465 0 0 1 3.1 6.2l-1.167.584a3.461 3.461 0 0 1 -1.549.364z"/></g><path d="m112.983 244.552s2.209 39.668-27.265 54.552a57.5 57.5 0 0 1 -23.653 6.043c-10.559.42-26.436-.709-37.421-9.461a1.405 1.405 0 0 1 .632-2.483 29.187 29.187 0 0 0 10.581-4.149 31.556 31.556 0 0 0 6.713-5.763c4.663-5.2 19.091-19.239 40.361-21.136 4.891-.437 9.851-2.969 13.907-5.735 6.362-4.338 16.145-11.868 16.145-11.868z" fill="#798eb7"/><path d="m217.839 189.193c-2.354 4.574-3.775 11.2-1.161 20.194a54.382 54.382 0 0 1 1.451 6.534c.888 5.512 5.237 18.208 25.817 31.6 16.559 10.777 24.671 18.553 28.5 23.024a2.146 2.146 0 0 0 3.769-1.257c1.071-16.11.017-62.213-43.548-84.685a10.979 10.979 0 0 0 -14.828 4.59z" fill="#798eb7"/><path d="m268.43 149.85c-12.728-1.934-28.286-16.862-35.4-24.352a1.117 1.117 0 0 0 -1.832 1.216c2.806 6.553 8.634 17.358 18.3 23.09a80.427 80.427 0 0 1 -28.085-10.448 1.18 1.18 0 0 0 -1.469 1.817 53.071 53.071 0 0 0 31.446 16.176c-9.57 10.232-24.071 5.718-24.071 5.718l14.03 13.9a6.6 6.6 0 0 1 3.319-2.191 7.989 7.989 0 0 1 2.034-2.074 59.7 59.7 0 0 0 21.728-22.852z" fill="#485a75"/></svg>