<svg id="flat" height="512" viewBox="0 0 500 500" width="512" xmlns="http://www.w3.org/2000/svg"><path d="m338.755 132.57c-16.909-19.159-50.013-41.048-76.5-33.47-14.942 5.46-14.3 24.362-12 37.432 2.545 14.482 9.8 28.686 22.5 36.658 2.139 1.342 20.457 16.13 30.828 11.486.755 6.86 4.559 20.343 23.822 10.852a12.588 12.588 0 0 0 4.179 14.819c5.3 3.819 10.256.582 14.44-2.367 1.147 12.513 12.9 30.644 19.854 25.312 27.868-21.374-11.72-83.261-27.123-100.722z" fill="#4f424c"/><path d="m241.739 248.611c1.592 41.633 3.644 98.137 4.777 140.663-8.516 21.945-18.516 37.264-31.556 39.056 1.516-66.249 3.795-128.131 6.368-190.34q10.205-.69 20.411 10.621z" fill="#ff9f9c"/><path d="m214.961 428.33c-.412 17.982-.768 36.28-1.057 55 .115 7.355 7.219 9.24 13.706 9.364 22.311-6.564 20.62-60.487 18.906-103.42-10.266 13.3-21.441 25.657-31.555 39.056z" fill="#e77c81"/><path d="m221.328 237.99a98.762 98.762 0 0 1 20.411 10.621c-1.261-32.963-2.234-56.6-2.234-56.6l-16.295 1.421q-.96 22.368-1.882 44.558z" fill="#e77c81"/><path d="m225.385 143c-.732 16.971-1.46 33.748-2.175 50.424 13.13 11.351 14.3 33.849 14.891 50.222.92 25.334 1.612 50.675 2.243 76.018.617 24.848 1.172 49.7 1.8 74.546.575 32.976 6.528 70.1-14.538 98.472a89.6 89.6 0 0 0 18.682-.6c4.907-.667 8.534-4.417 8.466-8.817-1.9-122.443-6.6-227.1-11.481-340.264z" fill="#4f424c"/><path d="m225.616 127.366c-11.329 7.53-22.416 16.658-33.39 24.7-15.306 11.085-30.188 23.218-40.264 39.189a180.332 180.332 0 0 0 -5.366 72.109c5.5 45.057 15.518 21.353 17.36-6.016.585 5.961 3.553 11.674 10.328 10.1 4.721-1.1 6.562-27.214 6.568-34.519 11.028 21.451 16.185-15.014 14.544-23.79 3.851 10.8 18.081 7.119 12.931-19.379 2.9 2.848 8 2.14 11.072-.516s4.554-6.681 5.663-10.589a101.408 101.408 0 0 0 .554-51.289z" fill="#4f424c"/><path d="m203.484 94.738c2.823 8.111 6.782 17.456 14.849 21.441 3.883 2.045 6.417-1.14 7.03-4.953 2.319-11.026 3.792-20.477 3.277-31.734-1.262-18.517-6.719-32.776-13.081-33.4-9.837 1.815-15.051 32.058-15.351 40.94z" fill="#4f424c"/><path d="m170.411 42.762c-9.2-6.557-24.587-11.013-35.683-5.961-24.519 11.944-51.9 66.134-57.948 92.358 0 0 18 16.2 48.424-28.388 0 0 19.045-4.72 29.716-22.553 0 0 27.129-12.167 15.491-35.456z" fill="#bfcc7f"/><path d="m213.144 117.256 11.606-5.817c-6.994-18-18.681-33.75-31.813-47.991 2.495 14.994-2.762 32.65-16.1 40.682 5.504 14.583 22.916 21.799 36.307 13.126z" fill="#4f424c"/><path d="m98.032 227.007 31.934-8.442 57.993-54.69c14.315-31.933-3.384-42.948-3.384-42.948-9.658-.528-20.353 3.06-29.658 9.387a198.235 198.235 0 0 0 -32.257 37.186s-13.428 20.1-26.876 51.982z" fill="#bfcc7f"/><path d="m184.574 120.935a45.727 45.727 0 0 1 -2.641 30.967c-12.989 27.544-20.345 21.875-23.678 15.623a2.186 2.186 0 0 0 -4.018.488c-3.108 11.136-6.5 24.231-11.852 34.561a7.614 7.614 0 0 1 -13.759-.435 2.194 2.194 0 0 0 -4.059-.3c-11.986 24.491-27.226 19.357-28.781 17.649-5.977 16.075-17.052 37.414-14.071 55.6.7 3.795 3.206 8.413 8.371 5.2a2.325 2.325 0 0 0 .811-.89 295.854 295.854 0 0 0 16.977-38.198c-.378 4.332-1.31 21.753 6.926 17.463 8.638-8.093 10.841-20.262 12.714-31.714-.1 6.176.823 10.424 2.141 13.345a7.055 7.055 0 0 0 12.479.689c3.32-5.657 7.374-16.54 8.932-36.936 1.054 2.525.939 5.371 1.541 8.039.871 3.859 4.193 8 9.29 4.3a3.9 3.9 0 0 0 1.206-1.423 112.033 112.033 0 0 0 10.131-32.031.346.346 0 0 1 .688.05 55.515 55.515 0 0 0 1.3 9.919c.29 2.317 2.065 4.919 5.846 3.851 10.337-4.361 11.509-22.1 12.847-31.976l8.93-35.865a26.825 26.825 0 0 0 -18.271-7.976z" fill="#919951"/><path d="m154.92 130.317c48.393-20.741 38.665 33.5 39.02 35.366.72 4.985 10.078 14.433 19.537 1.36 10.286-14.216 12.9-59.533 12.9-59.533-26.877-8.435-52.436 5.99-71.457 22.807z" fill="#4f424c"/><path d="m293 7.394c-22.541-3.539-43.5 23.48-52.807 41.354 0 0-10.908 26.8 22.068 14.7l51.909-29.935s1.835-20.14-21.17-26.119z" fill="#bfcc7f"/><g fill="#4f424c"><path d="m259.433 100.82a38.858 38.858 0 0 0 3.706-13.157c-14.279 3.268-28.329-3.714-31.1-18.709-5.486 17.889-7.259 36.786-7.14 55.515 15.19-4.412 26.924-8.515 34.534-23.649z"/><path d="m225.111 245.522c3.612 2.593 15.4 3.165 18.556-.228a2.343 2.343 0 0 0 -1.02-3.867c-2.534-.865-5.286.275-7.93.326-2.822.055-5.657-.831-8.433-.564a2.348 2.348 0 0 0 -1.173 4.333z"/><path d="m224.258 295.286c5.611 3.023 13.676 2.28 19.211-.573 2.376-1.226.735-5.223-1.836-4.355-5.272 2.283-10.843 2.279-16.4 1.346-1.92-.154-2.591 2.709-.97 3.582z"/><path d="m222.274 344.415c4.878 4.592 17.942 4.414 23.217.762a2.218 2.218 0 0 0 -1.11-4.1c-3.466-.073-6.806 1.163-10.327 1.135a25.163 25.163 0 0 1 -9.5-1.724c-2.224-.924-3.891 2.411-2.285 3.924z"/><path d="m219.244 397.834c5.485 6.772 23.066 6.355 28.76.031 1.652-1.836.08-5.542-2.632-4.521-4.22 1.588-7.541 3.25-12.208 3.184-2.861.473-16.907-5.28-13.92 1.306z"/><path d="m219.9 458.628c2.326 3.6 7.5 3.669 11.488 3.862 4.565.22 10.753.139 14.584-2.592a2.4 2.4 0 0 0 -1.2-4.439c-4.449-.25-8.823 1.371-13.381 1.156-2.662-.053-13.055-3.176-11.488 2.013z"/></g><path d="m415.345 146.793c-24.22-38.748-69.67-65.968-115.954-61.343 0 0-16.367 23 20.338 39.885 0 0 62.031 24.225 90.66 54.69l6.974-17.985z" fill="#bfcc7f"/><path d="m416.649 198.985c21.872-1.781 6.966-39.855-1.311-52.187-.205 6.6-.34 16.7-9.081 17.26-8.127 0-16.382-11.337-19.818-17.979a3 3 0 0 0 -4.467-1.045 9.23 9.23 0 0 1 -9.337.648c-6.93-3.784-7.92-12.787-9.816-19.779a3.041 3.041 0 0 0 -5.359-1.033 16.1 16.1 0 0 1 -2.561 2.821c-10.5 8.522-16.33-6.641-18.575-14.845a3 3 0 0 0 -4.9-1.456c-20.332 16.2-31.429-7.848-32.036-25.939a135.646 135.646 0 0 0 -18.718 2.849s-18.406 8.413-18.406 27.4 13.345 22.658 13.345 22.658 24.115 8.1 30.281-6.74c0 15.2 26.786 32.443 41.341 12.194.469 30.128 33.628 37.539 43.005 28.093.097 10.501 15.097 27.275 26.413 27.08z" fill="#919951"/><path d="m256.3 141.242c6.529 2.575 14.568 2.984 19.3-2.891-12.194-17.017-9.4-35.605 5.071-50.051-18.65 4.153-36.72 12-54.041 21.8-.001 0 10.777 24.735 29.67 31.142z" fill="#4f424c"/><path d="m278.107 149.691c19.138 19.53 39.107 45.368 51.244 76.511 0 0 4.693 23.562-4.117 32.738l-62.095-81.117 4.469-28.132z" fill="#bfcc7f"/><path d="m339.23 263.333a168.654 168.654 0 0 0 -9.891-37.127c.169 4.621.989 11.764-4.569 13.072a6.578 6.578 0 0 1 -5.533-1.474c-9.7-8.079-14.052-20.119-17.3-32.267a1.816 1.816 0 0 0 -3.4-.305c-1.791 3.728-5.034 5.623-10.27-.739-3.334-4.05-3.793-9.668-3.936-15.122a1.823 1.823 0 0 0 -3.382-.9c-1.114 1.847-2.119 3.587-3.917 2.822a2.8 2.8 0 0 1 -1.438-1.541c-4.475-10.932-5.127-34.685 2.5-40.055-5.41-5.52-10.754-10.548-15.835-15.037 0 0-13.254-10.191-18.25 0-7.343 14.979-1.431 24.206-1.431 24.206 1.3 9.827 3.1 30.763 11.124 36.768 2.3 1.737 10.816-.231 9.283-15.536 0 0 3.067 36.84 13.313 46.8 6.5 6.313 7.731-9.786 7.364-13.11 13.4 61.432 26.865 28.522 26.865 28.522s3.341 50.176 22.035 51.39c7.518.485 7.753-22.871 6.668-30.367z" fill="#919951"/><path d="m262.264 134.662c-19.964-17.638-35.885-27.152-35.885-27.152-2.649 18.072-6.215 39.651 4.287 55.745 4.182 4.855 10.3 5.9 11.134-4.4a.4.4 0 0 1 .786.013s-2.11-26.157 19.678-24.206z" fill="#4f424c"/><path d="m187.436 57.645c-5.276-5.422-10.817-10.731-17.08-14.919 1.835 10.083.473 23.181-9.485 28.383a13.532 13.532 0 0 1 -10.675.5 4.536 4.536 0 0 0 -6.084 3.81c-1.428 14.108-7.972 22.9-19.964 13.593a4.573 4.573 0 0 0 -7.258 2.391c-4.614 17.226-14.135 38.768-40.1 37.755-3.846 15.576-6.542 32.075-3.525 48.066.6 3.314 1.189 7.587 4.49 8.208 13.032 2.449 14.864-26.281 16.6-36.825.545 15.656 5.456 19.228 8.843 19.22 7.614-.018 8.358-11.347 7.823-39.8 0 0 5.619 7.819 12.274 6.521 10.256-2 8.634-13.86 5.26-30.457 0 0 7.5 13.461 13.6 11.844 9.492-2.518 7.3-17.379 7.5-26.042 11.221 25.275 20.911 23.531 21.579-4.714a60.8 60.8 0 0 0 5.593 18.947c17.9.4 23.374-25.125 16.1-40.685q-2.703-2.941-5.491-5.796z" fill="#919951"/><path d="m82.49 279.756c10.883 13.055 24.48-32.146 26.4-37.773l-4.761-.644c.677 4.931-.712 17.234 4.386 19.394 3.748 1.7 7.854-.658 10.391-3.349 7.089-7.52 9.139-19.579 11.279-29.3l-5.35-.724c.195 6.048.38 13.866 5.407 18.122 4.029 3.411 8.934 2.531 12.8-.6 10.237-8.777 10.149-27.722 12.249-40.312h-6.053c.036 5.7.628 12.466 5.87 15.949a8.4 8.4 0 0 0 11.764-1.944c1.623-2.214-1.74-4.327-3.579-2.762-2.938 2.5-6.2-.05-7.282-3.051-.946-2.616-.783-5.453-.72-8.192.092-4-5.585-3.75-6.053 0-1.143 9.162-1.937 18.823-4.906 27.623-1.21 3.586-4.63 11.589-9.765 9.8-4.541-1.586-4.16-10.922-4.288-14.628-.1-2.955-4.672-3.842-5.351-.725-1.693 7.11-5.285 26.253-12.105 29.38-2.715.846-2.736-1.121-2.944-3.414-.341-3.75-.535-7.51-.906-11.259-.259-2.609-3.958-3.425-4.762-.645-1.326 4.586-13.359 41.986-19.15 36.49-1.725-1.637-4.051.8-2.571 2.572z" fill="#4f424c"/><path d="m190.878 112.621c-3.7-3.526-7.414-6.341-9.9-10.96-2.614-4.861-3.878-10.361-5.178-15.685-.871-3.573-6.1-2.658-6.24.844-.165 4.181.02 14.121-3.827 16.938-5.442 3.984-10.9-8.13-12.524-12.2-1.216-3.048-6.623-3.071-6.292.852 1.8 12.077-1.16 25.41-13.967 12.209-2.783-2.757-6.594 1.3-4.216 4.216 4.5 5.518 12.258 10.988 19.143 5.843 6.665-4.981 6.04-14.939 5.446-22.268l-6.291.851c10.5 28.216 29.44 22.106 28.881-6.443l-6.239.845c2.5 10.258 6.94 27.126 19.833 28.257 1.694.148 2.519-2.2 1.367-3.3z" fill="#4f424c"/><path d="m243.015 137.179c-3.929 15.868-5.513 34.025 1.267 49.459 2.251 5.126 6.5 11.473 12.941 10.929 5.832-.494 8.363-6.411 9.692-11.331l-6.149-.833c.676 11.816 1.843 28.1 8.93 37.857 8.1 9.691 17.5 3.774 16.938-7.81h-6.075c1.391 11.613 2.7 25.529 10.827 34.713 8.376 9.133 17.544 2.725 21.173-7l-5.852-1.584c-2.456 15.392 8.5 57.736 29.751 50.857a1.994 1.994 0 0 0 -1.058-3.836c-17.347 1.96-23.374-34.31-22.412-47.016.12-2.961-4.576-4.488-5.851-1.585-1.164 2.647-2.927 7.124-6.049 8-9.379 1.984-13.823-26.663-14.562-33.354-.494-3.466-5.924-2.508-5.966.807.525 5.057-2.291 8.758-6.139 3.664-5.8-8.882-6.8-23.237-7.393-33.71-.1-3.475-5.207-4.319-6.149-.833-.485 1.793-.912 4.339-2.39 5.594-2.649 2.25-5.125-.286-6.65-2.547-7.51-12.693-7.369-35.094-5.2-49.442.4-2.334-3.027-3.383-3.618-1z" fill="#4f424c"/><path d="m128.277 106.694c.98 5.972 3.4 12.8 1.6 18.827-2.706 9.041-11.363 4.293-16.11 0a3.068 3.068 0 0 0 -5.086 2.961 52.059 52.059 0 0 1 .073 25.707c-4.191 16.72-9.942 6.849-11.434-4.038l-5.838 1.61c1.968 8.933-1.725 24.273-9.413 30.009-2.838 2.117-.245 6.91 2.846 4.87 9.664-6.072 14.729-25.741 12.405-36.489-.841-3.845-6.5-2.174-5.838 1.61.935 5.347 2.6 12.5 7.207 15.981 11.811 7.373 16.731-10.91 17.311-19.523a59.421 59.421 0 0 0 -1.453-21.353l-5.085 2.96c6.389 5.822 15.9 10.938 22.918 3.136 6.578-7.313 3.982-20.08.46-28.192-1.212-2.794-4.984-.632-4.564 1.924z" fill="#4f424c"/><path d="m293 7.4c18.276 7.7 10.06 35.491-1.774 26.468a1.216 1.216 0 0 0 -1.976 1.032c.8 9.4-7.952 17.112-14.1 5.1a1.214 1.214 0 0 0 -2.23.152 29.7 29.7 0 0 1 -22.051 19.127c-7.624 1.473-11.324-3.969-10.675-10.533a122.984 122.984 0 0 0 -8.161 20.2c0 18.881 16.5 27.285 31.112 18.711a39.3 39.3 0 0 0 -2.534-18.452c16.781 14.495 25.444-6.085 23.389-14.024 6.023 11.406 21.758 5 22.63-6.758 19.216 13.363 24.206-34.444-13.63-41.023z" fill="#919951"/><path d="m259.607 98.3c4.817-9.407 4.722-18.188 3.5-28.388l-5.289 1.433c3.51 5.525 11.968 8.016 18.05 5.644 7.291-2.843 10.24-12.708 11.437-19.668l-4.944 1.3c8.96 11.233 23.619 2.854 27-8.562l-3.984 2.261c10.212 3.963 17.562-4.186 16.832-14.22a2.707 2.707 0 0 0 -5.41 0c-.327 6-3.329 10.433-9.7 7.975-1.653-.637-3.529.716-3.983 2.262-2.071 7.048-10.633 13.545-16.571 6.1-1.335-1.674-4.587-.78-4.944 1.306-.783 4.589-2.1 9.738-5.073 13.436-3.765 4.679-10.761 2.725-14.251-1.28-1.81-2.076-5.752.12-4.744 2.762 3.128 8.194 1.511 18.174-1.333 26.2-.7 1.984 2.447 3.313 3.408 1.436z" fill="#4f424c"/><path d="m264.9 117.921c-3.405 10.058 3.165 20.934 12.553 24.913 10.674 4.523 22.8.21 30.663-7.6l-5.333-2.209c-.82 10.7 8.79 18.727 18.549 20.657a30.59 30.59 0 0 0 27.824-8.578l-5.29-3.079c-4.695 26.951 23.726 42.813 47.16 34.038l-3.9-2.212c1.956 9.311 7.519 18.1 15.86 22.923 7.222 4.176 17.512 6.408 23-1.468 1.306-1.876-1.572-4-3.128-2.412-6.229 6.378-14.9 1-20.126-3.872a31.178 31.178 0 0 1 -9.492-16.855 3.19 3.19 0 0 0 -3.9-2.212c-18.914 7.121-42.422-3.919-39.372-26.248.548-2.934-2.944-5.514-5.29-3.079a23.859 23.859 0 0 1 -20.04 7.245c-7.648-.877-16.25-6.2-15.609-14.848.2-2.773-3.516-4.024-5.333-2.209-13.164 13.915-36.518 8.586-35.5-12.446.176-1.976-2.724-2.15-3.3-.446z" fill="#4f424c"/></svg>