<svg id="Flat" height="512" viewBox="0 0 340 340" width="512" xmlns="http://www.w3.org/2000/svg"><path d="m328 284.6c-26.669 0-26.669-12-53.338-12s-26.67 12-53.339 12-26.665-12-53.331-12-26.666 12-53.332 12-26.666-12-53.331-12-26.664 12-53.329 12v44.96h320z" fill="#6997e0"/><path d="m235.9 136.75a36.259 36.259 0 0 0 -28.2-17.82l-30.283-2.743-1.9-16.408h-19.294v18.2l-6.836 2.833a72.668 72.668 0 0 0 -21.816 14.052l-21.858 20.436v20.383l33.937-20.479 1.358 42.113h51.861v-55.153l14.548-2.053a11.407 11.407 0 0 1 10.583 4.249 34.159 34.159 0 0 1 2.912 4.352l17.958-5.917a50.929 50.929 0 0 0 -2.97-6.045z" fill="#f9beac"/><path d="m127.571 134.867-4.8 4.484 70.1 31.83v-10.387l-56.1-33.209a72.7 72.7 0 0 0 -9.2 7.282z" fill="#e5897a"/><circle cx="279.947" cy="62.491" fill="#ff7a4e" r="29.517"/><path d="m315.475 197.432-22.355-11.944a14.179 14.179 0 0 0 -19.188 5.824l-.475.89-127.423-68.081-67.788-36.221.528-.988a14.18 14.18 0 0 0 -5.824-19.186l-22.35-11.944a15.774 15.774 0 0 0 -21.346 6.48l-6.52 12.193a15.775 15.775 0 0 0 6.479 21.345l22.355 11.944a14.18 14.18 0 0 0 19.188-5.825l.528-.988 119.074 63.621 76.136 40.679-.58 1.086a14.179 14.179 0 0 0 5.824 19.188l22.355 11.944a15.773 15.773 0 0 0 21.346-6.479l6.515-12.193a15.775 15.775 0 0 0 -6.479-21.345z" fill="#ffb133"/><path d="m266.495 205.233 6.962-13.031-127.423-68.081-67.788-36.219-6.962 13.031 119.074 63.621z" fill="#72645a"/><path d="m215.839 161.417c-2.85 1.9-6.666 5.795-6.82 13.107l14.863 7.941 3.835-6.145 2.67-7.13z" fill="#564941"/><path d="m104.429 118.643 4.723-14.228-9.273-4.954c-3.951.3-9.636 2.147-13.768 9.394z" fill="#564941"/><path d="m222.873 153.194a10.288 10.288 0 0 1 -3.284 10.846 12.873 12.873 0 0 0 -3.541 4.794 12.215 12.215 0 0 0 7.139 16.082 16.056 16.056 0 0 0 8.508.526 12.3 12.3 0 0 0 9.68-9.472c1.631-7.39 2.915-20.023-2.506-33.175l-17.958 5.917a23.394 23.394 0 0 1 1.962 4.482z" fill="#f9beac"/><path d="m121.493 119.7c-.6 4.2-2.658 8.847-7.184 13.7a12.972 12.972 0 0 0 -3.439 8.85v24.365a10.556 10.556 0 0 1 -10.556 10.556 10.556 10.556 0 0 1 -10.556-10.556v-45.45a24.672 24.672 0 0 1 2.731-11.641c8.347-15.416 31.477-7.182 29.004 10.176z" fill="#f9beac"/><path d="m167.42 179.952c-40 39.841-110.751 34.391-110.751 34.391 16.852 106.269 110.751 98.015 110.751 98.015s93.9 8.254 110.752-98.015c0 0-70.755 5.45-110.752-34.391z" fill="#b9c259"/><path d="m167.42 179.952c-40 39.841-110.751 34.391-110.751 34.391 16.852 106.269 110.751 98.015 110.751 98.015z" fill="#989e3d"/><path d="m328 307.6c-26.669 0-26.669-12-53.338-12s-26.67 12-53.339 12-26.665-12-53.331-12-26.666 12-53.332 12-26.666-12-53.331-12-26.664 12-53.329 12v21.96h320z" fill="#95bcf4"/><path d="m156.223 112.958 20.117-6.05-.826-7.129h-19.291z" fill="#e5897a"/><path d="m137.3 71.21h12.4a0 0 0 0 1 0 0v20.8a0 0 0 0 1 0 0h-12.4a10.4 10.4 0 0 1 -10.4-10.4 10.4 10.4 0 0 1 10.4-10.4z" fill="#e5897a"/><path d="m194.878 71.21h12.4a0 0 0 0 1 0 0v20.8a0 0 0 0 1 0 0h-12.4a10.4 10.4 0 0 1 -10.4-10.4 10.4 10.4 0 0 1 10.4-10.4z" fill="#e5897a" transform="matrix(-1 0 0 -1 391.76 163.219)"/><path d="m153.373 30.435s-14.269-6.264-23.284 12.38a26.636 26.636 0 0 0 .988 25.57 21.642 21.642 0 0 0 15.854 10.362h42.1l3.681-8.512a47.132 47.132 0 0 0 16.133-10.816 6.218 6.218 0 0 0 -.718-9.229l-7.127-5.49 4.994-4.994a6.222 6.222 0 0 0 -.233-9.03c-10.155-9.118-34.729-26.462-52.388-.241z" fill="#313847"/><path d="m151.836 48.825s-.516 9.615 10.839 18.183a6.238 6.238 0 0 0 9.844-3.483l1.1-4.563s4.141 8.742 19.1 11.273c0 0 2.116 17.325-9.237 27.91a24.434 24.434 0 0 1 -30.452 2.416c-4.828-3.329-9.3-8.932-10.694-18.363-.006.002-3.2-15.875 9.5-33.373z" fill="#f9beac"/><path d="m279.55 204.18c-22.027 1.075-73.88-.308-107.459-33.381a6.642 6.642 0 0 0 -9.341 0c-33.579 33.073-85.432 34.456-107.459 33.381a9.74 9.74 0 0 0 -10.227 8.22 9.564 9.564 0 0 0 8.557 10.825c69.311 6.559 102.266-17.552 111.213-25.639a3.852 3.852 0 0 1 5.173 0c8.946 8.087 41.9 32.2 111.212 25.639a9.565 9.565 0 0 0 8.558-10.825 9.74 9.74 0 0 0 -10.227-8.22z" fill="#d0d686"/><path d="m173.618 58.962-1.1 4.563a6.234 6.234 0 0 1 -9.822 3.5c-11.377-8.573-10.861-18.2-10.861-18.2a51.165 51.165 0 0 0 -9.047 20.375c1.442-3.939 3.962-9.361 7.873-13.2 0 0 4.573 12.382 15.789 16.3a6.565 6.565 0 0 0 8.381-4c.2-.57.376-1.173.529-1.8a33.617 33.617 0 0 0 17.5 7.654 32.57 32.57 0 0 0 -.15-3.909c-14.951-2.545-19.092-11.283-19.092-11.283z" fill="#e5897a"/><g fill="#ff7a4e"><path d="m279.95 18.44a3.995 3.995 0 0 1 -4-4 3.987 3.987 0 0 1 1.17-2.83 4 4 0 1 1 2.83 6.83z"/><path d="m279.95 114.54a3.995 3.995 0 0 1 -4-4 4.114 4.114 0 0 1 .07-.78 5.371 5.371 0 0 1 .23-.75 4.579 4.579 0 0 1 .37-.69 4.081 4.081 0 0 1 .5-.6 3.989 3.989 0 0 1 6.15.6 3.828 3.828 0 0 1 .37.69 4.3 4.3 0 0 1 .23.75 4.129 4.129 0 0 1 .08.78 3.995 3.995 0 0 1 -4 4z"/><path d="m328 66.49a3.445 3.445 0 0 1 -.78-.08 3.256 3.256 0 0 1 -.75-.23 4.524 4.524 0 0 1 -.69-.36 4 4 0 0 1 -1.11-1.11 4.524 4.524 0 0 1 -.36-.69 3.832 3.832 0 0 1 -.23-.75 3.975 3.975 0 0 1 1.09-3.61 4.093 4.093 0 0 1 .61-.49 4.033 4.033 0 0 1 1.44-.6 3.728 3.728 0 0 1 1.56 0 4.033 4.033 0 0 1 1.44.6 3.914 3.914 0 0 1 1.78 3.32 4.047 4.047 0 0 1 -.08.78 3.832 3.832 0 0 1 -.23.75 4.524 4.524 0 0 1 -.36.69 4 4 0 0 1 -1.11 1.11 4.524 4.524 0 0 1 -.69.36 3.256 3.256 0 0 1 -.75.23 3.445 3.445 0 0 1 -.78.08z"/><path d="m231.89 66.49a4.012 4.012 0 0 1 -4-4 4.129 4.129 0 0 1 .08-.78 4.033 4.033 0 0 1 .6-1.44 3.605 3.605 0 0 1 .5-.61 4 4 0 0 1 5.65 0 4.161 4.161 0 0 1 .5.61 4.579 4.579 0 0 1 .37.69 3.809 3.809 0 0 1 .22.75 3.445 3.445 0 0 1 .08.78 3.995 3.995 0 0 1 -4 4z"/><path d="m313.92 32.51a3.981 3.981 0 0 1 -2.82-1.17 3.694 3.694 0 0 1 -.5-.61 4.143 4.143 0 0 1 -.37-.69 4.659 4.659 0 0 1 -.23-.75 4.042 4.042 0 0 1 -.07-.78 4.114 4.114 0 0 1 .07-.78 4.99 4.99 0 0 1 .23-.75 4.579 4.579 0 0 1 .37-.69 4.161 4.161 0 0 1 .5-.61 3.639 3.639 0 0 1 .61-.49 3.256 3.256 0 0 1 .69-.37 3.956 3.956 0 0 1 .74-.23 4.146 4.146 0 0 1 1.57 0 3.956 3.956 0 0 1 .74.23 3.6 3.6 0 0 1 .7.37 4.054 4.054 0 0 1 1.7 4.1 4.659 4.659 0 0 1 -.23.75 3.519 3.519 0 0 1 -.37.69 3.251 3.251 0 0 1 -.5.61 4.081 4.081 0 0 1 -.6.5 4.241 4.241 0 0 1 -.7.37 3.922 3.922 0 0 1 -.74.22 3.474 3.474 0 0 1 -.79.08z"/><path d="m245.97 100.47a4.047 4.047 0 0 1 -2.83-1.17 4.161 4.161 0 0 1 -.5-.61 4.579 4.579 0 0 1 -.37-.69 3.809 3.809 0 0 1 -.22-.75 3.843 3.843 0 0 1 0-1.56 3.809 3.809 0 0 1 .22-.75 4.579 4.579 0 0 1 .37-.69 4.161 4.161 0 0 1 .5-.61 4.008 4.008 0 0 1 5.66 0 4.093 4.093 0 0 1 .49.61 4.033 4.033 0 0 1 .6 1.44 3.842 3.842 0 0 1 0 1.56 4.033 4.033 0 0 1 -.6 1.44 3.914 3.914 0 0 1 -3.32 1.78z"/><path d="m313.92 100.47a4.129 4.129 0 0 1 -.78-.08 3.956 3.956 0 0 1 -.74-.23 3.75 3.75 0 0 1 -.69-.36 4.279 4.279 0 0 1 -.61-.5 4.161 4.161 0 0 1 -.5-.61 4.579 4.579 0 0 1 -.37-.69 4.659 4.659 0 0 1 -.23-.75 4.381 4.381 0 0 1 0-1.56 4.659 4.659 0 0 1 .23-.75 4.579 4.579 0 0 1 .37-.69 4.161 4.161 0 0 1 .5-.61 4.037 4.037 0 0 1 3.61-1.09 3.956 3.956 0 0 1 .74.23 4.2 4.2 0 0 1 .7.36 4.82 4.82 0 0 1 .6.5 3.605 3.605 0 0 1 .5.61 3.828 3.828 0 0 1 .37.69 4.659 4.659 0 0 1 .23.75 4.114 4.114 0 0 1 .07.78 4.021 4.021 0 0 1 -1.17 2.83 4.82 4.82 0 0 1 -.6.5 4.2 4.2 0 0 1 -.7.36 3.956 3.956 0 0 1 -.74.23 4.15 4.15 0 0 1 -.79.08z"/><path d="m245.97 32.51a4 4 0 0 1 -2.83-1.17 3.694 3.694 0 0 1 -.5-.61 4.143 4.143 0 0 1 -.37-.69 3.809 3.809 0 0 1 -.22-.75 3.387 3.387 0 0 1 -.08-.78 3.445 3.445 0 0 1 .08-.78 4.019 4.019 0 0 1 .22-.75 4.579 4.579 0 0 1 .37-.69 4.161 4.161 0 0 1 .5-.61 4.008 4.008 0 0 1 5.66 0 4.093 4.093 0 0 1 .49.61 3.828 3.828 0 0 1 .37.69 4.053 4.053 0 0 1 .23.75 4.129 4.129 0 0 1 .08.78 4.047 4.047 0 0 1 -.08.78 3.832 3.832 0 0 1 -.23.75 3.519 3.519 0 0 1 -.37.69 3.639 3.639 0 0 1 -.49.61 4.021 4.021 0 0 1 -2.83 1.17z"/></g><path d="m158.36 84.85a4.129 4.129 0 0 1 -.78-.08 4.053 4.053 0 0 1 -.75-.23 3.828 3.828 0 0 1 -.69-.37 3.914 3.914 0 0 1 -1.78-3.32 4 4 0 0 1 6.83-2.83 4.008 4.008 0 0 1 0 5.66 3.639 3.639 0 0 1 -.61.49 3.519 3.519 0 0 1 -.69.37 3.832 3.832 0 0 1 -.75.23 4.047 4.047 0 0 1 -.78.08z" fill="#313847"/><path d="m175.36 84.85a4.129 4.129 0 0 1 -.78-.08 4.053 4.053 0 0 1 -.75-.23 3.828 3.828 0 0 1 -.69-.37 3.963 3.963 0 0 1 -1.7-4.1 4.033 4.033 0 0 1 .6-1.44 3.639 3.639 0 0 1 .49-.61 4.919 4.919 0 0 1 .61-.5 3.778 3.778 0 0 1 .69-.36 4.053 4.053 0 0 1 .75-.23 3.992 3.992 0 0 1 4.78 3.92 3.995 3.995 0 0 1 -4 4z" fill="#313847"/></svg>