<svg id="icon" height="512" viewBox="0 0 340 340" width="512" xmlns="http://www.w3.org/2000/svg"><path d="m89.152 137.181h94.281v41.456h-94.281z" fill="#445679"/><circle cx="64.403" cy="110.311" fill="#6f81a7" r="55.154"/><circle cx="64.403" cy="110.311" fill="#bfd2ef" r="16.735"/><circle cx="185.201" cy="110.311" fill="#6f81a7" r="54.329"/><circle cx="185.201" cy="110.311" fill="#bfd2ef" r="15.5"/><path d="m120.057 120.211h16.735a8.278 8.278 0 0 1 8.278 8.278v50.149a0 0 0 0 1 0 0h-33.29a0 0 0 0 1 0 0v-50.15a8.278 8.278 0 0 1 8.277-8.277z" fill="#445679"/><path d="m128.421 141.183a4 4 0 1 1 .79-7.92 3.922 3.922 0 0 1 .74.22 3.722 3.722 0 0 1 .69.37 4 4 0 0 1 1.11 1.11 4.133 4.133 0 0 1 .37.689 4.722 4.722 0 0 1 .23.75 4.076 4.076 0 0 1 -1.1 3.611 3.742 3.742 0 0 1 -.61.49 3.515 3.515 0 0 1 -.69.369 3.887 3.887 0 0 1 -.74.231 4.32 4.32 0 0 1 -.79.08z" fill="#6f81a7"/><path d="m128.421 166.133a4.012 4.012 0 0 1 -4-4 4 4 0 0 1 6.83-2.82 4 4 0 0 1 -2.83 6.82z" fill="#6f81a7"/><path d="m76.405 178.637h137.33v90.805h-137.33z" fill="#6f81a7"/><g fill="#445679"><path d="m97.582 269.442h83.1a0 0 0 0 1 0 0v5.936a9.466 9.466 0 0 1 -9.466 9.466h-64.169a9.466 9.466 0 0 1 -9.466-9.466v-5.936a0 0 0 0 1 .001 0z"/><path d="m23.98 189.5h7.641a5.9 5.9 0 0 1 5.9 5.9v17.8a5.9 5.9 0 0 1 -5.9 5.9h-7.641a0 0 0 0 1 0 0v-29.6a0 0 0 0 1 0 0z"/><path d="m46.2 238.17h7.641a5.9 5.9 0 0 1 5.9 5.9v17.8a5.9 5.9 0 0 1 -5.9 5.9h-7.641a0 0 0 0 1 0 0v-29.6a0 0 0 0 1 0 0z"/></g><path d="m37.521 196.884h38.884v12.543h-38.884z" fill="#bfd2ef"/><path d="m59.737 246.697h16.668v12.543h-16.668z" fill="#bfd2ef"/><circle cx="80.575" cy="203.155" fill="#445679" r="12.681"/><path d="m130.871 199.407h65.054a0 0 0 0 1 0 0v45.519a8.043 8.043 0 0 1 -8.043 8.043h-48.968a8.043 8.043 0 0 1 -8.043-8.043v-45.519a0 0 0 0 1 0 0z" fill="#bfd2ef"/><path d="m213.735 189.5h14.717a5.893 5.893 0 0 1 5.893 5.893v42.432a5.893 5.893 0 0 1 -5.893 5.893h-14.717a0 0 0 0 1 0 0v-54.218a0 0 0 0 1 0 0z" fill="#6f81a7"/><path d="m234.345 201.181h30.178v15.429h-30.178z" fill="#445679"/><path d="m234.345 216.61h15.429a0 0 0 0 1 0 0v14.513a5.088 5.088 0 0 1 -5.088 5.088h-10.341a0 0 0 0 1 0 0v-19.6a0 0 0 0 1 0-.001z" fill="#445679"/><path d="m269.058 193.746a7.609 7.609 0 0 0 -4.536 6.961v16.377a7.609 7.609 0 0 0 4.536 6.961l58.105 25.649a2.555 2.555 0 0 0 3.588-2.338v-76.921a2.555 2.555 0 0 0 -3.588-2.338z" fill="#6f81a7"/><path d="m108.511 200.883a4.027 4.027 0 0 1 -2.82-1.17 3.276 3.276 0 0 1 -.5-.61 3.836 3.836 0 0 1 -.37-.691 3.791 3.791 0 0 1 -.23-.75 4.119 4.119 0 0 1 -.08-.779 4.03 4.03 0 0 1 1.18-2.83 3.47 3.47 0 0 1 .6-.49 3.833 3.833 0 0 1 .69-.371 4.127 4.127 0 0 1 .75-.229 3.776 3.776 0 0 1 1.57 0 4.028 4.028 0 0 1 .74.229 3.26 3.26 0 0 1 .69.371 3.542 3.542 0 0 1 .61.49 4.02 4.02 0 0 1 1.17 2.83 4.1 4.1 0 0 1 -.07.779 4.047 4.047 0 0 1 -.6 1.441 3.779 3.779 0 0 1 -.5.61 4.279 4.279 0 0 1 -.61.5 3.687 3.687 0 0 1 -.69.359 3.887 3.887 0 0 1 -.74.231 3.591 3.591 0 0 1 -.79.08z" fill="#bfd2ef"/><path d="m93.261 258.343a4.234 4.234 0 0 1 -.79-.08 3.887 3.887 0 0 1 -.74-.231 3.687 3.687 0 0 1 -.69-.359 4.279 4.279 0 0 1 -.61-.5 4 4 0 0 1 -1.17-2.83 4.182 4.182 0 0 1 .069-.78 4.764 4.764 0 0 1 .231-.75 4.589 4.589 0 0 1 .37-.691 4 4 0 0 1 6.149-.609 3.468 3.468 0 0 1 .5.609 3.78 3.78 0 0 1 .371.691 3.832 3.832 0 0 1 .23.75 4.1 4.1 0 0 1 .07.78 4 4 0 0 1 -1.171 2.83 4.125 4.125 0 0 1 -.6.5 4.431 4.431 0 0 1 -.69.359 4.22 4.22 0 0 1 -.75.231 4.129 4.129 0 0 1 -.779.08z" fill="#bfd2ef"/><path d="m147.091 235.992a4.06 4.06 0 0 1 -2.83-1.17 3.974 3.974 0 0 1 -.49-.609 3.862 3.862 0 0 1 -.37-.69 4.3 4.3 0 0 1 -.23-.75 4.131 4.131 0 0 1 -.08-.781 4.251 4.251 0 0 1 .08-.79 3.924 3.924 0 0 1 .23-.739 3.256 3.256 0 0 1 .37-.69 3.637 3.637 0 0 1 .49-.611 4 4 0 1 1 2.83 6.83z" fill="#6f81a7"/><path d="m179.7 235.992a4.049 4.049 0 0 1 -.78-.08 4.382 4.382 0 0 1 -.75-.229 3.892 3.892 0 0 1 -.69-.37 4 4 0 0 1 3.01-7.25 3.813 3.813 0 0 1 .74.23 4.213 4.213 0 0 1 .69.369 3.8 3.8 0 0 1 .61.5 3.744 3.744 0 0 1 .5.611 3.782 3.782 0 0 1 .37.69 4.824 4.824 0 0 1 .23.739 4.234 4.234 0 0 1 .07.79 4.02 4.02 0 0 1 -1.17 2.83 4.06 4.06 0 0 1 -2.83 1.17z" fill="#6f81a7"/><path d="m213.735 189.501h8.82v54.218h-8.82z" fill="#445679"/><path d="m330.751 237.279-38.743-16.818a7.95 7.95 0 0 1 -4.784-7.291v-8.549a7.95 7.95 0 0 1 4.784-7.291l38.743-16.818v-10.077a2.555 2.555 0 0 0 -3.588-2.338l-58.105 25.649a7.609 7.609 0 0 0 -4.536 6.961v16.377a7.61 7.61 0 0 0 4.536 6.961l58.105 25.649a2.555 2.555 0 0 0 3.588-2.338z" fill="#445679"/></svg>