<svg id="fill" height="512" viewBox="0 0 340 340" width="512" xmlns="http://www.w3.org/2000/svg"><ellipse cx="161.853" cy="104.177" fill="#8cba68" rx="62.518" ry="85.094" transform="matrix(.992 -.126 .126 .992 -11.857 21.266)"/><path d="m112.394 151.266a87.385 87.385 0 0 0 14.9 19.887 60.285 60.285 0 0 1 -.957-23.815c1.137-7.01 4.153-13.241 6.136-19.994a37.724 37.724 0 0 0 .459-19.921c-1.639-6.463-5.29-12.27-6.6-18.826-1.5-7.531 1.671-14.3 3.524-21.428a31.487 31.487 0 0 0 -.384-17.3c-1.082-3.861-2.287-7.605-2.229-11.669a39.527 39.527 0 0 1 1.517-9.408 60.3 60.3 0 0 0 -12 11.685c-.406 3.232-.026 6.433.013 9.694.069 5.7-1.774 9.653-4.155 14.687-5.889 12.449-8.294 27.414-2.567 40.388 1.455 3.3 3.543 6.171 5.368 9.257a20.663 20.663 0 0 1 2.479 15.31c-1.398 7.304-4.459 14.087-5.504 21.453z" fill="#50723d"/><path d="m172.874 151.729c-1.111-5.584-.777-10.074 1.628-15.215 1.449-3.1 3.2-6.05 4.429-9.251a40.265 40.265 0 0 0 -5.1-37.6c-2.047-2.786-4.555-5.253-6.419-8.171-2.887-4.522-2.91-9.035-2.055-14.189 1.114-6.711 2.039-12.8.115-19.5a33.516 33.516 0 0 0 -2.782-6.741 31.951 31.951 0 0 0 -4.025-7.243c-2.906-3.924-6.916-6.682-10.125-10.315a29.847 29.847 0 0 1 -2.2-2.853 47.325 47.325 0 0 0 -9.747 3.445 38.36 38.36 0 0 0 2.394 6.006c4.139 8.427 9.042 15.577 9.241 25.358.173 8.5-2.807 16.678-1.949 25.216.734 7.307 3.577 13.679 7.621 19.729 2.222 3.325 4.612 6.567 6.106 10.3 1.954 4.89 1.7 9.8.777 14.893-1.466 8.112-3.342 15.324-2.408 23.647.985 8.768 3.207 17.235 2.124 26.118a47.257 47.257 0 0 1 -3.361 12.608 47.561 47.561 0 0 0 9.144.986 42.6 42.6 0 0 0 7.865-17.868c1.207-6.729.039-12.761-1.273-19.36z" fill="#50723d"/><path d="m210.409 111.868c1.669-6.819 5.172-13.07 5.377-20.217a28.85 28.85 0 0 0 -5.247-17.337c-3.686-5.249-8.82-9.331-12.33-14.707-4.247-6.5-4.457-14.227-5.579-21.661a40 40 0 0 0 -1.144-5.193 60.61 60.61 0 0 0 -18.055-10.453 38.453 38.453 0 0 1 7.1 12.442c2.562 7.525 1.646 15.318 2.538 23.072a43.329 43.329 0 0 0 6.48 18.324c4.432 6.949 9.857 12.368 11.118 20.905 1.208 8.175-2.236 15.542-3.253 23.5-.87 6.809 1.331 12.994 2.974 19.5a75.271 75.271 0 0 1 .467 34.6 68.922 68.922 0 0 0 12.6-16.653c.056-.5.116-.992.159-1.492 1.311-15.271-6.941-29.359-3.205-44.63z" fill="#50723d"/><circle cx="281.801" cy="164.533" fill="#ef7422" r="37.79"/><circle cx="232.698" cy="159.273" fill="#ff9248" r="41.14"/><path d="m18.2 98.5a7.884 7.884 0 0 0 9.409 3.486 85.061 85.061 0 0 0 10.279-4.3s-1.912 12.322 7.465 25.58l16.047-5.351a52.508 52.508 0 0 1 -6.221-9.759 17.951 17.951 0 0 1 5.492-22.27c1.038-.775 2.088-1.621 3.109-2.529a7.9 7.9 0 0 0 1.661-9.748l-.318-.57a7.873 7.873 0 0 0 -11.009-2.86 285.421 285.421 0 0 1 -32.272 17.168 7.888 7.888 0 0 0 -3.642 11.153z" fill="#abd37d"/><path d="m61.188 114.75a24.424 24.424 0 0 1 21.739-12.727 24.045 24.045 0 0 1 20.346 12.077c6.055 10.226 19.788 27.116 45.67 30.507 0 0 20.511 2.633 18.694 19.732 0 0-72.956 17.655-106.449-49.589z" fill="#f4b516"/><path d="m48.056 120.318s-.292-.036-.823-.078c-21.01-1.633-37.678 17.862-32.6 38.316 1.929 7.775 6.2 16.04 15.25 21.136h39.984z" fill="#f4b516"/><path d="m36.253 132.191c-3.231 13.131-.708 30.909 22.154 49.642h121.186s5.92-17.289-13.362-21.8a31.829 31.829 0 0 0 -11.484-.431c-11.708 1.57-49.911 3.617-72.043-31.7a39.636 39.636 0 0 0 -3.86-5.515c-12.836-15.621-37.758-9.833-42.591 9.804z" fill="#ffcc3b"/><rect fill="#c99" height="52.856" rx="9.192" width="320" x="10" y="177.719"/><rect fill="#c99" height="52.856" rx="9.192" width="320" x="10" y="267.754"/><path d="m23.625 230.575h292.75v37.179h-292.75z" fill="#966363"/><path d="m272.394 57.882s-50.718 22.218-24.034 62.083c-2.291 6.732-6.655 14.27-14.986 18.658a4 4 0 1 0 3.726 7.077c11.2-5.9 16.645-15.878 19.289-24.38 11.838-2.441 33.811-13.536 16.005-63.438z" fill="#abd37d"/><g fill="#966363"><path d="m44.39 208.15a4 4 0 0 1 -2.82-6.83 4.081 4.081 0 0 1 .6-.5 4.579 4.579 0 0 1 .69-.37 5.508 5.508 0 0 1 .75-.23 4.046 4.046 0 0 1 3.61 1.1 4 4 0 0 1 1.18 2.83 4.129 4.129 0 0 1 -.08.78 4.053 4.053 0 0 1 -.23.75 4.579 4.579 0 0 1 -.37.69 4.161 4.161 0 0 1 -.5.61 4.029 4.029 0 0 1 -2.83 1.17z"/><path d="m44.39 298.18a4.212 4.212 0 0 1 -.78-.079 4.392 4.392 0 0 1 -.75-.231 4.524 4.524 0 0 1 -.69-.36 4.081 4.081 0 0 1 -.6-.5 3.251 3.251 0 0 1 -.5-.61 3.519 3.519 0 0 1 -.37-.69 3.832 3.832 0 0 1 -.23-.75 4.047 4.047 0 0 1 -.08-.78 4.129 4.129 0 0 1 .08-.78 3.875 3.875 0 0 1 .23-.75 3.828 3.828 0 0 1 .37-.69 3.56 3.56 0 0 1 .5-.609 3.959 3.959 0 0 1 .6-.491 3.828 3.828 0 0 1 .69-.37 4.478 4.478 0 0 1 .75-.23 3.911 3.911 0 0 1 2.31.23 3.6 3.6 0 0 1 .7.37 3.959 3.959 0 0 1 .6.491 4.072 4.072 0 0 1 1.1 3.609 4.659 4.659 0 0 1 -.23.75 4.143 4.143 0 0 1 -.37.69 4 4 0 0 1 -1.11 1.11 3.75 3.75 0 0 1 -.69.36 4.035 4.035 0 0 1 -.74.231 4.318 4.318 0 0 1 -.79.079z"/><path d="m294.16 208.15a4.065 4.065 0 0 1 -2.83-1.17 4.008 4.008 0 0 1 0-5.66 3.694 3.694 0 0 1 .61-.5 4.143 4.143 0 0 1 .69-.37 4.762 4.762 0 0 1 .75-.23 4 4 0 0 1 4.78 3.93 4.129 4.129 0 0 1 -.08.78 4.053 4.053 0 0 1 -.23.75 3.828 3.828 0 0 1 -.37.69 3.914 3.914 0 0 1 -3.32 1.78z"/><path d="m294.16 298.18a4.127 4.127 0 0 1 -.78-.079 3.9 3.9 0 0 1 -.75-.231 4.1 4.1 0 0 1 -.69-.36 3.694 3.694 0 0 1 -.61-.5 4.279 4.279 0 0 1 -.5-.61 4.143 4.143 0 0 1 -.37-.69 3.809 3.809 0 0 1 -.22-.75 3.387 3.387 0 0 1 -.08-.78 4.019 4.019 0 0 1 1.17-2.829 3.6 3.6 0 0 1 .61-.491 3.519 3.519 0 0 1 .69-.37 3.973 3.973 0 0 1 .75-.23 4.093 4.093 0 0 1 1.56 0 4.211 4.211 0 0 1 .75.23 3.828 3.828 0 0 1 .69.37 4 4 0 0 1 .61 6.15 4.161 4.161 0 0 1 -.61.5 4.524 4.524 0 0 1 -.69.36 4.134 4.134 0 0 1 -.75.231 4.212 4.212 0 0 1 -.78.079z"/></g><path d="m64.145 168.477a3.982 3.982 0 0 1 -2.369-.78 35.352 35.352 0 0 1 -12.9-17.294 4 4 0 0 1 7.577-2.568 27.508 27.508 0 0 0 10.07 13.421 4 4 0 0 1 -2.376 7.221z" fill="#fff"/><path d="m51.174 139.6a3.941 3.941 0 0 1 -.458-.025 4 4 0 0 1 -3.521-4.428c.117-1.023.245-1.646.269-1.76a4 4 0 0 1 7.827 1.657c-.016.08-.082.435-.147 1.01a4 4 0 0 1 -3.97 3.546z" fill="#fff"/></svg>