<svg id="flat" height="512" viewBox="0 0 340 340" width="512" xmlns="http://www.w3.org/2000/svg"><g fill="#3c3c4f"><path d="m41.987 293.605v21.743h6.708v-20.397z"/><path d="m41.987 277.066h24.071v17.885h-24.071z"/><path d="m93.752 274.463v21.744h6.708v-20.398z"/><path d="m93.752 257.924h24.071v17.885h-24.071z"/><path d="m225.752 274.463v21.744h6.708v-20.398z"/><path d="m225.752 257.924h24.071v17.885h-24.071z"/><path d="m278.987 293.605v21.743h6.708v-20.397z"/><path d="m278.987 277.066h24.071v17.885h-24.071z"/></g><path d="m151.63 43.282 18.118-33.282 18.118 33.282a48.04 48.04 0 0 1 -36.236 0z" fill="#ffe8da"/><path d="m187.866 43.282h-36.236l-7.45 247.643h51.137z" fill="#ffe8da"/><path d="m187.866 43.282-18.118-33.282 6.319 33.282 1.69 195.902-32.258 7.897-1.319 43.844h51.137z" fill="#e2a78d"/><path d="m18.122 330h78.821s114.994-1.039 116.326-17.6c2.121-26.388-68.9-27.6-68.9-27.6-61.31 5.75-109.776 30.631-127.421 40.822a2.346 2.346 0 0 0 1.174 4.378z" fill="#93d891"/><path d="m229.454 168.4h93.01a1.763 1.763 0 0 0 1-3.218l-.187-.131a19.623 19.623 0 0 1 -7.673-12.376c-.863-4.43-4.2-12.3-17.014-12.122 0 0 1-22.829-20.572-22.829s-20.07 21.324-20.07 21.324-17.31-4.014-21.073 15.805c0 0-1.8 5.57-8.45 10.355a1.763 1.763 0 0 0 1.029 3.192z" fill="#9bbfea"/><path d="m21.529 105.177h102.324a1.764 1.764 0 0 0 .935-3.26l-.139-.089a19.475 19.475 0 0 1 -8.426-12.377c-.947-4.43-4.609-12.3-18.682-12.121 0 0 1.1-22.83-22.589-22.83s-22.038 21.325-22.038 21.325-19.008-4.014-23.14 15.8c0 0-1.967 5.535-9.212 10.311a1.763 1.763 0 0 0 .967 3.241z" fill="#9bbfea"/><path d="m195.389 315.085-98.446 14.915h224.431a2.346 2.346 0 0 0 1.175-4.378c-20.018-11.561-79.7-42.029-152.8-42.029-8.665 0-17.139.433-25.384 1.207.01 0 23.627 2.666 52.9 21.64a4.734 4.734 0 0 1 -1.876 8.645z" fill="#68ad64"/></svg>