<svg id="Flat" height="512" viewBox="0 0 340 340" width="512" xmlns="http://www.w3.org/2000/svg"><path d="m262.229 225.383a19.359 19.359 0 0 1 -19.338-19.338v-43.6a4.5 4.5 0 0 1 9 0v43.6a10.338 10.338 0 1 0 20.675 0v-53.279a4.5 4.5 0 0 1 9 0v53.279a19.359 19.359 0 0 1 -19.337 19.338z" fill="#7e893d"/><path d="m69.15 236.727s18.965 5.577 27.541-9.637a36.476 36.476 0 0 0 1.067-7.536v-59.938a5 5 0 0 0 -10 0v59.938a17.252 17.252 0 0 1 -17.233 17.233c-.464 0-.92-.033-1.376-.07z" fill="#7e893d"/><path d="m96.965 226.067c-8.2 14.406-27.815 10.66-27.815 10.66v-.01a17.245 17.245 0 0 1 -15.856-17.163v-49.74a5 5 0 0 0 -10 0v49.74a27.231 27.231 0 0 0 53.672 6.513z" fill="#c3cc6e"/><path d="m264.972 328.5s-2.449-41.206-47.039-30.031c0 0 25.422 6.706 23.52 30.031z" fill="#698c52"/><path d="m189.04 192.354s50.281 4.414 49.693-38.545h18.277s6.179 40.017-36.486 52.669c0 0-25.893 7.944-29.424 35.309h-6.179v-49.433z" fill="#824561"/><path d="m261.074 77.1s50.51 5.4 45.5 42.8c0 0 .161.134.445.391l6.277 9.985a21.934 21.934 0 0 1 -15.912 27.311 80.205 80.205 0 0 1 -18.957 2.027h-92.154v-43.182z" fill="#42493e"/><path d="m193.452 174.753v117.716s1.283 27.993 13.69 36.029h-92.842s39.787-12.071 39.787-37.741v-56.246c-.165-1.613-.349-3.085-.561-4.438-.548-3.5-3.028-6.7-6.141-9.432a36.741 36.741 0 0 0 -24.207-8.95c-14.771-.019-44.495-4.648-47.377-41.151h20.536s2.139 25.669 34.225 23.958h14.332a10.911 10.911 0 0 0 10.872-10l.038-19.094z" fill="#ce6581"/><path d="m155.8 183.589c0 .307-.021.609-.046.91 18.4-.921 30.509-5.66 37.694-9.746v-43.572l-51.98-10.268-1.922 24.387 16.254 20.106z" fill="#824561"/><path d="m67.131 120.288s-18.893-26.219 7.326-50.51c0 0-1.157-31.617 33.545-33.931 0 0 11.181-34.7 54.751-15.808 0 0 28.147-20.435 51.281 1.928 0 0 52.052-5.838 42.8 43.928 0 0 20.279 10.553 14.692 33.37-4.284 17.5-21.63 28.525-39.133 24.264q-.309-.077-.622-.157s-9.253 15.038-40.1 15.038h-78.657z" fill="#878e73"/><path d="m123.583 194.405c-25.409-2.075-27.246-23.865-27.246-23.865h-20.537a52.043 52.043 0 0 0 4.122 17.218c7.2 2.893 20.93 6.665 43.66 6.665z" fill="#824561"/><path d="m140.349 116.631c-6.49-4.349-14.629-6.553-24.192-6.553a63.124 63.124 0 0 0 -8.569.59c-5.075-4.025-15.5-10.854-27.8-10.854a23.6 23.6 0 0 0 -10.468 3.056c-3.187 1.915-5.793 4.141-7.136 6.715a39.1 39.1 0 0 0 4.947 10.7l45.883 18.122h41.529c-2.606-11.675-8.889-18.221-14.194-21.776z" fill="#42493e"/><path d="m150.18 176.462h-123.464c-8.4 0-13.549-9.52-8.656-16.348 2.224-3.1 5.737-5.729 11.245-6.831 0 0 2.234-21.441 29.929-20.1 0 0-3.574-19.143 13.4-24.313s32.61 10.33 32.61 10.33 40.2-9.7 42.437 27.826c0 0 14.6 2.912 12.914 20.045a10.452 10.452 0 0 1 -10.415 9.391z" fill="#878e73"/><path d="m217.933 277.17s37.116 5.873 38.056 51.328h35.236s5.1-17.5 21.987-18.44 16.891-9.866 16.891-18.323c0 0-3.429 4.45-13.125 5.738a37.154 37.154 0 0 1 -4.968.291c-4.255-.008-18.715.573-25.483 8.535 0 0-2.349-34.3 10.336-53.559 0 0-28.863 4.231-29.8 43.805-.003 0-10.605-31.12-49.13-19.375z" fill="#97c17c"/><g fill="#42493e"><path d="m53.7 155.048a1.5 1.5 0 0 0 2.939-.109c1.651-9.024 7.587-12.8 7.587-12.8-4.635-4.73-4.988-8.956-4.988-8.956a46.426 46.426 0 0 0 -5.713.071c.207 5.968 2.627 8.366 2.627 8.366-3.46 4.499-3.376 9.548-2.452 13.428z"/><path d="m95.515 38.368c1.006 11.11 5.511 18.577 9.718 23.22a2.116 2.116 0 0 0 3.572-2.118 43.9 43.9 0 0 1 -.8-23.623 44.855 44.855 0 0 0 -12.49 2.521z"/><path d="m226.121 85.988a20.413 20.413 0 0 1 -16.182 1.087 6.055 6.055 0 0 0 -5.337.887c-22.359 15.648-36.8 5.68-42.055.559a5.809 5.809 0 0 0 -5.595-1.45c-15.468 4.265-22.528-1.374-25.736-6.951a1.662 1.662 0 0 0 -3.116.886c.62 8.711 7.235 17.912 25.674 16.665a5.456 5.456 0 0 1 4.113 1.446c5.9 5.55 26.927 21.756 51.142-1.722a7.037 7.037 0 0 1 4.8-1.969c3.955-.056 11.168-1 14.765-6.736a1.894 1.894 0 0 0 -2.473-2.702z"/><path d="m256.833 65.9s-3.672 8.77-11.067 13.015a1.325 1.325 0 0 0 .705 2.463c5.635-.136 13.779-1.516 19.7-7.476a33.109 33.109 0 0 0 -9.338-8.002z"/></g><path d="m296.863 252.74s-28.863 4.231-29.8 43.805a83.522 83.522 0 0 1 6.6 22.7 1.336 1.336 0 0 0 2.531.418c2.051-4.258 5.529-10.094 10.332-13.36.001-.003-2.348-34.303 10.337-53.563z" fill="#698c52"/><path d="m145.759 309.943a59.357 59.357 0 0 1 -13.126 10.26c2.169 3.657 6.428 6.228 11.658 8.3h27.28c-17.247-4.811-23.702-14.279-25.812-18.56z" fill="#824561"/><path d="m10.1 328.5s-3.8-24.921 21.308-35.509c0 0 .48-17.028 22.367-23.324a27.3 27.3 0 0 1 22.846 3.251 22.874 22.874 0 0 1 10.147 16.443s37.184-7.077 47.6 27.784a13.729 13.729 0 0 0 2.416 4.751 28.77 28.77 0 0 0 8.066 6.6z" fill="#97c17c"/></svg>