<svg id="Flat" height="512" viewBox="0 0 340 340" width="512" xmlns="http://www.w3.org/2000/svg"><path d="m134.562 213.315s-21.632-14.195-36.5 3.38l-41.236 67.6s-30.426 1.127-30.426 27.941h42.591z" fill="#7f4f4f"/><path d="m288.24 127.511v30.289s.469-.028 1.271 0a20.875 20.875 0 0 1 19.961 21.349l-2.363 116.7s23.339.5 22.843 16.387h-29.617a11.671 11.671 0 0 1 -11.658-11.11l-3.437-71.321s-17.856 21.353-26.8 32.774l-5.537 19.366-42.63-31.781 22.346-44.194s1.224-22.456 24.777-41.823a21.913 21.913 0 0 0 8-16.921v-12.763a22.053 22.053 0 0 1 22.844-6.952z" fill="#a57474"/><path d="m211.971 246.817-1.693 3.347 42.63 31.781 3.169-11.083z" fill="#7f4f4f"/><path d="m183.088 229.9 69.82 52.05s2.986 22.775-16.2 30.291h-33.43l-40.378-32.776a10.356 10.356 0 0 1 -2.264-13.516z" fill="#f96262"/><path d="m183.088 229.9-25.609-19.1a23.861 23.861 0 0 0 -34.047 5.791l-49.721 73.752a11.941 11.941 0 0 1 -9.722 5.249c-7.1.119-18.146 2.581-18.787 16.644h34.706a11.568 11.568 0 0 0 11.5-10.33l.787-7.313s18.837-16.946 34.39-26.845c11.284-7.183 12.605-23 12.605-23l23.21 18.367z" fill="#a57474"/><path d="m12.022 312.236h317.937a0 0 0 0 1 0 0v1.283a17.984 17.984 0 0 1 -17.983 17.981h-281.97a17.984 17.984 0 0 1 -17.984-17.984v-1.283a0 0 0 0 1 0 0z" fill="#95bcf4"/><g fill="#ff7a4e"><circle cx="62.092" cy="60.553" r="29.517"/><path d="m64.311 9.178a3.424 3.424 0 0 0 -.691-.37 3.9 3.9 0 0 0 -.75-.231 4.011 4.011 0 0 0 -3.61 1.091 4.006 4.006 0 0 0 0 5.659 4.746 4.746 0 0 0 .61.5 5.379 5.379 0 0 0 .691.37 5.037 5.037 0 0 0 .75.221 3.885 3.885 0 0 0 1.559 0 4.74 4.74 0 0 0 .75-.221 4.841 4.841 0 0 0 .691-.37 4.192 4.192 0 0 0 .609-.5 4.006 4.006 0 0 0 0-5.659 3.573 3.573 0 0 0 -.609-.49z"/><path d="m65.78 107.077a3.447 3.447 0 0 0 -.36-.689 4.209 4.209 0 0 0 -.5-.611 3.834 3.834 0 0 0 -.609-.5 4.306 4.306 0 0 0 -.691-.37 4.635 4.635 0 0 0 -.75-.22 3.992 3.992 0 0 0 -4.78 3.92 4 4 0 1 0 8 0 3.977 3.977 0 0 0 -.08-.78 3.832 3.832 0 0 0 -.23-.75z"/><path d="m110.14 56.548a3.991 3.991 0 0 0 -2.82 1.179 3.54 3.54 0 0 0 -.5.6 3.862 3.862 0 0 0 -.37.69 4.478 4.478 0 0 0 -.23.75 3.9 3.9 0 0 0 0 1.571 4.076 4.076 0 0 0 .23.739 3.8 3.8 0 0 0 .87 1.3 4 4 0 1 0 2.82-6.83z"/><path d="m17.73 59.017a3.862 3.862 0 0 0 -.37-.69 4 4 0 1 0 -.49 5.051 4.073 4.073 0 0 0 .49-.6 3.571 3.571 0 0 0 .37-.7 3.852 3.852 0 0 0 .23-.739 3.849 3.849 0 0 0 0-1.571 4.215 4.215 0 0 0 -.23-.751z"/><path d="m98.291 23.247a4.58 4.58 0 0 0 -.69-.369 3.851 3.851 0 0 0 -.75-.221 4.1 4.1 0 0 0 -2.31.221 4.395 4.395 0 0 0 -.69.369 4.18 4.18 0 0 0 -.611.5 4.029 4.029 0 0 0 -1.17 2.83 4.2 4.2 0 0 0 .08.78 4.053 4.053 0 0 0 .23.75 4.625 4.625 0 0 0 .36.691 4.245 4.245 0 0 0 .5.6 3.481 3.481 0 0 0 .611.5 3.645 3.645 0 0 0 .69.37 3.791 3.791 0 0 0 .75.23 3.842 3.842 0 0 0 1.56 0 3.875 3.875 0 0 0 .75-.23 3.771 3.771 0 0 0 .69-.37 3.543 3.543 0 0 0 .609-.5 4.114 4.114 0 0 0 .5-.6 4.446 4.446 0 0 0 .36-.691 3.982 3.982 0 0 0 -.86-4.36 4.272 4.272 0 0 0 -.609-.5z"/><path d="m31.811 93a4.575 4.575 0 0 0 -.371-.689 4.913 4.913 0 0 0 -.5-.611 3.667 3.667 0 0 0 -.609-.489 3.5 3.5 0 0 0 -.691-.37 3.768 3.768 0 0 0 -.75-.231 4.129 4.129 0 0 0 -1.559 0 3.959 3.959 0 0 0 -.75.231 3.742 3.742 0 0 0 -.691.37 4.086 4.086 0 0 0 -.61.489 4.146 4.146 0 0 0 -.489.611 3.825 3.825 0 0 0 -.371.689 4.053 4.053 0 0 0 -.23.75 4.138 4.138 0 0 0 -.08.78 4 4 0 0 0 1.78 3.33 4.455 4.455 0 0 0 .691.37 4 4 0 0 0 .75.22 3.38 3.38 0 0 0 .779.08 3.985 3.985 0 0 0 3.92-4.78 4.092 4.092 0 0 0 -.219-.75z"/><path d="m99.76 93a4.426 4.426 0 0 0 -.36-.689 4.913 4.913 0 0 0 -.5-.611 4.067 4.067 0 0 0 -3.609-1.09 4.059 4.059 0 0 0 -1.44.6 4.044 4.044 0 0 0 -.611.489 5.1 5.1 0 0 0 -.5.611 4.6 4.6 0 0 0 -.36.689 4.053 4.053 0 0 0 -.23.75 4.222 4.222 0 0 0 -.08.78 3.99 3.99 0 0 0 1.781 3.33 4.4 4.4 0 0 0 .69.37 3.769 3.769 0 0 0 .75.22 3.842 3.842 0 0 0 1.56 0 3.849 3.849 0 0 0 .75-.22 4.586 4.586 0 0 0 .69-.37 4.078 4.078 0 0 0 .609-.5 3.989 3.989 0 0 0 .86-4.359z"/><path d="m30.331 23.247a4.114 4.114 0 0 0 -.691-.369 3.811 3.811 0 0 0 -.75-.221 3.992 3.992 0 0 0 -4.78 3.92 4.113 4.113 0 0 0 .08.78 4.053 4.053 0 0 0 .23.75 3.842 3.842 0 0 0 .371.691 3.145 3.145 0 0 0 .5.6 3.078 3.078 0 0 0 .6.5 3.683 3.683 0 0 0 .691.37 4.021 4.021 0 0 0 1.529.31 3.969 3.969 0 0 0 .78-.08 3.832 3.832 0 0 0 .75-.23 3.451 3.451 0 0 0 .691-.37 3.2 3.2 0 0 0 .609-.5 4 4 0 0 0 0-5.65 3.781 3.781 0 0 0 -.61-.501z"/></g><path d="m249.341 215.565a40.5 40.5 0 0 0 16.143-4.03 4 4 0 1 0 -3.338-7.269c-13.232 6.073-29.522 1.7-29.522 1.7l-3.252 6.431c3.313 1.483 10.194 3.634 19.969 3.168z" fill="#7f4f4f"/><path d="m219.347 232.228 9.8 5.635a4 4 0 0 0 3.967-6.947l-10.152-5.838z" fill="#7f4f4f"/><path d="m280.775 200.561-7.453 43.621c6.42-7.8 11.918-14.377 11.918-14.377l-.821-28.986a1.836 1.836 0 0 0 -3.644-.258z" fill="#7f4f4f"/><path d="m288.24 127.511a22.051 22.051 0 0 0 -22.843 6.952v11.762l22.843 7.075z" fill="#7f4f4f"/><path d="m272.82 60.288s-24.868 1.881-30.934 30.9a243.021 243.021 0 0 0 -5.134 34.063 17.645 17.645 0 0 0 21.557 18.441 26.3 26.3 0 0 0 15.179-9.522s16.582 9.76 23.73-9.943c0 0 16.157-3.025 19.41-25.157 0-.005 7.391-41.727-43.808-38.782z" fill="#a57474"/><path d="m316.628 99.065s7.391-41.722-43.808-38.777a35.363 35.363 0 0 0 -25.92 17.442 34.935 34.935 0 0 0 22.977 12.792 6.386 6.386 0 0 1 5.55 6.711c-.436 6.2-.2 15.7 4.137 22.262a15.585 15.585 0 0 1 2.808-2.646c6.5-4.35 13.486-.927 14.811 7.148q.018.111.036.225s16.156-3.022 19.409-25.157z" fill="#232935"/><path d="m236.71 108.223h22.347a0 0 0 0 1 0 0v4.788a11.173 11.173 0 0 1 -11.173 11.173 11.173 11.173 0 0 1 -11.174-11.174v-4.788a0 0 0 0 1 0 .001z" fill="#232935" transform="matrix(.976 .216 -.216 .976 30.931 -50.773)"/><path d="m238.5 106.77 41.217 9.011.821-4.375-41.026-9.2a2.276 2.276 0 0 0 -2.718 1.713l-.028.118a2.279 2.279 0 0 0 1.734 2.733z" fill="#232935"/><path d="m162.4 263.115 15.07-24.2-10.763 7.826a6.8 6.8 0 0 1 -7.591.273l-19.525-12.15a3.789 3.789 0 0 0 -5.737 2.567c-1.244 7.085-4.6 18.922-13.441 24.475l-30.977 27.383a8.519 8.519 0 0 0 -2.9 6.111c-.151 5.01-2.221 14.114-14.792 16.836h8.167a11.568 11.568 0 0 0 11.5-10.33l.787-7.313s18.837-16.946 34.39-26.845c11.284-7.183 12.605-23 12.605-23z" fill="#7f4f4f"/><path d="m236.705 312.236c19.189-7.516 16.2-30.291 16.2-30.291l-13.449-10.026c-.83 6.4-4 19.19-16.076 22.741a20.581 20.581 0 0 1 -18.349-3.746l-34.043-26.533-5.7-5.9-4.652 7.471a10.356 10.356 0 0 0 2.264 13.516l40.374 32.771z" fill="#d34242"/></svg>