<svg id="icon" height="512" viewBox="0 0 340 340" width="512" xmlns="http://www.w3.org/2000/svg"><path d="m10 169.778h320v152.078h-320z" fill="#8c4967"/><path d="m134.568 231.719v-6.763a34.191 34.191 0 0 1 2.694-13.432c3.1-7.263 9.292-18.186 20.609-26.29l3.2 11.195s7.083-3.427 22.161-2.742l-3.655 8.453s18.049 4.8 20.333 22.618c0 0 3.662 27.362-16.674 39.726h-25.594s-.573-.181-1.543-.574a34.686 34.686 0 0 1 -21.531-32.191z" fill="#7b8391"/><path d="m189.659 259.354c8.3-12.647 4.459-32.846 4.459-32.846-4.184-17.248-21.954-19.16-21.954-19.16v-6.985a28.487 28.487 0 0 0 -17.962 7.185l-2.595-5.189c-4.459 4.727-6.926 11.446-8.29 17.434a60.272 60.272 0 0 0 0 26.189 55.208 55.208 0 0 0 4.4 13.021 34.078 34.078 0 0 0 8.385 4.907c.97.393 1.543.574 1.543.574h25.592a32.022 32.022 0 0 0 6.422-5.13z" fill="#373d4c"/><path d="m35.075 33.626h269.85v120.67h-269.85z" fill="#fff"/><path d="m282.067 195.85s-28.826-5.766-42.828 23.335l11.531 3.569s-8.785 5.323-6.589 22.566l7.962-2.6s-.726 17.649 20.413 21.767l30.592 1.027s19-12.009 11.315-37.266l8.785 1.462s1.372-24.523-20.591-32.759l3.3-9.884a24.253 24.253 0 0 0 -23.89 8.783z" fill="#fc9f93"/><path d="m69.167 194.856c-7.667-6.667-16 0-16 0s-8.334-6.667-16 0c0 0-10.334 6-9.334 26.667v47.384a8.834 8.834 0 0 0 8.834 8.834h41.833v-56.218c1-20.667-9.333-26.667-9.333-26.667z" fill="#ffdc6a"/><path d="m66.308 209.663c-6.3-5.476-13.141 0-13.141 0s-6.845-5.476-13.142 0c0 0-8.488 4.928-7.666 21.9v38.919a7.256 7.256 0 0 0 7.255 7.256h34.36v-46.172c.826-16.975-7.666-21.903-7.666-21.903z" fill="#ea8039"/><path d="m160.448 264.189h18.372a33.98 33.98 0 0 1 33.98 33.98v23.686a0 0 0 0 1 0 0h-86.332a0 0 0 0 1 0 0v-23.685a33.98 33.98 0 0 1 33.98-33.98z" fill="#f76f8c"/><g fill="#373d4c"><path d="m10 18.144h40.349v151.634h-40.349z"/><path d="m50.349 18.144h239.301v22.313h-239.301z" transform="matrix(-1 0 0 -1 340 58.6)"/><path d="m50.349 147.466h239.301v22.313h-239.301z" transform="matrix(-1 0 0 -1 340 317.244)"/><path d="m289.651 18.144h40.349v151.634h-40.349z"/></g><path d="m43.98 264.189h18.373a33.98 33.98 0 0 1 33.98 33.98v23.686a0 0 0 0 1 0 0h-86.333a0 0 0 0 1 0 0v-23.685a33.98 33.98 0 0 1 33.98-33.981z" fill="#f76f8c"/><path d="m45.735 275.205h14.865a27.489 27.489 0 0 1 27.489 27.489v19.161a0 0 0 0 1 0 0h-69.843a0 0 0 0 1 0 0v-19.16a27.489 27.489 0 0 1 27.489-27.49z" fill="#bc3552"/><path d="m162.569 275.205h14.863a27.489 27.489 0 0 1 27.489 27.489v19.161a0 0 0 0 1 0 0h-69.841a0 0 0 0 1 0 0v-19.16a27.489 27.489 0 0 1 27.489-27.49z" fill="#bc3552"/><path d="m308.923 260.174v-.147c6.871-27.583-7.873-37.507-7.873-37.507l13.418-1.8c-6.205-17.02-20.224-17.02-20.224-17.02l1.2-9.013c-9.813 2-12.817 11.015-12.817 11.015-20.828-6.208-32.044 10.415-32.044 10.415l13.218 7.009c-12.617 3.2-14.219 14.019-14.219 14.019l9.212-3.4c-3.344 11.705 1.271 22.481 3.691 27 .289.177.589.349.894.519l.252.138c.288.156.581.309.883.458.112.055.229.109.344.163.468.223.957.436 1.46.641.225.092.446.186.678.273s.448.16.673.239c.286.1.573.2.87.294.213.068.431.134.65.2q.52.155 1.063.3c.188.05.374.1.567.147.563.138 1.138.268 1.737.385l30.591 1.027a28.243 28.243 0 0 0 5.776-5.355z" fill="#ce6046"/><path d="m277.647 264.189h18.373a33.98 33.98 0 0 1 33.98 33.981v23.686a0 0 0 0 1 0 0h-86.333a0 0 0 0 1 0 0v-23.686a33.98 33.98 0 0 1 33.98-33.98z" fill="#f76f8c"/><path d="m279.4 275.205h14.863a27.489 27.489 0 0 1 27.489 27.489v19.161a0 0 0 0 1 0 0h-69.839a0 0 0 0 1 0 0v-19.16a27.489 27.489 0 0 1 27.487-27.49z" fill="#bc3552"/></svg>