<svg id="flat" height="512" viewBox="0 0 500 500" width="512" xmlns="http://www.w3.org/2000/svg"><path d="m165.286 100.076c-10.492-24.108 4.932-52.366 4.932-52.366s23.443-7.441 28.987-4.776a116.315 116.315 0 0 1 43.541 36.112c-47.172-18.223-70.257 8.092-77.46 21.03z" fill="#4f424c"/><path d="m269 73.828c-9.1-36.184-52.582-58.49-76.4-45.445-6.993 8-7.124 19.9-.544 26.84 13.085 8.363 22.722 23.161 29.861 40.937 23.959 19.74 44.539 3.388 47.083-22.332z" fill="#9ccca0"/><path d="m260.018 89.618c-9.633 9.76-25.21 11.456-38.118 6.546a227.434 227.434 0 0 1 10.755 36.222c24.9 28.083 37.715-12.6 41.455-26.331a153.878 153.878 0 0 0 -5.11-32.227 37.988 37.988 0 0 1 -8.982 15.79z" fill="#769974"/><path d="m191.163 48.572a62.357 62.357 0 0 1 1.431-20.187c-8.879 3.95-16.553 10.824-22.376 19.583a46.214 46.214 0 0 1 21.818 7.274c-.394-2.216-.69-4.442-.873-6.67z" fill="#769974"/><path d="m243.949 238.952s8.9-1.129 14.737-4.372c9.558-33.033 18.144-86.12 15.422-128.525-6.486 15.255-23.064 38.783-41.456 26.332 9.354 43.113 10.019 89.913 11.297 106.565z" fill="#4f424c"/><path d="m238.32 256.453c.677 5.811 9.58 130.665 2.52 202.683l24 11.6s.236-139.012-8.21-202.721z" fill="#bfcc7f"/><path d="m260.765 286.423c-.819-11.494-1.79-21.9-2.94-30.575l-21.91.21c.677 5.811 1.312 11.054 1.69 14.146.773 3.8-3.1 6.369-2.686 10.107.892 16.368 7.3 101.1 7.3 101.1-2.5 2.249-3.429 4.129-2.82 7.954 3 28.195.434 59-4.783 86.828h24.044c-.419-9.008-7.462-16.8-9.4-25.79-9.683-45.032 15.844-67.616 14.188-80.465-2.9 2.093-5.51 5.525-8.15 8.823a5.493 5.493 0 0 1 -9.715-2.536c-1.932-12.385-1.177-35.009-.7-45.175a4.376 4.376 0 0 1 5.3-4.075c4.937 1.069 11.991 2.525 13.864 2.542-.014-.382-19.122-17.472-19.547-21.155-.646-5.618-3.159-28.597 16.265-21.939z" fill="#919951"/><path d="m258.686 215.956c5.765-40.13 35.391-73.431 70.9-91.119 69.846-35.62 133.609-6.407 156.383 25.325a2.78 2.78 0 0 1 -2.969 4.291c-98.816-25.368-136.632 18.283-157.258 41.287z" fill="#4f424c"/><path d="m236.638 198.776c-15.272-18.462-50.957-35.272-73.936-42.139-17.8-5.035-36.825-6.6-54.864-2.5-19.149 4.95-38.15 13.339-53.551 25.785a2.78 2.78 0 0 0 2.407 4.835 148.475 148.475 0 0 1 49.374-2.768 2.688 2.688 0 0 0 2.79-1.635c1.432-3.147 3.031-6.586 5.9-8.655a4.605 4.605 0 0 1 6.478 1.064 13.286 13.286 0 0 1 2.69 7.557c.112 1.959-.468 4.725 2.053 5.329a148.044 148.044 0 0 1 63.333 34.385l52.959 6.7z" fill="#4f424c"/><path d="m391.136 393.51a2.785 2.785 0 0 0 5.245 1.479c45.453-83.862 9.067-165.708-33.713-206.156 0 0-51.435-.685-96.626 37.383 0 0 76.2-16.7 108.075 75.907a2.694 2.694 0 0 0 2.453 1.824q9.484.315 18.953.955c-2.843 6.75-9.4 12.442-12.42 14.808a2.682 2.682 0 0 0 -.879 3.019c2.539 7.122 11.106 34.26 8.912 70.781z" fill="#4f424c"/><path d="m167.632 229.94c-33.938 37.43-45.928 92.766-30.476 140.878a2.8 2.8 0 0 0 5.461-.675c2.077-42.083 20.9-84.4 52.659-112.572 13.133-10.582 29.9-15.929 46.68-17.6z" fill="#4f424c"/><path d="m191.7 108.854c-31.209-27.095-86.919-52.5-136.266-36.761 0 0-16.523 11.823 2.739 24.8s41.527 7.488 41.527 7.488a84.108 84.108 0 0 1 7.707-5.446q-.354 3.771-.774 7.536l73.8 44.556 29.973-7.275c-4.836-12.933-10.648-24.958-18.706-34.898z" fill="#9ccca0"/><path d="m181.406 100.594c1.689 3.36 13.443 15.1 14.661 18.653 1.737 5.074 2.756 11.328-.884 15.266-3.9 4.221-10.738 3.264-16.238 1.593-24.906-7.692-47.107-22.6-72.321-29.636q-1.078 9.662-2.6 19.269c56.853 19.811 93 47.346 115.538 71.53 14.7 14.15 28.408 7.777 21.881-13.907-8.89-24.706-31.043-64.562-60.037-82.768z" fill="#769974"/><path d="m99.7 104.386c-13.6-4.636-50.224-12.513-42.82-32.662-19.023 4.867-37.48 13.145-49.469 23.19a1.738 1.738 0 0 0 1.133 3.064 200.655 200.655 0 0 1 80.5 16.512 83.311 83.311 0 0 1 10.656-10.104z" fill="#769974"/><path d="m231.229 200.369c-4.584.731-8.28-.793-11.664-3.1 27.169 29.159 34.545 53.446 34.545 53.446s.936-34.534-12.723-67.515c.513 7.153-2.326 15.921-10.158 17.169z" fill="#4f424c"/><path d="m445.833 29.485c-73.128-27.485-149.417 50.202-175.292 116.972l6.61 10.208 27.993-12.913 50.509-62.4q.318-4.1.987-8.166a55.54 55.54 0 0 1 4.678 4.414l77.282-19.112s14.133-15.842 7.233-29.003z" fill="#9ccca0"/><path d="m346.232 110.748c10.936-8.2 8.731-17.512 9.428-29.392-16.716 11.706-31.084 27.177-44.548 42.716-10.162 12.076-23.355 26.218-40.56 22.39-6.672 15.68-13.432 33.615-4.121 46.469q10.8 1.975 21.272-15.031c15.29-26.263 34.477-49.8 58.529-67.152z" fill="#769974"/><path d="m482.942 71.616a1.55 1.55 0 0 0 1.794-2.1c-8.77-21.1-22.986-33.552-38.906-40.019-4.731 27.924-44.861 29.391-66.246 38.762a112.962 112.962 0 0 0 -18.273 9.355 57.1 57.1 0 0 1 9.965 14.5 137.937 137.937 0 0 1 111.666-20.498z" fill="#769974"/><path d="m287.711 177.905c-14.891 13.885-29.045 7.454-23.588-14.258-8.533 23.07-12.183 49.211-11.606 74.23l10.44-7.3c6.831-18.068 15.379-34.377 24.754-52.672z" fill="#4f424c"/><path d="m385.7 228.9a53.378 53.378 0 0 1 -27.4-18.942 131.409 131.409 0 0 1 .209-15.121 48.608 48.608 0 0 0 -9.961 12.7s-24.823 5.2-30.355-10.462 5.089-22.212 5.089-22.212c40.518-16.677 92.357-21.616 129.868 4.137 30.663 22.121 43.522 63.2 39.377 100.21l-15.309 12.2-31.366-29.051-5.421-12.56q2.12-8.692 4.151-17.407a48.511 48.511 0 0 0 -13.513 9.381z" fill="#9ccca0"/><path d="m359.451 220.785a19.057 19.057 0 0 0 10.886 14.022c11.873 5.431 34.229 16.26 45.373 25.571 4.7-6.471 9.605-13.093 15.367-18.588-24.105-21.026-42.224-26.014-72.769-31.712a86.939 86.939 0 0 0 1.143 10.707z" fill="#769974"/><path d="m342.533 228.9a49.146 49.146 0 0 1 6.027-21.36c-15.764-4.245-31.254-14.211-25.273-32.672a160.679 160.679 0 0 0 -30.876 17.313c-17.185 15.949-6.094 33.08 19.664 32.809a132.481 132.481 0 0 1 30.458 3.91z" fill="#769974"/><path d="m492.522 279.213c-16.574 6.031-39.6-19.485-52.1-29.407q-2.359 9.684-4.823 19.343a5.626 5.626 0 0 0 2.265 6.008c20.458 14.263 31.571 38.735 41.536 61.843 5.647-18.319 11.163-38.156 13.122-57.787z" fill="#769974"/><path d="m268.374 213.805c-8.179 9.22-15.215 19.575-19.753 31.035 16.468-13.076 42.534-19.852 63.454-19.846-8.109-1.954-16.142-5.348-21.672-12.615-3.088-4.058-2.268-12.166 2.014-20.193a146.017 146.017 0 0 0 -24.043 21.619z" fill="#4f424c"/><path d="m39.542 295.025c4.7-83.451 117.685-102.1 133.438-99.014 16.732 3.531 20.346 22.5 20.346 22.5l-66.8 30.221-23.183 4.5a52.4 52.4 0 0 0 -3.06-4.64 51.3 51.3 0 0 0 -.452 6.983l-9.292 16.191-43.894 32.4z" fill="#9ccca0"/><path d="m90.93 283.535c9.018-7.115 8.745-18.776 8.906-27.958-17.26 9.784-40.7 44.146-60.293 39.448-1.419 13.067-1.037 26.588.105 39.575a1.68 1.68 0 0 0 3.17.612c10.826-21.012 29.372-36.89 48.112-51.677z" fill="#769974"/><path d="m215.612 230.334c11.459-18.489-11.266-28.653-11.266-28.653a110.469 110.469 0 0 0 -31.367-5.669c8.782 12.624-1.4 27.251-13.744 32.815-6.554 3.272-13.71 5.109-20.659 7.425a154.6 154.6 0 0 0 -35.23 16.982c3.962 6.612 8.18 15.475 8.18 15.475 16.937-12.853 37.96-21.82 59.9-26.024-.001 0 27.244-3.673 44.186-12.351z" fill="#769974"/><g fill="#4f424c"><path d="m252.681 251.381a2.663 2.663 0 0 0 3.616-3.425c-9.105-22.48-29.111-38.729-51.96-46.25 6.248 3.441 8.922 9.343 9.483 15.678 1.2 13.562-24.545 19.961-42.394 25.309 29.593-2.707 56.987-3.02 81.255 8.688z"/><path d="m237.612 457.58c-.856 6.306-1.86 12.533-3 18.613h42.539c-9.622-47.13-10.74-99.067-8.307-147.236.2-3.883-.523-9.088-4.132-9.565a868.268 868.268 0 0 1 10.779-104.151l-42.311 14.638c.4 5.6 1.624 16.65 2.735 26.179a122.379 122.379 0 0 1 13.034 7.679 93.112 93.112 0 0 0 -7.4 8.089 1.653 1.653 0 0 0 2.337 2.336c3.065-2.444 6.058-5.054 9.009-7.719 5.323 3.472 5.527 8.516 4.935 14.257-.363 12.542-1.687 25.1-2.42 37.6q-6.1-6.546-11.631-13.6c-1.177-1.509-3.771.478-2.669 2.059a179.444 179.444 0 0 0 16.01 19.777c2.278 5.2 2.568 9.941 2.4 15.729-.263 9.049-.5 18.1-.655 27.148-4.465 5.734-8.994 11.358-13.755 16.9-1.934 2.251 1.207 5.5 3.3 3.3a118.249 118.249 0 0 0 10.339-12.549c-.4 19.711.766 39.387 1.41 59.082.33 11.58-.186 28.454-22.547 21.434z"/><path d="m353.393 74.15c6.165 4.967 11.774 11.376 14.619 18.855.739 1.942 2.978 3.3 4.972 2.023 31.916-21.018 71.687-29.391 108.983-19.874 4.617 1.018 6.563-6.155 1.95-7.075-39.186-9.238-80.922-1.19-114.35 21.1l4.972 2.022a52.746 52.746 0 0 0 -16.439-21.757c-3.31-2.645-8.049 2.014-4.707 4.706z"/><path d="m265.105 191.686c11.431.041 19.973-8.082 26.363-16.715 8.11-10.954 15.782-22.07 24.794-32.336 8.719-9.932 18.511-18.521 27.912-27.752 5-4.914 9.987-10.313 13.7-16.312 2.25-3.641-3.485-6.976-5.728-3.348-10.459 15.759-26.477 26.557-38.726 40.807a287.825 287.825 0 0 0 -21.4 27.106c-7.231 10.385-14.128 21.91-27.44 24.637-2.24.458-1.68 3.905.525 3.913z"/><path d="m172.251 52.455c39.349 7.62 53.847 54.429 61.386 88.622 1.621 7.35 2.871 14.759 4.824 22a2.531 2.531 0 0 0 4.949-.67c-1.66-38.245-24.942-112.783-70.335-116.033-3.443-.2-4.267 5.411-.824 6.078z"/><path d="m434.33 272.206c2.488 5.224 8.324 8.918 12.213 13.122 13.473 14.222 22.2 31.91 28.89 50.137a2.686 2.686 0 0 0 5.176-1.427c-3.915-18.838-14.109-36.033-26.509-50.538q-3.186-3.676-6.645-7.1c-2.388-2.37-5.675-4.623-7.111-7.7-1.887-4.047-7.933-.523-6.011 3.513z"/><path d="m419.568 260.363a114.9 114.9 0 0 1 26.249-26.422c3.637-2.629.113-8.738-3.549-6.071a125.108 125.108 0 0 0 -28.65 29.015c-2.57 3.63 3.4 7.058 5.95 3.478z"/><path d="m284.8 196.95c-3 11.7 5.6 21.794 15.717 26.534 12.5 5.858 26.712 5.011 39.736 9.018a3.232 3.232 0 0 0 3.952-2.244 76.92 76.92 0 0 1 16.039-36.15l-5.786-2.4c-1.208 15.268-2.63 35.7 13.051 43.977 7.3 3.855 15.4 6.025 22.787 9.761a129.59 129.59 0 0 1 23.869 15.6c3.386 2.785 8.271-2.041 4.856-4.856a141.794 141.794 0 0 0 -40.786-23.391c-7.451-2.8-14.236-5.794-16.083-14.3-1.862-8.58-1.468-18.09-.915-26.792.175-2.764-3.963-4.7-5.786-2.4a83.272 83.272 0 0 0 -17.442 39.235l3.952-2.244c-18.083-5.244-52.094-2.2-53.248-28.827-.1-2.183-3.335-2.78-3.913-.529z"/><path d="m113.407 270.331c18.206-17.2 43.138-22.649 66.436-29.446 10.389-3.032 21.526-6.084 29.848-13.368 6.787-5.941 11.523-15.9 8.325-24.844-1.319-3.687-6.261-2.156-5.741 1.583 4.73 36.69-71.371 27.253-103.507 61.436-3.059 2.928 1.57 7.539 4.639 4.639z"/><path d="m44.02 337.145c6-7.726 11.09-16 17.5-23.453a195.214 195.214 0 0 1 20.643-20.473c17.153-13.626 22.116-25.159 20.725-47.007-.166-4.18-6.839-4.082-6.444 0 2.728 24.046-5.466 32.221-22.939 46.536-12.878 12.052-25.418 25.452-33.756 41.102-1.234 2.565 2.247 5.9 4.271 3.295z"/><path d="m104.848 127.877c28.465 6.271 53.592 21.684 75.674 40.294 16.783 12.45 39.194 48.836 62.605 31.92 2.695-2.3-.942-7.131-3.834-4.97-12.262 9.161-25.629-5.257-33.717-13.161a341.754 341.754 0 0 0 -30.066-26.369c-20.486-15.8-43.473-28.51-68.9-34.087-4.145-.909-5.917 5.457-1.757 6.373z"/><path d="m9.286 99.594c9.6.866 19.03 1.123 28.517 3.126 13.4 2.836 26.363 7.327 39.289 11.785 3.836 1.324 7.727 3.108 11.754 1.537 3.378-1.319 6.33-4.279 9.178-6.433l11.767-8.9c3.26-2.465.042-8.049-3.241-5.545-28.638 21.88-14.736 16.032-48.189 6.511-15.479-4.734-33.47-9.813-49.767-7.193-3.094.499-2.014 4.867.692 5.112z"/><path d="m204.171 32.74c29.255 12.868 45.192 42.62 48.789 73.405 1.835 12.322.763 24.692 2.228 36.977a2.533 2.533 0 0 0 5.063 0c2.034-41.9-8.766-99.788-54.661-113.745-1.942-.475-3.372 2.431-1.419 3.363z"/><path d="m58.745 272.793c26.561-57.8 88.71-87.453 149.737-67.06 3.785 1.261 5.412-4.717 1.644-5.968-59.435-21.033-134.242 10.7-154.808 71.584-.625 2.017 2.419 3.326 3.427 1.444z"/><path d="m51.731 75.9c51.753-13.922 111.631 3.9 143.869 47.631 8.151 11.322 13 24.274 18.626 36.924.921 2.072 4.233.592 3.62-1.526-17.627-69.89-100.418-108.729-167.113-86.641a1.877 1.877 0 0 0 1 3.616z"/><path d="m259.035 199.246c10.708-74.209 55.876-147.472 135.93-156.846 2.815-.388 2.177-5.239-.676-5-79.62 6.252-133.795 86.4-138.914 161.345-.107 2.073 3.248 2.57 3.66.5z"/><path d="m282.764 214.093c5.316-16.033 16.054-27.223 31.267-34.45 41.953-20.5 95.772-16.68 129.825 17a124.478 124.478 0 0 1 26.9 38.2c1.034 2.23 4.7.654 3.962-1.671-21.545-65.142-102.427-89-161.319-59.718-16.059 7.195-33.273 21.132-34.184 40.166-.1 2.11 2.927 2.343 3.545.479z"/></g></svg>