<svg id="fill" height="512" viewBox="0 0 340 340" width="512" xmlns="http://www.w3.org/2000/svg"><path d="m93.511 202.725a2.115 2.115 0 0 0 -.152-2.757c-2.757-2.911-8.43-11.1-3.665-25.825a.413.413 0 0 0 -.751-.335c-3.121 5.676-8.283 18.26 1.242 29.073a2.115 2.115 0 0 0 3.263-.075z" fill="#2b313f"/><circle cx="88.054" cy="176.964" fill="#2b313f" r="4.733"/><path d="m61.171 303.308s4.864 16.679 18.644 26.679c0 0 5.188-18.911 3.566-29.611z" fill="#dbeefc"/><path d="m311.777 156.709h-23.077a18.325 18.325 0 0 0 18.325-18.325 18.325 18.325 0 0 0 -18.325-18.325h-22.164a18.325 18.325 0 0 0 18.325-18.325 18.326 18.326 0 0 0 -18.325-18.325h-69.9a18.325 18.325 0 0 0 -18.325 18.325 18.325 18.325 0 0 0 18.325 18.325h-22.16a18.325 18.325 0 0 0 -18.325 18.325 18.325 18.325 0 0 0 18.325 18.325h-27.656a18.325 18.325 0 0 0 -18.32 18.325 18.326 18.326 0 0 0 18.325 18.325h19.663a18.325 18.325 0 1 0 0 36.649h23.1a18.325 18.325 0 0 0 0 36.65h22.593a18.325 18.325 0 0 0 -18.325 18.325 18.325 18.325 0 0 0 18.325 18.325h39.453a18.325 18.325 0 0 0 18.325-18.325 18.326 18.326 0 0 0 -18.325-18.325h19.592a18.325 18.325 0 0 0 0-36.65h19.654a18.325 18.325 0 1 0 0-36.649h20.9a18.326 18.326 0 0 0 18.32-18.325 18.325 18.325 0 0 0 -18.323-18.325z" fill="#ffb345"/><path d="m183.269 89.224c23.078 4.206 65.231 13.882 96.294 25.391a18.453 18.453 0 0 0 3.114-4.2v-.006q.416-.771.758-1.583c.022-.054.038-.11.06-.164.2-.493.389-.993.547-1.506.044-.142.072-.291.112-.435.122-.432.244-.864.334-1.308.058-.284.088-.577.133-.866.048-.314.11-.624.143-.943a18.527 18.527 0 0 0 .094-1.865 18.326 18.326 0 0 0 -18.325-18.325h-69.9a18.253 18.253 0 0 0 -13.364 5.81z" fill="#e87a28"/><path d="m103.017 228.1s15.569 59.68-23.326 78.489c-9.915 4.794-22.016 2.566-29.078-5.885-3.722-4.453-6.077-10.612-4.087-18.922 5.305-22.159 37.14-61.485 37.14-61.485z" fill="#ffb345"/><path d="m83.381 300.376-22.21 2.932a56.415 56.415 0 0 0 5.338 11.674c.772.058 1.549.1 2.332.1a31.1 31.1 0 0 0 13.459-3.088c.351-.169.68-.365 1.025-.542a45.822 45.822 0 0 0 .056-11.076z" fill="#a7cad8"/><path d="m222.309 12.614c-.227 10.766 2.057 50.954 48.819 50.954 0 0 19.158-52.206-46.084-53.554a2.667 2.667 0 0 0 -2.735 2.6z" fill="#8eb260"/><path d="m75.428 231.031a28.89 28.89 0 0 0 12.386 7.969 54.211 54.211 0 0 0 16.873 2.491c.209 0 .428-.015.638-.017a106.192 106.192 0 0 0 -2.308-13.367l-19.351-7.8s-3.436 4.239-8.238 10.724z" fill="#e87a28"/><path d="m136.228 109.592a14.239 14.239 0 0 0 -4.07-11.6c-5.469-5.569-17.159-13.166-37.37-7.271-20.604 6.009-30.138 1.979-34.088-1.121a1.179 1.179 0 0 0 -1.883 1.144c1.892 10.606 9.676 40.084 37.974 42.633a43.508 43.508 0 0 0 26.2-5.937c6.001-3.587 12.209-9.302 13.237-17.848z" fill="#a0c15f"/><path d="m74.533 210.9a20.112 20.112 0 0 0 .651 7.745 21.964 21.964 0 0 0 14.5 14.654c6.172 2.023 15.7 3.357 29.251.739 0 0 6.321-40.2-24.5-40.272-10.035-.029-18.797 7.153-19.902 17.134z" fill="#ffb345"/><path d="m106.022 250.722a54.759 54.759 0 0 1 -36.647-11.294c-3.734 5.329-7.724 11.321-11.342 17.369 14.622 16.121 33.535 18.261 45.937 17.516a89.756 89.756 0 0 0 2.052-23.591z" fill="#2b313f"/><path d="m49.236 273.75a54.034 54.034 0 0 0 -2.71 8.036c-1.99 8.31.365 14.469 4.087 18.922 7.062 8.451 19.163 10.679 29.078 5.885a41.812 41.812 0 0 0 14.85-11.865c-25.478.142-38.911-12.081-45.305-20.978z" fill="#2b313f"/><path d="m25.115 255.8a43.329 43.329 0 0 0 -3.4 10.669c-3.658 20.245 20.393 32.928 35.176 18.621 6.056-5.86 10.422-15.314 7.62-30.506z" fill="#dbeefc"/><path d="m39.991 272.715c8.687 0 17.53-1.946 25.06-4.3a44.1 44.1 0 0 0 -.54-13.826l-39.4 1.216a43.329 43.329 0 0 0 -3.4 10.669 23.529 23.529 0 0 0 -.293 2.377 42.082 42.082 0 0 0 18.573 3.864z" fill="#a7cad8"/><g fill="#e87a28"><path d="m238.02 129.859-10.011 9.116v6.964 6.964l10.011 9.116 10.011-9.116v-6.964-6.964z"/><path d="m252.66 159.501-10.011 9.116v6.963 6.964l10.011 9.116 10.01-9.116v-6.964-6.963z"/><path d="m267.13 129.859-10.01 9.116v6.964 6.964l10.01 9.116 10.011-9.116v-6.964-6.964z"/><path d="m197.683 191.66-10.011 9.116v6.964 6.964l10.011 9.116 10.01-9.116v-6.964-6.964z"/><path d="m212.323 220.301-10.011 9.116v6.964 6.964l10.011 9.116 10.01-9.116v-6.964-6.964z"/><path d="m225.394 191.66-10.011 9.116v6.964 6.964l10.011 9.116 10.011-9.116v-6.964-6.964z"/></g><path d="m306.756 84.563a52.16 52.16 0 0 1 -23.575-13.544 25.261 25.261 0 0 1 -2.413-2.72c-6.634-9.153-19.94-26.508-34.516-39.907a4 4 0 0 0 -5.8.405 4.157 4.157 0 0 0 .56 5.648c13.993 12.9 26.844 29.677 33.274 38.548a38.678 38.678 0 0 0 4.2 4.631 632.944 632.944 0 0 0 -75.565-12.424c-2.573-.253-5.146-.435-7.727-.592-13.3-.809-70.98-6.249-117.4-40.97-4.314-3.227-9.886 1.937-6.941 6.448 11.612 17.783 37.52 42.293 94.074 51.5-27.827 19.78-67.089 20.726-67.455 20.714a4 4 0 0 0 -.353 7.992c.224.01 1.074.043 2.453.043 8.595 0 44.236-2.351 69.857-21.518a24.253 24.253 0 0 1 16.557-4.662q1.383.115 2.787.22c5.02.373 10.021.905 15 1.668 20.142 3.091 71.292 11.8 106.718 25.325 0 0 13.87 6.135 19.614 11.86v-31.9s-8.756-2.863-23.349-6.765z" fill="#a57a74"/><path d="m76.2 247.547a7.911 7.911 0 0 1 -4.5 9.993c-16.556 6.679-58.434 19.324-61.6-22.052 0 0-3.982-27.087 23.282-27.1 25.656-.023 38.193 26.222 42.818 39.159z" fill="#dbeefc"/><path d="m86.936 206.208a2.35 2.35 0 0 0 -.794-2.962c-3.66-2.534-11.694-10.136-9.877-27.226a.458.458 0 0 0 -.892-.193c-2.1 6.88-4.834 21.733 7.984 31.309a2.349 2.349 0 0 0 3.529-.826z" fill="#2b313f"/><circle cx="74.851" cy="179.267" fill="#2b313f" r="5.041"/><path d="m97.472 102.3a4 4 0 0 0 -.353 7.992c.224.01 1.074.043 2.453.043 8.595 0 44.236-2.351 69.857-21.518a24.253 24.253 0 0 1 16.557-4.662q1.383.115 2.787.22c-8.1-.754-23.845-2.786-23.845-2.786-27.828 19.777-67.09 20.723-67.456 20.711z" fill="#7c4743"/><path d="m304.523 83.889a51.947 51.947 0 0 1 -21.342-12.87 25.261 25.261 0 0 1 -2.413-2.72c-6.634-9.153-19.94-26.508-34.516-39.907a4 4 0 0 0 -5.8.405 4.157 4.157 0 0 0 .56 5.648c13.993 12.9 26.844 29.677 33.274 38.548a38.678 38.678 0 0 0 4.2 4.631s18.753 4.262 26.03 6.285z" fill="#7c4743"/><path d="m95.741 214.257a4.119 4.119 0 0 1 -.779-.08 4.3 4.3 0 0 1 -.75-.23 3.762 3.762 0 0 1 -.69-.37 4.013 4.013 0 0 1 -.6-.49 4.1 4.1 0 0 1 -.5-.61 4.585 4.585 0 0 1 -.371-.69 5.508 5.508 0 0 1 -.23-.75 4.2 4.2 0 0 1 -.069-.78 3.987 3.987 0 0 1 1.17-2.83 4.081 4.081 0 0 1 .6-.5 4.485 4.485 0 0 1 .69-.37 4.252 4.252 0 0 1 .75-.22 3.771 3.771 0 0 1 1.569 0 3.954 3.954 0 0 1 .741.22 4.191 4.191 0 0 1 .7.37 4.03 4.03 0 0 1 .6.5 3.251 3.251 0 0 1 .5.61 4.147 4.147 0 0 1 .371.69 3.832 3.832 0 0 1 .23.75 4.127 4.127 0 0 1 .08.78 4.213 4.213 0 0 1 -.08.78 4.3 4.3 0 0 1 -.23.75 3.9 3.9 0 0 1 -.371.69 3.605 3.605 0 0 1 -.5.61 3.964 3.964 0 0 1 -.6.49 3.563 3.563 0 0 1 -.7.37 3.989 3.989 0 0 1 -.741.23 4.142 4.142 0 0 1 -.79.08z" fill="#2b313f"/></svg>