<svg id="flat" height="512" viewBox="0 0 500 500" width="512" xmlns="http://www.w3.org/2000/svg"><g fill="#4f424c"><path d="m251.977 277.737c2.484-20.774-13.967-33.451-6.679-51.315 7.647-18.745 21.544-30.318 29.806-48.8 6.755-15.112 14.58-34.516 11.547-63.918l-9.08 2.411c8.88 74.734-70.891 90.327-46.364 166.783z"/><path d="m59.585 133.493c12.128 37.52 54.523 23.161 71.21 47.594 4.668 8.006 2.249 20.091 9.952 26.388a2.211 2.211 0 0 0 3.662-2.132c-2.007-8.54-2.951-18.608-7-26.457-9.375-16.87-30.628-18.746-47.125-24.615-11.6-4.094-20.264-10.547-24.321-22.535-1.356-4.007-7.741-2.288-6.373 1.757z"/><path d="m55.447 161.854c4.818 14.856 21.888 19.636 35.764 20.8 17.487.974 37.353.114 46.719 17.991 1.754 3.042 6.16.942 5.483-2.312-3.161-15.193-22.027-20.358-35.217-21.525-17.136-1.516-37.8.317-47.266-17.264-1.595-2.963-6.541-.949-5.483 2.311z"/><path d="m105.969 181.51c7.88 10.841-.423 20.551 1.06 32.158 1.37 9.432 9.13 17.5 17.811 20.955 6.305 2.506 13.88 1.534 20.523 1.955a67.013 67.013 0 0 1 15.31 2.586c5.534 1.681 10.228 4.863 15.529 6.881 2.027.771 4.281-2.04 2.938-3.822-6.024-8-17.77-11-27.209-12.229-7.468-.977-15.978.379-23.222-1.644-4.431-1.237-8.86-4.794-11.517-8.485-4.05-5.629-3.3-11.6-2.064-18.04 1.429-7.456 2.944-20.7-6.446-23.844a2.427 2.427 0 0 0 -2.713 3.529z"/><path d="m135.426 178.689c-1.459-7.41-9.145-10.933-4.2-19.518 2.883-5.308 8.878-11.07 6.621-17.645-.93-2.712-4.9-2.94-5.74 0a39.15 39.15 0 0 1 -5.1 11.582c-1.983 3.055-3.876 6.293-4.236 10-.592 6.1 3.9 14.685 9.479 17.406 1.285.627 3.352-.1 3.174-1.821z"/><path d="m133.049 174.979c-4.549-8.8-2.984-15.1 7.8-15.562 4.663-.473 11.162-.467 13.725-5.065.949-1.7-.209-4.523-2.448-4.268-2.173.248-3.813 1.179-5.91 1.725a55.283 55.283 0 0 1 -6.767.938c-15.22 1.312-19.055 13.47-9.272 24.448 1.406 1.649 3.772-.452 2.871-2.216z"/><path d="m274.444 211.212c-6.993 7.869 2.822 21.923 2.045 31.351-.06 5.53-2.885 8.6-5.63 13.027-1.474 2.38 1.406 4.993 3.72 3.72 12.609-7.518 9.042-24.22 5.156-35.758-1.012-3.717-1.016-6.912-1.25-10.666a2.4 2.4 0 0 0 -4.041-1.674z"/><path d="m271.5 281.67c3.383-2.985 5.71-6.889 9.218-9.782 8.591-7.282 20.213-8.154 30.828-10.184 16.055-2.466 32.467-13.362 36.585-29.767.513-2.406-2.716-4.956-4.564-2.656-6.167 7.675-9.8 15.972-18.884 20.889-12.778 6.759-28.26 5.036-41.012 11.914-6.6 3.5-13.955 10.014-15.6 17.591a2.068 2.068 0 0 0 3.428 2z"/><path d="m263.724 194.419c3.857-2.538 6.86-5.782 10.992-8.074 5.277-2.927 10.767-5.438 15.885-8.651 12.168-7.7 26.336-21.444 27.852-36.422.091-2.058-2.936-3.522-4.322-1.791-2.807 3.507-4.364 7.641-6.625 11.5-5.632 9.916-14.509 17.4-24.294 23.022-6.718 3.955-21.869 9.371-22.768 18.539a2.193 2.193 0 0 0 3.28 1.882z"/><path d="m300.978 163.066c-10.652 5.166-12.332 25.158-9.283 35.355 4.648 13.563 12.953 19.578 3.826 34.224-1.066 2.173 1.21 5.043 3.544 3.544 11.492-7.379 7.383-22.476 2.158-32.394a34.83 34.83 0 0 1 -2.646-28.045c.526-2.611 8.358-12.982 2.4-12.684z"/><path d="m218.466 141.584c-.793 29.129 37.578 31.754 25.466 66.481-.631 1.929 1.856 4.022 3.6 2.765 9.368-6.754 6-24.066 1.437-32.658-3.242-6.1-8.664-10.519-13.5-15.292-6.5-6.411-9.677-13.158-11.5-22.04-.658-3.2-5.372-2.3-5.5.744z"/><path d="m247.766 133.906c.237 15.915-15.655 33.159-3.085 47.555 1.463 1.455 4.777.508 4.481-1.856-.517-4.136-2.55-7.7-2.459-11.989.451-11.653 10.711-22.539 6.288-34.418-1.059-2.656-5.177-2.49-5.225.708z"/><path d="m257.34 151.92c5.987 9.315 11.478 17.09 6.014 28.253-1.184 2.856 3.072 4.947 5.015 2.919 9.108-9.512 1.957-27.085-6.63-34.566-2.333-2.033-6.039.518-4.4 3.394z"/><path d="m221.316 225.045c-1.344-9.472-.294-12.3 5.434-19.867 5.033-7.457 9.892-18 6.923-27.009a2.768 2.768 0 0 0 -5.289 0c-1.912 5.311-1.766 11.023-4.034 16.3-4.675 9.779-14.972 20.686-7.2 31.705 1.2 1.643 4.285 1.292 4.17-1.13z"/><path d="m149.5 185.647c19.225 6.943 40.665 15.13 51.4 33.827 1.681 2.927 6.444.985 5.483-2.312-6.7-19.613-36.218-33.207-55.288-37.3a3 3 0 0 0 -1.595 5.786z"/><path d="m159.383 164.76c-3.772 7.769 1.949 26.729 10.925 28.884a2.669 2.669 0 0 0 3.244-3.244c-1.3-4.511-5.6-7.555-7.228-12.163-1.557-4.4-1.033-9.306-3-13.477a2.3 2.3 0 0 0 -3.946 0z"/><path d="m372.058 116.43c-14.5 24.708 21.746 63.634-14.6 77.875-2.822 1.426-.753 5.385 2.042 4.841 7.849-1.528 15.223-6.386 18.879-13.634 9.778-21.881-8.179-45.018-2.531-67.484a2.084 2.084 0 0 0 -3.792-1.6z"/><path d="m334.561 188.805c2.47-4.091 3.422-8.328 7.385-11.4 3.058-2.371 6.7-3.842 10.044-5.744 7.523-4.285 14.3-11.781 13.715-21.027-.16-2.527-4.135-4.3-5.35-1.449-1.948 4.582-2.875 9.342-6.632 12.9-2.956 2.8-6.776 4.478-10.258 6.5-6.954 4.04-13.971 10.963-12.716 19.727.268 1.871 2.97 1.893 3.812.5z"/></g><path d="m410.168 182.461c-27.305 6.906-40.846 5-72.577 16.909a192.869 192.869 0 0 0 2.682-30.6l-9.758 1.805c-6.485 44.421-28.289 52.088-48.982 73.47-.679 8.777 3.287 12.1 10.5 11.6l11.075-13.342c2.6-2.059 26.088-19.907 27.85-21.611 18.639-16.179 46.163-15.012 69.375-20.445 6.285-5.599 9.934-11.489 9.835-17.786z" fill="#f79292"/><path d="m378.007 182.029c3.3-4.354 4.206-9.2 9.056-12.449 3.711-2.486 8.091-3.82 12.152-5.6 9.972-4.37 17.485-11.972 18.835-23.146.353-2.918-4.39-4.147-5.59-1.515-2.464 5.4-4.595 10.934-9.467 14.655-3.775 2.882-8.36 4.446-12.652 6.357-7.985 3.556-17.874 11.161-16.168 21.2.339 2 2.878 1.761 3.834.5z" fill="#4f424c"/><path d="m426.4 125.263c7.968 12.125 11.619 28.185 5.117 41.778-2.971 6.042-7.341 9.489-12.287 13.808-1.993 1.739.111 5.4 2.622 4.505 24.152-8.952 26.616-48.119 7.707-63.25-1.927-1.271-4.377 1.244-3.159 3.159z" fill="#4f424c"/><path d="m450.736 171.049c6.387-6.238 15.977-7.355 23.162-12.426 11.646-8.22 14.213-23.061 11.329-36.312-.726-3.334-5.922-2.552-5.893.8.112 13.186-.226 25.249-12.839 32.278-6.6 3.679-16.691 5.564-19.559 13.451-.807 2.22 2.268 3.709 3.8 2.212z" fill="#4f424c"/><path d="m146.6 204.991c6.225 13.065 17.287 25.584 39.873 33.895l-8.363 5.078c-13.653-4.211-35.65-25.27-35.669-33.75a9.707 9.707 0 0 1 4.159-5.223z" fill="#f79292"/><path d="m194.864 241.62c-2.965-.851-5.753-1.768-8.393-2.74-2.509 1.871-5.1 3.411-7.969 3.331-5.115-.142-25.2-13.608-36.059-32a13.147 13.147 0 0 0 .249 7.346c10.2 16.251 27.223 26.326 39.678 33.373 8.609.478 13-2.445 12.494-9.31z" fill="#ce6f77"/><path d="m194.865 241.617c-3.185 4.222-7.286 7.986-12.5 9.318 32.087 13.982 38.486 51.137 38.991 57.91 5.541-15.632.213-43.288-6.692-62.941a163.348 163.348 0 0 1 -19.799-4.287z" fill="#4f424c"/><path d="m134.178 192.537a56.4 56.4 0 0 0 8.516 25.024 25.575 25.575 0 0 1 4.226-11.9 92.34 92.34 0 0 1 -6.4-18.3z" fill="#4f424c"/><path d="m221.35 373.5c-1.743-61.518-2.654-116.807-27.288-176.676l4.622-7.489s12.205 6 15.517 13.92a474.916 474.916 0 0 1 22.427 66.921 4.656 4.656 0 0 0 5.784 3.332l6.147 3.2-7.906 99.45z" fill="#f79292"/><path d="m190.152 157.408-18.179-9.132c8.231 16.363 15.712 32.57 22.085 48.545 7.524-6.236 16.606 3.445 20.128 6.436a325.913 325.913 0 0 0 -24.034-45.849z" fill="#ce6f77"/><path d="m249.81 382.362 5.075-68.231 23.832-42.44 13.315-16.04a26.857 26.857 0 0 1 -10.5-11.606c-11.929 10.824-23.373 21.087-39.12 29.458q-.015 20.5-1.171 40.972c-1.051 20.906-3.924 43.984-19.891 59.021.115 29.457-.692 58.844-1.734 88.258a83.612 83.612 0 0 1 -2.316 18.333s-1.59 7.723 14.733 7.723 16.65-41.787 16.65-41.787z" fill="#ce6f77"/><path d="m340.266 168.772a142.162 142.162 0 0 0 -1.81-23.574c-2.54-1.143-5.128-.526-7.769 2.026a121.869 121.869 0 0 1 -.19 23.351c3.243-.651 6.516-1.212 9.769-1.803z" fill="#ce6f77"/><path d="m417.207 195.293c15.725-6.089 26.64-14.86 34.117-24.669 4.095-8.272 7.275-18.628 9.573-30.994l-7.041-1.953c-6.695 28.445-27 39.805-43.689 44.782a177.544 177.544 0 0 1 -9.836 17.79 115.281 115.281 0 0 0 16.876-4.956z" fill="#ce6f77"/><path d="m136.023 98.332-11.223 7.007a216 216 0 0 1 44.353 49.593c6.709-3.426 14.626-.827 20.979 2.487-14.745-23.16-32.618-43.685-54.109-59.087z" fill="#4f424c"/><path d="m337.332 146.561a15.535 15.535 0 0 1 4.85 1.6 212.812 212.812 0 0 0 -5.308-30.7l-10.8 1.908a185.148 185.148 0 0 1 4.614 27.859 14.03 14.03 0 0 1 6.644-.667z" fill="#4f424c"/><path d="m451.317 170.619c19.925-26.143 15.432-59.652 12.465-69.4l-8.445 1.56c1.483 13.84.763 25.331-1.49 34.9 6.099 8.959 1.089 23.663-2.53 32.94z" fill="#4f424c"/><path d="m35.816 102.406c-9.677 7.411-6.191 26.265-1.479 35.5 6.08 11.5 20.082 14.422 31.911 16.233 5.2.835 10.811 2.81 16.053 2.744 2.959-.038 3.633-3.7 1.425-5.263-6.158-4.366-16.282-3.983-23.483-5.511-6.736-1.43-14.945-3.77-18.927-9.884-4.954-7.6-7.082-22.024-1.4-29.72 1.737-2.351-1.754-5.905-4.1-4.1z" fill="#4f424c"/><path d="m74.838 190.585c.1 9.87 3.4 19.282 11.347 25.491 8.389 6.553 19.564 8.761 29.809 10.539a3.026 3.026 0 0 0 2.919-5.014c-2.768-3.061-6.846-3.113-10.7-3.9a47.934 47.934 0 0 1 -14.013-4.719c-9.394-5.257-11.307-13.424-13.468-23.195-.735-3.327-5.926-2.557-5.893.8z" fill="#4f424c"/><path d="m96.361 117.138c-6.936 8.36-3.142 24.563 1.147 33.564 2.342 4.922 10.6 20.223 17.989 16.971a2.434 2.434 0 0 0 1.1-2.7c-.372-2.419-3.69-4.513-5.25-6.225a46.246 46.246 0 0 1 -11.472-23.956c-1.162-5.338.716-10.62.769-15.882-.214-2.043-2.646-3.457-4.282-1.773z" fill="#4f424c"/><path d="m406.539 36.162c-5.9.936-11.948 3.331-16.737.15-3.175-2.109-4.534-6.02-6.976-8.939-7.322-8.75-21.232-6.286-32.11-2.741-4.6-8.485-16.968-11.6-25.073-6.315-9.227-10.213-28.648-10.924-37 .006-3.774-8.383-14.756-12.991-23.69-9.941-2.106.719-4.129 1.808-6.358 1.956-3.42.228-6.5-1.77-9.569-3.247-11.981-5.768-27.583-3.554-37.333 5.3-7.851 8.666-12.125 7.558-22.988 6.111-13.036-1.016-26.253 7.265-30.586 19.164-7.5-5.928-18.1-7.14-27.3-4.363 0 0-29.993 13.737-4.764 49.044 0 0 39.112 27.854 126.6 27.854s145.533-13.734 145.533-13.734 36.112-21.184 31.589-38.053-23.238-22.252-23.238-22.252z" fill="#a6b287"/><path d="m457.925 84.663c1.834-9.061 1.578-16.392-2.059-20.93-2.386-1.048-5.275.4-7.741-.523-2.817-1.064-2.384-3.217-2.426-5.152a11.134 11.134 0 0 0 -8.525-10.3c-2.412-.525-4.958-.224-7.349-.835-9.091-3-11.5-13.407-23.286-10.756 35.15 27.225-16.119 64.059-39.816 24.784a11.084 11.084 0 0 0 -15.877-3.72c-12.5 8.505-26.56 11.317-42.472 6.941a2.482 2.482 0 0 0 -3.014 3.239c8.223 21.357-16.216 24.428-33.279 20.612a2.889 2.889 0 0 1 -1.546-4.867 26.817 26.817 0 0 0 5.818-8.547 3.515 3.515 0 0 0 -4.4-4.681 111.651 111.651 0 0 1 -41.292 6.137 3.513 3.513 0 0 0 -2.773 5.83 53.023 53.023 0 0 0 7.569 6.9 2.9 2.9 0 0 1 -.18 4.745c-6.835 4.467-17.906 7.093-28.087.506-4.077-2.638-8.011-9.85-10.138-16.348a7.368 7.368 0 0 0 -9.962-4.472c-9.473 4.176-26.267 8.478-41.354-3.583-4.406-3.523-11.66.358-16.45-2.621-11.472-7.454-7.847-25.462 1.531-33.714a27.862 27.862 0 0 0 -15.607 11.276c-.9 1.405-1.735 2.955-3.2 3.806a8.419 8.419 0 0 1 -3.986.859c-19.06-.887-28.989.511-27.366 22.4a28 28 0 0 0 -28.859 2.528c-5.227 4-9.362 10.101-16.199 10.915 0 0-11.909 18.909 25.749 26s72.176 1.745 72.176 1.745l45.264 12.28 101.634-3.07s55.142 3.692 89.436-15.818c.002-.001 71.977 36.076 88.066-21.566z" fill="#787f59"/><path d="m342.185 148.161a11.3 11.3 0 0 0 -3.733-2.955l-1.12 1.355a108.5 108.5 0 0 1 -5.5 55.311.636.636 0 0 0 .99.727 37.793 37.793 0 0 1 4.768-3.229c5.338-16.346 6.204-34.025 4.595-51.209z" fill="#4f424c"/><path d="m172.534 148.558-.561-.282-2.805 6.648c25.974 39.474 40.414 86.273 46.743 132.984l.112-.049c3.631-58.759-34.779-126.018-43.489-139.301z" fill="#4f424c"/><path d="m168.408 145.545c62.839 104.5 75.284 223.847 57.692 342.847-.428 3.157 4.408 4.519 4.839 1.332 17.173-117.688 6.094-243.967-59.5-345.953a1.758 1.758 0 0 0 -3.034 1.774z" fill="#4f424c"/><path d="m458.168 140.932c-1.275 16.409-9.626 32.35-23.1 41.985-45.878 28.991-81.051 3.583-132.731 55.883a202.511 202.511 0 0 0 -21.963 26.093c-70.32 79.456-4.738 239.192-63.088 215.2a29.524 29.524 0 0 1 -6.685 12.823 1.813 1.813 0 0 0 1.279 3.086l54.676.11a1.8 1.8 0 0 0 1.545-2.75c-20.136-32.447-17.352-129.34-9.238-171.874 10.608-49.628 57.753-95.1 86.925-107.518 30.617-13.453 67.4-7.373 94.773-29.157a57.442 57.442 0 0 0 21.732-43.871c.069-2.691-3.921-2.626-4.125-.01z" fill="#4f424c"/><path d="m490.953 103.2c-8.228-10.458-8.4-16.144-22.8-17.064-.345-8.577-4.8-20.053-12.288-22.4 3.735 26.892-16.713 24.13-27.494 20.923a2.966 2.966 0 0 0 -3.313 4.487c2.509 3.662 7.032 7.884 15.086 10.121a2.046 2.046 0 0 1 .246 3.869c-9.363 3.82-29.8 16.864-52.311-1.332-9.889-7.995-16.475-4.909-22.752-4.459a1.529 1.529 0 0 1 -1.072-2.7 15.989 15.989 0 0 0 5.463-10.055c.334-2.152-2.471-4.281-3.9-2.633-13.638 15.79-33.089 10.078-40.454 7.092a2.588 2.588 0 0 0 -3.574 2.6 12.866 12.866 0 0 0 2.576 6.246 2.342 2.342 0 0 1 -.878 3.493c-8.434 4.023-17.467 2.469-22.483 1.018a1.87 1.87 0 0 0 -2.156 2.713c1.723 3.089 4.821 6.906 9.81 7.605a1.482 1.482 0 0 1 .587 2.683c-15.424 10.758-32.607 1.071-40.652-12.216-1.1-1.817-4.089-1.016-5.078.654-4.757 8.027-15.089 16.192-32.271 9.517a9.123 9.123 0 0 0 -8.039.669c-9.236 5.765-13.774-3.464-24.926.777-5.891 1.994-13.27 4.079-20.142 2.642a2.079 2.079 0 0 1 -.532-3.851 22.543 22.543 0 0 0 7.211-6.172 1.369 1.369 0 0 0 -1.322-2.167c-7.88 1.315-29.064 3.232-33.994-12.935-.444-1.453-2.2-2.746-3.756-2.132-34.877 15.761-46.212-15.884-49.125-4.526a23.1 23.1 0 0 0 7.633 16.427 1.959 1.959 0 0 1 -.609 3.286 19.664 19.664 0 0 1 -20.395-3.569 2.441 2.441 0 0 0 -2.362-.624c-16.6 6.414-41.742 5.7-45.292-16.1-3.108.427-6.343.015-9.508.158a31.477 31.477 0 0 0 -14.447 4.538 8.007 8.007 0 0 0 2.9 14.943 37.372 37.372 0 0 1 13.314 4.595c6.363 3.789 11.5 9.976 18.823 11.435 9.4 1.871 19.327-4.771 28.4-1.75 2.993 1 5.531 2.965 8.424 4.2 9.226 3.955 19.869-.61 29.945.037 16.077 1.034 26.457 12.948 42.148 5.2 4.853 8.357 17.079 10.732 23.652 7.809s12.475-8.04 19.664-8.461c8.209-.481 17.01 5.265 24.145 1.2 4.849-3.564 6.92-4.246 11.905-.3a33.673 33.673 0 0 0 26.958 5.038c3.926-.965 7.725-2.654 11.767-2.812 7.892-.31 15.445 5.255 23.189 3.71 6.185-1.234 11.135-6.836 17.442-6.836 4.71 0 8.8 3.163 13.394 4.209 12.5 2.849 22.948-10.025 35.5-12.595a20.908 20.908 0 0 0 18.112 10.1c14.115-1.176 18.943-8.035 33.061-.258a18.451 18.451 0 0 0 16.642-2.363c3.9-2.806 6.819-7.235 11.45-8.539 7.636-2.15 15.264 5.338 23.084 3.987 4.807-.83 8.422-4.807 12.963-6.582a19.562 19.562 0 0 1 6.977-1.209 6.981 6.981 0 0 0 5.454-11.341z" fill="#4f424c"/><path d="m130.131 45.6c-1.817 5.125.866 12.714 5.15 15.867 1.866 1.375 3.852-1.211 2.95-2.95-1.1-2.128-2.53-3.933-3.3-6.248-.737-2.2-.727-4.423-1.158-6.669-.378-1.975-3.071-1.6-3.638 0z" fill="#787f59"/><path d="m140.563 50.726c.978 3.768 2.831 8.008 6.141 10.284 1.744 1.2 3.748-1.109 2.79-2.789-1.669-2.93-3.82-5.335-4.953-8.591-.864-2.483-4.652-1.5-3.978 1.1z" fill="#787f59"/><path d="m155.332 58c.023 2.609 3.184 4.219 4.33 1.373a3.035 3.035 0 0 0 -1.852-3.26 1.994 1.994 0 0 0 -2.478 1.887z" fill="#787f59"/><path d="m347.068 38.834c-.652 5.689-4.756 10.237-9.211 13.484-1.85 1.348-.819 5.1 1.716 4.069 7.286-2.957 10.791-9.969 11.128-17.553.106-2.382-3.373-2.266-3.633 0z" fill="#787f59"/><path d="m334.036 42.037c-2.288 4.393-5.813 7.192-9.343 10.487-1.348 1.258.047 3.94 1.881 3.231 5.337-2.061 8.779-7.2 10.654-12.373.674-1.858-2.282-3.091-3.192-1.345z" fill="#787f59"/><path d="m199.994 64.351a27.928 27.928 0 0 0 9.336 20.175c1.584 1.341 4.391-.4 3.073-2.371a47.81 47.81 0 0 1 -8.518-18.331 1.99 1.99 0 0 0 -3.891.527z" fill="#787f59"/><path d="m215.5 69.622c-2.775-4.087-3.045-7.955-3.111-12.733a1.99 1.99 0 0 0 -3.89-.526c-1.415 5.166.6 11.034 3.7 15.188 1.438 1.923 4.7.142 3.3-1.929z" fill="#787f59"/></svg>