<svg id="icon" height="512" viewBox="0 0 340 340" width="512" xmlns="http://www.w3.org/2000/svg"><path d="m171.835 207.51-52.208-112.281s-13.168 17.382 1.317 46.877l47.93 92.437z" fill="#9bb5e0"/><path d="m226.756 274.881a67.659 67.659 0 0 0 -17.456-17.195 70.778 70.778 0 0 1 -19.889-21.263l-21.32-38.273-6.591 18.127a14.9 14.9 0 0 0 .192 10.7c3.482 8.58 14.2 35.833 19.46 53.945q1.449 4.99 2.541 10.067c1.4 6.454 6.977 24.059 26.615 28.05a18.569 18.569 0 0 0 13.463-2.1c3.959-2.435 7.985-7.033 9.233-15.713a37.489 37.489 0 0 0 -6.248-26.345zm-13.394 29.151a6.832 6.832 0 0 1 -2.816-.509c-3.469-1.349-11.936-6.422-15.213-24.346a6.645 6.645 0 0 1 10.217-6.748 30.219 30.219 0 0 1 13.428 20.153 8.162 8.162 0 0 1 .12 1.022c.129 2.265.148 10.132-5.736 10.428z" fill="#f45d77"/><path d="m168.089 198.15-6.589 18.127a14.9 14.9 0 0 0 .192 10.7c.821 2.022 2.047 5.091 3.5 8.824a16.514 16.514 0 0 0 2.126-7.176 12.777 12.777 0 0 1 1.224-4.478l6.509-13.5z" fill="#bc3552"/><path d="m21.983 20.533h296.034a11.983 11.983 0 0 1 11.983 11.983v13.965a0 0 0 0 1 0 0h-320a0 0 0 0 1 0 0v-13.965a11.983 11.983 0 0 1 11.983-11.983z" fill="#626a7a"/><path d="m10 133.73h320a0 0 0 0 1 0 0v13.97a11.983 11.983 0 0 1 -11.983 11.983h-296.034a11.983 11.983 0 0 1 -11.983-11.983v-13.97a0 0 0 0 1 0 0z" fill="#626a7a"/><path d="m10 46.481h320v87.249h-320z" fill="#d7dcf2"/><path d="m202.715 109.617c1.169-8.376-6.623-14.388-6.623-14.388l-6.056 11.617-13.636 26.884h15.628z" fill="#9196ba"/><g fill="#fff"><path d="m35.091 28.655h8v9.704h-8z"/><path d="m64.182 28.655h8v9.704h-8z"/><path d="m93.272 28.655h8v9.704h-8z"/><path d="m122.363 28.655h8v9.704h-8z"/><path d="m151.454 28.655h8v9.704h-8z"/><path d="m180.546 28.655h8v9.704h-8z"/><path d="m209.637 28.655h8v9.704h-8z"/><path d="m238.728 28.655h8v9.704h-8z"/><path d="m267.818 28.655h8v9.704h-8z"/><path d="m296.909 28.655h8v9.704h-8z"/><path d="m35.091 141.852h8v9.704h-8z"/><path d="m64.182 141.852h8v9.704h-8z"/><path d="m93.272 141.852h8v9.704h-8z"/><path d="m122.363 141.852h8v9.704h-8z"/><path d="m151.454 141.852h8v9.704h-8z"/><path d="m209.637 141.852h8v9.704h-8z"/><path d="m238.728 141.852h8v9.704h-8z"/><path d="m267.818 141.852h8v9.704h-8z"/><path d="m296.909 141.852h8v9.704h-8z"/></g><path d="m91.783 46.481h10.979v87.249h-10.979z" fill="#626a7a"/><path d="m266.329 46.481h10.979v87.249h-10.979z" fill="#626a7a"/><path d="m179.057 46.481h10.979v87.249h-10.979z" fill="#626a7a"/><path d="m163.239 159.678h21.462l12.482-25.948h-20.783z" fill="#373d4c"/><path d="m190.036 106.846-10.979 21.646v5.238h10.979z" fill="#373d4c"/><path d="m152.225 207.51 52.208-112.281s13.168 17.382-1.317 46.877l-47.93 92.437z" fill="#dee9ff"/><path d="m97.3 274.881a67.659 67.659 0 0 1 17.458-17.195 70.778 70.778 0 0 0 19.889-21.263l17.574-28.913 6.592 18.127a14.9 14.9 0 0 1 -.192 10.7c-3.482 8.58-10.452 26.473-15.714 44.585q-1.449 4.99-2.541 10.067c-1.4 6.454-6.976 24.059-26.615 28.05a18.569 18.569 0 0 1 -13.463-2.1c-3.959-2.435-7.985-7.033-9.233-15.713a37.489 37.489 0 0 1 6.245-26.345zm13.4 29.151a6.832 6.832 0 0 0 2.816-.509c3.469-1.349 11.936-6.422 15.214-24.346a6.646 6.646 0 0 0 -10.218-6.748 30.215 30.215 0 0 0 -13.427 20.153 7.981 7.981 0 0 0 -.121 1.022c-.131 2.265-.15 10.132 5.736 10.428z" fill="#f45d77"/><circle cx="161.939" cy="204.196" fill="#9bb5e0" r="2.897"/></svg>