<svg id="FLAT" height="512" viewBox="0 0 500 500" width="512" xmlns="http://www.w3.org/2000/svg"><path d="m158.022 195.837 11.713 9.452q9.735-6.864 19.181-13.236l.362-21.437 13.109 12.527c16.647-10.795 32.492-20.229 47.351-27.99 0 0-24.527-40.63-81.317-7.849s-46.632 93.264-46.632 93.264q17.244-13.148 33.836-25.189z" fill="#56723d"/><path d="m317.964 90.026 20.806 25.662c48.084-13.194 74.815-13.862 74.815-13.862s-28.163-69.026-105.268-49.633-68.88 99.266-68.88 99.266a762.351 762.351 0 0 1 76.411-28.991z" fill="#87a574"/><path d="m163.728 100.108 2.657 19.19a741.013 741.013 0 0 1 76.727 28.153c-31.291-140.043-155.951-45.851-155.951-45.851a509.074 509.074 0 0 1 66.531 14.017z" fill="#87a574"/><path d="m316.628 140.41c-55.4-18.93-79.038 13.851-79.038 13.851s26.6 8.2 63.084 28.771l11.055-14.765v21.211a442.325 442.325 0 0 1 42.76 29.274s17.543-59.412-37.861-78.342z" fill="#56723d"/><path d="m243.155 141.77a15.166 15.166 0 0 1 17.315 6.535 201.174 201.174 0 0 1 20.336 45.035c-.747 3.943.531 8.013 3.415 12.184a204.809 204.809 0 0 1 5.808 59.055c-1.535 3-1.7 7.157-.93 12.1a215.255 215.255 0 0 1 -5.715 31.293l-65.562 1.847s8.874-17.283 15.468-43.643c2.6-3.588 3.807-7.371 2.586-11.494a218.463 218.463 0 0 0 4.376-46.781 16.312 16.312 0 0 0 -.567-11.519 170.375 170.375 0 0 0 -6.631-35.615 15.212 15.212 0 0 1 10.101-18.997z" fill="#d87155"/><path d="m343.459 336.736-185.437-3.122c-56.1 28.52-104.076 76.85-104.076 76.85l370.982-1.658c-23.877-28.556-57.558-56.815-81.469-72.07z" fill="#f4bd87"/><path d="m376.274 407.147s4.423-58.336 69.11-73.533v73.533z" fill="#5c73b4"/><path d="m319.92 400.108a58.142 58.142 0 0 1 -40.734.065 69.594 69.594 0 0 0 -24.2-4.893c-15.311 0-26.716 2.078-34.908 4.59a57.829 57.829 0 0 1 -35.853-.6 73.834 73.834 0 0 0 -24.131-3.986c-13.7 0-23.888 2.106-31.336 4.828a58.142 58.142 0 0 1 -40.734.065 69.594 69.594 0 0 0 -24.2-4.893c-38.681 0-49.378 16.8-49.378 16.8v39.168h471.11v-42.7a74.08 74.08 0 0 0 -42.456-13.272c-14.505 0-25.075 1.865-32.621 4.2a56.528 56.528 0 0 1 -35.16-.237 73.862 73.862 0 0 0 -24.058-3.96c-13.704-.003-23.893 2.103-31.341 4.825z" fill="#94aadf"/><path d="m158.022 333.614s5.7-4.353 31.559 16.247c15.629 12.451 37.982 7.291 53.223 1.259a47.861 47.861 0 0 1 32.9-.838c16.362 5.5 42.848 8.658 67.759-13.546a526.473 526.473 0 0 0 -49.223-29.648 92.935 92.935 0 0 0 -78.021-3.706 364.565 364.565 0 0 0 -58.197 30.232z" fill="#87a574"/><g fill="#8e3329"><path d="m280.8 193.341a78 78 0 0 0 -41.127 3q.47 5.841.569 11.559a67.494 67.494 0 0 1 43.973-2.38c-1.046-4.23-2.193-8.294-3.415-12.179z"/><path d="m289.1 276.682q.654-6.154.926-12.1a95.434 95.434 0 0 0 -54.149-9.892c-.8 3.99-1.668 7.831-2.584 11.494 11.766-1.733 33.921-2.429 55.807 10.498z"/></g></svg>