<svg id="icons" height="512" viewBox="0 0 340 340" width="512" xmlns="http://www.w3.org/2000/svg"><g fill="#bdd1d6"><path d="m65.5 149.512c.111.727-2.313-6.785 4.473-25.687 8.665-24.143-4.473-29.325-4.473-29.325a18.689 18.689 0 0 0 -15.156 0l9.693 55.111z"/><path d="m23.826 154.058s-2-9.173-10.316-27.452c-3.718-8.172-4.583-14.248-4.137-18.695a14.132 14.132 0 0 1 11.818-12.324 31.7 31.7 0 0 1 11.528.01v55.821z"/><path d="m103.857 301.753s-8.081-8.081-30.795-2.184-39.095-2.154-39.095-2.154-7.644-3.306-10.7-9.421c0 0-.282-5.9 6.084-9.61 0 0-3.682-24.025 23.182-32.106z"/><path d="m150.019 241.461s-8.409-5.88-6.75-26.885-8.024-34.227-8.024-34.227-4.119-6.241-10-7.987c0 0-5.258.675-7.544 6.883 0 0-21.817.5-24.757 25.521z"/><path d="m39.147 90.469 14.678-8.847s25.375-42.358-5.806-72.777c0 0-20.533 9.379-11.154 37.009a13.691 13.691 0 0 0 -8.858 1.739 11.643 11.643 0 0 0 -4.568 15.307 53.268 53.268 0 0 1 4.522 33.862z"/></g><path d="m143.785 231.036-35.922 78.375s-85.491-35.386-85.129-146.911c0 0 2.719-23.7 3.884-33.391l.252-23.241c.331-3.089.7-6.171 1.091-9.1a15.727 15.727 0 0 1 6.571-10.792 26.3 26.3 0 0 1 19.293-4.349s-10.05 95.847 89.96 149.409z" fill="#e7eef2"/><path d="m143.785 231.036c-2.221-1.189-4.369-2.406-6.482-3.636a71.686 71.686 0 0 0 -6.96 4.036l-1.119.735-.018.03c-10.1 6.915-26.064 21.638-29.34 47.036l-.017.028-.158 1.373a85.131 85.131 0 0 0 1.3 25.336 76.783 76.783 0 0 0 6.875 3.437z" fill="#bdd1d6"/><path d="m59.093 246.53a26 26 0 0 1 6.32 9.7 49.292 49.292 0 0 0 9.157 15.335c13.373 15.24 36.7 8.534 36.7 8.534l16-13.025 16.516-36.035a192.941 192.941 0 0 1 -32.644-21.853l-13.867 10.75c-13.98-4.573-24.276-4.371-31.515-2.6a16.618 16.618 0 0 0 -8.644 27.14c.666.756 1.335 1.442 1.977 2.054z" fill="#ff6d55"/><path d="m137.3 227.4a71.686 71.686 0 0 0 -6.96 4.036l-1.119.735-.018.03c-10.1 6.915-26.064 21.638-29.34 47.036l-.017.028-.158 1.373c-.033.3-.048.617-.078.923a47.692 47.692 0 0 0 11.66-1.461l16-13.025 16.516-36.035c-2.222-1.193-4.37-2.41-6.486-3.64z" fill="#d34a37"/><path d="m92.221 190.708c-26.578 6.058-10.845 40.328-10.845 40.328s13.077 8.7 23.878 8.436 9.6-11.769 9.6-11.769c-.547-4.238-.022-10.259.6-15.044a168.525 168.525 0 0 1 -23.233-21.951z" fill="#454f60"/><path d="m193.488 313.61a11.209 11.209 0 0 0 9.04-4.567 35.44 35.44 0 0 0 6.569-24.265 11.243 11.243 0 0 0 -5.588-8.84l-.575-.332a8.487 8.487 0 0 1 -3.65-4.006c-1.3-3.115-5.607-7.651-13.551-12.417l.971-6.2a13.836 13.836 0 0 0 -7.6-12.5c-.434-.211-1.061-.5-1.767-.816a7.277 7.277 0 0 0 -7.387.936l-2.822 2.195s-6.552-7.094-23.346-11.759a56.164 56.164 0 0 0 -10.148 5.416l-27.981 44.834a81.6 81.6 0 0 0 2.207 28.125 269.189 269.189 0 0 0 27.157 7.571l-.1 3.726a5.9 5.9 0 0 0 .347 2.294 8.047 8.047 0 0 0 5.636 4.95 47.89 47.89 0 0 0 13.936 1.1 8.172 8.172 0 0 0 6.8-4.442l2.174-4.088s14.135 1.391 25.151-5.566a8.5 8.5 0 0 1 4.527-1.349z" fill="#e7eef2"/><path d="m84.371 244.816a1.163 1.163 0 0 0 1.777-1.2 84.43 84.43 0 0 1 -.92-22.675 22.863 22.863 0 0 0 -10.7-19s-12.706-9.01-19.528-20.715a1.111 1.111 0 0 0 -2.055.758c2.939 15.916 11.327 49.437 31.426 62.832z" fill="#bdd1d6"/><path d="m80.566 292.112a20.34 20.34 0 0 0 4.237-2.735c9.41-7.958 4.842-23.242-7.3-25.342a35.369 35.369 0 0 0 -11.575.085 34.948 34.948 0 0 1 -12.385-.358 152.775 152.775 0 0 0 27.023 28.35z" fill="#454f60"/><path d="m42.883 156.627c10.8-8.9 16.023-15.526 18.524-20.069-1.476-4.5-2.679-8.854-3.664-13.015a52.425 52.425 0 0 0 -12.337-7.021 31.479 31.479 0 0 1 -9-5.59 24.367 24.367 0 0 0 -9.538-5.066c-1.549 14.432-2.387 29-2.387 29-2.737 22.777-2.105 42.861.819 60.514.717-11.835 4.389-27.88 17.583-38.753z" fill="#ff6d55"/><path d="m28.913 212.041c6.184-2.008 13.766-6.533 13.97-16.681 0 0 2.248-26.523-20.132-32.862a187.735 187.735 0 0 0 6.162 49.543z" fill="#454f60"/><path d="m45.511 129.227a13.852 13.852 0 0 0 13.4-1.049 159.234 159.234 0 0 1 -4.432-23.3 14.521 14.521 0 0 0 -14.072 14.513c-.007 3.9 1.081 7.965 5.104 9.836z" fill="#454f60"/><path d="m105.664 281.287 11.438 2.205a11.04 11.04 0 0 0 8.114-1.587l.232-.151a8.135 8.135 0 0 1 10.123 1.07c4.079 3.967 10.9 8.33 19.16 4.84 13.613-5.748 0-28.436 0-28.436s-7.685-18.059-21.094-22.775c-10.38 6.815-25.343 20.666-27.973 44.834z" fill="#ff6d55"/><ellipse cx="148.702" cy="321.886" fill="#373d4c" rx="3.629" ry="7.343" transform="matrix(.07 -.998 .998 .07 -182.823 447.64)"/><path d="m274.5 190.488c-.111-.727 2.313 6.785-4.473 25.687-8.665 24.143 4.473 29.325 4.473 29.325a18.689 18.689 0 0 0 15.156 0l-9.693-55.111z" fill="#d34a37"/><path d="m316.174 185.942s2 9.173 10.316 27.452c3.718 8.172 4.583 14.248 4.137 18.695a14.132 14.132 0 0 1 -11.818 12.324 31.7 31.7 0 0 1 -11.528-.01v-55.821z" fill="#d34a37"/><path d="m236.143 38.247s8.081 8.081 30.795 2.184 39.1 2.154 39.1 2.154 7.644 3.306 10.7 9.421c0 0 .282 5.9-6.084 9.61 0 0 3.682 24.025-23.182 32.106z" fill="#d34a37"/><path d="m189.981 98.539s8.409 5.88 6.75 26.885 8.024 34.227 8.024 34.227 4.119 6.241 10 7.987c0 0 5.258-.675 7.544-6.883 0 0 21.817-.5 24.757-25.521z" fill="#d34a37"/><path d="m300.853 249.531-14.678 8.847s-25.373 42.358 5.806 72.777c0 0 20.533-9.379 11.154-37.009a13.691 13.691 0 0 0 8.858-1.739 11.643 11.643 0 0 0 4.568-15.308 53.268 53.268 0 0 1 -4.522-33.862z" fill="#d34a37"/><path d="m196.215 108.964 35.922-78.375s59.4 24.587 78.965 97.366l6.164 49.547s-2.719 23.7-3.884 33.391l-.252 23.241c-.331 3.089-.695 6.171-1.091 9.1a15.727 15.727 0 0 1 -6.571 10.792 26.3 26.3 0 0 1 -19.293 4.349s10.05-95.849-89.96-149.411z" fill="#ff6d55"/><path d="m240.143 34.658a81.432 81.432 0 0 0 -8.006-4.069l-35.922 78.375c2.583 1.383 5.074 2.8 7.512 4.238a73.384 73.384 0 0 0 6.479-3.8l1.312-.862.024-.039c10.227-7.047 26.188-21.9 29.555-47.389l.023-.037.183-1.6a85.648 85.648 0 0 0 -1.16-24.817z" fill="#d34a37"/><path d="m280.907 93.47a26 26 0 0 1 -6.32-9.7 49.292 49.292 0 0 0 -9.157-15.335c-13.373-15.24-36.7-8.534-36.7-8.534l-16 13.025-16.516 36.035a192.941 192.941 0 0 1 32.644 21.853l13.867-10.75c13.98 4.573 24.276 4.371 31.515 2.6a16.618 16.618 0 0 0 8.644-27.14c-.666-.756-1.335-1.442-1.977-2.054z" fill="#454f60"/><path d="m228.73 59.9-16 13.025-16.516 36.035c2.583 1.383 5.074 2.8 7.512 4.238a73.529 73.529 0 0 0 6.479-3.8l1.312-.862.024-.039c10.227-7.047 26.188-21.9 29.555-47.389l.023-.037.183-1.6c.037-.338.054-.684.086-1.024a48.153 48.153 0 0 0 -12.658 1.453z" fill="#373d4c"/><path d="m247.779 149.292c26.578-6.058 10.845-40.328 10.845-40.328s-13.077-8.7-23.878-8.436-9.6 11.769-9.6 11.769c.547 4.238.022 10.259-.6 15.044a168.525 168.525 0 0 1 23.233 21.951z" fill="#e7eef2"/><path d="m146.512 26.39a11.209 11.209 0 0 0 -9.04 4.567 35.44 35.44 0 0 0 -6.572 24.265 11.243 11.243 0 0 0 5.588 8.84l.575.332a8.487 8.487 0 0 1 3.65 4.006c1.3 3.115 5.607 7.651 13.551 12.417l-.971 6.2a13.836 13.836 0 0 0 7.6 12.5c.434.211 1.061.505 1.767.816a7.277 7.277 0 0 0 7.387-.936l2.822-2.2s6.552 7.094 23.346 11.759a56.164 56.164 0 0 0 10.148-5.416l27.981-44.834a81.6 81.6 0 0 0 -2.207-28.125 269.189 269.189 0 0 0 -27.157-7.571l.1-3.726a5.9 5.9 0 0 0 -.343-2.284 8.047 8.047 0 0 0 -5.636-4.95 47.89 47.89 0 0 0 -13.936-1.1 8.172 8.172 0 0 0 -6.8 4.442l-2.174 4.088s-14.135-1.391-25.151 5.566a8.5 8.5 0 0 1 -4.528 1.344z" fill="#ff6d55"/><path d="m255.629 95.184a1.163 1.163 0 0 0 -1.777 1.2 84.43 84.43 0 0 1 .92 22.675 22.863 22.863 0 0 0 10.7 19s12.7 9.011 19.526 20.716a1.111 1.111 0 0 0 2.055-.758c-2.937-15.917-11.325-49.438-31.424-62.833z" fill="#d34a37"/><path d="m259.434 47.888a20.34 20.34 0 0 0 -4.237 2.735c-9.41 7.958-4.842 23.242 7.3 25.342a35.369 35.369 0 0 0 11.575-.085 34.948 34.948 0 0 1 12.385.358 152.775 152.775 0 0 0 -27.023-28.35z" fill="#e7eef2"/><path d="m297.117 183.373c-10.8 8.9-16.023 15.526-18.524 20.069 1.476 4.5 2.679 8.854 3.664 13.015a52.425 52.425 0 0 0 12.337 7.021 31.479 31.479 0 0 1 9 5.59 24.367 24.367 0 0 0 9.538 5.066c1.549-14.432 2.387-29 2.387-29a237.9 237.9 0 0 0 1.747-27.636c.037-11.8-2.407-22.721-4.086-32.862-.717 11.836-2.869 27.864-16.063 38.737z" fill="#454f60"/><path d="m311.087 127.959c-6.184 2.008-13.766 6.533-13.97 16.681 0 0-2.248 26.523 20.132 32.862a187.735 187.735 0 0 0 -6.162-49.543z" fill="#e7eef2"/><path d="m294.489 210.773a13.852 13.852 0 0 0 -13.4 1.049 159.234 159.234 0 0 1 4.432 23.3 14.521 14.521 0 0 0 14.072-14.513c.012-3.9-1.081-7.965-5.104-9.836z" fill="#e7eef2"/><path d="m234.336 58.713-11.438-2.2a11.04 11.04 0 0 0 -8.114 1.587l-.232.151a8.135 8.135 0 0 1 -10.123-1.07c-4.079-3.967-10.9-8.33-19.16-4.84-13.613 5.748 0 28.436 0 28.436s7.685 18.059 21.094 22.775c10.38-6.82 25.343-20.671 27.973-44.839z" fill="#454f60"/><ellipse cx="191.298" cy="18.114" fill="#373d4c" rx="3.629" ry="7.343" transform="matrix(.07 -.998 .998 .07 159.809 207.67)"/><path d="m185.733 259.183.971-6.2a13.836 13.836 0 0 0 -7.6-12.5c-.434-.211-1.061-.5-1.767-.816a7.277 7.277 0 0 0 -7.387.936l-2.822 2.195c10.086 7.054 13.749 10.544 18.605 16.385z" fill="#bdd1d6"/><path d="m203.509 275.938-.575-.332a8.531 8.531 0 0 1 -3.574-3.846c.768 1.672 7.083 16.935-5.872 41.85a11.209 11.209 0 0 0 9.04-4.567 35.438 35.438 0 0 0 6.569-24.265 11.243 11.243 0 0 0 -5.588-8.84z" fill="#bdd1d6"/><path d="m153.3 87.02a13.836 13.836 0 0 0 7.6 12.5c.434.211 1.061.505 1.767.816a7.277 7.277 0 0 0 7.387-.936l2.822-2.2-18.6-16.388z" fill="#d34a37"/><path d="m150.019 25.6a8.313 8.313 0 0 1 -3.512.8 11.209 11.209 0 0 0 -9.04 4.567 35.438 35.438 0 0 0 -6.567 24.255 11.243 11.243 0 0 0 5.588 8.84l.575.332s-2.83-23.333 12.956-38.794z" fill="#d34a37"/></svg>