<svg id="flat" height="512" viewBox="0 0 500 500" width="512" xmlns="http://www.w3.org/2000/svg"><path d="m460.834 433.1c11.478.928 25.119-7.359 30.022-17.779s1.663-24.292-7.885-30.728c10.423-6.136 9.129-21.89-2.179-26.221-4.68-1.2-5.391-3.867-4.156-8.3 2.64-9.53 2.753-22.437-6.846-27.973-3.615-2-8.212-2.389-11.061-5.385-1.595-1.677-2.389-3.935-3.331-6.05a40.1 40.1 0 0 0 -33.477-23.185c-39.5-.083-67.912 36.423-79.615 70.981-11.255 30.291-9.334 61.116 9.268 75.379z" fill="#4f424c"/><path d="m422.15 153.244c-5.607-3.543-13.312-5.195-15.815-11.337-1-2.448-.919-5.178-1.255-7.8-1.413-11.029-12.3-20.96-23.391-21.767.964-20.8-21.5-35.859-41.272-31.308-5.7 1.177-11.968 3.647-17.031.912-4.938-2.668-4.465-11.666-19.248-15.185-9.754-2.322-20.335 2.461-27.486 8.858-3.234 3.356-5.925 3.828-10 1.472a25.978 25.978 0 0 0 -23.869 1.326c-5.983 4.269-8.556 3.9-13.557-1.422-15.039-12.863-46.234-8.536-51.673 22.989-6.873.291-12.967 5.764-13.4 12.04 1.063 12-5.13 11.145-16.129 12.626l-17.467 83.135 142.437 167.6 121.673-9.683 25.733-119.184-2.235-60.139 10.428-18.848c-.985-5.897-3.072-10.719-6.443-14.285z" fill="#bfcc7f"/><path d="m400.143 239.211c-8.506 23.6-31.517 36.284-55.507 38.729 10.533-11.272 18.548-25.362 21.2-40.356.74-4.178-5.061-5.9-6.418-1.77-6.662 20.25-17.82 38.235-35.85 50.241-13.425 8.988-30.627 12.212-41.62 24.672-2.518 2.913-6.2 7.09-4.784 11.14 1.95 3.791 5.6-.705 6.782-2.927a33.951 33.951 0 0 1 6.043-6.619c13.5-10.524 31.111-13.656 44.282-24.832 6.038-3.416 13.722-2.68 20.448-4.035 22.63-3.629 47.369-18.354 51.026-42.7.5-3.671-4.229-5.099-5.602-1.543z" fill="#ffe"/><path d="m347.626 120.675c-2-2.525-5.66.69-4.289 3.309 12.033 21.608 8.122 46.706-2.973 67.972.558-20.125-12.058-41.1-28.583-52.193-2.486-1.591-6.612-4.677-9.729-2.867a2.6 2.6 0 0 0 -1.163 2.858c.594 2.778 4.055 3.847 6.111 5.167 10.3 6.529 17.226 17.019 22.089 28.012 15.743 34.877-19.814 56.49-24.881 61.571a194.919 194.919 0 0 0 -19.636 22.99c-2.712-15.851-15.441-27.669-26.236-38.656-7.167-23.681 32.37-34.588 33.913-66.3.272-4.087-5.639-4.483-6.836-.925-2.652 7.887-5.08 15.5-10.113 22.268-9 11.729-23.043 20.678-25.259 36.869-12.278-11.829-24.754-23.586-35.146-37.158-4.659-6.087-8.252-13.019-13.081-18.935-1.439-1.763-4.078.165-3.6 2.1 8.362 25.082 38.145 49.561 56.162 68.852 11.892 11.849 27.545 27.77 20.956 46.112-6.433 11.717-12.485 24.129-13.767 37.8l6.512 1.727c2.816-22.01 16.341-41.283 29.8-58.268 10.8-13.907 25.444-23.975 36.572-37.54 19.651-25.711 34.362-65.909 13.177-94.765z" fill="#ffe"/><path d="m439.1 212.353c-4.916-4.955-11.922-9.037-12.828-15.958-.778-5.946 3.407-11.265 5.281-16.961a23.282 23.282 0 0 0 -9.565-26.287c9.529 17.733-11.058 34.257-13.239 41.789-2.209 7.63-2.027 15.923-5.231 23.192-7.108 15.437-28.821 26.7-19.971 44.545a8.652 8.652 0 0 1 3.907 7.121c7.45 11.29 8.977 19.181-1.332 28.717-11.048 11.448-22.55 23.208-37.287 29.2-20.828 8.448-44.352 1.737-51.315-20.485-2.066-1.1-2.918-3.293-2.509-6.627-3.022-8.629-7.27-16.784-14.944-21.994a6.068 6.068 0 0 1 -6.2-4.246c-21.525-13.03-13.752-19.83-25.534-30.549-11.328-8.036-28.74 5.025-40.423-2.485-6.418-4.126-8.606-13.233-15.477-16.551-4.817-2.327-10.486-1.1-15.835-1.038-26.628.42-44.139-29.068-31.013-52.248 2.7-4.809 6.569-9.084 7.963-14.419 2.887-10.82-5.452-21.581-3.564-32.709-14.579.947-19.845 15.046-17.563 26.334a12.146 12.146 0 0 1 -8.293 13.281c-12.362 4.107-21.487 23.843-11.1 38.185 0 0-8.978 3.49-11.415 8.029-5.988 11.152-4.252 25.468 4.277 35.282l64.015 129s15.286 43.948 113.662 43.948 134.348-90.454 134.348-90.454l15.551-53.608 2.809-26.587c4.255-9.985 5.725-21.504 2.825-35.417z" fill="#919951"/><path d="m274.182 290.107c1.77-3.905 3.755-7.736 5.883-11.5-2-1.487-4.1-2.871-6.2-4.249-5.741 10.955-11.175 22.486-12.3 35.155l6.512 1.727c.56-7.318 3.123-14.546 6.105-21.133z" fill="#edc89e"/><path d="m280.111 323.064c2.017-.9 2.622-2.36 3.838-4.124a38.556 38.556 0 0 1 13.572-11.713c-.87-2.188-1.681-4.413-2.512-6.626-6.068 3.249-20.059 13.456-17.842 21.265a2.045 2.045 0 0 0 2.944 1.198z" fill="#edc89e"/><path d="m400.143 239.211a57.6 57.6 0 0 1 -16.593 23.461 66.557 66.557 0 0 0 3.9 7.122c9.354-7.213 16.7-17.247 18.294-29.038.501-3.673-4.228-5.101-5.601-1.545z" fill="#edc89e"/><path d="m447.341 296.972c1.991-10.922-1.613-22.219-7.261-31.777a10.971 10.971 0 0 1 -1.654-3.73c-.5-3.148 1.908-5.906 3.783-8.484 8.876-12.2 7.23-30.914-3.774-41.276a61.964 61.964 0 0 1 -14.165 37.995 17.153 17.153 0 0 0 -3.375 15.867c6.25 18.739.854 43.948-19.045 51.5-4.159 1.544-8.761 2.145-12.4 4.68-11.442 7.966-5.838 28.163-16.271 37.411-7.905 7.008-20.348 3.812-30.394 7.082-10.248 3.337-16.865 12.933-24.6 20.442-17.6 17.091-46.159 24.034-67.6 12.115-10.5-5.835-18.453-15.425-28.679-21.723a54.649 54.649 0 0 0 -52-2.594l29.086 58.613 152.589.745c17.059.262 32.742-13.264 30.6-30-.479-2.98-1.418-6.394.64-8.706 1.311-1.472 3.461-1.991 5.414-2.616 11.111-3.072 20.583-15.01 14.877-26.221 9.617-3.665 18.645-9.555 23.452-18.072s6.19-21.893-.92-29.022c11.037-1.187 19.705-11.307 21.697-22.229z" fill="#4f424c"/><path d="m6.877 372.913c.041-9.484 4.237-18.629 10.065-26.441 1.3-1.739 2.741-3.62 2.592-5.726s-1.854-3.8-3.27-5.472a26.649 26.649 0 0 1 -.628-33.274c5.608-5.815 6.069-9.392 5.4-17.23-.327-17.527 8.284-29.209 27.08-31.77.541-20.106 20.9-38.011 42.673-37.02 2.548-8.713 21.278-20.48 46.534-12.234 22.487-9.121 38.047-6.73 49.356-.425l43.076 56.531 7.849 60.324-36.374 82.864-146.53 15.383z" fill="#bfcc7f"/><path d="m225.918 338.566c-3.935 1.058-7.015 4.205-10.98 5.548a34.616 34.616 0 0 1 -13.1 1.629c-7.23-.41-17.825-4.657-23.934.89a2.086 2.086 0 0 0 .915 3.466c4.722.84 9.567.288 14.4 1.186 4.7.874 9.356 1.724 14.162 1.483 6.843-.343 18.889-2.6 22.054-9.622 1.077-2.383-.697-5.338-3.517-4.58z" fill="#ffe"/><path d="m207.019 293.512c-1.137-3.6-6.6-2.127-5.673 1.564 3.627 14.433-6.809 24.771-18.833 32.709 4.429-9.584 3.137-20.981-.979-30.475-2.159-5.086-5.435-12.592-10.518-15.308a2.292 2.292 0 0 0 -3.323 2.554c.916 4.857 5.058 9.269 7.062 13.814 6.879 15.28 3.558 29.182-9.25 39.362-8.638 5.126-18.082 9.673-25.362 16.744 5.948-41 18.787-63.518-10.556-100.583-2.173-2.7-6.635.8-4.785 3.693 18.312 26.822 19.842 43.912 11.866 74.985-7.783-18.717-23.137-30.878-38.652-42.715-3.405-2.646-6.536-6.21-10.315-8.259a2.158 2.158 0 0 0 -3.133 2.409c1.867 6.628 9.553 11.325 14.556 15.566a179.858 179.858 0 0 1 16.917 15.728c9.66 10.4 16.913 23.964 16.925 38.417q-1.43 10.928-1.955 21.948c-5.616-8.638-14.514-14.052-23.831-17.9-6.942-2.931-14.939-6.834-22.471-7.482-2.447-.21-2.622 2.94-1.112 4.106 3.939 3.04 9.071 4.871 13.943 6.71-3.928 1.68-7.774 3.988-11.07 5.173-9.846 3.435-21.806 4.03-30.439-2.548a2.2 2.2 0 0 0 -3.262 1.872c-.2 9.592 17.549 10.353 23.9 9.8a49.341 49.341 0 0 0 15.637-4c5.861-3.006 10.754-5.74 17.545-4.786 11.584 5.561 19.022 16.857 20.771 29.134-.093 10.97.27 23.207 6.011 32 2.538 3.889 8.815.259 6.253-3.655-4.011-6.129-4.153-13.6-4.56-20.7a255.244 255.244 0 0 1 .154-32.112c6.651-26.89 80.198-36.253 68.539-77.765z" fill="#ffe"/><path d="m253.551 277.506c-7.344-6.5-13.808-11.4-10.624-19.121 4.2-10.189-2.756-26.847-24-25.851-7.179.337-14.449-19.282-32.252-29.208a2.874 2.874 0 0 0 -.083 3.019c3.731 6.244 4.556 12.205 4.081 19.318-.361 5.392.618 9.973 3.993 14.249 3.121 3.956 7.293 6.793 11.163 9.946 28.8 23.529 16.792 64.9 6.828 94.919a16.12 16.12 0 0 1 -2.677 7.786c-10.534 27.2-25.351 35.413-53.189 25.923a55.693 55.693 0 0 0 -18.617-1.829l-13.721 2.623c-22.757 7.648-45.3 23.56-70.268 17.07 0 0-5.235 25.548 34.335 27.389s131.345 0 131.345 0l27.856-52.454 6.9-45.551c8.112-16.515 8.245-32.616-1.07-48.228z" fill="#919951"/><path d="m229.438 343.146c1.074-2.383-.7-5.338-3.52-4.58-4.626 1.34-8.316 5.326-13.261 6.21-.826 2.591-1.7 5.2-2.678 7.786 6.948-.734 16.664-3.218 19.459-9.416z" fill="#edc89e"/><path d="m136.635 427.75c2.538 3.889 8.815.259 6.253-3.655-4.011-6.129-4.153-13.6-4.56-20.7a254.922 254.922 0 0 1 -.152-26.731 61.851 61.851 0 0 0 -13.719 2.619 43.562 43.562 0 0 1 6.167 16.462c-.093 10.971.27 23.208 6.011 32.005z" fill="#edc89e"/><path d="m349.407 206.393c-4.952-.343-4.931 7.369 0 7.711 15.963 1.106 30.825-4.755 40.636-17.568 4.471-5.893 12.317-20.041 11.249-27.381a2.269 2.269 0 0 0 -3.761-.993c-2.262 2.243-3.043 6.292-4.3 9.151-7.195 18.43-23.555 31.035-43.824 29.08z" fill="#ffe"/><path d="m262.106 178.308c2.786 0 4.148-4.119 1.479-5.459-4.141-2.078-8.893-3.986-12.622-6.9-6.57-5.127-8.1-11.566-8.537-19.525-.178-3.255-5.094-4.255-5.916-.8-3.624 15.222 9.964 32.707 25.596 32.684z" fill="#ffe"/><path d="m93.289 332.947c2.877 4.65 4.159 9.622 5.849 14.75 1 3.031 5.892 2.675 5.778-.782-.115-9.429-9.292-26.042-18.695-28.726a2.206 2.206 0 0 0 -2.461 3.2c2.386 4.311 6.874 7.267 9.529 11.558z" fill="#ffe"/><path d="m256.754 406.888c1.145-7.243-2.436-15.029.688-21.758 1.68-3.616 5.045-6.284 7.716-9.35 10.883-12.494 8.443-33-5.117-43.024 14.789-22.569 11.771-40.043-6.49-55.249 6.27 19.321 3.968 49.082-18.55 51.316-3.09.306-4.93 3.818-2.594 6.261 6.978 7.244 15.7 18.945 8.989 28.911-2.8 3.931-8.56 5.341-10.014 10.021-16.345 52.6-55.848 44.623-79.057 34.416a42.652 42.652 0 0 0 -33.28-.582c-28.541 11.7-63.563 1.17-70.1-21.463-1.285-4.447-6.035-6.895-9.5-9.859-2.734-2.342-6.233-5.027-6.906-8.784-.5-2.81 2.1-11.153 4.669-18.382a13.287 13.287 0 0 0 -5.908-16.023c-11.6-6.552-15.466-17.826-15.667-31.339a26.658 26.658 0 0 0 .628 33.274c3.97 4.047 4.361 6.8.677 11.2-12.176 14.988-15.339 39.516 3.2 50.8 2.6 1.527 5.662 2.756 7.153 5.247 1.349 2.252 1.076 4.988 1.337 7.55.953 9.353 9.533 16.84 19.091 20.08s20.019 3.065 30.2 2.85l134.14.092c16.923.165 40.455-9.036 44.695-26.205z" fill="#4f424c"/><path d="m115.437 202.809c7.689-1.377 13.517-.489 20.133 3.939a3.367 3.367 0 0 0 3.506 0c12.07-8.611 31.687-10.427 42.858.547 6.073 6.116 7.014 13.735 9.443 21.569 1.15 3.707 6.857 3.1 6.86-.928-.822-33.282-38.82-45.065-63.37-26.643l4.209-.543c-7.361-4.558-18.4-7.862-25.85-1.74-1.932 1.586.226 4.155 2.211 3.8z" fill="#919951"/><path d="m212.381 230.436c5.065 7.168 14.935 4.961 20.959 10.75 8.268 7.428 2.664 17.417 6.637 26.2 3.779 7.956 11.806 12.578 14.815 21.129 3.23 9.175 1.841 19.646-2.66 28.172-1.24 2.349 2.047 5.292 3.883 3 6.152-7.688 8.322-16.776 6.831-26.526-1.609-10.524-7.549-16.745-14.036-24.577-7.293-8.887.138-19.073-8.457-29.261a22.021 22.021 0 0 0 -9.79-7.176c-5.2-1.862-11.124-.927-15.841-4.048-1.389-.919-3.33.941-2.341 2.341z" fill="#4f424c"/><path d="m429.562 175.988c-16.709 27.355 9.885 31.7 4.24 55.457-1.721 7.164-6.8 12.8-8.608 19.772-.5 1.918 1.818 4.16 3.649 2.806 9.837-7.274 14.537-24.3 12.223-35.923-1.383-6.945-5.97-11.9-9.088-18.038-3.722-7.323-1.576-15.337.861-22.693.66-1.991-2.216-3.041-3.277-1.381z" fill="#4f424c"/><g fill="#919951"><path d="m30.392 282.54c-3.145 11.6-1.586 26.433 7.972 34.8a2.237 2.237 0 0 0 3.5-2.7c-5.518-9.86-9.555-19.34-7.084-30.889.608-2.843-3.613-4.053-4.385-1.208z"/><path d="m43.417 300.786c.726 6.3 3.025 12.681 8.245 16.61 1.615 1.216 3.855-1.152 2.758-2.757-3.137-4.594-6.017-8.787-6.929-14.4-.371-2.282-4.343-1.776-4.074.551z"/><path d="m65.277 314.475a2.8 2.8 0 0 0 -.015-1.677v1.419a1.429 1.429 0 0 0 .064-.417c.565-3.556-5.025-4.311-5.424-.735a2.759 2.759 0 0 0 3.5 3.016h-1.422a2.31 2.31 0 0 0 1.222.1 2.344 2.344 0 0 0 2.075-1.7z"/><path d="m178.772 110c-10.656 8.061-10.925 31.381-1.134 40.185 1.645 1.48 4.626.071 3.9-2.269-1.888-6.063-4.447-11.256-4.432-17.805.017-6.695 3.082-11.523 4.837-17.676.473-1.66-1.61-3.614-3.168-2.435z"/><path d="m186.362 124.905c-2.267 6.2-.226 15.393 4.514 19.972 1.528 1.475 4.817.006 3.878-2.258-1.114-2.688-2.573-5.2-3.392-8.012-.894-3.068-.851-6.049-1.155-9.182a1.968 1.968 0 0 0 -3.845-.52z"/><path d="m203.952 140.67c.091.222.186.442.279.663l.429.556a2.56 2.56 0 0 0 1.578.756 2.715 2.715 0 0 0 2.031-.541 2.67 2.67 0 0 0 1-1.452 2.767 2.767 0 0 0 -.292-2.093l-.43-.556-.556-.43a2.576 2.576 0 0 0 -1.753-.326 1.361 1.361 0 0 0 -.693.188 2.7 2.7 0 0 0 -1.1.846 2.864 2.864 0 0 0 -.494 2.389z"/><path d="m380.51 127.549c5.485 8.35 7.276 17.229 7.3 27.1a2.2 2.2 0 0 0 4.305.583c3.174-10.1-1.094-22.8-8.66-29.955a1.883 1.883 0 0 0 -2.945 2.272z"/><path d="m376.743 145.863c-.569 2.716.325 5.506.237 8.28-.1 3.018-.908 5.87-1.288 8.837-.216 1.7 2.425 2.774 3.481 1.442 3.6-4.542 5.273-15.019.429-19.314a1.728 1.728 0 0 0 -2.859.755z"/><path d="m194.085 255.927a37 37 0 0 1 5.748 9.7c1.226 3.155 1.657 6.522 2.8 9.691.71 1.976 4.014 2.446 4.5 0 1.638-8.292-3.792-17.348-10.076-22.362a2.1 2.1 0 0 0 -2.966 2.967z"/><path d="m187.32 264.964c-.207 2.142 1.055 4.479 1.485 6.6.474 2.341.559 4.721.984 7.06.4 2.221 3.406 1.751 4.045 0a14.7 14.7 0 0 0 .1-8.473c-.61-2.351-1.725-5.531-3.982-6.694a1.772 1.772 0 0 0 -2.628 1.508z"/></g></svg>