<svg id="flat" height="512" viewBox="0 0 340 340" width="512" xmlns="http://www.w3.org/2000/svg"><path d="m322.031 157.1c-9.615-.4-23.634-.694-39.3-.919 1.942-2.319 12.743-15.074 19.6-20.091 0 0-11.8-10.505-23.405-16.955 0 0-24.354 17.734-40.406 36.6-9.389-.064-20.948-.111-33.51-.141 18.876-19.937 33.072-35.257 33.072-35.257-7.236-8.592-19.9-19.671-19.9-19.671-7.21 5.794-19.758 17.788-34.015 31.976v-30.242c7.644-6.423 27.435-24.287 36.694-44.274l-14.555-18.432a215.32 215.32 0 0 1 -22.135 23.166v-44.891h-27.071c-.4 9.615-.694 23.634-.919 39.3-2.319-1.942-15.074-12.743-20.091-19.6 0 0-10.505 11.8-16.955 23.405 0 0 17.734 24.354 36.6 40.406-.061 8.99-.107 19.962-.137 31.905-19.58-18.53-34.524-32.378-34.524-32.378-8.592 7.235-19.672 19.9-19.672 19.9 5.886 7.325 18.17 20.157 32.652 34.694-12.2.03-23.419.076-32.576.139-16.052-18.866-40.406-36.6-40.406-36.6-11.61 6.45-23.4 16.955-23.4 16.955 6.856 5.017 17.657 17.772 19.6 20.091-15.663.225-29.682.523-39.3.919v27.071h44.888a215.32 215.32 0 0 1 -23.166 22.135l18.429 14.559c19.987-9.259 37.851-29.05 44.274-36.694h31.36c-18.282 19.033-32.016 33.618-32.016 33.618l21.933 19.9c8.063-7.141 19.443-18.261 31.924-30.864.03 11.864.076 22.761.137 31.7-18.866 16.052-36.6 40.406-36.6 40.406 6.45 11.61 16.955 23.405 16.955 23.405 5.017-6.856 17.772-17.657 20.091-19.6.225 15.663.523 29.682.919 39.3h27.071v-44.901a215.32 215.32 0 0 1 22.135 23.166l14.559-18.429c-9.259-19.987-29.05-37.851-36.694-44.274v-32.979c19.392 18.634 34.355 32.723 34.355 32.723l19.9-21.932c-7.012-7.917-17.856-19.03-30.178-31.244h29.352c6.423 7.644 24.287 27.435 44.274 36.694l18.429-14.559a215.32 215.32 0 0 1 -23.166-22.135h44.891zm-152.031 31.344s-14-14.068-17.567-20.012c0 0 8.784-10.126 17.567-18.624 8.783 8.5 17.567 18.624 17.567 18.624-3.567 5.944-17.567 20.012-17.567 20.012z" fill="#a0bcf2"/><path d="m67.758 42.646c-10.567 7.685-19.596 20.654-19.596 20.654 7.3 10.278 19.6 20.652 19.6 20.652s12.3-10.374 19.6-20.652c-.008 0-9.038-12.969-19.604-20.654z" fill="#7289d3"/><path d="m272.242 42.646c-10.566 7.685-19.6 20.653-19.6 20.653 7.3 10.278 19.6 20.652 19.6 20.652s12.3-10.374 19.6-20.652c-.004.001-9.033-12.968-19.6-20.653z" fill="#9cbbef"/><path d="m67.758 254.3c-10.567 7.685-19.6 20.653-19.6 20.653 7.3 10.278 19.6 20.653 19.6 20.653s12.3-10.375 19.6-20.653c-.004 0-9.034-12.968-19.6-20.653z" fill="#9cbbef"/><path d="m272.242 254.3c-10.566 7.685-19.6 20.653-19.6 20.653 7.3 10.278 19.6 20.653 19.6 20.653s12.3-10.375 19.6-20.653c-.004 0-9.033-12.968-19.6-20.653z" fill="#d4e6ff"/><path d="m322.031 157.1c-9.615-.4-23.634-.694-39.3-.919 1.942-2.319 12.743-15.074 19.6-20.091 0 0-11.8-10.505-23.405-16.955 0 0-24.354 17.734-40.406 36.6-9.389-.064-20.948-.111-33.51-.141 18.876-19.937 33.072-35.257 33.072-35.257-7.236-8.592-19.9-19.671-19.9-19.671-7.21 5.794-19.758 17.788-34.015 31.976l-8.717 22.629c6.632 6.843 12.113 13.161 12.113 13.161-3.563 5.944-17.563 20.012-17.563 20.012s-2.282-2.293-5.237-5.417l-9.165 23.8c.03 11.864.076 22.761.137 31.7-18.866 16.052-36.6 40.406-36.6 40.406 6.45 11.61 16.955 23.405 16.955 23.405 5.017-6.856 17.772-17.657 20.091-19.6.225 15.663.523 29.682.919 39.3h27.071v-44.898a215.32 215.32 0 0 1 22.135 23.166l14.559-18.429c-9.259-19.987-29.05-37.851-36.694-44.274v-32.979c19.392 18.634 34.355 32.723 34.355 32.723l19.9-21.932c-7.012-7.917-17.856-19.03-30.178-31.244h29.352c6.423 7.644 24.287 27.435 44.274 36.694l18.429-14.559a215.32 215.32 0 0 1 -23.166-22.135h44.891z" fill="#7289d3"/></svg>