<svg id="flat" height="512" viewBox="0 0 340 340" width="512" xmlns="http://www.w3.org/2000/svg"><path d="m292.621 127.3.87.6a10.677 10.677 0 0 1 4.331 11.388 47.514 47.514 0 0 0 -1.187 12.349c.251 14.3-5.77 27.6-5.77 27.6l13.8 1.311-2.007 12.236-7.913.535a23.28 23.28 0 0 0 -16.586 8.681c-5.724 7.133-15.13 17.536-26.181 24.651l-8.53-12.293s22.152-16.658 34.243-39.194a42.648 42.648 0 0 0 5.009-18.937c.234-8.187 1.926-21.596 9.921-28.927z" fill="#c47c74"/><ellipse cx="179.66" cy="255.273" fill="#f8ffff" rx="85.562" ry="74.727"/><g fill="#a6d2f7"><circle cx="205.26" cy="219.266" r="4.173"/><circle cx="209.783" cy="251.021" r="4.173"/><circle cx="207.179" cy="282.776" r="4.173"/><path d="m153.147 296.719c-8.4-11.055-12.494-21.972-13.917-32.127-4.221-30.12 18.027-57.482 48.279-60.618a411.117 411.117 0 0 1 52.7-1.5c-15.487-13.546-36.895-21.928-60.546-21.928-47.257 0-85.563 33.454-85.563 74.727s38.306 74.727 85.56 74.727a94.334 94.334 0 0 0 45.932-11.695c-23.462 3.915-53.882 2.85-72.445-21.586z"/></g><circle cx="179.66" cy="135.237" fill="#f8ffff" r="56.281"/><path d="m198.065 141.839c.608 6.149 6.8 10.56 12.978 10.473a204.484 204.484 0 0 0 41.381-4.781c3.649-.84 4.355-6.579 4.355-6.579a5.651 5.651 0 0 0 -2.65-3.069 105.761 105.761 0 0 0 -15.455-6.978l-5.519-1.786a89.451 89.451 0 0 0 -10.655-2.419l-6.647-.8q-2.5-.2-5.064-.239a13.764 13.764 0 0 0 -8.7 2.932c-3.989 3.107-4.479 8.635-4.024 13.246z" fill="#f98658"/><circle cx="179.594" cy="115.594" fill="#a6d2f7" r="4.173"/><circle cx="211.609" cy="115.594" fill="#a6d2f7" r="4.173"/><path d="m256.765 140.957c-4.888 1.144-10.876 2.353-17.148 3.171a2.656 2.656 0 0 1 -3.01-2.484 22.42 22.42 0 0 1 2.065-10.734q-2.66-.95-5.518-1.785c-1.874 3.363-3.489 7.866-2.171 15.828a84.143 84.143 0 0 1 -8.624.087 2.638 2.638 0 0 1 -2.417-1.977c-2.094-8.136.508-13.568 2.55-16.346q-3.246-.526-6.645-.8c-4.54 5.969-3.595 13.073-1.936 18.094-12.485-2.754-12.981-10.449-11.857-15.394a13.635 13.635 0 0 0 -5 13.643q.121.561.289 1.137a13.806 13.806 0 0 0 13.481 9.841 207.5 207.5 0 0 0 41.85-4.714 5.73 5.73 0 0 0 4.091-7.567z" fill="#db593b"/><path d="m171.593 107.577 55.867-2.044a56.265 56.265 0 1 0 -26.153 81.667c-5.7-4.607-13.91-9.692-25.749-14.862-19.859-8.673-26.175-24.277-27.462-37.9a24.526 24.526 0 0 1 23.497-26.861z" fill="#a6d2f7"/><path d="m42.01 142.682 4-1.581s5.268 19.318 24.084 16.558c0 0 3.415-2.176 2.92-13.733a10.5 10.5 0 0 1 8.334-10.667l2.043-.437s6.3 15.038.427 29.933a26.053 26.053 0 0 0 -.594 17.193c2.883 9.358 10.215 21.387 28.767 25.88l-6.773 12.544s-34.873-7.526-39.389-47.165c0 0-22.591 3.174-29.762-14.96a10.493 10.493 0 0 1 5.943-13.565z" fill="#c47c74"/><path d="m154.658 193.666a133.7 133.7 0 0 0 -23.995 32.965 55.6 55.6 0 0 0 -8.426 20.81 96.861 96.861 0 0 0 -3.855 22.375s-16.921-2.286-26.682-15.424a18.729 18.729 0 0 1 -2.1-18.559 123.835 123.835 0 0 1 7.023-13.858l13.511-17.734c5.819-5.754 12.755-10.49 20.858-12.722z" fill="#f74f73"/><path d="m154.658 193.666-23.672-2.147a44.868 44.868 0 0 0 -16.031 8.423c7.222 7.391 17.1 10.166 25.2 11.077a122.276 122.276 0 0 1 14.503-17.353z" fill="#d6305b"/><path d="m230.668 196.637h-12.356c-8.75-1.542-17.134-1.713-25.014 0h-27.631a84.389 84.389 0 0 0 -24.763 0h-13.978a8.544 8.544 0 0 1 -8.544-8.545v-4.475a13.616 13.616 0 0 1 13.618-13.617h10.427a84.413 84.413 0 0 0 23.067 0h27.34c7.341 2.4 15.105 2.177 23.184 0h9.58a13.616 13.616 0 0 1 13.617 13.617v4.475a8.545 8.545 0 0 1 -8.547 8.545z" fill="#f74f73"/><path d="m122.251 247.445a116.637 116.637 0 0 1 8.416-20.812c-6.74-5.03-16.066-13.172-20.533-22.386a87.985 87.985 0 0 0 -13.513 17.73c2.714 6.386 10.013 19.567 25.63 25.468z" fill="#fff"/><path d="m165.492 170h-23.067a107.159 107.159 0 0 0 -1.521 26.637h24.763c-.953-6.48-1.907-16.967-.175-26.637z" fill="#fff"/><path d="m216.016 170h-23.184c-.684 6.974-1.134 17.145.466 26.637h25.014a176.393 176.393 0 0 1 -2.296-26.637z" fill="#fff"/><path d="m221.04 59.4c-23.506 3.166-52.119 2.369-82.759 0v-39.47a9.929 9.929 0 0 1 9.929-9.93h62.9a9.93 9.93 0 0 1 9.93 9.93z" fill="#f74f73"/><path d="m148.21 10a9.929 9.929 0 0 0 -9.929 9.93v39.47c10.113.782 20 1.387 29.558 1.741.154-19.846.612-42.013.814-51.138z" fill="#d6305b"/><path d="m138.281 59.397h82.759v22.885h-82.759z" fill="#fff"/><path d="m167.853 59.4h-29.572v22.882h29.549c-.07-6.557-.049-14.554.023-22.882z" fill="#f7d5df"/><path d="m120.053 79.887h118.683a9.181 9.181 0 0 1 9.181 9.181v9.181a0 0 0 0 1 0 0h-137.045a0 0 0 0 1 0 0v-9.181a9.181 9.181 0 0 1 9.181-9.181z" fill="#f74f73"/></svg>