<svg id="flat" height="512" viewBox="0 0 500 500" width="512" xmlns="http://www.w3.org/2000/svg"><path d="m352.262 83.922c3.73-5.19 7.25-25.218-4.279-21.233-5.16 2.638-13.863 3.959-23.2.864-6.969-2.311-14.849.477-21.465 3.627.726-6.24-.018-15.344-7.639-16.624-4.414-.6-6.482 2.97-9.512 4.967-9.49 6.256-23.282-4.738-33.373.542a31.4 31.4 0 0 0 4.751-16.806c-.018-4.683-5.285-7.534-9.427-5.189-11.4 6.458-30.234 10.625-38.684 21.746-3.246-4.609-2.141-11.608-8.156-14.45a10.4 10.4 0 0 0 -10.642 1.3c-6.442 4.886-7.226 12.8-7.8 20.157a63.521 63.521 0 0 0 -52.487-1.711c-9.634 3.931-1.614 20.23 2.46 26.144-11.979-2.991-30.673-3.095-30.042 13.711.153 4.643 7.715 11.553 9.4 15.9-10.648-1.39-19.016 8.5-14.394 13.416a38.444 38.444 0 0 0 13.216 9.095l-23.343 77.093 3.739 212.029 147.244 31.52 175-23.872 37.836-172.091-69.711-146.528c-10.423-14.629-20.482-27.157-29.492-33.607z" fill="#7bb7b7"/><path d="m459.8 293.724c-19.059-141.193-78.041-176.195-78.041-176.195-4.6-6.464-9.137-12.514-13.54-17.813-2.322 12.066-10.948 17.672-17.866 20.259a3.781 3.781 0 0 0 -.857 6.6 29.919 29.919 0 0 1 2.98 2.452 5.712 5.712 0 0 1 -.9 8.952c-14.433 9.422 1.051 26.126-3.912 39.353a5.064 5.064 0 0 1 -8.757 1.115c-2.327-3.023-5.652-6.35-9.645-7.566-2.805-.854-6.837-.176-5.528 3.218 6.718 19.632-1.159 22.935-16.689 18.382-2.407.322-3.189 3.459-1.422 5.387 8.489 9.261 4.363 24.424-4.577 31.88-12.058 10.058-29.941 11.923-43.466 2.473-1.751-1.223-1.71 2.855-1.69 4.831.114 11.583 11.026 24.67 19.942 23.3a4.451 4.451 0 0 1 4.556 2.457c4.038 7.828 10.373 16.444 17.844 15.212 8.065-1.329 15.661-6.047 24.011-5.659 7.318.34 11.98 7.067 19.213 7.749 13.731 1.295 20.594-15.123 33.779-15.868 15.179-.858 28.008 16.8 20.791 30.2-3.888 7.219-32.261 26.187-39.841 24.447a3.516 3.516 0 0 0 -3.92 5.1c5.875 11.849 10.341 27.071 31.16 26.484 10.75-.3 15.066-12.164 21.9 1.078 5.053 9.789-.521 20.564-8.546 26.783-16.278 12.614-40.884 10.2-55.711-3.453-3.086-2.842-7.262.7-5.592 4.316 6.056 13.11 2.192 25.985-5.935 36.622-12.523-9.2-28.087 1.2-41.833.2-6.368-.43-13.041-3.7-15.348-9.65l-8.275-14.112c-1.38 23.6 7.2 35.53 16.022 41.555a7.633 7.633 0 0 1 -3.069 13.871c-19.963 3.218-45.1-.9-65.861-3.435-14.807-1.808-30.258-4.532-43.09-12.6q-1.751-1.1-3.43-2.359a4.681 4.681 0 0 1 -.211-7.32c2.717-2.247 5.98-6.072 8.664-12.282 1.079-2.5-1.906-4.654-4.2-4.2-7.629 1.5-14.625-1.323-19.209-4a4.943 4.943 0 0 1 -.875-7.813c5.282-5.151 13.17-15.3 12.879-29.775a3.566 3.566 0 0 0 -5.234-3c-9.075 5.817-23.173-15.627 13.516-22.874a3.567 3.567 0 0 0 1.772-6.057c-3.475-3.387-7.493-7.78-8.294-10.662 7.043-8.2 7.868-19 7.421-26.238-.231-3.753-4.476-6.621-7.553-4.46-22.809 16.017-61.513 28.251-68.469-22.612-3.952-26.4 20.143-48.313 45.417-39.729 2.29.758 1.353-5.091-.792-6.139-6.458-3.156-9.139-9.609-6.982-16.474.975-3.1 5.042-10.724 11.823-10.054a9.65 9.65 0 0 0 9.369-5.335c2.6-5.04 7.338-11.345 15.13-12.807 7.3-1.371 15.15 8.181 20 6.428 14.9-5.383 24.058-18.946 28.3-26.834 1.354-2.518-1.075-6.779-3.486-5.245-17.378 11.06-78.131 5.906-102.646-12.414l-34.392 52.097-36.876 129.689s11.2 145.127 99.892 145.127l256.414.431s82.818-31.822 63.765-173.014z" fill="#4d8489"/><path d="m478.275 358.119c.329-4.458-1.326-10.368-2.827-14.589 7.434.84 15.974-5.761 14.415-13.6-3.633-9.429-13.1-1.369-15.764-20.662 6.818-.512 16.914-2.178 17.227-11.949.2-10.09-4.766-23.174-23.029-36.981 6.9-1.938 10.884-7.37 13.146-12.312a9.8 9.8 0 0 0 -5.536-13.212 41.092 41.092 0 0 0 -11.865-2.651 26.747 26.747 0 0 0 10.858-19.738 7.257 7.257 0 0 0 -7.782-7.61 37.193 37.193 0 0 1 -24.457-7.647 16.956 16.956 0 0 0 10.016-16.781 6.32 6.32 0 0 0 -2.2-4.659 9.326 9.326 0 0 0 -4.127-1.187 30.568 30.568 0 0 1 -21.47-14.295c4.594-2.682 18.8-14.318 15.667-20.067-1.155-2.293-3.355-2.124-5.343-2.277-15.079-2.076-20.159-17.343-46.057-19.431 6.88-5.014 13.937-16.559 7.708-23.624a5.2 5.2 0 0 0 -3.441-.243c-6.653 1.056-14.55 1.2-21.2 2.251a36.577 36.577 0 0 0 -19.948-12.933s19.583 20.278-11.713 34.715a1.858 1.858 0 0 0 .49 3.513 237.816 237.816 0 0 1 41.831 11.164c3.678 1.351 7.754 3.192 8.206 7.584.493 5.825-5.22 9.429-9.775 11.665a3.991 3.991 0 0 0 -.168 7.014c9.218 5.1 15.041 16.508 12.583 26.9-.748 4.556-4.5 5.133-8.426 3.686a114.263 114.263 0 0 1 -17.228-7.075c-6.038-2.135-3.674 9.3-3.2 12.457a2.627 2.627 0 0 1 -2.754 3.163c-2.493-.17-8.6-.2-13.57-.186a5.106 5.106 0 0 0 -4.9 6.548c2.288 7.6 4 19.657-6.252 23.725-8.15 3.234-17.339-6.568-22.445-13.27a5.12 5.12 0 0 0 -8.15 0c-5.83 7.622-13.046 16.073-13.046 16.073a25.718 25.718 0 0 1 -10.419-10.5 2.628 2.628 0 0 0 -4.428-.394 71.282 71.282 0 0 1 -12.316 12.762 2.659 2.659 0 0 1 -4.075-.964 60.657 60.657 0 0 1 -4.979-16 1.823 1.823 0 0 0 -3.582-.153c-2.817 11.74-1.764 23.97 4.148 33.583a6.6 6.6 0 0 0 8.49 2.463 35.726 35.726 0 0 0 7.349-4.86 6.549 6.549 0 0 1 8.722.257c2.845 2.677 6.6 6.109 9.991 8.879a6.583 6.583 0 0 0 9.346-1.041l7.593-9.683c2.456-3.694 5.65-4.375 9.665-2.561a75.318 75.318 0 0 1 19.9 11.4 7.761 7.761 0 0 0 10.3-.48 41.953 41.953 0 0 0 11.676-21.816 7.723 7.723 0 0 1 9.621-5.963c6.547 1.862 12.19 4.6 16.06 9.063 7.28 7.917 18.491-11.645 21.553-19.091a5 5 0 0 1 7.965-1.868c13.647 12.406 4.375 25.752 21.273 35.205l4.4 2.371a8.051 8.051 0 0 1 3.446 10.545c-7.333 15.395-24.791 18.891-39.21 16.232a5.966 5.966 0 0 0 -6.564 3.416c-2.058 4.629-5.074 11.193-5.706 11.39-1.554.484-9.779-2.832-15.392-5.234a5.212 5.212 0 0 0 -7.021 3.228c-1.271 4.022-3.187 9.691-5.473 15.2-3.826 8.085-11.749 5.92-17.32.807a2.479 2.479 0 0 0 -3.971 2.591 37.554 37.554 0 0 0 20 23.3 7.42 7.42 0 0 0 9.545-3.109 57.844 57.844 0 0 0 5.613-15.994 3.283 3.283 0 0 1 5.349-1.831c4.928 3.928 16.641 13.479 19.983 4.478 7.222-21.836 8.216-13.222 26.5-13.565a14.436 14.436 0 0 1 13.753 9.834c17.783 52.8-4.918 83.417-24.452 74.667a7.8 7.8 0 0 0 -10.159 4.063c-10.279 22.427-31.174 19.8-44.228 11.466a6.478 6.478 0 0 0 -8.734 1.72c-4.171 5.884-13.881 8.575-21.087 5.5-6.735-2.876-13.913-8.8-19.312-15.284a6.549 6.549 0 0 0 -10.623.872c-14.483 24.012-32.413 5.339-40.267-8.574a2.569 2.569 0 0 0 -4.818 1.279c.638 19.592 12.851 29.675 21.092 34.268 16.676 9.014 23.4-14.434 37.129-2.235 12.787 13.3 29.754 16.314 48.156 11.142 19.895-6.609 59.837 9.3 27.8 34.36l17.272.029c26.894.1 49.822-20.617 51.7-47.447 2.913 3.762 9.388 3.2 12.717-.209 6.339-6.994 3.215-17.825-.6-25.415 1.519-.129 3.958-.4 6.362-.674a9.17 9.17 0 0 0 8.195-9.468c-.304-6.868-2.912-16.755-13.402-25.436z" fill="#4f424c"/><path d="m139.621 466.308s-33.021-7.808-41.345-24.169c-7.622-14.457-2.59-34 13.034-40.088 2.659-1.261 1.921-5.649-1.875-5.2a7.155 7.155 0 0 1 -6.629-3.428 8.3 8.3 0 0 0 -10.637-2.879c-9.053 4.41-21.828.463-28.321-7.925-10.348-12.402-10.938-44.819-.313-57.192a3.682 3.682 0 0 0 -1.945-6.027c-4.616-1.045-9.436-1.623-13.284-4.843-7.231-6.756-1.464-13.5 6.216-16.181l12.515-5.291c3.971-1.678 8.312-3.389 12.479-2.28 6.047 1.608 9.39 8.016 11.894 13.751 7.755 17.76 20.452 6.821 23.062-.535 6.334 8.5 16.143 14.722 25.222 4.68a104.961 104.961 0 0 0 8.841-11.123 1.817 1.817 0 0 0 -2.327-2.638c-14.381 7.2-26.54 4.535-29.387-13.322a1.7 1.7 0 0 0 -2.849-1.066c-13 11.9-17.457-1.565-17.993-8.947a1.707 1.707 0 0 0 -2.656-1.288c-4.551 3.035-10.114 5.087-13.979 1.678-13.172-11.616 2.513-28 .965-27.163 3.178-5.1 3.529-11.12-1.015-16.154-7.55-8.054-.427-22.191 4.344-31.9 2.653-5.4 8.2-7.121 14.337-7.631a5.209 5.209 0 0 0 4.726-5.779c-2.748-24 20.857-23.056 34.728-11.6a4.1 4.1 0 0 0 6.6-2.125c2.842-10.738 7.978-13.151 16.836-8.129 10.054 5.265 19.733 3.524 26.976.4a4.449 4.449 0 0 0 -1.111-8.494c-8.873-1.3-19.977-4.93-26.3-14.534a4.867 4.867 0 0 0 -7.5-.9c-17.615 16.121-41.93 1.4-41.93 1.4l-18.152 5.139c-8.162 2.301-16.948 5.032-21.848 11.817s-2.6 18.729 5.771 20.1c-16.826.2-25.874 19.911-14.329 32.382-12.7 4.449-19.961 20-15.094 32.314a39.95 39.95 0 0 1 -20.542 12.274 8.388 8.388 0 0 0 -5.7 11.732c1.892 4.03 4.549 7.641 7.91 9.528-8.233.275-16.56 5.144-19.228 12.774s1.912 17.378 9.969 19.054c-5.271 4.555-5.951 11.159-9.623 17.12-4.366 7.727 1.317 14.694 9.265 16.218a58.95 58.95 0 0 0 -11.093 34.328 4.884 4.884 0 0 0 6.3 4.671 16.641 16.641 0 0 1 8.359-.218 71.6 71.6 0 0 1 -5.561 19.6 7.774 7.774 0 0 0 8.581 10.8 36.362 36.362 0 0 0 7.738-2.43c-3.409 12.876 1.308 46.671 21.125 36.077l6-2.5c9.886 16.523 29.384 26.2 48.527 26.094z" fill="#4f424c"/><g fill="#4d8489"><path d="m131.33 240.26c-5.2 3.24-7.728 11.133-8.8 16.875-1.191 6.361-1.123 13.293 2.06 19.091a2.373 2.373 0 0 0 4.389-1.189c-.2-5.7-.954-11.2.167-16.887 1.079-5.475 4.55-9.841 5.871-15.058a2.536 2.536 0 0 0 -3.687-2.832z"/><path d="m141.92 255.682c-2.895 5.089-4.066 13.066-.458 18.148 1.815 2.558 5.277.926 4.862-2.05-.337-2.412-1.121-4.619-1.125-7.1a22.24 22.24 0 0 1 1.3-7.068c.911-2.712-3.187-4.377-4.579-1.93z"/><path d="m160.193 268.5a3.163 3.163 0 0 0 0 6.325 3.163 3.163 0 0 0 0-6.325z"/><path d="m331.586 310.263c-1.315-.9-3.472.624-2.84 2.183 2.183 5.386 5.111 9.685 5.863 15.655.76 6.034-.69 11.6-2.082 17.4a2.461 2.461 0 0 0 4.473 1.885c7.079-9.912 5.051-29.949-5.414-37.123z"/><path d="m317.885 329.181c-.726 2.519-.269 5.256-.845 7.857a41.3 41.3 0 0 1 -3.023 7.877c-1.026 2.31 1.581 4.645 3.608 2.783 4.265-3.919 7.475-13.835 3.687-18.965a1.9 1.9 0 0 0 -3.427.448z"/><path d="m321.4 119.617c3.7-8.3 5.827-17.7 7.886-26.521a2.651 2.651 0 0 0 -5.108-1.408c-2.887 8.345-6.1 17.238-7.362 26-.36 2.512 3.315 4.783 4.584 1.929z"/><path d="m309.129 103.307c-2.285 2.076-2.676 5.6-3.455 8.491a57.132 57.132 0 0 0 -2.127 9.957c-.207 2.449 3.711 3.562 4.738 1.284a56.916 56.916 0 0 0 2.993-9.7c.728-2.909 2.129-6.237 1.142-9.169a2 2 0 0 0 -3.291-.863z"/></g></svg>