<svg id="Flat" height="512" viewBox="0 0 340 340" width="512" xmlns="http://www.w3.org/2000/svg"><path d="m146.684 107.021v-13.068a58.459 58.459 0 0 1 58.46-58.46h84.367a45.163 45.163 0 0 1 45.163 45.163v136.637a35.534 35.534 0 0 1 -35.535 35.535h-22.063v-32.1h17.249a16.048 16.048 0 0 0 16.048-16.048v-116.687a26.365 26.365 0 0 0 -26.365-26.365h-69.923a33.471 33.471 0 0 0 -33.471 33.472v10.545z" fill="#5f72ad"/><path d="m72 160.754-13.172 19.938-6.408-1.425s-25.294-.758-41.556-8.458a9.572 9.572 0 0 1 -4.514-12.959 95.514 95.514 0 0 1 33.968-37.14 9.581 9.581 0 0 1 13.712 3.817z" fill="#e1ecfe"/><path d="m285.1 131.985v-16.8a12.523 12.523 0 0 0 -12.522-12.522h-140.7a12.523 12.523 0 0 0 -12.523 12.522v16.8a12.522 12.522 0 0 0 12.523 12.522 12.523 12.523 0 0 0 -12.523 12.522v41.705l-47.355-37.98-19.58 18.513c6.169 14.543 19.67 35.568 33.4 55.251 0 0 26.127 35.956 33.532 45.564v11.9a12.522 12.522 0 0 0 12.523 12.522h140.7a12.522 12.522 0 0 0 12.525-12.519v-23.121a17.294 17.294 0 0 0 -5.681-12.814l-2.345-2.126 1.378-1.077a17.292 17.292 0 0 0 6.648-13.628v-82.19a12.523 12.523 0 0 0 -12.522-12.522 12.522 12.522 0 0 0 12.522-12.522z" fill="#89b9f2"/><g fill="#5f72ad"><path d="m272.58 148.007h-103.819a3.5 3.5 0 0 1 0-7h103.819a3.5 3.5 0 0 1 0 7z"/><path d="m274.734 257.621h-138.225a3.5 3.5 0 0 1 0-7h138.225a3.5 3.5 0 1 1 0 7z"/><path d="m152.212 148.007h-1.467a3.5 3.5 0 0 1 0-7h1.467a3.5 3.5 0 0 1 0 7z"/><path d="m85.823 234.518c10.759 16.1 26.758 37.212 33.532 45.564v-81.348l-11.447-9.181z"/></g></svg>