<svg id="flat" height="512" viewBox="0 0 340 340" width="512" xmlns="http://www.w3.org/2000/svg"><path d="m127.682 140c-3.465 2.3-7.212 4.546-11.241 6.67 0 0-29.433 13.735-36.72 54.1s1.121 63.069 1.121 63.069l34.073 3.308-10.528 39.313v23.051h140.154v-21.992l-15.812-59.177 25.731-33.554c3.132-22.1-5.707-40.921-16.045-59.336a82.924 82.924 0 0 0 -17.323-13.127z" fill="#ffb655"/><path d="m244.541 307.519v-46.1c-34.617-17.072-84.733-41.27-84.733-41.27l-62.84 49.062 7.419 2.473v34.776c10.278 2.06 28.219 2.2 43.425-15.5 17.389-20.235 22.565-29.621 22.565-29.621s23.592 12.828 31.864 26.131c6.141 9.879 23.559 22.994 42.3 20.049z" fill="#e87b31"/><path d="m126.483 220.151c-16.2 4.655-35.727 14.241-45.863 33.962-3.992 7.768-3.311 17.288 2.332 23.955.2.235.405.47.618.7 0 0 22.7 11.093 50.08-15.144s-7.167-43.473-7.167-43.473z" fill="#cc938b"/><path d="m152.872 215.766a113.475 113.475 0 0 0 -26.388 4.387 74.112 74.112 0 0 1 12.509 14.1 11.947 11.947 0 0 1 -.893 14.147c-9.559 11.473-31.956 34.551-54.529 30.367 3.9 4.268 10 7.917 19.549 8.471a41.66 41.66 0 0 0 26.955-8.262c9.717-7.132 24.507-20.709 37.813-44.058z" fill="#ad6666"/><path d="m205.516 263.5s13.829 19.373 38.785 10.52c17.18-6.094 5.149-53.937 5.149-53.937-7.752-3.444-19.411-6.052-36.289-4.316l-1.306 10.233s-43.673-34.154-77.484-12.22c0-.005 30.88 13.372 71.145 49.72z" fill="#cc938b"/><path d="m134.376 213.782a49.815 49.815 0 0 0 -7.893 6.37s35.612 11.163 75.877 47.51c0 0 18.274 20.51 43.23 11.657 17.18-6.094 17.17-50.239 17.17-50.239s-3.576-4.665-13.313-8.993c-2.37 35.293-21.442 53.561-42.846 33.049a160.579 160.579 0 0 0 -72.225-39.354z" fill="#ad6666"/><path d="m238.431 155.481-.016-.029a82.924 82.924 0 0 0 -17.323-13.127h-.005q-3.748-2.149-7.941-4.065s-27.75-10.651-34.477-27.47h-19.622s-10.6 15.438-31.369 29.205c3.159 7.707 13.484 22.586 37.523 26.081a59.239 59.239 0 0 0 37.873-7.318 12.671 12.671 0 0 1 12.4-.092c11.217 6.149 31.7 22.6 33.976 61.421l13.313 8.993s6.048-43.368-24.332-73.599z" fill="#e87b31"/><path d="m181.714 123.745-.473-30.093-36.615-3.278v40.8c0 .2.024.394.03.593 0 .003 20.544 2.957 37.058-8.022z" fill="#ad6666"/><path d="m111.818 48.567a38.078 38.078 0 0 1 38.082-38.078h8.263a38.078 38.078 0 0 1 38.078 38.078v31.073l-15.124 6.874z" fill="#3c3c4f"/><path d="m111.818 48.567h38.533a12.116 12.116 0 0 1 11.406 7.958c2.294 6.328 6.93 14.942 16 20.062a2.447 2.447 0 0 0 3.528-1.263c1.065-3.015 3.51-7.508 8.627-7.508a10.174 10.174 0 0 1 10.175 10.174v9.942a10.1 10.1 0 0 1 -10.882 10.154 15.329 15.329 0 0 1 -7.542-3.047s-3.025 25.848-31.623 25.848h-4.125a34.1 34.1 0 0 1 -34.1-34.1z" fill="#cc938b"/><path d="m128.9 85.593h32.893v4.25a16.447 16.447 0 0 1 -16.447 16.446 16.446 16.446 0 0 1 -16.446-16.446z" fill="#fff"/><path d="m130.96 72.262a3.046 3.046 0 0 1 -.673-.076l-3.59-.823a3 3 0 0 1 1.34-5.849l3.59.823a3 3 0 0 1 -.667 5.925z" fill="#9b5959"/><path d="m147.434 72.262a3 3 0 0 1 -.667-5.925l3.59-.823a3 3 0 0 1 1.34 5.849l-3.59.823a3.046 3.046 0 0 1 -.673.076z" fill="#9b5959"/><path d="m163.228 149.779a18.6 18.6 0 0 1 -18.592-18.009s4.122-7 15.966-8.942a50.777 50.777 0 0 1 21.112.917l.116 7.432a18.6 18.6 0 0 1 -18.602 18.602z" fill="#ad6666"/></svg>