<svg id="Flat" height="512" viewBox="0 0 340 340" width="512" xmlns="http://www.w3.org/2000/svg"><path d="m52.539 10h234.922a18.78 18.78 0 0 1 18.78 18.78v301.22a0 0 0 0 1 0 0h-272.482a0 0 0 0 1 0 0v-301.22a18.78 18.78 0 0 1 18.78-18.78z" fill="#f2f2f2"/><path d="m267.243 138.847c2.588-2.708 4.856-5.176 6.789-7.34a24.715 24.715 0 0 0 -1.547-34.516c-18.545-17.338-40.851-33.525-52.544-41.662a32.263 32.263 0 0 0 -.825-4.358 29.2 29.2 0 0 0 -10.97-16.565 24.922 24.922 0 0 0 -11.782-15.724c-5.258-3.088-11.948-4.654-19.884-4.654a82.728 82.728 0 0 0 -19.73 2.666c-6.033-.072-10.35-4.874-11.776-6.694h-35.249l-1.825 11.1a35.4 35.4 0 0 0 8.035 29.358c-.024.059-.048.116-.07.171l-.015.03-.169.437-.008.02-.157.405-.014.047a28.686 28.686 0 0 0 -1.05 3.543l-.069.048-.069.048-.091.063c-11.683 8.13-34.043 24.348-52.623 41.721a24.715 24.715 0 0 0 -1.547 34.516c3.663 4.1 8.526 9.289 14.52 15.161a30.486 30.486 0 0 0 -10.481 8.954 1.532 1.532 0 0 0 2.049 2.211 38.114 38.114 0 0 1 14.434-5.421c3.248 3.036 6.758 6.2 10.529 9.462-7.894.875-14.335 5.046-18.784 8.989a1.852 1.852 0 0 0 1.914 3.1 46.647 46.647 0 0 1 28.566-1.563 41.32 41.32 0 0 1 10.184 27.738c-.195 15.413-.4 30.211-.6 43.982q-.132 9.086-.263 17.386a34.989 34.989 0 0 0 -13.644-3.663 2.438 2.438 0 0 0 -1.235 4.625 70.316 70.316 0 0 1 14.712 9.357c-.162 9.805-.321 18.645-.475 26.423-.022 1.084-.043 2.141-.064 3.186-6.162-5.125-13.71-6.843-19.68-7.279a1.852 1.852 0 0 0 -.884 3.535 46.581 46.581 0 0 1 20.249 17.983c-.137 5.618-.269 10.3-.395 13.986l-.005.341h112.686l-.012-.341c-.239-7-.5-17.572-.773-31.413-.049-2.446-.1-5-.147-7.655a55.523 55.523 0 0 1 20.6-19.272 1.919 1.919 0 0 0 -1.122-3.59c-9.952 1.082-16.058 5.169-19.718 9.1q-.117-6.882-.236-14.457a55.743 55.743 0 0 1 22.7-13.449 1.914 1.914 0 0 0 -.382-3.733c-11.087-1.026-18.246 2.547-22.494 6.056q-.053-3.506-.106-7.128c-.2-13.771-.4-28.569-.6-43.982a41.444 41.444 0 0 1 15.224-32.636c1.461-1.2 2.875-2.393 4.269-3.577a46.581 46.581 0 0 1 26.605 2.036 1.853 1.853 0 0 0 1.915-3.1c-4.18-3.7-10.114-7.619-17.364-8.805 3.617-3.335 6.925-6.521 9.919-9.507a38.08 38.08 0 0 1 13.623 5.283 1.532 1.532 0 0 0 2.049-2.211 30.7 30.7 0 0 0 -10.093-8.772z" fill="#ccc"/><path d="m265.656 104.3c-26.605-24.874-61.087-47.315-61.087-47.315l-12.84 14.315c16.364 21.9 41.037 40.029 41.037 40.029-20.645 8.56-26.183 24.169-26.183 24.169-14.351-6.042-24.169 2.518-24.169 2.518v-16.109h-30.745v16.113s-9.819-8.56-24.169-2.518c0 0-5.539-15.609-26.183-24.169 0 0 24.673-18.126 41.037-40.029l-12.84-14.323s-34.482 22.441-61.087 47.319a14.716 14.716 0 0 0 -.919 20.549 335.418 335.418 0 0 0 36.612 34.932 51.623 51.623 0 0 1 18.864 40.486c-.468 37.026-1.393 103.725-2.281 129.737h92.677c-.888-26.012-1.813-92.711-2.281-129.737a51.623 51.623 0 0 1 18.864-40.486 335.483 335.483 0 0 0 36.611-34.932 14.715 14.715 0 0 0 -.918-20.549z" fill="#f9beac"/><path d="m119.932 76.013s-6.731 7.237-1.606 21.159a190.663 190.663 0 0 0 24.028-25.872l-12.84-14.323s-5.531 3.6-13.862 9.507a18.2 18.2 0 0 0 4.28 9.529z" fill="#e5897a"/><path d="m204.569 56.981-12.84 14.319a190.663 190.663 0 0 0 24.028 25.868c5.125-13.922-1.606-21.159-1.606-21.159a18.2 18.2 0 0 0 4.279-9.525c-8.33-5.902-13.861-9.503-13.861-9.503z" fill="#e5897a"/><path d="m139.611 102.97a27.671 27.671 0 0 1 -8.965-.964 11.053 11.053 0 0 1 -7.346-10.534v-2.82a10.789 10.789 0 0 1 2.562-7.138c2.156-2.455 6.06-4.689 13.055-3.8z" fill="#f9beac"/><path d="m194.549 102.97a27.678 27.678 0 0 0 8.966-.964 11.054 11.054 0 0 0 7.35-10.534v-2.82a10.789 10.789 0 0 0 -2.562-7.138c-2.156-2.455-6.06-4.689-13.055-3.8z" fill="#f9beac"/><path d="m131.492 45.235a30.958 30.958 0 0 0 -5.4 7.116 18.708 18.708 0 0 0 4.977 23.961c5.166 3.938 8.192 8.794 8.192 12.728l13.554-35.592z" fill="#ff9d45"/><path d="m131.492 45.235a30.976 30.976 0 0 0 -5.4 7.116 18.753 18.753 0 0 0 -1.092 2.363 35.14 35.14 0 0 0 23.544 8.816l.79-.94 3.481-9.142z" fill="#f27927"/><path d="m144.674 56.981s-31.177-8.3-26.908-34.255l10.934 5.464a21.165 21.165 0 0 1 7.343-13.49s8.027 12.807 22.2 11.954c0 0 38.936-11.613 40.814 14 0 0 7.735 2.7 10.389 12.844a20.473 20.473 0 0 1 -1.765 15.375c-2.348 4.1-6.746 8.325-14.942 8.837l-5.812-15.71z" fill="#ff9d45"/><path d="m182.414 121.907h-30.745v10.839a44.033 44.033 0 0 0 30.745 0z" fill="#e5897a"/><path d="m193.992 63.745c-1.1-2.758-2.614-5.451-4.584-6.764h-44.734c-1.97 1.313-3.48 4.006-4.583 6.764a34.945 34.945 0 0 0 -2.393 12.99v21.9a29.343 29.343 0 0 0 29.343 29.344 29.344 29.344 0 0 0 29.344-29.344v-21.9a34.945 34.945 0 0 0 -2.393-12.99z" fill="#f9beac"/><path d="m137.7 87.063v11.574c0 .8.041 1.592.1 2.376a17.656 17.656 0 0 0 3.152 2.471 18.288 18.288 0 0 0 25.518-6.83q.255-.508.486-1.039.238.551.5 1.077a18.242 18.242 0 0 0 28.818 4.352c.064-.794.106-1.6.106-2.407v-11.574z" fill="#e5897a"/><path d="m165.1 84.4h-27.4v9.264a12.141 12.141 0 0 0 5.355 6.418c6.847 4.222 16.383 1.687 19.843-5.219a23.031 23.031 0 0 0 2.202-10.463z" fill="#313847"/><path d="m168.823 84.4h27.562v9.3a12.191 12.191 0 0 1 -5.385 6.432c-6.888 4.236-16.481 1.692-19.963-5.236a23.07 23.07 0 0 1 -2.214-10.496z" fill="#313847"/><g fill="#e5897a"><path d="m158.293 155.308 5.718 4.034a4 4 0 0 0 4.913-.235l5.718-4.914a4 4 0 0 0 -5.215-6.067l-3.353 2.881-3.17-2.236a4 4 0 1 0 -4.611 6.537z"/><path d="m199.589 182.78a4 4 0 0 0 -5.6-.809c-5.23 3.909-12.311 5.146-17.33 5.5a2.425 2.425 0 0 1 -1.866-.662 2.477 2.477 0 0 1 -.794-1.828v-16.667a4 4 0 1 0 -8 0v16.663a10.49 10.49 0 0 0 10.5 10.5c.239 0 .48-.008.72-.025 6.091-.424 14.775-1.994 21.564-7.068a4 4 0 0 0 .806-5.604z"/><path d="m160.007 195.431a4 4 0 1 0 -1.162-7.915 28.72 28.72 0 0 1 -19.36-4.421 4 4 0 0 0 -4.365 6.7 36.818 36.818 0 0 0 19.833 6 34.785 34.785 0 0 0 5.054-.364z"/><path d="m182.825 217.583a17.029 17.029 0 0 1 -12.509-.572v-10.43a4 4 0 0 0 -8 0v10.71a12.955 12.955 0 0 1 -11.548.666 4 4 0 0 0 -2.916 7.45 22.113 22.113 0 0 0 8.11 1.591 20.692 20.692 0 0 0 10.576-2.944 24.7 24.7 0 0 0 10.707 2.44 25.992 25.992 0 0 0 8.045-1.3 4 4 0 0 0 -2.465-7.611z"/><path d="m166.316 230.572a4 4 0 0 0 -4 4v20.763a4 4 0 0 0 8 0v-20.763a4 4 0 0 0 -4-4z"/></g><path d="m211.7 244.264c-8.288 2.939-23.673 7.074-44.655 7.074s-36.366-4.135-44.655-7.074c-.269 18.408-.58 37.711-.906 54.18 15.083 4.843 36.311 3.275 45.561 2.253 9.251 1.022 30.478 2.59 45.562-2.253-.33-16.469-.641-35.772-.907-54.18z" fill="#f96262"/><path d="m167.041 330h4v-33.192a4 4 0 0 0 -8 0v33.192z" fill="#e5897a"/><path d="m175.187 275.514h-15.247a4 4 0 0 0 0 8h3.1v17.579c1.5-.131 2.843-.268 4-.4 1.158.128 2.5.265 4 .4v-17.579h4.146a4 4 0 0 0 0-8z" fill="#d34242"/><path d="m147.639 84.398h38.684v5.329h-38.684z" fill="#313847"/></svg>