<svg id="Flat" height="512" viewBox="0 0 340 340" width="512" xmlns="http://www.w3.org/2000/svg"><path d="m104.284 19.571s38.095 4.438 51.78 50.3c0 0 6.9 27.37 43.643 31.315l-12.822 15.78s-33.534-6.411-48.574 14.3c0 0-19.479 29.342-53.26 20.712 0 0 27.99-20.223 33.287-55.478 7.151-47.587-14.054-76.929-14.054-76.929z" fill="#5f6f96"/><path d="m208.052 301.447s16.468 19.29 54.269 12.969a3.821 3.821 0 0 0 2.171-6.388 73.106 73.106 0 0 1 -17.55-32.128z" fill="#5f6f96"/><path d="m272.4 128.529c12.354 11.124 22.179 27.434 21.3 51.038a79.771 79.771 0 0 1 -14.869 42.893c-7.8 11.052-19.857 24.741-35.323 31.785 0 0-123.674 57.837-213.408-2.977a134.4 134.4 0 0 1 -25.945-46.7s17.5-25.686 65.2-20.605c0 0 142.539 21.452 155.523-35.846 0 0 3.67-20.6-25.967-29.355 25.515-4.517 50.789-7.262 73.489 9.767z" fill="#a6b1d8"/><path d="m30.108 251.268s24.051-26.262 69.112-1.382c0 0 83.446 44.65 160.339-10.71l15.757 9.328s-45.18 73.014-125.547 71.913a130.2 130.2 0 0 1 -64.973-18.9c-17.74-10.631-42.296-28.266-54.688-50.249z" fill="#ebf6ff"/><path d="m246.942 247.36s61.865 27.96 88.581-35.068a3.822 3.822 0 0 0 -4.137-5.285c-10.837 1.835-33.075 3.416-54.3-8.508z" fill="#a6b1d8"/><g fill="#5f6f96"><path d="m102.2 215.691a3.5 3.5 0 0 1 -1.3-6.75l4.2-1.683a3.5 3.5 0 1 1 2.6 6.5l-4.2 1.683a3.484 3.484 0 0 1 -1.3.25z"/><path d="m177.885 242.675a3.49 3.49 0 0 1 -2.552-1.1c-13.226-14.084-5.784-30.958-5.46-31.67a3.5 3.5 0 0 1 6.378 2.886c-.254.572-5.767 13.394 4.185 23.993a3.5 3.5 0 0 1 -2.551 5.9z"/><path d="m197.839 238.8a3.49 3.49 0 0 1 -2.552-1.1c-13.227-14.084-5.783-30.958-5.46-31.67a3.5 3.5 0 0 1 6.377 2.887c-.259.584-5.762 13.4 4.186 23.992a3.5 3.5 0 0 1 -2.551 5.9z"/><path d="m215.844 231.339a3.49 3.49 0 0 1 -2.552-1.1c-13.225-14.084-5.783-30.959-5.459-31.671a3.5 3.5 0 0 1 6.378 2.885c-.248.558-5.773 13.39 4.184 23.995a3.5 3.5 0 0 1 -2.551 5.9z"/><path d="m227.145 106.343a224.59 224.59 0 0 0 -27.1-4l-1.129 16.414a49.95 49.95 0 0 1 13.685 6.155c9.242-3.627 31.735-9.524 59.8 3.615-19.484-17.54-45.256-22.184-45.256-22.184z"/></g><path d="m123.43 191.811s8-2.882 15.694-14.232a54.19 54.19 0 0 0 7.484-16.949c3.647-14.177 17.615-55.7 59.116-72.682a2.228 2.228 0 0 1 2.966 2.787c-4.748 13.447-15.583 52.975 14 69.409-.002 0-28.209 53.221-99.26 31.667z" fill="#a6b1d8"/></svg>