<svg id="icons" height="512" viewBox="0 0 340 340" width="512" xmlns="http://www.w3.org/2000/svg"><path d="m282.173 285.38a4 4 0 0 0 -4 4v3.432h-21.127v-3.432a4 4 0 0 0 -8 0v31.162a4 4 0 0 0 8 0v-19.73h21.127v19.73a4 4 0 0 0 8 0v-31.162a4 4 0 0 0 -4-4z" fill="#c12140"/><path d="m86.954 285.38a4 4 0 0 0 -4 4v3.432h-21.127v-3.432a4 4 0 0 0 -8 0v30.162a4 4 0 0 0 8 0v-18.73h21.127v18.73a4 4 0 0 0 8 0v-30.162a4 4 0 0 0 -4-4z" fill="#c12140"/><path d="m105.299 266.075h129.402v49.468h-129.402z" fill="#f74f73"/><path d="m105.299 205.893h129.402v60.182h-129.402z" fill="#f74f73"/><path d="m105.299 111.658h129.402v63.394h-129.402z" fill="#f74f73"/><path d="m179.95 43.333a5.076 5.076 0 0 0 1.288-9.434l-2-1.067a4.3 4.3 0 0 1 .915-7.943l1.142-.3a3.543 3.543 0 0 0 .3-6.754l-1.8-.655a4.3 4.3 0 0 1 -2.829-4.038 5.646 5.646 0 0 0 -5.646-5.647h-2.632a5.646 5.646 0 0 0 -5.646 5.647 4.3 4.3 0 0 1 -2.829 4.038l-1.8.655a3.543 3.543 0 0 0 .3 6.754l1.142.3a4.3 4.3 0 0 1 .915 7.943l-2 1.067a5.076 5.076 0 0 0 1.288 9.434 3.815 3.815 0 0 1 2.988 3.724v2.716a4.3 4.3 0 0 1 -2.275 3.792l-2.812 1.5a3.545 3.545 0 0 0 -1.876 3.127v7.273h27.85v-7.274a3.545 3.545 0 0 0 -1.876-3.127l-2.812-1.5a4.3 4.3 0 0 1 -2.275-3.792v-2.715a3.815 3.815 0 0 1 2.98-3.724z" fill="#ffc257"/><path d="m132.519 279.668a8.629 8.629 0 0 1 8.629 8.629v9.792a1 1 0 0 1 -1 1h-15.256a1 1 0 0 1 -1-1v-9.789a8.629 8.629 0 0 1 8.629-8.629z" fill="#373d4c"/><path d="m252.185 90.675a56.488 56.488 0 0 1 -47.329-13.98 79.546 79.546 0 0 1 -6.8-6.935 12.5 12.5 0 0 0 -9.458-4.3h-37.198a12.594 12.594 0 0 0 -9.514 4.36 79.268 79.268 0 0 1 -5.964 6.158c-13.182 12.222-31.333 17.9-48.992 14.536-1.269-.242-2.546-.532-3.818-.878a3.514 3.514 0 0 0 -4.339 4.272c1.905 7.062 7.452 17.75 23.577 17.75h135.3c16.123 0 21.671-10.686 23.577-17.748a3.51 3.51 0 0 0 -4.3-4.284c-1.583.431-3.17.774-4.742 1.049z" fill="#4c5768"/><path d="m156.075 129.349v45.702h13.925 13.925v-45.702z" fill="#373d4c"/><path d="m243.493 175.051h-146.986c-1.863 13.684-14.428 15.626-21.17 15.664a2.8 2.8 0 0 0 -2.468 4.127c3.492 6.252 9.667 9 13.863 10.184a23.67 23.67 0 0 0 6.441.867h153.654a23.67 23.67 0 0 0 6.441-.867c4.2-1.185 10.371-3.932 13.863-10.184a2.8 2.8 0 0 0 -2.468-4.127c-6.742-.038-19.307-1.98-21.17-15.664z" fill="#4c5768"/><path d="m156.075 224.087v41.988h13.925 13.925v-41.988z" fill="#373d4c"/><path d="m170 304.461h-64.701v11.082h64.701 64.701v-11.082z" fill="#c12140"/><path d="m157.401 283.236v32.307h12.599 12.599v-32.307z" fill="#373d4c"/><path d="m199.854 279.668h15.253a1 1 0 0 1 1 1v9.792a8.629 8.629 0 0 1 -8.629 8.629 8.629 8.629 0 0 1 -8.629-8.629v-9.792a1 1 0 0 1 1-1z" fill="#373d4c" transform="matrix(-1 0 0 -1 414.962 578.76)"/><path d="m292.791 321.935a12.013 12.013 0 0 0 -10.618-6.392h-224.346a12.013 12.013 0 0 0 -10.618 6.392l-5.6 10.574h256.783z" fill="#4c5768"/><g fill="#c12140"><path d="m259.816 231.984a4 4 0 0 0 -4 4v3.974h-52.965v-3.974a4 4 0 0 0 -8 0v26.091h-49.7v-26.091a4 4 0 0 0 -8 0v3.974h-52.968v-3.974a4 4 0 0 0 -8 0v23.559a10.544 10.544 0 0 0 10.532 10.532h166.57a10.544 10.544 0 0 0 10.531-10.532v-23.559a4 4 0 0 0 -4-4zm-175.633 27.559v-11.585h52.965v14.117h-50.433a2.535 2.535 0 0 1 -2.532-2.532zm169.1 2.532h-50.432v-14.117h52.965v11.585a2.535 2.535 0 0 1 -2.531 2.532z"/><path d="m259.816 140.96a4 4 0 0 0 -4 4v3.975h-52.965v-3.975a4 4 0 0 0 -8 0v26.091h-49.7v-26.091a4 4 0 0 0 -8 0v3.975h-52.968v-3.975a4 4 0 0 0 -8 0v23.56a10.544 10.544 0 0 0 10.532 10.531h166.57a10.543 10.543 0 0 0 10.531-10.531v-23.56a4 4 0 0 0 -4-4zm-175.633 27.56v-11.585h52.965v14.116h-50.433a2.535 2.535 0 0 1 -2.532-2.531zm169.1 2.531h-50.432v-14.116h52.965v11.585a2.535 2.535 0 0 1 -2.531 2.531z"/><path d="m105.299 111.658h129.402v10.727h-129.402z"/><path d="m105.299 205.893h129.402v11.367h-129.402z"/></g></svg>