<svg id="icon" height="512" viewBox="0 0 340 340" width="512" xmlns="http://www.w3.org/2000/svg"><path d="m75.08 207.213c-7.9 13.416-15.051 28.725-21.754 45.178a23.574 23.574 0 0 0 9.227 30.524c9.271 5.482 31.507 16.923 48.475 21.647l7.639-25.255-31.076-22.016s7.656-15.222 17.728-32.169c0 0-9.069-17.768-30.239-17.909z" fill="#ffd0b0"/><path d="m264.92 207.213c7.9 13.416 15.051 28.725 21.754 45.178a23.574 23.574 0 0 1 -9.227 30.524 162.795 162.795 0 0 1 -39.246 16.4l-7.64-25.255 21.848-16.773s-7.656-15.222-17.728-32.169c0 .004 9.069-17.764 30.239-17.905z" fill="#ffd0b0"/><path d="m243.645 169.921a59.172 59.172 0 0 0 -8.825-11.915c-12.72-13.12-25.468-14.261-25.468-14.261-18-18.762-37.893-18.485-39.352-18.438-1.459-.047-21.351-.324-39.352 18.438 0 0-12.748 1.141-25.468 14.261a59.091 59.091 0 0 0 -8.824 11.915l-21.276 37.292s21.021 5 30.239 17.909l11.027-17.909 3.343 50.374 50.216 8.06v.031l.095-.016.094.016v-.031l50.217-8.06 3.343-50.374 11.027 17.909c9.218-12.9 30.239-17.909 30.239-17.909z" fill="#9bb5e0"/><g fill="#6283b2"><path d="m117.564 225.572 2.125 32.015 50.216 8.06v.031l.095-.016.094.016v-.031l50.217-8.06 2.338-35.232z"/><path d="m233.816 157c-12.378-12.168-24.464-13.254-24.464-13.254-18-18.762-37.893-18.485-39.352-18.438-1.191-.039-14.663-.225-29.363 9.908 7.097 8.269 33.612 32.577 93.179 21.784z"/><path d="m166.319 165.758c-9.8 2.989-9.966 13.453-9.966 13.453v17.482a5.857 5.857 0 0 0 5.857 5.857h1.653v-23.876a8.277 8.277 0 0 1 6.231-8.021z"/></g><path d="m170.094 127.616h-20.625v13.758c0 24.5 20.625 29.279 20.625 29.279s20.625-4.782 20.625-29.279v-13.758z" fill="#ffd0b0"/><path d="m190.719 141.374v-13.758h-41.25v13.758c0 .695.022 1.37.054 2.034 7.59 5.693 19.5 12.058 36.873 14.857a31.943 31.943 0 0 0 4.323-16.891z" fill="#e8968e"/><path d="m92.836 293.479h156.749a12.275 12.275 0 0 1 12.275 12.275v24.9a0 0 0 0 1 0 0h-181.299a0 0 0 0 1 0 0v-24.9a12.275 12.275 0 0 1 12.275-12.275z" fill="#4e5460"/><path d="m216.047 251.908h14.14a14.884 14.884 0 0 1 13.983 9.671 92.2 92.2 0 0 1 5.415 31.9h-27.639z" fill="#e2e5e5"/><path d="m123.908 251.908h-14.14a14.884 14.884 0 0 0 -13.983 9.671 92.2 92.2 0 0 0 -5.415 31.9h27.639z" fill="#e2e5e5"/><path d="m232.943 291.122c-.9-24.636-8.314-39.142-14.536-47.07a21.512 21.512 0 0 0 -16.926-8.234h-62.961a21.513 21.513 0 0 0 -16.927 8.234c-6.222 7.928-13.635 22.434-14.536 47.07a7.922 7.922 0 0 0 7.92 8.2h110.046a7.922 7.922 0 0 0 7.92-8.2z" fill="#f3f8ff"/><path d="m206.8 63.916-36.644-30.081-36.78 28.93s-2.81 50.328 18.473 71.1a26.187 26.187 0 0 0 36.593.111c21.258-20.486 18.358-70.06 18.358-70.06z" fill="#ffd0b0"/><path d="m206.8 63.916-36.644-30.081-36.78 28.93s-2.81 50.328 18.473 71.1a26.187 26.187 0 0 0 36.593.111c21.258-20.486 18.358-70.06 18.358-70.06z" fill="#ffd0b0"/><path d="m180.676 285.2h-26.638a3.337 3.337 0 0 1 0-6.674h26.638a3.337 3.337 0 0 1 0 6.674z" fill="#b0c8ea"/><path d="m190.019 269.437h-49.6a3.337 3.337 0 1 1 0-6.674h49.6a3.337 3.337 0 0 1 0 6.674z" fill="#b0c8ea"/><path d="m189.378 97.736c-7.914.129-12.5 5.121-16.345 11.186a13.243 13.243 0 0 0 -6.066 0c-3.845-6.065-8.431-11.057-16.345-11.186a17.226 17.226 0 0 0 -13.547 6.346c2.312 9.705 5.986 19.3 11.8 26.5.475.079.952.154 1.437.209a17.449 17.449 0 0 0 17.733-9.463 2.181 2.181 0 0 1 1.869-1.239h.182a2.181 2.181 0 0 1 1.869 1.239 17.449 17.449 0 0 0 17.733 9.463c.646-.073 1.282-.171 1.91-.286 5.727-7.113 9.344-16.539 11.613-26.059a17.24 17.24 0 0 0 -13.843-6.71z" fill="#e8968e"/><path d="m203.685 269.434a3.319 3.319 0 0 1 -2.352-.976 2.752 2.752 0 0 1 -.417-.509 3 3 0 0 1 -.309-.575 3.193 3.193 0 0 1 -.191-.626 3.351 3.351 0 0 1 -.067-.651 3.433 3.433 0 0 1 .067-.651 3.357 3.357 0 0 1 .191-.625 3.19 3.19 0 0 1 .309-.575 3.015 3.015 0 0 1 .918-.918 3.224 3.224 0 0 1 .575-.309 3.424 3.424 0 0 1 .626-.192 3.367 3.367 0 0 1 3.011.91 4.036 4.036 0 0 1 .417.509 3.786 3.786 0 0 1 .309.575 3.33 3.33 0 0 1 .183.625 2.885 2.885 0 0 1 .067.651 2.828 2.828 0 0 1 -.067.651 3.173 3.173 0 0 1 -.183.626 3.521 3.521 0 0 1 -.309.575 3.593 3.593 0 0 1 -.417.509 3.338 3.338 0 0 1 -2.361.976z" fill="#b0c8ea"/><path d="m195.347 254.314h-51.2a3.337 3.337 0 0 1 0-6.673h51.2a3.337 3.337 0 1 1 0 6.673z" fill="#b0c8ea"/><path d="m176.043 194.663a4.119 4.119 0 0 1 -.78-.08 3.832 3.832 0 0 1 -.75-.23 4.222 4.222 0 0 1 -.691-.36 4.47 4.47 0 0 1 -.609-.5 4 4 0 0 1 4.359-6.521 4.631 4.631 0 0 1 .691.361 4.909 4.909 0 0 1 .609.5 4.066 4.066 0 0 1 1.171 2.83 4.138 4.138 0 0 1 -.08.78 3.835 3.835 0 0 1 -.231.75 3.667 3.667 0 0 1 -.37.689 3.518 3.518 0 0 1 -.5.611 4.021 4.021 0 0 1 -2.819 1.17z" fill="#6283b2"/><path d="m175.075 111.358a2.821 2.821 0 0 1 -1.333-.334 8.465 8.465 0 0 0 -7.471-.006 2.84 2.84 0 0 1 -2.716-4.988 14.247 14.247 0 0 1 12.857-.017 2.839 2.839 0 0 1 -1.337 5.345z" fill="#c1dee5"/><circle cx="150.307" cy="108.746" fill="#c1dee5" r="17.129"/><circle cx="189.693" cy="108.746" fill="#c1dee5" r="17.129"/><path d="m206.8 63.916-36.644-30.081-36.78 28.93a166.35 166.35 0 0 0 .7 22.861c.207.211.324.328.324.328s2.92-8.424 6.234-13.3c0 0 15.027 17.362 36.866 15.331l.414-9.231s9.285 6.987 28.415 5.573a159.406 159.406 0 0 0 .471-20.411z" fill="#e8968e"/><path d="m140.753 60.388s4.993 17.289 31.073 22.763a67.922 67.922 0 0 0 0-15.133s21.573 19.641 50.229 4.83l-3.22-6.44s7.728-6.762 10.625-15.133l-6.117-2.575s-16.1-25.758-40.248-27.368l1.61-11.591s-35.095-6.119-54.736 29.943c0 0-12.6 3.881-13.592 24.929a24.713 24.713 0 0 0 3.2 13.676c2.616 4.468 8.4 7.9 14.752 9.692-.004 0 .18-17.148 6.424-27.593z" fill="#373d4c"/><path d="m125.469 144.948c-6.194 14.283-3.336 27.6-.353 35.524a3.7 3.7 0 0 0 6.69.551c4.212-7.582 9.42-11.421 13.347-13.352a1.133 1.133 0 0 0 -.643-2.141 24.748 24.748 0 0 0 -13.441 6.372 1.652 1.652 0 0 1 -2.686-.717c-5.044-16.054 2.265-27.44 2.265-27.44a26.818 26.818 0 0 0 -5.179 1.203z" fill="#6283b2"/><path d="m212.227 171.185a1.652 1.652 0 0 1 -2.686.717 24.744 24.744 0 0 0 -13.441-6.372 1.133 1.133 0 0 0 -.643 2.141c3.927 1.931 9.135 5.77 13.347 13.352a3.7 3.7 0 0 0 6.69-.551c2.966-7.878 5.813-21.093-.248-35.286a31.877 31.877 0 0 0 -5.229-1.352c.638 1.049 7.007 12.086 2.21 27.351z" fill="#6283b2"/><path d="m148.508 95.24a13.607 13.607 0 0 0 -10.764 18.752 1.7 1.7 0 0 0 2.64.662l17.757-14.395a1.7 1.7 0 0 0 -.113-2.727 13.576 13.576 0 0 0 -9.52-2.292z" fill="#fff"/><path d="m188.007 95.24a13.609 13.609 0 0 0 -10.764 18.752 1.7 1.7 0 0 0 2.64.662l17.757-14.395a1.7 1.7 0 0 0 -.113-2.727 13.575 13.575 0 0 0 -9.52-2.292z" fill="#fff"/></svg>