<svg id="Flat" height="512" viewBox="0 0 340 340" width="512" xmlns="http://www.w3.org/2000/svg"><path d="m197.856 214.842 5.224 115.793 29.72-24.346a33.634 33.634 0 0 0 12.233-23.612l8.542-119.2z" fill="#6997e0"/><path d="m167.82 186.112-70.955-32.212 15.4-13.328a23.479 23.479 0 0 1 16.785-5.682l91.006 5.516z" fill="#6997e0"/><circle cx="60.987" cy="61.418" fill="#ff7a4e" r="29.517"/><path d="m279.945 83.991-156.778 137.509a29.766 29.766 0 0 1 -21.306 7.341l-23.689-1.341a37.8 37.8 0 0 0 -26.672 9l-13.753 11.74s38.411 17.28 80.453 19.16a65.421 65.421 0 0 0 45.1-15.519l154.1-130.281s9.368-8.244 12.764-19.7a21.807 21.807 0 0 0 -2.647-18.133s-19.417-10.406-20.48-10.397c-.946.009-1.924.051-2.93.133a42.011 42.011 0 0 0 -24.162 10.488z" fill="#95bcf4"/><circle cx="182.169" cy="201.997" fill="#fff" r="9.546"/><circle cx="216.171" cy="173.022" fill="#fff" r="9.546"/><circle cx="248.766" cy="144.392" fill="#fff" r="9.546"/><path d="m327.507 83.774a22.547 22.547 0 0 0 -17.388-10.31q-1.481-.1-3.082-.091c-.729 4.4-3.043 10.563-9.554 17.033a9.563 9.563 0 0 0 1.777 14.907 9.537 9.537 0 0 0 10.6-.375c5.54-4.038 13.84-11.369 17.647-21.164z" fill="#fff"/><g fill="#ff7a4e"><path d="m60.984 17.365a4.027 4.027 0 0 1 -2.82-1.17 3.605 3.605 0 0 1 -.5-.61 4.033 4.033 0 0 1 -.6-1.44 4.129 4.129 0 0 1 -.08-.78 4.065 4.065 0 0 1 1.17-2.83 4.831 4.831 0 0 1 .61-.5 4.524 4.524 0 0 1 .69-.36 4.053 4.053 0 0 1 .75-.23 3.992 3.992 0 0 1 4.78 3.92 3.445 3.445 0 0 1 -.08.78 3.809 3.809 0 0 1 -.22.75 4.579 4.579 0 0 1 -.37.69 4.919 4.919 0 0 1 -.5.61 4.033 4.033 0 0 1 -2.83 1.17z"/><path d="m60.984 113.474a3.995 3.995 0 0 1 -1.53-.309 3.828 3.828 0 0 1 -.69-.37 3.914 3.914 0 0 1 -1.78-3.321 4.028 4.028 0 0 1 1.17-2.829 4.161 4.161 0 0 1 .61-.5 4.579 4.579 0 0 1 .69-.37 4.019 4.019 0 0 1 .75-.22 3.728 3.728 0 0 1 1.56 0 3.788 3.788 0 0 1 1.44.59 3.694 3.694 0 0 1 .61.5 3.986 3.986 0 0 1 1.17 2.829 4.117 4.117 0 0 1 -.07.781 5.371 5.371 0 0 1 -.23.75 4.628 4.628 0 0 1 -.37.69 4.161 4.161 0 0 1 -.5.61 3.639 3.639 0 0 1 -.61.49 3.256 3.256 0 0 1 -.69.37 3.9 3.9 0 0 1 -.75.23 4.046 4.046 0 0 1 -.78.079z"/><path d="m109.044 65.415a4.042 4.042 0 0 1 -.78-.07 4.659 4.659 0 0 1 -.75-.23 4.218 4.218 0 0 1 -.69-.37 3.745 3.745 0 0 1 -.61-.5 3.694 3.694 0 0 1 -.5-.61 4.183 4.183 0 0 1 -.37-.69 4.87 4.87 0 0 1 -.23-.74 4.219 4.219 0 0 1 -.07-.79 4.012 4.012 0 0 1 4-4 4.012 4.012 0 0 1 4 4 4.234 4.234 0 0 1 -.08.79 3.956 3.956 0 0 1 -.23.74 3.548 3.548 0 0 1 -.37.69 3.639 3.639 0 0 1 -.49.61 4.226 4.226 0 0 1 -.61.5 4.671 4.671 0 0 1 -.69.37 4.99 4.99 0 0 1 -.75.23 4.114 4.114 0 0 1 -.78.07z"/><path d="m12.934 65.415a4.021 4.021 0 0 1 -2.83-1.17 4.279 4.279 0 0 1 -.5-.61 4.14 4.14 0 0 1 -.36-.69 3.956 3.956 0 0 1 -.23-.74 4.234 4.234 0 0 1 -.08-.79 4 4 0 0 1 4.78-3.92 3.985 3.985 0 0 1 1.44.6 3.605 3.605 0 0 1 .61.5 4.023 4.023 0 0 1 1.17 2.82 4.234 4.234 0 0 1 -.08.79 3.956 3.956 0 0 1 -.23.74 4.14 4.14 0 0 1 -.36.69 4.279 4.279 0 0 1 -.5.61 4.226 4.226 0 0 1 -.61.5 4.033 4.033 0 0 1 -1.44.6 4.114 4.114 0 0 1 -.78.07z"/><path d="m94.964 31.434a3.981 3.981 0 0 1 -2.82-1.17 3.213 3.213 0 0 1 -.5-.609 3.256 3.256 0 0 1 -.37-.69 3.989 3.989 0 0 1 -.23-.741 4.217 4.217 0 0 1 -.08-.79 4.127 4.127 0 0 1 .08-.779 4.053 4.053 0 0 1 .23-.75 3.8 3.8 0 0 1 .37-.69 3.565 3.565 0 0 1 .49-.6 4.044 4.044 0 0 1 3.61-1.1 3.9 3.9 0 0 1 .75.231 3.519 3.519 0 0 1 .69.37 3.251 3.251 0 0 1 .61.5 3.62 3.62 0 0 1 .5.6 4.532 4.532 0 0 1 .37.69 4.252 4.252 0 0 1 .22.75 3.442 3.442 0 0 1 .08.779 3.52 3.52 0 0 1 -.08.79 3.954 3.954 0 0 1 -.22.741 4.513 4.513 0 0 1 -.37.69 4.215 4.215 0 0 1 -.5.609 3.987 3.987 0 0 1 -2.83 1.169z"/><path d="m27.014 99.4a3.988 3.988 0 0 1 -2.83-1.171 3.213 3.213 0 0 1 -.5-.609 3.828 3.828 0 0 1 -.37-.69 3.875 3.875 0 0 1 -.23-.75 4 4 0 1 1 6.75 2.049 3.6 3.6 0 0 1 -.61.5 3.725 3.725 0 0 1 -.69.371 4 4 0 0 1 -.74.22 3.445 3.445 0 0 1 -.78.08z"/><path d="m94.964 99.4a3.445 3.445 0 0 1 -.78-.08 4.1 4.1 0 0 1 -.75-.22 4.5 4.5 0 0 1 -.69-.371 4.005 4.005 0 0 1 -.61-6.159 4.093 4.093 0 0 1 .61-.49 3.828 3.828 0 0 1 .69-.37 4.134 4.134 0 0 1 .75-.231 3.993 3.993 0 0 1 4.78 3.921 3.387 3.387 0 0 1 -.08.78 3.849 3.849 0 0 1 -.22.75 4.579 4.579 0 0 1 -.37.69 3.646 3.646 0 0 1 -.5.609 3.6 3.6 0 0 1 -.61.5 4.075 4.075 0 0 1 -.69.371 3.878 3.878 0 0 1 -.75.22 3.387 3.387 0 0 1 -.78.08z"/><path d="m27.014 31.434a4.146 4.146 0 0 1 -.79-.069 5.371 5.371 0 0 1 -.75-.23 4.5 4.5 0 0 1 -.69-.371 3.96 3.96 0 0 1 -.6-.5 3.213 3.213 0 0 1 -.5-.609 3.256 3.256 0 0 1 -.37-.69 3.989 3.989 0 0 1 -.23-.741 4.217 4.217 0 0 1 -.08-.79 4.127 4.127 0 0 1 .08-.779 4.053 4.053 0 0 1 .23-.75 3.8 3.8 0 0 1 .37-.69 3.188 3.188 0 0 1 .5-.6 3.54 3.54 0 0 1 .6-.5 3.828 3.828 0 0 1 .69-.37 4.392 4.392 0 0 1 .75-.231 4.187 4.187 0 0 1 1.57 0 4.035 4.035 0 0 1 .74.231 3.6 3.6 0 0 1 .7.37 3.54 3.54 0 0 1 .6.5 3.188 3.188 0 0 1 .5.6 4.532 4.532 0 0 1 .37.69 4.053 4.053 0 0 1 .23.75 4.127 4.127 0 0 1 .08.779 4.217 4.217 0 0 1 -.08.79 3.989 3.989 0 0 1 -.23.741 3.782 3.782 0 0 1 -.37.69 3.213 3.213 0 0 1 -.5.609 3.981 3.981 0 0 1 -2.82 1.17z"/></g></svg>