<svg id="Flat" height="512" viewBox="0 0 340 340" width="512" xmlns="http://www.w3.org/2000/svg"><path d="m215.993 67.246s.335 17.374-4.648 28.73-11.63 43.117-5.409 80.1l3.124 21.556 18.887-.09s-7.06-54.526-3.662-81.235-8.292-49.061-8.292-49.061z" fill="#82936e"/><path d="m223.1 197.692s1.414-34.5 31.051-44.069c12.884-4.16 20.643-10.283 25.3-15.877 0 0-2.979 14.549-18.494 25.759a29.559 29.559 0 0 0 -11.742 17.643 53.5 53.5 0 0 0 -.931 16.544z" fill="#82936e"/><path d="m217.69 197.556.612-38.621a58.529 58.529 0 0 1 6.06-11.279c14.643-21.215 38.529-48.607 39.032-61.017 0 0 10.164 21.649-12.591 57.656-21.4 33.87-16.634 53.4-16.634 53.4z" fill="#c9d38c"/><path d="m226.833 193.839c1.438-16.065-6.124-30.713-8.525-34.9-7.905 19.5-4.056 38.618-4.056 38.618l12.094.082c.197-1.172.364-2.428.487-3.8z" fill="#82936e"/><path d="m182.18 133.061s39.913 15.606 39.411 64.545h-25.936s5.032-38.017-13.475-64.545z" fill="#c9d38c"/><path d="m107.064 141.1s-22.453 5.337-22.453 31.508v41.681h90.589s2.038-46.77-13.4-63.49z" fill="#f2e8ee"/><path d="m102.979 267.009-3.809 16.183c-.643 11.812-2.2 28.222-5.936 42.7h38.406v-58.883z" fill="#f2e8ee"/><path d="m99.168 283.192c5.847.941 17.547 2.632 32.472 3.808v-19.991h-32.028s.079 6.573-.444 16.183z" fill="#c9b1b1"/><path d="m129.474 117v29.529c2.626 3.5 11.274 8.825 15.934 13.012a12.827 12.827 0 0 0 8.567 3.278c5.327 0 10.3-7.3 7.825-12.014-1.354-2.584-3.209-4.047-4.606-6.438s-3.261-4.7-3.261-7.453v-7.014z" fill="#f7c6c9"/><path d="m153.933 129.9v-16.515l-24.459-16.315v19.93s7.047 12.441 24.459 12.9z" fill="#d67c86"/><path d="m108.674 37.871s-22.108-19.11-38.174 5.17a24.724 24.724 0 0 0 -4.045 13.652v47.315s0 17.863-5.905 21.554c0 0 36.464 5.019 36.464-23.325v-36.169z" fill="#e8905e"/><path d="m178.372 70.815s16.291-22.576 1.409-43.338c-14.27-19.907-29.949-10.922-29.949-10.922s-28.187-12.332-48.447 18.321 2.643 57.784 16.56 60.955z" fill="#ffc180"/><path d="m165.007 43.152c.393.709-3.039 32.7-34.473 39.776 0 0-1.944-8.309-10.253-8.309 0 0-7.955-1.061-7.955 11.491v8.242c0 6.814 7.42 11.394 13.275 7.908a8.437 8.437 0 0 0 3.873-5.19s3.889 23.512 26.163 23.512a26.164 26.164 0 0 0 26.163-26.163v-21.481a34.368 34.368 0 0 0 -15.559-29.024q-.6-.387-1.234-.762z" fill="#f7c6c9"/><path d="m165.007 43.152s-2.652 29.348-34.473 39.776v3.813a1.285 1.285 0 0 0 1.566 1.259c35.5-8.391 32.907-44.848 32.907-44.848z" fill="#d67c86"/><path d="m121.378 134.7a13.342 13.342 0 0 1 12.265 6.166 64.541 64.541 0 0 1 10.251 34.125v20.529a11.08 11.08 0 0 0 11.132 11.027 11.079 11.079 0 0 0 11.131-11.027v-20.3a46.245 46.245 0 0 0 -1.4-11.323c-1.522-6.034-4.485-15.319-9.208-22.221l.095.232a19.615 19.615 0 0 1 15.927 7.785 50.117 50.117 0 0 1 9.854 30.651l4.624 145.556h-61.942s.2-33.241 0-49.993c0 0-14.7-.8-25.114-3.622a7.764 7.764 0 0 1 -5.759-7.482v-2.764a7.792 7.792 0 0 1 7.828-7.755h25.994l-.59-78.892s-2.166-26.885-19.266-34.292a24.371 24.371 0 0 1 14.178-6.4z" fill="#f78db5"/><path d="m183.345 240.846h-56.389l.1 13.436h-25.994a7.822 7.822 0 0 0 -7.317 5.016c4.082 4.642 14.463 11.247 40.529 11.247h50.015z" fill="#dd6698"/><path d="m127.173 223.736.059 1.336a6.934 6.934 0 0 0 6.915 6.427h25.543v27.383s-45.894 3.347-56.462-4.6c-4.693-3.528-6.742-12.558-7.595-21.146 8.931-5.256 19.806-7.904 31.54-9.4z" fill="#f7c6c9"/><path d="m244.684 288.449h-46.709a14.229 14.229 0 0 1 -14.206-13.417l-.256-4.487a101.786 101.786 0 0 0 -2.19-38.32l-2.144-37.532a2.594 2.594 0 0 1 2.589-2.742h79.123a2.594 2.594 0 0 1 2.59 2.742l-4.59 80.339a14.23 14.23 0 0 1 -14.207 13.417z" fill="#e1ecfe"/><path d="m181.816 240.846 1.7 29.7h8.77s26.557 2.337 24.189-29.7z" fill="#aac3d6"/><path d="m155.472 220.617 4.218 38.265h38.745a18.036 18.036 0 0 0 18.037-18.036v-2.41a15.493 15.493 0 0 0 -14.665-15.471 8.338 8.338 0 0 1 -7.586-6.083 9.26 9.26 0 0 0 -8.918-6.768 9.259 9.259 0 0 0 -9.018 7.155l-1 4.271z" fill="#89b9f2"/><g fill="#d67c86"><path d="m162.172 105.644a20.112 20.112 0 0 1 -10.662-3.106 3 3 0 0 1 3.4-4.944 13.678 13.678 0 0 0 14.435-.081 3 3 0 0 1 3.138 5.115 19.464 19.464 0 0 1 -10.311 3.016z"/><circle cx="171.931" cy="82.74" r="3.899"/><circle cx="158.166" cy="82.74" r="3.899"/><path d="m126.757 214.294h-31.526a133.2 133.2 0 0 0 .4 18.841l31.54-9.4z"/></g><path d="m244.684 288.449a14.23 14.23 0 0 0 14.207-13.417l4.59-80.339a2.594 2.594 0 0 0 -2.59-2.742h-21.137l-3.892 83.258s-.158 8.038-5.548 13.24z" fill="#aac3d6"/><rect fill="#5f72ad" height="40.668" rx="14.315" width="28.63" x="248.074" y="216.064"/></svg>