<svg id="icons" height="512" viewBox="0 0 340 340" width="512" xmlns="http://www.w3.org/2000/svg"><path d="m49.037 56.805h-5.388a17.1 17.1 0 0 0 -17.066 14.587q-.075.557-.126 1.139a9.657 9.657 0 0 0 -.038 1.142 22.08 22.08 0 0 0 13.865 16.618l112.77-2.785-1.384-33.617c-4.042-6.037-10.794-11.117-21.766-13.547 0 0-24.326-5.651-48.406 6.634l-10.859 5.051a51.23 51.23 0 0 1 -21.602 4.778z" fill="#9fc2ab"/><path d="m151.668 53.891a13.294 13.294 0 0 1 -4.837 8.165 13.817 13.817 0 0 1 -8.587 2.823h-73.878a14.114 14.114 0 0 0 -4.906.852 23.233 23.233 0 0 0 -10.185 7.325c-5.892 7.5-17.106 7.785-22.855.617.049 3.214 1.3 12.423 13.552 17.041h114.75s7.206-21.497-3.054-36.823z" fill="#698779"/><path d="m10 300.955h320v-164.116h-266.053l-53.947 7.579z" fill="#e5e2a8"/><path d="m10 144.418v53.633l17.4 3.621a34.2 34.2 0 0 1 13.386 6l8.329 6.168a34.2 34.2 0 0 0 20.355 6.717h68.887a34.2 34.2 0 0 0 23.433-9.288l22.019-20.709a34.2 34.2 0 0 1 16.389-8.554l4.295-.9a13.5 13.5 0 0 0 10.016-17.523 13.5 13.5 0 0 0 -7.4-8.066l-24.256-10.585-7.4-8.088h-111.506z" fill="#b3af66"/><path d="m77.761 210.538h42.439a1.626 1.626 0 0 0 1.575-2.05 41.9 41.9 0 0 0 -3.439-8.688 23.6 23.6 0 0 1 -2.729-11.166v-9.328s4.916-6.941 17.062-7.23a66.55 66.55 0 0 0 9.824-.918 27.461 27.461 0 0 0 22.854-27.133h-13.592s-.247 12.124-11.5 13.943a15.112 15.112 0 0 1 -4.479-.022c-4.07-.565-15.354-1.441-21.9 4.876v-8.547a19.9 19.9 0 0 1 16.955-19.739q.2-.029.4-.054v-29.208h-27.191s-4.967 21.839-21.426 33.256h-13.566s-13.881-9.607-12.724-33.256h-14.749s-.867 29.5 15.327 42.221l27.473 8.369a111.335 111.335 0 0 1 3.612 25.193 23.836 23.836 0 0 1 -6.311 16.76 20.556 20.556 0 0 0 -5.537 10.9 1.625 1.625 0 0 0 1.622 1.821z" fill="#473b37"/><path d="m59.641 86.537h-37.17a12.429 12.429 0 0 0 -12.471 12.477c0 .1 0 .2.005.3 0 0-.492 9.092 8.846 9.092h16.074a19.052 19.052 0 0 1 9.45 2.509l1.537.879a19.051 19.051 0 0 0 9.449 2.509 19.045 19.045 0 0 0 15.156-7.511l4.85-6.372z" fill="#698779"/><path d="m330 189.944h-118.969s-40.4-2.467-68.158 29.82a88.375 88.375 0 0 1 -46.216 28.388c-20.275 4.886-48.983 7.129-86.657-.593v53.4h320z" fill="#b3af66"/><path d="m165.347 86.537h25.668a12.444 12.444 0 0 1 9.462 4.362l3.935 4.607a12.449 12.449 0 0 0 5.982 3.865 12.443 12.443 0 0 1 8.963 11.947 14.327 14.327 0 0 1 -14.327 14.328h-54.23z" fill="#698779"/><path d="m330 202.841h-118.873a68.016 68.016 0 0 0 -53.28 25.739l-9.19 11.582a68.016 68.016 0 0 1 -53.28 25.738h-18.55v35.054h253.173z" fill="#b0d6ed"/><path d="m330 220.556h-122.917a13.044 13.044 0 0 0 -13.044 13.044 13.044 13.044 0 0 0 13.044 13.044h122.917z" fill="#72aad3"/><path d="m310.028 237.909a2.929 2.929 0 0 0 2.929-3.114c-.456-7.1-1.9-24.92-5.488-38.439a43.068 43.068 0 0 0 -6.331-13.564 28.831 28.831 0 0 0 -23.581-12.068h-26.519a28.834 28.834 0 0 0 -23.582 12.068 43.051 43.051 0 0 0 -6.33 13.564c-3.591 13.519-5.032 31.338-5.489 38.439a2.929 2.929 0 0 0 2.929 3.114h18.749v-17.476a20.113 20.113 0 0 1 .189-2.548l.021-.132a17.5 17.5 0 0 1 17.311-14.653h18.922a17.5 17.5 0 0 1 17.311 14.651l.019.12a19.938 19.938 0 0 1 .191 2.56v17.476z" fill="#a5b3ce"/><path d="m288.091 152.011h-47.591a9.933 9.933 0 1 0 0 19.865h47.588a9.933 9.933 0 1 0 0-19.865z" fill="#a5b3ce"/><path d="m264.297 117.994h-20.794v34.017h20.794 20.794v-34.017z" fill="#a5b3ce"/><path d="m261.867 131.725a8.879 8.879 0 0 1 8.879 8.879v11.407a0 0 0 0 1 0 0h-17.758a0 0 0 0 1 0 0v-11.411a8.879 8.879 0 0 1 8.879-8.875z" fill="#373d4c"/><path d="m91.845 243.8 2.526.084c7 0 11.48 5.521 11.769 12.518l.707 13.185c.16 3.868 1.356 8.107 3.89 11.034l3.005 2.828a16.243 16.243 0 0 1 4.124 9.016v8.488h-61.574s2.82-37.214 27.471-55.261a12.526 12.526 0 0 1 1.065-.7 40.794 40.794 0 0 1 7.017-1.192z" fill="#a5b3ce"/><path d="m39.089 224.822c.32 0 .637.013.952.037 0 0 8.28 4.057 9.61 9.007l4.2 15.02a30.282 30.282 0 0 0 5.212 11.114l5.408 7.11a29.061 29.061 0 0 1 6.709 16.022l1.1 17.822h-62.28v-30.947a23.959 23.959 0 0 1 5.521-15.3l6.087-7.336a23.967 23.967 0 0 0 4.792-9.421l1.023-4.043a12.038 12.038 0 0 1 11.666-9.085z" fill="#a5b3ce"/><path d="m26.665 128.506c12.942-.7 42.66-1.511 60.239 4.351a17.433 17.433 0 0 1 10.954 10.343c.036.1.071.194.106.292a16.1 16.1 0 0 1 .877 6.806s-6.122 11.63-13.885 13.639c-7.611 1.969-19.527 2.993-34.2-4.513-4.061-2.077-8.743-2.436-13.356-2.436l-13.9-.813c-10.18 0-12.752-16.539-12.752-16.539a13.652 13.652 0 0 1 .911-2.016c.07-.127.141-.253.214-.379a18.131 18.131 0 0 1 14.792-8.735z" fill="#9fc2ab"/><path d="m184.465 116.515h-45.83c-9.414 0-16.977 6.564-19.355 15.673-.1.373-2.166 11.15 11.988 12.537l5.856.366a24.8 24.8 0 0 1 11.713 3.294s7 2.745 10.981 2.745l24.707-.274s9.849.6 17.2-5.491c10.12-8.378 6.186-22.018-5.852-26.917-.545-.222-2.017-1.017-2.017-1.017a44.1 44.1 0 0 0 -9.391-.916z" fill="#9fc2ab"/><path d="m18.277 251.386 3.686 16.531a2.136 2.136 0 0 0 4.22-.465v-4.563l.217-24.939a23.967 23.967 0 0 1 -4.788 9.422z" fill="#607491"/><path d="m243.5 117.994v7.652h23.23a11 11 0 0 1 11 11v15.365h7.361v-34.017z" fill="#607491"/><path d="m266.107 74.007h-3.62a14.553 14.553 0 0 0 -14.553 14.553v9.568h32.727v-9.568a14.554 14.554 0 0 0 -14.554-14.553z" fill="#a5b3ce"/><path d="m268.952 74.289a24.648 24.648 0 0 1 .754 6.009v17.83h10.955v-9.568a14.555 14.555 0 0 0 -11.709-14.271z" fill="#607491"/><path d="m287.091 98.128h-45.591a9.933 9.933 0 1 0 0 19.866h45.588a9.933 9.933 0 0 0 0-19.866z" fill="#a5b3ce"/><path d="m288.091 152.011h-10.361v4.827a7.618 7.618 0 0 1 -7.617 7.618h-32.313a14.4 14.4 0 0 1 -7.2-3.164c-.014.217-.033.432-.033.652a9.933 9.933 0 0 0 9.933 9.932h47.588a9.933 9.933 0 1 0 0-19.865z" fill="#607491"/><path d="m294.471 114.693a9.889 9.889 0 0 0 2.507-7.6 10.126 10.126 0 0 0 -10.178-8.965h-17.1v5.023a7.644 7.644 0 0 1 -7.644 7.644h-23.238a13.65 13.65 0 0 1 -7.23-2.385 9.925 9.925 0 0 0 9.915 9.584h45.588a10.065 10.065 0 0 0 1.284-.092c.112-.015.223-.033.333-.051a9.964 9.964 0 0 0 1.043-.228c.063-.018.128-.03.191-.049a9.983 9.983 0 0 0 1.18-.44c.061-.027.12-.059.181-.087a9.9 9.9 0 0 0 .989-.535l.142-.086a9.973 9.973 0 0 0 1.989-1.68z" fill="#607491"/><path d="m252.988 203.2h-11.688a9.236 9.236 0 0 0 -6.437 2.55c-2.581 2.5-5.6 7.084-5.494 14.789 0 0-.8 11.146-.605 17.368h8.549v-17.474a15.6 15.6 0 0 1 .148-2.275c.02-.136.041-.271.062-.405a17.477 17.477 0 0 1 15.463-14.545z" fill="#607491"/><path d="m221.183 265.41h-60.758a4 4 0 0 1 0-8h60.758a4 4 0 0 1 0 8z" fill="#72aad3"/><path d="m314.106 265.41h-54.644a4 4 0 0 1 0-8h54.644a4 4 0 0 1 0 8z" fill="#72aad3"/><path d="m238.42 265.406a3.5 3.5 0 0 1 -.78-.08 4.1 4.1 0 0 1 -.75-.221 4.616 4.616 0 0 1 -.69-.369 4.238 4.238 0 0 1 -.61-.5 3.688 3.688 0 0 1 -.49-.611 3.306 3.306 0 0 1 -.371-.69 4 4 0 0 1 -.229-.739 3.9 3.9 0 0 1 0-1.571 4.382 4.382 0 0 1 .229-.75 3.932 3.932 0 0 1 .371-.69 3.565 3.565 0 0 1 .49-.6 4 4 0 0 1 6.83 2.821 4.167 4.167 0 0 1 -.08.79 3.856 3.856 0 0 1 -.231.739 3.177 3.177 0 0 1 -.359.69 4.345 4.345 0 0 1 -.5.611 4.021 4.021 0 0 1 -2.83 1.17z" fill="#72aad3"/><path d="m172.962 285.382h-32.72a4 4 0 0 1 0-8h32.72a4 4 0 0 1 0 8z" fill="#72aad3"/><path d="m330 277.382h-133.2a4 4 0 0 0 0 8h133.2z" fill="#72aad3"/><path d="m301.138 182.792a28.831 28.831 0 0 0 -23.581-12.068h-9c-.991.705-1.6 1.152-1.6 1.152s27.535.1 34.963 38.4c0 0 1.441 17.286 1.848 27.636h6.26a2.929 2.929 0 0 0 2.929-3.114c-.456-7.1-1.9-24.92-5.488-38.439a43.068 43.068 0 0 0 -6.331-13.567z" fill="#607491"/><path d="m85.093 165.851a18.036 18.036 0 0 0 13.733-15.557 21.672 21.672 0 0 1 -9.51 5.93 33.259 33.259 0 0 1 -10.677 1.682h-5.893a27.363 27.363 0 0 1 -15.19-4.591 27.038 27.038 0 0 0 -14.877-4.59h-13.856c-11.744 0-16.346-4.653-18.07-9.09-3.114 8.747 3.891 18.271 14.071 18.271h12.576a29.03 29.03 0 0 1 13.2 3.217c14.675 7.506 26.882 6.697 34.493 4.728z" fill="#698779"/><path d="m184.465 151.9s10.263.337 17.618-5.751c10.12-8.378 6.2-24.734-6.453-28.276-.564-.158-1.159-.3-1.771-.434 5.488 26.856-17.635 24.431-17.635 24.431h-11.531a18.024 18.024 0 0 1 -9.519-2.718 18.035 18.035 0 0 0 -9.52-2.717h-11.491a5.717 5.717 0 0 1 -4.266-9.543 22.111 22.111 0 0 1 7.031-4.85l-.228-1.142s-.771-1.677-2.011-4a20.669 20.669 0 0 0 -16.289 14.932q-.147.56-.275 1.146s-3.195 11.165 13.023 12.954h5.54a22.7 22.7 0 0 1 11.357 2.88 23.086 23.086 0 0 0 11.53 3.086z" fill="#698779"/><path d="m72.373 72.531h81.033a18.577 18.577 0 0 1 14.167 6.331s4.868 9.463 4.641 16.541c-.273 8.554-4.427 15.522-11.036 20.959-4.217 3.469-9.2 6.166-15.7 6.166l-24.2.374a27.865 27.865 0 0 1 -19.153-7.661c-.081-.074-11.327-7.778-18.032-8.129-10.491-.549-24.122-1.316-28.123-10.651-.943-2.2-2.71-6.262-2.71-6.262a15.276 15.276 0 0 1 2.931-9.44 19.668 19.668 0 0 1 16.182-8.228z" fill="#9fc2ab"/><path d="m168.279 79.749c-.227-.3-.463-.6-.707-.886 2.805 14.624-4.128 21.471-10.315 24.623a24.935 24.935 0 0 1 -11.332 2.6h-15.582a51.289 51.289 0 0 1 -20.143-4.116 47.78 47.78 0 0 0 -18.771-3.842h-16.062c-14.287 0-19.91-4.2-22.093-7.929a17.188 17.188 0 0 0 1.452 6.167c4 9.335 18.01 11.879 28.5 12.428a28.554 28.554 0 0 1 17.933 7.671l.243.224a29.625 29.625 0 0 0 19.95 7.443h24.048c6.5 0 12.154-3.2 16.372-6.673a29.793 29.793 0 0 0 11.175-21.859 25.128 25.128 0 0 0 -4.668-15.851z" fill="#698779"/><g fill="#607491"><path d="m73.787 300.955-1.325-18.077a29.314 29.314 0 0 0 -6.4-16.235l-5.9-7.337a29.307 29.307 0 0 1 -5.471-10.771l-3.976-14.8a12.035 12.035 0 0 0 -10.674-8.874 27.424 27.424 0 0 1 6.33 15.777l4.871 39.01a2.307 2.307 0 0 0 3.88 1.352l1.17-1.117a2.305 2.305 0 0 1 3.811 1.023 56.781 56.781 0 0 1 1.827 20.046z"/><path d="m119.849 300.955-.968-8.824a17.117 17.117 0 0 0 -4.072-9.335l-2.563-2.962a17.117 17.117 0 0 1 -4.159-10.494l-.564-13.617a13.059 13.059 0 0 0 -13.049-12.523h-3.027a13.048 13.048 0 0 0 -6.615 1.8c.141-.019 16-2.129 15.651 15.294v28.106a2.475 2.475 0 0 0 3.96 1.98l.754-.565a3.381 3.381 0 0 1 5.331 1.942 40.738 40.738 0 0 1 .883 9.2z"/><path d="m82.961 261.229a2.251 2.251 0 0 1 -1.376-1.016 2.792 2.792 0 0 1 -.189-.4 2.508 2.508 0 0 1 -.107-.424 2.207 2.207 0 0 1 -.019-.437 1.958 1.958 0 0 1 .062-.433 2.223 2.223 0 0 1 1.016-1.376 2.018 2.018 0 0 1 .4-.189 2.213 2.213 0 0 1 .424-.107 2.535 2.535 0 0 1 .438-.024 2.281 2.281 0 0 1 .845.21 2.714 2.714 0 0 1 .376.226 2.568 2.568 0 0 1 .324.294 2.229 2.229 0 0 1 .141 2.832 2.039 2.039 0 0 1 -.293.324 2.3 2.3 0 0 1 -.348.265 2.263 2.263 0 0 1 -.4.183 2.253 2.253 0 0 1 -.861.132 2.316 2.316 0 0 1 -.433-.06z"/><path d="m84.121 269.109a2.291 2.291 0 0 1 -.413-.142 2.2 2.2 0 0 1 -.376-.227 2.083 2.083 0 0 1 -.324-.293 2.051 2.051 0 0 1 -.263-.353 2.265 2.265 0 0 1 -.19-.393 2.462 2.462 0 0 1 -.1-.423 2.4 2.4 0 0 1 -.023-.437 2.316 2.316 0 0 1 .061-.434 2.362 2.362 0 0 1 .15-.417 2.27 2.27 0 0 1 .225-.37 2.117 2.117 0 0 1 .288-.326 2.318 2.318 0 0 1 .354-.263 2.256 2.256 0 0 1 2.1-.11 2.1 2.1 0 0 1 .376.226 2.507 2.507 0 0 1 .324.294 2.28 2.28 0 0 1 .263.353 2.31 2.31 0 0 1 .189.4 2.043 2.043 0 0 1 .1.423 2.244 2.244 0 0 1 .026.432 2.459 2.459 0 0 1 -.064.439 2.305 2.305 0 0 1 -.148.412 2.441 2.441 0 0 1 -.226.375 2.416 2.416 0 0 1 -.289.326 2.326 2.326 0 0 1 -.351.258 2.032 2.032 0 0 1 -.4.188 2.146 2.146 0 0 1 -.424.108 2.2 2.2 0 0 1 -.438.024 2.315 2.315 0 0 1 -.427-.07z"/><path d="m76.617 268.2a2.362 2.362 0 0 1 -.417-.15 2.211 2.211 0 0 1 -.371-.225 2.051 2.051 0 0 1 -.329-.294 2.018 2.018 0 0 1 -.258-.352 2.22 2.22 0 0 1 .758-3.064 1.954 1.954 0 0 1 .393-.19 2.342 2.342 0 0 1 .429-.107 2.234 2.234 0 1 1 -.209 4.381z"/><path d="m242.463 186.085a2.251 2.251 0 0 1 -1.377-1.015 2.8 2.8 0 0 1 -.189-.4 2.556 2.556 0 0 1 -.107-.424 2.274 2.274 0 0 1 -.018-.436 1.893 1.893 0 0 1 .062-.433 2.222 2.222 0 0 1 1.015-1.377 2.027 2.027 0 0 1 .4-.189 2.271 2.271 0 0 1 .424-.108 2.633 2.633 0 0 1 .437-.024 2.3 2.3 0 0 1 .846.211 2.574 2.574 0 0 1 .375.226 2.5 2.5 0 0 1 .325.293 2.282 2.282 0 0 1 .262.354 2.246 2.246 0 0 1 .253 1.691 2.305 2.305 0 0 1 -.148.412 2.329 2.329 0 0 1 -.226.376 2.085 2.085 0 0 1 -.294.324 2.008 2.008 0 0 1 -.744.448 2.279 2.279 0 0 1 -.862.131 2.238 2.238 0 0 1 -.434-.06z"/><path d="m243.622 193.966a2.322 2.322 0 0 1 -.413-.143 2.122 2.122 0 0 1 -.375-.226 2.047 2.047 0 0 1 -.325-.294 1.972 1.972 0 0 1 -.262-.353 2.3 2.3 0 0 1 -.191-.392 2.556 2.556 0 0 1 -.1-.423 2.507 2.507 0 0 1 -.024-.438 2.318 2.318 0 0 1 .062-.433 2.362 2.362 0 0 1 .15-.417 2.211 2.211 0 0 1 .225-.371 2.009 2.009 0 0 1 .288-.325 2.36 2.36 0 0 1 .353-.263 2.258 2.258 0 0 1 2.1-.11 2.131 2.131 0 0 1 .376.226 2.568 2.568 0 0 1 .324.294 2.233 2.233 0 0 1 .263.353 2.35 2.35 0 0 1 .189.4 2.018 2.018 0 0 1 .1.422 2.253 2.253 0 0 1 .025.433 2.171 2.171 0 0 1 -.211.85 2.378 2.378 0 0 1 -.515.7 2.309 2.309 0 0 1 -.352.257 1.955 1.955 0 0 1 -.4.189 2.111 2.111 0 0 1 -.424.108 2.194 2.194 0 0 1 -.437.023 2.324 2.324 0 0 1 -.426-.067z"/><path d="m236.119 193.055a2.372 2.372 0 0 1 -.418-.15 2.133 2.133 0 0 1 -.37-.224 2.01 2.01 0 0 1 -.329-.3 1.981 1.981 0 0 1 -.258-.352 2.218 2.218 0 0 1 .761-3.063 2.1 2.1 0 0 1 .393-.19 2.424 2.424 0 0 1 .429-.106 2.153 2.153 0 0 1 .431-.019 2.233 2.233 0 1 1 -.639 4.4z"/></g></svg>