<svg id="flat" height="512" viewBox="0 0 340 340" width="512" xmlns="http://www.w3.org/2000/svg"><path d="m136.667 220.022s-19.706-12.328-40.682-38.022a86.426 86.426 0 0 1 -19.49-54.64v-.093a76.19 76.19 0 0 0 -11.985-41.025l-2.068-3.236a18.543 18.543 0 0 1 9.668-27.543 18.542 18.542 0 0 1 18.271 3.7l6.6 5.858a47.741 47.741 0 0 0 33.183 12.022 47.739 47.739 0 0 1 32.626 11.532l43.847 37.746z" fill="#a03a57"/><path d="m327.532 145.916a152.658 152.658 0 0 0 -180.287 175.707h180.287z" fill="#8da3ea"/><g fill="#5c6198"><path d="m149.621 258.218c16.525.15 56.382-3.4 81.78-38.2a106.542 106.542 0 0 0 20.328-70.035 152.859 152.859 0 0 0 -102.108 108.235z"/><path d="m289.291 296.5a14.229 14.229 0 0 0 -13.247-2.335l-14.352 4.724a16.551 16.551 0 0 1 -11.864-.583 16.55 16.55 0 0 0 -17.08 2.256l-26.111 21.057h81.556l4.042-5.912a14.226 14.226 0 0 0 -2.944-19.207z"/><path d="m291.992 180.821a11.842 11.842 0 0 0 -1.771 14.656l.114.184a11.839 11.839 0 0 0 7.415 5.281c7.336 1.688 21.586 6.474 29.782 19.08v-74.106a152.97 152.97 0 0 0 -20.154-2.623c2.089 7.658 1.473 20.742-15.386 37.528z"/><path d="m276.311 253.276c-12.574-3.518-13.209-21.238-.861-25.482a30.229 30.229 0 0 1 4.1-1.081c21.511-4.151 26.04 17.737 26.04 17.737s1.755 7.6-4.125 12.441a13.039 13.039 0 0 1 -15.068.736 39.526 39.526 0 0 0 -10.086-4.351z"/></g><path d="m159.17 234.292s-29.19-12.277-41.564-32.425a78.031 78.031 0 0 1 -4.868-21.64 52.019 52.019 0 0 1 2.948-21.44l3.776-10.6a24.25 24.25 0 0 0 -.574-17.731l-4.851-11.256a12.3 12.3 0 0 1 5.5-15.759 37.219 37.219 0 0 1 12.963-4.111 18.444 18.444 0 0 1 12.123 2.862l12.1 7.829a55.33 55.33 0 0 0 25.188 8.6c12.361 1.1 31.362 5.031 44.423 18.235l7.265 24.886-23.319 51.3s-23.941 19.498-51.11 21.25z" fill="#ff627f"/><path d="m240.975 158.211c-5.774 23.412-24.838 74.662-83.137 92.362a29.767 29.767 0 0 1 -20.206-1.108c-2.368-1-4.974-2.2-7.618-3.588a7.856 7.856 0 0 1 2.368-14.681l4.76-.813a17.044 17.044 0 0 0 14.172-16.874 11.432 11.432 0 0 1 13.715-11.251l11.576 2.36a12.49 12.49 0 0 0 14.946-13.232l-.857-3.3a11.548 11.548 0 0 1 15.166-13.74l.278.1a11.559 11.559 0 0 0 15.541-10.516c.253-8.612-.925-17.168-2.081-26.8-.947-7.889 8.728-12.5 14.193-6.736.1.1.2.21.3.317a29.836 29.836 0 0 1 6.884 27.5z" fill="#ffcd85"/><path d="m30.008 68.7a68.443 68.443 0 0 1 15.992 16.643 33.83 33.83 0 0 1 5.8 19.56c0 .089 0 .178-.008.267a6 6 0 0 1 -8.173 5.352c-8.08-3.155-21.13-10.119-28.1-23.817-5.288-10.386-2.833-15.673.944-18.364a11.584 11.584 0 0 1 13.545.359z" fill="#a03a57"/><path d="m111.542 31.683a6.908 6.908 0 0 0 -7.8 4.595c-.905 2.836-.99 6.718 1.933 11.254 3 4.661 8.506 6 13.378 6.132a7.923 7.923 0 0 0 7.433-11.264c-2.175-4.578-6.472-9.27-14.944-10.717z" fill="#a03a57"/><path d="m216.226 82.205a7.371 7.371 0 0 0 -9.589 7.056c.013 2.72.969 6.114 3.8 10.18 5.417 7.788 10.727 3.448 13.889-.772a9.539 9.539 0 0 0 -1.6-13.218 19.5 19.5 0 0 0 -6.5-3.246z" fill="#ff627f"/><path d="m192.107 140.46a15.275 15.275 0 0 1 4.822 5.951 8.415 8.415 0 0 1 -1.369 9.167 17.684 17.684 0 0 1 -3.315 2.869 8.593 8.593 0 0 1 -13.008-4.344 18.168 18.168 0 0 1 -.7-7.367 8.591 8.591 0 0 1 13.57-6.276z" fill="#b4343c"/><path d="m150.818 133.515c2.181 2.358 4.157 5.924 5.106 11.313a8.5 8.5 0 0 1 -5.559 9.538c-3.16 1.066-7.054.812-10.44-4a15.512 15.512 0 0 1 -1.984-13.755 7.578 7.578 0 0 1 12.877-3.096z" fill="#b4343c"/><path d="m98.348 126.314c.08.068.16.138.24.209a18.665 18.665 0 0 1 4.206 22.491 6.229 6.229 0 0 1 -11.46-.9 33.738 33.738 0 0 1 -.392-19.412 4.589 4.589 0 0 1 7.406-2.388z" fill="#ff627f"/><path d="m143.028 192.561a3.447 3.447 0 0 1 -2.216-.8l-1.965-1.638a3.464 3.464 0 0 1 4.436-5.322l1.965 1.638a3.464 3.464 0 0 1 -2.22 6.125z" fill="#a03a57"/><path d="m92.363 236.759a3.472 3.472 0 0 1 -1.221-.223l-2.648-1a3.465 3.465 0 0 1 2.444-6.484l2.647 1a3.465 3.465 0 0 1 -1.222 6.707z" fill="#ff627f"/><path d="m81.845 30.2a3.456 3.456 0 0 1 -2.691-1.279l-2.791-3.435a3.465 3.465 0 1 1 5.378-4.369l2.791 3.435a3.464 3.464 0 0 1 -2.687 5.648z" fill="#a03a57"/><path d="m33.454 28.219a3.451 3.451 0 0 1 -2.426-.992l-2.969-2.914a3.464 3.464 0 0 1 4.852-4.945l2.969 2.914a3.464 3.464 0 0 1 -2.426 5.937z" fill="#a03a57"/><path d="m269.425 95.5a3.466 3.466 0 0 1 -3.348-2.584l-.682-2.59a3.464 3.464 0 1 1 6.7-1.763l.682 2.59a3.465 3.465 0 0 1 -2.469 4.232 3.5 3.5 0 0 1 -.883.115z" fill="#ffcb75"/><path d="m108.687 284.712a3.439 3.439 0 0 1 -.782-.09l-3.828-.883a3.464 3.464 0 0 1 1.558-6.75l3.828.883a3.464 3.464 0 0 1 -.776 6.84z" fill="#ffcb75"/><path d="m143.514 283.719a266.729 266.729 0 0 0 46.871-13.358 2.69 2.69 0 0 1 2.76 4.531c-10.119 8.839-26.729 20.255-47.43 23.2a7.163 7.163 0 0 1 -8.114-7.127v-.177a7.189 7.189 0 0 1 5.913-7.069z" fill="#5c6198"/><path d="m274.274 140.334a11.729 11.729 0 0 0 -8.877 10.4c-2.587 25.623-9.841 56.5-21.463 77.816a2.514 2.514 0 0 0 4.059 2.905c15.624-17.117 37.189-44.055 35.46-79.572-.524-10.775-4.92-12.506-9.179-11.549z" fill="#5c6198"/><path d="m214 254.966a4.457 4.457 0 0 0 6.023 5.768 24.568 24.568 0 0 0 6.384-4.369 20.813 20.813 0 0 0 4.54-6.242 4.462 4.462 0 0 0 -6.071-5.875 27.288 27.288 0 0 0 -6.845 4.752 19.309 19.309 0 0 0 -4.031 5.966z" fill="#5c6198"/></svg>