<svg id="Flat" height="512" viewBox="0 0 340 340" width="512" xmlns="http://www.w3.org/2000/svg"><path d="m229.473 31.115 8.467 4.031a185.5 185.5 0 0 1 21.785-13.792c-50.311-31.842-72.769 41.159-72.769 41.159l9.512 6.894c11.978-10.71 23.86-20.965 35.437-29.783z" fill="#709653"/><path d="m238.284 64.82s4.115 6.991 6.613 11.593l31.278-1.836s-8.622-31.538-39.933-29.614c-16.326 1-26.607 7.977-32.708 14.423l-7.123 12.589-2.754 8.172 30.019-2.387a11.084 11.084 0 0 0 7.879-4.258z" fill="#8fd17a"/><path d="m225.433 77.461c.161-.039.324-.07.483-.116.283-.084.559-.186.834-.292.074-.028.151-.049.224-.079.321-.131.635-.28.942-.441.022-.012.046-.021.069-.033a11.135 11.135 0 0 0 3.447-2.855c-7.5-4.086-18.091-3.489-24.539-3.707a13.077 13.077 0 0 0 -3.356-10.546 38.546 38.546 0 0 0 -7.683 11.383l-2.2 9.374 30.019-2.387a11.352 11.352 0 0 0 1.138-.151c.212-.041.416-.099.622-.15z" fill="#709653"/><path d="m231.964 81.78c-11.109-7.22-21.5-7-28.954-5.087l-9.353 6.519 1.323 4.3 25.244 16.588 8.432-6.594-3.3 9.965 26.578 17.472s1.584-29.153-19.97-43.163z" fill="#8fd17a"/><path d="m191.267 36.575a31.79 31.79 0 0 0 -11.239-19.254c-16.087-12.752-35.468-2.276-35.468-2.276a97.789 97.789 0 0 1 13.97 16.34l11.47-3.516-7.319 9.817a204.326 204.326 0 0 1 17.279 35.492c6.504-5.231 11.24-18.078 11.24-18.078a46.591 46.591 0 0 0 .067-18.525z" fill="#8fd17a"/><path d="m159.06 129.5s-20.315-9.849-29.548 10.465c0 0-17.636 1.046-15.185 21.546h35.294z" fill="#566056"/><path d="m144.881 184.128s-6.147-73.9 35.567-100.916l7.321 3.788s-13.245 43.729 0 88.3z" fill="#b7555a"/><path d="m180.448 83.212a58.531 58.531 0 0 0 -10.376 8.6l6.086 5.1a5.1 5.1 0 0 1 1.678 5.142 207.556 207.556 0 0 0 -5.7 40.951 5.574 5.574 0 0 1 -3.813 5.092 22.7 22.7 0 0 1 -21.442-3.424 180.835 180.835 0 0 0 -2 39.455l42.888-8.83c-13.245-44.57 0-88.3 0-88.3z" fill="#75212c"/><path d="m330 222.627c-12.31 0-12.31-4-24.621-4s-12.31 4-24.621 4-12.309-4-24.618-4-12.308 4-24.616 4-12.308-4-24.617-4-12.308 4-24.616 4-12.307-4-24.613-4-12.307 4-24.613 4-12.3-4-24.61-4-12.307 4-24.615 4-12.307-4-24.614-4-12.306 4-24.613 4-12.307-4-24.613-4v52.143h320z" fill="#32579d"/><path d="m170 169a28.5 28.5 0 0 1 1.1-7.139c5.833-20.973 35.988-20.267 40.936.933.038.162.074.325.11.49 0 0 21.282-5.372 24.588 20.042 0 0 .949 9.036 3.352 15.249z" fill="#839974"/><path d="m64.6 264.09h200.911l-4.076-25.59c-7.91-28.277-31.167-70-99.551-70.975 0 0-79.141-2.963-96.938 66.514 0 .004-.346 18.77-.346 30.051z" fill="#f9e8de"/><path d="m261.432 238.505c-5.632-1.774-8.784-4.572-18.717-4.572-14.547 0-14.547 6-29.093 6s-14.546-6-29.092-6-14.546 6-29.092 6c-4.426 0-9.8-.439-15.239-1.011-23.176-2.44-28.559-34.2-7.29-43.721a17.338 17.338 0 0 1 3.668-1.243l-.016-.01c8.375.334 13.11-1.858 15.625-3.828a14.21 14.21 0 0 1 7.97-2.968c9.516-.55 27.4-3.523 18.167-18.522a152.349 152.349 0 0 0 -16.439-1.1s-26.1-.967-51.692 11.363h-.01c-.25.12-.5.248-.751.371l-.053.026c-18.692 9.214-36.964 25.6-44.432 54.758v.053a120.714 120.714 0 0 0 -3.524 29.994h204.09a105.238 105.238 0 0 0 -4.08-25.59z" fill="#d3a1a7"/><path d="m89.749 192.366s7.439-6.377 20.983-9.518a37.045 37.045 0 0 1 14.577-.324c4.669.794 11.036 3.017 18.441.186a47.963 47.963 0 0 1 16.9-2.771 5.892 5.892 0 0 0 5.106-8.855q-.272-.481-.52-.978s-9.091-23.761-35.332-12.6c0 0-15.7-6.405-25 8.059 0 0-13.843 2.479-11.984 16.736 0-.001.327 6.762-3.171 10.065z" fill="#839974"/><path d="m330 260.574c-14.548 0-14.548-6-29.1-6s-14.549 6-29.1 6-14.546-6-29.092-6-14.547 6-29.093 6-14.546-6-29.092-6-14.546 6-29.092 6-14.544-6-29.088-6-14.543 6-29.087 6-14.542-6-29.084-6-14.545 6-29.09 6-14.545-6-29.089-6v65.019h320.007z" fill="#5f8ad8"/><path d="m170 313.067.26-13.935c4.686-17.509 18.112-45.207 56.511-54.434a262.228 262.228 0 0 0 -3.6 50.314s-1.692 12.268-.672 18.541c.001 0-23.651 7.147-52.499-.486z" fill="#fff"/><path d="m224.959 314.172a153.384 153.384 0 0 1 -1.785-19.16c-17.626.045-17.681 8-35.409 8a37.16 37.16 0 0 1 -17.5-3.876 70.993 70.993 0 0 0 -2.5 15.039c28.841 7.625 57.194-.003 57.194-.003z" fill="#c0cfe7"/><path d="m167.823 46.532a204.7 204.7 0 0 1 12.137 26.646 31.594 31.594 0 0 0 11.24-18.078 13.864 13.864 0 0 0 -8.991 4.287c-3.925-6.822-10.349-10.858-14.386-12.855z" fill="#709653"/><path d="m144.38 45.05c-29.5-1.469-37.826 16.161-37.826 16.161l29.222 8.523 8.6-8.523.769 5.951a8.5 8.5 0 0 0 6.049 7.07l25.878 7.548 3.653-5.707-3.854-11.887c-5.36-8.254-15.352-18.286-32.491-19.136z" fill="#8fd17a"/><path d="m178.645 112.57a21.816 21.816 0 0 1 -10.944-.056 1.791 1.791 0 0 0 -1.528 3.156 18.861 18.861 0 0 0 9.589 3.727z" fill="#75212c"/><path d="m175.6 128.923s-7.681 2.992-18.93.829a2.289 2.289 0 0 0 -1.6 4.213c4.336 2.63 10.746 4.686 19.579 3.214z" fill="#75212c"/><path d="m177.076 81.78 5.129-6.611a46.332 46.332 0 0 0 -5.335-10.98 12.042 12.042 0 0 0 -10.7 5.58 14.712 14.712 0 0 0 -2.683 8.046z" fill="#709653"/><path d="m207.437 84.374a19.942 19.942 0 0 0 -4.425-7.675 35.815 35.815 0 0 0 -11.439 5.081l3.407 5.73 11.807 7.761a15.551 15.551 0 0 0 .65-10.897z" fill="#709653"/><circle cx="178.645" cy="78.969" fill="#cc967d" r="9.562"/><path d="m169.083 78.969a9.563 9.563 0 0 0 .144 1.6 9.53 9.53 0 0 0 15.22-9.186 9.55 9.55 0 0 0 -15.364 7.588z" fill="#f4c4ac"/><circle cx="193.219" cy="87.947" fill="#cc967d" r="9.562"/><circle cx="191.183" cy="71.358" fill="#cc967d" r="9.562"/><path d="m191.183 61.8a9.562 9.562 0 0 0 -9.174 6.879 9.556 9.556 0 0 0 18.347 0 9.56 9.56 0 0 0 -9.173-6.879z" fill="#f4c4ac"/><path d="m330 312.42c-17.78 0-17.78-8-35.561-8s-17.78 8-35.561 8-17.778-8-35.556-8-17.778 8-35.557 8-17.777-8-35.555-8-17.777 8-35.555 8-17.775-8-35.55-8-17.775 8-35.55 8-17.778-8-35.555-8v24.58h320z" fill="#74a9f7"/></svg>