<svg id="icon" height="512" viewBox="0 0 340 340" width="512" xmlns="http://www.w3.org/2000/svg"><path d="m237.84 210.259-67.84 21.108-67.84-21.108s-40.137 27.16-44.6 119.273h224.877c-4.46-92.113-44.597-119.273-44.597-119.273z" fill="#ebf6ff"/><path d="m200.085 255.305a38.685 38.685 0 0 0 9.742-8.528c5.93-7.047 17.179-7.3 17.854-7.313l.459.013.361-.038c12.685-.906 20.244-6.318 24.633-11.5-8.394-12.027-15.294-16.7-15.294-16.7l-67.84 21.106-67.84-21.109s-6.9 4.676-15.294 16.7c4.389 5.182 11.948 10.594 24.633 11.5l.491.035.33-.01c.688.009 11.927.271 17.853 7.313a38.693 38.693 0 0 0 9.742 8.529c5.887 3.517 15.885 7.711 30.085 7.711s24.2-4.191 30.085-7.709z" fill="#a8c2ed"/><path d="m245.654 205.863c-32.715-27.616-75.654-27.312-75.654-27.312s-42.939-.3-75.654 27.312a9.658 9.658 0 0 0 -2.455 11.7c2.583 5.086 8.187 11.031 20.321 11.9 0 0 16.267-.231 25.612 10.874a29.11 29.11 0 0 0 7.221 6.383c4.916 2.938 13.123 6.3 24.955 6.3s20.039-3.358 24.955-6.3a29.11 29.11 0 0 0 7.221-6.383c9.345-11.1 25.612-10.874 25.612-10.874 12.134-.867 17.738-6.812 20.321-11.9a9.658 9.658 0 0 0 -2.455-11.7z" fill="#ebf6ff"/><path d="m130.577 211.743c-9.881 7.123-17.456 17.741-17.456 17.741a42.044 42.044 0 0 1 9.889 1.667 157.53 157.53 0 0 1 9.713-17.375 1.505 1.505 0 0 0 -2.146-2.033z" fill="#a8c2ed"/><path d="m210.638 212.5a1.684 1.684 0 0 0 -2.449 2.227 78.184 78.184 0 0 1 7.8 16.736 41.992 41.992 0 0 1 11.075-1.984 89.473 89.473 0 0 0 -16.426-16.979z" fill="#a8c2ed"/><path d="m170.182 215.784c20.308 0 36.927-13.371 38.34-30.308a131.981 131.981 0 0 0 -38.522-6.925 131.874 131.874 0 0 0 -38.169 6.808c1.346 16.993 17.996 30.425 38.351 30.425z" fill="#a8c2ed"/><path d="m152.583 151.1h34.835a0 0 0 0 1 0 0v37.477a17.417 17.417 0 0 1 -17.418 17.423 17.417 17.417 0 0 1 -17.417-17.417v-37.483a0 0 0 0 1 0 0z" fill="#ffd0b0"/><path d="m152.583 185.777a73.092 73.092 0 0 0 33.961 8.229 17.381 17.381 0 0 0 .873-5.425v-37.481h-34.834z" fill="#f29999"/><path d="m258.958 80.755a17.784 17.784 0 0 0 -5.138-16.155 16.829 16.829 0 0 0 -9.4-4.45q.213-.543.4-1.077c4.453-13.028-5.76-26.429-19.528-26.279a30.6 30.6 0 0 0 -8.763 1.321 13.074 13.074 0 0 0 -1.078-4.537 18.632 18.632 0 0 0 -14.563-11.163 21.779 21.779 0 0 0 -12.951 2.217c-4.65-11.39-17.937-10.122-17.937-10.122s-13.287-1.268-17.936 10.122a21.779 21.779 0 0 0 -12.951-2.217 18.632 18.632 0 0 0 -14.563 11.163 13.074 13.074 0 0 0 -1.078 4.537 30.6 30.6 0 0 0 -8.763-1.321c-13.768-.15-23.981 13.251-19.528 26.279q.183.534.4 1.077a16.829 16.829 0 0 0 -9.4 4.45 17.784 17.784 0 0 0 -5.138 16.155c.793 4.612 2.94 10.25 8.491 13.334a11.785 11.785 0 0 0 -1.207.708c-12.316 8.083-6.65 27.446 8.08 27.637h.333a15.1 15.1 0 0 0 -.106 2.312c.235 12.434 11.7 21.551 23.964 19.471a30.382 30.382 0 0 0 8.686-2.941h81.434a30.382 30.382 0 0 0 8.686 2.941c12.261 2.08 23.729-7.037 23.964-19.471a15.1 15.1 0 0 0 -.106-2.312h.332c14.731-.191 20.4-19.554 8.081-27.637a11.917 11.917 0 0 0 -1.207-.708c5.55-3.084 7.697-8.722 8.49-13.334z" fill="#ffca58"/><path d="m151.192 141.278 1.391-5.216v-11.862l-21.214-23.687a22.8 22.8 0 0 1 -6.548.822s-21.436 19.666-43.184 7c.553 7.2 6.083 13.982 14.769 14.1h.333a15.1 15.1 0 0 0 -.106 2.312c.235 12.434 11.7 21.551 23.964 19.471a30.382 30.382 0 0 0 8.686-2.941z" fill="#f79043"/><path d="m243.367 124.748a15.1 15.1 0 0 0 -.106-2.312h.332a14.688 14.688 0 0 0 13.9-10c-29.816 5.009-42.33-11.1-42.33-11.1a22.8 22.8 0 0 1 -6.548-.822s-18.733 7.659-21.991 11.568a48 48 0 0 0 -8.6 15.637 32.321 32.321 0 0 0 -1.714 13.556h34.411a30.382 30.382 0 0 0 8.686 2.941c12.257 2.084 23.725-7.034 23.96-19.468z" fill="#f79043"/><path d="m107.351 59.817c-1.481-2.581-4.992-6.122-13.218-7.2a19.37 19.37 0 0 0 1.048 6.452q.183.534.4 1.077s6.089-.786 10.473 1.078a1.009 1.009 0 0 0 1.297-1.407z" fill="#f79043"/><path d="m244.443 60.1q.2-.514.376-1.022a19.451 19.451 0 0 0 1.042-5.759 19.331 19.331 0 0 0 -12.353 5.981 1.08 1.08 0 0 0 1.117 1.761 30.53 30.53 0 0 1 9.779-.913z" fill="#f79043"/><path d="m219.046 140.922c-.889-13.718-10.415-18.486-10.415-18.486v-20.919c-8.4-2.177-8.4-11.818-8.4-11.818-11.2 2.488-16.986-10.264-16.986-10.264a11.554 11.554 0 0 1 -6.489 8.963 14.776 14.776 0 0 1 -13.518 0 11.554 11.554 0 0 1 -6.489-8.963s-5.79 12.752-16.986 10.264c0 0 0 9.641-8.4 11.818v20.919s-9.526 4.768-10.415 18.486a31.467 31.467 0 0 0 4.405 17.846c5.543 9.485 18.366 24.167 44.641 24.167s39.1-14.682 44.641-24.167a31.475 31.475 0 0 0 4.411-17.846z" fill="#ffd0b0"/><path d="m170 139.889h-31.859s-.085 28.333 31.859 28.333 31.859-28.333 31.859-28.333z" fill="#fff"/><path d="m185.2 95.362a13.2 13.2 0 0 0 -11.258 3.96 5.46 5.46 0 0 1 -3.942 1.678 5.459 5.459 0 0 1 -3.937-1.678 13.231 13.231 0 1 0 .012 18.315 5.427 5.427 0 0 1 3.925-1.666 5.429 5.429 0 0 1 3.926 1.666 13.232 13.232 0 1 0 11.274-22.275z" fill="#fff"/><g fill="#f29999"><path d="m150.936 111.294a3.01 3.01 0 0 1 -.892-.136 2.975 2.975 0 0 1 -1.935-3.722 8.84 8.84 0 0 1 8.344-6.083 8.988 8.988 0 0 1 8.454 5.994 2.954 2.954 0 1 1 -5.583 1.933 3.122 3.122 0 0 0 -2.871-2.019 2.884 2.884 0 0 0 -2.717 1.976 2.924 2.924 0 0 1 -2.8 2.057z"/><path d="m177.889 111.292a2.961 2.961 0 0 1 -2.8-3.945 8.991 8.991 0 0 1 8.455-5.994 8.84 8.84 0 0 1 8.344 6.083 2.955 2.955 0 0 1 -5.63 1.795 2.882 2.882 0 0 0 -2.714-1.97 3.132 3.132 0 0 0 -2.886 2.062 2.924 2.924 0 0 1 -2.769 1.969z"/><path d="m140.56 119.131a22.9 22.9 0 0 0 -9.191-1.029v4.334a27.368 27.368 0 0 1 8.993-2.005.668.668 0 0 0 .198-1.3z"/><path d="m208.631 118.015a18.084 18.084 0 0 0 -8 .7.771.771 0 0 0 .151 1.494 25.711 25.711 0 0 1 7.844 2.225z"/></g><path d="m147.78 161.064a26.463 26.463 0 0 0 6.773 4.251v-25.426h-6.773z" fill="#e6e6e6"/><path d="m166.8 139.889v28.225c1.033.066 2.095.108 3.2.108 1.243 0 2.421-.057 3.568-.139v-28.194z" fill="#e6e6e6"/><path d="m185.644 165.226a26.388 26.388 0 0 0 6.773-4.333v-21h-6.773z" fill="#e6e6e6"/><path d="m208.631 100.517c-8.4-2.177-8.4-11.818-8.4-11.818-11.2 2.488-16.986-10.264-16.986-10.264a11.554 11.554 0 0 1 -6.489 8.963 14.776 14.776 0 0 1 -13.518 0 11.554 11.554 0 0 1 -6.489-8.963s-5.79 12.752-16.986 10.264c0 0 0 9.641-8.4 11.818v6.841c2.762-.963 11.3-4.679 12.083-14.028 0 0 8.768-.417 12.213-5.741 0 0 3.2 7.1 14.335 7.1s14.335-7.1 14.335-7.1c3.444 5.324 12.213 5.741 12.213 5.741.786 9.349 9.321 13.065 12.083 14.028z" fill="#f29999"/><rect fill="#f45a4e" height="24.407" rx="12.204" width="26.497" x="156.752" y="122.436"/><path d="m158.884 277.393v10.114a11.116 11.116 0 0 0 11.116 11.117 11.116 11.116 0 0 0 11.116-11.117v-10.114z" fill="#a8c2ed"/><path d="m158.884 329.532h11.116 11.116v-14.832h-22.232z" fill="#a8c2ed"/><circle cx="170" cy="314.7" fill="#ffca58" r="11.116"/><circle cx="170" cy="277.393" fill="#ffca58" r="11.116"/></svg>