<svg id="Flat" height="512" viewBox="0 0 340 340" width="512" xmlns="http://www.w3.org/2000/svg"><path d="m134.261 220.178c19.006-11.272 52.353-34.909 69.215-69.89a14.336 14.336 0 0 1 22.294-4.48c29.163 25.263 89.892 85.841 102.923 161.775a16.378 16.378 0 0 1 -16.48 19.151c-37.32-.84-122.637-11.4-181.9-85.229a14.365 14.365 0 0 1 3.948-21.327z" fill="#dae5f7"/><path d="m252.087 219.389a7.8 7.8 0 0 0 5.485-12.423 385.8 385.8 0 0 0 -25.41-29.645 16.751 16.751 0 0 0 -25.6 1.3c-10.6 13.944-23.8 27.087-29.074 32.175-47.561 34.071 26.3 76.374 57.464 85.961a5.446 5.446 0 0 0 4.894-9.554c-4.4-3.321-9.1-7.163-13.752-11.449a25.792 25.792 0 0 1 -7.759-12.981c-1.452-6.2-.793-13.81 4.266-22.816 8.388-14.93 20.199-19.542 29.486-20.568z" fill="#8294b9"/><path d="m134.921 146.767a134.058 134.058 0 0 1 18.939 16.482 46.341 46.341 0 0 1 11.909 22.111c1.707 8.133 15.384 29.457 39.278 44.079 5.938 3.634 12.058-4.5 6.926-9.208-13.249-12.139-26.968-27.738-31.237-43.173a50.053 50.053 0 0 0 -6.153-13.54c-6.278-9.829-17.057-23.993-30.165-30.187z" fill="#8294b9"/><path d="m111.06 134.258a50.7 50.7 0 0 0 16.946 13.942 12.122 12.122 0 0 0 12.408-.741 24.879 24.879 0 0 0 6.835-7.039 12.2 12.2 0 0 0 -.032-13.038c-3.422-5.5-9.524-13.324-18.088-16.75z" fill="#474756"/><path d="m75.848 51.792c-5.056-12.48-16.62-31.572-41.27-37.922-14.131-3.641-26.854 9.673-22.72 23.667a74.969 74.969 0 0 0 3.424 9.308s11.5 23.032 38.065 33.349c6.975 2.706 14.187 9.326 17.023 16.249 5.036 12.292 15.883 28.159 40.69 31.982 20.774 3.2 16.791-29.7 12.208-36.288-6.7-9.636-16.819-18.766-32.056-25.006a27.979 27.979 0 0 1 -15.364-15.339z" fill="#f4737d"/><path d="m123.268 92.137c-.808 11.223-4.98 21.671-18.451 18.492-14.122-3.332-22.36-13.539-27-22.483a32.161 32.161 0 0 0 -22.672-16.864c-21.545-4.033-33.372-14.417-39.862-24.438 6 13.454 17.274 27.667 38.359 36.3a27.942 27.942 0 0 1 15.3 15.225c5.036 12.292 16.487 31.046 40.745 37.492a18.983 18.983 0 0 0 23.1-24.012 71.066 71.066 0 0 0 -9.519-19.712z" fill="#bf454f"/></svg>