<svg id="flat" height="512" viewBox="0 0 500 500" width="512" xmlns="http://www.w3.org/2000/svg"><path d="m428.272 367.94c.255-15.9 3.546-34.642 15.05-45.542 29.206-27.671 37.108 4.62 38.54 23.819a1 1 0 0 0 1.937.283c29.676-67.1-68.39-89.817-72.86 8.246z" fill="#4d8489"/><path d="m428.018 287.512c8.962-39.494 24.686-78.338 43.745-106.774 0 0 13.206 13.494 16.672 86.561 15.666-91.425-7.427-122.952-7.427-122.952s-35.515 16.8-65.321 95.43c-6.452 27.253-4.797 51.036 12.331 47.735z" fill="#7bb7b7"/><path d="m425.13 284.605c-9.879-12.267-10.04-29.678-9.44-44.826-16.662 46.535-29.588 96.967-36.51 146.2l1.712 1.034 40.664-5.984c-3.719-27.97-.909-60.964 6.478-93.518a24.64 24.64 0 0 1 -2.904-2.906z" fill="#4d8489"/><path d="m98.665 391.412c-9.728-33.4-35.11-65.458-73.2-52.2 6.535-15.012 24.805-23.055 40.284-17.722 26.576 9.883 35.483 43.963 32.916 69.922z" fill="#4f424c"/><path d="m6.116 152.016c65.558 69.62 78.461 163.111 99.224 246.911 6.928-43.971 10.644-216.484-99.224-246.911z" fill="#4f424c"/><path d="m79.738 324.43c-15.607-27.976-37.695-56.189-68.938-66.794 28.371-9.875 63.263 13.82 76.123 36.781 6.938 14.707 2.703 31.243-7.185 30.013z" fill="#7bb7b7"/><path d="m81.787 321.139a36.013 36.013 0 0 1 -2.05 3.291c9.115 16.338 16.623 33.783 19.35 52.264 2.057-13.282 6.074-51.379-12.17-82.276.623 9.216-.566 18.376-5.13 26.721z" fill="#4d8489"/><path d="m249.641 120.324c-1.314-.382-47.042-4.7-63.863-11.85-7.908-3-15.765-14.657-24.824-11.149-2.272 1.135-4.623 3.626-6.829 2.368a4.943 4.943 0 0 1 -1.725-2.193l-6.007-11.713c-1.326-2.984-4.2-6.84-7.86-5.326-7.189 11.588-8.625 25.683-11.382 39.038-1.5 7.27-4.062 15.266-10.649 18.689-.002-.002 94.698 3.582 133.139-17.864z" fill="#4f424c"/><path d="m202.338 120.135c70.3-5.073 207.661-2.488 196.251 42.857-2.036 11.718-31.753 18.832-43.648 18.918 0 0-74.835 2.775-144.2-5.221 0 0-41.879-22.8-36.341-35.426s27.938-21.128 27.938-21.128z" fill="#4f424c"/><path d="m210.745 176.688c2.852-1.289 5.867-2.369 8.708-3.541 20.176-8.6 17.987-24.421-2.162-30.994-26.278-9.375-10.734-20.623-20.3-21.67-90.5 3.732-94.827 20.78-94.827 20.78 16.91 19.602 61.484 29.996 108.581 35.425z" fill="#a5a363"/><path d="m297.374 172.632a3.952 3.952 0 0 1 -4.172.265l-59.641 3.791h-1.687c-19.071 5.214-47.347 6.674-71.867 15.947-10.685 37.605-31.571 135.37 8.116 223.771h182.377v-129.012l18.62-119.323z" fill="#e2bfb5"/><path d="m419.535 69.582a7.171 7.171 0 0 0 -10 .673c-5.623 6.183-13.089 19.449-18.53 32.079l-3.285 16.682-1.39 7.058-1.419-.131-4.137-.381a40.58 40.58 0 0 1 -19.195 13.879c-2.385 2.971-4.833 4.8-7.524 2.129a16 16 0 0 0 -11.179 10.069c-2.6 6.75-5.729 14.175-11.842 16.433-2.333 2.714-4.791 3.585-7.454 1.414-2.668.242-5.478.467-8.571.684-1.905 1.634-4.3 1.553-6.98.443-2.892.165-5.931.315-9.1.447-2.4 3.256-5.129 2.811-8.044.286-13.572.4-29.059.439-45.452-.168-2.816 1.8-32.5 9.442-42.291 11.082 0 0 15.82.938 22.776.912 1.189 19.479 9.821 142.279-5.7 199.045-5.979 21.871-35.628 25.294-46.522 5.408-9.706-17.72-15.417-51.618-8.479-117.119.631-5.953 1.718-12.1 5.118-17.026 2.272-3.291 5.518-5.867 7.492-9.345 5.308-9.352.155-22.607 6.838-31.032 4.008-5.052 11.323-6.862 14.7-12.356l-7.308-3.8c-17.059-3.255-36.827-.153-47.746 13.35-11.116 15.11-14.25 38.395-15.529 56.805l-17.7 14.174c.356 20.88-1.788 58.771-17.868 98.213-10.204 19.797-18.25 38.471-14.049 50.798l63.715.041c5-1.595 9.48-2.194 12.525.007l64.318.041c7.879-2.208 16.268-1.706 24.887.016l63.615.04a10.077 10.077 0 0 1 7.743 0l38.384.024c11.122-2.545 21.711-2.881 31.52.02l20.537.014c-11.872-83.113-18.357-161.45 1.194-250.639 4.594-47.744 11.3-83.351 14.437-103.617a7.031 7.031 0 0 0 -2.505-6.652zm-67.825 170.2c-3.235 33.573-20.276 18.857-28.894 40.7-3.927 10.713-12.257 6.11-14.884-13.973 0 0 4.759 61.778 11.451 94.64-.6 57.752-57.731 53.142-78.134 2.975q-.766-90.456-1.534-180.912c12.805.116 25.611.41 38.442.591-.488 17.194-1.287 66.673 4.608 92.451 0 0-.364 6.476 8.43 6.476l2.219-98.923c13.851-.266 24.175-.885 38.852-3.6a16.944 16.944 0 0 1 20.067 16.893z" fill="#a3868c"/><path d="m399.993 377.074c-7.986-56.474 2.887-179.474 2.887-179.474l.461-6.152c1.52-2.2-1.635-4.021-3.405-2.627-10.481 8.255-16.757 21.8-18.5 34.8-3.943 29.434-14.945 39.793-20.554 44.549-23.171 19.65-23.075 56.114-7.111 79.84 12.811 19.039 22.993 20.877 33.666 28.684 6.193 59.835-17.77 42.211-17.77 42.211l-1.278 11.576 38.019.014z" fill="#4f424c"/><path d="m241.711 170.885c-41.243-1.845-128.211 14.729-131.611 93.761a172.737 172.737 0 0 1 1.012 19.111c11.71-1.059 26.118-5.28 30.066-16.324 10.766-28.132 30.793-15.395 32.013-37.98.706-24.563 25.231-9.229 32.2-35.468 4.284-16.131 31.481-4.692 36.32-23.1z" fill="#4f424c"/><path d="m335.28 362.778c-8.4-48.62-8.906-98.451-8.421-147.677a345.329 345.329 0 0 1 4.18-47.03 28.24 28.24 0 0 1 -7.454 1.415c-4.692 29.867-4.055 59.943-3.215 89.977 1.352 36.976 1.751 74.563 9.96 110.8-13.145-25.161-17.648-53.283-17.667-81.372a1119.118 1119.118 0 0 1 2.351-118.723q-3.325.234-6.98.442c-3.548 46.007-3.368 92.382-1.079 138.423 1.59 45.5 16.141 87.72 47.4 121.427l31.52.02c-34.411-21.28-46.475-46.325-50.595-67.702z" fill="#4f424c"/><path d="m377.64 269.741a930.974 930.974 0 0 1 13.241-167.1c-3.607 7.807-5.139 16.506-10.109 22.922-4.468 33.287-8.015 66.828-8.428 100.431.006 14.591-1.142 29.154-.61 43.751.138 3.782 5.899 3.815 5.906-.004z" fill="#4f424c"/><path d="m354.509 209.189c2.6-23.355 3.208-46.5 7.074-69.749a59.12 59.12 0 0 1 -7.521 2.139c-2.307 22.608-4.194 44.911-4.451 67.61-.078 3.211 4.589 3.075 4.898 0z" fill="#4f424c"/><path d="m293.454 280.379c3.707-36.293 3.47-72.908 5.479-109.319q-3.9.162-8.044.285c-.285 16.7-1.267 33.314-1.589 50.005-.484 19.6-1.727 39.428-.792 59.029.156 3.251 4.575 3.1 4.946 0z" fill="#4f424c"/><path d="m293.39 298.841a3 3 0 0 0 -5.082-2.105 3.487 3.487 0 0 0 .4 5.512l-.61-.471c2 2.132 5.358.308 5.234-2.425l-.11.823c.072-.445.103-.89.168-1.334z" fill="#4f424c"/><path d="m244.61 430.392c.948-105.488 3.543-183.147.827-259.215q-3.437-.127-6.922-.292c.679 57.541 1.359 158.492-5.333 197.328-4.273 7.328-11.676 13.917-20.394 9.578-8.647-4.3-12.042-15.413-14.276-24.029-5.681-21.328-6.372-43.482-6.328-65.429 4.17-98.029 44.183-113.7 30.864 39.452-.181 3.013.342 7.843-.991 10.562-16.847 17.086-13.6-69.327-12.6-79.138.292-3.276-4.477-3.175-5.062 0-3.124 16.924-6.031 58.121 4.518 82.984 2.522 5.946 10.85 6.84 15.974 2.949 5.824-4.423 4.649-13.792 5.053-20.3 1.56-27.437 2.9-55.035.821-82.48-.574-7.255.243-28.415-9.876-35.516-26.945-18.909-35.222 59.711-35.371 73.83-2.22 44.982 3.708 122.241-42.634 149.654l12.525.007c22.707-19.408 31.086-50.592 35.291-79.132 3.254 13.377 8.375 30.808 23.617 34.411 5.96 1.233 11.465-.606 15.95-4.036 0 22.937-4.412 38.162-10.54 48.8z" fill="#4f424c"/><path d="m143.131 347.629c10.451-44.7 16.273-90.213 19.484-135.952.219-2.422-2.769-4.789-5.078-3.869-4.38 1.744-8.769 3.461-13.1 5.32a3.272 3.272 0 0 0 -1.955 3.542c-1.159 20.094.436 40.349-.788 60.526-1.152 23.212-3.429 46.345-5.641 69.475-.389 4.043 6.208 4.899 7.078.958z" fill="#4f424c"/><path d="m117.9 305.918c.166-21.141 5.807-53.63-18.116-63.775 8.208 90.63-10.938 146.257-40.784 177.111a6.534 6.534 0 0 0 4.753 11.023l15.415.01c28.991-33.979 37.373-80.787 38.732-124.369z" fill="#4f424c"/><path d="m455.17 417.638-.428 8.9a5.813 5.813 0 0 1 -5.419 5.53c-11.6.561-15.023-2.432-11.334-13.161 6.893-2.507 13.977-5.365 17.181-1.269z" fill="#f0b5a8"/><path d="m447.075 417.691c2.685-.206 5.4-.08 8.1-.053l.47-9.752c-.044-1.309-.163-2.775-1.15-3.636-2.179-1.335-4.971-1.434-7.388-2.226l-2.334 2.021c-2.429 4.824-5.135 9.722-6.777 14.86 3.004-.529 6.027-.979 9.079-1.214z" fill="#4f424c"/><path d="m418.408 403.427a155.1 155.1 0 0 0 3.223 20.4 5.63 5.63 0 0 1 -5.562 6.843c-3.177-.042-6.449-.136-9.66-.179a9.813 9.813 0 0 1 -9.666-9.649c-.087-5.122-.027-10.181.177-15.243 4.439-4.088 14.694-4.199 21.488-2.172z" fill="#f0b5a8"/><path d="m396.928 405.6a87.2 87.2 0 0 1 21.485-2.175 96.052 96.052 0 0 1 .186-19.139l-19.982-.266c-.842 7.324-1.403 14.455-1.689 21.58z" fill="#4f424c"/><path d="m132.047 153.807c28.492 9.3 61.7 14.119 93.185 16.3-8.123 5.359-20.022 6.3-25.153 15.006-2.871 4.864-3.082 11.588-7.734 14.793-5.52 3.8-13.624.023-19.549 3.157-6.563 2.987-7.328 15-7.773 20.486-2.782 14.109-19.4 12.508-27.912 21.021-7.139 8.966-5.891 18.415-19.7 22.3 0 0-8.934-14.223-9.139-48.427s6.374-66.429 6.374-66.429c6.999.232 13.595.586 17.401 1.793z" fill="#d3d691"/><path d="m404.311 332.964a1060.011 1060.011 0 0 1 3.279-153.108s-13.1 7.759-17.92 28.136c-2.422 10.237-2.031 20.963-4.506 31.187-4.833 19.969-21.961 34.966-27.752 54.738 0 0-9.7 41.733 28.46 56.265 10.733-.816 16.619-6.834 18.439-17.218z" fill="#d3d691"/><path d="m405.8 355.684q-.885-11.534-1.481-22.721c-5.382 11.516-19.123 9.989-28.412 5.942-17.643-11.522-20.275-38.718-8.253-59.263 6.158-10.523 16.313-22.724 21.023-34.071 4.96-11.95-5.318-47.019 18.928-65.714 0 0-12.369 5.357-19.188 24.192-4.554 12.582-1.255 25.967-5.667 38.451-4.637 13.119-14.14 23.4-20.911 35.351-23.788 47.406 11.532 86.607 47.527 90.273-1.012-4.006-2.198-8.143-3.566-12.44z" fill="#a5a363"/><path d="m420.024 350.85c-21.76-4.7-28 8.625-47.772 12.278 0 0 2.43 11.986 23.788 11.986s27.426-16.32 27.426-16.32z" fill="#f0b5a8"/><path d="m458.664 374.012c-.659-2.858-1.874-5.88-4.244-7.608-12.682-9.247-24.707-13.807-34.4-15.552-4.693 29.955-37.293 18.359-47.771 12.276-6.285 1.09-12.089 2.723-17.172 6.6-1.6 2.438-1.437 5.354-.45 8.491l43.273 9.181z" fill="#d88674"/><path d="m458.664 374.012s-18.437-12.446-40.552 1.862c-15.136 9.792-51.7 2.487-58.152.392-2.78-.9-6.5-3.72-4.877-6.533-32.415 24.568 63.86 23.3 94.171 16.285 6.235-1.029 11.057-5.279 9.41-12.006z" fill="#4f424c"/><path d="m467.627 380.727c-19.531-8.752-32.112-4.678-49.14 7.031 5.621 9.083 47.49 12.142 49.14-7.031z" fill="#f0b5a8"/><path d="m479.6 403.105c3.387-1.393 5.164-3.747 5.368-7.04-.528-4.784-7.674-12.33-17.342-15.338-13.063 11.188-35.11 10.077-49.136 7.037-3.435 2.686-9.9 5.892-10.033 10.712 0 0 2.022 6.828 11.3 6.828s39.517.3 39.517.3 20.249-2.655 20.326-2.499z" fill="#d88674"/><path d="m484.879 399.11a6.283 6.283 0 0 0 .08-3.044c-1.966 7.182-20.25 3.215-25.854 2.4-8.447-1.487-16.675-2.149-25.2-.877-5.879.876-19.741 5.771-25.428.885.1 5.413 5.463 9.04 10.609 9.91 4.738.811 9.582-.051 14.388-.156 15.097-.573 43.935 9.072 51.405-9.118z" fill="#4f424c"/><g fill="#a5a363"><path d="m373.629 283.944a11.5 11.5 0 0 0 -.653 5.412c.441 1.862 2.9 1.944 3.855.5a12.1 12.1 0 0 0 1.186-4.727 2.371 2.371 0 0 0 -4.388-1.189z"/><path d="m388.754 285.123a33.251 33.251 0 0 0 -1.079 7.481c.031 1.775 2.815 2.849 3.626.982a32.639 32.639 0 0 0 1.928-7.229 2.321 2.321 0 0 0 -4.475-1.234z"/><path d="m380.316 288.714a15.908 15.908 0 0 0 -1.095 7.968c.357 2.082 3.121 1.572 3.729 0 .659-2.222 1.042-4.535 1.637-6.79a2.217 2.217 0 0 0 -4.271-1.178z"/><path d="m392.623 255.473c-.531 3.048-.854 6.151-1.3 9.208-.131 1.833 2.779 2.683 3.559.964a20.671 20.671 0 0 0 1.773-9.627c-.189-2.155-3.494-2.959-4.028-.545z"/><path d="m386.09 320.343a27.877 27.877 0 0 0 -1.082 5.194c-.051 1.729 2.71 2.669 3.451.935a27.525 27.525 0 0 0 1.247-5.133c.493-2.347-3.069-3.359-3.616-1z"/><path d="m394.245 316.647a14.22 14.22 0 0 0 -1.533 6.391 1.861 1.861 0 0 0 3.637.492 46.924 46.924 0 0 1 1.345-5.429c.586-2-2.536-3.432-3.449-1.454z"/><path d="m132.069 166.351a17.233 17.233 0 0 0 -2.566 13.267c.5 1.873 3.554 2.034 3.955 0a68.615 68.615 0 0 1 2.21-11.75 1.979 1.979 0 0 0 -3.6-1.517z"/><path d="m138.27 173.72c-1.605 1.587-1.664 5.623-.6 7.5a2.37 2.37 0 0 0 4.027 0c1.59-2.349.809-10.337-3.424-7.5z"/><path d="m149.533 184.253.031-.02-1.6.209a2.4 2.4 0 0 0 2.888-1.315 2.073 2.073 0 0 0 .262-1.407 1.1 1.1 0 0 0 -.151-.557 2.118 2.118 0 0 0 -2.31-1.317 2.5 2.5 0 0 0 -2.131 3.154l.208-1.595a1.926 1.926 0 0 0 -.264 1.346 1.02 1.02 0 0 0 .141.52 1.977 1.977 0 0 0 2.159 1.231 1.54 1.54 0 0 0 .767-.244z"/><path d="m125.939 204.751c-1.327 5.479-2.511 11.917-1.983 17.553.232 2.47 4.239 3.521 4.719.639.956-5.746 1.044-11.8 1.546-17.613.213-2.461-3.71-2.941-4.282-.579z"/><path d="m134.53 214.782c-2.737 1.83-2.206 7.581-1.992 10.543.423 2.4 3.588 1.808 4.295 0 .84-2.525 2.9-12.255-2.3-10.543z"/><path d="m173.879 174.155a31.628 31.628 0 0 0 -1.855 10.788c.028 2.471 3.283 2.678 4.1.555a31.736 31.736 0 0 0 1.971-10.773c.019-2.527-3.416-2.77-4.213-.57z"/><path d="m163.422 223.022c-2.527 4.848-7.518 10.242-17.157 9.76-7.616-.381-16.537 4.839-19.512 11.86a18.507 18.507 0 0 1 -2.954 4.9 3.517 3.517 0 0 1 -6.159-2.368l.91-78.014c.262-14.735 6.881-16.12 13.5-15.36a182.452 182.452 0 0 1 -29.884-12.539c-3.289 3.946-4.486 17.482-4.82 26.6.435 27.877 2.055 67.131 3.441 96.213 28.3 15.25 33.5-14.933 37.185-18.9 8.338-8.575 25.865-6.976 27.052-21.628a.852.852 0 0 0 -1.602-.524z"/></g><path d="m302.935 399.552c-8.251-25.129-10.6-50.487-10.58-76.78 0-3.58-5.059-3.4-5.437 0-3.784 36.738 5.494 74.622 21.307 107.672h7.743a206.644 206.644 0 0 1 -13.033-30.892z" fill="#4f424c"/></svg>