<svg id="flat" height="512" viewBox="0 0 340 340" width="512" xmlns="http://www.w3.org/2000/svg"><path d="m173.93 44.92s14.513-31.727 46.444-23.535c15.457 3.965 24.987 16.409 30.705 28.194a39.389 39.389 0 0 0 31.649 22.279c17.407 1.581 38.939 11.094 44.653 46.875h-130.644z" fill="#4a4a60"/><path d="m12.619 118.733h238.856s-11.2-8.709-16.173-21.564c-3.608-9.322-12.014-20.606-26.166-23.259a26.862 26.862 0 0 1 -21.265-19.625c-4.993-19.292-19.28-44.821-59.971-43.785 0 0-50.176-2.1-58.055 54.1 0 0-25.649-.544-35.77 26.849a56.562 56.562 0 0 1 -9.509 16.916 46.444 46.444 0 0 1 -11.947 10.368z" fill="#707ac1"/><g fill="#adc9f2"><path d="m319.923 249.946a3.5 3.5 0 0 1 -3.075-1.825l-14.2-26.007a3.5 3.5 0 0 1 6.145-3.354l14.2 26.008a3.5 3.5 0 0 1 -3.07 5.178z"/><path d="m292.376 199.478a3.5 3.5 0 0 1 -3.075-1.824l-1.826-3.346a3.5 3.5 0 0 1 6.145-3.354l1.825 3.346a3.5 3.5 0 0 1 -3.069 5.178z"/><path d="m276.066 169.6a3.5 3.5 0 0 1 -3.075-1.824l-12.973-23.767a3.5 3.5 0 1 1 6.144-3.353l12.973 23.766a3.5 3.5 0 0 1 -3.069 5.178z"/><path d="m279.936 293.422a3.5 3.5 0 0 1 -3.076-1.824l-18.486-33.868a3.5 3.5 0 0 1 6.144-3.354l18.487 33.868a3.5 3.5 0 0 1 -3.069 5.178z"/><path d="m239.482 219.311a3.5 3.5 0 0 1 -3.075-1.824l-18.53-33.949a3.5 3.5 0 0 1 6.145-3.353l18.53 33.948a3.5 3.5 0 0 1 -3.07 5.178z"/><path d="m202.575 151.7a3.5 3.5 0 0 1 -3.074-1.825l-3.2-5.865a3.5 3.5 0 1 1 6.144-3.353l3.2 5.865a3.5 3.5 0 0 1 -3.069 5.178z"/><path d="m240.766 329.53a3.5 3.5 0 0 1 -3.076-1.825l-15.235-27.912a3.5 3.5 0 0 1 6.145-3.353l15.235 27.912a3.5 3.5 0 0 1 -3.069 5.178z"/><path d="m197.325 249.946a3.5 3.5 0 0 1 -3.075-1.825l-15.069-27.608a3.5 3.5 0 1 1 6.144-3.354l15.07 27.609a3.5 3.5 0 0 1 -3.07 5.178z"/><path d="m152.3 167.456a3.5 3.5 0 0 1 -3.075-1.824l-11.8-21.627a3.5 3.5 0 0 1 6.145-3.353l11.805 21.627a3.5 3.5 0 0 1 -3.07 5.177z"/><path d="m168.981 305.265a3.5 3.5 0 0 1 -3.076-1.824l-17.762-32.541a3.5 3.5 0 1 1 6.144-3.354l17.763 32.543a3.5 3.5 0 0 1 -3.069 5.178z"/><path d="m121.352 218.007a3.5 3.5 0 0 1 -3.075-1.824l-15.711-28.783a3.5 3.5 0 0 1 6.145-3.354l15.71 28.783a3.5 3.5 0 0 1 -3.069 5.178z"/><path d="m123.347 329.53a3.5 3.5 0 0 1 -3.075-1.825l-14.147-25.917a3.5 3.5 0 0 1 6.145-3.353l14.146 25.917a3.5 3.5 0 0 1 -3.069 5.178z"/><path d="m80.5 251.033a3.5 3.5 0 0 1 -3.076-1.825l-15.662-28.695a3.5 3.5 0 0 1 6.144-3.354l15.664 28.7a3.5 3.5 0 0 1 -3.069 5.178z"/><path d="m52.255 199.287a3.5 3.5 0 0 1 -3.075-1.824l-1.828-3.349a3.5 3.5 0 0 1 6.148-3.354l1.828 3.35a3.5 3.5 0 0 1 -3.07 5.177z"/><path d="m36.754 170.889a3.5 3.5 0 0 1 -3.075-1.824l-13.679-25.06a3.5 3.5 0 0 1 6.145-3.353l13.678 25.059a3.5 3.5 0 0 1 -3.07 5.178z"/><path d="m58.25 318.137a3.5 3.5 0 0 1 -3.076-1.824l-19.3-35.365a3.5 3.5 0 0 1 6.144-3.354l19.3 35.365a3.5 3.5 0 0 1 -3.069 5.178z"/><path d="m20.465 248.913a3.5 3.5 0 0 1 -3.075-1.824l-3.846-7.046a3.5 3.5 0 0 1 6.145-3.353l3.845 7.046a3.5 3.5 0 0 1 -3.069 5.177z"/></g></svg>