<svg id="Flat" height="512" viewBox="0 0 340 340" width="512" xmlns="http://www.w3.org/2000/svg"><circle cx="170" cy="170.345" fill="#ff7a4e" r="73.134"/><path d="m246.684 149.034c-10.975-.961-33.249-2.618-49.985-1.936a15.484 15.484 0 0 0 -11.925 6.5 17.879 17.879 0 0 1 -29.548 0 15.484 15.484 0 0 0 -11.925-6.5c-16.736-.682-39.01.975-49.985 1.936a7.334 7.334 0 0 0 -6.692 7.311 7.34 7.34 0 0 0 7.34 7.34h1.376c2.653 29.938 31.833 28.043 31.833 28.043a42.8 42.8 0 0 0 33.677-15.769 11.774 11.774 0 0 1 18.3 0 42.8 42.8 0 0 0 33.677 15.769s29.18 1.895 31.833-28.043h1.376a7.34 7.34 0 0 0 7.34-7.34 7.334 7.334 0 0 0 -6.692-7.311z" fill="#313847"/><g fill="#ffbb83"><path d="m65.086 203.942a4 4 0 0 1 -3.847-2.914q-.235-.834-.458-1.674a4 4 0 0 1 7.736-2.043c.136.517.276 1.03.421 1.543a4 4 0 0 1 -3.852 5.088z"/><path d="m156.316 282.472a4.063 4.063 0 0 1 -.5-.031 112.782 112.782 0 0 1 -80.355-50.217 4 4 0 0 1 6.69-4.387 104.794 104.794 0 0 0 74.66 46.666 4 4 0 0 1 -.493 7.969z"/><path d="m189.661 281.555a4 4 0 0 1 -.713-7.936 105.137 105.137 0 0 0 70.427-48.176 4 4 0 1 1 6.806 4.2 113.151 113.151 0 0 1 -75.8 51.842 4.035 4.035 0 0 1 -.72.07z"/><path d="m276.881 195.753a4 4 0 0 1 -3.927-4.782 105.081 105.081 0 0 0 -98.022-125.491 4 4 0 0 1 .369-7.992 113.083 113.083 0 0 1 105.499 135.046 4 4 0 0 1 -3.919 3.219z"/><path d="m61.071 171.1h-.119a4 4 0 0 1 -3.881-4.115 113.084 113.084 0 0 1 94.391-108.1 4 4 0 1 1 1.3 7.893 105.07 105.07 0 0 0 -87.7 100.441 4 4 0 0 1 -3.991 3.881z"/><path d="m44.333 266.738a4 4 0 0 1 -3.225-1.628 160.022 160.022 0 0 1 0-189.532 4 4 0 0 1 6.442 4.744 152.02 152.02 0 0 0 0 180.044 4 4 0 0 1 -3.217 6.372z"/><path d="m143.154 328.013a4.05 4.05 0 0 1 -.689-.059 159.307 159.307 0 0 1 -80.519-39.647 4 4 0 0 1 5.406-5.9 151.319 151.319 0 0 0 76.481 37.662 4 4 0 0 1 -.679 7.942z"/><path d="m184.758 329.625a4 4 0 0 1 -.366-7.983q1.286-.12 2.562-.263a4 4 0 0 1 .887 7.952q-1.35.15-2.707.276c-.126.012-.251.018-.376.018z"/><path d="m226.378 319.815a4 4 0 0 1 -1.447-7.731 153.062 153.062 0 0 0 56.088-37.962 4 4 0 1 1 5.843 5.464 161.08 161.08 0 0 1 -59.039 39.957 3.973 3.973 0 0 1 -1.445.272z"/><path d="m317.1 226.315a4 4 0 0 1 -3.771-5.333 152.389 152.389 0 0 0 -11.359-126.049 4 4 0 0 1 6.943-3.975 160.388 160.388 0 0 1 11.961 132.688 4 4 0 0 1 -3.774 2.669z"/><path d="m288.021 72.371a3.992 3.992 0 0 1 -3.027-1.383q-1.125-1.3-2.28-2.578a4 4 0 0 1 5.932-5.368q1.215 1.343 2.4 2.711a4 4 0 0 1 -3.024 6.618z"/><path d="m253.375 42.51a3.98 3.98 0 0 1 -2.137-.622 152.158 152.158 0 0 0 -152.495-5.806 4 4 0 0 1 -3.757-7.063 160.162 160.162 0 0 1 160.535 6.111 4 4 0 0 1 -2.146 7.38z"/></g><circle cx="109.983" cy="160.76" fill="#fff" r="6.084"/><circle cx="200.384" cy="160.76" fill="#fff" r="6.084"/></svg>