<svg id="Flat" height="512" viewBox="0 0 340 340" width="512" xmlns="http://www.w3.org/2000/svg"><path d="m161.989 6.288a36.834 36.834 0 1 0 36.833 36.834 36.834 36.834 0 0 0 -36.833-36.834zm0 58.357a21.523 21.523 0 1 1 21.522-21.523 21.523 21.523 0 0 1 -21.522 21.523z" fill="#d2e8ff"/><path d="m186.988 16.079a59.927 59.927 0 0 1 -6.932 15.372 21.511 21.511 0 0 1 -35.741 23.937 86.8 86.8 0 0 1 -16.321 1.931 36.835 36.835 0 1 0 58.994-41.24z" fill="#96aef4"/><path d="m296.727 225.038-14.427 1.991v-38.693l14.427 1.99a8.473 8.473 0 0 1 7.314 8.394v17.925a8.472 8.472 0 0 1 -7.314 8.393z" fill="#ffb664"/><path d="m174.875 88.04h-25.775l1.75-28.085a7.5 7.5 0 0 1 7.483-7.03h7.307a7.5 7.5 0 0 1 7.483 7.03z" fill="#e87b40"/><path d="m278.033 204.182c0 69.6-53.987 118.732-123.591 118.732-55.232 0-111.646-74.18-111.646-74.18a126.357 126.357 0 0 1 10.777-105.352l59.639-51.944a126.165 126.165 0 0 1 139.398 28.662s25.423 50.052 25.423 84.082z" fill="#ffb664"/><path d="m53.581 143.386a42.275 42.275 0 0 0 60.572-52.329 126.49 126.49 0 0 0 -60.572 52.329z" fill="#fff"/><path d="m42.8 248.732a126.042 126.042 0 1 0 209.805-128.632c-32.105 51.239-94.899 116.487-209.805 128.632z" fill="#e87b40"/><circle cx="161.989" cy="207.682" fill="#333353" r="107.35"/><path d="m269.338 207.682q0-5.361-.52-10.592a98.631 98.631 0 1 0 -145.147 110.893 107.4 107.4 0 0 0 145.667-100.3z" fill="#5b5b81"/><path d="m164.61 190.131-22.082-14.878c-6.74-1.3-14.324 5.25-12.969 12.968l14.879 22.079a55.174 55.174 0 0 0 14.929 14.929l56.533 38.093a1.246 1.246 0 0 0 1.73-1.73l-38.089-56.531a55.191 55.191 0 0 0 -14.931-14.93z" fill="#fff"/><path d="m142.528 175.253-34.562-23.287a1.22 1.22 0 0 0 -1.693 1.693l23.286 34.562c1.805-7.286 6.041-11.714 12.969-12.968z" fill="#e54c5b"/><g fill="#fff"><path d="m161.989 117.7a3.5 3.5 0 0 0 -3.5 3.5v13.239a3.5 3.5 0 0 0 7 0v-13.239a3.5 3.5 0 0 0 -3.5-3.5z"/><path d="m197.087 124.594a3.5 3.5 0 0 0 -4.588 1.858l-1.664 3.929a3.5 3.5 0 1 0 6.445 2.731l1.665-3.93a3.5 3.5 0 0 0 -1.858-4.588z"/><path d="m131.285 280.4a3.5 3.5 0 0 0 -4.588 1.858l-1.665 3.929a3.5 3.5 0 1 0 6.446 2.731l1.664-3.93a3.5 3.5 0 0 0 -1.857-4.588z"/><path d="m243.218 238.193-3.929-1.664a3.5 3.5 0 1 0 -2.729 6.445l3.929 1.664a3.5 3.5 0 1 0 2.729-6.445z"/><path d="m80.759 177.172 3.929 1.664a3.5 3.5 0 0 0 2.729-6.446l-3.929-1.664a3.5 3.5 0 0 0 -2.729 6.446z"/><path d="m238.361 180.165a3.493 3.493 0 0 0 1.312-.257l3.955-1.6a3.5 3.5 0 1 0 -2.628-6.49l-3.955 1.6a3.5 3.5 0 0 0 1.315 6.745z"/><path d="m84.3 235.457-3.955 1.6a3.5 3.5 0 1 0 2.627 6.489l3.955-1.6a3.5 3.5 0 1 0 -2.627-6.488z"/><path d="m196.251 282.739a3.5 3.5 0 1 0 -6.488 2.629l1.6 3.955a3.5 3.5 0 1 0 6.488-2.629z"/><path d="m132.612 126.042a3.5 3.5 0 1 0 -6.488 2.629l1.6 3.955a3.5 3.5 0 0 0 6.49-2.626z"/><path d="m161.989 277.428a3.5 3.5 0 0 0 -3.5 3.5v13.24a3.5 3.5 0 0 0 7 0v-13.24a3.5 3.5 0 0 0 -3.5-3.5z"/><path d="m248.473 204.182h-13.239a3.5 3.5 0 0 0 0 7h13.239a3.5 3.5 0 0 0 0-7z"/><path d="m88.743 204.182h-13.243a3.5 3.5 0 1 0 0 7h13.243a3.5 3.5 0 0 0 0-7z"/><path d="m220.668 144.053-9.362 9.362a3.5 3.5 0 0 0 4.95 4.949l9.361-9.364a3.5 3.5 0 1 0 -4.949-4.95z"/><path d="m107.721 257-9.361 9.361a3.5 3.5 0 1 0 4.949 4.949l9.362-9.361a3.5 3.5 0 0 0 -4.95-4.949z"/></g><circle cx="161.989" cy="207.682" fill="#333353" r="5.399"/></svg>