<svg id="Flat" height="512" viewBox="0 0 340 340" width="512" xmlns="http://www.w3.org/2000/svg"><path d="m250.59 249.723s-13.223 61.422 41.009 81.653c0 0-40.942 10.518-57.668-27.436 0 0-5.756-14.6-6.216-28.154a17.736 17.736 0 0 0 -16.122-16.986l-.437-.037s23.778-10.002 39.434-9.04z" fill="#8294b9"/><path d="m314.623 279.48q5.5 7.111 11.474 14.211s-42.035 15.4-79.279-28.076l15.64-17.111z" fill="#dae5f7"/><g fill="#8294b9"><path d="m314.624 279.479a272.882 272.882 0 0 1 -21.837-32.318l-30.329 1.339c12.234 27.223 39.776 30.81 52.166 30.979z"/><path d="m284.368 261.515-21.91-13.015-27.27 1.208a133.807 133.807 0 0 0 11.633 15.9z"/><path d="m252.76 152.976s6.984 42.283 25.132 79.414l-35.543-9.59a142.379 142.379 0 0 0 -13.349-12.662 12.59 12.59 0 0 1 -1.805-17.595c3.617-4.5 6.6-10.019 5.486-15.172-2.428-11.186-27.808-20.792-27.808-20.792z"/></g><path d="m292.787 247.161s-14.477-31.309-38.581-38.5c-14.94-4.46-21.792 4.079-24.842 11.216a12.8 12.8 0 0 1 -15.282 7.4l-.272-.082a16.151 16.151 0 0 0 -14.292 2.7 36.123 36.123 0 0 1 -3.022 2.018l-10.914 15.579 9.625 13.749c22.493-3.528 63.432-9.783 97.58-14.08z" fill="#dae5f7"/><path d="m252.643 158.861-46.178 3.309a18.93 18.93 0 0 1 -20.239-18.312c-.587-17.32-5.52-43.245-26.131-66.49-10.238-11.547-18.6-20.491-25.365-27.727 10.142-10.311 22.6-9.223 37.494 3.836l38.342 62.842c9.027 9.381 20.271 15.144 35.334 14.681l6.029.119a13.889 13.889 0 0 1 13.616 13.829 13.891 13.891 0 0 1 -12.902 13.913z" fill="#f4737d"/><circle cx="251.483" cy="231.17" fill="#8294b9" r="8.409"/><path d="m200.433 86.025a200.129 200.129 0 0 0 -22.311-36.325c-6.523-8.435-14.715-18.493-24.047-28.8-8.692-9.606-16.961-13.063-23.967-13.57-12.564-.91-20.129 13.652-12.284 23.506 3.983 5 9.493 10.883 16.906 18.808 11.47-4.276 35.762-6.615 48.713 27.693 9.2 24.379 21.191 39.974 29.1 48.4a21.921 21.921 0 0 0 18.191 6.8l15.166-1.537a31.212 31.212 0 0 1 -20.788-8.271c-10.735-10.071-19.347-25.524-24.679-36.704z" fill="#bf454f"/><path d="m178.322 263.928s6.468-1.051 16.885-2.686c-2.412-12.978-.8-22.861 1.286-29.333a31.368 31.368 0 0 1 -21.934 4.07z" fill="#8294b9"/><path d="m180.448 238.059 3.707 27.693a8.083 8.083 0 0 1 -8.724 9.123 13.786 13.786 0 0 1 -8.717-4.172c-4.017-4.171-10.352-11.1-13.992-16.87-49.578-9.747-84.543-43.8-65.367-54.36 13.037 10.893 34.579 21 68.928 18.729a22.911 22.911 0 0 1 24.165 19.857z" fill="#f4737d"/><path d="m89.245 216.449c-4.272-7.363-4.173-12.869-1.886-16.98a69.075 69.075 0 0 1 -11.369-12.053 37.968 37.968 0 0 0 -28.056-15.375 112.7 112.7 0 0 0 -19.951.474 15.9 15.9 0 0 0 -14.08 15.9l.006 1.4a15.941 15.941 0 0 0 16.651 15.859l.251-.011a49.849 49.849 0 0 1 40.64 17.961c29.865 36.088 81.271 30.209 81.271 30.209l-3.928-5.949a13 13 0 0 0 -9.47-5.779c-11.969-1.266-38.814-6.242-50.079-25.656z" fill="#bf454f"/></svg>