<svg id="Flat" height="512" viewBox="0 0 340 340" width="512" xmlns="http://www.w3.org/2000/svg"><path d="m123.983 168.3s-72.2 8.711-107.455 45.631a23.618 23.618 0 0 0 -6.528 16.313v15s122.88-79.719 152.506.52l74.673-29.5s-3.7-16.377-20.952-36.251c0 0 15.294 1.223 20.45-19.387a17.2 17.2 0 0 0 .5-4.172v-5.473a17.429 17.429 0 0 1 4.079-11.2l15.1-17.987a22.074 22.074 0 0 0 4.884-10.389c.018-.106.036-.214.054-.322 2.135-13.2-7.323-24.735-20.658-25.682-15.792-1.121-46.434 5.563-86.6 56.681z" fill="#f9beac"/><path d="m154.041 142.081-27.277 23.8-3.144 8.829s29.113 7.422 44.491-9.481a29.981 29.981 0 0 0 7.467-21.468 23.515 23.515 0 0 0 -2.425-9.981s11.93-10.363 7.537-20.828a239.486 239.486 0 0 0 -26.649 29.129z" fill="#e5897a"/><path d="m84.143 153.056s30.672 37.873 64.083 18.905a28.124 28.124 0 0 0 11.364-11.72c4.5-8.982 6.5-24.545-14.833-43.671l-23.833-12.358-41.783 33.544s.322 10.293 5.002 15.3z" fill="#f9beac"/><ellipse cx="29.586" cy="164.699" fill="#95bcf4" rx="11.535" ry="9.341" transform="matrix(.707 -.707 .707 .707 -107.794 69.16)"/><ellipse cx="280.768" cy="177.279" fill="#95bcf4" rx="11.535" ry="9.341" transform="matrix(.866 -.5 .5 .866 -51.024 164.135)"/><path d="m160.036 221.752a4 4 0 0 1 -1.113-7.842 27.62 27.62 0 0 0 12.647-7.393 6.816 6.816 0 0 0 -.118-9.366l-9.743-10.251a4 4 0 1 1 5.8-5.51l9.743 10.256a14.817 14.817 0 0 1 .138 20.364 35.47 35.47 0 0 1 -16.237 9.587 3.969 3.969 0 0 1 -1.117.155z" fill="#e5897a"/><path d="m189.344 201.585a4 4 0 0 1 -.158-8 15.938 15.938 0 0 0 11.186-6.7 4 4 0 0 1 6.451 4.732 23.968 23.968 0 0 1 -17.347 9.968z" fill="#e5897a"/><path d="m120.82 162.6a4.029 4.029 0 0 1 -4-4 4.047 4.047 0 0 1 .08-.78 3.832 3.832 0 0 1 .23-.75 3.519 3.519 0 0 1 .37-.69 3.251 3.251 0 0 1 .5-.61 4 4 0 0 1 5.65 0 3.694 3.694 0 0 1 .5.61 4.143 4.143 0 0 1 .37.69 4.659 4.659 0 0 1 .23.75 4.042 4.042 0 0 1 .07.78 4.012 4.012 0 0 1 -4 4z" fill="#313847"/><path d="m132.88 148.769a4.129 4.129 0 0 1 -.78-.08 4.033 4.033 0 0 1 -1.44-.6 3.914 3.914 0 0 1 -1.78-3.32 4.029 4.029 0 0 1 1.17-2.83 4.161 4.161 0 0 1 .61-.5 4.579 4.579 0 0 1 .69-.37 3.809 3.809 0 0 1 .75-.22 3.992 3.992 0 0 1 4.78 3.92 4.129 4.129 0 0 1 -.08.78 4.053 4.053 0 0 1 -.23.75 4.524 4.524 0 0 1 -.36.69 4.919 4.919 0 0 1 -.5.61 4.065 4.065 0 0 1 -2.83 1.17z" fill="#313847"/><path d="m310.68 94.159a4.065 4.065 0 0 1 -2.83-1.17 4.919 4.919 0 0 1 -.5-.61 4.524 4.524 0 0 1 -.36-.69 4.053 4.053 0 0 1 -.23-.75 4.129 4.129 0 0 1 -.08-.78 4.047 4.047 0 0 1 .08-.78 3.832 3.832 0 0 1 .23-.75 4.1 4.1 0 0 1 .36-.69 4.279 4.279 0 0 1 .5-.61 4 4 0 0 1 6.83 2.83 4.129 4.129 0 0 1 -.08.78 4.053 4.053 0 0 1 -.23.75 4.524 4.524 0 0 1 -.36.69 4.919 4.919 0 0 1 -.5.61 4.093 4.093 0 0 1 -.61.49 4.033 4.033 0 0 1 -1.44.6 4.129 4.129 0 0 1 -.78.08z" fill="#95bcf4"/><path d="m216.227 180.015s-14.406-1.984-12.847-21.416c0 0 .528-23.29 20.669-42.5a1.482 1.482 0 0 0 -1.814-2.33c-8.577 5.549-19.97 16.637-25.994 38.07a34.45 34.45 0 0 0 -.739 16.273c1.828 8.836 7.855 19.565 26.428 18.968-1.714-2.288-3.607-4.65-5.703-7.065z" fill="#e5897a"/><path d="m86.936 198.545a4.057 4.057 0 0 1 -.78-.08 3.875 3.875 0 0 1 -.75-.23 3.8 3.8 0 0 1 -.69-.37 3.175 3.175 0 0 1 -.609-.5 3.993 3.993 0 0 1 0-5.65 3.646 3.646 0 0 1 .609-.5 4.722 4.722 0 0 1 .69-.37 4.827 4.827 0 0 1 .75-.23 4 4 0 0 1 4.78 3.93 3.995 3.995 0 0 1 -.309 1.531 3.968 3.968 0 0 1 -.371.69 3.6 3.6 0 0 1 -.49.6 3.52 3.52 0 0 1 -.61.5 3.766 3.766 0 0 1 -.69.37 3.832 3.832 0 0 1 -.75.23 4.049 4.049 0 0 1 -.78.079z" fill="#95bcf4"/><path d="m155.476 128.373a70.406 70.406 0 0 0 -10.719-11.8l-23.833-12.358-41.783 33.541s.322 10.293 5 15.3a71.76 71.76 0 0 0 6.55 6.781c1.941-1.638 4.042-4.593 3.413-9.529 0 0 19.5 6.641 18.538-13.522.002 0 22.029 5.147 42.834-8.413z" fill="#e5897a"/><path d="m88.775 144.432s8.555 14.075.695 18.491a8.062 8.062 0 0 1 -5.675.709c-7.991-1.746-34.212-10.287-24.252-46.025 0 0-9.266-46.945 38.643-63.859a6.792 6.792 0 0 1 9.082 6.343 26.975 26.975 0 0 1 -.61 6.618s14.027-10.727 36.426-13.24a6.789 6.789 0 0 1 7.489 7.8c-.461 2.889-1.183 5.825-2.3 7.506 0 0 4.346 0 12.894 3.909a8.38 8.38 0 0 1 1.935 14.05 21.07 21.07 0 0 1 -6.575 3.707 26.04 26.04 0 0 1 7.99 4.021 8.359 8.359 0 0 1 2.142 11.282c-6.77 10.678-24.822 30.167-63.094 20.907-.003-.002 14.441 29.129-14.79 17.781z" fill="#313847"/><path d="m327.339 248.312a116.086 116.086 0 0 0 -16.637-4.177 16.6 16.6 0 0 1 -11.668-9.093c-3.232-6.506-12.534-14.222-39.161-9.106a26.943 26.943 0 0 1 .064-4.877 16.455 16.455 0 0 0 -18.96-17.969c-39.89 6.643-84.872 32.735-91.417 36.624-.572.34-1.153.664-1.753.953-12.169 5.866-20.57 3.47-25.43.5a24.084 24.084 0 0 0 -16.562-3.068c-5.862.991-11.556 2.32-16.293 3.563a12.521 12.521 0 0 1 -15.653-10.762c-.014-.137-.028-.274-.041-.411a12.381 12.381 0 0 0 -14.751-11.18c-29.225 5.322-49.077 25.938-49.077 25.938v41.4h320v-37.517a21.9 21.9 0 0 1 -2.661-.818z" fill="#95bcf4"/><path d="m330 266.664a77.115 77.115 0 0 0 -32.937 2.238c-34.943 9.707-50.862-1.553-50.862-1.553-23.295-15.142-55.52-1.747-55.52-1.747-34.166 13.4-52.414 4.077-52.414 4.077-24.072-12.424-43.1-4.077-43.1-4.077-18.2 4.9-30.213 2.744-37.59-.5a41.6 41.6 0 0 0 -29.617-1.428c-7.117 2.317-13.4 4.644-17.963 6.416v16.558h320.003z" fill="#6997e0"/></svg>