<svg id="flat" height="512" viewBox="0 0 340 340" width="512" xmlns="http://www.w3.org/2000/svg"><path d="m185.593 24.351a40 40 0 0 0 -3.811 12.7 1.08 1.08 0 0 0 1.99.684c1.717-2.779 4.314-6.425 6.993-8.129z" fill="#d9e6f7"/><path d="m185.915 66.909a40 40 0 0 1 4.408-12.5 1.08 1.08 0 0 1 2.01.621c-.251 3.257-.3 7.733.856 10.689z" fill="#d9e6f7"/><path d="m197.276 65.691a34.173 34.173 0 0 1 2.934-10.939.923.923 0 0 1 1.753.4c0 2.791.25 6.607 1.431 9.048z" fill="#d9e6f7"/><path d="m208.021 64.405a34.173 34.173 0 0 1 2.934-10.939.923.923 0 0 1 1.753.4c0 2.791.249 6.607 1.43 9.048z" fill="#a0b1f7"/><path d="m220.229 60.389a34.209 34.209 0 0 1 2.934-10.939.923.923 0 0 1 1.753.4c0 2.791.25 6.607 1.431 9.049z" fill="#a0b1f7"/><path d="m193.713 31.012a34.109 34.109 0 0 0 -1.349 11.224.921.921 0 0 0 1.771.285c1.038-2.586 2.688-6.028 4.69-7.851z" fill="#d9e6f7"/><path d="m203.581 34.118a34.115 34.115 0 0 0 -.007 11.305.921.921 0 0 0 1.793.072c.723-2.691 1.953-6.3 3.724-8.352z" fill="#d9e6f7"/><path d="m215.755 35.148a34.1 34.1 0 0 0 1.378 11.22.921.921 0 0 0 1.788-.148c.388-2.759 1.166-6.5 2.673-8.745z" fill="#a0b1f7"/><path d="m228.856 35.309a34.108 34.108 0 0 0 2.014 11.124.921.921 0 0 0 1.777-.25c.231-2.776.8-6.552 2.171-8.883z" fill="#a0b1f7"/><path d="m105.277 186.089s19.366-20.431 16.173-46.875a4.053 4.053 0 0 1 1.607-3.551c3.336-2.692 10.651-10.22 14.786-26.829a21.928 21.928 0 0 1 4.7-9.057c.227-.262.464-.531.713-.8a45.878 45.878 0 0 1 56.1-9.179c.13.073 6.112 4.163 12.946 4.748a29.108 29.108 0 0 1 9.63 2.341 37.935 37.935 0 0 1 9.028 5.722 52.508 52.508 0 0 0 21.8 13.181z" fill="#f26f7c"/><path d="m158.375 105.927a5.478 5.478 0 0 0 1.98 1.614c1.318.653 3.279-.794 2.912-2.142a6.685 6.685 0 0 0 -1.165-2.429 5.2 5.2 0 0 0 -1.924-1.433c-1.3-.59-3.172.81-2.865 2.125a6.031 6.031 0 0 0 1.062 2.265z" fill="#b43a49"/><path d="m252.766 116.965c-8.341-3.083-19.792-5.408-32.8-5.689a70.973 70.973 0 0 0 -1.267-8.306 1.316 1.316 0 0 0 -2.592.1c-.313 2.4-.705 5.247-1.152 8.2-3.128.06-6.327.237-9.584.556a80.394 80.394 0 0 0 -4.548-12.257 1.534 1.534 0 0 0 -2.92.785c.336 3.523.712 7.862 1.011 12.284q-4.365.666-8.812 1.685a133.214 133.214 0 0 0 -9.902-20.563 2.151 2.151 0 0 0 -3.889 1.794c2.166 6.184 4.517 13.439 6.46 20.712q-4.443 1.334-8.893 3.076a82.449 82.449 0 0 0 -6.482-8.522 1.534 1.534 0 0 0 -2.59 1.56c1.062 2.7 2.3 5.93 3.547 9.3q-3.684 1.683-7.086 3.558a107.141 107.141 0 0 0 -13.515-14.238 2.169 2.169 0 0 0 -3.212 2.869c3.069 4.392 6.556 9.675 9.948 15.424a106.973 106.973 0 0 0 -9.1 6.6 48.758 48.758 0 0 0 -4.994-3.951 1.51 1.51 0 0 0 -2.11 2.078c1.1 1.681 2.2 3.447 3.238 5.154-2.6 2.313-5.01 4.68-7.243 7.067-1.767-1.869-3.592-3.662-5.438-5.318a2.09 2.09 0 0 0 -3.194 2.616c1.335 2.267 2.885 4.8 4.5 7.376-16.147 19.278-21.3 38.269-21.3 38.269z" fill="#b43a49"/><path d="m269.249 193.8a137.974 137.974 0 0 1 17.155 3.21 14.927 14.927 0 0 0 10.294-1.063 19.208 19.208 0 0 1 13.53-1.083 1.66 1.66 0 0 1 1.2 1.853c-.543 3.392-2.762 11.971-11.52 15.68l-7.491 5.318-37.377-4.609-2.274-9.267z" fill="#753662"/><path d="m191.428 229.862s5.583 14.586-2.874 29.111a16.489 16.489 0 0 0 -2.078 9.765l.221 2.477a10.479 10.479 0 0 0 5.166 8.134c7.384 4.291 21.589 15.193 27.7 37.9a6.551 6.551 0 0 0 7.824 4.712c5.132-1.237 12.722-2.116 20.219.5a4.812 4.812 0 0 0 6.153-5.9c-1.35-4.723-4.5-9.79-11.664-11.573a24.758 24.758 0 0 1 -13-8.378c-3.964-4.8-8.718-11.287-11.691-17.889a21.86 21.86 0 0 1 -1.895-8.984 22.082 22.082 0 0 1 3.891-12.537c5.029-7.3 13.054-21.848 12.2-39.48z" fill="#753662"/><path d="m280.686 88.1s3.608 16.8-7.447 25.342a18.427 18.427 0 0 1 -14.729 3.28c-18.395-3.5-88.917-11.522-141.737 56.993 0 0-7.979 12.079-21.442 19.025-27.6 14.242-59.283-10.08-53.845-40.658.032-.18.065-.36.1-.542a62.108 62.108 0 0 1 24.182-38.73 58.723 58.723 0 0 1 17.283-8.8 1.29 1.29 0 0 0 -.31-2.521c-12.052-.617-36.349 1.211-54.689 22.457a67.458 67.458 0 0 0 -15.8 52.246c1.829 14.781 8.481 32.368 27.719 43.812 11.914 8.673 29.458 14.285 51.6 17.4l141.728-28.345 63.701-61.591s5.247-26.343-16.314-59.368z" fill="#aa6162"/><path d="m225.588 210.6 8.539-2.339 7.888-7.627c-1.356-4.54-3.9-10.829-8.058-13.374 0 0-4.921-7.388-11.445-12.06a1.612 1.612 0 0 0 -2.361 2.058c3.565 6.814 8.722 19.788 5.437 33.342z" fill="#753662"/><path d="m188.773 174.759c-9.461 7.472-9.461 21.028-9.461 21.028l-5.007 25.072 13.66-2.733c.712-4.231 1.2-9.865-.017-20.119-1.258-10.613.8-17.607 2.815-21.675a1.3 1.3 0 0 0 -1.99-1.573z" fill="#753662"/><path d="m240.347 40.537s7.346 7.664-1.779 16.011v3.783h23.072l5.324-15.211s-10.135-6.631-26.617-4.583z" fill="#753662"/><path d="m302.871 32a28.07 28.07 0 0 0 -15.016-5.536c-7.12-.473-12.166-2.432-16.09-5.194-12.621-8.952-26.573-4.071-32.932-1.395a25.774 25.774 0 0 1 -10 1.983h-19.124a45.787 45.787 0 0 1 -17.38-3.143 5.608 5.608 0 0 0 -6.688 1.97 5.676 5.676 0 0 0 .867 7.5 46.679 46.679 0 0 0 15.318 9.091 23.752 23.752 0 0 0 8.466 1.429c9.112-.153 23.1 1.169 23.1 1.169 10.54.51 18.382 2.954 24.092 5.855a5.9 5.9 0 0 1 -2.79 11.171l-21.065-.453a43.324 43.324 0 0 0 -20.129 3.877 40.673 40.673 0 0 1 -19.083 3.688c-1.654-.082-3.23-.221-4.714-.4a4.508 4.508 0 0 0 -2.913 8.324c11.114 6.652 24.1 4.075 24.1 4.075 1.489-.233 2.923-.513 4.3-.828a98.936 98.936 0 0 1 42.2-.423 50.109 50.109 0 0 0 10.282 1.25l31.7 8.156-8.817 92.345s26.679-29.872 35.605-68.948c4.84-21.156 1.28-43.523-10.678-61.636a55.848 55.848 0 0 0 -12.611-13.927z" fill="#aa6162"/><path d="m279.2 66.8a10.4 10.4 0 0 0 .249-6.094 1.44 1.44 0 0 1 2.305-1.471 12.9 12.9 0 0 1 4.711 10.82 9.319 9.319 0 0 1 -7.265-3.255z" fill="#753662"/><path d="m267.675 76.012s6.411-1.771 11.526-9.211c0 0 6.044 3.952 16.273 3.255 0 0 18.9 12.849 16.722 49.212-1.724 28.822-15.691 55.489-37.759 74.108-22 18.557-57.079 40.966-100.631 43.966a155.229 155.229 0 0 0 -17.124 2.029c-21.168 3.851-78.938 10.741-116.708-19.363 0 0 18.411 11.3 44.351 1.9 21.223-7.688 40.419-29.773 94.987-26.125a122.5 122.5 0 0 0 35.24-2.516 119.536 119.536 0 0 0 35.394-13.953 74.271 74.271 0 0 0 34.293-49.928c3.587-19.106 3.51-43.592-16.564-53.374z" fill="#fce2cb"/><path d="m295.474 70.056-27.8 5.955 31.7 8.157-8.817 92.345s20.081-22.5 31.227-53.978c-2.536-19.159-9.312-41.235-26.31-52.479z" fill="#753662"/><path d="m295.474 70.056c-10.229.7-16.273-3.255-16.273-3.255-5.115 7.439-11.525 9.21-11.526 9.21a29.64 29.64 0 0 1 13.011 12.089c.023.036 32.86 51.979-18.46 101.857a143.655 143.655 0 0 1 -20.066 11.171c-1.316-4.565-3.892-11.228-8.2-13.866-2.969 1.192-5.905 2.23-8.771 3.135a48.338 48.338 0 0 1 1.295 7.727 11.609 11.609 0 0 1 -8.3 12.1 149.76 149.76 0 0 1 -17.185 4 10.751 10.751 0 0 1 -12.472-9.977c-.119-1.872-.305-3.94-.578-6.241q-.117-.981-.2-1.92-4.221-.021-8.441-.3l-4.048 20.268q-3.654-.117-7.372-.469l-37.163 2.131s-7.824-6.461-14.515-11.755c-12.667 5.748-22.064 12.391-31.889 15.95-25.94 9.4-44.351-1.9-44.351-1.9 37.832 30.154 95.731 23.191 116.813 19.344a140.676 140.676 0 0 1 16.307-1.963c43.881-2.8 79.228-25.355 101.343-44.013 22.068-18.619 36.035-45.287 37.759-74.108 2.179-36.366-16.718-49.215-16.718-49.215z" fill="#e2a083"/><path d="m107.106 210.461s22.13 1.918 20.638 32.429c-.342 6.994-3.189 12.677-6.2 17.361a41.451 41.451 0 0 0 -5.692 14.324l-.2 1.023a11.19 11.19 0 0 0 4.348 11.202 56.68 56.68 0 0 1 20.82 29.907 7.583 7.583 0 0 0 8.945 5.24c6.489-1.378 13.788-.191 20.826 1.7a6.166 6.166 0 0 0 6.264-9.993 32.8 32.8 0 0 0 -14.556-9.231 16.921 16.921 0 0 1 -6.954-4.326 33.082 33.082 0 0 1 -6.754-11.039 17.064 17.064 0 0 1 3.632-17.861 108.97 108.97 0 0 0 14.494-19.022 86.645 86.645 0 0 0 12.068-40.116c.253-4.814.469-10.446.523-16.277 0 0-12.187-12.185-35.314-7.42s-36.888 22.099-36.888 22.099z" fill="#aa6162"/><path d="m233.957 187.262s6.353 5.689 4.906 28.536a9.636 9.636 0 0 0 2.2 6.756 10.54 10.54 0 0 0 10.281 3.571 30.111 30.111 0 0 1 22.656 4.062 177.406 177.406 0 0 0 28.483 14.252 1.659 1.659 0 0 0 2.26-1.612 19.321 19.321 0 0 0 -3.3-9.921s5.738 1.566 12.9-2.023a1.656 1.656 0 0 0 .695-2.309 17.356 17.356 0 0 0 -10.606-8.285 30.261 30.261 0 0 0 8.449-6.206 1.648 1.648 0 0 0 -.605-2.64c-3.684-1.472-11.673-3.785-18.559.229a12.074 12.074 0 0 1 -10.014.908 40.8 40.8 0 0 0 -13.5-2.325 11.2 11.2 0 0 1 -9.569-5.238l-.39-.616s7.238-19.881 6.165-38.743c-13.262 3.964-25.709 10.82-32.452 21.604z" fill="#aa6162"/><g fill="#753662"><path d="m252.763 34.008a3.465 3.465 0 0 1 -.827-6.829l2.4-.591a3.464 3.464 0 0 1 1.658 6.727l-2.4.591a3.457 3.457 0 0 1 -.831.102z"/><path d="m257.487 45.733a107.971 107.971 0 0 1 10.294 5.967.815.815 0 0 1 -.69 1.456 59.887 59.887 0 0 0 -10.055-2.273z"/><path d="m149.474 228.556a3.461 3.461 0 0 1 -.542-.043l-2.841-.447a3.464 3.464 0 0 1 1.077-6.844l2.841.447a3.465 3.465 0 0 1 -.535 6.887z"/><path d="m145.627 241.41a3.479 3.479 0 0 1 -.76-.085l-2.415-.541a3.464 3.464 0 0 1 1.514-6.761l2.414.541a3.465 3.465 0 0 1 -.753 6.846z"/><circle cx="140.978" cy="249.688" r="3.439"/><path d="m44.3 174.656a37.742 37.742 0 0 1 -2.817-22.575c.032-.18.065-.36.1-.542a62.108 62.108 0 0 1 24.185-38.729 58.747 58.747 0 0 1 17.283-8.8 1.29 1.29 0 0 0 -.31-2.521c-10.168-.52-29.051.7-45.719 13.851-8.093 33.1 7.281 59.312 7.281 59.312z"/><path d="m218.921 123.224a63.392 63.392 0 0 0 -35.586 14.876l-.275.236a90.017 90.017 0 0 0 -28.56 48.727c-1.3 5.929-2.423 16.122-2.843 20.229a.647.647 0 0 1 -.789.562 3.234 3.234 0 0 0 -3.125.782 3.517 3.517 0 0 0 1.623 5.982 7.574 7.574 0 0 0 9.182-6.62c.409-3.988 1.492-13.868 2.718-19.448a83.052 83.052 0 0 1 26.32-44.967c9.677-8.347 21.106-14.081 32.192-18.024a1.219 1.219 0 0 0 -.525-2.363z"/></g></svg>