<svg id="flat" height="512" viewBox="0 0 340 340" width="512" xmlns="http://www.w3.org/2000/svg"><path d="m139.418 262.015 9.746-3.111 4.147 3.111v29.624a10.977 10.977 0 0 0 3.233 7.751 51.209 51.209 0 0 1 5.927 7.1 12.3 12.3 0 0 0 10.16 5.29h2.142a10.472 10.472 0 0 1 10.472 10.472v1.867h-24.207a10.2 10.2 0 0 1 -8.8-4.977c-2.783-4.717-7.924-11.633-15.751-15.474a4.749 4.749 0 0 1 -1.46-7.437l.1-.111a9.243 9.243 0 0 0 2.482-5.115 225.722 225.722 0 0 0 1.809-28.99z" fill="#e06935"/><path d="m186.7 209.76a69.512 69.512 0 0 0 -25.3 21.7 86.594 86.594 0 0 1 -18 19.14 10.48 10.48 0 0 0 -4.248 8.194 17.14 17.14 0 0 0 .271 3.219h13.893a25.783 25.783 0 0 1 4.076-6.495 19.945 19.945 0 0 1 10.848-6.347c7.394-1.666 26.051-7.211 34.428-22v-8.087z" fill="#e2a083"/><path d="m133.632 169.722-5.68 15.3a51.867 51.867 0 0 0 -2.444 16.7c.387 20.508-6 30.064-15.478 29.736s-7.545-24.512-7.545-24.512l5.224-32.733z" fill="#dbdba1"/><path d="m107.709 174.209-4.754 29.785c1.124-1.046 1.784-1.613 1.784-1.613 4.551-4.09 8.759-7.463 12.479-10.208a54.426 54.426 0 0 0 15.133-17.307 42.228 42.228 0 0 1 4.766-7.006z" fill="#7e896d"/><path d="m113.5 178.12-1.685 18.221q-.479 2.189-.882 4.586a94.085 94.085 0 0 0 -.78 23.405c.64 7.546 2.435 22.709-4.849 26.694-9.939 5.439-12.564-5.893-12.564-5.893l-2.813-47.9s5.942-11.233 23.573-19.113z" fill="#7d96d2"/><path d="m89.924 197.231 1.142 19.455a126.934 126.934 0 0 1 13.673-14.305c2.471-2.221 4.837-4.225 7.084-6.037 2.936-13.412 7.731-20.893 7.731-20.893-17.628 7.876-29.63 21.78-29.63 21.78z" fill="#566181"/><path d="m91.562 194.657 1.438 19.727a112.292 112.292 0 0 0 .922 21.319c2.055 14.615 3.4 24.218 3.174 32.452-.254 9.139-12.77 11.493-16.393 3.1a79.189 79.189 0 0 1 -5.093-17.575c-4.786-26.924 1.248-45.443 1.248-45.443z" fill="#dbdba1"/><path d="m74.292 244.027a22.971 22.971 0 0 0 1.8-3.432c4.313-10.231 11.05-19.41 16.909-26.21.792-15.539 4.455-25.916 4.455-25.916l-20.6 19.768s-4.622 14.191-2.564 35.79z" fill="#7e896d"/><path d="m82.4 208.179s-3.105 9.191-2.987 29.37a194.074 194.074 0 0 0 1.93 25.608c1.1 7.913 2.487 23.515-.953 37.449-1.97 7.979-13.133 8.292-15.683.48a46.214 46.214 0 0 1 -2.22-13.461l-3.447-49.4s8.884-17.885 23.36-30.046z" fill="#566181"/><path d="m68.9 225.09a143.76 143.76 0 0 0 -2.643 40.172c1.465 16.534.113 35.11-5.894 49.782a7.258 7.258 0 0 1 -13.643-.644 43.887 43.887 0 0 1 -1.606-14.569c.793-21.09 1.586-42.231 1.586-42.231z" fill="#7e896d"/><path d="m24.453 312.987s-1.976 15.163 6.689 14.44c4.022-.335 7.526-4.042 10.126-7.918 3.095-4.614 6.789-14.2 7.7-19.679 2.711-16.255 4.109-27.716 1.8-44.412l-17.701 20.982z" fill="#566181"/><path d="m22.415 281.79s-6.11 6.944-8.712 22.721a39.928 39.928 0 0 1 -4.879 13.318c-2.714 4.729 2.809 9.941 7.414 7.023 10.451-6.625 22.048-20.752 24.562-50.888z" fill="#7e896d"/><path d="m144.678 172.269-11.046 1.356s-24.47 5.873-46.6 33.054c-3.756 4.614-7.1 9.011-10.079 13.151-9.713 12.288-19.523 22.607-29.54 28.761l1.07-10.341c9.5-28.452 34.63-74.268 105.309-89.014 2.985 7.718-1.092 15.388-9.114 23.033z" fill="#dbdba1"/><path d="m279.962 69.5s8.6 22.872-3.3 36.082a20.812 20.812 0 0 1 -18.442 6.347c-9.2-1.3-28.5-1.747-48.822 11.662a43.922 43.922 0 0 1 -21.312 7.249 46.836 46.836 0 0 0 -24.569 8.869 48.915 48.915 0 0 0 -14.417 16.875c-2.44 4.616-5.93 11.276-8.461 16.338l154-37.732s16.905-50.169-14.677-65.69z" fill="#dbdba1"/><path d="m279.962 69.5s8.6 22.872-3.3 36.082a20.485 20.485 0 0 1 -15.546 6.559c3.452.736 9.068 2.02 13.857 3.525 0 0 13.166 3.692 23.9-2.182 1.276-15.562-1.147-35.255-18.911-43.984z" fill="#7e896d"/><path d="m271.257 60.986c-4.5 2.23-9.007 2.706-17.041 1.9-2.761-.276-10.329 1.318-14.464 2.261a.981.981 0 0 1 -.961-1.591 82.979 82.979 0 0 1 20.3-17.329s-15.321 1.459-20.915.729a46.775 46.775 0 0 0 -10.72.246.973.973 0 0 1 -.845-1.614 77.122 77.122 0 0 1 16.579-14.2 15.892 15.892 0 0 0 6.261-7.134 13.875 13.875 0 0 1 10.856-8.426c10.944-1.7 33.075 1.863 43.533-3.283a12.83 12.83 0 0 1 -1.824 11.8 25.227 25.227 0 0 1 16.537 9.849 34.466 34.466 0 0 1 -11.2 5.662s20.464 29.439 6.862 78.343c-6.229-25.79-14.762-47.271-42.958-57.213z" fill="#dbdba1"/><path d="m271.257 60.986s3.1-2.678 6.663-5.658a12.424 12.424 0 0 1 16.686.51c7.5 7.368 16.9 19.563 19.612 36.154 4.71 28.854-6.831 53.442-19.627 65.486l-19.148-26.893a25.951 25.951 0 0 0 13.736-14.068l5.893-7.543c.6-6.7-.022-19.431-2.42-25.716-2.694-7.058-6.694-14.672-21.395-22.272z" fill="#ffebde"/><path d="m275.748 175.6s16.421-14.857 31.279-8.08 2.085 29.714 2.085 29.714l-42.747-4.691z" fill="#7e896d"/><path d="m213.02 228.379a46.776 46.776 0 0 1 -16.372 23.781 80.1 80.1 0 0 1 -14.9 8.744 4.9 4.9 0 0 0 1.909 9.367 37.071 37.071 0 0 0 13.183-1.938s-1.594 1.178-3.878 2.9a5.866 5.866 0 0 0 4.23 10.512 62.144 62.144 0 0 0 25.414-8.7l24.662-14.572-21.865-34.9z" fill="#566181"/><path d="m212.074 140.242s-23.931-.6-44.542 13.835c-20.416 14.294-33.9 19.548-33.9 19.548a25.838 25.838 0 0 0 14.352 8.661 24.5 24.5 0 0 0 -7.176 5.939s3.381 1.622 8.908 7.671c0 0 16.03 17.21 39.592 10.888l10.393-.743s10.146-45.732 12.373-65.799z" fill="#ffebde"/><path d="m202.954 190.871c3.065-14.654 7.413-36.464 8.967-49.321l-4.353-.15s-10.793 1.029-11.8 12.355c0 0-12.327 4.592-8.466 18a21.6 21.6 0 0 0 -8.43 4.886c-16.3 13.085-30.886 5.645-30.886 5.645a24.5 24.5 0 0 0 -7.176 5.939s3.381 1.622 8.908 7.671c0 0 16.03 17.21 39.592 10.888l10.393-.743s1.389-6.264 3.253-15.17z" fill="#e2a083"/><path d="m247.317 137.936s-22.442 2.395-35.243 2.306a9.051 9.051 0 0 0 -8.869 11.177 21.05 21.05 0 0 0 1.451 4s-14.446 3.112-8.89 19.113c0 0-12 2.223-12.445 11.557s6.445 12.355 6.445 12.355-9.752 2.371-7.557 13.2c2.021 9.966 14.668 9.779 14.668 9.779s-3.778 7.556 3.556 12.667 15.779-1.637 15.779-1.637-.392 5.058 2.56 8.785c0 0 6.75 2.969 13.056 2.248l17.721-8.284 4.667-94.9z" fill="#7d96d2"/><path d="m243.816 224.9c-9.93 3.416-21.06 12.79-25.043 16.336 2.012 2.54 5.579 4.463 11.885 3.742l18.891-9.778.634-12.9a68.427 68.427 0 0 1 -6.367 2.6z" fill="#566181"/><path d="m249.933 228.589-15.974 10.351a90.607 90.607 0 0 0 -10.349 10.037 5.111 5.111 0 0 0 5 8.336q1.547-.357 3.237-.855a.261.261 0 0 1 .216.473 60.76 60.76 0 0 0 -15.585 12.734 5.628 5.628 0 0 0 5.423 9.186q.72-.154 1.473-.353a.711.711 0 0 1 .632 1.244 153.11 153.11 0 0 0 -21 19.575 6.387 6.387 0 0 0 6.692 10.29c2.174-.666 4.482-1.458 6.877-2.4-6.7 5.273-.324 15.894 7.417 12.328 3.853-1.775 7.277-4.249 11.632-6.981a.545.545 0 0 1 .8.657c-1.613 4.085-4.755 14.639 6.475 13.37 15.738-1.779 37.464-12.8 53.617-30.421l5.441-22.781-36.393-50.624z" fill="#7d96d2"/><path d="m265.564 222.757-15.631 5.832a73.439 73.439 0 0 0 -15.973 10.353c12.084 4.159 26.8-.841 26.8-.841l10.116-7.957z" fill="#566181"/><path d="m267.106 224.9-10.383 10.985s-2.485 1.987-4 6.991a6.487 6.487 0 0 0 6.477 8.362 18.128 18.128 0 0 0 2.639-.361s-6 4.075-6.58 15.421a6.3 6.3 0 0 0 1.315 4.369c1.4 1.684 4.2 3.174 9.793 1.655a20.41 20.41 0 0 0 -4.64 12.59 7.56 7.56 0 0 0 8.467 7.695 17.667 17.667 0 0 0 4.016-1.1s-7.244 6.71-3.622 15.453a5.458 5.458 0 0 0 3.928 2.916 10.894 10.894 0 0 0 9.4-2.037 98.881 98.881 0 0 0 12.6-11.682l5.441-22.781z" fill="#566181"/><path d="m249.549 235.2 4.667-94.9-6.9-2.368s-9.958 1.062-20.39 1.745a21 21 0 0 0 -2.057 1.719 17.274 17.274 0 0 0 -5.292 10.9 19.738 19.738 0 0 0 -9.183 20.972 20.715 20.715 0 0 0 -5.745 10.1c-.8 3.546-.872 8.906 2.694 15.245-.734 4.487-1.162 12.608 3.54 18.854 2.185 2.9 6.186 6.287 13.222 7.161a13.338 13.338 0 0 0 .732 4.865 15.349 15.349 0 0 0 3.331 5.915c2.557 2.767 5.827 4.333 13.413 4.549z" fill="#566181"/><path d="m283.189 206.936-22.439 31.164q-.082.291-.164.583a5.736 5.736 0 0 0 5.638 7.3 24.449 24.449 0 0 0 6.556-1.17s-5.071 5-7.917 15.725a5.605 5.605 0 0 0 6.417 6.937 21.8 21.8 0 0 0 6.594-2.287s-4.2 3.8-7.093 13.085a5.882 5.882 0 0 0 7.743 7.2 27.112 27.112 0 0 0 7.434-4.333s-4.025 3.679-6.879 13.823a6.406 6.406 0 0 0 9.383 7.294c7.373-4.286 17.556-13.755 28.3-34.567l8.728-29.3s-6.423-24.8-6.644-25.469-21.262-9.081-21.262-9.081z" fill="#7d96d2"/><path d="m269.029 221.016a56.255 56.255 0 0 0 -8.271 17.085 51.631 51.631 0 0 0 16.06-13.025 3.228 3.228 0 0 0 -3.281-5.157z" fill="#566181"/><path d="m247.317 137.936s-22.659 1.257-20.83 18.694c0 0-13.62 4.006-8.279 19.228 0 0-13.254 7.554-3.506 21.453 0 0-6.5 22.565 15.79 20.474 0 0-3.471 17.893 25.371 14.154a42.18 42.18 0 0 0 30.1-19.707s-2.055-15.811-30.1-23.556c-6.295-11.258-6.725-30.128-8.546-50.74z" fill="#7d96d2"/><path d="m247.317 137.936a244.206 244.206 0 0 0 25.9-6.676c6.61-2.224 23.5-5.8 26.356 8.987 0 0 2.918 13.738-6.485 25.514s-13.295 13.072-17.186 22.476c0 0 18.159-2.594 36.317 1.945s19.131 20.428 19.131 20.428 4.864 32.426-14.591 57.07c0 0 6.833-22.352-1.944-40.206-7.107-14.458-19.952-15.769-25.806-15.547a6.753 6.753 0 0 1 -4.689-1.588c-2.4-2.075-7.788-4.714-18.332-1.55 0 0-22.836 6.077-31.266-10.642-6.06-12.017-1.229-22.26 1.968-27.071a58.354 58.354 0 0 0 5.855-11.039c2.243-5.737 3.565-12.788 4.772-22.101z" fill="#dbdba1"/><g fill="#7e896d"><path d="m280.134 187.813s-15.413 2.324-23.339 1.883c-1.891-.106-2.2-2.956-.311-3.145 9.08-.91 21.664-4.649 29.474-12.509-2.278 6.313-1.146 10.997-5.824 13.771z"/><path d="m281.039 33.385c-6.851 11.96-21.945 12.846-21.945 12.846a71.313 71.313 0 0 0 -8.76 6.128c25.648 1.164 31.31-11.2 32.449-18.388a.934.934 0 0 0 -1.744-.586z"/><path d="m261.712 33.442a3.465 3.465 0 0 1 -1.256-6.695l1.355-.526a3.464 3.464 0 0 1 2.508 6.459l-1.354.526a3.463 3.463 0 0 1 -1.253.236z"/></g><path d="m298.308 59.737c-1.2-1.351-2.38-2.592-3.522-3.722a12.54 12.54 0 0 0 -16.869-.684c-3.558 2.979-6.66 5.655-6.66 5.655 11.671 10.051 14.814 16.493 17.508 23.548a53.1 53.1 0 0 1 2.93 21.648 33.718 33.718 0 0 1 -2.522 10.333s18.087-3.5 18.628-27.234c.248-10.836-2.311-21.426-9.493-29.544z" fill="#e2a083"/><path d="m256.174 246s-8.035 8.648-16.55 17.852a1.536 1.536 0 0 0 1.811 2.421c6.811-3.424 16.979-9.489 22.781-17.494z" fill="#566181"/><path d="m258.919 270.3a377.946 377.946 0 0 1 -31.425 27.81 1.535 1.535 0 0 0 1.527 2.631c10.819-4.488 32.771-14.827 41.039-28.318z" fill="#566181"/><path d="m269.72 289.016a252.28 252.28 0 0 1 -20.843 21.177 1.882 1.882 0 0 0 2.166 3.044c9.355-5.092 21.133-12.514 26.7-20.1z" fill="#566181"/><path d="m76.96 219.822s-12.99 14.663-28.477 18.428c-1.145 3.431-2.065 6.61-2.809 9.451a62.458 62.458 0 0 1 -23.259 34.089 48.556 48.556 0 0 0 16.15-6.348 48.012 48.012 0 0 0 18.553-21.849c2.758-6.344 8.712-18.266 19.843-33.758z" fill="#7e896d"/></svg>