<svg id="Flat" height="512" viewBox="0 0 340 340" width="512" xmlns="http://www.w3.org/2000/svg"><path d="m12.177 30.394 137.166 123.227c10.158-1.015 18.636-3.38 24.96-7.476l-145.661-133.979a12.281 12.281 0 0 0 -16.965.493 12.282 12.282 0 0 0 .5 17.735z" fill="#efafa8"/><path d="m184.968 185.626 13.358-17.385-24.023-22.096-24.96 7.476z" fill="#a06669"/><path d="m184.133 216.342a105.4 105.4 0 0 0 34.445 6.547l-3.074-4.714c3.228-3.2 6.592-6.8 9.882-10.741l18.114 14.928c3.319-.156 6.377-.3 9.27-1.429l-23.035-18.987a116.4 116.4 0 0 0 6.832-10.152l48.787 17.336c-.071.227-.154.45-.227.675a26.191 26.191 0 0 0 8.926-5.012l-.32-.114a97.34 97.34 0 0 0 2.655-24.232l21.833 3.632a7.4 7.4 0 0 1 1.393.389 16.776 16.776 0 0 0 5.061-5.276 14.494 14.494 0 0 0 -5.305-2.019l-119.319-18.187a6.837 6.837 0 0 0 -6.35 2.464l-18.094 22.411a6.835 6.835 0 0 0 -1.087 6.683zm61.291-44.371 43.94 7.309a91.633 91.633 0 0 1 -2.186 23.07l-47.195-16.771a82.23 82.23 0 0 0 5.441-13.608z" fill="#a6caf7"/><g fill="#7697dd"><path d="m272.5 246.268 19.817 16.332a9.546 9.546 0 0 1 2.668 11.313q-.221.483-.476.979a3.619 3.619 0 0 0 1.08 4.689 3.5 3.5 0 0 0 5.038-1.283c.262-.5.5-.987.721-1.47a16.552 16.552 0 0 0 -4.578-19.628l-19.964-16.455a102.35 102.35 0 0 0 15.047-29.306l22.059 7.839a8.078 8.078 0 0 1 5.413 7.689 31.785 31.785 0 0 1 -.268 3.722 3.627 3.627 0 0 0 3.093 4.155 3.588 3.588 0 0 0 .517.014 3.5 3.5 0 0 0 3.3-3.015 38.776 38.776 0 0 0 .359-4.783 15.075 15.075 0 0 0 -10.069-14.378l-22.2-7.89q-4.458 2.746-8.926 5.012a93.34 93.34 0 0 1 -13.669 26.53l-18.688-15.4q-4.687.9-9.27 1.429l23.641 19.487a127.053 127.053 0 0 1 -14.48 14.65c-2.664 2.306-5.342 4.44-7.983 6.415l-26.1-40.03a152.833 152.833 0 0 1 -34.445-6.547l35.549 95.4a11.56 11.56 0 0 1 -3.3 12.907l-.075.062a3.607 3.607 0 0 0 -.826 4.669 3.5 3.5 0 0 0 5.179.815l.114-.095-2.254-2.678 2.338 2.608a18.576 18.576 0 0 0 5.383-20.741l-8.4-22.462a159.485 159.485 0 0 0 24.973-13.961l13.266 20.346a10.778 10.778 0 0 1 1.472 8.405 21.72 21.72 0 0 1 -2.172 5.55 3.625 3.625 0 0 0 .973 4.783 3.5 3.5 0 0 0 5.009-1.142 28.7 28.7 0 0 0 2.991-7.534 17.807 17.807 0 0 0 -2.409-13.887l-13.431-20.583c2.822-2.1 5.693-4.382 8.561-6.858a131.188 131.188 0 0 0 15.422-15.674zm-57.123 33.979-17.52-46.847c2.587-1.915 7.141-5.452 12.487-10.325l28.633 43.908a157.1 157.1 0 0 1 -23.6 13.264z"/><path d="m324.673 179.192q-2.517 2.739-5.061 5.276a7.469 7.469 0 0 1 4.731 5.4c.215 1.029.4 2.108.555 3.207a3.5 3.5 0 0 0 3.627 3.015c.106 0 .213-.015.32-.03a3.5 3.5 0 0 0 2.986-3.947c-.175-1.257-.389-2.5-.637-3.681a14.461 14.461 0 0 0 -6.521-9.24z"/></g></svg>