<svg id="Flat" height="512" viewBox="0 0 340 340" width="512" xmlns="http://www.w3.org/2000/svg"><path d="m220.423 222s3.885 29.6-25.548 40.636l26.75 27.714s26.088 27.03 55.42 30.562a36.171 36.171 0 0 0 40.224-38.825c-2.491-29.438-28.581-56.467-28.581-56.467l-26.75-27.714c-12.067 29.024-41.515 24.094-41.515 24.094z" fill="#a6caf7"/><path d="m93.137 104.005 150.346 155.764s11.647 11.306 21.018 7.9c3.738-9.245-7.149-21.285-7.149-21.285l-150.345-155.766z" fill="#dae5f7"/><path d="m93.137 104.005 17.279 17.902 19.593-7.458-23.002-23.831z" fill="#8294b9"/><path d="m61.982 23.449 11.682 8.451c22.165 13.839 9.507 47.9 9.507 47.9s-34.487 11.444-47.532-11.2l-8.039-11.969s-12.009 10.185 1.2 23.869l5.789 6a41.264 41.264 0 0 0 33.158 12.7q.784-.069 1.589-.166a18.756 18.756 0 0 1 7.035.475s11.1 1.536 19.486-6.558a24.666 24.666 0 0 0 7.395-18.619 18.744 18.744 0 0 1 -.378-7.67q.126-.8.222-1.582a41.261 41.261 0 0 0 -11.518-33.598l-5.789-6c-13.203-13.682-23.807-2.033-23.807-2.033z" fill="#f4737d"/><path d="m71.373 22.1c-.1-.064-.194-.128-.292-.191a8.766 8.766 0 0 0 -10.762 1.191l-16.5 15.929-16.5 15.929a8.764 8.764 0 0 0 -1.575 10.713c.059.1.12.2.18.3a14.169 14.169 0 0 0 21.876 2.643l12.723-12.277 12.72-12.277a14.169 14.169 0 0 0 -1.87-21.96z" fill="#474756"/><path d="m109.4 92.888a6.174 6.174 0 0 0 .155-8.73l-1.888-1.958a17.846 17.846 0 0 1 -4.413-7.882 47.985 47.985 0 0 1 -10.71 15.193 40.936 40.936 0 0 1 -16.18 9.989 17.879 17.879 0 0 1 8.339 4.863l1.888 1.957a6.174 6.174 0 0 0 8.73.154l7.04-6.8z" fill="#bf454f"/></svg>