<svg id="fill" height="512" viewBox="0 0 340 340" width="512" xmlns="http://www.w3.org/2000/svg"><path d="m285.38 32.791s-13.155-6.438-27.283-1.814a27.5 27.5 0 0 0 -18.462 29.288 54.586 54.586 0 0 0 .972 5.951 23.674 23.674 0 0 1 -2.442 16.814c-3.559 6.3-6.334 16.576-.11 30.369a39.955 39.955 0 0 1 3.388 18.877 50.437 50.437 0 0 1 -2.687 14.027l20.65 2.424s4.384-18.535 15.73-33a83.29 83.29 0 0 0 18.188-50.247c.168-13.141-1.57-26.195-7.944-32.689z" fill="#8eb260"/><path d="m279.516 139.215s6.76-11.873 5.253-30.4a52.708 52.708 0 0 0 -5.805-19.523c-2.663-5.241-5.308-14.559 1.159-25.2a24.8 24.8 0 0 0 2.732-19.592c-2.367-8.351-2.833-19.6 7.994-26.423a18.935 18.935 0 0 1 18.753-.648c11.145 5.72 27.723 19.973 18.157 52.288a35.53 35.53 0 0 0 -1.3 13.486c.81 8.451-.654 24.092-18.37 37.506a44.851 44.851 0 0 0 -9.369 9.776l-9.82 13.773z" fill="#abd37d"/><path d="m301.645 54.515c-1.21 22.154-6.022 63.28-24.8 84.988l6.948 4.755s27.638-26.381 20.474-89.8a1.317 1.317 0 0 0 -2.622.057z" fill="#8eb260"/><path d="m99.6 62.9s-23.18.422-25.392 19.588a24.387 24.387 0 0 0 1.75 11.874 30.359 30.359 0 0 0 9.835 13.243 19.3 19.3 0 0 1 8.093 14.16c1.242 17.627 13.064 51.027 86.5 42.918 0 .002-62.547-83.276-80.786-101.783z" fill="#769344"/><path d="m210.772 187.762s23.19-26.229 20.445-58.507a55.433 55.433 0 0 0 -16.4-34.459c-3.209-3.19-7.1-6.842-11.274-10.265a58.242 58.242 0 0 1 -15.839-20.34c-7.95-17-26.9-44.626-64.379-37.821a36.078 36.078 0 0 0 -21.406 12.18c-6.057 7.292-10.719 18.865-5.14 35.988 0 0 7.057 15.989 22.852 24.879a25.422 25.422 0 0 1 12.947 19.48c1.564 15.134 8.461 38.088 34.642 49.277z" fill="#a0c16c"/><path d="m205.123 113.459a1.187 1.187 0 0 0 -2.341-.218 62.078 62.078 0 0 1 -9.946 22.309 226.894 226.894 0 0 0 -18.026-35.729 17.3 17.3 0 0 1 -2.718-10.928c.749-7.188-1.283-14.362-3.109-19.094a.8.8 0 0 0 -1.542.347 42.517 42.517 0 0 1 -2.334 15.694 145.28 145.28 0 0 0 -21.983-23.131 1.92 1.92 0 0 0 -2.728 2.673 271.143 271.143 0 0 1 32.456 51.146c-6.179 1.511-14.445 1.836-20.205 1.844a1.625 1.625 0 0 0 -.6 3.129 50.98 50.98 0 0 0 19.373 3.358 7.785 7.785 0 0 1 7.272 4.883c6.058 15.046 12.772 39.1 14.344 56.429l15.333 1.527s-4.109-19.2-9.6-35.9a12.717 12.717 0 0 1 .734-9.921c5.197-9.795 5.932-20.859 5.62-28.418z" fill="#769344"/><path d="m255.1 144.906s-43.6-18.1-55.094 42.329h37.518z" fill="#e57c35"/><path d="m200.218 183.015a40.79 40.79 0 0 0 -47.54-51.892c-4.971-7.912-12.193-13.04-20.487-14.661.165.8.3 1.611.387 2.435 1.564 15.134 8.461 38.088 34.642 49.277 12.705 11.837 24.98 21.918 32.998 14.841z" fill="#769344"/><path d="m299 146.075a25.872 25.872 0 0 0 -26.885-16.066c-9.939 1.065-22.492 6.824-31.207 26.39 0 0-11.154 25.244-18.252 30.536h61.855s22.534-20.156 14.489-40.86z" fill="#f9a364"/><circle cx="161.262" cy="170.985" fill="#e24d4d" r="31.769"/><path d="m115.561 131.9s-43.411 3.058-36.422 55.04h68.361s29.108-29.615-9.392-52.637z" fill="#ff6e6e"/><path d="m28.615 82.732a38.578 38.578 0 0 1 -7.553-34.024 7.019 7.019 0 0 1 9.1-4.862 7.061 7.061 0 0 1 4.525 8.454c-1.77 6.889-3.289 18.515 2.047 29.674z" fill="#abd37d"/><path d="m24.788 103.947s-11.707 52 13.325 83.288h78.9s-54.471-28.535-63.982-87.611c0 0-12.831-7.201-28.243 4.323z" fill="#927dbc"/><path d="m32.183 78.714s-14.813 2.245-18.4 25.138c0 0-.126.561-.391 1.471a7.4 7.4 0 0 0 10.288 8.752 37.8 37.8 0 0 0 8.764-5.858 16.621 16.621 0 0 1 14.569-4.132 81.26 81.26 0 0 0 8.782 1.367 6.78 6.78 0 0 0 5.93-10.937 19.552 19.552 0 0 1 -1.213-1.8 29.725 29.725 0 0 0 -5.2-6.762c-4.446-4.143-12.288-9.129-23.129-7.239z" fill="#abd37d"/><rect fill="#c99" height="52.856" rx="9.192" width="320" x="9.381" y="181.848"/><rect fill="#c99" height="52.856" rx="9.192" width="320" x="9.381" y="271.883"/><path d="m23.006 234.704h292.75v37.179h-292.75z" fill="#966363"/><path d="m88.759 129.427c5.229.508 15.559 2.069 18.967 6.613 0 0-4.025 11.116 2.928 20.31a1.273 1.273 0 0 0 2.243-.431c1.74-6.349 8.532-22.664 31.6-17.077a1.157 1.157 0 0 0 1.3-1.68c-2.827-5.018-11.07-15.963-27.285-10.991 0 0-11.334-13.035-30.35 1.046a1.225 1.225 0 0 0 .597 2.21z" fill="#abd37d"/><g fill="#966363"><path d="m43.78 212.27a3.988 3.988 0 0 1 -2.83-1.17 3.26 3.26 0 0 1 -.5-.6 3.659 3.659 0 0 1 -.369-.7 3.884 3.884 0 0 1 -.23-.74 4.369 4.369 0 0 1 0-1.569 4.215 4.215 0 0 1 .23-.75 3.9 3.9 0 0 1 .369-.691 3.629 3.629 0 0 1 .5-.6 3.938 3.938 0 0 1 4.351-.87 3.161 3.161 0 0 1 .689.37 3.564 3.564 0 0 1 .611.5 4.137 4.137 0 0 1 .5.6 4.681 4.681 0 0 1 .37.691 5.365 5.365 0 0 1 .229.75 4.369 4.369 0 0 1 0 1.569 4.866 4.866 0 0 1 -.229.74 4.328 4.328 0 0 1 -.37.7 3.662 3.662 0 0 1 -.5.6 3.983 3.983 0 0 1 -2.821 1.17z"/><path d="m43.78 302.31a4.026 4.026 0 0 1 -2.83-1.17 3.656 3.656 0 0 1 -.5-.609 3.9 3.9 0 0 1 -.369-.691 3.766 3.766 0 0 1 -.23-.75 4.1 4.1 0 0 1 -.071-.78 3.994 3.994 0 0 1 4.781-3.92 3.336 3.336 0 0 1 .74.231 3.623 3.623 0 0 1 .689.36 4.168 4.168 0 0 1 .611.5 4.062 4.062 0 0 1 1.1 3.609 4.021 4.021 0 0 1 -.6 1.441 4.164 4.164 0 0 1 -.5.609 4.1 4.1 0 0 1 -.611.5 3.684 3.684 0 0 1 -.69.36 3.9 3.9 0 0 1 -1.521.309z"/><path d="m293.541 212.27a4 4 0 0 1 -2.83-1.17 3.564 3.564 0 0 1 -.5-.6 4.1 4.1 0 0 1 -.37-.7 3.85 3.85 0 0 1 -.22-.74 3.436 3.436 0 0 1 -.08-.779 3.985 3.985 0 0 1 1.17-2.83 3.628 3.628 0 0 1 .609-.5 4.01 4.01 0 0 1 .691-.37 3.9 3.9 0 0 1 .75-.231 4.129 4.129 0 0 1 1.559 0 4.074 4.074 0 0 1 1.441.6 3.479 3.479 0 0 1 .6.5 3.968 3.968 0 0 1 0 5.649 3.078 3.078 0 0 1 -.6.5 4.372 4.372 0 0 1 -.691.37 5.377 5.377 0 0 1 -.75.231 4.1 4.1 0 0 1 -.779.07z"/><path d="m293.541 302.31a4.038 4.038 0 0 1 -.78-.079 3.973 3.973 0 0 1 -.75-.23 4.043 4.043 0 0 1 -.691-.361 4.192 4.192 0 0 1 -.609-.5 4.039 4.039 0 0 1 -.5-.609 4.416 4.416 0 0 1 -.37-.691 3.742 3.742 0 0 1 -.22-.75 3.433 3.433 0 0 1 -.08-.78 3.993 3.993 0 0 1 4.779-3.92 4.314 4.314 0 0 1 1.441.591 4.062 4.062 0 0 1 .6.5 3.543 3.543 0 0 1 .5.609 4.025 4.025 0 0 1 .6 1.441 3.838 3.838 0 0 1 0 1.559 3.832 3.832 0 0 1 -.23.75 3.78 3.78 0 0 1 -.371.691 3.468 3.468 0 0 1 -.5.609 4 4 0 0 1 -.6.5 4.407 4.407 0 0 1 -.691.361 4.478 4.478 0 0 1 -.75.23 4.109 4.109 0 0 1 -.778.079z"/></g><path d="m272.844 155.942a3.971 3.971 0 0 1 -2.082-.588l-5.26-3.214a4 4 0 0 1 4.172-6.826l5.26 3.214a4 4 0 0 1 -2.09 7.414z" fill="#e57c35"/><path d="m262.408 165.122a3.991 3.991 0 0 1 -2.044-.565l-3.006-1.791a4 4 0 0 1 4.1-6.873l3.006 1.791a4 4 0 0 1 -2.052 7.438z" fill="#e57c35"/><path d="m45.284 171.18a3.988 3.988 0 0 1 -2.306-1.419c-5.26-6.59-8.546-15.509-9.766-26.507a4 4 0 0 1 7.951-.883c1.051 9.474 3.766 17.01 8.068 22.4a4 4 0 0 1 -3.947 6.411z" fill="#fff"/><path d="m36.212 130.345a4 4 0 0 1 -3.157-4.3c.085-.889.151-1.378.151-1.378a4 4 0 0 1 7.93 1.06c-.006.049-.055.429-.118 1.085a4 4 0 0 1 -4.365 3.6 4.042 4.042 0 0 1 -.441-.067z" fill="#fff"/></svg>