<svg id="flat" height="512" viewBox="0 0 340 340" width="512" xmlns="http://www.w3.org/2000/svg"><path d="m287.566 235.036s-14.492 41.782 7.245 65.21a16.882 16.882 0 0 1 3.06 3.8 5.849 5.849 0 0 1 -5.036 8.83h-21.935l-10.423-49.337s3.178-17.877 27.089-28.503z" fill="#40486f"/><path d="m166.376 282.934a37.39 37.39 0 0 1 13.4 22.393 9.143 9.143 0 0 0 9 7.545h10.35a5.686 5.686 0 0 0 4.606-9.05 12.634 12.634 0 0 0 -2.546-2.486 12.949 12.949 0 0 1 -4.235-5.638c-2.138-5.4-4.881-15.429-1.827-26.554l-20.546-1.876z" fill="#40486f"/><path d="m320.26 57.053c1.036 2.689 9.448 25.1 10.387 48.989-5.367 35.525-14.913 66.705-28.207 93.989a57.82 57.82 0 0 1 .49 7.689c-5.394 21.243-20.415 36.161-39.33 50.532l-19.352 2.368c-13.353 15.757-43.186 11.677-56.806 8.74s-39.882-.948-39.882-.948-21.353 10.956-66.391 22.106a96.97 96.97 0 0 1 -28.422 2.246c-23.747-1.832-40.772-21.45-43.372-45.125-.664-6.051.7-31.266 9.962-44.775l13.587 25.378a27.513 27.513 0 0 0 -.67 4.1c-.917 13.6 2.906 22.757 10.608 27.855 6.405 4.24 15.491 5.671 26.764 4.509 30.347-3.128 62.491-41.126 62.491-41.126 42.383-49.908 98.983-57.763 119.383-58.93a34.293 34.293 0 0 0 20.056-7.759c.723-.6 1.442-1.241 2.145-1.915 14.667-14.053 21.24-32.079 21.339-52.393a86.521 86.521 0 0 0 -10.182-41.651 70.843 70.843 0 0 0 -12.458 3.613 11.77 11.77 0 0 1 -14.489-4.886c-.056-.094-.113-.19-.168-.287a11.078 11.078 0 0 1 2.191-13.608l3.486-3.23a13.239 13.239 0 0 0 4.252-8.233c.29-2.7 1.725-6.335 6.56-9.452q.633-.407 1.216-.773a16.964 16.964 0 0 1 18.371.28c17.855 11.799 26.441 32.697 26.441 32.697z" fill="#7a7a92"/><g fill="#40486f"><path d="m330.638 106.042c-2.728 10.759-8.276 23.684-19.5 34.247l-11.324 45.965 2.625 13.777s30.561-37.967 28.199-93.989z"/><path d="m251.953 213.39a6.071 6.071 0 0 0 -8.255 5.185 27.933 27.933 0 0 1 -5.25 14.164c-8.529 11.983-5.483 20.641-5.483 20.641-6.434 3.393-5.89 8.915-5.89 8.915a44.452 44.452 0 0 1 -33.307 1.111c.609-7.717 1.016-18.684-2.64-30.87a85.529 85.529 0 0 1 -3.1-14.145 1.5 1.5 0 0 0 -2.838-.473 22.717 22.717 0 0 0 -1.63 12.729l-20.129 9.362.86 27.986c7.607.088 16.654-.038 23.155 1.365 13.62 2.937 43.453 7.017 56.806-8.74l19.352-2.368s39.151-13 39.328-50.532c-14.34 16.544-37.996 10.706-50.979 5.67z"/><path d="m288.528 68.789 12.509-7.134a1.3 1.3 0 0 0 -.657-2.435 91.938 91.938 0 0 0 -15.518 1.712c1.23 2.381 2.481 4.993 3.666 7.857z"/></g><path d="m241.541 241.982s-9.806 13.135-32.049 14.475-24.522-15.645-24.522-15.645l-21.3 6.533s-25.364 6.931-46.2 24.121c-16.4 13.532-35.62 18.827-36.3 19.047 45.732-11.367 66.6-23.245 66.6-23.245s26.081-.973 39.672 2.092c23.1 5.208 58.245-6.469 58.245-6.469z" fill="#fce2cb"/><path d="m232.441 249.607a13.236 13.236 0 0 0 .524 3.773 10.836 10.836 0 0 0 -5.222 5.385 9.4 9.4 0 0 1 -5.971 5.456 45.514 45.514 0 0 1 -19.735 1.349 9.277 9.277 0 0 1 -7.891-9.353q.027-1.3.018-2.679a18.7 18.7 0 0 1 -9.194-12.726l-21.3 6.533s-25.364 6.931-46.2 24.121c-16.4 13.532-35.62 18.827-36.3 19.047 46.423-8.813 67.239-19.662 67.239-19.662s24.482-1.241 38.1 1.7 44.064 6.409 57.417-9.347l1.762-.31-4.146-20.909a34.1 34.1 0 0 1 -9.101 7.622z" fill="#e2a083"/><path d="m147.75 245.417.6 11.995a47.519 47.519 0 0 1 -4.673 22.759c-2.7 5.683-5.458 14.676-5.779 27.983a10.011 10.011 0 0 0 10.016 10.335h11.858a7.178 7.178 0 0 0 7.137-8.275 12.4 12.4 0 0 0 -1.751-4.679 13.022 13.022 0 0 1 -2.051-9.386 40.25 40.25 0 0 1 13.593-23.544 23.936 23.936 0 0 0 8.44-16.648 100.307 100.307 0 0 0 -1.585-25.31s-23.273 3.805-35.805 14.77z" fill="#7a7a92"/><path d="m240.309 208.041s11.435 12.94 1.232 33.941c0 0-4.216 8.139-.9 14.557-4.2 2.46-7.488 8.169-.9 18.736.914 1.466 1.762 2.979 2.554 4.515l2.526 4.9a28.084 28.084 0 0 1 2.969 9.929c.309 2.936.621 6.291.621 7.83v7.5a8.539 8.539 0 0 0 8.538 8.538h15.566a6.348 6.348 0 0 0 5.673-9.288 14.881 14.881 0 0 0 -1.177-1.818 16.434 16.434 0 0 1 -3.3-9.44 43.892 43.892 0 0 0 -2.7-13.966 28.255 28.255 0 0 1 -1.763-11.892c.465-6.548 2.507-16.661 9.177-29.744 6.881-13.5 7.072-25.231 5.883-32.994a33.862 33.862 0 0 0 -7.887-17.106 20.614 20.614 0 0 0 -4.428-3.97z" fill="#7a7a92"/><path d="m284.862 60.932c4.965 9.608 9.459 23.486 9.368 42.178.579 32.007-3.465 50.092-7.055 59.733a16.467 16.467 0 0 0 3.132 16.756c8.017 8.939 11.39 12.128 11.39 12.128l9.447-51.438c.739-58.504-26.282-79.357-26.282-79.357z" fill="#fce2cb"/><path d="m290.976 67.393a40.775 40.775 0 0 0 -6.114-6.461 76.972 76.972 0 0 1 3.537 7.93z" fill="#e2a083"/><path d="m263.557 249.411a1.26 1.26 0 0 0 .238-2.461c-3.138-.88-7.842-.827-13.984 3.05 0 0-5.885 4.01-10.429 1.2a12.012 12.012 0 0 0 1.259 5.337s6.22 4.515 11.019-1.115a17.6 17.6 0 0 1 11.897-6.011z" fill="#40486f"/><path d="m282.005 40.514a3.464 3.464 0 0 1 -1.434-6.619l1.32-.6a3.464 3.464 0 1 1 2.863 6.309l-1.32.6a3.462 3.462 0 0 1 -1.429.31z" fill="#40486f"/><path d="m302.44 200.031c6.019-23.25 8.489-43.029 8.7-59.742-9.788 8.961-19.212 14.676-22.554 18.356-.47 1.549-.944 2.946-1.41 4.2a16.467 16.467 0 0 0 3.132 16.756c8.016 8.937 12.132 20.43 12.132 20.43z" fill="#e2a083"/><path d="m125.476 148.84c-8.382-3.116-21.46-5.152-40.218 1.049 1.107-6.22 4.264-13.069 10.751-21.063a1.574 1.574 0 0 0 -2.092-2.306c-7.383 4.945-17.646 10.9-20.643 28.149a158.933 158.933 0 0 0 -19.185 10.712 101.342 101.342 0 0 0 -31.583 31.954c-8.883 14.391-7.337 36.84 3.653 49.694a51.64 51.64 0 0 0 16.711 13.159s-9.784-12.11-7.244-32.385c0 0 2-31.235 37.948-53.243 2.357 10.111 9.517 25.64 31.252 29.96 0 0 33.581 5 37.63-27.34a26.713 26.713 0 0 0 -5.895-20.7 26.4 26.4 0 0 0 -11.085-7.64zm-15.763 39.051c-8.057.125-18.324-6.637-22.925-21 12.563-5.772 23.457-6.5 30.714-4.525.175.048.334.107.5.158.26.09.608.222 1.018.405 9.891 4.435 9.717 18.59-.155 23.067a22.89 22.89 0 0 1 -9.152 1.895z" fill="#40486f"/></svg>