<svg id="flat" height="512" viewBox="0 0 340 340" width="512" xmlns="http://www.w3.org/2000/svg"><path d="m222.219 76.772a39.893 39.893 0 0 1 .405-12.069.688.688 0 0 1 1.336-.046c.876 3.279 2.692 8.826 5.7 12.6z" fill="#d9e6f7"/><path d="m234.567 77.583a39.9 39.9 0 0 1 1.111-12.024.688.688 0 0 1 1.337.032c.683 3.325 2.17 8.969 4.948 12.912z" fill="#a0b1f7"/><path d="m214.544 51.849a39.867 39.867 0 0 0 1.111 12.024.688.688 0 0 0 1.337-.033c.682-3.324 2.169-8.968 4.948-12.911z" fill="#d9e6f7"/><path d="m228.678 53.15a35.753 35.753 0 0 0 1 10.776.616.616 0 0 0 1.2-.029c.612-2.98 1.944-8.038 4.434-11.571z" fill="#d9e6f7"/><path d="m241.308 52.452a35.727 35.727 0 0 0 1 10.775.616.616 0 0 0 1.2-.029c.612-2.979 1.945-8.037 4.435-11.57z" fill="#a0b1f7"/><path d="m248.958 76.328a39.9 39.9 0 0 1 -1.458-11.987.687.687 0 0 1 1.313-.251c1.372 3.1 4.022 8.3 7.573 11.568z" fill="#a0b1f7"/><path d="m282.607 177.73a95.391 95.391 0 0 1 22.042 3.454 21.123 21.123 0 0 1 8.809 4.8 27.976 27.976 0 0 1 6.583 8.811 5.637 5.637 0 0 0 7.375 2.965l.274-.119a5.575 5.575 0 0 0 3.371-5.294c-.2-5.519-1.816-15.607-10.48-21.249a19.813 19.813 0 0 0 -5.22-2.317c-4.27-1.262-14.529-4.512-19.328-7.9z" fill="#704651"/><path d="m168.091 265.536s2.138 11.971-.7 23.465a11.664 11.664 0 0 0 3.106 11.193 45.64 45.64 0 0 1 12.147 21.025 7.716 7.716 0 0 0 7.439 5.733h16.094a6.02 6.02 0 0 0 5.1-9.212c-2.1-3.386-5.744-6.791-12.08-8.428a11.368 11.368 0 0 1 -6.6-4.7 44.1 44.1 0 0 1 -7.144-18.784 18.872 18.872 0 0 1 10.513-19.072 82.261 82.261 0 0 0 15.641-9.91 29.9 29.9 0 0 0 10.508-18.858c1.049-7.384 2.163-18.184 1.579-28.048l-54 11.738z" fill="#704651"/><path d="m267.237 59.191s-17.932 18.953-46.053 14.277a1.213 1.213 0 0 0 -1.428 1.232 41.089 41.089 0 0 0 .66 5.806 8.517 8.517 0 0 0 7.627 6.988 67.36 67.36 0 0 0 17.486-1.017 95.243 95.243 0 0 1 26.532-1.206 9.176 9.176 0 0 1 -1.391 7.793 33.477 33.477 0 0 1 -3.043 6.957 24.516 24.516 0 0 1 -17.449 11.721 92.521 92.521 0 0 0 -36.249 14.324 84.56 84.56 0 0 1 -48.874 14.185c-4.537-.118-9.1-.3-13.326-.57a66.342 66.342 0 0 0 -22.751 2.371 90.305 90.305 0 0 0 -17.924 7.425 68.857 68.857 0 0 1 -21.131 7.31c-13.851 2.4-33.425 2.533-43.983-12.122-16.669-23.135-7.176-55.995 24.693-70.508a1.356 1.356 0 0 0 -.481-2.591c-12.064-.694-41.516 1.325-55.935 34.832-17.192 39.952 12.063 71.457 24.07 78.1 0 0 30.3 10.217 62.165 12.122l78.79 19.048 73.941-20.78 61.473-75.326s5.138-41.82-4.541-71.813a28.493 28.493 0 0 0 -11.548-15.249l-.284-.183a35.6 35.6 0 0 0 -23.146-5.278c-9.864 1.126-28.889 2.943-44.074 2.262a15.892 15.892 0 0 0 -13.137 5.771c-2.747 3.419-5.232 8.649-5.749 16.554a1.229 1.229 0 0 0 .448 1.03c1.727 1.408 8.694 5.463 30.341 3.7 17.734-1.448 24.271 2.835 24.271 2.835z" fill="#b58785"/><path d="m249.843 44.831c8.786 3.269 20.19-6.831 20.19-6.831l6.508-11.086c-.469.035-.937.077-1.4.13-4.405.5-10.643 1.143-17.545 1.637l-13 5.166s-4.67 7.297 5.247 10.984z" fill="#704651"/><path d="m314.3 117.471c-4.447-11.719-11.849-13.467-21.246-9.912-6.378 2.413-7.922 10.681-8.256 15.745a27.024 27.024 0 0 1 -2.6 10.025 94.012 94.012 0 0 1 -25.431 32.028 19.065 19.065 0 0 0 -5.165-6.445 2.806 2.806 0 0 0 -4.459 2.831 27.129 27.129 0 0 1 .738 6.088 6.281 6.281 0 0 1 -3.277 5.56 84.135 84.135 0 0 1 -33.714 9.727q-8.139.642-15.856.912a6.232 6.232 0 0 1 -5.518-2.921 42.96 42.96 0 0 0 -12.878-13.077c-2.8-1.85-6.393.879-5.144 3.924a71.387 71.387 0 0 1 3.721 12.3 371.808 371.808 0 0 1 -52.86-4.408 63.179 63.179 0 0 0 -20.559.084c-41.577 7.034-61.886 2.361-78.009-8.615 5.213 6.519 10.713 11.083 14.5 13.183 0 0 30.3 10.217 62.165 12.122l78.79 19.048 73.941-20.78 61.473-75.326s.037-.308.1-.877c-.156-.425-.312-.83-.456-1.216z" fill="#704651"/><path d="m272.061 85.271s38.223 3.39 42.6 34.288a103.108 103.108 0 0 1 -7.511 40.8 73.29 73.29 0 0 1 -44.9 41.122c-9.057 3-23.6 8.663-36.469 17.427 0 0-26.133 16.578-57.237 14.647-21.242-1.318-41.031-11.607-54.28-19.271-18.077-10.458-40.579-3.629-75.975-29.791 0 0 27.345 13.035 56.8 8.064 29.273-4.942 66.4.9 66.4.9s94.954 23.053 121.123-48.222c2.5-6.809 2.328-14.723 2.261-21.934a53.131 53.131 0 0 0 -.372-5.823c-1.152-9.618-2.706-19.448-13.827-24.417a30.819 30.819 0 0 0 1.387-7.79z" fill="#fce2cb"/><path d="m314.266 117.392c-4.451-11.646-11.84-13.38-21.215-9.833-6.072 2.3-7.76 9.9-8.2 14.99a59.816 59.816 0 0 1 -3.789 21.957c-26.169 71.276-119.173 46.461-119.173 46.461s-38.075-6.562-67.347-1.62c-29.452 4.972-56.259-4.852-56.259-4.852 35.4 26.162 57.9 19.333 75.975 29.791 13.249 7.664 33.038 17.953 54.28 19.271 31.1 1.931 57.237-14.647 57.237-14.647 12.864-8.764 27.412-14.425 36.469-17.427a73.29 73.29 0 0 0 44.9-41.122 103.108 103.108 0 0 0 7.511-40.8c-.104-.745-.246-1.461-.389-2.169z" fill="#e2a083"/><path d="m267.237 59.191a43 43 0 0 1 -6.059 5 26.157 26.157 0 0 0 22.325 2.7 1.138 1.138 0 0 0 -.293-2.22 26.962 26.962 0 0 1 -10.81-2.871z" fill="#704651"/><path d="m263.976 38.3c.112 4.516 2.1 7.616 5.762 9.461 0 0 9.28 5.574 19.61-1.754 0 0 8.388-7.219 7.094-14.77a35.658 35.658 0 0 0 -21.306-4.194c-.649.074-1.343.152-2.068.231z" fill="#704651"/><path d="m278.714 42.546a3.465 3.465 0 0 1 -1.129-6.74l1.719-.592a3.464 3.464 0 0 1 2.258 6.55l-1.719.592a3.458 3.458 0 0 1 -1.129.19z" fill="#c94453"/><circle cx="227.685" cy="43.389" fill="#704651" r="3.439"/><path d="m57.1 154.009a29.451 29.451 0 0 1 -11.157-9.344c-16.672-23.135-7.179-55.995 24.69-70.508a1.356 1.356 0 0 0 -.481-2.591c-9.514-.547-29.839.607-45.08 17.549-9.994 51.396 32.018 64.892 32.028 64.894z" fill="#704651"/><path d="m135.9 168.593s-18.094 23.949 0 47.072c9.67 12.356 14.6 19.525 17.1 23.521a8.705 8.705 0 0 1 .286 8.712 8.636 8.636 0 0 1 -3.269 3.411 55.238 55.238 0 0 0 -13.9 11.6 50.091 50.091 0 0 1 -10.794 9.358 10.02 10.02 0 0 0 -4.464 9.8 60.677 60.677 0 0 1 -1.059 20.783 12.3 12.3 0 0 0 4.323 12.051 40.553 40.553 0 0 1 6.925 7.089 12.035 12.035 0 0 0 9.634 4.962h15.318a5.662 5.662 0 0 0 4.873-8.589c-1.963-3.15-5.407-6.368-11.444-8.115a12.662 12.662 0 0 1 -8.352-7.575 41.8 41.8 0 0 1 -2.806-14.126s8.467-9.845 21.531-12.318a26.888 26.888 0 0 0 9.008-3.3 39.981 39.981 0 0 0 15.621-18.272 49.18 49.18 0 0 0 4.006-15.924c1.243-14.529 2.319-53.633-18.751-76.632z" fill="#b58785"/><path d="m294.194 198.994a28.214 28.214 0 0 1 -13.436-6 11.9 11.9 0 0 1 -3.922-10.561 57.029 57.029 0 0 0 -2.156-24.391s-2.058-11.111-12.285-11.551-12.215 8.133-12.215 8.133h.019q-3.449.083-7.042.386a29.2 29.2 0 0 1 5.64 4.089 20.533 20.533 0 0 1 6.407 11.782c.929 5.514 2.349 14.827 3.172 24.587 0 0-.743 7.8 9.836 9.465 0 0 24.489 2.544 31.81 19.85a5.711 5.711 0 0 0 10.941-1.515c.798-6.7 1.975-20.377-16.769-24.274z" fill="#b58785"/><path d="m265.109 15.837c-10.134 11.7-21.438 13.539-21.438 13.539s-3 7.276 3.068 10.574a10.13 10.13 0 0 0 8.636.431 17.64 17.64 0 0 0 7.284-5.9 24.478 24.478 0 0 1 3.923-4.192c5.029-4.108 4.836-8.874 5.193-10.991 1.092-6.465-2.375-8.417-6.666-3.461z" fill="#f26f7c"/><path d="m249.035 36.855s-1.68-3.133 2.549-5.2a88.178 88.178 0 0 0 7.936-4.655 1.211 1.211 0 0 1 1.824 1.345c-.829 2.876-2.55 7.028-5.833 8.7-5.25 2.68-6.476-.19-6.476-.19z" fill="#b43a49"/><path d="m235.756 29.435s14.775-1.122 26.037-10.137a26.379 26.379 0 0 1 -10.957 9.493c-7.369 3.37-7.2 7.972-7.2 7.972z" fill="#b58785"/></svg>