<svg id="Flat" height="512" viewBox="0 0 340 340" width="512" xmlns="http://www.w3.org/2000/svg"><path d="m169.358 70.706s9.719-34.268 39.188-48.889a12.066 12.066 0 0 1 12.554 1.225l3.277 2.45a6.277 6.277 0 0 1 -.53 10.411c-11.205 6.747-30.074 20.96-34.088 41.956z" fill="#75212c"/><path d="m196.182 194.976s-20.822-24.976-23.833-40.642l13.978-31.7s3.1 24.067 28.326 56.653z" fill="#bc5e66"/><path d="m186.327 122.635-13.978 31.7c1.615 8.4 8.354 19.482 14.256 27.951a69.481 69.481 0 0 0 16.16-20.176c-14.381-23.519-16.438-39.475-16.438-39.475z" fill="#75212c"/><path d="m164.965 11.76v5.4a20.141 20.141 0 0 1 0 9.512v13.628c.6 3.421.916 6.7 0 9.378v75.102c1.9 16.243-15.689 34.165-15.689 34.165-4.993 6.022-11.836 13.627-21.151 22.941 0 0-22.118 22.209-31.055 53.333-7.592 26.437-.036 55.187 20.709 73.248 12.616 10.985 31.656 19.772 60.285 19.772 0 0 53.832.97 66.287-51.691 2.9-12.244 4.99-56.266-29.7-97.261l-18.471 15.689s19.32 24.084 23.584 55.694c4.037 29.919-18.844 56.361-48.915 53.687q-.843-.075-1.7-.177c-34.921-4.195-58.171-37.575-48.45-71.377 3.394-11.8 10.716-24.573 24.688-37.014a250.23 250.23 0 0 0 23.313-22.889 73.636 73.636 0 0 0 10.684-15.869l7.824-33.3.012-61.387a18.488 18.488 0 0 1 0-7.447v-15.6a18.06 18.06 0 0 1 0-7.4v-20.13z" fill="#bc5e66"/><path d="m164.965 92.171c8.239 1.2 17.307 2.371 21.05 2.315a9.022 9.022 0 0 0 1.194-.11l.006-32.033a19.88 19.88 0 0 1 -.207-6.343l-21.831-7.086c-.064.256-.128.512-.212.759z" fill="#75212c"/><rect fill="#bc5e66" height="19.02" rx="9.51" width="45.532" x="152.603" y="68.873"/><path d="m167.684 174.034c15.713-16.5 19.516-38.666 19.519-50.3v-26.327h-22.238v27.373c0 11.713-6.74 23.056-14.122 32.241z" fill="#75212c"/><rect fill="#bc5e66" height="19.02" rx="9.51" width="45.532" x="152.603" y="87.893"/><rect fill="#bc5e66" height="19.02" rx="9.51" width="45.532" x="152.603" y="106.913"/><rect fill="#bc5e66" height="19.02" rx="9.51" width="45.532" x="151.098" y="125.932"/><g fill="#75212c"><path d="m164.17 87.893h7.519a82.27 82.27 0 0 1 10.785-19.02h-8.629a93.323 93.323 0 0 0 -9.675 19.02z"/><path d="m181.407 87.893a51.594 51.594 0 0 0 -5.819 19.02h7.034a45.673 45.673 0 0 1 6.88-18.976c-.289-.026-.581-.044-.877-.044z"/><path d="m168.552 125.932a28.811 28.811 0 0 1 5.345-19.019h-8.212a35.836 35.836 0 0 0 -4.148 18.99c.192.012.382.029.576.029z"/><path d="m172.18 144.952h7.094c1.769-10.543 5.444-16.756 7.014-19.02h-8.156a59.946 59.946 0 0 0 -5.952 19.02z"/><path d="m164.965 17.155v9.512a66.876 66.876 0 0 0 22.255 12.625v-7.4c-10.873-4.032-19.143-11.6-22.255-14.737z"/><path d="m164.965 49.674a72.358 72.358 0 0 0 22.25 12.669v-7.443c-10.291-4.017-18.332-10.842-22.251-14.6z"/><path d="m126.936 183.142a62.258 62.258 0 0 1 8.934 22.312q2.647-3.091 5.8-6.177a70.476 70.476 0 0 0 -9.721-21.262q-1.84 1.886-3.825 3.871s-.434.44-1.188 1.256z"/><path d="m119.486 237.986c.327-1.725.717-3.453 1.215-5.183.534-1.856 1.177-3.739 1.916-5.638a62.545 62.545 0 0 0 -14.227-18.379q-1.743 3.065-3.419 6.405a54.767 54.767 0 0 1 14.515 22.795z"/><path d="m95.267 268.148a52.835 52.835 0 0 0 24.786 6.117c1.553 0 3.157-.071 4.8-.213a55.438 55.438 0 0 1 -3.024-6.824 45.493 45.493 0 0 1 -27.539-7.828 72.738 72.738 0 0 0 .977 8.748z"/><path d="m141.612 293.4c-12.425 10.523-27.047 8.851-30.624 8.239a67.56 67.56 0 0 0 6.791 6.832c.238.208.494.408.737.614a44.085 44.085 0 0 0 29.229-11.766 57.1 57.1 0 0 1 -6.133-3.919z"/><path d="m172.588 304.461c-2.639 13.236-10.75 19.459-15.43 22.011 3.227.574 6.606 1.026 10.165 1.323 5.172-4.611 10.52-12.011 12.41-23.508a45.883 45.883 0 0 1 -7.145.174z"/><path d="m203.015 323.52a72.38 72.38 0 0 0 8.713-3.825c1.751-6.981 2.558-17.767-2.211-31.634a45.719 45.719 0 0 1 -5.537 5.7c4.495 15.816.775 26.149-.965 29.759z"/><path d="m220.206 258.943a49.488 49.488 0 0 1 -.834 7.743c6.535 4.285 16.582 12.634 19.71 24.909a70.69 70.69 0 0 0 3.811-9.726c-5.981-12.035-16.893-19.581-22.687-22.926z"/><path d="m213.125 225.564q1.276 3.273 2.421 6.8a35.038 35.038 0 0 1 29.006 11.954c-.535-3.624-1.268-7.436-2.238-11.395a42.537 42.537 0 0 0 -29.189-7.359z"/><path d="m226.357 195.309c-11.809-2.04-22.585 1.02-27.775 2.932 1.07 1.531 2.434 3.572 3.958 6.056 5.96-1.952 17.466-4.544 28.7-.484-1.485-2.821-3.103-5.658-4.883-8.504z"/><path d="m172.349 317.928c-67.059-1.958-76.46-64.522-76.015-79.928-6.307 25.654 1.425 53.039 21.445 70.469 12.616 10.985 31.656 19.772 60.285 19.772 0 0 53.832.969 66.287-51.691 1.112-4.7 2.1-14.1.936-26.2-.112 1.26-6.48 69.519-72.938 67.578z"/><path d="m119.976 261.106h.007a55.378 55.378 0 0 1 .718-28.3c3.394-11.8 10.716-24.573 24.688-37.014a250.23 250.23 0 0 0 23.311-22.892 73.636 73.636 0 0 0 10.684-15.869l1.864-7.933-11.6 2.208s-3.048 15.439-33.082 40.432-16.59 69.368-16.59 69.368z"/></g></svg>