<svg id="icon" height="512" viewBox="0 0 340 340" width="512" xmlns="http://www.w3.org/2000/svg"><path d="m222.145 129.321s39.185-26.384 90.449-28.779a5.676 5.676 0 0 0 4.834-3.235l.278-.577a4.558 4.558 0 0 1 4.911-2.516l.465.083a4.56 4.56 0 0 1 3.757 4.488l2.146.2a6.1 6.1 0 0 1 5.41 7.351l-.54 2.522a8.853 8.853 0 0 1 -7.182 6.883c-16.035 2.687-53.455 8.9-85.455 39.4 0-.007-18.255-12.188-19.073-25.82z" fill="#ffd0b0"/><path d="m333.855 108.853.54-2.522c-3.022 6.577-12.321 6.324-12.321 6.324-31.568 1.268-56.94 15.535-68.435 23.225a9.256 9.256 0 0 1 -11.382-.806c-.7-.646-1.371-1.192-1.963-1.641a16.593 16.593 0 0 1 -4.016-4.449 28.363 28.363 0 0 0 -4.3-5.416c-6.308 3.383-9.83 5.753-9.83 5.753.818 13.632 19.073 25.813 19.073 25.813 31.992-30.487 69.4-36.708 85.442-39.4a8.855 8.855 0 0 0 7.192-6.881z" fill="#ef9e9e"/><path d="m199.569 94.143s13.573-14.982 2.979-33.851c0 0-15.89-27.145-42.373-8.607 0 0-27.066-4.21-37.915 31.225a50.343 50.343 0 0 0 -1.852 9.329c-1.757 16.174-10.394 79.465-39.972 104.2a15.63 15.63 0 0 1 -9.859 3.63c-6.1.059-17.086 1.627-24.643 11.082a15.829 15.829 0 0 0 -2.823 15.2c1.7 4.676 6 9.228 16.428 8.731 0 0-.662 18.538 13.573 20.524 0 0 13.572 1.656 13.9 14.235l116.194 7.945 6.621-64.553-23.169-103.285z" fill="#373d4c"/><path d="m204.371 126.188 6.375-1.474s8.034-2.73 12.929 0c0 0 3.69 1.825 5.9 7.3a14.138 14.138 0 0 0 5.3 6.526c4.489 2.957 11.178 8.854 12.1 18.135a23.054 23.054 0 0 1 -8.975 21.053l-47.09-15.4-12.307-30.8 10.355-6.6z" fill="#aad2fc"/><path d="m232.4 136.452a14.351 14.351 0 0 1 -2.83-4.441c-2.206-5.472-5.9-7.3-5.9-7.3-4.9-2.73-12.929 0-12.929 0l-6.375 1.474-15.415-1.257-10.355 6.6 4.487 11.229 9.6 7.252s25.917 5.903 39.717-13.557z" fill="#5884cc"/><path d="m215.087 164.308c-2.5-.041-9.646-.664-11.218.117l34.131 13.303a22.3 22.3 0 0 0 6.563-7.822c-4.78-1.871-12.163-5.306-29.476-5.598z" fill="#5884cc"/><path d="m127.691 134.768s-46.782-23.632-99.269-11.268l-.839-1.545a7.7 7.7 0 0 0 -10.039-3.3l-.494.232a7.7 7.7 0 0 0 -4.285 5.47l-.665 3.343a16.041 16.041 0 0 1 -2.741 6.278l-2.133 2.944a9.248 9.248 0 0 0 .045 10.911l.712.965a9.228 9.228 0 0 0 12.477 2.269q.322-.212.657-.425c11.79-7.536 25.915-8.77 39.811-7.132 17.229 2.032 37.268 8.915 58.926 25.108 0-.004 19.381-11.018 7.837-33.85z" fill="#ffd0b0"/><path d="m128.142 135.725c-.057.235-.112.48-.164.739-1.675 8.4-5.936 12.5-9.475 14.492a9.323 9.323 0 0 1 -8.838.1l-14.051-7.244c-44.827-18.124-73.756-2.2-73.756-2.2-7.733 5.842-13.2 4.687-16.025 3.223a9.179 9.179 0 0 0 1.438 3l.712.965a9.228 9.228 0 0 0 12.477 2.269q.322-.212.657-.425c11.79-7.536 25.915-8.771 39.811-7.132 17.229 2.032 37.268 8.915 58.926 25.108 0-.006 18.812-10.72 8.288-32.895z" fill="#ef9e9e"/><path d="m190.908 240.554s-4.072 17.226-34.763 16.286c0 0-98.027-10.462-129.971 70.716h80.175l84.559-68.211z" fill="#5884cc"/><path d="m246.967 250.576s16.285 5.512 41.236 6.228a91.175 91.175 0 0 0 12.713-.5c6.587-.734 20.953-1.028 30.5 8.368v45.1z" fill="#5884cc"/><path d="m214.7 163.081c-27.9-7.728-27.476-26.617-27.476-26.617h14.115a7.871 7.871 0 0 0 7.42-5.169c.662-1.838 1.25-3.775 1.773-5.762a.76.76 0 0 0 -.627-.935 13.37 13.37 0 0 1 -4.09-1.343c-7.532-3.981-5.89-15.194 2.326-17.446a18.577 18.577 0 0 1 4.588-.627 1.355 1.355 0 0 0 1.331-1.237c.179-1.992.311-3.808.4-5.351a6.426 6.426 0 0 0 -2.932-5.783 5.926 5.926 0 0 0 -3.227-.878h-.483a6.365 6.365 0 0 1 -5.72-3.59c-13.537-27.856-37.631-19.28-37.631-19.28 9.323 29.754.133 64.476.133 64.476-4.6 18.907-1.372 28.849-1.372 28.849l4.673 27.739 40.355 11.591 15.026-23.182c2.583-9.016-8.582-15.455-8.582-15.455z" fill="#ffd0b0"/><path d="m211.533 194.013 2.981-5.273c-4.436-2.615-9.693-7.346-12.95-10.463a.911.911 0 0 0 -1.449 1.056 46.383 46.383 0 0 0 11.418 14.68z" fill="#ef9e9e"/><path d="m164.607 133.539c-4.6 18.907-1.372 28.849-1.372 28.849l4.673 27.739 17.222 4.946a27.443 27.443 0 0 1 -10.56-12c-3.443-7.389-5.067-15.794-5.753-23.412a106.694 106.694 0 0 1 1.536-28.855c2.066-11.232 3.444-26.921 3.444-26.921.271-23.555-9.323-34.826-9.323-34.826 9.326 29.758.133 64.48.133 64.48z" fill="#ef9e9e"/><path d="m127.691 134.768s21.282 7.873 32.886 20.188a8.082 8.082 0 0 1 2.088 4.364c1.12 7.521 6.789 31.062 33.94 32.048a19.111 19.111 0 0 0 19.753-20.925 35.418 35.418 0 0 0 -1.655-7.362s16.774.482 26.267 14.51a25.119 25.119 0 0 1 3.408 7.614c1.963 7.348 4.391 23.413-7.593 34.364l3.953 15.812a15.451 15.451 0 0 0 10.026 10.865c16.226 5.528 53.969 21.2 80.651 54.317v26.993h-251.384s12.948-42.421 93.116-64.184c0 0 12.331-3.821 12.861-17.531a17.11 17.11 0 0 0 -8.789-15.305c-4.564-2.644-10.288-7.9-12.612-18.13a31.655 31.655 0 0 1 -12.8 4.312c-13.154 1.432-24.4-10.082-21.633-23.02q.119-.56.274-1.128s-15.152-3.03-16.254-18.733c0 0-.679-10.408 6.371-18.306a28.617 28.617 0 0 0 5.439-8.57c1.441-3.694 2.667-8.387 1.687-12.193z" fill="#aad2fc"/><path d="m186.955 98.817a2.564 2.564 0 0 1 -.393-5.1 5.646 5.646 0 0 0 2.672-1.495 2.564 2.564 0 1 1 3.567 3.684 10.6 10.6 0 0 1 -5.48 2.883 2.523 2.523 0 0 1 -.366.028z" fill="#e88787"/><path d="m157.778 215.454a29.749 29.749 0 0 0 6.829-3.048 65.168 65.168 0 0 1 .819-16.115 1.029 1.029 0 0 0 -1.886-.725 37.617 37.617 0 0 0 -5.762 19.888z" fill="#5884cc"/><path d="m192.686 150.012c-5.6-6.977-5.459-13.548-5.459-13.548h-11.679a1.746 1.746 0 0 0 -1.192 3.023c3.572 3.341 10.15 8.506 18.33 10.525z" fill="#ef9e9e"/><path d="m177.348 230.617a17.7 17.7 0 0 1 7.813 9.453c16.542 3.437 27.121-4.556 31.656-9.165a9.4 9.4 0 0 1 6.759-2.783 36.551 36.551 0 0 0 14.673-2.7l-1.464-5.855c-5.8 3.311-12.418 2.631-15.689 2.61a9.135 9.135 0 0 0 -6.063 2.27 47.263 47.263 0 0 1 -6.385 4.637 24.476 24.476 0 0 1 -10.661 3.495 53.877 53.877 0 0 1 -20.639-1.962z" fill="#5884cc"/><path d="m86.936 24.611a9.421 9.421 0 0 0 -4.376 7.98v33.568c-1.677-.221-3.575-.4-5.662-.5a10.233 10.233 0 0 0 -10.917 8.551 3.945 3.945 0 0 0 3.9 4.609h11.992a8.665 8.665 0 0 0 8.666-8.665v-24.148a6.132 6.132 0 0 1 4.475-5.9l11.745-3.3a7.9 7.9 0 0 0 5.628-6.136l3.128-16.491c-14.102 2.487-23.541 7.257-28.579 10.432z" fill="#f45a4e"/><path d="m286.064 57.416-4.626-40.906a4.568 4.568 0 0 0 -6.045-3.805 154.822 154.822 0 0 0 -26.678 12.059 8.343 8.343 0 0 0 -4 8.813l5.047 25.531a3.663 3.663 0 0 1 -2.619 4.23q-.559.157-1.064.325a5.9 5.9 0 0 0 -1.187 10.662l.1.059a5.635 5.635 0 0 0 4.094.59c9.365-2.244 8.883-8.817 8.224-11.585-.362-1.524-.722-3.048-1.012-4.587l-2.781-14.747a3.4 3.4 0 0 1 2.577-3.943l18.129-4.176a3.464 3.464 0 0 1 4.218 2.974l1.49 12.769a3.631 3.631 0 0 1 -2.785 3.979 25.828 25.828 0 0 0 -2.548.7 5.9 5.9 0 0 0 -1.187 10.663l.1.058a5.637 5.637 0 0 0 4.094.59c8.08-1.94 8.828-7.095 8.459-10.253z" fill="#ffca58"/></svg>