<svg id="flat" height="512" viewBox="0 0 340 340" width="512" xmlns="http://www.w3.org/2000/svg"><path d="m23.9 167.7a13.332 13.332 0 0 1 11.908-19.36h27.24a24.783 24.783 0 0 1 23.618 16.7 37.159 37.159 0 0 1 1.695 13.514l-40.278 7.507-23.925-17.873c-.086-.163-.172-.328-.258-.488z" fill="#e3edfc"/><path d="m24.165 168.184a40.855 40.855 0 0 0 23.725 19.544l10.715-2.428c-.131-.89-.24-1.776-.314-2.652 0-.001-8.676-22.281-34.126-14.464z" fill="#bacfe5"/><path d="m53.038 212.675 40.022-17.3s11.871 20.52 36.8 23.911l-17.806 51.384s-45.954-7.459-59.016-57.995z" fill="#f74f73"/><path d="m112 213.256a46.132 46.132 0 0 1 -9.636 15.228 16.238 16.238 0 0 1 -24.2-.775 76.6 76.6 0 0 1 -12.2-20.62l-12.924 5.585c13.058 50.537 59.016 58 59.016 58l17.806-51.385a49.676 49.676 0 0 1 -17.862-6.033z" fill="#c12140"/><path d="m49.056 186.591a88.372 88.372 0 0 0 9.235-3.944 218.309 218.309 0 0 1 25.6-5.411 13.257 13.257 0 0 1 13.5 6.8c.521.971 1.039 2.024 1.531 3.15a13.333 13.333 0 0 1 -4.082 15.949 150.769 150.769 0 0 1 -23.5 14.9s-7.046 2.271-10.7 3.473c-5.817 1.911-11.669-.745-14.938-5.922a44.148 44.148 0 0 1 -6.011-15.026c-1.441-6.776 2.736-11.974 9.365-13.969z" fill="#e3edfc"/><path d="m17.368 23.813 13.707-8.189s10.268 27.305 34.357 33.467l-30.085 1.068s-14.419-10.325-17.979-26.346z" fill="#c12140"/><path d="m106.2 23.813-13.71-8.189s-10.268 27.305-34.357 33.467l30.085 1.068s14.419-10.325 17.982-26.346z" fill="#f74f73"/><path d="m253.807 140.446c26.246 5.479 67.3 23.225 77.275 80.391 0 0 10.943 52.162-33.194 72.59 0 0-128.766 22.981-187.129 2.918 0 0-17.874-43.956 17.144-75.053z" fill="#f74f73"/><path d="m144.913 93.143s-2.865 25.722 0 50.146h65.547l5.188-44.958s-45.285-9.511-70.735-5.188z" fill="#ffcac0"/><path d="m231.282 138.033-71.017 57.2-1.282 47.348c104.462 7.775 96.925-85.791 94.824-102.128a104.629 104.629 0 0 0 -22.525-2.42z" fill="#c12140"/><path d="m144.913 93.143s-.464 4.173-.832 10.747c9.753-.774 41.412-2.218 69.962 8.35l1.6-13.909s-45.28-9.511-70.73-5.188z" fill="#e5837c"/><path d="m208.36 99.5v12.5a25.056 25.056 0 0 1 -13.935 22.586c-8.221 4-21.076 6.793-40.985 4.616a19.328 19.328 0 0 0 -16.186 5.872 86.052 86.052 0 0 0 -19.993 34.559s-.958 13.139-1.1 20.95c-.333 17.793 10.473 28.905 27.483 34.141 45.586 14.031 72.384-10.008 83.532-31.788 7.415-14.488 9.165-30.179 8.592-46.443-.527-14.943-4.118-39.278-10.673-52.942z" fill="#fff"/><path d="m237.672 157.1c-.526-14.943-6.026-39.881-12.581-53.545l-16.731-4.055v10.8q1.351.423 2.7.881a12.519 12.519 0 0 1 8.347 10.488c3.67 32.618 1.662 92.32-50.344 97.6-39.1 3.968-49.585-27.209-51.8-39.63a81.191 81.191 0 0 0 -3.237 21.1 39.115 39.115 0 0 0 27.319 37.985c46.351 14.98 76.216-12.221 87.473-34.214 7.415-14.487 9.427-31.145 8.854-47.41z" fill="#d6e0ea"/><path d="m144.913 69.127s11.158-46.7 61.161-40.5 57.441 56.2 57.441 56.2l-4.959 5.579s-22.315-15.08-29.956 5.994z" fill="#f74f73"/><path d="m263.515 84.831a77.072 77.072 0 0 0 -14.6-32.456c-4.988 10.425-19.448 28.6-59.687 19.011l-2.849 11.258 42.221 13.756c7.645-21.076 29.961-5.992 29.961-5.992z" fill="#c12140"/><path d="m144.612 64.941a171.693 171.693 0 0 1 44.621 6.443c8.72 10.655 8.349 19.5-.564 26.645a176.411 176.411 0 0 0 -43.263-1.038 6.833 6.833 0 0 1 -7.368-5.724c-.863-5.371-1.612-13.331-.253-20.664a6.878 6.878 0 0 1 6.827-5.662z" fill="#e3edfc"/><circle cx="266.651" cy="94.715" fill="#e3edfc" r="14.245"/><path d="m163.171 127.41c-4.847 2.243-10.315 6.588-11.474 14.908a10.876 10.876 0 0 0 1.1 6.75 9.42 9.42 0 0 0 3.265 3.489 10.073 10.073 0 0 0 11.086-.542c4.665-3.279 11.8-10.035 8.73-19.234a9.248 9.248 0 0 0 -12.707-5.371z" fill="#f27999"/><path d="m12.532 69.03h101.482v79.305h-101.482z" fill="#a0bcf2"/><path d="m7.715 47.379h111.116v23.413h-111.116z" fill="#a0bcf2"/><path d="m12.532 70.792h101.482v13.707h-101.482z" fill="#6281cc"/><path d="m271.517 250.318c9.778-7.53 10.512-23.863 9.749-34.762a1.684 1.684 0 0 0 -3.3-.354 51.545 51.545 0 0 1 -3.267 8.378 33.5 33.5 0 0 1 -14.6 14.777 41.132 41.132 0 0 0 -17.015 16.011s-10.392.3-17.524 12.579c0 0-4.687 7.237-11.208 10.371 0 0-13.145 8.314-7.085 26.716a658.826 658.826 0 0 0 89.852-10.473z" fill="#c12140"/><path d="m50.321 47.379h25.905v100.956h-25.905z" fill="#f74f73"/><path d="m173.746 296.473v27.1a612.98 612.98 0 0 0 67.046-3.335l-19.007-27.37a257.083 257.083 0 0 1 -48.039 3.605z" fill="#4a4a60"/><path d="m151.575 295.312c-17.522-1.578-32.283-4.477-41.836-7.248-3.856-1.119-7.766 1.726-8.476 5.677a39.582 39.582 0 0 0 .19 14.327 7.093 7.093 0 0 0 3.914 5c11.419 5.52 28.257 8.361 46.208 9.64z" fill="#4a4a60"/><path d="m145.081 297.344-1.225 21.842a3.655 3.655 0 0 0 3.311 3.854c9.341.829 19.145 1.261 28.672 1.336a3.659 3.659 0 0 0 3.671-3.477l1.1-21.372a3.657 3.657 0 0 0 -3.61-3.847c-9.824-.087-19.21-.858-27.882-1.773a3.658 3.658 0 0 0 -4.037 3.437z" fill="#ffb655"/><circle cx="179.369" cy="114.203" fill="#e5837c" r="4.173"/><circle cx="158.983" cy="114.203" fill="#e5837c" r="4.173"/><path d="m172.059 168.241a3 3 0 0 1 -.125-6c.524-.025 12.164-.7 13.884-10.9a3 3 0 0 1 5.916 1c-2.029 12.045-13.679 15.667-19.554 15.9z" fill="#3c3c4f"/><path d="m255.68 268.778a27.343 27.343 0 0 0 -14.53-1.461 8.681 8.681 0 0 0 -6.869 6.118 8.741 8.741 0 0 1 -4.5 5.335c-6.29 3.121-18.765 11.375-12.942 25.793 0 0 5.492 16.756 36.681 16.756s38.055-21.549 38.055-21.549z" fill="#e3edfc"/><path d="m290.665 298.984-31.336-27.056-3.61-.5a138.492 138.492 0 0 1 6.582 15.747 15.363 15.363 0 0 1 -9.252 19.574c-8.412 2.97-19.435 4.711-33.187 2.688 4.173 4.947 13.594 11.88 33.66 11.88 31.189 0 38.055-21.549 38.055-21.549z" fill="#bacfe5"/><path d="m276.179 249.446a129.869 129.869 0 0 1 20.512 18.454s7.683 10.754 10.705 16.829a9.211 9.211 0 0 1 -1.456 10.971 47.087 47.087 0 0 1 -11.259 8.862c-4.856 2.865-9.909 1.831-13.2-2.747a112.366 112.366 0 0 0 -7.6-8.416 196.477 196.477 0 0 0 -18.324-20.85 10.859 10.859 0 0 1 -.757-14.917 58.338 58.338 0 0 1 8.2-7.924 10.926 10.926 0 0 1 13.179-.262z" fill="#e3edfc"/><path d="m306.518 296.493a10.781 10.781 0 0 0 1.647-11.954 78.361 78.361 0 0 0 -11.476-16.639c-1.212 5.619-5.8 18.34-22.809 25.5 2.678 3.452 5.058 6.675 6.972 9.338a10.9 10.9 0 0 0 14.386 3.015 47.582 47.582 0 0 0 11.28-9.26z" fill="#bacfe5"/><path d="m188.669 98.031c17.258 2.668 29.293 7.6 36.069 11.063a4.489 4.489 0 0 0 6.544-3.987v-6.755a7.258 7.258 0 0 0 -2.208-5.217c-11.284-10.915-25.792-17.624-39.839-21.745.047.083 7.791 13.679-.566 26.641z" fill="#bacfe5"/><path d="m224.449 112.332a66.281 66.281 0 0 0 1.624 19.039 3.953 3.953 0 0 0 4.645 2.942c5.333-1.1 14.5-4.513 13.587-14.888 0 0-.683-12.054-16.318-10.76a3.893 3.893 0 0 0 -3.538 3.667z" fill="#ffcac0"/><path d="m58.291 182.648c-3.95 1.055-7.6 2.106-10.688 3.035a13.318 13.318 0 0 0 -9.192 15.511 49.091 49.091 0 0 0 6.6 15.847 13.341 13.341 0 0 0 15.46 5.519 82.837 82.837 0 0 0 10.867-4.535c-.085-.138-11.691-19.26-13.047-35.377z" fill="#bacfe5"/></svg>