<svg id="Flat" height="512" viewBox="0 0 340 340" width="512" xmlns="http://www.w3.org/2000/svg"><path d="m105.745 252.526a37.811 37.811 0 1 0 37.81 37.811 37.811 37.811 0 0 0 -37.81-37.811zm0 58.582a20.772 20.772 0 1 1 20.771-20.771 20.771 20.771 0 0 1 -20.771 20.771z" fill="#474756"/><path d="m105.97 294.67c-.086 0-.172 0-.258 0a7 7 0 0 1 -6.742-7.249l2.337-64.486a7 7 0 0 1 13.991.508l-2.337 64.485a7 7 0 0 1 -6.991 6.742z" fill="#dae5f7"/><path d="m218.816 267.266a16.589 16.589 0 0 1 -9.264-2.827l-67-45.069a7 7 0 0 1 7.814-11.617l67 45.068a2.6 2.6 0 0 0 4.051-2.116l1.566-64.292c.062-3.826 2.789-13.747 6.6-13.747h.118a7 7 0 0 1 6.883 7.114l-1.17 71.156a16.608 16.608 0 0 1 -16.6 16.329z" fill="#8294b9"/><path d="m217.644 192.26 20.576-7.269a30.618 30.618 0 0 0 20.32-26.421l6.975-86.928a16.774 16.774 0 0 1 7.274-12.521l15.558-10.6-7.397-15.621-17.887 10.345a30.618 30.618 0 0 0 -15.158 23.627l-8.205 86.855a16.775 16.775 0 0 1 -10.9 14.162l-19.517 7.2z" fill="#dae5f7"/><path d="m43.689 192.575 40.2 40.374a13.072 13.072 0 0 0 13.739 3.058l89.91-32.773 2.611-74.189z" fill="#89b9f2"/><path d="m274.55 39.456 7.389 12.858a8.363 8.363 0 0 0 11.186 3.231 291.77 291.77 0 0 0 29.62-18.055 14.1 14.1 0 0 0 4.032-18.759 14.074 14.074 0 0 0 -17.753-5.688c-8.615 3.783-20.688 9.3-31.164 14.851a8.368 8.368 0 0 0 -3.31 11.562z" fill="#474756"/><path d="m43.69 192.575 117.06-45.283a17.813 17.813 0 0 1 24.2 15.478l2.584 40.464 30.107-10.974v-94.434l-183.984 84.674z" fill="#5f72ad"/><path d="m15.813 170.116 195.717-83.527a6.763 6.763 0 0 1 9.4 6.744l-.3 3.829a11.659 11.659 0 0 1 -7 9.8l-183.418 79.29a14.474 14.474 0 0 1 -17.459-4.734l-.15-.209a7.488 7.488 0 0 1 3.21-11.193z" fill="#89b9f2"/></svg>