<svg id="flat" height="512" viewBox="0 0 500 500" width="512" xmlns="http://www.w3.org/2000/svg"><path d="m352.11 418.544c-34.485-23.914-83.993 9.111-91.443 35.195l-2.786 29.821 33.109-.533c-13.218-48.247 75.7-72.079 60.16-15.334-.568 2.075 2.6 3.228 4.114 1.694 9.267-9.406 21.664-32.687-3.154-50.843z" fill="#4f424c"/><path d="m269.865 436.514c6.771-133.894 30.2-267.431 76.793-393.376 1.431-4.047-4.9-6.12-6.326-2.086-45.46 126.475-72.307 260.7-75.711 395.2.055 3.35 5.012 3.663 5.244.259z" fill="#ffd68d"/><path d="m445.123 207.953c-6.9 1.063-17.4 9.778-14.443 17.469 1.01 3.838 5.831 5.464 9.532 5.968 7.262.989 16.425-3.679 18.068-11.279 1.767-8.178-5.68-13.355-13.157-12.158z" fill="#f2a95b"/><path d="m417.789 210.248c-7.347-5-15.3.558-16.638 8.433-1.059 6.235 3.258 22.147 11.565 21.006 4.128-.124 6.96-4.7 8.6-8.109 3.208-6.684 3.23-16.733-3.527-21.33z" fill="#f2a95b"/><path d="m407.466 244.04c-4.195-.164-11.212.745-13.108 5.132-3.718 6.427 7.567 15.443 13 17.31 20.988 5.262 21.542-21.357.108-22.442z" fill="#f2a95b"/><path d="m377.776 267.342a1.762 1.762 0 0 0 1.363-.471c4.331-.724 6.222-5.919 7.59-9.516 2.589-7.443 1.233-17.9-6.231-22.091-8.052-4.521-15.9 1.906-16.576 10.216-.998 6.873 6.61 21.043 13.854 21.862zm.046-.344c-.345.034-.473-.019 0 0z" fill="#f2a95b"/><path d="m369.171 274.046c-4.069 1.16-8.933 3.256-10.169 7.46a1.9 1.9 0 0 0 -.588 1.46c.645 7.9 13.545 14.355 20.651 14.27 21.99-2.315 12.844-29.287-9.894-23.19z" fill="#f2a95b"/><path d="m346.094 299.747a1.668 1.668 0 0 0 1.344-1.061 7.683 7.683 0 0 0 3.16-4.049c5.135-12.345-.973-32.692-16.583-32.407-10.249.591-13.446 11.561-10.326 19.939 2.193 6.783 14.973 18.792 22.405 17.578zm.465-.537a1.82 1.82 0 0 1 .213-.133c-.332.369-.52.353-.213.133z" fill="#f2a95b"/><path d="m347.613 305.817c-5.634.659-12.8 2.11-15.624 7.609-2.048 5.037 4.327 10.331 7.6 13.5 3.911 3.569 8.309 6.5 13.618 7.376 26.132 1.957 21.119-30.35-5.594-28.485z" fill="#f2a95b"/><path d="m276.911 440.845c2.354-19.064 11.5-36.551 18.877-54.069 29.009-64.782 75.82-122.332 137.327-158.616 3.613-2.177.318-7.854-3.312-5.667-70.284 42.189-121.043 109.547-149.691 185.753-4 10.443-8.648 21.195-7.889 32.6a2.346 2.346 0 0 0 4.688 0z" fill="#f2a95b"/><path d="m258.68 463.065c11.089-32.363 24.24-65.252 49.661-89.2 14.158-13.631 57.958-27.747 63.741-28.93l7.62-8.887c-64.236-1.236-116.25 55.984-127.009 125.372a3.107 3.107 0 0 0 5.987 1.649z" fill="#919951"/><path d="m66.41 142.86a3.38 3.38 0 0 0 4.42-2.557c1.821-8.578 1.509-18.608-5.739-24.7-6.185-5.2-15.67-4.71-20.715 1.844-10.243 13.308 8.733 28.54 22.034 25.413z" fill="#f2a95b"/><path d="m87.18 159.88c6.547-5.613 13.527-15.438 9.685-24.124a2.666 2.666 0 0 0 -.651-1.3 2.811 2.811 0 0 0 -.99-1.028c-5.675-5.41-14.568-5.887-18.055 2.594-3.145 7.651 1.385 16.861 5.845 23.049.866 1.206 2.903 1.892 4.166.809z" fill="#f2a95b"/><path d="m112.815 190.485c7.154-6.07 15.048-17.164 10.55-26.629a4.418 4.418 0 0 0 -1.47-2.1c-6.029-6.153-15.942-6.494-19.7 2.61-3.465 8.388 1.566 18.537 6.456 25.31.869 1.21 2.895 1.886 4.164.809z" fill="#f2a95b"/><path d="m138.945 223.179c7.4-6.225 15.545-17.784 10.892-27.52a4.43 4.43 0 0 0 -1.466-2.088c-6.193-6.352-16.4-6.729-20.277 2.643-3.584 8.667 1.634 19.164 6.685 26.16.874 1.21 2.893 1.876 4.166.805z" fill="#f2a95b"/><path d="m171.706 226.83c-5.341-7.147-16.528-8.319-21.059.729-4.522 8.973 1.057 20.315 6.384 27.694.874 1.211 2.893 1.877 4.166.805 7.858-6.581 16.509-19.15 10.509-29.228z" fill="#f2a95b"/><path d="m146.1 253.459c-25.342 1.42-14.958 45.134 24.789 21.2a3.029 3.029 0 0 0 .805-4.166c-5.877-7.893-15.094-16.985-25.594-17.034z" fill="#f2a95b"/><path d="m146.2 237.77a3.064 3.064 0 0 0 .3-4.742c-6.387-6.689-16.645-14.344-26.464-12.085-22.123 6.965-5.136 41.572 26.164 16.827z" fill="#f2a95b"/><path d="m124.3 204.659a3.028 3.028 0 0 0 -.278-4.233c-6.595-5.4-16.384-11.141-25.187-8.509-19.904 7.074-2.235 40.333 25.465 12.742z" fill="#f2a95b"/><path d="m98.868 173.611a3.027 3.027 0 0 0 -.278-4.233c-6.58-5.38-16.8-11.313-25.446-7.675-17.277 8.257.102 37.531 25.724 11.908z" fill="#f2a95b"/><g fill="#ffd68d"><path d="m342.486 42.6a1.927 1.927 0 0 0 1.1.369c2.8 1.892 6.579-.251 9.039-1.836 6.13-4.019 9.234-12.4 6.816-19.443-2.82-8.216-12.656-9.124-18.024-2.948-5.182 5.958-5.833 18.932 1.069 23.858z"/><path d="m322.579 66.076c3.225 2.251 9.155 6.631 12.759 3.27 3.792-2.309 3.824-8.315 3.386-12.289-.831-7.516-6.329-15.95-14.681-15.868-8.2.079-11.658 8.486-9.169 15.438 1.438 4.014 4.296 6.993 7.705 9.449z"/><path d="m310.639 108.073c4.084 1.321 10.684 3.686 13.751-.3 2.94-2.8 1.216-9.253.135-12.353-2.634-7.557-10.212-15.115-18.857-13.548-9.584 1.736-11.03 12.546-5.659 19.332 2.718 3.432 6.55 5.48 10.63 6.869z"/><path d="m295.461 152.538c4.039 1.376 12.589 4.684 15.21-.2 3.038-3.476 1.3-8.915.075-12.812-2.728-7.811-10.261-15.428-19.138-14.371-10.118 1.2-12.463 12.178-7.151 19.663 2.703 3.808 6.681 6.145 11.004 7.72zm14.59.488c-.344.5-.634.49 0 0z"/><path d="m284.969 194.635c4.147 1.355 12.855 4.775 15.524-.219 2.891-3.561 1.425-8.877.232-12.843-2.743-8.447-10.71-16.881-20.291-15.753-10.785 1.27-13.071 13.115-7.215 20.915 2.952 3.932 7.181 6.296 11.75 7.9zm14.86.509c-.312.427-.541.464 0 0z"/><path d="m289.538 240.63c3.1-4.084 1.325-9.872-.156-14.257-3.048-8.341-11.525-16.675-21.105-14.95-10.731 1.933-12.275 13.982-6.3 21.569 3.008 3.818 7.236 6.131 11.751 7.716 4.219 1.369 12.93 4.803 15.81-.078z"/><path d="m292.587 218.458c4.823 5.595 23.3 3.739 28.618-.942 8.135-6.025 9.077-18.559-1.447-22.653-8.893-3.46-18.84 2.219-23.971 9.445-2.322 3.474-5.35 8.087-3.7 12.408a2.166 2.166 0 0 0 .5 1.742z"/><path d="m314.375 245.055c-9.359-4.292-20.306 1.442-26.117 8.963-2.976 4.108-6.364 9.348-4.9 14.622 1 5.669 12.164 5.19 16.54 5.03 5.48-.22 10.8-1.311 15.27-4.672 8.324-6.26 9.847-19.064-.793-23.943z"/><path d="m329.862 152.7c-8.414-3.822-18.161 1.527-23.153 8.414-2.282 3.316-5.2 7.8-3.548 11.945.815 5.36 10.274 4.96 14.409 4.817 4.658-.192 9.211-1.147 13.023-3.979 7.412-5.51 8.683-16.921-.731-21.197z"/><path d="m338.72 114.244c-7.506-4.222-16.966.587-21.767 6.714-2.394 3.223-5.585 7.855-3.738 12 .964 4.705 8.1 4.515 11.913 4.549 4.494-.023 8.945-.688 12.769-3.193 7.277-4.768 9.311-15.297.823-20.07zm-25.031 19.756c.007.011.016.019.023.029.012.044-.001.021-.023-.029z"/><path d="m353.321 73.042c-6.356-4.77-15.579-2.174-21.039 2.735-2.6 2.411-6.159 5.943-5.068 9.838 1.144 8.129 17.347 8.344 23.006 5.652 7.189-3.437 10.227-12.878 3.101-18.225z"/></g><path d="m65.405 142.134c26.14 24.258 47.979 53.659 68.676 82.529 43.652 61.3 83.007 126.682 108.124 197.9 1.246 3.534 6.48 1.667 5.469-1.9-26.489-86.729-112.19-220.683-178.174-283.201-3.068-2.576-7.03 1.951-4.1 4.672z" fill="#f2a95b"/><path d="m177.305 394.722c-50.643-11.816-75.449 28.478-77.877 45.924 83.817-58.183 131.349 44.129 158.905 44.129 0 0-24.778-76.929-81.028-90.053z" fill="#4f424c"/><path d="m106.281 481.744c-13.448-18.679-6.853-41.1-6.853-41.1 11.466-20.638 48.052-25.386 69.816-15.173-21.835-4.779-52.711 9.058-58.631 55.156a2.408 2.408 0 0 1 -4.332 1.117z" fill="#4f424c"/><path d="m263.645 335.7c-1.1-49.153-19.448-97.028-48.062-136.483a1.53 1.53 0 0 0 -2.709.475c-11.588 39.4-6.9 81.494 6.448 119.856 0 0 8.809 27.068 25.081 36.413 9.823-1.807 17.924-6.112 19.242-20.261z" fill="#bfcc7f"/><path d="m163.391 327.46c-35-24.942-69.811-51.98-109.013-69.593a1.533 1.533 0 0 0 -2.126 1.485c.806 22.126 3.068 44.655 12.63 64.864 0 0 26.47 48.265 104.362 60.162 5.061-18.121 7.199-36.597-5.853-56.918z" fill="#bfcc7f"/><path d="m222.9 384.376c-16.765-22-37.612-40.322-59.515-56.907 2.68 11.881 8.26 29.538-1.045 39.345-6.1 5.9-15.944 4.936-24.172 2.84a145.773 145.773 0 0 1 -73.279-45.442c23.554 53.517 69.029 64.756 117.5 86.278 0 0 29.607 15.982 48.607 12.379 3.727-12.305.377-22.748-8.096-38.493z" fill="#919951"/><path d="m198.979 416.351c-5.552-1.856-11.071-3.853-16.593-5.856 30.95 15.15 60.5 41.979 75.718 73.595 1.34-36.393-13.354-70.966-35.207-99.712a76.735 76.735 0 0 1 2.53 20.45c.253 19.766-12.515 16.972-26.448 11.523z" fill="#919951"/><path d="m324.085 358.305c55.154-44.169 153.251-28.211 124.061 51.015a1.522 1.522 0 0 1 -2.849.006 58.841 58.841 0 0 0 -32.727-32.5s-22.528-21.081-57.719-3.386c-15.685-.398-30.41-1.615-30.766-15.135z" fill="#bfcc7f"/><path d="m407.775 370.743c-25.868-24.825-71.151 5.958-83.68-12.424-17.922 13.2-32.592 30.64-44.4 49.765-2.418 11.169 5.879 9.625 19.581 1.667 17-15.983 43.589-26.56 43.589-26.56 21.272-10.675 47.091-15.256 69.7-6.354a31.533 31.533 0 0 0 -4.79-6.094z" fill="#919951"/><path d="m290.313 408.357c-2.8 1.463-9.281 3.835-10.613-.27-13.507 20.433-19.486 41.29-23.2 65.383a41.684 41.684 0 0 0 -.7 11.03c14.221-43.439 46.127-80.853 87.074-101.307-19.838 1.644-34.932 17.351-52.561 25.164z" fill="#919951"/><path d="m263.639 335.7c-5.724 10.264-17.548 12.237-27.07 5.777-7.8-5.257-12.682-13.849-17.236-21.891 15.6 54.792 32.875 165.239 35.842 162.587 10.168-27.993 13.539-85.283 8.464-146.473z" fill="#919951"/><path d="m220.267 232.689c4.032 27.075 11.521 53.587 16.352 80.538a762.5 762.5 0 0 1 15.391 142.426 3.166 3.166 0 0 0 6.329 0c.651-75.626-16.159-150.4-33.743-223.55-.689-2.259-4.637-1.981-4.329.586z" fill="#4f424c"/><path d="m203.785 443.682s20.248 17.777 5.01 38.285c-1.053 1.417-.648 3.311 1.118 3.311h80.646c8.613-3.239-34.663-6.618-12.075-46.077-18.249 14.529-44.437 13.499-74.699 4.481z" fill="#4f424c"/><path d="m64.3 278.15c52.775 93.675 134.933 64.318 175.526 181.489a2.6 2.6 0 0 0 5.018-1.383c-6.038-32.087-27.617-59.693-51.353-81.16-25.744-22.707-59.486-33.187-85-56.279-15.444-13.364-27.767-28.891-40.062-45.08-1.818-2.393-5.61-.382-4.129 2.413z" fill="#4f424c"/><path d="m264.168 453.148c5.681-8.009 9.928-17.085 15.38-25.286a239.626 239.626 0 0 1 16.452-22.029c21.57-25.107 50.127-48.36 84.131-51.874 22.982-1.943 44.473 6.418 56.323 26.765 1.329 2.282 5.443.756 4.413-1.86-12.489-31.711-54.2-36.139-82.5-26.095-33.445 12.021-60.346 37.963-79.965 66.976-6.584 9.843-13.913 20.656-17.678 31.949-.718 2.153 2.283 3.1 3.448 1.454z" fill="#4f424c"/></svg>