<svg id="Flat" height="512" viewBox="0 0 340 340" width="512" xmlns="http://www.w3.org/2000/svg"><path d="m226.63 92.074s20.588-37.625 52.195-53.459l10.994 9.447s-11.235 45.857-47 68.741c.001-.003-12.989-3.784-16.189-24.729z" fill="#e54c5b"/><g fill="#a02a39"><path d="m259.288 103.176q2.319-2.412 4.428-4.917c-16.667-4.554-23.343-18.859-25.216-23.924-1.509 1.977-2.886 3.864-4.123 5.624 3.269 6.941 10.571 18.211 24.911 23.217z"/><path d="m246.247 64.9a39.476 39.476 0 0 0 25.631 22.46q1.767-2.665 3.338-5.306c-16.163-4.082-22.3-15.493-24.52-21.967q-2.323 2.401-4.449 4.813z"/><path d="m264.227 47.9q-2.406 1.856-4.689 3.816c3.366 5.985 10.484 15.37 22.64 17.082.932-2.024 1.768-3.958 2.514-5.778-11.555-.72-17.871-10.05-20.465-15.12z"/><path d="m242.82 116.8c35.764-22.884 47-68.741 47-68.741l-10.994-9.447a92.413 92.413 0 0 0 -16.489 10.762c.889 2.548 3.535 7.935 10.918 12.49 0 0-10.444 33.235-41.6 44.965 4.897 8.141 11.165 9.971 11.165 9.971z"/></g><path d="m296.935 47.993c-13.835 7.337-28.278-9.02-18.635-21.359a19.979 19.979 0 0 1 1.591-1.793 28.554 28.554 0 0 1 14.156-7.741 11.391 11.391 0 0 1 13.853 10.134 21.093 21.093 0 0 1 -5.7 16.694 18.724 18.724 0 0 1 -5.265 4.065z" fill="#ffb664"/><path d="m290.611 39.445a4.753 4.753 0 0 1 -3.428-8.047l1.52-1.582a4.753 4.753 0 0 1 6.856 6.586l-1.519 1.583a4.748 4.748 0 0 1 -3.429 1.46z" fill="#e87b40"/><path d="m54.7 174.083s8.239 34.9-15.994 55.978l41.2 3.393s18.175-28.595 18.659-29.564-2.665-23.264-2.665-23.264l-16.236-8z" fill="#333353"/><path d="m232.008 151.317c-14.337-19.035-39.73-39.384-84.25-46.383 0 0-67.458-12.773-85.819 54.286 0 0-11.512-.767-14.466 9.986a7.535 7.535 0 0 0 7.559 9.478c9.586-.278 25.079 2.141 29.659 19.654 0 0 3.218 19.8-10.4 27.321a20.389 20.389 0 0 1 -12.063 2.233l-15.228-1.657a13.52 13.52 0 0 0 -12.671 5.614 13.207 13.207 0 0 0 -.806 13.589l1.889 3.605a32.1 32.1 0 0 1 3.598 16.957l-2.756 43a10.331 10.331 0 0 0 9.661 10.979c3 .188 6.6.4 10.7.633a6.041 6.041 0 0 0 6.123-4.231 47.591 47.591 0 0 1 5.945-12.4 3.785 3.785 0 0 1 5.076-1.162 13.616 13.616 0 0 1 6.476 9.443l.579 3.43a7.682 7.682 0 0 0 7.276 6.4c3.9.149 7.936.292 12.1.423a7.7 7.7 0 0 0 7.3-4.615l4.118-9.461a4.41 4.41 0 0 1 6.223-2.074l.63.358a9.424 9.424 0 0 1 4.752 7.618l.195 3.164a6.048 6.048 0 0 0 5.955 5.676h.14a15.467 15.467 0 0 0 13.594-7.714l21.823-37.695s64.222 7.672 81.174-49.153a87.336 87.336 0 0 0 -14.086-77.302z" fill="#8d8db2"/><path d="m232.008 151.317a111.11 111.11 0 0 0 -38.556-32.035l-7.117 8.531a6.639 6.639 0 0 1 -5.741 2.353l-21.223-2.077a1.656 1.656 0 0 0 -.98 3.087l22.073 12.567a11.394 11.394 0 0 1 5.221 6.448l1.47 4.623a9.637 9.637 0 0 0 5.626 6.038l13.129 5.221a6.323 6.323 0 0 1 3.664 3.884l3.276 9.875a6.156 6.156 0 0 0 5.618 4.212l29.113 1.059a87.877 87.877 0 0 0 -15.573-33.786z" fill="#333353"/><path d="m145.077 188.679c5.324-.394 12.209-.444 17.9 1.036 0 0 14.439 5.151 11 27.188 0 0-2.135 28.934-43.756 16.2a17.267 17.267 0 0 1 -11.171-22.646 40.386 40.386 0 0 1 9.116-14.013 26.481 26.481 0 0 1 16.911-7.765z" fill="#333353"/><path d="m212.165 97.537-26.528 39.195 3.948 2.182a10.168 10.168 0 0 1 4.783 5.847l2.74 8.7 17.088 4.806 24.809-27.788z" fill="#fff"/><path d="m212.165 97.538-8.698 12.85 7.958 21.004-14.674 20.935.357 1.135 17.447 8.603 28.201-29.157z" fill="#96aef4"/><path d="m192.059 75.153a11.951 11.951 0 0 1 -10.721 10.035 15.349 15.349 0 0 1 -14.6-6.679c-2.5-3.844-3.721-9.456 1.4-16.532 10.249-14.153 28.83-12.206 38.347-2.934 0 0 15.507 14.87 28.513 40.756 0 0 14.153 30.99 44.411 33.918 0 0-1.22-10.981 10.248-13.177q.539-.1 1.059-.172c10.838-1.448 19.392 8.894 16.791 19.514-1.272 5.194-8.184 13.624-21.889 14.647-13.748 1.026-51.37-2.608-74.036-52.044-10.2-22.263-19.523-27.332-19.523-27.332z" fill="#ffb664"/><path d="m90.739 244.907a6.114 6.114 0 0 1 3.724 3.438l10.145 24.14a4.473 4.473 0 0 1 -3.3 6.13 9.579 9.579 0 0 1 -8.508-2.615l-5.55-5.509-3.394 3.6a9.756 9.756 0 0 1 -10.645 2.4 7.126 7.126 0 0 1 -4.013-9.336c2.523-6.166 7.431-15.183 16.15-21.464a6.017 6.017 0 0 1 5.391-.784z" fill="#333353"/><path d="m119.054 210.46s-13.717 34.64 17.746 41.721a1.835 1.835 0 0 0 1.576-3.213c-5.961-4.886-12.728-14.216-7.584-29.688z" fill="#333353"/><path d="m191.611 196.172c-5.736-20.284-21.341-25.542-31.973-26.677a2.343 2.343 0 0 1 -.429-4.569c7.625-2.289 18.373-3.027 28.062 5.3 10.346 8.888 10.478 19.082 8.885 25.887a2.345 2.345 0 0 1 -4.545.059z" fill="#333353"/><path d="m181.06 277.755c2.9-7.794 7.478-10.93 7.478-10.93a42.261 42.261 0 0 0 12.76-11.52 1.334 1.334 0 0 0 -1.856-1.87c-6.926 4.942-15.319 6.9-18.168 7.737a20 20 0 0 0 -11.226 8.5l-5.126 8.1a88.266 88.266 0 0 0 16.138-.017z" fill="#333353"/><path d="m299.577 121.922c3.373 7.876 6.083 22.107-18.137 22.5-33.534.546-53.139-23.494-61.07-43.076-6.38-15.751-14.477-24.289-18.6-27.891a16.841 16.841 0 0 1 -3.761-4.577 13.086 13.086 0 0 0 -7.809-6.416 1.3 1.3 0 0 0 -1.281 2.179c4.126 4.252 3.136 10.511 3.136 10.511s9.323 5.069 19.53 27.332c22.666 49.436 60.288 53.07 74.036 52.044 13.7-1.023 20.617-9.453 21.889-14.647a16.017 16.017 0 0 0 -7.933-17.959z" fill="#e87b40"/><path d="m83.938 212.393s-2.218 22.423-21.073 26.956a1.353 1.353 0 0 1 -1.051-2.453 23.756 23.756 0 0 0 11.7-21.184z" fill="#333353"/><path d="m65.455 148.747a96.207 96.207 0 0 0 -3.516 10.473 40.1 40.1 0 0 1 24.526 9.668 2.7 2.7 0 0 0 4.2-3.242c-3.801-7.518-11.149-15.546-25.21-16.899z" fill="#333353"/></svg>