<svg id="Flat" height="512" viewBox="0 0 340 340" width="512" xmlns="http://www.w3.org/2000/svg"><path d="m259.8 237.423s-13.357-5.6-21.9 1.225l2.829 42.688 5.209 1.42s21.559 2.6 23.483-27.837z" fill="#ffcacf"/><path d="m239.925 269.189.8 12.147 5.209 1.42s21.559 2.6 23.483-27.837l-4.43-8.055s-3.524 22.445-25.062 22.325z" fill="#e5838b"/><path d="m220.2 82.943a141.635 141.635 0 0 0 32.426 8.632 3.018 3.018 0 0 1 2.518 3.832c-1.292 4.343-4.387 11.526-11.084 13.791l-17.398-16.684s-4.352-5.984-6.462-9.571z" fill="#a02a39"/><path d="m222.944 71.269s.556 13.351 17.536 18.045l-10.424 7.549-13.376-16.491z" fill="#a02a39"/><path d="m77.853 107.724 1.096 13.998 4.095 24.19 28.977-7.727-2.97-11.065-7.089-22.25z" fill="#ffcacf"/><path d="m233.907 210.655 4.059-3.438s16.585-4.609 34.605 12.361l-12.771 17.845 9.622 17.5s5.6 4.023 14.346 0c6.017-2.768 20.06-17.949 28.244-27.159a12.891 12.891 0 0 0 1.1-15.679c-8.688-13.133-29.368-39.643-69.039-67.032.001-.004-14.54 23.089-10.166 65.602z" fill="#dae5fc"/><path d="m158.538 273.693s-5.521 3.1-7.458 17.348-3.689 32.779-3.689 32.779h105.542s0-35.628-10.448-46.043z" fill="#333353"/><path d="m279.7 206.221-2.038 1.243a5.492 5.492 0 0 1 -6.373-.452c-4.035-3.364-11.932-9.089-21.284-11.4a8.316 8.316 0 0 1 -6.051-6.169 98.051 98.051 0 0 1 -2.349-15.866 2.869 2.869 0 0 0 -5.621-.612 89.346 89.346 0 0 0 -2.08 37.695l4.029-1.924s16.615-6.123 34.635 10.847l8.5-11.881a1.028 1.028 0 0 0 -1.368-1.481z" fill="#8294be"/><path d="m159.658 245.506-1.12 28.187s34.486 8.849 83.947 4.084a212.637 212.637 0 0 0 -3.924-36.368z" fill="#e54c5b"/><path d="m149.235 145.049-19.735 22.008-8.168-18.6s2.78-8.859-4.125-11.986a8.9 8.9 0 0 0 -5.674-.463l-32.448 7.516a7.37 7.37 0 0 0 -5.342 9.655 17.784 17.784 0 0 0 5.623 7.467 33.107 33.107 0 0 1 8.634 11.199c4.263 8.793 11.21 23.058 16.532 33.677a15.7 15.7 0 0 0 19.586 7.651l30.79-11.629s-.681-36.983-5.673-56.495z" fill="#dae5fc"/><path d="m153.627 176.288a54.654 54.654 0 0 1 -24.434 22.7 13.984 13.984 0 0 1 -16.933-4.4 94.9 94.9 0 0 1 -13.119-23.712l-2.356-5.651a13.453 13.453 0 0 0 -12.414-8.287c-3.962 0-8.329-.9-10.787-4.263.049.167.093.333.155.5a17.784 17.784 0 0 0 5.623 7.467 33.111 33.111 0 0 1 8.638 11.204c4.263 8.792 11.21 23.057 16.532 33.676a15.7 15.7 0 0 0 19.586 7.651l30.79-11.629s-.215-11.613-1.281-25.256z" fill="#8294be"/><path d="m149.235 145.049s.087 47.261 6.6 76.163a15.761 15.761 0 0 1 -.828 9.439c-1.61 3.931-2.429 10.068 4.651 14.855 0 0 52.627 6.113 78.9-4.1 0 0 3.924-6.09 1.443-12.355a28.2 28.2 0 0 1 -2.161-10.371c0-14.544.64-49 6.231-73.634 0 0-34.033-12.285-39.705-15.1l-20.663 4.812s-23.115 6.694-34.468 10.291z" fill="#dae5fc"/><path d="m178.973 190.173a144.925 144.925 0 0 0 1.487 19.736 1.726 1.726 0 0 0 3.431-.237l.283-19.429a11.907 11.907 0 0 1 3.258-8.44l1.011-1.068-.932-8.16c-8.966 5.866-8.538 17.598-8.538 17.598z" fill="#8294be"/><path d="m179.473 125.447s-3.689 32.388 8.97 55.289c0 0 9.58-8.912 15.664-24.947a32.216 32.216 0 0 0 2.084-11.426v-39.418s-13.45-3.707-26.718 20.502z" fill="#ffcacf"/><path d="m203.3 104.769c-.405.026-.848.072-1.325.147a16.844 16.844 0 0 0 -2.368.549 23.845 23.845 0 0 0 -8.06 4.5c-3.766 3.078-7.93 7.917-12.076 15.482a121.812 121.812 0 0 0 -.265 19c9.984-1.1 21.707-6.323 26.983-18.267v-21.235a9.617 9.617 0 0 0 -2.889-.176z" fill="#e5838b"/><path d="m213.94 78.371s10.913 2.922 19.58 15c7.955 11.086 21.41 19.546 30.948 21.463a1.444 1.444 0 0 1 .77 2.4 28.165 28.165 0 0 1 -10.475 7 18.033 18.033 0 0 1 -18.1-2.965 44.07 44.07 0 0 1 -10.257-13.088c-7.221-13.434-17.532-18.116-17.532-18.116z" fill="#e54c5b"/><path d="m143.366 47.9s3.31-18.5 16.532-24.373l2.285 8.162s11.591-15.019 31.179-15.509v10.937a60.813 60.813 0 0 1 17.276-.552s7.246 2.08 11.925 3.853l-4.769 9.66s9.532 1.931 14.429 6.339c0 0-2.5 4.156-9.6 8.329l-3.744 5.672s-50.579 2.387-75.513-12.518z" fill="#5b5b81"/><path d="m156.917 53.781c26.2 8.323 61.96 6.637 61.96 6.637l3.744-5.672a22.831 22.831 0 0 0 10.9-8.53c-4.9-4.407-14.643-6.529-14.643-6.529l5.338-9.958a54.656 54.656 0 0 0 -13.577-3.161c-10.824 27.022-42.897 27.771-53.722 27.213z" fill="#333353"/><path d="m137.657 81.021a95.358 95.358 0 0 1 5.709-33.121s44.093 9.37 79.255 6.847c0 0 2.71 26.871-7.568 36.109l-8.515 3.785z" fill="#e54c5b"/><path d="m215.053 90.855c11.195-8.672 7.568-36.109 7.568-36.109-3.106.223-6.282.352-9.491.4a44.626 44.626 0 0 1 -4.548 11.387 10.157 10.157 0 0 1 -11.368 4.787c-11.793-3.077-37.186-8.219-58.842-2.549a84.269 84.269 0 0 0 -.715 12.246l68.881 13.623z" fill="#a02a39"/><path d="m137.657 81.021s40.609-12.174 66.2 7.67c0 0 1.431-2.325 5.776-3.085a7.877 7.877 0 0 1 9.221 7.4c.3 5.971-1.955 13.649-15.185 14.441 0 0-5.063 22.5-28.5 22.5-7.861 0-21.012-2.818-28.8-13.38-8.729-11.825-8.729-25.974-8.712-35.546z" fill="#ffcacf"/><path d="m103.044 104.741-26.44 3.131 2.345 13.85 30.102 5.398z" fill="#e5838b"/><ellipse cx="142.103" cy="95.593" fill="#ffb664" rx="15.122" ry="20.797"/><path d="m203.687 88.891.169-.2c-24.124-22.119-66.2-7.67-66.2-7.67-.016 9.356.006 23.079 8.152 34.735 5.077-1.617 18.582-8.217 16.478-32.375 0 0 19.724-3.962 36 6.352a4.16 4.16 0 0 0 5.401-.842z" fill="#e5838b"/><path d="m157.225 95.593s-3.308 17.319-14.55 18.808c-8.279 1.1-15.694-7.322-15.694-18.808s6.77-20.8 15.122-20.8 15.122 9.314 15.122 20.8z" fill="#ffb664"/><path d="m127.047 97.4c.666 10.639 7.147 18.993 15.056 18.993 8.352 0 15.122-9.312 15.122-20.8 0-.061-.006-.121-.006-.183-1.166 2.118-3.431 3.708-6.963 4.336-5.345.949-6.9-3.43-6.9-3.43l-9.77-.838z" fill="#e87b40"/><path d="m174.879 98.246a3.5 3.5 0 0 1 -1.056-6.837l3.385-1.074a3.5 3.5 0 0 1 2.116 6.673l-3.386 1.073a3.485 3.485 0 0 1 -1.059.165z" fill="#e8808f"/><path d="m195.533 196.664h-1.8a3 3 0 0 1 0-6h1.8a3 3 0 1 1 0 6z" fill="#8294be"/><path d="m195.533 209.594h-1.8a3 3 0 0 1 0-6h1.8a3 3 0 0 1 0 6z" fill="#8294be"/><path d="m240.838 255.705a21.066 21.066 0 0 1 -2.951 1.525 36.914 36.914 0 0 1 -6.866 2.116l-.038.007a2.36 2.36 0 0 0 .62 4.666 42.121 42.121 0 0 0 8.148-1.239q.907-.238 1.817-.536c-.198-2.036-.437-4.222-.73-6.539z" fill="#a02a39"/><path d="m216.07 263.911a1.949 1.949 0 0 0 -2.027-1.867h-.059c-4.928.2-9.857.308-14.791.058-4.93-.211-9.856-.592-14.759-1.193q-7.355-.873-14.641-2.218c-3.533-.659-7.1-1.406-10.57-2.243l-.272 6.846c3.292.594 6.558 1.1 9.865 1.544q7.536 1.005 15.121 1.5c5.051.355 10.12.486 15.186.44 5.066-.006 10.135-.373 15.182-.846a1.952 1.952 0 0 0 1.765-2.021z" fill="#a02a39"/><path d="m134.567 86.161c-36.539-4.811-71.844-8.79-71.844-8.79v36.444s48.09-3.546 72.207-7.517a10.1 10.1 0 0 0 8.243-11.937c-.049-.248-.1-.493-.158-.737a9.926 9.926 0 0 0 -8.448-7.463z" fill="#5b5b81"/><path d="m143.36 96.316a8.884 8.884 0 0 1 -5.72 3.749l-74.917 5.135v8.614s48.09-3.546 72.207-7.517a10.087 10.087 0 0 0 8.43-9.981z" fill="#333353"/><path d="m66.371 82.121c2.224 7.46 3.789 18.594 1 27.635-1.089 3.525-5.132 6.618-8.8 7.049-6.021.708-15.6 1.757-23.12 2.22v-45.755a120.328 120.328 0 0 1 23.362 1.806 10.461 10.461 0 0 1 7.558 7.045z" fill="#ffb664"/><path d="m84.689 67.62s-9.812-.469-9.065 10.757c.007.112.015.224.024.334a13.6 13.6 0 0 0 13.08 12.389l17.878.681a11.4 11.4 0 0 0 7.935-2.644c2.443-2.122 4.525-5.744 3.08-11.738-2.787-11.565-32.932-9.779-32.932-9.779z" fill="#ffcacf"/><path d="m52.387 105.909a11.417 11.417 0 0 1 -4.906-.8 4.2 4.2 0 0 1 -2.457-3.2l-9.571 1.573v15.543c7.554-.465 17.176-1.521 23.192-2.229 3.667-.432 7.686-3.626 8.759-7.159a32.207 32.207 0 0 0 1.048-4.829z" fill="#e87b40"/><path d="m45.318 96.147c0 12.417-3.949 22.878-9.866 22.878s-10.712-10.475-10.712-22.892 4.8-22.863 10.712-22.863 9.866 10.461 9.866 22.877z" fill="#e87b40"/><path d="m40.519 96.147c0 7.628-2.107 14.055-5.264 14.055s-5.715-6.435-5.715-14.063 2.56-14.046 5.715-14.046 5.264 6.426 5.264 14.054z" fill="#fff"/><path d="m47.581 77.592a20.155 20.155 0 0 1 1.919 4.146 2.774 2.774 0 0 0 2.447 1.939l6.5.448a1.775 1.775 0 0 0 1.825-2.289 11.2 11.2 0 0 0 -1.326-2.871 4.171 4.171 0 0 0 -2.723-1.719 46 46 0 0 0 -7.9-.952.856.856 0 0 0 -.742 1.298z" fill="#fff"/><path d="m205.052 98.445c.77-2.584 2.64-6.37 7.08-7.244a.586.586 0 0 1 .44 1.062 6.431 6.431 0 0 0 -1.865 1.939 3.277 3.277 0 0 0 -.073 3.338 3.506 3.506 0 0 1 .424 2.521 3.1 3.1 0 0 1 -1.226 1.891l-.075.052a3.144 3.144 0 0 1 -4.705-3.559z" fill="#e5838b"/><path d="m313.113 212.081c-1.637-2.474-3.7-5.423-6.234-8.763 1.852 10.872-1.027 17.584-15.421 31.944-12.023 11.993-21.365 12.888-26.466 11.6l4.43 8.055s5.6 4.023 14.346 0c6.017-2.768 20.06-17.949 28.244-27.159a12.891 12.891 0 0 0 1.101-15.677z" fill="#8294be"/></svg>