<svg id="flat" height="512" viewBox="0 0 500 500" width="512" xmlns="http://www.w3.org/2000/svg"><path d="m480.218 248.49c-2.955-27.584-13.993-83.616-53.576-116.242-7.4 11.606-24.015 18.7-33.562 1.823-9.668 17.979-27.059 15.352-35.412-1.823-10.824 15.643-23.222 22.782-32.02 0 7.761 24.552-.221 40.406-25.154 31.512-11.017 11.379-22.9 13.322-36.2-.156-12.54 13.124-24.963 20.454-36.854 1.706l-8.546 9.347c13.513 20.065 19.395 42.58 19.6 69.317 2.516 10.277 11.468 21.764 13.032 33.649 0 0 12.735 2.344 22.05-12.254 4.677 8.24 13.818 13.1 27.706 3.674a8.167 8.167 0 0 0 10.228 4.689c9.205-7.579 16.306-15.326 20.328-23.318l16.23.386s-11.273 23.273 8.985 26.053c13.657 1.875 21.172-10.214 21.172-10.214s11.422 25.1 36.667-2.729c7.08 14.585 28.571 14.993 36.193.69 26.259 12.208 29.587-6.941 29.133-16.11z" fill="#4f424c"/><path d="m206.931 320.776c-20.942-9.852-40.463-25.543-46.373-37.078-17 10.345 13.317 32.875 26.195 41.471 10.987 4.947 21.487 1.889 20.178-4.393z" fill="#fc9d9a"/><path d="m206.922 320.793a29.011 29.011 0 0 1 -10.978 4.093s14.51 14.357 20.112 18.6l4.137-14.021a128.772 128.772 0 0 0 -13.271-8.672z" fill="#ce7378"/><path d="m219.968 329.273c-3.162 6.358-7.107 10.382-11.482 12.59 11.614 8.609 22.917 17.8 26.3 34.5l12.2-18.83a113.327 113.327 0 0 0 -27.018-28.26z" fill="#4f424c"/><path d="m160.56 283.7c-11.662-19.191-6-34.7-6-34.7h-11.184l-2.1 13.841c-.239 13.245 5.475 25.81 13.7 36.377a32.442 32.442 0 0 1 5.584-15.518z" fill="#4f424c"/><path d="m295.637 288.731a176.624 176.624 0 0 0 -31.068 40.542 273.139 273.139 0 0 0 -8.094-39.151c-8.2-5.866-16.488-6.266-24.446-5.5a227.442 227.442 0 0 1 4.542 38.136c6.727 24.542 5.156 68.027 1.487 116.3l24.541-4.707s3.861-67.351 31.412-113.851c14.914-23.506 18.019-43.538 1.626-31.769z" fill="#fc9d9a"/><path d="m321.612 262.47c-7.912 9.328-16.788 17.071-25.974 26.261 3.318.031 9.6 1.391 2.085 9.7l-6.74 8.738s12.056-3.74-.049 18.806c8.452-16.366 19.945-27.944 31.987-41.715 7.168-8.394 13.794-17.484 19.918-25.744-4.578-5.203-13.511-3.084-21.227 3.954z" fill="#ce7378"/><path d="m259.746 483.241c2.572-51.222 7.87-94.186 19.56-127.944-6.842.6-12.419 3.944-15.851 11.006-4.588 9.44-7.794 43.224-7.167 49.312 1.936 18.81-7.1 20.062-10.742 17.808-7.262-5.883-4.533-19.29-.315-44.829 2.791-14.217 4.576-31.123 4.076-45.649-.284-8.22-4.718-17.794-12.738-20.188 1.86 46.4-7.631 90.99-7.767 107.332-.095 11.407-.271 22.916-2.831 34.031-3.759 23.161 17.429 24.795 33.775 19.121z" fill="#ce7378"/><path d="m231.631 19.776c-64.387-26.694-135.809-2.049-181.373 54.25 0 0-44.154 86.138 103.6 86.138s109.835-106.984 109.835-106.984z" fill="#ffb38a"/><path d="m236.73 25.089c4.336 10.493 7.138 23.062.8 33.374-7.363 11.671-20.962 10.407-29.332.562a5.323 5.323 0 0 0 -8.657 1.383c-6.088 12.8-19.515 22.482-33.007 19.059-10.47-2.656-17.414-11.717-22.914-21.373a5.328 5.328 0 0 0 -8.62-.877c-5.8 6.541-34.168 35.818-35.038 13.286a5.349 5.349 0 0 0 -8.612-4.162c-9.6 7.136-33.188 22.658-41.09 7.687-11.645 14.234-20.731 29.745-26.06 45.39 0 0-18.091 40.746 129.66 40.746s109.833-106.984 109.833-106.984z" fill="#d37569"/><path d="m329.247 146.991c-4.46-34.249-31.179-101.094-97.619-127.206 53.083 67.11 8.1 147-33.342 75.33-1.907-3.183-6.16-.933-5.642 2.378 3.9 17.006-1.54 35.844-22.211 24.961a59.9 59.9 0 0 1 -27.278-28.988c-1.019-2.3-4.751-1.1-4.652 1.259.416 9.938-2.672 21.9-12.525 26.464-8.542 3.956-22.55-2.585-20.892-13.206.508-3.251-3.793-5.669-5.658-2.386a127.438 127.438 0 0 1 -8.63 13.317c-2.99 4-6.55 9.447-11.053 11.91-5.113 2.8-10.339-1.51-12.144-6.26-2.261-5.951-.283-12.784 1.206-18.679.717-2.843-3.252-5.765-5.342-3.11a91.222 91.222 0 0 1 -18.365 17.844c-7.17 5.592-17.481 11.3-20.907-1.2a95.484 95.484 0 0 0 -5.275 27.32c-.629 13.044 4.734 19.109 8.535 19.826 3.294.621 12.912-1.81 16.822-14.606.937 12.956 11.625 26.549 25.725 23.834 6.546-1.357 12.029-7.426 11.522-13.886 5.068 6.19 8.965 13.848 15.9 18.173 9.8 5.919 23.855-.086 25.63-11.51 0 0 3.4 13.431 18.443 11.763 6.58-.73 11.255-6.485 15.475-11.43 1.033 5.652 7.5 8.5 13.415 8.951 13.6 1.045 21.869-11.557 21.869-11.557s5.134 12.5 17.073 12.554c9.923.048 12.888-4.75 18.375-11.394 0 0 11.991 24.833 36.6-3.563 7.41 14.42 28.9 14.339 36.2-.134 26.516 11.607 29.407-7.613 28.745-16.769z" fill="#4f424c"/><path d="m394.549 127.754 68.239-13.1c3.861-79.192-51.955-102.992-51.955-102.992-47.879-13.463-80.773.547-109.6 26.49.005-.004-69.372 102.364 93.316 89.602z" fill="#ffb38a"/><path d="m442.613 66.542c-5.821 19.36-27.342 25.863-40.337 9.289a40.212 40.212 0 0 1 -6.162-11.331 2.552 2.552 0 0 0 -4.745-.124c-3.887 9.818-17.974 29.906-27.584 15.01a33.772 33.772 0 0 1 -4.654-10.825 3.532 3.532 0 0 0 -6.166-1.482c-4.394 4.521-13.8 17.281-20.708 11.944-3.8-3.3-4.777-8.954-4.5-13.761a2.26 2.26 0 0 0 -3.676-1.9c-7.094 5.438-21.581 14.109-28.3 3.538a15.057 15.057 0 0 1 -1.4-11.934 81.182 81.182 0 0 1 6.86-16.819c-16.314 15.518-27.977 35.523-34.554 57.006-7.057 43.847 104.682 41.777 196.101 19.497 1.815-37.22-9.554-62.2-22.113-78.231 3.004 9.788 4.79 20.32 1.938 30.123z" fill="#d37569"/><path d="m180.564 315.253c-20.906-13.378-27.465-31-27.465-31l1.878 14.961c8.318 10.871 19.138 18.73 30.685 26.514l.031.013c7.948 5.287 15.407 10.494 22.793 16.119l16.175 6.308c-8.308-11.842-21.05-18.168-44.097-32.915z" fill="#4f424c"/><path d="m324.258 285.4c-50.306 43.563-71.509 110.47-69.15 176.093a3.443 3.443 0 0 1 -2.918 3.195c-6.058.727-6.927-6.355-6.927-6.355l-4.741.848s1.891 12.816-8.468 15.857c-5.291 1.553-6-4.34-6.424-9.533-2.257 9.01-6.247 17.749-12.442 24.566a2.088 2.088 0 0 0 1.571 3.471h63.651a2.088 2.088 0 0 0 2.081-2.325c-7.258-46.407-26.414-134.83 43.767-205.817z" fill="#4f424c"/><path d="m256.475 290.122a350.4 350.4 0 0 0 -34.616-80.693l-12.2 23.345c11.389 15.075 18.342 32.991 22.36 51.848z" fill="#4f424c"/><path d="m170.558 252.351c31.092-1.285 57.606-26.484 57.606-26.484.88-61.4-47.29-84.138-47.29-84.138-24.2-12.43-59.982-9.953-69.425-6.68a116.023 116.023 0 0 0 -50.973 28.581c-16.109 18.934-25.276 48.47-32.637 80.759l72.5 1.171z" fill="#ffb38a"/><path d="m170.558 252.351c31.092-1.285 57.606-26.484 57.606-26.484 1.621-48.914-27.393-72.425-40.746-80.621 36.567 51.932-24.665 71.78-44.348 33.045a3.661 3.661 0 0 0 -6.143-.805l-12.161 14.536c-5.376 7.312-16.843 16.812-25.14 8.105-2.529-2.988-2.578-6.607-1.939-10.423a3.672 3.672 0 0 0 -5.979-3.439 80.716 80.716 0 0 1 -14.235 9.453c-23.868 12.617-24.574-17.071-16.989-32.08-19.7 18.6-32.55 43.625-38.106 70.058l.563 10.614 77.4 1.25z" fill="#d37569"/><path d="m336.16 252.337c-8.351 13.6-20.813 24.632-31.152 36.679-43.923 49.384-57.728 107.548-49.381 172.267.35 2.614 4.3 1.807 4.418-.6.527-11.042-1.077-22.268-1.331-33.32-2.845-48.838 15.451-96.391 47.831-132.686 11.3-13.106 25-24.859 34.087-39.727 1.743-2.853-2.729-5.454-4.472-2.615z" fill="#4f424c"/><path d="m239.337 273.305a313.838 313.838 0 0 1 3.089 120.174c-.281 2.161 3.273 2.583 3.777.511 4.777-19.655 5.765-40.862 5.256-61.02-.512-20.242-2.869-41.168-8.483-60.668-.679-2.357-4.1-1.361-3.639 1z" fill="#4f424c"/><path d="m242.046 410.218a1.829 1.829 0 0 0 0-3.656 1.829 1.829 0 0 0 0 3.656z" fill="#4f424c"/><path d="m239.241 420.006c-1.62 9.867-.358 20.661.447 30.574s1.1 20.9 3.893 30.48c.713 2.447 4.675 2.068 4.558-.617-.45-10.264-2.859-20.537-3.625-30.831-.728-9.781-.133-19.925-1.612-29.606-.278-1.822-3.365-1.8-3.661 0z" fill="#4f424c"/><path d="m180.873 141.732s27.07 14.18 35.567 41.807c12.977 42.2-16.181 55.188-22.586 36.86a2.842 2.842 0 0 0 -5.476 1.51c.837 4.942.985 14.42-4.322 17.062-4.75 2.364-10.337-1.206-13.337-4.712-3.681-4.3-5.479-9.925-6.606-15.381-.536-2.592-4.66-3.206-5.829-.761-2.734 5.72-3.308 20.207-14.908 20.61-9.488.33-12.05-14.584-14.046-21.409-.869-2.971-5.283-2.938-5.922 0-5.293 24.335-29.45 29.777-28.444 2.185.063-1.739-3.452-3.738-4.443-1.807-18.609 36.258-35.294 23.025-32.537-1.569.335-2.988-4.5-4.223-5.547-1.5-6.908 17.793-23.691 30.793-30.05 19.073a150.809 150.809 0 0 0 -3.052 23.2 10.773 10.773 0 0 0 2.078 7.069c7.361 9.133 20.831-3.318 27.7-7.979a1.763 1.763 0 0 1 2.832 1.705c-1.036 5.329-.868 11.794 8.372 13.459 12.552 2.262 19.917-10.727 23.845-15.051 1.742 7.536 4.459 16.266 12.588 17.923 7.752 1.5 14.456-4.571 18.1-10.736a1.758 1.758 0 0 1 3.013.04c3.723 6.322 10.187 11.2 17.455 11.373 8.31.192 16.561-7.427 15.3-15.642 8.059 17.013 27.8 20.523 35.659.97 0 0 5.649 10.968 12.758 11.374a20.841 20.841 0 0 0 19.334-9.576 2.136 2.136 0 0 1 3.693.129c5.456 10.158 15.646 8.043 16.694-3.622 7.088-45.16-14.642-97.887-57.883-116.604z" fill="#4f424c"/><path d="m462.941 52.282c-12.591-19.751-30.478-33.623-52.11-40.62 26.293 17.94 52.447 63.691 31.866 93.6-9.807 11.3-24.945 6.714-28.015-7.687-.923-3.512-5.714-2.485-6.01.814-.752 8.384-3.241 18.312-11.589 22.2-9.92 4.617-15.483-2.768-18.547-11.314a3.015 3.015 0 0 0 -5.761 0c-2.327 7.5-9.653 15.78-18.307 11.454-8.024-4.01-5.611-18.4-4.7-25.482.414-3.228-3.947-3.449-5.431-1.471-5.193 6.922-12.545 17.279-21.675 18.866-12.464 2.166-11.808-11.144-9.966-19.293.566-2.5-2.823-5.107-4.721-2.748-9.536 13.044-40.942 35.459-41.284 4.565a149.719 149.719 0 0 0 -6.04 31.827c-.47 5.808.024 12.966 6.835 14.469a10.86 10.86 0 0 0 7.523-1.233 112.726 112.726 0 0 0 14.951-9.829 1.864 1.864 0 0 1 2.965 1.83c-.976 5.276-.662 11.553 8.423 13.19 12.552 2.262 19.918-10.727 23.845-15.051 1.742 7.537 4.46 16.267 12.59 17.923 7.837 1.516 14.56-4.676 18.21-10.915a1.628 1.628 0 0 1 2.8.038c7.447 13.6 26.525 16.669 32.547.735a1.635 1.635 0 0 1 2.925-.49c9.167 14.037 26.734 13.319 33.049-3.363 0 0 5.649 10.968 12.759 11.374a20.83 20.83 0 0 0 19.4-9.678 2.063 2.063 0 0 1 3.572.125 13.793 13.793 0 0 0 4.811 5.446c6.9 4 11.335-2.44 11.941-8.962a117.435 117.435 0 0 0 -16.856-80.32z" fill="#4f424c"/><path d="m439.058 185.8c-41.049-45.006-98.628-35.607-131.262-2.794 0 0-18.43 17.1 17.267 28.107s58.373-3.409 58.373-3.409l54.027 10.786a52.527 52.527 0 0 0 1.595-32.69z" fill="#ffb38a"/><path d="m321.606 262.465c9.464-3.774 16.805-3.267 23.222-2.275 1.4-1.525 6.242-9.92 7.407-11.812l-20.659.376a107.765 107.765 0 0 1 -9.97 13.711z" fill="#4f424c"/><path d="m459.906 234.11c1.711-3.484 1.325-7.422.5-11.1-2.288-14.257-12.743-27.352-21.375-37.216 3.2 21.709-21.718 29.917-38.088 20.808a43.435 43.435 0 0 1 -12.336-10.89 7.818 7.818 0 0 0 -11.8-.226 58.569 58.569 0 0 1 -10.972 9.3c-4.657 3.454-11.786 4.334-13.611-2.436a7.84 7.84 0 0 0 -11.632-4.692 34.134 34.134 0 0 1 -11.752 4.851c-12.222 2.325-24.824-6.706-21.041-19.494a86.113 86.113 0 0 0 -23.149 40.943c-1.05 4.509 1.144 10.474 5.018 13.01 5.779 3.783 12.527 1.221 17.911-2.121a90.313 90.313 0 0 0 14.741-11.859 4.153 4.153 0 0 1 7.03 2.727c.861 6.26-.478 14.515 8.081 16.364a13.431 13.431 0 0 0 8.279-1.21c10.26-4.914 17.307-14.126 25.4-21.924 1.363-1.482 3.223-1.9 4.2.131 2.734 4.523 3.743 9.887 6.163 14.585 9.024 15.808 20.668 6.074 26.518-6.12a4.161 4.161 0 0 1 7.433.035c5.743 12.972 17.22 15.463 24.275 1.962 4.86 3.093 8.4 9.643 14.107 9.093a7.783 7.783 0 0 0 6.1-4.521z" fill="#d37569"/><path d="m283.71 341.51.006-.014z" fill="#4f424c"/><path d="m335.676 256.7c-4.574 5.334-14.318 16.618-22.786 25.892-3.463 10.614-8.972 24.576-15.885 32.153l1.286 1.133c12.168-15.263 34.363-39.13 46.544-55.681-2.058-2.339-5.403-3.526-9.159-3.497z" fill="#4f424c"/><g fill="#d37569"><path d="m403.443 174.894c-.726 1.947.561 4.2 1.363 5.984a18.312 18.312 0 0 0 3.2 5.28c1.362 1.4 4.155.4 4.021-1.665-.1-3.2-4.736-16.019-8.588-9.6z"/><path d="m415.532 177.388c2.111 4.334 4.626 8.622 6.7 13 1.089 1.855 4.274 1.134 4.171-1.13-.224-4.947-3.272-11.68-7.481-14.472a2.331 2.331 0 0 0 -3.391 2.607z"/><path d="m406.784 37.645c-1.287 2.32.309 4.455 1.224 6.612.847 2 1.637 4.478 3.212 6.02a2.37 2.37 0 0 0 3.918-1.034c1.461-3.574-3.636-16.932-8.354-11.6z"/><path d="m420.166 42.763a90.824 90.824 0 0 1 1.455 10.426c.383 1.962 3.635 2.5 4.477.585 1.855-4.215 1.12-9.149-.92-13.124-1.492-2.908-5.583-.789-5.012 2.113z"/><path d="m162.113 155.011c1.708 3.529 3.687 7 5.1 10.709 1.15 2.427 4.9 1.145 4.892-1.325a15.778 15.778 0 0 0 -6.343-12.189c-1.766-1.015-4.407.694-3.65 2.805z"/><path d="m176.725 156.766c1.888 3.98 2.524 8.4 3.848 12.547.923 2.228 4.535 2.87 5.2 0 1.2-5.183-1.295-11.192-4.231-15.363a2.791 2.791 0 0 0 -4.816 2.816z"/><path d="m217.12 31.851c-1.418 3.05.719 6 1.472 9.061.855 3.467.585 7.121 2.033 10.417.752 1.712 3.433 1.5 4.25 0 1.926-3.533 1.141-7.838.159-11.575-.795-3.025-2.072-8.232-5.638-8.829a2.072 2.072 0 0 0 -2.276.926z"/><path d="m205.093 31.755c-.922 1.823-.116 3.624.557 5.4.639 1.683 1.308 4 2.752 5.165 1.465 1.18 3.832.911 4.368-1.153 1.151-3.151-3.956-13.861-7.677-9.411z"/><path d="m197.181 30.562-.166-.066a3 3 0 0 0 -3.383 1.469l.968-.965a2.636 2.636 0 0 0 0 4.654l-.966-.967c3.067 4.63 8.8-1.987 3.549-4.123z"/><path d="m393.465 177.661c4.243-.015 4.233-6.467 0-6.494-4.243.015-4.234 6.467 0 6.494z"/></g></svg>