<svg id="flat" height="512" viewBox="0 0 340 340" width="512" xmlns="http://www.w3.org/2000/svg"><path d="m140.658 171.416-61.094 4.823-11.522 23.312-8.307 58.415c1.608 23.312 0 72.034 0 72.034h48.852c5.3-.932 10.671-1.924 13 0h33.344c-2.534-20.156-1.031-44.543.757-61.95a205.989 205.989 0 0 1 6.225-33.389 227.042 227.042 0 0 0 7.149-39.933c2.47-28.894-28.404-23.312-28.404-23.312z" fill="#67bfbf"/><path d="m161.913 234.661a228.973 228.973 0 0 0 5.006-22.934c-8.448-1.151-19.307 3.419-19.307 3.419a6.171 6.171 0 0 0 -5.354-3.582l-14.7 2.617c-8.105 1.516-7.735 6.75-7.735 6.75h-7.287c-35.663 0-35.138-20.386-35.138-20.386s-7.3 5.1-8.678 8.678-2.2 18.32-2.2 18.32l8.4 22.948 21.9 14.794 41.259-.827 18.941-6.751a204.722 204.722 0 0 1 4.893-23.046z" fill="#368781"/><path d="m60.507 252.538-.772 5.428c.559 8.1.729 19.269.714 30.395a51.9 51.9 0 0 0 9.153 4.764s-.633 3.063 4.895 6.382c0 0 9.983 4.339 16.307 0 0 0 34.935 5.653 63-5.091.352-9.511 1.088-18.629 1.883-26.366q.8-7.8 2.193-15.512z" fill="#368781"/><path d="m108.587 272.533h13v57.467h-13z" fill="#f8ffff"/><path d="m115.087 192.342a6.5 6.5 0 0 0 -6.5 6.5v21.991l4.509 2.438c4.924.305 7.866-1.673 8.491-6.321v-18.108a6.5 6.5 0 0 0 -6.5-6.5z" fill="#f8ffff"/><path d="m120.189 219.059a2.91 2.91 0 0 1 -2.7 1.872h-4.948c-1.376 0-2.68-.04-3.951-.1v20.169h13v-24.05a6.2 6.2 0 0 0 -1.401 2.109z" fill="#a6d2f7"/><path d="m78.473 173.391s-1.078 23.381 4.019 42.245a20.1 20.1 0 0 0 18.174 14.838c10.381.629 25.478.823 38.556-1.808v29.107s-34.284 7.922-60.372-.513a39.81 39.81 0 0 1 -26.6-30.073c-2.449-12.145-4.1-30.069 3.256-42.848.002 0 6.411-11.616 22.967-10.948z" fill="#67bfbf"/><path d="m93.81 143.457v36.112l21.634 16.251 12.116-13.349v-25.536z" fill="#e5837c"/><path d="m129.68 161.235a55.215 55.215 0 0 0 -20.78 35.358l6.189 10.254s6.679-13.192 23-21.755a15.363 15.363 0 0 0 6.09-5.672c1.813-3.045 3.455-7.716.121-12.619-6.772-9.956-14.62-5.566-14.62-5.566z" fill="#f8ffff"/><path d="m89.7 160.673c7.612 7.111 24.058 24.824 25.392 46.174 0 0-10.06-14.7-31.727-19.539-9.509-2.123-13.839-6.63-15.7-11.02a13.911 13.911 0 0 1 8.354-18.769 15.653 15.653 0 0 1 1.857-.459 13.758 13.758 0 0 1 11.824 3.613z" fill="#f8ffff"/><path d="m119.616 171.364c6.029.538 16.044.117 22.818-6.931-6.267-6.824-12.754-3.2-12.754-3.2a50.791 50.791 0 0 0 -10.064 10.131z" fill="#a6d2f7"/><path d="m108.587 278.064v22.874c3.944.1 8.339.072 13-.193v-22.681z" fill="#a6d2f7"/><path d="m142.258 97.3v39.816s.066 25.195-18.08 26.957c0 0-20.5 2.464-30.368-20.615 0 0-9.513 1.057-11.8-9.69-2.171-10.168 6.163-25.368 6.163-25.368s20.436-24.138 54.085-11.1z" fill="#ffcac0"/><path d="m142.047 223.546 10.018-2.8a15.129 15.129 0 0 1 19.832 14.38v.029a15.067 15.067 0 0 1 -6.76 12.6 129.164 129.164 0 0 1 -23.09 11.381z" fill="#ffcac0"/><path d="m125.412 229.176v34.524s13.951.08 22.2-6.339v-30.111a7.243 7.243 0 0 0 -7.546-7.25 27.362 27.362 0 0 0 -10.508 2.616 7.27 7.27 0 0 0 -4.146 6.56z" fill="#f8ffff"/><path d="m164.121 248.409s-24.9 13.134-69.421 6.577l-10.859 30.953s93.203 13.75 80.28-37.53z" fill="#67bfbf"/><path d="m89.737 252.587a59.98 59.98 0 0 1 -16.515-8.029 15.148 15.148 0 0 0 -20.106 2.485c-.079.093-.157.187-.236.282a15.116 15.116 0 0 0 .437 19.643 53.918 53.918 0 0 0 24 15.527z" fill="#ffcac0"/><path d="m92.886 249.319 3.42.585a7.661 7.661 0 0 1 6.369 8.068c-.533 7.623-2.478 19.84-9.229 27.894a8.69 8.69 0 0 1 -6.766 3.063 24.741 24.741 0 0 1 -8.114-1.5 8.121 8.121 0 0 1 -4-11.907 88.5 88.5 0 0 0 9.66-20.88 7.666 7.666 0 0 1 8.66-5.323z" fill="#f8ffff"/><path d="m326.469 71.913h-21.209c2.78-8.585 11.144-13.274 11.144-13.274l-4.464-3.12a11.648 11.648 0 0 0 -9.64-1.719 11.242 11.242 0 0 0 -6.725 5.322c-2.3 3.935-8.5 12.79-17.644 12.79h-10.124v-15.031a58.791 58.791 0 0 0 17.62-15.437 11.67 11.67 0 0 0 1.33-11.909l-3.08-6.763s-5.823 10.522-15.87 13.83v-21.828a4.773 4.773 0 0 0 -4.774-4.774h-6.626a4.773 4.773 0 0 0 -4.773 4.774v21.208c-8.585-2.78-13.275-11.143-13.275-11.143l-3.119 4.461a11.313 11.313 0 0 0 3.768 16.46c4.012 2.378 12.626 8.533 12.626 17.547v8.6h-8.6c-9.015 0-15.169-8.614-17.547-12.626a11.313 11.313 0 0 0 -16.46-3.768l-4.464 3.12s8.363 4.689 11.143 13.274h-21.212a4.773 4.773 0 0 0 -4.773 4.773v6.627a4.773 4.773 0 0 0 4.773 4.773h21.829c-3.308 10.047-13.831 15.87-13.831 15.87l6.764 3.08a11.672 11.672 0 0 0 11.909-1.329 58.806 58.806 0 0 0 15.435-17.615h15.032v10.125c0 9.015-8.614 15.17-12.626 17.548a11.313 11.313 0 0 0 -3.768 16.46l3.119 4.464s4.69-8.363 13.275-11.144v21.209a4.773 4.773 0 0 0 4.773 4.774h6.626a4.773 4.773 0 0 0 4.774-4.774v-21.829c10.047 3.309 15.87 13.831 15.87 13.831l3.08-6.763a11.669 11.669 0 0 0 -1.33-11.909 58.8 58.8 0 0 0 -17.62-15.438v-16.554h16.554a58.8 58.8 0 0 0 15.441 17.621 11.668 11.668 0 0 0 11.908 1.329l6.764-3.08s-10.522-5.823-13.831-15.87h21.829a4.774 4.774 0 0 0 4.774-4.773v-6.627a4.774 4.774 0 0 0 -4.775-4.773z" fill="#7fa0e2"/><path d="m127.721 148.424a10.651 10.651 0 0 1 -4.912-1.2 4.611 4.611 0 0 0 -3.451-.335l-2.974.873a3 3 0 1 1 -1.691-5.757l2.974-.873a10.6 10.6 0 0 1 7.91.768 4.65 4.65 0 0 0 3.808.216l4.62-1.774a3 3 0 1 1 2.15 5.6l-4.62 1.773a10.643 10.643 0 0 1 -3.814.709z" fill="#e5837c"/><path d="m116.514 127.268a3 3 0 0 1 -.843-5.88 25.911 25.911 0 0 1 4.87-.847 3 3 0 1 1 .428 5.984 20.234 20.234 0 0 0 -3.623.624 3 3 0 0 1 -.832.119z" fill="#e5837c"/><path d="m131.544 125.433a3 3 0 0 1 -.094-5.938 25.952 25.952 0 0 1 4.938-.226 3 3 0 0 1 -.331 5.991 20.108 20.108 0 0 0 -3.673.161 2.962 2.962 0 0 1 -.84.012z" fill="#e5837c"/><g fill="#9cbbef"><path d="m216.691 170.56a3.422 3.422 0 0 1 -.492-.035l-14.274-2a3.5 3.5 0 0 1 -3.009-3.63l.747-15.934-9.884-1.041a3.5 3.5 0 1 1 .732-6.962l13.169 1.387a3.5 3.5 0 0 1 3.13 3.645l-.752 16.046 11.115 1.562a3.5 3.5 0 0 1 -.482 6.966z"/><path d="m203.42 184.276a3.57 3.57 0 0 1 -.492-.034l-14.273-2a3.5 3.5 0 0 1 -3.009-3.63l.747-15.934-9.886-1.042a3.5 3.5 0 0 1 .734-6.962l13.169 1.388a3.5 3.5 0 0 1 3.129 3.645l-.752 16.047 11.113 1.556a3.5 3.5 0 0 1 -.483 6.966z"/><path d="m41.725 170.273a3.5 3.5 0 0 1 -3.5-3.41l-.372-14.408a3.5 3.5 0 0 1 3.085-3.566l15.843-1.889-.6-9.921a3.5 3.5 0 1 1 6.987-.423l.8 13.217a3.5 3.5 0 0 1 -3.08 3.688l-15.951 1.9.29 11.221a3.5 3.5 0 0 1 -3.409 3.589z"/><path d="m26.011 159.442a3.5 3.5 0 0 1 -3.5-3.41l-.372-14.408a3.5 3.5 0 0 1 3.085-3.566l15.84-1.887-.6-9.921a3.5 3.5 0 1 1 6.987-.423l.8 13.217a3.5 3.5 0 0 1 -3.079 3.687l-15.953 1.9.291 11.221a3.5 3.5 0 0 1 -3.409 3.589z"/><path d="m27.091 315.5a3.483 3.483 0 0 1 -1.767-.481l-11.423-6.7a3.5 3.5 0 0 1 -1.346-4.612l7.309-14.305-9.48-6.01a3.5 3.5 0 1 1 3.748-5.912l12.173 7.72a3.5 3.5 0 0 1 1.243 4.548l-7.257 14.205 8.574 5.029a3.5 3.5 0 0 1 -1.774 6.519z"/><path d="m44.839 308.489a3.487 3.487 0 0 1 -1.767-.482l-11.422-6.7a3.5 3.5 0 0 1 -1.35-4.607l7.309-14.306-9.479-6.01a3.5 3.5 0 1 1 3.748-5.912l12.173 7.718a3.5 3.5 0 0 1 1.243 4.548l-7.258 14.2 8.574 5.029a3.5 3.5 0 0 1 -1.774 6.52z"/></g><path d="m142.258 97.3c-18.913-7.327-33.651-2.911-42.933 2.362l-1.287 30.231a21.392 21.392 0 0 0 14.5-14.068 5.826 5.826 0 0 1 5.494-3.981h24.225z" fill="#e5837c"/><path d="m87.644 87.61s-16.56 6.342-12.508 20.436a17.743 17.743 0 0 0 12.786 12.811 14.5 14.5 0 0 1 8.768 6.688l1.348 2.347s10.218-4.052 10.4-24.312h27.835s21.317.7 23.96-17.97h-9.514s10.219-9.338 9.514-23.079a34.968 34.968 0 0 1 -15.151 6.695h-31.893s-21.317-1.762-25.545 16.384z" fill="#4a4a60"/></svg>