<svg id="Flat" height="512" viewBox="0 0 340 340" width="512" xmlns="http://www.w3.org/2000/svg"><path d="m52.539 10h234.922a18.78 18.78 0 0 1 18.78 18.78v301.22a0 0 0 0 1 0 0h-272.482a0 0 0 0 1 0 0v-301.22a18.78 18.78 0 0 1 18.78-18.78z" fill="#f2f2f2"/><path d="m289.363 92.563a55.6 55.6 0 0 0 -15.511 5.394 24.334 24.334 0 0 0 -1.7-9.947 56.2 56.2 0 0 1 11.8-4.785 1.342 1.342 0 0 0 -.166-2.625 46.132 46.132 0 0 0 -15.523.869 61.036 61.036 0 0 0 -19.414-15.018 168.247 168.247 0 0 1 -19.523-12.651c-1.168-.847-2.29-1.672-3.347-2.457l-.029-.021-.081-.06-1.007-.751-.135-.1-.039-.029-.568-.426a47.649 47.649 0 0 0 -6.966-15.836q-.44-.645-.91-1.291a48.008 48.008 0 0 0 -38.712-19.688 47.012 47.012 0 0 0 -14.162 2.178 35.29 35.29 0 0 0 -11.057 5.661c-.87-.075-1.807-.121-2.8-.121-7.673 0-25.763 2.986-31.526 30.031l-.442.312-.091.064-.462.325q-.838.588-1.713 1.2l-.158.11-.2.142q-1.1.765-2.242 1.544a209.39 209.39 0 0 1 -18.986 11.864c-8.279 4.263-14.91 9.431-19.708 15.361-.375.462-.714.944-1.049 1.427a73.88 73.88 0 0 0 -17.949-6.39 1.421 1.421 0 0 0 -1 2.628 146.962 146.962 0 0 1 15.678 10.636 24.442 24.442 0 0 0 -.881 9.027 62.756 62.756 0 0 0 -15.505-8.43 1.373 1.373 0 0 0 -1.27 2.405c10.787 7.824 24.452 21.861 24.539 21.951 4.69 5.072 10.856 11.764 17.427 18.958-2.03 2.214-3.955 4.226-5.75 6.009-1.422 1.412-3.017 2.882-5.173 4.766-5.28 4.616-18.023 17.285-22.3 35.2a41.569 41.569 0 0 0 5.071 31.7 37.634 37.634 0 0 0 18.811 15.625l12.059 4.4.775-7.516c7.6 7.8 19.445 15.294 37.577 17.567.013.661.021 1.262.025 1.794a127.418 127.418 0 0 0 -7.635 13.715 28.113 28.113 0 0 0 -17.626 1.879 1.391 1.391 0 0 0 .6 2.657 38.906 38.906 0 0 1 13.758 2.828q-1.355 3.32-2.49 6.6c-4.954-1.5-13.835-3.374-22.717-1.148a2.462 2.462 0 0 0 .174 4.81c6.007 1.026 13.62 3.409 18.8 8.87a149.471 149.471 0 0 0 -4.294 46.22h110.313a111.918 111.918 0 0 0 8.83-25.786c2.8-5.247 9-15.351 18.54-22.637a1.694 1.694 0 0 0 -1.51-2.966 37.034 37.034 0 0 0 -15.5 8.99 62.212 62.212 0 0 0 -1.421-11.981 34.73 34.73 0 0 1 10.363-9.6 1.276 1.276 0 0 0 -.873-2.36 28.51 28.51 0 0 0 -11.469 4.994 59.263 59.263 0 0 0 -14.432-22.264l-.481-.49c-.175-.181-.348-.366-.521-.55l-.172-.182c-.31-.328-.613-.659-.913-.993-.905-1.007-1.659-1.918-2.3-2.78-.912-1.225-1.691-2.383-2.35-3.44 11.954-2.9 22.02-8.325 29.944-16.145a59.558 59.558 0 0 0 11.2-15.38l.624 5.825 12.33-5.077c6.225-2.563 17.216-11.232 18.929-27.467a40.047 40.047 0 0 0 -4.82-23.4 56.34 56.34 0 0 0 -19.191-20.719c-.752-.564-3.278-2.5-6.625-5.463 5.162-5.636 9.91-10.786 13.626-14.806.721-.777 13.213-14.151 24.435-20.521a1.21 1.21 0 0 0 -.833-2.239z" fill="#ccc"/><path d="m155.471 31.68s-22.626-7.622-28.105 23.341c0 0-3.176 26.657-6.788 47.406a73.982 73.982 0 0 1 -17.878 36.873c-2.372 2.631-4.9 5.323-7.424 7.832-1.815 1.8-3.712 3.516-5.639 5.2-3.893 3.4-15.474 14.581-19.149 29.991a31.376 31.376 0 0 0 3.8 24.041 27.631 27.631 0 0 0 13.788 11.575s1.667-16.2 4.049-25.723c0 0 5.606 54.066 82.116 36.918 0 0 66.984 13.814 74.6-51.209a29.207 29.207 0 0 1 11.195 20.007s11.247-4.631 12.791-19.269a30.234 30.234 0 0 0 -3.658-17.57 46.092 46.092 0 0 0 -16.041-17.227 128.5 128.5 0 0 1 -14.82-13.1 76.767 76.767 0 0 1 -21.667-49.606l-1.127-21.3a39.333 39.333 0 0 0 -6.623-20.107c-.235-.346-.48-.693-.732-1.041a37.857 37.857 0 0 0 -41.779-13.856 23.4 23.4 0 0 0 -10.909 6.824z" fill="#ff7a4e"/><path d="m195.008 86.966h-49.95s.734 22.99-17.617 45.645l42.559 31.155v.048l.033-.024.032.024v-.048l42.559-31.155c-18.35-22.655-17.616-45.645-17.616-45.645z" fill="#f14f2a"/><path d="m238.3 130.761a75.794 75.794 0 0 1 -5.228-5.968l-.8-.568-61.172 29.305-58.593-28.069a73.235 73.235 0 0 1 -9.735 13.748c4.3 6.285 17.19 25.19 22.983 34.534 0 0-9.27 16.732 5.879 34.368a67.265 67.265 0 0 1 5.144 23.811c10.069 1.193 22.381.586 37.455-2.792a84.89 84.89 0 0 0 31.364-.487 67.2 67.2 0 0 1 4.969-20.532c15.15-17.636 5.879-34.368 5.879-34.368 5.839-9.417 21.031-31.766 25.946-38.974-1.309-1.232-2.68-2.569-4.091-4.008z" fill="#f14f2a"/><path d="m105.092 99.6s6.865-7.381 13.917-14.386c1.677-1.665 3.37-3.235 4.988-4.678 1.548-10.837 2.732-20.3 3.177-23.924-8.064 5.835-21.207 14.771-28.9 18.734-8 4.12-13.159 8.617-16.511 12.76a14.248 14.248 0 0 0 .693 18.62c12.442 13.444 39.188 42.51 51.45 57.092 0 0 13.745-11.956 14.687-29.29-3.468-.322-35.693-26.801-43.501-34.928z" fill="#ffccc0"/><path d="m208.829 252.866a55.526 55.526 0 0 1 -4.756-5.5 48.187 48.187 0 0 1 -6.848-12.093c.5-11.833 6.069-31.339 6.069-31.339l1.484-4.411h-33.455l-32.061-2.266v6.677c6.487 18 5.8 42.668 5.8 42.668-26.266 38.771-21.376 83.4-21.376 83.4h89.114c25.421-49.289 1.763-71.236-3.971-77.136z" fill="#ffccc0"/><path d="m159.28 330a179.585 179.585 0 0 1 15.354-35.51l-3.276-3.166a134.691 134.691 0 0 0 -21.011 38.676z" fill="#f29086"/><path d="m244.272 75.342c-9.37-4.824-22.7-14.721-29.218-19.717a41.49 41.49 0 0 1 .456 4.227l1 18.894c2.188 1.882 4.628 4.084 7.024 6.464 7.051 7.005 13.916 14.39 13.916 14.39-7.8 8.131-40.02 34.61-43.483 34.928.941 17.334 14.673 29.29 14.673 29.29 12.263-14.582 39.008-43.648 51.45-57.092a14.248 14.248 0 0 0 .694-18.62c-3.352-4.147-8.51-8.644-16.512-12.764z" fill="#ffccc0"/><path d="m217.125 172.217a52.834 52.834 0 0 0 -7.513-12.926 139.781 139.781 0 0 1 -11-16.646l-4.641-8.121-.437-.159a12.835 12.835 0 0 1 -8.423-11.275l-.684-11.124h-26.295l-.683 11.124a12.838 12.838 0 0 1 -8.423 11.275l-.437.159-4.641 8.121a139.781 139.781 0 0 1 -11 16.646 52.8 52.8 0 0 0 -7.513 12.926 24.229 24.229 0 0 0 11.831 30.872 19.51 19.51 0 0 0 2 .844h64.032a19.451 19.451 0 0 0 2-.844 24.228 24.228 0 0 0 11.827-30.872z" fill="#ffccc0"/><g fill="#f29086"><path d="m203.294 203.933 1.484-4.411h-24.73l-40.786 1.812v2.6a73.957 73.957 0 0 1 2.148 7.153l59.339 2.785c1.339-5.712 2.545-9.939 2.545-9.939z"/><path d="m176.586 184.734c-2.965-12.13 2.3-19.559 5.981-23.071a.727.727 0 0 0 -.789-1.2 17.85 17.85 0 0 0 -8.817 8.363 1.875 1.875 0 0 1 -3.366 0 17.854 17.854 0 0 0 -8.817-8.363.727.727 0 0 0 -.789 1.2c3.676 3.512 8.946 10.941 5.981 23.071-2.322 9.5-16.6 11.179-16.7 11.181 6.768 6.246 17.118 5.781 20.243 6.018 3.126-.237 17.011.228 23.779-6.018-.107-.002-14.384-1.681-16.706-11.181z"/><path d="m185.027 121.789-.6-9.823h-26.295l-.672 10.947a31.449 31.449 0 0 0 7.694 2.189 35.168 35.168 0 0 0 4.912.426 35.708 35.708 0 0 0 4.91-.426 31.479 31.479 0 0 0 10.051-3.313z"/></g><path d="m174.634 294.49c14.151-23.371 27.966-37.394 33.4-42.465-.364-.386-2.258-2.555-2.613-2.95-17.342 17.088-47.958 20.093-67.75 10.148a41.4 41.4 0 0 0 -2.4 5.042c20.622 11.235 39.363 30.225 39.363 30.225z" fill="#fff"/><path d="m167.326 46.878c-6.268 12.866-22.268 20.422-22.268 20.422v26.094a24.989 24.989 0 0 0 21.134 24.785 21.67 21.67 0 0 0 7.747 0 24.989 24.989 0 0 0 21.134-24.785v-26.094c-17.119-2.666-27.747-20.422-27.747-20.422z" fill="#ffccc0"/><path d="m145.058 81.285v12.109c0 .35.032.694.047 1.042.119.118.221.248.344.362a15.5 15.5 0 0 0 10.572 4.135 16.2 16.2 0 0 0 14.044-8.011 16.2 16.2 0 0 0 14.045 8.011 15.509 15.509 0 0 0 10.572-4.133c.123-.115.225-.245.344-.363.015-.348.047-.692.047-1.042v-12.11z" fill="#f29086"/><path d="m145.058 79.733h23.75a24.307 24.307 0 0 1 -1.14 6.8c-2.662 8.22-13.162 11.2-19.5 5.327a11.322 11.322 0 0 1 -3.11-4.9z" fill="#313847"/><path d="m195.073 79.733h-23.75a24.307 24.307 0 0 0 1.14 6.8c2.662 8.22 13.162 11.2 19.5 5.327a11.331 11.331 0 0 0 3.11-4.9z" fill="#313847"/><path d="m155.317 79.733h29.366v5.329h-29.366z" fill="#313847"/><path d="m217.125 172.217a52.866 52.866 0 0 0 -7.513-12.926c-2.241-2.875-4.325-5.865-6.3-8.925 0 0-5.906-9.208-7.865-16.333a2.035 2.035 0 0 0 -1.837-1.559 1.922 1.922 0 0 0 -1.88 2.529 114.778 114.778 0 0 0 7.141 16.946 27.1 27.1 0 0 1 2.729 18.051 59.021 59.021 0 0 1 -8.849 22.018 17.5 17.5 0 0 1 -14.4 7.5h-14.157a17.31 17.31 0 0 1 -14.194-7.218 58.621 58.621 0 0 1 -9.007-22.093 26.767 26.767 0 0 1 1.683-15.928l8.087-18.738a2.142 2.142 0 0 0 -.619-2.561 1.471 1.471 0 0 0 -2.3.452c-3.213 6.9-10.056 19.012-10.483 19.768-1.411 2.074-2.876 4.11-4.418 6.09a52.8 52.8 0 0 0 -7.513 12.926 24.229 24.229 0 0 0 11.831 30.872 19.51 19.51 0 0 0 2 .844h64.032a19.564 19.564 0 0 0 2-.844 24.228 24.228 0 0 0 11.832-30.871z" fill="#fff"/><path d="m172.458 241.627a2.267 2.267 0 0 1 -2.266-2.266v-1.3a2.266 2.266 0 1 1 4.532 0v1.3a2.267 2.267 0 0 1 -2.266 2.266z" fill="#f29086"/><path d="m189.563 272.671a117.929 117.929 0 0 0 -18.2 18.657c2.091 1.967 3.27 3.162 3.27 3.162a233.41 233.41 0 0 1 14.889-21.761z" fill="#e6e6e6"/><path d="m167.326 46.878c-6.268 12.866-22.268 20.422-22.268 20.422 15.137-2.112 22.178-10.694 22.178-10.694s7.533 13.007 27.837 14.052v-3.358c-17.119-2.666-27.747-20.422-27.747-20.422z" fill="#f29086"/><path d="m119.009 85.21c1.677-1.665 3.37-3.235 4.988-4.678 1.548-10.837 2.732-20.3 3.177-23.924-2.555 1.849-5.62 4.009-8.859 6.223l-3.808 26.921c1.447-1.48 2.968-3.018 4.502-4.542z" fill="#f29086"/><path d="m215.51 59.852 1 18.894c2.188 1.882 4.628 4.084 7.024 6.464 1.2 1.189 2.387 2.388 3.541 3.562l-3.6-26.869c-3.3-2.39-6.24-4.609-8.417-6.278a41.49 41.49 0 0 1 .452 4.227z" fill="#f29086"/></svg>