<svg id="flat" height="512" viewBox="0 0 500 500" width="512" xmlns="http://www.w3.org/2000/svg"><path d="m172.723 422.914c-6.208-5.5-5.73-14.478-4.369-22.1 1.556-9.487 3.693-19.014 5.136-28.544 0 0 22.435-7.56 27.223 16.382s-15.15 35.476-15.15 35.476z" fill="#ffcfd4"/><path d="m191.566 414.26c-4.113 6-11.833 8.256-18.827 8.637 15.83 13.009 34.81-1.057 37.693-19.009 1.9-9.965.069-20.269-2.358-30.094l-19.185-10.61-14.451 1.795c-.256 2.431-.591 4.862-.96 7.293 19.585.79 26.922 26.956 18.088 41.988z" fill="#db9da7"/><path d="m195.681 371.492a84.233 84.233 0 0 0 12.384 2.3 203.026 203.026 0 0 0 -10.56-31.484l-23.29-.384a89.06 89.06 0 0 1 .214 23.05c7.119 1.785 14.137 4.626 21.252 6.518z" fill="#4f424c"/><path d="m78.438 394.527c-6.866-18.759 7.408-36.289 10.822-54.284l10.072-.5s19.4 15.125 11.575 35.842c-10.661 28.224-32.469 18.942-32.469 18.942z" fill="#ffcfd4"/><path d="m123.429 340.2c-10.614-7.853-21.623-10.845-33.02-9.057a48.935 48.935 0 0 1 -1.155 9.1c30.431 11.332 21.743 55.9-10.8 54.28 5.528 16.608 26 21.82 36.375 6.41 8.552-17.924 9.51-40.991 8.6-60.733z" fill="#db9da7"/><path d="m123.409 340.2a156.791 156.791 0 0 0 -5.584-32.279l-35.035.121c5.721 5.519 7.858 14.2 7.621 22.863 11.107 2.65 21.928 6.595 32.998 9.295z" fill="#4f424c"/><path d="m137.666 261.9c-20.786-12.439-46.6-9.5-67.658.817-13.215 5.97-26.183 14.162-33.508 27.02 0 0 .563 25.135 29.392 24.22s66.232.917 66.232.917c12.564-1.582 19.928-10.022 21.849-21.028-2.262-12.167-6.623-23.33-16.307-31.946z" fill="#f29394"/><path d="m126.146 292.99c2.533 0 2.538-3.938 0-3.938s-2.538 3.938 0 3.938z" fill="#af6058"/><path d="m463.88 182.858c-27.133 72.461-87.592 14.451-161.8 55.129l-32.856-9.832s66.206-48.755 194.656-45.297z" fill="#4f424c"/><path d="m247.616 425.673c-11.028-7.033-17.5-21.453-19.191-34.693-2.5-19.575 6.518-38.5 12.682-57.242a205.219 205.219 0 0 0 10.14-58.818s21.16-17.17 55.6 9.312c0 0 26.664 87.495 4.813 116.712-25.082 33.541-64.044 24.729-64.044 24.729z" fill="#ffcfd4"/><path d="m327.668 299.513a314.014 314.014 0 0 0 -8.642-33.938c-13.635-10.525-49.636-25.18-67.864-3.77q.251 6.553.08 13.115c25.121-6.92 46.16 17.65 47.058 41.408 4.273 59.922-10.963 109.546-50.682 109.341a27.665 27.665 0 0 0 6.876 3.185c87.37 22.054 81.506-82.493 73.174-129.341z" fill="#db9da7"/><path d="m319.017 265.578a523.54 523.54 0 0 0 -22.627-58.259l-48.743 23.79a203.454 203.454 0 0 1 3.5 30.7c22.57-3.834 45.1 5.482 67.87 3.769z" fill="#4f424c"/><path d="m423.039 127.91c-28.664-12.167-53.639-31.825-82.059-44.563-38.581-18.6-82.771-22.93-118.365 2.882a338.948 338.948 0 0 0 -48.414 37.12c-7.506 6.913-14.866 14.283-24.025 18.78a81.2 81.2 0 0 1 -12.072 4.5s-40.962 14-6.374 49.434 156.22 9.805 156.22 9.805l140.763-24.206 5.641-45z" fill="#f29394"/><path d="m370.912 424.283c-7.262-3.492-13.062-10.843-13.235-19.037-.188-8.34 5.182-15.6 9.219-22.9a78.548 78.548 0 0 0 7.221-18.107c41.183 8.271 30.242 60.595-3.205 60.044z" fill="#ffcfd4"/><path d="m408.9 412.041c6.528-14.113 5.91-30.458 4.863-45.741-11.449-7.224-24.283-9.758-38.239-8.49q-.57 3.24-1.406 6.426c27.314 12.4 27.835 53.031-3.194 60.027 15.316 7.092 30.776 4.198 37.976-12.222z" fill="#db9da7"/><path d="m408.723 365.677c1.671.261 3.35.463 5.034.623a211.807 211.807 0 0 0 -8.186-43.894l-30.257 6.531a79.339 79.339 0 0 1 .191 28.869c11.073 2.183 22.016 6.122 33.218 7.871z" fill="#4f424c"/><path d="m462.418 301.941c-7.531-6.324-17.1-9.5-25.746-13.779-11.948-5.7-22.461-15.443-35.306-17.933-26.828-4.734-47.68 19.672-70.663 29.2-6.21 2.609-9.288 3.183-15.168 8.055 0 0-8.161 18.41 56.751 22.108s91.594-18.12 91.594-18.12z" fill="#f29394"/><path d="m468.064 167.885c-1.833-19.373-16.986-33.678-35.688-37.385a66.311 66.311 0 0 1 -9.333-2.6c.2 6.676-.427 14.508-6.355 19.411a3.017 3.017 0 0 0 .537 5.042 106.839 106.839 0 0 1 12.733 7.408c1.989 1.383.82 5.009-1.743 4.134-7.125-2.432-39.828-18.269-40.978-18.617a2.594 2.594 0 0 0 -2.575 4.322c3.568 3.5 6.08 9.12 3.919 14.031-5.979 12.637-29.362-15.195-34.916-18.6-1.43-1.08-3.262.987-2.388 2.388 4.183 6.574 10.046 11.985 15.09 17.889a1.774 1.774 0 0 1 -1.52 2.946c-5.473-.631-10.941-1.444-16.438-1.758a89.941 89.941 0 0 0 -12.534.171 82.066 82.066 0 0 0 -4.3-8.555c-1.276-2.273-5.222-.748-4.305 1.815.886 2.476 1.792 4.947 2.665 7.429a90.924 90.924 0 0 0 -28.123 9.028c-4.258 2.19-9.07 4.74-13.639 5.093-5.61.925-2.969 6.445-2.042 10.048 1.055 3.806-4.916 5.432-5.9 1.626-2.706-10.478-4.421-22.273-9.066-32.342-2.588-3.9-6.454-6.585-11.511-4.413-12.153 7.181-16.384 23.5-28.709 30.086-7.71 4.249-17.02 4.025-25.81 3.5q-5.776-.345-11.544-.821a7.809 7.809 0 0 0 -7.068 3.336c-3.024 4.381-7.908 11.383-10.634 14.564-1.538 1.8-3.891-.5-3.037-2.343 4.765-9.558 11.424-18.059 17.731-26.668 1.241-2.159-1.517-4.592-3.391-2.75-3.844 3.791-7.05 8.237-10.622 12.283q-4.86-.517-9.71-1.111c3.856-3.831 7.476-7.882 11.2-11.841 3.254-3.476 7.253-6.821 9.417-11.1.966-1.914-1.041-4.246-3.047-3.047-9.693 6.212-15.95 18.013-24.943 25.06-23.783-2.156-38.082-17.5-21.376-38.92-13.458 3.867-27.248 9.244-36.9 19.627-24.21 27.9-4.653 53.48 25.845 64.121 43.69 17.013 93.056 21.073 137.83 7.163 53.994-20.412 109.736-43.016 168.4-39.335 7.756.372 16 1.046 22.823-2.666 9.339-5.084 12.957-17.054 11.955-27.649z" fill="#b96062"/><path d="m286.281 211.276h.03l-1.226-.331c2.146 1.531 5.265-1.066 4.06-3.448-.9-2.6-5.139-2.043-5.324.709a2.383 2.383 0 0 0 .392 1.867l-.332-1.226a2.42 2.42 0 0 0 2.4 2.429z" fill="#e8938a"/><path d="m164.14 293.667c-3.112-13.729-14.409-24.681-26.476-31.763 7.492 8.534 8.05 17.514 6.547 25.777a59.822 59.822 0 0 1 4.742 10.072c.7 2.13-2.3 3.115-3.427 1.445-1.768-2.623-7.048-13.479-15.893-21.066a1.641 1.641 0 0 0 -2.32 2.32 77.376 77.376 0 0 1 10.595 14.17 3.415 3.415 0 0 1 -1.01 4.529c-2.112 1.794-5.52 2.231-6.6-.874-.777-2.527-4.676-1.532-3.966 1.056 1.037 3.539 2.517 6.943 3.878 10.365.806 1.915-2.481 3.264-3.341 1.408-.913-1.969-1.837-3.961-2.7-5.981-1.254-2.931-4.965-1.7-7.43-2.33-9.258-1.309-19.022-9.805-39.037-5.358-6.702 1.487-8.302 10.039-9.073 13.418a1.8 1.8 0 0 1 -3.522-.476c.163-3.9 2.613-19.988 3.221-23.8a1.994 1.994 0 0 0 -3.842-1.059c-1.331 2.459-1.223 9.152-5.283 8.379a2.758 2.758 0 0 1 -2.237-2.628c-.1-3.926-2.4-5.07-3.892 2.183-5.706.386-11.808-.358-16.57-3.718-11.233 19.563-4.729 40.6 21.143 33.766 8.387-2.516 15.99-7.474 24.6-9.08 20.165-3.677 38.734 11.014 58.668 12.547-.003.005 31.364 2.887 23.225-33.302z" fill="#b96062"/><path d="m237.125 314.9c-14.521-4.077-27.516-11.747-40.789-18.6-15.793-6.373-32.261 3.182-46.277 10.244l-21.006 11.013s-11.919 11.209 5.229 16.425 67.784 13.518 67.784 13.518l44.034-21.357z" fill="#f29394"/><g fill="#b96062"><path d="m258.691 326.319c-3.042-9.172-14.094-8.4-21.559-11.444.077 7.713-7.936 13.715-15.224 12.634-2.515-3.154-5.451-6.1-7.874-9-1.606-1.922-4.87.6-3.479 2.684 1.318 1.979 4.218 6.627 5.9 9.338a2.313 2.313 0 0 1 -3.835 2.574c-1.231-1.685-2.958-4-3.779-4.929-1.358-1.538-3.534.419-2.705 2.088 1.808 4 5.878 7.65-1.7 7.724-13.89.982-25.666-7.32-38.226-11.7a41.474 41.474 0 0 0 -19.77-1.066c-6.523 1.267-19.976 2.55-17.387-7.664-7.271 4.515-19.606 7.385-19.914 17.55a11.238 11.238 0 0 0 4.825 8.8c11.334 7.908 24.162-.682 36.114-.492 13.855-.047 26.9 5.333 40.373 8.59 36.218 8.678 72.2-4.867 68.24-25.687z"/><path d="m462.414 301.946c-2.894 5.775-9.269 7.572-15.451 7.892a80.6 80.6 0 0 0 -7.805-6.2c-1.771-1.31-4 1.6-2.357 3.055 1.24 1.1 2.432 2.274 3.622 3.46a47.378 47.378 0 0 0 -6.115.642c-2.423-2-4.922-3.939-7.24-6.025a1.853 1.853 0 0 0 -2.618 2.619c1.566 1.627 3.173 3.308 4.848 4.924-4.151 2.173-7.645 4.449-11.477.546a73.316 73.316 0 0 1 -5.3-6.231c-2.01-2.8-3.837-6.148-6.678-8.14-1.376-.966-3.078.672-2.616 2.011 2.609 8.531 4.543 15.9 6.791 24.315.669 2.605-3.325 3.7-4.023 1.109q-.741-2.753-1.446-5.521a3.479 3.479 0 0 0 -4.518-2.434c-3 1.046-7.232 2.283-9.961 2.208-8.87-.244-27.618-2.012-35.288-3.2a8.5 8.5 0 0 0 -6.309 1.537 44.041 44.041 0 0 1 -8.479 5.086 1.672 1.672 0 0 1 -2.016-2.614c8.261-8.945 18.085-11.506 22.055-19.313 1.483-8.415-16.258 8.2-18.737 9.049-1.873 1.138-3.8 2.177-5.735 3.181-7.288 2.807-17.309 1.97-20.023-6.411-4.223 3.719-9.633 10.806-5.133 20.434 5.967 9.935 18.483 9.437 28.572 8.571 10.369-.623 20.855-.37 31.006 2.017 7.886 1.854 15.741 5.005 23.776 4.2 10.305-1.028 19.331-8.425 29.61-9.727 5.941-.752 11.942.585 17.919.348 18.879-1.22 37.671-16.751 21.126-31.388z"/><path d="m378.757 137.327c-1.268-2.975-5.614-.792-4.231 2.06 1.316 2.958 5.474.772 4.231-2.06z"/><path d="m198.625 164.162c-2.936-2.59-5.905 2.726-2.176 3.865l-.032-.019a2.309 2.309 0 0 0 2.208-3.846z"/></g></svg>