<svg id="Flat" height="512" viewBox="0 0 340 340" width="512" xmlns="http://www.w3.org/2000/svg"><path d="m95.8 200.779a129.424 129.424 0 0 1 40.95-3.8l2.978-20.573 19.029-.831.319-21.029 20.507-.868-.612-19.467 20.073.069.575-19.139 19.638 1.58 4.1-21.74 18.6 3.273 2.165-18.594 18.643 2.317 5.413-19.174 16.8 2.56 5.5-16.006 16 1.715 4.522-13.008 15.072 2.76 1.203-26.824s-130.852 35.861-227.909 129.88z" fill="#dae5f7"/><path d="m70.431 235.869 28.967-33.4a16.559 16.559 0 0 0 4.006-12.028l-4.038-46.561c-24.533 22.775-44.111 44.876-44.111 44.876s1.61 33.849 15.176 47.113z" fill="#474756"/><path d="m55.255 188.756 15.176 47.113s-13.867 13.566-3.919 45.822q.933 3.024 1.541 5.813c-.8 9.839-2.7 18.9-11.678 22.984l-34.194-2.616c-6.378-13.84-8.3-28.7-6.229-44.473 9.839-42.425 39.303-74.643 39.303-74.643z" fill="#f4737d"/><g fill="#bf454f"><circle cx="41.653" cy="287.555" r="5.081"/><path d="m68.074 287.614c-5.151 11.563-15.771 16.4-25.032 16.865-24.342 1.227-28.264-23.715-27.075-41.079-.771 3.326-1.437 6.707-1.943 10.148-6.968 47.33 15.71 52.454 29.878 52.454 13.266.003 30.228-10.569 24.172-38.388z"/></g></svg>