<svg id="Flat" height="512" viewBox="0 0 340 340" width="512" xmlns="http://www.w3.org/2000/svg"><path d="m152.628 233.732s-39.7 43.735-42.819 97.03h40.242s8.682-36.53 26.944-50.3h20.529a117.455 117.455 0 0 0 16 50.3h43.106a123.827 123.827 0 0 1 -13.83-31.973 81.3 81.3 0 0 1 -1.809-35.39 184.405 184.405 0 0 0 2.714-32.409z" fill="#5b5b81"/><path d="m150.292 236.465c5.391 5.709 39.737 38.337 93.136 5.985.227-3.729.34-7.586.279-11.46l-91.079 2.742s-.862.951-2.336 2.733z" fill="#333353"/><path d="m242.8 298.789a81.3 81.3 0 0 1 -1.809-35.39 184.405 184.405 0 0 0 2.714-32.409l-13.882.418c-.6 4.591-1.415 9.322-2.522 14.179 0 0-15.285 51.5 13.3 85.175h16.029a123.827 123.827 0 0 1 -13.83-31.973z" fill="#333353"/><path d="m133.21 148.988s-7.48 10.059-10.317 30.693c0 0-7.882 46.107-54.165 43.59l-2.116 23.593s73.781 11.594 86.393-76.1c0-.002-7.93-14.038-19.795-21.776z" fill="#ffcacf"/><path d="m85.85 221.762a56.939 56.939 0 0 1 -17.122 1.509l-2.116 23.593a79.793 79.793 0 0 0 31.434-2.738z" fill="#e5838b"/><path d="m86.745 9.238s-31.431 8.039-34.5 54.623-1.21 135.08-1.21 135.08l18.517 1.219s-8.191-125.591 17.193-190.922z" fill="#d2e8ff"/><path d="m51.037 198.941 18.517 1.219s-.387-5.937-.732-15.892l-18.168-11.41c.163 15.622.383 26.083.383 26.083z" fill="#96aef4"/><path d="m133.21 148.988s20.661-33.015 73.885-31.618c0 0 36.884 51.1 36.612 113.62 0 0-42.341 33.812-91.079 2.742 0 0 15.243-22.1 4.354-48.738-9.837-24.064-23.772-36.006-23.772-36.006z" fill="#e9efff"/><path d="m226.737 174.519a155.113 155.113 0 0 1 1.77 65.194 75.143 75.143 0 0 0 15.2-8.723 147.205 147.205 0 0 0 -.877-27.222l-6.2-28.574a195.069 195.069 0 0 0 -21.23-45.933l-14.954-5.877s-4.246 26.816 18.314 40.516a17.479 17.479 0 0 1 7.977 10.619z" fill="#8294be"/><path d="m140.466 125.332 15.421 19.9a7.887 7.887 0 0 0 12.137.462c.23-.264.46-.535.687-.815a22.057 22.057 0 0 0 2.021-24.441l-7.832-14.347s-16.057 5.167-22.434 19.241z" fill="#ffcacf"/><path d="m52.074 204.113h15.709a0 0 0 0 1 0 0v54.093a7.466 7.466 0 0 1 -7.466 7.466h-.778a7.466 7.466 0 0 1 -7.466-7.466v-54.093a0 0 0 0 1 0 0z" fill="#333353"/><path d="m52.4 211.394h14.33a8.622 8.622 0 0 1 8.622 8.621v20.594a9.028 9.028 0 0 1 -9.027 9.027h-6.666a13.166 13.166 0 0 1 -13.144-11.95c-.711-8.057-.707-15.441.414-21.773a5.53 5.53 0 0 1 5.471-4.519z" fill="#ffcacf"/><path d="m96.005 185.3a9.471 9.471 0 0 0 -5.367.085c-7.12 2.281-7.594 11.45-7.594 11.45h-21.528v-.009h-26.209s-15.587-.716-15.587 14.568c0 8.089 4.263 10.7 7.308 11.535a9.471 9.471 0 0 0 5.367-.085c7.119-2.281 7.593-11.45 7.593-11.45h21.528v.009h26.21s15.587.713 15.587-14.571c0-8.089-4.263-10.701-7.308-11.532z" fill="#ffb664"/><path d="m227.3 151.085a198.017 198.017 0 0 0 -10.958-20.309c-17.711 37.856-52.318 40.856-66.061 40.444a117.821 117.821 0 0 1 6.7 13.774c.441 1.08.825 2.15 1.183 3.214 39.154 2.45 60.942-24.197 69.136-37.123z" fill="#7177db"/><path d="m242.824 203.769c-1.791-9.579-4.189-18.952-6.193-28.573-23.765 37.886-62.385 32.553-75.738 29.324a54.624 54.624 0 0 1 -1.9 14.439c40.701 17.272 73.061-5.841 83.831-15.19z" fill="#7177db"/><path d="m140.466 125.332 5.931 7.654a67.7 67.7 0 0 0 23.041-14.919l-6.538-11.976s-16.057 5.167-22.434 19.241z" fill="#e5838b"/><path d="m178.09 72.31s.334 17.2-7.672 28.077l-22.679 5.713-20.089-28.076 44.57-9.305z" fill="#ffb664"/><path d="m172.22 68.719-44.57 9.305 7.02 9.812 2.245.685a120.568 120.568 0 0 0 26.085-5.721 7.67 7.67 0 0 1 7.481 1.328 20.358 20.358 0 0 0 5.712 3.3 63.527 63.527 0 0 0 1.9-15.112z" fill="#e87b40"/><path d="m128.582 78.178 13.621 9.5a42.33 42.33 0 0 0 10.333 9.1s4.152-8.471 12.29-7.142a8.246 8.246 0 0 1 6.6 5.261 11.1 11.1 0 0 1 -1.2 10.434c-2.158 3.18-6.329 6.784-14.2 7.059 0 0-7.64 17.44-30.893 17.44q-.726 0-1.428-.025c-14.39-.509-25.645-12.649-25.645-27.048v-26.406z" fill="#ffcacf"/><path d="m109.443 99.541a3.494 3.494 0 0 1 -1.013-.151l-3.485-1.053a3.5 3.5 0 1 1 2.026-6.7l3.484 1.053a3.5 3.5 0 0 1 -1.012 6.851z" fill="#e8808f"/><path d="m122.728 99.985a3.5 3.5 0 0 1 -1-6.853l3.59-1.079a3.5 3.5 0 1 1 2.014 6.7l-3.591 1.079a3.492 3.492 0 0 1 -1.013.153z" fill="#e8808f"/><path d="m103.313 196.832c0-8.089-4.263-10.7-7.308-11.535a9.471 9.471 0 0 0 -5.367.085c-7.12 2.281-7.594 11.45-7.594 11.45h-8.937c-2.443 6.481-8.222 10.2-13.053 12.254a1.2 1.2 0 0 0 .462 2.308v.009h26.21s15.587.713 15.587-14.571z" fill="#e87b40"/><path d="m32.282 202.076a8.744 8.744 0 0 0 -3.477.674c-1.958.849-4.328 2.751-4.43 7v.265a2.873 2.873 0 0 0 2.873 2.873 3.852 3.852 0 0 0 3.338-1.929l3.757-6.515a1.577 1.577 0 0 0 -1.366-2.365z" fill="#fff"/><path d="m98.058 76.351v10.559c18.062 6.164 44.266.916 44.266.916a40.056 40.056 0 0 1 -6.065-9.647z" fill="#e5838b"/><path d="m172.406 52.344s5.482-11.236 23.446-13.094c0 0 4.669 14.925-10.606 26.382l-9.451.64z" fill="#3b499b"/><path d="m93.835 62.355s-5.442 2.66-4.294 9.815c1.224 7.624 10.02 8.793 10.02 8.793s36.806 7.361 70.546-6.952a18.943 18.943 0 0 0 19.425 6.339c13.568-3.336 16.568-20.244 16.568-20.244s-14.722-7.157-28.218 2.249c0 0-5.725-36.6-43.554-36.6s-40.493 36.6-40.493 36.6z" fill="#7177db"/><g fill="#3b499b"><path d="m93.835 62.355s22.323 6.317 42.969 1.727a2.068 2.068 0 0 0 -.289-4.082c-12.006-.768-30.56-2.988-39.773-9.4a45.327 45.327 0 0 0 -2.907 11.755z"/><path d="m229.008 185.4a156.463 156.463 0 0 1 2.127 26.972 93.391 93.391 0 0 0 11.689-8.6 166.27 166.27 0 0 0 -6.193-28.573 76.225 76.225 0 0 1 -7.623 10.201z"/><path d="m227.3 151.085a198.017 198.017 0 0 0 -10.958-20.309 74.825 74.825 0 0 1 -11.65 17.992 36.76 36.76 0 0 0 13.237 14.591 90.663 90.663 0 0 0 9.371-12.274z"/></g><path d="m201.525 117.327s80.773-4.927 91.422 84.158c0 0 27.678 3.968 27.33 29.606a7.279 7.279 0 0 1 -6.392 7.237l-4.316-1a11.113 11.113 0 0 1 -2.279 2.171 7.667 7.667 0 0 1 -11.514-3.5c-1.816-4.467-5.8-11.089-13.738-12.44a41.686 41.686 0 0 0 -9.97 7.341 6.84 6.84 0 0 1 -10.881-1.17q-.2-.346-.377-.714a6.726 6.726 0 0 1 .365-6.4 37.173 37.173 0 0 1 7.688-9.082 10.517 10.517 0 0 0 3.679-9.456c-1.773-12.911-10.751-41.756-54.914-55.756 0 0-22.596-7.108-16.103-30.995z" fill="#ffcacf"/><path d="m313.885 238.32c.265-11.058-5.221-17.028-9.958-20.11-1.366-.889-3.118.989-1.935 2.11a22.946 22.946 0 0 1 7.577 17.006 7.025 7.025 0 0 0 3.815 1.031c.169-.003.335-.021.501-.037z" fill="#e5838b"/></svg>