<svg id="flat" height="512" viewBox="0 0 340 340" width="512" xmlns="http://www.w3.org/2000/svg"><path d="m52.555 222.728-15.812 21.92c6.949 9.749 15.4 16.325 24.778 22.911v36.884a27.907 27.907 0 0 1 -10.259-2.64 15.127 15.127 0 0 1 -8.285-13.639v-9.6s-12.377-7.264-25.434-21.794a18.79 18.79 0 0 1 -1.8-22.6l21.321-33.657z" fill="#ffcac0"/><path d="m144.859 222.728 15.812 21.92c-6.949 9.749-15.4 16.325-24.778 22.911v36.884a27.907 27.907 0 0 0 10.259-2.64 15.127 15.127 0 0 0 8.285-13.639v-9.6s12.376-7.265 25.434-21.793a18.79 18.79 0 0 0 1.8-22.6l-21.321-33.657z" fill="#ffcac0"/><path d="m46.487 231.139 6.068-8.411-15.488-22.212-8.392 13.249z" fill="#e5837c"/><path d="m160.347 200.516-15.488 22.212 6.073 8.418 19.763-14.295z" fill="#e5837c"/><path d="m61.521 286.103h74.372v45.647h-74.372z" fill="#7fa0e2"/><path d="m95.408 317.2a.645.645 0 0 0 -1.071.549 61.128 61.128 0 0 1 .055 14h5.968v-3.527a14.754 14.754 0 0 0 -4.952-11.022z" fill="#395787"/><path d="m95.8 308.926c32.026 1.408 40.092-13.248 40.092-13.248v-9.578h-74.371s6.236 21.594 34.279 22.826z" fill="#395787"/><path d="m123.084 164.039h-51.754a28.963 28.963 0 0 0 -21.737 9.823l-20.88 22.578 23.842 26.288 8.966-12.428v75.8c10.393 15.079 35.686 14.876 35.686 14.876s28.293.2 38.686-14.876v-75.8l8.966 12.431 23.841-26.291s-23.809-32.401-45.616-32.401z" fill="#ffb655"/><path d="m112.127 126.233v42.31a14.614 14.614 0 0 1 -14.614 14.614h-.613a14.614 14.614 0 0 1 -14.614-14.614v-23.863z" fill="#ffcac0"/><circle cx="254.443" cy="81.01" fill="#f74f73" r="40.726"/><path d="m151.814 146.7h129.109a.753.753 0 0 0 .422-1.377l-.122-.083a24.728 24.728 0 0 1 -10.347-16.578c-.789-4.918-3.047-11.323-9.273-14.629-10.965-5.821-19.691-2.24-19.691-2.24s.548-33.342-29.985-33.342c-27.311 0-29.09 30.209-29.09 30.209s-13.115.514-16.353 15.033a33.277 33.277 0 0 1 -10.56 18.246 41.39 41.39 0 0 1 -4.5 3.368.753.753 0 0 0 .39 1.393z" fill="#98baf4"/><g fill="#ff9fb8"><path d="m254.442 23.4a3.5 3.5 0 0 1 -3.5-3.5v-8.15a3.5 3.5 0 0 1 7 0v8.15a3.5 3.5 0 0 1 -3.5 3.5z"/><path d="m323.7 84.51h-8.146a3.5 3.5 0 0 1 0-7h8.146a3.5 3.5 0 0 1 0 7z"/><path d="m297.656 41.3a3.5 3.5 0 0 1 -2.474-5.975l5.76-5.76a3.5 3.5 0 1 1 4.95 4.95l-5.761 5.76a3.491 3.491 0 0 1 -2.475 1.025z"/><path d="m303.417 133.483a3.487 3.487 0 0 1 -2.475-1.025l-5.76-5.76a3.5 3.5 0 0 1 4.949-4.95l5.761 5.76a3.5 3.5 0 0 1 -2.475 5.975z"/><path d="m211.228 41.3a3.489 3.489 0 0 1 -2.474-1.025l-5.76-5.761a3.5 3.5 0 0 1 4.949-4.949l5.76 5.76a3.5 3.5 0 0 1 -2.475 5.975z"/></g><path d="m82.287 157.116c5.867.632 22.84 1.248 29.84-9.767v-21.116l-29.84 18.447z" fill="#e5837c"/><path d="m61.7 86.357 1.564 47.434s.688 17.072 24 17.072 24.872-17.332 24.872-24.63c0 0 11.761 0 14.269-13.061a20.011 20.011 0 0 0 -8.957-20.349c-10.171-6.656-29.107-14.485-55.748-6.466z" fill="#ffcac0"/><path d="m84.917 137.077a24.991 24.991 0 0 1 -4.654-.428 3 3 0 1 1 1.183-5.882c2.512.5 7.312.6 9.5-1.295a3 3 0 1 1 3.924 4.539c-2.87 2.489-6.857 3.066-9.953 3.066z" fill="#e5837c"/><path d="m74.582 116.021a3 3 0 0 1 -3-3v-1.728a3 3 0 0 1 6 0v1.728a3 3 0 0 1 -3 3z" fill="#e5837c"/><path d="m88.385 116.021a3 3 0 0 1 -3-3v-1.728a3 3 0 0 1 6 0v1.728a3 3 0 0 1 -3 3z" fill="#e5837c"/><path d="m108.881 88.182c-10.881-4.807-26.77-7.97-47.181-1.825l.362 10.986h29.938s.547 13.6 16.88 16.693z" fill="#e5837c"/><path d="m63.805 89.7h33.042s-2.568 13.655 12.034 24.336c0 0 .946-9.329 9.464-10.816h3.283a8.416 8.416 0 0 0 8.434-8.3c.073-6.744-2.124-15.56-13.34-18.2 0 0-2.116-16.309-31.438-19.658a32.608 32.608 0 0 1 -9.376-2.527 46.888 46.888 0 0 1 -7.994-4.314 26.223 26.223 0 0 0 .406 12.979s-16.36-2.7-24.607-12.979c0 0-7.22 20.757 6.147 33.859a19.908 19.908 0 0 0 13.945 5.62z" fill="#4a4a60"/></svg>