<svg id="Flat" height="512" viewBox="0 0 340 340" width="512" xmlns="http://www.w3.org/2000/svg"><path d="m60.68 205.662h205.43v77.971h-205.43z" fill="#e59b9d"/><g fill="#915362"><path d="m107.613 242.113a3.5 3.5 0 0 0 -3.5 3.5v33.206a3.5 3.5 0 0 0 7 0v-33.206a3.5 3.5 0 0 0 -3.5-3.5z"/><path d="m107.613 200.994a3.5 3.5 0 0 0 -3.5 3.5v23.968a3.5 3.5 0 0 0 7 0v-23.968a3.5 3.5 0 0 0 -3.5-3.5z"/><path d="m163.4 207.133a3.5 3.5 0 0 0 -3.5 3.5v68.186a3.5 3.5 0 0 0 7 0v-68.186a3.5 3.5 0 0 0 -3.5-3.5z"/><path d="m219.432 256.764a3.5 3.5 0 0 0 -3.5 3.5v18.555a3.5 3.5 0 0 0 7 0v-18.555a3.5 3.5 0 0 0 -3.5-3.5z"/><path d="m219.432 241.226a3.5 3.5 0 0 0 -3.5 3.5v.887a3.5 3.5 0 0 0 7 0v-.887a3.5 3.5 0 0 0 -3.5-3.5z"/><path d="m219.432 207.133a3.5 3.5 0 0 0 -3.5 3.5v20.255a3.5 3.5 0 0 0 7 0v-20.255a3.5 3.5 0 0 0 -3.5-3.5z"/><path d="m60.68 268.347h205.43v15.286h-205.43z"/><path d="m60.68 205.662h205.43v14.888h-205.43z"/></g><path d="m228.5 89.9s-35.407 27.9-37.292 79.943h16.015s-.7-43.6 25.277-64.554l3.543-17.489z" fill="#474756"/><path d="m200.353 90.34c3.834-7.133 10.62-8.553 17.748-11.78-10 .463-18.61 1.278-23.432-2.928a13.6 13.6 0 0 1 -5.448-10.343 11.465 11.465 0 0 1 4-9.991 14.457 14.457 0 0 1 14.766-2.29l7.594 3-4.59-3.617a15.358 15.358 0 0 1 -5.964-11.264 13.6 13.6 0 0 1 4.487-10.794 11.461 11.461 0 0 1 10.241-3.3 14.459 14.459 0 0 1 11.187 9.908c.575 1.766 1.266 3.881 2 6.138.314-.115.629-.228.945-.332l-1.416-5.84a15.356 15.356 0 0 1 2.28-12.562 13.6 13.6 0 0 1 10.181-5.7 11.465 11.465 0 0 1 10.093 3.73 14.457 14.457 0 0 1 2.679 14.7c-.715 1.957-1.587 4.345-2.513 6.883l.223.1 2.972-3.983a15.369 15.369 0 0 1 11.484-6.3 13.607 13.607 0 0 1 10.54 4.223 11.789 11.789 0 0 1 3.569 10.151c-1.013 9.915-13.627 14.459-18.667 16.251 0 0 13.659-3.95 22.26 1.527 2.938 1.871 5.284 5.414 5.55 10.7a11.467 11.467 0 0 1 -4.2 9.905 14.46 14.46 0 0 1 -14.822 1.989l-6.25-2.625c-.07.113-.146.224-.218.336l3.452 2.84a15.358 15.358 0 0 1 5.725 11.388 13.606 13.606 0 0 1 -4.715 10.7 11.508 11.508 0 0 1 -11.052 2.921 14.457 14.457 0 0 1 -10.223-9.955l-.13-.413a15.368 15.368 0 0 1 -2.207 12.908 13.605 13.605 0 0 1 -9.86 5.63 11.463 11.463 0 0 1 -10.17-3.515 14.457 14.457 0 0 1 -2.989-14.641c.743-2.174 1.666-4.877 2.638-7.728l-3.395 4.757a15.353 15.353 0 0 1 -11 6.5 13.6 13.6 0 0 1 -10.966-3.972 12.273 12.273 0 0 1 -3.312-5.037 10.552 10.552 0 0 1 .925-8.275z" fill="#ffbd85"/><circle cx="241.361" cy="70.471" fill="#ffbd85" r="32.431"/><circle cx="96.257" cy="65.556" fill="#89b9f2" r="32.431"/><path d="m109.494 96.77s13.526 33.691 11.051 73.072h19.794s-4.044-50.626-19.959-77.855z" fill="#474756"/><path d="m141.7 66.834c-6.195-5.216-13.027-4.033-20.842-4.405 9.469-3.258 17.769-5.675 20.7-11.362a13.6 13.6 0 0 0 1.25-11.623 11.466 11.466 0 0 0 -7.4-7.814 14.458 14.458 0 0 0 -14.571 3.317l-5.951 5.591 2.933-5.055a15.358 15.358 0 0 0 1.389-12.669 13.6 13.6 0 0 0 -8.152-8.379 11.465 11.465 0 0 0 -10.736.71 14.458 14.458 0 0 0 -6.739 13.335c.116 1.854.255 4.074.4 6.445-.335.008-.669.019-1 .039l-.838-5.95a15.354 15.354 0 0 0 -6.752-10.836 13.6 13.6 0 0 0 -11.565-1.542 11.464 11.464 0 0 0 -8.006 7.188 14.458 14.458 0 0 0 2.931 14.653c1.387 1.555 3.078 3.454 4.875 5.472l-.169.177-4.231-2.606a15.369 15.369 0 0 0 -13-1.619 13.6 13.6 0 0 0 -8.239 7.813 11.785 11.785 0 0 0 .426 10.751c4.6 8.843 18 8.415 23.344 8.222 0 0-14.153 1.366-20.128 9.628-2.041 2.823-2.914 6.982-1.212 12a11.469 11.469 0 0 0 7.561 7.656 14.458 14.458 0 0 0 14.5-3.624l4.841-4.747c.107.08.219.154.327.232l-2.161 3.913a15.354 15.354 0 0 0 -1.121 12.7 13.6 13.6 0 0 0 8.326 8.2 11.509 11.509 0 0 0 11.351-1.361 14.456 14.456 0 0 0 5.831-13.024l-.047-.563.016.132a15.37 15.37 0 0 0 6.811 11.184 13.611 13.611 0 0 0 11.242 1.6 11.464 11.464 0 0 0 8.156-7.018 14.458 14.458 0 0 0 -2.621-14.712c-1.492-1.746-3.347-3.918-5.3-6.209l4.91 3.169a15.35 15.35 0 0 0 12.616 1.981 13.6 13.6 0 0 0 8.729-7.736 12.258 12.258 0 0 0 1.22-5.9 10.551 10.551 0 0 0 -3.904-7.354z" fill="#89b9f2"/><circle cx="96.257" cy="63.489" fill="#fff" r="10.1"/><path d="m62.544 178.6s-15.444-5.284-15.684-22.84c0 0 7.959 6.086 18.259 4.916 0 0-10.768-9.831-10.3-23.642 0 0 2.341 6.086 13.811 6.554s24.578 10.534 24.578 10.534-5.852-16.62-12.406-22c0 0 29.728-1.873 47.518 29.728 0 0 2.809-13.108 20.365-22 8.223-4.167 12.749-9.36 15.237-13.7 0 0 12.151 11.459 4.426 31.962 0 0 11.236-5.384 16.386-16.62a21.845 21.845 0 0 1 3.979 18.727 56.407 56.407 0 0 1 22.238-11.7 46.468 46.468 0 0 0 15.461-7.24 19.484 19.484 0 0 1 -2.908 17.773s7.109-9.831 25.836-12.64a48.7 48.7 0 0 0 25.678-12.226s6.391 18.078-9.761 27.675a67.637 67.637 0 0 1 21.536-5.384s-.937 18.727-19.429 23.408z" fill="#c9d38c"/><path d="m50.712 178.6h225.367a0 0 0 0 1 0 0v22.79a7.833 7.833 0 0 1 -7.833 7.833h-209.702a7.833 7.833 0 0 1 -7.833-7.833v-22.79a0 0 0 0 1 .001 0z" fill="#e59b9d"/><path d="m77.77 307.131h47.352a0 0 0 0 1 0 0v12.03a7.4 7.4 0 0 1 -7.4 7.4h-32.55a7.4 7.4 0 0 1 -7.4-7.4v-12.03a0 0 0 0 1 -.002 0z" fill="#915362"/><path d="m209.071 307.131h32.548a7.4 7.4 0 0 1 7.4 7.4v12.03a0 0 0 0 1 0 0h-47.35a0 0 0 0 1 0 0v-12.03a7.4 7.4 0 0 1 7.402-7.4z" fill="#915362" transform="matrix(-1 0 0 -1 450.69 633.694)"/><path d="m58.544 280.073a7.832 7.832 0 0 0 -7.832 7.832v22.786h225.367v-22.791a7.833 7.833 0 0 0 -7.832-7.832z" fill="#e59b9d"/><circle cx="241.361" cy="70.471" fill="#fff" r="10.1"/></svg>