<svg id="icons" height="512" viewBox="0 0 340 340" width="512" xmlns="http://www.w3.org/2000/svg"><path d="m69.628 79.019 15.743-16.198 44.094 48.638-17.56 9.844z" fill="#e9ebfc"/><path d="m129.963 109.526-44.357-46.946-15.978 16.439 9.5 9.506 3.744-2.417a8.609 8.609 0 0 1 10.938 1.327l26.664 28.28z" fill="#acb9d4"/><g fill="#414151"><path d="m96.642 112.583 22.264-21.417 174.932 206.534a6.2 6.2 0 0 1 1.317 3.333 9.973 9.973 0 0 1 -9.585 11.067c-.091 0-.182.006-.273.008-8.665.152-16.53-3.8-20.588-8.211l-168.261-185.638a4.076 4.076 0 0 1 .194-5.676z"/><path d="m95.57 44.889a8.2 8.2 0 0 1 .9 11.749l-26.8 30.215a8.375 8.375 0 0 1 -12.29.262l-8.38-8.678 35.758-33.237a8.2 8.2 0 0 1 10.812-.311z"/><path d="m28.283 71.586 24.417 12.042.377 6.427a19.244 19.244 0 0 0 .508 8.654l.545 9.3c-.524 3.9-.022 8.4.767 13.064l.8 13.559-37.145 25.789a218.378 218.378 0 0 1 .179-48.326 16.209 16.209 0 0 0 1.089-8.069 157.6 157.6 0 0 1 8.463-32.44z"/></g><path d="m18.552 160.421s15.82-22.01 37.142-25.793l4.186 5.443a9.954 9.954 0 0 0 7.092 3.853l24.488 1.976 15.131 80.36-73.891-48.773a34.362 34.362 0 0 1 -10.61-11.116z" fill="#696987"/><path d="m241.683 148.357s13.76 2.218 31.382 21.858q4.974 5.544 10.48 10.582l19.135 17.471-29.808 27.991-29.461-8.9a94.836 94.836 0 0 1 -10.637-3.921l-9.5-4.164z" fill="#696987"/><path d="m91.46 145.9-13.217-1.066-1.3 3.646a56.186 56.186 0 0 0 -2.335 28.926l5.762 31.549 26.218 17.3z" fill="#414151"/><path d="m253.8 175.437v-21.775c-7.415-4.541-12.114-5.305-12.114-5.305l-18.411 60.917 9.5 4.164a94.867 94.867 0 0 0 9.715 3.628l7.152-18.9a64.207 64.207 0 0 0 4.158-22.729z" fill="#414151"/><path d="m144.874 125.523-4.832 12.541c6.314 19.831 17.281 35.187 29.733 49.115l33.91-59.011z" fill="#ffc4b6"/><path d="m169.775 187.179 33.909-59.011-58.81-2.645-4.832 12.541c.6 1.892 1.26 3.731 1.944 5.544l25.246 5.348a3.686 3.686 0 0 1 2.545 5.231l-10.168 20.713c3.223 4.25 6.631 8.325 10.166 12.279z" fill="#ea8b7f"/><path d="m143.493 128.168-21.336 13.1h-27.744a9.021 9.021 0 0 0 -8.813 7.045c-1.2 5.407-2.385 13.2-1.538 20.754a24.169 24.169 0 0 0 .447 2.56c1.473 6.581 8.5 36.239 20.076 57.659a34.262 34.262 0 0 1 4.174 17.786 141.229 141.229 0 0 1 -2.21 20.54 10.775 10.775 0 0 0 2.34 9.129l11.618 13.639h61.36l4.619-85.777s-32.862-39.724-42.993-76.435z" fill="#696987"/><path d="m165.579 203.2h19.933c-5.507-6.885-32.923-42.269-42.019-75.231l-21.336 13.1s12.709 33.831 43.422 62.131z" fill="#414151"/><path d="m197.181 130.386s-35.275 45.936-59.323 119.1c0 0-5.073 12.4 2.184 24.7 0 0 6.236 9.178 8.129 16.192h63.829l8.682-14.756a11.33 11.33 0 0 0 1-9.262l-4.708-14.412a21.794 21.794 0 0 1 1.2-16.472l20.026-40.252a68.863 68.863 0 0 0 6.56-21.27l3.213-23.34a7.468 7.468 0 0 0 -7.836-8.474l-4.252.25a18.029 18.029 0 0 1 -5.432-.506l-15.3-3.82-11.466-12.541z" fill="#696987"/><path d="m153.261 267.645q-.189-.6-.351-1.178a30.008 30.008 0 0 1 .145-16c13.784-49.994 62.1-112.407 62.1-112.407l-11.467-12.541-7.139 2.838s-37.367 48.25-61.415 121.414c0 0-4.187 12.614 3.07 24.914 0 0 6 8.677 7.887 15.691h17.767c0-4.623-4.613-11.966-6.954-15.394a28.244 28.244 0 0 1 -3.643-7.337z" fill="#414151"/><path d="m211.518 56.076a33.223 33.223 0 0 0 -6.488-7.843 163.072 163.072 0 0 0 -28.93-20.257 12.769 12.769 0 0 0 -12.363 0 163.054 163.054 0 0 0 -28.937 20.257 33.491 33.491 0 0 0 -6.577 7.993c-12.274 20.79-12.047 44.561-11.445 53.378a10.943 10.943 0 0 0 2.411 6.227c19.191 23.345 50.724 22.224 50.724 22.224s31.533 1.121 50.724-22.224a10.953 10.953 0 0 0 2.411-6.227c.606-8.84.833-32.704-11.53-53.528z" fill="#696987"/><path d="m208.969 88.034a11.854 11.854 0 0 0 -1-8.465c-7.066-13.266-19.428-21.5-28.135-25.956a21.772 21.772 0 0 0 -19.782 0c-8.739 4.462-21.16 12.732-28.22 26.063a11.9 11.9 0 0 0 -1.038 8.273c2.209 9.472 5.16 32.614 27.06 44.857 0 0 13.948 2.821 23.24.7 21.838-12.224 25.473-35.906 27.875-45.472z" fill="#414151"/><path d="m193.751 82.428a63.9 63.9 0 0 0 -17.011-15.969 12.419 12.419 0 0 0 -13.7.031 63.946 63.946 0 0 0 -16.957 15.931 19.152 19.152 0 0 0 -3.4 12.348 91.607 91.607 0 0 0 1.525 12.258s4.074 12.478 7.567 17.283a33.425 33.425 0 0 0 14.753 12.633 51.148 51.148 0 0 0 6.766 0 33.426 33.426 0 0 0 14.752-12.633c3.545-4.876 7.62-17.554 7.62-17.554a92.229 92.229 0 0 0 1.473-11.992 19.143 19.143 0 0 0 -3.388-12.336z" fill="#ffc4b6"/><path d="m187.029 126.829a26.857 26.857 0 0 0 2.085-2.841c3.753-5 8.067-18 8.067-18a91.723 91.723 0 0 0 1.559-12.3 19.4 19.4 0 0 0 -3.735-12.834 66.925 66.925 0 0 0 -17.865-16.18 13.506 13.506 0 0 0 -14.5.032 66.925 66.925 0 0 0 -17.877 16.238 19.361 19.361 0 0 0 -3.663 12.819 91.115 91.115 0 0 0 1.611 12.5s4.312 12.793 8.01 17.72a33.491 33.491 0 0 0 5.446 6.4c-.116-.291-7.752-19.426-9.326-34.073a15.741 15.741 0 0 1 2.2-9.885 43.937 43.937 0 0 1 13.159-13.542 13.119 13.119 0 0 1 15.676.9 54.943 54.943 0 0 1 11.854 13.448 15.7 15.7 0 0 1 2.362 8.687c-.121 6.87-.984 19.953-5.385 30.909z" fill="#ea8b7f"/><path d="m173.5 137.94c10.321-4.135 16.471-13.952 16.471-13.952 3.754-5 5.941-11.672 7.212-18-4.984-2.254-13.245-4.849-22.259-7.679a16.514 16.514 0 0 0 -10.054.037c-8.877 2.857-17.14 5.676-22.159 7.92 1.279 6.242 3.456 12.792 7.155 17.72 0 0 6.15 9.817 16.472 13.952a55.812 55.812 0 0 0 7.162 0z" fill="#414151"/><path d="m249.471 238.259 9.591-8.122a18.717 18.717 0 0 0 6.4-5.418l12.573-10.647c4.2-2.413 7.688-5.125 9.9-8.382l11.865-10.051 19.656 15.068a11.617 11.617 0 0 1 3.2 14.883 19.057 19.057 0 0 1 -3.538 4.452 20.67 20.67 0 0 1 -4.131 2.94l-42.128 23.437z" fill="#414151"/><path d="m249.471 238.259-24.319 20.594a5.8 5.8 0 0 0 -.5 8.374l7.976 8.562a15.5 15.5 0 0 0 20.119 2.211l13.156-9.028a15.462 15.462 0 0 0 6.43-9.812l.531-2.745z" fill="#ffc4b6"/><path d="m28.283 71.586s6.181-18.894 17.95-32.755l18.046 21.707-11.579 23.09z" fill="#ea8b7f"/><path d="m19.007 19.326 2.275-2.158a10.018 10.018 0 0 1 13.9.107l38.586 37.736-15.029 16.575-39.739-37.726a10.017 10.017 0 0 1 .007-14.534z" fill="#414151"/><path d="m43.475 51.111 19.1 15.529 11.404-11.423a10.5 10.5 0 0 0 .343-13.773 129.761 129.761 0 0 0 -11.458-12.454 12.776 12.776 0 0 0 -17.434-.034 37.712 37.712 0 0 0 -3.9 4.26 12.822 12.822 0 0 0 1.945 17.895z" fill="#ffc4b6"/><path d="m216.976 251.95a21.774 21.774 0 0 1 .067-13.657l-.011-.034-12.362 24.921a2.373 2.373 0 0 0 3.79 2.747l9.9-9.735z" fill="#414151"/><path d="m265.46 224.719-6.4 5.418a97.332 97.332 0 0 1 23.631 20.814l7.078-3.938a103.459 103.459 0 0 0 -24.309-22.294z" fill="#696987"/><path d="m319.907 229.248c-9.9-10.692-22.649-18.633-31.976-23.558l-9.9 8.382c5.584 6.838 13.152 17.656 17.081 29.969l7.119-3.961a97.858 97.858 0 0 0 -12.923-24.451c7.7 4.466 16.7 10.636 24 18.287l1.679-.934a20.67 20.67 0 0 0 4.131-2.94c.282-.262.535-.528.789-.794z" fill="#696987"/><path d="m120.507 290.38h91.493v26.353a8.848 8.848 0 0 1 -8.848 8.848h-73.8a8.848 8.848 0 0 1 -8.848-8.848z" fill="#414151"/><path d="m22.219 91.552c8.03 1.046 20.672 3.183 31.367 7.157l-.508-8.654a165.4 165.4 0 0 0 -28.849-6.322q-1.113 3.912-2.01 7.819z" fill="#696987"/><path d="m17.324 137.54a92.431 92.431 0 0 1 37.576-16.471l-.767-13.064a117.649 117.649 0 0 0 -34.309-3.979c-.426 2.73-.788 5.425-1.09 8.069a114.485 114.485 0 0 1 28.644 2.462 100 100 0 0 0 -29.847 13.043c-.148 3.51-.209 6.844-.207 9.94z" fill="#696987"/><path d="m162.317 90.458a2.981 2.981 0 0 1 -.7-.084l-3.6-.87a2.979 2.979 0 1 1 1.4-5.791l3.6.87a2.979 2.979 0 0 1 -.7 5.875z" fill="#d3625f"/><path d="m177.232 90.458a2.979 2.979 0 0 1 -.7-5.875l3.6-.87a2.979 2.979 0 1 1 1.4 5.791l-3.6.87a2.981 2.981 0 0 1 -.7.084z" fill="#d3625f"/><path d="m62.572 66.64s4.893-4.522 8.707-8.5a6.665 6.665 0 0 0 -.116-9.324l-9.673-9.667a7.924 7.924 0 0 0 -11.965.874 12.993 12.993 0 0 0 -.973 12.727l-1.264 1.461z" fill="#ea8b7f"/><path d="m52.623 42.664-.523.719a8.369 8.369 0 0 0 .977 10.964l1 .96a7.3 7.3 0 0 0 -.944.581 9.77 9.77 0 0 0 -1.1 14.876l4.748 4.725 11.319-13.573a7.918 7.918 0 0 0 -.435-10.625l-8.93-9.081a4.017 4.017 0 0 0 -6.112.454z" fill="#ffc4b6"/><path d="m272.333 259.164.531-2.745-23.393-18.16-5.436 4.6 10.288 13.481a6.935 6.935 0 0 1 -.757 9.255l-10.566 9.965a11.252 11.252 0 0 1 -7.043 2.928 15.5 15.5 0 0 0 16.79-.488l13.156-9.028a15.462 15.462 0 0 0 6.43-9.808z" fill="#ea8b7f"/><path d="m121.441 259.89-15.231-27.169-.011.012a33.877 33.877 0 0 1 2.56 14.339c-.125 2.85-.327 6.069-.639 9.363l11.188 5.678a1.61 1.61 0 0 0 2.133-2.223z" fill="#414151"/></svg>