<svg id="flat" height="512" viewBox="0 0 500 500" width="512" xmlns="http://www.w3.org/2000/svg"><g fill="#4f424c"><path d="m84.412 58.858c8.271-3.578 14.048-11.058 20.739-17.098s16.018-10.96 24.462-7.813c3.806 1.419 6.886 4.325 9.378 7.532a12.054 12.054 0 0 0 3.207 3.305c7.209 3.595 14.813-8.023 29 2.011a151.592 151.592 0 0 0 22.266 12.072 1.14 1.14 0 0 1 -.4 2.2c-8.754.16-23.68.444-32.246.68-12.657.347-24.467 1.081-35.178 7.834z"/><path d="m432.971 41.011c-17.749-20.1-42.23-20.99-57.466-1.742 0 0-12.227-4.648-16.838-4.236-11.288 1.007-19.222 11.226-29.159 16.675-4.526 2.482-9.515 3.976-14.461 5.453l-13.378 3.995a1.791 1.791 0 0 0 .408 3.5c31.2 1.84 63.052.849 92.255 11.647 0 .003 34.203-21.987 38.639-35.292z"/><path d="m336.454 219.573-21.085-23.523a2.317 2.317 0 0 0 -3.624.218l-9.469 13.532a2.624 2.624 0 0 1 -4.524-.378c-4.177-8.842-14.26-29.957-21.255-42.72a2.317 2.317 0 0 0 -4.159.206l-14.805 34.511a2.626 2.626 0 0 1 -4.684.283c-5.254-9-12.944-20.463-16.266-25.352a2.313 2.313 0 0 0 -3.6-.28l-17.134 18.235a2.625 2.625 0 0 1 -3.982-.18c-4.52-5.782-15.933-20.511-20.615-27.732l-3.8 120.463h146.102z"/><path d="m392.061 309.082c13.925-10.923 35.794-5.844 43.482 10.1 13.8-1.583 28.046 6.008 34.965 18.048 14.978 26.439-5.408 58.759-34.847 60.684-13.743 1.479-24.126-4.944-32.485-15.376-15.076-16.538-28.216-41.563-16.489-63.22z"/><path d="m45.517 365.3c4.693-14.187 19.1-21.83 33.468-21.248 3.378-.741 5.9-3.478 8.883-5.227 12.33-6.884 25.969 2.1 35.44 10.139-8.7 18.423-19.17 36.7-32.677 51.9-12.06-7.581-23.556-16.573-35.422-24.624z"/></g><path d="m385.752 285.659c-6.052-6.659-13.275-12.351-18.212-19.878-4.3-6.551-6.64-14.156-9.053-21.61q-10.414-32.171-23.845-63.264l-12.555 48.967c-2.093 8.635-9.788 10.592-16.922 13.64a31.438 31.438 0 0 0 -13.518 10.95l-18.553 26.561c-5.964 1.424-10.359-.556-13.024-6.29-8.747-17.312-23.263-55.083-29.182-69.485a2.98 2.98 0 0 0 -5.13-.725c-7.887 10.226-19.251 26.564-19.251 26.564l-19.072-71.28c-10.659 31.31-19.345 63.54-29.393 94.68-4.808 5.372-82.08 167.229 95.254 204.557 0 0 120.8-27.548 147.7-122.628.504-18.661-4.08-35.735-15.244-50.759z" fill="#b6c3dd"/><path d="m409.33 323.441c-6.848-13.192-13.565-26.758-23.578-37.782 6.077 15 13.685 39.253 2.547 51.17a4.95 4.95 0 0 0 .311 6.975 34.243 34.243 0 0 1 4.719 5.471c1.415 2.062-1.591 3.962-3.258 2.514-4.294-3.733-28.075-11.748-39.283-31.349-3.339-5.84-6.658-12.137-11.107-17.171-1.337-1.514-3.7.1-3.251 1.892 1.553 6.165 5.44 12.261 8.742 17.642 6.465 11.086 13.592 16.649 23.92 25.78a14.478 14.478 0 1 1 -23.165 16.3c-4.9-12.179-11.063-27.284-13.357-29.355a2.1 2.1 0 0 0 -3.54 1.472c-.456 4.816 11.7 34.084 13.381 38.173a6.784 6.784 0 0 1 -4.289 9.034c-3.378 1.06-22.632 5.782-22.566 39.288.006 2.879-4.216 2.7-4.336 0-2.438-54.848-34.846-72.882-36.287-7.569-.666 30.2-18.572 29.331-31.113 24.183a6.667 6.667 0 0 1 -4.079-6.525c.093-1.8 2.11-23.3.866-31.84-.289-1.977-3.289-1.724-3.752 0-1.391 5.173-1.795 16.455-3.114 24.522-1.539 9.408-12.04 10.953-12.212-1.166 1.063-10.933 2.2-21.86 3.491-32.769.586-4.943 2.523-10.943.4-15.586a2.143 2.143 0 0 0 -3.35-.431c-2.944 3.543-2.7 8.659-3.266 13.114-.776 6.129-2.536 21.542-2.7 23.113a2.783 2.783 0 0 1 -5.3.868c-21.843-46.022 11.252-88.769-11.789-115.029a2.839 2.839 0 0 0 -4.713 1.245c-1.988 8.725-23.829 79.067-27.886 93.262-.7 2.45-5.322 1.945-4.558-.616 14.238-47.692-4.565-41.632 9.672-87.8 2.056-6.669 5.223-13.307 6.622-20.146.566-2.764-3.195-4.636-4.712-1.987-2.144 3.744-5.876 13.973-8.588 21.754a3.2 3.2 0 0 1 -5.861.423 64.943 64.943 0 0 0 -4.631-7.468c-5.991-8.841-3.946-21.284-2.624-31.3-8.32 15.228-12.5 32.376-18.42 48.726a14.09 14.09 0 0 1 -3.026 5.509c-1.677 1.629-4.01 2.337-6.139 3.3-11.877 5.375-17.681 18.79-22.274 30.833l46.146 70.238c56.986 43.887 91.562 49.855 159.092 39.2 0 0 39.816-33.145 81.061-71.76 36.129-33.833 21.154-68.352 21.154-68.352z" fill="#7b8aa5"/><path d="m407.9 308.49c-1.273-1.547-4.213.118-3.448 2.007 2.749 6.782-1.164 10.512-3.442 16.433-2.782 7.338-.155 17.223 6.984 21.1-2.99 8.731-8.211 13.82-10.377 20.635-4.549 12.2-16.458-1.714-35.623 23.115-3.389 4.372-5.223 12.775-6.111 18.343a4.823 4.823 0 0 1 -5.7 3.988c-5.4-1.079-13.971-1.132-19.46 7.109a111.617 111.617 0 0 1 -18.876 21.974c-3.948.479-7.528-.289-11.679-.9-9.034-1.73-13.357 2.682-17.892 9.773a109.984 109.984 0 0 0 -6.838 10.079c-20.974 4.038-40.552 2.044-51.745-8.169-7.657-7.17-17.837-9.7-31-10.12-11.757-.152-10.5-16.753-16.788-21.247-4.782-3.239-12.423-3.444-18.168-3.01a6.36 6.36 0 0 1 -6.864-6.291c-.048-6.606-2.448-15.583-14.579-17.662 5.435-16.392 10.956-32.824 15.37-49.542a2 2 0 0 0 -1.217-2.551c-.72-.814-2.111-1.043-2.636.184-1.907 4.613-3.727 9.269-5.519 13.925a45.25 45.25 0 0 1 -8.442 13.784 35.155 35.155 0 0 0 -4.4 5.747 20.587 20.587 0 0 0 -9.891-12.371c2.484-4.761 1.853-12.008.1-16.176-2.74-6.531-9.8-11.884-17.078-10.7-1.835.3-10.968 45.042-14.534 57.488 0 0 15.669 49.028 134.429 79.38l51.705-.8s55.785-3.71 93.182-22.652 69.938-73.88 69.938-73.88c-7.419-14.341-29.401-68.993-29.401-68.993z" fill="#4f424c"/><path d="m223.563 363.211c2.009 2.174 6.041.234 5.441-2.705a3.29 3.29 0 0 0 -3.675-2.871 1.591 1.591 0 0 0 -.805.217 3.287 3.287 0 0 0 -.961 5.359z" fill="#7b8aa5"/><path d="m98.066 378.425c-5.333.05-11.933 3.722-15.892-.146-1.515-1.483-2.033-3.67-2.752-5.664a25.146 25.146 0 0 0 -22.616-16.2c-18.959.49-28.731 19.7-29.716 36.65-.282 3.843-.227 7.921-2.207 11.228a25.077 25.077 0 0 1 -4.812 5.162 48.568 48.568 0 0 0 -12.451 18.587s-12.72 39.344 45.223 43.579 76.3-29.645 76.3-29.645c-37.217-31.453-14.733-51.548-31.077-63.551z" fill="#8fad96"/><path d="m486.209 379.085a38.739 38.739 0 0 0 -11.083-5.908c-2.265-.843-4.663-1.678-6.269-3.484a17.113 17.113 0 0 1 -2.5-4.608c-3.56-8.017-10.035-15.632-18.61-17.481-29.712-6.41-39.762 19.32-42.921 32.493a8.936 8.936 0 0 1 -8 6.909c-8.134.553-16.041 4.855-21.543 11.015-5.3 5.932-8.608 13.344-10.518 21.112a9.025 9.025 0 0 1 -8.336 6.937 31.4 31.4 0 0 0 -13.958 4.135s-17.576 16.713 2.578 31.828 117.742 3.978 117.742 3.978c4.309-15.522 14.137-50.653 18.563-65.766 5.139-5.845 8.332-12.354 4.855-21.16z" fill="#8fad96"/><path d="m155.2 80.006c-18.82-9.577-22.712 4.555-32.2-21.239-8.709-17.186-31.7-19.909-47.956-12.352-9.044 4.285-13.78 4.809-20.393-3.293-5.466-5.541-13.551-9.612-21.322-7.074 0 0-28 19.8-4.932 52.275 0 0 82.705 38.771 129.461 21.324 4.948-9.98 4.989-19.876-2.658-29.641z" fill="#b0c7fe"/><path d="m470.2 51.273c-12.6-37.534-47.982-16.386-47.982-16.386-5.688 6.615-8.947 15.718-9.513 24.428-46.235-17.784-57.6 30.649-57.6 30.649l.086.331c-5.033-5.595-13.729-6.734-20.837-4.5-5.475 6.7-8.673 14.492-7.61 24.335l47.495 5.816 71.727-13.086s36.834-14.052 24.234-51.587z" fill="#b0c7fe"/><path d="m187.439 159.81 10.194 77.041a2.176 2.176 0 0 0 3.911 1l4.963-6.764-11.507-72.474z" fill="#7b8aa5"/><path d="m279.636 277.432a183.562 183.562 0 0 0 15.3-20.483 25.963 25.963 0 0 1 10.63-9.413l12.14-5.851a13.389 13.389 0 0 0 7.347-9.6l9.579-51.174-7.244-.757-8.577 44.6c-.63 3.274-1.341 6.719-3.549 9.218-3.26 3.688-8.7 4.227-13.228 6.168-15.226 6.533-18.362 27.815-32.183 36.951-3.574 2.772-7.536 1.6-9.777-2.353-.001-.001 6.769 17.619 19.562 2.694z" fill="#7b8aa5"/><path d="m222.48 474.813c-7.01-8.837-16.689-16.075-27.857-17.659-5.519-.782-11.513-.641-16.094-3.816-5.739-3.977-7.434-11.937-12.821-16.378-5.218-4.3-12.63-4.368-19.388-4.114-16.74.718 5.069-18.383-24.263-21.963-2.053-.225-4.221-.454-5.886-1.676-4.438-3.26-2.155-10.111-2.278-15.616-.181-8.111-7.792-15.2-15.827-15.158a27.159 27.159 0 0 1 -2.834 20.5c-9.4 14.146-11.93 25.543 5.147 34.558 6.064 3.47 14.149 7.914 9.451 16.092-5.493 9.562-17.886 7.538-26.726 5.04-8.894-2.513-17.906-6.087-27.323-4.84-9.163 1.214-16.822 9.224-26.15 8.744-14.56-1.115-22.593-17.261-22.008-30.485-8.713 22.206 4.548 47.5 31.605 46.769z" fill="#617a68"/><path d="m487.772 425.587c-5.9-5.694-5.287-10.028-.8-16.5 6.172-9.247 8.956-22.653-.771-30 1.864 15.6-10.4 16.843-18.813 25.838-5.76 7.01-4.867 17.09-5.366 26.15s-12.445 30.509-39.365 6.772c-6.625-5.841-17.524-2.1-25.658 1.34s-15.555 8.483-23.874 11.452-18.241 3.545-25.416-1.605c-5.757-4.133-8.154-12.807-5.239-18.823-7.3 4.044-12.282 10.979-17.044 17.77-12.713 18.126-41.035 25.249-51.246 26.028l201.915-.567c21.765-6.182 27.405-31.968 11.677-47.855z" fill="#617a68"/><path d="m329.371 289.213a2.96 2.96 0 0 0 -.911 1.859 1.587 1.587 0 0 0 0 .843c.452 4.14 6.878 3.251 6.23-.843a1.586 1.586 0 0 0 -.216-.8 3.143 3.143 0 0 0 -5.1-1.058z" fill="#7b8aa5"/><path d="m206.509 119.346c-40.588-11.866-29.509-26.374-51.318-39.334 2.184 14.909-13.334 24.557-26.937 22.352-8.447-1.109-16.156-5.5-22.78-10.853-6.556-5.3-12.677-11.834-20.853-13.888-12.772-3.209-26.275 5.594-39.062 2.445-18.733-5.118-23.045-29.248-12.226-44.008-12.421 3.881-23.698 21.008-26.367 26.715-5.283 11.295-5.839 27.746 4.534 34.668 34.489 23.018 138.271 28.146 194.776 24.138a1.142 1.142 0 0 0 .233-2.235z" fill="#7e91cb"/><path d="m444.738 113.011c35.23-9.458 69.007-62.841 8.876-85.916-13.793-4.688-24.412-.311-31.388 7.8 37.38-16.762 54.35 29.748 31.484 49.754-8.062 7.054-18.876 10.881-29.52 9.681-7.139-.8-14.075-3.479-21.257-3.276-17.432.492-31.381 17.53-48.816 17.116-11.593.078-22.956-10.371-19.757-22.35a36.233 36.233 0 0 0 -16.16 10.08 102.9 102.9 0 0 1 -28.591 22.217 1.788 1.788 0 0 0 .737 3.371c53.526 2.672 118.454 3.072 154.392-8.477z" fill="#7e91cb"/><path d="m328.157 191.96c-8.4 21.491-12.3 51.4-7.982 74.144.685 2.969 5.14 2.228 5.2-.7-.312-11.95-1.208-23.961.136-35.923 1.082-12.366 3.815-24.375 6.349-36.5a1.923 1.923 0 0 0 -3.706-1.022z" fill="#7b8aa5"/><path d="m70.02 401.687c2.656-2.555 3.621-6.487 5.807-9.474a31.532 31.532 0 0 1 27.812-11.57c5.105.86 7.887 3.794 10.954 7.649 2.023 2.544 6.311-.21 5.366-3.124-7.646-19.11-36.742-11.794-47.332.7-3.243 3.779-7.364 9.735-5.937 14.937a2.013 2.013 0 0 0 3.33.879z" fill="#4f424c"/><path d="m168.023 462.666a30.734 30.734 0 0 1 20.06-6.472c7.749.266 14.946 3.314 22.589 4.154 2.426.266 3.158-3.363 1.207-4.455-13.213-7.394-36.674-10.216-46.437 4.192-1.023 1.509 1.062 3.708 2.581 2.581z" fill="#4f424c"/><path d="m383.71 390.406c16.912-5.94 25.732-4.874 42.069 1.715 2.24.765 3.963-2.366 2.291-3.938-11.151-10.485-33.942-10.39-45.832-1.268-1.571 1.2-.782 4.211 1.472 3.491z" fill="#4f424c"/><path d="m290.349 333.728c-4.242-4.717-10.153-1.828-11.8 2.671-2.2 5.7-1.69 19.516 6.074 21.131 6.02 1.562 9.345-3.032 10.053-7.756.711-5.21-.388-11.666-4.327-16.046z" fill="#7b8aa5"/><path d="m203.743 267.594c-2.867 2.5-3.789 6.891-3.3 10.49a3.751 3.751 0 0 0 3.171 2.732c3.177.388 5.107-3.12 5.411-5.859a9.779 9.779 0 0 0 .759-3.844 3.649 3.649 0 0 0 -6.041-3.519z" fill="#7b8aa5"/></svg>