<svg id="flat" height="512" viewBox="0 0 340 340" width="512" xmlns="http://www.w3.org/2000/svg"><path d="m301.37 18.845s30.365-1.168 28.877 32.952a8.22 8.22 0 0 1 -8.229 7.821h-77.618s11.245-42.15 56.97-40.773z" fill="#395787"/><path d="m286.24 91.98 41.4 219.759a7.973 7.973 0 0 1 -7.835 9.449h-75.281c5.048-61.837 27.191-142.437 41.716-229.208z" fill="#2f4a70"/><path d="m24.206 313.235 30.652-221.255h231.382l-30.387 219.34a11.437 11.437 0 0 1 -11.329 9.868h-213.391a6.994 6.994 0 0 1 -6.927-7.953z" fill="#63a7ea"/><path d="m9.856 295.413 37.231-168.3c75.227-3.729 148.818-3.481 227.718 0l-33.414 167.611a10.981 10.981 0 0 1 -10.722 8.608h-214.453a6.513 6.513 0 0 1 -6.36-7.919z" fill="#faffff"/><path d="m274.805 127.113c-78.9-3.481-152.491-3.729-227.718 0l-6.736 30.446c43.22 5.817 143.582 24.344 212.543 79.464z" fill="#e4ffff"/><path d="m278.468 127.113 7.772-35.133h-231.382z" fill="#63a7ea"/><path d="m47.087 127.113s-40.87-17.567-22.851-72.23c0 0 9.814-32.107 45.539-36.038h231.6c-35.725 3.931-45.539 36.038-45.539 36.038-18.019 54.663 18.974 72.23 18.974 72.23z" fill="#b7cdf9"/><path d="m172.547 266.165s16.236-18.3 50.919-11.277c0 0-14.661 31.547-50.919 11.277z" fill="#88a873"/><path d="m161.2 282.738a3.5 3.5 0 0 1 -2.246-6.186c25.551-21.344 25.9-65.89 25.9-66.338a3.5 3.5 0 0 1 3.5-3.5 3.5 3.5 0 0 1 3.5 3.5c0 1.959-.322 48.247-28.407 71.708a3.487 3.487 0 0 1 -2.247.816z" fill="#88a873"/><path d="m139.654 266.215h-53.729l6.4-28.949h36.787a3.5 3.5 0 0 0 0-7h-35.235l5.842-26.408h27.124a3.5 3.5 0 0 0 0-7h-25.576l5.425-24.523h32.962a3.5 3.5 0 0 0 0-7h-60.492a15.371 15.371 0 0 0 -15.1 12.125l-17.022 76.95a15.464 15.464 0 0 0 15.1 18.8h77.514a3.5 3.5 0 0 0 0-7zm-52.946-35.949h-27.158l5.842-26.408h27.157zm-15.808-51.295a8.414 8.414 0 0 1 8.265-6.636h20.358l-5.423 24.523h-27.16zm-15.361 84.079a8.425 8.425 0 0 1 -1.664-7.128l4.125-18.656h27.159l-6.4 28.949h-16.619a8.425 8.425 0 0 1 -6.601-3.165z" fill="#60637c"/><g fill="#ffb655"><path d="m183.071 160.911c-3.359-3.071-7.06-2.8-11.285-.958-4.248 1.783-7 4.269-7.1 8.82a13.09 13.09 0 0 0 2.581 7.72l13.427 18.627 10.366-4.431-4.186-22.577a13.1 13.1 0 0 0 -3.803-7.201z"/><path d="m213.44 231.954c-.1 4.551-2.857 7.036-7.1 8.82-4.225 1.839-7.926 2.113-11.285-.959a13.092 13.092 0 0 1 -3.8-7.2l-4.186-22.577 10.366-4.431 13.428 18.626a13.1 13.1 0 0 1 2.577 7.721z"/><path d="m221.1 176.579c1.138-4.407-.839-7.548-4.444-10.418-3.567-2.917-7.054-4.186-11.121-2.141a13.088 13.088 0 0 0 -5.61 5.9l-10.159 20.593 8.773 7.079 17.981-14.281a13.1 13.1 0 0 0 4.58-6.732z"/><path d="m172.584 236.707c-4.066 2.044-7.554.775-11.121-2.141-3.6-2.87-5.582-6.011-4.443-10.418a13.089 13.089 0 0 1 4.58-6.73l17.98-14.281 8.773 7.079-10.153 20.592a13.092 13.092 0 0 1 -5.616 5.899z"/><path d="m225.648 216.291c4.388-1.209 6.126-4.488 6.818-9.043.751-4.546.114-8.2-3.685-10.71a13.093 13.093 0 0 0 -7.91-1.925l-22.916 1.454-1.766 11.133 21.342 8.473a13.088 13.088 0 0 0 8.117.618z"/><path d="m149.34 204.189c-3.8-2.508-4.436-6.164-3.685-10.71.692-4.555 2.43-7.835 6.818-9.043a13.087 13.087 0 0 1 8.117.617l21.342 8.473-1.766 11.134-22.916 1.453a13.1 13.1 0 0 1 -7.91-1.924z"/><circle cx="189.061" cy="200.363" r="17.402"/></g><circle cx="189.061" cy="200.363" fill="#fff" r="12.575"/></svg>