<svg id="flat" height="512" viewBox="0 0 340 340" width="512" xmlns="http://www.w3.org/2000/svg"><path d="m301.37 18.845s30.365-1.168 28.877 32.952a8.22 8.22 0 0 1 -8.229 7.821h-77.618s11.245-42.15 56.97-40.773z" fill="#395787"/><path d="m286.24 91.98 41.4 219.759a7.973 7.973 0 0 1 -7.835 9.449h-75.281c5.048-61.837 27.191-142.437 41.716-229.208z" fill="#2f4a70"/><path d="m24.206 313.235 30.652-221.255h231.382l-30.387 219.34a11.437 11.437 0 0 1 -11.329 9.868h-213.391a6.994 6.994 0 0 1 -6.927-7.953z" fill="#63a7ea"/><path d="m9.856 295.413 37.231-168.3c75.227-3.729 148.818-3.481 227.718 0l-33.414 167.611a10.981 10.981 0 0 1 -10.722 8.608h-214.453a6.513 6.513 0 0 1 -6.36-7.919z" fill="#faffff"/><path d="m274.805 127.113c-78.9-3.481-152.491-3.729-227.718 0l-6.736 30.446c43.22 5.817 143.582 24.344 212.543 79.464z" fill="#e4ffff"/><path d="m278.468 127.113 7.772-35.133h-231.382z" fill="#63a7ea"/><path d="m47.087 127.113s-40.87-17.567-22.851-72.23c0 0 9.814-32.107 45.539-36.038h231.6c-35.725 3.931-45.539 36.038-45.539 36.038-18.019 54.663 18.974 72.23 18.974 72.23z" fill="#b7cdf9"/><path d="m189.282 172.35 5.3 5.3a28.177 28.177 0 0 0 19.924 8.253h7.494v7.5c0 7.473.792 14.64 6.076 19.924l5.3 5.3-5.3 5.3c-5.284 5.285-10.43 12.452-10.43 19.925v7.495h-7.5a28.177 28.177 0 0 0 -19.924 8.253l-5.3 5.3-5.3-5.3a28.177 28.177 0 0 0 -19.924-8.253h-7.5v-7.495c0-7.473-.792-14.64-6.076-19.925l-5.3-5.3 5.3-5.3c5.284-5.284 10.43-12.451 10.43-19.924v-7.5h7.495a28.181 28.181 0 0 0 19.925-8.253z" fill="#f74f73"/><path d="m209.331 218.623c0 12.275-11.039 22.226-23.314 22.226s-21.138-9.951-21.138-22.226 11.039-22.223 23.314-22.223 21.138 9.948 21.138 22.223z" fill="#fff"/><path d="m139.241 172.335a3.5 3.5 0 0 0 0-7h-60.491a15.37 15.37 0 0 0 -15.1 12.125l-17.023 76.95a15.466 15.466 0 0 0 15.1 18.8h77.513a3.5 3.5 0 1 0 0-7h-53.728l6.4-28.949h36.788a3.5 3.5 0 0 0 0-7h-35.235l5.841-26.408h27.125a3.5 3.5 0 1 0 0-7h-25.576l5.425-24.523zm-60.9 93.88h-16.613a8.465 8.465 0 0 1 -8.266-10.293l4.127-18.656h27.158zm7.959-35.949h-27.162l5.842-26.408h27.157zm7.39-33.408h-27.162l3.957-17.887a8.413 8.413 0 0 1 8.265-6.636h20.36z" fill="#60637c"/></svg>