<svg id="icon" height="512" viewBox="0 0 340 340" width="512" xmlns="http://www.w3.org/2000/svg"><path d="m79.99 97.536a45.883 45.883 0 0 1 -13.564.037c-18.275-2.681-30.588-10.155-38.726-17.951-3.826 22.833-4.387 44.506 0 64.42 8.152-7.8 20.484-15.287 38.794-17.96a45.79 45.79 0 0 1 13.495.045c6.525.992 16.144 3.379 24.719 9.121a2.535 2.535 0 0 0 3.921-2.132v-42.572a2.536 2.536 0 0 0 -3.936-2.118c-8.574 5.734-18.182 8.118-24.703 9.11z" fill="#7784b2"/><path d="m27.7 79.614a59.949 59.949 0 0 1 -12-16.1 2.093 2.093 0 0 0 -3.92.589q-8.233 46.136.065 95.3a2.093 2.093 0 0 0 3.922.619 59.949 59.949 0 0 1 11.933-15.971 170.242 170.242 0 0 1 0-64.437z" fill="#dce2f9"/><path d="m71.241 78 12.659-19.635-11.99-48.365a195.586 195.586 0 0 0 -17.855 60.464 11.761 11.761 0 0 1 1.148.5z" fill="#dce2f9"/><path d="m64.5 84.185v56.948l14.82 6.709v-63.657c.736-10.3 10.446-13.721 10.446-13.721a195.6 195.6 0 0 0 -17.856-60.464v46.436a10.433 10.433 0 0 1 -6.694 9.741l-11.161 4.287s9.71 3.423 10.445 13.721z" fill="#7784b2"/><path d="m64.5 173.389q8.083 4.206 14.82 0v-25.547l-14.82-6.709z" fill="#dce2f9"/><path d="m64.5 173.389h14.82v156.611h-14.82z" fill="#342a35"/><path d="m283.568 160.766c3.521 4.26 7.321 8.894 11.224 13.714a8.754 8.754 0 0 0 3.807 4.72c3.819 4.756 7.683 9.629 11.434 14.45a10.5 10.5 0 0 0 3.714 4.806c3.56 4.64 6.963 9.177 10.064 13.455.2 1.758 1.678 3.409 3.439 5.035a24.759 24.759 0 0 1 2.956 16.64 29.67 29.67 0 0 1 -3.571 9.554l-38.892-2.8s-3.612-6.069-9.525-14.247a7.126 7.126 0 0 0 -3.6-4.842c-2.729-3.578-5.794-7.379-9.108-11.14-5.816-30.022-3.318-50.511 18.058-49.345z" fill="#dce2f9"/><path d="m289.8 235.043h36.079a6.413 6.413 0 0 1 5.378 9.907c-7 10.8-18.964 28.187-30.93 40.663l-4.931 5.533c-12.4 5.854-31.352-8.4-22.056-22.659a207.73 207.73 0 0 1 5.64-25.244 11.256 11.256 0 0 1 10.82-8.2z" fill="#d07a76"/><path d="m268.961 268.488a14.617 14.617 0 0 0 -10 3.958l-11.161 10.477a47.658 47.658 0 0 0 16.581 25.046 12.636 12.636 0 0 0 17.308-1.451l13.7-15.372c-4.132.669-8.286.418-11.824-1.651-12.4-7.25-10.232-21.008-10.232-21.008z" fill="#7f4242"/><path d="m264.042 137.516-12.725 2 1.3 57.658a137.525 137.525 0 0 1 12.9 12.948c.408-31.2 12.309-44.665 18.058-49.352-11.169-13.508-19.533-23.254-19.533-23.254z" fill="#7784b2"/><path d="m119.754 155.571q-.375.837-.746 1.724c-.833 2-1.839 4.61-2.967 7.66.346 3.142-.241 5.277-2.164 5.973-1.82 5.106-3.828 10.919-5.864 16.915.29 2.9-.189 5.1-2.044 6.051-6.947 20.668-13.6 41.419-13.6 41.419l27.813 30.8 14.8-26.146c.488-2.634 1.279-4.73 2.966-5.238l1.964-3.471c5.029-40.525 3.804-72.91-20.158-75.687z" fill="#dce2f9"/><path d="m119.756 155.572c5.129 3.44 16.2 13.664 16.2 37.883 0 0-.877 20.084 3.959 37.8l14.446-25.518v-68.22h-19.326s-8.335 2.619-15.279 18.055z" fill="#7784b2"/><path d="m159.235 285.613s-16.584 13.007-21.592 44.387h134.557s-3.47-35.458-20.973-44.387c-.002 0-42.851-14.066-91.992 0z" fill="#d07a76"/><path d="m144.7 139.778v75.281s.324 22.294 10.986 35.218c0 0-8.078 10.016 3.554 15.832 29.443 3.3 60.232 3.048 92.082 0 0 0 9.37-6.785 0-17.125 0 0 6.462-7.108 6.462-28.432v-83.036z" fill="#d07a76"/><path d="m155.681 250.277s-8.078 10.016 3.554 15.832c29.443 3.3 60.232 3.048 92.082 0 0 0 9.37-6.785 0-17.125 0 0-13.368 6.306-50.08 8.348s-45.556-7.055-45.556-7.055z" fill="#7f4242"/><path d="m257.779 156.1v-18.584l-113.079 2.262v20.222c3.389 2.232 8.271 6.322 14.54 13.818 0 0 14.569 17.493 44.281 11.783 0 0 23.773-5.825 41.367-21.66a47.16 47.16 0 0 1 12.891-7.841z" fill="#7f4242"/><path d="m186.24 186.447v7.5h-15.666a3.929 3.929 0 0 0 -3.929 3.928v19.61a3.929 3.929 0 0 0 3.929 3.929h15.666v36.145c10.468 1.9 20.381 1.825 29.43-1.343v-34.8h15.666a3.929 3.929 0 0 0 3.929-3.929v-19.61a3.929 3.929 0 0 0 -3.929-3.928h-15.666v-12.449z" fill="#fff"/><path d="m201.237 257.332c-5.634.314-10.606.363-15 .224v10.584q14.526.59 29.43.184v-12.111c-4.348.44-9.139.825-14.43 1.119z" fill="#d6cccc"/><path d="m201.522 138.641-15.282.306v47.5a53.705 53.705 0 0 0 6.593.29 56.336 56.336 0 0 0 17.542-3.251c1.57-.546 3.354-1.2 5.295-1.985v-43.143z" fill="#d6cccc"/><path d="m122.853 128.305a7.4 7.4 0 0 0 2.924 13.855c6.143.54 14.371 3.188 24.58 10.64 24.728 18.052 32.641 18.547 48.22 18.547s37.34-15.827 37.34-15.827 14.037-12.19 38.92-12.626c6.932-.122 10.657-8.378 5.988-13.5-4.586-5.034-12.393-9.938-25.682-11.927a21 21 0 0 1 -16.907-14.167 39.628 39.628 0 0 1 -1.825-12.32v-32.395a41.543 41.543 0 0 0 -41.543-41.544 41.544 41.544 0 0 0 -41.544 41.544v29.5a45.073 45.073 0 0 1 -4.093 19.1c-2.636 5.64-6.9 11.6-13.711 14.951-5.137 2.529-9.332 4.357-12.667 6.169z" fill="#dce2f9"/><path d="m220.7 92.524v35.766a20.245 20.245 0 0 1 -16.923 20.128c-.169.026-.34.051-.512.074a2.281 2.281 0 0 1 -1.858-3.931c5.053-4.564 11.067-13.8 8.845-31.192z" fill="#7784b2"/><path d="m168.674 92.524v14.165a26.686 26.686 0 0 0 19.4 25.855c15.438 3.792 34.481-4.82 32.626-36.876z" fill="#7784b2"/><path d="m194.689 118.539a26.015 26.015 0 0 1 -26.015-26.015v-30.012q0-.805.049-1.6c19.242-2.619 36.628 1.616 51.981 13.351v18.26a26.015 26.015 0 0 1 -26.015 26.016z" fill="#ffcac0"/><path d="m134.986 239.963 2.966-5.238c-2.737-1.395-5.437-2.9-8.065-4.51l2.036-3.971a3 3 0 1 0 -5.339-2.737l-1.774 3.459c-3.19-2.138-6.242-4.358-9.114-6.567l1.96-3.859a3 3 0 1 0 -5.349-2.718l-1.406 2.767c-3.695-3.028-6.96-5.918-9.681-8.43-.715 2.164-1.407 4.269-2.07 6.287 8.62 7.788 21.541 18.215 35.836 25.517z" fill="#7784b2"/><path d="m108.681 235.571 10.574 10.194a43.25 43.25 0 0 1 13.32 32.447 91.157 91.157 0 0 1 -1.249 12.656 10.314 10.314 0 0 1 -15.365 7.159 100.346 100.346 0 0 1 -20.051-15.469c-9.342-24.958-2.757-39.032 12.771-46.987z" fill="#d07a76"/><path d="m211.528 330v-26.491c0-14.571-5.859-23.047-6.108-23.4a3.46 3.46 0 0 0 -.738-.746q-2.119 0-4.3.057a3.5 3.5 0 0 0 -.693 4.708c.049.07 4.84 7.166 4.84 19.381v26.491z" fill="#7f4242"/><path d="m298.6 179.2q-1.914-2.382-3.806-4.72c-2.158 2.4-4.615 4.876-7.281 7.326l-2.832-3.613a3 3 0 0 0 -4.723 3.7l3.042 3.879c-3.3 2.761-6.785 5.42-10.317 7.83a3 3 0 1 0 3.381 4.957 134.83 134.83 0 0 0 22.536-19.359z" fill="#7784b2"/><path d="m325.821 214.707q-.983-1.377-2.01-2.8a41.939 41.939 0 0 1 -6.292 5.158l-2.388-3.094a3 3 0 0 0 -4.75 3.666l1.979 2.564c-1.56.857-3.226 1.706-5.015 2.551a3 3 0 1 0 2.56 5.426c7.44-3.513 13.066-7.15 17.342-11.235a26.458 26.458 0 0 0 -1.426-2.236z" fill="#7784b2"/><circle cx="189.58" cy="146.327" fill="#7784b2" r="4.083"/><circle cx="187.077" cy="86.532" fill="#ef837c" r="3.559"/><circle cx="203.516" cy="86.532" fill="#ef837c" r="3.559"/><path d="m98.7 225.944c-20.6-1.638-26.45 18.648-26.45 18.648a98.3 98.3 0 0 0 23.665 37.965c-4.609-28.332 8.129-42.773 12.769-46.986z" fill="#7f4242"/><path d="m87.683 205.736h10.455a5.93 5.93 0 0 1 5.93 5.93v13.576a5.93 5.93 0 0 1 -5.93 5.93h-14.2z" fill="#7f4242"/><path d="m63.977 205.736h25.669a0 0 0 0 1 0 0v31.287a9.129 9.129 0 0 1 -9.129 9.129h-16.54a9.129 9.129 0 0 1 -9.129-9.129v-22.158a9.129 9.129 0 0 1 9.129-9.129z" fill="#d07a76"/><path d="m159.235 266.109h37.855v19.505h-37.855z" fill="#342a35"/><path d="m208.029 266.109h43.288l-.092 19.504h-43.196z" fill="#342a35"/><rect fill="#dce2f9" height="19.505" rx="7.641" width="26.222" x="189.448" y="266.109"/><g fill="#7784b2"><path d="m207.709 268.98a2.082 2.082 0 0 0 -1.876 1.178l-5.192 10.784a1.255 1.255 0 0 0 1.131 1.8h5.248a4.7 4.7 0 0 0 4.7-4.7v-5.059a4.007 4.007 0 0 0 -4.011-4.003z"/><path d="m142.624 181.25c-10.664-4.219-20.7-11.536-26.582-16.294-.682 1.844-1.406 3.844-2.165 5.972 1.976 1.555 4.288 3.289 6.855 5.065l-1.9 3.352a3 3 0 1 0 5.223 2.954l1.7-3a92.55 92.55 0 0 0 14.657 7.535 3 3 0 0 0 2.209-5.58z"/><path d="m140.426 208.665a96.384 96.384 0 0 1 -15.541-8.538l2.064-4a3 3 0 0 0 -5.334-2.748l-1.731 3.36c-4.422-3.1-8.527-6.239-11.871-8.891-.68 2-1.363 4.027-2.044 6.051 8.692 6.8 21.452 15.95 32.193 20.327a3 3 0 1 0 2.264-5.556z"/><path d="m310.033 193.651c-2.325 2.439-4.988 4.946-7.836 7.443l-3.478-4.448a2.9 2.9 0 1 0 -4.567 3.571l3.62 4.629c-2.5 2.045-5.085 4.059-7.694 5.993l-3.686-5.158a3 3 0 1 0 -4.881 3.488l3.7 5.176c-3.654 2.555-7.245 4.892-10.589 6.911 1.276 1.673 2.477 3.294 3.6 4.843 11.743-7.132 25.918-17.728 35.531-27.643q-1.839-2.388-3.72-4.805z"/></g><path d="m169.886 54.643a25.918 25.918 0 0 0 -1.15 6.271c2.46 5.525 8.52 15.206 21.494 17.845l4.083-8.411s12.881 7.927 26.391 3.916v-4.239c-12.704-12.296-29.335-17.245-50.818-15.382z" fill="#ef837c"/><path d="m194.689 36.5a26.024 26.024 0 0 0 -24.8 18.146c1.837 5.276 6.41 12.168 17.748 15.821l3.618-11.455s7.3 11.894 29.449 11.016v-7.516a26.015 26.015 0 0 0 -26.015-26.012z" fill="#342a35"/></svg>