<svg id="flat" height="512" viewBox="0 0 340 340" width="512" xmlns="http://www.w3.org/2000/svg"><path d="m301.37 18.845s30.365-1.168 28.877 32.952a8.22 8.22 0 0 1 -8.229 7.821h-77.618s11.245-42.15 56.97-40.773z" fill="#395787"/><path d="m286.24 91.98 41.4 219.759a7.973 7.973 0 0 1 -7.835 9.449h-75.281c5.048-61.837 27.191-142.437 41.716-229.208z" fill="#2f4a70"/><path d="m24.206 313.235 30.652-221.255h231.382l-30.387 219.34a11.437 11.437 0 0 1 -11.329 9.868h-213.391a6.994 6.994 0 0 1 -6.927-7.953z" fill="#63a7ea"/><path d="m9.856 295.413 37.231-168.3c75.227-3.729 148.818-3.481 227.718 0l-33.414 167.611a10.981 10.981 0 0 1 -10.722 8.608h-214.453a6.513 6.513 0 0 1 -6.36-7.919z" fill="#faffff"/><path d="m274.805 127.113c-78.9-3.481-152.491-3.729-227.718 0l-6.736 30.446c43.22 5.817 143.582 24.344 212.543 79.464z" fill="#e4ffff"/><path d="m278.468 127.113 7.772-35.133h-231.382z" fill="#63a7ea"/><path d="m47.087 127.113s-40.87-17.567-22.851-72.23c0 0 9.814-32.107 45.539-36.038h231.6c-35.725 3.931-45.539 36.038-45.539 36.038-18.019 54.663 18.974 72.23 18.974 72.23z" fill="#b7cdf9"/><path d="m206.406 202.99c10.822-8.436 25.257-9.45 25.257-9.45-8.138-10.732-16.123-9.563-16.123-9.563l4.936-6.147c-19.4-5.678-29.813 8.4-29.813 8.4-9.571 9.136-18.077 11.126-18.077 11.126s-3.9 6.318-15.861 11.971c0 0-16.879 4.662-18.544 24.81l7.509-2.4s-3.957 7.033 3.139 18.48c0 0 6.127-13.108 17.885-20.18 0 0-4.8 14.143 9.823 27.09 0 0 5.241-3.35 8.6-12.767 0 0 6.235 10.447 26.914 9.189 8.208-18.237 1.114-28.228 1.114-28.228 9.994.247 15-3.442 15-3.442-6.834-18.294-21.759-18.889-21.759-18.889z" fill="#f29251"/><path d="m195.163 221.855a112.922 112.922 0 0 1 -10.181-12.211 29.882 29.882 0 0 0 7.529-.925 3.5 3.5 0 0 0 -1.664-6.8c-7.567 1.852-11.033-.326-11.844-.961-7.281-11.207-12.29-21.163-12.371-21.326a3.5 3.5 0 0 0 -6.263 3.127 247.341 247.341 0 0 0 12.825 22.141c.462 1.231 2.343 6.962-1.081 10.733a3.5 3.5 0 0 0 5.184 4.705 14.334 14.334 0 0 0 3.033-5.195 116.814 116.814 0 0 0 9.837 11.613 3.5 3.5 0 1 0 5-4.9z" fill="#cc4729"/><path d="m135.742 165.335h-54.491a15.371 15.371 0 0 0 -15.1 12.125l-17.023 76.95a15.466 15.466 0 0 0 15.1 18.8h68.513a3.5 3.5 0 1 0 0-7h-44.728l6.4-28.949h25.788a3.5 3.5 0 1 0 0-7h-24.235l5.841-26.408h27.125a3.5 3.5 0 0 0 0-7h-25.576l5.425-24.523h26.961a3.5 3.5 0 0 0 0-7zm-54.9 100.88h-16.613a8.465 8.465 0 0 1 -8.266-10.293l4.127-18.656h27.158zm7.958-35.949h-27.161l5.842-26.408h27.157zm7.391-33.408h-27.162l3.957-17.887a8.413 8.413 0 0 1 8.265-6.636h20.36z" fill="#60637c"/></svg>