<svg id="Flat" height="512" viewBox="0 0 340 340" width="512" xmlns="http://www.w3.org/2000/svg"><path d="m83.254 260.833 15.294-9.733 34.483 54.914a6.828 6.828 0 0 1 -2.99 9.862 6.831 6.831 0 0 1 -7.924-1.725c-7.744-8.8-27.04-31.62-38.863-53.318z" fill="#e54c5b"/><path d="m130.041 315.878a6.828 6.828 0 0 0 2.99-9.862l-6.206-9.883c-4.586 1.7-9.507 3.442-9.507 3.442l-15.661-23.481a10.046 10.046 0 0 1 .35-11.643l2.693-3.551-6.151-9.8-15.294 9.731c11.823 21.7 31.119 44.518 38.863 53.32a6.831 6.831 0 0 0 7.923 1.727z" fill="#a02a39"/><path d="m29.166 35.7a73.414 73.414 0 0 0 16.586 50.277s-13.843 66.842 51.939 157.859l-19.327 12.172a990.9 990.9 0 0 1 -51.966-90.9c-20.052-40.215-27.612-89.19 2.768-129.408z" fill="#d2e8ff"/><path d="m97.691 243.836c-5.316-7.356-10.1-14.55-14.43-21.567l-24.935 1.266c11.646 19.715 20.038 32.473 20.038 32.473z" fill="#96aef4"/><path d="m137.96 277.291-7.015 3.371a5.789 5.789 0 0 1 -7.509-2.3 8.187 8.187 0 0 0 -10.311-3.392l-9.86 4.251a11.605 11.605 0 0 0 -5.886 15.644l3.062 6.435a11.6 11.6 0 0 0 16.691 4.818l13.015-8.246 10.973-5.213z" fill="#d9e5fc"/><path d="m104.4 235.819-38.784 25.587-2.076-3.147a8.482 8.482 0 0 0 -14.16 9.341l2.558 3.877a11.376 11.376 0 0 0 15.761 3.23l3.938-2.6 36.111-26.739z" fill="#ffb664"/><path d="m128.294 233.682a11.377 11.377 0 0 0 -15.761-3.231l-8.135 5.368c-.371 4.623-2.6 11.282-11.154 16.761l-19.993 11.613s-2.887 2.218-1.614 7.918l42.98-28.357 2.076 3.147a8.482 8.482 0 1 0 14.159-9.342z" fill="#e87b40"/><path d="m133.243 296.4 7.877-3.742-3.16-15.369-7.015 3.372a5.279 5.279 0 0 1 -.53.2z" fill="#6c7ca2"/><path d="m304.085 276.706s1.362 6.809 2.275 12.32a13.772 13.772 0 0 1 -1.466 8.771l-4.19 7.794a8.41 8.41 0 0 0 -.558 6.681 8.412 8.412 0 0 0 5.308 5.284l.487.162 1.2 4.081a8.425 8.425 0 0 0 11 5.51 26.277 26.277 0 0 0 3.488-1.571 18.718 18.718 0 0 0 9.055-20.671l-1.073-4.689a19.161 19.161 0 0 0 -5.233-9.492c-3.231-3.143-7.558-9.09-8.654-19.005z" fill="#d9e5fc"/><path d="m321.123 287.025a32.387 32.387 0 0 1 -5.4-15.144l-11.641 4.825s1.362 6.809 2.275 12.32a13.622 13.622 0 0 1 .169 2.61 67.48 67.48 0 0 0 14.597-4.611z" fill="#6c7ca2"/><path d="m126.222 139.234a3 3 0 0 1 -3-3v-64.28a3 3 0 0 1 6 0v64.28a3 3 0 0 1 -3 3z" fill="#333353"/><circle cx="126.222" cy="118.355" fill="#ffb664" r="8.019"/><circle cx="126.222" cy="99.1" fill="#e54c5b" r="8.019"/><path d="m173.389 224.25s2.112 23.925-24.605 38.321l30.016 33.593s11.1-37.764-5.411-71.914z" fill="#a02a39"/><path d="m139.082 259.819 6.193-2.85a8.706 8.706 0 0 1 10.531 2.591l19.484 25.251a8.691 8.691 0 0 1 -1.526 12.174 60.608 60.608 0 0 1 -19.419 10.259 8.648 8.648 0 0 1 -10.517-5.336c-2.9-7.786-7.388-20.846-9.661-32.547a8.692 8.692 0 0 1 4.915-9.542z" fill="#333353"/><path d="m181.86 120.328s-7.86 13.572-30.44 30.315a3.927 3.927 0 0 0 -1.222 4.816c7.037 14.981 37.218 86.316 18.555 172.372 31.868-7.617 62.635-7.216 78.844-39.438 0 0 16.959-54.643-53.436-178.687z" fill="#a02a39"/><path d="m184.387 214.25-2.527 4.4a20.032 20.032 0 0 0 5.215 13.826 16.874 16.874 0 0 0 8.9 5.051 4.5 4.5 0 0 0 4.461-7.262 20.9 20.9 0 0 1 -3.578-6.285l-3.326-8.659z" fill="#d9e5fc"/><path d="m196.863 223.976a28.047 28.047 0 0 1 -1.559-10l-12.221-3.126a24.479 24.479 0 0 0 -1.22 7.793 19.061 19.061 0 0 0 15 5.333z" fill="#6c7ca2"/><path d="m206.2 268.149c4.272 3.666 12.8 7.939 28.156 5.147v25.649s-9.368 3.848-17.229-7.488a25.839 25.839 0 0 0 -15.643-10.71q-.543-.117-1.105-.217a7.274 7.274 0 0 1 -6.027-8.049c.015-.1.032-.2.051-.308a7.189 7.189 0 0 1 11.797-4.024z" fill="#d9e5fc"/><path d="m181.583 195.024-2.783 5.176a19.99 19.99 0 0 0 3.407 11.335 13.16 13.16 0 0 0 11.109 6.062 4.108 4.108 0 0 0 2.818-7.179 19.171 19.171 0 0 1 -4.046-5.053s-4.46-2.964-3.933-7.172z" fill="#d9e5fc"/><path d="m181.253 191.02a19.057 19.057 0 0 0 -2.453 9.18 19.873 19.873 0 0 0 13.292 5.162 16.936 16.936 0 0 1 -1.847-10.437z" fill="#6c7ca2"/><path d="m183.119 179.336-5.056 1.718c-1.04 4.517-.556 10.09 5.143 14.833a19.356 19.356 0 0 0 8.741 3.691 4.419 4.419 0 0 0 3.344-7.92 15.608 15.608 0 0 1 -3.322-3.351l-4.11-3.764z" fill="#d9e5fc"/><path d="m182.121 172.488a23.892 23.892 0 0 0 -4.053 8.567 16.554 16.554 0 0 0 13.905 7.249 9.952 9.952 0 0 1 -.918-10.122z" fill="#6c7ca2"/><path d="m220.431 204.309s2.925 20.343-1 34.724a24.153 24.153 0 0 1 -2.832 6.441c-1.906 3.045-5.115 9.533-1.195 13.871 5.274 5.836 15.972-.973 15.972-.973s.891-33.436-10.945-54.063z" fill="#d9e5fc"/><path d="m191.274 150.116s-7.871 5.67-10.8 13.206c-2.425 6.245-2.482 11.749 3.6 16.428a16.834 16.834 0 0 0 6.064 2.882 4.592 4.592 0 0 0 4.774-7.29c-3.58-4.639-2.949-10.4 5.712-16.074z" fill="#d9e5fc"/><path d="m219.966 66.759s3.07 3.581 3.933 10.605a17.639 17.639 0 0 0 12.447 14.478c9.575 3 20.528 10.1 18.731 26.917 0 0 31.441-6.76 30.524 27.629 0 0 24.616 19.256 2.751 39.679l-85.052-62.086-11.334-31.667 8.661-27.2z" fill="#333353"/><path d="m186.409 114.216 6.733 10.309 11.383 14.886 10.875-10.259-11.835-16.766-8.47-10.3a27.274 27.274 0 0 0 -8.686 12.13z" fill="#d9e5fc"/><path d="m195.7 101.245a36.516 36.516 0 0 0 -9.85 13.748l7.29 9.532a30.24 30.24 0 0 1 8.4-10.377c.676-.537 1.351-1.135 2.025-1.762z" fill="#6c7ca2"/><path d="m207.272 65.706s-58-3.333-74 5.778c0 0-2.444 14.666 11.111 32.889 0 0 7.677 10.417 9.6 19.153a3.326 3.326 0 0 0 3.245 2.624h2.519a1.438 1.438 0 0 0 1.439-1.438v-8.012a2.7 2.7 0 0 1 2.461-2.744 2.6 2.6 0 0 1 2.74 2.6v8.162a1.438 1.438 0 0 0 1.438 1.438h3.175a1.438 1.438 0 0 0 1.437-1.386l.3-8.214a2.6 2.6 0 1 1 5.2 0l-.226 8.122a1.438 1.438 0 0 0 1.438 1.478h4.16a2.842 2.842 0 0 0 2.825-2.53l.291-2.625a22.982 22.982 0 0 1 7.738-11.289c6.932-5.51 14.006-17.418 14.286-32.312z" fill="#d9e5fc"/><path d="m189.514 143.451c7.948-5.1 27.2-17.9 41.269-30.854a3 3 0 0 1 4.606.649l9.355 15.393s49.268 96.959 47.939 160.584a21.353 21.353 0 0 1 -2.477 9.577c-4.906 9.248-19.122 27.035-56.415 29.042 0 0 4.311-114.083-45.266-178.708a3.914 3.914 0 0 1 .989-5.683z" fill="#e54c5b"/><path d="m265.1 256.527a5.653 5.653 0 0 0 -1.8 3.873 113.888 113.888 0 0 0 2.033 25.58 10.22 10.22 0 0 0 9.209 8.324 96.882 96.882 0 0 0 17.476-.182 21.561 21.561 0 0 0 .669-4.9c.6-28.552-9-63.813-19.756-94.017l-13.708-9.767a6.279 6.279 0 0 0 -9.479 7.437c6.5 16.354 14.665 39.647 17.127 58.732a5.731 5.731 0 0 1 -1.771 4.92z" fill="#a02a39"/><path d="m244.744 128.639s-7.432 1.457-11.705 12.055a23.573 23.573 0 0 0 1.689 20.8c10.152 17.134 34.693 61.2 43.594 100.872l43.643-18s-25.239-83.022-77.221-115.727z" fill="#e54c5b"/><path d="m278.55 256.966c8.15-2.5 23.374-7.674 36.836-15.1a7.99 7.99 0 0 1 11.494 4.459 139.038 139.038 0 0 1 4.131 15.474 7.987 7.987 0 0 1 -2.724 7.756 65.8 65.8 0 0 1 -46.168 14.581 7.869 7.869 0 0 1 -7.083-5.84 73.56 73.56 0 0 1 -2.1-13.027 8.017 8.017 0 0 1 5.614-8.303z" fill="#5b5b81"/><path d="m205.912 295.306c.219.171.436.351.65.543a8.769 8.769 0 0 1 2.4 9.065c-.33 1.087-1.3 2.271-1.8 3.5-.921 2.241-2.072 4.6-1.929 7.021v12.4h-13.267a105.679 105.679 0 0 1 -.293-26.419c.851-6.802 8.827-10.309 14.239-6.11z" fill="#d9e5fc"/><path d="m192.689 89.444a18.106 18.106 0 0 1 -1.433 8.251 8.3 8.3 0 0 1 -11.719 3.669 20.185 20.185 0 0 1 -8.724-9.62 8.259 8.259 0 0 1 5.336-11.115 24.066 24.066 0 0 1 6.058-.946 10.193 10.193 0 0 1 10.482 9.761z" fill="#6c7ca2"/><path d="m143.717 92.328a18.116 18.116 0 0 0 3.086 7.785 8.3 8.3 0 0 0 12.221 1.2 20.194 20.194 0 0 0 6.579-11.2 8.259 8.259 0 0 0 -7.491-9.793 24.078 24.078 0 0 0 -6.124.309 10.193 10.193 0 0 0 -8.271 11.699z" fill="#6c7ca2"/><g fill="#a02a39"><path d="m210.777 148.8-2.739 1.786a3.5 3.5 0 1 0 3.824 5.863l2.739-1.786a3.5 3.5 0 1 0 -3.824-5.863z"/><path d="m227 170.845a3.5 3.5 0 0 0 -4.734-1.447l-2.886 1.536a3.5 3.5 0 1 0 3.287 6.18l2.886-1.536a3.5 3.5 0 0 0 1.447-4.733z"/><path d="m235.618 191.505a3.5 3.5 0 0 0 -4.712-1.517l-2.906 1.492a3.5 3.5 0 1 0 3.195 6.228l2.909-1.492a3.5 3.5 0 0 0 1.514-4.711z"/><path d="m243.479 216.781a3.5 3.5 0 0 0 -4.012-2.9l-3.228.521a3.5 3.5 0 0 0 .553 6.956 3.562 3.562 0 0 0 .56-.045l3.229-.521a3.5 3.5 0 0 0 2.898-4.011z"/><path d="m242.526 245.811 3.264-.194a3.5 3.5 0 1 0 -.414-6.987l-3.264.194a3.5 3.5 0 0 0 .2 6.993c.073 0 .144-.002.214-.006z"/><path d="m245.79 272.351 3.264-.194a3.5 3.5 0 1 0 -.414-6.987l-3.264.194a3.5 3.5 0 0 0 .2 6.993q.107 0 .214-.006z"/><path d="m251.064 293.318-3.269-.036a3.5 3.5 0 0 0 -.079 7l3.27.036h.04a3.5 3.5 0 0 0 .038-7z"/></g><path d="m133.272 71.484a28.943 28.943 0 0 0 .206 7.942c7.458-1.263 42.586-6.644 74.962-2.032a49.949 49.949 0 0 0 -1.168-11.688s-58-3.333-74 5.778z" fill="#6c7ca2"/><path d="m99.425 75.821 1.255 6.153s59.573-22.59 142.7-6.749c0 0 1.624-1.473 3.394-5.959a11.875 11.875 0 0 0 -7.474-15.611c-9.251-2.946-22.687-8.473-30.631-19.065-14.981-19.972-39.4-23.141-49.864-22.315s-33.885 4.883-43.252 34.812a48.548 48.548 0 0 1 -12.416 17.47 11.857 11.857 0 0 0 -3.712 11.264z" fill="#5b5b81"/><path d="m163.952 47.686c-1.316-1.052-2.689-2.114-4.037-3.137a39.6 39.6 0 0 1 3.633-2.89 3 3 0 0 0 -3.416-4.934 48.467 48.467 0 0 0 -5.132 4.175c-2.525-1.836-4.351-3.112-4.5-3.217a3 3 0 0 0 -3.434 4.921c.032.023 1.5 1.051 3.634 2.592-1.99 2.142-3.3 3.763-3.416 3.907a3 3 0 0 0 4.678 3.757c.028-.036 1.464-1.812 3.6-4.077 1.544 1.162 3.139 2.389 4.638 3.588a3 3 0 0 0 3.748-4.686z" fill="#fff"/><path d="m166.6 108.072 1.343-1.268a1.08 1.08 0 0 1 1.457-.022l1.462 1.3a1.078 1.078 0 0 0 1.786-.959 21.779 21.779 0 0 0 -3.115-8.571 1.1 1.1 0 0 0 -1.764-.087c-1.75 2.182-2.767 4.754-2.99 8.75a1.084 1.084 0 0 0 1.821.857z" fill="#6c7ca2"/><path d="m206.763 327.831-.214-12.3a16.152 16.152 0 0 1 1.161-7.087c.5-1.228.919-2.443 1.249-3.53l-4.712 5.76a12.169 12.169 0 0 0 -2.751 7.706v9.451z" fill="#6c7ca2"/><path d="m26.687 89.72a1.164 1.164 0 0 0 -2.315-.171c-2.411 15.45-2.917 45.622 17.007 84.475l39.463 72.6 4.554-3.035-37.419-71.1s-21.154-36.956-21.29-82.769z" fill="#96aef4"/></svg>