<svg id="flat" height="512" viewBox="0 0 500 500" width="512" xmlns="http://www.w3.org/2000/svg"><path d="m67.828 374.909a26.7 26.7 0 0 0 -9.665-2.443q-12 26.012-24.008 52.023s.136 10.519 15.58 5.189 25.827-27.519 25.827-27.519l.546-17.8a20.8 20.8 0 0 0 -8.28-9.45z" fill="#b6c3dd"/><path d="m73.722 389.718c-3.88 16.65-20.547 38.153-39.57 34.77-4.934 10.574-11.977 22.2-22.436 27.223h26.7s18.082-4.25 29.678-30.056c8.39-18.672 8.412-30.3 6.294-37.295a33.751 33.751 0 0 1 -.666 5.358z" fill="#7b8aa5"/><path d="m63.639 451.711 27.221-44.2c-3.343-13.154-10.151-26.757-23.036-32.591 12.09 13.242-.077 32.441-5.3 46.368-4.856 12.395-12.363 23.647-24.107 30.426z" fill="#4f424c"/><path d="m307.4 245.847a13.359 13.359 0 0 0 -10.232.575 342.761 342.761 0 0 1 -.712 35.273h6.453c12.543-6.625 9.971-27.506 4.491-35.848z" fill="#e57e80"/><path d="m315.654 281.7c-.383-10.13-.531-20.5-.447-30.871a22.21 22.21 0 0 0 -7.807-4.975c-.393 11.355 2.086 26.09-4.49 35.846z" fill="#bc5b65"/><path d="m437.112 328.736c-.063 9.937.089 19.868.456 29.577h-19.2q1.218-16.953.75-33.97s5.427-4.58 9.2-2.826 8.794 7.219 8.794 7.219z" fill="#e57e80"/><path d="m428.325 321.517c-3.777-1.754-9.2 2.826-9.2 2.826q.467 16.989-.75 33.97h9.266c11.071-9.428 3.998-28.872.684-36.796z" fill="#e57e80"/><path d="m437.111 328.736s-4.659-5.077-8.379-7.01c-.124 12.132 2.38 24.776-1.1 36.587h9.931c-.363-9.713-.514-19.64-.452-29.577z" fill="#bc5b65"/><path d="m295.761 224.323q1.06 11.023 1.4 22.1l18.045 4.4c.083-10.215.39-20.425.923-30.4z" fill="#4f424c"/><path d="m417.675 300.941q1.123 11.671 1.431 23.4l18.011 4.393c.066-10.646.373-21.3.928-31.691z" fill="#4f424c"/><path d="m286.222 307.279c19.754 16.513 51.976 38.744 51.976 38.744 18.826 14.009 38.864 26.608 61.456 33.188 0 0 22.275 22.987 13.839 38.8s-55.148 26.652-55.148 26.652-129.04 15.18-182.916-99.563 68.86-54.614 68.86-54.614z" fill="#88bbf7"/><path d="m268.375 344.864c10.987-1.228 16.308 12.2 24.4 17.373 2.677 1.776 5.9 3.033 7.623 5.745 4.45 8.42-.258 19.407-10.714 18.258-13.924-2.422-28.711-14.11-30.655-28.69.002 0-1.676-10.61 9.346-12.686z" fill="#c5e1ff"/><path d="m483.506 382.836a4.015 4.015 0 0 0 -3.782-1.063 155.8 155.8 0 0 1 -78.987-2.248c10.208 67.263-74.969 55.55-74.969 55.55 34.581 21.256 101.869-5.445 101.869-5.445l45.963-31.621z" fill="#6089d0"/><path d="m484.329 387.458a4.006 4.006 0 0 0 -1.153-4.91c-15.131 15.968-91.222 86.9-208.32 37.758 0 0-44.355-23.224-66.056-53.8 0 0-20.548-28.975 13.38-26.788l-13.49-18.763a11.893 11.893 0 0 1 .918-15.223c15.546-15.824 53.485 34.353 76.614 1.549-16.624-16.988-83.531-56.454-83.531-56.454l-103.843-22.062s-52.919-3.508-56.156 28.6l9.757 11.261c50.154 18.716 80.262 54.4 109.057 97.989 27.608 37.185 64.69 68.324 108.316 80.25a174.4 174.4 0 0 0 45.845 6.564c124.525 0 159.611-47.129 168.662-65.971z" fill="#6089d0"/><path d="m391.308 262.79c-5.781 11.964-14.416 21.878-17.763 30.489l12.044 5.667 55.229-3.487 13.8-29.465-13.8-57.36 10.792-17.434s-12.514-54.917-20.883-58.578-12.411 3.171-12.411 3.171c-6.62 14.714-12.927 32.308-19.2 43.194-4.107 7.128-9.071 14.084-9.686 22.468a6.38 6.38 0 0 0 2.312 5.475c2.289 1.815 4.373.816 6.285-.144l7.275-3.651c-3.186 12.379-10.345 22.707-15.313 31.668 0 0-3.65 10.54 1.389 15.578s7.238 5.386 7.238 5.386z" fill="#8fad96"/><path d="m457.249 255.3 13.369-6.137-22.135-47.119 10.958-4.4c-1.93-5.1-23.762-68.167-25.688-70.934a6.075 6.075 0 0 0 -10.906-.327c-1.528 2.916-3.037 6.089-4.53 9.408 9.815-1.086 13.88 9.124 14.891 17.634 1.194 7.3 5.914 25.034 10.169 35.021 2.907 6.823-3.5 11.9-8.4 8.223-3.484-2.614-9.175-3.035-13.319 3.014-1.557 2.273-4.249 4.358-9.8 1.495-1.9-.981-3.052 2.2-1.4 3.32 3.92 2.622 2.742 8.464 5.74 11.8a12.435 12.435 0 0 0 11.679 4.644c17.928-2.576 25.776 25.148 9.178 27.464-9.791 1.366-14.868-8.231-19.384-8.1-7.217.212-28.779 12.793-27.681-5.505-4.207 7.588-6.846 14.2-4.167 20.243 1.308 2.949 4.459 3.066 7.934 2.031-.729 1.956-1.557 3.86-2.454 5.714 6.338-.5 13.181.117 18.242 4.691 4.768 4.136 5.948 12.907 1.051 17.4-6.753 6.2-28.913 13.985-37.05 8.4-7.786 25.9 21 10.622 26.908 7.046.683.436 4.2 10.284 12.439 10.459 11.689.248 14.761-5.823 17.377-8.158 4.192 8.585 20.2 16.905 25.588.047 4.137 1.831 11.308 4.531 17.891 5.21a14.105 14.105 0 0 0 6.508-10.29z" fill="#617a68"/><path d="m127.789 345.948c-4.711 7.726-7.014 16.938-11.669 24.8-6.994 11.81-18.818 19.851-27.736 30.285a89.314 89.314 0 0 0 -10.669 15.818s-9.879 23.334 10.3 26.745c26.236 2.832 49.185-56.296 57.985-68.679 0 0 5.292-26.724-1.349-32.154-7.777-6.355-16.862 3.185-16.862 3.185z" fill="#b6c3dd"/><path d="m178.2 436.863s-17.359-37.893-21.174-70.7c-4.735-35.531-12.863-34.918-18.6-30.856-4.925 3.386-8 6.1-10.628 10.652 5.815-3.069 13.482-1.418 15.875 5.151 4.853 13.273-10.152 40.112-14.5 44.835a38.819 38.819 0 0 0 -7.411 13.66c-5.45 19.193-42.435 37.144-44.035 7.253-5.9 10.966-10.058 23.012-14.088 34.858l76.5-.132a92.617 92.617 0 0 0 38.061-14.721z" fill="#7b8aa5"/><path d="m143.5 448.984c-1.095.9-2.221 1.759-3.361 2.6l58.412-.1c3.459-19.469-15.951-33.187-21.33-50.343-3.465-11.047-1.41-23.145-4.125-34.4-2.176-9.019-11.917-21.474-18.776-29.4a12.016 12.016 0 0 0 -10.332-4.086c17.2 15.518 1.849 54.958-10.676 72.015-.116 2.682 3.859 4.64 5.665 2.347 1.1-1.4 5.94-7.148 9.237-11.02a2.454 2.454 0 0 1 4.242.958s10.041 21.115 5.6 34.894c-2.134 6.603-9.321 12.229-14.556 16.535z" fill="#4f424c"/><path d="m94.214 408.762c-3.427-2.02-6.417 3.182-3.033 5.189 3.4 1.961 6.419-3.191 3.033-5.189z" fill="#7b8aa5"/><path d="m109.865 401.254a3.082 3.082 0 0 0 -.157-.381 1.421 1.421 0 0 0 -.364-.623 1.405 1.405 0 0 0 -.506-.507 2.734 2.734 0 0 0 -2.895-.373 2.872 2.872 0 0 0 -1.735 2.27 1.469 1.469 0 0 0 0 .773 2.876 2.876 0 0 0 1.094 1.895 2.751 2.751 0 0 0 1.761.624l.772-.1.7-.293.588-.455.454-.588c.1-.231.195-.463.293-.694.035-.258.069-.515.1-.773-.036-.26-.07-.518-.105-.775z" fill="#7b8aa5"/><path d="m106.556 411.6c-2.867-2.805-7.118 1.477-4.326 4.326 2.87 2.808 7.118-1.473 4.326-4.326z" fill="#7b8aa5"/><path d="m50.836 408.31c-2.739-2.681-6.8 1.411-4.134 4.135 2.739 2.681 6.803-1.412 4.134-4.135z" fill="#7b8aa5"/><path d="m58.09 400.9a2.344 2.344 0 0 0 -3.314 3.315 2.344 2.344 0 0 0 3.314-3.315z" fill="#7b8aa5"/><path d="m479.415 288.889c-8.189-9.813-13.647-20.446-17.8-31.566 6.2 1.6 12.476 1.111 14.095-6.262 1-4.555-4.335-8.232-6.9-12.128a142.973 142.973 0 0 1 -16.732-35.1c3.123 2.776 7.566 6.6 11.956 4.117 3.416-2.252 2.342-6.831.872-10.282-4.389-10.308-10.5-19.8-15.16-29.987-4.7-10.275-8.274-21.809-12.576-32.784.565 21.5 10.665 45.462 13.861 53.508 3.669 9.235-11.161 17.311-11.161 17.311a2.861 2.861 0 0 1 -4.342-.229l-4.442-5.78a2.8 2.8 0 0 0 -4.554.17l-2.982 4.547a2.8 2.8 0 0 1 -4.527.206l-3.326-4.187c-1.507-1.89-3.6-.78-5.3.161a1.411 1.411 0 0 0 .669 2.675 3.406 3.406 0 0 1 2.76 1.54l2.694 3.8a5.3 5.3 0 0 0 8.609.052l1.2-2.057a2.189 2.189 0 0 1 3.624-.236l4.063 5.252a5.3 5.3 0 0 0 7.547.409 2.846 2.846 0 0 1 4.524.991c2.98 6.962 9.825 22.143 16.455 31.059 2.549 3.917 1.714 9.146-7.518 6.95a4.139 4.139 0 0 0 -4.438 1.851l-2.868 4.589a3.324 3.324 0 0 1 -5.569.1l-1.209-1.784a4.747 4.747 0 0 0 -7.432-.538c-2.106 2.116-4.638 6.594-8 3.431l-7.323-7.853a4.747 4.747 0 0 0 -7.171.264l-3.652 4.543a1.244 1.244 0 0 0 1.574 1.868c1.848-.81 4.725-3.619 6.572-1.431l9.5 10.922a4.747 4.747 0 0 0 7.213-.057l2.568-3.051a2.447 2.447 0 0 1 3.852.139l3.514 4.841a4.747 4.747 0 0 0 7.27.494l4.18-4.366a2.8 2.8 0 0 1 4.607.843c3.825 9.018 9.169 20.021 15.094 27.484 4.86 6.121 3.712 10.982.729 14.576 6.469.61 12.318-.778 14.079-6.936 1.309-4.558-5.461-8.199-8.699-12.079z" fill="#4f424c"/><path d="m434.537 177.851c-.282-2.488-4.2-2.559-3.96 0 .269 2.92.142 6.321 1.024 9.119a1.92 1.92 0 0 0 3.752-.508c.276-2.755-.503-5.862-.816-8.611z" fill="#617a68"/><path d="m423.352 183.709a11.072 11.072 0 0 0 .72 4.224c.722 1.611 3.265.752 3.232-.876a20.268 20.268 0 0 0 -.752-3.781c-.384-1.79-3.276-1.401-3.2.433z" fill="#617a68"/><path d="m403.011 224.416a41.4 41.4 0 0 0 -3.346 12.2 1.955 1.955 0 0 0 3.712 1.056 41.3 41.3 0 0 0 3.3-12.21 1.931 1.931 0 0 0 -3.666-1.046z" fill="#617a68"/><path d="m410.125 231.684c-1.358 1.815-2.923 7.39 1.083 6.525 1.895-1.025 2.147-3.655 2.276-5.592a1.905 1.905 0 0 0 -3.359-.933z" fill="#617a68"/><path d="m269.393 186.22c-5.782 11.964-14.416 21.878-17.764 30.489l12.044 5.666 55.23-3.486 13.797-29.465-13.8-57.361 10.8-17.437s-12.514-54.917-20.883-58.578-12.417 3.171-12.417 3.171c-6.62 14.714-12.927 32.308-19.2 43.194-4.107 7.128-9.071 14.084-9.687 22.468a6.381 6.381 0 0 0 2.313 5.475c2.289 1.815 4.373.816 6.285-.144l7.274-3.651c-3.186 12.379-10.344 22.707-15.312 31.668 0 0-3.65 10.54 1.389 15.578s7.237 5.386 7.237 5.386z" fill="#8fad96"/><path d="m335.334 178.728 13.368-6.137-22.134-47.119 10.957-4.4c-1.929-5.1-23.761-68.167-25.688-70.934a6.074 6.074 0 0 0 -10.9-.327c-1.537 2.916-3.037 6.089-4.537 9.408 9.816-1.086 13.881 9.124 14.892 17.634 1.193 7.3 5.914 25.033 10.169 35.021 2.907 6.823-3.5 11.9-8.4 8.223-3.484-2.614-9.175-3.035-13.32 3.014-1.557 2.273-4.248 4.358-9.8 1.495-1.9-.981-3.052 2.2-1.4 3.32 3.921 2.622 2.742 8.464 5.74 11.8a12.435 12.435 0 0 0 11.679 4.644c17.928-2.576 25.776 25.148 9.178 27.464-9.79 1.366-14.868-8.231-19.384-8.1-7.216.212-28.779 12.793-27.681-5.5-4.206 7.588-6.846 14.2-4.166 20.243 1.307 2.949 4.458 3.066 7.933 2.031-.729 1.956-1.557 3.86-2.453 5.714 6.337-.5 13.18.117 18.242 4.691 4.767 4.136 5.947 12.907 1.051 17.4-6.753 6.2-28.914 13.985-37.05 8.4-7.787 25.9 20.994 10.622 26.907 7.046.684.436 4.2 10.284 12.44 10.459 11.689.248 14.76-5.823 17.376-8.158 4.193 8.584 20.2 16.905 25.589.047 4.137 1.831 11.307 4.531 17.891 5.21a14.1 14.1 0 0 0 6.507-10.29z" fill="#617a68"/><path d="m357.5 212.319c-8.189-9.813-13.647-20.446-17.8-31.566 6.2 1.6 12.475 1.111 14.1-6.262 1-4.556-4.336-8.232-6.9-12.128a142.976 142.976 0 0 1 -16.733-35.1c3.124 2.776 7.567 6.605 11.956 4.117 3.417-2.252 2.342-6.831.873-10.282-4.389-10.308-10.5-19.8-15.16-29.987-4.7-10.275-8.275-21.809-12.576-32.784.565 21.5 10.665 45.462 13.861 53.508 3.669 9.235-11.161 17.311-11.161 17.311a2.862 2.862 0 0 1 -4.343-.229l-4.441-5.78a2.8 2.8 0 0 0 -4.555.17l-2.982 4.547a2.8 2.8 0 0 1 -4.526.206l-3.327-4.187c-1.506-1.89-3.6-.78-5.3.161a1.411 1.411 0 0 0 .668 2.675 3.406 3.406 0 0 1 2.76 1.539l2.695 3.8a5.3 5.3 0 0 0 8.609.052l1.2-2.057a2.19 2.19 0 0 1 3.625-.236l4.062 5.252a5.3 5.3 0 0 0 7.547.409 2.846 2.846 0 0 1 4.524.991c2.98 6.962 9.825 22.143 16.455 31.059 2.55 3.917 1.715 9.146-7.518 6.95a4.137 4.137 0 0 0 -4.437 1.851l-2.869 4.589a3.323 3.323 0 0 1 -5.568.1l-1.21-1.784a4.747 4.747 0 0 0 -7.432-.538c-2.105 2.116-4.637 6.594-8 3.431l-7.322-7.853a4.746 4.746 0 0 0 -7.171.264l-3.653 4.543a1.245 1.245 0 0 0 1.575 1.868c1.848-.81 4.724-3.619 6.572-1.431l9.5 10.922a4.747 4.747 0 0 0 7.213-.057l2.568-3.051a2.447 2.447 0 0 1 3.852.139l3.514 4.841a4.747 4.747 0 0 0 7.27.494l4.179-4.366a2.8 2.8 0 0 1 4.608.843c3.824 9.018 9.169 20.021 15.094 27.484 4.86 6.121 3.712 10.982.728 14.576 6.47.61 12.319-.778 14.079-6.936 1.305-4.557-5.465-8.197-8.703-12.078z" fill="#4f424c"/><path d="m284.888 99.354c-1.6 3.476-3.3 7.067-3.774 10.9-.277 2.265 2.946 2.255 3.66.5 1.266-3.117 1.94-6.439 3.292-9.539.931-2.135-2.181-4.024-3.178-1.857z" fill="#617a68"/><path d="m290.85 107.39a9.771 9.771 0 0 0 -.994 4.368 1.8 1.8 0 0 0 1.265 1.661c2.558.411 2.928-3.29 3.114-5.112a1.831 1.831 0 0 0 -3.385-.917z" fill="#617a68"/><g fill="#4f424c"><path d="m110.143 241.724c17.614-1.741 33.614 9.37 50.578 14.418 12.219 3.635 25.138 4.123 37.616 6.732 32.461 6.79 60.122 27.429 85.583 48.679 16.566 13.784 33.249 28.593 54.28 34.468-46.675-33.208-95.1-98.068-181.5-121.762-86.756-23.113-128.2 13.56-140.731 28.178a4.068 4.068 0 0 0 2.417 6.648 184.482 184.482 0 0 1 34.059 9.551c-4.314-6.4-5.745-16.264.2-22.178 13.121-14.276 65.835 21.732 78.5 31.6a.851.851 0 0 0 1.124-1.271 331.908 331.908 0 0 1 -25.407-29.909c-2.127-2.845.28-5.071 3.281-5.154z"/><path d="m72.933 241.372c12.541 8.63 25.879 15.8 37.957 25.181a337.028 337.028 0 0 1 32.816 29.414c42.092 40.176 69.844 96.347 122.833 123.9 47.883 23.422 106.707 27.751 156.028 6.271 2.3-1.027.634-5.076-1.734-4.113-74.145 29.975-165.475 4.63-212.121-60.688-28.706-35.2-57.043-71.433-93.171-99.436-12.349-9.585-25.923-19.618-40.866-24.663-2.557-.863-3.747 2.754-1.742 4.134z"/><path d="m98.87 238.243c53.755 12.241 74.146 34.941 103.391 79.456 18.978 26.422 39.81 52.668 65.255 73.161 1.786 1.35 3.74-1.483 2.315-3-11.149-11.878-23.177-22.669-33.729-35.164-30.181-34.97-48.642-81.015-90.478-104.416-13.284-7.455-30.612-15.1-46.174-14.318a2.19 2.19 0 0 0 -.58 4.281z"/><path d="m286.327 400.584.11-.3-1.011 1.315.013-.011-.532.225c2.488-.614 1.977-4.506-.592-4.439-2.563-.052-3.079 3.831-.592 4.439l-.532-.225.014.011-1.011-1.315a2.448 2.448 0 0 0 .857 1.384 1.046 1.046 0 0 0 .461.269 1.985 1.985 0 0 0 1.358.105 2.121 2.121 0 0 0 1.457-1.457z"/><path d="m447.922 385.768c-26.691 22.911-56.925 28.891-91.173 29.214-18.205.7-35.237-1.214-52.476-7.174-2.2-.76-3.667 2.7-1.59 3.77 15.815 8.12 34.858 9.27 52.3 8.815 39.327.18 72.457-7.878 102.055-35.08q-4.548.365-9.116.455z"/><path d="m484.506 384.42a4.07 4.07 0 0 0 -4.818-2.639c-12.176 13.719-27.508 23.719-43.463 32.477-1.9 1.063-.6 4.481 1.526 3.62a128.166 128.166 0 0 0 46.755-33.458z"/><path d="m272.657 360.831a2.735 2.735 0 0 0 .481-3.952c-38.1-40.494-56.032-89.324-103.722-113.124l-9-1.912a1.742 1.742 0 0 0 .7 2.356c21.633 10.972 38.912 27.317 53.951 46.133 12.321 15.416 32.362 49.383 53.547 70a3.022 3.022 0 0 0 4.043.499z"/><path d="m411.685 382.3c-23.71 13.186-52.444 16.677-78.754 10.129a2.836 2.836 0 0 0 -1.347 5.509c29.868 7.453 62.716 2.571 88.751-14.03q-4.345-.681-8.65-1.608z"/><path d="m388.17 379.27c2.519-.337 5.02-.782 7.5-1.319q-6.363-2.1-12.543-4.754c-86.171 7.257-110.193-83.789-173.67-117.617a1.818 1.818 0 0 0 -1.834 3.138c62.806 41.999 90.596 130.582 180.547 120.552z"/></g><path d="m329.225 384.6c-3.5 6.695-17.61-.19-14.489-7.069 3.502-6.695 17.611.19 14.489 7.069z" fill="#c5e1ff"/></svg>