<svg id="flat" height="512" viewBox="0 0 500 500" width="512" xmlns="http://www.w3.org/2000/svg"><path d="m107.615 347.813c-6.628-5.162-12.046.894-12.046.894q.663 18.546-.231 37.105s5.838 10.7 12.51 2.3 7.361-31.632 7.361-31.632z" fill="#e57e80"/><path d="m118.888 358.724a76.957 76.957 0 0 0 -11.208-10.859c.091 13.723 3.247 31.554-12.35 37.946q-.249 5.178-.613 10.349h24.765c-.465-12.29-.663-24.86-.594-37.436z" fill="#bc5b65"/><path d="m93.818 322.149q1.276 13.25 1.741 26.559c7.782 3.379 15.455 7.088 23.338 10.016.076-13.972.471-27.959 1.2-41.6z" fill="#4f424c"/><path d="m393.5 350.339a37.706 37.706 0 0 0 -12.512-2.526c.221 12.5.179 25.063-.127 37.428 0 0 11.6 5.781 14.921-8.962a41.936 41.936 0 0 0 -2.282-25.94z" fill="#e57e80"/><path d="m404.2 357.892a28.332 28.332 0 0 0 -10.7-7.549c-.223 12.012 5.05 33.847-12.644 34.9-.091 3.657-.2 7.3-.335 10.919h24.765q-1.374-19.1-1.086-38.27z" fill="#bc5b65"/><path d="m379.9 317.123c.539 10.089.895 20.369 1.077 30.69 7.776 3.3 15.413 7.025 23.229 10.079q.268-17.9 1.973-35.743z" fill="#4f424c"/><path d="m272.71 403.768-2.528-86.645-36.756 2.144c.805 19.209-.085 31.442-.961 47.277 0 0 .337 50.211 20.123 53.128s20.122-15.904 20.122-15.904z" fill="#e57e80"/><path d="m216.144 442.289 48.8-.395 17.682-4.889-9.641-23.948-.271-9.289c-6.524 6.431-19.19 6.722-24.007-1.682-2.431-4.312-1.926-9.588-2.232-14.529-.354-8.85-4.858-18.636-14.007-21.013-2.178 27.872 3.001 51.329-16.324 75.745z" fill="#bc5b65"/><path d="m264.941 441.894 30.6-.247c-40.947-38.163-13.5-149.569-13.5-149.569-18.263-6.357-54.758 1.609-54.758 1.609 5.442 7.375 5.8 17.277 6.176 26.335 5.361 1.93 10.735 3.825 16.1 5.74 3.849 1.371 10.592 2.457 12.955 6.153 2.01 3.14 1.187 8.544 1.2 12.09.073 13.207-.461 26.424.275 39.619a139.88 139.88 0 0 0 3.317 24.376c3.363 11.854 10.484 24.932-2.365 33.894z" fill="#4f424c"/><path d="m99.627 183.762s-10.876-25.541-15.7-38.684c-6.1-16.616-10.352-35.8-16.583-52.892-2.161-5.926-8.864-6.141-11.289-.377-8.6 20.437-16.615 50.639-24.575 67.846-3.681 8.583-14.893 27.336-7.639 36.047 2.372 2.341 4.53 1.052 6.511-.186l7.548-4.716c-6.09 29.506-26.247 49.971-20.192 66.98 1.355 3.8 4.619 3.955 8.218 2.62-8.112 27.118-28.057 46.479-20.841 62.544 4.674 10.406 34.092-6.7 34.092-6.7 29.823-34.45 62.423-66.095 60.45-132.482z" fill="#4f424c"/><path d="m67.87 313.193c-1.112 25.922-1.282 53.1-.494 79.037h-19.886a550.252 550.252 0 0 0 -.721-74.011z" fill="#4f424c"/><path d="m400.373 183.762s10.876-25.541 15.7-38.684c6.1-16.616 10.352-35.8 16.583-52.892 2.161-5.926 8.864-6.141 11.289-.377 8.6 20.437 16.615 50.639 24.575 67.846 3.681 8.583 14.893 27.336 7.639 36.047-2.372 2.341-4.53 1.052-6.511-.186l-7.548-4.716c6.09 29.506 26.247 49.971 20.192 66.98-1.355 3.8-4.619 3.955-8.218 2.62 8.112 27.118 28.057 46.479 20.841 62.544-4.674 10.406-34.092-6.7-34.092-6.7-29.823-34.45-62.423-66.095-60.45-132.482z" fill="#4f424c"/><path d="m432.13 313.193c1.112 25.922 1.282 53.1.494 79.037h19.886a550.252 550.252 0 0 1 .721-74.011z" fill="#4f424c"/><path d="m131.276 247.615 29.564 63.447-49.827 7.2c-24.249 22.814-34.149-3.215-34.149-3.215l-12.689 3.215c-32.221 12.849-25.1-10.767-25.1-10.767 6.113-11.771 17.736-25.413 23.891-41.934-4.482 1.335-8.548 1.185-10.234-2.62-7.541-17.009 17.561-37.473 25.146-66.979l-9.405 4.721c-2.467 1.238-5.155 2.527-8.108.186-9.031-8.392 4.909-27.59 9.512-36.048 9.913-17.206 19.9-47.408 30.605-67.845 3.543-6.653 12.963-4.911 14.835 2.11z" fill="#bfcc7f"/><path d="m173.465 306.6c-10.565-12.658-17.6-26.375-22.96-40.72 8 2.062 16.094 1.433 18.183-8.078 1.29-5.877-5.593-10.619-8.9-15.646a184.419 184.419 0 0 1 -21.588-45.279c4.013 3.5 9.826 8.688 15.426 5.316 4.406-2.906 3.021-8.812 1.125-13.264-5.663-13.3-13.544-25.54-19.557-38.683-7.346-16.057-12.54-34.511-19.883-51.156.734 11.227-7.478 20.21-9.924 30.695-3.824 19.175 6.58 35.714-1.422 55.846-6.766-3.333-14.294.031-20.149 3.63-3.868 2.352-.482 7.958 3.513 6.01 3.012-1.468 7.119-2.936 10.7-2.911 11.965.08 2.76 33.239 9.748 44.521 2.3 3.836 8.036 9.291 11.893 12.954 6.409 6.087-7.3 14.479-11.9 12.758-3.74-1.4-5.938-5.671-8.823-8.155-7.672-7.581-19.454-1.729-24.4 6-1.5 2.293.974 5.114 3.441 4.476a34.878 34.878 0 0 0 7.88-3.259c3.328-1.777 5.03-2.526 8.01.258 4.253 3.975 7.806 12.665 13.368 9.876 42.208-21.162 55.021 53.54 4.885 38.173-6.152-1.886-12.583 8.883-18.895 10.129-8.987 1.775-7.593-10.875-16.753-10.908-12.251.34-33.9 20.257-37.406-1.686-3.919 7.548-5.581 14.331-2.07 20.607 5.821 10.406 34.593-6.749 34.593-6.749.882.562 5.416 13.267 16.048 13.492 15.079.319 19.041-7.512 22.415-10.524 5.483 11.091 25.967 21.836 33.01.061 10.673 4.724 37 13.929 41.611-2.2 1.691-5.879-7.042-10.576-11.219-15.584z" fill="#919951"/><path d="m407.415 113.767c-2.6-5.969-5.225-11.684-7.9-16.79a7.831 7.831 0 0 0 -14.059.376c-7.76 17.088-13.05 36.277-20.651 52.893-6.013 13.143-13.894 25.386-19.557 38.683-3.237 6.521-2.436 15.507 6.557 14.181 4.139-.867 6.952-3.707 9.994-6.233a184.419 184.419 0 0 1 -21.587 45.281c-3.307 5.027-10.19 9.769-8.9 15.646 2.089 9.511 10.179 10.14 18.183 8.078a163.244 163.244 0 0 1 -7.3 16.781l-9.923 34.46 68.016 5.025 49.093-7.917-20.123-53.857 15.834-4.714-28.7-64.146 14.515-.33-12.535-46.184z" fill="#bfcc7f"/><path d="m437.031 265.562c4.482 1.335 8.547 1.185 10.234-2.62 7.541-17.009-17.561-37.473-25.146-66.979l9.4 4.721c2.467 1.238 5.155 2.527 8.108.186 9.028-8.423-4.9-27.568-9.512-36.048-7.437-12.908-14.913-33.129-22.7-51.055 1.539 7.737 2.511 15.648 5.353 23.053 10.431 27.185 16.289 49.5 8.316 49.681-5.034-2.431-9.708-6.915-15.428-3.5-7.743 4.7-5.267 19.614-16.551 7.678a21.9 21.9 0 0 0 -7.172-4.543c-5.593-1.792-15.657.545-16.494 7.156a2.811 2.811 0 0 0 2.047 2.69c7.741 1.438 8.677-6.194 16.949 2.247 4.3 3.736 11.39 10.3 15.1 5.258 8.8-11.955 9.842-7.765 11.892-1.334a133.079 133.079 0 0 0 12.559 28.668c2.863 4.709 12.142 16.254 9.021 22.29-.866 1.673-5.319 1.776-10.076-2-3.206-2.544-7.667-2.246-11.624-1.073-4.075 1.209-7.583 3.851-10.746 6.6-3.441 2.988-7.078 7.394-11.8 8.261-4.216.775-7.368-2.457-10.427-4.816-2.862-2.207-5.826-4.1-9.436-4.749-8.708-1.553-17.843 3.919-23.083 10.548-1.812 2.292.4 5.762 3.252 4.215 4.575-2.483 8.36-6.345 13.678-7.287 4.8-.851 7.887 1.386 11.351 4.336 6.076 5.174 13.5 10.017 20.349 4.8 19.522-14.871 34.767 6.094 37.983 15.906 1.8 5.493 5.707 10.85 7.038 16.5 1.2 5.076-2.855 7.1-7.079 5.092-2.437-1.157-4.391-3.2-6.294-5.058-1.635-1.6-4.99-1.054-5.455 1.44-2.38 12.78-19.831 15.566-24.726 2.758-.878-2.3-4.673-3.588-5.941-.776-2.256 5.006-7.109 10.3-13.2 9.238-4.89-.85-8.4-6.635-5.635-11.069 1.4-2.25-.977-5.85-3.678-4.784-4.6 1.816-9.214 3.6-13.824 5.39-3.352 1.3-9.765 5.349-12.2 1.363-1.744-2.857-.1-6.984.914-9.745 1.254-3.941 5.8-13.771-.164-15.526a125.824 125.824 0 0 1 -15.653 23.94c-4.177 5.006-12.91 9.7-11.227 15.589 4.61 16.125 30.938 6.92 41.611 2.2 7.058 21.813 27.568 10.979 33.01-.061 3.374 3.012 7.336 10.843 22.415 10.524 10.632-.225 15.166-12.93 16.047-13.492 0 0 28.773 17.155 34.594 6.749 8.991-16.082-15.847-35.444-25.95-62.562z" fill="#919951"/><path d="m333.461 80.886c-6.889-2.571-14.934-1.832-21.38-5.391-2.539-1.656-4.278-4.252-6.272-6.535-12.876-14.744-39.119-14.485-51.7.509-7.588-8.092-20.3-10.864-30.639-6.914-2.283.874-4.542 2.064-6.988 2.07-3.014.007-5.691-1.769-8.373-3.143-20.226-10.677-46.237 2.46-49.645 25.078a58.626 58.626 0 0 0 -6.688 2.262s-51.743 106.54 78.308 153.136h91.8l26.416-129.958z" fill="#8fad96"/><path d="m362.1 157.693c14.024-31.505 6.239-67.242-28.64-76.79 11.655 27.637-.509 54.722-11.577 66.727a4.559 4.559 0 0 1 -7.694-1.747 52.893 52.893 0 0 0 -4.879-10.979 2.88 2.88 0 0 0 -5.329 1.792c1.018 10.1-.029 25.423-12.146 37.417a2.875 2.875 0 0 0 2.783 4.8 30.243 30.243 0 0 0 9.3-4.2 4.558 4.558 0 0 1 7.164 4.151c-2.033 29.182-33.8 54.725-62 45.447a3.131 3.131 0 0 1 .3-5.972 37 37 0 0 0 12.589-5.941 2.88 2.88 0 0 0 -1.792-5.2c-17.005.53-31.676.012-43.141-17.005a2.878 2.878 0 0 0 -5.25 1.915 37.124 37.124 0 0 0 6.616 17.335 3.123 3.123 0 0 1 -2.846 4.913c-6.657-.656-16.672-5.271-21.661-25.607-2.929-11.94-7.471-23.967-15.666-33.131-6.907-7.724-16.974-12.275-23.207-20.553-9.672-12.846-7.459-30.218-3.234-46.237-19.125 9.285-45.071 23.817-18.972 73.531 0 0-20.754 53 20.37 76.307 21.027 57.126 83.2 50.361 165.408 49.957l39.3-56.33z" fill="#617a68"/><path d="m245.114 393.543c-.363 17.147-1.861 34.493-10.118 48.593l7.37-.059c5.7-12.771 7.248-28.082 7.606-41.151.754-27.458 1.317-55.182.669-82.663l-3.9.228c-1.255 24.972-1.098 50.061-1.627 75.052z" fill="#4f424c"/><path d="m263.6 300.2a24.618 24.618 0 0 1 17.284-.444c49.443 16.939 69.079-20.521 74.886-35.894a32.681 32.681 0 0 1 6.549-10.593c9.813-10.647 30.334-40.046 7.16-81.779a13.937 13.937 0 0 1 -.795-12.024c3.68-9.062 7.887-28.116-4.705-54.806 5.637 28.55 1.974 49.563-15.7 61.823-10.251 6.385-8.387-1.639-14.423-6.306a3.083 3.083 0 0 0 -4.9 3.21c5.094 20.341-4.171 43.471-26.463 49.93a3.074 3.074 0 0 0 -.169 5.794c13.922 5.266 28.666 2.089 33.346-3.814 7.655-9.655 12.407-5.635 13.241-2.354 4.707 18.537-9.122 72.676-57.451 62.913-3-.607-3.549-3.3-1.275-5.354a33.24 33.24 0 0 0 8.623-12.441 2.7 2.7 0 0 0 -4.077-3.177c-16.424 11.367-34.413 13.176-56.312 7.321a2.7 2.7 0 0 0 -2.613 4.5 42.882 42.882 0 0 0 10.617 7.727 3 3 0 0 1 -.309 5.429c-25.45 10.622-62.442-2.872-74.931-27.744-3.97-7.907-4.447-20.533 7.033-20.86a15.89 15.89 0 0 1 10.624 3.743c6.057 5.1 14.974 4.5 20.967.044a2.587 2.587 0 0 0 -.622-4.513c-20.564-7.457-36.541-26.534-40.362-48.061a2.589 2.589 0 0 0 -4.627-1.108 23.813 23.813 0 0 0 -3.067 23.316c3.664 7.045 7.823 14.78-1.454 19.27-14.336 6.29-23.735-15.363-22.449-30.281.75-8.705 5.732-17.01 4.493-25.659-1-6.966-5.828-12.655-9.3-18.774-7.735-13.622-8.324-30.756-2.57-45.26-16.4 17.041-20.771 43.906-11.381 65.5.932 2.166 2.009 4.354 2.1 6.711s-.814 4.6-1.646 6.79c-7.812 18.239-9.006 45.044 10.839 55.634 4.067 2.063 9.117 3.4 11.074 7.515a17.817 17.817 0 0 1 1.165 5.59c2.6 21.416 23.88 38.786 45.383 37.048a17.247 17.247 0 0 1 5.977.072 16.107 16.107 0 0 1 5.224 3.133c18.19 13.883 43.916 16.868 65.016 8.233z" fill="#4f424c"/><g fill="#617a68"><path d="m163.677 122.63a25.194 25.194 0 0 1 -2.36-10.512c-.069-2.412-4.031-3.209-4.42-.6-1.191 8 1.38 18.246 8.706 22.745 2.175 1.336 5.2-1.417 3.64-3.639-1.887-2.686-4.105-5.007-5.566-7.994z"/><path d="m178.952 124.888c-.652-1.305-.753-2.735-1.755-3.866-3.8-2.726-4.986 3.512-3.518 6.089.74 1.909 2.211 4.408 4.365 4.871a2.677 2.677 0 0 0 3.258-3.258c-.442-1.445-1.671-2.478-2.35-3.836z"/><path d="m192.07 129.389c-1.777-2.318-5.166.676-3.129 2.756 1.705 1.855 4.971-.879 3.129-2.756z"/><path d="m287.7 155.136a30.858 30.858 0 0 1 -6.528 10.56c-2.546 2.85-5.42 5.56-7.542 8.745-1.241 1.861 1.156 3.956 2.95 2.95 6.709-3.761 16.168-13.871 14.781-22.255-.339-2.026-3.091-1.566-3.661 0z"/><path d="m271.8 159.731c-3.676 2.912-6.169 7.192-9.78 10.235-2.314 2.155.811 6.419 3.452 4.472 4.064-2.995 9.121-7.421 9.732-12.754.189-1.692-2.074-2.84-3.404-1.953z"/><path d="m254.533 165.782a1.3 1.3 0 0 0 -.178-.656 2.5 2.5 0 0 0 -2.723-1.553 2.979 2.979 0 0 0 -2.15 5.054 3.042 3.042 0 0 0 5.051-2.845z"/><path d="m322.367 90.947c-1.54-1.265-4.406.42-3.018 2.329 4.933 6.789 4.326 14.187 3.938 22.147-.114 2.351 3.488 2.8 4.074.551 2.222-8.503 2.379-18.969-4.994-25.027z"/><path d="m314.067 104.411a1.975 1.975 0 0 0 -3.271 1.9 36.337 36.337 0 0 1 1.716 7.992c.513 2.314 3.565 1.883 4.272 0 1.129-3.003-.204-7.921-2.717-9.892z"/></g></svg>