<svg id="Flat" height="512" viewBox="0 0 340 340" width="512" xmlns="http://www.w3.org/2000/svg"><path d="m191.762 103.58a3.5 3.5 0 0 1 -.769-3.8 193.092 193.092 0 0 0 10.558-39.939c3.436-23.878 24.774-32.037 25.682-32.373a3.5 3.5 0 0 1 2.435 6.563c-.8.3-18.362 7.162-21.189 26.807a196.571 196.571 0 0 1 -11 41.582 3.5 3.5 0 0 1 -5.715 1.156z" fill="#c67067"/><path d="m236.42 148.238a3.5 3.5 0 0 1 1.157-5.716 196.562 196.562 0 0 1 41.581-11c19.677-2.832 26.527-20.444 26.809-21.193a3.5 3.5 0 0 1 6.562 2.441c-.337.906-8.5 22.244-32.374 25.679a193.259 193.259 0 0 0 -39.94 10.558 3.5 3.5 0 0 1 -3.795-.769z" fill="#c67067"/><path d="m263.408 55.8c-8.729 2.438-30.675 11.324-29.162 38.813l-22.275-2.792a47.812 47.812 0 0 1 15.086-31.383 29.928 29.928 0 0 1 15.356-7.634 47.6 47.6 0 0 1 20.979 1.029 1.021 1.021 0 0 1 .016 1.967z" fill="#474756"/><path d="m139.371 94.117a12.526 12.526 0 0 0 .489 2.475c2.3 7.5 12.791 8.1 15.733.828q.047-.112.09-.228s2.392-11.449 14.619-26.657c7.6-9.452 5.346-24.973.724-33.647a.976.976 0 0 0 -1.83.455 35.022 35.022 0 0 1 -8.239 22.087s-12.916 15.543-19.762 27a12.687 12.687 0 0 0 -1.824 7.687z" fill="#c67067"/><path d="m146.979 97.981a6.124 6.124 0 0 1 5.312 6.883 70.445 70.445 0 0 0 10.17 46.009l-20.38 20.381s-9.729-39.015-1.759-68.809a6.111 6.111 0 0 1 6.657-4.464z" fill="#d89150"/><path d="m126.669 115.081s-13.515-1.324-38.409 5.427c-19.457 5.276-21.235-7.9-21.084-13.906a1.675 1.675 0 0 1 2.554-1.374l3.131 1.92a11.1 11.1 0 0 0 10.56.581c11.879-5.636 40.149-17.134 46.609-2.41z" fill="#d8887d"/><path d="m100.074 152.152s-16.244-5.7-39.027 22.572c0 0-8.735 8.735-18.1-4.961a1.683 1.683 0 0 1 1.259-2.628l2.018-.15a13.754 13.754 0 0 0 10.136-5.685c8.3-11.5 29.447-36.805 44.347-19.911z" fill="#c67067"/><path d="m113.364 197.508s.636-20.463-17.931-47.888a10.8 10.8 0 0 1 .575-5.671 5.865 5.865 0 0 1 9.938-1.578 116.409 116.409 0 0 1 21.342 38.682l6.54 9.071z" fill="#ffc783"/><path d="m124.663 186.016s7.055-44.834-3.071-72.259c0 0 .844-10.97 8.438-8.438 0 0 14.346 21.94 14.346 59.068l7.594 7.595z" fill="#ffc783"/><path d="m246.165 200.911a12.512 12.512 0 0 1 -2.475-.489c-7.5-2.3-8.1-12.791-.829-15.733l.229-.091s11.449-2.392 26.657-14.619c9.452-7.6 24.972-5.345 33.647-.723a.976.976 0 0 1 -.455 1.83 35.02 35.02 0 0 0 -22.087 8.239s-15.544 12.916-27 19.762a12.687 12.687 0 0 1 -7.687 1.824z" fill="#c67067"/><path d="m242.3 193.3a6.123 6.123 0 0 0 -6.884-5.312 70.439 70.439 0 0 1 -46.008-10.171l-20.38 20.383s39.015 9.729 68.809 1.759a6.111 6.111 0 0 0 4.463-6.659z" fill="#d89150"/><path d="m225.2 213.612s1.324 13.516-5.427 38.41c-5.276 19.457 7.9 21.235 13.905 21.083a1.674 1.674 0 0 0 1.375-2.553l-1.92-3.131a11.1 11.1 0 0 1 -.581-10.56c5.636-11.879 17.134-40.149 2.41-46.609z" fill="#d8887d"/><path d="m188.13 240.208s5.7 16.244-22.573 39.027c0 0-8.734 8.735 4.962 18.1a1.683 1.683 0 0 0 2.628-1.259l.15-2.018a13.754 13.754 0 0 1 5.681-10.133c11.5-8.3 36.8-29.447 19.911-44.347z" fill="#c67067"/><path d="m142.774 226.917s20.463-.633 47.888 17.932a10.8 10.8 0 0 0 5.671-.575 5.865 5.865 0 0 0 1.578-9.938 116.409 116.409 0 0 0 -38.682-21.342l-9.072-6.54z" fill="#ffc783"/><path d="m154.266 215.619s44.834-7.055 72.259 3.071c0 0 10.97-.844 8.438-8.438 0 0-21.94-14.346-59.069-14.346l-7.594-7.594z" fill="#ffc783"/><path d="m284.2 76.592c-2.437 8.728-11.323 30.675-38.812 29.162l2.791 22.275a47.815 47.815 0 0 0 31.384-15.086 29.935 29.935 0 0 0 7.637-15.357 47.593 47.593 0 0 0 -1.03-20.978 1.021 1.021 0 0 0 -1.97-.016z" fill="#474756"/><path d="m114.607 268.172c10.675-3.108 16.3-10.98 19.234-17.724l3.095-11.177a28.921 28.921 0 0 0 9.614-12.539l-33.417-33.232a28.931 28.931 0 0 0 -12.4 9.56l-10.799 2.94c-6.827 2.885-14.94 8.52-18.106 19.4l-12.2 3.054c-6 3.248-12.3 9.918-13.926 23.585l-9.074 8.258c-6.888 8.273-13.888 22.729-5.628 43.13a10.129 10.129 0 0 0 5.589 5.581c20.792 8.41 35.408.972 43.6-6.039l7.78-8.67c13.292-1.585 19.965-7.582 23.31-13.431z" fill="#ffc783"/><path d="m139.324 200.676-9.052-9.052a31.256 31.256 0 0 0 -17.137 1.884c1.739 6.112 5.282 13.227 12.706 20.651s14.6 10.834 20.709 12.573a30.424 30.424 0 0 0 1.825-17z" fill="#d89150"/><path d="m244.269 99.6-1.933-1.932-1.936-1.937a33.377 33.377 0 0 0 -47.76.583c-12.252 12.845-26.076 29.538-34.079 46.359a11.555 11.555 0 0 0 2.307 13.115l11.67 11.67 11.67 11.67a11.555 11.555 0 0 0 13.115 2.307c16.821-8 33.514-21.828 46.358-34.08a33.376 33.376 0 0 0 .588-47.755z" fill="#d8887d"/><path d="m165.426 210.479a15.748 15.748 0 0 0 2.081-4.38l-.31-7.769c.877.126 1.719.208 2.526.251 12.734.684 20.919-13.3 14.5-24.323-3.47-5.952-12.525-15.007-18.478-18.477-11.017-6.423-25.006 1.761-24.322 14.5.043.807.125 1.649.251 2.526l-8.967.1a16.393 16.393 0 0 0 -3.182 1.674 10.427 10.427 0 0 0 -4.218 5.55c-1.42 4.626-1.652 13.462 9.73 24.844s20.218 11.149 24.844 9.73a10.421 10.421 0 0 0 5.545-4.226z" fill="#ffc783"/><circle cx="213.336" cy="105.102" fill="#474756" r="3.899"/><circle cx="234.897" cy="126.664" fill="#474756" r="3.899"/><g fill="#d89150"><path d="m133.839 250.447a40.409 40.409 0 0 0 3.1-11.176c-33.795-9.965-36.207-36.207-36.207-36.207a40.263 40.263 0 0 0 -10.797 2.936c8.388 32.594 33.543 41.941 43.904 44.447z"/><path d="m111.272 280.864a25.361 25.361 0 0 0 3.335-12.692c-39.4-11.743-42.779-42.779-42.779-42.779a25.337 25.337 0 0 0 -12.2 3.061c8.561 35.771 37.396 48.324 51.644 52.41z"/><path d="m45.7 252.032a41.779 41.779 0 0 0 -9.072 8.259c5.307 27.851 27.158 38.563 43.558 42.678a41.388 41.388 0 0 0 7.781-8.67c-40.1-13.135-42.267-42.267-42.267-42.267z"/><path d="m167.5 206.1a11.377 11.377 0 0 0 -.3-7.766c-21.95-7.973-25.53-25.534-25.53-25.534a11.68 11.68 0 0 0 -8.962.107c6.192 23.283 24.003 30.779 34.792 33.193z"/></g></svg>