<svg id="flat" height="512" viewBox="0 0 500 500" width="512" xmlns="http://www.w3.org/2000/svg"><path d="m470.164 163.133c4.062 17.08-8.961 36.3-25.911 38.236-7.167.819-14.507-1.026-21.58.42-11.274 2.3-19.608 12.4-30.5 16.206-16.841 5.882-35.114-4.423-52.793-2.51-11.538 1.249-22.105 7.645-33.64 8.927-18.419 2.047-36.09-9.136-54.613-8.855-16.243.246-32.028 9.31-48.049 6.556-10.289-1.769-19.594-8.319-30.021-8.656-6.128-.2-12.127 1.788-18.244 2.213a37.034 37.034 0 0 1 -29.692-12.177c-2.99-3.984-6.222-6.049-11.334-5.6-8.222-.06-17.179-1.618-22.664-7.932-6.782-7.768-7.771-25.127-20.732-25l.338-20.4z" fill="#4f424c"/><path d="m311.731 302.965c14.168-35.728 84.524-54.372 91.208-123.68-4.162-.65-13.278 3.175-17.44 2.526-5.124 55.48-64.18 74.166-78.852 74.824z" fill="#4f424c"/><path d="m451.234 269.244a8.26 8.26 0 0 0 -8.109 4.485 286.559 286.559 0 0 0 -15.394 25.353 9.08 9.08 0 0 1 -2.589 3.4 8.937 8.937 0 0 1 -4.469 1.131l-29.149 2.138a5.9 5.9 0 0 0 -5.994 4.272q-2.53 5.413-5.06 10.827a10.234 10.234 0 0 1 -2.824 4.11 13.066 13.066 0 0 1 -3.807 1.588 23.792 23.792 0 0 0 -14.312 13.252c-1.282 3.072-1.943 6.476-3.957 9.126-3.724 4.9-10.673 5.655-16.817 6-10.837.615-38.7.567-38.7.567s-1.1 5.932-2.791 14.933h-41.395c-5.012.357-8.845-4.525-12.023-7.675a10.5 10.5 0 0 0 -7.422-3.074h-50.022s15.355 61.428 17.7 62.143c1.635.5 129.951 69.745 129.951 69.745h161.349v-223.718c-14.442.379-29.721 1.018-44.166 1.397z" fill="#4f424c"/><path d="m236.8 235.9c-11.733-6.077-23.567-15.549-31.458-30.186 0 0-10.213 2.485-5.517 13.811s22.928 23.48 22.928 23.48c8.247.2 15.728-.848 14.047-7.105z" fill="#e57e80"/><path d="m236.8 235.9c-7.444 6.595-16.415 2.178-22.462-3.917-7.028-5.961-16.052-17-8.791-25.895-.068-.125-.139-.245-.207-.371-5.6-5.484-12.125-8.245-18.934-6.724 7.5 29.389 24.89 42.836 50.258 56.535 8.43-1.328 16.448-3 12.9-14.187a94.411 94.411 0 0 1 -12.764-5.441z" fill="#bc5b65"/><path d="m249.564 241.338a34.036 34.036 0 0 1 -12.9 14.188c15.528 8.931 31.744 19.785 38.505 37.338.579-16.361.371-30.174.136-46.557-2.568.149-13.124-.642-25.741-4.969z" fill="#4f424c"/><path d="m205.337 205.714a78.777 78.777 0 0 1 -9.239-31.43l-14.775 3.549c1.507 7.045 3.073 14.2 5.088 21.154 6.353 1.926 12.389 5.313 18.926 6.727z" fill="#4f424c"/><path d="m267.842 223.788c-.552 21.627-1.276 49.124-2.073 77.187l8.7 60.059 34.291-3.276v-140.965z" fill="#e57e80"/><path d="m315.876 206.21c-8.562-4.356-34.465-16.548-47.5-3.721-.152 6.12-.333 13.31-.537 21.3 13.169 3.407 26.688 12.669 29.116 26.769 1.7 10.014-2.8 19.889-5.008 29.8a67.235 67.235 0 0 0 3.443 39.941c1.905 4.621 4.356 9.117 5.052 14.066 1.936 16.412-15.506 19.066-22.07 4.907-5.027-11.974 1.451-31.382-12.606-38.3-.994 35-2.1 70.891-3.131 97.362l59.468 20.58c-2.146-55.253-4.975-163.307-6.227-212.704z" fill="#bc5b65"/><path d="m303.451 412.461 6.749 2.339c1.981-26.106 2.144-52.385-4.823-77.744-4.833-17.718-12.169-34.516-9.872-53.308 1.1-9.011 4.527-17.286 7.379-25.824 5.984-17.808 4.814-36.832 5.009-55.358-1.6-.668-3.354-1.365-5.2-2.038-.828 17.193.86 34.846-4.119 51.524-11.945 29.116-12.976 44.436-3.187 74.625 9.189 27.659 11.142 56.882 8.064 85.784z" fill="#4f424c"/><path d="m318.823 316.3c-9.852-16.378-11.174-34.1-1.39-50.376q-.112-4.175-.221-8.24c-21.231 21.1-13.542 49.4 1.98 71.467q-.186-6.412-.369-12.851z" fill="#4f424c"/><path d="m271.639 401.452 6.308 2.183c5.039-28.586 4.04-57.255 2.077-86.054-1.532-40.513 6.769-80.235 5.3-120.925a31.568 31.568 0 0 0 -6.2.618q.022 20.534-.985 41.043c-1.189 23.247-5.4 46.535-4.9 69.823 1.224 31.166 4.168 62.35-1.6 93.312z" fill="#4f424c"/><path d="m268.379 202.489c15.331 4.753 32.852 11.082 47.5 3.721-.4-15.921-.643-25.751-.643-25.751h-46.318s-.199 8.351-.539 22.03z" fill="#4f424c"/><path d="m403.7 31.3c-36.679-16.365-69.221-12.75-69.221-12.75-79.905-24.875-238.666-12.763-203.354 138.955 0 0 77.248 18.007 144.414 18.007s149.828-14.461 149.828-14.461l18.833-81.527c-9.131-20.278-22-36.958-40.5-48.224z" fill="#8fad96"/><path d="m334.665 491.418c.118-18.246-.217-35.47-.1-53.716.04-6.207-.093-10.969-3.948-15.835-3.6-4.539-18.976-6.335-23.714-9.666-4.915-3.455-8.876-6.933-10.709-12.844a14.173 14.173 0 0 0 -13.515-10.006l-81.888-.1 1.709-7.731c-.337-12.465-.981-35.978-1.131-39.548-.151-3.593-3.16-7.831-6.755-7.893-9.747-.17-32.96-1.009-32.96-1.009l2-7.153c-.073-6.861-.17-16.937-.16-21.841.589-7.856-3.484-9.695-9.492-13.284a17.528 17.528 0 0 1 -5.739-6.856 9.013 9.013 0 0 0 -8.068-5.043c-7.829-.1-22.317.18-22.317.18l1.341-8.486-4.248-11.616c-2.022-5.419-6.8-6.438-12-6.52-6.255-.482-9.96-5.683-10.145-11.67a11.662 11.662 0 0 0 -11.566-10.131l-76.66-.34v11.676l16.9 230.122 292.1 19.2z" fill="#b6c3dd"/><path d="m313.9 469.7c-.286-7.622-.762-15.233-1.491-22.825-.477-13.791-8.223-22.013-22.021-24.362-12.457 0-17.758-11.907-23.926-10.58-7.531 1.553-7.655 9.824-16.506 9.711q-83.05.944-166.076-2.415c-37.646-1.4-19.6-23.629-29.09-40.7-2.7-4.041-7.535-6.821-8.648-11.555-1.353-5.751 3.409-10.945 5.377-16.515.906-2.564 1.444-15.189 1.675-24.5a18.884 18.884 0 0 1 4.14-11.545c6.632-8.08 4.713-21.029 3.631-31.036-.629-5.822-3.3-11.117-4.548-16.929-4.235-19.758-22.672-26.24-30.722-26.806-7.084-.5-14.137.816-21.094 2.341v247.691l308.999 1.458a155.992 155.992 0 0 0 .3-21.433z" fill="#7b8aa5"/><path d="m114.644 350.923c1.61 2.395 5.3 2.088 7.512.773 4.655-1.27 3.677-8.545-1.138-8.51-1.489-.011-2.991-.079-4.478-.013-4.224.033-5.656 5.856-1.896 7.75z" fill="#7b8aa5"/><path d="m128.809 364a4.074 4.074 0 0 0 4.073 3.513c1.293.511 2.755.168 4.106.41l-.01-.077c3.883.3 5.338-5.346 1.984-7.209-3.381-2.259-10.671-2.107-10.153 3.363z" fill="#7b8aa5"/><path d="m149.336 353.6c.084.031.131.045.176.059 2.9 2.14 8.3.953 8.213-3.226-.064-4.179-5.219-5.392-8.211-3.227a3.311 3.311 0 0 0 -.178 6.394z" fill="#7b8aa5"/><g fill="#4f424c"><path d="m202.446 381.519c-19.746-.567-34.939-.458-54.159-.279a3.917 3.917 0 0 0 .035 7.833c18.7.033 35.636.763 54.387.175 0 0-.109-3.186-.263-7.729z"/><path d="m101.186 381.514-96.586.044v7.809c32.154-.432 64.16-.346 96.285-.318 4.843-.001 5.342-7.376.301-7.535z"/><path d="m102.64 270.788-98.04-.048v8.085c36.248.126 81.319-.386 117.723.245l-3.1-8.486c-5.558.094-11.097.206-16.583.204z"/><path d="m4.6 333.1c53.062-.094 106.093-.253 159.135-.12 0 0-.024-2.874-.058-7.07-53.038-.114-106.036-.086-159.077-.235z"/><path d="m76.463 239.176c-1.637 5.241-.576 12.273-.631 17.684-.061 5.99-.136 11.978-.122 17.968.01 4.176 6.481 4.183 6.49 0 .015-5.99-.06-11.978-.121-17.968-.056-5.418 1.008-12.437-.631-17.684a2.608 2.608 0 0 0 -4.985 0z"/><path d="m126.318 288.388c-.73 12.877-.884 25.9-.744 38.793a3.119 3.119 0 0 0 6.235 0c.388-12.888.486-25.907 0-38.793a2.749 2.749 0 0 0 -5.494 0z"/><path d="m36.582 276.618c.141 17.33-1.007 34.993.315 52.272.307 4.019 6.118 4.092 6.3 0 .787-17.314-.242-34.943-.639-52.272-.088-3.841-6.011-3.859-5.98 0z"/><path d="m84.075 328.321c-2.3 4.092-.887 11.731-.857 16.311.181 13.04.094 26.1.376 39.13.105 1.084.331 4.794.3 1.524.04 3.9 6.113 3.915 6.073 0 .011 1.053.037 1.34.069 1.218.553-7.743-.07-15.544-.061-23.206-.1-6.222-.187-12.445-.329-18.666-.1-4.526 1.07-12.353-1.365-16.311a2.458 2.458 0 0 0 -4.2 0z"/><path d="m41.78 387.009c-.675 8.991-.4 18.1-.2 27.1.1 4.516.253 9.031.435 13.544.164 4.061-.228 8.514 1.263 12.326.92 2.354 4.509 2.807 5.252 0 1.053-3.978.257-8.241.054-12.326-.225-4.513-.4-9.028-.562-13.544-.322-9.026-.242-18.1-.864-27.1a2.69 2.69 0 0 0 -5.377 0z"/><path d="m94.814 483.71q-.178-11.349-.375-22.7c-.144-7.582.235-15.483-.9-22.985-.468-3.094-4.66-1.874-4.986.675-.93 7.269-.332 14.984-.309 22.31q.052 13.537.161 27.074l6.467.088c-.02-1.486-.034-2.972-.058-4.462z"/><path d="m204.779 437.676c-.19-2.7-4.67-3.773-5.1-.691-1.743 17.435-.653 35.1-.628 52.6l6.8.092c-.373-17.277.137-34.786-1.072-52.001z"/><path d="m245.6 381.7c-1.984 8.974-1.407 18.954-1.653 28.124-.122 4.569-.222 9.138-.272 13.708-.052 4.751-.685 9.878.535 14.5a2.979 2.979 0 0 0 5.7 0c1.06-4.049.6-8.371.624-12.537q.046-7.344.143-14.688c.131-9.248 1.431-19.215.228-28.385-.36-2.743-4.582-3.984-5.3-.718z"/><path d="m297.957 474.436c.01-6.536.107-13.071.212-19.607.09-5.641 1.48-12.5-.813-17.746-.657-1.5-3.007-1.31-3.723 0-2.6 4.762-1.733 11.446-1.932 16.766-.439 12.321-.559 24.654-.454 36.982l6.824.092c-.071-5.495-.122-10.991-.114-16.487z"/><path d="m131.125 385.44c-.1 5.787-8.707 5.786-8.805 0 .099-5.787 8.707-5.786 8.805 0z"/><path d="m160.627 434.461c-.108-13.12-.609-26.232-.8-39.345-.106-3.975.642-9.215-1.439-12.692a2.063 2.063 0 0 0 -3.6 0c-1.908 3.4-1.111 8-1.14 11.832.061 12.123.045 24.233.091 36.365a3.783 3.783 0 0 1 -3.77 3.852c-48.263.038-97.062.217-145.365.358v7.228c37.148-.767 126.447.159 150.024-.052 4.089-.007 6.485-3.683 5.999-7.546z"/><path d="m338.4 437.663a3.631 3.631 0 0 0 -3.624-3.646c-30.285-.072-60.588.345-90.808.376q-27.97.029-55.94.048c-4.749.04-4.89 7.533-.023 7.6 46.345.048 104.437.086 146.761.082a3.8 3.8 0 0 0 3.634-4.46z"/></g><path d="m462.384 95.079c12.022-21.987-46.215-59.651-58.684-63.771 18.752 17.482 26.42 45.447 19.869 70.153-4.626 19.393-20.58 37.787-41.631 37.5a7.083 7.083 0 0 1 -6.336-10.11 75.648 75.648 0 0 0 6.789-27.879 5.448 5.448 0 0 0 -9.82-3.5 103.746 103.746 0 0 1 -57.038 38.469 5.446 5.446 0 0 0 -.02 10.538 69.976 69.976 0 0 0 8.9 1.718 7.051 7.051 0 0 1 3.207 12.728c-13.365 9.487-34.355 12.641-47.537 5.912-10.462-5.34-18.992-15.837-30.729-16.28-10.179-.385-19.244 7.161-29.425 7.47-13.735.417-25.175-12.248-38.916-12.261-7.677-.006-15.07 4.009-22.708 3.235-8.694-.881-15.3-9.15-16.092-17.662a6.62 6.62 0 0 1 8.347-6.869 27.951 27.951 0 0 0 12.9.226 3.546 3.546 0 0 0 .979-6.545c-15.671-8.717-23.03-30.487-18.505-48.55 4.025-16.068 14.878-29.269 27.779-40-33.761 17.114-63.428 44.857-84.458 84.63 0 0-26.881 16.194-32.3 28.5-4.145 9.407-5.362 22 2.451 28.622 8.426 7.136 21.053 2.715 32.038 3.354 15.211.885 28.167 12.056 43.259 14.167 19.237 2.691 38.87-9.7 57.6-4.5 5.258 1.458 10.077 4.243 15.322 5.748 13.187 3.785 27.1-.86 40.347-4.428 9.9-3.184 15.984-1.592 24.771 3.43a69.544 69.544 0 0 0 55.636 2.247c7.247-2.87 14.2-7.024 21.955-7.732 11.3-1.032 22.364 5.456 33.626 4.054 6.347-.79 12.112-4.022 18.245-5.85 14.178-4.225 29.309-.776 44.054.277s31.586-1.383 40.274-13.448c15.034-24.24.849-62.263-24.149-73.593z" fill="#617a68"/></svg>