<svg id="flat" height="512" viewBox="0 0 500 500" width="512" xmlns="http://www.w3.org/2000/svg"><path d="m206.09 278.57c5.271 16.2 17.47 28.156 29.876 39.307 2.953 8.564-.892 11.536-11.855 8.652l-25.262-30.611s-3.269-17.348 7.241-17.348z" fill="#ff9f9c"/><path d="m235.966 317.877c-3.22 9.783-12.409 2.916-16.571-2a78.745 78.745 0 0 1 -13.371-19.239c-2.031-4.106-4.069-9.012-6.693-13.3a23.059 23.059 0 0 0 -2.9 11.948c13.037 30.445 47.975 43.053 52.85 79.869l4.355-33.857c-3.626-9.271-10.388-16.487-17.67-23.421z" fill="#e77c81"/><path d="m188.255 245.631c.761 16.728 2.509 33.812 8.175 49.653 1.428-6.443 3.837-13.224 9.676-16.719a100.078 100.078 0 0 1 -5.544-35.525z" fill="#4f424c"/><path d="m291.091 374.4c15.527-8.441 32.082-13.025 44.981-25.106 21.968-20.573 2.042-17.9 2.042-17.9-10.775 10.49-23.717 18.361-37.223 25.015z" fill="#ff9f9c"/><path d="m318.228 361.387a40.538 40.538 0 0 1 -17.338-4.98c-6.713 3.334-13.539 6.222-20.374 9.34 0 0-4.953 17.1 10.575 8.657 9.009-4.896 18.354-8.504 27.137-13.017z" fill="#e77c81"/><path d="m359.585 287.923c-.711 17.107-9.5 31.783-21.478 43.465 23.1 4.438-31.423 32.6-37.429 34.536-5.292 1.925-20.478 10.268-20.161-.175-9.015 4.133-17.835 8.691-25.036 15.158l-.247 33.327c23.316-56.634 112.635-36.717 118.39-132.852z" fill="#4f424c"/><path d="m259.554 414.233c.616-15.848 6.714-95.665 4.772-126.268l.666-47.258-15.033 23.286c-.176 40.967-2.94 81.945-6.572 122.854z" fill="#ff9f9c"/><path d="m249.853 245.255c.1 6.246.112 12.492.085 18.738a20.257 20.257 0 0 1 15.089 8.96l2.007-43.023c-8.134.759-13.706 6.139-17.181 15.325z" fill="#e77c81"/><path d="m263.807 337.763c-2.851 17.613-7.971 35.8-20.423 49.084-2.683 26.108-4.186 52.279-8.172 78.219 0 0 22.323 1.144 24.342-50.832.383-9.847 2.881-44.384 4.253-76.471z" fill="#e77c81"/><path d="m389.319 208.69c-17.113 2.344-34.182 7.247-49.07 16.084 0 0-21.017 12.9-20.744 37.432s61.865 18.532 61.865 18.532 46.33-11.174 40.062-42.515-32.113-29.533-32.113-29.533z" fill="#bfcc7f"/><path d="m412.761 210.731c-7.463-2.7-15.451-2.947-23.441-2.036 19.843 6.928 27.639 30.715 13.215 46.918-3.5 4-15.019 13.282-19.679 6.639-3.094-4.412-1.747-10.882-4.993-15.476-3.585-5.073-9.97-5.683-15.541-3.952-7.411 2.3-13.6 7.372-19.886 11.721-3.269 2.262-7.632 5.817-11.845 5.694-4.322-.126-5.706-4.3-5.852-7.95-.175-10.874 8.036-20.487 15.52-27.5a73.429 73.429 0 0 0 -22.723 20.63c-1.55 2.218-2.989 4.57-5.049 6.325-2.206 1.8-4.811 3.061-7.054 4.822a39.142 39.142 0 0 0 -9.773 40.74l51.744 12.43 58.1-11.563s38.736-15.609 34.111-44.806-15.265-36.711-26.854-42.636z" fill="#919951"/><path d="m266.377 290.124c1.155-29.5 2.77-59.289 11.111-87.6l-29.1 4.8q1.193 18.959 1.469 37.927c8.313-6.222 14.438-9.719 12.922 4.436q-1.614 43.664-3.088 87.331c-.655 19.185-1.179 38.388-2.166 57.559-1.374 24.107.336 55.8-22.318 70.483-1.616 8.063-4.263 15.758-9.229 21.9a2.1 2.1 0 0 0 1.666 3.421l38.9-.369a2.108 2.108 0 0 0 2.023-2.613c-5.64-23.546-5.818-48.048-5.5-72.316q.821-62.499 3.31-124.959z" fill="#4f424c"/><path d="m135.242 53.846c52.816-34.019 134.806-60.9 194.305-32.04a119.077 119.077 0 0 1 17.087-2.153s38.9 1.478 47.485 18.215c0 0-14.815 95.443-141.3 146.852s-157.379-38.048-157.379-38.048c-9.392-44.638 6.821-64.072 39.802-92.826z" fill="#bfcc7f"/><path d="m416.24 46.194c-15.388-21.474-43.391-27.779-69.606-26.538 20.983 1.513 38.865 17.042 27.76 38.627a95.4 95.4 0 0 1 -29.641 37.317 2.827 2.827 0 0 1 -4.4-3.044 49.667 49.667 0 0 0 -.12-24.47 3.583 3.583 0 0 0 -6.795-.439c-10.312 25.632-27.293 38.067-50.583 46.533a3.584 3.584 0 0 0 .529 6.891 72.2 72.2 0 0 0 20.511 1.06 2.833 2.833 0 0 1 2.192 4.957c-15.64 13.091-43.725 16.488-61.341 29.145-8.039 5.2-16.488 9.186-25.761 7.855-6.177-.886-27.492-26.924 4.931-38.22 8.567-2.985 13.408-6.384 18.426-12.4 6.159-7.379 3.731-14.355-3.935-9.63-15.553 9.586-38.3-.6-54.8 11.142-29.065 19.465-59.709 22.917-74.5 12.709-11.646-9.908-6.731-27.333.245-38.74a171.122 171.122 0 0 1 25.909-35.086c-36.648 25.177-67.853 63.337-75.332 107.848 0 0 1.366 19.772 25.738 27.5-57.062 119.768 98.654 54.611 120.438 38.289l108.324-44s47.308-28.513 82.465-66.228c25.473-27.32 19.346-71.078 19.346-71.078z" fill="#919951"/><path d="m421.087 100.046c10.052-16.438 6.521-38.041-4.855-53.847-1.77 35.761-25 32.417-27.175 55.539-.54 6.443-4.334 10.889-8.075 13.752a4.313 4.313 0 0 1 -6.941-3.674 66.1 66.1 0 0 0 -.173-10.816 3.7 3.7 0 0 0 -7.046-1.086c-8.1 17.558-24.789 28.1-45.621 35.277a3.575 3.575 0 0 0 1.161 6.958c10.386-.009 21.122-.4 28.964-1.952a5.205 5.205 0 0 1 6.176 6.172c-4.032 17.469-24.368 22.845-37.753 23.8s-27.049-.8-40.105 2.293c-21.03 4.974-37.341 21.648-57.524 29.368-10.824 4.14-22.515 5.6-33.387 9.615-23.726 8.752-42.516 29.2-67.294 34.258-7.909 1.616-16.747 1.366-23.268-3.392-9.145-6.674-10.6-20.757-5.08-30.641s16.4-15.828 27.486-18.128c4.1-.851 8.4-1.316 12.017-3.414 5.571-3.228 9.057-10.042 15.366-11.329 10.641-.72 13.847 3.276 21.044-7.666l10.018-14.392a4.236 4.236 0 0 0 -5.848-5.931c-7.651 5.176-15.661 10.905-19.36 11.273a12.628 12.628 0 0 1 -8.936-2.867 9.625 9.625 0 0 0 -13.788 1.4 60.023 60.023 0 0 1 -4.794 5.694c-6.129 6.522-18.927 8.757-21.628-.991a7.488 7.488 0 0 0 -10.982-4.419 45.437 45.437 0 0 1 -10.88 4.757c-7.754 2.141-16.849 1.19-22.879-3.892-1.093 11.4 3.756 22.956 12.186 30.651-9.712 12.536-17.217 26.2-20.861 41.634-8.033 32.407 13 60.743 47.06 58.35 27.641-1.164 46.608-21.623 70.217-32.542 15.327-6.424 32.738-6.939 47.7-14.174 14.473-7 25.545-19.767 40.04-26.72 27.771-13.322 63.338-3.276 89.492-19.545 12.825-7.977 21.326-21.126 30.655-33a42.654 42.654 0 0 1 7.472-7.878c3.625-2.754 7.95-4.389 12.023-6.42 19.002-9.483 33.324-32.468 25.176-52.075z" fill="#4f424c"/><path d="m412.762 210.731c26.152 23 25.8 70.967-13.872 77.691-7.369.671-14.62-1.548-22.017-.628-7.176.893-13.133 3.987-19.247 7.649-6.19 3.708-18.852 8.667-19.772-1.47-.984-16.138 23.064-5.133 28.781-26.82a2.607 2.607 0 0 0 -4.223-2.694c-4.154 3.614-9.857 7.6-13.778 6.413-5.405-1.633-13.144-1.6-20.17 6.776-18.773 22.378-27.773 3.595-27.883-2.452-.179-9.824 4.856-18.629 4.856-18.629a57.223 57.223 0 0 0 -22.737 47.584c.053 11.787 7.344 19.535 19.429 16.964 8.841-2.157 16.236-8.125 24.11-12.48a32.446 32.446 0 0 0 30.607 7.272c7.228-2.109 13.644-6.758 21.077-7.954 4.546-.732 9.184-.119 13.787.018 17.721.527 35.971-6.721 46.917-20.668s28.98-56.63-25.865-76.572z" fill="#4f424c"/><g fill="#919951"><path d="m274.2 78.892c-.857 8.129-5.514 12.689-9.244 19.469-1.516 2.756 1.935 5.2 4.215 3.252 6.305-5.4 11.708-14.877 9.448-23.319-.7-2.6-4.166-1.807-4.419.6z"/><path d="m289.635 71.732a58.946 58.946 0 0 1 -1.456 6.592c-.609 2.063-1.988 4.064-.648 6.1a2.394 2.394 0 0 0 2.064 1.184c4.671-.282 5.947-9.3 6.12-13.057.058-3.4-5.465-4.329-6.08-.823z"/><path d="m303.928 62.032a2.969 2.969 0 0 0 1.653 5.064 1.484 1.484 0 0 0 .788 0 2.872 2.872 0 0 0 2.316-1.77 2.96 2.96 0 0 0 -2.316-4.094 2.751 2.751 0 0 0 -2.441.8z"/><path d="m384.531 235.733c-.4 1.809.052 3.414.386 5.195a13.777 13.777 0 0 0 1.427 4.874 2.64 2.64 0 0 0 4.755-.621c.9-3.225-.081-8.108-2.454-10.534-1.31-1.152-3.685-.831-4.114 1.086z"/><path d="m395.525 234.285c.186.56.379 1.121.511 1.7q.073.423 0 .027c-.334 2.145 2.078 4.127 3.874 2.438 1.478-1.393.921-4.451-.02-6-1.31-2.352-5.17-.744-4.369 1.842z"/><path d="m123.387 99.105c1.083-6.383 5.978-11.1 9.233-16.33.927-1.837-.666-4.813-2.991-3.891-3.8 1.507-6.5 5.231-8.4 8.743-1.541 3.01-5.726 11.241-1.113 13.1a2.464 2.464 0 0 0 3.267-1.617z"/><path d="m137.6 96.336c2.075-1.487 3.209-3.933 4.645-6 1.42-2.041 3.341-4.075 4.37-6.33.729-1.6-.517-4.111-2.567-3.339-2.7 1.017-4.836 3.273-6.569 5.521-1.666 2.161-3.748 5.193-3.547 8.042.118 1.668 2.045 3.268 3.668 2.105z"/><path d="m158.106 87.181c2.355-3.675-2.584-6.11-4.776-2.792-1.8 3.129 2.93 5.908 4.776 2.792z"/></g></svg>