<svg id="Flat" height="512" viewBox="0 0 340 340" width="512" xmlns="http://www.w3.org/2000/svg"><path d="m100.563 160.346s-27.58 18.256-34.711 46.78 29.115 45.355 47.076 42.217l9.821-65.135s-8.012-19.583-22.186-23.862z" fill="#697765"/><path d="m239.437 160.346s27.58 18.256 34.711 46.78-29.115 45.355-47.076 42.217l-9.821-65.135s8.012-19.583 22.186-23.862z" fill="#697765"/><path d="m124.327 299.831v13.978a19.536 19.536 0 0 0 -9.683 3.939c-5.1 4.017-2.142 12.252 4.35 12.252h28.9a10.092 10.092 0 0 0 10.092-10.092v-23.669z" fill="#474756"/><path d="m112.928 270.166s-10.467 32.518 19.863 36.226 33.109-23.675 33.109-23.675-21.585-16.545-52.972-12.551z" fill="#89b9f2"/><path d="m215.673 299.831v13.978a19.536 19.536 0 0 1 9.683 3.939c5.1 4.017 2.142 12.252-4.35 12.252h-28.9a10.092 10.092 0 0 1 -10.092-10.092v-23.669z" fill="#474756"/><path d="m227.072 270.166s10.467 32.518-19.863 36.226-33.109-23.675-33.109-23.675 21.585-16.545 52.972-12.551z" fill="#89b9f2"/><path d="m102.938 198.79c-4.022 8.917-4.265 20.861 9.99 33.6 0 0 20.629 10.13 57.072 10.13s57.072-10.13 57.072-10.13c14.255-12.742 14.012-24.686 9.989-33.6z" fill="#859b80"/><path d="m237.061 198.79c-4.261-9.445-12.761-15.49-12.761-15.49h-108.6s-8.5 6.048-12.759 15.493c5.229 6.357 13.872 11.166 28.146 10.457 0 0 6.6 19.535 38.915 19.535s38.915-19.535 38.915-19.535c14.272.706 22.915-4.103 28.144-10.46z" fill="#697765"/><path d="m240.418 256.694c-9.957-6.677-13.346-13.132-13.346-13.132h-114.144s-3.389 6.455-13.346 13.132a8.9 8.9 0 0 0 .926 15.4c5.348 2.595 13.247 4.324 24.757 2.977a28.214 28.214 0 0 1 19.843 5.111c5.047 3.661 13.036 7.282 24.892 7.282s19.845-3.621 24.892-7.282a28.214 28.214 0 0 1 19.843-5.111c11.51 1.347 19.409-.382 24.757-2.977a8.9 8.9 0 0 0 .926-15.4z" fill="#859b80"/><path d="m250.844 135.289a21.772 21.772 0 0 0 -12.629-13.146c1.376-17.426-13.987-22.012-13.987-22.012a34.715 34.715 0 0 1 -14.992-10.588l-39.236-2.482-39.236 2.482a34.715 34.715 0 0 1 -14.992 10.588s-15.363 4.586-13.987 22.012a21.772 21.772 0 0 0 -12.629 13.146 25.674 25.674 0 0 0 14.371 32.279 34.26 34.26 0 0 0 3.99 1.352l3.32 16.886c3.642 7.547 11.183 14.611 26.718 13.839 0 0 5.5 16.287 32.445 16.287s32.445-16.287 32.445-16.287c15.593.774 23.132-6.345 26.759-13.924l3.279-16.8a34.26 34.26 0 0 0 3.99-1.352 25.674 25.674 0 0 0 14.371-32.28z" fill="#e1ecfe"/><path d="m217.277 96.7a34.855 34.855 0 0 1 -8.041-7.161l-39.236-2.478-39.236 2.482a34.855 34.855 0 0 1 -8.041 7.161z" fill="#aac3d6"/><path d="m222.505 127.714c-3.964-8.378-11.757-15.325-13.818-17.071-.445-.377-.883-.753-1.309-1.151-9.663-9.022-16.4-23.577-16.4-23.577h-41.959s-6.734 14.555-16.4 23.577c-.426.4-.864.774-1.309 1.151-2.061 1.746-9.854 8.693-13.818 17.071a17.007 17.007 0 0 0 -.877 13.063c1.777 4.884 6.348 10.1 17.956 8.423 0 0 13.528-.688 22.012-15.362h26.828c8.484 14.674 22.012 15.362 22.012 15.362 11.608 1.677 16.179-3.539 17.956-8.423a17.007 17.007 0 0 0 -.874-13.063z" fill="#f7c6c9"/><path d="m197.049 96.7a98.8 98.8 0 0 1 -6.068-10.789h-41.962a98.8 98.8 0 0 1 -6.068 10.789z" fill="#d67c86"/><path d="m183.228 19.4c-1.665-2.037-3.235-3.884-4.673-5.525a11.373 11.373 0 0 0 -17.11 0c-10.014 11.434-26.469 32.8-36.238 59.219 12.959 8.108 27.386 13.459 45.736 11.446 29.608-9.874 29.429-33.57 12.285-65.14z" fill="#ef73a4"/><path d="m170 236.289c-22.416 0-57.072-3.9-57.072-3.9v11.169c14.806 10.915 57.072 11.175 57.072 11.175s42.266-.26 57.072-11.171v-11.169s-34.656 3.896-57.072 3.896z" fill="#474756"/><path d="m179.065 118.475h-18.13a11.281 11.281 0 0 0 -11.409 11 13.336 13.336 0 0 0 .4 3.23 11.115 11.115 0 0 0 8.264 8.051 53.057 53.057 0 0 0 23.628 0 11.115 11.115 0 0 0 8.264-8.051 13.336 13.336 0 0 0 .4-3.23 11.281 11.281 0 0 0 -11.417-11z" fill="#ef73a4"/><path d="m135.516 168.377a46.006 46.006 0 0 1 -28 .543 37.484 37.484 0 0 0 3.33 16.882c14.524-.608 23.009-7.662 27.549-13.408a2.579 2.579 0 0 0 -2.879-4.017z" fill="#aac3d6"/><path d="m201.329 172.323c4.335 5.57 12.682 12.4 27.865 13.393a37.35 37.35 0 0 0 3.322-15.7l-.033-1.094a45.985 45.985 0 0 1 -28.21-.619 2.586 2.586 0 0 0 -2.944 4.02z" fill="#aac3d6"/><circle cx="157.26" cy="104.009" fill="#d67c86" r="4.023"/><circle cx="182.74" cy="104.009" fill="#d67c86" r="4.023"/><path d="m216.865 79.1c-8.1-25.276-22.844-46.486-33.638-59.695a139.774 139.774 0 0 1 6.469 31.54 20.591 20.591 0 0 1 -20.59 22.155h-43.894c-.73 1.974-1.427 3.973-2.076 6a8.007 8.007 0 0 0 7.628 10.443h78.472a8.008 8.008 0 0 0 7.629-10.443z" fill="#cc5690"/></svg>