<svg id="Flat" height="512" viewBox="0 0 340 340" width="512" xmlns="http://www.w3.org/2000/svg"><circle cx="279.947" cy="65.542" fill="#ff7a4e" r="29.517"/><path d="m328 326.51h-18.07l-183.256-50.753c-83.694-16.385-76.674-74.178-36.305-99.625h237.631z" fill="#95bcf4"/><path d="m225.758 278a111.4 111.4 0 0 0 -41.327-28.158c-8.434-3.282-16.212-5.132-27.258-6.524a239.026 239.026 0 0 0 -28.539-1.807c-12.441-.07-36.067-1.228-50.122-8.423a15.366 15.366 0 0 1 -4.9-23.576c9.611-11.475 35.471-27.234 104.826-33.377h-36.875c-25.7.463-97.216 7.788-119.915 41.951-7.835 11.792-3.575 27.751 8.284 35.485 12.19 7.95 34.082 16.753 72.728 19.727a101.078 101.078 0 0 1 43.415 13.257 82.874 82.874 0 0 1 14.425 10.568 53.715 53.715 0 0 1 9.66 12.218c3.069 5.2 9.129 14.042 16.424 17.169h137.49c-13.308-.41-58.201-5.152-98.316-48.51z" fill="#fff"/><path d="m205.218 181.57c-15.631 9.713-11.855 32.573 6.138 37.527a101.215 101.215 0 0 0 21.044 3.423c22.9 1.318 44.64 10.728 60.239 26.916q.458.475.911.955a66.065 66.065 0 0 0 21.75 15.379 52.5 52.5 0 0 0 12.7 3.773v-93.411h-110.685a55.2 55.2 0 0 0 -12.097 5.438z" fill="#6997e0"/><path d="m8 176.132 11.2-31.382a24.179 24.179 0 0 1 10.937-12.958l6.218-3.491a24.114 24.114 0 0 0 8.233-7.6c5.124-7.642 15.808-22.786 25.6-31.631a7.7 7.7 0 0 1 11.15.917l3.282 4.083a75.886 75.886 0 0 1 9.828 15.9l10.644 23.187a19.753 19.753 0 0 0 14.652 11.236l4.706.8a19.739 19.739 0 0 1 8.758 3.831c9.18 7.078 32.658 24.451 45.228 27.113z" fill="#8e8c9b"/><path d="m170.164 309.341a53.715 53.715 0 0 0 -9.66-12.218 82.874 82.874 0 0 0 -14.429-10.571 101.078 101.078 0 0 0 -43.415-13.252c-38.646-2.974-60.538-11.777-72.728-19.727-11.859-7.734-16.119-23.693-8.284-35.485 22.7-34.163 94.216-41.488 119.915-41.951h-133.563v150.373h178.588c-7.295-3.127-13.355-11.965-16.424-17.169z" fill="#ffca8a"/><path d="m88.2 274.737.552-7.232c.288-3.76 4-5.981 7.059-4.223l10.08 5.793a4.478 4.478 0 0 0 2.982.546l9.517-1.6c3.617-.607 6.513 3.229 5.275 6.988l-2.1 6.391a5.691 5.691 0 0 0 .423 4.525 64.488 64.488 0 0 1 3.31 6.935c1.505 3.69-1.269 7.766-4.948 7.331l-7.605-.9a4.566 4.566 0 0 0 -3.87 1.446c-1.591 1.681-4.2 4.37-7.067 7.022-2.692 2.494-6.853 1.06-7.77-2.662l-1.232-5a5.045 5.045 0 0 0 -3.44-3.727 65.553 65.553 0 0 1 -9.274-3.37c-3.5-1.6-3.965-6.823-.843-9.178l6.881-5.19a5.383 5.383 0 0 0 2.07-3.895z" fill="#ffba57"/><path d="m112.735 299.3 7.605.9a4.85 4.85 0 0 0 5.127-3.645c-2.352 1.828-5.554.824-5.554.824l-6.277-1.491a8.327 8.327 0 0 0 -7.461 1.882l-4.657 4.145a2.573 2.573 0 0 1 -4.2-1.262l-1.253-4.727a5.707 5.707 0 0 0 -3.156-3.734l-6.267-2.849a2.629 2.629 0 0 1 -.39-4.568l1.938-1.317a8.936 8.936 0 0 0 3.849-8.459l-.735-6.1c-.712-3.135.239-5.025 1.257-6.1a5.115 5.115 0 0 0 -3.817 4.71l-.552 7.232a5.383 5.383 0 0 1 -2.065 3.9l-6.881 5.19c-3.122 2.355-2.656 7.574.843 9.178a65.553 65.553 0 0 0 9.264 3.377 5.045 5.045 0 0 1 3.44 3.727l1.232 5c.917 3.722 5.078 5.156 7.77 2.662 2.863-2.652 5.476-5.341 7.067-7.022a4.566 4.566 0 0 1 3.873-1.453z" fill="#ea9e39"/><path d="m71.278 130.681.358.768a12.6 12.6 0 0 1 1.182 5.327v18.924a.683.683 0 0 1 -1.338.19l-5.556-19.068a22.845 22.845 0 0 1 -.687-9.588l1.265-8.947a.682.682 0 0 1 1.351 0l.226 1.6a38.022 38.022 0 0 0 3.199 10.794z" fill="#b2b0c1"/><path d="m133.209 149.019a19.739 19.739 0 0 0 -8.758-3.831l-4.706-.8a19.753 19.753 0 0 1 -14.652-11.236l-10.649-23.2a75.819 75.819 0 0 0 -9.814-15.87l-3.291-4.094a7.71 7.71 0 0 0 -6.429-2.869c9.133 17.381 20.33 55.392 21.09 68.043.112 1.867 2.92 2.034 3.617.3l1.691-4.21a3.572 3.572 0 0 1 5.485-1.521 29.931 29.931 0 0 0 9.146 4.8 47.453 47.453 0 0 1 14.245 7.557l2.711 2.056a1.212 1.212 0 0 1 -1.109 2.118l-4.728-1.545a1.211 1.211 0 0 0 -1.362 1.856l6.829 9.562h45.912c-12.57-2.665-36.048-20.035-45.228-27.116z" fill="#b2b0c1"/><g fill="#ff7a4e"><path d="m279.95 21.49a3.995 3.995 0 1 1 2.83-1.17 4.029 4.029 0 0 1 -2.83 1.17z"/><path d="m279.95 117.6a4.012 4.012 0 1 1 2.83-1.18 4 4 0 0 1 -2.83 1.18z"/><path d="m328 69.54a3.445 3.445 0 0 1 -.78-.08 3.809 3.809 0 0 1 -.75-.22 4.579 4.579 0 0 1 -.69-.37 4.161 4.161 0 0 1 -.61-.5 4.279 4.279 0 0 1 -.5-.61 4.1 4.1 0 0 1 -.36-.69 3.832 3.832 0 0 1 -.23-.75 4.047 4.047 0 0 1 -.08-.78 4.129 4.129 0 0 1 .08-.78 4.053 4.053 0 0 1 .23-.75 4.524 4.524 0 0 1 .36-.69 4.919 4.919 0 0 1 .5-.61 4.093 4.093 0 0 1 .61-.49 4.033 4.033 0 0 1 1.44-.6 4.094 4.094 0 0 1 1.56 0 4.033 4.033 0 0 1 1.44.6 4.093 4.093 0 0 1 .61.49 4.919 4.919 0 0 1 .5.61 4.524 4.524 0 0 1 .36.69 4.053 4.053 0 0 1 .23.75 4.129 4.129 0 0 1 .08.78 4.047 4.047 0 0 1 -.08.78 3.832 3.832 0 0 1 -.23.75 4.1 4.1 0 0 1 -.36.69 4.279 4.279 0 0 1 -.5.61 4.161 4.161 0 0 1 -.61.5 4.579 4.579 0 0 1 -.69.37 3.809 3.809 0 0 1 -.75.22 3.445 3.445 0 0 1 -.78.08z"/><path d="m231.89 69.54a3.981 3.981 0 0 1 -2.82-1.17 3.251 3.251 0 0 1 -.5-.61 3.519 3.519 0 0 1 -.37-.69 3.832 3.832 0 0 1 -.23-.75 4.047 4.047 0 0 1 -.08-.78 4.129 4.129 0 0 1 .08-.78 4.053 4.053 0 0 1 .23-.75 3.828 3.828 0 0 1 .37-.69 3.605 3.605 0 0 1 .5-.61 4 4 0 0 1 5.65 0 4.161 4.161 0 0 1 .5.61 4.579 4.579 0 0 1 .37.69 4.019 4.019 0 0 1 .22.75 3.445 3.445 0 0 1 .08.78 3.387 3.387 0 0 1 -.08.78 3.809 3.809 0 0 1 -.22.75 4.143 4.143 0 0 1 -.37.69 3.694 3.694 0 0 1 -.5.61 3.987 3.987 0 0 1 -2.83 1.17z"/><path d="m313.92 35.56a4.114 4.114 0 0 1 -.78-.07 4.87 4.87 0 0 1 -.74-.23 3.782 3.782 0 0 1 -.69-.37 4 4 0 0 1 -1.11-1.11 4.143 4.143 0 0 1 -.37-.69 4.87 4.87 0 0 1 -.23-.74 4.219 4.219 0 0 1 -.07-.79 4.114 4.114 0 0 1 .07-.78 5.371 5.371 0 0 1 .23-.75 4.579 4.579 0 0 1 .37-.69 4.161 4.161 0 0 1 .5-.61 4.065 4.065 0 0 1 3.61-1.09 3.956 3.956 0 0 1 .74.23 3.6 3.6 0 0 1 .7.37 4.013 4.013 0 0 1 .6.49 3.605 3.605 0 0 1 .5.61 3.828 3.828 0 0 1 .37.69 5.371 5.371 0 0 1 .23.75 4.114 4.114 0 0 1 .07.78 3.987 3.987 0 0 1 -1.17 2.83 4.081 4.081 0 0 1 -.6.5 4.241 4.241 0 0 1 -.7.37 4.87 4.87 0 0 1 -.74.23 4.146 4.146 0 0 1 -.79.07z"/><path d="m245.97 103.52a4.047 4.047 0 0 1 -2.83-1.17 3.694 3.694 0 0 1 -.5-.61 4.579 4.579 0 0 1 -.37-.69 3.809 3.809 0 0 1 -.22-.75 3.387 3.387 0 0 1 -.08-.78 3.445 3.445 0 0 1 .08-.78 3.809 3.809 0 0 1 .22-.75 4.579 4.579 0 0 1 .37-.69 4.161 4.161 0 0 1 .5-.61 4.279 4.279 0 0 1 .61-.5 4.1 4.1 0 0 1 .69-.36 3.832 3.832 0 0 1 .75-.23 4.037 4.037 0 0 1 3.61 1.09 4.093 4.093 0 0 1 .49.61 4.033 4.033 0 0 1 .6 1.44 4.129 4.129 0 0 1 .08.78 4.047 4.047 0 0 1 -.08.78 4.033 4.033 0 0 1 -.6 1.44 3.639 3.639 0 0 1 -.49.61 4.065 4.065 0 0 1 -2.83 1.17z"/><path d="m313.92 103.52a4.023 4.023 0 0 1 -2.82-1.17 3.694 3.694 0 0 1 -.5-.61 4.579 4.579 0 0 1 -.37-.69 4.659 4.659 0 0 1 -.23-.75 4.381 4.381 0 0 1 0-1.56 4.659 4.659 0 0 1 .23-.75 4.579 4.579 0 0 1 .37-.69 4.161 4.161 0 0 1 .5-.61 3.639 3.639 0 0 1 .61-.49 3.256 3.256 0 0 1 .69-.37 3.956 3.956 0 0 1 .74-.23 4.146 4.146 0 0 1 1.57 0 3.956 3.956 0 0 1 .74.23 3.6 3.6 0 0 1 .7.37 3.968 3.968 0 0 1 1.77 3.32 4.114 4.114 0 0 1 -.07.78 4.659 4.659 0 0 1 -.23.75 3.828 3.828 0 0 1 -.37.69 3.605 3.605 0 0 1 -.5.61 4.82 4.82 0 0 1 -.6.5 4.2 4.2 0 0 1 -.7.36 3.956 3.956 0 0 1 -.74.23 4.15 4.15 0 0 1 -.79.08z"/><path d="m245.97 35.56a3.995 3.995 0 1 1 2.83-1.17 4 4 0 0 1 -2.83 1.17z"/></g><path d="m26.31 288.39a4.012 4.012 0 0 1 -4-4 4.007 4.007 0 0 1 4.79-3.92 3.956 3.956 0 0 1 .74.23 3.6 3.6 0 0 1 .7.37 3.985 3.985 0 0 1 .6 6.15 4.081 4.081 0 0 1 -.6.5 4.241 4.241 0 0 1 -.7.37 3.922 3.922 0 0 1 -.74.22 3.474 3.474 0 0 1 -.79.08z" fill="#ec924e"/><path d="m46.31 292.39a4.012 4.012 0 1 1 2.83-1.17 3.981 3.981 0 0 1 -2.83 1.17z" fill="#ec924e"/><path d="m34.54 308.69a4.047 4.047 0 0 1 -2.83-1.17 4.161 4.161 0 0 1 -.5-.61 4.579 4.579 0 0 1 -.37-.69 4.635 4.635 0 0 1 -.22-.75 3.843 3.843 0 0 1 0-1.56 4.635 4.635 0 0 1 .22-.75 4.579 4.579 0 0 1 .37-.69 3.694 3.694 0 0 1 .5-.61 4.037 4.037 0 0 1 3.61-1.09 3.832 3.832 0 0 1 .75.23 4.524 4.524 0 0 1 .69.36 4.919 4.919 0 0 1 .61.5 4.093 4.093 0 0 1 .49.61 4.033 4.033 0 0 1 .6 1.44 3.842 3.842 0 0 1 0 1.56 4.033 4.033 0 0 1 -.6 1.44 3.607 3.607 0 0 1 -1.1 1.1 4.033 4.033 0 0 1 -1.44.6 4.129 4.129 0 0 1 -.78.08z" fill="#ec924e"/><path d="m141.96 320.59a4.129 4.129 0 0 1 -.78-.08 3.956 3.956 0 0 1 -.74-.23 3.6 3.6 0 0 1 -.7-.37 3.54 3.54 0 0 1 -.6-.5 3.62 3.62 0 0 1 -.5-.6 4.579 4.579 0 0 1 -.37-.69 4.053 4.053 0 0 1 -.23-.75 4.129 4.129 0 0 1 -.08-.78 4.047 4.047 0 0 1 .08-.78 3.832 3.832 0 0 1 .23-.75 3.782 3.782 0 0 1 .37-.69 3.694 3.694 0 0 1 .5-.61 4.081 4.081 0 0 1 .6-.5 4.241 4.241 0 0 1 .7-.37 3.922 3.922 0 0 1 .74-.22 3.776 3.776 0 0 1 1.57 0 3.922 3.922 0 0 1 .74.22 4.241 4.241 0 0 1 .7.37 4.081 4.081 0 0 1 .6.5 3.251 3.251 0 0 1 .5.61 3.782 3.782 0 0 1 .37.69 4.659 4.659 0 0 1 .23.75 4.042 4.042 0 0 1 .07.78 4.114 4.114 0 0 1 -.07.78 4.99 4.99 0 0 1 -.23.75 4.579 4.579 0 0 1 -.37.69 3.188 3.188 0 0 1 -.5.6 3.54 3.54 0 0 1 -.6.5 3.6 3.6 0 0 1 -.7.37 3.956 3.956 0 0 1 -.74.23 4.15 4.15 0 0 1 -.79.08z" fill="#ec924e"/><path d="m156.96 320.59a4.023 4.023 0 0 1 -2.82-1.17 4.161 4.161 0 0 1 -.5-.61 4.579 4.579 0 0 1 -.37-.69 4.99 4.99 0 0 1 -.23-.75 4.114 4.114 0 0 1 -.07-.78 3.987 3.987 0 0 1 1.17-2.83 3.62 3.62 0 0 1 .6-.5 4.579 4.579 0 0 1 .69-.37 5.371 5.371 0 0 1 .75-.23 4.146 4.146 0 0 1 1.57 0 4.87 4.87 0 0 1 .74.23 3.782 3.782 0 0 1 .69.37 4 4 0 0 1 1.11 1.11 4.143 4.143 0 0 1 .37.69 3.832 3.832 0 0 1 .23.75 4.042 4.042 0 0 1 .07.78 4.114 4.114 0 0 1 -.07.78 4.053 4.053 0 0 1 -.23.75 4.579 4.579 0 0 1 -.37.69 4.161 4.161 0 0 1 -.5.61 4.029 4.029 0 0 1 -2.83 1.17z" fill="#ec924e"/><path d="m259.324 197.711h-15.36a3.662 3.662 0 1 1 0-7.324h15.36a3.662 3.662 0 0 1 0 7.324z" fill="#fff"/><path d="m319.936 197.711h-19.022a3.662 3.662 0 1 1 0-7.324h19.022a3.662 3.662 0 1 1 0 7.324z" fill="#fff"/><path d="m295.835 218.767h-4.374a3.663 3.663 0 0 1 0-7.325h4.374a3.663 3.663 0 0 1 0 7.325z" fill="#fff"/><path d="m229.1 253.32h13.889a4 4 0 0 0 0-8h-13.889a4 4 0 0 0 0 8z" fill="#fff"/><path d="m143.978 207.78h15.777a4 4 0 0 0 0-8h-15.777a4 4 0 0 0 0 8z" fill="#fff"/><path d="m165.611 226.261h8.778a4 4 0 0 0 0-8h-8.778a4 4 0 0 0 0 8z" fill="#fff"/></svg>