<svg id="Flat" height="512" viewBox="0 0 340 340" width="512" xmlns="http://www.w3.org/2000/svg"><path d="m65.289 86.087s6.193-41.832 37.741-29.042l-6.348 25.582z" fill="#783945"/><path d="m175.92 217.114s-4.458 18.787 3.549 51.527a8.967 8.967 0 0 1 -2.985 9.031l-5.683 4.71a7.314 7.314 0 0 1 -11.031-2.046c-6-10.545-15.244-33.031-13.55-69.586z" fill="#56404a"/><path d="m200.2 219.4s25.247 24.6 11.991 57.93a7.436 7.436 0 0 0 6.9 10.19h7.929a8.377 8.377 0 0 0 6.994-3.755c5.648-8.538 18.546-30.1 18.269-48.616v-17.681z" fill="#56404a"/><path d="m88.307 74.306s-16.664-2.536-30.429 5.794c0 0-27.495 14.148-43.3 27.319a15.746 15.746 0 0 0 -5.241 15.681 64.879 64.879 0 0 0 12.8 26.41 20.775 20.775 0 0 0 19.837 7.137c8.95-1.676 21.514-3.665 27.861-3.008 0 0 11.855 26.758 43.425 46.867a12.964 12.964 0 0 1 5.108 6.194c3.956 10.058 31.058 37.736 41.3 11.418 0 0 20.122 7.99 54.215 8.457 0 0 7.444-.483 11.381-.622 0 0-1.066 8.473 8.882 19.116 12.619 10.229 36.24 17.654 44.806 6.651a24.992 24.992 0 0 1 -1.2-8 39.355 39.355 0 0 1 14.5-29.949c18.113-15.214 20.648-29.7 20.648-29.7h2.611a9.132 9.132 0 0 0 9.145-9.022c.21-21.458-5.671-74.965-67.389-91.37a121.731 121.731 0 0 0 -49.631-2.416 267.584 267.584 0 0 0 -32.424 6.811 51.783 51.783 0 0 1 -34.157-1.554 39.549 39.549 0 0 1 -13.036-8.52 6.959 6.959 0 0 1 -2.039-4.9v-5.087a15.527 15.527 0 0 0 -13.106-15.337 15.417 15.417 0 0 0 -14.049 5.045 68.346 68.346 0 0 0 -10.518 16.585z" fill="#d4756d"/><path d="m23.829 111.776a4 4 0 0 0 -3.784 4.206c.176 3.35-1.252 5.342-2.123 5.991a20.466 20.466 0 0 0 -6.659 7.816 64.733 64.733 0 0 0 6.951 14.382 25.95 25.95 0 0 0 -.282-5.3c-.49-3.237-.251-6.746 4.765-10.479 3.569-2.656 5.614-7.572 5.336-12.83a4.012 4.012 0 0 0 -4.204-3.786z" fill="#56404a"/><path d="m63.857 105.293a4 4 0 0 1 -1.525-7.7l5.668-2.333a4 4 0 1 1 3.047 7.4l-5.666 2.334a3.994 3.994 0 0 1 -1.524.299z" fill="#56404a"/><path d="m213.884 226.572c3.629.05 7.413.016 11.351-.123 0 0-.337-11.411 8.376-25.384a2.049 2.049 0 0 0 -2.906-2.8c-6.451 4.805-14.291 13.506-16.821 28.307z" fill="#56404a"/><g fill="#9b4e55"><path d="m88.366 159.37a46.252 46.252 0 0 0 -18.534-5.732 71.29 71.29 0 0 0 4.32 7.8 67.853 67.853 0 0 1 13.227.66 1.482 1.482 0 0 0 .987-2.728z"/><path d="m39.179 142.666 7.44 26.508a2.591 2.591 0 0 1 -4.9 1.652l-10.119-25.606a4.005 4.005 0 0 1 7.45-2.943 4.049 4.049 0 0 1 .129.389z"/><path d="m48.88 134.569 5.506 6.36a2.5 2.5 0 0 1 -3.056 3.839l-7.432-3.94a4.069 4.069 0 1 1 3.812-7.191 4.151 4.151 0 0 1 1.17.932z"/><path d="m149.521 119.272a3.484 3.484 0 0 1 -1.137-.191 98.557 98.557 0 0 1 -13.879-6.054 3.5 3.5 0 0 1 3.366-6.138 93.086 93.086 0 0 0 12.788 5.572 3.5 3.5 0 0 1 -1.138 6.811z"/><path d="m142.853 151.371a3.491 3.491 0 0 1 -1.65-.415c-9.294-4.979-19.47-13.295-19.9-13.646a3.5 3.5 0 0 1 4.439-5.413c.1.082 10.083 8.238 18.764 12.888a3.5 3.5 0 0 1 -1.655 6.586z"/><path d="m111.067 171.406a3.486 3.486 0 0 1 -2.249-.82c-7.006-5.885-15.373-17.181-15.726-17.659a3.5 3.5 0 0 1 5.632-4.157c.082.11 8.23 11.108 14.6 16.456a3.5 3.5 0 0 1 -2.253 6.18z"/><path d="m130.561 167.616a3.488 3.488 0 0 1 -1.9-.562c-4.858-3.143-11.4-9.664-11.674-9.94a3.5 3.5 0 0 1 4.949-4.95c.063.063 6.294 6.274 10.528 9.013a3.5 3.5 0 0 1 -1.9 6.439z"/><path d="m177.407 200.377c-.1 0-.208 0-.313-.014a44.43 44.43 0 0 1 -22.183-8.335 3.5 3.5 0 0 1 4.364-5.472 37.99 37.99 0 0 0 18.438 6.834 3.5 3.5 0 0 1 -.306 6.987z"/><path d="m206.4 107.561c-7.065 0-11.63-.312-11.914-.332a3.5 3.5 0 0 1 .49-6.982 218.044 218.044 0 0 0 23.669 0 3.5 3.5 0 0 1 .366 6.99c-4.7.242-8.985.324-12.611.324z"/><path d="m259.557 107.56a3.515 3.515 0 0 1 -1-.145 50.132 50.132 0 0 0 -14.471-1.941 3.5 3.5 0 0 1 -.3-6.993 56.542 56.542 0 0 1 16.763 2.223 3.5 3.5 0 0 1 -.994 6.856z"/><path d="m267.255 125.585a3.479 3.479 0 0 1 -1.362-.278c-4.2-1.777-11.958-3.049-14.593-3.388a3.5 3.5 0 1 1 .9-6.943c.425.055 10.491 1.374 16.425 3.885a3.5 3.5 0 0 1 -1.366 6.724z"/><path d="m282.228 149.755a3.479 3.479 0 0 1 -2.209-.787c-4.738-3.859-11.549-4.231-11.617-4.234a3.5 3.5 0 1 1 .276-6.994c.371.015 9.157.42 15.762 5.8a3.5 3.5 0 0 1 -2.212 6.213z"/><path d="m327.582 141.2a3.63 3.63 0 0 1 -.486-.033c-15.947-2.215-29.246-10.326-29.805-10.67a3.5 3.5 0 1 1 3.674-5.959c.233.143 12.712 7.7 27.094 9.695a3.5 3.5 0 0 1 -.477 6.967z"/><path d="m289.934 192.8a3.541 3.541 0 0 1 -.824-.1 105.71 105.71 0 0 1 -10.9-3.382 3.5 3.5 0 1 1 2.469-6.55 100.059 100.059 0 0 0 10.067 3.127 3.5 3.5 0 0 1 -.817 6.9z"/><path d="m300.036 216.773c-.11 0-.223 0-.335-.016-10.51-1-20.731-6.907-21.161-7.158a3.5 3.5 0 0 1 3.527-6.047c.11.064 9.357 5.388 18.3 6.236a3.5 3.5 0 0 1 -.327 6.985z"/><path d="m283.763 226.92a3.5 3.5 0 0 1 -1.294-.249 83.949 83.949 0 0 1 -10.3-4.855 3.5 3.5 0 0 1 3.443-6.095 76.9 76.9 0 0 0 9.45 4.446 3.5 3.5 0 0 1 -1.3 6.753z"/><path d="m258.274 235.532a3.477 3.477 0 0 1 -.9-.118 84.762 84.762 0 0 1 -15.038-5.833 3.5 3.5 0 0 1 3.2-6.223 79.044 79.044 0 0 0 13.625 5.29 3.5 3.5 0 0 1 -.894 6.884z"/><path d="m164.584 141.2a3.5 3.5 0 0 1 -.949-.132 99.342 99.342 0 0 1 -14.036-5.3 3.5 3.5 0 0 1 3.014-6.317 94.019 94.019 0 0 0 12.916 4.881 3.5 3.5 0 0 1 -.945 6.87z"/><path d="m166.8 112.1a3.547 3.547 0 0 1 -.661-.063l-2.211-.423a3.5 3.5 0 0 1 1.314-6.875l2.211.423a3.5 3.5 0 0 1 -.653 6.938z"/><path d="m191.165 121.471a3.457 3.457 0 0 1 -.789-.091l-2.677-.616a3.5 3.5 0 1 1 1.572-6.821l2.677.616a3.5 3.5 0 0 1 -.783 6.912z"/><path d="m218.12 138.259a69.6 69.6 0 0 1 -13.991-1.538 3.5 3.5 0 0 1 1.571-6.821 59.8 59.8 0 0 0 15.855 1.218 3.5 3.5 0 0 1 .613 6.973c-1.355.118-2.714.168-4.048.168z"/><path d="m225.942 158.68a52.239 52.239 0 0 1 -8.278-.593 3.5 3.5 0 0 1 1.2-6.9 52.183 52.183 0 0 0 14.418-.017 3.5 3.5 0 0 1 .983 6.931 59.66 59.66 0 0 1 -8.323.579z"/><path d="m267.26 167.683a3.508 3.508 0 0 1 -.856-.106 50.189 50.189 0 0 0 -9.467-1.332 3.5 3.5 0 1 1 .2-7 57.094 57.094 0 0 1 10.974 1.54 3.5 3.5 0 0 1 -.849 6.895z"/><path d="m223.491 191.179a38.161 38.161 0 0 1 -15.7-3.48 3.5 3.5 0 0 1 3.136-6.258 31.3 31.3 0 0 0 13.273 2.729h.1a3.5 3.5 0 0 1 .092 7c-.302.005-.603.009-.901.009z"/><path d="m191.166 163.231a3.6 3.6 0 0 1 -.525-.039 42.187 42.187 0 0 1 -15.1-5.051 3.5 3.5 0 0 1 3.721-5.93 36.029 36.029 0 0 0 12.425 4.059 3.5 3.5 0 0 1 -.518 6.961z"/><path d="m189.827 187.067c-.087 0-.174 0-.262-.01a49.786 49.786 0 0 1 -10.2-2.334 3.5 3.5 0 0 1 2.275-6.621 42.358 42.358 0 0 0 8.441 1.975 3.5 3.5 0 0 1 -.254 6.99z"/><path d="m207.786 204.873a3.519 3.519 0 0 1 -1.007-.148l-2.872-.862a3.5 3.5 0 0 1 2.012-6.705l2.872.862a3.5 3.5 0 0 1 -1 6.853z"/><path d="m185.161 93.452a3.5 3.5 0 0 1 -.967-6.864c.128-.037 12.9-3.792 21.924-12a3.5 3.5 0 0 1 4.709 5.179c-10.264 9.331-24.114 13.38-24.7 13.548a3.523 3.523 0 0 1 -.966.137z"/><path d="m147.724 207.129a3.479 3.479 0 0 1 -1.108-.181c-5.181-1.727-10.6-5.941-10.829-6.119a3.5 3.5 0 0 1 4.313-5.514c.045.036 4.708 3.652 8.729 4.993a3.5 3.5 0 0 1 -1.105 6.821z"/></g><path d="m272.662 287.517a8.091 8.091 0 0 0 7.8-5.877c1.661-5.915 2.9-16.135-1.512-29.921-.021-.065-.034-.132-.054-.2a47.708 47.708 0 0 1 -12.108-6.581 2.048 2.048 0 0 0 -3.238 1.389l-.121.912a2.058 2.058 0 0 1 -2.994 1.545 58.306 58.306 0 0 1 -6.5-3.975 2.049 2.049 0 0 0 -3.226 1.681 2.062 2.062 0 0 1 -2.155 2.055 36.52 36.52 0 0 1 -14.406-3.485 67.633 67.633 0 0 0 15 11.7 12.831 12.831 0 0 1 6.272 10.571 61.76 61.76 0 0 1 -.6 10.837 8.137 8.137 0 0 0 8.02 9.341z" fill="#7a5660"/><path d="m153.6 221.224-1.681-1.564a2.47 2.47 0 0 0 -3.864.651l-.484.913a2.469 2.469 0 0 1 -3.913.6l-7.952-7.82a2.469 2.469 0 0 0 -4.115 1.118 2.473 2.473 0 0 1 -4.092 1.147 96.693 96.693 0 0 1 -10.175-11.641 12.916 12.916 0 0 1 1.044 2.067c3.957 10.058 12.427 37.478 4.375 72.5a6.815 6.815 0 0 0 6.653 8.323h8.404a8.562 8.562 0 0 0 7.922-5.309 200.388 200.388 0 0 0 13.948-64.091l-2.522 2.915a2.47 2.47 0 0 1 -3.548.191z" fill="#7a5660"/><path d="" fill="#7a5660"/></svg>