<svg id="Flat" height="512" viewBox="0 0 340 340" width="512" xmlns="http://www.w3.org/2000/svg"><path d="m10 128.963v-76.453s37.321-10.229 87.593-2.249a183.5 183.5 0 0 0 60.255-.723 284.839 284.839 0 0 1 112.322 3.5 118.824 118.824 0 0 0 59.448-1.325l.382-.113v76.59z" fill="#cce3ff"/><path d="m10 102.428s27.893-6.572 69.342 3.628a207.771 207.771 0 0 0 54.711 6.163c20.715-.5 47.473-2.651 72.388-9.163a158.768 158.768 0 0 1 46.543-5.313c.444.018.892.037 1.341.059a197.078 197.078 0 0 0 42.388-2.5 127.934 127.934 0 0 1 33.287-1.496v218.572h-320z" fill="#6997e0"/><path d="m250.461 256.283a35.189 35.189 0 0 0 -30.731-31.018l-10.529-1.28a13.151 13.151 0 0 1 -11.527-12.029c-.657-8.4-1.516-20.313-1.967-30.407l-20.37 3.115-20.37-3.115c-.451 10.094-1.31 22.006-1.967 30.407a13.151 13.151 0 0 1 -11.528 12.029l-10.528 1.28a35.189 35.189 0 0 0 -30.731 31.018 458.952 458.952 0 0 0 -2.213 56.095h154.67a458.952 458.952 0 0 0 -2.209-56.095z" fill="#f9bedf"/><path d="m129.361 143.787h18.169a0 0 0 0 1 0 0v25.5a0 0 0 0 1 0 0h-18.169a12.75 12.75 0 0 1 -12.75-12.75 12.75 12.75 0 0 1 12.75-12.75z" fill="#e589ad"/><path d="m175.337 184.664-20.37-3.115c-.445 9.959-1.287 21.681-1.94 30.061l44.431-2.448c-.619-8.123-1.348-18.59-1.751-27.613z" fill="#e589ad"/><path d="m135.643 146.023s-5.23 48.585 39.368 48.585h40.86v-58.8z" fill="#f9bedf"/><path d="m136.241 160.768a22.584 22.584 0 0 0 20.059-3.13c4.782-3.4 11.6-5.346 18.711-5.346s13.929 1.948 18.711 5.346a22.609 22.609 0 0 0 22.149 2.347v-24.177l-80.228 10.215a62.525 62.525 0 0 0 .598 14.745z" fill="#e589ad"/><path d="m200.112 184.8a10.139 10.139 0 0 1 -9.257-3.836 15.573 15.573 0 0 0 -12.527-5.911 14.28 14.28 0 0 0 -13.346 10.81 18.913 18.913 0 0 0 .625 11.982c1.648 4.1 5.232 8.876 12.987 8.876h23.294a33.2 33.2 0 0 0 33.2-32.854l1.458-140.228a5.949 5.949 0 0 0 -5.949-6.012h-12.127a5.95 5.95 0 0 0 -5.948 5.812l-3.322 143.206a10.49 10.49 0 0 1 -9.088 8.155z" fill="#313847"/><path d="m131.781 126.82s-19.718-33.769 12.775-49.967l5.832 7.962s15.552-15.924 35.825-17.3a72.773 72.773 0 0 1 0 14.276s18.607-7.138 33.6-8.785a42.716 42.716 0 0 1 .308 19.089 17.834 17.834 0 0 0 .616 9.916c1.806 5.253 3.155 14.475-2.59 26.178z" fill="#ff9d78"/><path d="m208.838 121.6h-67.654a11.6 11.6 0 0 0 -11.6 11.6v6.167q0 .534.029 1.049c.611 11.044 13.474 16.75 22.491 10.343 11.443-8.131 34.373-8.131 45.816 0 9.017 6.407 21.88.7 22.491-10.343q.029-.515.029-1.049v-6.167a11.6 11.6 0 0 0 -11.602-11.6z" fill="#c5dfff"/><path d="m20 162.158v22.664a3.49 3.49 0 0 0 4.491 3.341 42.651 42.651 0 0 0 15.918-8.609s26.009 25.536 54.409.019a11.469 11.469 0 0 0 -1.193-18.04c-10.935-7.4-30.07-14.392-52.845 2.807 0 0-8.3-4.425-16.773-5.635a3.5 3.5 0 0 0 -4.007 3.453z" fill="#b7dfff"/><path d="m320 120.034v22.666a3.491 3.491 0 0 1 -4.491 3.341 42.641 42.641 0 0 1 -15.918-8.61s-26.009 25.537-54.409.02a11.469 11.469 0 0 1 1.193-18.04c10.935-7.4 30.07-14.392 52.845 2.806 0 0 8.3-4.425 16.773-5.634a3.5 3.5 0 0 1 4.007 3.451z" fill="#b7dfff"/><g fill="#fff"><circle cx="60.122" cy="249.114" r="12.204"/><circle cx="84.136" cy="217.225" r="10.236"/><circle cx="285.703" cy="266.134" r="15.354"/><circle cx="285.057" cy="211.162" r="9.374"/></g><path d="m165.477 301.53c-15.187 0-24.188-6.7-24.563-6.981a4 4 0 0 1 4.818-6.386c.164.12 7.472 5.367 19.745 5.367a4 4 0 0 1 0 8z" fill="#e589ad"/><path d="m187.962 301.16a13 13 0 0 1 -12.538-9.615c-1.444-5.4-2.175-12.44-2.175-20.925a4 4 0 0 1 8 0c0 7.788.641 14.134 1.9 18.862a4.982 4.982 0 0 0 5.466 3.635 50.97 50.97 0 0 0 16.744-5.23 4 4 0 1 1 3.961 6.951 58.834 58.834 0 0 1 -19.649 6.208 13.046 13.046 0 0 1 -1.709.114z" fill="#e589ad"/><path d="m175.046 244.8a10.627 10.627 0 0 1 -6.026-1.863l-1.283-.879a4 4 0 1 1 4.526-6.6l1.281.879a2.679 2.679 0 0 0 3.377-.29 88.452 88.452 0 0 0 7.324-8.014 4 4 0 1 1 6.248 5 97.032 97.032 0 0 1 -7.987 8.743 10.676 10.676 0 0 1 -7.46 3.024z" fill="#e589ad"/><path d="m76.3 175.088a4.047 4.047 0 0 1 -.78-.08 3.832 3.832 0 0 1 -.75-.23 3.569 3.569 0 0 1 -.69-.369 3.614 3.614 0 0 1 -.61-.491 4.919 4.919 0 0 1 -.5-.61 5.763 5.763 0 0 1 -.37-.689 4.985 4.985 0 0 1 -.22-.75 3.4 3.4 0 0 1 -.08-.781 4.042 4.042 0 0 1 1.17-2.83 4.008 4.008 0 0 1 5.66 0 4 4 0 0 1 -2.83 6.83z" fill="#92b9ff"/><path d="m263.7 132.958a3.995 3.995 0 1 1 2.83-1.17 4.161 4.161 0 0 1 -.61.5 4 4 0 0 1 -1.441.6 4.032 4.032 0 0 1 -.779.07z" fill="#92b9ff"/><path d="m128.035 312.378v-34.838a22.13 22.13 0 0 0 -1.629-8.356l-1.845-4.553a4 4 0 0 0 -7.415 3.006l1.846 4.553a14.152 14.152 0 0 1 1.043 5.35v34.838z" fill="#e589ad"/><path d="m230.639 312.378v-34.838a14.152 14.152 0 0 1 1.043-5.35l1.845-4.553a4 4 0 0 0 -7.414-3.006l-1.845 4.553a22.13 22.13 0 0 0 -1.629 8.356v34.838z" fill="#e589ad"/><path d="m175.011 121.6h-17.031l-25.916 25.916a14.444 14.444 0 0 0 15.014 5.529l31.445-31.445z" fill="#fff"/><path d="m208.838 121.6h-11.844l-23.077 23.078a52.385 52.385 0 0 1 10.953.911l23.988-23.989z" fill="#fff"/><path d="m209.666 127.182a5.637 5.637 0 0 1 5.63 5.631v6.715c0 .256-.006.507-.02.755-.272 4.917-4.535 7.571-8.407 7.571a8.663 8.663 0 0 1 -5.038-1.628c-7.2-5.117-16.725-7.934-26.82-7.934s-19.62 2.817-26.82 7.934a8.663 8.663 0 0 1 -5.039 1.628c-3.872 0-8.134-2.654-8.406-7.571-.014-.247-.021-.5-.021-.755v-6.715a5.637 5.637 0 0 1 5.631-5.631zm0-7h-69.31a12.632 12.632 0 0 0 -12.631 12.631v6.715c0 .388.011.768.032 1.142a15.158 15.158 0 0 0 15.395 14.184 15.606 15.606 0 0 0 9.094-2.922c6.23-4.427 14.5-6.64 22.765-6.64s16.535 2.213 22.765 6.64a15.612 15.612 0 0 0 9.093 2.922 15.157 15.157 0 0 0 15.4-14.184c.021-.374.031-.754.031-1.142v-6.715a12.631 12.631 0 0 0 -12.63-12.631z" fill="#313847"/><path d="m42.974 72.238a3.7 3.7 0 0 1 .6-7.277c9.409-.738 23.036-.627 40.566 2.558a162.521 162.521 0 0 0 36.315 2.8 3.7 3.7 0 0 1 1.142 7.261c-8.5 2.4-20.6 3.747-37.457 1.723-19.262-2.31-32.456-4.903-41.166-7.065z" fill="#fff"/><path d="m284.472 68.147a151.143 151.143 0 0 1 23.781 6.4 1.736 1.736 0 0 1 -.739 3.365c-12.041-1.175-30.449-2.2-45.027.364a1.731 1.731 0 0 1 -1.585-2.86 22.289 22.289 0 0 1 6.515-4.928 26.844 26.844 0 0 1 17.055-2.341z" fill="#fff"/></svg>