<svg id="Flat" height="512" viewBox="0 0 340 340" width="512" xmlns="http://www.w3.org/2000/svg"><path d="m10 157.287v-90.252h320v260.433h-270.662z" fill="#fff"/><path d="m175.931 137.685v19.544a10.24 10.24 0 0 0 10.24 10.239h5.108c8.841 2.148 21.885 0 21.885 0a8.848 8.848 0 0 0 5.376 4.891c7.2 2.7 14.842-2.907 14.842-10.6v-21.306l-44.376-4.263z" fill="#8e4f69"/><path d="m123.784 88.493-1.205 13.547v4.711a13.535 13.535 0 0 0 12.491 13.549l.3.02a116.052 116.052 0 0 0 14.012 13.606v7.754a14.547 14.547 0 0 0 15.159 14.62c.151-.008.3-.018.457-.029 6.166-.454 12.024-5.614 12.024-11.8l-1.091-32.971-27.968-32.82z" fill="#ff828a"/><path d="m147.963 78.686-8.455 3.249-2.4 10.178-1.733 28.2a16.129 16.129 0 0 0 14.012 13.606l3.647-49.289z" fill="#8e4f69"/><path d="m110.846 85.7-1.134 6.59a43.6 43.6 0 0 1 -1.44 6.519 12.748 12.748 0 0 1 -18.319 3.226 21.928 21.928 0 0 1 -4.311-4.324c-9.158.144-15.8 4.241-27.6-1.868a17 17 0 0 1 -9.163 2.65 8.838 8.838 0 0 1 -8.343-9.358l1.746-22.8 40.418-2.048 26.533 8.468z" fill="#ff828a"/><path d="m82.7 64.287-40.416 2.047-1.739 22.538c-.007.089 0 .177-.007.265 6.73 2.052 16.9 3.079 25.6-4.692 0 0 12.422 12.406 33.651 6.166a22.593 22.593 0 0 0 8.477 8.2 12.674 12.674 0 0 0 2.034-6.011l.547-7.093-1.615-12.947z" fill="#8e4f69"/><path d="m82.7 64.287-19.147.97-5.509 30.588c11.572 9.258 27.6 1.868 27.6 1.868l3.346-31.413z" fill="#8e4f69"/><path d="m297.189 254.3a26.337 26.337 0 0 1 -18.029-20.406c-2.292-12.4-6.368-21.376-10.75-27.823a41.478 41.478 0 0 0 -31.588-17.813c-22.723-1.553-41.536 9.764-75.2 25.02-17.27 7.826-31.515 11.4-38.514 9.78-12.759-2.956-18.929-21.125-7.174-32.442 5.091-4.9 9.317-9.02 12.084-13.153 6.779-10.128 7.3-23.577.494-33.685-26.382-39.178-99.635-28.37-118.512-25.396v19.883c33.03-4.514 55.631-2.5 67.143-.628a46.684 46.684 0 0 1 18.5 7.189c.361.242.686.469.968.676 11.148 8.185 15.857 18.611-.744 30.243-34.5 24.171-54.834 38.2-50.7 61.342 27.659 27.891 67.428 21.348 94.1 12.085 13.129-4.559 26.446-12.258 38.811-18.6 21.862-11.219 34.461-17.575 41.852-20.236a34.5 34.5 0 0 1 16.614-1.822c20.28 2.945 22.76 22.19 22.929 29.917a48.353 48.353 0 0 0 2.2 13.888c12.961 39.938 68.327 32.231 68.327 32.231v-29.465c-14.836 2.39-25.362 1.5-32.811-.785z" fill="#4a9cdd"/><path d="m233.912 161.258-.53 1.877v3.316a8.677 8.677 0 0 0 8.677 8.677 8.677 8.677 0 0 0 8.528-7.078l.378-2.017s4.778 6.682 20.464 10.516a10.232 10.232 0 0 0 10.232 10.232h2.867a10.229 10.229 0 0 0 7.235-3l6.951-6.951 6.253-19.327-18.19-14.5-52.036 1.668-3.955 7.92z" fill="#ff828a"/><path d="m10 157.287s13.649-10.549 29.26 0c0 0 12.45-4.666 23.2 1.371 8.107 4.555 11.139 14.992 5.949 22.708a15.2 15.2 0 0 1 -2.562 2.924s13.08 17.721-6.329 32.489a24.892 24.892 0 0 1 16.508 15.65s.761 6.053 1.043 9.659c0 0 4.515 27.092-23.753 46.308-9.965 6.773-41.1-17.151-41.1-17.151l-2.216-12.145z" fill="#c6d18e"/><path d="m158.658 271.659s11.492-28.6 37.454-28.763a11.738 11.738 0 0 1 7.61 2.625 10.962 10.962 0 0 1 3.4 5.019s36.281-15.645 40.884 34.01c0 0 17.058-4.011 23.015 12.4 0 0 15.162-3.9 17.87 11.264 0 0 19.223-2.37 21.931 19.257h-80.036z" fill="#c6d18e"/><path d="m298.516 182.542v36.414s.993 9.4 13.9 9.4c0 6.143 5.447 9.457 11.59 9.457l5 .334.994-47.329z" fill="#ff828a"/><path d="m298.516 182.542v36.414s.993 9.4 13.9 9.4c0 6.143 5.447 9.457 11.59 9.457l5 .334.994-47.329z" fill="#ff828a"/><path d="m330 190.818-31.487-8.276v24.9c4.419 5.318 10.842 10.333 18.959 9.322a64.953 64.953 0 0 0 12.04-2.7z" fill="#8e4f69"/><path d="m193.275 137.033-2 19.383v11.052a7.661 7.661 0 0 0 7.66 7.66h5.318a7.66 7.66 0 0 0 6.586-3.749l2.321-3.911v-8.154l-2.373-20.427z" fill="#ff828a"/><g fill="#8e4f69"><path d="m234.741 144.679-3.955 7.92 2.6 9.163v1.373a37.248 37.248 0 0 0 17.583-7.481s7.852 15.28 30.011 7.752a62.361 62.361 0 0 0 18.547 10.928l5.444-16.828-18.19-14.5z"/><path d="m191.279 156.416c4.186.193 11.37-.091 14.839-4a19.55 19.55 0 0 0 7.046 6.9v-20.8l-21.885-2.1z"/><path d="m147.963 78.686-25.384 9.756v13.6a39.739 39.739 0 0 0 9.24-1.533s2.793 16.8 22.9 17c0 0 .121 11 12.258 12.489 0 0-2.381 13.734 8.814 19.274a7.644 7.644 0 0 0 1.543-4.854l-1.407-32.908z"/></g><path d="m330 67.035v-47.76s-12.246-3.209-21.551 8.342c0 0-10.541-9.947-24.363-.962 0 0-6.413-10.052-22.1-7.217a15.141 15.141 0 0 1 -9.686 3.045s-16.365-10.909-32.729 3.851l-8.243-5.922c-6.5-3.1-16.288-4.623-27.374 4.318 0 0-12.193-5.455-21.819 3.208l-3.166-6.854a18.923 18.923 0 0 0 -16.408-8.548s-14.439-.641-21.177 12.835c0 0-11.552-10.268-28.558 1.926a16.555 16.555 0 0 0 -5.87-4.218c-12.885 2.593-26.726 33.072-18.173 46.6 0 0 6.481 19.688 33.435 12.6 0 0 9.621 16.925 35.612 7.62 0 0-2.019 21.53 26.539 16.717 0 0-4.2 15.542 14.094 17.147 0 0-6.958 12.854 6.107 20.918 5.115 3.158 8.086 4.674 13.624 2.336 2.841-1.2 7.808-3.145 10.1-6.812 0 0 12.37 26.947 45.1 3.524l76.606-49.904z" fill="#878e73"/><path d="m308.452 27.617s-10.541-9.947-24.363-.962c0 0 25.755 9.584 16.176 32.9v.008a35.289 35.289 0 0 0 -12.685.4s-13.239 2.828-16.048 13.907c0 0-27.794.235-27.794 27.106 0 0-13.412 4.479-12.952 21.686a14.879 14.879 0 0 0 6.352 11.549s-1.3 11.368 4.879 18.859a59.805 59.805 0 0 0 12.528-7.048l45.72-31.626 29.735-20.571v-74.55s-12.243-3.209-21.548 8.342z" fill="#42493e"/><path d="m78.019 241.8a34.237 34.237 0 0 0 -2.005-9.371c-5.662.181-24.791 4.226-33.2 21.713a5.3 5.3 0 0 1 -5.983 2.832c-1.419-.327-3.136-.655-5.047-.9s-15.684-2.201-21.784-20.174v36.151s33.349 23.118 43.314 16.349c28.268-19.22 24.705-46.6 24.705-46.6z" fill="#42493e"/><path d="m330 93.825s-4.46-12.257-16.4-13.2c0 0-4.4-13.59-19.171-13.59 0 0-13.828-1.572-19.17 13.4 0 0-22.942-1.69-24.513 25.023a15.258 15.258 0 0 0 -7.646 4.184 34.694 34.694 0 0 0 -3.254 8.833c-.879 5.268 8.183 12.218 8.463 12.252 0 0-3.508 33.3 33.726 23.873 0 0 26.5 20.9 46.838-6.449l1.127-14.588z" fill="#c6d18e"/><path d="m74.981 57.947a16.294 16.294 0 0 1 3.5-12.825c3.441-3.976 9.147-4.666 9.147-4.666-1.847-8.311 5.2-13.159 5.2-13.159s-10.268-12.835-28.558 0c0 0-23.1-8.4-32.729 12.486 0 0-13.4.509-14.439 17.034 0 0-7.1 3.429-7.1 10.218 0 0-.926 17.7 20.893 7.43 0 0 1.556 9.947 17.464 9.947 0 0 14.3 1.283 20.079-12.193-.695-12.141 6.543-14.272 6.543-14.272z" fill="#42493e"/><path d="m191.556 52.615a5.1 5.1 0 0 0 4.141-4.1c3.967-21.039 23.873-22.185 23.873-22.185a28.431 28.431 0 0 0 -8.245-5.919c-21.516 5.125-24.071 24.293-24.071 24.293s-19.86 3.89-20.267 25.67 17.969 21.735 17.969 21.735c3.316 13.432 9.967 18.935 15.942 21.04a2.105 2.105 0 0 0 1.886-3.719c-7.409-5.4-8.934-13.659-9.112-18.666a5.058 5.058 0 0 0 -4.1-4.778c-13.892-2.6-13.055-14.875-13.055-14.875-.117-13.893 9.575-17.543 15.039-18.496z" fill="#42493e"/><path d="m312.419 228.358a11.122 11.122 0 0 0 11.122 11.122h6.459v-22.719l-17.581-30.561z" fill="#8e4f69"/><path d="m250.965 144.159v21.874s.853 10.231 20.464 10.516l.855-33.074z" fill="#8e4f69"/><path d="m248.31 130.722c-20.819 6.7-29.815.207-33.225-3.971a2.554 2.554 0 0 0 -3.931.015c-3.054 3.633-9.286 9.091-17.879 6.8-8.032-2.142-7.774-8.391-6.565-12.582a2.881 2.881 0 0 0 -2.654-3.652c-10.356-.384-13.713-10.775-14.737-15.853a3.278 3.278 0 0 0 -3.172-2.64c-13.71-.159-17.1-10.668-17.926-16.445a3.41 3.41 0 0 0 -4.043-2.866c-23.033 4.647-31.621-2.883-34.492-6.991a4.035 4.035 0 0 0 -4.25-1.611c-26.907 6.358-30.455-12.98-30.455-12.98l-17.881-10.798-20.835 31.538 1.053 3.447a23.767 23.767 0 0 0 11.042 2.279s14.3 1.283 20.079-12.193c0 0 6.738 19.318 33.691 12.226 0 0 8.985 16.973 34.975 7.668 0 0-3.529 21.178 25.029 16.364 0 0-4.493 15.081 13.8 16.686 0 0-6.346 14.89 6.721 22.954a18.617 18.617 0 0 0 16.965 1.673 17.371 17.371 0 0 0 8.081-6.979s13.336 25.148 44.129 5.064z" fill="#42493e"/><path d="m330 133.563c-4.718-.017-17.063.944-25.281 10.653a9.988 9.988 0 0 1 -12.237 2.363c-1.608-.843-2.911-1.638-3.863-2.263a6.229 6.229 0 0 0 -4.216-.93c-17.065 2.162-21.809-9.359-23.108-15.1a4.123 4.123 0 0 0 -3.433-3.155c-21.646-3.15-14.761-15.488-14.761-15.489-2.444 2.474-4.548 6.35-4.619 12.408a8.967 8.967 0 0 0 8.49 9.489s-2.972 33.939 34.259 24.511a48.287 48.287 0 0 0 8.087 4.657c15.65 7.937 36.331 5.265 39.992-11.033a1.416 1.416 0 0 1 .226-.37h-.008c.158-.268.32-.523.476-.8z" fill="#42493e"/><path d="m330 144.815s-18.765-2.878-23.242 17.906c0 0-7.555.54-11.736 6.88a59.074 59.074 0 0 0 -1.393 8.3s-1.3 8.582 8.609 12.419c0 0-.182 16.164 15.806 15.524 0 0-.143 8.073 11.149 9.032l.807-11.296z" fill="#878e73"/><path d="m288.892 308.211s-8.123 11.706-27.267 11.706c-12.938 0-18.952-5.055-21.5-8.335a25.44 25.44 0 0 0 -1.644-2.735 24.3 24.3 0 0 0 -13.009-9.6c-5.151-25.329-31.625-23.469-31.625-23.469a12.938 12.938 0 0 0 -8.156-3c-4.351-12.048-13.4-15.485-17.173-16.416a58.41 58.41 0 0 0 -9.863 15.309l72.128 55.809h80.038c-2.705-21.639-21.929-19.269-21.929-19.269z" fill="#42493e"/><path d="m330 216.761v-13.181c-4.569-.744-6.351-3.426-7.022-5.05a1.911 1.911 0 0 0 -1.86-1.161c-10.512.425-11.832-8.764-11.9-12.882a1.94 1.94 0 0 0 -1.918-1.9c-9.733-.261-11.874-8.268-12.29-12.975a17.165 17.165 0 0 0 -2.644 8.454s-.959 9.273 8.954 13.11c0 0 0 16.308 15.988 15.669.005.004 1.402 8.955 12.692 9.916z" fill="#42493e"/><path d="m45.17 280.909 4.455-17.872c3.886-8.746 11.14-18.087 24.659-21.364a21.532 21.532 0 0 1 19.408 10.127s17.721-6.8 26.582 9.471c0 0 18.565-5.533 26.581 5.156 0 0 16.7-7.127 26.322 3.264 0 0 4.844 11.594 5.191 21.79l-39.155 35.988h-61.05z" fill="#878e73"/><path d="m173.173 269.694c-4.16.343-11.249 2.614-19.051 12.439 0 0-26.767-1.673-33.7 23.9q-.087.324-.17.645a11.26 11.26 0 0 1 -10.89 8.477h-.18a11.3 11.3 0 0 1 -11.116-9.594c-2.809-17.41-20.735-22.5-20.735-22.5-6.742-17.986-27.684-20.013-27.7-20.014a54.422 54.422 0 0 0 -4.463 17.868l32.993 46.559h61.05l40.555-37.274c-.346-10.2-2.966-16.594-6.593-20.506z" fill="#42493e"/><path d="m131.666 327.468s-8.439-29.257 25.738-36.008c0 0 13.08-20.252 33.332-4.641 0 0 24.894-5.063 27 19.409 0 0 16.455 1.976 15.611 21.24z" fill="#878e73"/><path d="m10 272.052s15.337-12.658 29.26 0c0 0 25.316-4.642 30.8 19.408 0 0 27 5.352 12.236 36.008h-72.296z" fill="#c6d18e"/></svg>