<svg id="icons" height="512" viewBox="0 0 500 500" width="512" xmlns="http://www.w3.org/2000/svg" xmlns:xlink="http://www.w3.org/1999/xlink"><linearGradient id="linear-gradient" gradientUnits="userSpaceOnUse" x1="445.086" x2="445.086" y1="21.569" y2="63.308"><stop offset="0" stop-color="#edf6ff"/><stop offset="1" stop-color="#d3e1ff"/></linearGradient><linearGradient id="linear-gradient-2" gradientUnits="userSpaceOnUse" x1="288.701" x2="372.159" y1="45.429" y2="208.508"><stop offset="0" stop-color="#ff8c75"/><stop offset="1" stop-color="#ff776a"/></linearGradient><linearGradient id="linear-gradient-3" gradientUnits="userSpaceOnUse" x1="245.387" x2="313.497" y1="50.87" y2="202.437"><stop offset="0" stop-color="#fffd9b"/><stop offset="1" stop-color="#ffc977"/></linearGradient><linearGradient id="linear-gradient-4" x1="295.181" x2="295.181" xlink:href="#linear-gradient-2" y1="70.776" y2="221.773"/><linearGradient id="linear-gradient-5" gradientUnits="userSpaceOnUse" x1="122.776" x2="71.992" y1="257.265" y2="354.109"><stop offset="0" stop-color="#628272"/><stop offset="1" stop-color="#3e594e"/></linearGradient><linearGradient id="linear-gradient-6" x1="424.716" x2="458.958" xlink:href="#linear-gradient-5" y1="203.1" y2="288.115"/><linearGradient id="linear-gradient-7" gradientUnits="userSpaceOnUse" x1="206.064" x2="264.548" y1="191.598" y2="373.547"><stop offset="0" stop-color="#ced5f7"/><stop offset="1" stop-color="#adb5da"/></linearGradient><linearGradient id="linear-gradient-8" gradientUnits="userSpaceOnUse" x1="194.713" x2="335.022" y1="237.01" y2="510.75"><stop offset="0" stop-color="#737b9d"/><stop offset="1" stop-color="#576081"/></linearGradient><linearGradient id="linear-gradient-9" gradientUnits="userSpaceOnUse" x1="321.349" x2="321.349" y1="538.121" y2="214.763"><stop offset="0" stop-color="#759fff"/><stop offset="1" stop-color="#cbf4ff"/></linearGradient><linearGradient id="linear-gradient-10" x1="442.556" x2="442.556" xlink:href="#linear-gradient-9" y1="489.212" y2="358.172"/><linearGradient id="linear-gradient-11" x1="151.313" x2="151.313" xlink:href="#linear-gradient-9" y1="488.653" y2="362.704"/><linearGradient id="linear-gradient-12" gradientUnits="userSpaceOnUse" x1="104.59" x2="82.296" y1="404.951" y2="511.576"><stop offset="0" stop-color="#98baa0"/><stop offset="1" stop-color="#74917c"/></linearGradient><linearGradient id="linear-gradient-13" x1="168.22" x2="236.329" xlink:href="#linear-gradient-3" y1="85.546" y2="237.114"/><linearGradient id="linear-gradient-14" x1="136.377" x2="204.487" xlink:href="#linear-gradient-3" y1="99.855" y2="251.423"/><linearGradient id="linear-gradient-15" x1="209.254" x2="292.712" xlink:href="#linear-gradient-2" y1="86.087" y2="249.166"/><linearGradient id="linear-gradient-16" x1="217.893" x2="217.893" xlink:href="#linear-gradient-2" y1="70.776" y2="221.773"/><linearGradient id="linear-gradient-17" x1="163.987" x2="140.745" xlink:href="#linear-gradient-12" y1="189.758" y2="298.221"/><linearGradient id="linear-gradient-18" x1="14.379" x2="133.095" xlink:href="#linear-gradient" y1="125.632" y2="125.632"/><linearGradient id="linear-gradient-19" gradientUnits="userSpaceOnUse" x1="359.294" x2="450.548" y1="15.721" y2="44.164"><stop offset="0" stop-color="#a3aee5"/><stop offset="1" stop-color="#7b96d3"/></linearGradient><linearGradient id="linear-gradient-20" x1="162.403" x2="63.445" xlink:href="#linear-gradient-19" y1="57.655" y2="107.43"/><linearGradient id="linear-gradient-21" x1="130.109" x2="79.309" xlink:href="#linear-gradient-5" y1="261.113" y2="357.986"/><linearGradient id="linear-gradient-22" x1="154.808" x2="238.266" xlink:href="#linear-gradient-2" y1="113.95" y2="277.03"/><linearGradient id="linear-gradient-23" x1="184.944" x2="268.402" xlink:href="#linear-gradient-2" y1="98.528" y2="261.607"/><linearGradient id="linear-gradient-24" x1="265.241" x2="348.699" xlink:href="#linear-gradient-2" y1="57.435" y2="220.514"/><linearGradient id="linear-gradient-25" x1="269.751" x2="337.86" xlink:href="#linear-gradient-3" y1="39.922" y2="191.489"/><linearGradient id="linear-gradient-26" x1="268.891" x2="352.349" xlink:href="#linear-gradient-2" y1="55.566" y2="218.646"/><linearGradient id="linear-gradient-27" x1="265.521" x2="349.02" xlink:href="#linear-gradient-2" y1="57.278" y2="220.436"/><linearGradient id="linear-gradient-28" x1="190.272" x2="258.382" xlink:href="#linear-gradient-3" y1="75.637" y2="227.204"/><linearGradient id="linear-gradient-29" x1="195.633" x2="279.091" xlink:href="#linear-gradient-2" y1="93.057" y2="256.137"/><linearGradient id="linear-gradient-30" x1="165.215" x2="239.088" xlink:href="#linear-gradient-3" y1="118.513" y2="162.645"/><path d="m404.848 83.993h65.678c11.836 0 20.279-11.911 15.889-22.9a28.519 28.519 0 0 0 -9.637-12.358c-13.858-16.435-34.642-18.29-45.335 1.677a19.3 19.3 0 0 0 -5.6 12.313s-8.956-4.079-13.993 6.916a26.885 26.885 0 0 1 -8.36 10.269 2.265 2.265 0 0 0 1.358 4.083z" fill="url(#linear-gradient)"/><path d="m341.212 121.32h19.491v91.52h-19.491z" fill="url(#linear-gradient-2)"/><path d="m314.807 212.841h-19.492v-63.674a27.412 27.412 0 0 1 19.492 5.32z" fill="url(#linear-gradient-3)"/><rect fill="url(#linear-gradient-4)" height="27.316" rx="10.946" width="158.58" x="215.891" y="208.972"/><path d="m122.789 257.833s-28.713-10.611-36.2 26.215c0 0-21.222-1.248-18.1 32.458 0 0-26.84 7.49-11.236 43.068 0 0-11.624 7.491-4.876 22.471s3 33.706 3 33.706l78.023-117.351z" fill="url(#linear-gradient-5)"/><path d="m407.415 204.777c18.868-28.39 55.162-2.521 42.445 24.968 0 0 12.483-8.115 21.846 4.993s-4.993 24.343-4.993 24.343c36.427 9.963-.783 47.2 5.617 67.412 0 0-82.392-51.807-64.915-121.716z" fill="url(#linear-gradient-6)"/><path d="m185.639 231.864-128.351 189.717 94.025 59.951 319.971-2.064 1.338-136.334c-.911-17.461-3.423-31.548-12.29-46.618-13.629-23.165-32.642-61.038-54.719-77.055l-16.665-28.919c-6.962-11.179-23.976-14.491-33.8-4.544l-40.339 40.519z" fill="url(#linear-gradient-7)"/><path d="m486.091 491.1-7.8-149.536a108.788 108.788 0 0 0 -14.893-49.5c-13.629-23.165-35.706-56.586-57.783-72.6l-.127-.22-9.523-4.037c-10.775 16.626-28.1 29.741-44.183 39.234-33.844 19.92-63.552 46.159-88.522 76.439l-1.688-47.85a2.94 2.94 0 0 0 -5.782-.639l-18.737 71.709a20.92 20.92 0 0 1 -12.741 14.242c-9.706 3.153-18.493 9.1-23.843 17.925l-28.336 45.381c17.339-48.588 52-144.112 64.5-192.985h37.6a4.875 4.875 0 0 1 4.851 4.4l.882 8.969a4.342 4.342 0 0 0 7.43 2.606l27.4-28.114-135.621-1.425-130.466 196.608 17.227 11.7.146-.268 80.35 57.965h122.477l-3.016-85.525 1.507-.363 42.715-44.929-13.428 130.813zm-66.254-231.674c50.21 38.106 43.187 126.221 43.187 126.221l-13.693-26.689s-42.486-44.592-44.349-58.286 14.855-41.246 14.855-41.246zm-49.93 88.062 3.871-9.613 22.185 87.279-15.463 35.277c-10.2-37.373-27.483-74.315-10.593-112.943zm-259.08 34.559 15.222-31.433 40.827-59.614c22.736-15.892 22.888-38.288 22.888-38.288 10.888-5.331 12.376-14.055 12.376-14.055h16.49l-30.513 68.029c-27.561 23.687-53.617 48.57-77.29 75.361z" fill="url(#linear-gradient-8)"/><path d="m395 201.038s-5.48 45.016-61.464 84.2-109.874 127.604-107.075 205.862h97.274s-20.994-107.887 35.691-169.471c44.538-48.386 55.81-85.822 56.9-107a13.011 13.011 0 0 0 -13.043-13.594z" fill="url(#linear-gradient-9)"/><path d="m397.4 334.894a2.119 2.119 0 0 0 -3.94 1.358c1.273 8.154 5.091 21.475 15.827 40.175 19.35 33.706 19.35 114.673 19.35 114.673h63.043s-7.8-60.478-51.183-107.811c-18.409-20.078-30.914-26.76-43.097-48.395z" fill="url(#linear-gradient-10)"/><path d="m142.814 483.352s26.06-96.086 56.115-164.555a2.025 2.025 0 0 0 -3.4-2.129c-7.423 8.686-18.968 20.642-36.169 34.953-58.563 48.72-55.836 102.716-55.836 102.716 9.726 13.363 22.099 23.826 39.29 29.015z" fill="url(#linear-gradient-11)"/><path d="m27.39 491.1h142.7s-12.951-.68-22.665-18.488c0 0-6.731-13.895-31.292-8.971 0 0-.277-21.789-30.227-20.979 0 0-2.542-21.19-27.668-25.974a23.115 23.115 0 0 0 -27.378 21.121s-30.752 14.862-20.416 41.711a18.146 18.146 0 0 0 16.946 11.58z" fill="url(#linear-gradient-12)"/><path d="m225.668 212.841h-15.551v-36.547c5.754-.98 11.106-.555 15.551 3.037z" fill="url(#linear-gradient-13)"/><path d="m185.639 212.841h-15.551v-44.364c6.2-1 11.572-.355 15.551 3.037z" fill="url(#linear-gradient-14)"/><path d="m250.146 149.528h15.551v63.313h-15.551z" fill="url(#linear-gradient-15)"/><path d="m268.909 226.517h-102.033c-11.54-.282-11.594-17.248 0-17.545h102.033c11.54.282 11.591 17.248 0 17.545z" fill="url(#linear-gradient-16)"/><path d="m137.145 228.5s-33.082 6.242-16.229 43.069c0 0-11.859 11.859 5.618 34.33 4.369 5.617 6.28 12.366 6.69 19.33l24.519-41.177s19.973-6.241 19.349-33.081c0 0 17.948-7.918 11.124-31.036-8.038-20.804-41.777-28.968-51.071 8.565z" fill="url(#linear-gradient-17)"/><path d="m88.053 114.321s5.279 6.668 2.47 14.55c0 0 20.457-3.635 27.23 11.252 2.483 5.977 8.356 8.386 13.962 10.6a2.268 2.268 0 0 1 -.891 4.354h-92.81c-13.423 0-24.437-11.193-23.59-24.59.53-16.735 16.6-19.054 16.931-18.671 11.805-19.39 42.382-23.102 56.698 2.505z" fill="url(#linear-gradient-18)"/><path d="m457.189 11.233c-22.947-10.074-39.325 15.672-39.325 15.672s-22.618-20.149-37.73 0a64.02 64.02 0 0 1 -23.1 19.212 2.266 2.266 0 0 0 1.013 4.3h73.4s22.668-23.02 45.335-1.679c-.004-.005 3.355-27.43-19.593-37.505z" fill="url(#linear-gradient-19)"/><path d="m127.49 77.564c-5.144-34.245-70.13-40.538-78.781 2.4-24.565 7.811-17.354 31.845-17.354 31.845 12.529-11.606 23.85-2.051 23.85-2.051s19.359-11.114 32.848 4.559c3-10.214 19.609-6.113 19.609-6.113h55.279c-2.241-33.166-35.451-30.64-35.451-30.64z" fill="url(#linear-gradient-20)"/><path d="m114.574 277.855a3.771 3.771 0 0 1 -2.989-6c3.557-4.7 13.391-12.264 25.141-7.214 4.491 2.025 1.606 8.755-2.962 6.89-9.244-3.972-15.928 4.5-16.208 4.863a3.761 3.761 0 0 1 -2.982 1.461z" fill="url(#linear-gradient-21)"/><g fill="#fff"><path d="m147.839 418.281a3.751 3.751 0 0 0 -4.883 2.07l-5.786 14.294a3.75 3.75 0 0 0 6.952 2.815l5.786-14.295a3.751 3.751 0 0 0 -2.069-4.884z"/><path d="m130.387 419.026a3.747 3.747 0 0 0 -4.839 2.168l-2.723 7.148a3.75 3.75 0 0 0 7.009 2.67l2.723-7.148a3.748 3.748 0 0 0 -2.17-4.838z"/><path d="m162.935 375.955a3.751 3.751 0 0 0 -4.953 1.9l-6.082 13.608a3.75 3.75 0 1 0 6.848 3.058l6.079-13.613a3.75 3.75 0 0 0 -1.892-4.953z"/><path d="m137.169 397.929a3.753 3.753 0 0 0 4.98-1.822l4.424-9.529a3.75 3.75 0 1 0 -6.8-3.158l-4.425 9.529a3.75 3.75 0 0 0 1.821 4.98z"/><path d="m381.344 257.884a3.75 3.75 0 0 0 -5.212.976c-3.771 6.011-9.724 7.611-6.281 12.231a3.749 3.749 0 0 0 5.3.183 57.859 57.859 0 0 0 7.171-8.178 3.749 3.749 0 0 0 -.978-5.212z"/><path d="m358.4 285.658c3.77-3.168-.848-8.868-4.729-5.82l-10.162 8.256c-3.775 3.175.86 8.864 4.73 5.82z"/><path d="m360.549 293.767-9.315 9.577a3.749 3.749 0 1 0 5.376 5.228l9.315-9.572c3.401-3.532-1.94-8.736-5.376-5.233z"/><path d="m332.161 313.008c3.73-3.213-.957-8.857-4.8-5.762-.337.281-8.322 6.976-13.36 14.894a3.75 3.75 0 0 0 6.327 4.027c4.398-6.913 11.76-13.099 11.833-13.159z"/><path d="m337.085 319.649a111.568 111.568 0 0 0 -14.479 17.319c-2.65 4.137 3.433 8.216 6.248 4.149a105.656 105.656 0 0 1 13.351-15.987c3.54-3.418-1.456-8.788-5.12-5.481z"/><path d="m270.938 382.057a3.754 3.754 0 0 0 5.011-1.737 151.169 151.169 0 0 1 12.444-20.236 3.75 3.75 0 1 0 -6.024-4.467 155.914 155.914 0 0 0 -13.169 21.429 3.75 3.75 0 0 0 1.738 5.011z"/><path d="m294.186 371.606a3.749 3.749 0 0 0 -5.2 1.04c-6.583 9.875-11.484 25.931-11.689 26.61a3.75 3.75 0 1 0 7.178 2.173c.047-.157 4.789-15.679 10.751-24.622a3.75 3.75 0 0 0 -1.04-5.201z"/><path d="m313.956 371.2a3.75 3.75 0 0 0 -5.129 1.35c-6.123 10.5-9.567 23.9-9.71 24.464a3.75 3.75 0 0 0 7.269 1.847c.033-.128 3.338-12.964 8.919-22.532a3.751 3.751 0 0 0 -1.349-5.129z"/><path d="m262.554 419.9a3.746 3.746 0 0 0 -4.848 2.148c-.249.646-6.132 15.97-8.613 29.472a3.75 3.75 0 0 0 7.377 1.356c2.351-12.8 8.174-27.976 8.233-28.128a3.75 3.75 0 0 0 -2.149-4.848z"/><path d="m279.855 430.96a3.748 3.748 0 0 0 -4.751 2.356c-.3.878-7.251 21.68-7.531 36.218-.013 4.918 7.316 5.081 7.5.145.257-13.377 7.071-33.764 7.14-33.968a3.752 3.752 0 0 0 -2.358-4.751z"/><path d="m299.227 428.978a3.75 3.75 0 0 0 -4.412 2.942c-.171.853-4.169 21.053-3.046 33.407a3.75 3.75 0 1 0 7.469-.68c-1.024-11.267 2.892-31.058 2.931-31.256a3.75 3.75 0 0 0 -2.942-4.413z"/><path d="m441.875 428.16a179.253 179.253 0 0 0 -4.461-18.294c-1.48-4.693-8.516-2.613-7.188 2.14a176.29 176.29 0 0 1 4.236 17.289c.838 4.871 8.079 3.739 7.413-1.135z"/><path d="m455.8 434.2a3.75 3.75 0 0 0 3.222-4.212c-.722-5.418-4.857-14.554-5.326-15.578-2.125-4.444-8.8-1.4-6.818 3.123 1.144 2.5 4.221 9.786 4.709 13.445a3.756 3.756 0 0 0 4.213 3.222z"/><path d="m440.105 446.371a3.753 3.753 0 0 0 -2.675 4.578 64.12 64.12 0 0 1 1.594 15.382 3.75 3.75 0 0 0 7.5.111 70.4 70.4 0 0 0 -1.841-17.4 3.75 3.75 0 0 0 -4.578-2.671z"/><path d="m455.565 445.166a3.75 3.75 0 0 0 -3.292 4.158c.016.142 1.647 14.271 1.647 22.648a3.75 3.75 0 0 0 7.5 0c0-8.814-1.628-22.918-1.7-23.514a3.749 3.749 0 0 0 -4.155-3.292z"/><path d="m476.453 459.99c-1.043-4.809-8.237-3.392-7.356 1.465.02.1 1.946 9.812 2.622 16.693a3.75 3.75 0 1 0 7.464-.733c-.713-7.254-2.648-17.015-2.73-17.425z"/><path d="m296.906 347.227c5.38-.092 5.379-8.095 0-8.186-5.379.092-5.378 8.095 0 8.186z"/></g><path d="m170.088 168.477 15.551 3.037v-21.986h-15.551z" fill="url(#linear-gradient-22)"/><path d="m210.117 176.294 15.551 3.037v-29.803h-15.551z" fill="url(#linear-gradient-23)"/><path d="m295.315 149.167 19.492 5.32v-33.166h-19.492z" fill="url(#linear-gradient-24)"/><path d="m295.181 51.517s-47.853-1.317-64.319 39.763l87.962 14.578c14.8-4.615 22.784-17.525 26.529-35.592-20.647-19.561-50.172-18.749-50.172-18.749z" fill="url(#linear-gradient-25)"/><path d="m225.793 113.27c45.61 10.883 91.887 10.585 138.776 0-1.84-20.243-9.561-33.847-19.221-43-10.091 22.645-45 21.013-45 21.013h-69.476a77.621 77.621 0 0 0 -5.079 21.987z" fill="url(#linear-gradient-26)"/><path d="m365.7 123.985h-141.037a8.773 8.773 0 0 1 0-17.545h141.037c11.526.277 11.6 17.246 0 17.545z" fill="url(#linear-gradient-27)"/><path d="m217.893 95.807s-39.555-1.087-49.215 35.047l66.479 7.05c11.277-8.057 17.234-18.352 15.1-32.051-14.621-10.533-32.364-10.046-32.364-10.046z" fill="url(#linear-gradient-28)"/><path d="m168.682 130.855a61.564 61.564 0 0 0 -1.806 10.355c33.535 8 67.559 7.783 102.033 0-1.63-17.933-9.536-28.784-18.654-35.352-6.635 24.517-34.364 25-34.364 25z" fill="url(#linear-gradient-29)"/><path d="m268.909 158.756h-102.033c-11.54-.282-11.594-17.248 0-17.546h102.033c11.54.282 11.591 17.248 0 17.546z" fill="url(#linear-gradient-30)"/></svg>