<svg id="flat" height="512" viewBox="0 0 340 340" width="512" xmlns="http://www.w3.org/2000/svg"><path d="m195.814 58s-15.514-22.748-42.662-9.585c0 0-8.95-20.549-30.131-11.6s-14.7 36.993-14.7 36.993l31.755 41.325 31.573-1.348z" fill="#3f536b"/><path d="m127.794 127.208h-117.794s25.907-5.967 34.559-24.165c0 0 4.475-14.321 15.513-17.9s20.884 7.714 20.884 7.714 5.506-22.63 27.365-23.824 38.268 16.409 41.848 39.977z" fill="#8294af"/><g fill="#acd1e5"><path d="m10 299.641a4 4 0 0 0 -4 4v1.81a4 4 0 0 0 8 0v-1.81a4 4 0 0 0 -4-4z"/><path d="m10 261.284a4 4 0 0 0 -4 4v21.563a4 4 0 0 0 8 0v-21.563a4 4 0 0 0 -4-4z"/><path d="m10 172.178a4 4 0 0 0 -4 4v13.946a4 4 0 0 0 8 0v-13.946a4 4 0 0 0 -4-4z"/><path d="m90 267.918a4 4 0 0 0 -4 4v26.123a4 4 0 0 0 8 0v-26.123a4 4 0 0 0 -4-4z"/><path d="m90 206.364a4 4 0 0 0 -4 4v5.806a4 4 0 0 0 8 0v-5.806a4 4 0 0 0 -4-4z"/><path d="m90 172.178a4 4 0 0 0 -4 4v16.54a4 4 0 0 0 8 0v-16.54a4 4 0 0 0 -4-4z"/><path d="m330 271.235a4 4 0 0 0 -4 4v22.806a4 4 0 0 0 8 0v-22.806a4 4 0 0 0 -4-4z"/><path d="m330 172.178a4 4 0 0 0 -4 4v16.54a4 4 0 0 0 8 0v-16.54a4 4 0 0 0 -4-4z"/><path d="m170 264.392a4 4 0 0 0 -4 4v37.059a4 4 0 0 0 8 0v-37.059a4 4 0 0 0 -4-4z"/><path d="m170 172.178a4 4 0 0 0 -4 4v18.2a4 4 0 0 0 8 0v-18.2a4 4 0 0 0 -4-4z"/><path d="m250 274.138a4 4 0 0 0 -4 4v27.313a4 4 0 0 0 8 0v-27.313a4 4 0 0 0 -4-4z"/><path d="m250 172.178a4 4 0 0 0 -4 4v18.2a4 4 0 0 0 8 0v-18.2a4 4 0 0 0 -4-4z"/><path d="m50.1 215.878a4 4 0 0 0 -4 4v31.929a4 4 0 0 0 8 0v-31.929a4 4 0 0 0 -4-4z"/><path d="m130.1 221.891a4 4 0 0 0 -4 4v19.7a4 4 0 1 0 8 0v-19.7a4 4 0 0 0 -4-4z"/><path d="m210.1 262.216a4 4 0 0 0 -4 4v4.354a4 4 0 0 0 8 0v-4.354a4 4 0 0 0 -4-4z"/><path d="m210.1 219.2a4 4 0 0 0 -4 4v21.563a4 4 0 0 0 8 0v-21.563a4 4 0 0 0 -4-4z"/><path d="m290.1 219.2a4 4 0 0 0 -4 4v16.794a4 4 0 0 0 8 0v-16.794a4 4 0 0 0 -4-4z"/></g><path d="m127.794 127.208 22.375-18.2a58.952 58.952 0 0 0 -3.324-12.557c-8.214 1.971-16.288 5.569-23.642 19.558-1.762 3.351-9.034 9.513-13.681 11.2z" fill="#3f536b"/><path d="m108.321 137.992h218.5a18.768 18.768 0 0 0 -17.66-11.773s-9.349-20.431-29.087-16.968c0 0 0-41.207-49.864-39.129 0 0-8.657-21.469-35.32-15.929 0 0-17.661 4.848-15.583 27.7 0 0-24.239 1.039-21.815 27.356 0 0-17.406-4.261-25.831 10.614a29.051 29.051 0 0 1 -6.953 8.1 65.278 65.278 0 0 1 -16.387 10.029z" fill="#8294af"/></svg>