<svg id="Flat" height="512" viewBox="0 0 340 340" width="512" xmlns="http://www.w3.org/2000/svg"><path d="m53.6 227.144q-2.286 0-4.606-.213a45.583 45.583 0 0 1 -18.745-6.031 4 4 0 1 1 4.008-6.924 37.633 37.633 0 0 0 15.472 4.992c18.908 1.749 36.1-9.529 40.838-26.827 3.8-13.854 4.316-33.884 1.153-44.65a4 4 0 0 1 7.676-2.256c3.576 12.171 3.086 33.7-1.114 49.022-5.382 19.615-23.758 32.886-44.682 32.887z" fill="#c3cc6e"/><path d="m42.708 234.662a40.035 40.035 0 0 0 -2.248-12.406 17.109 17.109 0 0 0 -3.426-6.049 13.041 13.041 0 0 0 -3.334-2.557c-5.414-3.317-13.055-10.491-13.055-26.126v-89.374l-13.928-8.705v99.813a37.642 37.642 0 0 0 19.669 29.768c7.7 3.875 9.174 12.514 9.539 16.132.36 3.642.454 7.4.475 11.2s-.036 7.646.016 11.548a2.8 2.8 0 0 0 5.6.068v-.006c.284-7.568 1.046-15.277.692-23.306z" fill="#7e893d"/><path d="m88.211 247.224a14.125 14.125 0 0 1 -1.672-.082 4 4 0 0 1 .967-7.941c.372.037 7.656.689 14.738-6.094 7.44-7.127 15.8-23.722 13.381-62.307a4 4 0 1 1 7.985-.5c2.111 33.662-3.3 56.815-16.075 68.815a28.47 28.47 0 0 1 -19.324 8.109z" fill="#c3cc6e"/><path d="m313.3 155.918a119.439 119.439 0 0 0 .307-25.293l-11.954 2.242c.609 16.353-1.688 28.454-5.473 37.334-12.458 29.228-40.262 30.105-58.651 10.561a31.163 31.163 0 0 1 -5.756-8.23l-9.723 9.509a51.889 51.889 0 0 0 28.577 24.719 43.873 43.873 0 0 0 32.343-1.043c10.516-4.58 17.546-12.46 22.22-21.44.049 1.3.1 2.6.156 3.9.6 13.285 1.673 26.507 2.881 39.686a2.937 2.937 0 0 0 3.709 2.557 3 3 0 0 0 2.127-3.12c-.846-13.131-1.554-26.247-1.79-39.341-.109-6.163-.113-12.323.034-18.466.108-4.537.463-9.069.993-13.575z" fill="#7e893d"/><path d="m78.3 147.314-13.66-5.948v76.286s.984 25.843 21.792 29.88a18.55 18.55 0 0 0 16.98-5.172c.066-.069.131-.139.2-.21a2.873 2.873 0 0 0 -2.808-4.726 16.249 16.249 0 0 1 -8.412-.219 17.84 17.84 0 0 1 -9.2-6.385 22.776 22.776 0 0 1 -4.892-13.775z" fill="#7e893d"/><path d="m272.675 121.9-.769 137.947v.153a2.433 2.433 0 0 1 -.019.284c-.005.045-.02.354-.025.556 0 .234-.01.466 0 .7a13.858 13.858 0 0 0 .1 1.409 10.563 10.563 0 0 0 .567 2.5 5.787 5.787 0 0 0 .915 1.624 3.618 3.618 0 0 0 1.128.75l.6.287a4.707 4.707 0 0 1 -3.592 8.687 12.989 12.989 0 0 1 -5.075-3.223 15.045 15.045 0 0 1 -2.9-4.7 20.039 20.039 0 0 1 -1.172-4.712c-.107-.772-.166-1.531-.2-2.3-.022-.38-.016-.768-.021-1.153.009-.418.009-.728.053-1.3l-.02.437-.762-137.946a5.6 5.6 0 0 1 11.192-.073z" fill="#c3cc6e"/><path d="m20.646 117.307v-19.157l-13.929-8.705v19.017a29.035 29.035 0 0 0 13.929 8.845z" fill="#42493e"/><path d="m162.473 277.967s-.864 15.347-18.234 25.661-21.795 26.272-21.795 26.272l21.264-.4s25.367-8 18.765-51.533z" fill="#824561"/><path d="m190.693 273.448s-1.041 10.935 8.31 20.7a32.941 32.941 0 0 0 7.469 5.716c5.944 3.407 22.709 14.276 25.3 29.8h-23.417s-26.35-15.612-17.662-56.216z" fill="#824561"/><path d="m125.744 149.968s-2.6 32.965 37.014 39.327l-3.738 39.038a37.8 37.8 0 0 0 -18.545-26.314s-32.659-14.459-28.9-52.051z" fill="#824561"/><path d="m142.574 137.623s16.446 12.946 16.446 45.837v112.316s-.35 26.481-18.545 33.885h67.88s-15.745-14.99-15.745-42.282v-55.805a39.967 39.967 0 0 1 19.657-34.708q.725-.419 1.485-.826s39.04-20.978 34.141-58.417v-7h-15.393s7.185 44.4-39.888 53.884v-47.933z" fill="#ce6581"/><path d="m247.893 137.623v-7h-15.393a54.065 54.065 0 0 1 -3.852 27.43 43.447 43.447 0 0 0 9.277-3.31 6.98 6.98 0 0 1 6.377.235q1.165.633 2.443 1.245a48.035 48.035 0 0 0 1.148-18.6z" fill="#824561"/><path d="m156.811 163.885a66.852 66.852 0 0 0 15.715 1.9 61.21 61.21 0 0 0 20.084-3.327v-25.884l-50.036 1.049s9.755 7.696 14.237 26.262z" fill="#824561"/><path d="m166.85 14.967s-34.52-13.541-69.9 12.233c0 0-41.494-8.3-62.023 24.9 0 0-2.761-.952-8.97 1.63a35.856 35.856 0 0 0 -17.641 16.156s-8.216 24.829 26.023 36.014c0 0-10.71 43.707 38.376 43.411 0 0 13.8 7.665 29.09-3.692 0 0 19.777 14.83 45.984-.9 0 0 29.789 17.048 57.732-5.37 0 0 14.848 13.79 36.251-3.245 0 0 21.952 24.922 54.711.462 0 0 21.3 3.721 24.5-17.244 6.707-5.465 12.824-11.793 14.012-21.745a31.768 31.768 0 0 0 -4.367-9.675s9.609-44.989-72.07-56.782c.003.008-19.189-33.188-91.708-16.153z" fill="#878e73"/><g fill="#42493e"><path d="m59.976 87.719a11.648 11.648 0 0 0 3.9 3.041 16.444 16.444 0 0 0 4.273 1.327 21.828 21.828 0 0 0 2.972.306 17.75 17.75 0 0 0 .92 3.565 7.148 7.148 0 0 0 1.053 1.524 15.044 15.044 0 0 0 12.842 5.434c1.276-.1 2.546-.228 3.651-.379a11.851 11.851 0 0 1 8.1 1.825c2.936 1.926 7.522 4.178 12.868 3.742 10.065-.82 15.835-8.33 17.55-11.23a2.7 2.7 0 0 0 -4.389-3.111l-.015.018c-1.838 2.143-10.811 6.84-13.284 6.64-9.4-.759-10.562-8.884-17.563-6.876 0 0-6.716 2.912-9.974 1.44s-3.08-6.885-3.08-6.885-.14-1.367-.175-1.525a4.149 4.149 0 0 0 -4.94-3.165 23.906 23.906 0 0 1 -5.558.6 6.618 6.618 0 0 1 -3.869-1.1 5.769 5.769 0 0 1 -1.825-3.874 20.3 20.3 0 0 1 .175-5.86l.035-.224a2.066 2.066 0 0 0 -3.885-1.252 38.591 38.591 0 0 0 -2.184 7.379c-.114 1.35-.006 5.743 2.402 8.64z"/><path d="m133.872 64.561a12.093 12.093 0 0 0 5 2.545 22.27 22.27 0 0 0 10.409.1 41.386 41.386 0 0 0 5.458-1.535c.394.521 3.72 4.391 5.156 5.69a27.9 27.9 0 0 0 10.367 6.147 20.68 20.68 0 0 0 12.76-.166 27.382 27.382 0 0 0 7.935-4.342c.5.2 1 .4 1.51.584a37.2 37.2 0 0 0 4.733 1.336 22.385 22.385 0 0 0 10.35 0 13.6 13.6 0 0 0 8.506-6.618 22.807 22.807 0 0 0 2.57-9.347 2 2 0 0 0 -3.942-.619l-.008.033a18.237 18.237 0 0 1 -3.025 7.086 8.682 8.682 0 0 1 -5.448 3.11c-6.134 1.325-13.5-4.514-13.638-4.624a3.664 3.664 0 0 0 -4.511-.141l-.864.634a20.622 20.622 0 0 1 -7.018 4.373c-2.426.817-4.964 1.157-7.266.1a28.811 28.811 0 0 1 -12.586-10.949 4.568 4.568 0 0 0 -5.912-1.76h-.008c-2.322 1.381-4.6 3.037-7.1 3.424-11.614 1.79-14.564-6.619-14.736-7.243a17.207 17.207 0 0 1 -.4-1.816l-.028-.178a2.174 2.174 0 0 0 -4.321.369c.006.958.666 8.761 6.057 13.807z"/><path d="m227.922 93.092a20.991 20.991 0 0 0 1.761 2.374 17.851 17.851 0 0 0 4.749 3.978 14.84 14.84 0 0 0 6.374 1.96 16.333 16.333 0 0 0 6.6-.884c1.25-.414 4.056-2.415 6.064-3.921a4.916 4.916 0 0 1 4.857-.607 32.1 32.1 0 0 0 5.99 2.061 19.544 19.544 0 0 0 6.7-.335 17.506 17.506 0 0 0 6.332-2.889 19.989 19.989 0 0 0 2.56-2.246l1.166-1.421a3.929 3.929 0 0 1 4-1.32 24.27 24.27 0 0 0 4.03.541 15.869 15.869 0 0 0 10.8-4.835 13.707 13.707 0 0 0 2.987-5.578 2.4 2.4 0 0 0 -1.206-2.756 2.49 2.49 0 0 0 -3.15.859l-.037.053a10.7 10.7 0 0 1 -2.819 2.874 6.426 6.426 0 0 1 -3.388 1.286 38.433 38.433 0 0 1 -7.645-.637 9.67 9.67 0 0 0 -3.275-.348 4.474 4.474 0 0 0 -2.807 1.649c-2.164 2.333-3.125 5.227-10.479 6.253-7.334 1.022-9.4-2.852-14.486-2.069a8.18 8.18 0 0 0 -3.883 2.1 55.98 55.98 0 0 1 -5.21 3.708c-2.348 1.086-4.737 1.55-7.057.394a21.311 21.311 0 0 1 -6.821-5.447 2.454 2.454 0 0 0 -3.115-.619 2.569 2.569 0 0 0 -.956 3.335 20.044 20.044 0 0 0 1.364 2.487z"/><path d="m335 97.585c-3.675 9.662-11.947 11.289-16.9 11.331a6.413 6.413 0 0 0 -5.54 3.235c-4.131 7.3-11.121 7.59-14.947 7.107a6.23 6.23 0 0 0 -4.922 1.549c-17.5 15.508-36.27 6.786-44.263 1.713a10.417 10.417 0 0 0 -8.437-1.187c-11.944 3.4-20.812-2.232-25.538-6.567a4.447 4.447 0 0 0 -6.7.806 38.756 38.756 0 0 1 -33.077 17.719c-17.592 0-26.887-6.413-31.154-10.735a4.787 4.787 0 0 0 -6.494-.194c-10.749 9.814-22.641 7.017-28.67 4.546a4.722 4.722 0 0 0 -5.821 1.8c-9.068 14.62-32.7 10.958-32.7 10.958-28.28-3.085-29.36-27.2-28.514-37.437a4.233 4.233 0 0 0 -4.228-4.573h-2.526a27.615 27.615 0 0 1 -18.506-6.845c-7.117-6.4-8.386-14.328-7.741-20.924a38.733 38.733 0 0 0 -1.722 3.607 29.812 29.812 0 0 0 -1.912 5.848c-1.724 10.418 3.48 25.482 27.565 29.258 0 0-9.286 43.816 39.8 43.521 0 0 14.413 8.735 29.7-2.621 0 0 20.092 15.287 46.3-.437 0 0 29.276 16.3 57.219-6.115 0 0 14.851 13.54 36.254-3.494 0 0 22.713 24.023 55.472-.437 0 0 23.437 3.058 26.644-17.908.001-.003 15.193-7.757 11.358-23.524z"/></g></svg>