<svg id="flat" height="512" viewBox="0 0 340 340" width="512" xmlns="http://www.w3.org/2000/svg"><path d="m301.37 18.845s30.365-1.168 28.877 32.952a8.22 8.22 0 0 1 -8.229 7.821h-77.618s11.245-42.15 56.97-40.773z" fill="#395787"/><path d="m286.24 91.98 41.4 219.759a7.973 7.973 0 0 1 -7.835 9.449h-75.281c5.048-61.837 27.191-142.437 41.716-229.208z" fill="#2f4a70"/><path d="m24.206 313.235 30.652-221.255h231.382l-30.387 219.34a11.437 11.437 0 0 1 -11.329 9.868h-213.391a6.994 6.994 0 0 1 -6.927-7.953z" fill="#63a7ea"/><path d="m9.856 295.413 37.231-168.3c75.227-3.729 148.818-3.481 227.718 0l-33.414 167.611a10.981 10.981 0 0 1 -10.722 8.608h-214.453a6.513 6.513 0 0 1 -6.36-7.919z" fill="#faffff"/><path d="m274.805 127.113c-78.9-3.481-152.491-3.729-227.718 0l-6.736 30.446c43.22 5.817 143.582 24.344 212.543 79.464z" fill="#e4ffff"/><path d="m278.468 127.113 7.772-35.133h-231.382z" fill="#63a7ea"/><path d="m47.087 127.113s-40.87-17.567-22.851-72.23c0 0 9.814-32.107 45.539-36.038h231.6c-35.725 3.931-45.539 36.038-45.539 36.038-18.019 54.663 18.974 72.23 18.974 72.23z" fill="#b7cdf9"/><path d="m148.278 210.682h76.737s3.554-18.578-15.347-18.417c0 0-2.585-17.771-18.9-17.771s-22.294 15.833-22.294 15.833-17.935-.808-20.196 20.355z" fill="#6278af"/><g fill="#9cbbef"><path d="m143.9 268.534a3.462 3.462 0 0 1 -.933-.128 3.5 3.5 0 0 1 -2.442-4.305l2.9-10.511a3.5 3.5 0 0 1 6.748 1.863l-2.9 10.511a3.5 3.5 0 0 1 -3.373 2.57z"/><path d="m151.963 239.322a3.5 3.5 0 0 1 -3.376-4.432l2.316-8.39a3.5 3.5 0 0 1 6.748 1.863l-2.316 8.39a3.5 3.5 0 0 1 -3.372 2.569z"/><path d="m168.4 255.541a3.462 3.462 0 0 1 -.933-.128 3.5 3.5 0 0 1 -2.443-4.305l2.772-10.037a3.5 3.5 0 0 1 6.748 1.863l-2.771 10.037a3.5 3.5 0 0 1 -3.373 2.57z"/><path d="m185.725 268.534a3.506 3.506 0 0 1 -3.376-4.433l2.334-8.453a3.5 3.5 0 0 1 6.748 1.863l-2.334 8.453a3.5 3.5 0 0 1 -3.372 2.57z"/><path d="m193.1 241.835a3.506 3.506 0 0 1 -3.376-4.433l3.01-10.9a3.5 3.5 0 0 1 6.748 1.863l-3.01 10.9a3.5 3.5 0 0 1 -3.372 2.57z"/><path d="m210.943 252.943a3.5 3.5 0 0 1 -3.376-4.432l2.871-10.4a3.5 3.5 0 1 1 6.748 1.863l-2.871 10.4a3.5 3.5 0 0 1 -3.372 2.569z"/></g><path d="m147.241 165.335h-67.491a15.369 15.369 0 0 0 -15.1 12.125l-17.022 76.95a15.464 15.464 0 0 0 15.1 18.8h49.182a3.5 3.5 0 1 0 0-7h-25.4l6.4-28.949h23.79a3.5 3.5 0 0 0 0-7h-22.236l5.842-26.408h25.125a3.5 3.5 0 1 0 0-7h-23.577l5.425-24.523h39.962a3.5 3.5 0 0 0 0-7zm-67.9 100.88h-16.613a8.465 8.465 0 0 1 -8.266-10.293l4.127-18.656h27.158zm7.959-35.949h-27.163l5.842-26.408h27.158zm7.39-33.408h-27.162l3.956-17.887a8.415 8.415 0 0 1 8.266-6.636h20.36z" fill="#60637c"/></svg>