<svg id="flat" height="512" viewBox="0 0 340 340" width="512" xmlns="http://www.w3.org/2000/svg"><path d="m180.973 74.194s-5 124.092-59 200.1c0 0 119.162-35.136 208.031-123.092 0 0 4.98-79.5-10.52-138.007-.003-.004-68.618 22.454-138.511 60.999z" fill="#ffb655"/><g fill="#98baf4"><path d="m18.443 127.7h136.357a2.841 2.841 0 0 0 2.811-2.381c1.6-9.773 4.855-46.3-35.642-46.631 0 0-.8-37.143-33.353-37.143-21.944 0-31.878 18.8-36.021 31.048a19.179 19.179 0 0 1 -11.495 11.983c-6.172 2.236-13.6 7.445-15.312 19.579a31.655 31.655 0 0 1 -9.052 18.389l-.231.222a2.851 2.851 0 0 0 1.938 4.934z"/><path d="m184.779 326.81h139.245a5.09 5.09 0 0 0 5.1-5.024c.126-10.193-2.309-32.7-25.693-36.933a18.2 18.2 0 0 1 -14.641-13.92c-2.542-11.41-9.872-25.933-30.751-25.933-34.379 0-38.748 44.192-38.748 44.192s-19.88-3.589-27.592 14.358a38.666 38.666 0 0 1 -9.913 14.028l-.286.248a5.1 5.1 0 0 0 3.279 8.984z"/><path d="m162.785 326.81h-4.11a3.5 3.5 0 0 1 0-7h4.11a3.5 3.5 0 1 1 0 7z"/></g><path d="m330 151.2.009-.151c-12.13.277-39.107-1.364-70.3-17.692 0 0 44.53-68.928 60.832-115.986q-.515-2.1-1.059-4.179s-63.5 10.5-138.508 61v.1a311.523 311.523 0 0 0 76.563 59.419s-43.056 74.879-134.348 138.822c-.406.586-.807 1.177-1.219 1.757 0 0 122.046-24.59 208.03-123.09z" fill="#f48d40"/><path d="m320.543 9.857a3.5 3.5 0 0 0 -4.4 2.273 450.509 450.509 0 0 1 -56.943 116.724c-44.539-22.234-75.29-56.628-75.6-56.978a3.5 3.5 0 0 0 -5.243 4.637c1.293 1.462 31.553 35.338 76.848 58.171-34.093 48.771-78.963 94.08-135.272 136.763-23.144 15.747-39.7 20.644-50.875 21.292a3.493 3.493 0 0 0 -1.176.051 39.076 39.076 0 0 1 -7-.365c-10.938-1.616-15.269-7.547-15.5-7.87-.049-.071-.111-.128-.164-.195s-.092-.136-.149-.2a20.106 20.106 0 0 1 -5.186-13.681c0-10.586 7.787-19.2 17.357-19.2 7.979 0 14.894 5.964 16.834 14.508v.009a32.885 32.885 0 0 1 -1.084 14.191 3.5 3.5 0 1 0 6.735 1.909c2.78-9.813 1.29-17.114 1.2-17.554 0-.015 0-.029 0-.044-2.649-11.787-12.386-20.019-23.677-20.019-13.43 0-24.357 11.752-24.357 26.2a27.1 27.1 0 0 0 6.87 18.233c.975 1.325 6.424 8.036 18.33 10.335.961.186 1.941.327 2.93.448-11.05 10.906-28.4 18.933-51.74 23.89a3.5 3.5 0 1 0 1.454 6.848c27.845-5.915 47.845-16.19 59.535-30.529 15.2-1.041 33.192-8.572 53.677-22.522.049-.033.1-.068.144-.1 48.986-37.132 90.209-77.182 122.502-119.042 34.4-44.58 60.043-92.957 76.223-143.787a3.5 3.5 0 0 0 -2.273-4.396z" fill="#4a4a60"/><path d="m330.066 147.7c-17.676-.329-36.066-4.225-54.666-11.58a3.5 3.5 0 1 0 -2.574 6.509c19.377 7.664 38.591 11.725 57.106 12.069h.068a3.5 3.5 0 0 0 .064-7z" fill="#4a4a60"/></svg>