<svg id="flat" height="512" viewBox="0 0 340 340" width="512" xmlns="http://www.w3.org/2000/svg"><path d="m140.107 56.91c-.814-18.3 4.319-32.008 14.557-41.239a45.935 45.935 0 0 1 4.277-1.837c18.259-6.792 30 1.665 36.785 10.365.057.073.114.146.17.22l2.341 13.25z" fill="#e08b8c"/><path d="m195.9 24.42a113.968 113.968 0 0 0 -32.643 7.253 6.647 6.647 0 0 1 -8.967-5.569 35.678 35.678 0 0 1 .38-10.432c-27.37 13.484-19.143 45.867-19.143 45.867l67.746-23.66a50.716 50.716 0 0 0 -7.373-13.459z" fill="#b76166"/><path d="m129.689 296.232a259.758 259.758 0 0 0 3.227 32.4h68.719s3.343-20.842 4.149-37.513z" fill="#ffcac0"/><path d="m166.594 328.636h7v-35.352l-7 .47z" fill="#e5837c"/><path d="m131.084 315.534 73.565-10.075c.491-4.743.911-9.7 1.135-14.336l-76.095 5.109s.273 8.835 1.395 19.302z" fill="#e5837c"/><path d="m193.582 75.7s21.5 54.874-5.762 66.623-36.876-26.523-29.22-45.931 34.982-20.692 34.982-20.692z" fill="#f48d40"/><path d="m169.117 43.217a128.762 128.762 0 0 0 -21.862 10.118s-24.891 17.581-38.649 33.365c-7.028 8.063-2.778 18.38 7.9 17.759 26.522-1.542 68.4-8.3 103.173-33.181 6.942-4.967 14.476-9.129 20.586-15.8a12.089 12.089 0 0 0 -7.915-20.2 158.794 158.794 0 0 0 -63.233 7.939z" fill="#e08b8c"/><path d="m220.905 46.727c-37.635-8.294-72.886 6.294-73.647 6.612a158.333 158.333 0 0 0 -41.149 33.334 12.1 12.1 0 0 0 9.83 20.014c29.4-1.709 79.263-9.788 115.641-42.622 2.716-7.213-.552-11.7-3.852-14.23a17.356 17.356 0 0 0 -6.823-3.108z" fill="#b76166"/><path d="m191.722 136.321s24.435-9.478 33.145-13.727l-1.7-48.8a14.07 14.07 0 0 1 4.236-10.561l7.533-7.352a5.857 5.857 0 0 1 9.87 3.146c.647 3.881-.011 8.819-4.223 14.286l7.777 50.087a17.127 17.127 0 0 1 -8.265 17.4l-43.86 27.955a50.84 50.84 0 0 1 -4.513-32.434z" fill="#ffcac0"/><path d="m143.555 138.552-10.3-6.321s-6.619.083-14.545 11.161c0 0-17.291 24.929-26.261 49.677a16.8 16.8 0 0 0 3.716 17.431 102.864 102.864 0 0 0 25.386 18.878l-3.1 6.788a9.249 9.249 0 0 0 -11.1 8.061l-.544 5.048 12.218 2.685a12.022 12.022 0 0 0 13.3-6.295l6.381-12.556a12.021 12.021 0 0 0 -2.147-13.877l-22.259-22.632s9.129-14.279 19.429-20.834z" fill="#ffcac0"/><path d="m194.178 135.362-10.9.959-29-8.377-16.778 6.114s3.757 10.3-4.383 27.166a33.235 33.235 0 0 0 -2.576 8.041c-1.685 7.1-1.5 18.173 12.74 24.63v17.02a21.947 21.947 0 0 1 -2.892 10.9c-6.309 11.035-20.906 39.311-22.932 67.839a10.6 10.6 0 0 0 8.562 11.257 32.233 32.233 0 0 0 15.415-1.142 39.385 39.385 0 0 1 21.879-.666 32.305 32.305 0 0 0 17.214.075 39.33 39.33 0 0 1 18.886-.447 31.344 31.344 0 0 0 15.7-1.03 10.7 10.7 0 0 0 7.576-11.424c-1.523-13.6-7.239-41.53-28.686-62.67a22.1 22.1 0 0 1 -6.632-15.725v-13.3s16.17-3.058 15.865-19.979a35.626 35.626 0 0 0 -4.45-16.431c-3.751-6.805-4.608-22.81-4.608-22.81z" fill="#7aaeed"/><path d="m154.281 127.944-14.351 5.229-1.586 4.755c7.96 1.044 12.6-1.317 12.6-1.317l7.821-7.373z" fill="#b3b3b3"/><path d="m170.627 110.107 3.031 10.752a22.435 22.435 0 0 0 9.622 15.462s3.675 23.532-14.6 24.9c0 0-24.831.009-16.311-31.757 3.793-11.126 6.737-23.98 18.258-19.357z" fill="#ffcac0"/><path d="m173.838 109.362-1.149-14.622h-20.317v34.727a54.352 54.352 0 0 0 -1.432 7.144c6.8-3.054 9.133-9.85 9.89-15.068a4.232 4.232 0 0 1 6.026-3.215 40.708 40.708 0 0 0 6.807 2.531 32.5 32.5 0 0 1 .175-11.497z" fill="#e5837c"/><path d="m172.464 62.877a66 66 0 0 1 14.649-4.723c2.926-.574 8.013.307 8.013.307a11.706 11.706 0 0 1 5.9 10.179v27.477c0 14.932-16.416 24.357-29.095 16.47a26.509 26.509 0 0 1 -9.938-11.367l-.9-7.4z" fill="#ffcac0"/><path d="m159.537 94.482a38.239 38.239 0 0 0 2.46 6.734c15.058-9.1 17.253-24.193 17.131-31.544a8.564 8.564 0 0 1 4.07-7.511 27.482 27.482 0 0 1 11.92-3.686 11.84 11.84 0 0 0 -3.576-1.34c-.111-.022-.22-.049-.332-.068-.211-.036-.425-.058-.639-.082-.2-.022-.391-.042-.589-.053-.182-.012-.366-.018-.55-.021-.251 0-.5 0-.757.018-.148.007-.294.011-.442.024a11.987 11.987 0 0 0 -1.232.17 68.463 68.463 0 0 0 -14.286 4.416z" fill="#e5837c"/><path d="m201.023 95.192v-14.259h-36.066l-.056.139.954 5.1h4.239s2.87 9.216 12.12 9.216 11.39-5.333 11.39-5.333a10.039 10.039 0 0 0 7.419 5.137z" fill="#e5837c"/><path d="m130.805 94.73s13.22-21.377 41.91-33.191c0 0 4.727 18.554-13.117 36.162a14.218 14.218 0 0 0 -4 12.064 47.012 47.012 0 0 1 .037 13.847 17.314 17.314 0 0 1 -17.29 14.316c-5.373-.074-13.657.717-19.634 5.464a80.63 80.63 0 0 1 12.094-48.662z" fill="#ffb655"/><g fill="#4a4a60"><path d="m172.3 78.869h22.047s-.821 12.889-11.537 12.889-10.51-12.889-10.51-12.889z"/><path d="m194.349 78.869h17.285s-.644 12.889-9.046 12.889-8.239-12.889-8.239-12.889z"/><path d="m167.087 78.869h41.161v4.127h-41.161z"/></g><path d="m187.375 194.581c-12.1 1.605-20.288-1.606-20.288-1.606a38.731 38.731 0 0 1 -23.806.92v17.02c0 .119-.01.236-.012.355l44.106-6.48z" fill="#497fce"/></svg>