<svg id="flat" height="512" viewBox="0 0 340 340" width="512" xmlns="http://www.w3.org/2000/svg"><path d="m269.3 11.026 7.284 7.285a38.729 38.729 0 0 0 27.384 11.342h10.3v10.3a38.73 38.73 0 0 0 11.343 27.384l7.285 7.284-7.285 7.285a38.726 38.726 0 0 0 -11.343 27.383v10.3h-10.3a38.729 38.729 0 0 0 -27.384 11.342l-7.284 7.289-7.285-7.285a38.725 38.725 0 0 0 -27.383-11.342h-10.3v-10.3a38.722 38.722 0 0 0 -11.343-27.383l-7.289-7.287 7.284-7.284a38.726 38.726 0 0 0 11.343-27.384v-10.3h10.3a38.725 38.725 0 0 0 27.383-11.342z" fill="#f74f73"/><path d="m122.523 177.953s26.023 21.975 39.674 34.664c0 0-1.538-44.22-3.269-58.639l14.42-20.089s15.115 50.262 19.447 95.527a16.15 16.15 0 0 1 -17.937 17.629c-12.984-1.508-29.514-4.436-39.193-10.012 0 0-11.672-35.873-13.142-59.08z" fill="#e5837c"/><path d="m124.657 177.953 1.8-19.1s2.949-11.9-9.143-20.706l-18.653 20.7a39.877 39.877 0 0 0 -13.828-1.428c-4.6.45-7.914 2.366-11.4 5.407-11.3 9.863-41.349 39.425-61.665 84.326-3.291 7.272-1.46 15.878 3.176 22.375 3.6 5.041 33.076 25.787 33.076 25.787 11.1-.753 19.871-3.139 15.412-14.785-6.372-5.722-15.952-15.153-20.117-23.483 0 0 14.281-22.561 26.758-33.962 0 0 3.305 41.853 4.668 62.3l72.838 2.448a447.937 447.937 0 0 0 -7.846-57.965 30.5 30.5 0 0 1 -1.608-7.547q-.37-1.66-.76-3.332a274.956 274.956 0 0 0 -12.708-41.035z" fill="#ffcac0"/><path d="m46.471 288.088c-16.866-10.373-23.133-22.517-25.455-29.8a16.486 16.486 0 0 1 .575-11.46c10.909-25.648 37.186-55.904 51.569-71.019 9.548-10.034 16.979-10.217 21.224-8.93a7.726 7.726 0 0 0 7.936-2.315l3.525-3.919a3.462 3.462 0 0 1 5.223.093 28.474 28.474 0 0 0 14.369 8.925l1.017-10.81a27.571 27.571 0 0 0 -11.277-22.424l-17.036 19.952a40.106 40.106 0 0 0 -12.806-.84 22.225 22.225 0 0 0 -12.415 5.408c-11.318 9.878-43.5 40.508-63.811 85.4a22.38 22.38 0 0 0 2.133 22.218 110.005 110.005 0 0 0 35.792 32.172 10.6 10.6 0 0 1 5.492 9.261v5.193a13.78 13.78 0 0 0 13.78 13.78h2.505l.792-43.162s-2.577-2.052-6.172-5.28c-.1.443-.213.873-.333 1.289a11.177 11.177 0 0 1 -16.627 6.268z" fill="#e5837c"/><path d="m69.6 285.812 78.516-1.95a5.526 5.526 0 0 1 5.669 6.288 9.455 9.455 0 0 1 -3.308 5.584 8.938 8.938 0 0 0 -2.9 6.711v26.529h-78.766z" fill="#fc9f7a"/><path d="m132.281 97.728s-.337 12.158-11.55 27.591c-8.966 12.342-1.13 33.536-1.13 33.536a28.732 28.732 0 0 0 4.313 4.823 25.471 25.471 0 0 0 27.586 4.242l5.183-3.128q.512-.4 1.008-.822c7.35-6.309 15.546-17.276 21.554-36.332-.001 0-16.634-32.566-46.964-29.91z" fill="#ffcac0"/><path d="m132.281 97.728s-10.281 5.961-19.849 22.481a12.753 12.753 0 0 0 2.745 16.22q.358.294.751.574a25.944 25.944 0 0 0 3.679 21.848c-4.042-9.147.624-19.964 12.529-25.911a61.344 61.344 0 0 0 12.032-7.822 11.2 11.2 0 0 1 14.163-.166 55.593 55.593 0 0 0 18.428 9.8c.861-2.238 1.693-4.6 2.485-7.112 0-.002-16.633-32.568-46.963-29.912z" fill="#e5837c"/><path d="m149.58 106.8s-3.042 11.61-18.7 18.878c0 0 1.42-9.441-4.473-13.279s-12.178 4.829-12.178 4.829-11.726-9.194-4.734-21.461c7.967-13.977 22.782-11.042 22.782-11.042s9.895-19.987 33.74-8.665c0 0 14.188 5.786 23.693 16.936a25.683 25.683 0 0 0 15.845 8.937 26.842 26.842 0 0 0 3.595.263s-.279 12.58-13.7 12.58a14.992 14.992 0 0 0 9.923 4.472s-7.827 16.074-26.136 8.386a87.9 87.9 0 0 1 -29.657-20.834z" fill="#4a4a60"/><circle cx="269.296" cy="74.623" fill="#fff" r="32.262"/><path d="m99.78 191.036c-1.553-6.977-6.431-14.184-6.431-14.184s-4.879 7.207-6.431 14.184a6.881 6.881 0 0 0 .6 4.921 6.707 6.707 0 0 0 11.67 0 6.891 6.891 0 0 0 .592-4.921z" fill="#7fa0e2"/><path d="m140.92 148.526c-1.433-5.973-5.728-12.1-5.728-12.1s-4.09 6.263-5.325 12.28a5.919 5.919 0 0 0 .582 4.221 5.765 5.765 0 0 0 10.029-.166 5.921 5.921 0 0 0 .442-4.235z" fill="#7fa0e2"/><g fill="#e5837c"><path d="m158.073 143.807a2.99 2.99 0 0 1 -1.217-.259 40.131 40.131 0 0 1 -5.782-3.442 3 3 0 0 1 3.5-4.876 33.736 33.736 0 0 0 4.722 2.834 3 3 0 0 1 -1.22 5.743z"/><path d="m149.205 158.17a3 3 0 0 0 -3.257 5.039 26.749 26.749 0 0 1 5.547 4.7 25.852 25.852 0 0 0 5.171-3.138 31.251 31.251 0 0 0 -7.461-6.601z"/><path d="m114.274 223.438c-8.7.486-17.658-1.342-23.083-2.758a1.862 1.862 0 0 0 -1.86 3.041 19.146 19.146 0 0 0 26.126 3.09 1.86 1.86 0 0 0 -1.183-3.373z"/><path d="m74.976 218.452c-2.643 2.42-4.905 4.636-4.905 4.636-1.276 20.088-1.831 42.278-.468 62.724l17.115-.425c-5.173-18.871-7.031-52.356-7.573-65.213a2.488 2.488 0 0 0 -4.169-1.722z"/></g><path d="m68.811 328.974h19.263l-.829-12.04a9.118 9.118 0 0 1 6.924-9.482l22.614-5.549a1.477 1.477 0 0 0 -.359-2.91 224.629 224.629 0 0 1 -29.706-1.677v-11.929l-17.115.425z" fill="#e0625b"/><path d="m125.721 227.96c4.843 2.248 11.237 2.1 14.009 1.91q-.757-3.731-1.607-7.547c-4.277.781-8.552 1.333-11.716 1.685a2.088 2.088 0 0 0 -.686 3.952z" fill="#e5837c"/><path d="m123.742 260.162c-1.552-6.976-6.431-14.183-6.431-14.183s-4.878 7.207-6.431 14.183a6.893 6.893 0 0 0 .6 4.922 6.708 6.708 0 0 0 11.67 0 6.883 6.883 0 0 0 .592-4.922z" fill="#7fa0e2"/></svg>