<svg id="flat" height="512" viewBox="0 0 340 340" width="512" xmlns="http://www.w3.org/2000/svg"><path d="m23.75 238.819s22.452-5.781 33.208 17.343l-2.689 7.26s-26.62 2.151-30.519-24.603z" fill="#4d6d4f"/><path d="m51.177 290.983v-23.22a22.385 22.385 0 0 1 6.991-16.363c4.871-4.562 13.11-9.133 27.023-11.1 0 0 5.309 19.176-14.125 23.392a9.7 9.7 0 0 0 -7.655 9.466v17.827z" fill="#88a88a"/><path d="m129.686 238.819s22.452-5.781 33.207 17.343l-2.688 7.26s-26.62 2.151-30.519-24.603z" fill="#4d6d4f"/><path d="m157.112 290.983v-23.22a22.385 22.385 0 0 1 6.988-16.363c4.871-4.562 13.11-9.133 27.024-11.1 0 0 5.308 19.176-14.126 23.392a9.7 9.7 0 0 0 -7.654 9.466v17.827z" fill="#88a88a"/><path d="m238.94 238.819s22.452-5.781 33.207 17.343l-2.688 7.26s-26.62 2.151-30.519-24.603z" fill="#4d6d4f"/><path d="m266.366 290.983v-23.22a22.385 22.385 0 0 1 6.991-16.361c4.871-4.562 13.11-9.133 27.024-11.1 0 0 5.308 19.176-14.126 23.392a9.7 9.7 0 0 0 -7.654 9.466v17.827z" fill="#88a88a"/><path d="m153.843 53.776s15.135-43.776 53.435-43.776c21.544 0 34.1 12.257 40.956 22.981a31.474 31.474 0 0 0 23.38 14.645c11.06 1.045 25.753 6.095 37.282 23.138a63.928 63.928 0 0 0 11.9 12.55 2.315 2.315 0 0 1 -1.4 4.159h-138.99z" fill="#707ac1"/><path d="m18.424 87.473h181.351s-8.724-4.362-13.571-18.9c0 0-5.608-19.278-28.449-21.17a20.126 20.126 0 0 1 -17.021-12.409c-4.462-11.045-14.851-24.994-38.863-24.994-39.743 0-41.2 38.737-41.2 38.737s-23.791-7.084-34.407 21.663a28.422 28.422 0 0 1 -9.007 12.725l-.217.168a2.319 2.319 0 0 0 1.384 4.18z" fill="#9ba8dd"/><path d="m271.57 286.472c-13.981 0-25.876 8.017-34.512 16.435a24.536 24.536 0 0 1 -32.783 1.173c-10.563-8.83-24.742-17.608-39.371-17.608-13.981 0-25.876 8.017-34.513 16.435a24.536 24.536 0 0 1 -32.783 1.173c-10.562-8.83-24.741-17.608-39.371-17.608-21.7 0-37.894 19.467-44.692 29.934a37.526 37.526 0 0 0 -3.885 9.421 3.279 3.279 0 0 0 3.161 4.173h310.89a3.28 3.28 0 0 0 2.987-4.65 50.819 50.819 0 0 0 -5.816-9.772c-8.682-11.092-28.026-29.106-49.312-29.106z" fill="#d36a85"/><circle cx="54.771" cy="304.062" fill="#a04060" r="4.173"/><circle cx="41.732" cy="311.619" fill="#a04060" r="4.173"/><circle cx="164.569" cy="301.734" fill="#a04060" r="4.173"/><circle cx="145.187" cy="310.153" fill="#a04060" r="4.173"/><circle cx="160.394" cy="314.348" fill="#a04060" r="4.173"/><circle cx="269.253" cy="304.062" fill="#a04060" r="4.173"/><circle cx="256.222" cy="310.344" fill="#a04060" r="4.173"/><g fill="#adc9f2"><path d="m8.614 209.3a3.5 3.5 0 0 1 -3.5-3.5v-27.532a3.5 3.5 0 0 1 7 0v27.532a3.5 3.5 0 0 1 -3.5 3.5z"/><path d="m8.614 132.4a3.5 3.5 0 0 1 -3.5-3.5v-20.736a3.5 3.5 0 0 1 7 0v20.736a3.5 3.5 0 0 1 -3.5 3.5z"/><path d="m62.25 176.309a3.5 3.5 0 0 1 -3.5-3.5v-30.381a3.5 3.5 0 0 1 7 0v30.381a3.5 3.5 0 0 1 -3.5 3.5z"/><path d="m62.25 123.38a3.5 3.5 0 0 1 -3.5-3.5v-2.849a3.5 3.5 0 0 1 7 0v2.849a3.5 3.5 0 0 1 -3.5 3.5z"/><path d="m116.364 209.3a3.5 3.5 0 0 1 -3.5-3.5v-24.685a3.5 3.5 0 0 1 7 0v24.685a3.5 3.5 0 0 1 -3.5 3.5z"/><path d="m116.364 161.118a3.5 3.5 0 0 1 -3.5-3.5v-5.218a3.5 3.5 0 0 1 7 0v5.222a3.5 3.5 0 0 1 -3.5 3.496z"/><path d="m116.364 132.4a3.5 3.5 0 0 1 -3.5-3.5v-20.736a3.5 3.5 0 0 1 7 0v20.736a3.5 3.5 0 0 1 -3.5 3.5z"/><path d="m170 198.382a3.5 3.5 0 0 1 -3.5-3.5v-4.982a3.5 3.5 0 0 1 7 0v4.985a3.5 3.5 0 0 1 -3.5 3.497z"/><path d="m170 168.713a3.5 3.5 0 0 1 -3.5-3.5v-27.058a3.5 3.5 0 1 1 7 0v27.058a3.5 3.5 0 0 1 -3.5 3.5z"/><path d="m331.386 209.3a3.5 3.5 0 0 1 -3.5-3.5v-27.532a3.5 3.5 0 1 1 7 0v27.532a3.5 3.5 0 0 1 -3.5 3.5z"/><path d="m331.386 132.4a3.5 3.5 0 0 1 -3.5-3.5v-20.736a3.5 3.5 0 1 1 7 0v20.736a3.5 3.5 0 0 1 -3.5 3.5z"/><path d="m277.749 176.309a3.5 3.5 0 0 1 -3.5-3.5v-30.381a3.5 3.5 0 0 1 7 0v30.381a3.5 3.5 0 0 1 -3.5 3.5z"/><path d="m277.749 123.38a3.5 3.5 0 0 1 -3.5-3.5v-2.849a3.5 3.5 0 0 1 7 0v2.849a3.5 3.5 0 0 1 -3.5 3.5z"/><path d="m223.637 209.3a3.5 3.5 0 0 1 -3.5-3.5v-24.685a3.5 3.5 0 0 1 7 0v24.685a3.5 3.5 0 0 1 -3.5 3.5z"/><path d="m223.637 161.118a3.5 3.5 0 0 1 -3.5-3.5v-5.218a3.5 3.5 0 0 1 7 0v5.222a3.5 3.5 0 0 1 -3.5 3.496z"/><path d="m223.637 132.4a3.5 3.5 0 0 1 -3.5-3.5v-20.736a3.5 3.5 0 1 1 7 0v20.736a3.5 3.5 0 0 1 -3.5 3.5z"/></g></svg>