<svg id="flat" height="512" viewBox="0 0 340 340" width="512" xmlns="http://www.w3.org/2000/svg"><path d="m124.126 186.062s2.357 17.556 0 34.444l32.532-18.666s-12.232-12.142-11.791-33.254z" fill="#ffcac0"/><path d="m152.8 199.506s-44.182 13.639-46.606 62.279c0 0-2.2 41.7.245 68.166h71.778s-4.393-39.647-.889-65.222h14.222s0-43.989-17.581-60.155z" fill="#7fa0e2"/><path d="m144.867 168.585-20.741 17.477a149.189 149.189 0 0 1 1.04 16.587 43.091 43.091 0 0 0 22.122-17.371 50.563 50.563 0 0 1 -2.421-16.693z" fill="#e5837c"/><path d="m94.98 130.543s-2.448 24.95 1.827 41.791a24.646 24.646 0 0 0 7.126 12.312c4.076 3.692 10.556 6.932 20.171 5.121 21.479-4.047 20.763-21.181 20.763-21.181s10.6-.145 8.923-14.286l-4.324-29.47z" fill="#ffcac0"/><path d="m105.458 282.84c-.049 2.257-.091 4.624-.121 7.07h18.789l49.836-85.331a21.274 21.274 0 0 0 -11.977-5.691z" fill="#567aaf"/><path d="m134.965 155.955 6.951-30.333-46.936 4.921s-.394 4.025-.59 9.928a89.836 89.836 0 0 0 17.925-.221 7.791 7.791 0 0 1 7.683 4.4c2.15 4.364 6.542 10.15 14.967 11.305z" fill="#e5837c"/><path d="m73.733 120.787s2.482 16.963 50.061 11.792c0 0-2.9 13.032 11.171 23.376 0 0 2.483-8.482 10.344-8.482 0 0 5.792-.414 8.481 6.827a50.017 50.017 0 0 0 9.49-16.984c5.976-17.766-6.311-36.5-24.936-38.6a128.109 128.109 0 0 0 -14.136-.889h-22.116a44.9 44.9 0 0 1 -10.892-1.309c-5.883-1.47-13.768-4.545-18.71-10.9 0 0-7.24 20.687 13.033 28.754.001.002-2.859 5.011-11.79 6.415z" fill="#4a4a60"/><path d="m153.329 96.49h10.584v211.479h-10.584z" fill="#dae5ed" transform="matrix(.856 .517 -.517 .856 127.365 -52.879)"/><path d="m97.165 86.551c7.872 5.094 32.444 22.895 39.26 50.475a1.608 1.608 0 0 0 1.544 1.239c8.64.067 59.942 2.446 85.149 48.832a1.611 1.611 0 0 0 1.614.839c6.514-.825 40.954-4.076 63.688 15.772a1.618 1.618 0 0 0 2.7-1.193 188.571 188.571 0 0 0 -11.62-64.256 113 113 0 0 0 -103.2-72.772c-22.144-.478-49.159 3.7-78.971 18.256a1.618 1.618 0 0 0 -.164 2.808z" fill="#ffb655"/><path d="m110.076 154.711a3 3 0 0 1 -3-3v-1.229a3 3 0 0 1 6 0v1.229a3 3 0 0 1 -3 3z" fill="#e5837c"/><path d="m107.83 177.825a22.644 22.644 0 0 1 -4.825-.48 3 3 0 0 1 1.376-5.84 17.737 17.737 0 0 0 9.086-.63 3 3 0 1 1 2.116 5.614 22.13 22.13 0 0 1 -7.753 1.336z" fill="#e5837c"/><path d="m236.616 92.112a3.5 3.5 0 0 0 -2.845 4.05c2.585 14.791 4.852 39.755-2.279 64.892l6.49 2.747c7.789-26.735 5.415-53.219 2.684-68.844a3.5 3.5 0 0 0 -4.05-2.845z" fill="#f48d40"/><path d="m220.533 87.3a3.5 3.5 0 0 0 -1.412-6.856c-35.783 7.368-61.63 29.551-74.975 43.645l7 2.963c13.259-13.433 37.348-33.152 69.387-39.752z" fill="#f48d40"/><path d="m175.97 288.057c-15.415-2.87-37.809-2.051-37.809-2.051l-32.795 1.837c-.125 8.142-.134 17.287.141 26.046h61.882a21.021 21.021 0 0 0 9.325-2.314c-.423-6.953-.765-15.203-.744-23.518z" fill="#567aaf"/><g fill="#adc9f2"><path d="m260.79 308.584a3.5 3.5 0 0 0 -4.717 1.5l-9.5 18.356a3.5 3.5 0 1 0 6.217 3.217l9.5-18.356a3.5 3.5 0 0 0 -1.5-4.717z"/><path d="m291.388 249.446a3.5 3.5 0 0 0 -4.717 1.5l-14.785 28.576a3.5 3.5 0 1 0 6.217 3.217l14.785-28.577a3.5 3.5 0 0 0 -1.5-4.716z"/><path d="m308.72 215.948a3.5 3.5 0 0 0 -4.717 1.5l-2.12 4.1a3.5 3.5 0 1 0 6.217 3.216l2.12-4.1a3.5 3.5 0 0 0 -1.5-4.716z"/><path d="m330.792 173.289a3.5 3.5 0 0 0 -4.716 1.5l-13.841 26.751a3.5 3.5 0 1 0 6.217 3.217l13.84-26.751a3.5 3.5 0 0 0 -1.5-4.717z"/><path d="m306.6 314.281a3.5 3.5 0 0 0 -4.717 1.5l-6.5 12.562a3.5 3.5 0 1 0 6.217 3.216l6.5-12.559a3.5 3.5 0 0 0 -1.5-4.719z"/><path d="m330.792 267.524a3.5 3.5 0 0 0 -4.716 1.5l-10.328 19.962a3.5 3.5 0 1 0 6.216 3.216l10.328-19.962a3.5 3.5 0 0 0 -1.5-4.716z"/><path d="m313.735 115.119a3.5 3.5 0 0 0 4.717-1.5l13.84-26.751a3.5 3.5 0 1 0 -6.216-3.217l-13.841 26.749a3.5 3.5 0 0 0 1.5 4.719z"/><path d="m288.171 69.5a3.5 3.5 0 0 0 4.717-1.5l12.8-24.729a3.5 3.5 0 0 0 -6.217-3.216l-12.8 24.729a3.5 3.5 0 0 0 1.5 4.716z"/><path d="m315.705 23.9 3.192-6.17a3.5 3.5 0 0 0 -6.217-3.217l-3.192 6.17a3.5 3.5 0 1 0 6.217 3.217z"/><path d="m253.811 44.766a3.5 3.5 0 0 0 4.717-1.5l1.818-3.513a3.5 3.5 0 0 0 -6.217-3.217l-1.818 3.514a3.5 3.5 0 0 0 1.5 4.716z"/><path d="m273.433 6.843a3.5 3.5 0 0 0 -4.717 1.5l-6.384 12.339a3.5 3.5 0 1 0 6.216 3.217l6.385-12.34a3.5 3.5 0 0 0 -1.5-4.716z"/><path d="m224.638 6.843a3.5 3.5 0 0 0 -4.717 1.5l-7.628 14.743a3.5 3.5 0 1 0 6.217 3.214l7.628-14.743a3.5 3.5 0 0 0 -1.5-4.714z"/><path d="m177.483 6.843a3.5 3.5 0 0 0 -4.717 1.5l-8.239 15.922a3.5 3.5 0 1 0 6.217 3.217l8.239-15.923a3.5 3.5 0 0 0 -1.5-4.716z"/><path d="m128.313 6.843a3.5 3.5 0 0 0 -4.717 1.5l-12.769 24.68a3.5 3.5 0 1 0 6.216 3.217l12.77-24.681a3.5 3.5 0 0 0 -1.5-4.716z"/><path d="m40.005 87.727a3.5 3.5 0 0 0 -4.716 1.5l-22.383 43.258a3.5 3.5 0 1 0 6.217 3.217l22.382-43.258a3.5 3.5 0 0 0 -1.5-4.717z"/><path d="m56.878 55.116a3.5 3.5 0 0 0 -4.716 1.5l-1.928 3.726a3.5 3.5 0 1 0 6.217 3.217l1.927-3.726a3.5 3.5 0 0 0 -1.5-4.717z"/><path d="m81.856 6.843a3.5 3.5 0 0 0 -4.717 1.5l-15.257 29.486a3.5 3.5 0 1 0 6.218 3.217l15.256-29.487a3.5 3.5 0 0 0 -1.5-4.716z"/><path d="m13.924 54.612 12.663-24.474a3.5 3.5 0 1 0 -6.216-3.217l-12.663 24.479a3.5 3.5 0 1 0 6.216 3.217z"/><path d="m29.213 17.445a3.5 3.5 0 0 0 4.717-1.5l2.27-4.386a3.5 3.5 0 0 0 -6.217-3.216l-2.27 4.385a3.5 3.5 0 0 0 1.5 4.717z"/></g><path d="m159.194 264.729v2.736a10.051 10.051 0 0 1 -10.052 10.052h-45.871a13.132 13.132 0 0 0 -13.131 13.132 13.131 13.131 0 0 0 13.131 13.132h56.222a26.689 26.689 0 0 0 26.689-26.689v-12.363z" fill="#ffcac0"/><path d="m291.118 202.515a191.2 191.2 0 0 0 -6.85-49.622 29.765 29.765 0 0 1 -4.668 2.307c-11.13 4.345-23.722 1.636-32.672-6.279a45.048 45.048 0 0 1 -7.212-8.131s-47.65 13.62-69.835-31.807c0 0-25.184 10.582-43.715 5.565a70.176 70.176 0 0 1 10.26 22.48 1.608 1.608 0 0 0 1.544 1.239c8.64.067 59.942 2.446 85.149 48.832a1.614 1.614 0 0 0 1.614.84c6.515-.826 40.954-4.077 63.688 15.771a1.618 1.618 0 0 0 2.697-1.195z" fill="#f48d40"/></svg>